<svg width="42" height="84" viewBox="0 0 42 84" fill="none" xmlns="http://www.w3.org/2000/svg">
<g filter="url(#filter0_d_13_23525)">
<path d="M33.2666 66.6002C33.0368 68.5893 32.7293 70.1343 32.3198 70.888C30.7658 73.7439 17.7982 73.5685 17.7982 73.5685C15.5683 73.6174 5.08026 73.7095 3.64064 71.2043C3.19111 70.4218 2.83703 68.7502 2.55732 66.6002H2.27319C2.58398 69.9689 3.0224 72.7261 3.64064 73.8016C5.08359 76.3068 15.5683 76.2147 17.7982 76.1658C17.7982 76.1658 30.768 76.3412 32.3198 73.4853C32.8936 72.4286 33.2677 69.8147 33.5085 66.6035L33.2666 66.6002Z" fill="#FF0000"/>
<path d="M34.1533 13.3777C34.1533 9.4285 31.465 5.98208 29.9355 4.11957C28.4714 2.34363 18.4918 2.56562 17.5961 2.59337C16.7003 2.57006 6.71848 2.34141 5.25666 4.11957C3.72381 5.98208 1.03882 9.4285 1.03882 13.3777V45.4333C1.03882 45.4333 1.03883 69.0566 3.21435 72.7627C4.68504 75.2679 15.4028 75.1758 17.6826 75.1269C17.6826 75.1269 30.9356 75.3023 32.5206 72.4464C34.4597 68.9533 34.1655 48.4713 34.1111 45.4333H34.16L34.1533 13.3777Z" fill="#BF1010"/>
<path d="M32.4386 72.6162C33.4542 70.787 33.8571 64.2915 34.0025 58.0924C33.0701 58.1179 32.4619 59.3078 31.1255 59.2778C30.2542 59.2579 29.9045 58.6674 29.102 58.5331C28.3828 58.4121 27.3871 58.765 26.6534 58.876C24.9885 59.1258 23.1882 59.0647 21.4366 59.0647C17.5063 59.0647 13.6547 58.8516 9.72325 58.8516C8.83528 58.8516 7.77638 58.3621 6.88952 58.3621C5.86503 58.3621 5.50207 59.0858 4.58858 59.3611C3.59738 59.6597 2.13447 59.4832 1.26648 58.7329C1.55063 64.8476 2.0934 71.1644 3.13233 72.9403C4.60302 75.4444 15.3208 75.3523 17.5995 75.3034C17.5995 75.2968 30.8535 75.4732 32.4386 72.6162Z" fill="#BF1010"/>
<path d="M29.8967 2.54899C28.4326 0.773061 18.453 0.995053 17.5562 1.02391C16.6604 0.999493 6.67855 0.770841 5.21784 2.54899C3.68499 4.4115 1 7.85792 1 11.8072V14.612C1 10.6628 3.68832 7.21637 5.21784 5.35386C6.68077 3.57793 16.6604 3.79992 17.5562 3.82767C18.453 3.80436 28.4337 3.5746 29.8967 5.35386C31.4284 7.21637 34.1145 10.6628 34.1145 14.612V11.8072C34.1167 7.85792 31.4284 4.4115 29.8967 2.54899Z" fill="#FF0000"/>
<path d="M17.635 2.20272C16.7393 2.1783 6.75742 1.94965 5.2956 3.72781C3.76275 5.59032 1.07776 9.03674 1.07776 12.986V23.1121C3.5563 21.0232 6.81845 19.8844 10.0862 19.5325C15.525 18.9476 19.5752 18.881 21.9416 19.1074C25.307 19.4282 31.4529 20.456 34.1989 22.6892V12.986C34.1989 9.03674 31.5106 5.59032 29.9811 3.72781C28.5104 1.94965 18.5307 2.18052 17.635 2.20272Z" fill="#BF1010"/>
<path d="M27.679 28.4309C26.4791 27.2755 8.70647 27.2755 7.5066 28.4309C6.10028 29.7862 6.82508 52.2562 7.89064 53.4694C8.72755 54.4239 26.458 54.4239 27.2949 53.4694C28.3605 52.2562 29.0853 29.7862 27.679 28.4309Z" fill="#DB2521"/>
<path d="M28.0852 9.28421C26.7532 4.52471 17.5872 4.69343 17.5872 4.69343C17.5872 4.69343 8.41785 4.52471 7.09034 9.28421C6.38552 11.8127 5.54529 20.6058 5.54529 20.6058C5.54529 20.6058 7.80071 20.1063 11.9697 19.4315C14.5304 19.0163 20.6451 19.0163 23.2058 19.4315C27.3748 20.1063 29.6436 20.6058 29.6436 20.6058C29.6436 20.6058 28.79 11.8127 28.0852 9.28421Z" fill="#F52924"/>
<path d="M28.8711 59.1536C28.8711 59.1536 25.3936 60.0105 23.5921 60.1048C20.9482 60.2447 17.635 60.4023 17.635 60.4023C17.635 60.4023 14.3218 60.2447 11.6778 60.1048C9.87638 60.0105 6.39888 59.1536 6.39888 59.1536C6.39888 59.1536 6.33784 70.2065 6.90724 71.3631C8.05161 73.6851 17.635 73.6851 17.635 73.6851C17.635 73.6851 27.2183 73.6851 28.3627 71.3631C28.9288 70.2065 28.8711 59.1536 28.8711 59.1536Z" fill="#F52924"/>
<path d="M5.59295 21.5792C4.92698 22.0232 7.15356 27.3121 7.15356 27.3121C7.15356 27.3121 14.0575 26.6994 17.1177 26.6994C25.7698 26.6994 27.4125 27.7594 27.9409 27.3121C28.4692 26.8648 29.9488 22.2263 29.6868 21.8045C29.1063 20.871 23.4011 20.093 17.8502 20.073C11.3525 20.0508 6.75286 20.8122 5.59295 21.5792Z" fill="#385459"/>
<path d="M27.7423 54.1854C26.7733 54.1854 25.4802 54.5084 22.6786 54.7093C20.0147 54.9002 17.5562 54.9602 17.5562 54.9602C17.5562 54.9602 15.0943 54.9002 12.4348 54.7093C9.63327 54.5084 8.34018 54.1888 7.37119 54.1854C6.37223 54.1854 5.14572 58.1224 5.73067 58.4987C5.99817 58.6719 8.409 59.1536 11.0074 59.4777C14.0787 59.8618 17.5562 59.8296 17.5562 59.8296C17.5562 59.8296 21.0348 59.8618 24.1049 59.4777C26.7033 59.1536 29.1142 58.6719 29.3817 58.4987C29.9677 58.1224 28.7412 54.1821 27.7423 54.1854Z" fill="#385459"/>
<path d="M2.97794 22.4672C2.44072 22.7059 2.81589 37.8091 2.81589 39.424C2.81589 39.9657 5.56858 40.1766 5.694 39.4995C5.81943 38.8224 6.21792 28.4288 6.04477 27.3011C5.57858 24.2742 3.65612 22.1653 2.97794 22.4672Z" fill="#385459"/>
<path d="M2.95579 41.0378C3.32763 40.4829 5.48873 40.6949 5.57753 41.0378C5.66632 41.3808 6.36446 53.2707 6.08031 53.9966C5.79616 54.7225 4.1612 58.9159 3.55849 58.4364C2.95578 57.9569 2.42967 41.8237 2.95579 41.0378Z" fill="#385459"/>
<path d="M32.1609 22.4672C32.6982 22.7059 32.323 37.8091 32.323 39.424C32.323 39.9657 29.5703 40.1766 29.446 39.4995C29.3217 38.8224 28.921 28.4288 29.0952 27.3011C29.5603 24.2742 31.4817 22.1653 32.1609 22.4672Z" fill="#385459"/>
<path d="M32.1821 41.0378C31.8103 40.4829 29.6492 40.6949 29.5604 41.0378C29.4716 41.3808 28.7745 53.2707 29.0576 53.9966C29.3406 54.7225 30.9767 58.9159 31.5794 58.4364C32.1821 57.9569 32.7093 41.8237 32.1821 41.0378Z" fill="#385459"/>
<path d="M25.4968 4.76113C25.5378 4.38818 25.5667 3.76216 26.0229 3.57125C26.5002 3.37257 27.316 3.49134 27.8432 3.54017C29.0553 3.65117 29.9166 4.37597 30.4205 5.30723C30.6425 5.72568 31.1642 7.9012 30.1264 7.74137L30.0542 7.80352C29.729 7.58153 29.5281 7.12423 29.2262 6.84119C28.895 6.53523 28.511 6.29191 28.093 6.12305C27.5291 5.8844 27.0751 5.67906 26.4513 5.62578C25.7276 5.56252 25.4202 5.45374 25.4968 4.76113Z" fill="#FF0000"/>
<path d="M25.2825 5.13519C25.3236 4.76114 25.3524 4.13623 25.8086 3.94532C26.2859 3.74552 27.1029 3.86429 27.629 3.91313C28.8411 4.02412 29.7024 4.74893 30.2063 5.68018C30.4283 6.09974 30.9511 8.27526 29.9122 8.11432L29.84 8.17648C29.5148 7.95449 29.3139 7.49829 29.012 7.21414C28.6809 6.90829 28.2969 6.66531 27.8787 6.49711C27.3149 6.25736 26.8609 6.05313 26.2382 5.99874C25.5134 5.93658 25.207 5.8267 25.2825 5.13519Z" fill="#CECDB6"/>
<path opacity="0.5" d="M28.4847 4.48921C28.5647 4.63795 28.5291 5.08082 28.3427 5.19848C28.1384 5.32612 27.6945 5.21069 27.4858 5.17517C27.0351 5.09636 26.1627 5.19737 25.9607 4.73784C25.6677 4.07187 26.5801 4.1085 27.0229 4.14623C27.3759 4.1762 28.215 4.24724 28.4592 4.47922C28.5003 4.51807 28.5203 4.63129 28.5203 4.61242L28.4847 4.48921Z" fill="white"/>
<path d="M9.64218 4.76113C9.60111 4.38818 9.57225 3.76216 9.11606 3.57125C8.63878 3.37257 7.82297 3.49134 7.29574 3.54017C6.08367 3.65117 5.22342 4.37597 4.71839 5.30723C4.4964 5.72568 3.97474 7.9012 5.01366 7.74137L5.08468 7.80352C5.4099 7.58153 5.6108 7.12423 5.91271 6.84119C6.24392 6.53523 6.62791 6.29191 7.046 6.12305C7.60986 5.8844 8.06381 5.67906 8.6876 5.62578C9.4113 5.56252 9.71877 5.45374 9.64218 4.76113Z" fill="#FF0000"/>
<path d="M9.85642 5.13519C9.81535 4.76114 9.78649 4.13623 9.3303 3.94532C8.85302 3.74552 8.0361 3.86429 7.50998 3.91313C6.2979 4.02412 5.43658 4.74893 4.93266 5.68018C4.71067 6.09974 4.18786 8.27526 5.22679 8.11432L5.29895 8.17648C5.62417 7.95449 5.82506 7.49829 6.12697 7.21414C6.45823 6.90852 6.8422 6.66557 7.26024 6.49711C7.8241 6.25736 8.27807 6.05313 8.90187 5.99874C9.62556 5.93658 9.93189 5.8267 9.85642 5.13519Z" fill="#CECDB6"/>
<path opacity="0.5" d="M6.65414 4.48921C6.57422 4.63795 6.60975 5.08082 6.79622 5.19848C7.00045 5.32612 7.44443 5.21069 7.6531 5.17517C8.10375 5.09636 8.97617 5.19737 9.17819 4.73784C9.47121 4.07187 8.55882 4.1085 8.11706 4.14623C7.76298 4.1762 6.92386 4.24724 6.67967 4.47922C6.6386 4.51807 6.61862 4.63129 6.61862 4.61242L6.65414 4.48921Z" fill="white"/>
<path d="M8.38454 73.8727C8.32128 73.1324 8.0327 73.0614 7.36672 72.8549C6.75069 72.6651 6.13799 72.3554 5.52418 72.1689C5.05578 72.0258 4.12453 71.655 3.65058 71.9603C3.40972 72.1157 3.30649 72.472 3.26099 72.8338C3.92696 73.8261 6.07585 74.3989 8.53995 74.7207C8.50555 74.4144 8.40119 74.0714 8.38454 73.8727Z" fill="#F71E1E"/>
<path d="M27.296 73.6462C27.3593 72.9059 27.6479 72.8349 28.3139 72.6295C28.9299 72.4386 29.5426 72.13 30.1564 71.9425C30.6248 71.7993 31.5561 71.4285 32.03 71.7349C32.2709 71.8892 32.3741 72.2466 32.4185 72.6073C31.7525 73.6063 29.6047 74.1735 27.1395 74.4942C27.1762 74.189 27.2794 73.846 27.296 73.6462Z" fill="#F71E1E"/>
<path opacity="0.2" d="M12.8887 20.2206L10.5712 27.0369L12.3915 26.9081L15.5338 20.0985L12.8887 20.2206Z" fill="#CECDB6"/>
<path opacity="0.2" d="M15.3562 26.7427L19.7483 20.073L22.4788 20.2584L18.0412 26.7039L15.3562 26.7427Z" fill="#CECDB6"/>
<path opacity="0.2" d="M21.4543 26.8026L25.1583 20.5314L26.1728 20.6779L22.4788 26.8637L21.4543 26.8026Z" fill="#CECDB6"/>
<path opacity="0.2" d="M10.296 20.457L7.15369 27.3121L7.95174 27.2444L11.3915 20.3394L10.296 20.457Z" fill="#CECDB6"/>
<path d="M24.8475 32.3925H10.4635C9.98597 32.3925 9.59888 32.7796 9.59888 33.2571V35.4371C9.59888 35.9146 9.98597 36.3017 10.4635 36.3017H24.8475C25.325 36.3017 25.7121 35.9146 25.7121 35.4371V33.2571C25.7121 32.7796 25.325 32.3925 24.8475 32.3925Z" fill="#4848CC"/>
<path d="M25.0939 32.9874H10.2893V33.7566H25.0939V32.9874Z" fill="#2974E2"/>
<path d="M24.8108 32.3925H17.8558V36.3017H24.8108C24.9245 36.3019 25.037 36.2796 25.1421 36.2362C25.2471 36.1928 25.3425 36.1292 25.423 36.0489C25.5034 35.9686 25.5671 35.8732 25.6107 35.7682C25.6542 35.6632 25.6766 35.5507 25.6766 35.4371V33.2593C25.6767 33.1455 25.6545 33.0328 25.611 32.9277C25.5676 32.8225 25.5038 32.7269 25.4234 32.6464C25.343 32.5659 25.2475 32.502 25.1424 32.4585C25.0373 32.4149 24.9246 32.3925 24.8108 32.3925Z" fill="#FF472E"/>
<path d="M25.0606 33.0228H19.8372V33.8364H25.0606V33.0228Z" fill="#F46F62"/>
<path d="M20.2744 32.3925H15.0354V36.3017H20.2744V32.3925Z" fill="white"/>
<path d="M9.16041 10.8137H10.7454C10.8631 10.8133 10.9795 10.8379 11.087 10.8857C11.1946 10.9335 11.2907 11.0036 11.3692 11.0912C11.5497 11.2913 11.6438 11.5546 11.6312 11.8238C11.6345 11.8365 11.6364 11.8495 11.6367 11.8626V11.9059C11.6362 11.9714 11.6306 12.0367 11.6201 12.1013C11.6087 12.1746 11.5905 12.2467 11.5657 12.3166C11.5115 12.4825 11.4209 12.6342 11.3004 12.7606C11.2327 12.828 11.1516 12.8803 11.0622 12.9142C10.9729 12.9481 10.8774 12.9627 10.7821 12.9571H9.60109V14.572H9.1571L9.16041 10.8137ZM9.60439 12.5475H10.7488C10.7768 12.5386 10.8034 12.5255 10.8276 12.5086C10.8793 12.478 10.9267 12.4407 10.9685 12.3976C11.0377 12.3315 11.0941 12.2533 11.135 12.1668C11.1858 12.0616 11.2062 11.9443 11.1939 11.8282C11.1828 11.6856 11.1251 11.5507 11.0296 11.4442C10.9836 11.3966 10.9282 11.3592 10.8668 11.3345C10.8054 11.3098 10.7394 11.2984 10.6733 11.301H9.60439V12.5475Z" fill="white"/>
<path d="M12.0819 12.3699C12.088 12.3088 12.0973 12.248 12.1096 12.1879C12.1893 11.8215 12.3705 11.4849 12.6324 11.2167C12.775 11.0676 12.9478 10.9509 13.1393 10.8743C13.3307 10.7977 13.5364 10.7631 13.7424 10.7727C13.799 10.7727 13.8534 10.7727 13.9111 10.7793C13.9679 10.7851 14.0243 10.7947 14.0798 10.8082C14.4252 10.8875 14.7363 11.0749 14.9678 11.3432C15.2401 11.6392 15.384 12.0946 15.3996 12.7096C15.4088 13.2067 15.2526 13.6928 14.9556 14.0915C14.6596 14.4866 14.2156 14.6842 13.6236 14.6842C13.1057 14.6842 12.7179 14.484 12.4604 14.0837C12.2029 13.6834 12.073 13.1709 12.0708 12.5464C12.0713 12.4874 12.0749 12.4285 12.0819 12.3699ZM12.5503 13.0647C12.567 13.1677 12.5923 13.269 12.6258 13.3678C12.6965 13.5791 12.8098 13.7736 12.9588 13.9394C13.1322 14.1244 13.3714 14.2336 13.6247 14.2435C13.6469 14.2435 13.668 14.2502 13.688 14.2513C13.7091 14.2525 13.7302 14.2525 13.7513 14.2513C14.0606 14.2513 14.3373 14.1066 14.5815 13.8173C14.8257 13.528 14.9367 13.0899 14.9145 12.5031C14.9001 12.1735 14.7803 11.8571 14.5726 11.6007C14.473 11.4744 14.345 11.3732 14.199 11.3055C14.0531 11.2379 13.8932 11.2055 13.7324 11.2111C13.6916 11.211 13.6508 11.2136 13.6103 11.2189C13.5695 11.2236 13.5291 11.231 13.4893 11.2411C13.221 11.3118 12.9844 11.471 12.8178 11.6928C12.615 11.9393 12.5137 12.3048 12.5137 12.7895C12.5237 12.8749 12.5347 12.966 12.5503 13.0647Z" fill="white"/>
<path d="M15.8801 10.8137H16.3585V14.1203H18.0235V14.5643H15.8801V10.8137Z" fill="white"/>
<path d="M18.6062 10.8137H19.0502V14.5665H18.6062V10.8137Z" fill="white"/>
<path d="M19.6628 12.5342C19.671 12.4602 19.681 12.3862 19.6928 12.3122C19.7568 11.9443 19.9045 11.596 20.1246 11.2944C20.3466 10.9825 20.7073 10.8082 21.199 10.7749C21.2885 10.7759 21.3777 10.7852 21.4654 10.8027C21.5722 10.8237 21.6761 10.8573 21.7751 10.9025C21.955 10.9951 22.1135 11.1244 22.2402 11.2822C22.4062 11.4999 22.5171 11.7547 22.5631 12.0247H22.0848C22.0378 11.7889 21.915 11.5749 21.7351 11.4153C21.5885 11.2886 21.4017 11.2179 21.2079 11.2156H21.1724C21.1625 11.2138 21.1523 11.2138 21.1424 11.2156C21.0078 11.2327 20.878 11.2766 20.7607 11.3449C20.6435 11.4132 20.5411 11.5043 20.4598 11.6129C20.2526 11.8571 20.1416 12.2082 20.1268 12.6663C20.1268 13.2168 20.2315 13.6142 20.4409 13.8584C20.6503 14.1026 20.8801 14.2265 21.1302 14.2302H21.1446C21.3999 14.2283 21.6442 14.1262 21.825 13.9461C21.9289 13.8489 22.0123 13.732 22.0704 13.6022C22.1285 13.4724 22.1602 13.3323 22.1636 13.1902H22.642C22.6353 13.2346 22.6286 13.279 22.6209 13.3256C22.6131 13.3722 22.602 13.4188 22.5898 13.4666C22.5035 13.7794 22.3419 14.0664 22.1192 14.3024C22.0086 14.4254 21.8727 14.5231 21.7207 14.5887C21.5688 14.6542 21.4044 14.686 21.239 14.682C20.7055 14.6982 20.307 14.511 20.0435 14.1203C19.7762 13.7135 19.6388 13.2351 19.6495 12.7484C19.6495 12.6807 19.6551 12.6074 19.6628 12.5342Z" fill="white"/>
<path d="M23.2991 10.8137H25.6633V11.2144H23.7453V12.4287H25.5989V12.8727H23.7453V14.1225H25.7377V14.5665H23.2958L23.2991 10.8137Z" fill="white"/>
<path d="M25.8463 67.5027H24.339C24.226 67.5028 24.1143 67.4782 24.0117 67.4306C23.9091 67.3831 23.8182 67.3137 23.7452 67.2274C23.5721 67.025 23.4828 66.7642 23.4954 66.4982C23.4944 66.4852 23.4944 66.4722 23.4954 66.4593V66.416C23.4962 66.3514 23.5014 66.2868 23.511 66.2229C23.522 66.1501 23.5395 66.0784 23.5631 66.0087C23.6145 65.847 23.7001 65.6982 23.814 65.5725C23.8768 65.5057 23.9535 65.4536 24.0387 65.4197C24.1238 65.3857 24.2153 65.3708 24.3068 65.376H25.4312V63.771H25.8508L25.8463 67.5027ZM25.4268 65.7811H24.339C24.3116 65.7901 24.2858 65.8032 24.2624 65.82C24.2135 65.8511 24.1687 65.8884 24.1292 65.931C24.0633 65.9977 24.0096 66.0755 23.9705 66.1607C23.9191 66.278 23.9013 66.4073 23.9191 66.5341C23.9369 66.661 23.9897 66.7803 24.0715 66.8789C24.114 66.9261 24.1663 66.9634 24.2248 66.9882C24.2833 67.0129 24.3466 67.0245 24.4101 67.0221H25.4268V65.7811Z" fill="white"/>
<path d="M23.0682 65.9554C23.0616 66.0142 23.0527 66.0752 23.0416 66.1363C22.9671 66.4978 22.7947 66.8318 22.5432 67.102C22.4116 67.2486 22.2493 67.3645 22.0678 67.4412C21.8863 67.518 21.6901 67.5537 21.4932 67.5459C21.4399 67.5459 21.3822 67.5459 21.3334 67.5382C21.2791 67.533 21.2252 67.5233 21.1725 67.5093C20.8397 67.4286 20.5423 67.2416 20.3255 66.9765C20.0673 66.6872 19.9304 66.2343 19.9149 65.6179C19.9053 65.1266 20.0531 64.6451 20.3367 64.2438C20.6171 63.8524 21.0385 63.6563 21.6009 63.6555C21.8226 63.6446 22.0431 63.6943 22.2387 63.7993C22.4343 63.9044 22.5975 64.0607 22.7108 64.2516C22.958 64.6497 23.0816 65.1595 23.0816 65.7811C23.0771 65.8366 23.0738 65.8921 23.0682 65.9554ZM22.6243 65.2639C22.608 65.162 22.5843 65.0615 22.5532 64.9631C22.4878 64.7547 22.3813 64.5615 22.2402 64.3948C22.16 64.3038 22.0622 64.2301 21.9527 64.178C21.8432 64.1259 21.7243 64.0966 21.6031 64.0918L21.5432 64.084C21.5228 64.0829 21.5024 64.0829 21.4821 64.084C21.1861 64.084 20.9231 64.2275 20.693 64.5146C20.4628 64.8018 20.3559 65.2376 20.3722 65.8222C20.3848 66.1476 20.4985 66.4611 20.6974 66.719C20.7893 66.8432 20.9098 66.9433 21.0488 67.0108C21.1878 67.0783 21.341 67.1111 21.4954 67.1064C21.5325 67.1062 21.5696 67.104 21.6064 67.0997C21.6438 67.0941 21.6809 67.0863 21.7174 67.0764C21.9746 67.0056 22.1998 66.8489 22.3557 66.6324C22.5488 66.3868 22.6453 66.0231 22.6453 65.5414C22.6476 65.4481 22.6365 65.3627 22.622 65.2639H22.6243Z" fill="white"/>
<path d="M19.4552 67.5027H19.0002V64.2139H17.4174V63.7699H19.4552V67.5027Z" fill="white"/>
<path d="M16.8603 67.5027H16.4363V63.771H16.8603V67.5027Z" fill="white"/>
<path d="M15.8591 65.7921C15.8524 65.8654 15.8424 65.9387 15.8302 66.0141C15.7709 66.3777 15.6305 66.7233 15.4196 67.0253C15.2064 67.3361 14.8661 67.5089 14.3984 67.5437C14.3129 67.5422 14.2278 67.5325 14.1442 67.5148C14.0425 67.494 13.9437 67.4608 13.8501 67.416C13.6769 67.3232 13.5256 67.1945 13.4061 67.0386C13.2464 66.82 13.1407 66.5667 13.0975 66.2994H13.5526C13.5962 66.5317 13.7129 66.744 13.8856 66.9054C14.023 67.0307 14.2014 67.1013 14.3873 67.1041H14.4217C14.4312 67.1058 14.441 67.1058 14.4506 67.1041C14.6844 67.0841 14.9004 66.9524 15.0988 66.709C15.2971 66.4655 15.4018 66.1162 15.4129 65.6612C15.4129 65.1143 15.3134 64.7192 15.1143 64.4757C14.9153 64.2323 14.697 64.1091 14.4594 64.1061H14.4461C14.3256 64.1085 14.2068 64.1347 14.0965 64.1833C13.9862 64.2319 13.8866 64.3019 13.8034 64.3892C13.6025 64.5886 13.4874 64.8586 13.4827 65.1417H13.0276C13.0276 65.0973 13.0409 65.0518 13.0476 65.0063C13.0542 64.9608 13.0653 64.9131 13.0764 64.8653C13.1562 64.5572 13.3084 64.2725 13.5204 64.0351C13.6229 63.914 13.7511 63.8173 13.8957 63.752C14.0403 63.6867 14.1976 63.6545 14.3562 63.6577C14.8646 63.6407 15.2438 63.8257 15.4939 64.2127C15.7491 64.6211 15.8791 65.0953 15.868 65.5768C15.8724 65.6467 15.8669 65.7189 15.8591 65.7921Z" fill="white"/>
<path d="M12.4015 67.5027H10.1538V67.1042H11.9775V65.8921H10.2204V65.4537H11.9775V64.2139H10.0817V63.7699H12.4015V67.5027Z" fill="white"/>
</g>
<defs>
<filter id="filter0_d_13_23525" x="0" y="0" width="41.1989" height="83.1819" filterUnits="userSpaceOnUse" color-interpolation-filters="sRGB">
<feFlood flood-opacity="0" result="BackgroundImageFix"/>
<feColorMatrix in="SourceAlpha" type="matrix" values="0 0 0 0 0 0 0 0 0 0 0 0 0 0 0 0 0 0 127 0" result="hardAlpha"/>
<feOffset dx="3" dy="3"/>
<feGaussianBlur stdDeviation="2"/>
<feComposite in2="hardAlpha" operator="out"/>
<feColorMatrix type="matrix" values="0 0 0 0 0 0 0 0 0 0 0 0 0 0 0 0 0 0 0.25 0"/>
<feBlend mode="normal" in2="BackgroundImageFix" result="effect1_dropShadow_13_23525"/>
<feBlend mode="normal" in="SourceGraphic" in2="effect1_dropShadow_13_23525" result="shape"/>
</filter>
</defs>
</svg>
