<svg width="7" height="10" viewBox="0 0 7 10" fill="none" xmlns="http://www.w3.org/2000/svg">
<path d="M1.15885 9.12665C1.00608 8.97387 0.929688 8.77943 0.929688 8.54331C0.929688 8.3072 1.00608 8.11276 1.15885 7.95998L4.40885 4.70998L1.15885 1.45998C1.00608 1.3072 0.929688 1.11276 0.929688 0.876648C0.929688 0.640537 1.00608 0.446092 1.15885 0.293314C1.31163 0.140537 1.50608 0.0641479 1.74219 0.0641479C1.9783 0.0641479 2.17274 0.140537 2.32552 0.293314L6.15885 4.12665C6.24219 4.20998 6.30135 4.30026 6.33635 4.39748C6.3708 4.4947 6.38802 4.59887 6.38802 4.70998C6.38802 4.82109 6.3708 4.92526 6.33635 5.02248C6.30135 5.1197 6.24219 5.20998 6.15885 5.29331L2.32552 9.12665C2.17274 9.27942 1.9783 9.35581 1.74219 9.35581C1.50608 9.35581 1.31163 9.27942 1.15885 9.12665Z" fill="#9C4900"/>
</svg>
