<svg width="246" height="61" viewBox="0 0 246 61" fill="none" xmlns="http://www.w3.org/2000/svg">
<circle cx="30.2812" cy="30.75" r="30" fill="#9C4900"/>
<path d="M20.2812 15.75H16.9479C16.0274 15.75 15.2812 16.4962 15.2812 17.4167V24.0833C15.2812 25.0038 16.0274 25.75 16.9479 25.75H20.2812C21.2017 25.75 21.9479 25.0038 21.9479 24.0833V17.4167C21.9479 16.4962 21.2017 15.75 20.2812 15.75Z" stroke="#F6EFE9" stroke-width="1.66667" stroke-linecap="round" stroke-linejoin="round"/>
<path d="M40.2786 42.4167C42.1196 42.4167 43.612 40.9243 43.612 39.0833C43.612 37.2424 42.1196 35.75 40.2786 35.75C38.4377 35.75 36.9453 37.2424 36.9453 39.0833C36.9453 40.9243 38.4377 42.4167 40.2786 42.4167Z" stroke="#F6EFE9" stroke-width="1.66667" stroke-linecap="round" stroke-linejoin="round"/>
<path d="M26.9505 19.0859H38.6172C43.2189 19.0859 46.9505 24.3093 46.9505 30.7526V39.0859H43.6172M36.9505 39.0859H23.6172" stroke="#F6EFE9" stroke-width="1.66667" stroke-linecap="round" stroke-linejoin="round"/>
<path d="M36.9505 19.0859L39.4505 30.7526H46.9505M26.1172 27.4193H38.6172M30.2839 19.0859V27.4193M18.6172 25.7526V44.0859" stroke="#F6EFE9" stroke-width="1.66667" stroke-linecap="round" stroke-linejoin="round"/>
<line x1="61.5703" y1="30.25" x2="243.57" y2="30.25" stroke="#9C4900" stroke-width="3" stroke-linecap="round"/>
</svg>
