<svg width="17" height="17" viewBox="0 0 17 17" fill="none" xmlns="http://www.w3.org/2000/svg">
<path d="M11.8348 16.9141C11.2063 16.9141 10.6683 16.6904 10.2211 16.2432C9.77311 15.7952 9.54911 15.2569 9.54911 14.6283V3.19978C9.54911 2.57121 9.77311 2.0333 10.2211 1.58606C10.6683 1.13806 11.2063 0.914062 11.8348 0.914062H14.1205C14.7491 0.914062 15.2874 1.13806 15.7354 1.58606C16.1826 2.0333 16.4062 2.57121 16.4062 3.19978V14.6283C16.4062 15.2569 16.1826 15.7952 15.7354 16.2432C15.2874 16.6904 14.7491 16.9141 14.1205 16.9141H11.8348ZM2.69196 16.9141C2.06339 16.9141 1.52549 16.6904 1.07825 16.2432C0.63025 15.7952 0.40625 15.2569 0.40625 14.6283V3.19978C0.40625 2.57121 0.63025 2.0333 1.07825 1.58606C1.52549 1.13806 2.06339 0.914062 2.69196 0.914062H4.97768C5.60625 0.914062 6.14454 1.13806 6.59254 1.58606C7.03977 2.0333 7.26339 2.57121 7.26339 3.19978V14.6283C7.26339 15.2569 7.03977 15.7952 6.59254 16.2432C6.14454 16.6904 5.60625 16.9141 4.97768 16.9141H2.69196Z" fill="#9C4900"/>
</svg>
