<svg width="21" height="24" viewBox="0 0 21 24" fill="none" xmlns="http://www.w3.org/2000/svg">
<path d="M17.6674 13.449V9.62358C17.6657 7.91915 17.0623 6.27033 15.9642 4.9691C14.866 3.66788 13.3439 2.79823 11.6674 2.51416V1.20295C11.6674 0.883906 11.541 0.577931 11.316 0.352335C11.0909 0.126739 10.7857 0 10.4674 0C10.1492 0 9.84395 0.126739 9.6189 0.352335C9.39386 0.577931 9.26743 0.883906 9.26743 1.20295V2.51416C7.59096 2.79823 6.06886 3.66788 4.97069 4.9691C3.87253 6.27033 3.26915 7.91915 3.26743 9.62358V13.449C2.56717 13.6971 1.96063 14.1564 1.53096 14.7637C1.10129 15.371 0.869519 16.0967 0.867432 16.8413V19.2472C0.867432 19.5662 0.99386 19.8722 1.2189 20.0978C1.44395 20.3234 1.74917 20.4501 2.06743 20.4501H5.83543C6.11177 21.4694 6.71503 22.3693 7.55215 23.0109C8.38926 23.6524 9.41371 24 10.4674 24C11.5212 24 12.5456 23.6524 13.3827 23.0109C14.2198 22.3693 14.8231 21.4694 15.0994 20.4501H18.8674C19.1857 20.4501 19.4909 20.3234 19.716 20.0978C19.941 19.8722 20.0674 19.5662 20.0674 19.2472V16.8413C20.0653 16.0967 19.8336 15.371 19.4039 14.7637C18.9742 14.1564 18.3677 13.6971 17.6674 13.449ZM5.66743 9.62358C5.66743 8.34741 6.17314 7.12351 7.07332 6.22113C7.97349 5.31874 9.19439 4.81179 10.4674 4.81179C11.7405 4.81179 12.9614 5.31874 13.8615 6.22113C14.7617 7.12351 15.2674 8.34741 15.2674 9.62358V13.2324H5.66743V9.62358ZM10.4674 21.6531C10.0486 21.6505 9.63772 21.5381 9.27563 21.3271C8.91354 21.1161 8.61284 20.8137 8.40343 20.4501H12.5314C12.322 20.8137 12.0213 21.1161 11.6592 21.3271C11.2971 21.5381 10.8863 21.6505 10.4674 21.6531ZM17.6674 18.0442H3.26743V16.8413C3.26743 16.5222 3.39386 16.2162 3.6189 15.9906C3.84395 15.7651 4.14917 15.6383 4.46743 15.6383H16.4674C16.7857 15.6383 17.0909 15.7651 17.316 15.9906C17.541 16.2162 17.6674 16.5222 17.6674 16.8413V18.0442Z" fill="#9C4900"/>
<circle cx="15.3674" cy="6.5" r="3.75" fill="#FF5E6F" stroke="white" stroke-width="1.5"/>
</svg>
