<svg width="101" height="101" viewBox="0 0 101 101" fill="none" xmlns="http://www.w3.org/2000/svg">
<path d="M81.8438 44.2051V82.2422C81.8437 84.7286 80.856 87.1132 79.0979 88.8713C77.3397 90.6295 74.9552 91.6172 72.4688 91.6172H28.7188C26.2323 91.6172 23.8478 90.6295 22.0896 88.8713C20.3315 87.1132 19.3438 84.7286 19.3438 82.2422V19.7422C19.3438 17.2558 20.3315 14.8712 22.0896 13.1131C23.8478 11.3549 26.2323 10.3672 28.7188 10.3672H48.0059C49.6629 10.3674 51.252 11.0257 52.4238 12.1973L80.0137 39.7871C81.1852 40.9589 81.8435 42.548 81.8438 44.2051Z" stroke="#9C4900" stroke-width="6.25" stroke-linejoin="round"/>
<path d="M50.5938 11.9297V35.3672C50.5937 37.0248 51.2522 38.6145 52.4243 39.7866C53.5964 40.9587 55.1861 41.6172 56.8438 41.6172H80.2812" stroke="#9C4900" stroke-width="6.25" stroke-linecap="round" stroke-linejoin="round"/>
</svg>
