<svg width="32" height="61" viewBox="0 0 32 61" fill="none" xmlns="http://www.w3.org/2000/svg">
<path d="M29.1048 13.4832C29.1048 7.65274 28.7781 5.25374 27.3009 3.73936C25.8237 2.22499 19.9363 1.16214 17.4448 1.16214C14.9529 1.16214 9.06582 2.22499 7.58866 3.73936C6.11149 5.25374 5.78473 7.35786 5.78473 13.4832C5.78473 21.8731 4.79129 53.2842 7.336 55.3927C9.88039 57.5015 14.8844 57.5859 17.4448 57.5859C20.0048 57.5859 25.0089 57.5015 27.5536 55.3927C30.0983 53.2842 29.1048 21.8731 29.1048 13.4832Z" fill="#505050"/>
<path d="M28.097 14.8036C28.097 9.15952 27.7984 7.07322 26.4482 5.68892C25.0979 4.30463 19.7168 3.73772 17.4391 3.73772C15.1615 3.73772 9.78031 4.30463 8.43009 5.68892C7.07988 7.07322 6.78125 8.53569 6.78125 14.8036C6.78125 16.1082 6.92884 18.0719 7.31408 20.0088C8.03422 21.652 8.42133 24.369 8.69056 27.015C8.38287 27.4462 8.20183 28.2973 8.20183 29.1979C7.7947 30.428 8.09864 33.0272 8.20183 34.6313C8.20745 34.7191 8.1962 34.9981 8.20183 35.0856C8.20183 35.0856 7.95855 40.6247 8.20183 43.07C8.26061 43.6616 8.39507 44.4802 8.49795 44.6641C8.58269 45.4152 7.56893 48.5496 7.67431 49.1265C7.88631 50.2848 7.87318 52.9289 8.19901 53.1988C10.5248 55.1262 15.0989 55.2031 17.4391 55.2031C19.7793 55.2031 24.3531 55.1262 26.6792 53.1988C27.0051 52.9289 26.9919 50.2848 27.2036 49.1265C27.3093 48.5496 26.2956 45.4152 26.3803 44.6641C26.5388 44.2301 26.6176 43.6616 26.6764 43.07C26.9197 40.6247 26.6764 35.0856 26.6764 35.0856C26.682 34.9981 26.6708 34.7191 26.6764 34.6313C26.7796 33.0272 27.0835 30.428 26.6764 29.1979C26.6764 28.2973 26.4954 27.4462 26.1877 27.015C26.4566 24.369 26.8437 21.652 27.5642 20.0088C27.9494 18.0719 28.097 16.1082 28.097 14.8036Z" fill="#282523"/>
<path d="M8.20238 34.6328V28.929L6.6511 20.5684C6.34122 23.5681 6.31808 29.3905 6.3778 34.6328H8.20238Z" fill="#6F7176"/>
<path d="M6.38281 35.0915C6.45035 40.5746 6.60326 45.3047 6.60326 45.3047L8.20207 43.0758V35.0915H6.38281Z" fill="#6F7176"/>
<path d="M17.4454 16.9222C17.4454 16.9222 11.6224 16.8478 7.32031 20.0094L8.69679 27.0156C8.69679 27.0156 11.0642 24.9931 17.4454 24.9931C23.8265 24.9931 26.1939 27.0156 26.1939 27.0156L27.5704 20.0094C23.2683 16.8478 17.4454 16.9222 17.4454 16.9222Z" fill="#6F7176"/>
<path d="M26.6797 34.6328V28.929L28.231 20.5684C28.5405 23.5681 28.5637 29.3905 28.5043 34.6328H26.6797Z" fill="#636467"/>
<path d="M28.4989 35.0915C28.4311 40.5746 28.2785 45.3047 28.2785 45.3047L26.6797 43.0758V35.0915H28.4989Z" fill="#636467"/>
<path d="M26.3799 44.6685C24.2099 45.2632 10.6674 45.2632 8.4976 44.6685C8.4976 44.6685 7.47571 47.3689 7.67396 49.1309C9.14299 50.0265 12.2543 51.1641 17.4388 51.1641C22.6232 51.1641 25.7342 50.0265 27.2033 49.1309C27.4018 47.3689 26.3799 44.6685 26.3799 44.6685Z" fill="#6F7176"/>
<path d="M6.11459 22.1444L3.69778 22.7407C3.47921 22.7948 3.27283 22.6056 3.30879 22.3779C3.37915 21.9352 3.634 21.2998 4.49359 21.0543C5.8707 20.6613 6.11459 22.1444 6.11459 22.1444Z" fill="#282523"/>
<path d="M28.7734 22.1444L31.1903 22.7407C31.4088 22.7948 31.6152 22.6056 31.5792 22.3779C31.5089 21.9352 31.254 21.2998 30.3941 21.0543C29.0173 20.6613 28.7734 22.1444 28.7734 22.1444Z" fill="#282523"/>
<path d="M26.1939 27.0156L27.5704 20.0094C23.2683 16.8478 17.4453 16.9222 17.4453 16.9222V24.9931C23.8265 24.9931 26.1939 27.0156 26.1939 27.0156Z" fill="#636467"/>
<path d="M26.3865 44.6685C26.313 44.6885 26.2339 44.706 26.1507 44.7222C26.1285 44.7266 26.0998 44.7307 26.0763 44.7348C26.0275 44.7435 25.9797 44.7526 25.9278 44.7601C24.4384 44.9962 20.9447 45.1144 17.4453 45.1144V51.1641C22.6298 51.1641 25.7408 50.0265 27.2098 49.1309C27.4084 47.3689 26.3865 44.6685 26.3865 44.6685Z" fill="#636467"/>
<path d="M19.8646 56.9052C18.2489 57.0343 16.6297 57.0343 15.0137 56.9052C14.7883 56.8871 14.5716 57.1504 14.5234 57.5049C15.6313 57.5775 16.6513 57.5859 17.4393 57.5859C18.227 57.5859 19.2473 57.5775 20.3552 57.5049C20.3067 57.1504 20.0903 56.8871 19.8646 56.9052Z" fill="#262A35"/>
<path d="M11.5375 56.8908C11.5381 56.8877 11.5387 56.8849 11.5394 56.8817C11.5919 56.6375 11.4428 56.3986 11.2051 56.3408C10.4987 56.1691 9.79735 55.9677 9.10255 55.7367C8.87053 55.6597 8.62162 55.7842 8.54251 56.0209C8.54157 56.0237 8.54064 56.0265 8.5397 56.0296C8.52531 56.0725 8.525 56.1156 8.52344 56.1588C9.38647 56.5953 10.3824 56.8986 11.413 57.1094C11.4709 57.0493 11.5187 56.9787 11.5375 56.8908Z" fill="#DF2C3A"/>
<path d="M26.3432 56.0209C26.2644 55.7842 26.0155 55.6597 25.7832 55.7367C25.0887 55.9677 24.3873 56.1691 23.6806 56.3408C23.4433 56.3986 23.2941 56.6375 23.3464 56.8817C23.347 56.8849 23.3479 56.8877 23.3485 56.8908C23.3673 56.9787 23.4151 57.0493 23.4727 57.1094C24.5036 56.8986 25.4996 56.5953 26.3626 56.1588C26.3607 56.1156 26.3604 56.0725 26.3463 56.0296C26.3454 56.0265 26.3442 56.0237 26.3432 56.0209Z" fill="#DF2C3A"/>
<path d="M23.0237 2.47939C23.3255 2.54474 23.6313 2.35306 23.7035 2.05319C23.7041 2.05069 23.7048 2.04787 23.7054 2.04537C23.7335 1.92748 23.6641 1.8071 23.5468 1.77614C21.3702 1.20172 18.858 0.858063 17.4418 0.858063C16.0256 0.858063 13.5134 1.20172 11.3368 1.77614C11.2195 1.8071 11.1498 1.92748 11.1782 2.04567C11.1788 2.04818 11.1795 2.051 11.1804 2.05381C11.2523 2.35337 11.5585 2.54474 11.8596 2.47939C13.6907 2.0807 15.5785 1.67701 17.4418 1.67545C19.3214 1.67357 21.1766 2.07726 23.0237 2.47939Z" fill="#262A35"/>
<path d="M21.5598 13.1141C21.5125 13.3489 21.2927 13.5218 21.0426 13.5218H13.8462C13.5961 13.5218 13.3762 13.3489 13.329 13.1141L12.3906 8.45241L13.1692 13.676C13.2077 13.9339 13.4291 14.125 13.6899 14.125H21.1986C21.4594 14.125 21.6811 13.9339 21.7195 13.676L22.4978 8.45241L21.5598 13.1141Z" fill="#505050"/>
<path d="M8.03866 3.81211C7.92139 3.85901 7.80445 3.90591 7.6875 3.95312C8.60244 3.58477 9.51895 3.21861 10.4367 2.85463C10.6384 2.77458 10.7372 2.54632 10.6568 2.34495C10.6559 2.34245 10.655 2.34026 10.654 2.33776C10.6453 2.31556 10.6287 2.29991 10.6165 2.28021C9.49018 2.61792 8.50895 3.01942 7.89982 3.4672C7.9461 3.58227 7.99238 3.69704 8.03866 3.81211Z" fill="white"/>
<path d="M7.68737 3.95622C7.80432 3.909 7.92127 3.8621 8.03853 3.8152C7.99225 3.70013 7.94597 3.58536 7.89969 3.47029C7.77962 3.55878 7.6733 3.64884 7.58387 3.74046C7.51633 3.80957 7.45348 3.8818 7.39062 3.95403C7.48224 3.99187 7.58825 3.99624 7.68737 3.95622Z" fill="#282523"/>
<path d="M24.4839 2.78141C25.3822 3.19073 26.2794 3.60224 27.1746 4.01562C27.0602 3.96278 26.9457 3.90993 26.8313 3.8574C26.8882 3.73357 26.9454 3.61006 27.0023 3.48655C26.3985 3.03439 25.4154 2.62913 24.2831 2.28829C24.2118 2.47935 24.295 2.69511 24.4839 2.78141Z" fill="white"/>
<path d="M27.007 3.48405C26.9501 3.60756 26.8928 3.73107 26.8359 3.8549C26.9504 3.90743 27.0648 3.96028 27.1793 4.01313C27.2975 4.06753 27.4254 4.05253 27.5311 3.99406C27.4573 3.90588 27.3816 3.81957 27.3012 3.73701C27.2174 3.65102 27.1177 3.56691 27.007 3.48405Z" fill="#282523"/>
<path d="M5.59294 33.625H5.58856C5.47505 33.625 5.38281 33.5328 5.38281 33.4193V32.1935C5.38281 32.0797 5.47505 31.9877 5.58856 31.9877H5.59294C5.70645 31.9877 5.7987 32.0797 5.7987 32.1935V33.4193C5.7987 33.5328 5.70645 33.625 5.59294 33.625Z" fill="#262A35"/>
<path d="M5.59294 38.1797H5.58856C5.47505 38.1797 5.38281 38.0878 5.38281 37.9739V36.7482C5.38281 36.6347 5.47505 36.5424 5.58856 36.5424H5.59294C5.70645 36.5424 5.7987 36.6347 5.7987 36.7482V37.9739C5.7987 38.0878 5.70645 38.1797 5.59294 38.1797Z" fill="#262A35"/>
<path d="M29.2958 33.625H29.2917C29.1779 33.625 29.0859 33.5328 29.0859 33.4193V32.1935C29.0859 32.0797 29.1779 31.9877 29.2917 31.9877H29.2958C29.4096 31.9877 29.5015 32.0797 29.5015 32.1935V33.4193C29.5015 33.5328 29.4096 33.625 29.2958 33.625Z" fill="#262A35"/>
<path d="M29.2958 38.1797H29.2917C29.1779 38.1797 29.0859 38.0878 29.0859 37.9739V36.7482C29.0859 36.6347 29.1779 36.5424 29.2917 36.5424H29.2958C29.4096 36.5424 29.5015 36.6347 29.5015 36.7482V37.9739C29.5015 38.0878 29.4096 38.1797 29.2958 38.1797Z" fill="#262A35"/>
</svg>
