<svg width="66" height="124" viewBox="0 0 66 124" fill="none" xmlns="http://www.w3.org/2000/svg">
<path d="M60.7193 26.2715C60.7193 14.2594 60.0461 9.31696 57.0028 6.197C53.9595 3.07705 41.8301 0.887352 36.697 0.887352C31.5632 0.887352 19.4345 3.07705 16.3912 6.197C13.3479 9.31696 12.6747 13.6519 12.6747 26.2715C12.6747 43.5566 10.628 108.27 15.8707 112.614C21.1127 116.959 31.4221 117.133 36.697 117.133C41.9712 117.133 52.2806 116.959 57.5233 112.614C62.7659 108.27 60.7193 43.5566 60.7193 26.2715Z" fill="#505050"/>
<path d="M58.6573 29.0025C58.6573 17.3744 58.0421 13.0761 55.2604 10.2242C52.4786 7.37223 41.3922 6.20427 36.6998 6.20427C32.0073 6.20427 20.9209 7.37223 18.1392 10.2242C15.3574 13.0761 14.7422 16.0892 14.7422 29.0025C14.7422 31.6902 15.0463 35.7359 15.8399 39.7262C17.3236 43.1116 18.1211 48.7092 18.6758 54.1606C18.0419 55.049 17.6689 56.8025 17.6689 58.6579C16.8301 61.1922 17.4563 66.547 17.6689 69.8518C17.6805 70.0329 17.6573 70.6075 17.6689 70.7879C17.6689 70.7879 17.1677 82.1996 17.6689 87.2374C17.79 88.4562 18.067 90.1428 18.279 90.5216C18.4535 92.069 16.365 98.5267 16.5821 99.7153C17.0189 102.101 16.9918 107.549 17.6631 108.105C22.4548 112.076 31.8784 112.234 36.6998 112.234C41.5211 112.234 50.9441 112.076 55.7364 108.105C56.4077 107.549 56.3806 102.101 56.8168 99.7153C57.0345 98.5267 54.946 92.069 55.1206 90.5216C55.4472 89.6274 55.6095 88.4562 55.7306 87.2374C56.2318 82.1996 55.7306 70.7879 55.7306 70.7879C55.7422 70.6075 55.719 70.0329 55.7306 69.8518C55.9432 66.547 56.5694 61.1922 55.7306 58.6579C55.7306 56.8025 55.3576 55.049 54.7237 54.1606C55.2777 48.7092 56.0753 43.1116 57.5596 39.7262C58.3532 35.7359 58.6573 31.6902 58.6573 29.0025Z" fill="#282523"/>
<path d="M17.6725 69.8516V58.1004L14.4765 40.8759C13.8381 47.0559 13.7904 59.0512 13.9134 69.8516H17.6725Z" fill="#6F7176"/>
<path d="M13.9219 70.7866C14.061 82.083 14.3761 91.8281 14.3761 91.8281L17.67 87.2361V70.7866H13.9219Z" fill="#6F7176"/>
<path d="M36.6958 33.3615C36.6958 33.3615 24.6991 33.2082 15.8359 39.7219L18.6718 54.1562C18.6718 54.1562 23.5492 49.9894 36.6958 49.9894C49.8423 49.9894 54.7197 54.1562 54.7197 54.1562L57.5556 39.7219C48.6924 33.2082 36.6958 33.3615 36.6958 33.3615Z" fill="#6F7176"/>
<path d="M55.7266 69.8516V58.1004L58.9226 40.8759C59.5603 47.0559 59.608 59.0512 59.4856 69.8516H55.7266Z" fill="#636467"/>
<path d="M59.4746 70.7866C59.3348 82.083 59.0204 91.8281 59.0204 91.8281L55.7266 87.2361V70.7866H59.4746Z" fill="#636467"/>
<path d="M55.1223 90.5161C50.6514 91.7414 22.7509 91.7414 18.2807 90.5161C18.2807 90.5161 16.1754 96.0795 16.5838 99.7097C19.6104 101.555 26.0204 103.898 36.7015 103.898C47.3827 103.898 53.792 101.555 56.8185 99.7097C57.2276 96.0795 55.1223 90.5161 55.1223 90.5161Z" fill="#6F7176"/>
<path d="M13.3593 44.1116L8.38017 45.3402C7.92986 45.4516 7.50468 45.0619 7.57876 44.5929C7.72371 43.6806 8.24876 42.3716 10.0197 41.8659C12.8569 41.0561 13.3593 44.1116 13.3593 44.1116Z" fill="#282523"/>
<path d="M60.0391 44.1116L65.0182 45.3402C65.4685 45.4516 65.8937 45.0619 65.8196 44.5929C65.6747 43.6806 65.1497 42.3716 63.3781 41.8659C60.5416 41.0561 60.0391 44.1116 60.0391 44.1116Z" fill="#282523"/>
<path d="M54.7193 54.1562L57.5551 39.7219C48.692 33.2082 36.6953 33.3615 36.6953 33.3615V49.9894C49.8419 49.9894 54.7193 54.1562 54.7193 54.1562Z" fill="#636467"/>
<path d="M55.1161 90.5161C54.9647 90.5573 54.8017 90.5934 54.6304 90.6269C54.5846 90.6359 54.5254 90.6443 54.4771 90.6526C54.3766 90.6707 54.278 90.6894 54.171 90.7048C51.1026 91.1912 43.9048 91.4347 36.6953 91.4347V103.898C47.3765 103.898 53.7858 101.555 56.8123 99.7097C57.2214 96.0795 55.1161 90.5161 55.1161 90.5161Z" fill="#636467"/>
<path d="M41.6992 115.73C38.3705 115.996 35.0348 115.996 31.7054 115.73C31.241 115.693 30.7945 116.235 30.6953 116.966C32.9778 117.115 35.0792 117.133 36.7027 117.133C38.3254 117.133 40.4275 117.115 42.71 116.966C42.6101 116.235 42.1643 115.693 41.6992 115.73Z" fill="#262A35"/>
<path d="M24.5377 115.698C24.539 115.692 24.5403 115.686 24.5416 115.679C24.6498 115.176 24.3426 114.684 23.8529 114.565C22.3977 114.211 20.9527 113.796 19.5212 113.32C19.0432 113.162 18.5304 113.418 18.3674 113.906C18.3655 113.912 18.3636 113.918 18.3616 113.924C18.332 114.012 18.3313 114.101 18.3281 114.19C20.1062 115.089 22.158 115.714 24.2813 116.148C24.4005 116.025 24.4991 115.879 24.5377 115.698Z" fill="#DF2C3A"/>
<path d="M55.0316 113.906C54.8693 113.418 54.3565 113.162 53.8778 113.32C52.447 113.796 51.002 114.211 49.5461 114.565C49.0571 114.684 48.7498 115.176 48.8574 115.679C48.8587 115.686 48.8606 115.692 48.8619 115.698C48.9006 115.879 48.9991 116.025 49.1177 116.148C51.2417 115.714 53.2935 115.089 55.0715 114.19C55.0677 114.101 55.067 114.012 55.038 113.924C55.0361 113.918 55.0335 113.912 55.0316 113.906Z" fill="#DF2C3A"/>
<path d="M48.1986 3.60644C48.8203 3.74108 49.4504 3.34618 49.5992 2.72837C49.6005 2.72322 49.6018 2.71742 49.603 2.71227C49.661 2.4694 49.518 2.22138 49.2764 2.1576C44.792 0.974174 39.6164 0.266155 36.6987 0.266155C33.781 0.266155 28.6054 0.974174 24.121 2.1576C23.8794 2.22138 23.7357 2.46938 23.7943 2.7129C23.7956 2.71805 23.7969 2.72387 23.7988 2.72966C23.947 3.34683 24.5777 3.74108 25.1981 3.60644C28.9706 2.78506 32.8598 1.95337 36.6987 1.95015C40.5711 1.94629 44.3932 2.77797 48.1986 3.60644Z" fill="#262A35"/>
<path d="M45.1795 25.511C45.0822 25.9948 44.6293 26.351 44.114 26.351H29.2879C28.7725 26.351 28.3196 25.9948 28.2224 25.511L26.2891 15.907L27.8932 26.6687C27.9724 27.2001 28.4285 27.5938 28.9658 27.5938H44.4354C44.9727 27.5938 45.4294 27.2001 45.5087 26.6687L47.1122 15.907L45.1795 25.511Z" fill="#505050"/>
<path d="M17.3328 6.35791C17.0912 6.45454 16.8503 6.55116 16.6094 6.64844C18.4944 5.88955 20.3826 5.13517 22.2733 4.3853C22.6889 4.22038 22.8924 3.75012 22.7269 3.33524C22.7249 3.33009 22.723 3.32558 22.7211 3.32042C22.703 3.27468 22.6689 3.24245 22.6438 3.20187C20.3233 3.89762 18.3017 4.7248 17.0468 5.64732C17.1421 5.88439 17.2375 6.12084 17.3328 6.35791Z" fill="white"/>
<path d="M16.6036 6.64511C16.8445 6.54784 17.0854 6.45122 17.327 6.35459C17.2317 6.11751 17.1363 5.88107 17.041 5.64399C16.7936 5.82631 16.5746 6.01185 16.3903 6.20061C16.2512 6.34298 16.1217 6.4918 15.9922 6.64062C16.1809 6.71857 16.3993 6.72757 16.6036 6.64511Z" fill="#282523"/>
<path d="M51.2079 4.23069C53.0588 5.07397 54.907 5.92178 56.7514 6.77344C56.5156 6.66456 56.2799 6.55569 56.0441 6.44746C56.1613 6.19235 56.2792 5.93789 56.3965 5.68342C55.1525 4.75188 53.1271 3.91695 50.7943 3.21476C50.6475 3.60837 50.8188 4.05289 51.2079 4.23069Z" fill="white"/>
<path d="M56.3993 5.67639C56.282 5.93086 56.1641 6.18532 56.0469 6.44043C56.2827 6.54866 56.5184 6.65753 56.7542 6.76641C56.9977 6.8785 57.2612 6.84759 57.479 6.72712C57.3269 6.54545 57.171 6.36763 57.0055 6.19756C56.8328 6.0204 56.6273 5.84711 56.3993 5.67639Z" fill="#282523"/>
<path d="M12.2845 67.7656H12.2754C12.0416 67.7656 11.8516 67.5756 11.8516 67.3417V64.8164C11.8516 64.5819 12.0416 64.3925 12.2754 64.3925H12.2845C12.5183 64.3925 12.7084 64.5819 12.7084 64.8164V67.3417C12.7084 67.5756 12.5183 67.7656 12.2845 67.7656Z" fill="#262A35"/>
<path d="M12.2845 77.1562H12.2754C12.0416 77.1562 11.8516 76.9669 11.8516 76.7324V74.207C11.8516 73.9732 12.0416 73.7831 12.2754 73.7831H12.2845C12.5183 73.7831 12.7084 73.9732 12.7084 74.207V76.7324C12.7084 76.9669 12.5183 77.1562 12.2845 77.1562Z" fill="#262A35"/>
<path d="M61.1198 67.7656H61.1114C60.8769 67.7656 60.6875 67.5756 60.6875 67.3417V64.8164C60.6875 64.5819 60.8769 64.3925 61.1114 64.3925H61.1198C61.3543 64.3925 61.5437 64.5819 61.5437 64.8164V67.3417C61.5437 67.5756 61.3543 67.7656 61.1198 67.7656Z" fill="#262A35"/>
<path d="M61.1198 77.1562H61.1114C60.8769 77.1562 60.6875 76.9669 60.6875 76.7324V74.207C60.6875 73.9732 60.8769 73.7831 61.1114 73.7831H61.1198C61.3543 73.7831 61.5437 73.9732 61.5437 74.207V76.7324C61.5437 76.9669 61.3543 77.1562 61.1198 77.1562Z" fill="#262A35"/>
</svg>
