<svg version="1.2" xmlns="http://www.w3.org/2000/svg" viewBox="0 0 61 34" width="61" height="34">
	<title>blue-car-map-svg</title>
	<style>
		.s0 { fill: #00a3c6 } 
		.s1 { fill: #00caf6 } 
		.s2 { fill: #262a35 } 
		.s3 { fill: #353f4b } 
		.s4 { fill: #df2c3a } 
		.s5 { fill: #ffffff } 
	</style>
	<path id="Layer" class="s0" d="m12.7 3.8c-5.8 0.1-8.2 0.4-9.7 2-1.5 1.5-2.4 7.4-2.4 9.8 0.1 2.5 1.2 8.4 2.8 9.9 1.5 1.4 3.6 1.7 9.7 1.6 8.4-0.1 39.8 0.3 41.9-2.2 2.1-2.6 2.1-7.6 2-10.2 0-2.5-0.2-7.5-2.3-10.1-2.2-2.5-33.6-1-42-0.8z"/>
	<path id="Layer" class="s1" d="m14.1 4.8c-5.7 0.1-7.7 0.4-9.1 1.8-1.4 1.3-1.8 6.7-1.8 9 0 2.3 0.7 7.7 2.1 9 1.4 1.3 2.9 1.6 9.1 1.5 1.3 0 3.3-0.2 5.2-0.6 1.7-0.8 4.4-1.2 7-1.5 0.5 0.3 1.3 0.4 2.2 0.4 1.2 0.4 3.8 0.1 5.4-0.1 0.1 0 0.4 0 0.5 0 0 0 5.5 0.2 8-0.1 0.6-0.1 1.4-0.2 1.6-0.3 0.7-0.1 3.9 0.8 4.4 0.7 1.2-0.2 3.8-0.2 4.1-0.6 1.9-2.3 1.9-6.9 1.9-9.3-0.1-2.3-0.2-6.9-2.2-9.2-0.3-0.3-2.9-0.2-4.1-0.4-0.6-0.1-3.7 1-4.4 0.9-0.5-0.2-1-0.2-1.6-0.3-2.5-0.2-8 0.1-8 0.1-0.1 0-0.4 0.1-0.5 0.1-1.6-0.1-4.2-0.4-5.4 0-0.9 0.1-1.7 0.3-2.2 0.6-2.6-0.3-5.3-0.6-7-1.3-1.9-0.3-3.9-0.5-5.2-0.4z"/>
	<path id="Layer" class="s2" d="m34.2 24.3l-5.7 0.1-8.3 1.7c3 0.3 8.8 0.2 14.1 0.1z"/>
	<path id="Layer" class="s2" d="m34.7 26.1c5.5-0.1 10.2-0.4 10.2-0.4l-2.2-1.5-8 0.1z"/>
	<path id="Layer" class="s2" d="m16.4 15.4c0 0 0 5.8 3.2 10.1l7-1.5c0 0-2-2.4-2.1-8.7-0.2-6.4 1.8-8.8 1.8-8.8l-7-1.3c-3.1 4.4-2.9 10.2-2.9 10.2z"/>
	<path id="Layer" class="s3" d="m33.9 5.9l-5.7 0.1-8.4-1.5c3-0.3 8.9-0.4 14.1-0.5z"/>
	<path id="Layer" class="s3" d="m34.4 4c5.4 0 10.2 0.1 10.2 0.1l-2.2 1.6-8 0.1z"/>
	<path id="Layer" class="s2" d="m44 6c0.6 2.1 0.8 15.7 0.3 17.9 0 0 2.7 0.9 4.4 0.7 0.9-1.5 2-4.6 1.9-9.8-0.1-5.2-1.3-8.3-2.2-9.7-1.7-0.2-4.4 0.9-4.4 0.9z"/>
	<path id="Layer" class="s1" d="m21.8 26.6l0.6 2.4c0.1 0.3-0.1 0.5-0.3 0.4-0.5 0-1.1-0.3-1.4-1.1-0.4-1.4 1.1-1.7 1.1-1.7z"/>
	<path id="Layer" class="s1" d="m21.4 4l0.6-2.5c0-0.2-0.2-0.4-0.4-0.3-0.4 0-1.1 0.3-1.3 1.2-0.4 1.4 1.1 1.6 1.1 1.6z"/>
	<path id="Layer" class="s3" d="m26.3 6.5l-7-1.3c-3.1 4.4-2.9 10.2-2.9 10.2l8.1-0.1c-0.2-6.4 1.8-8.8 1.8-8.8z"/>
	<path id="Layer" class="s3" d="m44 6q0 0.1 0 0.2 0 0.1 0 0.1 0.1 0.1 0.1 0.1c0.2 1.5 0.4 5 0.5 8.5l6-0.1c-0.1-5.2-1.3-8.3-2.2-9.7-1.7-0.2-4.4 0.9-4.4 0.9z"/>
	<path id="Layer" class="s2" d="m56.3 12.3q0.3 2.4 0.1 4.9c0 0.2 0.2 0.4 0.6 0.4 0.1-1.1 0.1-2.1 0-2.9 0-0.8 0-1.8-0.1-2.9-0.3 0.1-0.6 0.3-0.6 0.5z"/>
	<path id="Layer" class="s4" d="m56.4 20.6q0 0 0 0c-0.2 0-0.4 0.1-0.5 0.4q-0.2 1-0.6 2.1c0 0.2 0.1 0.5 0.3 0.5q0 0 0 0 0.1 0.1 0.2 0.1c0.4-0.9 0.7-1.9 0.9-2.9q-0.1-0.1-0.3-0.2z"/>
	<path id="Layer" class="s4" d="m55.3 5.8c-0.2 0.1-0.3 0.4-0.3 0.6q0.4 1 0.7 2.1c0 0.2 0.3 0.4 0.5 0.3q0 0 0 0 0.2 0 0.3-0.1c-0.3-1-0.6-2-1-2.9q-0.1 0-0.2 0 0 0 0 0z"/>
	<path id="Layer" class="s2" d="m1.9 10c0-0.3-0.2-0.6-0.5-0.6q0 0 0 0c-0.1-0.1-0.2 0-0.3 0.1-0.5 2.2-0.8 4.7-0.8 6.2 0 1.4 0.4 3.9 1 6 0.1 0.2 0.2 0.2 0.3 0.2q0 0 0 0c0.3-0.1 0.5-0.4 0.4-0.7-0.4-1.8-0.8-3.7-0.9-5.6 0-1.8 0.4-3.7 0.8-5.6z"/>
	<path id="Layer" class="s0" d="m12.5 11.3c0.2 0.1 0.4 0.3 0.4 0.5l0.1 7.2c0 0.3-0.1 0.5-0.4 0.6l-4.6 1 5.2-0.9c0.3 0 0.5-0.3 0.5-0.5l-0.2-7.5c0-0.3-0.2-0.5-0.4-0.5l-5.3-0.7z"/>
	<path id="Layer" class="s5" d="m3.4 25q0.1 0.2 0.2 0.4-0.6-1.4-1.2-2.8c0-0.2-0.3-0.3-0.5-0.2q0 0 0 0 0 0 0 0.1c0.3 1.1 0.7 2 1.2 2.6q0.2 0 0.3-0.1z"/>
	<path id="Layer" class="s1" d="m3.6 25.4q-0.1-0.2-0.2-0.4-0.1 0.1-0.3 0.1 0.1 0.2 0.3 0.4 0.1 0.1 0.2 0.1 0-0.1 0-0.2z"/>
	<path id="Layer" class="s5" d="m2.1 8.6q0.6-1.4 1.2-2.7-0.1 0.1-0.1 0.3-0.2-0.1-0.4-0.2c-0.4 0.7-0.8 1.6-1.2 2.8 0.2 0.1 0.4 0 0.5-0.2z"/>
	<path id="Layer" class="s1" d="m2.8 6q0.2 0.1 0.4 0.2 0-0.2 0.1-0.3 0.1-0.2 0-0.4-0.1 0.1-0.3 0.3-0.1 0.1-0.2 0.2z"/>
	<path id="Layer" class="s2" d="m33.3 27c0 0.1-0.1 0.2-0.2 0.2h-1.3c-0.1 0-0.2-0.1-0.2-0.2 0-0.1 0.1-0.2 0.2-0.2h1.3c0.1 0 0.2 0 0.2 0.2z"/>
	<path id="Layer" class="s2" d="m37.8 26.9c0 0.1-0.1 0.2-0.2 0.2h-1.2c-0.1 0-0.2-0.1-0.2-0.2 0-0.1 0.1-0.2 0.2-0.2h1.2c0.1 0 0.2 0.1 0.2 0.2z"/>
	<path id="Layer" class="s2" d="m32.9 3.3c0 0.1-0.1 0.2-0.2 0.2h-1.2c-0.2 0-0.2-0.1-0.2-0.2-0.1-0.1 0-0.2 0.2-0.2h1.2c0.1 0 0.2 0 0.2 0.2z"/>
	<path id="Layer" class="s2" d="m37.4 3.2c0 0.1 0 0.2-0.2 0.2h-1.2c-0.1 0-0.2-0.1-0.2-0.2 0-0.1 0.1-0.2 0.2-0.2h1.2c0.1 0 0.2 0.1 0.2 0.2z"/>
</svg>