<svg width="100" height="50" viewBox="0 0 34 61" fill="none" xmlns="http://www.w3.org/2000/svg">
<path d="M30.2146 12.7482C30.118 6.91849 29.7516 4.52524 28.2495 3.03555C26.7475 1.54585 20.8433 0.580692 18.3521 0.621973C15.8605 0.663258 9.99187 1.8235 8.53999 3.36214C7.08812 4.90079 6.79626 7.01003 6.89775 13.1346C7.03675 21.5233 6.56388 52.9465 9.14317 55.0126C11.7222 57.0789 16.7269 57.0804 19.2869 57.038C21.8466 56.9956 26.8485 56.8283 29.358 54.6776C31.8674 52.5272 30.3537 21.1369 30.2146 12.7482Z" fill="#00A3C6"/>
<path d="M29.2372 14.0888C29.1437 8.44548 28.8106 6.36443 27.4376 5.00269C26.0646 3.64095 20.6748 3.16328 18.3975 3.20101C16.1201 3.23875 10.7491 3.89474 9.42201 5.30121C8.09491 6.70769 7.82055 8.17491 7.9244 14.442C7.94602 15.7464 8.12613 17.7074 8.5434 19.6376C9.29066 21.2686 9.72274 23.9788 10.0358 26.62C9.73527 27.0563 9.56835 27.9103 9.58327 28.8108C9.19658 30.0475 9.54354 32.6412 9.67329 34.2434C9.68038 34.3311 9.67374 34.6102 9.68082 34.6977C9.68082 34.6977 9.52935 40.24 9.81311 42.6809C9.88169 43.2715 10.0297 44.0878 10.1356 44.2699C10.2328 45.0195 9.27108 48.1703 9.38601 48.7454C9.61717 49.8999 9.64785 52.5439 9.9781 52.8083C12.3355 54.697 16.9103 54.6981 19.2502 54.6594C21.59 54.6206 26.1619 54.4679 28.4558 52.5022C28.7771 52.2269 28.7202 49.5834 28.9126 48.4218C29.0088 47.8432 27.9432 44.726 28.0155 43.9736C28.1668 43.537 28.2362 42.9673 28.2852 42.3748C28.4879 39.9258 28.1529 34.3916 28.1529 34.3916C28.1571 34.3039 28.1412 34.0252 28.1453 33.9373C28.2219 32.3317 28.4828 29.7279 28.0553 28.5047C28.0404 27.6042 27.8453 26.7562 27.5305 26.3301C27.7555 23.68 28.0976 20.957 28.7907 19.3021C29.1438 17.3591 29.2588 15.3932 29.2372 14.0888Z" fill="#00CAF6"/>
<path d="M9.67087 34.2428L9.57637 28.5397L7.88679 20.206C7.62665 23.2104 7.69998 29.0324 7.84655 34.273L9.67087 34.2428Z" fill="#262A35"/>
<path d="M7.86204 34.7257C8.02041 40.2069 8.25167 44.9338 8.25167 44.9338L9.81333 42.6788L9.68105 34.6955L7.86204 34.7257Z" fill="#262A35"/>
<path d="M18.6127 16.3808C18.6127 16.3808 12.7892 16.4029 8.54017 19.6354L10.0325 26.6178C10.0325 26.6178 12.3661 24.5564 18.7464 24.4506C25.1267 24.3449 27.5273 26.3279 27.5273 26.3279L28.7875 19.2999C24.4336 16.2099 18.6127 16.3808 18.6127 16.3808Z" fill="#262A35"/>
<path d="M28.1406 33.9375L28.0461 28.2344L29.4587 19.8494C29.8179 22.8435 29.9375 28.6647 29.9649 33.9073L28.1406 33.9375Z" fill="#353F4B"/>
<path d="M29.9701 34.3596C29.9931 39.8431 29.9189 44.5751 29.9189 44.5751L28.2834 42.373L28.1511 34.3897L29.9701 34.3596Z" fill="#353F4B"/>
<path d="M28.0119 43.9762C25.852 44.6068 12.3114 44.8312 10.132 44.2725C10.132 44.2725 9.15504 46.9895 9.38246 48.748C10.8661 49.6191 13.9959 50.7049 19.1796 50.619C24.3634 50.5331 27.4551 49.3442 28.9091 48.4244C29.0784 46.6593 28.0119 43.9762 28.0119 43.9762Z" fill="#262A35"/>
<path d="M7.3698 21.7854L4.9632 22.4217C4.74555 22.4794 4.53607 22.2936 4.56825 22.0654C4.63126 21.6215 4.87555 20.982 5.73096 20.7223C7.10136 20.3065 7.3698 21.7854 7.3698 21.7854Z" fill="#00CAF6"/>
<path d="M30.029 21.4101L32.4554 21.9663C32.6748 22.0167 32.878 21.8241 32.8383 21.5971C32.7606 21.1556 32.4953 20.5245 31.6314 20.2933C30.2483 19.9231 30.029 21.4101 30.029 21.4101Z" fill="#00CAF6"/>
<path d="M27.5286 26.3316L28.7888 19.3035C24.435 16.2136 18.614 16.3845 18.614 16.3845L18.7477 24.4543C25.128 24.3486 27.5286 26.3316 27.5286 26.3316Z" fill="#353F4B"/>
<path d="M28.012 43.9743C27.9389 43.9956 27.8601 44.0144 27.7772 44.032C27.755 44.0368 27.7263 44.0413 27.703 44.0458C27.6543 44.0553 27.6067 44.0652 27.5549 44.0735C26.0696 44.3343 22.5783 44.5103 19.0795 44.5683L19.1797 50.6172C24.3634 50.5313 27.4552 49.3423 28.9092 48.4225C29.0785 46.6575 28.012 43.9743 28.012 43.9743Z" fill="#353F4B"/>
<path d="M21.6963 56.3168C20.083 56.4727 18.4641 56.4995 16.8461 56.3972C16.6204 56.3828 16.4081 56.6496 16.3658 57.005C17.4748 57.0591 18.4948 57.0507 19.2827 57.0376C20.0702 57.0246 21.0903 56.9992 22.1968 56.9083C22.1425 56.5546 21.9217 56.2949 21.6963 56.3168Z" fill="#262A35"/>
<path d="M13.3694 56.4425C13.37 56.4393 13.3706 56.4365 13.3711 56.4334C13.4196 56.1883 13.2665 55.9519 13.0279 55.898C12.3188 55.7381 11.6142 55.5483 10.9157 55.3288C10.6824 55.2557 10.4356 55.3843 10.3604 55.6223C10.3595 55.6251 10.3586 55.6279 10.3577 55.6311C10.3441 55.6742 10.3445 55.7173 10.3436 55.7605C11.2138 56.1826 12.2146 56.4694 13.2486 56.6631C13.3054 56.6021 13.3521 56.5306 13.3694 56.4425Z" fill="#DF2C3A"/>
<path d="M28.1529 55.3228C28.0702 55.0874 27.8193 54.9671 27.5882 55.0479C26.8977 55.2904 26.1997 55.5034 25.496 55.6867C25.2596 55.7485 25.1144 55.9898 25.1707 56.2332C25.1714 56.2363 25.1724 56.2391 25.173 56.2422C25.1933 56.3297 25.2423 56.3996 25.3008 56.4587C26.3281 56.2309 27.3189 55.9111 28.1746 55.4603C28.172 55.4172 28.171 55.3741 28.1562 55.3315C28.1552 55.3284 28.1539 55.3256 28.1529 55.3228Z" fill="#DF2C3A"/>
<path d="M23.9516 1.85334C24.2543 1.91368 24.5569 1.71696 24.6242 1.41593C24.6248 1.41342 24.6254 1.4106 24.6259 1.40809C24.6521 1.28975 24.5807 1.17053 24.463 1.14152C22.2771 0.603247 19.7596 0.301254 18.3436 0.324718C16.9276 0.348182 14.4214 0.733419 12.2546 1.34382C12.1378 1.37672 12.0701 1.49823 12.1005 1.61594C12.1012 1.61843 12.1019 1.62125 12.1028 1.62404C12.1797 1.92237 12.489 2.10864 12.789 2.03831C14.6132 1.60934 16.494 1.17443 18.3571 1.14199C20.2364 1.10898 22.0981 1.48187 23.9516 1.85334Z" fill="#262A35"/>
<path d="M22.6667 12.5092C22.6234 12.7447 22.4065 12.9213 22.1564 12.9254L14.961 13.0447C14.7109 13.0488 14.4882 12.8795 14.4371 12.6455L13.4216 8.00006L14.2867 13.21C14.3294 13.4673 14.5539 13.6547 14.8147 13.6503L22.3224 13.5259C22.5831 13.5216 22.8016 13.3269 22.8358 13.0683L23.5275 7.8326L22.6667 12.5092Z" fill="#00A3C6"/>
<path d="M8.99721 3.43131C8.88074 3.48015 8.76459 3.52898 8.64844 3.57812C9.55715 3.19466 10.4675 2.81337 11.3791 2.43424C11.5794 2.35085 11.6744 2.12099 11.5907 1.92097C11.5897 1.91849 11.5888 1.91631 11.5878 1.91383C11.5787 1.89178 11.5618 1.87641 11.5493 1.85691C10.4287 2.21324 9.4543 2.63094 8.85268 3.08875C8.90086 3.20303 8.94903 3.31702 8.99721 3.43131Z" fill="white"/>
<path d="M8.6478 3.5763C8.76395 3.52716 8.88011 3.47833 8.99657 3.42949C8.94839 3.3152 8.90022 3.20121 8.85204 3.08693C8.73345 3.1774 8.62864 3.2692 8.54074 3.36229C8.47435 3.43251 8.41271 3.50577 8.35106 3.57904C8.44329 3.61535 8.54935 3.61797 8.6478 3.5763Z" fill="#00CAF6"/>
<path d="M25.4243 2.1294C26.3294 2.52378 27.2332 2.92037 28.1351 3.31886C28.0198 3.26792 27.9045 3.21698 27.7892 3.16635C27.8441 3.04159 27.8993 2.91715 27.9541 2.79271C27.3429 2.35062 26.3532 1.96171 25.2154 1.63967C25.1473 1.83189 25.2341 2.04624 25.4243 2.1294Z" fill="white"/>
<path d="M27.9508 2.79379C27.8959 2.91823 27.8407 3.04267 27.7859 3.16743C27.9012 3.21806 28.0165 3.269 28.1318 3.31994C28.2509 3.37238 28.3785 3.35526 28.4832 3.29505C28.408 3.2081 28.3309 3.12306 28.2492 3.04185C28.1639 2.95726 28.0628 2.87481 27.9508 2.79379Z" fill="#00CAF6"/>
<path d="M7.03823 33.2778L7.03384 33.2778C6.92035 33.2797 6.8266 33.189 6.82472 33.0755L6.80441 31.8499C6.80252 31.7361 6.89323 31.6427 7.00672 31.6408L7.0111 31.6407C7.12459 31.6389 7.21835 31.7292 7.22024 31.843L7.24054 33.0686C7.24242 33.1821 7.15172 33.2759 7.03823 33.2778Z" fill="#262A35"/>
<path d="M7.11635 37.8325L7.11197 37.8325C6.99848 37.8344 6.90473 37.744 6.90284 37.6302L6.88253 36.4046C6.88065 36.2911 6.97135 36.1974 7.08484 36.1955L7.08922 36.1954C7.20272 36.1935 7.29648 36.2842 7.29836 36.3977L7.31867 37.6233C7.32055 37.7371 7.22984 37.8306 7.11635 37.8325Z" fill="#262A35"/>
<path d="M30.741 32.8871L30.737 32.8872C30.6232 32.8891 30.5297 32.7984 30.5278 32.6849L30.5075 31.4593C30.5056 31.3455 30.596 31.2521 30.7099 31.2502L30.7139 31.2501C30.8277 31.2482 30.9212 31.3386 30.923 31.4524L30.9434 32.678C30.9452 32.7915 30.8548 32.8853 30.741 32.8871Z" fill="#262A35"/>
<path d="M30.8192 37.4418L30.8151 37.4419C30.7013 37.4438 30.6079 37.3534 30.606 37.2396L30.5857 36.014C30.5838 35.9005 30.6742 35.8068 30.788 35.8049L30.792 35.8048C30.9058 35.8029 30.9993 35.8936 31.0012 36.0071L31.0215 37.2327C31.0234 37.3465 30.933 37.44 30.8192 37.4418Z" fill="#262A35"/>
</svg>
