<svg version="1.2" xmlns="http://www.w3.org/2000/svg" viewBox="0 0 34 61" width="34" height="61">
	<title>blue-car-map-svg</title>
	<style>
		.s0 { fill: #00a3c6 } 
		.s1 { fill: #00caf6 } 
		.s2 { fill: #262a35 } 
		.s3 { fill: #353f4b } 
		.s4 { fill: #df2c3a } 
		.s5 { fill: #ffffff } 
	</style>
	<path id="Layer" class="s0" d="m3.8 48.3c0.1 5.8 0.4 8.2 2 9.7 1.5 1.5 7.4 2.4 9.8 2.4 2.5-0.1 8.4-1.2 9.9-2.8 1.4-1.5 1.7-3.6 1.6-9.7-0.1-8.4 0.3-39.8-2.2-41.9-2.6-2.1-7.6-2.1-10.2-2-2.5 0-7.5 0.2-10.1 2.3-2.5 2.2-1 33.6-0.8 42z"/>
	<path id="Layer" class="s1" d="m4.8 46.9c0.1 5.7 0.4 7.7 1.8 9.1 1.3 1.4 6.7 1.8 9 1.8 2.3 0 7.7-0.7 9-2.1 1.3-1.4 1.6-2.9 1.5-9.1 0-1.3-0.2-3.3-0.6-5.2-0.8-1.7-1.2-4.4-1.5-7 0.3-0.5 0.4-1.3 0.4-2.2 0.4-1.2 0.1-3.8-0.1-5.4 0-0.1 0-0.4 0-0.5 0 0 0.2-5.5-0.1-8-0.1-0.6-0.2-1.4-0.3-1.6-0.1-0.7 0.8-3.9 0.7-4.4-0.2-1.2-0.2-3.8-0.6-4.1-2.3-1.9-6.9-1.9-9.3-1.9-2.3 0.1-6.9 0.2-9.2 2.2-0.3 0.3-0.2 2.9-0.4 4.1-0.1 0.6 1 3.7 0.9 4.4-0.2 0.5-0.2 1-0.3 1.6-0.2 2.5 0.1 8 0.1 8 0 0.1 0.1 0.4 0.1 0.5-0.1 1.6-0.4 4.2 0 5.4 0.1 0.9 0.3 1.7 0.6 2.2-0.3 2.6-0.6 5.3-1.3 7-0.3 1.9-0.5 3.9-0.4 5.2z"/>
	<path id="Layer" class="s2" d="m24.3 26.8l0.1 5.7 1.7 8.3c0.3-3 0.2-8.8 0.1-14.1z"/>
	<path id="Layer" class="s2" d="m26.1 26.3c-0.1-5.5-0.4-10.2-0.4-10.2l-1.5 2.2 0.1 8z"/>
	<path id="Layer" class="s2" d="m15.4 44.6c0 0 5.8 0 10.1-3.2l-1.5-7c0 0-2.4 2-8.7 2.1-6.4 0.2-8.8-1.8-8.8-1.8l-1.3 7c4.4 3.1 10.2 2.9 10.2 2.9z"/>
	<path id="Layer" class="s3" d="m5.9 27.1l0.1 5.7-1.5 8.4c-0.3-3-0.4-8.9-0.5-14.1z"/>
	<path id="Layer" class="s3" d="m4 26.6c0-5.4 0.1-10.2 0.1-10.2l1.6 2.2 0.1 8z"/>
	<path id="Layer" class="s2" d="m6 17c2.1-0.6 15.7-0.8 17.9-0.3 0 0 0.9-2.7 0.7-4.4-1.5-0.9-4.6-2-9.8-1.9-5.2 0.1-8.3 1.3-9.7 2.2-0.2 1.7 0.9 4.4 0.9 4.4z"/>
	<path id="Layer" class="s1" d="m26.6 39.2l2.4-0.6c0.3-0.1 0.5 0.1 0.4 0.3 0 0.5-0.3 1.1-1.1 1.4-1.4 0.4-1.7-1.1-1.7-1.1z"/>
	<path id="Layer" class="s1" d="m4 39.6l-2.5-0.6c-0.2 0-0.4 0.2-0.3 0.4 0 0.4 0.3 1.1 1.2 1.3 1.4 0.4 1.6-1.1 1.6-1.1z"/>
	<path id="Layer" class="s3" d="m6.5 34.7l-1.3 7c4.4 3.1 10.2 2.9 10.2 2.9l-0.1-8.1c-6.4 0.2-8.8-1.8-8.8-1.8z"/>
	<path id="Layer" class="s3" d="m6 17q0.1 0 0.2 0 0.1 0 0.1 0 0.1-0.1 0.1-0.1c1.5-0.2 5-0.4 8.5-0.5l-0.1-6c-5.2 0.1-8.3 1.3-9.7 2.2-0.2 1.7 0.9 4.4 0.9 4.4z"/>
	<path id="Layer" class="s2" d="m12.3 4.7q2.4-0.3 4.9-0.1c0.2 0 0.4-0.2 0.4-0.6-1.1-0.1-2.1-0.1-2.9 0-0.8 0-1.8 0-2.9 0.1 0.1 0.3 0.3 0.6 0.5 0.6z"/>
	<path id="Layer" class="s4" d="m20.6 4.6q0 0 0 0c0 0.2 0.1 0.4 0.4 0.5q1 0.2 2.1 0.6c0.2 0 0.5-0.1 0.5-0.3q0 0 0 0 0.1-0.1 0.1-0.2c-0.9-0.4-1.9-0.7-2.9-0.9q-0.1 0.1-0.2 0.3z"/>
	<path id="Layer" class="s4" d="m5.8 5.7c0.1 0.2 0.4 0.3 0.6 0.3q1-0.4 2.1-0.7c0.2 0 0.4-0.3 0.3-0.5q0 0 0 0 0-0.2-0.1-0.3c-1 0.3-2 0.6-2.9 1q0 0.1 0 0.2 0 0 0 0z"/>
	<path id="Layer" class="s2" d="m10 59.1c-0.3 0-0.6 0.2-0.6 0.5q0 0 0 0c-0.1 0.1 0 0.2 0.1 0.3 2.2 0.5 4.7 0.8 6.2 0.8 1.4 0 3.9-0.4 6-1 0.2-0.1 0.2-0.2 0.2-0.3q0 0 0 0c-0.1-0.3-0.4-0.5-0.7-0.4-1.8 0.4-3.7 0.8-5.6 0.9-1.8 0-3.7-0.4-5.6-0.8z"/>
	<path id="Layer" class="s0" d="m11.3 48.5c0.1-0.2 0.3-0.4 0.5-0.4l7.2-0.1c0.3 0 0.5 0.1 0.6 0.4l1 4.6-0.9-5.2c0-0.3-0.3-0.5-0.5-0.5l-7.5 0.2c-0.3 0-0.5 0.2-0.5 0.4l-0.7 5.3z"/>
	<path id="Layer" class="s5" d="m25 57.6q0.2-0.1 0.4-0.2-1.4 0.6-2.8 1.2c-0.2 0-0.3 0.3-0.2 0.5q0 0 0 0 0 0 0.1 0c1.1-0.3 2-0.7 2.6-1.2q0-0.2-0.1-0.3z"/>
	<path id="Layer" class="s1" d="m25.4 57.4q-0.2 0.1-0.4 0.2 0.1 0.1 0.1 0.3 0.2-0.1 0.4-0.3 0.1-0.1 0.1-0.2-0.1 0-0.2 0z"/>
	<path id="Layer" class="s5" d="m8.6 58.9q-1.4-0.6-2.7-1.2 0.1 0.1 0.3 0.1-0.1 0.2-0.2 0.4c0.7 0.4 1.6 0.8 2.8 1.2 0.1-0.2 0-0.4-0.2-0.5z"/>
	<path id="Layer" class="s1" d="m6 58.2q0.1-0.2 0.2-0.4-0.2 0-0.3-0.1-0.2-0.1-0.4 0 0.1 0.1 0.3 0.3 0.1 0.1 0.2 0.2z"/>
	<path id="Layer" class="s2" d="m27 27.7c0.1 0 0.2 0.1 0.2 0.2v1.3c0 0.1-0.1 0.2-0.2 0.2-0.1 0-0.2-0.1-0.2-0.2v-1.3c0-0.1 0-0.2 0.2-0.2z"/>
	<path id="Layer" class="s2" d="m26.9 23.2c0.1 0 0.2 0.1 0.2 0.2v1.2c0 0.1-0.1 0.2-0.2 0.2-0.1 0-0.2-0.1-0.2-0.2v-1.2c0-0.1 0.1-0.2 0.2-0.2z"/>
	<path id="Layer" class="s2" d="m3.3 28.1c0.1 0 0.2 0.1 0.2 0.2v1.2c0 0.2-0.1 0.2-0.2 0.2-0.1 0.1-0.2 0-0.2-0.2v-1.2c0-0.1 0-0.2 0.2-0.2z"/>
	<path id="Layer" class="s2" d="m3.2 23.6c0.1 0 0.2 0 0.2 0.2v1.2c0 0.1-0.1 0.2-0.2 0.2-0.1 0-0.2-0.1-0.2-0.2v-1.2c0-0.1 0.1-0.2 0.2-0.2z"/>
</svg>