<svg width="66" height="124" viewBox="0 0 66 124" fill="none" xmlns="http://www.w3.org/2000/svg">
<path d="M60.7191 26.2795C60.7191 14.2675 60.0459 9.32503 57.0027 6.20508C53.9594 3.08514 41.83 0.895447 36.6969 0.895447C31.5632 0.895447 19.4345 3.08514 16.3912 6.20508C13.3479 9.32503 12.6747 13.66 12.6747 26.2795C12.6747 43.5646 10.628 108.278 15.8707 112.622C21.1127 116.967 31.4221 117.141 36.6969 117.141C41.9711 117.141 52.2805 116.967 57.5232 112.622C62.7658 108.278 60.7191 43.5646 60.7191 26.2795Z" fill="#00A3C6"/>
<path d="M58.6572 28.9949C58.6572 17.3668 58.042 13.0686 55.2603 10.2166C52.4785 7.36467 41.3922 6.19672 36.6997 6.19672C32.0072 6.19672 20.9209 7.36467 18.1392 10.2166C15.3574 13.0686 14.7422 16.0816 14.7422 28.9949C14.7422 31.6826 15.0463 35.7283 15.8399 39.7186C17.3236 43.1039 18.1211 48.7015 18.6758 54.1529C18.0419 55.0413 17.6689 56.7948 17.6689 58.6502C16.8301 61.1845 17.4563 66.5393 17.6689 69.8441C17.6805 70.0251 17.6573 70.5998 17.6689 70.7802C17.6689 70.7802 17.1677 82.1918 17.6689 87.2296C17.79 88.4485 18.067 90.135 18.279 90.5139C18.4535 92.0613 16.365 98.5189 16.5821 99.7075C17.0189 102.094 16.9918 107.541 17.6631 108.097C22.4548 112.068 31.8784 112.227 36.6997 112.227C41.521 112.227 50.944 112.068 55.7363 108.097C56.4076 107.541 56.3806 102.094 56.8167 99.7075C57.0344 98.5189 54.9459 92.0613 55.1205 90.5139C55.4471 89.6197 55.6094 88.4485 55.7305 87.2296C56.2317 82.1918 55.7305 70.7802 55.7305 70.7802C55.7421 70.5998 55.7189 70.0251 55.7305 69.8441C55.9431 66.5393 56.5693 61.1845 55.7305 58.6502C55.7305 56.7948 55.3575 55.0413 54.7236 54.1529C55.2776 48.7015 56.0752 43.1039 57.5595 39.7186C58.3531 35.7283 58.6572 31.6826 58.6572 28.9949Z" fill="#00CAF6"/>
<path d="M17.6725 69.8516V58.1004L14.4765 40.8759C13.8381 47.0559 13.7904 59.0513 13.9134 69.8516H17.6725Z" fill="#262A35"/>
<path d="M13.9219 70.7789C14.061 82.0752 14.3761 91.8203 14.3761 91.8203L17.6699 87.2283L17.6699 70.7789H13.9219Z" fill="#262A35"/>
<path d="M36.6957 33.3616C36.6957 33.3616 24.6991 33.2082 15.8359 39.7219L18.6718 54.1562C18.6718 54.1562 23.5492 49.9895 36.6957 49.9895C49.8423 49.9895 54.7196 54.1562 54.7196 54.1562L57.5555 39.7219C48.6923 33.2082 36.6957 33.3616 36.6957 33.3616Z" fill="#262A35"/>
<path d="M55.7266 69.8516V58.1004L58.9225 40.8759C59.5603 47.0559 59.608 59.0513 59.4856 69.8516H55.7266Z" fill="#353F4B"/>
<path d="M59.4746 70.7789C59.3348 82.0752 59.0204 91.8203 59.0204 91.8203L55.7266 87.2283V70.7789H59.4746Z" fill="#353F4B"/>
<path d="M55.1222 90.5161C50.6513 91.7414 22.7509 91.7414 18.2807 90.5161C18.2807 90.5161 16.1754 96.0796 16.5838 99.7097C19.6104 101.555 26.0203 103.898 36.7015 103.898C47.3826 103.898 53.7919 101.555 56.8184 99.7097C57.2275 96.0796 55.1222 90.5161 55.1222 90.5161Z" fill="#262A35"/>
<path d="M13.3593 44.1116L8.38016 45.3402C7.92986 45.4516 7.50468 45.0619 7.57876 44.5929C7.72371 43.6807 8.24876 42.3716 10.0197 41.8659C12.8568 41.0561 13.3593 44.1116 13.3593 44.1116Z" fill="#00CAF6"/>
<path d="M60.0391 44.1116L65.0182 45.3402C65.4685 45.4516 65.8937 45.0619 65.8196 44.5929C65.6747 43.6807 65.1496 42.3716 63.378 41.8659C60.5416 41.0561 60.0391 44.1116 60.0391 44.1116Z" fill="#00CAF6"/>
<path d="M54.7192 54.1562L57.5551 39.7219C48.6919 33.2082 36.6953 33.3616 36.6953 33.3616V49.9895C49.8419 49.9895 54.7192 54.1562 54.7192 54.1562Z" fill="#353F4B"/>
<path d="M55.1161 90.5161C54.9647 90.5573 54.8017 90.5934 54.6303 90.6269C54.5846 90.6359 54.5253 90.6443 54.477 90.6527C54.3765 90.6707 54.2779 90.6894 54.171 90.7049C51.1026 91.1912 43.9047 91.4348 36.6953 91.4348V103.898C47.3764 103.898 53.7858 101.555 56.8123 99.7097C57.2214 96.0796 55.1161 90.5161 55.1161 90.5161Z" fill="#353F4B"/>
<path d="M41.6992 115.738C38.3705 116.004 35.0348 116.004 31.7054 115.738C31.241 115.701 30.7945 116.243 30.6953 116.974C32.9778 117.123 35.0792 117.141 36.7026 117.141C38.3254 117.141 40.4275 117.123 42.71 116.974C42.6101 116.243 42.1643 115.701 41.6992 115.738Z" fill="#262A35"/>
<path d="M24.5377 115.698C24.539 115.692 24.5403 115.686 24.5416 115.679C24.6498 115.176 24.3425 114.684 23.8529 114.565C22.3976 114.211 20.9527 113.796 19.5212 113.32C19.0432 113.162 18.5304 113.418 18.3674 113.906C18.3655 113.912 18.3636 113.918 18.3616 113.924C18.332 114.012 18.3313 114.101 18.3281 114.19C20.1062 115.089 22.158 115.714 24.2813 116.148C24.4005 116.025 24.4991 115.879 24.5377 115.698Z" fill="#DF2C3A"/>
<path d="M55.0316 113.906C54.8692 113.418 54.3565 113.162 53.8778 113.32C52.447 113.796 51.002 114.211 49.5461 114.565C49.0571 114.684 48.7498 115.176 48.8574 115.679C48.8587 115.686 48.8606 115.692 48.8619 115.698C48.9006 115.879 48.9991 116.025 49.1177 116.148C51.2417 115.714 53.2935 115.089 55.0715 114.19C55.0677 114.101 55.067 114.012 55.038 113.924C55.0361 113.918 55.0335 113.912 55.0316 113.906Z" fill="#DF2C3A"/>
<path d="M48.1986 3.60644C48.8203 3.74108 49.4503 3.34618 49.5991 2.72838C49.6004 2.72322 49.6017 2.71742 49.603 2.71227C49.661 2.4694 49.5179 2.22139 49.2764 2.15761C44.792 0.97418 39.6163 0.266163 36.6987 0.266163C33.781 0.266163 28.6053 0.97418 24.121 2.15761C23.8794 2.22139 23.7357 2.46939 23.7943 2.7129C23.7956 2.71805 23.7969 2.72387 23.7988 2.72967C23.947 3.34683 24.5777 3.74108 25.1981 3.60644C28.9706 2.78506 32.8598 1.95338 36.6987 1.95016C40.571 1.94629 44.3932 2.77797 48.1986 3.60644Z" fill="#262A35"/>
<path d="M45.1795 25.5188C45.0822 26.0026 44.6293 26.3589 44.1139 26.3589L29.2879 26.3589C28.7725 26.3589 28.3196 26.0026 28.2224 25.5188L26.2891 15.9148L27.8932 26.6765C27.9724 27.208 28.4285 27.6016 28.9658 27.6016L44.4354 27.6016C44.9727 27.6016 45.4294 27.208 45.5086 26.6765L47.1121 15.9148L45.1795 25.5188Z" fill="#00A3C6"/>
<path d="M17.3328 6.3501C17.0912 6.44673 16.8503 6.54335 16.6094 6.64062C18.4944 5.88174 20.3826 5.12737 22.2733 4.3775C22.6889 4.21258 22.8924 3.74231 22.7269 3.32743C22.7249 3.32228 22.723 3.31777 22.7211 3.31262C22.703 3.26688 22.6689 3.23465 22.6438 3.19406C20.3233 3.88982 18.3017 4.71699 17.0468 5.63951C17.1421 5.87658 17.2375 6.11303 17.3328 6.3501Z" fill="white"/>
<path d="M16.6035 6.64511C16.8445 6.54784 17.0854 6.45122 17.327 6.35459C17.2317 6.11751 17.1363 5.88107 17.041 5.644C16.7936 5.82631 16.5746 6.01185 16.3903 6.20061C16.2512 6.34298 16.1217 6.4918 15.9922 6.64062C16.1809 6.71857 16.3993 6.72757 16.6035 6.64511Z" fill="#00CAF6"/>
<path d="M51.2079 4.2307C53.0588 5.07398 54.907 5.92178 56.7514 6.77344C56.5156 6.66456 56.2799 6.55569 56.0441 6.44746C56.1613 6.19235 56.2792 5.93789 56.3965 5.68343C55.1525 4.75189 53.1271 3.91696 50.7943 3.21476C50.6475 3.60838 50.8188 4.05289 51.2079 4.2307Z" fill="white"/>
<path d="M56.3993 5.6764C56.282 5.93086 56.1641 6.18532 56.0469 6.44043C56.2827 6.54866 56.5184 6.65753 56.7542 6.76641C56.9977 6.8785 57.2612 6.84759 57.479 6.72712C57.3269 6.54545 57.171 6.36763 57.0055 6.19756C56.8328 6.0204 56.6273 5.84711 56.3993 5.6764Z" fill="#00CAF6"/>
<path d="M12.2845 67.7656H12.2754C12.0416 67.7656 11.8516 67.5756 11.8516 67.3417V64.8164C11.8516 64.5819 12.0416 64.3925 12.2754 64.3925H12.2845C12.5183 64.3925 12.7084 64.5819 12.7084 64.8164V67.3417C12.7084 67.5756 12.5183 67.7656 12.2845 67.7656Z" fill="#262A35"/>
<path d="M12.2845 77.1562H12.2754C12.0416 77.1562 11.8516 76.9669 11.8516 76.7324V74.207C11.8516 73.9732 12.0416 73.7831 12.2754 73.7831H12.2845C12.5183 73.7831 12.7084 73.9732 12.7084 74.207V76.7324C12.7084 76.9669 12.5183 77.1562 12.2845 77.1562Z" fill="#262A35"/>
<path d="M61.1198 67.7656H61.1114C60.8769 67.7656 60.6875 67.5756 60.6875 67.3417V64.8164C60.6875 64.5819 60.8769 64.3925 61.1114 64.3925H61.1198C61.3543 64.3925 61.5437 64.5819 61.5437 64.8164V67.3417C61.5437 67.5756 61.3543 67.7656 61.1198 67.7656Z" fill="#262A35"/>
<path d="M61.1198 77.1562H61.1114C60.8769 77.1562 60.6875 76.9669 60.6875 76.7324V74.207C60.6875 73.9732 60.8769 73.7831 61.1114 73.7831H61.1198C61.3543 73.7831 61.5437 73.9732 61.5437 74.207V76.7324C61.5437 76.9669 61.3543 77.1562 61.1198 77.1562Z" fill="#262A35"/>
</svg>
