<svg width="33" height="52" viewBox="0 0 33 52" fill="none" xmlns="http://www.w3.org/2000/svg">
<path d="M10.9602 21.5232C11.4461 24.34 12.9507 27.421 14.9041 29.0229C14.0848 29.4607 13.4623 30.0554 13.2352 30.6978L12.097 33.9126C11.6477 35.1826 11.7765 37.2247 12.3834 38.4504L14.936 43.6048C14.9331 43.6461 14.9322 43.6874 14.9333 43.7293L15.0788 49.0269C15.11 50.1601 16.5625 51.048 18.3047 51.0001C20.049 50.9522 21.4496 49.986 21.4185 48.8528L21.2729 43.5552C21.2718 43.5133 21.2686 43.4721 21.2634 43.431L21.5953 42.6566L22.2702 48.6645C22.3485 49.1666 23.0443 49.5264 23.8186 49.464C24.5919 49.4015 25.1628 48.9394 25.0855 48.4372L23.2165 38.8749L23.5302 38.1442C24.068 36.8871 24.0845 34.841 23.5661 33.5976L22.2541 30.4501C21.9911 29.8211 21.3359 29.2615 20.4948 28.8694C22.3573 27.1626 23.6905 24.0037 24.0211 21.1644L24.0864 20.4127C24.101 20.1261 24.1056 19.8452 24.0981 19.5712C24.0429 17.5611 23.369 16.2839 22.295 15.5022L23.3109 15.4743C23.7852 15.4487 25.0316 15.4643 25.8956 15.7594C25.9049 15.8756 25.9807 15.9879 26.1212 16.0719L30.0342 18.4239C30.3247 18.5983 30.7839 18.583 31.0601 18.3898C31.3343 18.1966 31.322 17.8981 31.0326 17.7238L27.2467 15.4501C27.3657 15.3863 27.5369 15.317 27.7402 15.3034C27.9936 15.2865 28.2536 15.3585 28.5098 15.5152L30.9504 17.0792C31.0203 17.1245 31.1349 17.1227 31.2063 17.0762C31.2767 17.029 31.2777 16.9544 31.2068 16.9091L28.7651 15.3438C28.4256 15.1362 28.0709 15.0441 27.7072 15.0694C27.3802 15.0924 27.1233 15.2073 26.9631 15.3022C26.7968 15.2462 26.604 15.2368 26.4268 15.271C25.1319 14.7941 23.3468 14.8824 23.2773 14.8863L21.2681 14.9415C21.2236 14.9241 21.1802 14.9067 21.1357 14.8906C21.7131 14.367 22.0466 13.7257 22.0278 13.0408C21.9949 11.8452 20.9087 11.2122 19.3501 10.9749L19.2687 8.00921C19.2576 7.60492 18.9795 7.24722 18.547 7.00423L18.4773 4.46878C18.463 3.94945 17.8018 3.54505 17.0018 3.56703C16.2029 3.58897 15.5649 4.02906 15.5791 4.54839L15.6488 7.08384C15.2302 7.35021 14.9722 7.72263 14.9833 8.12692L15.066 11.1371C13.6482 11.4789 12.7015 12.1603 12.7327 13.2961C12.7507 13.9537 13.0918 14.5532 13.6537 15.0342C13.5565 15.0735 13.4614 15.1147 13.3684 15.1585L11.5863 15.2075C11.5177 15.2074 9.73047 15.2172 8.46372 15.7644C8.28389 15.74 8.09197 15.7599 7.92893 15.825C7.76481 15.739 7.50098 15.6384 7.17323 15.6335C6.80964 15.6281 6.4595 15.7396 6.13297 15.9655L3.77983 17.6625C3.71258 17.7116 3.71769 17.786 3.79054 17.8292C3.8644 17.8718 3.97792 17.8673 4.04619 17.8182L6.3963 16.1226C6.64449 15.9521 6.90012 15.8659 7.1541 15.8689C7.3579 15.8713 7.53256 15.931 7.65494 15.9882L3.99949 18.4663C3.71908 18.6563 3.72319 18.955 4.00961 19.1328C4.29399 19.3106 4.75339 19.3007 5.03381 19.1107L8.81284 16.5473C8.94853 16.4558 9.01701 16.3394 9.01995 16.2229C9.86746 15.8809 11.1111 15.7968 11.5851 15.7964L12.3728 15.7748C11.3445 16.6142 10.7406 17.9264 10.7958 19.9366C10.8034 20.2105 10.8234 20.4908 10.8547 20.7761L10.9602 21.5232Z" fill="#BEBBBC"/>
<path d="M22.5494 45.9539L19.5171 30.4419C19.4395 29.9401 19.4311 29.8443 18.6574 29.907C17.8828 29.969 17.9037 30.0639 17.9803 30.5658L19.734 46.1813C19.8116 46.6831 20.508 47.0431 21.2817 46.9804C22.0564 46.9183 22.6269 46.4564 22.5494 45.9539Z" fill="#64676C"/>
<path d="M18.4411 30.5363L18.4366 30.5108C18.4224 30.4154 18.4049 30.302 18.406 30.2381C18.4568 30.2292 18.5469 30.2168 18.7093 30.2035C18.8706 30.1903 18.963 30.1884 19.014 30.1889C19.035 30.2509 19.0535 30.3643 19.0677 30.4596L19.0724 30.4895L22.1045 46.0015C22.156 46.3354 21.7709 46.6476 21.2445 46.6903C20.719 46.7322 20.2503 46.491 20.1947 46.1515L18.4411 30.5363Z" fill="#7A7B81"/>
<path d="M16.1127 8.25225L15.9407 1.99163C15.9264 1.47211 15.2654 1.06784 14.4661 1.08979C13.6679 1.11172 13.0301 1.55167 13.0444 2.07119L13.2163 8.33181C13.2306 8.85065 13.8916 9.2556 14.6898 9.23367C15.4891 9.21172 16.1269 8.77109 16.1127 8.25225Z" fill="#152024"/>
<path d="M18.8844 46.375L18.7389 41.077C18.7077 39.9437 17.2561 39.0559 15.5126 39.1038C13.769 39.1517 12.3683 40.1178 12.3994 41.2512L12.545 46.5491C12.5761 47.6818 14.0277 48.5702 15.7713 48.5223C17.5148 48.4744 18.9155 47.5077 18.8844 46.375Z" fill="#00D1FF"/>
<path d="M17.8574 46.4036L17.7119 41.1058C17.6908 40.3377 16.7118 39.7395 15.53 39.7719C14.3492 39.8044 13.4045 40.4554 13.4256 41.2235L13.5711 46.5213C13.5922 47.2889 14.5712 47.8876 15.7521 47.8552C16.9338 47.8227 17.8785 47.1711 17.8574 46.4036Z" fill="#00AFD5"/>
<path d="M16.912 11.7861L16.7401 5.52582C16.719 4.7593 15.738 4.15928 14.5587 4.19167C13.3804 4.22404 12.4328 4.87703 12.4538 5.64355L12.6258 11.9039C12.6469 12.6704 13.6289 13.2704 14.8072 13.238C15.9864 13.2056 16.9331 12.5527 16.912 11.7861Z" fill="#00D1FF"/>
<path d="M16.2144 11.8072L16.0424 5.54643C16.0281 5.02732 15.367 4.62293 14.5683 4.64487C13.7697 4.6668 13.1317 5.10687 13.1459 5.62599L13.3179 11.8868C13.3322 12.4059 13.9933 12.8103 14.792 12.7883C15.5906 12.7664 16.2286 12.3263 16.2144 11.8072Z" fill="#00AFD5"/>
<path d="M21.5625 17.0881C21.4432 12.747 18.438 11.8251 14.7649 11.926C11.0918 12.0269 8.14267 13.1124 8.26191 17.4534C8.38113 21.7939 11.5235 27.7464 15.1967 27.6455C18.8698 27.5446 21.6817 21.4286 21.5625 17.0881Z" fill="#00D1FF"/>
<path d="M20.5359 17.1167C20.4859 15.2972 19.8945 14.0236 18.7788 13.3303C17.8883 12.7776 16.6186 12.5436 14.784 12.594C11.8632 12.6742 9.17515 13.3152 9.28805 17.4257C9.41015 21.8709 12.6037 27.0491 15.1791 26.9783C17.7544 26.9076 20.658 21.5619 20.5359 17.1167Z" fill="#00AFD5"/>
<path d="M17.9006 23.4796C18.962 21.5247 19.5639 19.1569 19.5086 17.1448C19.4643 15.5307 18.9627 14.38 18.0586 13.8191C17.3781 13.3963 16.3429 13.2194 14.8008 13.2617C12.3784 13.3283 10.2125 13.6945 10.3142 17.3973C10.3695 19.4094 11.0995 21.7406 12.2675 23.6343C13.4844 25.6089 14.6877 26.3242 15.1592 26.3112C15.6318 26.2983 16.7939 25.518 17.9006 23.4796Z" fill="#00CAF6"/>
<path d="M11.343 17.3667C11.2513 14.025 12.9858 13.9773 14.8217 13.9269C16.4615 13.8819 17.0455 14.1214 17.3424 14.3054C18.0292 14.7319 18.4456 15.7763 18.4839 17.1706C18.537 19.1061 17.9578 21.3859 16.9357 23.2683C16.2125 24.5985 15.5173 25.273 15.1407 25.5426C14.7499 25.2941 14.0187 24.6587 13.2236 23.3703C12.0997 21.5462 11.3962 19.3023 11.343 17.3667Z" fill="black"/>
<path d="M11.3431 17.3676C11.2513 14.0251 12.9862 13.9774 14.8212 13.927C16.4616 13.882 17.0457 14.1221 17.3428 14.3056C18.0293 14.7321 18.4455 15.7767 18.4838 17.1714C18.537 19.107 17.9578 21.386 16.9359 23.2688C16.2125 24.599 15.5175 25.2736 15.1402 25.5426C14.7497 25.2947 14.0187 24.6593 13.2234 23.3707C12.0996 21.547 11.3962 19.3031 11.3431 17.3676Z" fill="#02A3C7"/>
<path d="M20.9961 35.6603C21.5345 34.4039 21.5514 32.3575 21.0327 31.1138L19.7205 27.9666C19.2018 26.723 17.1465 25.7502 15.1531 25.805L15.1425 25.8053C13.1492 25.86 11.1504 26.9441 10.7007 28.2144L9.56326 31.4289C9.11361 32.6991 9.24277 34.7415 9.85037 35.9665L12.7716 41.8653C13.3773 43.0909 14.6723 44.0714 15.6493 44.0446C16.6244 44.0178 17.8646 42.9677 18.403 41.7106L20.9961 35.6603Z" fill="#2F373F"/>
<path d="M10.3241 33.4138C10.3048 32.7111 10.3899 32.0533 10.5634 31.5637L11.6999 28.3492C12.0451 27.3736 13.6294 26.5148 15.1597 26.4728C16.7001 26.4305 18.3292 27.201 18.7275 28.1562L20.0397 31.3034C20.2398 31.7833 20.3608 32.4348 20.3801 33.1376C20.4045 34.0247 20.2678 34.8838 20.0056 35.4955L17.4128 41.546C16.9264 42.6805 15.9372 43.3439 15.6222 43.3777C15.3206 43.3609 14.2964 42.7527 13.7476 41.6466L10.8265 35.7477C10.532 35.1512 10.3485 34.3009 10.3241 33.4138Z" fill="black"/>
<path d="M10.3241 33.4136C10.3048 32.7109 10.3898 32.0537 10.5633 31.5634L11.7 28.3489C12.0454 27.3739 13.6294 26.5149 15.1595 26.4729C16.7002 26.4305 18.329 27.2013 18.7273 28.1559L20.0397 31.3031C20.2399 31.7832 20.3609 32.4347 20.3802 33.138C20.4045 34.0248 20.2679 34.8843 20.0061 35.4956L17.413 41.5456C16.9261 42.6802 15.9369 43.3443 15.622 43.3777C15.321 43.3612 14.2967 42.7524 13.7473 41.6463L10.8261 35.7477C10.5321 35.1518 10.3485 34.301 10.3241 33.4143L10.3241 33.4136Z" fill="url(#paint0_linear_428_36908)"/>
<path d="M11.3153 35.6448C11.0345 35.0779 10.8601 34.262 10.8366 33.4061C10.818 32.7296 10.8984 32.1013 11.0625 31.6371L12.1999 28.4226C12.4904 27.6005 13.8778 26.8477 15.1679 26.8123C16.4645 26.7767 17.8957 27.4521 18.2309 28.2569L19.5431 31.4041C19.7324 31.8586 19.8471 32.4816 19.8657 33.1581C19.8892 34.014 19.7599 34.8382 19.5107 35.4197L11.3153 35.6448Z" fill="black"/>
<path d="M11.3156 35.6448C11.0347 35.0777 10.8601 34.2616 10.8366 33.4062C10.818 32.7293 10.8978 32.101 11.0619 31.6372L12.1994 28.4228C12.4906 27.6007 13.8773 26.8481 15.1677 26.8127C16.4647 26.777 17.8954 27.4523 18.2304 28.2571L19.5426 31.4043C19.732 31.8589 19.847 32.4813 19.8656 33.1582C19.8891 34.0136 19.7596 34.838 19.5102 35.4197L11.3156 35.6448Z" fill="url(#paint1_linear_428_36908)"/>
<path d="M17.6989 47.6074C17.6939 47.4246 17.4599 47.2809 17.1786 47.2886L14.2976 47.3677C14.0163 47.3754 13.7905 47.5318 13.7956 47.7146C13.8006 47.8975 14.0346 48.0406 14.3159 48.0328L17.1969 47.9537C17.4782 47.946 17.7039 47.7902 17.6989 47.6074Z" fill="#152024"/>
<path d="M19.4922 10.5602C19.4463 8.8914 17.3485 8.31818 14.7821 8.38867C12.2157 8.45916 10.1524 9.14668 10.1983 10.8155C10.2441 12.4836 12.3618 13.7788 14.9282 13.7083C17.4946 13.6378 19.538 12.2283 19.4922 10.5602Z" fill="#152024"/>
<path d="M10.7149 10.7168C11.6267 11.0886 13.0014 11.0473 14.434 11.0049L15.2797 10.9817C16.7135 10.9453 18.0884 10.9111 18.9784 10.4898C18.9809 10.5161 18.9817 10.543 18.9824 10.5705C19.0231 12.0521 17.202 13.3082 14.9226 13.3708C12.6433 13.4334 10.756 12.2791 10.7153 10.7976C10.7145 10.7701 10.7138 10.7437 10.7149 10.7168Z" fill="black"/>
<path d="M10.7149 10.7168C11.6272 11.0882 13.002 11.0473 14.4348 11.0049L15.2801 10.9817C16.714 10.9454 18.089 10.9107 18.9786 10.4898C18.9812 10.5163 18.9819 10.5429 18.9827 10.5701C19.0234 12.0515 17.2024 13.3082 14.9232 13.3708C12.6441 13.4334 10.7559 12.2786 10.7153 10.7972C10.7145 10.77 10.7138 10.7434 10.7149 10.7168Z" fill="url(#paint2_linear_428_36908)"/>
<path d="M14.7837 8.39197C12.6974 8.44928 10.9412 8.91471 10.3841 9.98437C10.9941 10.8399 12.7598 10.7232 14.8462 10.6659C16.9335 10.6085 18.7011 10.6282 19.2641 9.74046C18.6482 8.70302 16.8711 8.33464 14.7837 8.39197Z" fill="#64676C"/>
<path d="M10.9475 9.94863C11.5799 9.0101 13.3683 8.76251 14.7912 8.72342C16.2122 8.68439 18.0125 8.83341 18.6954 9.73581C18.2376 10.2184 17.0652 10.2733 15.2616 10.3191L14.4082 10.3425C12.6048 10.3958 11.4312 10.4054 10.9475 9.94863Z" fill="#929195"/>
<path d="M14.9174 13.1579L14.9013 12.5694L20.7472 12.4088C20.8255 12.4047 23.1205 12.2907 24.3927 13.0219L28.3143 15.378L27.6918 15.8154L23.7772 13.4637C22.9587 12.9933 21.3368 12.9672 20.7814 12.9969L14.9174 13.1579Z" fill="#484E58"/>
<path d="M28.5294 15.907C28.8045 15.7139 28.7923 15.4152 28.501 15.241L24.7165 12.9669C24.8348 12.9034 25.0054 12.8344 25.2098 12.821C25.4625 12.8035 25.7237 12.8757 25.9802 13.0325L28.4198 14.5961C28.4896 14.6414 28.6035 14.6402 28.6749 14.593C28.7462 14.5465 28.7472 14.4717 28.6763 14.4264L26.2337 12.861C25.8962 12.6539 25.5396 12.5614 25.1781 12.5865C24.8499 12.6092 24.5929 12.7245 24.4331 12.8193C24.1521 12.7248 23.793 12.7622 23.5634 12.9232C23.4269 13.0188 23.3616 13.1405 23.3649 13.2591C23.3682 13.381 23.4431 13.5009 23.5898 13.5893L27.5045 15.941C27.7947 16.1153 28.2533 16.1001 28.5294 15.907Z" fill="#283139"/>
<path d="M14.9148 13.1518L14.8987 12.5631L9.05354 12.7236C8.97419 12.7234 6.67709 12.7361 5.44626 13.5363L1.66035 16.1039L2.3062 16.506L6.08571 13.9429C6.87631 13.4291 8.49469 13.3136 9.05106 13.3129L14.9148 13.1518Z" fill="#484E58"/>
<path d="M1.47683 16.6501C1.19098 16.4717 1.18652 16.1737 1.46782 15.9833L5.1219 13.5047C5.00125 13.4476 4.82565 13.3883 4.62185 13.386C4.36686 13.3827 4.11153 13.469 3.8641 13.6396L1.51421 15.335C1.44671 15.384 1.33149 15.389 1.25867 15.3457C1.18493 15.303 1.1801 15.2287 1.24759 15.1797L3.60116 13.4824C3.92709 13.257 4.27753 13.1451 4.64049 13.1503C4.96996 13.1551 5.23228 13.2562 5.39744 13.3417C5.67258 13.232 6.03216 13.2493 6.27161 13.3981C6.41264 13.4862 6.48471 13.6033 6.48798 13.7224C6.49133 13.8444 6.42311 13.9684 6.28154 14.0642L2.50141 16.6273C2.22101 16.8171 1.76265 16.8272 1.47683 16.6501Z" fill="#283139"/>
<path d="M14.8896 12.1855C16.36 12.1451 17.5717 12.8867 17.5979 13.8419C17.6242 14.7976 16.4437 15.1912 14.9733 15.2316C13.5038 15.272 12.3026 14.9438 12.2763 13.988C12.2501 13.0329 13.4202 12.2258 14.8896 12.1855Z" fill="#5D636D"/>
<path d="M17.303 13.8934C16.7805 13.6809 15.9938 13.7043 15.173 13.7287L14.6889 13.742C13.8681 13.7627 13.0812 13.7825 12.5712 14.0234C12.5699 14.0085 12.5695 13.9929 12.569 13.9774C12.5458 13.1292 13.5887 12.4098 14.8936 12.374C16.1984 12.3382 17.2793 12.9992 17.3026 13.8474C17.303 13.8629 17.3034 13.8779 17.303 13.8934Z" fill="black"/>
<path d="M17.3031 13.8934C16.7811 13.6803 15.9944 13.7037 15.173 13.7281L14.6891 13.7414C13.8685 13.7621 13.0817 13.7819 12.5712 14.0234C12.5699 14.0082 12.5695 13.9923 12.569 13.9771C12.5457 13.1287 13.5892 12.4095 14.8936 12.3737C16.199 12.3378 17.2794 12.9986 17.3027 13.8471C17.3032 13.8623 17.3036 13.8782 17.3031 13.8934Z" fill="url(#paint3_linear_428_36908)"/>
<path d="M14.9729 15.227C16.168 15.1942 17.1716 14.9272 17.4911 14.3151C17.1413 13.8252 16.1322 13.892 14.9371 13.9248C13.7411 13.9577 12.7289 13.9464 12.4066 14.4548C12.7592 15.0484 13.7769 15.2599 14.9729 15.227Z" fill="#929195"/>
<path d="M17.1683 14.3391C16.8062 14.8768 15.7825 15.0183 14.9684 15.0406C14.1534 15.063 13.1235 14.978 12.7324 14.461C12.9948 14.1844 13.6652 14.1532 14.6986 14.1273L15.1867 14.1138C16.22 14.083 16.8911 14.0774 17.1683 14.3391Z" fill="#BEBBBC"/>
<path d="M15.2531 25.4674C12.8616 25.5331 10.8465 24.3085 10.4664 22.6519C10.4376 22.8168 10.4241 22.9845 10.4288 23.1553C10.481 25.0583 12.653 26.5431 15.2807 26.4709C17.9074 26.3987 19.9945 24.797 19.9423 22.894C19.9376 22.7231 19.9158 22.5565 19.878 22.3933C19.5885 24.0684 17.6446 25.4017 15.2531 25.4674Z" fill="#151413"/>
<defs>
<linearGradient id="paint0_linear_428_36908" x1="20.546" y1="24.9674" x2="20.8987" y2="37.8107" gradientUnits="userSpaceOnUse">
<stop stop-color="#747981"/>
<stop offset="1" stop-color="#2E373F"/>
</linearGradient>
<linearGradient id="paint1_linear_428_36908" x1="20.0008" y1="23.9207" x2="20.2481" y2="32.9249" gradientUnits="userSpaceOnUse">
<stop stop-color="#747981"/>
<stop offset="1" stop-color="#2E373F"/>
</linearGradient>
<linearGradient id="paint2_linear_428_36908" x1="19.7613" y1="7.11423" x2="19.8398" y2="9.9738" gradientUnits="userSpaceOnUse">
<stop stop-color="#2E363E"/>
<stop offset="1" stop-color="#151F24"/>
</linearGradient>
<linearGradient id="paint3_linear_428_36908" x1="17.7464" y1="11.7884" x2="17.7157" y2="10.6717" gradientUnits="userSpaceOnUse">
<stop stop-color="#6B717A"/>
<stop offset="1" stop-color="#5E636D"/>
</linearGradient>
</defs>
</svg>
