<svg width="13" height="14" viewBox="0 0 13 14" fill="none" xmlns="http://www.w3.org/2000/svg">
<path d="M1.97396 13.9193C1.60729 13.9193 1.29329 13.7888 1.03196 13.5279C0.771069 13.2666 0.640625 12.9526 0.640625 12.5859V3.2526C0.640625 2.88594 0.771069 2.57216 1.03196 2.31127C1.29329 2.04994 1.60729 1.91927 1.97396 1.91927H2.64062V0.585938H3.97396V1.91927H9.30729V0.585938H10.6406V1.91927H11.3073C11.674 1.91927 11.988 2.04994 12.2493 2.31127C12.5102 2.57216 12.6406 2.88594 12.6406 3.2526V12.5859C12.6406 12.9526 12.5102 13.2666 12.2493 13.5279C11.988 13.7888 11.674 13.9193 11.3073 13.9193H1.97396ZM1.97396 12.5859H11.3073V5.91927H1.97396V12.5859ZM1.97396 4.58594H11.3073V3.2526H1.97396V4.58594ZM6.64062 8.58594C6.45174 8.58594 6.29351 8.52194 6.16596 8.39394C6.03796 8.26638 5.97396 8.10816 5.97396 7.91927C5.97396 7.73038 6.03796 7.57194 6.16596 7.44394C6.29351 7.31638 6.45174 7.2526 6.64062 7.2526C6.82951 7.2526 6.98796 7.31638 7.11596 7.44394C7.24351 7.57194 7.30729 7.73038 7.30729 7.91927C7.30729 8.10816 7.24351 8.26638 7.11596 8.39394C6.98796 8.52194 6.82951 8.58594 6.64062 8.58594ZM3.97396 8.58594C3.78507 8.58594 3.62663 8.52194 3.49863 8.39394C3.37107 8.26638 3.30729 8.10816 3.30729 7.91927C3.30729 7.73038 3.37107 7.57194 3.49863 7.44394C3.62663 7.31638 3.78507 7.2526 3.97396 7.2526C4.16285 7.2526 4.32129 7.31638 4.44929 7.44394C4.57685 7.57194 4.64062 7.73038 4.64062 7.91927C4.64062 8.10816 4.57685 8.26638 4.44929 8.39394C4.32129 8.52194 4.16285 8.58594 3.97396 8.58594ZM9.30729 8.58594C9.1184 8.58594 8.96018 8.52194 8.83263 8.39394C8.70463 8.26638 8.64062 8.10816 8.64062 7.91927C8.64062 7.73038 8.70463 7.57194 8.83263 7.44394C8.96018 7.31638 9.1184 7.2526 9.30729 7.2526C9.49618 7.2526 9.6544 7.31638 9.78196 7.44394C9.90996 7.57194 9.97396 7.73038 9.97396 7.91927C9.97396 8.10816 9.90996 8.26638 9.78196 8.39394C9.6544 8.52194 9.49618 8.58594 9.30729 8.58594ZM6.64062 11.2526C6.45174 11.2526 6.29351 11.1886 6.16596 11.0606C6.03796 10.933 5.97396 10.7748 5.97396 10.5859C5.97396 10.397 6.03796 10.2388 6.16596 10.1113C6.29351 9.98327 6.45174 9.91927 6.64062 9.91927C6.82951 9.91927 6.98796 9.98327 7.11596 10.1113C7.24351 10.2388 7.30729 10.397 7.30729 10.5859C7.30729 10.7748 7.24351 10.933 7.11596 11.0606C6.98796 11.1886 6.82951 11.2526 6.64062 11.2526ZM3.97396 11.2526C3.78507 11.2526 3.62663 11.1886 3.49863 11.0606C3.37107 10.933 3.30729 10.7748 3.30729 10.5859C3.30729 10.397 3.37107 10.2388 3.49863 10.1113C3.62663 9.98327 3.78507 9.91927 3.97396 9.91927C4.16285 9.91927 4.32129 9.98327 4.44929 10.1113C4.57685 10.2388 4.64062 10.397 4.64062 10.5859C4.64062 10.7748 4.57685 10.933 4.44929 11.0606C4.32129 11.1886 4.16285 11.2526 3.97396 11.2526ZM9.30729 11.2526C9.1184 11.2526 8.96018 11.1886 8.83263 11.0606C8.70463 10.933 8.64062 10.7748 8.64062 10.5859C8.64062 10.397 8.70463 10.2388 8.83263 10.1113C8.96018 9.98327 9.1184 9.91927 9.30729 9.91927C9.49618 9.91927 9.6544 9.98327 9.78196 10.1113C9.90996 10.2388 9.97396 10.397 9.97396 10.5859C9.97396 10.7748 9.90996 10.933 9.78196 11.0606C9.6544 11.1886 9.49618 11.2526 9.30729 11.2526Z" fill="#9C4900"/>
</svg>
