<svg width="23" height="22" viewBox="0 0 23 22" fill="none" xmlns="http://www.w3.org/2000/svg">
<path d="M11.2969 17.1875C12.7031 17.1875 13.8986 16.6955 14.8834 15.7115C15.8674 14.7267 16.3594 13.5312 16.3594 12.125C16.3594 10.7188 15.8674 9.52325 14.8834 8.5385C13.8986 7.5545 12.7031 7.0625 11.2969 7.0625C9.89062 7.0625 8.69513 7.5545 7.71038 8.5385C6.72638 9.52325 6.23438 10.7188 6.23438 12.125C6.23438 13.5312 6.72638 14.7267 7.71038 15.7115C8.69513 16.6955 9.89062 17.1875 11.2969 17.1875ZM2.29688 21.125C1.67813 21.125 1.14863 20.9049 0.708375 20.4646C0.267375 20.0236 0.046875 19.4937 0.046875 18.875V5.375C0.046875 4.75625 0.267375 4.22675 0.708375 3.7865C1.14863 3.3455 1.67813 3.125 2.29688 3.125H5.84063L7.92188 0.875H14.6719L16.7531 3.125H20.2969C20.9156 3.125 21.4455 3.3455 21.8865 3.7865C22.3267 4.22675 22.5469 4.75625 22.5469 5.375V18.875C22.5469 19.4937 22.3267 20.0236 21.8865 20.4646C21.4455 20.9049 20.9156 21.125 20.2969 21.125H2.29688Z" fill="#9C4900" fill-opacity="0.5"/>
</svg>
