<svg xmlns="http://www.w3.org/2000/svg" viewBox="0 0 203.21 203.31"><defs><style>.cls-1{fill:#9a4800;}</style></defs><g id="Layer_2" data-name="Layer 2"><g id="Layer_1-2" data-name="Layer 1"><path class="cls-1" d="M107.52,203.31H95.61c-2.61-.31-5.24-.57-7.84-.94-22.17-3.2-41.46-12.44-57.31-28.26C7.61,151.3-2.43,123.55.49,91.43A97,97,0,0,1,25.31,34.62C44.45,13.11,68.55,1.53,97.3.13a96.66,96.66,0,0,1,56.06,14.16c26.38,16.1,42.57,39.41,48.27,69.87.71,3.81,1.06,7.69,1.58,11.54v11.91a14.36,14.36,0,0,0-.34,1.71,93.7,93.7,0,0,1-9.23,35.24C178.28,175.81,153.5,195,119.27,201.7,115.4,202.46,111.44,202.79,107.52,203.31Zm30.05-69.83c-.62-.06-.94-.13-1.27-.13-16.87,0-33.74,0-50.61,0a3.72,3.72,0,0,0-2.35,1.08q-14.45,14.33-28.8,28.75c-.35.35-.65.75-1,1.13A78.55,78.55,0,0,0,158,157c30.81-31.57,27.66-76.74,6.18-103.38-5.8,5.8-11.6,11.58-17.34,17.41a2,2,0,0,0-.23,1.71A43.79,43.79,0,0,0,148.79,78a2.06,2.06,0,0,0,1.73.84c1.68-.29,3.3-.93,5-1.3,2.63-.58,4.55.3,5.69,2.46,2.94,5.6-.09,11.75-5.93,12.64,1,4.52,2.8,9,3,13.63.52,11.69.42,23.4.4,35.11,0,3.39-2.84,5.84-6.27,5.93-2.58.07-5.16,0-7.74,0-4.51,0-7-2.47-7.08-7C137.53,138.13,137.57,135.89,137.57,133.48Zm12.56-94C120.28,15.29,71,15.16,40.84,51.13c-27.54,32.85-21,76-1.29,99.08a33.6,33.6,0,0,1,3-3.18,5.14,5.14,0,0,0,1.85-4.48q-.13-15.48,0-31a41.64,41.64,0,0,1,.73-7.88c.74-3.72,1.86-7.37,2.82-11-4.57-.66-6.63-2.83-6.69-7.15,0-.73,0-1.46,0-2.18.11-4.71,2.75-6.71,7.3-5.54l5.31,1.38c2.08-5.08,4-9.94,6.07-14.72C62.3,59,66.51,56,72.45,56c20-.05,40,0,59.94,0a2.65,2.65,0,0,0,1.71-.67C139.43,50.11,144.71,44.83,150.13,39.44Zm-22,21.78a9.17,9.17,0,0,0-1-.12q-25.78,0-51.58,0c-4,0-6.56,2.08-8,5.67Q63.23,77.4,58.87,88c-1.64,4-.49,5.77,3.81,5.78,10.45,0,20.9,0,31.35,0a4.55,4.55,0,0,0,2.87-1.22q15-14.87,29.91-29.85C127.22,62.29,127.59,61.85,128.17,61.22Zm6.45,59.89c2.9,0,5.81,0,8.72,0,2.06,0,3-1,3.06-3,0-2.58.06-5.16,0-7.73-.05-2.06-1-3-3.1-3q-8.52-.08-17.05,0c-2.17,0-3.12,1-3.17,3.19q-.09,3.76,0,7.53c0,2.19,1,3.1,3.21,3.13C129.06,121.14,131.84,121.11,134.62,121.11ZM68.13,107.25c-2.83,0-5.67,0-8.51,0-2,0-3,.87-3.09,2.81-.1,2.77-.08,5.55,0,8.32a2.59,2.59,0,0,0,2.95,2.72c2.64,0,5.28,0,7.92,0a2.72,2.72,0,0,0,1.7-.72c3.31-3.22,6.52-6.54,9.84-9.75,1.18-1.15.77-2-.27-2.73a4.83,4.83,0,0,0-2.42-.6C73.55,107.2,70.84,107.25,68.13,107.25Zm56.23-13.54c6.13,0,12.11.1,18.07-.06,1.94-.05,3-2,2.32-4-1.45-3.94-3.12-7.79-4.68-11.64Z"/></g></g></svg>