<svg width="101" height="101" viewBox="0 0 101 101" fill="none" xmlns="http://www.w3.org/2000/svg">
<circle cx="50.5859" cy="50.6135" r="49.5" fill="white" stroke="#F6EFE9"/>
<path d="M67.0314 28.4177C67.0314 20.1952 66.5706 16.812 64.4874 14.6764C62.4043 12.5408 54.1016 11.0419 50.5879 11.0419C47.0737 11.0419 38.7715 12.5408 36.6883 14.6764C34.6051 16.812 34.1443 19.7794 34.1443 28.4177C34.1443 40.2495 32.7433 84.5468 36.332 87.5203C39.9202 90.4943 46.9772 90.6133 50.5879 90.6133C54.1981 90.6133 61.2551 90.4943 64.8437 87.5203C68.4324 84.5468 67.0314 40.2495 67.0314 28.4177Z" fill="#9C4900"/>
<path d="M65.6151 30.2825C65.6151 22.3229 65.194 19.3807 63.2899 17.4285C61.3857 15.4763 53.797 14.6768 50.5849 14.6768C47.3728 14.6768 39.7841 15.4763 37.88 17.4285C35.9758 19.3807 35.5547 21.4431 35.5547 30.2825C35.5547 32.1222 35.7628 34.8916 36.3061 37.623C37.3217 39.9403 37.8676 43.7719 38.2473 47.5035C37.8134 48.1116 37.558 49.3119 37.558 50.5819C36.9839 52.3167 37.4125 55.9821 37.558 58.2443C37.566 58.3682 37.5501 58.7616 37.558 58.8851C37.558 58.8851 37.215 66.6965 37.558 70.145C37.641 70.9793 37.8306 72.1338 37.9757 72.3931C38.0952 73.4523 36.6655 77.8726 36.8141 78.6862C37.1131 80.3196 37.0946 84.0485 37.5541 84.429C40.8341 87.1472 47.2847 87.2557 50.5849 87.2557C53.8852 87.2557 60.3353 87.1472 63.6158 84.429C64.0753 84.0485 64.0567 80.3196 64.3553 78.6862C64.5043 77.8726 63.0747 73.4523 63.1942 72.3931C63.4178 71.781 63.5289 70.9793 63.6118 70.145C63.9549 66.6965 63.6118 58.8851 63.6118 58.8851C63.6197 58.7616 63.6038 58.3682 63.6118 58.2443C63.7573 55.9821 64.1859 52.3167 63.6118 50.5819C63.6118 49.3119 63.3565 48.1116 62.9225 47.5035C63.3018 43.7719 63.8477 39.9403 64.8637 37.623C65.407 34.8916 65.6151 32.1222 65.6151 30.2825Z" fill="#FF7800"/>
<path d="M37.5632 58.2444V50.2005L35.3755 38.4102C34.9385 42.6404 34.9059 50.8514 34.9901 58.2444H37.5632Z" fill="#262A35"/>
<path d="M34.9922 58.8844C35.0874 66.6169 35.3031 73.2875 35.3031 73.2875L37.5578 70.1443V58.8844H34.9922Z" fill="#262A35"/>
<path d="M50.5913 33.2691C50.5913 33.2691 42.3794 33.1641 36.3125 37.6229L38.2537 47.5034C38.2537 47.5034 41.5923 44.6511 50.5913 44.6511C59.5903 44.6511 62.9289 47.5034 62.9289 47.5034L64.8701 37.6229C58.8032 33.1641 50.5913 33.2691 50.5913 33.2691Z" fill="#262A35"/>
<path d="M63.6172 58.2444V50.2005L65.8049 38.4102C66.2415 42.6404 66.2741 50.8514 66.1903 58.2444H63.6172Z" fill="#353F4B"/>
<path d="M66.1828 58.8844C66.0871 66.6169 65.8719 73.2875 65.8719 73.2875L63.6172 70.1443V58.8844H66.1828Z" fill="#353F4B"/>
<path d="M63.1973 72.3941C60.1369 73.2329 41.0387 73.2329 37.9788 72.3941C37.9788 72.3941 36.5377 76.2024 36.8172 78.6873C38.8889 79.9503 43.2767 81.5545 50.588 81.5545C57.8994 81.5545 62.2867 79.9503 64.3584 78.6873C64.6384 76.2024 63.1973 72.3941 63.1973 72.3941Z" fill="#262A35"/>
<path d="M34.6111 40.6282L31.2028 41.4691C30.8946 41.5454 30.6035 41.2786 30.6542 40.9576C30.7534 40.3332 31.1128 39.4371 32.3251 39.0909C34.2671 38.5366 34.6111 40.6282 34.6111 40.6282Z" fill="#FF7800"/>
<path d="M66.5625 40.6282L69.9708 41.4691C70.279 41.5454 70.5701 41.2786 70.5194 40.9576C70.4202 40.3332 70.0608 39.4371 68.8481 39.0909C66.9065 38.5366 66.5625 40.6282 66.5625 40.6282Z" fill="#FF7800"/>
<path d="M62.9236 47.5034L64.8647 37.6229C58.7978 33.1641 50.5859 33.2691 50.5859 33.2691V44.6511C59.5849 44.6511 62.9236 47.5034 62.9236 47.5034Z" fill="#353F4B"/>
<path d="M63.1952 72.3941C63.0916 72.4224 62.98 72.4471 62.8627 72.47C62.8314 72.4762 62.7908 72.4819 62.7578 72.4876C62.689 72.5 62.6215 72.5128 62.5483 72.5233C60.4479 72.8563 55.5209 73.023 50.5859 73.023V81.5545C57.8973 81.5545 62.2846 79.9503 64.3563 78.6873C64.6363 76.2024 63.1952 72.3941 63.1952 72.3941Z" fill="#353F4B"/>
<path d="M54.0089 89.6533C51.7304 89.8355 49.447 89.8355 47.168 89.6533C46.8501 89.6278 46.5445 89.9991 46.4766 90.4991C48.0389 90.6014 49.4774 90.6133 50.5887 90.6133C51.6995 90.6133 53.1384 90.6014 54.7008 90.4991C54.6324 89.9991 54.3273 89.6278 54.0089 89.6533Z" fill="#262A35"/>
<path d="M42.2662 89.6291C42.2671 89.6247 42.268 89.6207 42.2688 89.6163C42.3429 89.2719 42.1326 88.935 41.7974 88.8534C40.8013 88.6113 39.8122 88.3273 38.8323 88.0015C38.5051 87.893 38.1541 88.0685 38.0425 88.4023C38.0412 88.4063 38.0399 88.4102 38.0386 88.4147C38.0183 88.4751 38.0178 88.5359 38.0156 88.5968C39.2327 89.2124 40.6372 89.6401 42.0907 89.9373C42.1723 89.8527 42.2397 89.753 42.2662 89.6291Z" fill="#FF7800"/>
<path d="M63.1394 88.4023C63.0283 88.0685 62.6773 87.893 62.3497 88.0015C61.3703 88.3273 60.3811 88.6113 59.3845 88.8534C59.0498 88.935 58.8395 89.2719 58.9131 89.6163C58.914 89.6207 58.9153 89.6247 58.9162 89.6291C58.9427 89.753 59.0101 89.8527 59.0913 89.9373C60.5452 89.6401 61.9497 89.2124 63.1668 88.5968C63.1641 88.5359 63.1637 88.4751 63.1439 88.4147C63.1425 88.4102 63.1408 88.4063 63.1394 88.4023Z" fill="#FF7800"/>
<path d="M58.4562 12.9C58.8817 12.9921 59.313 12.7218 59.4149 12.2989C59.4158 12.2954 59.4166 12.2914 59.4175 12.2879C59.4572 12.1217 59.3593 11.9519 59.1939 11.9082C56.1243 11.0982 52.5815 10.6135 50.5843 10.6135C48.5872 10.6135 45.0444 11.0982 41.9747 11.9082C41.8094 11.9519 41.711 12.1216 41.7511 12.2883C41.752 12.2919 41.7529 12.2958 41.7542 12.2998C41.8557 12.7223 42.2874 12.9921 42.712 12.9C45.2944 12.3377 47.9566 11.7684 50.5843 11.7662C53.235 11.7636 55.8513 12.3329 58.4562 12.9Z" fill="#262A35"/>
<path d="M56.3917 27.899C56.3251 28.2301 56.0151 28.474 55.6623 28.474H45.5137C45.1609 28.474 44.8509 28.2301 44.7843 27.899L43.4609 21.3249L44.559 28.6914C44.6132 29.0552 44.9254 29.3246 45.2932 29.3246H55.8823C56.2501 29.3246 56.5628 29.0552 56.617 28.6914L57.7146 21.3249L56.3917 27.899Z" fill="#9C4900"/>
<path d="M37.3312 14.782C37.1658 14.8482 37.0009 14.9143 36.8359 14.9809C38.1262 14.4614 39.4187 13.945 40.713 13.4318C40.9974 13.3189 41.1368 12.997 41.0234 12.713C41.0221 12.7094 41.0208 12.7064 41.0195 12.7028C41.0071 12.6715 40.9838 12.6495 40.9666 12.6217C39.3782 13.0979 37.9944 13.6641 37.1354 14.2956C37.2006 14.4579 37.2659 14.6197 37.3312 14.782Z" fill="white"/>
<path d="M36.8325 14.9802C36.9975 14.9137 37.1624 14.8475 37.3278 14.7814C37.2625 14.6191 37.1972 14.4572 37.132 14.295C36.9626 14.4198 36.8127 14.5468 36.6866 14.676C36.5913 14.7734 36.5027 14.8753 36.4141 14.9772C36.5433 15.0305 36.6928 15.0367 36.8325 14.9802Z" fill="#FF7800"/>
<path d="M60.5219 13.3259C61.7889 13.9032 63.054 14.4835 64.3165 15.0665C64.1551 14.9919 63.9937 14.9174 63.8323 14.8433C63.9126 14.6687 63.9933 14.4945 64.0735 14.3203C63.222 13.6827 61.8356 13.1112 60.2388 12.6305C60.1383 12.8999 60.2556 13.2042 60.5219 13.3259Z" fill="white"/>
<path d="M64.0693 14.3204C63.9891 14.4946 63.9084 14.6687 63.8281 14.8434C63.9895 14.9175 64.1509 14.992 64.3123 15.0665C64.479 15.1432 64.6594 15.1221 64.8084 15.0396C64.7043 14.9153 64.5976 14.7935 64.4843 14.6771C64.3661 14.5559 64.2254 14.4372 64.0693 14.3204Z" fill="#FF7800"/>
<path d="M33.8745 56.8198H33.8683C33.7082 56.8198 33.5781 56.6897 33.5781 56.5296V54.801C33.5781 54.6405 33.7082 54.5108 33.8683 54.5108H33.8745C34.0345 54.5108 34.1646 54.6405 34.1646 54.801V56.5296C34.1646 56.6897 34.0345 56.8198 33.8745 56.8198Z" fill="#262A35"/>
<path d="M33.8745 63.2459H33.8683C33.7082 63.2459 33.5781 63.1163 33.5781 62.9558V61.2272C33.5781 61.0671 33.7082 60.937 33.8683 60.937H33.8745C34.0345 60.937 34.1646 61.0671 34.1646 61.2272V62.9558C34.1646 63.1163 34.0345 63.2459 33.8745 63.2459Z" fill="#262A35"/>
<path d="M67.3037 56.8198H67.298C67.1375 56.8198 67.0078 56.6897 67.0078 56.5296V54.801C67.0078 54.6405 67.1375 54.5108 67.298 54.5108H67.3037C67.4642 54.5108 67.5939 54.6405 67.5939 54.801V56.5296C67.5939 56.6897 67.4642 56.8198 67.3037 56.8198Z" fill="#262A35"/>
<path d="M67.3037 63.2459H67.298C67.1375 63.2459 67.0078 63.1163 67.0078 62.9558V61.2272C67.0078 61.0671 67.1375 60.937 67.298 60.937H67.3037C67.4642 60.937 67.5939 61.0671 67.5939 61.2272V62.9558C67.5939 63.1163 67.4642 63.2459 67.3037 63.2459Z" fill="#262A35"/>
</svg>
