<svg width="18" height="18" viewBox="0 0 18 18" fill="none" xmlns="http://www.w3.org/2000/svg">
<path d="M1.98698 11.8307V1.83073H0.320312V0.164062H2.82031C3.04133 0.164063 3.25329 0.25186 3.40957 0.40814C3.56585 0.56442 3.65365 0.776382 3.65365 0.997396V10.9974H14.0186L15.6853 4.33073H5.32031V2.66406H16.7536C16.8803 2.66407 17.0053 2.69295 17.1192 2.74851C17.233 2.80407 17.3327 2.88486 17.4106 2.98472C17.4885 3.08458 17.5427 3.2009 17.5689 3.32482C17.5951 3.44875 17.5928 3.57702 17.562 3.6999L15.4786 12.0332C15.4335 12.2134 15.3294 12.3734 15.183 12.4877C15.0365 12.602 14.8561 12.6641 14.6703 12.6641H2.82031C2.5993 12.6641 2.38734 12.5763 2.23106 12.42C2.07478 12.2637 1.98698 12.0517 1.98698 11.8307ZM3.65365 17.6641C3.21162 17.6641 2.78769 17.4885 2.47513 17.1759C2.16257 16.8633 1.98698 16.4394 1.98698 15.9974C1.98698 15.5554 2.16257 15.1314 2.47513 14.8189C2.78769 14.5063 3.21162 14.3307 3.65365 14.3307C4.09567 14.3307 4.5196 14.5063 4.83216 14.8189C5.14472 15.1314 5.32031 15.5554 5.32031 15.9974C5.32031 16.4394 5.14472 16.8633 4.83216 17.1759C4.5196 17.4885 4.09567 17.6641 3.65365 17.6641ZM13.6536 17.6641C13.2116 17.6641 12.7877 17.4885 12.4751 17.1759C12.1626 16.8633 11.987 16.4394 11.987 15.9974C11.987 15.5554 12.1626 15.1314 12.4751 14.8189C12.7877 14.5063 13.2116 14.3307 13.6536 14.3307C14.0957 14.3307 14.5196 14.5063 14.8322 14.8189C15.1447 15.1314 15.3203 15.5554 15.3203 15.9974C15.3203 16.4394 15.1447 16.8633 14.8322 17.1759C14.5196 17.4885 14.0957 17.6641 13.6536 17.6641Z" fill="#9C4900"/>
</svg>
