<svg width="84" height="143" viewBox="0 0 84 143" fill="none" xmlns="http://www.w3.org/2000/svg">
<path d="M62.4457 135.728L54.6299 88.9596C54.4388 87.4481 54.4214 87.1602 52.0961 87.2844C49.7679 87.4067 49.8229 87.6928 50.0111 89.2043L53.9842 136.178C54.1753 137.689 56.2342 138.826 58.5595 138.702C60.8877 138.579 62.6368 137.241 62.4457 135.728Z" fill="#64676C"/>
<path d="M51.371 89.1475L51.3595 89.0705C51.3248 88.7834 51.2815 88.4419 51.2902 88.2505C51.4432 88.228 51.7146 88.1979 52.2025 88.1717C52.6875 88.1454 52.9647 88.1473 53.1177 88.1529C53.1754 88.3405 53.2216 88.6821 53.2563 88.9692L53.2678 89.0593L61.0831 135.827C61.2101 136.833 60.0293 137.738 58.4472 137.822C56.868 137.905 55.4822 137.143 55.3436 136.12L51.371 89.1475Z" fill="#7A7B81"/>
<path d="M46.2469 22.1115L46.2469 3.3226C46.2469 1.76345 44.298 0.496639 41.8993 0.496639C39.5037 0.496639 37.5547 1.76345 37.5547 3.3226L37.5547 22.1115C37.5547 23.6687 39.5037 24.9375 41.8993 24.9375C44.298 24.9375 46.2469 23.6687 46.2469 22.1115Z" fill="#152024"/>
<path d="M51.416 136.668L51.416 120.769C51.416 117.367 47.136 114.585 41.9033 114.585C36.6706 114.585 32.3906 117.367 32.3906 120.769L32.3906 136.668C32.3906 140.068 36.6706 142.852 41.9033 142.852C47.136 142.852 51.416 140.068 51.416 136.668Z" fill="#9C4900"/>
<path d="M48.3325 136.672L48.3325 120.772C48.3325 118.467 45.4458 116.593 41.8992 116.593C38.3554 116.593 35.4688 118.467 35.4688 120.772L35.4688 136.672C35.4688 138.975 38.3554 140.852 41.8992 140.852C45.4458 140.852 48.3325 138.975 48.3325 136.672Z" fill="#FF7800"/>
<path d="M48.3323 32.796L48.3323 14.0079C48.3323 11.7075 45.4397 9.82731 41.9005 9.82731C38.3644 9.82731 35.4688 11.7075 35.4688 14.0079L35.4688 32.796C35.4688 35.0964 38.3644 36.9766 41.9005 36.9766C45.4397 36.9766 48.3323 35.0964 48.3323 32.796Z" fill="#9C4900"/>
<path d="M46.2474 32.7999L46.2474 14.0104C46.2474 12.4525 44.2979 11.1853 41.901 11.1853C39.5042 11.1853 37.5547 12.4525 37.5547 14.0104L37.5547 32.7999C37.5547 34.3578 39.5042 35.625 41.901 35.625C44.2979 35.625 46.2474 34.3578 46.2474 32.7999Z" fill="#FF7800"/>
<path d="M61.862 49.083C61.862 36.0548 52.9258 33.0425 41.9022 33.0425C30.8787 33.0425 21.9453 36.0548 21.9453 49.083C21.9453 62.1093 30.8787 80.2188 41.9022 80.2188C52.9258 80.2188 61.862 62.1093 61.862 49.083Z" fill="#9C4900"/>
<path d="M58.7796 49.0786C58.7796 43.618 57.1109 39.7499 53.8223 37.5787C51.1972 35.8481 47.4088 35.0417 41.903 35.0417C33.1372 35.0417 25.0234 36.7424 25.0234 49.0786C25.0234 62.4192 34.1741 78.2109 41.903 78.2109C49.6319 78.2109 58.7796 62.4192 58.7796 49.0786Z" fill="#FF7800"/>
<path d="M50.3511 67.9451C53.6951 62.1699 55.6953 55.1188 55.6953 49.0803C55.6953 44.2361 54.2858 40.7439 51.6208 38.9876C49.615 37.6634 46.525 37.0477 41.897 37.0477C34.6269 37.0477 28.1016 37.9676 28.1016 49.0803C28.1016 55.1188 30.0988 62.1699 33.4457 67.9451C36.9323 73.9669 40.4818 76.2109 41.897 76.2109C43.3151 76.2109 46.8645 73.9669 50.3511 67.9451Z" fill="#9C4900"/>
<path d="M31.1875 49.0752C31.1875 39.0462 36.3932 39.0462 41.9028 39.0462C46.8241 39.0462 48.5556 39.8127 49.4311 40.3889C51.4554 41.7244 52.618 44.8909 52.618 49.0752C52.618 54.884 50.6931 61.6729 47.473 67.234C45.1946 71.1634 43.0544 73.129 41.9028 73.9062C40.7511 73.129 38.6109 71.1634 36.3325 67.234C33.1124 61.6711 31.1875 54.884 31.1875 49.0752Z" fill="black"/>
<path d="M31.1875 49.0778C31.1875 39.0465 36.3942 39.0465 41.9013 39.0465C46.8245 39.0465 48.5562 39.8147 49.432 40.3895C51.4557 41.7252 52.6178 44.8921 52.6178 49.0778C52.6178 54.8865 50.6933 61.6735 47.4735 67.2353C45.1947 71.1649 43.0548 73.1306 41.9013 73.9062C40.7505 73.1306 38.6106 71.1649 36.3318 67.2353C33.112 61.6735 31.1875 54.8865 31.1875 49.0778Z" fill="#FF7800"/>
<path d="M58.6249 104.727C60.3433 101.003 60.5624 94.8677 59.1093 91.0954L55.4333 81.5493C53.9803 77.777 47.8969 74.6905 41.9145 74.6905H41.8828C35.9004 74.6905 29.817 77.777 28.364 81.5493L24.688 91.0954C23.2349 94.8677 23.454 101.003 25.1752 104.727L33.4497 122.657C35.1652 126.383 38.968 129.43 41.9001 129.43C44.8264 129.43 48.6321 126.383 50.3504 122.657L58.6249 104.727Z" fill="#2F373F"/>
<path d="M26.8125 97.1129C26.8125 95.0037 27.1218 93.0382 27.6824 91.5842L31.3554 82.038C32.4712 79.1408 37.293 76.6959 41.8857 76.6959C46.5087 76.6959 51.3305 79.1408 52.4463 82.038L56.1221 91.5842C56.6827 93.0399 56.992 95.0037 56.992 97.1129C56.992 99.775 56.5114 102.34 55.6747 104.153L47.4007 122.084C45.8487 125.446 42.8274 127.354 41.8801 127.43C40.9771 127.354 37.9558 125.446 36.401 122.084L28.127 104.153C27.293 102.34 26.8125 99.775 26.8125 97.1129Z" fill="black"/>
<path d="M26.8125 97.1123C26.8125 95.0034 27.1215 93.0395 27.6823 91.5833L31.356 82.0373C32.4719 79.1417 37.293 76.6961 41.8851 76.6961C46.5088 76.6961 51.3298 79.1417 52.4457 82.0373L56.1223 91.5833C56.6831 93.0395 56.9921 95.0033 56.9921 97.1141C56.9921 99.7754 56.5114 102.342 55.676 104.153L47.4015 122.083C45.8478 125.445 42.8264 127.355 41.8794 127.43C40.9781 127.355 37.9567 125.445 36.4003 122.083L28.1258 104.153C27.2932 102.342 26.8125 99.7754 26.8125 97.1141V97.1123Z" fill="url(#paint0_linear_428_18070)"/>
<path d="M29.6026 103.867C28.8072 102.144 28.3516 99.6829 28.3516 97.1142C28.3516 95.084 28.6443 93.2063 29.1745 91.8277L32.8503 82.2816C33.7893 79.8403 38.0119 77.697 41.8837 77.697C45.7749 77.697 50.0113 79.8403 50.9503 82.2816L54.626 91.8277C55.1563 93.2063 55.449 95.084 55.449 97.1142C55.449 99.6829 54.9933 102.144 54.198 103.867L29.6026 103.867Z" fill="black"/>
<path d="M29.6035 103.867C28.8078 102.143 28.3516 99.6818 28.3516 97.1145C28.3516 95.083 28.6424 93.2053 29.1729 91.8281L32.8487 82.2821C33.7898 79.8409 38.0104 77.6981 41.883 77.6981C45.7756 77.6981 50.0104 79.8409 50.9486 82.2821L54.6245 91.8281C55.1549 93.2072 55.4487 95.083 55.4487 97.1145C55.4487 99.6818 54.9924 102.143 54.1967 103.867L29.6035 103.867Z" fill="url(#paint1_linear_428_18070)"/>
<path d="M47.7614 140.284C47.7614 139.735 47.0715 139.285 46.2273 139.285H37.581C36.7368 139.285 36.0469 139.735 36.0469 140.284C36.0469 140.833 36.7368 141.281 37.581 141.281H46.2273C47.0715 141.281 47.7614 140.833 47.7614 140.284Z" fill="#152024"/>
<path d="M56.1891 29.3258C56.1891 24.3176 49.9451 22.4257 42.243 22.4257C34.5408 22.4257 28.2969 24.3176 28.2969 29.3258C28.2969 34.3321 34.5408 38.3906 42.243 38.3906C49.9451 38.3906 56.1891 34.3321 56.1891 29.3258Z" fill="#152024"/>
<path d="M29.8415 29.0849C32.5451 30.275 36.6711 30.2642 40.971 30.2553H43.5089C47.8116 30.2642 51.9376 30.275 54.6413 29.0849C54.6468 29.1638 54.6468 29.2446 54.6468 29.3272C54.6468 33.7736 49.082 37.3906 42.2413 37.3906C35.4007 37.3906 29.8359 33.7736 29.8359 29.3272C29.8359 29.2446 29.8359 29.1656 29.8415 29.0849Z" fill="black"/>
<path d="M29.8417 29.0849C32.5468 30.2738 36.673 30.2646 40.9733 30.2553H43.5101C47.8133 30.2646 51.9395 30.2738 54.6418 29.0849C54.6475 29.1647 54.6475 29.2444 54.6475 29.326C54.6475 33.772 49.0831 37.3906 42.2432 37.3906C35.4032 37.3906 29.8359 33.772 29.8359 29.326C29.8359 29.2444 29.8359 29.1647 29.8417 29.0849Z" fill="url(#paint2_linear_428_18070)"/>
<path d="M42.239 22.422C35.9775 22.422 30.6726 23.6731 28.9141 26.835C30.6726 29.451 35.9775 29.2463 42.239 29.2463C48.5034 29.2463 53.8024 29.451 55.5639 26.835C53.8024 23.6731 48.5034 22.422 42.239 22.422Z" fill="#64676C"/>
<path d="M30.6172 26.7906C32.591 24.0282 37.9746 23.433 42.2449 23.433C46.5094 23.433 51.8959 24.0282 53.8697 26.7906C52.457 28.2002 48.9367 28.2682 43.524 28.2569H40.963C35.5503 28.2682 32.03 28.2002 30.6172 26.7906Z" fill="#929195"/>
<path d="M42.2422 36.7282L42.2422 34.9619L59.7865 34.9619C60.0218 34.956 66.9134 34.8031 70.6684 37.1007L82.2349 44.4894L80.3318 45.75L68.7864 38.375C66.3705 36.8968 61.5087 36.6851 59.8408 36.7282L42.2422 36.7282Z" fill="#484E58"/>
<path d="M82.8321 46.1087C83.673 45.5523 83.6609 44.6557 82.8018 44.1091L71.64 36.9779C72 36.7971 72.5172 36.6044 73.1313 36.5808C73.8905 36.5493 74.6679 36.7872 75.4241 37.2788L82.6113 42.1686C82.817 42.3101 83.1588 42.316 83.3766 42.1804C83.5944 42.0467 83.6034 41.8225 83.3947 41.681L76.1985 36.7852C75.2033 36.1364 74.1416 35.8297 73.0557 35.8749C72.0696 35.9162 71.2891 36.2406 70.8021 36.512C69.9673 36.2052 68.8874 36.2878 68.1856 36.7518C67.7682 37.0271 67.5625 37.3869 67.5625 37.7428C67.5625 38.1085 67.7772 38.4742 68.2098 38.7514L79.7558 46.1264C80.6118 46.673 81.9881 46.6651 82.8321 46.1087Z" fill="#283139"/>
<path d="M42.2417 36.7298L42.2417 34.9629L24.6997 34.9629C24.4617 34.9556 17.572 34.8046 13.815 37.1028L2.25 44.4908L4.1537 45.75L15.6991 38.3748C18.1123 36.899 22.9751 36.6861 24.6437 36.7298L42.2417 36.7298Z" fill="#484E58"/>
<path d="M1.65326 46.1103C0.810725 45.5518 0.821885 44.6577 1.68116 44.1101L12.8434 36.9781C12.4863 36.7967 11.9646 36.6045 11.3536 36.5809C10.5892 36.5501 9.8164 36.7877 9.06035 37.2791L1.87367 42.1698C1.66722 42.3112 1.32128 42.3167 1.10646 42.1807C0.888852 42.0465 0.880477 41.8234 1.08693 41.682L8.28477 36.7858C9.28075 36.1366 10.3409 35.8302 11.429 35.8755C12.4166 35.9172 13.1949 36.2418 13.6832 36.512C14.5173 36.2055 15.5942 36.2872 16.3 36.7532C16.7157 37.0288 16.9222 37.3861 16.9222 37.7433C16.9222 38.1096 16.7074 38.4759 16.275 38.7515L4.7277 46.1266C3.87121 46.6724 2.4958 46.6652 1.65326 46.1103Z" fill="#283139"/>
<path d="M42.2432 33.8191C46.656 33.8191 50.2285 36.143 50.2285 39.0095C50.2285 41.8778 46.656 42.9609 42.2432 42.9609C37.8332 42.9609 34.2578 41.8778 34.2578 39.0095C34.2578 36.143 37.8332 33.8191 42.2432 33.8191Z" fill="#5D636D"/>
<path d="M49.3439 39.1484C47.7946 38.4681 45.4334 38.4735 42.9699 38.4789H41.5173C39.0539 38.4735 36.6927 38.4681 35.1434 39.1484C35.1406 39.1036 35.1406 39.0569 35.1406 39.0102C35.1406 36.4648 38.3276 34.3933 42.2436 34.3933C46.1597 34.3933 49.3466 36.4648 49.3466 39.0102C49.3466 39.0569 49.3467 39.1018 49.3439 39.1484Z" fill="black"/>
<path d="M49.3443 39.1406C47.7964 38.4583 45.4353 38.4638 42.9699 38.4693H41.5178C39.0553 38.4638 36.6941 38.4583 35.1434 39.1406C35.1406 39.0949 35.1406 39.0473 35.1406 39.0016C35.1406 36.4553 38.3292 34.3846 42.2438 34.3846C46.1613 34.3846 49.3471 36.4553 49.3471 39.0016C49.3471 39.0473 49.3471 39.0949 49.3443 39.1406Z" fill="url(#paint3_linear_428_18070)"/>
<path d="M42.2419 42.9609C45.8286 42.9609 48.8602 42.2431 49.8688 40.4337C48.8602 38.9357 45.8286 39.0529 42.2419 39.0529C38.6524 39.0529 35.618 38.9357 34.6094 40.4337C35.618 42.2431 38.6524 42.9609 42.2419 42.9609Z" fill="#929195"/>
<path d="M48.8986 40.4603C47.7683 42.0429 44.6869 42.3828 42.2437 42.3828C39.7976 42.3828 36.7162 42.0429 35.5859 40.4603C36.3957 39.6526 38.4087 39.6142 41.5099 39.6215H42.9747C46.0758 39.6142 48.0889 39.6526 48.8986 40.4603Z" fill="#BEBBBC"/>
<path d="M42.2458 73.6837C35.0687 73.6837 29.1264 69.8454 28.1231 64.846C28.0231 65.3383 27.9688 65.8399 27.9688 66.3527C27.9688 72.0637 34.3598 76.6953 42.2458 76.6953C50.1289 76.6953 56.52 72.0637 56.52 66.3527C56.52 65.8399 56.4686 65.3383 56.3685 64.846C55.3624 69.8454 49.4229 73.6837 42.2458 73.6837Z" fill="#151413"/>
<defs>
<linearGradient id="paint0_linear_428_18070" x1="58.1623" y1="72.6252" x2="58.1623" y2="111.169" gradientUnits="userSpaceOnUse">
<stop stop-color="#747981"/>
<stop offset="1" stop-color="#2E373F"/>
</linearGradient>
<linearGradient id="paint1_linear_428_18070" x1="56.615" y1="69.4237" x2="56.615" y2="96.4463" gradientUnits="userSpaceOnUse">
<stop stop-color="#747981"/>
<stop offset="1" stop-color="#2E373F"/>
</linearGradient>
<linearGradient id="paint2_linear_428_18070" x1="57.2671" y1="19.0265" x2="57.2671" y2="27.6084" gradientUnits="userSpaceOnUse">
<stop stop-color="#2E363E"/>
<stop offset="1" stop-color="#151F24"/>
</linearGradient>
<linearGradient id="paint3_linear_428_18070" x1="50.8471" y1="32.8645" x2="50.8471" y2="29.513" gradientUnits="userSpaceOnUse">
<stop stop-color="#6B717A"/>
<stop offset="1" stop-color="#5E636D"/>
</linearGradient>
</defs>
</svg>
