<svg width="76" height="151" viewBox="0 0 76 151" fill="none" xmlns="http://www.w3.org/2000/svg">
<path d="M68.7542 33.8831C68.7542 18.466 67.8902 12.1226 63.9842 8.11823C60.0783 4.11389 44.5107 1.3035 37.9226 1.3035C31.3336 1.3035 15.7668 4.11389 11.8609 8.11823C7.95495 12.1226 7.09092 17.6863 7.09092 33.8831C7.09092 56.0678 4.46407 139.125 11.1928 144.701C17.9207 150.277 31.1525 150.5 37.9226 150.5C44.6918 150.5 57.9236 150.277 64.6523 144.701C71.3811 139.125 68.7542 56.0678 68.7542 33.8831Z" fill="#9C4900"/>
<path d="M66.1055 37.3783C66.1055 22.4541 65.3159 16.9374 61.7457 13.2771C58.1754 9.6167 43.9465 8.11766 37.9239 8.11766C31.9012 8.11766 17.6723 9.6167 14.1021 13.2771C10.5318 16.9374 9.74219 20.8045 9.74219 37.3783C9.74219 40.8279 10.1325 46.0204 11.1511 51.1418C13.0553 55.4868 14.0789 62.6711 14.7908 69.6677C13.9772 70.8079 13.4985 73.0585 13.4985 75.4398C12.422 78.6926 13.2256 85.5652 13.4985 89.8068C13.5134 90.0391 13.4836 90.7767 13.4985 91.0082C13.4985 91.0082 12.8552 105.655 13.4985 112.12C13.6539 113.685 14.0095 115.849 14.2815 116.336C14.5056 118.322 11.825 126.61 12.1036 128.135C12.6642 131.198 12.6295 138.19 13.491 138.903C19.641 144 31.7359 144.203 37.9239 144.203C44.1119 144.203 56.2059 144 62.3567 138.903C63.2183 138.19 63.1835 131.198 63.7433 128.135C64.0228 126.61 61.3422 118.322 61.5662 116.336C61.9854 115.188 62.1938 113.685 62.3492 112.12C62.9925 105.655 62.3492 91.0082 62.3492 91.0082C62.3641 90.7767 62.3344 90.0391 62.3492 89.8068C62.6221 85.5652 63.4258 78.6926 62.3492 75.4398C62.3492 73.0585 61.8705 70.8079 61.0569 69.6677C61.768 62.6711 62.7916 55.4868 64.6966 51.1418C65.7153 46.0204 66.1055 40.8279 66.1055 37.3783Z" fill="#FF7800"/>
<path d="M13.5033 89.8047V74.7225L9.40141 52.6155C8.58202 60.5473 8.52084 75.9429 8.67876 89.8047H13.5033Z" fill="#262A35"/>
<path d="M8.6875 91.0097C8.8661 105.508 9.27042 118.016 9.27042 118.016L13.498 112.122L13.498 91.0097H8.6875Z" fill="#262A35"/>
<path d="M37.929 42.9826C37.929 42.9826 22.5318 42.7859 11.1562 51.1459L14.796 69.6719C14.796 69.6719 21.0559 64.3239 37.929 64.3239C54.8021 64.3239 61.0621 69.6719 61.0621 69.6719L64.7018 51.1459C53.3262 42.7859 37.929 42.9826 37.929 42.9826Z" fill="#262A35"/>
<path d="M62.3516 89.8047V74.7225L66.4535 52.6155C67.2721 60.5473 67.3332 75.9429 67.1761 89.8047H62.3516Z" fill="#353F4B"/>
<path d="M67.1621 91.0097C66.9827 105.508 66.5791 118.016 66.5791 118.016L62.3516 112.122V91.0097H67.1621Z" fill="#353F4B"/>
<path d="M61.5692 116.34C55.831 117.913 20.0218 117.913 14.2844 116.34C14.2844 116.34 11.5823 123.48 12.1065 128.14C15.991 130.508 24.2179 133.516 37.9268 133.516C51.6356 133.516 59.8618 130.508 63.7462 128.14C64.2712 123.48 61.5692 116.34 61.5692 116.34Z" fill="#262A35"/>
<path d="M7.96905 56.7736L1.57848 58.3503C1.00052 58.4934 0.454822 57.9931 0.549907 57.3912C0.735944 56.2204 1.40982 54.5403 3.68278 53.8912C7.32414 52.8519 7.96905 56.7736 7.96905 56.7736Z" fill="#FF7800"/>
<path d="M67.8828 56.7736L74.2734 58.3503C74.8513 58.4934 75.397 57.9931 75.302 57.3912C75.1159 56.2204 74.4421 54.5403 72.1683 53.8912C68.5277 52.8519 67.8828 56.7736 67.8828 56.7736Z" fill="#FF7800"/>
<path d="M61.0549 69.6719L64.6946 51.1459C53.3191 42.7859 37.9219 42.9826 37.9219 42.9826V64.3239C54.795 64.3239 61.0549 69.6719 61.0549 69.6719Z" fill="#353F4B"/>
<path d="M61.5642 116.34C61.3699 116.393 61.1608 116.439 60.9408 116.482C60.8821 116.494 60.806 116.504 60.744 116.515C60.615 116.538 60.4885 116.562 60.3513 116.582C56.4131 117.206 47.1749 117.519 37.9219 117.519V133.516C51.6307 133.516 59.8568 130.508 63.7413 128.14C64.2663 123.48 61.5642 116.34 61.5642 116.34Z" fill="#353F4B"/>
<path d="M44.334 148.7C40.0618 149.041 35.7805 149.041 31.5074 148.7C30.9113 148.652 30.3383 149.348 30.2109 150.286C33.1404 150.478 35.8375 150.5 37.9211 150.5C40.0039 150.5 42.7019 150.478 45.6313 150.286C45.5032 149.348 44.931 148.652 44.334 148.7Z" fill="#262A35"/>
<path d="M22.3136 148.656C22.3152 148.648 22.3169 148.641 22.3185 148.632C22.4574 147.987 22.063 147.355 21.4346 147.202C19.5668 146.748 17.7123 146.216 15.875 145.605C15.2615 145.401 14.6034 145.73 14.3942 146.356C14.3917 146.364 14.3892 146.371 14.3867 146.379C14.3487 146.493 14.3479 146.607 14.3438 146.721C16.6258 147.875 19.2592 148.677 21.9845 149.234C22.1374 149.076 22.2639 148.889 22.3136 148.656Z" fill="#FF7800"/>
<path d="M61.4519 146.356C61.2435 145.73 60.5854 145.401 59.971 145.605C58.1347 146.216 56.2801 146.748 54.4114 147.202C53.7839 147.355 53.3895 147.987 53.5275 148.632C53.5292 148.641 53.5317 148.648 53.5333 148.656C53.5829 148.889 53.7095 149.076 53.8616 149.234C56.5876 148.677 59.2211 147.875 61.5031 146.721C61.4982 146.607 61.4974 146.493 61.4602 146.379C61.4577 146.371 61.4544 146.364 61.4519 146.356Z" fill="#FF7800"/>
<path d="M52.6825 4.78646C53.4804 4.95927 54.289 4.45243 54.48 3.6595C54.4817 3.65289 54.4834 3.64544 54.485 3.63883C54.5594 3.32712 54.3759 3.0088 54.0658 2.92694C48.3102 1.40805 41.6675 0.49934 37.9228 0.49934C34.1781 0.49934 27.5353 1.40805 21.7797 2.92694C21.4697 3.0088 21.2853 3.3271 21.3605 3.63964C21.3622 3.64625 21.3638 3.65371 21.3663 3.66116C21.5565 4.45326 22.366 4.95927 23.1622 4.78646C28.0041 3.73225 32.9957 2.66482 37.9228 2.66068C42.8928 2.65572 47.7984 3.72316 52.6825 4.78646Z" fill="#262A35"/>
<path d="M48.8076 32.9128C48.6828 33.5337 48.1015 33.991 47.4401 33.991H28.4114C27.7499 33.991 27.1687 33.5337 27.0438 32.9128L24.5625 20.5864L26.6213 34.3986C26.723 35.0808 27.3084 35.5859 27.998 35.5859H47.8526C48.5422 35.5859 49.1284 35.0808 49.2301 34.3986L51.2881 20.5864L48.8076 32.9128Z" fill="#9C4900"/>
<path d="M13.0692 8.31462C12.7591 8.43864 12.4499 8.56265 12.1406 8.6875C14.5599 7.71349 16.9834 6.74529 19.4101 5.78286C19.9434 5.57119 20.2047 4.96762 19.9922 4.43514C19.9897 4.42853 19.9872 4.42274 19.9848 4.41612C19.9616 4.35742 19.9178 4.31605 19.8855 4.26396C16.9073 5.15694 14.3127 6.21858 12.702 7.4026C12.8244 7.70688 12.9468 8.01035 13.0692 8.31462Z" fill="white"/>
<path d="M12.1362 8.69117C12.4455 8.56632 12.7547 8.44231 13.0648 8.31829C12.9424 8.01402 12.82 7.71055 12.6976 7.40627C12.3801 7.64027 12.099 7.8784 11.8625 8.12067C11.6839 8.30339 11.5178 8.4944 11.3516 8.6854C11.5938 8.78544 11.8741 8.797 12.1362 8.69117Z" fill="#FF7800"/>
<path d="M56.5509 5.58805C58.9264 6.67037 61.2985 7.75849 63.6658 8.85156C63.3631 8.71183 63.0605 8.57209 62.7579 8.43318C62.9084 8.10576 63.0597 7.77917 63.2102 7.45257C61.6136 6.25698 59.014 5.18538 56.0201 4.28413C55.8315 4.78933 56.0515 5.35984 56.5509 5.58805Z" fill="white"/>
<path d="M63.2101 7.44927C63.0596 7.77587 62.9083 8.10245 62.7578 8.42988C63.0604 8.56879 63.3631 8.70853 63.6657 8.84826C63.9782 8.99213 64.3164 8.95245 64.5959 8.79783C64.4007 8.56467 64.2006 8.33645 63.9881 8.11816C63.7665 7.89078 63.5028 7.66838 63.2101 7.44927Z" fill="#FF7800"/>
<path d="M6.59469 87.1328H6.5831C6.28296 87.1328 6.03906 86.8889 6.03906 86.5888V83.3476C6.03906 83.0466 6.28296 82.8035 6.5831 82.8035H6.59469C6.89483 82.8035 7.13875 83.0466 7.13875 83.3476V86.5888C7.13875 86.8889 6.89483 87.1328 6.59469 87.1328Z" fill="#262A35"/>
<path d="M6.59469 99.1875H6.5831C6.28296 99.1875 6.03906 98.9444 6.03906 98.6435V95.4023C6.03906 95.1022 6.28296 94.8582 6.5831 94.8582H6.59469C6.89483 94.8582 7.13875 95.1022 7.13875 95.4023V98.6435C7.13875 98.9444 6.89483 99.1875 6.59469 99.1875Z" fill="#262A35"/>
<path d="M69.2657 87.1328H69.255C68.954 87.1328 68.7109 86.8889 68.7109 86.5888V83.3476C68.7109 83.0466 68.954 82.8035 69.255 82.8035H69.2657C69.5667 82.8035 69.8098 83.0466 69.8098 83.3476V86.5888C69.8098 86.8889 69.5667 87.1328 69.2657 87.1328Z" fill="#262A35"/>
<path d="M69.2657 99.1875H69.255C68.954 99.1875 68.7109 98.9444 68.7109 98.6435V95.4023C68.7109 95.1022 68.954 94.8582 69.255 94.8582H69.2657C69.5667 94.8582 69.8098 95.1022 69.8098 95.4023V98.6435C69.8098 98.9444 69.5667 99.1875 69.2657 99.1875Z" fill="#262A35"/>
</svg>
