<svg width="9" height="9" viewBox="0 0 9 9" fill="none" xmlns="http://www.w3.org/2000/svg">
<path d="M8.06464 8.63808C7.88461 8.8181 7.64044 8.91923 7.38584 8.91923C7.13124 8.91923 6.88707 8.8181 6.70704 8.63808L4.58624 6.21408L2.46544 8.63728C2.37656 8.72762 2.27068 8.79946 2.1539 8.84867C2.03712 8.89788 1.91175 8.92348 1.78502 8.924C1.6583 8.92451 1.53272 8.89994 1.41554 8.85168C1.29836 8.80342 1.1919 8.73244 1.10229 8.64283C1.01268 8.55322 0.9417 8.44676 0.893442 8.32958C0.845184 8.2124 0.820604 8.08682 0.82112 7.9601C0.821636 7.83337 0.847238 7.708 0.896448 7.59122C0.945659 7.47444 1.0175 7.36856 1.10784 7.27968L3.31424 4.75968L1.10704 2.23808C1.0167 2.1492 0.944859 2.04332 0.895649 1.92654C0.846438 1.80975 0.820836 1.68438 0.82032 1.55766C0.819804 1.43093 0.844384 1.30536 0.892642 1.18818C0.9409 1.071 1.01188 0.964537 1.10149 0.874927C1.1911 0.785318 1.29756 0.714337 1.41474 0.66608C1.53192 0.617822 1.6575 0.593242 1.78422 0.593758C1.91095 0.594274 2.03632 0.619876 2.1531 0.669086C2.26988 0.718296 2.37576 0.790142 2.46464 0.880478L4.58624 3.30528L6.70704 0.880478C6.79592 0.790142 6.9018 0.718296 7.01858 0.669086C7.13537 0.619876 7.26073 0.594274 7.38746 0.593758C7.51419 0.593242 7.63976 0.617822 7.75694 0.66608C7.87412 0.714337 7.98058 0.785318 8.07019 0.874927C8.1598 0.964537 8.23078 1.071 8.27904 1.18818C8.3273 1.30536 8.35188 1.43093 8.35136 1.55766C8.35084 1.68438 8.32524 1.80975 8.27603 1.92654C8.22682 2.04332 8.15498 2.1492 8.06464 2.23808L5.85824 4.75968L8.06464 7.27968C8.1539 7.36884 8.22471 7.47471 8.27302 7.59126C8.32133 7.7078 8.3462 7.83272 8.3462 7.95888C8.3462 8.08504 8.32133 8.20996 8.27302 8.3265C8.22471 8.44304 8.1539 8.54892 8.06464 8.63808Z" fill="#421F00" fill-opacity="0.5"/>
</svg>
