<svg width="25" height="24" viewBox="0 0 25 24" fill="none" xmlns="http://www.w3.org/2000/svg">
<rect x="0.796875" width="24" height="24" rx="4.78" fill="#FF0000"/>
<path d="M16.9666 16.6532C16.7506 16.8692 16.4576 16.9906 16.1521 16.9906C15.8466 16.9906 15.5536 16.8692 15.3375 16.6532L12.7926 13.7444L10.2476 16.6522C10.1409 16.7606 10.0139 16.8469 9.87374 16.9059C9.7336 16.965 9.58316 16.9957 9.43109 16.9963C9.27902 16.9969 9.12833 16.9674 8.98771 16.9095C8.8471 16.8516 8.71934 16.7664 8.61181 16.6589C8.50428 16.5514 8.4191 16.4236 8.36119 16.283C8.30328 16.1424 8.27379 15.9917 8.27441 15.8396C8.27503 15.6875 8.30575 15.5371 8.3648 15.397C8.42385 15.2568 8.51007 15.1298 8.61847 15.0231L11.2662 11.9991L8.61751 8.97319C8.50911 8.86654 8.42289 8.73948 8.36384 8.59934C8.30479 8.45921 8.27407 8.30876 8.27345 8.15669C8.27283 8.00462 8.30232 7.85393 8.36023 7.71332C8.41814 7.5727 8.50332 7.44494 8.61085 7.33741C8.71838 7.22988 8.84614 7.1447 8.98675 7.0868C9.12737 7.02889 9.27806 6.99939 9.43013 7.00001C9.5822 7.00063 9.73264 7.03135 9.87278 7.0904C10.0129 7.14946 10.14 7.23567 10.2466 7.34407L12.7926 10.2538L15.3375 7.34407C15.4442 7.23567 15.5712 7.14946 15.7114 7.0904C15.8515 7.03135 16.0019 7.00063 16.154 7.00001C16.3061 6.99939 16.4568 7.02889 16.5974 7.0868C16.738 7.1447 16.8658 7.22988 16.9733 7.33741C17.0808 7.44494 17.166 7.5727 17.2239 7.71332C17.2818 7.85393 17.3113 8.00462 17.3107 8.15669C17.3101 8.30876 17.2794 8.45921 17.2203 8.59934C17.1612 8.73948 17.075 8.86654 16.9666 8.97319L14.319 11.9991L16.9666 15.0231C17.0737 15.1301 17.1587 15.2572 17.2167 15.397C17.2747 15.5369 17.3045 15.6868 17.3045 15.8382C17.3045 15.9895 17.2747 16.1395 17.2167 16.2793C17.1587 16.4192 17.0737 16.5462 16.9666 16.6532Z" fill="white"/>
</svg>
