<svg width="16" height="16" viewBox="0 0 25 25" fill="none" xmlns="http://www.w3.org/2000/svg">
<rect x="0.1875" y="0.65625" width="24" height="24" rx="4.78" fill="#FF0000"/>
<path d="M16.3573 17.3094C16.1412 17.5255 15.8482 17.6468 15.5427 17.6468C15.2372 17.6468 14.9442 17.5255 14.7281 17.3094L12.1832 14.4006L9.63822 17.3085C9.53156 17.4169 9.4045 17.5031 9.26437 17.5622C9.12423 17.6212 8.97378 17.6519 8.82171 17.6525C8.66964 17.6532 8.51895 17.6237 8.37834 17.5658C8.23772 17.5079 8.10997 17.4227 8.00244 17.3151C7.8949 17.2076 7.80973 17.0799 7.75182 16.9392C7.69391 16.7986 7.66441 16.6479 7.66503 16.4959C7.66565 16.3438 7.69637 16.1934 7.75543 16.0532C7.81448 15.9131 7.90069 15.786 8.0091 15.6794L10.6568 12.6554L8.00814 9.62944C7.89973 9.52279 7.81352 9.39573 7.75447 9.25559C7.69541 9.11546 7.66469 8.96501 7.66407 8.81294C7.66345 8.66087 7.69295 8.51018 7.75086 8.36957C7.80877 8.22895 7.89394 8.10119 8.00148 7.99366C8.10901 7.88613 8.23676 7.80095 8.37738 7.74305C8.51799 7.68514 8.66868 7.65564 8.82075 7.65626C8.97282 7.65688 9.12327 7.6876 9.26341 7.74665C9.40354 7.80571 9.5306 7.89192 9.63726 8.00032L12.1832 10.9101L14.7281 8.00032C14.8348 7.89192 14.9618 7.80571 15.102 7.74665C15.2421 7.6876 15.3926 7.65688 15.5446 7.65626C15.6967 7.65564 15.8474 7.68514 15.988 7.74305C16.1286 7.80095 16.2564 7.88613 16.3639 7.99366C16.4714 8.10119 16.5566 8.22895 16.6145 8.36957C16.6724 8.51018 16.7019 8.66087 16.7013 8.81294C16.7007 8.96501 16.67 9.11546 16.6109 9.25559C16.5519 9.39573 16.4657 9.52279 16.3573 9.62944L13.7096 12.6554L16.3573 15.6794C16.4644 15.7864 16.5493 15.9134 16.6073 16.0533C16.6653 16.1931 16.6951 16.343 16.6951 16.4944C16.6951 16.6458 16.6653 16.7957 16.6073 16.9356C16.5493 17.0754 16.4644 17.2025 16.3573 17.3094Z" fill="white"/>
</svg>
