<svg width="49" height="49" viewBox="0 0 49 49" transform="rotate(124)">
<path d="M9.87907 20.5356C10.2874 23.3647 11.7069 26.4859 13.6155 28.1409C12.7845 28.556 12.1459 29.1334 11.9013 29.7693L10.6753 32.9516C10.1912 34.2088 10.2639 36.2537 10.837 37.4956L13.2471 42.7181C13.243 42.7593 13.2409 42.8006 13.2409 42.8425V48.1421C13.2409 49.2757 14.6686 50.2031 16.4114 50.2031C18.1563 50.2031 19.5829 49.2757 19.5829 48.1421V42.8425C19.5829 42.8006 19.5809 42.7593 19.5768 42.7181L19.9299 41.9531L20.4395 47.9773C20.504 48.4813 21.1897 48.8602 21.9654 48.819C22.7401 48.7777 23.3235 48.3315 23.26 47.8274L21.6543 38.2173L21.9879 37.4956C22.56 36.2537 22.6327 34.2088 22.1486 32.9516L20.9236 29.7693C20.678 29.1334 20.0384 28.556 19.2084 28.1409C21.117 26.4859 22.5365 23.3647 22.9448 20.5356L23.0308 19.786C23.0533 19.4999 23.0656 19.2192 23.0656 18.9451C23.0656 16.9342 22.427 15.6391 21.3749 14.8282H22.3912C22.866 14.8156 24.1115 14.8655 24.9671 15.1841C24.9732 15.3005 25.0459 15.4149 25.184 15.5027L29.031 17.9613C29.3165 18.1436 29.776 18.1409 30.0574 17.9553C30.3368 17.7697 30.3327 17.4711 30.0482 17.2888L26.3261 14.912C26.4469 14.8515 26.6198 14.787 26.8235 14.779C27.0773 14.769 27.3352 14.8482 27.587 15.0118L29.9838 16.6422C30.0523 16.6894 30.1669 16.6908 30.2396 16.6462C30.3112 16.601 30.3143 16.5265 30.2447 16.4792L27.8469 14.8475C27.5133 14.6306 27.1612 14.5289 26.7969 14.5442C26.4694 14.5581 26.2095 14.6659 26.0467 14.7564C25.882 14.6958 25.6896 14.6812 25.5115 14.7105C24.2302 14.1983 22.4434 14.2375 22.3738 14.2395H20.3638C20.3198 14.2209 20.2768 14.2023 20.2328 14.185C20.8243 13.6774 21.1754 13.0455 21.1754 12.3603C21.1754 11.1643 20.1069 10.5017 18.5555 10.2217V7.2549C18.5555 6.85046 18.2873 6.48526 17.8616 6.23049V3.69408C17.8616 3.17456 17.2117 2.75216 16.4114 2.75216C15.6122 2.75216 14.9623 3.17456 14.9623 3.69408V6.23049C14.5366 6.48526 14.2684 6.85046 14.2684 7.2549V10.2663C12.8418 10.5689 11.8767 11.2242 11.8767 12.3603C11.8767 13.0182 12.2012 13.6269 12.7497 14.1231C12.6515 14.1597 12.5553 14.1983 12.4611 14.2395H10.6783C10.6098 14.2375 8.82292 14.1983 7.54162 14.7105C7.36253 14.6812 7.17013 14.6958 7.00537 14.7564C6.84367 14.6659 6.5827 14.5581 6.25522 14.5442C5.89191 14.5289 5.53884 14.6306 5.20623 14.8475L2.80738 16.4792C2.73881 16.5265 2.74188 16.601 2.81351 16.6462C2.88618 16.6908 2.99977 16.6894 3.06936 16.6422L5.46515 15.0118C5.71793 14.8482 5.97583 14.769 6.22963 14.779C6.43329 14.787 6.60624 14.8515 6.727 14.912L3.00489 17.2888C2.71936 17.4711 2.71527 17.7697 2.99671 17.9553C3.2761 18.1409 3.7356 18.1436 4.02113 17.9613L7.86911 15.5027C8.00727 15.4149 8.07891 15.3005 8.08505 15.1841C8.94164 14.8655 10.1871 14.8156 10.661 14.8282H11.449C10.3979 15.6391 9.75831 16.9342 9.75831 18.9451C9.75831 19.2192 9.77059 19.4999 9.79413 19.786L9.87907 20.5356Z" fill="#BEBBBC"/>
<path d="M20.797 45.279L18.1917 29.6897C18.128 29.1858 18.1222 29.0898 17.3471 29.1313C16.5711 29.172 16.5894 29.2674 16.6521 29.7712L17.9765 45.429C18.0402 45.9328 18.7265 46.3118 19.5016 46.2703C20.2777 46.2296 20.8607 45.7835 20.797 45.279Z" fill="#64676C"/>
<path d="M17.1054 29.7497L17.1016 29.724C17.09 29.6283 17.0756 29.5145 17.0785 29.4507C17.1295 29.4432 17.22 29.4332 17.3826 29.4244C17.5443 29.4156 17.6367 29.4163 17.6877 29.4182C17.7069 29.4807 17.7223 29.5945 17.7339 29.6903L17.7377 29.7203L20.3428 45.3096C20.3852 45.6449 19.9915 45.9464 19.4642 45.9745C18.9378 46.002 18.4758 45.7481 18.4296 45.4072L17.1054 29.7497Z" fill="#7A7B81"/>
<path d="M15.3974 7.40958V1.1466C15.3974 0.626879 14.7478 0.204609 13.9482 0.204609C13.1497 0.204609 12.5 0.626879 12.5 1.1466V7.40958C12.5 7.92862 13.1497 8.35156 13.9482 8.35156C14.7478 8.35156 15.3974 7.92862 15.3974 7.40958Z" fill="#152024"/>
<path d="M17.123 45.5952V40.2953C17.123 39.1615 15.6964 38.2342 13.9521 38.2342C12.2079 38.2342 10.7812 39.1615 10.7812 40.2953V45.5952C10.7812 46.7283 12.2079 47.6562 13.9521 47.6562C15.6964 47.6562 17.123 46.7283 17.123 45.5952Z" fill="#282523"/>
<path d="M16.0926 45.5911V40.2913C16.0926 39.5229 15.1304 38.8981 13.9482 38.8981C12.7669 38.8981 11.8047 39.5229 11.8047 40.2913V45.5911C11.8047 46.3589 12.7669 46.9844 13.9482 46.9844C15.1304 46.9844 16.0926 46.3589 16.0926 45.5911Z" fill="#4E5E70"/>
<path d="M16.0925 10.9658V4.70316C16.0925 3.93636 15.1283 3.30963 13.9486 3.30963C12.7699 3.30963 11.8047 3.93636 11.8047 4.70316V10.9658C11.8047 11.7327 12.7699 12.3594 13.9486 12.3594C15.1283 12.3594 16.0925 11.7327 16.0925 10.9658Z" fill="#282523"/>
<path d="M15.3976 10.9724V4.70921C15.3976 4.1899 14.7477 3.76751 13.9488 3.76751C13.1498 3.76751 12.5 4.1899 12.5 4.70921V10.9724C12.5 11.4917 13.1498 11.9141 13.9488 11.9141C14.7477 11.9141 15.3976 11.4917 15.3976 10.9724Z" fill="#4E5E70"/>
<path d="M20.6025 16.3948C20.6025 12.0521 17.6237 11.048 13.9492 11.048C10.2747 11.048 7.29688 12.0521 7.29688 16.3948C7.29688 20.737 10.2747 26.7734 13.9492 26.7734C17.6237 26.7734 20.6025 20.737 20.6025 16.3948Z" fill="#282523"/>
<path d="M19.5802 16.3986C19.5802 14.5784 19.0239 13.289 17.9278 12.5653C17.0527 11.9884 15.7899 11.7196 13.9546 11.7196C11.0327 11.7196 8.32812 12.2865 8.32812 16.3986C8.32812 20.8454 11.3783 26.1094 13.9546 26.1094C16.5309 26.1094 19.5802 20.8454 19.5802 16.3986Z" fill="#4E5E70"/>
<path d="M16.7681 22.6822C17.8828 20.7572 18.5495 18.4068 18.5495 16.3939C18.5495 14.7792 18.0796 13.6152 17.1913 13.0297C16.5227 12.5883 15.4927 12.3831 13.95 12.3831C11.5267 12.3831 9.35156 12.6897 9.35156 16.3939C9.35156 18.4068 10.0173 20.7572 11.1329 22.6822C12.2952 24.6895 13.4783 25.4375 13.95 25.4375C14.4227 25.4375 15.6059 24.6895 16.7681 22.6822Z" fill="#282523"/>
<path d="M10.3828 16.3949C10.3828 13.0519 12.1181 13.0519 13.9546 13.0519C15.595 13.0519 16.1722 13.3074 16.464 13.4994C17.1388 13.9446 17.5263 15.0001 17.5263 16.3949C17.5263 18.3311 16.8847 20.5941 15.8113 22.4478C15.0519 23.7576 14.3384 24.4128 13.9546 24.6719C13.5707 24.4128 12.8573 23.7576 12.0978 22.4478C11.0244 20.5935 10.3828 18.3311 10.3828 16.3949Z" fill="black"/>
<path d="M10.3828 16.3957C10.3828 13.052 12.1184 13.052 13.9541 13.052C15.5951 13.052 16.1724 13.308 16.4643 13.4996C17.1389 13.9449 17.5263 15.0005 17.5263 16.3957C17.5263 18.332 16.8848 20.5943 15.8115 22.4482C15.0519 23.7581 14.3386 24.4133 13.9541 24.6719C13.5705 24.4133 12.8572 23.7581 12.0976 22.4482C11.0243 20.5943 10.3828 18.332 10.3828 16.3957Z" fill="#282523"/>
<path d="M19.5234 34.9454C20.0962 33.7042 20.1692 31.659 19.6849 30.4016L18.4595 27.2196C17.9752 25.9621 15.9474 24.9333 13.9533 24.9333H13.9427C11.9486 24.9333 9.92078 25.9621 9.43642 27.2196L8.21111 30.4016C7.72675 31.659 7.79978 33.7042 8.37352 34.9454L11.1317 40.9222C11.7035 42.164 12.9711 43.1797 13.9485 43.1797C14.9239 43.1797 16.1925 42.164 16.7653 40.9222L19.5234 34.9454Z" fill="#2F373F"/>
<path d="M8.92188 32.41C8.92188 31.707 9.02498 31.0518 9.21185 30.5671L10.4362 27.3851C10.8081 26.4193 12.4154 25.6044 13.9463 25.6044C15.4873 25.6044 17.0946 26.4193 17.4665 27.3851L18.6917 30.5671C18.8786 31.0524 18.9817 31.707 18.9817 32.41C18.9817 33.2974 18.8215 34.1524 18.5426 34.7568L15.7846 40.7337C15.2673 41.8544 14.2602 42.4905 13.9444 42.5156C13.6434 42.4905 12.6363 41.8544 12.118 40.7337L9.36006 34.7568C9.08205 34.1524 8.92188 33.2974 8.92188 32.41Z" fill="black"/>
<path d="M8.92188 32.4098C8.92188 31.7068 9.02487 31.0522 9.2118 30.5668L10.4364 27.3848C10.8083 26.4196 12.4154 25.6044 13.9461 25.6044C15.4873 25.6044 17.0943 26.4196 17.4663 27.3848L18.6918 30.5668C18.8787 31.0522 18.9817 31.7068 18.9817 32.4104C18.9817 33.2975 18.8215 34.153 18.543 34.7568L15.7849 40.7334C15.267 41.8542 14.2599 42.4908 13.9442 42.5156C13.6438 42.4908 12.6366 41.8542 12.1178 40.7334L9.35963 34.7568C9.08209 34.153 8.92188 33.2975 8.92188 32.4104V32.4098Z" fill="url(#paint0_linear_428_37188)"/>
<path d="M9.85451 34.6562C9.58939 34.0818 9.4375 33.2615 9.4375 32.4052C9.4375 31.7285 9.53508 31.1026 9.71182 30.6431L10.9371 27.4611C11.2501 26.6473 12.6576 25.9329 13.9482 25.9329C15.2453 25.9329 16.6574 26.6473 16.9704 27.4611L18.1957 30.6431C18.3724 31.1026 18.47 31.7285 18.47 32.4052C18.47 33.2615 18.3181 34.0818 18.053 34.6562H9.85451Z" fill="black"/>
<path d="M9.85481 34.6562C9.5896 34.0816 9.4375 33.2611 9.4375 32.4054C9.4375 31.7282 9.53446 31.1023 9.71126 30.6432L10.9366 27.4612C11.2502 26.6475 12.6571 25.9332 13.948 25.9332C15.2455 25.9332 16.6571 26.6475 16.9699 27.4612L18.1951 30.6432C18.3719 31.1029 18.4699 31.7282 18.4699 32.4054C18.4699 33.2611 18.3178 34.0816 18.0526 34.6562H9.85481Z" fill="url(#paint1_linear_428_37188)"/>
<path d="M15.9048 46.8004C15.9048 46.6175 15.6749 46.4674 15.3935 46.4674H12.5114C12.23 46.4674 12 46.6175 12 46.8004C12 46.9833 12.23 47.1328 12.5114 47.1328H15.3935C15.6749 47.1328 15.9048 46.9833 15.9048 46.8004Z" fill="#152024"/>
<path d="M18.7115 9.81432C18.7115 8.14491 16.6301 7.51431 14.0628 7.51431C11.4954 7.51431 9.41406 8.14491 9.41406 9.81432C9.41406 11.4831 11.4954 12.8359 14.0628 12.8359C16.6301 12.8359 18.7115 11.4831 18.7115 9.81432Z" fill="#152024"/>
<path d="M9.93153 9.73141C10.8328 10.1281 12.2081 10.1245 13.6414 10.1215H14.4874C15.9216 10.1245 17.2969 10.1281 18.1981 9.73141C18.2 9.75774 18.2 9.78467 18.2 9.81219C18.2 11.2943 16.345 12.5 14.0648 12.5C11.7846 12.5 9.92969 11.2943 9.92969 9.81219C9.92969 9.78467 9.92969 9.75834 9.93153 9.73141Z" fill="black"/>
<path d="M9.93159 9.73143C10.8333 10.1277 12.2087 10.1246 13.6422 10.1216H14.4878C15.9221 10.1246 17.2975 10.1277 18.1983 9.73143C18.2002 9.75802 18.2002 9.7846 18.2002 9.81181C18.2002 11.2938 16.3454 12.5 14.0654 12.5C11.7854 12.5 9.92969 11.2938 9.92969 9.81181C9.92969 9.7846 9.92969 9.75802 9.93159 9.73143Z" fill="url(#paint2_linear_428_37188)"/>
<path d="M14.0666 7.51307C11.9795 7.51307 10.2112 7.93011 9.625 8.98407C10.2112 9.85605 11.9795 9.78781 14.0666 9.78781C16.1548 9.78781 17.9211 9.85605 18.5083 8.98407C17.9211 7.93011 16.1548 7.51307 14.0666 7.51307Z" fill="#64676C"/>
<path d="M10.1875 8.96407C10.8454 8.04326 12.64 7.84486 14.0634 7.84486C15.4849 7.84486 17.2804 8.04326 17.9383 8.96407C17.4674 9.43392 16.294 9.45659 14.4898 9.45281H13.6361C11.8319 9.45659 10.6584 9.43392 10.1875 8.96407Z" fill="#929195"/>
<path d="M14.0625 12.2818V11.693H19.9106C19.989 11.6911 22.2862 11.6401 23.5379 12.406L27.3934 14.8689L26.759 15.2891L22.9106 12.8307C22.1053 12.338 20.4847 12.2674 19.9287 12.2818H14.0625Z" fill="#484E58"/>
<path d="M27.5977 15.406C27.878 15.2206 27.8739 14.9217 27.5876 14.7395L23.867 12.3624C23.987 12.3021 24.1594 12.2379 24.3641 12.2301C24.6172 12.2196 24.8763 12.2989 25.1284 12.4627L27.5241 14.0926C27.5926 14.1398 27.7066 14.1418 27.7792 14.0966C27.8518 14.052 27.8548 13.9773 27.7852 13.9301L25.3865 12.2982C25.0548 12.0819 24.7008 11.9797 24.3389 11.9948C24.0102 12.0085 23.75 12.1167 23.5877 12.2071C23.3094 12.1049 22.9494 12.1324 22.7155 12.2871C22.5764 12.3788 22.5078 12.4988 22.5078 12.6174C22.5078 12.7393 22.5794 12.8612 22.7236 12.9536L26.5722 15.4119C26.8576 15.5941 27.3164 15.5915 27.5977 15.406Z" fill="#283139"/>
<path d="M14.0649 12.2823V11.6934H8.21759C8.13827 11.6909 5.84169 11.6406 4.58936 12.4067L0.734375 14.8693L1.36894 15.2891L5.2174 12.8307C6.02181 12.3387 7.64275 12.2678 8.19893 12.2823H14.0649Z" fill="#484E58"/>
<path d="M0.535463 15.4066C0.254617 15.2204 0.258337 14.9224 0.544762 14.7398L4.26552 12.3625C4.14648 12.302 3.97258 12.238 3.76892 12.2301C3.51411 12.2198 3.25651 12.299 3.00449 12.4628L0.608933 14.093C0.540116 14.1402 0.424802 14.142 0.353196 14.0967C0.280659 14.0519 0.277867 13.9776 0.346684 13.9305L2.74597 12.2984C3.07796 12.082 3.43134 11.9799 3.79403 11.995C4.12323 12.0089 4.38269 12.1171 4.54543 12.2071C4.82348 12.105 5.18244 12.1322 5.41772 12.2875C5.55629 12.3794 5.62511 12.4985 5.62511 12.6176C5.62511 12.7397 5.5535 12.8618 5.40936 12.9536L1.56027 15.412C1.27478 15.5939 0.816309 15.5915 0.535463 15.4066Z" fill="#283139"/>
<path d="M14.068 11.3121C15.539 11.3121 16.7298 12.0867 16.7298 13.0422C16.7298 13.9983 15.539 14.3594 14.068 14.3594C12.598 14.3594 11.4062 13.9983 11.4062 13.0422C11.4062 12.0867 12.598 11.3121 14.068 11.3121Z" fill="#5D636D"/>
<path d="M16.4297 13.0859C15.9133 12.8592 15.1262 12.861 14.3051 12.8628H13.8209C12.9997 12.861 12.2127 12.8592 11.6962 13.0859C11.6953 13.071 11.6953 13.0554 11.6953 13.0399C11.6953 12.1914 12.7576 11.5009 14.063 11.5009C15.3683 11.5009 16.4307 12.1914 16.4307 13.0399C16.4307 13.0554 16.4307 13.0704 16.4297 13.0859Z" fill="black"/>
<path d="M16.4299 13.0859C15.9139 12.8585 15.1269 12.8603 14.3051 12.8622H13.821C13.0002 12.8603 12.2131 12.8585 11.6962 13.0859C11.6953 13.0707 11.6953 13.0548 11.6953 13.0396C11.6953 12.1908 12.7582 11.5006 14.0631 11.5006C15.3689 11.5006 16.4308 12.1908 16.4308 13.0396C16.4308 13.0548 16.4308 13.0707 16.4299 13.0859Z" fill="url(#paint3_linear_428_37188)"/>
<path d="M14.0676 14.3594C15.2632 14.3594 16.2737 14.1201 16.6099 13.517C16.2737 13.0176 15.2632 13.0567 14.0676 13.0567C12.8711 13.0567 11.8597 13.0176 11.5234 13.517C11.8597 14.1201 12.8711 14.3594 14.0676 14.3594Z" fill="#929195"/>
<path d="M16.2813 13.5232C15.9046 14.0508 14.8774 14.1641 14.063 14.1641C13.2476 14.1641 12.2205 14.0508 11.8438 13.5232C12.1137 13.254 12.7847 13.2412 13.8184 13.2436H14.3067C15.3404 13.2412 16.0114 13.254 16.2813 13.5232Z" fill="#BEBBBC"/>
<path d="M14.0637 24.5977C11.6713 24.5977 9.69056 23.3183 9.35614 21.6518C9.32279 21.8159 9.30469 21.9831 9.30469 22.154C9.30469 24.0577 11.4351 25.6016 14.0637 25.6016C16.6914 25.6016 18.8218 24.0577 18.8218 22.154C18.8218 21.9831 18.8046 21.8159 18.7713 21.6518C18.4359 23.3183 16.4561 24.5977 14.0637 24.5977Z" fill="#151413"/>
<defs>
<linearGradient id="paint0_linear_428_37188" x1="19.3718" y1="24.2475" x2="19.3718" y2="37.0956" gradientUnits="userSpaceOnUse">
<stop stop-color="#747981"/>
<stop offset="1" stop-color="#2E373F"/>
</linearGradient>
<linearGradient id="paint1_linear_428_37188" x1="18.8586" y1="23.1751" x2="18.8586" y2="32.1826" gradientUnits="userSpaceOnUse">
<stop stop-color="#747981"/>
<stop offset="1" stop-color="#2E373F"/>
</linearGradient>
<linearGradient id="paint2_linear_428_37188" x1="19.0734" y1="6.37861" x2="19.0734" y2="9.23925" gradientUnits="userSpaceOnUse">
<stop stop-color="#2E363E"/>
<stop offset="1" stop-color="#151F24"/>
</linearGradient>
<linearGradient id="paint3_linear_428_37188" x1="16.9308" y1="10.9939" x2="16.9308" y2="9.87673" gradientUnits="userSpaceOnUse">
<stop stop-color="#6B717A"/>
<stop offset="1" stop-color="#5E636D"/>
</linearGradient>
</defs>
</svg>
