<svg width="25" height="25" viewBox="0 0 25 25" fill="none" xmlns="http://www.w3.org/2000/svg">
<path d="M20.2031 11.1367V20.2656C20.2031 20.8624 19.9661 21.4347 19.5441 21.8566C19.1222 22.2786 18.5499 22.5156 17.9531 22.5156H7.45312C6.85639 22.5156 6.28409 22.2786 5.86213 21.8566C5.44018 21.4347 5.20312 20.8624 5.20312 20.2656V5.26562C5.20312 4.66889 5.44018 4.09659 5.86213 3.67463C6.28409 3.25268 6.85639 3.01563 7.45312 3.01562H12.082C12.4797 3.01569 12.8611 3.17367 13.1423 3.45484L19.7639 10.0764C20.0451 10.3576 20.2031 10.739 20.2031 11.1367Z" stroke="#9C4900" stroke-width="1.5" stroke-linejoin="round"/>
<path d="M12.7031 3.39062V9.01562C12.7031 9.41345 12.8612 9.79498 13.1425 10.0763C13.4238 10.3576 13.8053 10.5156 14.2031 10.5156H19.8281" stroke="#9C4900" stroke-width="1.5" stroke-linecap="round" stroke-linejoin="round"/>
</svg>
