<svg width="21" height="17" viewBox="0 0 21 17" fill="none" xmlns="http://www.w3.org/2000/svg">
<path d="M14.6906 14.1411L9.07396 8.54114C9.00729 8.47448 8.96018 8.40226 8.93262 8.32448C8.90462 8.2467 8.89062 8.16337 8.89062 8.07448C8.89062 7.98559 8.90462 7.90226 8.93262 7.82448C8.96018 7.7467 9.00729 7.67448 9.07396 7.60781L14.6906 1.99115C14.8462 1.83559 15.0406 1.75781 15.274 1.75781C15.5073 1.75781 15.7073 1.84115 15.874 2.00781C16.0406 2.17448 16.124 2.36892 16.124 2.59115C16.124 2.81337 16.0406 3.00781 15.874 3.17448L10.974 8.07448L15.874 12.9745C16.0295 13.13 16.1073 13.3216 16.1073 13.5491C16.1073 13.7771 16.024 13.9745 15.8573 14.1411C15.6906 14.3078 15.4962 14.3911 15.274 14.3911C15.0517 14.3911 14.8573 14.3078 14.6906 14.1411Z" fill="#8F4300"/>
<path d="M10.2062 14.1411L4.58958 8.54114C4.52292 8.47448 4.47581 8.40226 4.44825 8.32448C4.42025 8.2467 4.40625 8.16337 4.40625 8.07448C4.40625 7.98559 4.42025 7.90226 4.44825 7.82448C4.47581 7.7467 4.52292 7.67448 4.58958 7.60781L10.2062 1.99115C10.3618 1.83559 10.5562 1.75781 10.7896 1.75781C11.0229 1.75781 11.2229 1.84115 11.3896 2.00781C11.5562 2.17448 11.6396 2.36892 11.6396 2.59115C11.6396 2.81337 11.5562 3.00781 11.3896 3.17448L6.48958 8.07448L11.3896 12.9745C11.5451 13.13 11.6229 13.3216 11.6229 13.5491C11.6229 13.7771 11.5396 13.9745 11.3729 14.1411C11.2062 14.3078 11.0118 14.3911 10.7896 14.3911C10.5674 14.3911 10.3729 14.3078 10.2062 14.1411Z" fill="#8F4300"/>
</svg>
