<svg width="8" height="5" viewBox="0 0 8 5" fill="none" xmlns="http://www.w3.org/2000/svg">
<path d="M0.500001 0.277083C0.622223 0.154861 0.777778 0.0937497 0.966667 0.0937497C1.15556 0.0937497 1.31111 0.154861 1.43333 0.277083L4.03333 2.87708L6.63333 0.277083C6.75556 0.154861 6.91111 0.09375 7.1 0.09375C7.28889 0.09375 7.44444 0.154861 7.56667 0.277083C7.68889 0.399305 7.75 0.554861 7.75 0.74375C7.75 0.932639 7.68889 1.08819 7.56667 1.21042L4.5 4.27708C4.43333 4.34375 4.36111 4.39108 4.28333 4.41908C4.20556 4.44664 4.12222 4.46042 4.03333 4.46042C3.94444 4.46042 3.86111 4.44664 3.78333 4.41908C3.70556 4.39108 3.63333 4.34375 3.56667 4.27708L0.500001 1.21042C0.377779 1.08819 0.316667 0.932638 0.316667 0.743749C0.316667 0.55486 0.377779 0.399305 0.500001 0.277083Z" fill="#9C4900"/>
</svg>
