<?xml version="1.0" standalone="no"?>
<!DOCTYPE svg PUBLIC "-//W3C//DTD SVG 20010904//EN"
 "http://www.w3.org/TR/2001/REC-SVG-20010904/DTD/svg10.dtd">
<svg version="1.0" xmlns="http://www.w3.org/2000/svg"
 width="225.000000pt" height="225.000000pt" viewBox="0 0 225.000000 225.000000"
 preserveAspectRatio="xMidYMid meet">

<g transform="translate(0.000000,225.000000) scale(0.100000,-0.100000)"
fill="#000000" stroke="none">
<path d="M671 1683 c-41 -20 -71 -65 -111 -168 -17 -44 -36 -84 -41 -90 -6 -5
-37 -11 -70 -11 -71 -2 -99 -21 -99 -70 0 -35 41 -94 65 -94 25 0 26 -19 4
-87 -18 -58 -23 -98 -27 -265 -5 -212 1 -295 23 -324 11 -16 30 -20 102 -22
119 -5 136 7 143 105 l5 68 460 0 460 0 5 -68 c7 -92 24 -107 124 -107 142 0
150 18 143 325 -5 187 -9 230 -28 290 -20 67 -21 70 -3 80 45 25 74 64 74 99
0 48 -28 66 -105 66 l-62 0 -42 103 c-23 57 -54 116 -68 131 -51 55 -57 56
-505 56 -363 0 -417 -2 -447 -17z m839 -58 c30 -15 42 -38 120 -224 28 -68 50
-133 48 -145 -2 -14 -13 -23 -33 -27 -53 -11 -1034 -10 -1056 1 -10 6 -19 20
-19 30 0 28 105 286 132 326 13 19 30 37 38 41 17 9 579 22 679 16 35 -2 76
-10 91 -18z m-906 -599 c60 -25 68 -103 14 -140 -33 -23 -75 -20 -103 9 -50
49 -23 123 53 144 1 1 18 -5 36 -13z m894 -53 l-3 -68 -370 0 -370 0 -3 68 -3
67 376 0 376 0 -3 -67z m240 34 c48 -44 11 -137 -55 -137 -90 0 -120 120 -39
156 36 15 62 10 94 -19z"/>
</g>
</svg>
