<svg width="25" height="24" viewBox="0 0 25 24" fill="none" xmlns="http://www.w3.org/2000/svg">
<g clip-path="url(#clip0_163_19213)">
<path d="M12.8554 0C6.23143 0 0.867432 5.376 0.867432 12C0.867432 18.624 6.23143 24 12.8554 24C19.4914 24 24.8674 18.624 24.8674 12C24.8674 5.376 19.4914 0 12.8554 0ZM21.1714 7.2H17.6314C17.2559 5.71375 16.6997 4.27908 15.9754 2.928C18.1644 3.6816 20.0088 5.19807 21.1714 7.2ZM12.8674 2.448C13.8634 3.888 14.6434 5.484 15.1594 7.2H10.5754C11.0914 5.484 11.8714 3.888 12.8674 2.448ZM3.57943 14.4C3.38743 13.632 3.26743 12.828 3.26743 12C3.26743 11.172 3.38743 10.368 3.57943 9.6H7.63543C7.53943 10.392 7.46743 11.184 7.46743 12C7.46743 12.816 7.53943 13.608 7.63543 14.4H3.57943ZM4.56343 16.8H8.10343C8.48743 18.3 9.03943 19.74 9.75943 21.072C7.56819 20.3225 5.72243 18.805 4.56343 16.8ZM8.10343 7.2H4.56343C5.72243 5.19501 7.56819 3.67748 9.75943 2.928C9.03514 4.27908 8.47901 5.71375 8.10343 7.2ZM12.8674 21.552C11.8714 20.112 11.0914 18.516 10.5754 16.8H15.1594C14.6434 18.516 13.8634 20.112 12.8674 21.552ZM15.6754 14.4H10.0594C9.95143 13.608 9.86743 12.816 9.86743 12C9.86743 11.184 9.95143 10.38 10.0594 9.6H15.6754C15.7834 10.38 15.8674 11.184 15.8674 12C15.8674 12.816 15.7834 13.608 15.6754 14.4ZM15.9754 21.072C16.6954 19.74 17.2474 18.3 17.6314 16.8H21.1714C20.0088 18.8019 18.1644 20.3184 15.9754 21.072ZM18.0994 14.4C18.1954 13.608 18.2674 12.816 18.2674 12C18.2674 11.184 18.1954 10.392 18.0994 9.6H22.1554C22.3474 10.368 22.4674 11.172 22.4674 12C22.4674 12.828 22.3474 13.632 22.1554 14.4H18.0994Z" fill="#9C4900"/>
</g>
<defs>
<clipPath id="clip0_163_19213">
<rect width="24" height="24" fill="white" transform="translate(0.867432)"/>
</clipPath>
</defs>
</svg>
