<svg width="21" height="21" viewBox="0 0 21 21" fill="none" xmlns="http://www.w3.org/2000/svg">
<path d="M2.03906 20.7594C1.48906 20.7594 1.01806 20.5634 0.626062 20.1714C0.234729 19.78 0.0390625 19.3094 0.0390625 18.7594V4.75937C0.0390625 4.20937 0.234729 3.73838 0.626062 3.34638C1.01806 2.95504 1.48906 2.75937 2.03906 2.75937H10.9641L8.96406 4.75937H2.03906V18.7594H16.0391V11.8094L18.0391 9.80937V18.7594C18.0391 19.3094 17.8434 19.78 17.4521 20.1714C17.0601 20.5634 16.5891 20.7594 16.0391 20.7594H2.03906ZM13.2141 3.33438L14.6391 4.73438L8.03906 11.3344V12.7594H9.43906L16.0641 6.13437L17.4891 7.53438L10.2891 14.7594H6.03906V10.5094L13.2141 3.33438ZM17.4891 7.53438L13.2141 3.33438L15.7141 0.834375C16.1141 0.434375 16.5934 0.234375 17.1521 0.234375C17.7101 0.234375 18.1807 0.434375 18.5641 0.834375L19.9641 2.25937C20.3474 2.64271 20.5391 3.10938 20.5391 3.65937C20.5391 4.20937 20.3474 4.67604 19.9641 5.05937L17.4891 7.53438Z" fill="#fff"/>
</svg>
