<svg width="41" height="41" viewBox="0 0 41 41" fill="none" xmlns="http://www.w3.org/2000/svg">
<g clip-path="url(#clip0_3049_56940)">
<path d="M39.25 16.2808C38.9185 16.2808 38.6005 16.4125 38.3661 16.6469C38.1317 16.8813 38 17.1992 38 17.5308V21.2808H35.5V18.7808C35.5 18.1177 35.2366 17.4818 34.7678 17.013C34.2989 16.5442 33.663 16.2808 33 16.2808H31.0172L25.5 10.7636C25.2687 10.5304 24.9934 10.3456 24.69 10.2198C24.3866 10.094 24.0612 10.0297 23.7328 10.0308H20.5V7.53076H24.25C24.5815 7.53076 24.8995 7.39907 25.1339 7.16464C25.3683 6.93022 25.5 6.61228 25.5 6.28076C25.5 5.94924 25.3683 5.6313 25.1339 5.39688C24.8995 5.16246 24.5815 5.03076 24.25 5.03076H14.25C13.9185 5.03076 13.6005 5.16246 13.3661 5.39688C13.1317 5.6313 13 5.94924 13 6.28076C13 6.61228 13.1317 6.93022 13.3661 7.16464C13.6005 7.39907 13.9185 7.53076 14.25 7.53076H18V10.0308H8C7.33696 10.0308 6.70107 10.2942 6.23223 10.763C5.76339 11.2318 5.5 11.8677 5.5 12.5308V21.2808H3V17.5308C3 17.1992 2.8683 16.8813 2.63388 16.6469C2.39946 16.4125 2.08152 16.2808 1.75 16.2808C1.41848 16.2808 1.10054 16.4125 0.866117 16.6469C0.631696 16.8813 0.5 17.1992 0.5 17.5308L0.5 27.5308C0.5 27.8623 0.631696 28.1802 0.866117 28.4146C1.10054 28.6491 1.41848 28.7808 1.75 28.7808C2.08152 28.7808 2.39946 28.6491 2.63388 28.4146C2.8683 28.1802 3 27.8623 3 27.5308V23.7808H5.5V27.0136C5.49895 27.342 5.56319 27.6674 5.689 27.9707C5.8148 28.2741 5.99966 28.5495 6.23281 28.7808L11.75 34.2979C11.9813 34.5311 12.2566 34.716 12.56 34.8418C12.8634 34.9676 13.1888 35.0318 13.5172 35.0308H23.7328C24.0612 35.0318 24.3866 34.9676 24.69 34.8418C24.9934 34.716 25.2687 34.5311 25.5 34.2979L31.0172 28.7808H33C33.663 28.7808 34.2989 28.5174 34.7678 28.0485C35.2366 27.5797 35.5 26.9438 35.5 26.2808V23.7808H38V27.5308C38 27.8623 38.1317 28.1802 38.3661 28.4146C38.6005 28.6491 38.9185 28.7808 39.25 28.7808C39.5815 28.7808 39.8995 28.6491 40.1339 28.4146C40.3683 28.1802 40.5 27.8623 40.5 27.5308V17.5308C40.5 17.1992 40.3683 16.8813 40.1339 16.6469C39.8995 16.4125 39.5815 16.2808 39.25 16.2808ZM33 26.2808H31.0172C30.6888 26.2797 30.3634 26.344 30.06 26.4698C29.7566 26.5956 29.4813 26.7804 29.25 27.0136L23.7328 32.5308H13.5172L8 27.0136V12.5308H23.7328L29.25 18.0479C29.4813 18.2811 29.7566 18.466 30.06 18.5918C30.3634 18.7176 30.6888 18.7818 31.0172 18.7808H33V26.2808Z" fill="white"/>
</g>
<defs>
<clipPath id="clip0_3049_56940">
<rect width="40" height="40" fill="white" transform="translate(0.5 0.0307617)"/>
</clipPath>
</defs>
</svg>
