<svg width="31" height="31" viewBox="0 0 31 31" fill="none" xmlns="http://www.w3.org/2000/svg">
<circle cx="15.5312" cy="15.2031" r="15" fill="#9C4900"/>
<path d="M14.6961 12.5391H16.3628V16.7057H14.6961V12.5391ZM14.6953 17.5391H16.362V19.2057H14.6953V17.5391Z" fill="#F6EFE9"/>
<path d="M17.0073 7.70531C16.7173 7.15948 16.1523 6.82031 15.534 6.82031C14.9156 6.82031 14.3506 7.15948 14.0606 7.70615L7.94564 19.2586C7.80995 19.5123 7.74273 19.797 7.75062 20.0846C7.75851 20.3722 7.84124 20.6528 7.99064 20.8986C8.13789 21.1456 8.34701 21.3499 8.59735 21.4914C8.84769 21.6329 9.1306 21.7066 9.41814 21.7053H21.6498C22.2398 21.7053 22.774 21.4036 23.0781 20.8986C23.2273 20.6527 23.3099 20.3721 23.3178 20.0846C23.3257 19.7971 23.2586 19.5124 23.1231 19.2586L17.0073 7.70531ZM9.41814 20.0386L15.534 8.48615L21.654 20.0386H9.41814Z" fill="#F6EFE9"/>
</svg>
