<svg width="25" height="24" viewBox="0 0 25 24" fill="none" xmlns="http://www.w3.org/2000/svg">
<path d="M22.7969 5L20.7969 9L18.7969 5M16.7969 5H14.7969V9H16.7969M14.7969 7H16.2969" stroke="#9C4900" stroke-opacity="0.5" stroke-width="1.5" stroke-linecap="round" stroke-linejoin="round"/>
<path d="M6.79688 9V19C6.79688 19.5304 7.00759 20.0391 7.38266 20.4142C7.75773 20.7893 8.26644 21 8.79688 21H17.7969C18.3273 21 18.836 20.7893 19.2111 20.4142C19.5862 20.0391 19.7969 19.5304 19.7969 19V14M4.79688 5V3M8.79688 5V3M9.79688 5.6V7C9.79688 7.53043 9.58616 8.03914 9.21109 8.41421C8.83602 8.78929 8.32731 9 7.79688 9H5.79688C5.26644 9 4.75773 8.78929 4.38266 8.41421C4.00759 8.03914 3.79688 7.53043 3.79688 7V5.6C3.79687 5.44087 3.86009 5.28826 3.97261 5.17574C4.08513 5.06321 4.23775 5 4.39687 5H9.19687C9.356 5 9.50862 5.06321 9.62114 5.17574C9.73366 5.28826 9.79688 5.44087 9.79688 5.6Z" stroke="#9C4900" stroke-opacity="0.5" stroke-width="1.5" stroke-linecap="round"/>
</svg>
