<svg width="18" height="16" viewBox="0 0 18 16" fill="none" xmlns="http://www.w3.org/2000/svg">
<path d="M13.942 13.807V14.759C13.938 14.8553 13.9141 14.9497 13.8719 15.0363C13.8297 15.1229 13.7701 15.1999 13.6968 15.2624C13.6235 15.3249 13.5381 15.3716 13.4459 15.3996C13.3537 15.4276 13.2567 15.4362 13.161 15.425H0.726989C0.636115 15.4356 0.544021 15.4258 0.457396 15.3964C0.370771 15.367 0.291792 15.3186 0.226195 15.2548C0.160598 15.191 0.110032 15.1135 0.0781688 15.0277C0.0463059 14.9419 0.0339468 14.8501 0.0419893 14.759V5.35901C0.0332467 5.26127 0.0441378 5.16277 0.0740218 5.0693C0.103906 4.97583 0.152179 4.88928 0.216003 4.81474C0.279827 4.7402 0.357912 4.67918 0.445665 4.63526C0.533419 4.59135 0.629069 4.56542 0.726989 4.55901H2.95499C3.15695 4.55901 3.35064 4.63924 3.49345 4.78205C3.63626 4.92486 3.71649 5.11855 3.71649 5.32051C3.71649 5.52247 3.63626 5.71616 3.49345 5.85897C3.35064 6.00178 3.15695 6.08201 2.95499 6.08201H1.56499V13.906H12.416V13.806C12.416 13.604 12.4962 13.4104 12.639 13.2675C12.7818 13.1247 12.9755 13.0445 13.1775 13.0445C13.3795 13.0445 13.5731 13.1247 13.716 13.2675C13.8588 13.4104 13.939 13.604 13.939 13.806L13.942 13.807ZM17.331 6.70701L12.61 11.523C12.5031 11.6315 12.3663 11.7057 12.217 11.7362C12.0678 11.7666 11.9129 11.7519 11.772 11.694C11.6266 11.6368 11.5018 11.5373 11.4135 11.4085C11.3253 11.2796 11.2777 11.1272 11.277 10.971V8.89501C9.75399 8.85701 6.09899 9.00901 4.76599 11.351C4.70048 11.4708 4.60426 11.571 4.48722 11.6413C4.37017 11.7116 4.23652 11.7495 4.09999 11.751C4.03607 11.7541 3.97204 11.7477 3.90999 11.732C3.74658 11.6881 3.60215 11.5917 3.49896 11.4576C3.39578 11.3235 3.33956 11.1592 3.33899 10.99C3.39623 9.02576 4.18139 7.15287 5.54199 5.73501C7.0757 4.24266 9.13204 3.409 11.272 3.41201V1.33701C11.2738 1.18647 11.3199 1.03978 11.4045 0.915284C11.4892 0.790787 11.6086 0.693997 11.748 0.637009C11.8918 0.578167 12.0498 0.563005 12.2022 0.593417C12.3547 0.623828 12.4947 0.698466 12.605 0.808009L17.345 5.62401C17.4836 5.77107 17.5594 5.9664 17.5562 6.16846C17.553 6.37052 17.4712 6.56338 17.328 6.70601L17.331 6.70701Z" fill="#9C4900"/>
</svg>
