<svg width="361" height="661" viewBox="0 0 361 661" fill="none" xmlns="http://www.w3.org/2000/svg">
<g filter="url(#filter0_d_3035_49313)">
<path d="M287.826 144.055C287.826 82.3864 284.37 57.0125 268.747 40.9952C253.124 24.9778 190.857 13.7362 164.505 13.7362C138.15 13.7362 75.8861 24.9778 60.263 40.9952C44.6399 57.0125 41.1839 79.2676 41.1839 144.055C41.1839 232.794 30.677 565.024 57.5908 587.326C84.5013 609.63 137.426 610.523 164.505 610.523C191.581 610.523 244.506 609.63 271.42 587.326C298.333 565.024 287.826 232.794 287.826 144.055Z" fill="#ABABAB" fill-opacity="0.5"/>
<path d="M277.209 158.041C277.209 98.3435 274.051 76.2771 259.771 61.6356C245.49 46.994 188.577 40.9979 164.487 40.9979C140.398 40.9979 83.4848 46.994 69.2044 61.6356C54.9241 76.2771 51.7656 91.7454 51.7656 158.041C51.7656 171.839 53.3266 192.609 57.4011 213.095C65.0175 230.475 69.1118 259.212 71.9593 287.199C68.705 291.759 66.7902 300.762 66.7902 310.287C62.4842 323.298 65.6988 350.788 66.7902 367.755C66.8497 368.684 66.7307 371.635 66.7902 372.561C66.7902 372.561 64.2172 431.147 66.7902 457.01C67.4119 463.267 68.834 471.926 69.9221 473.871C70.8183 481.815 60.0964 514.967 61.2109 521.07C63.4532 533.32 63.3143 561.287 66.7604 564.141C91.3592 584.527 139.737 585.341 164.487 585.341C189.238 585.341 237.612 584.527 262.215 564.141C265.661 561.287 265.522 533.32 267.761 521.07C268.879 514.967 258.157 481.815 259.053 473.871C260.73 469.28 261.563 463.267 262.185 457.01C264.758 431.147 262.185 372.561 262.185 372.561C262.244 371.635 262.125 368.684 262.185 367.755C263.276 350.788 266.491 323.298 262.185 310.287C262.185 300.762 260.27 291.759 257.016 287.199C259.86 259.212 263.954 230.475 271.574 213.095C275.648 192.609 277.209 171.839 277.209 158.041Z" fill="#C4C4C4"/>
<path d="M66.825 367.756V307.427L50.418 218.999C47.1406 250.726 46.8959 312.309 47.5275 367.756H66.825Z" fill="#262A35"/>
<path d="M47.5469 372.557C48.2612 430.551 49.8785 480.581 49.8785 480.581L66.7881 457.006V372.557H47.5469Z" fill="#262A35"/>
<path d="M164.532 180.442C164.532 180.442 102.945 179.654 57.4453 213.095L72.0035 287.199C72.0035 287.199 97.0422 265.807 164.532 265.807C232.021 265.807 257.06 287.199 257.06 287.199L271.618 213.095C226.118 179.654 164.532 180.442 164.532 180.442Z" fill="#262A35"/>
<path d="M262.227 367.756V307.427L278.634 218.999C281.908 250.726 282.152 312.309 281.524 367.756H262.227Z" fill="#353F4B"/>
<path d="M281.468 372.557C280.75 430.551 279.136 480.581 279.136 480.581L262.227 457.006V372.557H281.468Z" fill="#353F4B"/>
<path d="M259.073 473.88C236.121 480.17 92.8905 480.17 69.942 473.88C69.942 473.88 59.1341 502.442 61.2308 521.079C76.768 530.551 109.674 542.583 164.507 542.583C219.34 542.583 252.243 530.551 267.781 521.079C269.881 502.442 259.073 473.88 259.073 473.88Z" fill="#262A35"/>
<path d="M44.6874 235.634L19.1262 241.941C16.8145 242.514 14.6318 240.513 15.0121 238.105C15.7562 233.422 18.4516 226.701 27.5431 224.105C42.1079 219.948 44.6874 235.634 44.6874 235.634Z" fill="#C4C4C4"/>
<path d="M284.312 235.634L309.874 241.941C312.185 242.513 314.368 240.512 313.988 238.104C313.244 233.421 310.548 226.701 301.454 224.104C286.892 219.947 284.312 235.634 284.312 235.634Z" fill="#C4C4C4"/>
<path d="M257.02 287.199L271.579 213.095C226.078 179.654 164.492 180.442 164.492 180.442V265.807C231.982 265.807 257.02 287.199 257.02 287.199Z" fill="#353F4B"/>
<path d="M259.058 473.879C258.28 474.091 257.444 474.276 256.564 474.448C256.329 474.494 256.025 474.537 255.777 474.58C255.261 474.673 254.755 474.769 254.206 474.848C238.454 477.345 201.503 478.595 164.492 478.595V542.582C219.325 542.582 252.228 530.55 267.765 521.078C269.865 502.441 259.058 473.879 259.058 473.879Z" fill="#353F4B"/>
<path d="M190.162 603.323C173.074 604.689 155.949 604.689 138.858 603.323C136.473 603.132 134.181 605.916 133.672 609.667C145.389 610.434 156.177 610.523 164.511 610.523C172.842 610.523 183.633 610.434 195.351 609.667C194.838 605.916 192.55 603.132 190.162 603.323Z" fill="#262A35"/>
<path d="M102.097 603.141C102.103 603.108 102.11 603.078 102.116 603.045C102.672 600.462 101.095 597.936 98.5811 597.324C91.1102 595.508 83.6922 593.378 76.3436 590.934C73.8897 590.12 71.2572 591.437 70.4204 593.94C70.4105 593.97 70.4007 594 70.3907 594.033C70.2386 594.486 70.2353 594.942 70.2188 595.399C79.3466 600.016 89.8799 603.224 100.78 605.453C101.392 604.818 101.898 604.071 102.097 603.141Z" fill="#C4C4C4"/>
<path d="M258.642 593.94C257.809 591.437 255.176 590.12 252.719 590.934C245.374 593.378 237.956 595.508 230.482 597.324C227.971 597.936 226.394 600.462 226.946 603.045C226.953 603.078 226.963 603.108 226.969 603.141C227.168 604.071 227.674 604.818 228.282 605.453C239.186 603.224 249.719 600.016 258.847 595.399C258.827 594.942 258.824 594.486 258.675 594.033C258.665 594 258.652 593.97 258.642 593.94Z" fill="#C4C4C4"/>
<path d="M223.522 27.672C226.713 28.3632 229.947 26.3358 230.711 23.1641C230.718 23.1377 230.725 23.1079 230.731 23.0814C231.029 21.8346 230.295 20.5613 229.054 20.2339C206.033 14.1583 179.463 10.5234 164.485 10.5234C149.507 10.5234 122.937 14.1583 99.9158 20.2339C98.6756 20.5613 97.9381 21.8345 98.239 23.0847C98.2456 23.1111 98.2523 23.141 98.2622 23.1707C99.0228 26.3392 102.261 28.3632 105.445 27.672C124.812 23.4551 144.778 19.1854 164.485 19.1688C184.365 19.149 203.986 23.4187 223.522 27.672Z" fill="#262A35"/>
<path d="M208.031 140.166C207.532 142.649 205.207 144.478 202.561 144.478H126.45C123.804 144.478 121.479 142.649 120.98 140.166L111.055 90.8599L119.29 146.109C119.696 148.837 122.038 150.858 124.796 150.858H204.211C206.969 150.858 209.314 148.837 209.721 146.109L217.953 90.8599L208.031 140.166Z" fill="#ABABAB" fill-opacity="0.5"/>
<path d="M65.089 41.7883C63.8488 42.2844 62.6119 42.7804 61.375 43.2798C71.0518 39.3838 80.7451 35.5109 90.4517 31.6612C92.5848 30.8145 93.6299 28.4002 92.7799 26.2703C92.77 26.2439 92.7601 26.2207 92.7502 26.1942C92.6575 25.9594 92.4823 25.794 92.3533 25.5856C80.4409 29.1575 70.063 33.4041 63.6206 38.1402C64.11 39.3573 64.5995 40.5712 65.089 41.7883Z" fill="white"/>
<path d="M61.3494 43.2749C62.5863 42.7755 63.8232 42.2795 65.0634 41.7834C64.5739 40.5663 64.0845 39.3524 63.595 38.1353C62.3251 39.0713 61.2006 40.0239 60.2548 40.9929C59.5404 41.7238 58.8757 42.4878 58.2109 43.2518C59.1799 43.652 60.3011 43.6983 61.3494 43.2749Z" fill="#C4C4C4"/>
<path d="M239.008 30.8666C248.51 35.1959 257.998 39.5484 267.466 43.9207C266.256 43.3617 265.046 42.8028 263.835 42.2471C264.437 40.9374 265.042 39.6311 265.644 38.3247C259.258 33.5423 248.86 29.2559 236.885 25.6509C236.131 27.6717 237.011 29.9537 239.008 30.8666Z" fill="white"/>
<path d="M265.614 38.3249C265.012 39.6313 264.407 40.9376 263.805 42.2473C265.015 42.803 266.226 43.3619 267.436 43.9209C268.686 44.4963 270.039 44.3376 271.157 43.7192C270.376 42.7865 269.576 41.8736 268.726 41.0005C267.839 40.091 266.784 39.2013 265.614 38.3249Z" fill="#C4C4C4"/>
<path d="M39.1599 357.072H39.1136C37.9131 357.072 36.9375 356.096 36.9375 354.896V341.931C36.9375 340.727 37.9131 339.755 39.1136 339.755H39.1599C40.3604 339.755 41.3361 340.727 41.3361 341.931V354.896C41.3361 356.096 40.3604 357.072 39.1599 357.072Z" fill="#262A35"/>
<path d="M39.1599 405.267H39.1136C37.9131 405.267 36.9375 404.295 36.9375 403.091V390.126C36.9375 388.926 37.9131 387.95 39.1136 387.95H39.1599C40.3604 387.95 41.3361 388.926 41.3361 390.126V403.091C41.3361 404.295 40.3604 405.267 39.1599 405.267Z" fill="#262A35"/>
<path d="M289.868 357.072H289.825C288.621 357.072 287.648 356.096 287.648 354.896V341.931C287.648 340.727 288.621 339.755 289.825 339.755H289.868C291.071 339.755 292.044 340.727 292.044 341.931V354.896C292.044 356.096 291.071 357.072 289.868 357.072Z" fill="#262A35"/>
<path d="M289.868 405.267H289.825C288.621 405.267 287.648 404.295 287.648 403.091V390.126C287.648 388.926 288.621 387.95 289.825 387.95H289.868C291.071 387.95 292.044 388.926 292.044 390.126V403.091C292.044 404.295 291.071 405.267 289.868 405.267Z" fill="#262A35"/>
</g>
<defs>
<filter id="filter0_d_3035_49313" x="0.96875" y="0.523438" width="359.062" height="660" filterUnits="userSpaceOnUse" color-interpolation-filters="sRGB">
<feFlood flood-opacity="0" result="BackgroundImageFix"/>
<feColorMatrix in="SourceAlpha" type="matrix" values="0 0 0 0 0 0 0 0 0 0 0 0 0 0 0 0 0 0 127 0" result="hardAlpha"/>
<feOffset dx="16" dy="20"/>
<feGaussianBlur stdDeviation="15"/>
<feComposite in2="hardAlpha" operator="out"/>
<feColorMatrix type="matrix" values="0 0 0 0 0 0 0 0 0 0 0 0 0 0 0 0 0 0 0.6 0"/>
<feBlend mode="normal" in2="BackgroundImageFix" result="effect1_dropShadow_3035_49313"/>
<feBlend mode="normal" in="SourceGraphic" in2="effect1_dropShadow_3035_49313" result="shape"/>
</filter>
</defs>
</svg>
