<svg width="54" height="54" viewBox="0 0 54 54" fill="none" xmlns="http://www.w3.org/2000/svg">
<path d="M27.015 7.23828C28.0759 7.23828 29.0933 7.65971 29.8434 8.40985C30.5936 9.16 31.015 10.1774 31.015 11.2383C31.015 13.4583 29.235 15.2383 27.015 15.2383C25.9541 15.2383 24.9367 14.8169 24.1866 14.0667C23.4364 13.3166 23.015 12.2991 23.015 11.2383C23.015 10.1774 23.4364 9.16 24.1866 8.40985C24.9367 7.65971 25.9541 7.23828 27.015 7.23828ZM27.795 32.8183C30.636 32.8072 33.4749 32.9742 36.295 33.3183C36.415 27.8783 35.935 23.0783 35.015 21.2383C34.755 20.6983 34.395 20.2383 34.015 19.8383L17.875 33.6783C20.595 33.2383 24.015 32.8183 27.795 32.8183ZM17.935 37.2383C18.195 40.7183 18.715 44.2383 19.555 47.2383H23.695C23.115 45.4783 22.695 43.4183 22.375 41.2383C22.375 41.2383 27.015 40.3583 31.655 41.2383C31.335 43.4183 30.915 45.4783 30.335 47.2383H34.475C35.355 44.1383 35.875 40.4583 36.135 36.8183C33.3676 36.4837 30.5825 36.3167 27.795 36.3183C23.935 36.3183 20.575 36.7383 17.935 37.2383ZM27.015 17.2383C27.015 17.2383 21.015 17.2383 19.015 21.2383C18.335 22.5983 17.895 25.5383 17.755 29.1583L30.855 17.9183C28.875 17.2383 27.015 17.2383 27.015 17.2383ZM40.155 14.5783L37.875 11.9183L30.855 17.9383C31.955 18.3183 33.115 18.9183 34.015 19.8383L40.155 14.5783ZM44.355 34.8983C44.175 34.8383 41.295 33.8983 36.295 33.3183C36.275 34.4583 36.215 35.6383 36.135 36.8183C40.635 37.3783 43.215 38.2383 43.255 38.2383L44.355 34.8983ZM17.755 29.1583L9.875 35.9183L11.655 38.8783C11.695 38.8583 14.015 37.9583 17.935 37.2383C17.715 34.4183 17.655 31.6383 17.755 29.1583Z" fill="#8F4300" fill-opacity="0.5"/>
<path d="M2.78906 50.9688L50.7278 3.02999" stroke="#8F4300" stroke-width="5" stroke-linecap="round"/>
</svg>
