<svg width="49" height="49" viewBox="0 0 49 49" fill="none" xmlns="http://www.w3.org/2000/svg">
<g clip-path="url(#clip0_2136_2521)">
<path d="M9.9375 7.73828C9.9375 7.34046 10.0955 6.95893 10.3768 6.67762C10.6581 6.39632 11.0397 6.23828 11.4375 6.23828H26.4375C26.8353 6.23828 27.2169 6.39632 27.4982 6.67762C27.7795 6.95893 27.9375 7.34046 27.9375 7.73828V22.7383C27.9375 23.1361 27.7795 23.5176 27.4982 23.7989C27.2169 24.0802 26.8353 24.2383 26.4375 24.2383H11.4375C11.0397 24.2383 10.6581 24.0802 10.3768 23.7989C10.0955 23.5176 9.9375 23.1361 9.9375 22.7383V7.73828Z" fill="#9C4900"/>
<path d="M3.9375 6.23828C3.9375 4.64698 4.56964 3.12086 5.69486 1.99564C6.82008 0.870422 8.3462 0.238281 9.9375 0.238281L27.9375 0.238281C29.5288 0.238281 31.0549 0.870422 32.1801 1.99564C33.3054 3.12086 33.9375 4.64698 33.9375 6.23828V30.2383C35.5288 30.2383 37.0549 30.8704 38.1801 31.9956C39.3054 33.1209 39.9375 34.647 39.9375 36.2383V37.7383C39.9375 38.1361 40.0955 38.5176 40.3768 38.7989C40.6581 39.0802 41.0397 39.2383 41.4375 39.2383C41.8353 39.2383 42.2169 39.0802 42.4982 38.7989C42.7795 38.5176 42.9375 38.1361 42.9375 37.7383V24.2383H41.4375C41.0397 24.2383 40.6581 24.0802 40.3768 23.7989C40.0955 23.5176 39.9375 23.1361 39.9375 22.7383V13.3633C39.9375 12.9655 40.0955 12.5839 40.3768 12.3026C40.6581 12.0213 41.0397 11.8633 41.4375 11.8633H45.9225C45.8895 10.4353 45.7635 9.18128 45.3195 8.19728C45.0818 7.62513 44.6677 7.14378 44.1375 6.82328C43.5855 6.49328 42.7455 6.23828 41.4375 6.23828C41.0397 6.23828 40.6581 6.08025 40.3768 5.79894C40.0955 5.51764 39.9375 5.13611 39.9375 4.73828C39.9375 4.34046 40.0955 3.95893 40.3768 3.67762C40.6581 3.39632 41.0397 3.23828 41.4375 3.23828C43.1295 3.23828 44.5395 3.56828 45.6735 4.24628C46.8225 4.93028 47.5755 5.89928 48.0555 6.96728C48.9405 8.93228 48.9375 11.3623 48.9375 13.2103V22.7353C48.9379 22.9325 48.8994 23.1279 48.8242 23.3102C48.749 23.4926 48.6385 23.6583 48.4992 23.7979C48.3599 23.9375 48.1944 24.0482 48.0122 24.1238C47.83 24.1994 47.6347 24.2383 47.4375 24.2383H45.9375V37.7383C45.9375 38.9318 45.4634 40.0763 44.6195 40.9203C43.7756 41.7642 42.631 42.2383 41.4375 42.2383C40.244 42.2383 39.0994 41.7642 38.2555 40.9203C37.4116 40.0763 36.9375 38.9318 36.9375 37.7383V36.2383C36.9375 35.4426 36.6214 34.6796 36.0588 34.117C35.4962 33.5544 34.7332 33.2383 33.9375 33.2383V45.2383H35.4375C35.8353 45.2383 36.2169 45.3963 36.4982 45.6776C36.7795 45.9589 36.9375 46.3405 36.9375 46.7383C36.9375 47.1361 36.7795 47.5176 36.4982 47.7989C36.2169 48.0802 35.8353 48.2383 35.4375 48.2383H2.4375C2.03968 48.2383 1.65814 48.0802 1.37684 47.7989C1.09554 47.5176 0.9375 47.1361 0.9375 46.7383C0.9375 46.3405 1.09554 45.9589 1.37684 45.6776C1.65814 45.3963 2.03968 45.2383 2.4375 45.2383H3.9375V6.23828ZM30.9375 6.23828C30.9375 5.44263 30.6214 4.67957 30.0588 4.11696C29.4962 3.55435 28.7331 3.23828 27.9375 3.23828H9.9375C9.14185 3.23828 8.37879 3.55435 7.81618 4.11696C7.25357 4.67957 6.9375 5.44263 6.9375 6.23828V45.2383H30.9375V6.23828Z" fill="#9C4900"/>
</g>
<defs>
<clipPath id="clip0_2136_2521">
<rect width="48" height="48" fill="white" transform="translate(0.9375 0.238281)"/>
</clipPath>
</defs>
</svg>
