<svg width="49" height="49" viewBox="0 0 49 49" fill="none" xmlns="http://www.w3.org/2000/svg">
<g clip-path="url(#clip0_2136_3039)">
<path d="M24.9375 20.2383H30.9375V16.2383H24.9375V14.2383C24.9375 13.0383 24.1375 12.2383 22.9375 12.2383C21.7375 12.2383 20.9375 13.0383 20.9375 14.2383V34.8383C19.7375 35.4383 18.9375 36.8383 18.9375 38.2383C18.9375 40.4383 20.7375 42.2383 22.9375 42.2383C25.1375 42.2383 26.9375 40.4383 26.9375 38.2383C26.9375 36.8383 26.1375 35.4383 24.9375 34.8383V28.2383H30.9375V24.2383H24.9375V20.2383ZM48.9375 24.2383C48.9375 30.8583 46.2575 36.8583 41.9375 41.2383L39.7775 39.0783C43.5775 35.2383 45.9375 30.0383 45.9375 24.2383C45.9375 18.4583 43.5775 13.2383 39.7775 9.39828L41.9375 7.23828C46.2575 11.6183 48.9375 17.6183 48.9375 24.2383ZM3.9375 24.2383C3.9375 30.0383 6.2975 35.2383 10.0975 39.0783L7.9375 41.2383C3.6175 36.8583 0.9375 30.8583 0.9375 24.2383C0.9375 17.6183 3.6175 11.6183 7.9375 7.23828L10.0975 9.39828C6.2975 13.2383 3.9375 18.4583 3.9375 24.2383ZM42.9375 24.2383C42.9375 31.2983 38.8575 37.3983 32.9375 40.3383V35.7183C34.7871 34.4283 36.2983 32.7113 37.3428 30.7128C38.3873 28.7143 38.9344 26.4933 38.9375 24.2383C38.9375 16.5183 32.6575 10.2383 24.9375 10.2383C17.2175 10.2383 10.9375 16.5183 10.9375 24.2383C10.9406 26.4933 11.4877 28.7143 12.5322 30.7128C13.5767 32.7113 15.0879 34.4283 16.9375 35.7183V40.3383C11.0175 37.3983 6.9375 31.2983 6.9375 24.2383C6.9375 19.4644 8.83392 14.886 12.2096 11.5104C15.5852 8.1347 20.1636 6.23828 24.9375 6.23828C29.7114 6.23828 34.2898 8.1347 37.6654 11.5104C41.0411 14.886 42.9375 19.4644 42.9375 24.2383Z" fill="#8F4300" fill-opacity="0.5"/>
</g>
<defs>
<clipPath id="clip0_2136_3039">
<rect width="48" height="48" fill="white" transform="translate(0.9375 0.238281)"/>
</clipPath>
</defs>
</svg>
