<svg width="54" height="54" viewBox="0 0 54 54" fill="none" xmlns="http://www.w3.org/2000/svg">
<path d="M21.3906 15.9883C15.6556 15.9883 10.9229 20.2852 10.2285 25.832H4.51562V28.6445H10.2286C10.9229 34.1913 15.6555 38.4883 21.3906 38.4883H22.7969C23.5759 38.4883 24.2031 37.8611 24.2031 37.082V34.2695H28.4219V31.457H24.2031V23.0195H28.4219V20.207H24.2031V17.3945C24.2031 16.6155 23.5759 15.9883 22.7969 15.9883H21.3906ZM41.0781 15.9883C40.2991 15.9883 39.6719 16.6155 39.6719 17.3945V20.207H42.4844V23.0195H39.6719V31.457H42.4844V34.2695H39.6719V37.082C39.6719 37.8611 40.2991 38.4883 41.0781 38.4883H49.5156V15.9883H41.0781Z" fill="#8F4300" fill-opacity="0.5"/>
<path d="M2.78906 50.9688L50.7278 3.02999" stroke="#8F4300" stroke-width="5" stroke-linecap="round"/>
</svg>
