<svg width="49" height="49" viewBox="0 0 49 49" fill="none" xmlns="http://www.w3.org/2000/svg">
<path d="M5.28054 36.0743C5.4194 36.6775 5.71442 37.2335 6.13601 37.6867C6.5576 38.1399 7.09094 38.4743 7.68254 38.6563L8.04254 40.2383H8.01254V44.2383H40.0125V40.2383H13.3785C13.4048 40.0535 13.4001 39.8656 13.3645 39.6823L12.9725 37.9563L33.6865 33.2443L34.0785 34.9703C34.183 35.4282 34.4649 35.8259 34.8624 36.076C35.26 36.3262 35.7405 36.4083 36.1985 36.3043L37.9245 35.9103C38.1514 35.8588 38.3659 35.7631 38.5558 35.6287C38.7456 35.4943 38.9071 35.3237 39.031 35.1268C39.1549 34.9299 39.2388 34.7105 39.2778 34.4812C39.3169 34.2519 39.3103 34.0171 39.2585 33.7903L38.7565 31.5843C39.6485 30.7523 40.0965 29.4923 39.8065 28.2183L38.6265 23.0383C38.4834 22.4142 38.1727 21.841 37.7279 21.3804C37.2832 20.9198 36.7212 20.5892 36.1025 20.4243L32.0045 13.6683C31.4002 12.6757 30.4995 11.8979 29.4294 11.4446C28.3593 10.9914 27.174 10.8857 26.0405 11.1423L10.3045 14.7223C9.16991 14.9793 8.14503 15.5871 7.37534 16.4595C6.60564 17.3319 6.13022 18.4245 6.01654 19.5823L5.24254 27.4463C4.75708 27.8631 4.39442 28.4044 4.19356 29.0119C3.99269 29.6194 3.96123 30.2702 4.10254 30.8943L5.28054 36.0743ZM11.3205 34.6983C10.9805 34.7758 10.6286 34.7855 10.2849 34.727C9.9411 34.6685 9.61223 34.5428 9.31703 34.3572C9.02184 34.1715 8.76609 33.9296 8.5644 33.6451C8.36271 33.3607 8.21902 33.0393 8.14154 32.6993C8.06406 32.3593 8.05431 32.0074 8.11283 31.6636C8.17136 31.3198 8.29702 30.991 8.48265 30.6958C8.66827 30.4006 8.91022 30.1448 9.19468 29.9431C9.47915 29.7414 9.80055 29.5978 10.1405 29.5203C10.8272 29.3638 11.5479 29.4865 12.144 29.8614C12.7402 30.2363 13.1631 30.8326 13.3195 31.5193C13.476 32.2059 13.3533 32.9266 12.9784 33.5228C12.6035 34.119 12.0072 34.5418 11.3205 34.6983ZM33.7645 29.5943C33.4187 29.6893 33.0573 29.7134 32.7019 29.6649C32.3466 29.6165 32.0047 29.4966 31.6969 29.3125C31.3892 29.1284 31.1219 28.8838 30.9112 28.5936C30.7005 28.3034 30.5508 27.9735 30.4711 27.6238C30.3913 27.2742 30.3832 26.912 30.4472 26.5591C30.5112 26.2063 30.6461 25.87 30.8436 25.5707C31.0411 25.2713 31.2971 25.015 31.5963 24.8173C31.8956 24.6196 32.2317 24.4846 32.5845 24.4203C33.2576 24.2977 33.9521 24.4395 34.5232 24.8163C35.0943 25.193 35.4979 25.7757 35.6501 26.4427C35.8022 27.1098 35.6911 27.8098 35.3398 28.3969C34.9885 28.984 34.4242 29.4129 33.7645 29.5943ZM11.1905 18.6223L26.9285 15.0403C27.2439 14.969 27.5736 14.9984 27.8714 15.1244C28.1692 15.2503 28.42 15.4664 28.5885 15.7423L31.7585 20.9683L30.6265 21.2263L10.5345 25.8003L9.39854 26.0583L9.99654 19.9743C10.0287 19.6522 10.1613 19.3484 10.3756 19.1058C10.5898 18.8632 10.8749 18.694 11.1905 18.6223ZM36.8225 8.23828L34.0125 4.23828L33.0125 10.2383L38.0125 18.2383L44.0125 20.2383L40.0125 15.1603L44.0125 13.2943L40.0125 11.4283L44.0125 4.23828L36.8225 8.23828Z" fill="#9C4900"/>
</svg>
