<svg width="49" height="49" viewBox="0 0 49 49" fill="none" xmlns="http://www.w3.org/2000/svg">
<path d="M22.0156 32.2383C22.0156 33.6583 22.3156 35.0183 22.8556 36.2383H12.0156V38.2383C12.0156 39.3383 11.1156 40.2383 10.0156 40.2383H8.01562C6.91562 40.2383 6.01562 39.3383 6.01562 38.2383V22.2383L10.1756 10.2383C10.5756 9.07828 11.6956 8.23828 13.0156 8.23828H35.0156C36.3356 8.23828 37.4556 9.07828 37.8556 10.2383L42.0156 22.2383V32.2383C42.0156 26.7183 37.5356 22.2383 32.0156 22.2383C26.4956 22.2383 22.0156 26.7183 22.0156 32.2383ZM16.0156 27.2383C16.0156 25.5783 14.6756 24.2383 13.0156 24.2383C11.3556 24.2383 10.0156 25.5783 10.0156 27.2383C10.0156 28.8983 11.3556 30.2383 13.0156 30.2383C14.6756 30.2383 16.0156 28.8983 16.0156 27.2383ZM38.0156 20.2383L35.0156 11.2383H13.0156L10.0156 20.2383H38.0156Z" fill="#9C4900"/>
<path d="M26.4526 37.8013C25.8449 37.1936 25.3687 36.4913 25.024 35.6945C24.6793 34.8976 24.5073 34.0738 24.5078 33.2229C24.5078 32.372 24.6699 31.5314 24.994 30.7011C25.3182 29.8708 25.8449 29.0907 26.5742 28.3608C27.0469 27.8881 27.6311 27.483 28.327 27.1453C29.0228 26.8077 29.8466 26.5408 30.7985 26.3447C31.7504 26.1491 32.8376 26.0311 34.0601 25.9906C35.2827 25.9501 36.65 25.9973 38.1621 26.1324C38.2702 27.564 38.3039 28.8808 38.2634 30.0828C38.2229 31.2848 38.1113 32.3688 37.9287 33.3347C37.7467 34.3001 37.4901 35.144 37.1589 35.8662C36.8277 36.5885 36.4193 37.1931 35.9337 37.6798C35.2179 38.3956 34.458 38.9191 33.6542 39.2502C32.8503 39.5814 32.03 39.7467 31.1932 39.7462C30.3153 39.7462 29.4577 39.5738 28.6203 39.2292C27.783 38.8845 27.0604 38.4086 26.4526 37.8013ZM28.7216 37.4772C29.1133 37.7068 29.5152 37.8724 29.9274 37.974C30.3396 38.0755 30.7615 38.126 31.1932 38.1255C31.8144 38.1255 32.4289 38.0004 33.0367 37.7503C33.6444 37.5002 34.2252 37.0985 34.7789 36.5453C35.022 36.3022 35.2686 35.9611 35.5188 35.5219C35.7689 35.0826 35.985 34.5089 36.167 33.8007C36.3491 33.0914 36.4874 32.2337 36.5819 31.2278C36.6765 30.2219 36.69 29.0232 36.6225 27.6315C35.9607 27.6045 35.2146 27.5945 34.3843 27.6016C33.554 27.6086 32.7266 27.6726 31.9022 27.7936C31.0784 27.9152 30.295 28.111 29.5522 28.3811C28.8094 28.6512 28.2016 29.0226 27.7289 29.4953C27.1212 30.1031 26.7025 30.7041 26.4729 31.2983C26.2433 31.8926 26.1285 32.4666 26.1285 33.0203C26.1285 33.8172 26.2806 34.5162 26.5847 35.1175C26.8889 35.7188 27.1555 36.1407 27.3845 36.3832C27.9518 35.3028 28.7013 34.2661 29.6332 33.2731C30.5651 32.2802 31.6523 31.4666 32.8949 30.8324C31.9225 31.6833 31.0751 32.6457 30.3528 33.7196C29.6305 34.7936 29.0868 36.0461 28.7216 37.4772Z" fill="#9C4900"/>
</svg>
