<svg width="54" height="54" viewBox="0 0 54 54" fill="none" xmlns="http://www.w3.org/2000/svg">
<path d="M30.9375 17.2383V21.2383H28.9375V33.2383H30.9375V37.2383H22.9375V33.2383H24.9375V21.2383H22.9375V17.2383H30.9375ZM26.9375 7.23828C29.5639 7.23828 32.1647 7.7556 34.5912 8.76069C37.0177 9.76578 39.2225 11.239 41.0796 13.0961C42.9368 14.9533 44.41 17.1581 45.4151 19.5846C46.4202 22.0111 46.9375 24.6118 46.9375 27.2383C46.9375 32.5426 44.8304 37.6297 41.0796 41.3804C37.3289 45.1311 32.2418 47.2383 26.9375 47.2383C24.3111 47.2383 21.7103 46.721 19.2838 45.7159C16.8573 44.7108 14.6525 43.2376 12.7954 41.3804C9.04464 37.6297 6.9375 32.5426 6.9375 27.2383C6.9375 21.934 9.04464 16.8469 12.7954 13.0961C16.5461 9.34542 21.6332 7.23828 26.9375 7.23828ZM26.9375 11.2383C22.694 11.2383 18.6244 12.924 15.6238 15.9246C12.6232 18.9252 10.9375 22.9948 10.9375 27.2383C10.9375 31.4817 12.6232 35.5514 15.6238 38.552C18.6244 41.5526 22.694 43.2383 26.9375 43.2383C31.181 43.2383 35.2506 41.5526 38.2512 38.552C41.2518 35.5514 42.9375 31.4817 42.9375 27.2383C42.9375 22.9948 41.2518 18.9252 38.2512 15.9246C35.2506 12.924 31.181 11.2383 26.9375 11.2383Z" fill="#8F4300" fill-opacity="0.5"/>
<path d="M2.78906 50.9688L50.7278 3.02999" stroke="#8F4300" stroke-width="5" stroke-linecap="round"/>
</svg>
