<svg width="49" height="49" viewBox="0 0 49 49" fill="none" xmlns="http://www.w3.org/2000/svg">
<path d="M7.52437 7.98828L5.66438 9.84828L18.1012 22.992V28.4858H25.4137V23.7139L7.52437 7.98828ZM5.14313 11.7514V19.2795L5.51906 19.5327C6.50906 20.1889 6.90094 20.8545 7.0125 21.3889C7.12313 21.9327 6.97219 22.4014 6.65156 22.7858C6.00844 23.5639 4.785 23.9389 3.58313 22.7295L2.39062 23.9295C4.18875 25.7202 6.71531 25.3452 7.94719 23.8733C8.56406 23.1327 8.88188 22.1014 8.66437 21.0514C8.47219 20.1139 7.84688 19.2045 6.83063 18.4264V13.5327L5.14313 11.7514ZM29.3325 16.6733V30.1733H11.9887C14.1075 30.717 15.795 32.3764 16.3669 34.4858H31.6106C32.3137 31.8983 34.6856 29.9858 37.4888 29.9858C40.2919 29.9858 42.6637 31.8983 43.3669 34.4858H45.645V26.5545L40.0013 16.6733H29.3325ZM32.7075 17.9858H38.5294L43.6575 26.6108H32.7075V18.8295V17.9858ZM2.56781 30.1733L3.64594 34.4858H4.60687C5.18062 32.3764 6.86531 30.717 8.98875 30.1733H2.56781ZM10.4887 31.6733C8.04375 31.6733 6.08063 33.6327 6.08063 36.0795C6.08063 38.5264 8.04375 40.4858 10.4887 40.4858C12.9356 40.4858 14.895 38.5264 14.895 36.0795C14.895 33.6327 12.9356 31.6733 10.4887 31.6733ZM37.4888 31.6733C35.0419 31.6733 33.0825 33.6327 33.0825 36.0795C33.0825 38.5264 35.0419 40.4858 37.4888 40.4858C39.9356 40.4858 41.895 38.5264 41.895 36.0795C41.895 33.6327 39.9356 31.6733 37.4888 31.6733Z" fill="#9C4900"/>
</svg>
