<svg width="49" height="49" viewBox="0 0 49 49" fill="none" xmlns="http://www.w3.org/2000/svg">
<path d="M30.5863 21.9789L26.1332 29.0571C25.951 29.3095 25.7295 29.5311 25.477 29.7133C24.8674 30.1385 24.1148 30.3062 23.3823 30.18C22.6499 30.0537 21.9969 29.6437 21.5649 29.0389C21.1329 28.4341 20.9568 27.6834 21.0749 26.9496C21.1931 26.2158 21.5958 25.5582 22.1957 25.1196L29.2738 20.6664C29.4347 20.5543 29.6262 20.4941 29.8223 20.4941C30.0184 20.4941 30.2098 20.5543 30.3707 20.6664C30.5728 20.8123 30.7089 21.0323 30.7493 21.2782C30.7897 21.5241 30.7311 21.7761 30.5863 21.9789Z" fill="#9C4900"/>
<path d="M24.0156 6.23828C12.4188 6.23828 3.01565 15.632 3.01565 27.2289C3.00853 32.3597 4.88693 37.3143 8.29377 41.1508C8.39689 41.2633 8.49064 41.3758 8.59377 41.4789C8.81562 41.7191 9.08493 41.9106 9.38464 42.0413C9.68435 42.1719 10.0079 42.239 10.3349 42.2381C10.6619 42.2372 10.9851 42.1684 11.2841 42.0361C11.5831 41.9038 11.8513 41.7109 12.0719 41.4695C13.5921 39.8175 15.4384 38.4988 17.4942 37.5968C19.55 36.6948 21.7706 36.2291 24.0156 36.2291C26.2606 36.2291 28.4812 36.6948 30.5371 37.5968C32.5929 38.4988 34.4392 39.8175 35.9594 41.4695C36.1799 41.7109 36.4482 41.9038 36.7472 42.0361C37.0462 42.1684 37.3694 42.2372 37.6964 42.2381C38.0234 42.239 38.3469 42.1719 38.6466 42.0413C38.9464 41.9106 39.2157 41.7191 39.4375 41.4789L39.7375 41.1508C43.1444 37.3143 45.0228 32.3597 45.0156 27.2289C45.0156 15.632 35.6125 6.23828 24.0156 6.23828Z" stroke="#9C4900" stroke-width="1.5" stroke-linecap="round" stroke-linejoin="round"/>
<path d="M24.0156 12.2383V15.2383M39.0156 27.2383H36.0156M12.0156 27.2383H9.01562M15.5303 18.753L13.4088 16.6314M32.5009 18.753L34.6225 16.6314" stroke="#9C4900" stroke-width="1.5" stroke-miterlimit="10" stroke-linecap="round"/>
</svg>
