<svg width="49" height="49" viewBox="0 0 49 49" fill="none" xmlns="http://www.w3.org/2000/svg">
<path d="M28.9375 14.2383V18.2383H26.9375V30.2383H28.9375V34.2383H20.9375V30.2383H22.9375V18.2383H20.9375V14.2383H28.9375ZM24.9375 4.23828C27.5639 4.23828 30.1647 4.7556 32.5912 5.76069C35.0177 6.76578 37.2225 8.23897 39.0796 10.0961C40.9368 11.9533 42.41 14.1581 43.4151 16.5846C44.4202 19.0111 44.9375 21.6118 44.9375 24.2383C44.9375 29.5426 42.8304 34.6297 39.0796 38.3804C35.3289 42.1311 30.2418 44.2383 24.9375 44.2383C22.3111 44.2383 19.7103 43.721 17.2838 42.7159C14.8573 41.7108 12.6525 40.2376 10.7954 38.3804C7.04464 34.6297 4.9375 29.5426 4.9375 24.2383C4.9375 18.934 7.04464 13.8469 10.7954 10.0961C14.5461 6.34542 19.6332 4.23828 24.9375 4.23828ZM24.9375 8.23828C20.694 8.23828 16.6244 9.92399 13.6238 12.9246C10.6232 15.9252 8.9375 19.9948 8.9375 24.2383C8.9375 28.4817 10.6232 32.5514 13.6238 35.552C16.6244 38.5526 20.694 40.2383 24.9375 40.2383C29.181 40.2383 33.2506 38.5526 36.2512 35.552C39.2518 32.5514 40.9375 28.4817 40.9375 24.2383C40.9375 19.9948 39.2518 15.9252 36.2512 12.9246C33.2506 9.92399 29.181 8.23828 24.9375 8.23828Z" fill="#9C4900"/>
</svg>
