<svg width="49" height="49" viewBox="0 0 49 49" fill="none" xmlns="http://www.w3.org/2000/svg">
<path d="M24.0178 32.9985C28.8558 32.9985 32.7778 29.0765 32.7778 24.2385C32.7778 19.4005 28.8558 15.4785 24.0178 15.4785C19.1798 15.4785 15.2578 19.4005 15.2578 24.2385C15.2578 29.0765 19.1798 32.9985 24.0178 32.9985Z" stroke="#9C4900" stroke-width="3" stroke-linecap="round" stroke-linejoin="round"/>
<path d="M24.0156 45.7383C35.8897 45.7383 45.5156 36.1124 45.5156 24.2383C45.5156 12.3642 35.8897 2.73828 24.0156 2.73828C12.1415 2.73828 2.51562 12.3642 2.51562 24.2383C2.51562 36.1124 12.1415 45.7383 24.0156 45.7383Z" stroke="#9C4900" stroke-width="3" stroke-linecap="round" stroke-linejoin="round"/>
<path d="M2.51562 24.2383H8.74562M39.2856 24.2383H45.5156" stroke="#9C4900" stroke-width="3" stroke-linecap="round" stroke-linejoin="round"/>
</svg>
