<svg width="54" height="54" viewBox="0 0 54 54" fill="none" xmlns="http://www.w3.org/2000/svg">
<g clip-path="url(#clip0_2212_768)">
<path d="M11.9375 10.7383C11.9375 10.3405 12.0955 9.95893 12.3768 9.67762C12.6581 9.39632 13.0397 9.23828 13.4375 9.23828H28.4375C28.8353 9.23828 29.2169 9.39632 29.4982 9.67762C29.7795 9.95893 29.9375 10.3405 29.9375 10.7383V25.7383C29.9375 26.1361 29.7795 26.5176 29.4982 26.7989C29.2169 27.0802 28.8353 27.2383 28.4375 27.2383H13.4375C13.0397 27.2383 12.6581 27.0802 12.3768 26.7989C12.0955 26.5176 11.9375 26.1361 11.9375 25.7383V10.7383Z" fill="#8F4300" fill-opacity="0.5"/>
<path d="M5.9375 9.23828C5.9375 7.64698 6.56964 6.12086 7.69486 4.99564C8.82008 3.87042 10.3462 3.23828 11.9375 3.23828L29.9375 3.23828C31.5288 3.23828 33.0549 3.87042 34.1801 4.99564C35.3054 6.12086 35.9375 7.64698 35.9375 9.23828V33.2383C37.5288 33.2383 39.0549 33.8704 40.1801 34.9956C41.3054 36.1209 41.9375 37.647 41.9375 39.2383V40.7383C41.9375 41.1361 42.0955 41.5176 42.3768 41.7989C42.6581 42.0802 43.0397 42.2383 43.4375 42.2383C43.8353 42.2383 44.2169 42.0802 44.4982 41.7989C44.7795 41.5176 44.9375 41.1361 44.9375 40.7383V27.2383H43.4375C43.0397 27.2383 42.6581 27.0802 42.3768 26.7989C42.0955 26.5176 41.9375 26.1361 41.9375 25.7383V16.3633C41.9375 15.9655 42.0955 15.5839 42.3768 15.3026C42.6581 15.0213 43.0397 14.8633 43.4375 14.8633H47.9225C47.8895 13.4353 47.7635 12.1813 47.3195 11.1973C47.0818 10.6251 46.6677 10.1438 46.1375 9.82328C45.5855 9.49328 44.7455 9.23828 43.4375 9.23828C43.0397 9.23828 42.6581 9.08025 42.3768 8.79894C42.0955 8.51764 41.9375 8.13611 41.9375 7.73828C41.9375 7.34046 42.0955 6.95893 42.3768 6.67762C42.6581 6.39632 43.0397 6.23828 43.4375 6.23828C45.1295 6.23828 46.5395 6.56828 47.6735 7.24628C48.8225 7.93028 49.5755 8.89928 50.0555 9.96728C50.9405 11.9323 50.9375 14.3623 50.9375 16.2103V25.7353C50.9379 25.9325 50.8994 26.1279 50.8242 26.3102C50.749 26.4926 50.6385 26.6583 50.4992 26.7979C50.3599 26.9375 50.1944 27.0482 50.0122 27.1238C49.83 27.1994 49.6347 27.2383 49.4375 27.2383H47.9375V40.7383C47.9375 41.9318 47.4634 43.0763 46.6195 43.9203C45.7756 44.7642 44.631 45.2383 43.4375 45.2383C42.244 45.2383 41.0994 44.7642 40.2555 43.9203C39.4116 43.0763 38.9375 41.9318 38.9375 40.7383V39.2383C38.9375 38.4426 38.6214 37.6796 38.0588 37.117C37.4962 36.5544 36.7332 36.2383 35.9375 36.2383V48.2383H37.4375C37.8353 48.2383 38.2169 48.3963 38.4982 48.6776C38.7795 48.9589 38.9375 49.3405 38.9375 49.7383C38.9375 50.1361 38.7795 50.5176 38.4982 50.7989C38.2169 51.0802 37.8353 51.2383 37.4375 51.2383H4.4375C4.03968 51.2383 3.65814 51.0802 3.37684 50.7989C3.09554 50.5176 2.9375 50.1361 2.9375 49.7383C2.9375 49.3405 3.09554 48.9589 3.37684 48.6776C3.65814 48.3963 4.03968 48.2383 4.4375 48.2383H5.9375V9.23828ZM32.9375 9.23828C32.9375 8.44263 32.6214 7.67957 32.0588 7.11696C31.4962 6.55435 30.7331 6.23828 29.9375 6.23828H11.9375C11.1419 6.23828 10.3788 6.55435 9.81618 7.11696C9.25357 7.67957 8.9375 8.44263 8.9375 9.23828V48.2383H32.9375V9.23828Z" fill="#8F4300" fill-opacity="0.5"/>
</g>
<path d="M2.78906 50.9688L50.7278 3.02999" stroke="#8F4300" stroke-width="5" stroke-linecap="round"/>
<defs>
<clipPath id="clip0_2212_768">
<rect width="48" height="48" fill="white" transform="translate(2.9375 3.23828)"/>
</clipPath>
</defs>
</svg>
