<svg width="54" height="54" viewBox="0 0 54 54" fill="none" xmlns="http://www.w3.org/2000/svg">
<g clip-path="url(#clip0_2212_769)">
<path d="M26.9375 23.2383H32.9375V19.2383H26.9375V17.2383C26.9375 16.0383 26.1375 15.2383 24.9375 15.2383C23.7375 15.2383 22.9375 16.0383 22.9375 17.2383V37.8383C21.7375 38.4383 20.9375 39.8383 20.9375 41.2383C20.9375 43.4383 22.7375 45.2383 24.9375 45.2383C27.1375 45.2383 28.9375 43.4383 28.9375 41.2383C28.9375 39.8383 28.1375 38.4383 26.9375 37.8383V31.2383H32.9375V27.2383H26.9375V23.2383ZM50.9375 27.2383C50.9375 33.8583 48.2575 39.8583 43.9375 44.2383L41.7775 42.0783C45.5775 38.2383 47.9375 33.0383 47.9375 27.2383C47.9375 21.4583 45.5775 16.2383 41.7775 12.3983L43.9375 10.2383C48.2575 14.6183 50.9375 20.6183 50.9375 27.2383ZM5.9375 27.2383C5.9375 33.0383 8.2975 38.2383 12.0975 42.0783L9.9375 44.2383C5.6175 39.8583 2.9375 33.8583 2.9375 27.2383C2.9375 20.6183 5.6175 14.6183 9.9375 10.2383L12.0975 12.3983C8.2975 16.2383 5.9375 21.4583 5.9375 27.2383ZM44.9375 27.2383C44.9375 34.2983 40.8575 40.3983 34.9375 43.3383V38.7183C36.7871 37.4283 38.2983 35.7113 39.3428 33.7128C40.3873 31.7143 40.9344 29.4933 40.9375 27.2383C40.9375 19.5183 34.6575 13.2383 26.9375 13.2383C19.2175 13.2383 12.9375 19.5183 12.9375 27.2383C12.9406 29.4933 13.4877 31.7143 14.5322 33.7128C15.5767 35.7113 17.0879 37.4283 18.9375 38.7183V43.3383C13.0175 40.3983 8.9375 34.2983 8.9375 27.2383C8.9375 22.4644 10.8339 17.886 14.2096 14.5104C17.5852 11.1347 22.1636 9.23828 26.9375 9.23828C31.7114 9.23828 36.2898 11.1347 39.6654 14.5104C43.0411 17.886 44.9375 22.4644 44.9375 27.2383Z" fill="#8F4300" fill-opacity="0.5"/>
</g>
<path d="M2.78906 50.9688L50.7278 3.02999" stroke="#8F4300" stroke-width="5" stroke-linecap="round"/>
<defs>
<clipPath id="clip0_2212_769">
<rect width="48" height="48" fill="white" transform="translate(2.9375 3.23828)"/>
</clipPath>
</defs>
</svg>
