<svg width="49" height="49" viewBox="0 0 49 49" fill="none" xmlns="http://www.w3.org/2000/svg">
<path d="M42.8419 33.8727C42.8619 33.5727 42.9219 33.2727 42.9219 32.9727V33.9727L42.8419 33.8727ZM22.9219 32.9727C22.9219 34.3927 23.2219 35.7527 23.7619 36.9727H12.9219V38.9727C12.9219 40.0727 12.0219 40.9727 10.9219 40.9727H8.92188C7.82187 40.9727 6.92188 40.0727 6.92188 38.9727V22.9727L11.0819 10.9727C11.4819 9.81266 12.6019 8.97266 13.9219 8.97266H35.9219C37.2419 8.97266 38.3619 9.81266 38.7619 10.9727L42.9219 22.9727V32.9727C42.9219 27.4527 38.4419 22.9727 32.9219 22.9727C27.4019 22.9727 22.9219 27.4527 22.9219 32.9727ZM16.9219 27.9727C16.9219 26.3127 15.5819 24.9727 13.9219 24.9727C12.2619 24.9727 10.9219 26.3127 10.9219 27.9727C10.9219 29.6327 12.2619 30.9727 13.9219 30.9727C15.5819 30.9727 16.9219 29.6327 16.9219 27.9727ZM38.9219 20.9727L35.9219 11.9727H13.9219L10.9219 20.9727H38.9219Z" fill="#9C4900"/>
<path d="M38.4023 30.4004H37.627V28.8496C37.627 26.7095 35.8901 24.9727 33.75 24.9727C31.6099 24.9727 29.873 26.7095 29.873 28.8496V30.4004H29.0977C28.2447 30.4004 27.5469 31.0982 27.5469 31.9512V39.7051C27.5469 40.558 28.2447 41.2559 29.0977 41.2559H38.4023C39.2553 41.2559 39.9531 40.558 39.9531 39.7051V31.9512C39.9531 31.0982 39.2553 30.4004 38.4023 30.4004ZM31.4238 28.8496C31.4238 27.5625 32.4629 26.5234 33.75 26.5234C35.0371 26.5234 36.0762 27.5625 36.0762 28.8496V30.4004H31.4238V28.8496ZM38.4023 39.7051H29.0977V31.9512H38.4023V39.7051ZM33.75 37.3789C34.6029 37.3789 35.3008 36.6811 35.3008 35.8281C35.3008 34.9752 34.6029 34.2773 33.75 34.2773C32.8971 34.2773 32.1992 34.9752 32.1992 35.8281C32.1992 36.6811 32.8971 37.3789 33.75 37.3789Z" fill="#9C4900" stroke="#9C4900" stroke-width="0.5"/>
</svg>
