<svg width="54" height="54" viewBox="0 0 54 54" fill="none" xmlns="http://www.w3.org/2000/svg">
<path d="M8.28054 39.0743C8.4194 39.6775 8.71442 40.2335 9.13601 40.6867C9.5576 41.1399 10.0909 41.4743 10.6825 41.6563L11.0425 43.2383H11.0125V47.2383H43.0125V43.2383H16.3785C16.4048 43.0535 16.4001 42.8656 16.3645 42.6823L15.9725 40.9563L36.6865 36.2443L37.0785 37.9703C37.183 38.4282 37.4649 38.8259 37.8624 39.076C38.26 39.3262 38.7405 39.4083 39.1985 39.3043L40.9245 38.9103C41.1514 38.8588 41.3659 38.7631 41.5558 38.6287C41.7456 38.4943 41.9071 38.3237 42.031 38.1268C42.1549 37.9299 42.2388 37.7105 42.2778 37.4812C42.3169 37.2519 42.3103 37.0171 42.2585 36.7903L41.7565 34.5843C42.6485 33.7523 43.0965 32.4923 42.8065 31.2183L41.6265 26.0383C41.4834 25.4142 41.1727 24.841 40.7279 24.3804C40.2832 23.9198 39.7212 23.5892 39.1025 23.4243L35.0045 16.6683C34.4002 15.6757 33.4995 14.8979 32.4294 14.4446C31.3593 13.9914 30.174 13.8857 29.0405 14.1423L13.3045 17.7223C12.1699 17.9793 11.145 18.5871 10.3753 19.4595C9.60564 20.3319 9.13022 21.4245 9.01654 22.5823L8.24254 30.4463C7.75708 30.8631 7.39442 31.4044 7.19356 32.0119C6.99269 32.6194 6.96123 33.2702 7.10254 33.8943L8.28054 39.0743ZM14.3205 37.6983C13.9805 37.7758 13.6286 37.7855 13.2849 37.727C12.9411 37.6685 12.6122 37.5428 12.317 37.3572C12.0218 37.1715 11.7661 36.9296 11.5644 36.6451C11.3627 36.3607 11.219 36.0393 11.1415 35.6993C11.0641 35.3593 11.0543 35.0074 11.1128 34.6636C11.1714 34.3198 11.297 33.991 11.4826 33.6958C11.6683 33.4006 11.9102 33.1448 12.1947 32.9431C12.4791 32.7414 12.8005 32.5978 13.1405 32.5203C13.8272 32.3638 14.5479 32.4865 15.144 32.8614C15.7402 33.2363 16.1631 33.8326 16.3195 34.5193C16.476 35.2059 16.3533 35.9266 15.9784 36.5228C15.6035 37.119 15.0072 37.5418 14.3205 37.6983ZM36.7645 32.5943C36.4187 32.6893 36.0573 32.7134 35.7019 32.6649C35.3466 32.6165 35.0047 32.4966 34.6969 32.3125C34.3892 32.1284 34.1219 31.8838 33.9112 31.5936C33.7005 31.3034 33.5508 30.9735 33.4711 30.6238C33.3913 30.2742 33.3832 29.912 33.4472 29.5591C33.5112 29.2063 33.6461 28.87 33.8436 28.5707C34.0411 28.2713 34.2971 28.015 34.5963 27.8173C34.8956 27.6196 35.2317 27.4846 35.5845 27.4203C36.2576 27.2977 36.9521 27.4395 37.5232 27.8163C38.0943 28.193 38.4979 28.7757 38.6501 29.4427C38.8022 30.1098 38.6911 30.8098 38.3398 31.3969C37.9885 31.984 37.4242 32.4129 36.7645 32.5943ZM14.1905 21.6223L29.9285 18.0403C30.2439 17.969 30.5736 17.9984 30.8714 18.1244C31.1692 18.2503 31.42 18.4664 31.5885 18.7423L34.7585 23.9683L33.6265 24.2263L13.5345 28.8003L12.3985 29.0583L12.9965 22.9743C13.0287 22.6522 13.1613 22.3484 13.3756 22.1058C13.5898 21.8632 13.8749 21.694 14.1905 21.6223ZM39.8225 11.2383L37.0125 7.23828L36.0125 13.2383L41.0125 21.2383L47.0125 23.2383L43.0125 18.1603L47.0125 16.2943L43.0125 14.4283L47.0125 7.23828L39.8225 11.2383Z" fill="#8F4300" fill-opacity="0.5"/>
<path d="M2.78906 50.9688L50.7278 3.02999" stroke="#8F4300" stroke-width="5" stroke-linecap="round"/>
</svg>
