<svg width="49" height="49" viewBox="0 0 49 49" fill="none" xmlns="http://www.w3.org/2000/svg">
<path d="M24.015 4.23828C25.0759 4.23828 26.0933 4.65971 26.8434 5.40985C27.5936 6.16 28.015 7.17742 28.015 8.23828C28.015 10.4583 26.235 12.2383 24.015 12.2383C22.9541 12.2383 21.9367 11.8169 21.1866 11.0667C20.4364 10.3166 20.015 9.29915 20.015 8.23828C20.015 7.17742 20.4364 6.16 21.1866 5.40985C21.9367 4.65971 22.9541 4.23828 24.015 4.23828ZM24.795 29.8183C27.636 29.8072 30.4749 29.9742 33.295 30.3183C33.415 24.8783 32.935 20.0783 32.015 18.2383C31.755 17.6983 31.395 17.2383 31.015 16.8383L14.875 30.6783C17.595 30.2383 21.015 29.8183 24.795 29.8183ZM14.935 34.2383C15.195 37.7183 15.715 41.2383 16.555 44.2383H20.695C20.115 42.4783 19.695 40.4183 19.375 38.2383C19.375 38.2383 24.015 37.3583 28.655 38.2383C28.335 40.4183 27.915 42.4783 27.335 44.2383H31.475C32.355 41.1383 32.875 37.4583 33.135 33.8183C30.3676 33.4837 27.5825 33.3167 24.795 33.3183C20.935 33.3183 17.575 33.7383 14.935 34.2383ZM24.015 14.2383C24.015 14.2383 18.015 14.2383 16.015 18.2383C15.335 19.5983 14.895 22.5383 14.755 26.1583L27.855 14.9183C25.875 14.2383 24.015 14.2383 24.015 14.2383ZM37.155 11.5783L34.875 8.91828L27.855 14.9383C28.955 15.3183 30.115 15.9183 31.015 16.8383L37.155 11.5783ZM41.355 31.8983C41.175 31.8383 38.295 30.8983 33.295 30.3183C33.275 31.4583 33.215 32.6383 33.135 33.8183C37.635 34.3783 40.215 35.2383 40.255 35.2383L41.355 31.8983ZM14.755 26.1583L6.875 32.9183L8.655 35.8783C8.695 35.8583 11.015 34.9583 14.935 34.2383C14.715 31.4183 14.655 28.6383 14.755 26.1583Z" fill="#9C4900"/>
</svg>
