<svg width="49" height="49" viewBox="0 0 49 49" fill="none" xmlns="http://www.w3.org/2000/svg">
<path d="M10.0156 26.2383L13.0156 17.2383H35.0156L38.0156 26.2383M35.0156 36.2383C33.4156 36.2383 32.0156 34.8383 32.0156 33.2383C32.0156 31.6383 33.4156 30.2383 35.0156 30.2383C36.6156 30.2383 38.0156 31.6383 38.0156 33.2383C38.0156 34.8383 36.6156 36.2383 35.0156 36.2383ZM13.0156 36.2383C11.4156 36.2383 10.0156 34.8383 10.0156 33.2383C10.0156 31.6383 11.4156 30.2383 13.0156 30.2383C14.6156 30.2383 16.0156 31.6383 16.0156 33.2383C16.0156 34.8383 14.6156 36.2383 13.0156 36.2383ZM37.8156 16.2383C37.4156 15.0383 36.2156 14.2383 35.0156 14.2383H13.0156C11.6156 14.2383 10.6156 15.0383 10.2156 16.2383L6.01562 28.2383V44.2383C6.01562 45.4383 6.81562 46.2383 8.01562 46.2383H10.0156C11.2156 46.2383 12.0156 45.4383 12.0156 44.2383V42.2383H36.0156V44.2383C36.0156 45.4383 36.8156 46.2383 38.0156 46.2383H40.0156C41.2156 46.2383 42.0156 45.4383 42.0156 44.2383V28.2383M16.0156 2.23828L24.0156 11.2383L32.0156 2.23828H16.0156Z" fill="#9C4900"/>
</svg>
