<svg width="54" height="54" viewBox="0 0 54 54" fill="none" xmlns="http://www.w3.org/2000/svg">
<path d="M27.0178 35.9985C31.8558 35.9985 35.7778 32.0765 35.7778 27.2385C35.7778 22.4005 31.8558 18.4785 27.0178 18.4785C22.1798 18.4785 18.2578 22.4005 18.2578 27.2385C18.2578 32.0765 22.1798 35.9985 27.0178 35.9985Z" stroke="#8F4300" stroke-opacity="0.5" stroke-width="3" stroke-linecap="round" stroke-linejoin="round"/>
<path d="M27.0156 48.7383C38.8897 48.7383 48.5156 39.1124 48.5156 27.2383C48.5156 15.3642 38.8897 5.73828 27.0156 5.73828C15.1415 5.73828 5.51562 15.3642 5.51562 27.2383C5.51562 39.1124 15.1415 48.7383 27.0156 48.7383Z" stroke="#8F4300" stroke-opacity="0.5" stroke-width="3" stroke-linecap="round" stroke-linejoin="round"/>
<path d="M5.51562 27.2383H11.7456M42.2856 27.2383H48.5156" stroke="#8F4300" stroke-opacity="0.5" stroke-width="3" stroke-linecap="round" stroke-linejoin="round"/>
<path d="M2.78906 50.9688L50.7278 3.02999" stroke="#8F4300" stroke-width="5" stroke-linecap="round"/>
</svg>
