<svg width="54" height="54" viewBox="0 0 54 54" fill="none" xmlns="http://www.w3.org/2000/svg">
<path d="M10.5244 10.9883L8.66438 12.8483L21.1012 25.992V31.4858H28.4137V26.7139L10.5244 10.9883ZM8.14313 14.7514V22.2795L8.51906 22.5327C9.50906 23.1889 9.90094 23.8545 10.0125 24.3889C10.1231 24.9327 9.97219 25.4014 9.65156 25.7858C9.00844 26.5639 7.785 26.9389 6.58313 25.7295L5.39062 26.9295C7.18875 28.7202 9.71531 28.3452 10.9472 26.8733C11.5641 26.1327 11.8819 25.1014 11.6644 24.0514C11.4722 23.1139 10.8469 22.2045 9.83063 21.4264V16.5327L8.14313 14.7514ZM32.3325 19.6733V33.1733H14.9887C17.1075 33.717 18.795 35.3764 19.3669 37.4858H34.6106C35.3137 34.8983 37.6856 32.9858 40.4888 32.9858C43.2919 32.9858 45.6637 34.8983 46.3669 37.4858H48.645V29.5545L43.0013 19.6733H32.3325ZM35.7075 20.9858H41.5294L46.6575 29.6108H35.7075V21.8295V20.9858ZM5.56781 33.1733L6.64594 37.4858H7.60687C8.18062 35.3764 9.86531 33.717 11.9887 33.1733H5.56781ZM13.4887 34.6733C11.0437 34.6733 9.08063 36.6327 9.08063 39.0795C9.08063 41.5264 11.0437 43.4858 13.4887 43.4858C15.9356 43.4858 17.895 41.5264 17.895 39.0795C17.895 36.6327 15.9356 34.6733 13.4887 34.6733ZM40.4888 34.6733C38.0419 34.6733 36.0825 36.6327 36.0825 39.0795C36.0825 41.5264 38.0419 43.4858 40.4888 43.4858C42.9356 43.4858 44.895 41.5264 44.895 39.0795C44.895 36.6327 42.9356 34.6733 40.4888 34.6733Z" fill="#8F4300" fill-opacity="0.5"/>
<path d="M2.78906 50.9688L50.7278 3.02999" stroke="#8F4300" stroke-width="5" stroke-linecap="round"/>
</svg>
