<svg width="54" height="54" viewBox="0 0 54 54" fill="none" xmlns="http://www.w3.org/2000/svg">
<path d="M27.0156 33.2383H23.0156V29.2383H27.0156V33.2383ZM39.0156 33.2383H31.0156V29.2383H39.0156V33.2383ZM19.0156 25.2383H15.0156V21.2383H19.0156V25.2383ZM39.0156 25.2383H23.0156V21.2383H39.0156V25.2383ZM43.0156 43.2383H11.0156C9.95476 43.2383 8.93734 42.8169 8.1872 42.0667C7.43705 41.3166 7.01563 40.2991 7.01562 39.2383V15.2383C7.01562 14.1774 7.43705 13.16 8.1872 12.4099C8.93734 11.6597 9.95476 11.2383 11.0156 11.2383H43.0156C44.0765 11.2383 45.0939 11.6597 45.8441 12.4099C46.5942 13.16 47.0156 14.1774 47.0156 15.2383V39.2383C47.0156 40.2991 46.5942 41.3166 45.8441 42.0667C45.0939 42.8169 44.0765 43.2383 43.0156 43.2383ZM11.0156 15.2383V39.2383H43.0156V15.2383H11.0156Z" fill="#8F4300" fill-opacity="0.5"/>
<path d="M2.78906 50.9688L50.7278 3.02999" stroke="#8F4300" stroke-width="5" stroke-linecap="round"/>
</svg>
