<svg width="49" height="49" viewBox="0 0 49 49" fill="none" xmlns="http://www.w3.org/2000/svg">
<path d="M24.0156 30.2383H20.0156V26.2383H24.0156V30.2383ZM36.0156 30.2383H28.0156V26.2383H36.0156V30.2383ZM16.0156 22.2383H12.0156V18.2383H16.0156V22.2383ZM36.0156 22.2383H20.0156V18.2383H36.0156V22.2383ZM40.0156 40.2383H8.01562C6.95476 40.2383 5.93734 39.8169 5.1872 39.0667C4.43705 38.3166 4.01563 37.2991 4.01562 36.2383V12.2383C4.01562 11.1774 4.43705 10.16 5.1872 9.40985C5.93734 8.65971 6.95476 8.23828 8.01562 8.23828H40.0156C41.0765 8.23828 42.0939 8.65971 42.8441 9.40985C43.5942 10.16 44.0156 11.1774 44.0156 12.2383V36.2383C44.0156 37.2991 43.5942 38.3166 42.8441 39.0667C42.0939 39.8169 41.0765 40.2383 40.0156 40.2383ZM8.01562 12.2383V36.2383H40.0156V12.2383H8.01562Z" fill="#9C4900"/>
</svg>
