<svg width="54" height="54" viewBox="0 0 54 54" fill="none" xmlns="http://www.w3.org/2000/svg">
<path d="M25.0156 35.2383C25.0156 36.6583 25.3156 38.0183 25.8556 39.2383H15.0156V41.2383C15.0156 42.3383 14.1156 43.2383 13.0156 43.2383H11.0156C9.91562 43.2383 9.01562 42.3383 9.01562 41.2383V25.2383L13.1756 13.2383C13.5756 12.0783 14.6956 11.2383 16.0156 11.2383H38.0156C39.3356 11.2383 40.4556 12.0783 40.8556 13.2383L45.0156 25.2383V35.2383C45.0156 29.7183 40.5356 25.2383 35.0156 25.2383C29.4956 25.2383 25.0156 29.7183 25.0156 35.2383ZM19.0156 30.2383C19.0156 28.5783 17.6756 27.2383 16.0156 27.2383C14.3556 27.2383 13.0156 28.5783 13.0156 30.2383C13.0156 31.8983 14.3556 33.2383 16.0156 33.2383C17.6756 33.2383 19.0156 31.8983 19.0156 30.2383ZM41.0156 23.2383L38.0156 14.2383H16.0156L13.0156 23.2383H41.0156Z" fill="#8F4300" fill-opacity="0.5"/>
<path d="M29.4526 40.8013C28.8449 40.1936 28.3687 39.4913 28.024 38.6945C27.6793 37.8976 27.5073 37.0738 27.5078 36.2229C27.5078 35.372 27.6699 34.5314 27.994 33.7011C28.3182 32.8708 28.8449 32.0907 29.5742 31.3608C30.0469 30.8881 30.6311 30.483 31.327 30.1453C32.0228 29.8077 32.8466 29.5408 33.7985 29.3447C34.7504 29.1491 35.8376 29.0311 37.0601 28.9906C38.2827 28.9501 39.65 28.9973 41.1621 29.1324C41.2702 30.564 41.3039 31.8808 41.2634 33.0828C41.2229 34.2848 41.1113 35.3688 40.9287 36.3347C40.7467 37.3001 40.4901 38.144 40.1589 38.8662C39.8277 39.5885 39.4193 40.1931 38.9337 40.6798C38.2179 41.3956 37.458 41.9191 36.6542 42.2502C35.8503 42.5814 35.03 42.7467 34.1932 42.7462C33.3153 42.7462 32.4577 42.5738 31.6203 42.2292C30.783 41.8845 30.0604 41.4086 29.4526 40.8013ZM31.7216 40.4772C32.1133 40.7068 32.5152 40.8724 32.9274 40.974C33.3396 41.0755 33.7615 41.126 34.1932 41.1255C34.8144 41.1255 35.4289 41.0004 36.0367 40.7503C36.6444 40.5002 37.2252 40.0985 37.7789 39.5453C38.022 39.3022 38.2686 38.9611 38.5188 38.5219C38.7689 38.0826 38.985 37.5089 39.167 36.8007C39.3491 36.0914 39.4874 35.2337 39.5819 34.2278C39.6765 33.2219 39.69 32.0232 39.6225 30.6315C38.9607 30.6045 38.2146 30.5945 37.3843 30.6016C36.554 30.6086 35.7266 30.6726 34.9022 30.7936C34.0784 30.9152 33.295 31.111 32.5522 31.3811C31.8094 31.6512 31.2016 32.0226 30.7289 32.4953C30.1212 33.1031 29.7025 33.7041 29.4729 34.2983C29.2433 34.8926 29.1285 35.4666 29.1285 36.0203C29.1285 36.8172 29.2806 37.5162 29.5847 38.1175C29.8889 38.7188 30.1555 39.1407 30.3845 39.3832C30.9518 38.3028 31.7013 37.2661 32.6332 36.2731C33.5651 35.2802 34.6523 34.4666 35.8949 33.8324C34.9225 34.6833 34.0751 35.6457 33.3528 36.7196C32.6305 37.7936 32.0868 39.0461 31.7216 40.4772Z" fill="#8F4300" fill-opacity="0.5"/>
<path d="M2.78906 50.9688L50.7278 3.02999" stroke="#8F4300" stroke-width="5" stroke-linecap="round"/>
</svg>
