<svg width="41" height="41" viewBox="0 0 41 41" fill="none" xmlns="http://www.w3.org/2000/svg">
<path fill-rule="evenodd" clip-rule="evenodd" d="M20.4198 17.1141H20.5865C21.6932 17.1141 22.6482 17.1141 23.4132 17.2158C23.8182 17.2708 24.2132 17.3591 24.5882 17.5108C24.5985 17.5006 24.6091 17.4906 24.6198 17.4808L26.2865 15.8141C26.4009 15.6913 26.5389 15.5928 26.6923 15.5245C26.8456 15.4562 27.0111 15.4194 27.179 15.4165C27.3468 15.4135 27.5135 15.4444 27.6692 15.5072C27.8248 15.5701 27.9662 15.6637 28.0849 15.7824C28.2036 15.9011 28.2972 16.0425 28.36 16.1981C28.4229 16.3538 28.4538 16.5205 28.4508 16.6883C28.4478 16.8561 28.4111 17.0217 28.3428 17.175C28.2745 17.3283 28.176 17.4663 28.0532 17.5808L26.3865 19.2474C26.3767 19.2576 26.3667 19.2676 26.3565 19.2774C26.5065 19.6524 26.5965 20.0491 26.6498 20.4541C26.7532 21.2191 26.7532 22.1741 26.7532 23.2808V23.4474C26.7532 24.5541 26.7532 25.5091 26.6498 26.2741C26.6013 26.6766 26.5022 27.0714 26.3548 27.4491C26.3661 27.4589 26.3773 27.4689 26.3882 27.4791L28.0548 29.1458C28.1709 29.2619 28.263 29.3997 28.3259 29.5514C28.3887 29.7031 28.4211 29.8657 28.4211 30.0299C28.4211 30.1941 28.3887 30.3567 28.3259 30.5084C28.263 30.6602 28.1709 30.798 28.0548 30.9141C27.9387 31.0302 27.8009 31.1223 27.6492 31.1852C27.4975 31.248 27.3349 31.2803 27.1707 31.2803C27.0065 31.2803 26.8439 31.248 26.6922 31.1852C26.5404 31.1223 26.4026 31.0302 26.2865 30.9141L24.6198 29.2474L24.6082 29.2358L24.5898 29.2158C24.2116 29.3633 23.8162 29.4624 23.4132 29.5108C22.6482 29.6141 21.6932 29.6141 20.5848 29.6141H20.4215C19.3132 29.6141 18.3582 29.6141 17.5932 29.5108C17.1906 29.4623 16.7958 29.3632 16.4182 29.2158C16.4078 29.2271 16.3973 29.2382 16.3865 29.2491L14.7198 30.9158C14.484 31.1434 14.1682 31.2692 13.8404 31.2662C13.5127 31.2632 13.1992 31.1316 12.9676 30.8997C12.7359 30.6679 12.6046 30.3543 12.6019 30.0265C12.5992 29.6988 12.7253 29.3831 12.9532 29.1474L14.6198 27.4808C14.6296 27.47 14.6396 27.4595 14.6498 27.4491C14.503 27.0714 14.4044 26.6766 14.3565 26.2741C14.2532 25.5074 14.2532 24.5541 14.2532 23.4458V23.2808C14.2532 22.1741 14.2532 21.2191 14.3565 20.4541C14.4098 20.0491 14.4982 19.6524 14.6515 19.2774C14.6402 19.2677 14.6291 19.2577 14.6182 19.2474L12.9515 17.5808C12.8322 17.4654 12.737 17.3274 12.6716 17.1749C12.6061 17.0224 12.5717 16.8583 12.5704 16.6923C12.569 16.5264 12.6007 16.3618 12.6636 16.2082C12.7265 16.0546 12.8194 15.9151 12.9368 15.7978C13.0543 15.6805 13.1939 15.5877 13.3475 15.5249C13.5012 15.4622 13.6658 15.4306 13.8318 15.4321C13.9977 15.4337 14.1617 15.4682 14.3142 15.5338C14.4667 15.5994 14.6046 15.6947 14.7198 15.8141L16.3865 17.4808C16.3972 17.4906 16.4078 17.5006 16.4182 17.5108C16.7958 17.3634 17.1906 17.2643 17.5932 17.2158C18.3582 17.1141 19.3132 17.1141 20.4215 17.1141H20.4198ZM17.9265 19.6941C17.3848 19.7674 17.2148 19.8841 17.1198 19.9791C17.0248 20.0758 16.9065 20.2458 16.8332 20.7874C16.7565 21.3658 16.7532 22.1491 16.7532 23.3641C16.7532 24.5774 16.7565 25.3624 16.8332 25.9408C16.9065 26.4824 17.0248 26.6524 17.1198 26.7474C17.2148 26.8424 17.3848 26.9608 17.9265 27.0341C18.5048 27.1108 19.2898 27.1141 20.5032 27.1141C21.7165 27.1141 22.5032 27.1108 23.0798 27.0341C23.6215 26.9608 23.7915 26.8424 23.8865 26.7474C23.9815 26.6524 24.0998 26.4824 24.1732 25.9408C24.2498 25.3624 24.2532 24.5774 24.2532 23.3641C24.2532 22.1491 24.2498 21.3641 24.1732 20.7874C24.0998 20.2458 23.9815 20.0758 23.8865 19.9791C23.7915 19.8841 23.6215 19.7674 23.0798 19.6941C22.5015 19.6158 21.7165 19.6141 20.5032 19.6141C19.2898 19.6141 18.5032 19.6158 17.9265 19.6941Z" fill="white"/>
<path fill-rule="evenodd" clip-rule="evenodd" d="M30.7059 3.99412C32.6276 3.61579 34.3309 3.67245 35.7943 4.73079C37.2526 5.78412 37.8609 7.39079 38.1443 9.35245C38.4193 11.2691 38.4193 13.7958 38.4193 16.9791V26.5925C38.4193 28.9191 38.4193 30.7891 38.2259 32.2591C38.0259 33.7808 37.5959 35.0608 36.5976 36.0791C35.5943 37.1008 34.3309 37.5425 32.8259 37.7491C31.3793 37.9475 29.5409 37.9475 27.2626 37.9475H13.7426C11.4643 37.9475 9.62594 37.9475 8.17927 37.7475C6.67594 37.5424 5.41094 37.1008 4.4076 36.0808C3.4076 35.0608 2.98094 33.7808 2.77927 32.2591C2.58594 30.7891 2.58594 28.9191 2.58594 26.5925V21.7708C2.58594 20.0841 2.58594 18.7158 2.70927 17.6075C2.8376 16.4541 3.10927 15.4575 3.7326 14.5625C4.3576 13.6641 5.19427 13.0708 6.22594 12.5625C6.63594 12.3625 7.0926 12.1658 7.5976 11.9675C7.58988 11.9111 7.58599 11.8543 7.58594 11.7975V11.7291C7.58594 10.6991 7.58594 9.82579 7.66427 9.11912C7.7476 8.37412 7.92927 7.66245 8.40094 7.03412C8.61094 6.75412 8.8576 6.50412 9.1326 6.28745C9.75427 5.80079 10.4626 5.61245 11.2026 5.52745C11.8993 5.44745 12.7593 5.44745 13.7659 5.44745H15.3476C16.0459 5.44745 16.6309 5.44579 17.1443 5.58579C18.2443 5.88579 19.1443 6.64412 19.6476 7.64079L23.5476 6.24912C26.4926 5.19745 28.8343 4.36245 30.7059 3.99412ZM31.1893 6.44745C29.5226 6.77412 27.3559 7.54412 24.2859 8.63912L10.9526 13.3975C9.3076 13.9841 8.17427 14.3908 7.32927 14.8058C6.51427 15.2058 6.08094 15.5641 5.78427 15.9891C5.48427 16.4191 5.29594 16.9591 5.19427 17.8841C5.0876 18.8375 5.08594 20.0675 5.08594 21.8425V26.5025C5.08594 28.9408 5.08927 30.6458 5.2576 31.9325C5.42427 33.1858 5.7276 33.8541 6.1926 34.3291C6.65427 34.8008 7.30094 35.1058 8.51927 35.2725C9.77594 35.4441 11.4426 35.4475 13.8359 35.4475H27.1693C29.5626 35.4475 31.2293 35.4441 32.4859 35.2725C33.7043 35.1058 34.3493 34.8008 34.8126 34.3291C35.2793 33.8541 35.5809 33.1858 35.7459 31.9325C35.9159 30.6458 35.9193 28.9408 35.9193 26.5025V17.0858C35.9193 13.7725 35.9159 11.4258 35.6693 9.70912C35.4243 8.01745 34.9793 7.22579 34.3293 6.75579C33.6859 6.28912 32.8226 6.12579 31.1876 6.44745H31.1893ZM17.2443 8.49745C17.0499 8.25488 16.784 8.07988 16.4843 7.99745C16.3409 7.95745 16.1276 7.94745 15.2009 7.94745H13.8359C12.7409 7.94745 12.0243 7.94912 11.4876 8.01079C10.9776 8.06912 10.7876 8.16745 10.6726 8.25579C10.569 8.33723 10.4765 8.43193 10.3976 8.53745C10.3076 8.65912 10.2076 8.86412 10.1476 9.39412C10.1001 9.94556 10.08 10.499 10.0876 11.0525L17.2426 8.49745H17.2443Z" fill="white"/>
</svg>
