<svg width="32" height="52" viewBox="0 0 32 52" fill="none" xmlns="http://www.w3.org/2000/svg">
<path d="M10.7292 21.0357C11.0808 23.8724 12.4375 27.0213 14.3127 28.7142C13.4735 29.1125 12.8235 29.677 12.5662 30.3079L11.2768 33.4651C10.7676 34.7124 10.7994 36.7582 11.3475 38.0114L13.6526 43.2811C13.6477 43.3222 13.6448 43.3634 13.644 43.4053L13.5379 48.7039C13.5152 49.8373 14.924 50.7931 16.6665 50.8279C18.4111 50.8629 19.856 49.9642 19.8786 48.8308L19.9847 43.5323C19.9855 43.4904 19.9843 43.4491 19.981 43.4078L20.3494 42.65L20.7384 48.6832C20.7927 49.1884 21.4707 49.5809 22.2471 49.5552C23.0225 49.5295 23.6146 49.0951 23.5613 48.5897L22.1482 38.9495L22.4962 38.2346C23.093 37.0043 23.2066 34.9614 22.7478 33.6947L21.5867 30.4885C21.3539 29.8478 20.7259 29.2577 19.9044 28.8261C21.8458 27.2096 23.3275 24.1175 23.7923 21.2972L23.8933 20.5493C23.9215 20.2638 23.9394 19.9834 23.9449 19.7094C23.9852 17.6989 23.3726 16.3912 22.337 15.5595L23.353 15.5798C23.828 15.5767 25.0723 15.6515 25.9213 15.9872C25.9251 16.1037 25.9954 16.2195 26.1318 16.3101L29.9288 18.8452C30.2106 19.0331 30.6701 19.0396 30.9552 18.8597C31.2382 18.6797 31.2401 18.3811 30.9593 18.1931L27.2855 15.7423C27.4075 15.6842 27.5817 15.6232 27.7855 15.6193C28.0394 15.6144 28.2957 15.6987 28.5441 15.8673L30.9078 17.5454C30.9754 17.594 31.09 17.5976 31.1635 17.5545C31.236 17.5107 31.2406 17.4363 31.172 17.3877L28.8073 15.7083C28.4781 15.4848 28.1281 15.376 27.7636 15.384C27.4359 15.3914 27.1738 15.4939 27.0093 15.5811C26.8458 15.5173 26.6537 15.4988 26.4751 15.5245C25.2043 14.9868 23.417 14.9903 23.3474 14.9909L21.3379 14.9506C21.2942 14.9311 21.2516 14.9117 21.208 14.8935C21.8095 14.3979 22.1731 13.7731 22.1869 13.0881C22.2108 11.8923 21.1558 11.2085 19.6103 10.8974L19.6697 7.93124C19.6777 7.52688 19.417 7.15639 18.9964 6.89315L19.0472 4.35725C19.0576 3.83783 18.4163 3.4025 17.6162 3.38648C16.8171 3.37049 16.1589 3.7798 16.1485 4.29922L16.0977 6.83512C15.667 7.08132 15.3916 7.44108 15.3835 7.84544L15.3232 10.8562C13.8908 11.1303 12.9128 11.766 12.8901 12.902C12.8769 13.5597 13.1891 14.1747 13.7276 14.6819C13.6287 14.7165 13.5317 14.7531 13.4367 14.7925L11.6543 14.7568C11.5858 14.7534 9.80011 14.6784 8.50881 15.1649C8.33034 15.132 8.13769 15.1428 7.97175 15.2C7.81189 15.1064 7.55314 14.9934 7.22599 14.9729C6.86307 14.9503 6.50803 15.045 6.17115 15.2552L3.74012 16.8386C3.67062 16.8844 3.67219 16.9589 3.74291 17.0056C3.81467 17.0516 3.92827 17.0526 3.99879 17.0067L6.42673 15.4246C6.68273 15.2661 6.94216 15.1921 7.19572 15.2071C7.39917 15.2192 7.5708 15.2872 7.69032 15.3501L3.92139 17.6519C3.63227 17.8284 3.6222 18.1269 3.89987 18.3181C4.17549 18.5093 4.63484 18.5211 4.92396 18.3446L8.82038 15.9635C8.96027 15.8785 9.03419 15.7656 9.04266 15.6493C9.90545 15.3479 11.1517 15.3229 11.6252 15.345L12.413 15.3608C11.346 16.1505 10.6806 17.4326 10.6403 19.4431C10.6348 19.7171 10.6415 19.998 10.6593 20.2844L10.7292 21.0357Z" fill="#BEBBBC"/>
<path d="M21.152 45.9955L18.8593 30.3571C18.8057 29.8522 18.8018 29.7561 18.026 29.782C17.2493 29.8072 17.2657 29.9029 17.3183 30.4079L18.3291 46.089C18.3827 46.594 19.0613 46.9866 19.837 46.9607C20.6138 46.9355 21.2056 46.5012 21.152 45.9955Z" fill="#64676C"/>
<path d="M17.7739 30.3941L17.7706 30.3684C17.761 30.2725 17.7488 30.1584 17.753 30.0946C17.8041 30.0881 17.8948 30.0799 18.0576 30.0744C18.2194 30.0689 18.3117 30.0714 18.3627 30.0743C18.3807 30.1372 18.3938 30.2513 18.4034 30.3473L18.4067 30.3774L20.6993 46.0157C20.7349 46.3517 20.3353 46.6453 19.8075 46.6629C19.2806 46.6799 18.8239 46.4167 18.7845 46.075L17.7739 30.3941Z" fill="#7A7B81"/>
<path d="M16.5094 8.02244L16.6348 1.76071C16.6452 1.2411 16.0041 0.805915 15.2047 0.789912C14.4063 0.773931 13.7483 1.18311 13.7379 1.70273L13.6126 7.96445C13.6022 8.48339 14.2433 8.91925 15.0417 8.93523C15.8411 8.95124 16.4991 8.54138 16.5094 8.02244Z" fill="#152024"/>
<path d="M17.4677 46.2382L17.5738 40.9393C17.5965 39.8058 16.1887 38.8501 14.4448 38.8152C12.7009 38.7803 11.2559 39.6788 11.2333 40.8124L11.1272 46.1112C11.1045 47.2441 12.5123 48.2004 14.2562 48.2353C16.0001 48.2702 17.445 47.371 17.4677 46.2382Z" fill="#02C038"/>
<path d="M16.4399 46.2163L16.546 40.9175C16.5614 40.1493 15.6119 39.5053 14.4299 39.4816C13.2489 39.458 12.2743 40.0635 12.259 40.8317L12.1529 46.1305C12.1375 46.8981 13.087 47.5427 14.2681 47.5663C15.45 47.59 16.4246 46.9839 16.4399 46.2163Z" fill="#00AC30"/>
<path d="M17.1352 11.5988L17.2605 5.33739C17.2759 4.57074 16.3244 3.92483 15.1449 3.90122C13.9665 3.87763 12.9889 4.48492 12.9735 5.25157L12.8482 11.513C12.8329 12.2797 13.7853 12.9256 14.9638 12.9492C16.1433 12.9728 17.1199 12.3655 17.1352 11.5988Z" fill="#02C038"/>
<path d="M16.4393 11.5852L16.5646 5.32333C16.575 4.80413 15.9338 4.36882 15.135 4.35283C14.3362 4.33684 13.678 4.74614 13.6676 5.26534L13.5423 11.5272C13.5319 12.0464 14.1731 12.4818 14.9719 12.4977C15.7707 12.5137 16.4289 12.1044 16.4393 11.5852Z" fill="#00AC30"/>
<path d="M21.5341 17.1085C21.621 12.7667 18.6629 11.7032 14.9891 11.6296C11.3153 11.5561 8.31807 12.5004 8.23115 16.8422C8.14425 21.1835 11.0006 27.2783 14.6744 27.3519C18.3482 27.4254 21.4472 21.4498 21.5341 17.1085Z" fill="#02C038"/>
<path d="M20.5067 17.0945C20.5431 15.2747 20.0128 13.9744 18.9313 13.2289C18.0679 12.6346 16.8108 12.3406 14.9759 12.3039C12.0545 12.2454 9.33915 12.758 9.25685 16.8693C9.16785 21.3153 12.1121 26.6392 14.6879 26.6907C17.2637 26.7423 20.4177 21.5404 20.5067 17.0945Z" fill="#00AC30"/>
<path d="M17.5717 23.3234C18.7247 21.421 19.4383 19.0845 19.4786 17.072C19.5109 15.4576 19.0645 14.2844 18.1881 13.6813C17.5284 13.2266 16.5027 13.0008 14.9604 12.9699C12.5375 12.9214 10.3567 13.1845 10.2826 16.8879C10.2423 18.9004 10.8609 21.2636 11.9377 23.2106C13.0595 25.2407 14.2275 26.0123 14.6991 26.0217C15.1717 26.0312 16.3696 25.307 17.5717 23.3234Z" fill="#00B833"/>
<path d="M11.3141 16.9043C11.381 13.562 13.1159 13.5967 14.952 13.6335C16.5921 13.6663 17.1641 13.9333 17.452 14.1312C18.1177 14.5898 18.4841 15.6528 18.4562 17.0473C18.4174 18.9832 17.7306 21.2329 16.6204 23.0647C15.8348 24.359 15.1085 24.9998 14.7195 25.2512C14.3409 24.9845 13.6407 24.3151 12.9076 22.9904C11.8716 21.115 11.2753 18.8402 11.3141 16.9043Z" fill="black"/>
<path d="M11.3141 16.9052C11.381 13.5621 13.1162 13.5968 14.9515 13.6336C16.5923 13.6664 17.1643 13.934 17.4523 14.1314C18.1179 14.59 18.484 15.6532 18.4561 17.0482C18.4173 18.984 17.7307 21.233 16.6205 23.0651C15.8349 24.3595 15.1086 25.0004 14.719 25.2512C14.3406 24.985 13.6406 24.3156 12.9074 22.9908C11.8714 21.1158 11.2753 18.841 11.3141 16.9052Z" fill="#038126"/>
<path d="M20.0843 35.6408C20.6818 34.4113 20.7958 32.368 20.3367 31.1011L19.1753 27.8952C18.7162 26.6283 16.7094 25.5591 14.7157 25.5192L14.7051 25.519C12.7114 25.4791 10.6634 26.4671 10.154 27.7146L8.86522 30.8715C8.35579 32.119 8.38788 34.1652 8.93666 35.4176L11.5746 41.4484C12.1215 42.7014 13.3685 43.7423 14.3457 43.7619C15.3209 43.7814 16.6096 42.7913 17.2071 41.5612L20.0843 35.6408Z" fill="#2F373F"/>
<path d="M9.53037 32.8886C9.54445 32.1857 9.66064 31.5327 9.85718 31.0519L11.145 27.895C11.5361 26.9369 13.1594 26.1542 14.69 26.1849C16.2307 26.2157 17.8213 27.0627 18.1738 28.0357L19.3352 31.2416C19.5123 31.7305 19.6023 32.387 19.5882 33.09C19.5704 33.9771 19.3932 34.8288 19.1022 35.4274L16.2252 41.348C15.6855 42.4581 14.6659 43.0739 14.3497 43.0927C14.0492 43.0616 13.0551 42.4055 12.5593 41.2746L9.9215 35.2437C9.65564 34.6339 9.51262 33.7758 9.53037 32.8886Z" fill="black"/>
<path d="M9.53038 32.8884C9.54445 32.1856 9.66053 31.5331 9.85713 31.0516L11.1452 27.8947C11.5363 26.9372 13.1594 26.1543 14.6898 26.1849C16.2307 26.2158 17.8211 27.063 18.1736 28.0354L19.3352 31.2413C19.5124 31.7304 19.6023 32.3869 19.5882 33.0904C19.5705 33.9773 19.3931 34.8294 19.1026 35.4275L16.2254 41.3477C15.6852 42.4579 14.6655 43.0742 14.3494 43.0927C14.0496 43.0619 13.0554 42.4052 12.5591 41.2743L9.92107 35.2437C9.65568 34.6345 9.51261 33.7759 9.53037 32.889L9.53038 32.8884Z" fill="url(#paint0_linear_428_36748)"/>
<path d="M10.4169 35.1568C10.1634 34.5772 10.0279 33.754 10.0451 32.8979C10.0586 32.2213 10.1687 31.5975 10.3546 31.1416L11.6433 27.9847C11.9725 27.1774 13.394 26.4912 14.6844 26.5171C15.9812 26.543 17.3788 27.2856 17.6754 28.1054L18.8367 31.3114C19.0042 31.7744 19.0893 32.4021 19.0757 33.0787C19.0586 33.9347 18.8903 34.7519 18.6137 35.3209L10.4169 35.1568Z" fill="black"/>
<path d="M10.4172 35.1568C10.1636 34.577 10.0279 33.7536 10.045 32.898C10.0586 32.221 10.1681 31.5971 10.354 31.1417L11.6428 27.9848C11.9727 27.1776 13.3935 26.4916 14.6842 26.5174C15.9814 26.5434 17.3785 27.2858 17.6748 28.1056L18.8362 31.3115C19.0038 31.7746 19.0892 32.4017 19.0756 33.0788C19.0585 33.9343 18.89 34.7517 18.6133 35.3209L10.4172 35.1568Z" fill="url(#paint1_linear_428_36748)"/>
<path d="M16.2232 47.4099C16.2269 47.227 15.9999 47.0724 15.7186 47.0667L12.8371 47.0091C12.5557 47.0034 12.3228 47.1489 12.3192 47.3317C12.3155 47.5146 12.5424 47.6687 12.8238 47.6743L15.7053 47.732C15.9866 47.7376 16.2195 47.5928 16.2232 47.4099Z" fill="#152024"/>
<path d="M19.7779 10.4932C19.8113 8.82412 17.743 8.15198 15.1762 8.1006C12.6093 8.04921 10.5158 8.63804 10.4823 10.3071C10.449 11.9756 12.5028 13.3698 15.0696 13.4212C17.6365 13.4725 19.7445 12.1616 19.7779 10.4932Z" fill="#152024"/>
<path d="M10.9948 10.232C11.8879 10.6467 13.263 10.6706 14.696 10.6963L15.5419 10.7132C16.9757 10.7449 18.3507 10.776 19.2597 10.3975C19.261 10.4238 19.2605 10.4507 19.2599 10.4782C19.2302 11.9601 17.3516 13.1284 15.0718 13.0828C12.792 13.0371 10.9616 11.7946 10.9913 10.3127C10.9918 10.2852 10.9924 10.2589 10.9948 10.232Z" fill="black"/>
<path d="M10.9948 10.232C11.8884 10.6463 13.2636 10.6707 14.6968 10.6963L15.5423 10.7133C16.9763 10.7451 18.3514 10.7757 19.2599 10.3975C19.2612 10.4241 19.2607 10.4507 19.2602 10.4779C19.2305 11.9595 17.3519 13.1284 15.0724 13.0828C12.7929 13.0371 10.9616 11.794 10.9913 10.3123C10.9918 10.2851 10.9924 10.2586 10.9948 10.232Z" fill="url(#paint2_linear_428_36748)"/>
<path d="M15.1738 8.10242C13.0871 8.06065 11.3108 8.44221 10.7036 9.48423C11.2722 10.3678 13.0415 10.3349 15.1283 10.3767C17.216 10.4185 18.9806 10.5221 19.5851 9.66202C19.0192 8.59651 17.2615 8.14421 15.1738 8.10242Z" fill="#64676C"/>
<path d="M11.2676 9.47198C11.9438 8.56452 13.742 8.40208 15.1651 8.43057C16.5863 8.45902 18.3775 8.69331 19.0169 9.6271C18.5367 10.0874 17.363 10.0866 15.5592 10.0467L14.7057 10.0296C12.9018 9.99731 11.729 9.95116 11.2676 9.47198Z" fill="#929195"/>
<path d="M15.0758 12.8683L15.0876 12.2797L20.9345 12.3967C21.013 12.3963 23.3108 12.3914 24.5468 13.1821L28.3523 15.7217L27.7096 16.1291L23.9111 13.5942C23.1159 13.0855 21.497 12.9825 20.9408 12.9857L15.0758 12.8683Z" fill="#484E58"/>
<path d="M28.5448 16.2657C28.8287 16.0859 28.8307 15.787 28.548 15.5991L24.8758 13.1481C24.9969 13.0902 25.1706 13.0294 25.3754 13.0257C25.6286 13.0203 25.8861 13.1047 26.1349 13.2736L28.4975 14.9511C28.5651 14.9997 28.679 15.0039 28.7525 14.9602C28.8259 14.9171 28.8304 14.8424 28.7618 14.7939L26.3962 13.1143C26.0689 12.8914 25.7171 12.7821 25.3549 12.7899C25.026 12.7971 24.7637 12.9 24.5996 12.9872C24.3234 12.8794 23.963 12.8997 23.726 13.0497C23.5851 13.1386 23.5141 13.2572 23.5118 13.3758C23.5093 13.4977 23.5784 13.621 23.7208 13.7162L27.5194 16.2511C27.8011 16.439 28.2598 16.4455 28.5448 16.2657Z" fill="#283139"/>
<path d="M15.0756 12.8622L15.0873 12.2734L9.24118 12.1563C9.16193 12.1523 6.86682 12.056 5.5994 12.7969L1.6959 15.1819L2.32194 15.6143L6.21883 13.2334C7.03292 12.7577 8.65496 12.7191 9.21073 12.7448L15.0756 12.8622Z" fill="#484E58"/>
<path d="M1.49135 15.7239C1.21428 15.5321 1.22397 15.2342 1.51399 15.0574L5.28158 12.755C5.16378 12.6922 4.99119 12.6247 4.78773 12.6128C4.53318 12.5974 4.27404 12.6714 4.0188 12.8301L1.59109 14.4121C1.52135 14.4578 1.40602 14.4574 1.33533 14.4106C1.26371 14.3644 1.2624 14.29 1.33215 14.2443L3.76361 12.6606C4.09987 12.4509 4.45523 12.3558 4.81754 12.3782C5.1464 12.3987 5.40364 12.512 5.56454 12.6053C5.84459 12.5088 6.20293 12.5431 6.43505 12.7032C6.57175 12.7978 6.63818 12.9182 6.63579 13.0373C6.63335 13.1594 6.55931 13.28 6.41336 13.369L2.51585 15.7498C2.22677 15.926 1.76844 15.9144 1.49135 15.7239Z" fill="#283139"/>
<path d="M15.0972 11.8972C16.5679 11.9267 17.743 12.725 17.7239 13.6803C17.7047 14.6362 16.5069 14.9733 15.0363 14.9439C13.5666 14.9145 12.3822 14.5296 12.4014 13.5737C12.4205 12.6184 13.6275 11.8678 15.0972 11.8972Z" fill="#5D636D"/>
<path d="M17.4288 13.7198C16.917 13.4827 16.13 13.4687 15.309 13.4541L14.8249 13.4444C14.004 13.4262 13.2171 13.4086 12.6962 13.625C12.6956 13.61 12.6959 13.5945 12.6962 13.5789C12.7132 12.7306 13.7891 12.0615 15.0942 12.0877C16.3993 12.1138 17.4476 12.8254 17.4306 13.6737C17.4303 13.6893 17.43 13.7042 17.4288 13.7198Z" fill="black"/>
<path d="M17.4289 13.7198C16.9176 13.482 16.1307 13.4681 15.309 13.4535L14.8251 13.4438C14.0044 13.4256 13.2176 13.408 12.6962 13.625C12.6956 13.6098 12.6959 13.5939 12.6962 13.5787C12.7132 12.7301 13.7897 12.0612 15.0943 12.0874C16.3999 12.1135 17.4478 12.8248 17.4308 13.6734C17.4305 13.6887 17.4302 13.7045 17.4289 13.7198Z" fill="url(#paint3_linear_428_36748)"/>
<path d="M15.0359 14.9415C16.2312 14.9655 17.2463 14.7464 17.5945 14.1502C17.2684 13.6442 16.2572 13.663 15.0619 13.6391C13.8657 13.6152 12.8552 13.5559 12.509 14.0484C12.8331 14.6581 13.8396 14.9176 15.0359 14.9415Z" fill="#929195"/>
<path d="M17.2698 14.1512C16.8826 14.6711 15.8534 14.7638 15.0391 14.7475C14.2239 14.7312 13.1993 14.5974 12.8331 14.0624C13.1084 13.7986 13.7795 13.7993 14.813 13.8224L15.3011 13.8322C16.3347 13.8504 17.0053 13.8766 17.2698 14.1512Z" fill="#BEBBBC"/>
<path d="M14.8328 25.1853C12.441 25.1375 10.4862 23.8186 10.1852 22.1458C10.1486 22.3092 10.1271 22.476 10.1237 22.6469C10.0856 24.5502 12.1846 26.1364 14.8128 26.189C17.4399 26.2416 19.6008 24.7407 19.6389 22.8374C19.6423 22.6665 19.6285 22.499 19.5984 22.3342C19.2298 23.9937 17.2247 25.2332 14.8328 25.1853Z" fill="#151413"/>
<defs>
<linearGradient id="paint0_linear_428_36748" x1="20.1416" y1="24.9368" x2="19.8844" y2="37.7823" gradientUnits="userSpaceOnUse">
<stop stop-color="#747981"/>
<stop offset="1" stop-color="#2E373F"/>
</linearGradient>
<linearGradient id="paint1_linear_428_36748" x1="19.649" y1="23.8581" x2="19.4688" y2="32.8639" gradientUnits="userSpaceOnUse">
<stop stop-color="#747981"/>
<stop offset="1" stop-color="#2E373F"/>
</linearGradient>
<linearGradient id="paint2_linear_428_36748" x1="20.2019" y1="7.06284" x2="20.1446" y2="9.92291" gradientUnits="userSpaceOnUse">
<stop stop-color="#2E363E"/>
<stop offset="1" stop-color="#151F24"/>
</linearGradient>
<linearGradient id="paint3_linear_428_36748" x1="17.9716" y1="11.6381" x2="17.994" y2="10.5212" gradientUnits="userSpaceOnUse">
<stop stop-color="#6B717A"/>
<stop offset="1" stop-color="#5E636D"/>
</linearGradient>
</defs>
</svg>
