<svg width="100" height="50" viewBox="0 0 32 61" fill="none" xmlns="http://www.w3.org/2000/svg">
<path d="M29.3363 12.7459C29.3363 6.91543 29.0095 4.51644 27.5323 3.00206C26.0552 1.48768 20.1678 0.424835 17.6762 0.424835C15.1844 0.424835 9.29727 1.48768 7.8201 3.00206C6.34293 4.51644 6.01617 6.62056 6.01617 12.7459C6.01617 21.1358 5.02274 52.5469 7.56744 54.6554C10.1118 56.7642 15.1159 56.8486 17.6762 56.8486C20.2362 56.8486 25.2403 56.7642 27.785 54.6554C30.3297 52.5469 29.3363 21.1358 29.3363 12.7459Z" fill="#04952D"/>
<path d="M28.3341 14.0683C28.3341 8.42416 28.0354 6.33787 26.6852 4.95357C25.335 3.56927 19.9538 3.00237 17.6762 3.00237C15.3985 3.00237 10.0174 3.56927 8.66715 4.95357C7.31694 6.33787 7.01831 7.80034 7.01831 14.0683C7.01831 15.3729 7.1659 17.3366 7.55114 19.2734C8.27128 20.9166 8.65839 23.6336 8.92762 26.2796C8.61993 26.7108 8.43889 27.562 8.43889 28.4626C8.03176 29.6927 8.3357 32.2918 8.43889 33.8959C8.44451 33.9838 8.43326 34.2627 8.43889 34.3503C8.43889 34.3503 8.19561 39.8893 8.43889 42.3346C8.49767 42.9262 8.63213 43.7449 8.73501 43.9287C8.81975 44.6798 7.80599 47.8143 7.91137 48.3912C8.12337 49.5494 8.11024 52.1935 8.43607 52.4634C10.7619 54.3908 15.336 54.4678 17.6762 54.4678C20.0164 54.4678 24.5902 54.3908 26.9163 52.4634C27.2421 52.1935 27.229 49.5494 27.4407 48.3912C27.5464 47.8143 26.5326 44.6798 26.6174 43.9287C26.7759 43.4947 26.8547 42.9262 26.9135 42.3346C27.1568 39.8893 26.9135 34.3503 26.9135 34.3503C26.9191 34.2627 26.9079 33.9838 26.9135 33.8959C27.0167 32.2918 27.3206 29.6927 26.9135 28.4626C26.9135 27.562 26.7324 26.7108 26.4247 26.2796C26.6937 23.6336 27.0808 20.9166 27.8012 19.2734C28.1865 17.3366 28.3341 15.3729 28.3341 14.0683Z" fill="#04B54C"/>
<path d="M8.43895 33.8955V28.1917L6.88767 19.8311C6.57779 22.8308 6.55465 28.6532 6.61438 33.8955H8.43895Z" fill="#262A35"/>
<path d="M6.61963 34.3503C6.68717 39.8334 6.84008 44.5635 6.84008 44.5635L8.43889 42.3346V34.3503H6.61963Z" fill="#262A35"/>
<path d="M17.6761 16.1858C17.6761 16.1858 11.8531 16.1114 7.55103 19.2731L8.92751 26.2793C8.92751 26.2793 11.2949 24.2568 17.6761 24.2568C24.0572 24.2568 26.4246 26.2793 26.4246 26.2793L27.8011 19.2731C23.4991 16.1114 17.6761 16.1858 17.6761 16.1858Z" fill="#262A35"/>
<path d="M26.9133 33.8955V28.1917L28.4646 19.8311C28.7742 22.8308 28.7973 28.6532 28.7379 33.8955H26.9133Z" fill="#353F4B"/>
<path d="M28.7326 34.3503C28.6647 39.8334 28.5121 44.5635 28.5121 44.5635L26.9133 42.3346V34.3503H28.7326Z" fill="#353F4B"/>
<path d="M26.6173 43.9292C24.4472 44.524 10.9047 44.524 8.7349 43.9292C8.7349 43.9292 7.71301 46.6296 7.91126 48.3917C9.3803 49.2872 12.4916 50.4248 17.6761 50.4248C22.8605 50.4248 25.9715 49.2872 27.4406 48.3917C27.6391 46.6296 26.6173 43.9292 26.6173 43.9292Z" fill="#262A35"/>
<path d="M6.34726 21.4041L3.93044 22.0004C3.71187 22.0545 3.5055 21.8654 3.54145 21.6377C3.61181 21.1949 3.86666 20.5595 4.72626 20.3141C6.10336 19.921 6.34726 21.4041 6.34726 21.4041Z" fill="#04B54C"/>
<path d="M29.0049 21.4041L31.4217 22.0004C31.6403 22.0545 31.8466 21.8654 31.8107 21.6377C31.7403 21.1949 31.4855 20.5595 30.6256 20.3141C29.2488 19.921 29.0049 21.4041 29.0049 21.4041Z" fill="#04B54C"/>
<path d="M26.4248 26.2793L27.8013 19.2731C23.4993 16.1114 17.6763 16.1858 17.6763 16.1858V24.2568C24.0574 24.2568 26.4248 26.2793 26.4248 26.2793Z" fill="#353F4B"/>
<path d="M26.6174 43.9292C26.544 43.9492 26.4649 43.9667 26.3817 43.983C26.3595 43.9874 26.3307 43.9914 26.3073 43.9955C26.2585 44.0043 26.2106 44.0133 26.1587 44.0208C24.6694 44.2569 21.1756 44.3751 17.6763 44.3751V50.4248C22.8607 50.4248 25.9717 49.2872 27.4408 48.3917C27.6393 46.6296 26.6174 43.9292 26.6174 43.9292Z" fill="#353F4B"/>
<path d="M20.1014 56.1679C18.4857 56.297 16.8666 56.297 15.2506 56.1679C15.0251 56.1498 14.8084 56.413 14.7603 56.7676C15.8681 56.8402 16.8881 56.8486 17.6761 56.8486C18.4638 56.8486 19.4841 56.8402 20.592 56.7676C20.5435 56.413 20.3272 56.1498 20.1014 56.1679Z" fill="#262A35"/>
<path d="M11.7731 56.1506C11.7737 56.1474 11.7743 56.1446 11.775 56.1415C11.8275 55.8973 11.6783 55.6584 11.4407 55.6005C10.7343 55.4289 10.033 55.2275 9.33814 54.9964C9.10612 54.9195 8.85721 55.0439 8.7781 55.2807C8.77717 55.2835 8.77623 55.2863 8.77529 55.2894C8.76091 55.3322 8.7606 55.3754 8.75903 55.4186C9.62207 55.8551 10.618 56.1584 11.6486 56.3691C11.7065 56.3091 11.7543 56.2384 11.7731 56.1506Z" fill="#DF2C3A"/>
<path d="M26.5739 55.2807C26.4951 55.0439 26.2462 54.9195 26.0139 54.9964C25.3194 55.2275 24.618 55.4289 23.9113 55.6005C23.674 55.6584 23.5248 55.8973 23.5771 56.1415C23.5777 56.1446 23.5786 56.1474 23.5793 56.1506C23.598 56.2384 23.6459 56.3091 23.7034 56.3691C24.7344 56.1584 25.7303 55.8551 26.5933 55.4186C26.5914 55.3754 26.5911 55.3322 26.5771 55.2894C26.5761 55.2863 26.5749 55.2835 26.5739 55.2807Z" fill="#DF2C3A"/>
<path d="M23.2581 1.74208C23.5598 1.80743 23.8656 1.61576 23.9379 1.31588C23.9385 1.31338 23.9391 1.31057 23.9398 1.30806C23.9679 1.19018 23.8985 1.0698 23.7812 1.03884C21.6046 0.46442 19.0924 0.120758 17.6762 0.120758C16.26 0.120758 13.7478 0.46442 11.5711 1.03884C11.4539 1.0698 11.3841 1.19017 11.4126 1.30837C11.4132 1.31087 11.4139 1.31369 11.4148 1.31651C11.4867 1.61607 11.7928 1.80743 12.094 1.74208C13.9251 1.3434 15.8128 0.939708 17.6762 0.938145C19.5558 0.936269 21.411 1.33996 23.2581 1.74208Z" fill="#262A35"/>
<path d="M21.7914 12.3777C21.7442 12.6126 21.5244 12.7855 21.2742 12.7855H14.0779C13.8277 12.7855 13.6079 12.6126 13.5607 12.3777L12.6223 7.71608L13.4009 12.9396C13.4394 13.1976 13.6608 13.3887 13.9216 13.3887H21.4303C21.6911 13.3887 21.9128 13.1976 21.9512 12.9396L22.7295 7.71608L21.7914 12.3777Z" fill="#04952D"/>
<path d="M8.27474 3.07676C8.15748 3.12366 8.04053 3.17056 7.92358 3.21777C8.83853 2.84942 9.75503 2.48326 10.6728 2.11928C10.8745 2.03923 10.9733 1.81097 10.8929 1.6096C10.892 1.6071 10.891 1.60491 10.8901 1.60241C10.8814 1.5802 10.8648 1.56456 10.8526 1.54486C9.72626 1.88257 8.74503 2.28407 8.1359 2.73185C8.18218 2.84692 8.22846 2.96168 8.27474 3.07676Z" fill="white"/>
<path d="M7.92346 3.21794C8.0404 3.17072 8.15735 3.12382 8.27461 3.07692C8.22833 2.96185 8.18205 2.84708 8.13578 2.73201C8.0157 2.8205 7.90938 2.91056 7.81995 3.00218C7.75241 3.07129 7.68956 3.14352 7.62671 3.21575C7.71833 3.25359 7.82433 3.25796 7.92346 3.21794Z" fill="#02C038"/>
<path d="M24.7197 2.04411C25.6181 2.45343 26.5152 2.86494 27.4104 3.27832C27.296 3.22547 27.1816 3.17263 27.0671 3.1201C27.124 2.99627 27.1812 2.87276 27.2382 2.74924C26.6343 2.29709 25.6512 1.89183 24.519 1.55099C24.4477 1.74205 24.5308 1.95781 24.7197 2.04411Z" fill="white"/>
<path d="M27.2379 2.74967C27.181 2.87319 27.1238 2.9967 27.0669 3.12053C27.1813 3.17306 27.2958 3.22591 27.4102 3.27875C27.5284 3.33316 27.6563 3.31815 27.762 3.25968C27.6882 3.1715 27.6125 3.08519 27.5322 3.00264C27.4484 2.91665 27.3486 2.83254 27.2379 2.74967Z" fill="#02C038"/>
<path d="M5.82732 32.8857H5.82294C5.70943 32.8857 5.61719 32.7935 5.61719 32.68V31.4542C5.61719 31.3404 5.70943 31.2485 5.82294 31.2485H5.82732C5.94083 31.2485 6.03307 31.3404 6.03307 31.4542V32.68C6.03307 32.7935 5.94083 32.8857 5.82732 32.8857Z" fill="#262A35"/>
<path d="M5.82732 37.4424H5.82294C5.70943 37.4424 5.61719 37.3505 5.61719 37.2366V36.0109C5.61719 35.8974 5.70943 35.8051 5.82294 35.8051H5.82732C5.94083 35.8051 6.03307 35.8974 6.03307 36.0109V37.2366C6.03307 37.3505 5.94083 37.4424 5.82732 37.4424Z" fill="#262A35"/>
<path d="M29.5292 32.8857H29.5251C29.4113 32.8857 29.3193 32.7935 29.3193 32.68V31.4542C29.3193 31.3404 29.4113 31.2485 29.5251 31.2485H29.5292C29.643 31.2485 29.7349 31.3404 29.7349 31.4542V32.68C29.7349 32.7935 29.643 32.8857 29.5292 32.8857Z" fill="#262A35"/>
<path d="M29.5292 37.4424H29.5251C29.4113 37.4424 29.3193 37.3505 29.3193 37.2366V36.0109C29.3193 35.8974 29.4113 35.8051 29.5251 35.8051H29.5292C29.643 35.8051 29.7349 35.8974 29.7349 36.0109V37.2366C29.7349 37.3505 29.643 37.4424 29.5292 37.4424Z" fill="#262A35"/>
</svg>
