<svg width="15" height="15" viewBox="0 0 15 15" fill="none" xmlns="http://www.w3.org/2000/svg">
<mask id="mask0_428_34752" style="mask-type:alpha" maskUnits="userSpaceOnUse" x="0" y="0" width="15" height="15">
<rect x="0.890625" y="0.5" width="14" height="14" fill="#D9D9D9"/>
</mask>
<g mask="url(#mask0_428_34752)">
<circle cx="7.88802" cy="7.4974" r="5.83333" fill="#04B54C"/>
<path d="M6.71823 8.60208L10.1599 5.16042C10.2668 5.05347 10.403 5 10.5682 5C10.7335 5 10.8696 5.05347 10.9766 5.16042C11.0835 5.26736 11.137 5.40347 11.137 5.56875C11.137 5.73403 11.0835 5.87014 10.9766 5.97708L7.12656 9.82708C7.0099 9.94375 6.87378 10.0021 6.71823 10.0021C6.56267 10.0021 6.42656 9.94375 6.3099 9.82708L4.79323 8.31042C4.68628 8.20347 4.63281 8.06736 4.63281 7.90208C4.63281 7.73681 4.68628 7.60069 4.79323 7.49375C4.90017 7.38681 5.03628 7.33333 5.20156 7.33333C5.36684 7.33333 5.50295 7.38681 5.6099 7.49375L6.71823 8.60208Z" fill="#DDEFE5"/>
</g>
</svg>
