<svg width="66" height="124" viewBox="0 0 66 124" fill="none" xmlns="http://www.w3.org/2000/svg">
<path d="M60.7191 26.2719C60.7191 14.2598 60.0459 9.31735 57.0026 6.19741C53.9593 3.07747 41.83 0.887779 36.6969 0.887779C31.5631 0.887779 19.4345 3.07747 16.3912 6.19741C13.3479 9.31735 12.6747 13.6523 12.6747 26.2719C12.6747 43.5568 10.628 108.27 15.8707 112.614C21.1126 116.959 31.422 117.133 36.6969 117.133C41.9711 117.133 52.2805 116.959 57.5231 112.614C62.7658 108.27 60.7191 43.5568 60.7191 26.2719Z" fill="#04952D"/>
<path d="M58.6572 28.995C58.6572 17.3669 58.0419 13.0687 55.2602 10.2168C52.4785 7.36481 41.3921 6.19685 36.6997 6.19685C32.0072 6.19685 20.9209 7.36481 18.1392 10.2168C15.3574 13.0687 14.7422 16.0817 14.7422 28.995C14.7422 31.6827 15.0463 35.7284 15.8399 39.7187C17.3236 43.104 18.1211 48.7016 18.6758 54.153C18.0419 55.0414 17.6689 56.7949 17.6689 58.6503C16.8301 61.1846 17.4563 66.5393 17.6689 69.8442C17.6805 70.0252 17.6573 70.5998 17.6689 70.7802C17.6689 70.7802 17.1677 82.1919 17.6689 87.2297C17.79 88.4485 18.067 90.1351 18.2789 90.5139C18.4535 92.0613 16.365 98.5189 16.5821 99.7075C17.0189 102.094 16.9918 107.541 17.6631 108.097C22.4548 112.068 31.8784 112.227 36.6997 112.227C41.521 112.227 50.9439 112.068 55.7363 108.097C56.4075 107.541 56.3805 102.094 56.8166 99.7075C57.0344 98.5189 54.9458 92.0613 55.1204 90.5139C55.447 89.6197 55.6094 88.4485 55.7305 87.2297C56.2317 82.1919 55.7305 70.7802 55.7305 70.7802C55.7421 70.5998 55.7189 70.0252 55.7305 69.8442C55.9431 66.5393 56.5692 61.1846 55.7305 58.6503C55.7305 56.7949 55.3575 55.0414 54.7236 54.153C55.2776 48.7016 56.0751 43.104 57.5594 39.7187C58.3531 35.7284 58.6572 31.6827 58.6572 28.995Z" fill="#04B54C"/>
<path d="M17.6646 69.8438V58.0926L14.4687 40.8682C13.8303 47.0481 13.7826 59.0435 13.9056 69.8438H17.6646Z" fill="#262A35"/>
<path d="M13.9219 70.7789C14.061 82.0753 14.3761 91.8203 14.3761 91.8203L17.6699 87.2283V70.7789H13.9219Z" fill="#262A35"/>
<path d="M36.6957 33.3616C36.6957 33.3616 24.6991 33.2083 15.8359 39.7219L18.6718 54.1562C18.6718 54.1562 23.5491 49.9895 36.6957 49.9895C49.8422 49.9895 54.7196 54.1562 54.7196 54.1562L57.5554 39.7219C48.6923 33.2083 36.6957 33.3616 36.6957 33.3616Z" fill="#262A35"/>
<path d="M55.7266 69.8438V58.0926L58.9225 40.8682C59.5603 47.0481 59.608 59.0435 59.4856 69.8438H55.7266Z" fill="#353F4B"/>
<path d="M59.4746 70.7789C59.3348 82.0753 59.0204 91.8203 59.0204 91.8203L55.7266 87.2283V70.7789H59.4746Z" fill="#353F4B"/>
<path d="M55.1222 90.5161C50.6513 91.7414 22.7509 91.7414 18.2807 90.5161C18.2807 90.5161 16.1754 96.0796 16.5838 99.7097C19.6104 101.555 26.0203 103.898 36.7014 103.898C47.3825 103.898 53.7919 101.555 56.8184 99.7097C57.2275 96.0796 55.1222 90.5161 55.1222 90.5161Z" fill="#262A35"/>
<path d="M13.3593 44.1116L8.38016 45.3402C7.92986 45.4516 7.50468 45.0619 7.57876 44.5929C7.72371 43.6807 8.24876 42.3716 10.0197 41.8659C12.8568 41.0561 13.3593 44.1116 13.3593 44.1116Z" fill="#04B54C"/>
<path d="M60.0391 44.1116L65.0182 45.3402C65.4685 45.4516 65.8937 45.0619 65.8196 44.5929C65.6747 43.6807 65.1496 42.3716 63.378 41.8659C60.5416 41.0561 60.0391 44.1116 60.0391 44.1116Z" fill="#04B54C"/>
<path d="M54.7192 54.1562L57.5551 39.7219C48.6919 33.2083 36.6953 33.3616 36.6953 33.3616V49.9895C49.8418 49.9895 54.7192 54.1562 54.7192 54.1562Z" fill="#353F4B"/>
<path d="M55.116 90.5161C54.9647 90.5574 54.8017 90.5934 54.6303 90.6269C54.5846 90.6359 54.5253 90.6443 54.477 90.6527C54.3765 90.6707 54.2779 90.6894 54.171 90.7049C51.1026 91.1913 43.9047 91.4348 36.6953 91.4348V103.898C47.3764 103.898 53.7857 101.555 56.8123 99.7097C57.2213 96.0796 55.116 90.5161 55.116 90.5161Z" fill="#353F4B"/>
<path d="M41.6914 115.73C38.3627 115.996 35.0269 115.996 31.6976 115.73C31.2331 115.693 30.7867 116.235 30.6875 116.966C32.97 117.115 35.0714 117.133 36.6948 117.133C38.3176 117.133 40.4197 117.115 42.7021 116.966C42.6023 116.235 42.1565 115.693 41.6914 115.73Z" fill="#262A35"/>
<path d="M24.5377 115.698C24.539 115.692 24.5403 115.686 24.5416 115.679C24.6498 115.176 24.3425 114.684 23.8529 114.565C22.3976 114.211 20.9527 113.796 19.5212 113.32C19.0432 113.162 18.5304 113.418 18.3674 113.906C18.3655 113.912 18.3636 113.918 18.3616 113.924C18.332 114.012 18.3313 114.101 18.3281 114.19C20.1062 115.089 22.158 115.714 24.2813 116.148C24.4005 116.025 24.4991 115.879 24.5377 115.698Z" fill="#DF2C3A"/>
<path d="M55.0316 113.906C54.8692 113.418 54.3564 113.162 53.8778 113.32C52.447 113.796 51.002 114.211 49.5461 114.565C49.0571 114.684 48.7498 115.176 48.8574 115.679C48.8587 115.686 48.8606 115.692 48.8619 115.698C48.9006 115.879 48.9991 116.025 49.1177 116.148C51.2416 115.714 53.2935 115.089 55.0715 114.19C55.0676 114.101 55.067 114.012 55.038 113.924C55.0361 113.918 55.0335 113.912 55.0316 113.906Z" fill="#DF2C3A"/>
<path d="M48.1986 3.60644C48.8202 3.74108 49.4503 3.34618 49.5991 2.72838C49.6004 2.72322 49.6017 2.71743 49.6029 2.71227C49.6609 2.4694 49.5179 2.22139 49.2763 2.15761C44.7919 0.974184 39.6163 0.266167 36.6986 0.266167C33.781 0.266167 28.6053 0.974184 24.121 2.15761C23.8794 2.22139 23.7357 2.46939 23.7943 2.7129C23.7956 2.71805 23.7969 2.72387 23.7988 2.72967C23.947 3.34683 24.5777 3.74108 25.1981 3.60644C28.9706 2.78506 32.8598 1.95338 36.6986 1.95016C40.571 1.94629 44.3932 2.77797 48.1986 3.60644Z" fill="#262A35"/>
<path d="M45.1794 25.511C45.0822 25.9948 44.6293 26.3511 44.1139 26.3511H29.2879C28.7725 26.3511 28.3196 25.9948 28.2224 25.511L26.2891 15.907L27.8932 26.6687C27.9724 27.2001 28.4285 27.5938 28.9658 27.5938H44.4354C44.9726 27.5938 45.4294 27.2001 45.5086 26.6687L47.1121 15.907L45.1794 25.511Z" fill="#04952D"/>
<path d="M17.3328 6.3501C17.0912 6.44673 16.8503 6.54335 16.6094 6.64062C18.4944 5.88174 20.3825 5.12737 22.2733 4.3775C22.6888 4.21258 22.8924 3.74231 22.7269 3.32744C22.7249 3.32228 22.723 3.31778 22.7211 3.31262C22.703 3.26688 22.6689 3.23465 22.6437 3.19407C20.3233 3.88982 18.3017 4.71699 17.0468 5.63951C17.1421 5.87658 17.2375 6.11303 17.3328 6.3501Z" fill="white"/>
<path d="M16.6035 6.64511C16.8445 6.54784 17.0854 6.45122 17.327 6.35459C17.2317 6.11752 17.1363 5.88107 17.041 5.644C16.7936 5.82631 16.5746 6.01186 16.3903 6.20061C16.2512 6.34298 16.1217 6.4918 15.9922 6.64062C16.1809 6.71857 16.3993 6.72757 16.6035 6.64511Z" fill="#02C038"/>
<path d="M51.2079 4.2307C53.0588 5.07398 54.907 5.92178 56.7514 6.77344C56.5156 6.66456 56.2798 6.55569 56.0441 6.44746C56.1613 6.19235 56.2792 5.93789 56.3964 5.68343C55.1525 4.75189 53.127 3.91697 50.7943 3.21477C50.6475 3.60839 50.8188 4.0529 51.2079 4.2307Z" fill="white"/>
<path d="M56.3993 5.6764C56.282 5.93086 56.1641 6.18532 56.0469 6.44043C56.2827 6.54866 56.5184 6.65753 56.7542 6.76641C56.9977 6.8785 57.2612 6.84759 57.479 6.72712C57.3269 6.54545 57.171 6.36763 57.0055 6.19756C56.8328 6.0204 56.6273 5.84711 56.3993 5.6764Z" fill="#02C038"/>
<path d="M12.2845 67.7578H12.2754C12.0416 67.7578 11.8516 67.5678 11.8516 67.3339V64.8086C11.8516 64.5741 12.0416 64.3847 12.2754 64.3847H12.2845C12.5183 64.3847 12.7084 64.5741 12.7084 64.8086V67.3339C12.7084 67.5678 12.5183 67.7578 12.2845 67.7578Z" fill="#262A35"/>
<path d="M12.2845 77.1484H12.2754C12.0416 77.1484 11.8516 76.959 11.8516 76.7246V74.1992C11.8516 73.9654 12.0416 73.7753 12.2754 73.7753H12.2845C12.5183 73.7753 12.7084 73.9654 12.7084 74.1992V76.7246C12.7084 76.959 12.5183 77.1484 12.2845 77.1484Z" fill="#262A35"/>
<path d="M61.1198 67.7578H61.1114C60.8769 67.7578 60.6875 67.5678 60.6875 67.3339V64.8086C60.6875 64.5741 60.8769 64.3847 61.1114 64.3847H61.1198C61.3543 64.3847 61.5437 64.5741 61.5437 64.8086V67.3339C61.5437 67.5678 61.3543 67.7578 61.1198 67.7578Z" fill="#262A35"/>
<path d="M61.1198 77.1484H61.1114C60.8769 77.1484 60.6875 76.959 60.6875 76.7246V74.1992C60.6875 73.9654 60.8769 73.7753 61.1114 73.7753H61.1198C61.3543 73.7753 61.5437 73.9654 61.5437 74.1992V76.7246C61.5437 76.959 61.3543 77.1484 61.1198 77.1484Z" fill="#262A35"/>
</svg>
