<svg width="29" height="58" viewBox="0 0 29 58" fill="none" xmlns="http://www.w3.org/2000/svg">
<path d="M26.4642 13.6082C26.4642 7.77774 26.1374 5.37874 24.6603 3.86436C23.1831 2.34999 17.2957 1.28714 14.8042 1.28714C12.3123 1.28714 6.4252 2.34999 4.94803 3.86436C3.47086 5.37874 3.1441 7.48286 3.1441 13.6082C3.1441 21.9981 2.15067 53.4092 4.69537 55.5177C7.23977 57.6265 12.2438 57.7109 14.8042 57.7109C17.3642 57.7109 22.3682 57.6265 24.9129 55.5177C27.4576 53.4092 26.4642 21.9981 26.4642 13.6082Z" fill="#929292"/>
<path d="M25.4642 14.9286C25.4642 9.28452 25.1656 7.19822 23.8153 5.81392C22.4651 4.42963 17.084 3.86272 14.8063 3.86272C12.5286 3.86272 7.14749 4.42963 5.79728 5.81392C4.44707 7.19822 4.14844 8.66069 4.14844 14.9286C4.14844 16.2332 4.29603 18.1969 4.68127 20.1338C5.4014 21.777 5.78852 24.494 6.05775 27.14C5.75006 27.5712 5.56901 28.4223 5.56901 29.3229C5.16188 30.553 5.46582 33.1522 5.56901 34.7563C5.57464 34.8441 5.56338 35.1231 5.56901 35.2106C5.56901 35.2106 5.32574 40.7497 5.56901 43.195C5.6278 43.7866 5.76226 44.6052 5.86513 44.7891C5.94987 45.5402 4.93612 48.6746 5.04149 49.2515C5.2535 50.4098 5.24037 53.0539 5.5662 53.3238C7.89201 55.2512 12.4661 55.3281 14.8063 55.3281C17.1465 55.3281 21.7203 55.2512 24.0464 53.3238C24.3722 53.0539 24.3591 50.4098 24.5708 49.2515C24.6765 48.6746 23.6627 45.5402 23.7475 44.7891C23.906 44.3551 23.9848 43.7866 24.0436 43.195C24.2869 40.7497 24.0436 35.2106 24.0436 35.2106C24.0492 35.1231 24.038 34.8441 24.0436 34.7563C24.1468 33.1522 24.4507 30.553 24.0436 29.3229C24.0436 28.4223 23.8626 27.5712 23.5549 27.14C23.8238 24.494 24.2109 21.777 24.9313 20.1338C25.3166 18.1969 25.4642 16.2332 25.4642 14.9286Z" fill="#929292"/>
<path d="M5.56957 34.7578V29.054L4.01829 20.6934C3.70841 23.6931 3.68527 29.5155 3.74499 34.7578H5.56957Z" fill="#929292"/>
<path d="M3.75 35.2165C3.81754 40.6996 3.97045 45.4297 3.97045 45.4297L5.56926 43.2008V35.2165H3.75Z" fill="#929292"/>
<path d="M14.8047 17.0472C14.8047 17.0472 8.98173 16.9728 4.67969 20.1344L6.05617 27.1406C6.05617 27.1406 8.42358 25.1181 14.8047 25.1181C21.1859 25.1181 23.5533 27.1406 23.5533 27.1406L24.9298 20.1344C20.6277 16.9728 14.8047 17.0472 14.8047 17.0472Z" fill="#929292"/>
<path d="M24.0391 34.7578V29.054L25.5903 20.6934C25.8999 23.6931 25.923 29.5155 25.8636 34.7578H24.0391Z" fill="#929292"/>
<path d="M25.8583 35.2165C25.7905 40.6996 25.6379 45.4297 25.6379 45.4297L24.0391 43.2008V35.2165H25.8583Z" fill="#929292"/>
<path d="M23.7471 44.7935C21.577 45.3882 8.03457 45.3882 5.86478 44.7935C5.86478 44.7935 4.8429 47.4939 5.04114 49.2559C6.51018 50.1515 9.62149 51.2891 14.806 51.2891C19.9904 51.2891 23.1014 50.1515 24.5705 49.2559C24.769 47.4939 23.7471 44.7935 23.7471 44.7935Z" fill="#929292"/>
<path d="M3.47397 22.2694L1.05715 22.8657C0.83858 22.9198 0.632204 22.7306 0.668164 22.5029C0.73852 22.0602 0.99337 21.4248 1.85297 21.1793C3.23007 20.7863 3.47397 22.2694 3.47397 22.2694Z" fill="#929292"/>
<path d="M26.1328 22.2694L28.5496 22.8657C28.7682 22.9198 28.9746 22.7306 28.9386 22.5029C28.8683 22.0602 28.6134 21.4248 27.7535 21.1793C26.3767 20.7863 26.1328 22.2694 26.1328 22.2694Z" fill="#929292"/>
<path d="M23.5532 27.1406L24.9297 20.1344C20.6277 16.9728 14.8047 17.0472 14.8047 17.0472V25.1181C21.1858 25.1181 23.5532 27.1406 23.5532 27.1406Z" fill="#929292"/>
<path d="M23.7459 44.7935C23.6724 44.8135 23.5933 44.831 23.5101 44.8472C23.4879 44.8516 23.4591 44.8557 23.4357 44.8598C23.3869 44.8685 23.3391 44.8776 23.2871 44.8851C21.7978 45.1212 18.304 45.2394 14.8047 45.2394V51.2891C19.9892 51.2891 23.1002 50.1515 24.5692 49.2559C24.7678 47.4939 23.7459 44.7935 23.7459 44.7935Z" fill="#929292"/>
<path d="M17.2318 57.0302C15.6161 57.1593 13.9969 57.1593 12.3809 57.0302C12.1555 57.0121 11.9388 57.2754 11.8906 57.6299C12.9985 57.7025 14.0185 57.7109 14.8065 57.7109C15.5942 57.7109 16.6145 57.7025 17.7224 57.6299C17.6739 57.2754 17.4575 57.0121 17.2318 57.0302Z" fill="#929292"/>
<path d="M8.89687 57.0158C8.89749 57.0127 8.89812 57.0099 8.89875 57.0067C8.95128 56.7625 8.80213 56.5236 8.56448 56.4658C7.8581 56.2941 7.15673 56.0927 6.46192 55.8617C6.2299 55.7847 5.98099 55.9092 5.90188 56.1459C5.90094 56.1487 5.90001 56.1515 5.89907 56.1546C5.88469 56.1975 5.88438 56.2406 5.88281 56.2838C6.74585 56.7203 7.74178 57.0236 8.77242 57.2344C8.83027 57.1743 8.87811 57.1037 8.89687 57.0158Z" fill="#929292"/>
<path d="M23.7026 56.1459C23.6238 55.9092 23.3749 55.7847 23.1426 55.8617C22.4481 56.0927 21.7467 56.2941 21.04 56.4658C20.8027 56.5236 20.6535 56.7625 20.7057 57.0067C20.7064 57.0099 20.7073 57.0127 20.7079 57.0158C20.7267 57.1037 20.7745 57.1743 20.8321 57.2344C21.863 57.0236 22.8589 56.7203 23.722 56.2838C23.7201 56.2406 23.7198 56.1975 23.7057 56.1546C23.7048 56.1515 23.7035 56.1487 23.7026 56.1459Z" fill="#929292"/>
<path d="M20.3831 2.60439C20.6848 2.66974 20.9906 2.47806 21.0629 2.17819C21.0635 2.17569 21.0641 2.17287 21.0648 2.17037C21.0929 2.05248 21.0235 1.9321 20.9062 1.90114C18.7296 1.32672 16.2174 0.983063 14.8012 0.983063C13.385 0.983063 10.8728 1.32672 8.69614 1.90114C8.57888 1.9321 8.50914 2.05248 8.5376 2.17067C8.53822 2.17318 8.53885 2.176 8.53979 2.17881C8.61171 2.47837 8.91784 2.66974 9.21896 2.60439C11.0501 2.2057 12.9378 1.80201 14.8012 1.80045C16.6808 1.79857 18.536 2.20226 20.3831 2.60439Z" fill="#929292"/>
<path d="M18.9191 13.2391C18.8719 13.4739 18.6521 13.6468 18.4019 13.6468H11.2056C10.9554 13.6468 10.7356 13.4739 10.6884 13.2391L9.75 8.57741L10.5286 13.801C10.5671 14.0589 10.7885 14.25 11.0492 14.25H18.558C18.8188 14.25 19.0405 14.0589 19.0789 13.801L19.8572 8.57741L18.9191 13.2391Z" fill="#929292"/>
<path d="M5.39803 3.93711C5.28077 3.98401 5.16382 4.03091 5.04688 4.07812C5.96182 3.70977 6.87832 3.34361 7.79608 2.97963C7.99777 2.89958 8.09658 2.67132 8.01622 2.46995C8.01528 2.46745 8.01434 2.46526 8.0134 2.46276C8.00465 2.44056 7.98807 2.42491 7.97588 2.40521C6.84955 2.74292 5.86832 3.14442 5.2592 3.5922C5.30547 3.70727 5.35175 3.82204 5.39803 3.93711Z" fill="#929292"/>
<path d="M5.04675 4.08122C5.16369 4.034 5.28064 3.9871 5.3979 3.9402C5.35162 3.82513 5.30535 3.71036 5.25907 3.59529C5.13899 3.68378 5.03267 3.77384 4.94324 3.86546C4.8757 3.93457 4.81285 4.0068 4.75 4.07903C4.84162 4.11687 4.94762 4.12124 5.04675 4.08122Z" fill="#929292"/>
<path d="M21.8432 2.90641C22.7416 3.31573 23.6387 3.72724 24.534 4.14062C24.4195 4.08778 24.3051 4.03493 24.1906 3.9824C24.2476 3.85857 24.3048 3.73506 24.3617 3.61155C23.7579 3.15939 22.7748 2.75413 21.6425 2.41329C21.5712 2.60435 21.6544 2.82011 21.8432 2.90641Z" fill="#929292"/>
<path d="M24.3664 3.61686C24.3094 3.74038 24.2522 3.86389 24.1953 3.98771C24.3098 4.04025 24.4242 4.09309 24.5387 4.14594C24.6568 4.20035 24.7847 4.18534 24.8904 4.12687C24.8166 4.03869 24.741 3.95238 24.6606 3.86983C24.5768 3.78384 24.477 3.69973 24.3664 3.61686Z" fill="#929292"/>
<path d="M2.95232 33.75H2.94794C2.83443 33.75 2.74219 33.6578 2.74219 33.5443V32.3185C2.74219 32.2047 2.83443 32.1127 2.94794 32.1127H2.95232C3.06583 32.1127 3.15807 32.2047 3.15807 32.3185V33.5443C3.15807 33.6578 3.06583 33.75 2.95232 33.75Z" fill="#929292"/>
<path d="M2.95232 38.3047H2.94794C2.83443 38.3047 2.74219 38.2128 2.74219 38.0989V36.8732C2.74219 36.7597 2.83443 36.6674 2.94794 36.6674H2.95232C3.06583 36.6674 3.15807 36.7597 3.15807 36.8732V38.0989C3.15807 38.2128 3.06583 38.3047 2.95232 38.3047Z" fill="#929292"/>
<path d="M26.6551 33.75H26.6511C26.5372 33.75 26.4453 33.6578 26.4453 33.5443V32.3185C26.4453 32.2047 26.5372 32.1127 26.6511 32.1127H26.6551C26.7689 32.1127 26.8609 32.2047 26.8609 32.3185V33.5443C26.8609 33.6578 26.7689 33.75 26.6551 33.75Z" fill="#929292"/>
<path d="M26.6551 38.3047H26.6511C26.5372 38.3047 26.4453 38.2128 26.4453 38.0989V36.8732C26.4453 36.7597 26.5372 36.6674 26.6511 36.6674H26.6551C26.7689 36.6674 26.8609 36.7597 26.8609 36.8732V38.0989C26.8609 38.2128 26.7689 38.3047 26.6551 38.3047Z" fill="#929292"/>
</svg>
