<svg width="28" height="49" viewBox="0 0 28 49" fill="none" xmlns="http://www.w3.org/2000/svg">
<path d="M20.8439 46.0603L18.2386 30.4709C18.1749 29.9671 18.1691 29.8711 17.394 29.9125C16.6179 29.9533 16.6363 30.0487 16.699 30.5525L18.0234 46.2102C18.0871 46.714 18.7734 47.093 19.5485 47.0516C20.3246 47.0108 20.9076 46.5647 20.8439 46.0603Z" fill="#929292"/>
<path d="M17.1523 30.5309L17.1485 30.5053C17.1369 30.4096 17.1225 30.2957 17.1254 30.2319C17.1764 30.2244 17.2668 30.2144 17.4295 30.2057C17.5912 30.1969 17.6835 30.1975 17.7345 30.1994C17.7538 30.262 17.7692 30.3758 17.7807 30.4715L17.7846 30.5015L20.3897 46.0908C20.432 46.4261 20.0384 46.7276 19.5111 46.7558C18.9846 46.7833 18.5227 46.5293 18.4765 46.1884L17.1523 30.5309Z" fill="#929292"/>
<path d="M15.4443 8.19083V1.92785C15.4443 1.40813 14.7946 0.985859 13.9951 0.985859C13.1965 0.985859 12.5469 1.40813 12.5469 1.92785V8.19083C12.5469 8.70987 13.1965 9.13281 13.9951 9.13281C14.7946 9.13281 15.4443 8.70987 15.4443 8.19083Z" fill="#929292"/>
<path d="M17.1699 46.3764V41.0765C17.1699 39.9428 15.7433 39.0154 13.999 39.0154C12.2548 39.0154 10.8281 39.9428 10.8281 41.0765V46.3764C10.8281 47.5096 12.2548 48.4375 13.999 48.4375C15.7433 48.4375 17.1699 47.5096 17.1699 46.3764Z" fill="#929292"/>
<path d="M16.1395 46.3724V41.0726C16.1395 40.3041 15.1772 39.6793 13.995 39.6793C12.8138 39.6793 11.8516 40.3041 11.8516 41.0726V46.3724C11.8516 47.1402 12.8138 47.7656 13.995 47.7656C15.1772 47.7656 16.1395 47.1402 16.1395 46.3724Z" fill="#929292"/>
<path d="M16.1394 11.7471V5.48441C16.1394 4.71761 15.1752 4.09088 13.9955 4.09088C12.8168 4.09088 11.8516 4.71761 11.8516 5.48441V11.7471C11.8516 12.5139 12.8168 13.1406 13.9955 13.1406C15.1752 13.1406 16.1394 12.5139 16.1394 11.7471Z" fill="#929292"/>
<path d="M15.4444 11.7536V5.49046C15.4444 4.97115 14.7946 4.54876 13.9957 4.54876C13.1967 4.54876 12.5469 4.97115 12.5469 5.49046V11.7536C12.5469 12.2729 13.1967 12.6953 13.9957 12.6953C14.7946 12.6953 15.4444 12.2729 15.4444 11.7536Z" fill="#929292"/>
<path d="M20.6493 17.1761C20.6493 12.8334 17.6706 11.8293 13.9961 11.8293C10.3215 11.8293 7.34375 12.8334 7.34375 17.1761C7.34375 21.5182 10.3215 27.5547 13.9961 27.5547C17.6706 27.5547 20.6493 21.5182 20.6493 17.1761Z" fill="#929292"/>
<path d="M19.6271 17.1798C19.6271 15.3596 19.0708 14.0703 17.9746 13.3465C17.0996 12.7697 15.8368 12.5009 14.0015 12.5009C11.0796 12.5009 8.375 13.0678 8.375 17.1798C8.375 21.6267 11.4252 26.8906 14.0015 26.8906C16.5778 26.8906 19.6271 21.6267 19.6271 17.1798Z" fill="#929292"/>
<path d="M16.815 23.4635C17.9296 21.5384 18.5963 19.188 18.5963 17.1752C18.5963 15.5605 18.1265 14.3964 17.2382 13.811C16.5696 13.3696 15.5396 13.1643 13.9969 13.1643C11.5736 13.1643 9.39844 13.471 9.39844 17.1752C9.39844 19.188 10.0642 21.5384 11.1798 23.4635C12.342 25.4707 13.5252 26.2188 13.9969 26.2188C14.4696 26.2188 15.6527 25.4707 16.815 23.4635Z" fill="#929292"/>
<path d="M10.4297 17.1761C10.4297 13.8331 12.1649 13.8331 14.0014 13.8331C15.6419 13.8331 16.2191 14.0886 16.5109 14.2807C17.1856 14.7259 17.5732 15.7813 17.5732 17.1761C17.5732 19.1124 16.9316 21.3753 15.8582 23.229C15.0987 24.5388 14.3853 25.194 14.0014 25.4531C13.6176 25.194 12.9041 24.5388 12.1447 23.229C11.0713 21.3748 10.4297 19.1124 10.4297 17.1761Z" fill="#929292"/>
<path d="M10.4297 17.177C10.4297 13.8332 12.1652 13.8332 14.0009 13.8332C15.642 13.8332 16.2193 14.0893 16.5112 14.2809C17.1858 14.7261 17.5731 15.7817 17.5731 17.177C17.5731 19.1132 16.9316 21.3755 15.8584 23.2295C15.0988 24.5394 14.3855 25.1946 14.0009 25.4531C13.6174 25.1946 12.9041 24.5394 12.1445 23.2295C11.0712 21.3755 10.4297 19.1132 10.4297 17.177Z" fill="#929292"/>
<path d="M19.5703 35.7266C20.1431 34.4854 20.2161 32.4403 19.7317 31.1828L18.5064 28.0008C18.0221 26.7434 15.9943 25.7145 14.0002 25.7145H13.9896C11.9954 25.7145 9.96766 26.7434 9.4833 28.0008L8.25798 31.1828C7.77362 32.4403 7.84666 34.4854 8.42039 35.7266L11.1786 41.7034C11.7504 42.9452 13.018 43.9609 13.9953 43.9609C14.9708 43.9609 16.2394 42.9452 16.8121 41.7034L19.5703 35.7266Z" fill="#929292"/>
<path d="M8.96875 33.1913C8.96875 32.4882 9.07185 31.833 9.25872 31.3484L10.4831 28.1663C10.855 27.2006 12.4623 26.3856 13.9931 26.3856C15.5341 26.3856 17.1414 27.2006 17.5133 28.1663L18.7386 31.3484C18.9255 31.8336 19.0286 32.4882 19.0286 33.1913C19.0286 34.0786 18.8684 34.9337 18.5895 35.538L15.8315 41.515C15.3141 42.6357 14.307 43.2717 13.9913 43.2969C13.6903 43.2717 12.6832 42.6357 12.1649 41.515L9.40693 35.538C9.12892 34.9337 8.96875 34.0786 8.96875 33.1913Z" fill="#929292"/>
<path d="M8.96875 33.1911C8.96875 32.4881 9.07175 31.8335 9.25868 31.3481L10.4833 28.1661C10.8552 27.2009 12.4622 26.3857 13.993 26.3857C15.5342 26.3857 17.1412 27.2009 17.5131 28.1661L18.7387 31.3481C18.9256 31.8335 19.0286 32.4881 19.0286 33.1917C19.0286 34.0788 18.8684 34.9343 18.5899 35.5381L15.8317 41.5146C15.3139 42.6354 14.3067 43.2721 13.9911 43.2969C13.6906 43.2721 12.6835 42.6354 12.1647 41.5146L9.4065 35.5381C9.12897 34.9343 8.96875 34.0788 8.96875 33.1917V33.1911Z" fill="#929292"/>
<path d="M9.90138 35.4375C9.63626 34.8631 9.48438 34.0427 9.48438 33.1865C9.48438 32.5098 9.58195 31.8839 9.7587 31.4243L10.984 28.2423C11.297 27.4285 12.7045 26.7141 13.9951 26.7141C15.2922 26.7141 16.7043 27.4285 17.0173 28.2423L18.2425 31.4243C18.4193 31.8839 18.5169 32.5098 18.5169 33.1865C18.5169 34.0427 18.365 34.8631 18.0998 35.4375H9.90138Z" fill="#929292"/>
<path d="M9.90168 35.4375C9.63647 34.8629 9.48438 34.0424 9.48438 33.1866C9.48438 32.5094 9.58133 31.8835 9.75814 31.4245L10.9834 28.2425C11.2971 27.4287 12.704 26.7145 13.9949 26.7145C15.2924 26.7145 16.704 27.4287 17.0167 28.2425L18.242 31.4245C18.4188 31.8842 18.5167 32.5094 18.5167 33.1866C18.5167 34.0424 18.3646 34.8629 18.0994 35.4375H9.90168Z" fill="#929292"/>
<path d="M15.9517 47.5817C15.9517 47.3988 15.7217 47.2487 15.4404 47.2487H12.5582C12.2768 47.2487 12.0469 47.3988 12.0469 47.5817C12.0469 47.7646 12.2768 47.9141 12.5582 47.9141H15.4404C15.7217 47.9141 15.9517 47.7646 15.9517 47.5817Z" fill="#929292"/>
<path d="M18.7583 10.5956C18.7583 8.92616 16.677 8.29556 14.1096 8.29556C11.5423 8.29556 9.46094 8.92616 9.46094 10.5956C9.46094 12.2643 11.5423 13.6172 14.1096 13.6172C16.677 13.6172 18.7583 12.2643 18.7583 10.5956Z" fill="#929292"/>
<path d="M9.97841 10.5127C10.8796 10.9094 12.2549 10.9058 13.6882 10.9028H14.5342C15.9685 10.9058 17.3438 10.9094 18.245 10.5127C18.2468 10.539 18.2468 10.5659 18.2468 10.5934C18.2468 12.0756 16.3919 13.2812 14.1117 13.2812C11.8315 13.2812 9.97656 12.0756 9.97656 10.5934C9.97656 10.5659 9.97656 10.5396 9.97841 10.5127Z" fill="#929292"/>
<path d="M9.97847 10.5127C10.8802 10.909 12.2556 10.9059 13.689 10.9028H14.5346C15.969 10.9059 17.3444 10.909 18.2452 10.5127C18.2471 10.5393 18.2471 10.5659 18.2471 10.5931C18.2471 12.075 16.3923 13.2812 14.1123 13.2812C11.8323 13.2812 9.97656 12.075 9.97656 10.5931C9.97656 10.5659 9.97656 10.5393 9.97847 10.5127Z" fill="#929292"/>
<path d="M14.1135 8.29432C12.0264 8.29432 10.2581 8.71136 9.67188 9.76532C10.2581 10.6373 12.0264 10.5691 14.1135 10.5691C16.2016 10.5691 17.968 10.6373 18.5551 9.76532C17.968 8.71136 16.2016 8.29432 14.1135 8.29432Z" fill="#929292"/>
<path d="M10.2344 9.74532C10.8923 8.82451 12.6869 8.62611 14.1103 8.62611C15.5318 8.62611 17.3273 8.82451 17.9852 9.74532C17.5143 10.2152 16.3409 10.2378 14.5366 10.2341H13.683C11.8787 10.2378 10.7053 10.2152 10.2344 9.74532Z" fill="#929292"/>
<path d="M14.1094 13.0631V12.4743H19.9575C20.0359 12.4723 22.3331 12.4214 23.5848 13.1872L27.4403 15.6501L26.8059 16.0703L22.9574 13.612C22.1522 13.1193 20.5315 13.0487 19.9756 13.0631H14.1094Z" fill="#929292"/>
<path d="M27.6446 16.1873C27.9249 16.0018 27.9208 15.703 27.6345 15.5208L23.9139 13.1437C24.0339 13.0834 24.2063 13.0192 24.411 13.0113C24.664 13.0008 24.9232 13.0801 25.1752 13.244L27.5709 14.8739C27.6395 14.9211 27.7534 14.923 27.826 14.8778C27.8986 14.8333 27.9017 14.7585 27.8321 14.7114L25.4334 13.0795C25.1016 12.8632 24.7477 12.7609 24.3857 12.776C24.057 12.7898 23.7969 12.8979 23.6346 12.9884C23.3563 12.8861 22.9963 12.9137 22.7624 13.0683C22.6232 13.1601 22.5547 13.28 22.5547 13.3986C22.5547 13.5205 22.6263 13.6424 22.7705 13.7348L26.6191 16.1932C26.9045 16.3754 27.3632 16.3728 27.6446 16.1873Z" fill="#929292"/>
<path d="M14.1118 13.0636V12.4746H8.26447C8.18515 12.4722 5.88857 12.4218 4.63624 13.1879L0.78125 15.6506L1.41582 16.0703L5.26428 13.6119C6.06868 13.12 7.68963 13.049 8.2458 13.0636H14.1118Z" fill="#929292"/>
<path d="M0.582338 16.1878C0.301492 16.0016 0.305212 15.7036 0.591637 15.5211L4.31239 13.1437C4.19336 13.0833 4.01945 13.0192 3.81579 13.0114C3.56098 13.0011 3.30338 13.0803 3.05137 13.2441L0.655808 14.8743C0.586991 14.9214 0.471677 14.9233 0.400071 14.8779C0.327534 14.8332 0.324742 14.7589 0.393559 14.7117L2.79284 13.0797C3.12483 12.8633 3.47822 12.7611 3.8409 12.7762C4.17011 12.7901 4.42956 12.8983 4.5923 12.9884C4.87036 12.8862 5.22932 12.9134 5.4646 13.0688C5.60316 13.1607 5.67199 13.2797 5.67199 13.3988C5.67199 13.5209 5.60038 13.643 5.45623 13.7349L1.60715 16.1932C1.32165 16.3752 0.863184 16.3728 0.582338 16.1878Z" fill="#929292"/>
<path d="M14.1149 12.0933C15.5859 12.0933 16.7767 12.868 16.7767 13.8235C16.7767 14.7796 15.5859 15.1406 14.1149 15.1406C12.6449 15.1406 11.4531 14.7796 11.4531 13.8235C11.4531 12.868 12.6449 12.0933 14.1149 12.0933Z" fill="#929292"/>
<path d="M16.4766 13.8672C15.9602 13.6404 15.1731 13.6422 14.352 13.644H13.8678C13.0466 13.6422 12.2595 13.6404 11.7431 13.8672C11.7422 13.8522 11.7422 13.8367 11.7422 13.8211C11.7422 12.9726 12.8045 12.2822 14.1099 12.2822C15.4152 12.2822 16.4775 12.9726 16.4775 13.8211C16.4775 13.8367 16.4775 13.8516 16.4766 13.8672Z" fill="#929292"/>
<path d="M16.4767 13.8672C15.9608 13.6398 15.1737 13.6416 14.352 13.6434H13.8679C13.0471 13.6416 12.26 13.6398 11.7431 13.8672C11.7422 13.8519 11.7422 13.8361 11.7422 13.8208C11.7422 12.9721 12.805 12.2818 14.1099 12.2818C15.4158 12.2818 16.4777 12.9721 16.4777 13.8208C16.4777 13.8361 16.4777 13.8519 16.4767 13.8672Z" fill="#929292"/>
<path d="M14.1145 15.1406C15.31 15.1406 16.3206 14.9013 16.6568 14.2982C16.3206 13.7989 15.31 13.8379 14.1145 13.8379C12.918 13.8379 11.9065 13.7989 11.5703 14.2982C11.9065 14.9013 12.918 15.1406 14.1145 15.1406Z" fill="#929292"/>
<path d="M16.3282 14.3045C15.9514 14.832 14.9243 14.9453 14.1099 14.9453C13.2945 14.9453 12.2674 14.832 11.8906 14.3045C12.1605 14.0352 12.8316 14.0224 13.8653 14.0249H14.3535C15.3872 14.0224 16.0583 14.0352 16.3282 14.3045Z" fill="#929292"/>
<path d="M14.1106 25.379C11.7182 25.379 9.73743 24.0995 9.40302 22.433C9.36967 22.5971 9.35156 22.7643 9.35156 22.9353C9.35156 24.8389 11.4819 26.3828 14.1106 26.3828C16.7383 26.3828 18.8686 24.8389 18.8686 22.9353C18.8686 22.7643 18.8515 22.5971 18.8182 22.433C18.4828 24.0995 16.503 25.379 14.1106 25.379Z" fill="#929292"/>
</svg>
