<svg width="17" height="17" viewBox="0 0 17 17" fill="none" xmlns="http://www.w3.org/2000/svg">
<path d="M7.28906 6.12891V10.1289L10.4224 12.0622L10.9557 11.2622L8.28906 9.66224V6.12891H7.28906Z" fill="#9C4900"/>
<path d="M12.5743 8.79818C12.6748 9.4608 12.6304 10.1373 12.4444 10.7812C12.2583 11.4251 11.9349 12.0209 11.4965 12.5278C11.058 13.0347 10.5149 13.4405 9.90458 13.7174C9.29423 13.9942 8.63113 14.1355 7.96094 14.1315C5.36094 14.1315 3.29427 12.0648 3.29427 9.46484C3.29427 6.86484 5.36094 4.79818 7.96094 4.79818C8.4276 4.79818 8.87427 4.86484 9.29427 4.99151V3.61818C8.8676 3.51818 8.42094 3.46484 7.96094 3.46484C4.6276 3.46484 1.96094 6.13151 1.96094 9.46484C1.96094 12.7982 4.6276 15.4648 7.96094 15.4648C8.80606 15.4684 9.64231 15.2925 10.4145 14.949C11.1866 14.6055 11.8772 14.1021 12.4404 13.4721C13.0037 12.842 13.4269 12.0996 13.6821 11.294C13.9373 10.4883 14.0187 9.63763 13.9209 8.79818H12.5743Z" fill="#9C4900"/>
<path d="M13.9583 4.12891V2.12891H12.625V4.12891H10.625V5.46224H12.625V7.46224H13.9583V5.46224H15.9583V4.12891H13.9583Z" fill="#9C4900"/>
</svg>
