<svg width="51" height="51" viewBox="0 0 51 51" fill="none" xmlns="http://www.w3.org/2000/svg">
<circle cx="25.7969" cy="25.5" r="25" fill="#9C4900"/>
<path d="M12.0469 35.5V32C12.0469 31.2917 12.2294 30.6404 12.5944 30.0463C12.9585 29.4529 13.4427 29 14.0469 28.6875C15.3385 28.0417 16.651 27.5571 17.9844 27.2338C19.3177 26.9113 20.6719 26.75 22.0469 26.75C23.4219 26.75 24.776 26.9113 26.1094 27.2338C27.4427 27.5571 28.7552 28.0417 30.0469 28.6875C30.651 29 31.1352 29.4529 31.4994 30.0463C31.8644 30.6404 32.0469 31.2917 32.0469 32V35.5H12.0469ZM34.5469 35.5V31.75C34.5469 30.8333 34.2919 29.9529 33.7819 29.1088C33.271 28.2654 32.5469 27.5417 31.6094 26.9375C32.6719 27.0625 33.6719 27.2758 34.6094 27.5775C35.5469 27.88 36.4219 28.25 37.2344 28.6875C37.9844 29.1042 38.5573 29.5675 38.9531 30.0775C39.349 30.5883 39.5469 31.1458 39.5469 31.75V35.5H34.5469ZM22.0469 25.5C20.6719 25.5 19.4948 25.0104 18.5156 24.0312C17.5365 23.0521 17.0469 21.875 17.0469 20.5C17.0469 19.125 17.5365 17.9479 18.5156 16.9688C19.4948 15.9896 20.6719 15.5 22.0469 15.5C23.4219 15.5 24.599 15.9896 25.5781 16.9688C26.5573 17.9479 27.0469 19.125 27.0469 20.5C27.0469 21.875 26.5573 23.0521 25.5781 24.0312C24.599 25.0104 23.4219 25.5 22.0469 25.5ZM34.5469 20.5C34.5469 21.875 34.0573 23.0521 33.0781 24.0312C32.099 25.0104 30.9219 25.5 29.5469 25.5C29.3177 25.5 29.026 25.4742 28.6719 25.4225C28.3177 25.37 28.026 25.3125 27.7969 25.25C28.3594 24.5833 28.7915 23.8437 29.0931 23.0312C29.3956 22.2187 29.5469 21.375 29.5469 20.5C29.5469 19.625 29.3956 18.7812 29.0931 17.9688C28.7915 17.1562 28.3594 16.4167 27.7969 15.75C28.0885 15.6458 28.3802 15.5779 28.6719 15.5463C28.9635 15.5154 29.2552 15.5 29.5469 15.5C30.9219 15.5 32.099 15.9896 33.0781 16.9688C34.0573 17.9479 34.5469 19.125 34.5469 20.5ZM14.5469 33H29.5469V32C29.5469 31.7708 29.4898 31.5625 29.3756 31.375C29.2606 31.1875 29.1094 31.0417 28.9219 30.9375C27.7969 30.375 26.6615 29.9529 25.5156 29.6712C24.3698 29.3904 23.2135 29.25 22.0469 29.25C20.8802 29.25 19.724 29.3904 18.5781 29.6712C17.4323 29.9529 16.2969 30.375 15.1719 30.9375C14.9844 31.0417 14.8335 31.1875 14.7194 31.375C14.6044 31.5625 14.5469 31.7708 14.5469 32V33ZM22.0469 23C22.7344 23 23.3231 22.755 23.8131 22.265C24.3023 21.7758 24.5469 21.1875 24.5469 20.5C24.5469 19.8125 24.3023 19.2242 23.8131 18.735C23.3231 18.245 22.7344 18 22.0469 18C21.3594 18 20.771 18.245 20.2819 18.735C19.7919 19.2242 19.5469 19.8125 19.5469 20.5C19.5469 21.1875 19.7919 21.7758 20.2819 22.265C20.771 22.755 21.3594 23 22.0469 23Z" fill="#F6EFE9"/>
</svg>
