<svg width="53" height="53" viewBox="0 0 53 53" fill="none" xmlns="http://www.w3.org/2000/svg">
<g filter="url(#filter0_d_469_8367)">
<rect x="4.60938" y="2.21875" width="44" height="44" rx="22" fill="white" shape-rendering="crispEdges"/>
<path d="M25.8021 15.8848C24.7078 15.8848 23.6242 16.1003 22.6131 16.5191C21.6021 16.9379 20.6834 17.5517 19.9096 18.3255C18.3468 19.8883 17.4688 22.008 17.4688 24.2181C17.4615 26.1424 18.1278 28.0085 19.3521 29.4931L17.6855 31.1598C17.5698 31.277 17.4915 31.4258 17.4604 31.5874C17.4292 31.7491 17.4467 31.9163 17.5105 32.0681C17.5797 32.218 17.6919 32.344 17.8328 32.4301C17.9738 32.5161 18.1371 32.5584 18.3021 32.5514H25.8021C28.0123 32.5514 30.1319 31.6735 31.6947 30.1107C33.2575 28.5479 34.1355 26.4282 34.1355 24.2181C34.1355 22.008 33.2575 19.8883 31.6947 18.3255C30.1319 16.7627 28.0123 15.8848 25.8021 15.8848ZM25.8021 30.8848H20.3105L21.0855 30.1098C21.2407 29.9536 21.3278 29.7424 21.3278 29.5223C21.3278 29.3021 21.2407 29.0909 21.0855 28.9348C19.9943 27.8448 19.3148 26.4102 19.1627 24.8754C19.0106 23.3406 19.3954 21.8006 20.2515 20.5177C21.1076 19.2348 22.382 18.2884 23.8576 17.8397C25.3332 17.3911 26.9187 17.4679 28.344 18.0572C29.7693 18.6465 30.9462 19.7117 31.6742 21.0713C32.4022 22.431 32.6362 24.0011 32.3364 25.5139C32.0366 27.0268 31.2216 28.389 30.0301 29.3683C28.8386 30.3476 27.3444 30.8836 25.8021 30.8848Z" fill="#9C4900"/>
</g>
<defs>
<filter id="filter0_d_469_8367" x="0.609375" y="0.21875" width="52" height="52" filterUnits="userSpaceOnUse" color-interpolation-filters="sRGB">
<feFlood flood-opacity="0" result="BackgroundImageFix"/>
<feColorMatrix in="SourceAlpha" type="matrix" values="0 0 0 0 0 0 0 0 0 0 0 0 0 0 0 0 0 0 127 0" result="hardAlpha"/>
<feOffset dy="2"/>
<feGaussianBlur stdDeviation="2"/>
<feComposite in2="hardAlpha" operator="out"/>
<feColorMatrix type="matrix" values="0 0 0 0 0.575 0 0 0 0 0.563021 0 0 0 0 0.563021 0 0 0 0.2 0"/>
<feBlend mode="normal" in2="BackgroundImageFix" result="effect1_dropShadow_469_8367"/>
<feBlend mode="normal" in="SourceGraphic" in2="effect1_dropShadow_469_8367" result="shape"/>
</filter>
</defs>
</svg>
