<svg width="19" height="19" viewBox="0 0 19 19" fill="none" xmlns="http://www.w3.org/2000/svg">
<path d="M13.0822 0C13.8067 0.00011653 14.5104 0.242245 15.0815 0.687935C15.6526 1.13363 16.0584 1.75733 16.2345 2.46L16.6195 4H17.5326C17.7138 4.00001 17.889 4.06564 18.0256 4.18477C18.1622 4.30389 18.251 4.46845 18.2756 4.648L18.2826 4.75C18.2826 4.93124 18.217 5.10634 18.0979 5.24293C17.9787 5.37952 17.8142 5.46835 17.6346 5.493L17.5326 5.5H16.9965L17.2046 6.326C17.5351 6.52664 17.8084 6.8091 17.9979 7.14612C18.1875 7.48315 18.2869 7.86334 18.2866 8.25V16.747C18.2866 17.2111 18.1023 17.6562 17.774 17.9844C17.4458 18.3126 17.0007 18.497 16.5365 18.497H15.0324C14.5682 18.497 14.1231 18.3126 13.7949 17.9844C13.4666 17.6562 13.2823 17.2111 13.2823 16.747L13.2813 15.5H5.28564V16.747C5.28564 17.2111 5.10125 17.6562 4.77304 17.9844C4.44482 18.3126 3.99967 18.497 3.5355 18.497H2.03139C1.56722 18.497 1.12207 18.3126 0.793853 17.9844C0.465639 17.6562 0.28125 17.2111 0.28125 16.747V8.25C0.28125 7.435 0.714283 6.721 1.36333 6.327L1.57035 5.5H1.03131C0.850057 5.49999 0.674939 5.43436 0.538339 5.31523C0.40174 5.19611 0.312901 5.03155 0.288251 4.852L0.28125 4.75C0.281258 4.56876 0.346898 4.39366 0.466031 4.25707C0.585165 4.12048 0.749733 4.03165 0.9293 4.007L1.03131 4H1.94438L2.33041 2.462C2.50617 1.75879 2.91198 1.13451 3.48333 0.688416C4.05467 0.242318 4.75876 5.199e-06 5.48365 0H13.0812H13.0822ZM3.78452 15.5H1.78037L1.78137 16.747C1.78137 16.885 1.89338 16.997 2.03139 16.997H3.5355C3.60181 16.997 3.66541 16.9707 3.71229 16.9238C3.75918 16.8769 3.78552 16.8133 3.78552 16.747V15.5H3.78452ZM16.7855 15.5H14.7804L14.7814 16.747C14.7814 16.885 14.8934 16.997 15.0314 16.997H16.5355C16.6018 16.997 16.6654 16.9707 16.7123 16.9238C16.7592 16.8769 16.7855 16.8133 16.7855 16.747V15.5ZM16.0355 7.5H2.53142C2.3325 7.5 2.14172 7.57902 2.00105 7.71967C1.86039 7.86032 1.78137 8.05109 1.78137 8.25V14H16.7865V8.25C16.7865 8.05109 16.7075 7.86032 16.5668 7.71967C16.4262 7.57902 16.2344 7.5 16.0355 7.5ZM7.53181 11H11.0341C11.224 11.0003 11.4068 11.0727 11.5455 11.2025C11.6841 11.3323 11.7684 11.5099 11.7812 11.6994C11.794 11.8889 11.7345 12.0762 11.6145 12.2235C11.4946 12.3708 11.3233 12.4671 11.1351 12.493L11.0341 12.5H7.53181C7.34178 12.4999 7.15884 12.4278 7.01998 12.298C6.88112 12.1683 6.79668 11.9907 6.78373 11.8011C6.77078 11.6115 6.83027 11.4241 6.9502 11.2767C7.07013 11.1293 7.24154 11.0329 7.42981 11.007L7.53181 11ZM14.2823 9C14.5476 9 14.8019 9.10536 14.9895 9.29289C15.1771 9.48043 15.2824 9.73478 15.2824 10C15.2824 10.2652 15.1771 10.5196 14.9895 10.7071C14.8019 10.8946 14.5476 11 14.2823 11C14.0171 11 13.7627 10.8946 13.5752 10.7071C13.3876 10.5196 13.2823 10.2652 13.2823 10C13.2823 9.73478 13.3876 9.48043 13.5752 9.29289C13.7627 9.10536 14.0171 9 14.2823 9ZM4.28156 9C4.5468 9 4.80117 9.10536 4.98872 9.29289C5.17627 9.48043 5.28164 9.73478 5.28164 10C5.28164 10.2652 5.17627 10.5196 4.98872 10.7071C4.80117 10.8946 4.5468 11 4.28156 11C4.01632 11 3.76195 10.8946 3.5744 10.7071C3.38685 10.5196 3.28148 10.2652 3.28148 10C3.28148 9.73478 3.38685 9.48043 3.5744 9.29289C3.76195 9.10536 4.01632 9 4.28156 9ZM13.0822 1.5H5.48265C5.09225 1.49997 4.71304 1.63047 4.40534 1.87074C4.09764 2.11101 3.87911 2.44725 3.78452 2.826L2.99246 6H15.5754L14.7794 2.824C14.6844 2.44562 14.4657 2.10983 14.1581 1.86995C13.8504 1.63007 13.4714 1.49986 13.0812 1.5H13.0822Z" fill="#9C4900"/>
</svg>
