<svg width="37" height="36" viewBox="0 0 37 36" fill="none" xmlns="http://www.w3.org/2000/svg">
<circle cx="18.1719" cy="18" r="18" fill="white"/>
<circle cx="18.1719" cy="18" r="17.5" stroke="#9C4900" stroke-opacity="0.5"/>
<mask id="mask0_828_737" style="mask-type:alpha" maskUnits="userSpaceOnUse" x="4" y="4" width="28" height="28">
<rect x="4.67188" y="4.5" width="27" height="27" fill="#D9D9D9"/>
</mask>
<g mask="url(#mask0_828_737)">
<path d="M18.1719 24.1875C19.5781 24.1875 20.7736 23.6955 21.7584 22.7115C22.7424 21.7267 23.2344 20.5312 23.2344 19.125C23.2344 17.7188 22.7424 16.5233 21.7584 15.5385C20.7736 14.5545 19.5781 14.0625 18.1719 14.0625C16.7656 14.0625 15.5701 14.5545 14.5854 15.5385C13.6014 16.5233 13.1094 17.7188 13.1094 19.125C13.1094 20.5312 13.6014 21.7267 14.5854 22.7115C15.5701 23.6955 16.7656 24.1875 18.1719 24.1875ZM9.17188 28.125C8.55313 28.125 8.02363 27.9049 7.58338 27.4646C7.14238 27.0236 6.92188 26.4937 6.92188 25.875V12.375C6.92188 11.7562 7.14238 11.2267 7.58338 10.7865C8.02363 10.3455 8.55313 10.125 9.17188 10.125H12.7156L14.7969 7.875H21.5469L23.6281 10.125H27.1719C27.7906 10.125 28.3205 10.3455 28.7615 10.7865C29.2017 11.2267 29.4219 11.7562 29.4219 12.375V25.875C29.4219 26.4937 29.2017 27.0236 28.7615 27.4646C28.3205 27.9049 27.7906 28.125 27.1719 28.125H9.17188Z" fill="#9C4900" fill-opacity="0.5"/>
</g>
</svg>
