<svg width="41" height="41" viewBox="0 0 41 41" fill="none" xmlns="http://www.w3.org/2000/svg">
<rect x="1.29688" y="1" width="39" height="39" rx="9.5" fill="white" stroke="#F6EFE9"/>
<path d="M25.942 26.307V27.259C25.938 27.3553 25.9141 27.4497 25.8719 27.5363C25.8297 27.6229 25.7701 27.6999 25.6968 27.7624C25.6235 27.8249 25.5381 27.8716 25.4459 27.8996C25.3537 27.9276 25.2567 27.9362 25.161 27.925H12.727C12.6361 27.9356 12.544 27.9258 12.4574 27.8964C12.3708 27.867 12.2918 27.8186 12.2262 27.7548C12.1606 27.691 12.11 27.6135 12.0782 27.5277C12.0463 27.4419 12.0339 27.3501 12.042 27.259V17.859C12.0332 17.7613 12.0441 17.6628 12.074 17.5693C12.1039 17.4758 12.1522 17.3893 12.216 17.3147C12.2798 17.2402 12.3579 17.1792 12.4457 17.1353C12.5334 17.0913 12.6291 17.0654 12.727 17.059H14.955C15.157 17.059 15.3506 17.1392 15.4935 17.282C15.6363 17.4249 15.7165 17.6185 15.7165 17.8205C15.7165 18.0225 15.6363 18.2162 15.4935 18.359C15.3506 18.5018 15.157 18.582 14.955 18.582H13.565V26.406H24.416V26.306C24.416 26.104 24.4962 25.9104 24.639 25.7675C24.7818 25.6247 24.9755 25.5445 25.1775 25.5445C25.3795 25.5445 25.5731 25.6247 25.716 25.7675C25.8588 25.9104 25.939 26.104 25.939 26.306L25.942 26.307ZM29.331 19.207L24.61 24.023C24.5031 24.1315 24.3663 24.2057 24.217 24.2362C24.0678 24.2666 23.9129 24.2519 23.772 24.194C23.6266 24.1368 23.5018 24.0373 23.4135 23.9085C23.3253 23.7796 23.2777 23.6272 23.277 23.471V21.395C21.754 21.357 18.099 21.509 16.766 23.851C16.7005 23.9708 16.6043 24.071 16.4872 24.1413C16.3702 24.2116 16.2365 24.2495 16.1 24.251C16.0361 24.2541 15.972 24.2477 15.91 24.232C15.7466 24.1881 15.6022 24.0917 15.499 23.9576C15.3958 23.8235 15.3396 23.6592 15.339 23.49C15.3962 21.5258 16.1814 19.6529 17.542 18.235C19.0757 16.7427 21.132 15.909 23.272 15.912V13.837C23.2738 13.6865 23.3199 13.5398 23.4045 13.4153C23.4892 13.2908 23.6086 13.194 23.748 13.137C23.8918 13.0782 24.0498 13.063 24.2022 13.0934C24.3547 13.1238 24.4947 13.1985 24.605 13.308L29.345 18.124C29.4836 18.2711 29.5594 18.4664 29.5562 18.6685C29.553 18.8705 29.4712 19.0634 29.328 19.206L29.331 19.207Z" fill="#9C4900"/>
</svg>
