<svg width="21" height="20" viewBox="0 0 21 20" fill="none" xmlns="http://www.w3.org/2000/svg">
<path fill-rule="evenodd" clip-rule="evenodd" d="M5.64062 0C4.31454 0 3.04277 0.526784 2.10509 1.46447C1.16741 2.40215 0.640625 3.67392 0.640625 5V15C0.640625 16.3261 1.16741 17.5979 2.10509 18.5355C3.04277 19.4732 4.31454 20 5.64062 20H15.6406C16.9667 20 18.2385 19.4732 19.1762 18.5355C20.1138 17.5979 20.6406 16.3261 20.6406 15V5C20.6406 3.67392 20.1138 2.40215 19.1762 1.46447C18.2385 0.526784 16.9667 0 15.6406 0H5.64062ZM14.3706 8.684C14.4604 8.58813 14.5305 8.47552 14.5768 8.35257C14.6231 8.22963 14.6447 8.09877 14.6405 7.96747C14.6362 7.83617 14.6061 7.707 14.5519 7.58732C14.4977 7.46765 14.4205 7.35982 14.3246 7.27C14.2288 7.18018 14.1161 7.11011 13.9932 7.06381C13.8703 7.01751 13.7394 6.99588 13.6081 7.00015C13.4768 7.00442 13.3476 7.03451 13.2279 7.08871C13.1083 7.1429 13.0004 7.22014 12.9106 7.316L9.82763 10.606L8.30462 9.253C8.10508 9.08712 7.84888 9.0053 7.59012 9.02482C7.33137 9.04434 7.09034 9.16368 6.91795 9.35762C6.74555 9.55156 6.6553 9.80492 6.66625 10.0642C6.6772 10.3234 6.78849 10.5683 6.97663 10.747L9.22663 12.747C9.42131 12.9199 9.67578 13.0101 9.93592 12.9983C10.1961 12.9866 10.4413 12.8738 10.6196 12.684L14.3706 8.684Z" fill="#9C4900"/>
</svg>
