<svg width="76" height="76" viewBox="0 0 76 76" fill="none" xmlns="http://www.w3.org/2000/svg">
<path d="M16.1558 66.4375C14.437 66.4375 12.9651 65.825 11.7401 64.6C10.5151 63.375 9.90368 61.9042 9.90577 60.1875V16.4375C9.90577 14.7188 10.5183 13.2469 11.7433 12.0219C12.9683 10.7969 14.4391 10.1854 16.1558 10.1875H59.9058C61.6245 10.1875 63.0964 10.8 64.3214 12.025C65.5464 13.25 66.1579 14.7208 66.1558 16.4375V60.1875C66.1558 61.9063 65.5433 63.3781 64.3183 64.6031C63.0933 65.8281 61.6224 66.4396 59.9058 66.4375H16.1558ZM16.1558 60.1875H59.9058V16.4375H16.1558V60.1875ZM19.2808 53.9375H56.7808L45.062 38.3125L35.687 50.8125L28.6558 41.4375L19.2808 53.9375Z" fill="#9C4900"/>
</svg>
