<svg width="200" height="201" viewBox="0 0 200 201" fill="none" xmlns="http://www.w3.org/2000/svg">
<path d="M200 100.656C200 74.1346 189.464 48.6992 170.711 29.9456C151.957 11.1919 126.522 0.656252 100 0.65625C73.4784 0.656248 48.043 11.1919 29.2893 29.9456C10.5357 48.6992 4.00466e-06 74.1346 0 100.656L100 100.656H200Z" fill="#F6EFE9"/>
<g filter="url(#filter0_d_584_19658)">
<circle cx="100" cy="100.656" r="50" fill="#9C4900"/>
</g>
<path d="M101.26 80.6562C112.32 80.6562 121.28 89.6562 121.28 100.656C121.28 111.656 112.32 120.656 101.26 120.656C94.24 120.656 88.1 117.016 84.52 111.516L87.68 109.016C90.5 113.596 95.52 116.656 101.28 116.656C105.523 116.656 109.593 114.971 112.594 111.97C115.594 108.969 117.28 104.9 117.28 100.656C117.28 96.4128 115.594 92.3431 112.594 89.3425C109.593 86.342 105.523 84.6562 101.28 84.6562C93.12 84.6562 86.4 90.7762 85.42 98.6562H90.94L83.46 106.116L76 98.6562H81.38C82.38 88.5562 90.9 80.6562 101.26 80.6562ZM107.18 97.1362C108.18 97.1562 109 97.9562 109 98.9762V108.196C109 109.196 108.18 110.036 107.16 110.036H96.1C95.08 110.036 94.26 109.196 94.26 108.196V98.9762C94.26 97.9562 95.08 97.1562 96.08 97.1362V95.1162C96.08 92.0562 98.58 89.5763 101.62 89.5763C104.68 89.5763 107.18 92.0562 107.18 95.1162V97.1362ZM101.62 92.3763C100.12 92.3763 98.88 93.5962 98.88 95.1162V97.1362H104.38V95.1162C104.38 93.5962 103.14 92.3763 101.62 92.3763Z" fill="#F6EFE9"/>
<defs>
<filter id="filter0_d_584_19658" x="44" y="44.6562" width="120" height="120" filterUnits="userSpaceOnUse" color-interpolation-filters="sRGB">
<feFlood flood-opacity="0" result="BackgroundImageFix"/>
<feColorMatrix in="SourceAlpha" type="matrix" values="0 0 0 0 0 0 0 0 0 0 0 0 0 0 0 0 0 0 127 0" result="hardAlpha"/>
<feOffset dx="4" dy="4"/>
<feGaussianBlur stdDeviation="5"/>
<feComposite in2="hardAlpha" operator="out"/>
<feColorMatrix type="matrix" values="0 0 0 0 0.845833 0 0 0 0 0.842309 0 0 0 0 0.84363 0 0 0 1 0"/>
<feBlend mode="normal" in2="BackgroundImageFix" result="effect1_dropShadow_584_19658"/>
<feBlend mode="normal" in="SourceGraphic" in2="effect1_dropShadow_584_19658" result="shape"/>
</filter>
</defs>
</svg>
