<svg width="9" height="6" viewBox="0 0 9 6" fill="none" xmlns="http://www.w3.org/2000/svg">
<path d="M0.835938 0.878645C0.958161 0.756423 1.11372 0.695312 1.3026 0.695312C1.49149 0.695312 1.64705 0.756423 1.76927 0.878645L4.36927 3.47865L6.96927 0.878646C7.09149 0.756423 7.24705 0.695312 7.43594 0.695312C7.62483 0.695312 7.78038 0.756423 7.9026 0.878646C8.02483 1.00087 8.08594 1.15642 8.08594 1.34531C8.08594 1.5342 8.02483 1.68976 7.9026 1.81198L4.83594 4.87865C4.76927 4.94531 4.69705 4.99265 4.61927 5.02065C4.54149 5.0482 4.45816 5.06198 4.36927 5.06198C4.28038 5.06198 4.19705 5.0482 4.11927 5.02065C4.04149 4.99265 3.96927 4.94531 3.9026 4.87865L0.835938 1.81198C0.713716 1.68976 0.652604 1.5342 0.652604 1.34531C0.652604 1.15642 0.713716 1.00087 0.835938 0.878645Z" fill="#9C4900"/>
</svg>
