<svg width="25" height="24" viewBox="0 0 25 24" fill="none" xmlns="http://www.w3.org/2000/svg">
<mask id="mask0_428_57066" style="mask-type:alpha" maskUnits="userSpaceOnUse" x="0" y="0" width="25" height="24">
<rect x="0.796875" width="24" height="24" fill="#D9D9D9"/>
</mask>
<g mask="url(#mask0_428_57066)">
<path d="M15.7969 12L11.7969 8V11H3.79688V13H11.7969V16M21.7969 18V6C21.7969 5.46957 21.5862 4.96086 21.2111 4.58579C20.836 4.21071 20.3273 4 19.7969 4H7.79688C7.26644 4 6.75773 4.21071 6.38266 4.58579C6.00759 4.96086 5.79688 5.46957 5.79688 6V9H7.79688V6H19.7969V18H7.79688V15H5.79688V18C5.79688 18.5304 6.00759 19.0391 6.38266 19.4142C6.75773 19.7893 7.26644 20 7.79688 20H19.7969C20.3273 20 20.836 19.7893 21.2111 19.4142C21.5862 19.0391 21.7969 18.5304 21.7969 18Z" fill="#9C4900"/>
</g>
</svg>
