<svg width="41" height="41" viewBox="0 0 41 41" fill="none" xmlns="http://www.w3.org/2000/svg">
<circle cx="20.5469" cy="20.01" r="20" fill="#FF9932"/>
<path d="M21.2464 11.6102L28.8672 24.8102C28.9374 24.9318 28.9744 25.0698 28.9744 25.2102C28.9744 25.3507 28.9374 25.4886 28.8672 25.6102C28.797 25.7318 28.696 25.8328 28.5744 25.903C28.4528 25.9733 28.3148 26.0102 28.1744 26.0102H12.9328C12.7924 26.0102 12.6544 25.9733 12.5328 25.903C12.4112 25.8328 12.3102 25.7318 12.24 25.6102C12.1698 25.4886 12.1328 25.3507 12.1328 25.2102C12.1328 25.0698 12.1698 24.9318 12.24 24.8102L19.8608 11.6102C19.931 11.4886 20.032 11.3876 20.1536 11.3174C20.2752 11.2472 20.4132 11.2103 20.5536 11.2103C20.694 11.2103 20.832 11.2472 20.9536 11.3174C21.0752 11.3876 21.1762 11.4886 21.2464 11.6102ZM14.3184 24.4102H26.7888L20.5544 13.6102L14.3184 24.4102ZM19.7536 22.0102H21.3536V23.6102H19.7536V22.0102ZM19.7536 16.4102H21.3536V20.4102H19.7536V16.4102Z" fill="white"/>
</svg>
