<svg width="41" height="41" viewBox="0 0 41 41" fill="none" xmlns="http://www.w3.org/2000/svg">
<circle cx="20.6641" cy="20.01" r="20" fill="#FC3033"/>
<path d="M21.3636 11.6102L28.9844 24.8102C29.0546 24.9318 29.0916 25.0698 29.0916 25.2102C29.0916 25.3507 29.0546 25.4886 28.9844 25.6102C28.9142 25.7318 28.8132 25.8328 28.6916 25.903C28.57 25.9733 28.432 26.0102 28.2916 26.0102H13.05C12.9096 26.0102 12.7716 25.9733 12.65 25.903C12.5284 25.8328 12.4274 25.7318 12.3572 25.6102C12.287 25.4886 12.25 25.3507 12.25 25.2102C12.25 25.0698 12.287 24.9318 12.3572 24.8102L19.978 11.6102C20.0482 11.4886 20.1492 11.3876 20.2708 11.3174C20.3924 11.2472 20.5304 11.2103 20.6708 11.2103C20.8112 11.2103 20.9492 11.2472 21.0708 11.3174C21.1924 11.3876 21.2934 11.4886 21.3636 11.6102ZM14.4356 24.4102H26.906L20.6716 13.6102L14.4356 24.4102ZM19.8708 22.0102H21.4708V23.6102H19.8708V22.0102ZM19.8708 16.4102H21.4708V20.4102H19.8708V16.4102Z" fill="white"/>
</svg>
