<svg width="25" height="24" viewBox="0 0 25 24" fill="none" xmlns="http://www.w3.org/2000/svg">
<g clip-path="url(#clip0_2956_25423)">
<path d="M7.60937 13.5C8.20611 13.5 8.77841 13.2629 9.20037 12.841C9.62232 12.419 9.85937 11.8467 9.85937 11.25C9.85937 10.6533 9.62232 10.081 9.20037 9.65901C8.77841 9.23705 8.20611 9 7.60937 9C7.01264 9 6.44034 9.23705 6.01838 9.65901C5.59643 10.081 5.35938 10.6533 5.35938 11.25C5.35938 11.8467 5.59643 12.419 6.01838 12.841C6.44034 13.2629 7.01264 13.5 7.60937 13.5Z" fill="#9C4900"/>
<path d="M21.8594 19.5C21.8594 20.2956 21.5433 21.0587 20.9807 21.6213C20.4181 22.1839 19.655 22.5 18.8594 22.5H3.85938C3.06373 22.5 2.30066 22.1839 1.73805 21.6213C1.17545 21.0587 0.859375 20.2956 0.859375 19.5V7.5C0.859375 6.70487 1.17503 5.94226 1.73699 5.37974C2.29895 4.81722 3.06125 4.5008 3.85637 4.5C3.85637 3.70435 4.17245 2.94129 4.73505 2.37868C5.29766 1.81607 6.06073 1.5 6.85637 1.5H21.8564C22.652 1.5 23.4151 1.81607 23.9777 2.37868C24.5403 2.94129 24.8564 3.70435 24.8564 4.5V16.5C24.8564 17.2951 24.5407 18.0577 23.9788 18.6203C23.4168 19.1828 22.6545 19.4992 21.8594 19.5ZM21.8564 3H6.85637C6.45855 3 6.07702 3.15804 5.79571 3.43934C5.51441 3.72064 5.35637 4.10218 5.35637 4.5H18.8594C19.655 4.5 20.4181 4.81607 20.9807 5.37868C21.5433 5.94129 21.8594 6.70435 21.8594 7.5V18C22.2567 17.9992 22.6374 17.8408 22.9181 17.5596C23.1988 17.2784 23.3564 16.8973 23.3564 16.5V4.5C23.3564 4.10218 23.1983 3.72064 22.917 3.43934C22.6357 3.15804 22.2542 3 21.8564 3ZM3.85938 6C3.46155 6 3.08002 6.15804 2.79871 6.43934C2.51741 6.72064 2.35938 7.10218 2.35938 7.5V19.5L6.32837 15.969C6.45097 15.8468 6.61205 15.7709 6.78428 15.7539C6.95652 15.737 7.12931 15.7801 7.27338 15.876L11.2634 18.5355L16.8284 12.9705C16.9396 12.8592 17.083 12.7856 17.2384 12.7603C17.3937 12.735 17.5531 12.7592 17.6939 12.8295L20.3594 15.75V7.5C20.3594 7.10218 20.2013 6.72064 19.92 6.43934C19.6387 6.15804 19.2572 6 18.8594 6H3.85938Z" fill="#9C4900"/>
</g>
<defs>
<clipPath id="clip0_2956_25423">
<rect width="24" height="24" fill="white" transform="translate(0.859375)"/>
</clipPath>
</defs>
</svg>
