<svg width="21" height="21" viewBox="0 0 21 21" fill="none" xmlns="http://www.w3.org/2000/svg">
<path d="M8.44063 0.665276C8.77396 0.581942 9.06563 0.64861 9.31563 0.865277C9.56563 1.08194 9.69063 1.38194 9.69063 1.76528C9.69063 1.94861 9.61963 2.11961 9.47763 2.27828C9.33629 2.43628 9.17396 2.54028 8.99063 2.59028C8.52396 2.70694 8.06963 2.85294 7.62763 3.02828C7.18629 3.20294 6.76563 3.42361 6.36563 3.69028C6.18229 3.80694 5.99063 3.85694 5.79063 3.84028C5.59063 3.82361 5.42396 3.74861 5.29063 3.61528C5.02396 3.34861 4.90296 3.04461 4.92763 2.70328C4.95296 2.36128 5.11563 2.09861 5.41563 1.91528C5.88229 1.63194 6.36963 1.38594 6.87763 1.17728C7.38629 0.969275 7.90729 0.79861 8.44063 0.665276ZM3.84063 5.04028C3.97396 5.17361 4.05329 5.34427 4.07863 5.55228C4.10329 5.76094 4.05729 5.94861 3.94063 6.11528C3.69063 6.51528 3.47396 6.93628 3.29063 7.37828C3.10729 7.81961 2.96563 8.27361 2.86563 8.74028C2.81563 8.94028 2.70729 9.10694 2.54063 9.24028C2.37396 9.37361 2.19063 9.44028 1.99063 9.44028C1.62396 9.44028 1.33629 9.30694 1.12763 9.04028C0.919625 8.77361 0.857291 8.47361 0.940625 8.14028C1.07396 7.60694 1.24463 7.09028 1.45263 6.59028C1.66129 6.09028 1.90729 5.60694 2.19063 5.14028C2.37396 4.85694 2.62796 4.70294 2.95263 4.67828C3.27796 4.65294 3.57396 4.77361 3.84063 5.04028ZM2.01563 11.4403C2.19896 11.4403 2.37396 11.5069 2.54063 11.6403C2.70729 11.7736 2.81563 11.9403 2.86563 12.1403C2.96563 12.6069 3.10729 13.0613 3.29063 13.5033C3.47396 13.9446 3.69062 14.3653 3.94062 14.7653C4.05729 14.9319 4.10329 15.1236 4.07863 15.3403C4.05329 15.5569 3.97396 15.7319 3.84062 15.8653C3.59062 16.1319 3.29896 16.2486 2.96562 16.2153C2.63229 16.1819 2.37396 16.0236 2.19062 15.7403C1.89063 15.2736 1.63629 14.7903 1.42762 14.2903C1.21962 13.7903 1.04896 13.2736 0.915625 12.7403C0.832291 12.4069 0.898959 12.1069 1.11563 11.8403C1.33229 11.5736 1.63229 11.4403 2.01563 11.4403ZM12.9406 0.690276C15.174 1.22361 17.0156 2.39028 18.4656 4.19028C19.9156 5.99028 20.6406 8.07361 20.6406 10.4403C20.6406 12.8069 19.9156 14.8903 18.4656 16.6903C17.0156 18.4903 15.1656 19.6569 12.9156 20.1903C12.5823 20.2736 12.2906 20.2069 12.0406 19.9903C11.7906 19.7736 11.6656 19.4819 11.6656 19.1153C11.6656 18.9319 11.7363 18.7613 11.8776 18.6033C12.0196 18.4446 12.1823 18.3403 12.3656 18.2903C14.199 17.8736 15.703 16.9403 16.8776 15.4903C18.053 14.0403 18.6406 12.3569 18.6406 10.4403C18.6406 8.52361 18.053 6.84028 16.8776 5.39028C15.703 3.94028 14.2073 3.00694 12.3906 2.59028C12.2073 2.54028 12.0446 2.43628 11.9026 2.27828C11.7613 2.11961 11.6906 1.94028 11.6906 1.74028C11.6906 1.37361 11.8156 1.08594 12.0656 0.877277C12.3156 0.669276 12.6073 0.606942 12.9406 0.690276ZM6.31562 17.1653C6.73229 17.4319 7.15729 17.6569 7.59063 17.8403C8.02396 18.0236 8.48229 18.1736 8.96563 18.2903C9.14896 18.3403 9.31129 18.4446 9.45263 18.6033C9.59463 18.7613 9.66562 18.9403 9.66562 19.1403C9.66562 19.5069 9.54062 19.7986 9.29062 20.0153C9.04062 20.2319 8.74896 20.2986 8.41562 20.2153C7.88229 20.0819 7.36162 19.9113 6.85362 19.7033C6.34496 19.4946 5.85729 19.2486 5.39063 18.9653C5.09062 18.7819 4.92396 18.5196 4.89063 18.1783C4.85729 17.8363 4.97396 17.5319 5.24063 17.2653C5.37396 17.1319 5.54462 17.0569 5.75262 17.0403C5.96129 17.0236 6.14896 17.0653 6.31562 17.1653ZM10.6906 5.84028C10.824 5.84028 10.949 5.86528 11.0656 5.91528C11.1823 5.96528 11.2906 6.03194 11.3906 6.11528L15.0156 9.76528C15.199 9.94861 15.2906 10.1819 15.2906 10.4653C15.2906 10.7486 15.1906 10.9903 14.9906 11.1903C14.8073 11.3736 14.574 11.4653 14.2906 11.4653C14.0073 11.4653 13.7656 11.3736 13.5656 11.1903L11.6906 9.29028L11.6906 14.4153C11.6906 14.6986 11.5946 14.9363 11.4026 15.1283C11.2113 15.3196 10.974 15.4153 10.6906 15.4153C10.4073 15.4153 10.1696 15.3196 9.97763 15.1283C9.78629 14.9363 9.69062 14.6986 9.69062 14.4153L9.69063 9.29028L7.84063 11.1403C7.64063 11.3403 7.39896 11.4403 7.11563 11.4403C6.83229 11.4403 6.59063 11.3403 6.39063 11.1403C6.19063 10.9403 6.09496 10.6986 6.10363 10.4153C6.11163 10.1319 6.21563 9.89028 6.41563 9.69028L9.99063 6.11528C10.074 6.03194 10.178 5.96528 10.3026 5.91528C10.428 5.86528 10.5573 5.84028 10.6906 5.84028Z" fill="#9C4900"/>
</svg>
