<svg width="51" height="51" viewBox="0 0 51 51" fill="none" xmlns="http://www.w3.org/2000/svg">
<circle cx="25.1875" cy="25.1836" r="25" fill="#9C4900"/>
<mask id="mask0_1102_750" style="mask-type:alpha" maskUnits="userSpaceOnUse" x="9" y="9" width="31" height="31">
<rect x="9.76562" y="9.68359" width="30" height="30" fill="#D9D9D9"/>
</mask>
<g mask="url(#mask0_1102_750)">
<g clip-path="url(#clip0_1102_750)">
<path d="M20.7656 23.8555H28.9844V25.8086H20.7656V23.8555ZM20.7656 27.543H28.9844V29.4961H20.7656V27.543ZM20.7656 20.1055H28.9844V22.0586H20.7656V20.1055Z" fill="#F6EFE9"/>
<path d="M29.9844 13.7461L27.3281 12.6211L24.8906 13.7461L22.2812 12.6211L19.8281 13.7461L16.1094 12.1836V37.1836L19.8281 35.6211L22.2812 36.6992L24.8906 35.6211L27.3281 36.6992L29.9844 35.6211L33.4219 37.1836V12.1836L29.9844 13.7461ZM31.4531 34.2305L30.0156 33.5898L27.375 34.668L24.9219 33.543L22.2969 34.6211L19.875 33.543L18.0781 34.2773V15.0898L19.875 15.8242L22.2969 14.7461L24.9219 15.8242L27.375 14.7461L30.0156 15.8242L31.4531 15.1836V34.2305Z" fill="#F6EFE9"/>
</g>
</g>
<defs>
<clipPath id="clip0_1102_750">
<rect width="25" height="25" fill="white" transform="translate(12.2656 12.1836)"/>
</clipPath>
</defs>
</svg>
