<svg width="25" height="25" viewBox="0 0 25 25" fill="none" xmlns="http://www.w3.org/2000/svg">
<path d="M12.5902 4.4836C14.7892 4.4836 16.5884 6.2829 16.5884 8.48205C16.5884 10.5812 14.4893 13.9799 12.5902 16.379C10.691 13.8799 8.59196 10.5812 8.59196 8.48205C8.59196 6.2829 10.3912 4.4836 12.5902 4.4836ZM12.5902 2.48438C9.29164 2.48438 6.59285 5.18333 6.59285 8.48205C6.59285 12.9803 12.5902 19.4778 12.5902 19.4778C12.5902 19.4778 18.5875 12.8803 18.5875 8.48205C18.5875 5.18333 15.8887 2.48438 12.5902 2.48438ZM12.5902 6.48282C11.4907 6.48282 10.5911 7.38247 10.5911 8.48205C10.5911 9.58162 11.4907 10.4813 12.5902 10.4813C13.6897 10.4813 14.5893 9.58162 14.5893 8.48205C14.5893 7.38247 13.6897 6.48282 12.5902 6.48282ZM20.5866 19.4778C20.5866 21.6769 16.9882 23.4762 12.5902 23.4762C8.19214 23.4762 4.59375 21.6769 4.59375 19.4778C4.59375 18.1783 5.79321 17.0787 7.69236 16.279L8.29209 17.1787C7.29254 17.6785 6.59285 18.2782 6.59285 18.978C6.59285 20.3774 9.29164 21.477 12.5902 21.477C15.8887 21.477 18.5875 20.3774 18.5875 18.978C18.5875 18.2782 17.8878 17.6785 16.7883 17.1787L17.388 16.279C19.3871 17.0787 20.5866 18.1783 20.5866 19.4778Z" fill="#9C4900"/>
</svg>
