<svg width="69" height="33" viewBox="0 0 69 33" fill="none" xmlns="http://www.w3.org/2000/svg">
<path d="M45.5092 21.186C45.4606 21.1879 45.412 21.184 45.3643 21.1744H41.2056C41.1815 21.1734 41.1577 21.1699 41.1344 21.1641H30.2109C30.2998 21.2663 30.3436 21.326 30.3936 21.3771C31.1299 22.0709 31.6352 22.9742 31.8411 23.9648C31.8813 24.1559 31.9513 24.2083 32.1387 24.2083C37.1911 24.2034 42.2434 24.2018 47.2958 24.2034C47.3646 24.2034 47.4333 24.1936 47.521 24.1869V21.1805C46.8423 21.1805 46.1757 21.1701 45.5092 21.186Z" fill="#9C4900"/>
<path d="M18.4587 21.1918V21.1875H18.0046L17.8828 21.3671H17.8889C17.8889 21.9289 17.8834 22.4828 17.8919 23.0368C17.8919 23.2267 17.8974 23.4288 17.9601 23.6041C18.1068 24.0126 18.4349 24.2037 18.8574 24.208C19.8106 24.2169 20.7643 24.2159 21.7183 24.2049C21.8005 24.2049 21.9332 24.127 21.9563 24.057C22.4433 22.5486 22.4433 22.548 23.5962 21.1918H18.4587Z" fill="#9C4900"/>
<path d="M66.1404 24.1857C66.4971 24.1857 66.8417 24.1967 67.1838 24.1766C67.2531 24.1723 67.3664 24.0549 67.3743 23.9836C67.6135 22.0011 67.857 20.0191 68.0664 18.0334C68.1833 16.928 67.4966 15.9638 66.418 15.6789C63.7051 14.9606 60.9899 14.2519 58.2721 13.5527C58.008 13.4845 57.8929 13.3701 57.8357 13.1047C57.6263 12.1344 57.3962 11.1683 57.1661 10.2029C56.9603 9.31579 56.4594 8.5248 55.7455 7.95939C55.0316 7.39399 54.1469 7.08766 53.2362 7.09055C51.8672 7.08324 50.497 7.08568 49.1286 7.09055C48.1681 7.09359 47.5265 7.73335 47.5259 8.69695C47.5226 13.7574 47.5226 18.8179 47.5259 23.8783C47.5259 23.9678 47.5344 24.0579 47.5393 24.1669H56.183C56.4697 22.7126 57.2179 21.5494 58.4797 20.7434C59.3298 20.1942 60.3296 19.9228 61.3407 19.9667C63.5759 20.0465 65.6449 21.6383 66.1404 24.1857ZM49.4275 13.5819C49.4275 12.6207 49.4275 11.6906 49.4275 10.7599C49.4275 9.99291 49.8853 9.53637 50.6595 9.53393C51.6526 9.53028 52.6454 9.53028 53.638 9.53393C54.335 9.53393 54.7306 9.85047 54.8871 10.5316C55.0971 11.449 55.3016 12.3681 55.5074 13.2867C55.5281 13.3786 55.5402 13.4729 55.5591 13.5825L49.4275 13.5819Z" fill="#9C4900"/>
<path d="M65.5147 25.0319C65.5134 24.1716 65.2571 23.331 64.7782 22.6164C64.2992 21.9017 63.6192 21.3451 62.8241 21.0168C62.0289 20.6885 61.1542 20.6033 60.3106 20.7719C59.4671 20.9406 58.6924 21.3555 58.0845 21.9643C57.4767 22.5731 57.063 23.3484 56.8956 24.1922C56.7283 25.0361 56.8148 25.9106 57.1443 26.7052C57.4739 27.4999 58.0316 28.1791 58.747 28.6569C59.4623 29.1347 60.3033 29.3897 61.1636 29.3897C61.7359 29.391 62.3028 29.2791 62.8318 29.0605C63.3607 28.8419 63.8412 28.5208 64.2455 28.1158C64.6499 27.7108 64.9702 27.2298 65.188 26.7006C65.4059 26.1713 65.5169 25.6042 65.5147 25.0319ZM61.1959 27.2318C60.7602 27.2369 60.3328 27.1128 59.9677 26.8751C59.6026 26.6374 59.3161 26.2968 59.1445 25.8964C58.9729 25.4959 58.9238 25.0536 59.0035 24.6253C59.0832 24.197 59.2881 23.8019 59.5923 23.49C59.8965 23.178 60.2863 22.9633 60.7125 22.8729C61.1387 22.7824 61.5821 22.8203 61.9867 22.9818C62.3914 23.1434 62.739 23.4212 62.9858 23.7802C63.2326 24.1393 63.3674 24.5634 63.3732 24.999C63.3801 25.5837 63.1546 26.1472 62.7464 26.5658C62.3382 26.9844 61.7805 27.2239 61.1959 27.2318Z" fill="#9C4900"/>
<path d="M31.2955 25.0386C31.3008 23.8837 30.847 22.774 30.034 21.9536C29.221 21.1332 28.1155 20.6694 26.9605 20.6641C25.8056 20.6589 24.6958 21.1126 23.8755 21.9256C23.0551 22.7386 22.5912 23.8441 22.586 24.9991C22.5738 27.3956 24.5339 29.3715 26.9261 29.3757C27.4981 29.379 28.0652 29.2693 28.5947 29.0529C29.1241 28.8365 29.6057 28.5177 30.0117 28.1147C30.4176 27.7118 30.74 27.2326 30.9603 26.7047C31.1807 26.1768 31.2946 25.6107 31.2955 25.0386ZM26.9614 27.2215C26.5253 27.2249 26.0979 27.0988 25.7334 26.8592C25.3689 26.6196 25.0837 26.2773 24.9138 25.8755C24.7439 25.4738 24.697 25.0307 24.779 24.6023C24.861 24.1739 25.0682 23.7794 25.3745 23.4688C25.6807 23.1582 26.0722 22.9454 26.4995 22.8574C26.9267 22.7694 27.3704 22.81 27.7745 22.9742C28.1786 23.1385 28.5249 23.4188 28.7696 23.7799C29.0143 24.141 29.1464 24.5666 29.1492 25.0027C29.1519 25.2923 29.0974 25.5796 28.9888 25.848C28.8801 26.1164 28.7195 26.3608 28.5162 26.567C28.3128 26.7731 28.0707 26.9371 27.8038 27.0494C27.5369 27.1618 27.2504 27.2202 26.9608 27.2215H26.9614Z" fill="#9C4900"/>
<path d="M18.0649 21.1875C17.9409 21.2439 17.8224 21.3116 17.7107 21.3896C13.3742 24.4563 9.02003 27.4979 4.64823 30.5143C3.99751 30.961 4.11439 31.2508 4.4577 31.7926C4.83024 32.3794 5.0999 32.3574 5.64226 31.98C8.53854 29.9676 11.4659 28.0003 14.3859 26.0207C15.5741 25.2154 16.7714 24.4167 18.0649 23.5487V21.1875Z" fill="#9C4900"/>
<path d="M18.8705 24.208C18.8705 24.208 17.9257 24.1002 17.5063 24.3875L5.32349 32.5559C5.28608 32.5803 5.24136 32.591 5.19695 32.5861C5.15255 32.5812 5.11122 32.5611 5.08001 32.5291L4.50781 31.9313L18.0213 21.1875L18.8705 24.208Z" fill="#9C4900"/>
<path fill-rule="evenodd" clip-rule="evenodd" d="M5.72423 27.6069C5.82659 27.7814 5.93378 27.9642 6.20759 27.9724C6.23897 27.9549 6.27213 27.9375 6.30612 27.9197L6.30615 27.9197L6.30619 27.9197C6.38099 27.8805 6.45984 27.8391 6.53264 27.7898C7.32079 27.2497 8.10846 26.7083 8.89621 26.1669L8.89623 26.1668L8.89626 26.1668C10.5944 24.9996 12.2931 23.8321 13.9979 22.6766C14.4612 22.3631 14.3662 22.1202 14.0959 21.7343C12.4646 19.4069 10.8501 17.068 9.25239 14.7176C8.94742 14.269 8.7155 14.1515 8.22061 14.5003C5.82592 16.1872 3.41358 17.8482 0.983584 19.4832C0.517916 19.7961 0.441827 20 0.775403 20.473C1.80725 21.9344 2.82438 23.4056 3.84153 24.8769L3.8416 24.877L3.84161 24.877L3.84182 24.8773C4.4405 25.7433 5.03918 26.6093 5.64087 27.4732C5.67033 27.5149 5.69711 27.5606 5.72423 27.6069ZM4.88963 20.6254L4.15653 21.1503L6.25585 24.0826L6.98895 23.5578L4.88963 20.6254ZM5.95602 19.7974L6.68912 19.2726L8.78844 22.205L8.05534 22.7298L5.95602 19.7974ZM8.48861 17.907L7.75551 18.4319L9.85483 21.3643L10.5879 20.8394L8.48861 17.907Z" fill="#9C4900"/>
<path fill-rule="evenodd" clip-rule="evenodd" d="M28.689 20.2282C29.8457 20.2311 31.0025 20.234 32.1592 20.234C33.3497 20.234 34.5406 20.231 35.7317 20.228C38.8906 20.22 42.0508 20.212 45.2101 20.2602C46.3916 20.2785 46.7355 19.9729 46.7209 18.8224C46.6846 15.9044 46.688 12.9862 46.6914 10.0679C46.694 7.80127 46.6967 5.53458 46.6807 3.26789C46.6655 1.13921 45.5089 0.0307402 43.292 0.0222181C35.9919 -0.00740605 28.6927 -0.00740605 21.3946 0.0222181C19.1643 0.0313489 18.051 1.12217 18.0406 3.28129C18.0268 5.46646 18.0294 7.65186 18.0321 9.83724C18.0358 12.8368 18.0395 15.8363 18.0004 18.8352C17.9852 20.007 18.3651 20.2766 19.5265 20.259C22.58 20.2126 25.6345 20.2204 28.689 20.2282ZM33.3996 5.67586C33.0176 5.28533 33.0176 4.65217 33.3996 4.26164C33.7817 3.87112 34.4011 3.87112 34.7831 4.26164L39.6744 9.26164C40.0564 9.65217 40.0564 10.2853 39.6744 10.6759L34.7831 15.6759C34.4011 16.0664 33.7817 16.0664 33.3996 15.6759C33.0176 15.2853 33.0176 14.6522 33.3996 14.2616L36.6209 10.9687H25.9392C25.3989 10.9687 24.9609 10.521 24.9609 9.96875C24.9609 9.41647 25.3989 8.96875 25.9392 8.96875H36.6209L33.3996 5.67586Z" fill="#9C4900"/>
</svg>
