<svg width="17" height="22" viewBox="0 0 17 22" fill="none" xmlns="http://www.w3.org/2000/svg">
<path d="M2.64062 21.4414C2.09063 21.4414 1.61996 21.2457 1.22862 20.8544C0.836625 20.4624 0.640625 19.9914 0.640625 19.4414V9.44141C0.640625 8.89141 0.836625 8.42041 1.22862 8.02841C1.61996 7.63707 2.09063 7.44141 2.64062 7.44141H3.64062V5.44141C3.64062 4.05807 4.12829 2.87874 5.10363 1.90341C6.07829 0.928739 7.25729 0.441406 8.64062 0.441406C10.024 0.441406 11.2033 0.928739 12.1786 1.90341C13.1533 2.87874 13.6406 4.05807 13.6406 5.44141V7.44141H14.6406C15.1906 7.44141 15.6616 7.63707 16.0536 8.02841C16.445 8.42041 16.6406 8.89141 16.6406 9.44141V19.4414C16.6406 19.9914 16.445 20.4624 16.0536 20.8544C15.6616 21.2457 15.1906 21.4414 14.6406 21.4414H2.64062ZM2.64062 19.4414H14.6406V9.44141H2.64062V19.4414ZM5.64062 7.44141H11.6406V5.44141C11.6406 4.60807 11.349 3.89974 10.7656 3.31641C10.1823 2.73307 9.47396 2.44141 8.64062 2.44141C7.80729 2.44141 7.09896 2.73307 6.51562 3.31641C5.93229 3.89974 5.64062 4.60807 5.64062 5.44141V7.44141Z" fill="#9C4900"/>
</svg>
