<svg width="12" height="13" viewBox="0 0 12 13" fill="none" xmlns="http://www.w3.org/2000/svg">
<path d="M11.0149 12.3165C10.7449 12.5865 10.3786 12.7382 9.99673 12.7382C9.61483 12.7382 9.24858 12.5865 8.97853 12.3165L5.79733 8.68049L2.61613 12.3153C2.48282 12.4508 2.32399 12.5586 2.14882 12.6324C1.97364 12.7062 1.78559 12.7446 1.5955 12.7454C1.40541 12.7461 1.21705 12.7093 1.04128 12.6369C0.865515 12.5645 0.705818 12.458 0.571404 12.3236C0.43699 12.1892 0.330519 12.0295 0.258132 11.8537C0.185745 11.678 0.148875 11.4896 0.149649 11.2995C0.150423 11.1094 0.188826 10.9214 0.262641 10.7462C0.336457 10.571 0.444225 10.4122 0.57973 10.2789L3.88933 6.49889L0.57853 2.71649C0.443026 2.58318 0.335257 2.42435 0.261442 2.24918C0.187626 2.07401 0.149223 1.88595 0.148449 1.69586C0.147675 1.50577 0.184545 1.31741 0.256932 1.14165C0.329319 0.965878 0.43579 0.80618 0.570204 0.671766C0.704618 0.537352 0.864315 0.430881 1.04008 0.358494C1.21585 0.286108 1.40421 0.249238 1.5943 0.250012C1.78439 0.250786 1.97244 0.289188 2.14762 0.363004C2.32279 0.43682 2.48162 0.544588 2.61493 0.680092L5.79733 4.31729L8.97853 0.680092C9.11185 0.544588 9.27067 0.43682 9.44584 0.363004C9.62102 0.289188 9.80907 0.250786 9.99916 0.250012C10.1892 0.249238 10.3776 0.286108 10.5534 0.358494C10.7291 0.430881 10.8888 0.537352 11.0233 0.671766C11.1577 0.80618 11.2641 0.965878 11.3365 1.14165C11.4089 1.31741 11.4458 1.50577 11.445 1.69586C11.4442 1.88595 11.4058 2.07401 11.332 2.24918C11.2582 2.42435 11.1504 2.58318 11.0149 2.71649L7.70533 6.49889L11.0149 10.2789C11.1488 10.4126 11.255 10.5714 11.3275 10.7463C11.4 10.9211 11.4373 11.1085 11.4373 11.2977C11.4373 11.4869 11.4 11.6743 11.3275 11.8491C11.255 12.0239 11.1488 12.1828 11.0149 12.3165Z" fill="#421F00" fill-opacity="0.5"/>
</svg>
