<svg width="41" height="41" viewBox="0 0 41 41" fill="none" xmlns="http://www.w3.org/2000/svg">
<path d="M20.8307 4.18048C11.6474 4.18048 4.16406 11.6638 4.16406 20.8471C4.16406 30.0305 11.6474 37.5138 20.8307 37.5138C30.0141 37.5138 37.4974 30.0305 37.4974 20.8471C37.4974 11.6638 30.0141 4.18048 20.8307 4.18048ZM25.4807 21.7305L19.5974 27.6138C19.3474 27.8638 19.0307 27.9805 18.7141 27.9805C18.3974 27.9805 18.0807 27.8638 17.8307 27.6138C17.5983 27.3786 17.4679 27.0612 17.4679 26.7305C17.4679 26.3998 17.5983 26.0824 17.8307 25.8471L22.8307 20.8471L17.8307 15.8471C17.5983 15.6119 17.4679 15.2945 17.4679 14.9638C17.4679 14.6331 17.5983 14.3157 17.8307 14.0805C18.3141 13.5971 19.1141 13.5971 19.5974 14.0805L25.4807 19.9638C25.9807 20.4471 25.9807 21.2471 25.4807 21.7305Z" fill="#F6EFE9"/>
</svg>
