<svg width="41" height="41" viewBox="0 0 41 41" fill="none" xmlns="http://www.w3.org/2000/svg">
<path d="M20.612 4.18048C11.4286 4.18048 3.94531 11.6638 3.94531 20.8471C3.94531 30.0305 11.4286 37.5138 20.612 37.5138C29.7953 37.5138 37.2786 30.0305 37.2786 20.8471C37.2786 11.6638 29.7953 4.18048 20.612 4.18048ZM23.5953 25.8471C24.0786 26.3305 24.0786 27.1305 23.5953 27.6138C23.3453 27.8638 23.0286 27.9805 22.712 27.9805C22.3953 27.9805 22.0786 27.8638 21.8286 27.6138L15.9453 21.7305C15.7128 21.4953 15.5825 21.1779 15.5825 20.8471C15.5825 20.5164 15.7128 20.199 15.9453 19.9638L21.8286 14.0805C22.312 13.5971 23.112 13.5971 23.5953 14.0805C24.0786 14.5638 24.0786 15.3638 23.5953 15.8471L18.5953 20.8471L23.5953 25.8471Z" fill="#F6EFE9"/>
</svg>
