<svg width="98" height="41" viewBox="0 0 98 41" fill="none" xmlns="http://www.w3.org/2000/svg">
<mask id="path-1-inside-1_2366_3015" fill="white">
<path fill-rule="evenodd" clip-rule="evenodd" d="M49.5878 39.9454C49.2029 40.6119 48.2408 40.6119 47.8559 39.9454L42.2266 30.1987H10.2031C4.68028 30.1987 0.203125 25.7215 0.203125 20.1987V10.2103C0.203125 4.68749 4.68028 0.210342 10.2031 0.210342H87.2461C92.7689 0.210342 97.2461 4.6875 97.2461 10.2103V20.1987C97.2461 25.7215 92.7689 30.1987 87.2461 30.1987H55.2171L49.5878 39.9454Z"/>
</mask>
<path fill-rule="evenodd" clip-rule="evenodd" d="M49.5878 39.9454C49.2029 40.6119 48.2408 40.6119 47.8559 39.9454L42.2266 30.1987H10.2031C4.68028 30.1987 0.203125 25.7215 0.203125 20.1987V10.2103C0.203125 4.68749 4.68028 0.210342 10.2031 0.210342H87.2461C92.7689 0.210342 97.2461 4.6875 97.2461 10.2103V20.1987C97.2461 25.7215 92.7689 30.1987 87.2461 30.1987H55.2171L49.5878 39.9454Z" fill="white"/>
<path d="M47.8559 39.9454L48.7218 39.4453L48.7218 39.4453L47.8559 39.9454ZM49.5878 39.9454L48.7218 39.4453L48.7218 39.4453L49.5878 39.9454ZM42.2266 30.1987V29.1987H42.8039L43.0926 29.6986L42.2266 30.1987ZM55.2171 30.1987L54.3511 29.6986L54.6398 29.1987H55.2171V30.1987ZM48.7218 39.4453L48.7218 39.4453L50.4537 40.4456C49.6839 41.7786 47.7598 41.7786 46.9899 40.4456L48.7218 39.4453ZM43.0926 29.6986L48.7218 39.4453L46.9899 40.4456L41.3607 30.6988L43.0926 29.6986ZM10.2031 29.1987H42.2266V31.1987H10.2031V29.1987ZM1.20312 20.1987C1.20312 25.1693 5.23256 29.1987 10.2031 29.1987V31.1987C4.12799 31.1987 -0.796875 26.2738 -0.796875 20.1987H1.20312ZM1.20312 10.2103V20.1987H-0.796875V10.2103H1.20312ZM10.2031 1.21034C5.23256 1.21034 1.20312 5.23978 1.20312 10.2103H-0.796875C-0.796875 4.13521 4.12799 -0.789658 10.2031 -0.789658V1.21034ZM87.2461 1.21034H10.2031V-0.789658H87.2461V1.21034ZM96.2461 10.2103C96.2461 5.23978 92.2167 1.21034 87.2461 1.21034V-0.789658C93.3212 -0.789658 98.2461 4.13521 98.2461 10.2103H96.2461ZM96.2461 20.1987V10.2103H98.2461V20.1987H96.2461ZM87.2461 29.1987C92.2167 29.1987 96.2461 25.1693 96.2461 20.1987H98.2461C98.2461 26.2738 93.3212 31.1987 87.2461 31.1987V29.1987ZM55.2171 29.1987H87.2461V31.1987H55.2171V29.1987ZM48.7218 39.4453L54.3511 29.6986L56.083 30.6988L50.4537 40.4456L48.7218 39.4453Z" fill="#E7E7E7" mask="url(#path-1-inside-1_2366_3015)"/>
</svg>
