<svg width="125" height="101" viewBox="0 0 125 101" fill="none" xmlns="http://www.w3.org/2000/svg">
<rect x="0.257812" y="0.921875" width="124.378" height="99.5025" fill="white"/>
<path fill-rule="evenodd" clip-rule="evenodd" d="M103.243 33.2578C105.166 33.2578 106.725 34.817 106.725 36.7404C106.725 38.6638 105.166 40.223 103.243 40.223H83.3421C85.2655 40.223 86.8247 41.7822 86.8247 43.7056C86.8247 45.629 85.2655 47.1882 83.3421 47.1882H94.2874C96.2108 47.1882 97.77 48.7474 97.77 50.6707C97.77 52.5941 96.2108 54.1533 94.2874 54.1533H89.2257C86.8006 54.1533 84.8347 55.7125 84.8347 57.6359C84.8347 58.9182 85.8297 60.079 87.8197 61.1185C89.7431 61.1185 91.3023 62.6777 91.3023 64.6011C91.3023 66.5245 89.7431 68.0837 87.8197 68.0837H46.5262C44.6028 68.0837 43.0436 66.5245 43.0436 64.6011C43.0436 62.6777 44.6028 61.1185 46.5262 61.1185H27.1232C25.1998 61.1185 23.6406 59.5593 23.6406 57.6359C23.6406 55.7125 25.1998 54.1533 27.1232 54.1533H47.0237C48.9471 54.1533 50.5063 52.5941 50.5063 50.6707C50.5063 48.7474 48.9471 47.1882 47.0237 47.1882H34.5859C32.6625 47.1882 31.1033 45.629 31.1033 43.7056C31.1033 41.7822 32.6625 40.223 34.5859 40.223H54.4864C52.563 40.223 51.0038 38.6638 51.0038 36.7404C51.0038 34.817 52.563 33.2578 54.4864 33.2578H103.243ZM103.243 47.1882C105.166 47.1882 106.725 48.7474 106.725 50.6707C106.725 52.5941 105.166 54.1533 103.243 54.1533C101.319 54.1533 99.76 52.5941 99.76 50.6707C99.76 48.7474 101.319 47.1882 103.243 47.1882Z" fill="#F6EFE9"/>
<path fill-rule="evenodd" clip-rule="evenodd" d="M36.465 47.6892H35.9935C32.9768 47.6892 30.5312 45.2473 30.5312 42.235C30.5312 39.2227 32.9768 36.7808 35.9935 36.7808C36.0129 36.7808 36.0324 36.7809 36.0518 36.7811C36.5374 32.5564 39.9944 29.2812 44.1868 29.2812C48.6056 29.2812 52.2073 32.9197 52.3741 37.4734C55.0459 37.6458 57.3969 40.2462 57.3969 42.9577C57.3969 45.1841 55.7482 47.6892 53.7948 47.6892H40.212" fill="white"/>
<path d="M36.465 47.6892H35.9935C32.9768 47.6892 30.5312 45.2473 30.5312 42.235C30.5312 39.2227 32.9768 36.7808 35.9935 36.7808C36.0129 36.7808 36.0324 36.7809 36.0518 36.7811C36.5374 32.5564 39.9944 29.2812 44.1868 29.2812C48.6056 29.2812 52.2073 32.9197 52.3741 37.4734C55.0459 37.6458 57.3969 40.2462 57.3969 42.9577C57.3969 45.1841 55.7482 47.6892 53.7948 47.6892H40.212" stroke="#9C4900" stroke-width="2.5" stroke-linecap="round"/>
<path d="M65.987 69.8049C65.9267 69.8807 65.859 69.9495 65.7854 70.0104C65.2077 70.4878 64.3618 70.4029 63.8857 69.8049C58.7825 63.3938 54.9855 57.8589 52.4698 53.1925C49.9397 48.4992 48.7734 44.8065 48.7734 42.0464C48.7734 32.9161 56.0318 25.5547 64.9364 25.5547C73.841 25.5547 81.0993 32.9161 81.0993 42.0464C81.0993 44.8065 79.9331 48.4992 77.4029 53.1925C74.8872 57.8589 71.0902 63.3938 65.987 69.8049Z" fill="white" stroke="#8F4300" stroke-width="2.5"/>
<path fill-rule="evenodd" clip-rule="evenodd" d="M52.0078 49.8001C52.4254 50.741 52.912 51.7365 53.4708 52.7878C55.8486 57.2611 59.4464 62.583 64.2973 68.7636C64.5888 69.135 65.0953 69.1827 65.4424 68.8918C65.4874 68.8541 65.529 68.8112 65.5663 68.7636C70.4172 62.583 74.0151 57.2611 76.3929 52.7878C78.7898 48.2785 79.8572 44.7953 79.8572 42.2468C79.8572 35.9464 76.2258 30.5526 71.0362 28.1406C70.3399 30.5285 69.3892 32.8081 68.2156 34.9479C71.0274 36.2226 72.9868 39.0842 72.9868 42.4099C72.9868 46.9217 69.3805 50.5793 64.9318 50.5793C61.9339 50.5793 59.3185 48.9183 57.9316 46.4541C56.0839 47.757 54.1009 48.8807 52.0078 49.8001Z" fill="#F6EFE9"/>
<path d="M56.5502 70.3086C57.2297 70.1869 57.682 69.5374 57.5603 68.8578C57.4386 68.1783 56.7891 67.726 56.1096 67.8477L56.5502 70.3086ZM52.5711 68.6756C51.9097 68.8735 51.5341 69.5701 51.732 70.2315C51.93 70.8929 52.6266 71.2685 53.2879 71.0706L52.5711 68.6756ZM51.3567 71.7616C51.9908 71.4886 52.2835 70.7532 52.0105 70.1192C51.7375 69.4851 51.0021 69.1924 50.3681 69.4654L51.3567 71.7616ZM74.0301 67.8964C73.3515 67.77 72.6988 68.2177 72.5724 68.8964C72.446 69.5751 72.8937 70.2278 73.5724 70.3542L74.0301 67.8964ZM56.1096 67.8477C54.8341 68.076 53.6459 68.3539 52.5711 68.6756L53.2879 71.0706C54.2591 70.7799 55.3537 70.5228 56.5502 70.3086L56.1096 67.8477ZM50.3681 69.4654C49.2444 69.9492 48.2643 70.5241 47.5458 71.2048C46.8258 71.887 46.2734 72.7726 46.2734 73.8367H48.7734C48.7734 73.6957 48.8407 73.4218 49.2652 73.0197C49.6913 72.616 50.3806 72.1819 51.3567 71.7616L50.3681 69.4654ZM46.2734 73.8367C46.2734 75.1719 47.1325 76.2168 48.1463 76.9702C49.1836 77.7409 50.6048 78.3822 52.2488 78.8989C55.5514 79.9369 60.0369 80.5593 64.9364 80.5593V78.0593C60.2189 78.0593 55.998 77.4566 52.9984 76.5139C51.4912 76.0402 50.3624 75.5022 49.6374 74.9635C48.8889 74.4074 48.7734 74.0127 48.7734 73.8367H46.2734ZM64.9364 80.5593C69.8358 80.5593 74.3214 79.9369 77.624 78.8989C79.2679 78.3822 80.6892 77.7409 81.7264 76.9702C82.7403 76.2168 83.5993 75.1719 83.5993 73.8367H81.0993C81.0993 74.0127 80.9838 74.4074 80.2354 74.9635C79.5104 75.5022 78.3816 76.0402 76.8744 76.5139C73.8748 77.4566 69.6538 78.0593 64.9364 78.0593V80.5593ZM83.5993 73.8367C83.5993 72.0819 82.1409 70.8246 80.5879 69.9865C78.9327 69.0933 76.6561 68.3856 74.0301 67.8964L73.5724 70.3542C76.0636 70.8182 78.061 71.4637 79.4006 72.1866C80.8423 72.9646 81.0993 73.5864 81.0993 73.8367H83.5993Z" fill="#8F4300"/>
<circle cx="64.9343" cy="42.2155" r="7.20771" stroke="#8F4300" stroke-width="2.5"/>
<path fill-rule="evenodd" clip-rule="evenodd" d="M86.5781 30.2739C85.8972 28.572 84.5487 27.2234 82.8468 26.5425V26.5425V26.5425C84.5487 25.8617 85.8972 24.5131 86.5781 22.8112V22.8112V22.8112C87.259 24.5131 88.6076 25.8617 90.3095 26.5425V26.5425V26.5425C88.6076 27.2234 87.259 28.572 86.5781 30.2739V30.2739V30.2739Z" stroke="#9C4900" stroke-width="2.5" stroke-linejoin="round"/>
<path fill-rule="evenodd" clip-rule="evenodd" d="M76.2222 64.6047H75.8785C73.6804 64.6047 71.8984 62.8228 71.8984 60.6246C71.8984 58.4265 73.6804 56.6445 75.8785 56.6445C75.8927 56.6445 75.9069 56.6446 75.9211 56.6447C76.2749 53.5619 78.7938 51.1719 81.8487 51.1719C85.0685 51.1719 87.6929 53.8269 87.8144 57.1499C89.7613 57.2758 91.4744 59.1733 91.4744 61.152C91.4744 62.7767 90.273 64.6047 88.8497 64.6047H78.9524" fill="white"/>
<path d="M76.2222 64.6047H75.8785C73.6804 64.6047 71.8984 62.8228 71.8984 60.6246C71.8984 58.4265 73.6804 56.6445 75.8785 56.6445C75.8927 56.6445 75.9069 56.6446 75.9211 56.6447C76.2749 53.5619 78.7938 51.1719 81.8487 51.1719C85.0685 51.1719 87.6929 53.8269 87.8144 57.1499C89.7613 57.2758 91.4744 59.1733 91.4744 61.152C91.4744 62.7767 90.273 64.6047 88.8497 64.6047H78.9524" stroke="#9C4900" stroke-width="2.5" stroke-linecap="round"/>
</svg>
