<svg width="76" height="25" viewBox="0 0 76 25" fill="none" xmlns="http://www.w3.org/2000/svg">
<path d="M3.61737 24.5C1.97336 24.5 0.640625 23.1673 0.640625 21.5233L0.640624 3.47675C0.640624 1.83274 1.97336 0.5 3.61737 0.5L72.6639 0.499997C74.3079 0.499997 75.6193 1.89286 74.8083 3.3229C72.8776 6.7271 68.2578 9.58613 68.2578 12.5C68.2578 15.3666 72.8613 18.2877 74.798 21.6804C75.6131 23.1082 74.3079 24.5 72.6639 24.5L3.61737 24.5Z" fill="#F6A300"/>
<path d="M19.3406 16.12C17.0906 16.12 16.2906 14.23 16.2906 12.5C16.2906 10.77 17.0906 8.88 19.3406 8.88C21.5906 8.88 22.3906 10.77 22.3906 12.5C22.3906 14.23 21.5906 16.12 19.3406 16.12ZM19.3406 15.12C20.8006 15.12 21.3106 13.64 21.3106 12.5C21.3106 11.28 20.8006 9.88 19.3406 9.88C17.8806 9.88 17.3706 11.36 17.3706 12.5C17.3706 13.72 17.8806 15.12 19.3406 15.12ZM26.953 16V12.95C26.953 12.09 26.513 11.75 25.933 11.75C25.313 11.75 24.833 12.05 24.833 12.93V16H23.793V10.89H24.833V11.38C25.163 10.96 25.593 10.77 26.153 10.77C27.223 10.77 27.993 11.35 27.993 12.95V16H26.953ZM36.132 16V12.88H32.942V16H31.902V9H32.942V11.9H36.132V9H37.172V16H36.132ZM40.9023 16.12C39.4723 16.12 38.5723 15.13 38.5723 13.45C38.5723 11.77 39.4723 10.77 40.9023 10.77C42.3323 10.77 43.2423 11.77 43.2423 13.45C43.2423 15.13 42.3323 16.12 40.9023 16.12ZM40.9023 15.14C41.7023 15.14 42.2023 14.5 42.2023 13.45C42.2023 12.4 41.7023 11.75 40.9023 11.75C40.1123 11.75 39.6123 12.4 39.6123 13.45C39.6123 14.5 40.1123 15.14 40.9023 15.14ZM44.5461 16V9.27L45.5861 8.78V16H44.5461ZM49.0028 16.12C47.7128 16.12 46.8828 15.12 46.8828 13.44C46.8828 11.76 47.7528 10.77 49.0028 10.77C49.5628 10.77 49.9528 10.98 50.2128 11.25V9.26L51.2528 8.78V16H50.2128V15.64C49.9428 15.94 49.5728 16.12 49.0028 16.12ZM49.1528 15.14C49.6128 15.14 49.9828 14.93 50.2128 14.56V12.31C50.0528 12.05 49.6828 11.75 49.1528 11.75C48.3728 11.75 47.9228 12.35 47.9228 13.44C47.9228 14.43 48.3828 15.14 49.1528 15.14Z" fill="white"/>
</svg>
