<svg width="17" height="16" viewBox="0 0 17 16" fill="none" xmlns="http://www.w3.org/2000/svg">
<path d="M3.61255 14.0732C3.52142 14.073 3.43132 14.0536 3.34799 14.0162C3.26465 13.9788 3.1899 13.9242 3.12848 13.8559C3.06595 13.7881 3.01823 13.7077 2.98846 13.6199C2.95869 13.5322 2.94754 13.439 2.95574 13.3465L3.11665 11.5505L10.5504 4.00786L12.8736 6.36519L5.44176 13.9072L3.67232 14.0705C3.65245 14.0724 3.6325 14.0733 3.61255 14.0732ZM13.3373 5.89386L11.0148 3.53653L12.4079 2.12253C12.4689 2.06054 12.5413 2.01137 12.6211 1.97782C12.7008 1.94427 12.7863 1.927 12.8726 1.927C12.9589 1.927 13.0444 1.94427 13.1241 1.97782C13.2038 2.01137 13.2763 2.06054 13.3373 2.12253L14.7304 3.53653C14.7914 3.59844 14.8399 3.67197 14.8729 3.7529C14.906 3.83383 14.923 3.92058 14.923 4.00819C14.923 4.0958 14.906 4.18255 14.8729 4.26349C14.8399 4.34442 14.7914 4.41794 14.7304 4.47986L13.3373 5.89386Z" fill="#8F4300"/>
</svg>
