<svg width="25" height="25" viewBox="0 0 25 25" fill="none" xmlns="http://www.w3.org/2000/svg">
<mask id="mask0_428_18372" style="mask-type:alpha" maskUnits="userSpaceOnUse" x="0" y="0" width="25" height="25">
<rect x="0.0546875" y="0.5" width="24" height="24" fill="#D9D9D9"/>
</mask>
<g mask="url(#mask0_428_18372)">
<path d="M5.80469 5.625C5.80469 5.45924 5.87054 5.30027 5.98775 5.18306C6.10496 5.06585 6.26393 5 6.42969 5H12.6797C12.8454 5 13.0044 5.06585 13.1216 5.18306C13.2388 5.30027 13.3047 5.45924 13.3047 5.625V11.875C13.3047 12.0408 13.2388 12.1997 13.1216 12.3169C13.0044 12.4342 12.8454 12.5 12.6797 12.5H6.42969C6.26393 12.5 6.10496 12.4342 5.98775 12.3169C5.87054 12.1997 5.80469 12.0408 5.80469 11.875V5.625Z" fill="#9C4900" fill-opacity="0.5"/>
<path d="M3.30469 5C3.30469 4.33696 3.56808 3.70107 4.03692 3.23223C4.50576 2.76339 5.14165 2.5 5.80469 2.5H13.3047C13.9677 2.5 14.6036 2.76339 15.0725 3.23223C15.5413 3.70107 15.8047 4.33696 15.8047 5V15C16.4677 15 17.1036 15.2634 17.5725 15.7322C18.0413 16.2011 18.3047 16.837 18.3047 17.5V18.125C18.3047 18.2908 18.3705 18.4497 18.4877 18.5669C18.605 18.6842 18.7639 18.75 18.9297 18.75C19.0954 18.75 19.2544 18.6842 19.3716 18.5669C19.4888 18.4497 19.5547 18.2908 19.5547 18.125V12.5H18.9297C18.7639 12.5 18.605 12.4342 18.4877 12.3169C18.3705 12.1997 18.3047 12.0408 18.3047 11.875V7.96875C18.3047 7.80299 18.3705 7.64402 18.4877 7.52681C18.605 7.4096 18.7639 7.34375 18.9297 7.34375H20.7984C20.7847 6.74875 20.7322 6.22625 20.5472 5.81625C20.4482 5.57785 20.2756 5.37729 20.0547 5.24375C19.8247 5.10625 19.4747 5 18.9297 5C18.7639 5 18.605 4.93415 18.4877 4.81694C18.3705 4.69973 18.3047 4.54076 18.3047 4.375C18.3047 4.20924 18.3705 4.05027 18.4877 3.93306C18.605 3.81585 18.7639 3.75 18.9297 3.75C19.6347 3.75 20.2222 3.8875 20.6947 4.17C21.1734 4.455 21.4872 4.85875 21.6872 5.30375C22.0559 6.1225 22.0547 7.135 22.0547 7.905V11.8737C22.0549 11.9559 22.0388 12.0373 22.0075 12.1133C21.9761 12.1893 21.9301 12.2583 21.8721 12.3165C21.814 12.3747 21.7451 12.4208 21.6692 12.4523C21.5932 12.4838 21.5119 12.5 21.4297 12.5H20.8047V18.125C20.8047 18.6223 20.6071 19.0992 20.2555 19.4508C19.9039 19.8025 19.427 20 18.9297 20C18.4324 20 17.9555 19.8025 17.6039 19.4508C17.2522 19.0992 17.0547 18.6223 17.0547 18.125V17.5C17.0547 17.1685 16.923 16.8505 16.6886 16.6161C16.4542 16.3817 16.1362 16.25 15.8047 16.25V21.25H16.4297C16.5954 21.25 16.7544 21.3158 16.8716 21.4331C16.9888 21.5503 17.0547 21.7092 17.0547 21.875C17.0547 22.0408 16.9888 22.1997 16.8716 22.3169C16.7544 22.4342 16.5954 22.5 16.4297 22.5H2.67969C2.51393 22.5 2.35496 22.4342 2.23775 22.3169C2.12054 22.1997 2.05469 22.0408 2.05469 21.875C2.05469 21.7092 2.12054 21.5503 2.23775 21.4331C2.35496 21.3158 2.51393 21.25 2.67969 21.25H3.30469V5ZM14.5547 5C14.5547 4.66848 14.423 4.35054 14.1886 4.11612C13.9542 3.8817 13.6362 3.75 13.3047 3.75H5.80469C5.47317 3.75 5.15522 3.8817 4.9208 4.11612C4.68638 4.35054 4.55469 4.66848 4.55469 5V21.25H14.5547V5Z" fill="#9C4900" fill-opacity="0.5"/>
</g>
</svg>
