<svg width="31" height="30" viewBox="0 0 31 30" fill="none" xmlns="http://www.w3.org/2000/svg">
<rect x="1.29688" y="0.5" width="29" height="29" rx="9.5" fill="#9C4900" stroke="#F6EFE9"/>
<path d="M16.6224 22.9193C15.4899 22.9193 14.4563 22.603 13.5217 21.9706C12.5871 21.3386 11.9109 20.4948 11.4931 19.4392L9.81076 15.2005C9.76678 15.0906 9.73666 14.9887 9.72038 14.8951C9.70367 14.8018 9.69531 14.6947 9.69531 14.5738C9.69531 14.2439 9.82176 13.9525 10.0747 13.6997C10.3275 13.4468 10.6189 13.3203 10.9488 13.3203C11.0258 13.3203 11.0946 13.323 11.1553 13.3282C11.2155 13.3339 11.2786 13.3478 11.3446 13.3698L11.8559 13.5017C12.0098 13.5457 12.1528 13.6033 12.2847 13.6746C12.4167 13.7463 12.5431 13.8371 12.6641 13.947V10.0547C12.6641 9.59288 12.8235 9.20255 13.1424 8.88368C13.4612 8.56481 13.8516 8.40538 14.3134 8.40538C14.3793 8.40538 14.4427 8.40802 14.5034 8.4133C14.5636 8.41902 14.6212 8.42737 14.6762 8.43837C14.7422 8.02054 14.932 7.69068 15.2456 7.44878C15.5587 7.20689 15.9077 7.08594 16.2925 7.08594C16.6444 7.08594 16.9578 7.18226 17.2326 7.3749C17.5075 7.56709 17.7054 7.82263 17.8264 8.14149C17.9034 8.1195 17.9777 8.10301 18.0494 8.09201C18.1206 8.08102 18.1947 8.07552 18.2717 8.07552C18.7335 8.07552 19.1238 8.23495 19.4427 8.55382C19.7616 8.87269 19.921 9.26302 19.921 9.72483V10.0877C19.976 10.0767 20.031 10.0683 20.0859 10.0626C20.1409 10.0573 20.1959 10.0547 20.2509 10.0547C20.7127 10.0547 21.103 10.2141 21.4219 10.533C21.7407 10.8519 21.9002 11.2422 21.9002 11.704V17.6415C21.9002 19.1149 21.3889 20.3628 20.3663 21.3854C19.3437 22.408 18.0958 22.9193 16.6224 22.9193ZM16.6224 21.5998C17.7219 21.5998 18.6565 21.215 19.4262 20.4453C20.1959 19.6756 20.5807 18.741 20.5807 17.6415V11.704C20.5807 11.616 20.5477 11.5391 20.4818 11.4731C20.4158 11.4071 20.3388 11.3741 20.2509 11.3741C20.1629 11.3741 20.0859 11.4071 20.02 11.4731C19.954 11.5391 19.921 11.616 19.921 11.704V15.0026H18.6016V9.72483C18.6016 9.63686 18.5686 9.5599 18.5026 9.49392C18.4366 9.42795 18.3597 9.39497 18.2717 9.39497C18.1837 9.39497 18.1068 9.42795 18.0408 9.49392C17.9748 9.5599 17.9418 9.63686 17.9418 9.72483V15.0026H16.6224V8.73524C16.6224 8.64728 16.5894 8.57031 16.5234 8.50434C16.4575 8.43837 16.3805 8.40538 16.2925 8.40538C16.2046 8.40538 16.1276 8.43837 16.0616 8.50434C15.9957 8.57031 15.9627 8.64728 15.9627 8.73524V15.0026H14.6432V10.0547C14.6432 9.96672 14.6102 9.88976 14.5443 9.82378C14.4783 9.75781 14.4013 9.72483 14.3134 9.72483C14.2254 9.72483 14.1484 9.75781 14.0825 9.82378C14.0165 9.88976 13.9835 9.96672 13.9835 10.0547V16.9818H12.6641L12.0208 15.3325C11.9439 15.1455 11.8368 15.0081 11.6995 14.9201C11.5619 14.8322 11.3336 14.7387 11.0148 14.6398L12.73 18.9609C13.0489 19.7526 13.563 20.3903 14.2725 20.8741C14.9814 21.3579 15.7648 21.5998 16.6224 21.5998Z" fill="#F6EFE9"/>
</svg>
