<svg width="19" height="19" viewBox="0 0 19 19" fill="none" xmlns="http://www.w3.org/2000/svg">
<path d="M12.6406 6.25V4H6.64062V6.25H5.14062V3.25C5.14062 3.0375 5.21238 2.85925 5.35588 2.71525C5.49988 2.57175 5.67812 2.5 5.89062 2.5H13.3906C13.6031 2.5 13.7811 2.57175 13.9246 2.71525C14.0686 2.85925 14.1406 3.0375 14.1406 3.25V6.25H12.6406ZM3.64062 7.75H15.6406H5.14062H3.64062ZM14.1406 9.625C14.3531 9.625 14.5311 9.553 14.6746 9.409C14.8186 9.2655 14.8906 9.0875 14.8906 8.875C14.8906 8.6625 14.8186 8.48425 14.6746 8.34025C14.5311 8.19675 14.3531 8.125 14.1406 8.125C13.9281 8.125 13.7501 8.19675 13.6066 8.34025C13.4626 8.48425 13.3906 8.6625 13.3906 8.875C13.3906 9.0875 13.4626 9.2655 13.6066 9.409C13.7501 9.553 13.9281 9.625 14.1406 9.625ZM6.64062 14.5H12.6406V11.5H6.64062V14.5ZM6.64062 16C6.22813 16 5.87512 15.8533 5.58162 15.5597C5.28762 15.2657 5.14062 14.9125 5.14062 14.5V13H2.89062C2.67813 13 2.50013 12.928 2.35663 12.784C2.21263 12.6405 2.14062 12.4625 2.14062 12.25V8.5C2.14062 7.8625 2.35938 7.32825 2.79688 6.89725C3.23438 6.46575 3.76562 6.25 4.39062 6.25H14.8906C15.5281 6.25 16.0626 6.46575 16.4941 6.89725C16.9251 7.32825 17.1406 7.8625 17.1406 8.5V12.25C17.1406 12.4625 17.0686 12.6405 16.9246 12.784C16.7811 12.928 16.6031 13 16.3906 13H14.1406V14.5C14.1406 14.9125 13.9939 15.2657 13.7004 15.5597C13.4064 15.8533 13.0531 16 12.6406 16H6.64062ZM15.6406 11.5V8.5C15.6406 8.2875 15.5686 8.10925 15.4246 7.96525C15.2811 7.82175 15.1031 7.75 14.8906 7.75H4.39062C4.17812 7.75 3.99988 7.82175 3.85588 7.96525C3.71238 8.10925 3.64062 8.2875 3.64062 8.5V11.5H5.14062V10H14.1406V11.5H15.6406Z" fill="#9C4900"/>
</svg>
