<svg width="37" height="37" viewBox="0 0 37 37" fill="none" xmlns="http://www.w3.org/2000/svg">
<circle cx="18.6406" cy="18.75" r="18" fill="white"/>
<circle cx="18.6406" cy="18.75" r="17" stroke="#9C4900" stroke-opacity="0.5" stroke-width="2"/>
<mask id="mask0_428_122922" style="mask-type:alpha" maskUnits="userSpaceOnUse" x="6" y="6" width="25" height="25">
<rect x="6.64062" y="6.75" width="24" height="24" fill="#D9D9D9"/>
</mask>
<g mask="url(#mask0_428_122922)">
<path d="M18.6406 24.25C19.8906 24.25 20.9533 23.8127 21.8286 22.938C22.7033 22.0627 23.1406 21 23.1406 19.75C23.1406 18.5 22.7033 17.4373 21.8286 16.562C20.9533 15.6873 19.8906 15.25 18.6406 15.25C17.3906 15.25 16.328 15.6873 15.4526 16.562C14.578 17.4373 14.1406 18.5 14.1406 19.75C14.1406 21 14.578 22.0627 15.4526 22.938C16.328 23.8127 17.3906 24.25 18.6406 24.25ZM10.6406 27.75C10.0906 27.75 9.61996 27.5543 9.22863 27.163C8.83663 26.771 8.64062 26.3 8.64062 25.75V13.75C8.64062 13.2 8.83663 12.7293 9.22863 12.338C9.61996 11.946 10.0906 11.75 10.6406 11.75H13.7906L15.6406 9.75H21.6406L23.4906 11.75H26.6406C27.1906 11.75 27.6616 11.946 28.0536 12.338C28.445 12.7293 28.6406 13.2 28.6406 13.75V25.75C28.6406 26.3 28.445 26.771 28.0536 27.163C27.6616 27.5543 27.1906 27.75 26.6406 27.75H10.6406Z" fill="#9C4900" fill-opacity="0.5"/>
</g>
</svg>
