<svg width="101" height="101" viewBox="0 0 101 101" fill="none" xmlns="http://www.w3.org/2000/svg">
<circle opacity="0.8" cx="50.0078" cy="50.7422" r="50" fill="#686767"/>
<path d="M50.0078 30.7422C42.2878 30.7422 36.0078 37.0222 36.0078 44.7422C36.0078 55.2422 50.0078 70.7422 50.0078 70.7422C50.0078 70.7422 64.0078 55.2422 64.0078 44.7422C64.0078 37.0222 57.7278 30.7422 50.0078 30.7422ZM51.7678 58.2422H48.2678V54.7422H51.7678V58.2422ZM51.7678 52.5022H48.2678C48.2678 46.8222 53.5078 47.2622 53.5078 43.7422C53.5078 41.8222 51.9278 40.2422 50.0078 40.2422C48.0878 40.2422 46.5078 41.8222 46.5078 43.7422H43.0078C43.0078 39.8822 46.1478 36.7422 50.0078 36.7422C53.8678 36.7422 57.0078 39.8822 57.0078 43.7422C57.0078 48.1222 51.7678 48.5622 51.7678 52.5022Z" fill="#F6EFE9"/>
</svg>
