<svg width="15" height="15" viewBox="0 0 15 15" fill="none" xmlns="http://www.w3.org/2000/svg">
<circle cx="7.88802" cy="7.4974" r="4.08333" fill="#F6DDDD"/>
<path d="M7.88802 10.4141C8.0533 10.4141 8.19194 10.3581 8.30394 10.2461C8.41555 10.1345 8.47135 9.99601 8.47135 9.83073C8.47135 9.66545 8.41555 9.52681 8.30394 9.41481C8.19194 9.3032 8.0533 9.2474 7.88802 9.2474C7.72274 9.2474 7.5843 9.3032 7.47269 9.41481C7.36069 9.52681 7.30469 9.66545 7.30469 9.83073C7.30469 9.99601 7.36069 10.1345 7.47269 10.2461C7.5843 10.3581 7.72274 10.4141 7.88802 10.4141ZM7.88802 13.3307C7.08108 13.3307 6.32274 13.1775 5.61302 12.8711C4.9033 12.565 4.28594 12.1495 3.76094 11.6245C3.23594 11.0995 2.82041 10.4821 2.51435 9.7724C2.20791 9.06267 2.05469 8.30434 2.05469 7.4974C2.05469 6.69045 2.20791 5.93212 2.51435 5.2224C2.82041 4.51267 3.23594 3.89531 3.76094 3.37031C4.28594 2.84531 4.9033 2.42959 5.61302 2.12315C6.32274 1.81709 7.08108 1.66406 7.88802 1.66406C8.69497 1.66406 9.4533 1.81709 10.163 2.12315C10.8727 2.42959 11.4901 2.84531 12.0151 3.37031C12.5401 3.89531 12.9556 4.51267 13.2617 5.2224C13.5681 5.93212 13.7214 6.69045 13.7214 7.4974C13.7214 8.30434 13.5681 9.06267 13.2617 9.7724C12.9556 10.4821 12.5401 11.0995 12.0151 11.6245C11.4901 12.1495 10.8727 12.565 10.163 12.8711C9.4533 13.1775 8.69497 13.3307 7.88802 13.3307ZM7.88802 8.08073C8.0533 8.08073 8.19194 8.02473 8.30394 7.91273C8.41555 7.80112 8.47135 7.66267 8.47135 7.4974V5.16406C8.47135 4.99879 8.41555 4.86015 8.30394 4.74815C8.19194 4.63653 8.0533 4.58073 7.88802 4.58073C7.72274 4.58073 7.5843 4.63653 7.47269 4.74815C7.36069 4.86015 7.30469 4.99879 7.30469 5.16406V7.4974C7.30469 7.66267 7.36069 7.80112 7.47269 7.91273C7.5843 8.02473 7.72274 8.08073 7.88802 8.08073Z" fill="#FF0000"/>
</svg>
