<svg width="36" height="54" viewBox="0 0 36 54" fill="none" xmlns="http://www.w3.org/2000/svg">
<path d="M12.3377 22.9962C13.0061 25.7753 14.7082 28.7517 16.7618 30.223C15.9728 30.7132 15.3904 31.3472 15.2057 32.0031L14.2794 35.2852C13.9137 36.5818 14.1753 38.6112 14.8608 39.7947L17.7438 44.7718C17.7436 44.8132 17.7454 44.8545 17.7492 44.8962L18.2396 50.1731C18.3445 51.3018 19.8519 52.0932 21.5872 51.9319C23.3246 51.7705 24.6593 50.715 24.5544 49.5863L24.064 44.3094C24.0602 44.2677 24.0543 44.2268 24.0464 44.1861L24.3272 43.3917L25.3921 49.3429C25.5029 49.8388 26.2207 50.1526 26.9893 50.0398C27.7569 49.927 28.2964 49.4288 28.1866 48.9326L25.6985 39.5124L25.964 38.7629C26.4187 37.4734 26.3018 35.4306 25.7035 34.2235L24.1893 31.1682C23.8859 30.5578 23.1955 30.042 22.3307 29.7055C24.078 27.881 25.2026 24.6419 25.3474 21.7872L25.3636 21.0328C25.3596 20.7459 25.3458 20.4652 25.3205 20.1923C25.1344 18.1901 24.3787 16.9596 23.2561 16.2495L24.268 16.1555C24.7397 16.0989 25.9844 16.0334 26.8658 16.2715C26.8827 16.3868 26.9656 16.494 27.1113 16.5687L31.1693 18.6607C31.4704 18.8158 31.9277 18.7706 32.1908 18.5598C32.4518 18.3491 32.4201 18.0521 32.1199 17.897L28.1938 15.8748C28.3085 15.8034 28.4747 15.7231 28.6768 15.6963C28.9286 15.6629 29.1927 15.7179 29.4585 15.8575L31.9959 17.2591C32.0685 17.2998 32.1828 17.2905 32.251 17.2394C32.3182 17.1878 32.3143 17.1133 32.2407 17.0727L29.7021 15.6698C29.3499 15.4848 28.9899 15.416 28.6286 15.465C28.3038 15.5092 28.0549 15.6405 27.9013 15.7457C27.7316 15.7006 27.5387 15.7039 27.3641 15.7495C26.0409 15.358 24.2653 15.5625 24.1962 15.5709L22.1949 15.7569C22.1493 15.7424 22.1048 15.7278 22.0594 15.7147C22.6014 15.1546 22.8925 14.4929 22.8291 13.8107C22.7184 12.6198 21.5932 12.0589 20.0225 11.9236L19.748 8.96957C19.7106 8.56686 19.4098 8.22804 18.9623 8.01376L18.7276 5.48823C18.6795 4.97094 17.9934 4.61048 17.1965 4.68453C16.4007 4.75849 15.7927 5.23921 15.8408 5.75651L16.0755 8.28203C15.6751 8.57511 15.4419 8.96355 15.4794 9.36625L15.758 12.3647C14.3655 12.7981 13.4652 13.5398 13.5704 14.6711C13.6312 15.3261 14.0106 15.9022 14.6027 16.3455C14.5082 16.391 14.416 16.4384 14.3261 16.4881L12.551 16.6531C12.4825 16.6574 10.6997 16.7837 9.47129 17.4123C9.29025 17.3997 9.10004 17.4321 8.94158 17.5076C8.7722 17.4325 8.50239 17.3493 8.17501 17.3657C7.81185 17.3841 7.46971 17.5181 7.15859 17.7648L4.92102 19.6115C4.85712 19.6649 4.86706 19.7388 4.94258 19.7772C5.01905 19.8149 5.13204 19.803 5.19696 19.7496L7.4316 17.9045C7.66816 17.7181 7.91763 17.6154 8.17126 17.6019C8.37478 17.591 8.55296 17.6392 8.67881 17.6883L5.1926 20.3993C4.92516 20.6072 4.94872 20.905 5.24612 21.0638C5.54148 21.2227 5.99926 21.1828 6.2667 20.9749L9.87068 18.1708C10.0001 18.0706 10.0609 17.9501 10.0562 17.8336C10.8796 17.4371 12.1152 17.2721 12.5881 17.2409L13.3728 17.168C12.4013 18.0726 11.8842 19.4214 12.0703 21.4237C12.0957 21.6966 12.1339 21.9749 12.1838 22.2576L12.3377 22.9962Z" fill="#BEBBBC"/>
<path d="M25.4996 46.6238L21.463 31.3424C21.3529 30.8466 21.3383 30.7516 20.5703 30.8645C19.8014 30.977 19.8285 31.0702 19.9376 31.5661L22.7051 47.0341C22.8151 47.5299 23.5335 47.8437 24.3015 47.7307C25.0705 47.6183 25.6097 47.1202 25.4996 46.6238Z" fill="#64676C"/>
<path d="M20.3851 31.5043L20.3789 31.4791C20.3585 31.3849 20.3336 31.2728 20.3306 31.209C20.3807 31.1969 20.4698 31.1785 20.6309 31.1547C20.7911 31.1311 20.8832 31.1231 20.9341 31.1203C20.9591 31.1808 20.9849 31.2927 21.0053 31.3869L21.0119 31.4165L25.0483 46.6979C25.1215 47.0278 24.7575 47.3644 24.235 47.4412C23.7134 47.5174 23.2299 47.3072 23.1524 46.9721L20.3851 31.5043Z" fill="#7A7B81"/>
<path d="M16.6181 9.41895L16.0386 3.18284C15.9905 2.66535 15.3046 2.30501 14.5084 2.379C13.7133 2.45288 13.1055 2.93346 13.1536 3.45094L13.7331 9.68706C13.7812 10.2039 14.4672 10.5649 15.2623 10.491C16.0584 10.417 16.6662 9.93576 16.6181 9.41895Z" fill="#152024"/>
<path d="M21.8661 47.2828L21.3757 42.0056C21.2707 40.8768 19.7644 40.0854 18.0276 40.2468C16.2909 40.4082 14.9562 41.4636 15.0611 42.5925L15.5515 47.8697C15.6563 48.9979 17.1627 49.7899 18.8995 49.6285C20.6362 49.4671 21.9709 48.4111 21.8661 47.2828Z" fill="#FF0000"/>
<path d="M20.8437 47.3722L20.3533 42.0951C20.2822 41.33 19.2663 40.7969 18.0892 40.9063C16.913 41.0156 16.0127 41.7268 16.0838 42.4919L16.5742 47.769C16.6453 48.5335 17.6612 49.0672 18.8374 48.9579C20.0145 48.8485 20.9148 48.1367 20.8437 47.3722Z" fill="#C00000"/>
<path d="M17.6405 12.8954L17.061 6.65956C16.9901 5.89605 15.972 5.36122 14.7973 5.47038C13.6237 5.57945 12.7206 6.29281 12.7916 7.05632L13.3711 13.2921C13.442 14.0557 14.4611 14.5904 15.6347 14.4813C16.8094 14.3721 17.7115 13.6589 17.6405 12.8954Z" fill="#FF0000"/>
<path d="M16.9464 12.9661L16.3669 6.72982C16.3188 6.21273 15.6327 5.85229 14.8372 5.92622C14.0417 6.00014 13.4337 6.48085 13.4818 6.99793L14.0613 13.2342C14.1094 13.7513 14.7955 14.1117 15.591 14.0378C16.3865 13.9639 16.9945 13.4832 16.9464 12.9661Z" fill="#C00000"/>
<path d="M22.6319 17.8879C22.2301 13.5638 19.1712 12.8396 15.5124 13.1796C11.8537 13.5196 8.98156 14.795 9.3834 19.1191C9.78519 23.4425 13.3088 29.1776 16.9675 28.8376C20.6263 28.4976 23.0337 22.2114 22.6319 17.8879Z" fill="#FF0000"/>
<path d="M21.6099 17.9772C21.4415 16.1648 20.7683 14.9324 19.6099 14.3133C18.6852 13.8198 17.403 13.669 15.5756 13.8388C12.6662 14.1092 10.0256 14.9239 10.4061 19.0184C10.8176 23.4462 14.3418 28.4053 16.9071 28.1669C19.4723 27.9285 22.0214 22.405 21.6099 17.9772Z" fill="#C00000"/>
<path d="M19.3954 24.5C20.3271 22.48 20.7735 20.078 20.5872 18.0738C20.4378 16.466 19.8623 15.3504 18.9236 14.8497C18.2171 14.4721 17.1725 14.363 15.6364 14.5058C13.2235 14.73 11.0861 15.2366 11.4288 18.9249C11.6151 20.9291 12.4954 23.2078 13.7844 25.0214C15.1274 26.9125 16.3747 27.5478 16.8444 27.5042C17.315 27.4604 18.4239 26.6062 19.3954 24.5Z" fill="#FF0000"/>
<path d="M12.4529 18.8288C12.1435 15.5001 13.8713 15.3396 15.7 15.1697C17.3334 15.0179 17.9317 15.2189 18.24 15.3831C18.9531 15.7639 19.4367 16.779 19.5657 18.1678C19.7449 20.0958 19.3154 22.4084 18.4182 24.3535C17.7832 25.7279 17.1334 26.4463 16.7752 26.7398C16.369 26.5174 15.598 25.931 14.7206 24.6971C13.4802 22.9501 12.632 20.7568 12.4529 18.8288Z" fill="black"/>
<path d="M12.4529 18.8297C12.1435 15.5003 13.8716 15.3397 15.6995 15.1698C17.3335 15.0179 17.932 15.2195 18.2404 15.3833C18.9533 15.7642 19.4366 16.7794 19.5657 18.1687C19.7449 20.0966 19.3155 22.4086 18.4184 24.3539C17.7832 25.7284 17.1336 26.4469 16.7747 26.7399C16.3688 26.5179 15.5979 25.9315 14.7204 24.6975C13.4802 22.9509 12.6321 20.7576 12.4529 18.8297Z" fill="#CD0101"/>
<path d="M23.2741 36.459C23.7295 35.1701 23.613 33.127 23.0144 31.9198L21.4999 28.8648C20.9013 27.6575 18.787 26.8208 16.8014 27.0053L16.7909 27.0063C14.8053 27.1908 12.8814 28.4028 12.5155 29.6997L11.5899 32.9814C11.2239 34.2783 11.4859 36.3079 12.172 37.4907L15.4714 43.1866C16.1557 44.3702 17.5118 45.2643 18.485 45.1738C19.4562 45.0836 20.6254 43.9548 21.0808 42.6653L23.2741 36.459Z" fill="#2F373F"/>
<path d="M12.479 34.9065C12.4139 34.2065 12.456 33.5445 12.5972 33.0447L13.5218 29.763C13.8028 28.767 15.3278 27.8068 16.8521 27.6651C18.3865 27.5225 20.0623 28.1853 20.5219 29.1125L22.0364 32.1675C22.2674 32.6334 22.4306 33.2756 22.4957 33.9757C22.5778 34.8592 22.4974 35.7254 22.2756 36.353L20.0825 42.5595C19.671 43.7233 18.7271 44.4498 18.4151 44.504C18.113 44.5068 17.0514 43.9667 16.4316 42.8988L13.1324 37.2026C12.7997 36.6266 12.5611 35.7901 12.479 34.9065Z" fill="black"/>
<path d="M12.479 34.9063C12.4139 34.2063 12.4559 33.545 12.5971 33.0444L13.522 29.7627C13.803 28.7672 15.3277 27.8069 16.8519 27.6652C18.3865 27.5226 20.0621 28.1856 20.5217 29.1122L22.0364 32.1672C22.2675 32.6332 22.4306 33.2755 22.4957 33.9761C22.5778 34.8594 22.4974 35.726 22.276 36.353L20.0827 42.5591C19.6708 43.723 18.7269 44.4501 18.4148 44.504C18.1134 44.5071 17.0517 43.9664 16.4314 42.8984L13.132 37.2027C12.7998 36.6272 12.5611 35.7902 12.479 34.9069L12.479 34.9063Z" fill="url(#paint0_linear_428_37148)"/>
<path d="M13.6183 37.063C13.3012 36.5156 13.0741 35.7128 12.9948 34.8602C12.9322 34.1864 12.9715 33.5542 13.1049 33.0802L14.0305 29.7985C14.2668 28.9592 15.6022 28.1176 16.8873 27.9982C18.1788 27.8782 19.651 28.4589 20.0379 29.2402L21.5524 32.2952C21.7709 32.7364 21.926 33.3506 21.9886 34.0244C22.0678 34.877 21.9925 35.7079 21.7816 36.3044L13.6183 37.063Z" fill="black"/>
<path d="M13.6186 37.0629C13.3014 36.5153 13.074 35.7124 12.9948 34.8603C12.9322 34.1861 12.9708 33.5539 13.1044 33.0804L14.03 29.7987C14.267 28.9594 15.6018 28.1181 16.8871 27.9986C18.1791 27.8785 19.6507 28.4591 20.0374 29.2404L21.5519 32.2954C21.7704 32.7367 21.9258 33.3503 21.9885 34.0246C22.0676 34.8766 21.9921 35.7077 21.7812 36.3044L13.6186 37.0629Z" fill="url(#paint1_linear_428_37148)"/>
<path d="M20.7636 48.589C20.7467 48.4069 20.5038 48.2787 20.2236 48.3047L17.3538 48.5714C17.0737 48.5975 16.8586 48.7682 16.8755 48.9503C16.8924 49.1324 17.1352 49.26 17.4154 49.2339L20.2852 48.9672C20.5653 48.9412 20.7805 48.7711 20.7636 48.589Z" fill="#152024"/>
<path d="M20.142 11.506C19.9875 9.8438 17.8568 9.40848 15.3004 9.64605C12.744 9.88361 10.73 10.7041 10.8845 12.3663C11.0389 14.028 13.2365 15.1824 15.7928 14.9448C18.3492 14.7073 20.2964 13.1677 20.142 11.506Z" fill="#152024"/>
<path d="M11.3863 12.2353C12.3203 12.5469 13.6894 12.4161 15.1163 12.2805L15.9587 12.2022C17.387 12.0725 18.7568 11.9488 19.6174 11.4704C19.6217 11.4964 19.6242 11.5232 19.6267 11.5507C19.7639 13.0264 18.0285 14.3986 15.758 14.6096C13.4876 14.8205 11.5291 13.7917 11.3919 12.3159C11.3894 12.2885 11.3869 12.2623 11.3863 12.2353Z" fill="black"/>
<path d="M11.3863 12.2353C12.3209 12.5465 13.6901 12.4161 15.1171 12.2804L15.9591 12.2022C17.3876 12.0725 18.7574 11.9483 19.6176 11.4704C19.6219 11.4967 19.6244 11.5232 19.6269 11.5502C19.7641 13.0259 18.0288 14.3985 15.7586 14.6095C13.4884 14.8205 11.529 13.7911 11.3919 12.3155C11.3894 12.2884 11.3869 12.262 11.3863 12.2353Z" fill="url(#paint2_linear_428_37148)"/>
<path d="M15.2979 9.64309C13.2197 9.83622 11.4976 10.4151 11.0115 11.5188C11.6758 12.3328 13.4302 12.1012 15.5084 11.9081C17.5876 11.7149 19.3527 11.6194 19.8566 10.6968C19.1744 9.70168 17.3771 9.44988 15.2979 9.64309Z" fill="#64676C"/>
<path d="M11.5719 11.4505C12.1418 10.4728 13.9103 10.1092 15.3277 9.9775C16.743 9.84596 18.5492 9.87737 19.2895 10.7333C18.8641 11.2448 17.6978 11.3759 15.901 11.5391L15.051 11.6181C13.2548 11.7888 12.0843 11.8748 11.5719 11.4505Z" fill="#929195"/>
<path d="M15.7374 14.3885L15.6829 13.8022L21.5059 13.2611C21.5838 13.2519 23.8664 12.9886 25.1836 13.6353L29.2505 15.7309L28.6577 16.208L24.5983 14.1163C23.7508 13.7002 22.1306 13.7799 21.5784 13.8456L15.7374 14.3885Z" fill="#484E58"/>
<path d="M29.5003 16.256C29.7622 16.0454 29.7306 15.7482 29.4286 15.5932L25.504 13.5706C25.6179 13.4995 25.7836 13.4196 25.9867 13.3928C26.2377 13.359 26.5031 13.414 26.7692 13.5538L29.3055 14.955C29.3781 14.9957 29.4918 14.9871 29.5599 14.9353C29.628 14.8843 29.6241 14.8096 29.5505 14.769L27.011 13.3661C26.6607 13.1814 26.2989 13.1124 25.9398 13.1609C25.6138 13.205 25.3648 13.3368 25.2115 13.4418C24.925 13.3658 24.5691 13.4265 24.3505 13.6022C24.2204 13.7064 24.1633 13.8321 24.1742 13.9503C24.1855 14.0716 24.2681 14.1864 24.4202 14.2651L28.4798 16.3567C28.7808 16.5117 29.2374 16.4667 29.5003 16.256Z" fill="#283139"/>
<path d="M15.7451 14.3899L15.6906 13.8034L9.8684 14.3445C9.78919 14.3494 7.49781 14.5118 6.32174 15.3905L2.71116 18.1992L3.38184 18.5585L6.98631 15.7545C7.74175 15.1903 9.34917 14.9696 9.90431 14.9327L15.7451 14.3899Z" fill="#484E58"/>
<path d="M2.56052 18.7601C2.26365 18.6007 2.23978 18.3036 2.50808 18.0953L5.99289 15.3839C5.86878 15.3347 5.68969 15.287 5.48618 15.2981C5.23151 15.3114 4.98234 15.4141 4.74657 15.6005L2.51213 17.4454C2.44797 17.4987 2.33332 17.5112 2.25783 17.4727C2.18146 17.4349 2.1718 17.3611 2.23596 17.3078L4.47394 15.4607C4.78448 15.2145 5.1269 15.0801 5.48942 15.0616C5.8185 15.045 6.08685 15.1287 6.25723 15.2033C6.52464 15.0759 6.88458 15.0698 7.13322 15.2027C7.27969 15.2813 7.35924 15.3935 7.37026 15.5121C7.38156 15.6337 7.32155 15.7619 7.18653 15.8667L3.58144 18.6707C3.314 18.8782 2.85727 18.9183 2.56052 18.7601Z" fill="#283139"/>
<path d="M15.6496 13.4226C17.1143 13.2865 18.3717 13.9476 18.4601 14.899C18.5486 15.851 17.3962 16.3207 15.9316 16.4568C14.4679 16.5928 13.2478 16.3436 13.1594 15.3916C13.071 14.4402 14.186 13.5586 15.6496 13.4226Z" fill="#5D636D"/>
<path d="M18.175 14.976C17.6398 14.798 16.8563 14.8726 16.0389 14.9503L15.5567 14.9952C14.739 15.0693 13.9551 15.1404 13.4619 15.414C13.4596 15.3992 13.4581 15.3837 13.4567 15.3682C13.3782 14.5234 14.372 13.7375 15.6718 13.6167C16.9715 13.496 18.0932 14.0852 18.1717 14.93C18.1731 14.9455 18.1745 14.9604 18.175 14.976Z" fill="black"/>
<path d="M18.1752 14.976C17.6404 14.7972 16.8569 14.8719 16.0388 14.9498L15.5568 14.9945C14.7393 15.0687 13.9555 15.1397 13.4619 15.414C13.4595 15.3989 13.4581 15.3831 13.4566 15.3679C13.3781 14.5228 14.3725 13.7372 15.6718 13.6164C16.972 13.4956 18.0933 14.0846 18.1718 14.9297C18.1732 14.9449 18.1747 14.9607 18.1752 14.976Z" fill="url(#paint3_linear_428_37148)"/>
<path d="M15.9317 16.4599C17.1221 16.3493 18.1062 16.0175 18.3852 15.3859C18.0042 14.9198 17.0016 15.0522 15.8112 15.1628C14.6198 15.2735 13.6091 15.3282 13.3205 15.8565C13.7111 16.4259 14.7403 16.5706 15.9317 16.4599Z" fill="#929195"/>
<path d="M18.0623 15.4279C17.736 15.988 16.7238 16.1959 15.9128 16.2712C15.101 16.3467 14.0678 16.3289 13.6438 15.8385C13.8877 15.5454 14.5546 15.4706 15.5841 15.3774L16.0703 15.3322C17.0993 15.2341 17.7687 15.1847 18.0623 15.4279Z" fill="#BEBBBC"/>
<path d="M16.8801 26.6617C14.498 26.883 12.4073 25.7924 11.9201 24.164C11.9021 24.3305 11.8996 24.4986 11.9154 24.6688C12.0915 26.5643 14.3556 27.9044 16.973 27.6612C19.5894 27.4181 21.5678 25.6837 21.3916 23.7882C21.3758 23.618 21.3433 23.4531 21.2949 23.2928C21.1151 24.9831 19.2622 26.4403 16.8801 26.6617Z" fill="#151413"/>
<defs>
<linearGradient id="paint0_linear_428_37148" x1="22.1288" y1="25.812" x2="23.3176" y2="38.605" gradientUnits="userSpaceOnUse">
<stop stop-color="#747981"/>
<stop offset="1" stop-color="#2E373F"/>
</linearGradient>
<linearGradient id="paint1_linear_428_37148" x1="21.5215" y1="24.7979" x2="22.355" y2="33.7668" gradientUnits="userSpaceOnUse">
<stop stop-color="#747981"/>
<stop offset="1" stop-color="#2E373F"/>
</linearGradient>
<linearGradient id="paint2_linear_428_37148" x1="20.1787" y1="8.05098" x2="20.4434" y2="10.8994" gradientUnits="userSpaceOnUse">
<stop stop-color="#2E363E"/>
<stop offset="1" stop-color="#151F24"/>
</linearGradient>
<linearGradient id="paint3_linear_428_37148" x1="18.4804" y1="12.8465" x2="18.377" y2="11.7342" gradientUnits="userSpaceOnUse">
<stop stop-color="#6B717A"/>
<stop offset="1" stop-color="#5E636D"/>
</linearGradient>
</defs>
</svg>
