<svg width="25" height="25" viewBox="0 0 25 25" fill="none" xmlns="http://www.w3.org/2000/svg">
<path d="M12.892 3.58983L22.418 20.0898C22.5057 20.2418 22.5519 20.4143 22.5519 20.5898C22.552 20.7654 22.5057 20.9378 22.418 21.0898C22.3302 21.2418 22.204 21.3681 22.052 21.4558C21.9 21.5436 21.7275 21.5898 21.552 21.5898H2.49997C2.32444 21.5898 2.152 21.5436 1.99998 21.4558C1.84797 21.3681 1.72173 21.2418 1.63397 21.0898C1.5462 20.9378 1.5 20.7654 1.5 20.5898C1.5 20.4143 1.54621 20.2418 1.63397 20.0898L11.16 3.58983C11.2477 3.43782 11.374 3.3116 11.526 3.22384C11.678 3.13608 11.8504 3.08987 12.026 3.08987C12.2015 3.08987 12.3739 3.13608 12.526 3.22384C12.678 3.3116 12.8042 3.43782 12.892 3.58983ZM4.23197 19.5898H19.82L12.027 6.08983L4.23197 19.5898ZM11.026 16.5898H13.026V18.5898H11.026V16.5898ZM11.026 9.58983H13.026V14.5898H11.026V9.58983Z" fill="#D95B5D"/>
</svg>
