<svg width="18" height="17" viewBox="0 0 18 17" fill="none" xmlns="http://www.w3.org/2000/svg">
<path d="M5.82552 12.5391L8.82552 9.53906L11.8255 12.5391L12.9922 11.3724L9.99219 8.3724L12.9922 5.3724L11.8255 4.20573L8.82552 7.20573L5.82552 4.20573L4.65885 5.3724L7.65885 8.3724L4.65885 11.3724L5.82552 12.5391ZM8.82552 16.7057C7.67274 16.7057 6.58941 16.4871 5.57552 16.0499C4.56163 15.6127 3.67969 15.0188 2.92969 14.2682C2.17969 13.5182 1.58608 12.6363 1.14885 11.6224C0.711632 10.6085 0.492743 9.52517 0.492188 8.3724C0.492188 7.21962 0.711076 6.13629 1.14885 5.1224C1.58663 4.10851 2.18024 3.22656 2.92969 2.47656C3.67969 1.72656 4.56163 1.13267 5.57552 0.694897C6.58941 0.257119 7.67274 0.038508 8.82552 0.0390636C9.9783 0.0390636 11.0616 0.257953 12.0755 0.69573C13.0894 1.13351 13.9714 1.72712 14.7214 2.47656C15.4714 3.22656 16.0652 4.10851 16.503 5.1224C16.9408 6.13629 17.1594 7.21962 17.1589 8.3724C17.1589 9.52517 16.94 10.6085 16.5022 11.6224C16.0644 12.6363 15.4708 13.5182 14.7214 14.2682C13.9714 15.0182 13.0894 15.6121 12.0755 16.0499C11.0616 16.4877 9.9783 16.7063 8.82552 16.7057Z" fill="#FF0000"/>
</svg>
