<svg width="76" height="25" viewBox="0 0 76 25" fill="none" xmlns="http://www.w3.org/2000/svg">
<path d="M3.61737 24.5C1.97336 24.5 0.640625 23.1673 0.640625 21.5233L0.640624 3.47675C0.640624 1.83274 1.97336 0.5 3.61737 0.5L72.6639 0.499997C74.3079 0.499997 75.6193 1.89286 74.8083 3.3229C72.8776 6.7271 68.2578 9.58613 68.2578 12.5C68.2578 15.3666 72.8613 18.2877 74.798 21.6804C75.6131 23.1082 74.3079 24.5 72.6639 24.5L3.61737 24.5Z" fill="#FF0000"/>
<path d="M16.5406 16V9H19.4906C21.2106 9 21.7506 10.02 21.7506 11.07C21.7506 11.88 21.3006 12.77 20.2306 13.05L21.6706 16H20.4806L19.1006 13.14H17.5806V16H16.5406ZM17.5806 12.14H19.5106C20.3806 12.14 20.6706 11.61 20.6706 11.07C20.6706 10.58 20.4306 10 19.5106 10H17.5806V12.14ZM25.2184 16.12C23.7984 16.12 22.8984 15.12 22.8984 13.44C22.8984 11.76 23.8184 10.77 25.2184 10.77C26.4284 10.77 27.4184 11.53 27.4184 13.16C27.4184 13.38 27.4084 13.65 27.3784 13.83H23.9384C23.9584 14.67 24.5684 15.2 25.2284 15.2C25.6484 15.2 26.0284 15.02 26.2884 14.68L26.9684 15.38C26.5984 15.82 26.0184 16.12 25.2184 16.12ZM23.9384 12.99H26.3784C26.3584 12.04 25.7684 11.69 25.2184 11.69C24.5684 11.69 23.9884 12.04 23.9384 12.99ZM29.1472 10.09C28.7972 10.09 28.5172 9.81 28.5172 9.46C28.5172 9.11 28.7972 8.83 29.1472 8.83C29.4972 8.83 29.7772 9.11 29.7772 9.46C29.7772 9.81 29.4972 10.09 29.1472 10.09ZM27.7372 18.14L27.2372 17.37C28.2872 17.14 28.6272 16.84 28.6272 16.11V10.89H29.6672V15.76C29.6672 16.36 29.5872 16.96 29.1872 17.38C28.7172 17.87 28.1872 18.04 27.7372 18.14ZM33.2458 16.12C31.8258 16.12 30.9258 15.12 30.9258 13.44C30.9258 11.76 31.8458 10.77 33.2458 10.77C34.4558 10.77 35.4458 11.53 35.4458 13.16C35.4458 13.38 35.4358 13.65 35.4058 13.83H31.9658C31.9858 14.67 32.5958 15.2 33.2558 15.2C33.6758 15.2 34.0558 15.02 34.3158 14.68L34.9958 15.38C34.6258 15.82 34.0458 16.12 33.2458 16.12ZM31.9658 12.99H34.4058C34.3858 12.04 33.7958 11.69 33.2458 11.69C32.5958 11.69 32.0158 12.04 31.9658 12.99ZM38.6245 16.12C37.2545 16.12 36.3945 15.13 36.3945 13.45C36.3945 11.77 37.2545 10.77 38.6245 10.77C39.5645 10.77 40.2545 11.18 40.5545 12.09L39.5645 12.43C39.4145 12.04 39.1045 11.77 38.6645 11.77C37.8845 11.77 37.4545 12.41 37.4545 13.45C37.4545 14.49 37.8845 15.12 38.6245 15.12C39.0945 15.12 39.4445 14.85 39.5845 14.37L40.5745 14.68C40.3045 15.63 39.6345 16.12 38.6245 16.12ZM43.2027 16.12C42.3927 16.12 42.0627 15.62 42.0627 14.85V11.79H41.2727V10.89H42.0627V9.28L43.1027 8.78V10.89H44.3127V11.79H43.1027V14.58C43.1027 14.92 43.2027 15.16 43.6027 15.16C43.8527 15.16 44.1027 15.08 44.3627 14.92L44.2327 15.89C43.9527 16.03 43.6127 16.12 43.2027 16.12ZM47.4841 16.12C46.0641 16.12 45.1641 15.12 45.1641 13.44C45.1641 11.76 46.0841 10.77 47.4841 10.77C48.6941 10.77 49.6841 11.53 49.6841 13.16C49.6841 13.38 49.6741 13.65 49.6441 13.83H46.2041C46.2241 14.67 46.8341 15.2 47.4941 15.2C47.9141 15.2 48.2941 15.02 48.5541 14.68L49.2341 15.38C48.8641 15.82 48.2841 16.12 47.4841 16.12ZM46.2041 12.99H48.6441C48.6241 12.04 48.0341 11.69 47.4841 11.69C46.8341 11.69 46.2541 12.04 46.2041 12.99ZM52.7528 16.12C51.4628 16.12 50.6328 15.12 50.6328 13.44C50.6328 11.76 51.5028 10.77 52.7528 10.77C53.3128 10.77 53.7028 10.98 53.9628 11.25V9.26L55.0028 8.78V16H53.9628V15.64C53.6928 15.94 53.3228 16.12 52.7528 16.12ZM52.9028 15.14C53.3628 15.14 53.7328 14.93 53.9628 14.56V12.31C53.8028 12.05 53.4328 11.75 52.9028 11.75C52.1228 11.75 51.6728 12.35 51.6728 13.44C51.6728 14.43 52.1328 15.14 52.9028 15.14Z" fill="white"/>
</svg>
