<svg width="25" height="25" viewBox="0 0 25 25" fill="none" xmlns="http://www.w3.org/2000/svg">
<path d="M22.0582 13.95L16.2592 11.8657L13.8352 8.82224C13.6244 8.56454 13.3589 8.357 13.0579 8.21469C12.757 8.07238 12.4281 7.99887 12.0952 7.99949H6.09819C5.73141 7.99937 5.37018 8.08897 5.04598 8.26048C4.72178 8.43199 4.44445 8.68021 4.23819 8.98349L2.20419 11.9707C1.78055 12.5924 1.5542 13.3274 1.55469 14.0797V19.9995C1.55469 20.1984 1.63371 20.3892 1.77436 20.5298C1.91501 20.6705 2.10578 20.7495 2.30469 20.7495H3.91119C4.07434 21.3932 4.44746 21.9641 4.97152 22.3719C5.49558 22.7797 6.14066 23.0011 6.80469 23.0011C7.46872 23.0011 8.1138 22.7797 8.63786 22.3719C9.16192 21.9641 9.53504 21.3932 9.69819 20.7495H14.4112C14.5743 21.3932 14.9475 21.9641 15.4715 22.3719C15.9956 22.7797 16.6407 23.0011 17.3047 23.0011C17.9687 23.0011 18.6138 22.7797 19.1379 22.3719C19.6619 21.9641 20.035 21.3932 20.1982 20.7495H21.8047C22.0036 20.7495 22.1944 20.6705 22.335 20.5298C22.4757 20.3892 22.5547 20.1984 22.5547 19.9995V14.6557C22.5547 14.5013 22.507 14.3506 22.4181 14.2243C22.3292 14.098 22.2035 14.0022 22.0582 13.95ZM6.80469 21.4995C6.50802 21.4995 6.21801 21.4115 5.97133 21.2467C5.72466 21.0819 5.5324 20.8476 5.41887 20.5735C5.30534 20.2994 5.27563 19.9978 5.33351 19.7069C5.39139 19.4159 5.53425 19.1486 5.74403 18.9388C5.95381 18.729 6.22108 18.5862 6.51205 18.5283C6.80302 18.4704 7.10462 18.5001 7.37871 18.6137C7.6528 18.7272 7.88707 18.9195 8.05189 19.1661C8.21671 19.4128 8.30469 19.7028 8.30469 19.9995C8.30409 20.3971 8.14587 20.7783 7.86469 21.0595C7.58352 21.3407 7.20233 21.4989 6.80469 21.4995ZM17.3047 21.4995C17.008 21.4995 16.718 21.4115 16.4713 21.2467C16.2247 21.0819 16.0324 20.8476 15.9189 20.5735C15.8053 20.2994 15.7756 19.9978 15.8335 19.7069C15.8914 19.4159 16.0343 19.1486 16.244 18.9388C16.4538 18.729 16.7211 18.5862 17.0121 18.5283C17.303 18.4704 17.6046 18.5001 17.8787 18.6137C18.1528 18.7272 18.3871 18.9195 18.5519 19.1661C18.7167 19.4128 18.8047 19.7028 18.8047 19.9995C18.8043 20.3972 18.6461 20.7785 18.3649 21.0597C18.0837 21.3409 17.7024 21.4991 17.3047 21.4995ZM21.0547 19.2495H20.1982C20.035 18.6058 19.6619 18.0349 19.1379 17.6271C18.6138 17.2193 17.9687 16.9979 17.3047 16.9979C16.6407 16.9979 15.9956 17.2193 15.4715 17.6271C14.9475 18.0349 14.5743 18.6058 14.4112 19.2495H9.69819C9.53504 18.6058 9.16192 18.0349 8.63786 17.6271C8.1138 17.2193 7.46872 16.9979 6.80469 16.9979C6.14066 16.9979 5.49558 17.2193 4.97152 17.6271C4.44746 18.0349 4.07434 18.6058 3.91119 19.2495H3.05469V14.0797C3.05461 13.6281 3.19051 13.187 3.44469 12.8137L5.47794 9.82799C5.54669 9.7268 5.63915 9.64396 5.74726 9.58671C5.85538 9.52945 5.97585 9.4995 6.09819 9.49949H12.0952C12.2043 9.49906 12.3122 9.52262 12.4112 9.5685C12.5102 9.61438 12.598 9.68146 12.6682 9.76499L15.2182 12.9667C15.3049 13.0756 15.4202 13.1582 15.5512 13.2052L21.0547 15.183V19.2495ZM18.4709 4.99949C18.4709 4.60166 18.629 4.22013 18.9103 3.93883C19.1916 3.65752 19.5731 3.49949 19.9709 3.49949H22.5547C22.2593 2.98403 21.8168 2.56854 21.2837 2.30629C20.7506 2.04404 20.1514 1.94698 19.5628 2.02756C18.9742 2.10815 18.4231 2.3627 17.9802 2.75858C17.5372 3.15446 17.2226 3.67362 17.0767 4.24949H12.0547V5.74949H17.0767C17.2226 6.32536 17.5372 6.84452 17.9802 7.2404C18.4231 7.63628 18.9742 7.89083 19.5628 7.97141C20.1514 8.052 20.7506 7.95494 21.2837 7.69269C21.8168 7.43044 22.2593 7.01495 22.5547 6.49949H19.9709C19.5731 6.49949 19.1916 6.34145 18.9103 6.06015C18.629 5.77884 18.4709 5.39731 18.4709 4.99949Z" fill="#9C4900" fill-opacity="0.5"/>
</svg>
