<svg width="151" height="150" viewBox="0 0 151 150" fill="none" xmlns="http://www.w3.org/2000/svg">
<path d="M19.8376 0C19.8376 2.78931 17.5767 5.0505 14.7871 5.0505C11.9975 5.0505 9.73658 2.78931 9.73658 0H0.140625V11.6162C2.93024 11.6162 5.19113 13.8774 5.19113 16.6667C5.19113 19.456 2.93024 21.7172 0.140625 21.7172V28.2828C2.93024 28.2828 5.19113 30.544 5.19113 33.3333C5.19113 36.1226 2.93024 38.3838 0.140625 38.3838V44.9495C2.93024 44.9495 5.19113 47.2107 5.19113 50C5.19113 52.7893 2.93024 55.0505 0.140625 55.0505V61.6162C2.93024 61.6162 5.19113 63.8774 5.19113 66.6667C5.19113 69.456 2.93024 71.7172 0.140625 71.7172V78.2828C2.93024 78.2828 5.19113 80.544 5.19113 83.3333C5.19113 86.1227 2.93024 88.3838 0.140625 88.3838V94.9495C2.93024 94.9495 5.19113 97.2106 5.19113 100C5.19113 102.789 2.93024 105.05 0.140625 105.05V111.616C2.93024 111.616 5.19113 113.877 5.19113 116.667C5.19113 119.456 2.93024 121.717 0.140625 121.717V128.283C2.93024 128.283 5.19113 130.544 5.19113 133.333C5.19113 136.123 2.93024 138.384 0.140625 138.384V150H9.73658C9.73658 147.211 11.9975 144.949 14.7871 144.949C17.5767 144.949 19.8376 147.211 19.8376 150H26.9083C26.9083 147.211 29.1692 144.949 31.9588 144.949C34.7484 144.949 37.0093 147.211 37.0093 150H44.08C44.08 147.211 46.3409 144.949 49.1305 144.949C51.9201 144.949 54.181 147.211 54.181 150H61.2517C61.2517 147.211 63.5126 144.949 66.3022 144.949C69.0919 144.949 71.3527 147.211 71.3527 150H78.4234C78.4234 147.211 80.6843 144.949 83.474 144.949C86.2636 144.949 88.5245 147.211 88.5245 150H95.5952C95.5952 147.211 97.8561 144.949 100.646 144.949C103.435 144.949 105.696 147.211 105.696 150H112.767C112.767 147.211 115.028 144.949 117.817 144.949C120.607 144.949 122.868 147.211 122.868 150H129.939C129.939 147.211 132.199 144.949 134.989 144.949C137.779 144.949 140.04 147.211 140.04 150H150.141V138.359C149.975 138.375 149.805 138.384 149.636 138.384C146.846 138.384 144.585 136.123 144.585 133.333C144.585 130.544 146.846 128.283 149.636 128.283C149.805 128.283 149.975 128.291 150.141 128.308V121.692C149.975 121.709 149.805 121.717 149.636 121.717C146.846 121.717 144.585 119.456 144.585 116.667C144.585 113.877 146.846 111.616 149.636 111.616C149.805 111.616 149.975 111.625 150.141 111.641V105.026C149.975 105.042 149.805 105.05 149.636 105.05C146.846 105.05 144.585 102.789 144.585 100C144.585 97.2106 146.846 94.9495 149.636 94.9495C149.805 94.9495 149.975 94.9579 150.141 94.9744V88.3589C149.975 88.3755 149.805 88.3838 149.636 88.3838C146.846 88.3838 144.585 86.1227 144.585 83.3333C144.585 80.544 146.846 78.2828 149.636 78.2828C149.805 78.2828 149.975 78.2913 150.141 78.3077V71.6923C149.975 71.7087 149.805 71.7172 149.636 71.7172C146.846 71.7172 144.585 69.456 144.585 66.6667C144.585 63.8774 146.846 61.6162 149.636 61.6162C149.805 61.6162 149.975 61.6246 150.141 61.6411V55.0256C149.975 55.0421 149.805 55.0505 149.636 55.0505C146.846 55.0505 144.585 52.7893 144.585 50C144.585 47.2107 146.846 44.9495 149.636 44.9495C149.805 44.9495 149.975 44.9579 150.141 44.9744V38.3589C149.975 38.3754 149.805 38.3838 149.636 38.3838C146.846 38.3838 144.585 36.1226 144.585 33.3333C144.585 30.544 146.846 28.2828 149.636 28.2828C149.805 28.2828 149.975 28.2913 150.141 28.3077V21.6923C149.975 21.7087 149.805 21.7172 149.636 21.7172C146.846 21.7172 144.585 19.456 144.585 16.6667C144.585 13.8774 146.846 11.6162 149.636 11.6162C149.805 11.6162 149.975 11.6246 150.141 11.6411V0H140.04C140.04 2.78931 137.779 5.0505 134.989 5.0505C132.199 5.0505 129.939 2.78931 129.939 0H122.868C122.868 2.78931 120.607 5.0505 117.817 5.0505C115.028 5.0505 112.767 2.78931 112.767 0H105.696C105.696 2.78931 103.435 5.0505 100.646 5.0505C97.8561 5.0505 95.5952 2.78931 95.5952 0H88.5245C88.5245 2.78931 86.2636 5.0505 83.474 5.0505C80.6843 5.0505 78.4234 2.78931 78.4234 0H71.3527C71.3527 2.78931 69.0919 5.0505 66.3022 5.0505C63.5126 5.0505 61.2517 2.78931 61.2517 0H54.181C54.181 2.78931 51.9201 5.0505 49.1305 5.0505C46.3409 5.0505 44.08 2.78931 44.08 0H37.0093C37.0093 2.78931 34.7484 5.0505 31.9588 5.0505C29.1692 5.0505 26.9083 2.78931 26.9083 0H19.8376Z" fill="#F6EFE9"/>
<path d="M116.421 43.259C123.489 55.838 122.405 71.2174 117.775 83.4576C113.122 95.7206 104.902 104.822 94.2431 110.648C83.5831 116.452 70.4852 118.959 56.9124 115.21C43.3172 111.461 29.2702 101.434 27.892 90.0746C26.5374 78.7151 37.8514 65.9779 48.4656 52.6085C59.0572 39.2394 68.9489 25.2146 81.5278 23.0692C94.0854 20.9464 109.329 30.6799 116.421 43.259Z" fill="url(#paint0_linear_2755_3928)"/>
<path d="M27.7804 91.2504C28.8543 91.2504 29.7248 90.3488 29.7248 89.2365C29.7248 88.1243 28.8543 87.2227 27.7804 87.2227C26.7065 87.2227 25.8359 88.1243 25.8359 89.2365C25.8359 90.3488 26.7065 91.2504 27.7804 91.2504Z" stroke="#FDC251" stroke-width="1.52778"/>
<path d="M118.63 38.1523L118.697 38.3362C119.294 39.9613 120.575 41.2422 122.2 41.8393L122.384 41.9069L122.2 41.9744C120.575 42.5716 119.294 43.8524 118.697 45.4776L118.63 45.6614L118.562 45.4776C117.965 43.8524 116.684 42.5716 115.059 41.9744L114.875 41.9069L115.059 41.8393C116.684 41.2422 117.965 39.9613 118.562 38.3362L118.63 38.1523Z" stroke="#FDC251" stroke-width="1.52778" stroke-linejoin="round"/>
<path opacity="0.2" d="M37.2194 27.2227L37.2697 27.3596C37.7146 28.5705 38.669 29.5249 39.8799 29.9698L40.0169 30.0202L39.8799 30.0705C38.669 30.5154 37.7146 31.4698 37.2697 32.6807L37.2194 32.8177L37.1691 32.6807C36.7241 31.4698 35.7698 30.5154 34.5588 30.0705L34.4219 30.0202L34.5588 29.9698C35.7698 29.5249 36.7241 28.5705 37.1691 27.3596L37.2194 27.2227Z" stroke="#A23F16" stroke-width="1.52778" stroke-linejoin="round"/>
<ellipse opacity="0.1" cx="75.0981" cy="120.072" rx="22.0355" ry="2.71072" fill="#492170"/>
<path d="M100.754 44.9786C102.51 45.9631 103.804 47.605 104.351 49.5434C104.897 51.4817 104.652 53.5577 103.668 55.315L78.6919 99.92C78.0592 101.05 77.1819 102.023 76.1241 102.77C75.0664 103.517 73.855 104.017 72.5787 104.235C71.3024 104.453 69.9936 104.383 68.748 104.029C67.5025 103.676 66.3518 103.048 65.3802 102.192L46.4501 85.5168C44.9384 84.1853 44.0176 82.3077 43.8902 80.2972C43.7628 78.2868 44.4393 76.308 45.7709 74.7963C47.1024 73.2846 48.98 72.3638 50.9904 72.2364C53.0009 72.109 54.9797 72.7855 56.4914 74.1171L68.3685 84.5793C68.4898 84.6861 68.6334 84.7644 68.7889 84.8085C68.9443 84.8527 69.1076 84.8616 69.2669 84.8345C69.4263 84.8075 69.5775 84.7452 69.7097 84.6523C69.8418 84.5593 69.9516 84.438 70.0309 84.2972L90.415 47.8931C91.3995 46.1357 93.0418 44.8413 94.9806 44.2947C96.9195 43.7481 98.996 43.9941 100.754 44.9786Z" fill="url(#paint1_linear_2755_3928)"/>
<path d="M100.754 44.9786C102.51 45.9631 103.804 47.605 104.351 49.5434C104.897 51.4817 104.652 53.5577 103.668 55.315L78.6919 99.92C78.0592 101.05 77.1819 102.023 76.1241 102.77C75.0664 103.517 73.855 104.017 72.5787 104.235C71.3024 104.453 69.9936 104.383 68.748 104.029C67.5025 103.676 66.3518 103.048 65.3802 102.192L46.4501 85.5168C44.9384 84.1853 44.0176 82.3077 43.8902 80.2972C43.7628 78.2868 44.4393 76.308 45.7709 74.7963C47.1024 73.2846 48.98 72.3638 50.9904 72.2364C53.0009 72.109 54.9797 72.7855 56.4914 74.1171L68.3685 84.5793C68.4898 84.6861 68.6334 84.7644 68.7889 84.8085C68.9443 84.8527 69.1076 84.8616 69.2669 84.8345C69.4263 84.8075 69.5775 84.7452 69.7097 84.6523C69.8418 84.5593 69.9516 84.438 70.0309 84.2972L90.415 47.8931C91.3995 46.1357 93.0418 44.8413 94.9806 44.2947C96.9195 43.7481 98.996 43.9941 100.754 44.9786Z" fill="url(#paint2_radial_2755_3928)"/>
<path d="M100.754 44.9786C102.51 45.9631 103.804 47.605 104.351 49.5434C104.897 51.4817 104.652 53.5577 103.668 55.315L78.6919 99.92C78.0592 101.05 77.1819 102.023 76.1241 102.77C75.0664 103.517 73.855 104.017 72.5787 104.235C71.3024 104.453 69.9936 104.383 68.748 104.029C67.5025 103.676 66.3518 103.048 65.3802 102.192L46.4501 85.5168C44.9384 84.1853 44.0176 82.3077 43.8902 80.2972C43.7628 78.2868 44.4393 76.308 45.7709 74.7963C47.1024 73.2846 48.98 72.3638 50.9904 72.2364C53.0009 72.109 54.9797 72.7855 56.4914 74.1171L68.3685 84.5793C68.4898 84.6861 68.6334 84.7644 68.7889 84.8085C68.9443 84.8527 69.1076 84.8616 69.2669 84.8345C69.4263 84.8075 69.5775 84.7452 69.7097 84.6523C69.8418 84.5593 69.9516 84.438 70.0309 84.2972L90.415 47.8931C91.3995 46.1357 93.0418 44.8413 94.9806 44.2947C96.9195 43.7481 98.996 43.9941 100.754 44.9786Z" fill="url(#paint3_radial_2755_3928)"/>
<g filter="url(#filter0_f_2755_3928)">
<path d="M95.6858 55.1719L73.4136 94.549C73.2555 94.8292 73.0371 95.0706 72.7743 95.256C72.5114 95.4413 72.2106 95.5659 71.8937 95.6208C71.5767 95.6756 71.2516 95.6593 70.9417 95.573C70.6318 95.4867 70.345 95.3327 70.102 95.122L54.4531 81.5673" stroke="url(#paint4_linear_2755_3928)" stroke-width="0.208333" stroke-linecap="round"/>
</g>
<defs>
<filter id="filter0_f_2755_3928" x="54.2474" y="54.9642" width="41.6458" height="40.8958" filterUnits="userSpaceOnUse" color-interpolation-filters="sRGB">
<feFlood flood-opacity="0" result="BackgroundImageFix"/>
<feBlend mode="normal" in="SourceGraphic" in2="BackgroundImageFix" result="shape"/>
<feGaussianBlur stdDeviation="0.0520833" result="effect1_foregroundBlur_2755_3928"/>
</filter>
<linearGradient id="paint0_linear_2755_3928" x1="74.6333" y1="22.7773" x2="74.6333" y2="116.985" gradientUnits="userSpaceOnUse">
<stop stop-color="#F6DDDD"/>
<stop offset="1" stop-color="white" stop-opacity="0"/>
</linearGradient>
<linearGradient id="paint1_linear_2755_3928" x1="102.874" y1="55.7186" x2="70.1046" y2="106.693" gradientUnits="userSpaceOnUse">
<stop stop-color="#04B54C"/>
<stop offset="1" stop-color="#069841"/>
</linearGradient>
<radialGradient id="paint2_radial_2755_3928" cx="0" cy="0" r="1" gradientUnits="userSpaceOnUse" gradientTransform="translate(99.688 49.5294) rotate(122.005) scale(6.8697 6.91661)">
<stop stop-color="#04B54C"/>
<stop offset="1" stop-color="#39BA6D"/>
</radialGradient>
<radialGradient id="paint3_radial_2755_3928" cx="0" cy="0" r="1" gradientUnits="userSpaceOnUse" gradientTransform="translate(98.1407 96.4977) rotate(-93.802) scale(57.6536 89.3993)">
<stop stop-color="#009D40"/>
<stop offset="0.786" stop-color="#04B54C"/>
<stop offset="0.961" stop-color="#04B54C"/>
</radialGradient>
<linearGradient id="paint4_linear_2755_3928" x1="94.8655" y1="59.5404" x2="72.2917" y2="98.3164" gradientUnits="userSpaceOnUse">
<stop stop-color="#04B54C"/>
<stop offset="1" stop-color="#11C259"/>
</linearGradient>
</defs>
</svg>
