<svg width="121" height="121" viewBox="0 0 121 121" fill="none" xmlns="http://www.w3.org/2000/svg">
<rect x="0.289062" y="0.75" width="120" height="120" rx="20" fill="#8F4300" fill-opacity="0.2"/>
<path d="M109.219 60.3789C109.219 86.8888 87.7286 108.379 61.2188 108.379C34.7089 108.379 13.2188 86.8888 13.2188 60.3789C13.2188 33.869 34.7089 12.3789 61.2188 12.3789C87.7286 12.3789 109.219 33.869 109.219 60.3789Z" fill="#8F4300" fill-opacity="0.5"/>
<path d="M101.052 60.3802C101.052 82.3823 83.2156 100.219 61.2135 100.219C39.2115 100.219 21.375 82.3823 21.375 60.3802C21.375 38.3782 39.2115 20.5417 61.2135 20.5417C83.2156 20.5417 101.052 38.3782 101.052 60.3802Z" fill="#F6EFE9"/>
<path d="M41.6901 101.656L41.6836 101.656C41.5682 101.652 41.4528 101.647 41.3375 101.642C41.2421 101.638 41.1682 101.558 41.172 101.462C41.1762 101.367 41.257 101.292 41.352 101.297C41.4666 101.302 41.5813 101.307 41.696 101.311C41.7913 101.314 41.8659 101.394 41.8625 101.49C41.859 101.583 41.7823 101.656 41.6901 101.656Z" fill="#8F4300" fill-opacity="0.5"/>
<path d="M104.03 63.9841C103.611 63.9841 103.27 64.325 103.27 64.7439C103.27 65.1626 103.611 65.5035 104.03 65.5035C104.449 65.5035 104.789 65.1626 104.789 64.7439C104.789 64.325 104.449 63.9841 104.03 63.9841ZM104.03 66.0312C103.32 66.0312 102.742 65.4537 102.742 64.7439C102.742 64.0338 103.32 63.4563 104.03 63.4563C104.74 63.4563 105.318 64.0338 105.318 64.7439C105.318 65.4537 104.74 66.0312 104.03 66.0312Z" fill="#8F4300" fill-opacity="0.5"/>
<path d="M12.8482 45.2028C12.4883 45.2028 12.1957 45.4957 12.1957 45.8553C12.1957 46.2149 12.4883 46.5074 12.8482 46.5074C13.2077 46.5074 13.5003 46.2149 13.5003 45.8553C13.5003 45.4957 13.2077 45.2028 12.8482 45.2028ZM12.8482 46.9609C12.2382 46.9609 11.7422 46.4649 11.7422 45.8553C11.7422 45.2457 12.2382 44.7497 12.8482 44.7497C13.4578 44.7497 13.9538 45.2457 13.9538 45.8553C13.9538 46.4649 13.4578 46.9609 12.8482 46.9609Z" fill="#8F4300" fill-opacity="0.5"/>
<path d="M23.5766 91.312H22.8975V90.3546C22.8975 90.2482 22.8115 90.1618 22.7052 90.1618C22.5988 90.1618 22.5124 90.2482 22.5124 90.3546V91.312H21.8334C21.727 91.312 21.6406 91.3984 21.6406 91.5047C21.6406 91.6111 21.727 91.6975 21.8334 91.6975H22.5124V92.6549C22.5124 92.7613 22.5988 92.8477 22.7052 92.8477C22.8115 92.8477 22.8975 92.7613 22.8975 92.6549V91.6975H23.5766C23.6833 91.6975 23.7693 91.6111 23.7693 91.5047C23.7693 91.3984 23.6833 91.312 23.5766 91.312Z" fill="#8F4300" fill-opacity="0.5"/>
<path d="M89.7809 19.0076H88.7619V17.5704C88.7619 17.4109 88.6324 17.2813 88.4725 17.2813C88.3129 17.2813 88.1834 17.4109 88.1834 17.5704V19.0076H87.1641C87.0045 19.0076 86.875 19.1372 86.875 19.2971C86.875 19.4567 87.0045 19.5862 87.1641 19.5862H88.1834V21.0234C88.1834 21.183 88.3129 21.3125 88.4725 21.3125C88.6324 21.3125 88.7619 21.183 88.7619 21.0234V19.5862H89.7809C89.9408 19.5862 90.0703 19.4567 90.0703 19.2971C90.0703 19.1372 89.9408 19.0076 89.7809 19.0076Z" fill="#8F4300" fill-opacity="0.5"/>
<path d="M102.755 44.3503L92.877 81.7724C92.4311 83.4614 90.7007 84.4693 89.0117 84.0234L61.0356 76.6387C61.0169 76.6338 60.9986 76.6287 60.9803 76.6235C59.7327 76.2705 58.8678 75.2111 58.7069 73.995C58.6544 73.5981 58.6765 73.1843 58.7853 72.773L68.6634 35.3512C69.1093 33.6618 70.8401 32.654 72.5284 33.0995L100.505 40.4846C102.194 40.9305 103.201 42.6609 102.755 44.3503Z" fill="#9C4900"/>
<path d="M101.631 48.6082L92.8763 81.7722C92.4304 83.4612 90.6996 84.4691 89.011 84.0235L64.5859 77.5759C92.0201 83.4847 101.631 48.6082 101.631 48.6082Z" fill="#9C4900"/>
<path d="M72.2466 35.6201L62.7422 71.6257L64.2692 74.2483L89.4479 80.8945L99.4997 42.8141L72.2466 35.6201Z" fill="white"/>
<path d="M64.2692 74.25L62.7422 71.6274L64.817 72.1752L64.2692 74.25Z" fill="#8F4300" fill-opacity="0.5"/>
<path d="M82.1464 72.3599C81.7264 73.9494 82.6748 75.5783 84.2644 75.9983C85.8539 76.418 87.4828 75.4695 87.9028 73.88C88.3225 72.2904 87.374 70.6615 85.7845 70.2419C84.1949 69.8219 82.566 70.7703 82.1464 72.3599Z" fill="#8F4300"/>
<path d="M84.1993 74.5156L83.3438 72.9016L84.0325 72.5365L84.4653 73.353L86.4627 71.8851L86.9245 72.513L84.1993 74.5156Z" fill="white"/>
<path d="M70.2762 68.4137L80.0638 70.9984C80.3401 71.0713 80.6234 70.9065 80.6966 70.6298C80.7695 70.3535 80.6047 70.0703 80.328 69.9974L70.5404 67.4128C70.2641 67.3395 69.9809 67.5046 69.908 67.781C69.8348 68.0573 69.9999 68.3405 70.2762 68.4137Z" fill="#9C4900"/>
<path d="M67.8074 70.4529L79.3991 73.5139C79.6758 73.5871 79.9586 73.422 80.0319 73.1457C80.1047 72.8694 79.94 72.5861 79.6637 72.5129L68.0717 69.452C67.7953 69.3787 67.5121 69.5438 67.4392 69.8202C67.366 70.0965 67.5311 70.3797 67.8074 70.4529Z" fill="#8F4300"/>
<path d="M84.3962 63.8599C83.9766 65.4494 84.925 67.0783 86.5146 67.4983C88.1041 67.918 89.733 66.9695 90.1527 65.38C90.5727 63.7904 89.6242 62.1615 88.0347 61.7419C86.4451 61.3219 84.8162 62.2703 84.3962 63.8599Z" fill="#8F4300"/>
<path d="M81.9062 64.013L72.1189 61.4284C71.8422 61.3555 71.559 61.5203 71.4861 61.7966C71.4129 62.0733 71.578 62.3565 71.8543 62.4294L81.6419 65.014C81.9183 65.0869 82.2015 64.9221 82.2747 64.6458C82.3476 64.3695 82.1828 64.0859 81.9062 64.013Z" fill="#8F4300"/>
<path d="M82.5776 61.4974L70.986 58.4361C70.7096 58.3632 70.4261 58.528 70.3532 58.8047C70.2803 59.081 70.4451 59.3642 70.7217 59.4371L82.3134 62.4984C82.5897 62.5713 82.8729 62.4065 82.9458 62.1298C83.019 61.8535 82.8539 61.5703 82.5776 61.4974Z" fill="#9C4900"/>
<path d="M84.0146 63.7586C83.54 65.5565 84.6162 67.405 86.4141 67.88C88.2115 68.3545 90.0605 67.2783 90.535 65.4805C91.01 63.683 89.9337 61.8341 88.1359 61.3595C86.3381 60.8846 84.4895 61.9608 84.0146 63.7586ZM83.7842 63.6979C84.2926 61.7729 86.2721 60.6207 88.1967 61.1288C90.1216 61.6372 91.2742 63.6167 90.7658 65.5416C90.2573 67.4662 88.2778 68.6188 86.3529 68.1103C84.4284 67.6019 83.2758 65.6224 83.7842 63.6979Z" fill="#9C4900"/>
<path d="M86.6384 55.3599C86.2188 56.9494 87.1669 58.5783 88.7568 58.9983C90.3463 59.418 91.9752 58.4695 92.3949 56.88C92.8149 55.2904 91.8664 53.6615 90.2769 53.2419C88.6873 52.8219 87.0584 53.7703 86.6384 55.3599Z" fill="#8F4300"/>
<path d="M88.6915 57.5156L87.8359 55.9012L88.5243 55.5365L88.9571 56.353L90.9549 54.8847L91.4164 55.5126L88.6915 57.5156Z" fill="white"/>
<path d="M77.8155 52.2189L84.5536 53.9984C84.8302 54.0713 85.1134 53.9065 85.1863 53.6298C85.2592 53.3535 85.0945 53.0703 84.8181 52.9974L78.0797 51.2179C77.8034 51.145 77.5202 51.3098 77.4469 51.5861C77.3741 51.8628 77.5388 52.146 77.8155 52.2189Z" fill="#8F4300"/>
<path d="M74.1043 53.9292L83.8919 56.5139C84.1683 56.5871 84.4515 56.422 84.5244 56.1457C84.5976 55.8694 84.4325 55.5861 84.1562 55.5129L74.3685 52.9283C74.0922 52.8554 73.809 53.0202 73.7361 53.2965C73.6629 53.5731 73.828 53.8564 74.1043 53.9292Z" fill="#9C4900"/>
<path d="M88.7245 47.4692C88.3045 49.0591 89.253 50.688 90.8425 51.1077C92.432 51.5273 94.0609 50.5792 94.4809 48.9897C94.9006 47.3998 93.9521 45.7709 92.3626 45.3512C90.7731 44.9316 89.1441 45.8797 88.7245 47.4692Z" fill="#8F4300"/>
<path d="M90.7774 49.625L89.9219 48.0109L90.6103 47.6459L91.0431 48.4624L93.0408 46.9941L93.5023 47.6224L90.7774 49.625Z" fill="white"/>
<path d="M76.8465 43.523L86.6341 46.1076C86.9104 46.1809 87.1937 46.0158 87.2669 45.7394C87.3398 45.4631 87.1747 45.1799 86.8984 45.1067L77.1107 42.522C76.8344 42.4492 76.5512 42.6139 76.4783 42.8902C76.4051 43.1669 76.5702 43.4501 76.8465 43.523Z" fill="#9C4900"/>
<path d="M74.3778 45.566L85.9694 48.6273C86.2457 48.7002 86.529 48.5354 86.6022 48.2587C86.6751 47.9824 86.5103 47.6992 86.2336 47.6263L74.642 44.565C74.3657 44.4921 74.0824 44.6569 74.0096 44.9332C73.9363 45.2099 74.1014 45.4931 74.3778 45.566Z" fill="#8F4300"/>
<path d="M92.009 37.1219L89.2893 36.4038C88.9709 36.3199 88.7809 35.9938 88.8652 35.6754C88.9802 35.2384 88.7174 34.787 88.2804 34.6716L86.0264 34.0765C85.5898 33.9615 85.138 34.2243 85.023 34.6609C84.9387 34.9794 84.6126 35.1694 84.2942 35.0854L81.5748 34.3677C81.2533 34.2827 80.9251 34.4741 80.8405 34.7953L79.9186 38.288C79.8603 38.508 79.9321 38.7329 80.0872 38.8783C80.1573 38.9456 80.245 38.9961 80.3459 39.0226L90.7801 41.7769C91.1006 41.8615 91.4294 41.6698 91.5144 41.3489L92.4363 37.8562C92.5213 37.535 92.3296 37.2065 92.009 37.1219Z" fill="#8F4300" fill-opacity="0.5"/>
<path d="M83.0551 35.4396C83.0406 35.4396 83.0257 35.4375 83.0109 35.4337L82.3477 35.2586C82.2555 35.2344 82.2006 35.1398 82.2251 35.0476C82.2493 34.9554 82.3436 34.9004 82.4361 34.9246L83.0993 35.0997C83.1915 35.1243 83.2464 35.2186 83.2223 35.3108C83.2015 35.3881 83.1318 35.4396 83.0551 35.4396ZM81.1647 35.699C81.1502 35.699 81.1353 35.6973 81.1205 35.6935C81.0283 35.669 80.9734 35.5747 80.9979 35.4824L81.1291 34.9854C81.1554 34.8845 81.22 34.7999 81.3101 34.7471C81.3927 34.6987 81.4984 34.7267 81.5464 34.8089C81.5947 34.8911 81.5671 34.9972 81.4845 35.0452C81.4783 35.049 81.4673 35.0576 81.4628 35.0735L81.3315 35.5705C81.3111 35.6479 81.2414 35.699 81.1647 35.699ZM84.7133 35.8772C84.6985 35.8772 84.6836 35.8752 84.6691 35.8714L84.006 35.6962C83.9137 35.6721 83.8585 35.5774 83.883 35.4852C83.9072 35.393 84.0015 35.3381 84.094 35.3622L84.7572 35.5374C84.8494 35.5619 84.9044 35.6562 84.8802 35.7484C84.8598 35.8261 84.7897 35.8772 84.7133 35.8772ZM86.3713 36.3149C86.3568 36.3149 86.3419 36.3131 86.3271 36.309L85.6639 36.1339C85.5717 36.1097 85.5168 36.015 85.5409 35.9228C85.5651 35.8306 85.6597 35.7757 85.752 35.8002L86.4151 35.975C86.5074 35.9995 86.5623 36.0938 86.5381 36.186C86.5177 36.2637 86.4476 36.3149 86.3713 36.3149ZM88.0292 36.7525C88.0147 36.7525 87.9998 36.7507 87.985 36.7466L87.3218 36.5718C87.2296 36.5473 87.1747 36.4527 87.1989 36.3608C87.2234 36.2686 87.3177 36.2133 87.4099 36.2378L88.0734 36.4126C88.1656 36.4371 88.2206 36.5318 88.196 36.624C88.1756 36.7014 88.1059 36.7525 88.0292 36.7525ZM89.6871 37.1901C89.6726 37.1901 89.6578 37.1884 89.6429 37.1846L88.9797 37.0095C88.8875 36.9849 88.8326 36.8906 88.8571 36.7984C88.8813 36.7062 88.9756 36.6509 89.0682 36.6755L89.7313 36.8506C89.8236 36.8747 89.8785 36.9694 89.854 37.0616C89.8336 37.139 89.7638 37.1901 89.6871 37.1901ZM80.7271 37.3573C80.7126 37.3573 80.6977 37.3552 80.6829 37.3514C80.5906 37.3272 80.5357 37.2326 80.5603 37.1404L80.735 36.4772C80.7595 36.385 80.8538 36.3297 80.9461 36.3542C81.0383 36.3788 81.0935 36.473 81.069 36.5653L80.8939 37.2284C80.8735 37.3058 80.8038 37.3573 80.7271 37.3573ZM91.3454 37.6277C91.3305 37.6277 91.316 37.626 91.3012 37.6222L90.638 37.4471C90.5458 37.4226 90.4905 37.3283 90.515 37.236C90.5392 37.1438 90.6335 37.0885 90.7261 37.1131L91.3893 37.2882C91.4815 37.3124 91.5364 37.407 91.5122 37.4992C91.4918 37.5766 91.4217 37.6277 91.3454 37.6277ZM80.8601 38.7599C80.8455 38.7599 80.8307 38.7582 80.8159 38.7544L80.5575 38.686C80.3855 38.6408 80.2656 38.4847 80.2656 38.3068C80.2656 38.2729 80.2698 38.2394 80.2788 38.2066L80.2974 38.1351C80.3219 38.0429 80.4162 37.988 80.5084 38.0122C80.6007 38.0367 80.6559 38.131 80.6314 38.2232L80.6124 38.295C80.6114 38.2992 80.611 38.303 80.611 38.3068C80.611 38.3247 80.6228 38.3462 80.6459 38.352L80.9039 38.4204C80.9962 38.4446 81.0514 38.5392 81.0269 38.6315C81.0065 38.7088 80.9367 38.7599 80.8601 38.7599ZM91.6891 38.9078C91.6746 38.9078 91.6597 38.906 91.6452 38.9022C91.553 38.8777 91.4977 38.7831 91.5222 38.6909L91.6974 38.0277C91.7215 37.9355 91.8158 37.8806 91.9084 37.9047C92.0006 37.9293 92.0555 38.0239 92.031 38.1161L91.8562 38.7793C91.8355 38.8567 91.7657 38.9078 91.6891 38.9078ZM82.518 39.1976C82.5035 39.1976 82.4886 39.1958 82.4738 39.192L81.8106 39.0169C81.7184 38.9924 81.6635 38.8981 81.688 38.8059C81.7122 38.7137 81.8065 38.6584 81.899 38.6829L82.5622 38.858C82.6544 38.8822 82.7093 38.9769 82.6848 39.0691C82.6644 39.1464 82.5947 39.1976 82.518 39.1976ZM84.1762 39.6355C84.1614 39.6355 84.1465 39.6335 84.132 39.6297L83.4689 39.4545C83.3766 39.4304 83.3214 39.3357 83.3459 39.2435C83.3701 39.1513 83.4647 39.096 83.5569 39.1205L84.2201 39.2957C84.3123 39.3198 84.3673 39.4145 84.3431 39.5067C84.3227 39.5841 84.2526 39.6355 84.1762 39.6355ZM85.8342 40.0732C85.8197 40.0732 85.8048 40.0711 85.79 40.0673L85.1268 39.8922C85.0346 39.868 84.9793 39.7733 85.0038 39.6811C85.028 39.5889 85.1226 39.534 85.2149 39.5582L85.878 39.7333C85.9703 39.7578 86.0252 39.8521 86.001 39.9443C85.9806 40.0217 85.9105 40.0732 85.8342 40.0732ZM87.4921 40.5108C87.4776 40.5108 87.4627 40.5087 87.4479 40.5049L86.7847 40.3298C86.6925 40.3056 86.6376 40.211 86.6618 40.1188C86.6863 40.0265 86.7806 39.9716 86.8728 39.9958L87.536 40.1709C87.6282 40.1954 87.6835 40.2897 87.6589 40.3819C87.6386 40.4593 87.5688 40.5108 87.4921 40.5108ZM91.2514 40.5657C91.2369 40.5657 91.2221 40.564 91.2072 40.5602C91.115 40.5356 91.0601 40.4414 91.0846 40.3491L91.2597 39.686C91.2839 39.5937 91.3782 39.5385 91.4708 39.563C91.563 39.5872 91.6179 39.6818 91.5934 39.774L91.4183 40.4372C91.3979 40.5146 91.3281 40.5657 91.2514 40.5657ZM89.15 40.9484C89.1355 40.9484 89.1207 40.9463 89.1058 40.9425L88.4426 40.7674C88.3504 40.7432 88.2955 40.6486 88.32 40.5564C88.3442 40.4642 88.4385 40.4092 88.5311 40.4334L89.1942 40.6085C89.2865 40.6331 89.3414 40.7273 89.3169 40.8196C89.2965 40.8973 89.2267 40.9484 89.15 40.9484ZM90.8104 41.3867C90.7959 41.3867 90.7814 41.3846 90.7668 41.3808L90.8104 41.214L90.7658 41.3808L90.1009 41.205C90.0087 41.1809 89.9534 41.0862 89.9779 40.994C90.0021 40.9018 90.0964 40.8469 90.189 40.8714L90.8522 41.0462C90.9444 41.0707 91.0003 41.1653 90.9762 41.2575C90.9558 41.3349 90.8867 41.3867 90.8104 41.3867Z" fill="white"/>
<path d="M82.5196 92.9778L30.3209 100.676L19.5703 27.7772L71.769 20.0793L82.5196 92.9778Z" fill="white"/>
<path d="M82.5219 92.9795L82.4462 92.4669L30.7601 100.089L20.1608 28.2158L71.3344 20.6691L82.0093 93.0551L82.5219 92.9795L83.0345 92.9042L72.2082 19.4927L18.9844 27.3416L29.8863 101.266L83.1101 93.4167L83.0345 92.9042L82.5219 92.9795Z" fill="#8F4300" fill-opacity="0.5"/>
<path d="M35.7015 53.9434L30.7609 54.6719L29.0781 43.2609L34.0187 42.5321L35.7015 53.9434Z" fill="#8F4300" fill-opacity="0.5"/>
<path d="M42.4517 52.947L37.5114 53.6758L35.9844 43.3214L40.925 42.5929L42.4517 52.947Z" fill="#8F4300" fill-opacity="0.5"/>
<path d="M49.2012 51.9551L44.2606 52.6836L42.4141 40.1625L47.3547 39.434L49.2012 51.9551Z" fill="#8F4300" fill-opacity="0.5"/>
<path d="M55.9491 50.959L51.0085 51.6875L48.6953 36.0032L53.6359 35.2747L55.9491 50.959Z" fill="#8F4300"/>
<path d="M52.937 29.9086C52.5522 29.6226 52.0793 29.5038 51.6051 29.5735C51.1312 29.6436 50.7126 29.8941 50.4269 30.2785L41.6738 42.0598L34.8981 37.4172C34.5247 37.1616 34.0725 37.0566 33.6249 37.1219L33.6221 37.1223C33.1755 37.1882 32.7735 37.4176 32.4892 37.7685L26.7041 44.9169C26.4029 45.2896 26.2644 45.7569 26.3148 46.2336C26.3649 46.7102 26.5977 47.1385 26.9701 47.4401C27.3428 47.7416 27.8104 47.8801 28.2867 47.8297C28.7637 47.7796 29.192 47.5468 29.4932 47.1741L34.2363 41.3134L41.0704 45.9956C41.4444 46.2519 41.8973 46.3566 42.3459 46.2906C42.8202 46.2205 43.2384 45.97 43.5244 45.5856L53.3069 32.4186C53.8968 31.6245 53.731 30.4985 52.937 29.9086Z" fill="#9C4900"/>
<path d="M34.0588 40.1025L41.5761 45.2532C41.763 45.3813 41.9896 45.4335 42.2137 45.4006C42.451 45.3654 42.66 45.2404 42.803 45.048L52.5858 31.881C52.8807 31.4838 52.7975 30.9208 52.4006 30.6258C52.2082 30.4831 51.972 30.4234 51.7347 30.4586C51.4978 30.4935 51.2884 30.6185 51.1454 30.8109L41.8776 43.2851L34.3897 38.1545C34.2028 38.0267 33.977 37.9742 33.7531 38.007L33.7518 38.0073C33.5283 38.0402 33.3273 38.1548 33.1853 38.3303L27.4002 45.4787C27.2496 45.6649 27.1802 45.8987 27.2054 46.137C27.2306 46.3754 27.347 46.5895 27.5332 46.7401C27.7193 46.891 27.9532 46.9601 28.1915 46.9349C28.4333 46.9097 28.6419 46.7964 28.7949 46.6071L34.0588 40.1025ZM42.4755 47.1753C41.8027 47.2744 41.1229 47.1176 40.562 46.7329L34.4115 42.519L30.1893 47.7359C29.7368 48.2951 29.0937 48.6443 28.379 48.7193C27.6648 48.7945 26.9632 48.587 26.4047 48.1348C25.8459 47.6827 25.4967 47.0399 25.4214 46.3249C25.3461 45.6103 25.5537 44.9088 26.0058 44.3499L31.7909 37.2019C32.2168 36.6755 32.8202 36.3311 33.4899 36.2323L33.4927 36.232C34.1655 36.1339 34.8439 36.291 35.4035 36.6744L41.4673 40.8293L49.7055 29.7409C50.1341 29.164 50.762 28.7886 51.4729 28.6836C52.1841 28.5789 52.8935 28.7572 53.4707 29.1858C54.6616 30.0707 54.9107 31.7597 54.0257 32.9507L44.243 46.118C43.8143 46.6949 43.1867 47.0703 42.4755 47.1753Z" fill="white"/>
<path d="M53.1935 29.2412L49.3364 30.9094C49.1803 30.9768 49.1558 31.1882 49.2922 31.2897L52.6658 33.796C52.8022 33.8975 52.9973 33.8129 53.017 33.644L53.5009 29.4695C53.5203 29.3002 53.3497 29.1735 53.1935 29.2412Z" fill="#9C4900"/>
<path d="M43.0063 82.2157C43.3787 84.7406 41.6337 87.0893 39.1088 87.4617C36.5836 87.834 34.2352 86.089 33.8626 83.5638C33.4902 81.0389 35.2355 78.6902 37.7604 78.3179C40.2853 77.9455 42.634 79.6905 43.0063 82.2157Z" fill="#8F4300" fill-opacity="0.5"/>
<path d="M38.1055 85.3867L35.8984 83.6055L36.6583 82.6639L37.7747 83.5651L39.7282 80.2492L40.7707 80.8637L38.1055 85.3867Z" fill="white"/>
<path d="M62.0065 78.1829L46.46 80.4756C46.0207 80.5406 45.6124 80.237 45.5478 79.798C45.4829 79.3589 45.7865 78.9503 46.2255 78.8857L61.772 76.593C62.211 76.5284 62.6196 76.8317 62.6842 77.2707C62.7488 77.7097 62.4455 78.1183 62.0065 78.1829Z" fill="#9C4900"/>
<path d="M65.4582 81.7605L47.0459 84.4757C46.6069 84.5403 46.1983 84.237 46.1337 83.798C46.0688 83.359 46.3724 82.9504 46.8114 82.8858L65.2237 80.1703C65.6627 80.1057 66.0713 80.4093 66.1359 80.8483C66.2008 81.2873 65.8972 81.6956 65.4582 81.7605Z" fill="#8F4300"/>
<path d="M41.0138 68.7157C41.3862 71.2406 39.6412 73.5893 37.1163 73.9617C34.5914 74.334 32.2427 72.589 31.8704 70.0638C31.498 67.5389 33.243 65.1902 35.7679 64.8179C38.2928 64.4455 40.6415 66.1905 41.0138 68.7157Z" fill="#8F4300" fill-opacity="0.5"/>
<path d="M36.1134 71.8867L33.9062 70.1055L34.6661 69.1639L35.7825 70.0651L37.7364 66.7492L38.7788 67.3637L36.1134 71.8867Z" fill="white"/>
<path d="M44.8195 69.3818L60.366 67.0891C60.805 67.0241 61.2133 67.3277 61.2782 67.7667C61.3428 68.2058 61.0395 68.6144 60.6005 68.679L45.0537 70.9717C44.6147 71.0367 44.2064 70.7331 44.1415 70.294C44.0769 69.855 44.3802 69.4464 44.8195 69.3818Z" fill="#8F4300"/>
<path d="M44.2333 65.3857L62.6456 62.6706C63.0846 62.6056 63.4932 62.9092 63.5578 63.3482C63.6227 63.7872 63.3191 64.1955 62.8801 64.2604L44.4678 66.9756C44.0288 67.0406 43.6206 66.737 43.5556 66.2979C43.4907 65.8589 43.7943 65.4503 44.2333 65.3857Z" fill="#9C4900"/>
<path d="M35.6774 64.2081C32.822 64.6295 30.8414 67.295 31.2625 70.1507C31.6835 73.0062 34.3493 74.9867 37.2048 74.5653C40.0602 74.1443 42.0407 71.4788 41.6197 68.623C41.1986 65.7676 38.5328 63.7871 35.6774 64.2081ZM37.259 74.9318C34.2015 75.3825 31.3471 73.2621 30.8964 70.2046C30.4456 67.1471 32.566 64.2931 35.6235 63.842C38.681 63.3912 41.535 65.5117 41.9858 68.5691C42.4369 71.6266 40.3161 74.4807 37.259 74.9318Z" fill="#9C4900"/>
<path d="M77.5771 89.5177L69.2747 90.7421C68.8757 90.8008 68.5044 90.5252 68.4454 90.1259C68.3867 89.727 68.6626 89.3557 69.0616 89.2966L77.364 88.0725C77.7633 88.0135 78.1346 88.2894 78.1933 88.6884C78.252 89.0876 77.9764 89.459 77.5771 89.5177Z" fill="#9C4900"/>
<path d="M68.438 29.5323L59.0866 30.9115C58.7623 30.9595 58.4604 30.735 58.4127 30.4107C58.3647 30.0863 58.5889 29.7845 58.9136 29.7368L68.2649 28.3576C68.5893 28.3099 68.8911 28.5341 68.9388 28.8584C68.9868 29.1828 68.7627 29.4847 68.438 29.5323Z" fill="#9C4900"/>
<path d="M68.8601 32.4113L59.5087 33.7905C59.1844 33.8382 58.8825 33.614 58.8345 33.2897C58.7868 32.9653 59.011 32.6634 59.3353 32.6154L68.6867 31.2366C69.0114 31.1886 69.3129 31.4127 69.3609 31.7371C69.4086 32.0618 69.1844 32.3633 68.8601 32.4113Z" fill="#8F4300"/>
<path d="M87.5616 82.7656C87.3727 82.7656 87.1838 82.7421 87 82.6945C87.1323 82.6095 87.2577 82.509 87.3734 82.3929V82.3926C87.886 81.8804 88.0977 81.1816 88.0093 80.515L89.4468 80.8942L89.7093 79.8988C89.9311 80.658 89.7425 81.5115 89.1439 82.1101V82.1104C88.707 82.5473 88.1343 82.7656 87.5616 82.7656Z" fill="#8F4300"/>
<path d="M85.0264 76.0977C84.7749 76.0977 84.519 76.0655 84.2644 75.9985C84.205 75.9826 84.1466 75.9654 84.0889 75.9464L82.1979 74.0553C82.0221 73.5255 81.9931 72.94 82.1464 72.3601C82.1744 72.254 82.2079 72.1508 82.2462 72.0506L83.6213 73.4256L84.1995 74.5164L84.4951 74.2995L86.0943 75.8984C85.7583 76.0282 85.3966 76.0977 85.0264 76.0977Z" fill="#8F4300"/>
<path d="M84.2032 74.5156L83.625 73.4248L84.4989 74.2987L84.2032 74.5156Z" fill="#8F4300" fill-opacity="0.5"/>
<path d="M80.1963 71.0156C80.1524 71.0156 80.1079 71.0101 80.0637 70.9984L79.7894 70.9258L79.625 69.8116L80.1476 69.9497L80.7134 70.5151C80.712 70.5531 80.7064 70.5918 80.6964 70.6298C80.6349 70.8623 80.4253 71.0156 80.1963 71.0156Z" fill="#8F4300" fill-opacity="0.5"/>
<path d="M53.8359 51.2695C53.9755 51.0782 54.1212 50.892 54.2725 50.71C54.7057 50.1908 55.1854 49.7114 55.7049 49.279L55.9526 50.9573L53.8359 51.2695Z" fill="#8F4300"/>
<path d="M60.5756 68.6836C59.4565 68.456 58.3989 68.0601 57.4297 67.523L60.3722 67.0892C60.4119 67.0834 60.4513 67.0806 60.4903 67.0806C60.8823 67.0806 61.2253 67.3676 61.2844 67.7669C61.3489 68.2059 61.0457 68.6145 60.6067 68.6791L60.5756 68.6836Z" fill="#8F4300"/>
<path d="M54.7527 65.457C54.3248 65.007 53.9341 64.521 53.5859 64.0043L62.6427 62.669C62.6824 62.6631 62.7221 62.66 62.7608 62.66C63.1529 62.66 63.4962 62.9473 63.5549 63.3466C63.6198 63.7856 63.3162 64.1939 62.8772 64.2588L54.7527 65.457Z" fill="#9C4900"/>
<path d="M62.7988 68.9062C56.671 68.9062 51.7031 63.9387 51.7031 57.8106C51.7031 55.1096 52.6682 52.6337 54.2726 50.7095C54.1213 50.8915 53.9755 51.0777 53.836 51.2691C52.4951 53.1031 51.7035 55.3645 51.7035 57.8106C51.7035 60.1037 52.3991 62.2345 53.5907 64.0029C53.9389 64.5197 54.3296 65.0056 54.7575 65.4557C55.5347 66.2729 56.4351 66.9717 57.4292 67.5226C58.3984 68.0597 59.456 68.4555 60.5751 68.6831C61.2935 68.8296 62.0372 68.9062 62.7988 68.9062C64.1717 68.9062 65.4867 68.6569 66.7004 68.2009C65.4867 68.6569 64.1721 68.9062 62.7988 68.9062ZM66.7049 68.1992C66.7073 68.1982 66.7104 68.1971 66.7129 68.1961C66.7101 68.1971 66.7077 68.1982 66.7049 68.1992Z" fill="#9C4900"/>
<path d="M55.4318 57.995C55.4318 56.9495 55.6428 55.9593 56.0245 55.0564C56.5968 53.7028 57.5557 52.5481 58.7611 51.7336C59.3638 51.3267 60.0277 51.0045 60.7361 50.7841C61.4445 50.5641 62.1975 50.4449 62.9816 50.4449C63.5539 50.4449 64.0178 49.9811 64.0178 49.4087C64.0178 48.8364 63.5539 48.3725 62.9816 48.3725C61.6559 48.3725 60.3876 48.6419 59.2357 49.1293C57.5076 49.8605 56.0404 51.0791 55.0031 52.6144C54.4847 53.3819 54.0733 54.2291 53.7922 55.1337C53.5107 56.0387 53.359 57.0006 53.3594 57.995C53.3594 58.567 53.8232 59.0312 54.3956 59.0312C54.9676 59.0312 55.4318 58.567 55.4318 57.995Z" fill="white"/>
</svg>
