<svg width="151" height="150" viewBox="0 0 151 150" fill="none" xmlns="http://www.w3.org/2000/svg">
<path d="M19.8376 0C19.8376 2.78931 17.5767 5.0505 14.7871 5.0505C11.9975 5.0505 9.73658 2.78931 9.73658 0H0.140625V11.6162C2.93024 11.6162 5.19113 13.8774 5.19113 16.6667C5.19113 19.456 2.93024 21.7172 0.140625 21.7172V28.2828C2.93024 28.2828 5.19113 30.544 5.19113 33.3333C5.19113 36.1226 2.93024 38.3838 0.140625 38.3838V44.9495C2.93024 44.9495 5.19113 47.2107 5.19113 50C5.19113 52.7893 2.93024 55.0505 0.140625 55.0505V61.6162C2.93024 61.6162 5.19113 63.8774 5.19113 66.6667C5.19113 69.456 2.93024 71.7172 0.140625 71.7172V78.2828C2.93024 78.2828 5.19113 80.544 5.19113 83.3333C5.19113 86.1227 2.93024 88.3838 0.140625 88.3838V94.9495C2.93024 94.9495 5.19113 97.2106 5.19113 100C5.19113 102.789 2.93024 105.05 0.140625 105.05V111.616C2.93024 111.616 5.19113 113.877 5.19113 116.667C5.19113 119.456 2.93024 121.717 0.140625 121.717V128.283C2.93024 128.283 5.19113 130.544 5.19113 133.333C5.19113 136.123 2.93024 138.384 0.140625 138.384V150H9.73658C9.73658 147.211 11.9975 144.949 14.7871 144.949C17.5767 144.949 19.8376 147.211 19.8376 150H26.9083C26.9083 147.211 29.1692 144.949 31.9588 144.949C34.7484 144.949 37.0093 147.211 37.0093 150H44.08C44.08 147.211 46.3409 144.949 49.1305 144.949C51.9201 144.949 54.181 147.211 54.181 150H61.2517C61.2517 147.211 63.5126 144.949 66.3022 144.949C69.0919 144.949 71.3527 147.211 71.3527 150H78.4234C78.4234 147.211 80.6843 144.949 83.474 144.949C86.2636 144.949 88.5245 147.211 88.5245 150H95.5952C95.5952 147.211 97.8561 144.949 100.646 144.949C103.435 144.949 105.696 147.211 105.696 150H112.767C112.767 147.211 115.028 144.949 117.817 144.949C120.607 144.949 122.868 147.211 122.868 150H129.939C129.939 147.211 132.199 144.949 134.989 144.949C137.779 144.949 140.04 147.211 140.04 150H150.141V138.359C149.975 138.375 149.805 138.384 149.636 138.384C146.846 138.384 144.585 136.123 144.585 133.333C144.585 130.544 146.846 128.283 149.636 128.283C149.805 128.283 149.975 128.291 150.141 128.308V121.692C149.975 121.709 149.805 121.717 149.636 121.717C146.846 121.717 144.585 119.456 144.585 116.667C144.585 113.877 146.846 111.616 149.636 111.616C149.805 111.616 149.975 111.625 150.141 111.641V105.026C149.975 105.042 149.805 105.05 149.636 105.05C146.846 105.05 144.585 102.789 144.585 100C144.585 97.2106 146.846 94.9495 149.636 94.9495C149.805 94.9495 149.975 94.9579 150.141 94.9744V88.3589C149.975 88.3755 149.805 88.3838 149.636 88.3838C146.846 88.3838 144.585 86.1227 144.585 83.3333C144.585 80.544 146.846 78.2828 149.636 78.2828C149.805 78.2828 149.975 78.2913 150.141 78.3077V71.6923C149.975 71.7087 149.805 71.7172 149.636 71.7172C146.846 71.7172 144.585 69.456 144.585 66.6667C144.585 63.8774 146.846 61.6162 149.636 61.6162C149.805 61.6162 149.975 61.6246 150.141 61.6411V55.0256C149.975 55.0421 149.805 55.0505 149.636 55.0505C146.846 55.0505 144.585 52.7893 144.585 50C144.585 47.2107 146.846 44.9495 149.636 44.9495C149.805 44.9495 149.975 44.9579 150.141 44.9744V38.3589C149.975 38.3754 149.805 38.3838 149.636 38.3838C146.846 38.3838 144.585 36.1226 144.585 33.3333C144.585 30.544 146.846 28.2828 149.636 28.2828C149.805 28.2828 149.975 28.2913 150.141 28.3077V21.6923C149.975 21.7087 149.805 21.7172 149.636 21.7172C146.846 21.7172 144.585 19.456 144.585 16.6667C144.585 13.8774 146.846 11.6162 149.636 11.6162C149.805 11.6162 149.975 11.6246 150.141 11.6411V0H140.04C140.04 2.78931 137.779 5.0505 134.989 5.0505C132.199 5.0505 129.939 2.78931 129.939 0H122.868C122.868 2.78931 120.607 5.0505 117.817 5.0505C115.028 5.0505 112.767 2.78931 112.767 0H105.696C105.696 2.78931 103.435 5.0505 100.646 5.0505C97.8561 5.0505 95.5952 2.78931 95.5952 0H88.5245C88.5245 2.78931 86.2636 5.0505 83.474 5.0505C80.6843 5.0505 78.4234 2.78931 78.4234 0H71.3527C71.3527 2.78931 69.0919 5.0505 66.3022 5.0505C63.5126 5.0505 61.2517 2.78931 61.2517 0H54.181C54.181 2.78931 51.9201 5.0505 49.1305 5.0505C46.3409 5.0505 44.08 2.78931 44.08 0H37.0093C37.0093 2.78931 34.7484 5.0505 31.9588 5.0505C29.1692 5.0505 26.9083 2.78931 26.9083 0H19.8376Z" fill="#F6EFE9"/>
<path d="M116.421 43.259C123.489 55.838 122.405 71.2174 117.775 83.4576C113.122 95.7206 104.902 104.822 94.2431 110.648C83.5831 116.452 70.4852 118.959 56.9124 115.21C43.3172 111.461 29.2702 101.434 27.892 90.0746C26.5374 78.7151 37.8514 65.9779 48.4656 52.6085C59.0572 39.2394 68.9489 25.2146 81.5278 23.0692C94.0854 20.9464 109.329 30.6799 116.421 43.259Z" fill="url(#paint0_linear_2755_3955)"/>
<path d="M27.7804 91.2504C28.8543 91.2504 29.7248 90.3488 29.7248 89.2365C29.7248 88.1243 28.8543 87.2227 27.7804 87.2227C26.7065 87.2227 25.8359 88.1243 25.8359 89.2365C25.8359 90.3488 26.7065 91.2504 27.7804 91.2504Z" stroke="#FDC251" stroke-width="1.52778"/>
<path d="M118.63 38.1523L118.697 38.3362C119.294 39.9613 120.575 41.2422 122.2 41.8393L122.384 41.9069L122.2 41.9744C120.575 42.5716 119.294 43.8524 118.697 45.4776L118.63 45.6614L118.562 45.4776C117.965 43.8524 116.684 42.5716 115.059 41.9744L114.875 41.9069L115.059 41.8393C116.684 41.2422 117.965 39.9613 118.562 38.3362L118.63 38.1523Z" stroke="#FDC251" stroke-width="1.52778" stroke-linejoin="round"/>
<path opacity="0.2" d="M37.2194 27.2227L37.2697 27.3596C37.7146 28.5705 38.669 29.5249 39.8799 29.9698L40.0169 30.0202L39.8799 30.0705C38.669 30.5154 37.7146 31.4698 37.2697 32.6807L37.2194 32.8177L37.1691 32.6807C36.7241 31.4698 35.7698 30.5154 34.5588 30.0705L34.4219 30.0202L34.5588 29.9698C35.7698 29.5249 36.7241 28.5705 37.1691 27.3596L37.2194 27.2227Z" stroke="#A23F16" stroke-width="1.52778" stroke-linejoin="round"/>
<ellipse opacity="0.1" cx="75.0981" cy="120.072" rx="22.0355" ry="2.71072" fill="#492170"/>
<path d="M71.8645 82.8669L49.4593 105.598C48.6455 106.411 47.7233 106.954 46.7468 107.225C48.971 107.876 51.4123 107.334 53.1483 105.598L73.8717 84.9284C74.3057 84.4944 75.011 84.4944 75.3908 84.9284L73.3835 82.8669C73.0038 82.4329 72.2985 82.4329 71.8645 82.8669ZM84.559 75.7059C84.125 75.2719 84.125 74.6209 84.559 74.1869L105.283 53.5176C107.832 50.9679 107.832 46.8449 105.283 44.2951C102.733 41.7454 98.664 41.7454 96.1143 44.2951L75.3908 64.9644C74.9568 65.3984 74.3057 65.3984 73.8717 64.9644L53.2025 44.2951C50.6528 41.7454 46.5298 41.7454 43.98 44.2951C43.763 44.5121 43.6003 44.7291 43.4375 44.9461C43.546 44.7834 43.6545 44.6749 43.763 44.5664C46.3127 42.0709 49.2422 43.2101 51.792 45.7599L72.19 66.6461C72.624 67.0801 73.275 67.0801 73.709 66.6461L95.0293 45.3801C97.579 42.8304 100.129 42.6134 102.679 45.1631C105.228 47.7129 104.794 50.3711 102.245 52.9209L80.9243 74.1869C80.4902 74.6209 80.4902 75.2719 80.9243 75.7059C80.9243 75.7059 101.594 96.4294 101.539 96.4294C104.089 98.9791 105.066 101.854 102.516 104.404C99.966 106.954 96.7653 106.303 94.2155 103.807L96.06 105.652C98.6098 108.202 102.733 108.202 105.283 105.652C107.832 103.102 107.832 99.0334 105.283 96.4836C105.283 96.4294 84.559 75.7059 84.559 75.7059Z" fill="#CC3333"/>
<path d="M102.511 104.399C105.06 101.849 104.084 98.9739 101.534 96.4241C101.588 96.4241 80.9191 75.7006 80.9191 75.7006C80.4851 75.2666 80.4851 74.6156 80.9191 74.1816L102.239 52.9156C104.789 50.3659 105.223 47.7076 102.673 45.1579C100.124 42.6081 97.5738 42.8251 95.0241 45.3749L73.7038 66.6409C73.2698 67.0749 72.6188 67.0749 72.1848 66.6409L51.7868 45.7546C49.2371 43.2049 46.3076 42.0656 43.7578 44.5611C43.6493 44.6696 43.5408 44.7781 43.4323 44.9409C41.4251 47.4906 41.6421 51.1254 43.9748 53.4581L64.6441 74.1816C65.0781 74.6156 65.0781 75.3209 64.6441 75.7006L43.9748 96.3699C41.4251 98.9196 41.4251 103.043 43.9748 105.592C44.7886 106.406 45.7108 106.949 46.6873 107.22C47.6638 106.894 48.6403 106.352 49.3998 105.592L71.8051 82.8616C72.2391 82.4276 72.9443 82.4276 73.3241 82.8616L75.3313 84.9231L94.1561 103.802C96.7601 106.298 99.9608 106.949 102.511 104.399Z" fill="#F44336"/>
<path opacity="0.2" d="M69.7575 70.8191C69.1608 69.9511 52.2348 52.8623 52.2348 52.8623C52.2348 52.8623 50.987 51.4519 49.685 52.4284C48.4915 53.3506 49.0883 54.7611 49.7393 55.4664C50.3903 56.1716 65.4718 71.5786 66.2313 72.2296C66.9365 72.8806 68.347 72.9891 69.215 72.5551C70.083 72.1211 70.1915 71.4159 69.7575 70.8191Z" fill="white"/>
<path opacity="0.2" d="M46.5402 52.3188C47.529 52.3188 48.3305 51.5173 48.3305 50.5285C48.3305 49.5398 47.529 48.7383 46.5402 48.7383C45.5515 48.7383 44.75 49.5398 44.75 50.5285C44.75 51.5173 45.5515 52.3188 46.5402 52.3188Z" fill="white"/>
<path opacity="0.2" d="M79.0136 84.598C79.6103 85.466 96.8076 102.284 96.8076 102.284C96.8076 102.284 98.0553 103.694 99.3573 102.663C100.551 101.741 99.8998 100.331 99.2488 99.6253C98.5978 98.92 83.2993 83.73 82.5398 83.079C81.8346 82.428 80.4241 82.3738 79.5561 82.8078C78.6881 83.2418 78.5796 84.0013 79.0136 84.598Z" fill="white"/>
<defs>
<linearGradient id="paint0_linear_2755_3955" x1="74.6333" y1="22.7773" x2="74.6333" y2="116.985" gradientUnits="userSpaceOnUse">
<stop stop-color="#F6DDDD"/>
<stop offset="1" stop-color="white" stop-opacity="0"/>
</linearGradient>
</defs>
</svg>
