<svg width="76" height="25" viewBox="0 0 76 25" fill="none" xmlns="http://www.w3.org/2000/svg">
<path d="M3.61737 24.5C1.97336 24.5 0.640625 23.1673 0.640625 21.5233L0.640624 3.47675C0.640624 1.83274 1.97336 0.5 3.61737 0.5L72.6639 0.499997C74.3079 0.499997 75.6193 1.89286 74.8083 3.3229C72.8776 6.7271 68.2578 9.58613 68.2578 12.5C68.2578 15.3666 72.8613 18.2877 74.798 21.6804C75.6131 23.1082 74.3079 24.5 72.6639 24.5L3.61737 24.5Z" fill="#04B54C"/>
<path d="M16.5406 16V9H19.4906C21.2106 9 21.7506 10.02 21.7506 11.07C21.7506 11.88 21.3006 12.77 20.2306 13.05L21.6706 16H20.4806L19.1006 13.14H17.5806V16H16.5406ZM17.5806 12.14H19.5106C20.3806 12.14 20.6706 11.61 20.6706 11.07C20.6706 10.58 20.4306 10 19.5106 10H17.5806V12.14ZM25.2184 16.12C23.7984 16.12 22.8984 15.12 22.8984 13.44C22.8984 11.76 23.8184 10.77 25.2184 10.77C26.4284 10.77 27.4184 11.53 27.4184 13.16C27.4184 13.38 27.4084 13.65 27.3784 13.83H23.9384C23.9584 14.67 24.5684 15.2 25.2284 15.2C25.6484 15.2 26.0284 15.02 26.2884 14.68L26.9684 15.38C26.5984 15.82 26.0184 16.12 25.2184 16.12ZM23.9384 12.99H26.3784C26.3584 12.04 25.7684 11.69 25.2184 11.69C24.5684 11.69 23.9884 12.04 23.9384 12.99ZM30.1972 16.12C29.3972 16.12 28.6272 15.8 28.2672 15.29L29.0072 14.66C29.2172 14.86 29.6072 15.18 30.1772 15.18C30.6972 15.18 31.0772 15.04 31.0772 14.63C31.0772 14.22 30.5872 14.04 30.0172 13.82C28.9372 13.46 28.3872 13 28.3872 12.18C28.3872 11.27 29.1772 10.77 30.1672 10.77C31.0472 10.77 31.6272 11.14 31.9572 11.54L31.2072 12.14C31.0272 11.95 30.7072 11.71 30.1672 11.71C29.7272 11.71 29.4472 11.88 29.4472 12.18C29.4472 12.52 29.8972 12.69 30.4372 12.9C31.5372 13.27 32.1172 13.71 32.1172 14.63C32.1172 15.61 31.3572 16.12 30.1972 16.12ZM35.4433 16.12C34.0133 16.12 33.1133 15.13 33.1133 13.45C33.1133 11.77 34.0133 10.77 35.4433 10.77C36.8733 10.77 37.7833 11.77 37.7833 13.45C37.7833 15.13 36.8733 16.12 35.4433 16.12ZM35.4433 15.14C36.2433 15.14 36.7433 14.5 36.7433 13.45C36.7433 12.4 36.2433 11.75 35.4433 11.75C34.6533 11.75 34.1533 12.4 34.1533 13.45C34.1533 14.5 34.6533 15.14 35.4433 15.14ZM39.0871 16V9.27L40.1271 8.78V16H39.0871ZM43.0438 16L41.1738 10.89H42.2138L43.3938 14.24C43.4538 14.42 43.4938 14.53 43.5338 14.69C43.5738 14.53 43.6138 14.42 43.6738 14.24L44.8438 10.89H45.8838L44.0138 16H43.0438ZM48.9587 16.12C47.5387 16.12 46.6387 15.12 46.6387 13.44C46.6387 11.76 47.5587 10.77 48.9587 10.77C50.1687 10.77 51.1587 11.53 51.1587 13.16C51.1587 13.38 51.1487 13.65 51.1187 13.83H47.6787C47.6987 14.67 48.3087 15.2 48.9687 15.2C49.3887 15.2 49.7687 15.02 50.0287 14.68L50.7087 15.38C50.3387 15.82 49.7587 16.12 48.9587 16.12ZM47.6787 12.99H50.1187C50.0987 12.04 49.5087 11.69 48.9587 11.69C48.3087 11.69 47.7287 12.04 47.6787 12.99ZM54.2274 16.12C52.9374 16.12 52.1074 15.12 52.1074 13.44C52.1074 11.76 52.9774 10.77 54.2274 10.77C54.7874 10.77 55.1774 10.98 55.4374 11.25V9.26L56.4774 8.78V16H55.4374V15.64C55.1674 15.94 54.7974 16.12 54.2274 16.12ZM54.3774 15.14C54.8374 15.14 55.2074 14.93 55.4374 14.56V12.31C55.2774 12.05 54.9074 11.75 54.3774 11.75C53.5974 11.75 53.1474 12.35 53.1474 13.44C53.1474 14.43 53.6074 15.14 54.3774 15.14Z" fill="white"/>
</svg>
