<?xml version="1.0" standalone="no"?>
<!DOCTYPE svg PUBLIC "-//W3C//DTD SVG 20010904//EN"
 "http://www.w3.org/TR/2001/REC-SVG-20010904/DTD/svg10.dtd">
<svg version="1.0" xmlns="http://www.w3.org/2000/svg"
 width="512.000000pt" height="512.000000pt" viewBox="0 0 512.000000 512.000000"
 preserveAspectRatio="xMidYMid meet">

<g transform="translate(0.000000,512.000000) scale(0.100000,-0.100000)"
fill="#000000" stroke="none">
<path d="M1810 3167 c0 -432 209 -811 538 -974 66 -33 81 -36 150 -36 127 2
230 55 377 194 204 194 315 470 315 785 l0 114 -58 0 -58 0 4 -147 c5 -172
-17 -304 -70 -432 -83 -200 -281 -396 -441 -438 -114 -29 -218 14 -364 151
-137 129 -219 274 -258 461 -18 82 -25 339 -11 383 7 21 5 22 -58 22 l-66 0 0
-83z"/>
<path d="M3087 2163 c-10 -152 -66 -274 -176 -383 -118 -116 -283 -178 -442
-166 -157 13 -267 64 -379 176 -87 87 -141 185 -160 290 -7 36 -15 80 -19 98
l-6 33 -95 -46 c-52 -26 -132 -71 -176 -101 l-82 -54 34 -78 c49 -114 75 -222
81 -343 9 -162 -19 -288 -104 -476 -4 -10 199 -13 997 -13 798 0 1001 3 997
13 -43 93 -79 198 -93 267 -34 168 -5 388 73 562 21 47 23 61 13 73 -17 20
-152 106 -227 144 -65 32 -207 91 -222 91 -4 0 -11 -39 -14 -87z"/>
</g>
</svg>
