<svg width="16" height="13" viewBox="0 0 16 13" fill="none" xmlns="http://www.w3.org/2000/svg">
<path d="M9.3625 11.7758C9.1625 11.5758 9.0665 11.3341 9.0745 11.0508C9.08317 10.7674 9.1875 10.5258 9.3875 10.3258L12.2125 7.50078H1.0625C0.779167 7.50078 0.5415 7.40478 0.3495 7.21278C0.158167 7.02145 0.0625 6.78411 0.0625 6.50078C0.0625 6.21745 0.158167 5.97978 0.3495 5.78778C0.5415 5.59645 0.779167 5.50078 1.0625 5.50078H12.2125L9.3625 2.65078C9.1625 2.45078 9.0625 2.21311 9.0625 1.93778C9.0625 1.66311 9.1625 1.42578 9.3625 1.22578C9.5625 1.02578 9.80017 0.925781 10.0755 0.925781C10.3502 0.925781 10.5875 1.02578 10.7875 1.22578L15.3625 5.80078C15.4625 5.90078 15.5335 6.00911 15.5755 6.12578C15.6168 6.24245 15.6375 6.36745 15.6375 6.50078C15.6375 6.63411 15.6168 6.75911 15.5755 6.87578C15.5335 6.99245 15.4625 7.10078 15.3625 7.20078L10.7625 11.8008C10.5792 11.9841 10.3502 12.0758 10.0755 12.0758C9.80017 12.0758 9.5625 11.9758 9.3625 11.7758Z" fill="#9C4900"/>
</svg>
