<svg width="8" height="6" viewBox="0 0 8 6" fill="none" xmlns="http://www.w3.org/2000/svg">
<path d="M2.67135 4.10208L6.11302 0.660416C6.21996 0.553472 6.35608 0.5 6.52135 0.5C6.68663 0.5 6.82274 0.553472 6.92969 0.660416C7.03663 0.767361 7.0901 0.903472 7.0901 1.06875C7.0901 1.23403 7.03663 1.37014 6.92969 1.47708L3.07969 5.32708C2.96302 5.44375 2.82691 5.50208 2.67135 5.50208C2.5158 5.50208 2.37969 5.44375 2.26302 5.32708L0.746354 3.81042C0.639409 3.70347 0.585938 3.56736 0.585938 3.40208C0.585938 3.23681 0.639409 3.10069 0.746354 2.99375C0.853298 2.88681 0.98941 2.83333 1.15469 2.83333C1.31997 2.83333 1.45608 2.88681 1.56302 2.99375L2.67135 4.10208Z" fill="#DDEFE5"/>
</svg>
