<svg width="25" height="25" viewBox="0 0 25 25" fill="none" xmlns="http://www.w3.org/2000/svg">
<mask id="mask0_428_18362" style="mask-type:alpha" maskUnits="userSpaceOnUse" x="0" y="0" width="25" height="25">
<rect x="0.0546875" y="0.5" width="24" height="24" fill="#D9D9D9"/>
</mask>
<g mask="url(#mask0_428_18362)">
<path d="M16.8587 10.753C16.6607 10.7532 16.4685 10.6859 16.3139 10.5622C15.6106 9.99901 15.0265 9.30137 14.5957 8.51001C14.1649 7.71865 13.896 6.84942 13.8047 5.95304C13.8047 5.14291 14.1265 4.36596 14.6994 3.79311C15.2722 3.22026 16.0492 2.89844 16.8593 2.89844C17.6694 2.89844 18.4464 3.22026 19.0192 3.79311C19.5921 4.36596 19.9139 5.14291 19.9139 5.95304C19.8226 6.84942 19.5537 7.71865 19.1229 8.51001C18.6921 9.30137 18.108 9.99901 17.4047 10.5622C17.25 10.6859 17.0579 10.7532 16.8599 10.753H16.8587ZM16.8587 4.64384C16.5116 4.64416 16.1787 4.78219 15.9333 5.02764C15.6878 5.2731 15.5498 5.60591 15.5495 5.95304C15.6467 6.98717 16.1112 7.95226 16.8587 8.67344C17.6065 7.95196 18.0709 6.98639 18.1679 5.95184C18.1676 5.60471 18.0295 5.2719 17.7841 5.02644C17.5386 4.78099 17.2058 4.64296 16.8587 4.64264V4.64384Z" fill="#9C4900" fill-opacity="0.5"/>
<path d="M7.25713 22.0968C7.05912 22.0969 6.86697 22.0297 6.71232 21.906C6.00903 21.3428 5.42494 20.6451 4.99413 19.8538C4.56332 19.0624 4.29443 18.1932 4.20312 17.2968C4.20313 16.4867 4.52495 15.7097 5.0978 15.1369C5.67065 14.564 6.44759 14.2422 7.25773 14.2422C8.06786 14.2422 8.8448 14.564 9.41765 15.1369C9.9905 15.7097 10.3123 16.4867 10.3123 17.2968C10.221 18.1932 9.95213 19.0624 9.52132 19.8538C9.09051 20.6451 8.50642 21.3428 7.80313 21.906C7.64848 22.0297 7.45633 22.0969 7.25833 22.0968H7.25713ZM7.25713 15.9876C6.91 15.9879 6.57719 16.1259 6.33173 16.3714C6.08628 16.6168 5.94824 16.9497 5.94793 17.2968C6.04348 18.3335 6.50806 19.3014 7.25713 20.0244C8.0049 19.3029 8.46938 18.3373 8.56633 17.3028C8.56601 16.9557 8.42797 16.6228 8.18252 16.3774C7.93706 16.1319 7.60425 15.9939 7.25713 15.9936V15.9876Z" fill="#9C4900" fill-opacity="0.5"/>
<path d="M15.9864 19.4788H12.0588C11.8273 19.4788 11.6052 19.3868 11.4415 19.2231C11.2778 19.0594 11.1858 18.8374 11.1858 18.6058C11.1858 18.3743 11.2778 18.1522 11.4415 17.9885C11.6052 17.8248 11.8273 17.7328 12.0588 17.7328H15.9864C16.565 17.7328 17.1199 17.503 17.529 17.0938C17.9381 16.6847 18.168 16.1298 18.168 15.5512C18.168 14.9726 17.9381 14.4177 17.529 14.0086C17.1199 13.5995 16.565 13.3696 15.9864 13.3696H8.13239C7.10277 13.3516 6.12141 12.93 5.39964 12.1955C4.67787 11.461 4.27344 10.4724 4.27344 9.44263C4.27344 8.41285 4.67787 7.42427 5.39964 6.68977C6.12141 5.95527 7.10277 5.53362 8.13239 5.51562H11.6232C11.8547 5.51562 12.0768 5.6076 12.2405 5.77132C12.4042 5.93504 12.4962 6.15709 12.4962 6.38862C12.4962 6.62016 12.4042 6.84221 12.2405 7.00593C12.0768 7.16965 11.8547 7.26162 11.6232 7.26162H8.13239C7.55379 7.26162 6.99889 7.49147 6.58976 7.9006C6.18063 8.30973 5.95079 8.86463 5.95079 9.44323C5.95079 10.0218 6.18063 10.5767 6.58976 10.9858C6.99889 11.395 7.55379 11.6248 8.13239 11.6248H15.9864C17.016 11.6428 17.9974 12.0645 18.7191 12.799C19.4409 13.5335 19.8453 14.5221 19.8453 15.5518C19.8453 16.5816 19.4409 17.5702 18.7191 18.3047C17.9974 19.0392 17.016 19.4608 15.9864 19.4788V19.4788Z" fill="#9C4900" fill-opacity="0.5"/>
</g>
</svg>
