<svg width="25" height="25" viewBox="0 0 25 25" fill="none" xmlns="http://www.w3.org/2000/svg">
<path d="M19.6719 10.8867V20.0156C19.6719 20.6124 19.4348 21.1847 19.0129 21.6066C18.5909 22.0286 18.0186 22.2656 17.4219 22.2656H6.92188C6.32514 22.2656 5.75284 22.0286 5.33088 21.6066C4.90893 21.1847 4.67188 20.6124 4.67188 20.0156V5.01562C4.67188 4.41889 4.90893 3.84659 5.33088 3.42463C5.75284 3.00268 6.32514 2.76563 6.92188 2.76562H11.5508C11.9485 2.76569 12.3299 2.92367 12.6111 3.20484L19.2327 9.82641C19.5138 10.1076 19.6718 10.489 19.6719 10.8867Z" stroke="#9C4900" stroke-width="1.5" stroke-linejoin="round"/>
<path d="M12.1719 3.14062V8.76562C12.1719 9.16345 12.3299 9.54498 12.6112 9.82628C12.8925 10.1076 13.2741 10.2656 13.6719 10.2656H19.2969" stroke="#9C4900" stroke-width="1.5" stroke-linecap="round" stroke-linejoin="round"/>
</svg>
