<svg width="25" height="25" viewBox="0 0 25 25" fill="none" xmlns="http://www.w3.org/2000/svg">
<path d="M10.053 6.75781C9.53385 6.75781 9.02634 6.60386 8.59466 6.31542C8.16298 6.02698 7.82653 5.61701 7.62785 5.13736C7.42917 4.6577 7.37718 4.1299 7.47847 3.6207C7.57975 3.1115 7.82976 2.64377 8.19687 2.27666C8.56399 1.90955 9.03172 1.65954 9.54092 1.55825C10.0501 1.45697 10.5779 1.50895 11.0576 1.70763C11.5372 1.90631 11.9472 2.24276 12.2356 2.67444C12.5241 3.10612 12.678 3.61364 12.678 4.13281C12.6772 4.82876 12.4004 5.49598 11.9083 5.98809C11.4162 6.4802 10.749 6.75702 10.053 6.75781ZM10.053 3.00781C9.83053 3.00781 9.61302 3.07379 9.42801 3.19741C9.24301 3.32103 9.09881 3.49673 9.01366 3.70229C8.92852 3.90786 8.90624 4.13406 8.94965 4.35229C8.99305 4.57052 9.1002 4.77097 9.25753 4.92831C9.41487 5.08564 9.61532 5.19279 9.83355 5.2362C10.0518 5.27961 10.278 5.25733 10.4835 5.17218C10.6891 5.08703 10.8648 4.94284 10.9884 4.75783C11.112 4.57282 11.178 4.35532 11.178 4.13281C11.1776 3.83457 11.059 3.54865 10.8481 3.33776C10.6372 3.12686 10.3513 3.00821 10.053 3.00781ZM19.0335 23.4926L16.683 18.0078H11.3573C10.6962 18.0072 10.0537 17.7887 9.52935 17.386C9.00503 16.9833 8.62813 16.4189 8.45703 15.7803L7.23153 11.1851C7.03172 10.4357 7.1378 9.63758 7.52642 8.96639C7.91504 8.29519 8.55438 7.80587 9.30378 7.60606C10.0532 7.40626 10.8513 7.51233 11.5225 7.90095C12.1936 8.28958 12.683 8.92891 12.8828 9.67831L13.503 12.0078H17.928V13.5078H12.351L11.4338 10.0653C11.3272 9.71092 11.0868 9.41191 10.7637 9.23155C10.4405 9.05119 10.0599 9.00363 9.70227 9.09892C9.34466 9.19422 9.03816 9.4249 8.84761 9.74216C8.65706 10.0594 8.59741 10.4384 8.68128 10.7988L9.90603 15.3933C9.99163 15.7127 10.1801 15.995 10.4423 16.1965C10.7045 16.398 11.0259 16.5074 11.3565 16.5078H17.6715L20.4128 22.9016L19.0335 23.4926Z" fill="#9C4900" fill-opacity="0.5"/>
<path d="M15.6784 21.006H8.00437C7.67383 21.0058 7.35258 20.8966 7.09046 20.6952C6.82833 20.4938 6.63999 20.2116 6.55463 19.8923L3.70312 9.1995L5.15288 8.8125L8.00437 19.506H15.6784V21.006Z" fill="#9C4900" fill-opacity="0.5"/>
</svg>
