<svg width="19" height="17" viewBox="0 0 19 17" fill="none" xmlns="http://www.w3.org/2000/svg">
<path d="M12.6406 8.25L8.64062 4.25V7.25H0.640625V9.25H8.64062V12.25M18.6406 14.25V2.25C18.6406 1.71957 18.4299 1.21086 18.0548 0.835786C17.6798 0.460714 17.1711 0.25 16.6406 0.25H4.64062C4.11019 0.25 3.60148 0.460714 3.22641 0.835786C2.85134 1.21086 2.64062 1.71957 2.64062 2.25V5.25H4.64062V2.25H16.6406V14.25H4.64062V11.25H2.64062V14.25C2.64062 14.7804 2.85134 15.2891 3.22641 15.6642C3.60148 16.0393 4.11019 16.25 4.64062 16.25H16.6406C17.1711 16.25 17.6798 16.0393 18.0548 15.6642C18.4299 15.2891 18.6406 14.7804 18.6406 14.25Z" fill="#9C4900"/>
</svg>
