<svg width="9" height="6" viewBox="0 0 9 6" fill="none" xmlns="http://www.w3.org/2000/svg">
<path d="M1.10938 1.05052C1.2316 0.928298 1.38715 0.867187 1.57604 0.867187C1.76493 0.867187 1.92049 0.928298 2.04271 1.05052L4.64271 3.65052L7.24271 1.05052C7.36493 0.928298 7.52049 0.867187 7.70938 0.867187C7.89826 0.867187 8.05382 0.928298 8.17604 1.05052C8.29826 1.17274 8.35937 1.3283 8.35937 1.51719C8.35937 1.70608 8.29826 1.86163 8.17604 1.98385L5.10938 5.05052C5.04271 5.11719 4.97049 5.16452 4.89271 5.19252C4.81493 5.22008 4.7316 5.23385 4.64271 5.23385C4.55382 5.23385 4.47049 5.22008 4.39271 5.19252C4.31493 5.16452 4.24271 5.11719 4.17604 5.05052L1.10938 1.98385C0.987154 1.86163 0.926042 1.70608 0.926042 1.51719C0.926042 1.3283 0.987154 1.17274 1.10938 1.05052Z" fill="#9C4900" fill-opacity="0.5"/>
</svg>
