<svg width="17" height="22" viewBox="0 0 17 22" fill="none" xmlns="http://www.w3.org/2000/svg">
<path d="M8.34017 2.47969C10.5392 2.47969 12.3384 4.27899 12.3384 6.47814C12.3384 8.57732 10.2393 11.976 8.34017 14.3751C6.44102 11.876 4.34196 8.57732 4.34196 6.47814C4.34196 4.27899 6.14115 2.47969 8.34017 2.47969ZM8.34017 0.480469C5.04164 0.480469 2.34285 3.17942 2.34285 6.47814C2.34285 10.9764 8.34017 17.4739 8.34017 17.4739C8.34017 17.4739 14.3375 10.8764 14.3375 6.47814C14.3375 3.17942 11.6387 0.480469 8.34017 0.480469ZM8.34017 4.47892C7.24066 4.47892 6.34106 5.37857 6.34106 6.47814C6.34106 7.57771 7.24066 8.47736 8.34017 8.47736C9.43967 8.47736 10.3393 7.57771 10.3393 6.47814C10.3393 5.37857 9.43967 4.47892 8.34017 4.47892ZM16.3366 17.4739C16.3366 19.673 12.7382 21.4723 8.34017 21.4723C3.94214 21.4723 0.34375 19.673 0.34375 17.4739C0.34375 16.1744 1.54321 15.0748 3.44236 14.2751L4.04209 15.1748C3.04254 15.6746 2.34285 16.2743 2.34285 16.9741C2.34285 18.3735 5.04164 19.4731 8.34017 19.4731C11.6387 19.4731 14.3375 18.3735 14.3375 16.9741C14.3375 16.2743 13.6378 15.6746 12.5383 15.1748L13.138 14.2751C15.1371 15.0748 16.3366 16.1744 16.3366 17.4739Z" fill="#9C4900"/>
</svg>
