<svg width="21" height="16" viewBox="0 0 21 16" fill="none" xmlns="http://www.w3.org/2000/svg">
<path d="M5.9211 14.475C7.02524 14.475 7.92032 13.5799 7.92032 12.4758C7.92032 11.3716 7.02524 10.4766 5.9211 10.4766C4.81696 10.4766 3.92188 11.3716 3.92188 12.4758C3.92188 13.5799 4.81696 14.475 5.9211 14.475Z" stroke="#9C4900" stroke-width="2" stroke-linecap="round" stroke-linejoin="round"/>
<path d="M15.9132 14.475C17.0172 14.475 17.9123 13.5799 17.9123 12.4758C17.9123 11.3716 17.0172 10.4766 15.9132 10.4766C14.8091 10.4766 13.9141 11.3716 13.9141 12.4758C13.9141 13.5799 14.8091 14.475 15.9132 14.475Z" stroke="#9C4900" stroke-width="2" stroke-linecap="round" stroke-linejoin="round"/>
<path d="M3.92098 12.4762H1.92188V6.47853M1.92188 6.47853L3.92098 1.48047H12.9169L16.9152 6.47853M1.92188 6.47853H16.9152M16.9152 6.47853H17.9147C18.4449 6.47853 18.9534 6.68916 19.3283 7.06409C19.7032 7.43901 19.9138 7.94752 19.9138 8.47775V12.4762H17.9147M13.9165 12.4762H7.91919M10.9178 6.47853V1.48047" stroke="#9C4900" stroke-width="2" stroke-linecap="round" stroke-linejoin="round"/>
</svg>
