<svg width="17" height="22" viewBox="0 0 17 22" fill="none" xmlns="http://www.w3.org/2000/svg">
<path d="M8.6136 0.480469C11.9221 0.480469 14.6109 3.13944 14.6109 6.42816C14.6109 10.8864 8.6136 17.4739 8.6136 17.4739C8.6136 17.4739 2.61629 10.8864 2.61629 6.42816C2.61629 3.13944 5.30509 0.480469 8.6136 0.480469ZM8.6136 4.47892C8.08341 4.47892 7.57493 4.68955 7.20002 5.06447C6.82512 5.4394 6.6145 5.94791 6.6145 6.47814C6.6145 7.00837 6.82512 7.51688 7.20002 7.8918C7.57493 8.26673 8.08341 8.47736 8.6136 8.47736C9.1438 8.47736 9.65228 8.26673 10.0272 7.8918C10.4021 7.51688 10.6127 7.00837 10.6127 6.47814C10.6127 5.94791 10.4021 5.4394 10.0272 5.06447C9.65228 4.68955 9.1438 4.47892 8.6136 4.47892ZM16.61 17.4739C16.61 19.683 13.0316 21.4723 8.6136 21.4723C4.19558 21.4723 0.617188 19.683 0.617188 17.4739C0.617188 16.1844 1.83664 15.0348 3.72579 14.3051L4.36551 15.2147C3.28599 15.6646 2.61629 16.2843 2.61629 16.9741C2.61629 18.3535 5.30509 19.4731 8.6136 19.4731C11.9221 19.4731 14.6109 18.3535 14.6109 16.9741C14.6109 16.2843 13.9412 15.6646 12.8617 15.2147L13.5014 14.3051C15.3906 15.0348 16.61 16.1844 16.61 17.4739Z" fill="#9C4900"/>
</svg>
