<svg width="22" height="20" viewBox="0 0 22 20" fill="none" xmlns="http://www.w3.org/2000/svg">
<path d="M14.2676 15.475C14.2676 16.0053 14.4782 16.5138 14.8531 16.8887C15.228 17.2636 15.7365 17.4743 16.2667 17.4743C16.7969 17.4743 17.3054 17.2636 17.6803 16.8887C18.0552 16.5138 18.2658 16.0053 18.2658 15.475M14.2676 15.475C14.2676 14.9448 14.4782 14.4363 14.8531 14.0614C15.228 13.6864 15.7365 13.4758 16.2667 13.4758C16.7969 13.4758 17.3054 13.6864 17.6803 14.0614C18.0552 14.4363 18.2658 14.9448 18.2658 15.475M14.2676 15.475H6.2712M18.2658 15.475H20.2649V10.477M8.2703 3.47969H15.2672C18.0269 3.47969 20.2649 6.61248 20.2649 10.477M20.2649 10.477H15.7669L14.2676 3.47969M7.77053 8.47775H15.2672M10.2694 3.47969V8.47775M3.27254 7.47814V18.4739M1.27344 2.48008C1.27344 2.21497 1.37875 1.96071 1.5662 1.77325C1.75365 1.58578 2.00789 1.48047 2.27299 1.48047H4.27209C4.53719 1.48047 4.79143 1.58578 4.97888 1.77325C5.16634 1.96071 5.27165 2.21497 5.27165 2.48008V6.47853C5.27165 6.74364 5.16634 6.9979 4.97888 7.18536C4.79143 7.37282 4.53719 7.47814 4.27209 7.47814H2.27299C2.00789 7.47814 1.75365 7.37282 1.5662 7.18536C1.37875 6.9979 1.27344 6.74364 1.27344 6.47853V2.48008Z" stroke="#9C4900" stroke-width="2" stroke-linecap="round" stroke-linejoin="round"/>
</svg>
