<svg width="51" height="51" viewBox="0 0 51 51" fill="none" xmlns="http://www.w3.org/2000/svg">
<circle cx="25.7656" cy="25.75" r="25" fill="#9C4900"/>
<path d="M19.1094 15H16.6094C15.919 15 15.3594 15.5596 15.3594 16.25V21.25C15.3594 21.9404 15.919 22.5 16.6094 22.5H19.1094C19.7997 22.5 20.3594 21.9404 20.3594 21.25V16.25C20.3594 15.5596 19.7997 15 19.1094 15Z" stroke="#F6EFE9" stroke-width="1.66667" stroke-linecap="round" stroke-linejoin="round"/>
<path d="M34.1094 35C35.4901 35 36.6094 33.8807 36.6094 32.5C36.6094 31.1193 35.4901 30 34.1094 30C32.7287 30 31.6094 31.1193 31.6094 32.5C31.6094 33.8807 32.7287 35 34.1094 35Z" stroke="#F6EFE9" stroke-width="1.66667" stroke-linecap="round" stroke-linejoin="round"/>
<path d="M24.1094 17.5H32.8594C36.3106 17.5 39.1094 21.4175 39.1094 26.25V32.5H36.6094M31.6094 32.5H21.6094" stroke="#F6EFE9" stroke-width="1.66667" stroke-linecap="round" stroke-linejoin="round"/>
<path d="M31.6094 17.5L33.4844 26.25H39.1094M23.4844 23.75H32.8594M26.6094 17.5V23.75M17.8594 22.5V36.25" stroke="#F6EFE9" stroke-width="1.66667" stroke-linecap="round" stroke-linejoin="round"/>
</svg>
