<svg width="17" height="21" viewBox="0 0 17 21" fill="none" xmlns="http://www.w3.org/2000/svg">
<path d="M7.58594 12.75H9.58594V9.75H12.5859V7.75H9.58594V4.75H7.58594V7.75H4.58594V9.75H7.58594V12.75ZM8.58594 20.75C5.9026 18.4667 3.8986 16.3457 2.57394 14.387C1.2486 12.429 0.585938 10.6167 0.585938 8.95C0.585938 6.45 1.39027 4.45833 2.99894 2.975C4.60694 1.49167 6.46927 0.75 8.58594 0.75C10.7026 0.75 12.5649 1.49167 14.1729 2.975C15.7816 4.45833 16.5859 6.45 16.5859 8.95C16.5859 10.6167 15.9236 12.429 14.5989 14.387C13.2736 16.3457 11.2693 18.4667 8.58594 20.75Z" fill="#9C4900"/>
</svg>
