<svg width="41" height="41" viewBox="0 0 41 41" fill="none" xmlns="http://www.w3.org/2000/svg">
<path d="M20.3516 2.58789C15.4824 2.58789 10.8126 4.52218 7.36952 7.96523C3.92647 11.4083 1.99219 16.0781 1.99219 20.9473C1.99219 25.8165 3.92647 30.4863 7.36952 33.9293C10.8126 37.3724 15.4824 39.3066 20.3516 39.3066C22.7626 39.3066 25.1499 38.8318 27.3774 37.9091C29.6049 36.9865 31.6288 35.6341 33.3336 33.9293C35.0384 32.2245 36.3908 30.2006 37.3134 27.9731C38.2361 25.7456 38.7109 23.3583 38.7109 20.9473C38.7109 18.5363 38.2361 16.1489 37.3134 13.9214C36.3908 11.694 35.0384 9.67005 33.3336 7.96523C31.6288 6.2604 29.6049 4.90806 27.3774 3.98541C25.1499 3.06277 22.7626 2.58789 20.3516 2.58789ZM20.3516 8.99414C26.9448 8.99414 32.3047 14.3541 32.3047 20.9473C32.3047 27.5405 26.9448 32.9004 20.3516 32.9004C13.7584 32.9004 8.39844 27.5405 8.39844 20.9473C8.39844 14.3541 13.7584 8.99414 20.3516 8.99414ZM20.3516 10.4004C18.7565 10.4004 17.2455 10.7535 15.8914 11.3849C16.7935 13.9537 18.3373 17.1973 20.3516 17.1973C22.369 17.1973 23.8614 13.9434 24.7853 11.3727C23.4379 10.749 21.9363 10.4004 20.3516 10.4004ZM28.0666 13.7504C25.9014 15.4022 23.2898 17.8746 23.9127 19.7916C24.5362 21.7106 28.093 22.1242 30.8235 22.2084C30.8726 21.7948 30.8984 21.3742 30.8984 20.9473C30.8984 18.1627 29.8238 15.6338 28.0666 13.7504ZM12.619 13.7694C10.8721 15.6507 9.80469 18.172 9.80469 20.9473C9.80469 21.3809 9.83125 21.808 9.88188 22.2277C12.6032 22.1633 16.1616 21.697 16.7838 19.7824C17.4067 17.8651 14.7775 15.4423 12.619 13.7694ZM18.1024 17.179C17.9608 17.183 17.8237 17.2296 17.7091 17.3129C17.5582 17.4225 17.4571 17.5876 17.428 17.7717C17.3988 17.9559 17.444 18.1441 17.5536 18.2949C17.6632 18.4458 17.8282 18.5469 18.0124 18.5761C18.1965 18.6053 18.3847 18.5602 18.5356 18.4506C18.6103 18.3964 18.6736 18.3279 18.7219 18.2492C18.7701 18.1704 18.8024 18.083 18.8169 17.9918C18.8313 17.9006 18.8277 17.8074 18.8061 17.7176C18.7846 17.6278 18.7455 17.5431 18.6912 17.4684C18.624 17.376 18.5353 17.3013 18.4327 17.2508C18.3301 17.2004 18.2167 17.1757 18.1024 17.179ZM22.6007 17.179C22.5841 17.1785 22.5675 17.1786 22.5509 17.1793C22.4451 17.1838 22.3417 17.2121 22.2483 17.2621C22.155 17.3122 22.0742 17.3827 22.0119 17.4684C21.9576 17.5431 21.9185 17.6277 21.897 17.7175C21.8754 17.8073 21.8718 17.9005 21.8862 17.9917C21.9007 18.0829 21.9329 18.1704 21.9812 18.2492C22.0295 18.3279 22.0928 18.3964 22.1675 18.4506C22.3184 18.5602 22.5066 18.6054 22.6907 18.5762C22.8749 18.547 23.0399 18.4458 23.1495 18.295C23.2591 18.1442 23.3043 17.956 23.2752 17.7718C23.246 17.5876 23.1449 17.4226 22.9941 17.313C22.8794 17.2297 22.7423 17.183 22.6007 17.179ZM20.3516 18.4473C19.6885 18.4473 19.0526 18.7107 18.5838 19.1795C18.115 19.6483 17.8516 20.2842 17.8516 20.9473C17.8516 21.6103 18.115 22.2462 18.5838 22.715C19.0526 23.1839 19.6885 23.4473 20.3516 23.4473C21.0146 23.4473 21.6505 23.1839 22.1193 22.715C22.5882 22.2462 22.8516 21.6103 22.8516 20.9473C22.8516 20.2842 22.5882 19.6483 22.1193 19.1795C21.6505 18.7107 21.0146 18.4473 20.3516 18.4473ZM16.7346 21.4189C16.6642 21.4199 16.5944 21.4315 16.5274 21.4533C16.4396 21.4818 16.3582 21.5273 16.288 21.5873C16.2178 21.6473 16.1601 21.7205 16.1181 21.8028C16.0762 21.885 16.0509 21.9748 16.0436 22.0668C16.0364 22.1589 16.0473 22.2515 16.0759 22.3393C16.1335 22.5166 16.2592 22.6638 16.4253 22.7485C16.5915 22.8331 16.7845 22.8483 16.9618 22.7907C17.0496 22.7622 17.131 22.7166 17.2012 22.6567C17.2714 22.5967 17.3291 22.5235 17.3711 22.4413C17.413 22.359 17.4383 22.2693 17.4456 22.1772C17.4528 22.0852 17.4419 21.9926 17.4134 21.9048C17.367 21.7619 17.276 21.6376 17.1539 21.5502C17.0317 21.4628 16.8848 21.4168 16.7346 21.4189ZM23.989 21.4195C23.8354 21.4129 23.6839 21.4567 23.5576 21.5443C23.4314 21.6319 23.3373 21.7585 23.2898 21.9047C23.2612 21.9925 23.2503 22.0851 23.2576 22.1771C23.2648 22.2692 23.2901 22.3589 23.3321 22.4412C23.374 22.5234 23.4317 22.5966 23.5019 22.6566C23.5722 22.7166 23.6535 22.7621 23.7413 22.7906C23.9187 22.8482 24.1116 22.8331 24.2778 22.7484C24.4439 22.6638 24.5696 22.5166 24.6273 22.3393C24.6558 22.2515 24.6668 22.1589 24.6595 22.0668C24.6523 21.9748 24.6269 21.885 24.585 21.8028C24.5431 21.7205 24.4853 21.6473 24.4151 21.5873C24.3449 21.5273 24.2635 21.4818 24.1757 21.4533C24.1153 21.4336 24.0525 21.4223 23.989 21.4195ZM16.7903 23.5846C15.1036 23.5927 12.8653 24.8996 11.1322 26.079C12.6188 28.7484 15.2306 30.7012 18.3309 31.3006C19.1113 28.692 19.7699 25.1586 18.1398 23.9743C17.7605 23.6987 17.3009 23.5821 16.7903 23.5846ZM23.9009 23.5862C23.3869 23.5862 22.925 23.7046 22.5458 23.9801C20.9134 25.1661 21.619 28.6759 22.3827 31.2987C25.4832 30.6959 28.0942 28.7393 29.578 26.0664C27.8587 24.877 25.5987 23.5862 23.9009 23.5861V23.5862ZM20.3516 24.0395C20.1651 24.0395 19.9862 24.1135 19.8544 24.2454C19.7225 24.3773 19.6484 24.5561 19.6484 24.7426C19.6484 24.9291 19.7225 25.1079 19.8544 25.2398C19.9862 25.3716 20.1651 25.4457 20.3516 25.4457C20.538 25.4457 20.7169 25.3716 20.8487 25.2398C20.9806 25.1079 21.0547 24.9291 21.0547 24.7426C21.0547 24.5561 20.9806 24.3773 20.8487 24.2454C20.7169 24.1135 20.538 24.0395 20.3516 24.0395Z" fill="white"/>
</svg>
