<svg width="49" height="49" viewBox="0 0 49 49" fill="none" xmlns="http://www.w3.org/2000/svg">
<path d="M18.6529 6.3316C18.6658 6.13482 18.7175 5.94252 18.8048 5.76572C18.8922 5.58891 19.0136 5.43107 19.162 5.30122C19.3104 5.17137 19.483 5.07207 19.6698 5.00899C19.8567 4.9459 20.0541 4.92029 20.2509 4.9336C32.2349 5.7216 41.8149 15.3036 42.6009 27.2916C42.6138 27.4882 42.5878 27.6854 42.5244 27.8719C42.4611 28.0585 42.3616 28.2307 42.2317 28.3788C42.1018 28.5269 41.944 28.648 41.7673 28.7351C41.5906 28.8223 41.3985 28.8737 41.2019 28.8866C41.0053 28.8995 40.8081 28.8735 40.6215 28.8101C40.435 28.7468 40.2627 28.6473 40.1146 28.5174C39.8155 28.2551 39.6329 27.8846 39.6069 27.4876C38.9209 17.0036 30.5369 8.6176 20.0529 7.9276C19.8561 7.91488 19.6638 7.86349 19.4869 7.77637C19.31 7.68925 19.152 7.56811 19.022 7.41987C18.8919 7.27164 18.7924 7.09922 18.7291 6.91248C18.6657 6.72574 18.6398 6.52835 18.6529 6.3316ZM15.8309 43.6536L16.6069 44.4256C16.8879 44.7047 17.2678 44.8613 17.6639 44.8613C18.0599 44.8613 18.4399 44.7047 18.7209 44.4256L21.4129 41.7516C22.8689 40.3056 24.5489 38.6336 25.4369 37.7456C26.974 36.2083 28.0208 34.2497 28.4448 32.1175C28.8688 29.9853 28.651 27.7752 27.819 25.7668C26.987 23.7583 25.5782 22.0417 23.7706 20.834C21.963 19.6262 19.8378 18.9816 17.6639 18.9816C15.4899 18.9816 13.3648 19.6262 11.5572 20.834C9.7496 22.0417 8.34073 23.7583 7.50873 25.7668C6.67673 27.7752 6.45897 29.9853 6.88299 32.1175C7.30701 34.2497 8.35376 36.2083 9.89088 37.7456C11.8673 39.7185 13.8473 41.6878 15.8309 43.6536ZM17.6529 32.3816C16.9898 32.3816 16.354 32.1182 15.8851 31.6494C15.4163 31.1805 15.1529 30.5446 15.1529 29.8816C15.1529 29.2186 15.4163 28.5827 15.8851 28.1138C16.354 27.645 16.9898 27.3816 17.6529 27.3816C18.3159 27.3816 18.9518 27.645 19.4206 28.1138C19.8895 28.5827 20.1529 29.2186 20.1529 29.8816C20.1529 30.5446 19.8895 31.1805 19.4206 31.6494C18.9518 32.1182 18.3159 32.3816 17.6529 32.3816ZM20.2889 11.8876C20.0925 11.8696 19.8945 11.8905 19.7062 11.9492C19.5179 12.0078 19.343 12.103 19.1915 12.2293C19.04 12.3556 18.9149 12.5105 18.8234 12.6852C18.7319 12.8599 18.6757 13.0509 18.6581 13.2473C18.6404 13.4438 18.6617 13.6418 18.7207 13.8299C18.7797 14.0181 18.8752 14.1929 19.0018 14.3441C19.1284 14.4953 19.2835 14.6201 19.4584 14.7113C19.6333 14.8025 19.8244 14.8583 20.0209 14.8756C23.271 15.1738 26.3143 16.6004 28.6227 18.9077C30.9311 21.215 32.3591 24.2576 32.6589 27.5076C32.6947 27.9038 32.8864 28.2696 33.1919 28.5245C33.4974 28.7793 33.8916 28.9024 34.2879 28.8666C34.6841 28.8308 35.0499 28.6391 35.3048 28.3336C35.5596 28.0281 35.6827 27.6338 35.6469 27.2376C35.2838 23.2877 33.5489 19.5897 30.7434 16.7856C27.9379 13.9816 24.239 12.2486 20.2889 11.8876Z" fill="#9C4900"/>
</svg>
