<svg width="51" height="51" viewBox="0 0 51 51" fill="none" xmlns="http://www.w3.org/2000/svg">
<circle cx="25.6016" cy="25.25" r="25" fill="#9C4900"/>
<mask id="mask0_809_737" style="mask-type:alpha" maskUnits="userSpaceOnUse" x="10" y="10" width="31" height="31">
<rect x="10.9609" y="10.5" width="30" height="30" fill="#D9D9D9"/>
</mask>
<g mask="url(#mask0_809_737)">
<path d="M31.9581 23.3182C31.7106 23.3184 31.4704 23.2343 31.2771 23.0798C30.398 22.3757 29.6679 21.5037 29.1294 20.5145C28.5909 19.5253 28.2548 18.4387 28.1406 17.3182C28.1406 16.3056 28.5429 15.3344 29.259 14.6183C29.975 13.9023 30.9462 13.5 31.9589 13.5C32.9715 13.5 33.9427 13.9023 34.6588 14.6183C35.3748 15.3344 35.7771 16.3056 35.7771 17.3182C35.663 18.4387 35.3269 19.5253 34.7884 20.5145C34.2499 21.5037 33.5197 22.3757 32.6406 23.0798C32.4473 23.2343 32.2071 23.3184 31.9596 23.3182H31.9581ZM31.9581 15.6817C31.5242 15.6821 31.1082 15.8547 30.8014 16.1615C30.4946 16.4683 30.322 16.8843 30.3216 17.3182C30.4432 18.6109 31.0237 19.8173 31.9581 20.7188C32.8928 19.8169 33.4734 18.6099 33.5946 17.3167C33.5942 16.8828 33.4217 16.4668 33.1149 16.16C32.808 15.8532 32.392 15.6806 31.9581 15.6802V15.6817Z" fill="#F6EFE9"/>
<path d="M19.9581 37.4979C19.7106 37.4981 19.4704 37.414 19.2771 37.2594C18.398 36.5554 17.6679 35.6834 17.1294 34.6942C16.5909 33.705 16.2548 32.6184 16.1406 31.4979C16.1406 30.4853 16.5429 29.5141 17.259 28.798C17.975 28.082 18.9462 27.6797 19.9589 27.6797C20.9715 27.6797 21.9427 28.082 22.6588 28.798C23.3748 29.5141 23.7771 30.4853 23.7771 31.4979C23.663 32.6184 23.3269 33.705 22.7884 34.6942C22.2499 35.6834 21.5197 36.5554 20.6406 37.2594C20.4473 37.414 20.2071 37.4981 19.9596 37.4979H19.9581ZM19.9581 29.8614C19.5242 29.8618 19.1082 30.0344 18.8014 30.3412C18.4946 30.648 18.322 31.064 18.3216 31.4979C18.4411 32.7938 19.0218 34.0037 19.9581 34.9074C20.8928 34.0056 21.4734 32.7986 21.5946 31.5054C21.5942 31.0715 21.4217 30.6555 21.1149 30.3487C20.808 30.0419 20.392 29.8693 19.9581 29.8689V29.8614Z" fill="#F6EFE9"/>
<path d="M30.8677 34.2274H25.9583C25.6688 34.2274 25.3913 34.1125 25.1866 33.9078C24.982 33.7032 24.867 33.4256 24.867 33.1362C24.867 32.8468 24.982 32.5692 25.1866 32.3646C25.3913 32.1599 25.6688 32.0449 25.9583 32.0449H30.8677C31.591 32.0449 32.2846 31.7576 32.796 31.2462C33.3074 30.7348 33.5947 30.0412 33.5947 29.3179C33.5947 28.5947 33.3074 27.9011 32.796 27.3897C32.2846 26.8782 31.591 26.5909 30.8677 26.5909H21.0503C19.7632 26.5684 18.5365 26.0414 17.6343 25.1233C16.7321 24.2051 16.2266 22.9694 16.2266 21.6822C16.2266 20.395 16.7321 19.1592 17.6343 18.2411C18.5365 17.323 19.7632 16.7959 21.0503 16.7734H25.4137C25.7032 16.7734 25.9807 16.8884 26.1854 17.0931C26.39 17.2977 26.505 17.5753 26.505 17.8647C26.505 18.1541 26.39 18.4317 26.1854 18.6363C25.9807 18.841 25.7032 18.9559 25.4137 18.9559H21.0503C20.327 18.9559 19.6334 19.2432 19.122 19.7547C18.6106 20.2661 18.3233 20.9597 18.3233 21.6829C18.3233 22.4062 18.6106 23.0998 19.122 23.6112C19.6334 24.1226 20.327 24.4099 21.0503 24.4099H30.8677C32.1548 24.4324 33.3815 24.9595 34.2837 25.8776C35.1859 26.7957 35.6914 28.0315 35.6914 29.3187C35.6914 30.6059 35.1859 31.8416 34.2837 32.7598C33.3815 33.6779 32.1548 34.2049 30.8677 34.2274Z" fill="#F6EFE9"/>
</g>
</svg>
