<svg width="201" height="41" viewBox="0 0 201 41" fill="none" xmlns="http://www.w3.org/2000/svg">
<mask id="path-1-inside-1_2601_1617" fill="white">
<path fill-rule="evenodd" clip-rule="evenodd" d="M100.963 39.7892C100.578 40.4557 99.6158 40.4557 99.2309 39.7892L93.6019 30.043H10.1016C4.57872 30.043 0.101562 25.5658 0.101562 20.043L0.101562 10.0546C0.101562 4.53177 4.57872 0.0546188 10.1016 0.0546188H190.102C195.624 0.0546188 200.102 4.53177 200.102 10.0546V20.043C200.102 25.5658 195.624 30.043 190.102 30.043H106.592L100.963 39.7892Z"/>
</mask>
<path fill-rule="evenodd" clip-rule="evenodd" d="M100.963 39.7892C100.578 40.4557 99.6158 40.4557 99.2309 39.7892L93.6019 30.043H10.1016C4.57872 30.043 0.101562 25.5658 0.101562 20.043L0.101562 10.0546C0.101562 4.53177 4.57872 0.0546188 10.1016 0.0546188H190.102C195.624 0.0546188 200.102 4.53177 200.102 10.0546V20.043C200.102 25.5658 195.624 30.043 190.102 30.043H106.592L100.963 39.7892Z" fill="white"/>
<path d="M99.2309 39.7892L100.097 39.2891V39.2891L99.2309 39.7892ZM100.963 39.7892L100.097 39.2891V39.2891L100.963 39.7892ZM93.6019 30.043V29.043H94.1792L94.4679 29.5428L93.6019 30.043ZM106.592 30.043L105.726 29.5428L106.015 29.043H106.592V30.043ZM100.097 39.2891L100.097 39.2891L101.829 40.2893C101.059 41.6223 99.1348 41.6223 98.3649 40.2893L100.097 39.2891ZM94.4679 29.5428L100.097 39.2891L98.3649 40.2893L92.736 30.5431L94.4679 29.5428ZM10.1016 29.043H93.6019V31.043H10.1016V29.043ZM1.10156 20.043C1.10156 25.0135 5.131 29.043 10.1016 29.043V31.043C4.02643 31.043 -0.898438 26.1181 -0.898438 20.043H1.10156ZM1.10156 10.0546V20.043H-0.898438V10.0546H1.10156ZM10.1016 1.05462C5.131 1.05462 1.10156 5.08405 1.10156 10.0546H-0.898438C-0.898438 3.97948 4.02643 -0.945381 10.1016 -0.945381V1.05462ZM190.102 1.05462H10.1016V-0.945381H190.102V1.05462ZM199.102 10.0546C199.102 5.08406 195.072 1.05462 190.102 1.05462V-0.945381C196.177 -0.945381 201.102 3.97949 201.102 10.0546H199.102ZM199.102 20.043V10.0546H201.102V20.043H199.102ZM190.102 29.043C195.072 29.043 199.102 25.0135 199.102 20.043H201.102C201.102 26.1181 196.177 31.043 190.102 31.043V29.043ZM106.592 29.043H190.102V31.043H106.592V29.043ZM100.097 39.2891L105.726 29.5428L107.458 30.5431L101.829 40.2893L100.097 39.2891Z" fill="#E7E7E7" mask="url(#path-1-inside-1_2601_1617)"/>
</svg>
