<svg width="70" height="43" viewBox="0 0 70 43" fill="none" xmlns="http://www.w3.org/2000/svg">
<path d="M38.4922 0.59375C37.6476 0.888588 36.7977 1.17739 35.9645 1.49862C35.0675 1.846 34.32 2.49328 33.8501 3.3294C33.3801 4.16552 33.2171 5.13837 33.389 6.08106C33.5231 6.84567 33.6678 7.60803 33.811 8.39376C32.6558 8.80774 31.5309 9.21267 30.4061 9.61459L1.81245 19.8329C0.817115 20.1895 0.530028 20.8086 0.892864 21.8093C2.12454 25.2242 3.35545 28.6396 4.58561 32.0555C4.95678 33.084 5.42945 33.3328 6.49675 33.0719C6.54968 33.0674 6.6029 33.0674 6.65582 33.0719C6.65582 33.7679 6.64901 34.4541 6.65582 35.1396C6.65582 35.3756 6.6634 35.6259 6.74142 35.8424C6.92322 36.3483 7.33226 36.5859 7.8572 36.5911C9.04393 36.6022 10.2307 36.6007 11.4174 36.5866C11.5196 36.5866 11.6848 36.4901 11.7128 36.4041C12.3188 34.5356 12.3188 34.5341 13.7542 32.8548H7.36483C7.35953 32.8239 7.35347 32.7929 7.34817 32.762L33.8526 23.291L36.7811 31.4115L35.8827 31.7538C36.0054 32.109 36.1236 32.4476 36.2561 32.8299H21.9646C22.0745 32.9573 22.129 33.0312 22.1919 33.0938C23.1087 33.953 23.7385 35.0716 23.9962 36.2986C24.0462 36.5353 24.1326 36.6002 24.3659 36.6002C30.653 36.5942 36.9401 36.5922 43.2273 36.5942C43.3129 36.5942 43.3985 36.5821 43.5083 36.5738V32.8457C42.6607 32.8457 41.8305 32.8337 41.001 32.8533C40.7261 32.8593 40.6041 32.7703 40.5185 32.5132C40.2799 31.7998 40.0117 31.0978 39.7474 30.3709L38.8384 30.6816L35.9054 22.5573L41.3267 20.6163C41.279 20.4655 41.2419 20.3223 41.1927 20.1858C39.5136 15.5302 37.8337 10.8746 36.1531 6.21905C35.6054 4.70339 36.0402 3.60321 37.4795 2.87856C38.0203 2.60709 38.565 2.34468 39.1043 2.0702M30.278 22.3914L27.2898 14.1194L24.0326 15.2783C23.8993 14.9013 23.7818 14.562 23.6538 14.2046L27.8594 12.7047L31.231 22.0491L30.278 22.3914ZM33.8738 11.7674L30.6166 12.9242L30.2379 11.8519L34.4435 10.3536C35.5699 13.4882 36.6841 16.5799 37.8075 19.6964L36.8599 20.0402L33.8738 11.7674ZM20.7087 16.4713L17.4515 17.6295L17.0675 16.5595L21.2768 15.0574L24.6461 24.4017L23.6932 24.7411C22.6918 21.9676 21.7078 19.2417 20.7087 16.4713ZM17.1114 27.0945C16.1093 24.3173 15.1223 21.5815 14.1277 18.8239L10.8705 19.9814C10.7402 19.6202 10.6182 19.2847 10.4834 18.9129L14.6935 17.4093C15.8237 20.5432 16.9395 23.6401 18.0621 26.7537L17.1114 27.0945ZM8.1102 19.762L11.4795 29.1063L10.5281 29.4411C9.52821 26.6654 8.54348 23.9312 7.54511 21.1796L4.28792 22.3356C4.15536 21.9631 4.03492 21.6268 3.90918 21.2656L8.1102 19.762Z" fill="#9C4900"/>
<path d="M66.6584 36.6044C67.1031 36.6044 67.531 36.618 67.9575 36.5931C68.0439 36.5878 68.1847 36.4461 68.1938 36.3548C68.4923 33.8988 68.7953 31.4429 69.0559 28.9831C69.2013 27.6137 68.3461 26.4193 67.0038 26.0671C63.6285 25.1789 60.2496 24.3006 56.8671 23.4325C56.5391 23.348 56.396 23.2062 56.3248 22.8782C56.0634 21.6755 55.7779 20.4788 55.4915 19.2836C55.2353 18.1845 54.6119 17.2046 53.7234 16.504C52.8349 15.8035 51.7339 15.4239 50.6004 15.4273C48.8969 15.4183 47.1917 15.4221 45.4897 15.4273C44.2944 15.4319 43.496 16.2236 43.4952 17.4173C43.4912 23.6856 43.4912 29.9543 43.4952 36.2236C43.4952 36.3352 43.5051 36.4461 43.5119 36.581H54.2682C54.625 34.7796 55.5559 33.3386 57.1262 32.3409C58.184 31.6604 59.4281 31.3239 60.6864 31.378C63.4679 31.476 66.0388 33.4509 66.6584 36.6044ZM45.8631 23.4717C45.8631 22.281 45.8631 21.128 45.8631 19.9751C45.8631 19.025 46.4328 18.4602 47.3963 18.4564C48.632 18.4524 49.8674 18.4524 51.1027 18.4564C51.9692 18.4564 52.4623 18.8478 52.6563 19.6916C52.9184 20.8287 53.1729 21.9666 53.4289 23.1044C53.4547 23.2191 53.469 23.3352 53.4925 23.4717H45.8631Z" fill="#9C4900"/>
<path d="M65.8759 37.602C65.8746 36.5363 65.5559 35.4949 64.9601 34.6094C64.3644 33.7239 63.5183 33.0341 62.5289 32.6272C61.5394 32.2202 60.451 32.1144 59.4012 32.3231C58.3513 32.5318 57.3872 33.0456 56.6306 33.7996C55.874 34.5536 55.359 35.5139 55.1505 36.5593C54.9421 37.6046 55.0496 38.688 55.4595 39.6725C55.8694 40.657 56.5632 41.4985 57.4534 42.0905C58.3436 42.6826 59.3901 42.9987 60.4606 42.9988C61.1727 43.0004 61.8781 42.8619 62.5363 42.5911C63.1944 42.3204 63.7923 41.9229 64.2955 41.4213C64.7988 40.9198 65.1975 40.3242 65.4687 39.6687C65.7399 39.0132 65.8783 38.3109 65.8759 37.602ZM60.4977 40.3272C59.9555 40.3335 59.4235 40.1797 58.969 39.8852C58.5145 39.5907 58.1579 39.1686 57.9443 38.6724C57.7307 38.1762 57.6696 37.6281 57.7689 37.0974C57.8681 36.5666 58.1231 36.0771 58.5017 35.6906C58.8803 35.3041 59.3656 35.038 59.8961 34.9259C60.4266 34.8139 60.9785 34.8609 61.4822 35.061C61.9859 35.2611 62.4186 35.6054 62.7258 36.0503C63.033 36.4952 63.2008 37.0207 63.208 37.5605C63.2165 38.2845 62.9363 38.9823 62.4288 39.5009C61.9214 40.0195 61.228 40.3166 60.5008 40.3272H60.4977Z" fill="#9C4900"/>
<path d="M23.2686 37.6344C23.2595 36.2137 22.6879 34.8539 21.6778 33.8502C20.6677 32.8465 19.3007 32.2799 17.8735 32.2735C16.4464 32.267 15.0743 32.8212 14.0551 33.8157C13.0358 34.8102 12.4518 36.1648 12.4298 37.5854C12.4146 40.5541 14.8537 43.0018 17.8314 43.0078C18.5432 43.0117 19.2488 42.8756 19.9076 42.6074C20.5665 42.3393 21.1657 41.9442 21.6708 41.445C22.176 40.9458 22.5772 40.3522 22.8514 39.6982C23.1255 39.0443 23.2674 38.343 23.2686 37.6344ZM17.8753 40.3369C17.3325 40.3411 16.8007 40.1849 16.3471 39.888C15.8935 39.5912 15.5385 39.1671 15.3271 38.6694C15.1158 38.1717 15.0574 37.6227 15.1595 37.092C15.2616 36.5613 15.5196 36.0727 15.9008 35.6879C16.282 35.3032 16.7692 35.0397 17.3009 34.9307C17.8326 34.8217 18.3848 34.8722 18.8876 35.0757C19.3904 35.2793 19.8213 35.6267 20.1257 36.0741C20.4302 36.5215 20.5944 37.0488 20.5977 37.5891C20.601 37.9477 20.5331 38.3034 20.398 38.6358C20.2628 38.9682 20.063 39.2708 19.81 39.5261C19.5571 39.7814 19.2559 39.9845 18.9239 40.1236C18.5919 40.2628 18.2356 40.3353 17.8753 40.3369Z" fill="#9C4900"/>
</svg>
