<svg width="76" height="115" viewBox="0 0 76 115" fill="none" xmlns="http://www.w3.org/2000/svg">
<path d="M37.619 0C16.8425 0 0 17.1623 0 38.3333C0 45.1423 1.79443 51.5104 4.84909 57.0496C5.35648 57.9696 5.88832 58.8752 6.46577 59.7473L37.619 115L68.7723 59.7473C69.2519 59.0237 69.6657 58.2571 70.0936 57.5L70.3899 57.0496C73.4417 51.5104 75.238 45.1423 75.238 38.3333C75.238 17.1623 58.3941 0 37.619 0ZM37.619 19.1667C48.0066 19.1667 56.4285 27.7481 56.4285 38.3333C56.4285 48.9181 48.0066 57.5 37.619 57.5C27.231 57.5 18.8095 48.9181 18.8095 38.3333C18.8095 27.7481 27.231 19.1667 37.619 19.1667Z" fill="#FF0000"/>
</svg>
