<svg width="101" height="100" viewBox="0 0 101 100" fill="none" xmlns="http://www.w3.org/2000/svg">
<path d="M50.7971 0C23.2229 0 0.796875 22.4259 0.796875 49.9998C0.796875 61.2922 4.47938 71.964 11.443 80.8533C21.0045 93.0238 35.3456 100 50.7964 100C66.2473 100 80.5897 93.0246 90.1498 80.8533C97.1135 71.9631 100.797 61.2924 100.797 49.9998C100.797 22.4259 78.3708 0 50.7967 0H50.7971ZM50.7971 2.43967C77.0167 2.43967 98.3583 23.781 98.3583 50.0004C98.3583 60.1106 95.2483 69.6957 89.3702 77.8291C82.9434 65.9879 71.7358 57.951 58.7364 55.6102C65.5417 52.5614 70.3105 45.7315 70.3105 37.8049C70.3105 27.0491 61.5545 18.2924 50.7977 18.2924C40.0418 18.2924 31.285 27.0482 31.285 37.8049C31.285 45.7313 36.0531 52.5614 42.8585 55.6102C29.8704 57.9521 18.651 65.9882 12.2246 77.8291C6.34655 69.695 3.23722 60.1099 3.23722 50.0004C3.23722 23.781 24.5788 2.43967 50.7984 2.43967H50.7971ZM86.2241 81.7185C85.9195 82.0596 85.6022 82.3888 85.2849 82.7189C84.9804 83.0362 84.675 83.3654 84.3577 83.6827C84.0404 84 83.7112 84.3045 83.382 84.6218C83.0647 84.9263 82.7355 85.2317 82.4063 85.5244C82.0771 85.817 81.7232 86.1096 81.3821 86.4022C81.0409 86.683 80.7117 86.9756 80.3579 87.2563C80.004 87.537 79.651 87.7931 79.2971 88.061C78.9432 88.329 78.5902 88.5978 78.2363 88.8538C77.8705 89.1099 77.5047 89.354 77.1389 89.5973C76.7731 89.8415 76.4073 90.0975 76.0416 90.3289C75.6639 90.5603 75.2853 90.7797 74.9076 91.012C74.5299 91.2314 74.1514 91.4628 73.7737 91.6704C73.3832 91.8898 72.9928 92.0846 72.5904 92.2922C72.1999 92.487 71.8223 92.6946 71.4318 92.8894C71.0294 93.0842 70.6143 93.2552 70.2 93.45C69.8096 93.6209 69.4191 93.8038 69.0168 93.974C68.5897 94.1449 68.1627 94.3032 67.7365 94.4614C67.3341 94.6077 66.9437 94.7659 66.5413 94.9122C66.1024 95.0586 65.6634 95.193 65.2245 95.3393C64.8221 95.4609 64.4317 95.6072 64.0174 95.717C63.5665 95.8514 63.1029 95.9611 62.6393 96.0708C62.2369 96.1687 61.8465 96.2903 61.4441 96.3754C60.9686 96.4851 60.4803 96.5702 60.0048 96.668C59.6143 96.7412 59.2239 96.8262 58.8343 96.8994C58.3221 96.9844 57.7973 97.0457 57.2733 97.1188C56.9075 97.1673 56.5417 97.2286 56.1759 97.2771C55.5906 97.3383 54.9926 97.3868 54.3954 97.4234C54.0909 97.4481 53.7983 97.4846 53.4929 97.4965C52.6141 97.5357 51.7116 97.5595 50.7971 97.5595C49.8826 97.5595 48.9801 97.5348 48.0776 97.4863C47.7731 97.4744 47.4804 97.4378 47.175 97.4132C46.5779 97.3647 45.9798 97.3281 45.3946 97.2669C45.0288 97.2303 44.663 97.169 44.2972 97.1086C43.7732 97.0355 43.2603 96.9742 42.7362 96.8892C42.3458 96.8279 41.9553 96.731 41.5657 96.6578C41.0783 96.56 40.6019 96.4749 40.1264 96.3652C39.724 96.2673 39.3336 96.1576 38.9312 96.0606C38.4676 95.939 38.004 95.8292 37.5531 95.7067C37.1507 95.5851 36.7484 95.4507 36.346 95.3291C35.9071 95.1947 35.4681 95.0611 35.0292 94.902C34.6268 94.7557 34.2244 94.5975 33.8221 94.4512C33.395 94.293 32.9807 94.1339 32.5537 93.9638C32.1513 93.7928 31.7609 93.6099 31.3585 93.4398C30.9562 93.2569 30.541 93.0859 30.1387 92.8911C29.7482 92.6963 29.3578 92.4887 28.9681 92.2939C28.5777 92.0864 28.1872 91.8915 27.7976 91.684C27.4072 91.4645 27.0295 91.2451 26.6509 91.0137C26.2732 90.7942 25.8947 90.5747 25.517 90.3434C25.1393 90.112 24.7735 89.8559 24.4069 89.6118C24.0411 89.3676 23.6753 89.1244 23.3095 88.8683C22.9437 88.6122 22.6026 88.3443 22.2487 88.0755C21.8948 87.8075 21.5418 87.5515 21.1879 87.2708C20.8468 86.99 20.5048 86.7102 20.1637 86.4167C19.8226 86.1241 19.4806 85.8434 19.1395 85.5507C18.8103 85.2581 18.493 84.9536 18.1638 84.6482C17.8346 84.3436 17.5054 84.0263 17.1881 83.709C16.8708 83.3918 16.5781 83.0753 16.2609 82.7452C15.9436 82.416 15.6271 82.0868 15.3217 81.7449C15.0291 81.4157 14.7484 81.0745 14.4557 80.7445C14.2363 80.4884 14.0168 80.2205 13.7973 79.9636C20.9794 65.9625 35.0657 57.3156 50.7966 57.3156C66.5275 57.3156 80.6138 65.9617 87.7349 79.9244C87.5274 80.1923 87.3079 80.4484 87.0884 80.7053C86.8077 81.0455 86.5151 81.3875 86.2224 81.7167L86.2241 81.7185ZM50.7971 54.8763C41.3829 54.8763 33.7243 47.2178 33.7243 37.8036C33.7243 28.3895 41.3829 20.731 50.7971 20.731C60.2113 20.731 67.8699 28.3895 67.8699 37.8036C67.8699 47.2178 60.2113 54.8763 50.7971 54.8763Z" fill="#9C4900" fill-opacity="0.5"/>
</svg>
