<svg width="25" height="25" viewBox="0 0 25 25" fill="none" xmlns="http://www.w3.org/2000/svg">
<mask id="mask0_428_80310" style="mask-type:alpha" maskUnits="userSpaceOnUse" x="0" y="0" width="25" height="25">
<rect x="24.8281" y="24.4531" width="24" height="23.9791" transform="rotate(-180 24.8281 24.4531)" fill="#D9D9D9"/>
</mask>
<g mask="url(#mask0_428_80310)">
<path d="M10.6281 2.88542C10.9615 2.80216 11.2531 2.86877 11.5031 3.08524C11.7531 3.30172 11.8781 3.60146 11.8781 3.98446C11.8781 4.16764 11.8071 4.33849 11.6651 4.49702C11.5238 4.65488 11.3615 4.75879 11.1781 4.80875C10.7115 4.92531 10.2571 5.07118 9.81513 5.24637C9.37379 5.42088 8.95313 5.64135 8.55313 5.90779C8.36979 6.02435 8.17813 6.07431 7.97813 6.05766C7.77813 6.04101 7.61146 5.96607 7.47813 5.83286C7.21146 5.56642 7.09046 5.26268 7.11513 4.92165C7.14046 4.57994 7.30313 4.31751 7.60313 4.13433C8.06979 3.85124 8.55713 3.60546 9.06513 3.39697C9.57379 3.18915 10.0948 3.01864 10.6281 2.88542ZM6.02813 7.25662C6.16146 7.38983 6.24079 7.56035 6.26613 7.76817C6.29079 7.97666 6.24479 8.16416 6.12813 8.33068C5.87813 8.73034 5.66146 9.15097 5.47813 9.59259C5.29479 10.0335 5.15313 10.4871 5.05313 10.9534C5.00313 11.1532 4.89479 11.3197 4.72813 11.453C4.56146 11.5862 4.37813 11.6528 4.17813 11.6528C3.81146 11.6528 3.52379 11.5196 3.31513 11.2531C3.10713 10.9867 3.04479 10.687 3.12813 10.3539C3.26146 9.82105 3.43213 9.30483 3.64013 8.80527C3.84879 8.3057 4.09479 7.82279 4.37813 7.35653C4.56146 7.07344 4.81546 6.91958 5.14013 6.89493C5.46546 6.86962 5.76146 6.99018 6.02813 7.25662ZM4.20313 13.6511C4.38646 13.6511 4.56146 13.7177 4.72813 13.8509C4.89479 13.9841 5.00313 14.1506 5.05313 14.3504C5.15313 14.8167 5.29479 15.2706 5.47813 15.7123C5.66146 16.1532 5.87812 16.5735 6.12812 16.9732C6.24479 17.1397 6.29079 17.3312 6.26613 17.5477C6.24079 17.7641 6.16146 17.939 6.02812 18.0722C5.77812 18.3386 5.48646 18.4552 5.15312 18.4219C4.81979 18.3886 4.56146 18.2304 4.37812 17.9473C4.07813 17.4811 3.82379 16.9981 3.61512 16.4986C3.40712 15.999 3.23646 15.4828 3.10313 14.9499C3.01979 14.6169 3.08646 14.3171 3.30313 14.0507C3.51979 13.7843 3.81979 13.6511 4.20313 13.6511ZM15.1281 2.9104C17.3615 3.44327 19.2031 4.60892 20.6531 6.40736C22.1031 8.20579 22.8281 10.2873 22.8281 12.6519C22.8281 15.0165 22.1031 17.0981 20.6531 18.8965C19.2031 20.6949 17.3531 21.8606 15.1031 22.3935C14.7698 22.4767 14.4781 22.4101 14.2281 22.1936C13.9781 21.9771 13.8531 21.6857 13.8531 21.3194C13.8531 21.1362 13.9238 20.9657 14.0651 20.8078C14.2071 20.6493 14.3698 20.5451 14.5531 20.4951C16.3865 20.0788 17.8905 19.1463 19.0651 17.6975C20.2405 16.2488 20.8281 14.5669 20.8281 12.6519C20.8281 10.7369 20.2405 9.05505 19.0651 7.60631C17.8905 6.15757 16.3948 5.22505 14.5781 4.80875C14.3948 4.75879 14.2321 4.65488 14.0901 4.49702C13.9488 4.33849 13.8781 4.15931 13.8781 3.95949C13.8781 3.59314 14.0031 3.30572 14.2531 3.09723C14.5031 2.88942 14.7948 2.82713 15.1281 2.9104ZM8.50312 19.3711C8.91979 19.6375 9.34479 19.8623 9.77813 20.0455C10.2115 20.2287 10.6698 20.3785 11.1531 20.4951C11.3365 20.5451 11.4988 20.6493 11.6401 20.8078C11.7821 20.9657 11.8531 21.1445 11.8531 21.3444C11.8531 21.7107 11.7281 22.0021 11.4781 22.2186C11.2281 22.4351 10.9365 22.5017 10.6031 22.4184C10.0698 22.2852 9.54912 22.1147 9.04112 21.9069C8.53246 21.6984 8.04479 21.4526 7.57813 21.1695C7.27812 20.9863 7.11146 20.7242 7.07813 20.3832C7.04479 20.0415 7.16146 19.7374 7.42813 19.471C7.56146 19.3378 7.73212 19.2628 7.94012 19.2462C8.14879 19.2295 8.33646 19.2712 8.50312 19.3711ZM12.8781 8.05592C13.0115 8.05592 13.1365 8.0809 13.2531 8.13086C13.3698 8.18081 13.4781 8.24742 13.5781 8.33068L17.2031 11.9775C17.3865 12.1607 17.4781 12.3938 17.4781 12.6769C17.4781 12.96 17.3781 13.2014 17.1781 13.4013C16.9948 13.5844 16.7615 13.676 16.4781 13.676C16.1948 13.676 15.9531 13.5844 15.7531 13.4013L13.8781 11.5029L13.8781 16.6235C13.8781 16.9066 13.7821 17.144 13.5901 17.3359C13.3988 17.527 13.1615 17.6226 12.8781 17.6226C12.5948 17.6226 12.3571 17.527 12.1651 17.3359C11.9738 17.144 11.8781 16.9066 11.8781 16.6235L11.8781 11.5029L10.0281 13.3513C9.82813 13.5511 9.58646 13.6511 9.30313 13.6511C9.01979 13.6511 8.77813 13.5511 8.57813 13.3513C8.37813 13.1515 8.28246 12.91 8.29113 12.6269C8.29913 12.3439 8.40313 12.1024 8.60313 11.9026L12.1781 8.33068C12.2615 8.24742 12.3655 8.18081 12.4901 8.13086C12.6155 8.0809 12.7448 8.05592 12.8781 8.05592Z" fill="#00ff00"/>
</g>
</svg>
