<svg width="47" height="33" viewBox="0 0 47 33" fill="none" xmlns="http://www.w3.org/2000/svg">
<path d="M39.4835 14.2283C41.6875 14.7264 43.6296 16.0117 44.9392 17.8389C46.2488 19.6661 46.8343 21.9074 46.584 24.1353C46.3338 26.3632 45.2652 28.4219 43.5823 29.9185C41.8993 31.4151 39.7196 32.2451 37.4591 32.25H12.1544C9.30194 32.2528 6.5502 31.2046 4.43335 29.3086C2.3165 27.4127 0.985549 24.8045 0.698884 21.9902C0.412219 19.1759 1.19029 16.3564 2.88205 14.079C4.5738 11.8016 7.05855 10.2288 9.85393 9.6659V9.43778C9.85248 8.2313 10.1727 7.04588 10.7821 6.00166C11.3915 4.95744 12.2685 4.09154 13.3241 3.49171C14.3797 2.89188 15.5765 2.57944 16.7931 2.58607C18.0097 2.59269 19.203 2.91813 20.2519 3.52942C21.8661 1.94776 23.9176 0.877123 26.1463 0.453305C28.375 0.0294863 30.6804 0.271579 32.7701 1.14888C34.8598 2.02618 36.6397 3.49916 37.8841 5.381C39.1284 7.26285 39.7812 9.46877 39.7595 11.719C39.7595 12.5859 39.6675 13.4071 39.4835 14.2283ZM25.9569 18.5627H32.8582L23.6565 9.43778L14.4548 18.5627H21.3561V25.4063H25.9569V18.5627Z" fill="#9C4900" fill-opacity="0.3"/>
</svg>
