<svg width="43" height="43" viewBox="0 0 43 43" fill="none" xmlns="http://www.w3.org/2000/svg">
<g filter="url(#filter0_d_2372_4103)">
<rect x="4.73438" y="0.445312" width="34" height="34" rx="10" fill="#F6EFE9"/>
</g>
<g clip-path="url(#clip0_2372_4103)">
<path d="M32.8643 19.9644C32.7856 20.0235 32.6959 20.0665 32.6005 20.091C32.5051 20.1154 32.4058 20.1208 32.3083 20.1069C32.2108 20.093 32.117 20.06 32.0322 20.0098C31.9475 19.9596 31.8734 19.8932 31.8143 19.8144C31.3623 19.2068 30.7739 18.7138 30.0965 18.3751C29.4191 18.0364 28.6717 17.8615 27.9143 17.8644C27.7669 17.8644 27.6227 17.8209 27.4998 17.7394C27.3769 17.6578 27.2807 17.5419 27.2234 17.406C27.1845 17.3137 27.1644 17.2146 27.1644 17.1144C27.1644 17.0143 27.1845 16.9151 27.2234 16.8229C27.2807 16.687 27.3769 16.571 27.4998 16.4895C27.6227 16.4079 27.7669 16.3644 27.9143 16.3644C28.3352 16.3644 28.7475 16.2463 29.1046 16.0237C29.4617 15.801 29.7492 15.4827 29.9344 15.1048C30.1197 14.727 30.1952 14.3048 30.1525 13.8861C30.1098 13.4675 29.9506 13.0692 29.6929 12.7365C29.4352 12.4038 29.0893 12.1501 28.6946 12.0041C28.2999 11.8582 27.8722 11.8258 27.4601 11.9107C27.0479 11.9956 26.6678 12.1945 26.363 12.4846C26.0582 12.7747 25.8408 13.1445 25.7356 13.5519C25.711 13.6473 25.6678 13.737 25.6085 13.8157C25.5493 13.8944 25.4751 13.9607 25.3902 14.0108C25.3053 14.0608 25.2114 14.0937 25.1138 14.1074C25.0163 14.1212 24.9169 14.1156 24.8215 14.091C24.7261 14.0664 24.6365 14.0232 24.5578 13.9639C24.479 13.9047 24.4127 13.8305 24.3627 13.7456C24.3126 13.6607 24.2798 13.5668 24.266 13.4692C24.2523 13.3717 24.2578 13.2723 24.2825 13.1769C24.4285 12.6119 24.7044 12.0888 25.0881 11.6491C25.4719 11.2095 25.953 10.8655 26.4931 10.6445C27.0333 10.4235 27.6175 10.3316 28.1994 10.3762C28.7813 10.4207 29.3447 10.6004 29.8449 10.9011C30.3451 11.2017 30.7682 11.6149 31.0806 12.1078C31.393 12.6007 31.5861 13.1598 31.6444 13.7404C31.7027 14.3211 31.6247 14.9074 31.4166 15.4526C31.2085 15.9978 30.876 16.4869 30.4456 16.881C31.4654 17.3225 32.352 18.0232 33.0172 18.9135C33.0762 18.9925 33.1192 19.0824 33.1435 19.178C33.1678 19.2736 33.173 19.373 33.1588 19.4707C33.1446 19.5683 33.1113 19.6621 33.0608 19.7469C33.0102 19.8316 32.9435 19.9055 32.8643 19.9644ZM27.8131 25.7394C27.8674 25.8248 27.9038 25.9202 27.9202 26.0201C27.9366 26.1199 27.9327 26.222 27.9086 26.3202C27.8846 26.4185 27.8409 26.5108 27.7802 26.5917C27.7195 26.6727 27.6431 26.7405 27.5555 26.7911C27.4679 26.8417 27.371 26.8741 27.2706 26.8863C27.1702 26.8985 27.0683 26.8903 26.9712 26.8621C26.874 26.8339 26.7836 26.7864 26.7053 26.7223C26.627 26.6583 26.5625 26.5791 26.5156 26.4894C26.0431 25.6894 25.3703 25.0264 24.5634 24.5659C23.7565 24.1053 22.8434 23.8631 21.9143 23.8631C20.9853 23.8631 20.0722 24.1053 19.2653 24.5659C18.4584 25.0264 17.7856 25.6894 17.3131 26.4894C17.2662 26.5791 17.2017 26.6583 17.1234 26.7223C17.0451 26.7864 16.9546 26.8339 16.8575 26.8621C16.7604 26.8903 16.6585 26.8985 16.5581 26.8863C16.4577 26.8741 16.3608 26.8417 16.2732 26.7911C16.1856 26.7405 16.1092 26.6727 16.0485 26.5917C15.9878 26.5108 15.9441 26.4185 15.9201 26.3202C15.896 26.222 15.8921 26.1199 15.9085 26.0201C15.9249 25.9202 15.9613 25.8248 16.0156 25.7394C16.7427 24.4901 17.8514 23.5069 19.1787 22.9344C18.4318 22.3626 17.8829 21.5711 17.6092 20.6711C17.3354 19.7712 17.3505 18.8081 17.6524 17.9172C17.9543 17.0263 18.5278 16.2524 19.2922 15.7043C20.0567 15.1562 20.9737 14.8614 21.9143 14.8614C22.855 14.8614 23.772 15.1562 24.5365 15.7043C25.3009 16.2524 25.8744 17.0263 26.1763 17.9172C26.4782 18.8081 26.4933 19.7712 26.2195 20.6711C25.9458 21.5711 25.3968 22.3626 24.65 22.9344C25.9773 23.5069 27.086 24.4901 27.8131 25.7394ZM21.9143 22.3644C22.5077 22.3644 23.0877 22.1885 23.5811 21.8588C24.0744 21.5292 24.4589 21.0607 24.686 20.5125C24.913 19.9643 24.9725 19.3611 24.8567 18.7792C24.7409 18.1972 24.4552 17.6627 24.0357 17.2431C23.6161 16.8235 23.0816 16.5378 22.4996 16.4221C21.9177 16.3063 21.3145 16.3657 20.7663 16.5928C20.2181 16.8198 19.7496 17.2044 19.4199 17.6977C19.0903 18.1911 18.9143 18.7711 18.9143 19.3644C18.9143 20.1601 19.2304 20.9231 19.793 21.4857C20.3556 22.0484 21.1187 22.3644 21.9143 22.3644ZM16.6643 17.1144C16.6643 16.9155 16.5853 16.7247 16.4447 16.5841C16.304 16.4434 16.1133 16.3644 15.9143 16.3644C15.4935 16.3644 15.0812 16.2463 14.7241 16.0237C14.367 15.801 14.0795 15.4827 13.8942 15.1048C13.709 14.727 13.6335 14.3048 13.6762 13.8861C13.7189 13.4675 13.8781 13.0692 14.1358 12.7365C14.3935 12.4038 14.7394 12.1501 15.1341 12.0041C15.5288 11.8582 15.9565 11.8258 16.3686 11.9107C16.7808 11.9956 17.1609 12.1945 17.4657 12.4846C17.7705 12.7747 17.9879 13.1445 18.0931 13.5519C18.1428 13.7446 18.2671 13.9097 18.4385 14.0108C18.6099 14.1119 18.8145 14.1407 19.0072 14.091C19.1999 14.0413 19.3649 13.917 19.466 13.7456C19.5671 13.5742 19.5959 13.3696 19.5462 13.1769C19.4002 12.6119 19.1243 12.0888 18.7405 11.6491C18.3568 11.2095 17.8757 10.8655 17.3355 10.6445C16.7954 10.4235 16.2112 10.3316 15.6293 10.3762C15.0474 10.4207 14.484 10.6004 13.9838 10.9011C13.4836 11.2017 13.0604 11.6149 12.7481 12.1078C12.4357 12.6007 12.2426 13.1598 12.1843 13.7404C12.126 14.3211 12.204 14.9074 12.4121 15.4526C12.6202 15.9978 12.9527 16.4869 13.3831 16.881C12.3643 17.323 11.4788 18.0236 10.8143 18.9135C10.7552 18.9923 10.7121 19.082 10.6876 19.1774C10.6631 19.2728 10.6577 19.3721 10.6716 19.4697C10.6854 19.5672 10.7184 19.6611 10.7686 19.7459C10.8187 19.8307 10.8851 19.9048 10.9639 19.964C11.0427 20.0231 11.1323 20.0662 11.2278 20.0907C11.3232 20.1152 11.4225 20.1206 11.5201 20.1067C11.6176 20.0929 11.7115 20.0599 11.7963 20.0097C11.8811 19.9596 11.9552 19.8932 12.0143 19.8144C12.4664 19.2068 13.0548 18.7138 13.7322 18.3751C14.4096 18.0364 15.157 17.8615 15.9143 17.8644C16.1133 17.8644 16.304 17.7854 16.4447 17.6448C16.5853 17.5041 16.6643 17.3133 16.6643 17.1144Z" fill="#8F4300"/>
</g>
<defs>
<filter id="filter0_d_2372_4103" x="0.734375" y="0.445312" width="42" height="42" filterUnits="userSpaceOnUse" color-interpolation-filters="sRGB">
<feFlood flood-opacity="0" result="BackgroundImageFix"/>
<feColorMatrix in="SourceAlpha" type="matrix" values="0 0 0 0 0 0 0 0 0 0 0 0 0 0 0 0 0 0 127 0" result="hardAlpha"/>
<feOffset dy="4"/>
<feGaussianBlur stdDeviation="2"/>
<feComposite in2="hardAlpha" operator="out"/>
<feColorMatrix type="matrix" values="0 0 0 0 0.970833 0 0 0 0 0.952226 0 0 0 0 0.952226 0 0 0 1 0"/>
<feBlend mode="normal" in2="BackgroundImageFix" result="effect1_dropShadow_2372_4103"/>
<feBlend mode="normal" in="SourceGraphic" in2="effect1_dropShadow_2372_4103" result="shape"/>
</filter>
<clipPath id="clip0_2372_4103">
<rect width="24" height="24" fill="white" transform="translate(9.91406 5.86426)"/>
</clipPath>
</defs>
</svg>
