<svg width="43" height="43" viewBox="0 0 43 43" fill="none" xmlns="http://www.w3.org/2000/svg">
<g filter="url(#filter0_d_2372_4067)">
<rect x="4.73438" y="0.945312" width="34" height="34" rx="10" fill="#F6EFE9"/>
</g>
<g clip-path="url(#clip0_2372_4067)">
<path d="M19.9141 11.3643C15.4941 11.3643 11.9141 11.8643 11.9141 15.3643V25.3643C11.9141 26.2143 12.2841 27.0243 12.9141 27.5843V29.3643C12.9141 29.9143 13.3641 30.3643 13.9141 30.3643H14.9141C15.4641 30.3643 15.9141 29.9143 15.9141 29.3643V28.3643H23.9141V29.3643C23.9141 29.9143 24.3641 30.3643 24.9141 30.3643H25.9141C26.4641 30.3643 26.9141 29.9143 26.9141 29.3643V27.5843C27.5441 27.0243 27.9141 26.2143 27.9141 25.3643V15.3643C27.9141 11.8643 24.3341 11.3643 19.9141 11.3643ZM15.4141 26.3643C14.5841 26.3643 13.9141 25.6943 13.9141 24.8643C13.9141 24.0343 14.5841 23.3643 15.4141 23.3643C16.2441 23.3643 16.9141 24.0343 16.9141 24.8643C16.9141 25.6943 16.2441 26.3643 15.4141 26.3643ZM24.4141 26.3643C23.5841 26.3643 22.9141 25.6943 22.9141 24.8643C22.9141 24.0343 23.5841 23.3643 24.4141 23.3643C25.2441 23.3643 25.9141 24.0343 25.9141 24.8643C25.9141 25.6943 25.2441 26.3643 24.4141 26.3643ZM25.9141 20.3643H13.9141V15.3643H25.9141V20.3643ZM31.9141 11.3643V21.3643C31.9141 22.2143 31.5441 23.0243 30.9141 23.5843V25.3643C30.9141 25.9143 30.4641 26.3643 29.9141 26.3643H29.7941C29.8641 26.0443 29.9141 25.7143 29.9141 25.3643V15.3643C29.9141 9.36426 22.9141 9.36426 19.9141 9.36426C19.0041 9.36426 17.7141 9.36426 16.3741 9.53426C17.4641 7.68426 20.4141 7.36426 23.9141 7.36426C28.3341 7.36426 31.9141 7.86426 31.9141 11.3643Z" fill="#8F4300"/>
</g>
<defs>
<filter id="filter0_d_2372_4067" x="0.734375" y="0.945312" width="42" height="42" filterUnits="userSpaceOnUse" color-interpolation-filters="sRGB">
<feFlood flood-opacity="0" result="BackgroundImageFix"/>
<feColorMatrix in="SourceAlpha" type="matrix" values="0 0 0 0 0 0 0 0 0 0 0 0 0 0 0 0 0 0 127 0" result="hardAlpha"/>
<feOffset dy="4"/>
<feGaussianBlur stdDeviation="2"/>
<feComposite in2="hardAlpha" operator="out"/>
<feColorMatrix type="matrix" values="0 0 0 0 0.970833 0 0 0 0 0.952226 0 0 0 0 0.952226 0 0 0 1 0"/>
<feBlend mode="normal" in2="BackgroundImageFix" result="effect1_dropShadow_2372_4067"/>
<feBlend mode="normal" in="SourceGraphic" in2="effect1_dropShadow_2372_4067" result="shape"/>
</filter>
<clipPath id="clip0_2372_4067">
<rect width="24" height="24" fill="white" transform="translate(9.91406 6.36426)"/>
</clipPath>
</defs>
</svg>
