<svg width="43" height="43" viewBox="0 0 43 43" fill="none" xmlns="http://www.w3.org/2000/svg">
<g filter="url(#filter0_d_2372_4094)">
<rect x="4.73438" y="0.945312" width="34" height="34" rx="10" fill="#F6EFE9"/>
</g>
<path fill-rule="evenodd" clip-rule="evenodd" d="M17.4158 11.1143C17.4158 10.8953 19.6738 9.36426 21.9158 9.36426C24.1578 9.36426 26.4158 10.8958 26.4158 11.1143C26.4158 11.8943 26.3328 12.3563 26.2628 12.6078C26.2163 12.7728 26.0618 12.8643 25.8903 12.8643H17.9413C17.7698 12.8643 17.6153 12.7728 17.5688 12.6078C17.4988 12.3563 17.4158 11.8943 17.4158 11.1143ZM21.1658 10.8643C21.0332 10.8643 20.906 10.9169 20.8122 11.0107C20.7185 11.1045 20.6658 11.2316 20.6658 11.3643C20.6658 11.4969 20.7185 11.624 20.8122 11.7178C20.906 11.8116 21.0332 11.8643 21.1658 11.8643H22.6658C22.7984 11.8643 22.9256 11.8116 23.0193 11.7178C23.1131 11.624 23.1658 11.4969 23.1658 11.3643C23.1658 11.2316 23.1131 11.1045 23.0193 11.0107C22.9256 10.9169 22.7984 10.8643 22.6658 10.8643H21.1658ZM17.9348 15.9733C16.2698 15.4583 16.6898 14.5383 17.3248 13.8643H26.6458C27.1538 14.5133 27.4263 15.3888 25.8908 15.9128C25.9536 16.4698 25.8985 17.0338 25.7293 17.5681C25.5601 18.1025 25.2805 18.5954 24.9085 19.0147C24.5366 19.4341 24.0807 19.7706 23.5703 20.0025C23.06 20.2343 22.5066 20.3563 21.9461 20.3605C21.3856 20.3647 20.8304 20.2511 20.3167 20.027C19.8029 19.8029 19.3419 19.4733 18.9637 19.0596C18.5855 18.6459 18.2985 18.1573 18.1212 17.6255C17.9439 17.0937 17.8804 16.5307 17.9348 15.9728V15.9733ZM21.7798 16.3643C23.1008 16.3643 24.1248 16.2943 24.9098 16.1723C24.9356 16.5799 24.8779 16.9885 24.7402 17.3731C24.6025 17.7577 24.3877 18.1101 24.109 18.4087C23.8303 18.7073 23.4935 18.9459 23.1194 19.1098C22.7452 19.2736 22.3415 19.3594 21.9331 19.3617C21.5246 19.3641 21.1199 19.283 20.7439 19.1234C20.3679 18.9639 20.0284 18.7292 19.7463 18.4338C19.4642 18.1384 19.2453 17.7885 19.1032 17.4056C18.9611 17.0226 18.8987 16.6147 18.9198 16.2068C19.6513 16.3078 20.5888 16.3643 21.7798 16.3643ZM26.1243 23.6643C25.672 22.9587 25.0495 22.3782 24.3141 21.9762C23.5786 21.5743 22.7539 21.3639 21.9158 21.3643C21.0773 21.3637 20.2522 21.5742 19.5165 21.9763C18.7808 22.3784 18.1581 22.9593 17.7058 23.6653C17.5379 23.4067 17.2801 23.2197 16.9823 23.1403L16.0163 22.8818C15.6961 22.7959 15.3549 22.8408 15.0678 23.0065C14.7807 23.1721 14.5712 23.4451 14.4853 23.7653L14.0973 25.2143C14.0548 25.3728 14.044 25.5382 14.0654 25.701C14.0868 25.8637 14.1401 26.0207 14.2222 26.1629C14.3043 26.305 14.4136 26.4296 14.5438 26.5296C14.6741 26.6295 14.8227 26.7028 14.9813 26.7453L15.9468 27.0043C16.1092 27.048 16.2788 27.0584 16.4453 27.0349C16.6118 27.0113 16.7719 26.9543 16.9158 26.8673C16.9162 26.9999 16.9692 27.1269 17.0633 27.2204C17.1573 27.3139 17.2847 27.3662 17.4173 27.3658C17.5499 27.3654 17.6769 27.3123 17.7704 27.2183C17.8639 27.1242 17.9162 26.9969 17.9158 26.8643V26.3643C17.9158 26.1738 17.9293 25.9863 17.9548 25.8028L20.5568 26.5003C20.6776 26.7588 20.8696 26.9775 21.1103 27.1307C21.351 27.284 21.6304 27.3653 21.9158 27.3653C22.2011 27.3653 22.4806 27.284 22.7213 27.1307C22.962 26.9775 23.154 26.7588 23.2748 26.5003L25.8768 25.8028C25.9023 25.9863 25.9158 26.1738 25.9158 26.3643V26.8643C25.9151 26.9969 25.9672 27.1243 26.0605 27.2185C26.1538 27.3128 26.2807 27.3661 26.4133 27.3668C26.5459 27.3674 26.6733 27.3154 26.7676 27.2221C26.8618 27.1288 26.9151 27.0019 26.9158 26.8693C27.1958 27.0373 27.5418 27.0958 27.8823 27.0043L28.8483 26.7458C29.0069 26.7033 29.1555 26.63 29.2858 26.5301C29.416 26.4301 29.5253 26.3055 29.6074 26.1634C29.6895 26.0212 29.7428 25.8642 29.7642 25.7015C29.7856 25.5387 29.7748 25.3733 29.7323 25.2148L29.3438 23.7658C29.2579 23.4456 29.0484 23.1726 28.7612 23.007C28.4741 22.8413 28.133 22.7964 27.8128 22.8823L26.8468 23.1408C26.5496 23.2199 26.2923 23.4067 26.1243 23.6643ZM18.2173 24.8378C18.4874 24.1845 18.9256 23.6145 19.4874 23.1855C20.0492 22.7565 20.7145 22.4838 21.4158 22.3953V24.4498C21.1917 24.5292 20.9897 24.6607 20.8263 24.8334C20.6629 25.0061 20.5428 25.2151 20.4758 25.4433L18.2173 24.8383V24.8378ZM25.6143 24.8378C25.3442 24.1846 24.9059 23.6145 24.3442 23.1855C23.7824 22.7565 23.1171 22.4839 22.4158 22.3953V24.4498C22.8678 24.6098 23.2208 24.9798 23.3558 25.4433L25.6143 24.8383V24.8378ZM21.9158 26.3643C22.0484 26.3643 22.1756 26.3116 22.2693 26.2178C22.3631 26.124 22.4158 25.9969 22.4158 25.8643C22.4158 25.7316 22.3631 25.6045 22.2693 25.5107C22.1756 25.4169 22.0484 25.3643 21.9158 25.3643C21.7832 25.3643 21.656 25.4169 21.5622 25.5107C21.4685 25.6045 21.4158 25.7316 21.4158 25.8643C21.4158 25.9969 21.4685 26.124 21.5622 26.2178C21.656 26.3116 21.7832 26.3643 21.9158 26.3643Z" fill="#8F4300"/>
<defs>
<filter id="filter0_d_2372_4094" x="0.734375" y="0.945312" width="42" height="42" filterUnits="userSpaceOnUse" color-interpolation-filters="sRGB">
<feFlood flood-opacity="0" result="BackgroundImageFix"/>
<feColorMatrix in="SourceAlpha" type="matrix" values="0 0 0 0 0 0 0 0 0 0 0 0 0 0 0 0 0 0 127 0" result="hardAlpha"/>
<feOffset dy="4"/>
<feGaussianBlur stdDeviation="2"/>
<feComposite in2="hardAlpha" operator="out"/>
<feColorMatrix type="matrix" values="0 0 0 0 0.970833 0 0 0 0 0.952226 0 0 0 0 0.952226 0 0 0 1 0"/>
<feBlend mode="normal" in2="BackgroundImageFix" result="effect1_dropShadow_2372_4094"/>
<feBlend mode="normal" in="SourceGraphic" in2="effect1_dropShadow_2372_4094" result="shape"/>
</filter>
</defs>
</svg>
