<svg width="43" height="43" viewBox="0 0 43 43" fill="none" xmlns="http://www.w3.org/2000/svg">
<g filter="url(#filter0_d_2372_4085)">
<rect x="4.73438" y="0.195312" width="34" height="34" rx="10" fill="#F6EFE9"/>
</g>
<g clip-path="url(#clip0_2372_4085)">
<path d="M20.9898 5.61426C15.8316 5.61426 11.0649 8.8238 11.9612 16.4604C11.8015 16.5878 11.6473 16.7244 11.5282 16.8933C11.0639 17.5487 10.8359 18.4007 10.8359 19.3164C10.8359 20.4656 11.5135 21.3499 12.2206 21.9989C12.7375 22.4743 13.2664 22.8056 13.8646 22.9801C14.3353 24.4939 15.2021 25.7493 16.2304 26.6143C16.3219 26.7009 16.4301 26.7679 16.5485 26.8111C16.6668 26.8543 16.7928 26.8728 16.9186 26.8655C17.0443 26.8582 17.1673 26.8253 17.2799 26.7687C17.3924 26.712 17.4922 26.633 17.573 26.5364C17.6539 26.4397 17.7141 26.3276 17.75 26.2068C17.7858 26.086 17.7966 25.9592 17.7816 25.8341C17.7666 25.709 17.7261 25.5883 17.6627 25.4794C17.5993 25.3705 17.5143 25.2758 17.4129 25.201C16.4842 24.4192 15.7079 23.3752 15.4227 22.0275C15.377 21.8239 15.2637 21.6418 15.1013 21.5109C14.9389 21.38 14.7369 21.308 14.5282 21.3066C14.6418 21.3066 13.9319 21.0758 13.4612 20.6429C12.9904 20.2109 12.6821 19.669 12.6821 19.3164C12.6821 18.8881 12.7846 18.53 12.9129 18.2493C13.0382 18.3917 13.2044 18.4919 13.3888 18.5364C13.5731 18.581 13.7667 18.5676 13.9432 18.4982C14.1198 18.4288 14.2706 18.3068 14.3753 18.1486C14.48 17.9904 14.5334 17.8039 14.5282 17.6143V16.8352C14.5296 16.8063 14.5296 16.7773 14.5282 16.7484C14.5652 16.0903 14.6519 15.4856 14.7876 14.9318C16.0606 14.4943 17.1202 15.2041 18.2206 11.9604C19.8267 16.7355 23.9861 14.0041 26.8458 13.8647C27.1818 14.6816 27.3904 15.6416 27.4513 16.7484C27.45 16.7773 27.45 16.8063 27.4513 16.8352V17.6143C27.4513 17.8591 27.5486 18.0939 27.7217 18.267C27.8948 18.4401 28.1296 18.5373 28.3744 18.5373V20.8164C27.9738 21.1312 27.5298 21.3066 27.4513 21.3066C27.2427 21.308 27.0407 21.38 26.8783 21.5109C26.7158 21.6418 26.6025 21.8239 26.5569 22.0275C26.3686 22.9192 25.9495 23.6696 25.4326 24.3066C25.3549 24.4012 25.2967 24.5103 25.2612 24.6275C25.2257 24.7446 25.2136 24.8677 25.2256 24.9895C25.2377 25.1113 25.2736 25.2296 25.3314 25.3376C25.3891 25.4455 25.4676 25.5411 25.5622 25.6187C25.6569 25.6964 25.766 25.7546 25.8831 25.7901C26.0003 25.8256 26.1233 25.8377 26.2452 25.8256C26.367 25.8136 26.4853 25.7777 26.5933 25.7199C26.7012 25.6622 26.7968 25.5837 26.8744 25.489C27.4282 24.8069 27.7956 23.9143 28.0864 22.9801C28.6349 22.8416 29.1467 22.5856 29.5864 22.2296H30.2206C29.9944 23.4121 29.5781 24.3047 29.1535 24.9416C28.5535 25.8416 28.0366 26.1564 27.9996 26.1813C27.9729 26.1952 27.6452 26.3752 26.7009 26.5856C25.9809 26.7453 24.9442 26.9161 23.5569 26.989C23.3713 25.9598 22.2932 25.1724 20.9898 25.1724C19.5553 25.1724 18.3932 26.1278 18.3932 27.3066C18.3932 28.4853 19.5562 29.4416 20.9898 29.4416C21.8861 29.4416 22.6864 29.0576 23.1535 28.489C24.8612 28.4207 26.159 28.225 27.0479 28.0275C28.1427 27.7847 28.691 27.5087 28.691 27.5087C28.7216 27.4914 28.7509 27.472 28.7787 27.4506C28.7787 27.4506 29.6021 26.8921 30.3646 25.7493C30.9812 24.8244 31.5922 23.4832 31.8073 21.7109C32.4793 21.2078 32.903 20.3853 32.903 19.4604V17.6143C32.903 16.0847 31.7492 14.845 30.2206 14.845H30.0766C30.0802 8.38533 25.7658 5.61426 20.9898 5.61426ZM28.9799 14.7296C29.0076 14.7684 29.0399 14.8035 29.0667 14.845H28.9799C28.9726 14.8072 28.9882 14.7675 28.9799 14.7296ZM17.2975 16.6912C16.8078 16.6912 16.3383 16.8857 15.992 17.2319C15.6458 17.5781 15.4513 18.0477 15.4513 18.5373C15.4513 19.027 15.6458 19.4965 15.992 19.8428C16.3383 20.189 16.8078 20.3835 17.2975 20.3835C17.7871 20.3835 18.2567 20.189 18.6029 19.8428C18.9491 19.4965 19.1436 19.027 19.1436 18.5373C19.1436 18.0477 18.9491 17.5781 18.6029 17.2319C18.2567 16.8857 17.7871 16.6912 17.2975 16.6912ZM24.6821 16.6912C24.1925 16.6912 23.7229 16.8857 23.3767 17.2319C23.0304 17.5781 22.8359 18.0477 22.8359 18.5373C22.8359 19.027 23.0304 19.4965 23.3767 19.8428C23.7229 20.189 24.1925 20.3835 24.6821 20.3835C25.1717 20.3835 25.6413 20.189 25.9875 19.8428C26.3337 19.4965 26.5282 19.027 26.5282 18.5373C26.5282 18.0477 26.3337 17.5781 25.9875 17.2319C25.6413 16.8857 25.1717 16.6912 24.6821 16.6912Z" fill="#8F4300"/>
</g>
<defs>
<filter id="filter0_d_2372_4085" x="0.734375" y="0.195312" width="42" height="42" filterUnits="userSpaceOnUse" color-interpolation-filters="sRGB">
<feFlood flood-opacity="0" result="BackgroundImageFix"/>
<feColorMatrix in="SourceAlpha" type="matrix" values="0 0 0 0 0 0 0 0 0 0 0 0 0 0 0 0 0 0 127 0" result="hardAlpha"/>
<feOffset dy="4"/>
<feGaussianBlur stdDeviation="2"/>
<feComposite in2="hardAlpha" operator="out"/>
<feColorMatrix type="matrix" values="0 0 0 0 0.970833 0 0 0 0 0.952226 0 0 0 0 0.952226 0 0 0 1 0"/>
<feBlend mode="normal" in2="BackgroundImageFix" result="effect1_dropShadow_2372_4085"/>
<feBlend mode="normal" in="SourceGraphic" in2="effect1_dropShadow_2372_4085" result="shape"/>
</filter>
<clipPath id="clip0_2372_4085">
<rect width="24" height="24" fill="white" transform="translate(9.91406 5.61426)"/>
</clipPath>
</defs>
</svg>
