<svg width="14" height="16" viewBox="0 0 14 16" fill="none" xmlns="http://www.w3.org/2000/svg">
<path d="M2.66408 15.5C2.20575 15.5 1.81352 15.3369 1.48741 15.0108C1.16074 14.6842 0.997403 14.2917 0.997403 13.8333V3C0.76129 3 0.563233 2.92028 0.403231 2.76083C0.243786 2.60083 0.164062 2.40278 0.164062 2.16667C0.164062 1.93056 0.243786 1.7325 0.403231 1.5725C0.563233 1.41306 0.76129 1.33333 0.997403 1.33333H4.33076C4.33076 1.09722 4.41077 0.899167 4.57077 0.739167C4.73021 0.579722 4.92799 0.5 5.16411 0.5H8.49747C8.73358 0.5 8.93164 0.579722 9.09164 0.739167C9.25109 0.899167 9.33081 1.09722 9.33081 1.33333H12.6642C12.9003 1.33333 13.0981 1.41306 13.2575 1.5725C13.4175 1.7325 13.4975 1.93056 13.4975 2.16667C13.4975 2.40278 13.4175 2.60083 13.2575 2.76083C13.0981 2.92028 12.9003 3 12.6642 3V13.8333C12.6642 14.2917 12.5011 14.6842 12.175 15.0108C11.8483 15.3369 11.4558 15.5 10.9975 15.5H2.66408ZM2.66408 3V13.8333H10.9975V3H2.66408ZM4.33076 11.3333C4.33076 11.5694 4.41077 11.7672 4.57077 11.9267C4.73021 12.0867 4.92799 12.1667 5.16411 12.1667C5.40022 12.1667 5.59828 12.0867 5.75828 11.9267C5.91772 11.7672 5.99745 11.5694 5.99745 11.3333V5.5C5.99745 5.26389 5.91772 5.06583 5.75828 4.90583C5.59828 4.74639 5.40022 4.66667 5.16411 4.66667C4.92799 4.66667 4.73021 4.74639 4.57077 4.90583C4.41077 5.06583 4.33076 5.26389 4.33076 5.5V11.3333ZM7.66413 11.3333C7.66413 11.5694 7.74413 11.7672 7.90413 11.9267C8.06357 12.0867 8.26135 12.1667 8.49747 12.1667C8.73358 12.1667 8.93164 12.0867 9.09164 11.9267C9.25109 11.7672 9.33081 11.5694 9.33081 11.3333V5.5C9.33081 5.26389 9.25109 5.06583 9.09164 4.90583C8.93164 4.74639 8.73358 4.66667 8.49747 4.66667C8.26135 4.66667 8.06357 4.74639 7.90413 4.90583C7.74413 5.06583 7.66413 5.26389 7.66413 5.5V11.3333Z" fill="#9C4900"/>
</svg>
