<svg width="13" height="16" viewBox="0 0 13 16" fill="none" xmlns="http://www.w3.org/2000/svg">
<path d="M7.65365 15.9193C6.52112 15.9193 5.48756 15.603 4.55295 14.9706C3.61835 14.3386 2.94213 13.4948 2.52431 12.4392L0.842014 8.20052C0.798032 8.09057 0.767905 7.98875 0.751632 7.89507C0.734919 7.80183 0.726562 7.69473 0.726562 7.57378C0.726562 7.24392 0.853009 6.95255 1.1059 6.69965C1.3588 6.44676 1.65017 6.32031 1.98003 6.32031C2.057 6.32031 2.12583 6.32295 2.18653 6.32823C2.24678 6.33395 2.3099 6.3478 2.37587 6.36979L2.88715 6.50174C3.04109 6.54572 3.18403 6.60333 3.31597 6.67458C3.44792 6.74627 3.57436 6.83709 3.69531 6.94705V3.05469C3.69531 2.59288 3.85475 2.20255 4.17361 1.88368C4.49248 1.56481 4.88281 1.40538 5.34462 1.40538C5.41059 1.40538 5.47392 1.40802 5.53462 1.4133C5.59487 1.41902 5.65249 1.42737 5.70747 1.43837C5.77344 1.02054 5.96322 0.690683 6.27681 0.448785C6.58995 0.206887 6.93895 0.0859375 7.32378 0.0859375C7.67564 0.0859375 7.989 0.182257 8.26389 0.374896C8.53877 0.567095 8.73669 0.822627 8.85764 1.14149C8.93461 1.1195 9.00893 1.10301 9.08062 1.09201C9.15187 1.08102 9.22598 1.07552 9.30295 1.07552C9.76476 1.07552 10.1551 1.23495 10.474 1.55382C10.7928 1.87269 10.9523 2.26302 10.9523 2.72483V3.08767C11.0072 3.07668 11.0622 3.06832 11.1172 3.0626C11.1722 3.05733 11.2271 3.05469 11.2821 3.05469C11.7439 3.05469 12.1343 3.21412 12.4531 3.53299C12.772 3.85185 12.9314 4.24219 12.9314 4.70399V10.6415C12.9314 12.1149 12.4201 13.3628 11.3976 14.3854C10.375 15.408 9.12703 15.9193 7.65365 15.9193ZM7.65365 14.5998C8.75318 14.5998 9.68779 14.215 10.4575 13.4453C11.2271 12.6756 11.612 11.741 11.612 10.6415V4.70399C11.612 4.61603 11.579 4.53906 11.513 4.47309C11.447 4.40712 11.3701 4.37413 11.2821 4.37413C11.1942 4.37413 11.1172 4.40712 11.0512 4.47309C10.9852 4.53906 10.9523 4.61603 10.9523 4.70399V8.0026H9.63281V2.72483C9.63281 2.63686 9.59983 2.5599 9.53385 2.49392C9.46788 2.42795 9.39091 2.39497 9.30295 2.39497C9.21499 2.39497 9.13802 2.42795 9.07205 2.49392C9.00608 2.5599 8.97309 2.63686 8.97309 2.72483V8.0026H7.65365V1.73524C7.65365 1.64728 7.62066 1.57031 7.55469 1.50434C7.48872 1.43837 7.41175 1.40538 7.32378 1.40538C7.23582 1.40538 7.15885 1.43837 7.09288 1.50434C7.02691 1.57031 6.99392 1.64728 6.99392 1.73524V8.0026H5.67448V3.05469C5.67448 2.96672 5.64149 2.88976 5.57552 2.82378C5.50955 2.75781 5.43258 2.72483 5.34462 2.72483C5.25666 2.72483 5.17969 2.75781 5.11372 2.82378C5.04774 2.88976 5.01476 2.96672 5.01476 3.05469V9.98177H3.69531L3.05208 8.33247C2.97512 8.14554 2.86802 8.0081 2.7308 7.92014C2.59314 7.83218 2.36487 7.73872 2.04601 7.63976L3.76128 11.9609C4.08015 12.7526 4.59429 13.3903 5.30372 13.8741C6.0127 14.3579 6.79601 14.5998 7.65365 14.5998Z" fill="#9C4900"/>
</svg>
