<svg id="Layer_1" data-name="Layer 1" xmlns="http://www.w3.org/2000/svg" viewBox="0 0 21 20"><defs><style>.cls-1{fill:#f6a300;}</style></defs><path class="cls-1" d="M15.9,16.67H4.23v.83a.82.82,0,0,1-.83.83H2.57A.81.81,0,0,1,2,18.09a.83.83,0,0,1-.25-.59V9.17L3.8,4.34a1.63,1.63,0,0,1,.62-.73,1.65,1.65,0,0,1,.91-.28H14.8a1.67,1.67,0,0,1,1.53,1L18.4,9.17V17.5a.87.87,0,0,1-.24.59.82.82,0,0,1-.59.24h-.84a.82.82,0,0,1-.59-.24.87.87,0,0,1-.24-.59Zm.83-5.84H3.4V15H16.73ZM3.55,9.17h13L14.8,5H5.33L3.55,9.17Z"/><path class="cls-1" d="M5.5,12.34h9.13v1.25H5.5Z"/></svg>