 <svg width="42" height="16" viewBox="0 0 42 16" fill="none" xmlns="http://www.w3.org/2000/svg">
<text x="21" y="10" fill="#9C4900" font-family="Arial" font-size="10" text-anchor="middle">عرض الكل</text>
  
<path d="M0.796875 12.6C0.575961 12.6 0.396875 12.7791 0.396875 13C0.396875 13.2209 0.575961 13.4 0.796875 13.4L0.796875 12.6ZM41.0797 13.2828C41.2359 13.1266 41.2359 12.8734 41.0797 12.7172L38.5341 10.1716C38.3779 10.0154 38.1247 10.0154 37.9684 10.1716C37.8122 10.3278 37.8122 10.581 37.9684 10.7373L40.2312 13L37.9684 15.2627C37.8122 15.4189 37.8122 15.6722 37.9684 15.8284C38.1247 15.9846 38.3779 15.9846 38.5341 15.8284L41.0797 13.2828ZM0.796875 13.4L40.7969 13.4L40.7969 12.6L0.796875 12.6L0.796875 13.4Z" fill="#9C4900"/>
</svg>