<svg width="42" height="16" viewBox="0 0 42 16" fill="none" xmlns="http://www.w3.org/2000/svg">
<path d="M3.8 9L1.405 2H2.155L3.935 7.32C3.965 7.40667 3.995 7.50333 4.025 7.61C4.05833 7.71333 4.09 7.82167 4.12 7.935C4.15 7.82167 4.18 7.715 4.21 7.615C4.24 7.51167 4.27 7.41333 4.3 7.32L6.05 2H6.8L4.41 9H3.8ZM8.24508 9V3.89H8.94508V9H8.24508ZM8.59008 2.865C8.46341 2.865 8.35508 2.82 8.26508 2.73C8.17841 2.64 8.13508 2.53167 8.13508 2.405C8.13508 2.27167 8.17841 2.16 8.26508 2.07C8.35508 1.97667 8.46341 1.93 8.59008 1.93C8.72341 1.93 8.83341 1.97667 8.92008 2.07C9.01008 2.16 9.05508 2.27167 9.05508 2.405C9.05508 2.53167 9.01008 2.64 8.92008 2.73C8.83341 2.82 8.72341 2.865 8.59008 2.865ZM12.6246 9.12C12.1713 9.12 11.7796 9.00833 11.4496 8.785C11.1229 8.55833 10.8713 8.24333 10.6946 7.84C10.5179 7.43667 10.4296 6.97 10.4296 6.44C10.4296 5.87667 10.5213 5.39667 10.7046 5C10.8913 4.6 11.1496 4.295 11.4796 4.085C11.8096 3.875 12.1913 3.77 12.6246 3.77C13.0013 3.77 13.3429 3.85833 13.6496 4.035C13.9563 4.21167 14.1996 4.485 14.3796 4.855C14.5596 5.225 14.6496 5.7 14.6496 6.28C14.6496 6.34 14.6479 6.40833 14.6446 6.485C14.6413 6.55833 14.6363 6.635 14.6296 6.715H11.1546C11.1813 7.06833 11.2529 7.37833 11.3696 7.645C11.4896 7.90833 11.6546 8.11667 11.8646 8.27C12.0779 8.42 12.3396 8.495 12.6496 8.495C12.8596 8.495 13.0613 8.45833 13.2546 8.385C13.4479 8.30833 13.6279 8.19167 13.7946 8.035L14.2046 8.505C14.0179 8.68167 13.7879 8.82833 13.5146 8.945C13.2446 9.06167 12.9479 9.12 12.6246 9.12ZM11.1446 6.1H13.9346C13.9346 5.78333 13.8863 5.495 13.7896 5.235C13.6963 4.975 13.5513 4.76833 13.3546 4.615C13.1613 4.46167 12.9179 4.385 12.6246 4.385C12.2279 4.385 11.8896 4.52167 11.6096 4.795C11.3329 5.06833 11.1779 5.50333 11.1446 6.1ZM16.8092 9L15.4992 3.89H16.1942L17.0392 7.49C17.0626 7.58 17.0826 7.67 17.0992 7.76C17.1192 7.84667 17.1376 7.93333 17.1542 8.02C17.1742 7.93333 17.1959 7.845 17.2192 7.755C17.2426 7.665 17.2659 7.57667 17.2892 7.49L18.3392 3.89H18.9042L19.9492 7.49C19.9759 7.58333 20.0009 7.675 20.0242 7.765C20.0509 7.855 20.0742 7.945 20.0942 8.035C20.1109 7.945 20.1276 7.855 20.1442 7.765C20.1642 7.675 20.1859 7.58333 20.2092 7.49L21.0492 3.89H21.7392L20.4342 9H19.8292L18.8092 5.725C18.7792 5.62167 18.7459 5.51 18.7092 5.39C18.6759 5.27 18.6442 5.15667 18.6142 5.05C18.5876 5.15667 18.5576 5.27 18.5242 5.39C18.4909 5.51 18.4576 5.62167 18.4242 5.725L17.4142 9H16.8092ZM24.5941 9L27.0491 2H27.6741L30.1291 9H29.4041L28.7791 7.205H25.9541L25.3341 9H24.5941ZM26.1541 6.59H28.5691L27.6291 3.865C27.6091 3.805 27.5807 3.72333 27.5441 3.62C27.5107 3.51333 27.4757 3.405 27.4391 3.295C27.4057 3.185 27.3807 3.095 27.3641 3.025C27.3474 3.095 27.3207 3.185 27.2841 3.295C27.2507 3.405 27.2157 3.51333 27.1791 3.62C27.1457 3.72333 27.1191 3.805 27.0991 3.865L26.1541 6.59ZM31.6097 9V2.115L32.3097 1.78V9H31.6097ZM34.1683 9V2.115L34.8683 1.78V9H34.1683Z" fill="#9C4900"/>
<path d="M0.796875 12.6C0.575961 12.6 0.396875 12.7791 0.396875 13C0.396875 13.2209 0.575961 13.4 0.796875 13.4L0.796875 12.6ZM41.0797 13.2828C41.2359 13.1266 41.2359 12.8734 41.0797 12.7172L38.5341 10.1716C38.3779 10.0154 38.1247 10.0154 37.9684 10.1716C37.8122 10.3278 37.8122 10.581 37.9684 10.7373L40.2312 13L37.9684 15.2627C37.8122 15.4189 37.8122 15.6722 37.9684 15.8284C38.1247 15.9846 38.3779 15.9846 38.5341 15.8284L41.0797 13.2828ZM0.796875 13.4L40.7969 13.4L40.7969 12.6L0.796875 12.6L0.796875 13.4Z" fill="#9C4900"/>
</svg>
