<svg width="61" height="61" viewBox="0 0 61 61" fill="none" xmlns="http://www.w3.org/2000/svg">
<circle cx="30.5781" cy="30.75" r="30" fill="#9C4900"/>
<mask id="mask0_428_21892" style="mask-type:alpha" maskUnits="userSpaceOnUse" x="10" y="10" width="41" height="41">
<rect x="10.5781" y="10.75" width="40" height="40" fill="#D9D9D9"/>
</mask>
<g mask="url(#mask0_428_21892)">
<path d="M38.5744 27.841C38.2444 27.8413 37.9241 27.7291 37.6664 27.523C36.4942 26.5843 35.5207 25.4216 34.8027 24.1026C34.0847 22.7837 33.6365 21.335 33.4844 19.841C33.4844 18.4908 34.0207 17.1959 34.9755 16.2411C35.9302 15.2864 37.2252 14.75 38.5754 14.75C39.9256 14.75 41.2205 15.2864 42.1753 16.2411C43.13 17.1959 43.6664 18.4908 43.6664 19.841C43.5142 21.335 43.066 22.7837 42.348 24.1026C41.63 25.4216 40.6565 26.5843 39.4844 27.523C39.2266 27.7291 38.9064 27.8413 38.5764 27.841H38.5744ZM38.5744 17.659C37.9958 17.6595 37.4411 17.8896 37.0321 18.2987C36.623 18.7078 36.3929 19.2625 36.3924 19.841C36.5544 21.5646 37.3285 23.173 38.5744 24.375C39.8207 23.1725 40.5948 21.5633 40.7564 19.839C40.7558 19.2605 40.5258 18.7058 40.1167 18.2967C39.7076 17.8876 39.1529 17.6575 38.5744 17.657V17.659Z" fill="#F6EFE9"/>
<path d="M22.5744 46.7472C22.2444 46.7475 21.9241 46.6354 21.6664 46.4293C20.4942 45.4905 19.5207 44.3278 18.8027 43.0089C18.0847 41.6899 17.6365 40.2412 17.4844 38.7473C17.4844 37.397 18.0207 36.1021 18.9755 35.1474C19.9302 34.1926 21.2252 33.6562 22.5754 33.6562C23.9256 33.6562 25.2205 34.1926 26.1753 35.1474C27.13 36.1021 27.6664 37.397 27.6664 38.7473C27.5142 40.2412 27.066 41.6899 26.348 43.0089C25.63 44.3278 24.6565 45.4905 23.4844 46.4293C23.2266 46.6354 22.9064 46.7475 22.5764 46.7472H22.5744ZM22.5744 36.5652C21.9958 36.5658 21.4411 36.7958 21.0321 37.2049C20.623 37.614 20.3929 38.1687 20.3924 38.7473C20.5516 40.475 21.3259 42.0882 22.5744 43.2933C23.8207 42.0908 24.5948 40.4815 24.7564 38.7573C24.7558 38.1787 24.5258 37.624 24.1167 37.2149C23.7076 36.8058 23.1529 36.5758 22.5744 36.5752V36.5652Z" fill="#F6EFE9"/>
<path d="M37.1231 42.3814H30.5771C30.1913 42.3814 29.8212 42.2281 29.5483 41.9552C29.2754 41.6823 29.1221 41.3123 29.1221 40.9264C29.1221 40.5405 29.2754 40.1704 29.5483 39.8975C29.8212 39.6247 30.1913 39.4714 30.5771 39.4714H37.1231C38.0875 39.4714 39.0123 39.0883 39.6942 38.4064C40.3761 37.7245 40.7591 36.7997 40.7591 35.8354C40.7591 34.871 40.3761 33.9462 39.6942 33.2643C39.0123 32.5825 38.0875 32.1994 37.1231 32.1994H24.0331C22.3171 32.1694 20.6815 31.4666 19.4786 30.2425C18.2756 29.0183 17.6016 27.3707 17.6016 25.6544C17.6016 23.9381 18.2756 22.2904 19.4786 21.0663C20.6815 19.8421 22.3171 19.1394 24.0331 19.1094H29.8511C30.237 19.1094 30.6071 19.2627 30.88 19.5355C31.1529 19.8084 31.3061 20.1785 31.3061 20.5644C31.3061 20.9503 31.1529 21.3204 30.88 21.5932C30.6071 21.8661 30.237 22.0194 29.8511 22.0194H24.0331C23.0688 22.0194 22.144 22.4025 21.4621 23.0843C20.7802 23.7662 20.3971 24.691 20.3971 25.6554C20.3971 26.6197 20.7802 27.5445 21.4621 28.2264C22.144 28.9083 23.0688 29.2914 24.0331 29.2914H37.1231C38.8392 29.3214 40.4748 30.0241 41.6777 31.2483C42.8807 32.4724 43.5547 34.1201 43.5547 35.8364C43.5547 37.5527 42.8807 39.2003 41.6777 40.4245C40.4748 41.6486 38.8392 42.3514 37.1231 42.3814Z" fill="#F6EFE9"/>
</g>
</svg>
