<svg width="61" height="61" viewBox="0 0 61 61" fill="none" xmlns="http://www.w3.org/2000/svg">
<circle cx="30.6719" cy="30.75" r="30" fill="#F6EFE9"/>
<mask id="mask0_428_21421" style="mask-type:alpha" maskUnits="userSpaceOnUse" x="10" y="10" width="41" height="41">
<rect x="10.6719" y="10.75" width="40" height="40" fill="#D9D9D9"/>
</mask>
<g mask="url(#mask0_428_21421)">
<path d="M38.6681 27.841C38.3381 27.8413 38.0179 27.7291 37.7601 27.523C36.588 26.5843 35.6145 25.4216 34.8965 24.1026C34.1785 22.7837 33.7303 21.335 33.5781 19.841C33.5781 18.4908 34.1145 17.1959 35.0692 16.2411C36.024 15.2864 37.3189 14.75 38.6691 14.75C40.0193 14.75 41.3143 15.2864 42.269 16.2411C43.2238 17.1959 43.7601 18.4908 43.7601 19.841C43.608 21.335 43.1598 22.7837 42.4418 24.1026C41.7238 25.4216 40.7503 26.5843 39.5781 27.523C39.3204 27.7291 39.0001 27.8413 38.6701 27.841H38.6681ZM38.6681 17.659C38.0896 17.6595 37.5349 17.8896 37.1258 18.2987C36.7167 18.7078 36.4867 19.2625 36.4861 19.841C36.6482 21.5646 37.4223 23.173 38.6681 24.375C39.9144 23.1725 40.6885 21.5633 40.8501 19.839C40.8496 19.2605 40.6195 18.7058 40.2104 18.2967C39.8014 17.8876 39.2467 17.6575 38.6681 17.657V17.659Z" fill="#8F4300" fill-opacity="0.5"/>
<path d="M22.6681 46.7472C22.3381 46.7475 22.0179 46.6354 21.7601 46.4293C20.588 45.4905 19.6145 44.3278 18.8965 43.0089C18.1785 41.6899 17.7303 40.2412 17.5781 38.7473C17.5781 37.397 18.1145 36.1021 19.0692 35.1474C20.024 34.1926 21.3189 33.6562 22.6691 33.6562C24.0193 33.6562 25.3143 34.1926 26.269 35.1474C27.2238 36.1021 27.7601 37.397 27.7601 38.7473C27.608 40.2412 27.1598 41.6899 26.4418 43.0089C25.7238 44.3278 24.7503 45.4905 23.5781 46.4293C23.3204 46.6354 23.0001 46.7475 22.6701 46.7472H22.6681ZM22.6681 36.5652C22.0896 36.5658 21.5349 36.7958 21.1258 37.2049C20.7167 37.614 20.4867 38.1687 20.4861 38.7473C20.6454 40.475 21.4197 42.0882 22.6681 43.2933C23.9144 42.0908 24.6885 40.4815 24.8501 38.7573C24.8496 38.1787 24.6195 37.624 24.2104 37.2149C23.8014 36.8058 23.2467 36.5758 22.6681 36.5752V36.5652Z" fill="#8F4300" fill-opacity="0.5"/>
<path d="M37.2169 42.3814H30.6709C30.285 42.3814 29.9149 42.2281 29.6421 41.9552C29.3692 41.6823 29.2159 41.3123 29.2159 40.9264C29.2159 40.5405 29.3692 40.1704 29.6421 39.8975C29.9149 39.6247 30.285 39.4714 30.6709 39.4714H37.2169C38.1812 39.4714 39.1061 39.0883 39.7879 38.4064C40.4698 37.7245 40.8529 36.7997 40.8529 35.8354C40.8529 34.871 40.4698 33.9462 39.7879 33.2643C39.1061 32.5825 38.1812 32.1994 37.2169 32.1994H24.1269C22.4109 32.1694 20.7753 31.4666 19.5723 30.2425C18.3694 29.0183 17.6953 27.3707 17.6953 25.6544C17.6953 23.9381 18.3694 22.2904 19.5723 21.0663C20.7753 19.8421 22.4109 19.1394 24.1269 19.1094H29.9449C30.3308 19.1094 30.7009 19.2627 30.9737 19.5355C31.2466 19.8084 31.3999 20.1785 31.3999 20.5644C31.3999 20.9503 31.2466 21.3204 30.9737 21.5932C30.7009 21.8661 30.3308 22.0194 29.9449 22.0194H24.1269C23.1626 22.0194 22.2377 22.4025 21.5559 23.0843C20.874 23.7662 20.4909 24.691 20.4909 25.6554C20.4909 26.6197 20.874 27.5445 21.5559 28.2264C22.2377 28.9083 23.1626 29.2914 24.1269 29.2914H37.2169C38.9329 29.3214 40.5685 30.0241 41.7715 31.2483C42.9744 32.4724 43.6485 34.1201 43.6485 35.8364C43.6485 37.5527 42.9744 39.2003 41.7715 40.4245C40.5685 41.6486 38.9329 42.3514 37.2169 42.3814Z" fill="#8F4300" fill-opacity="0.5"/>
</g>
</svg>
