<svg width="31" height="41" viewBox="0 0 31 41" fill="none" xmlns="http://www.w3.org/2000/svg">
<g clip-path="url(#clip0_2601_872)">
<path d="M13.8411 39.4656C2.48948 23.0023 0.382812 21.314 0.382812 15.2656C0.382812 6.98063 7.09781 0.265625 15.3828 0.265625C23.6678 0.265625 30.3828 6.98063 30.3828 15.2656C30.3828 21.314 28.2761 22.999 16.9245 39.459C16.7521 39.7072 16.5223 39.9102 16.2546 40.0506C15.9869 40.1909 15.6893 40.2646 15.3871 40.2653C15.0848 40.2659 14.7869 40.1936 14.5186 40.0543C14.2503 39.9151 14.0196 39.7131 13.8461 39.4656L13.8428 39.459L13.8411 39.4656Z" fill="#9C4900"/>
<path d="M15.3802 9.1237L8.71354 11.7904V20.6654H10.3802V15.6654C10.3802 15.207 10.5435 14.8145 10.8702 14.4879C11.1969 14.1612 11.5891 13.9981 12.0469 13.9987H18.7135C19.1719 13.9987 19.5644 14.162 19.891 14.4887C20.2177 14.8154 20.3808 15.2076 20.3802 15.6654V20.6654H22.0469V11.7904L15.3802 9.1237ZM12.0469 22.332H8.71354C8.25521 22.332 7.86271 22.1687 7.53604 21.842C7.20938 21.5154 7.04632 21.1231 7.04688 20.6654V11.7904C7.04688 11.4431 7.14077 11.1306 7.32854 10.8529C7.51632 10.5751 7.76965 10.3737 8.08854 10.2487L14.7552 7.58203C14.9497 7.4987 15.158 7.45703 15.3802 7.45703C15.6024 7.45703 15.8108 7.4987 16.0052 7.58203L22.6719 10.2487C22.9913 10.3737 23.2449 10.5751 23.4327 10.8529C23.6205 11.1306 23.7141 11.4431 23.7135 11.7904V20.6654C23.7135 21.1237 23.5502 21.5162 23.2235 21.8429C22.8969 22.1695 22.5047 22.3326 22.0469 22.332H18.7135V15.6654H12.0469V22.332ZM12.8802 22.332V20.6654H14.5469V22.332H12.8802ZM14.5469 19.832V18.1654H16.2135V19.832H14.5469ZM16.2135 22.332V20.6654H17.8802V22.332H16.2135Z" fill="white"/>
</g>
<defs>
<clipPath id="clip0_2601_872">
<rect width="30" height="40" fill="white" transform="translate(0.382812 0.265625)"/>
</clipPath>
</defs>
</svg>
