<svg width="25" height="25" viewBox="0 0 25 25" fill="none" xmlns="http://www.w3.org/2000/svg">
<g clip-path="url(#clip0_428_18629)">
<path d="M11.6749 0.606571C11.7882 0.541853 11.9164 0.507813 12.0469 0.507812C12.1774 0.507812 12.3056 0.541853 12.4189 0.606571L18.0439 3.82107C18.1587 3.88664 18.2541 3.98139 18.3205 4.09571C18.3868 4.21003 18.4218 4.33987 18.4219 4.47207V10.4646L23.6689 13.4646C23.7832 13.5299 23.8784 13.6242 23.9447 13.7379C24.0111 13.8517 24.0463 13.9809 24.0469 14.1126V20.5416C24.0468 20.6738 24.0118 20.8036 23.9455 20.9179C23.8791 21.0323 23.7837 21.127 23.6689 21.1926L18.0439 24.4071C17.9306 24.4718 17.8024 24.5058 17.6719 24.5058C17.5414 24.5058 17.4132 24.4718 17.2999 24.4071L12.0469 21.4071L6.79388 24.4086C6.68058 24.4733 6.55235 24.5073 6.42188 24.5073C6.2914 24.5073 6.16317 24.4733 6.04987 24.4086L0.424875 21.1941C0.310084 21.1285 0.214665 21.0338 0.148283 20.9194C0.0819019 20.8051 0.0469176 20.6753 0.046875 20.5431L0.046875 14.1141C0.0469176 13.9819 0.0819019 13.852 0.148283 13.7377C0.214665 13.6234 0.310084 13.5286 0.424875 13.4631L5.67188 10.4646V4.47207C5.67192 4.33987 5.7069 4.21003 5.77328 4.09571C5.83966 3.98139 5.93508 3.88664 6.04987 3.82107L11.6749 0.606571ZM6.42188 11.7636L2.30888 14.1141L6.42188 16.4646L10.5349 14.1141L6.42188 11.7636ZM11.2969 15.4071L7.17188 17.7636V22.4646L11.2969 20.1081V15.4071ZM12.7969 20.1081L16.9219 22.4646V17.7636L12.7969 15.4071V20.1081ZM13.5589 14.1141L17.6719 16.4646L21.7849 14.1141L17.6719 11.7636L13.5589 14.1141ZM16.9219 10.4646V5.76357L12.7969 8.12157V12.8226L16.9219 10.4646ZM11.2969 12.8226V8.12157L7.17188 5.76357V10.4646L11.2969 12.8226ZM7.93388 4.47207L12.0469 6.82257L16.1599 4.47207L12.0469 2.12157L7.93388 4.47207ZM22.5469 15.4071L18.4219 17.7636V22.4646L22.5469 20.1081V15.4071ZM5.67188 22.4646V17.7636L1.54688 15.4071V20.1081L5.67188 22.4646Z" fill="#9C4900" fill-opacity="0.5"/>
</g>
<defs>
<clipPath id="clip0_428_18629">
<rect width="24" height="24" fill="white" transform="translate(0.046875 0.507812)"/>
</clipPath>
</defs>
</svg>
