<svg width="13" height="16" viewBox="0 0 13 16" fill="none" xmlns="http://www.w3.org/2000/svg">
<path d="M7.65365 15.8802C6.52112 15.8802 5.48756 15.564 4.55295 14.9315C3.61835 14.2995 2.94213 13.4557 2.52431 12.4002L0.842014 8.16146C0.798032 8.0515 0.767905 7.94969 0.751632 7.85601C0.734919 7.76277 0.726562 7.65567 0.726562 7.53472C0.726562 7.20486 0.853009 6.91348 1.1059 6.66059C1.3588 6.4077 1.65017 6.28125 1.98003 6.28125C2.057 6.28125 2.12583 6.28389 2.18653 6.28917C2.24678 6.29488 2.3099 6.30874 2.37587 6.33073L2.88715 6.46267C3.04109 6.50666 3.18403 6.56427 3.31597 6.63552C3.44792 6.70721 3.57436 6.79803 3.69531 6.90799V3.01562C3.69531 2.55382 3.85475 2.16348 4.17361 1.84462C4.49248 1.52575 4.88281 1.36632 5.34462 1.36632C5.41059 1.36632 5.47392 1.36896 5.53462 1.37424C5.59487 1.37995 5.65249 1.38831 5.70747 1.39931C5.77344 0.981481 5.96322 0.65162 6.27681 0.409722C6.58995 0.167824 6.93895 0.046875 7.32378 0.046875C7.67564 0.046875 7.989 0.143194 8.26389 0.335833C8.53877 0.528032 8.73669 0.783565 8.85764 1.10243C8.93461 1.08044 9.00893 1.06395 9.08062 1.05295C9.15187 1.04196 9.22598 1.03646 9.30295 1.03646C9.76476 1.03646 10.1551 1.19589 10.474 1.51476C10.7928 1.83362 10.9523 2.22396 10.9523 2.68576V3.04861C11.0072 3.03762 11.0622 3.02926 11.1172 3.02354C11.1722 3.01826 11.2271 3.01562 11.2821 3.01562C11.7439 3.01562 12.1343 3.17506 12.4531 3.49392C12.772 3.81279 12.9314 4.20312 12.9314 4.66493V10.6024C12.9314 12.0758 12.4201 13.3238 11.3976 14.3464C10.375 15.3689 9.12703 15.8802 7.65365 15.8802ZM7.65365 14.5608C8.75318 14.5608 9.68779 14.1759 10.4575 13.4062C11.2271 12.6366 11.612 11.702 11.612 10.6024V4.66493C11.612 4.57697 11.579 4.5 11.513 4.43403C11.447 4.36806 11.3701 4.33507 11.2821 4.33507C11.1942 4.33507 11.1172 4.36806 11.0512 4.43403C10.9852 4.5 10.9523 4.57697 10.9523 4.66493V7.96354H9.63281V2.68576C9.63281 2.5978 9.59983 2.52083 9.53385 2.45486C9.46788 2.38889 9.39091 2.3559 9.30295 2.3559C9.21499 2.3559 9.13802 2.38889 9.07205 2.45486C9.00608 2.52083 8.97309 2.5978 8.97309 2.68576V7.96354H7.65365V1.69618C7.65365 1.60822 7.62066 1.53125 7.55469 1.46528C7.48872 1.39931 7.41175 1.36632 7.32378 1.36632C7.23582 1.36632 7.15885 1.39931 7.09288 1.46528C7.02691 1.53125 6.99392 1.60822 6.99392 1.69618V7.96354H5.67448V3.01562C5.67448 2.92766 5.64149 2.85069 5.57552 2.78472C5.50955 2.71875 5.43258 2.68576 5.34462 2.68576C5.25666 2.68576 5.17969 2.71875 5.11372 2.78472C5.04774 2.85069 5.01476 2.92766 5.01476 3.01562V9.94271H3.69531L3.05208 8.2934C2.97512 8.10648 2.86802 7.96904 2.7308 7.88108C2.59314 7.79311 2.36487 7.69965 2.04601 7.60069L3.76128 11.9219C4.08015 12.7135 4.59429 13.3513 5.30372 13.8351C6.0127 14.3189 6.79601 14.5608 7.65365 14.5608Z" fill="#F6EFE9"/>
</svg>
