<svg width="14" height="16" viewBox="0 0 14 16" fill="none" xmlns="http://www.w3.org/2000/svg">
<path d="M2.66408 15.4609C2.20575 15.4609 1.81352 15.2979 1.48741 14.9718C1.16074 14.6451 0.997403 14.2526 0.997403 13.7943V2.96094C0.76129 2.96094 0.563233 2.88122 0.403231 2.72177C0.243786 2.56177 0.164062 2.36372 0.164062 2.1276C0.164062 1.89149 0.243786 1.69344 0.403231 1.53344C0.563233 1.37399 0.76129 1.29427 0.997403 1.29427H4.33076C4.33076 1.05816 4.41077 0.860104 4.57077 0.700104C4.73021 0.54066 4.92799 0.460938 5.16411 0.460938H8.49747C8.73358 0.460938 8.93164 0.54066 9.09164 0.700104C9.25109 0.860104 9.33081 1.05816 9.33081 1.29427H12.6642C12.9003 1.29427 13.0981 1.37399 13.2575 1.53344C13.4175 1.69344 13.4975 1.89149 13.4975 2.1276C13.4975 2.36372 13.4175 2.56177 13.2575 2.72177C13.0981 2.88122 12.9003 2.96094 12.6642 2.96094V13.7943C12.6642 14.2526 12.5011 14.6451 12.175 14.9718C11.8483 15.2979 11.4558 15.4609 10.9975 15.4609H2.66408ZM2.66408 2.96094V13.7943H10.9975V2.96094H2.66408ZM4.33076 11.2943C4.33076 11.5304 4.41077 11.7282 4.57077 11.8876C4.73021 12.0476 4.92799 12.1276 5.16411 12.1276C5.40022 12.1276 5.59828 12.0476 5.75828 11.8876C5.91772 11.7282 5.99745 11.5304 5.99745 11.2943V5.46094C5.99745 5.22483 5.91772 5.02677 5.75828 4.86677C5.59828 4.70733 5.40022 4.6276 5.16411 4.6276C4.92799 4.6276 4.73021 4.70733 4.57077 4.86677C4.41077 5.02677 4.33076 5.22483 4.33076 5.46094V11.2943ZM7.66413 11.2943C7.66413 11.5304 7.74413 11.7282 7.90413 11.8876C8.06357 12.0476 8.26135 12.1276 8.49747 12.1276C8.73358 12.1276 8.93164 12.0476 9.09164 11.8876C9.25109 11.7282 9.33081 11.5304 9.33081 11.2943V5.46094C9.33081 5.22483 9.25109 5.02677 9.09164 4.86677C8.93164 4.70733 8.73358 4.6276 8.49747 4.6276C8.26135 4.6276 8.06357 4.70733 7.90413 4.86677C7.74413 5.02677 7.66413 5.22483 7.66413 5.46094V11.2943Z" fill="#F6EFE9"/>
</svg>
