<svg width="25" height="25" viewBox="0 0 25 25" fill="none" xmlns="http://www.w3.org/2000/svg">
<rect x="0.1875" y="0.25" width="24" height="24" rx="4.78" fill="#FF0000"/>
<path d="M16.3573 16.9032C16.1412 17.1192 15.8482 17.2406 15.5427 17.2406C15.2372 17.2406 14.9442 17.1192 14.7281 16.9032L12.1832 13.9944L9.63822 16.9022C9.53156 17.0106 9.4045 17.0969 9.26437 17.1559C9.12423 17.215 8.97378 17.2457 8.82171 17.2463C8.66964 17.2469 8.51895 17.2174 8.37834 17.1595C8.23772 17.1016 8.10997 17.0164 8.00244 16.9089C7.8949 16.8014 7.80973 16.6736 7.75182 16.533C7.69391 16.3924 7.66441 16.2417 7.66503 16.0896C7.66565 15.9375 7.69637 15.7871 7.75543 15.647C7.81448 15.5068 7.90069 15.3798 8.0091 15.2731L10.6568 12.2491L8.00814 9.22319C7.89973 9.11654 7.81352 8.98948 7.75447 8.84934C7.69541 8.70921 7.66469 8.55876 7.66407 8.40669C7.66345 8.25462 7.69295 8.10393 7.75086 7.96332C7.80877 7.8227 7.89394 7.69494 8.00148 7.58741C8.10901 7.47988 8.23676 7.3947 8.37738 7.3368C8.51799 7.27889 8.66868 7.24939 8.82075 7.25001C8.97282 7.25063 9.12327 7.28135 9.26341 7.3404C9.40354 7.39946 9.5306 7.48567 9.63726 7.59407L12.1832 10.5038L14.7281 7.59407C14.8348 7.48567 14.9618 7.39946 15.102 7.3404C15.2421 7.28135 15.3926 7.25063 15.5446 7.25001C15.6967 7.24939 15.8474 7.27889 15.988 7.3368C16.1286 7.3947 16.2564 7.47988 16.3639 7.58741C16.4714 7.69494 16.5566 7.8227 16.6145 7.96332C16.6724 8.10393 16.7019 8.25462 16.7013 8.40669C16.7007 8.55876 16.67 8.70921 16.6109 8.84934C16.5519 8.98948 16.4657 9.11654 16.3573 9.22319L13.7096 12.2491L16.3573 15.2731C16.4644 15.3801 16.5493 15.5072 16.6073 15.647C16.6653 15.7869 16.6951 15.9368 16.6951 16.0882C16.6951 16.2395 16.6653 16.3895 16.6073 16.5293C16.5493 16.6692 16.4644 16.7962 16.3573 16.9032Z" fill="white"/>
</svg>
