<svg width="19" height="16" viewBox="0 0 19 16" fill="none" xmlns="http://www.w3.org/2000/svg">
<path d="M14.5982 13.807V14.759C14.5942 14.8553 14.5704 14.9497 14.5282 15.0363C14.486 15.1229 14.4264 15.1999 14.3531 15.2624C14.2797 15.3249 14.1943 15.3716 14.1021 15.3996C14.0099 15.4276 13.9129 15.4362 13.8172 15.425H1.38324C1.29237 15.4356 1.20027 15.4258 1.11365 15.3964C1.02702 15.367 0.948042 15.3186 0.882445 15.2548C0.816848 15.191 0.766282 15.1135 0.734419 15.0277C0.702556 14.9419 0.690197 14.8501 0.698239 14.759V5.35901C0.689497 5.26127 0.700388 5.16277 0.730272 5.0693C0.760156 4.97583 0.808429 4.88928 0.872253 4.81474C0.936077 4.7402 1.01416 4.67918 1.10192 4.63526C1.18967 4.59135 1.28532 4.56542 1.38324 4.55901H3.61124C3.8132 4.55901 4.00689 4.63924 4.1497 4.78205C4.29251 4.92486 4.37274 5.11855 4.37274 5.32051C4.37274 5.52247 4.29251 5.71616 4.1497 5.85897C4.00689 6.00178 3.8132 6.08201 3.61124 6.08201H2.22124V13.906H13.0722V13.806C13.0722 13.604 13.1525 13.4104 13.2953 13.2675C13.4381 13.1247 13.6318 13.0445 13.8337 13.0445C14.0357 13.0445 14.2294 13.1247 14.3722 13.2675C14.515 13.4104 14.5952 13.604 14.5952 13.806L14.5982 13.807ZM17.9872 6.70701L13.2662 11.523C13.1593 11.6315 13.0225 11.7057 12.8733 11.7362C12.724 11.7666 12.5691 11.7519 12.4282 11.694C12.2829 11.6368 12.158 11.5373 12.0698 11.4085C11.9816 11.2796 11.934 11.1272 11.9332 10.971V8.89501C10.4102 8.85701 6.75524 9.00901 5.42224 11.351C5.35673 11.4708 5.26051 11.571 5.14347 11.6413C5.02642 11.7116 4.89277 11.7495 4.75624 11.751C4.69232 11.7541 4.62829 11.7477 4.56624 11.732C4.40283 11.6881 4.2584 11.5917 4.15521 11.4576C4.05203 11.3235 3.99581 11.1592 3.99524 10.99C4.05248 9.02576 4.83764 7.15287 6.19824 5.73501C7.73195 4.24266 9.78829 3.409 11.9282 3.41201V1.33701C11.93 1.18647 11.9761 1.03978 12.0608 0.915284C12.1454 0.790787 12.2649 0.693997 12.4042 0.637009C12.5481 0.578167 12.7061 0.563005 12.8585 0.593417C13.0109 0.623828 13.151 0.698466 13.2612 0.808009L18.0012 5.62401C18.1399 5.77107 18.2156 5.9664 18.2125 6.16846C18.2093 6.37052 18.1274 6.56338 17.9842 6.70601L17.9872 6.70701Z" fill="#9C4900"/>
</svg>
