<svg width="51" height="61" viewBox="0 0 51 61" fill="none" xmlns="http://www.w3.org/2000/svg">
<path d="M37.9532 13.8222C37.9532 7.65535 37.6075 5.11798 36.0452 3.51625C34.4828 1.91452 28.2558 0.790371 25.6205 0.790371C22.985 0.790371 16.7583 1.91452 15.1959 3.51625C13.6335 5.11798 13.2879 7.34347 13.2879 13.8222C13.2879 22.696 12.2372 55.9189 14.9287 58.149C17.6198 60.3794 22.9125 60.4688 25.6205 60.4688C28.3282 60.4688 33.6209 60.3794 36.3124 58.149C39.0039 55.9189 37.9532 22.696 37.9532 13.8222Z" fill="#D99C00"/>
<path d="M36.8968 15.2234C36.8968 9.25367 36.581 7.04704 35.1529 5.58289C33.7248 4.11874 28.0332 3.51913 25.6242 3.51913C23.2151 3.51913 17.5236 4.11874 16.0955 5.58289C14.6674 7.04704 14.3516 8.59386 14.3516 15.2234C14.3516 16.6032 14.5077 18.6802 14.9151 20.7287C15.6768 22.4667 16.0862 25.3404 16.371 28.1391C16.0456 28.5951 15.8541 29.4954 15.8541 30.4479C15.4235 31.749 15.7449 34.498 15.8541 36.1947C15.86 36.2876 15.8481 36.5826 15.8541 36.6752C15.8541 36.6752 15.5968 42.5338 15.8541 45.1201C15.9163 45.7459 16.0585 46.6117 16.1673 46.8062C16.2569 47.6006 15.1847 50.9158 15.2961 51.526C15.5204 52.7511 15.5065 55.5477 15.8511 55.8331C18.3111 57.8718 23.149 57.9531 25.6242 57.9531C28.0994 57.9531 32.937 57.8718 35.3973 55.8331C35.7419 55.5477 35.728 52.7511 35.9519 51.526C36.0637 50.9158 34.9915 47.6006 35.0811 46.8062C35.2488 46.3471 35.3321 45.7459 35.3943 45.1201C35.6516 42.5338 35.3943 36.6752 35.3943 36.6752C35.4003 36.5826 35.3884 36.2876 35.3943 36.1947C35.5034 34.498 35.8249 31.749 35.3943 30.4479C35.3943 29.4954 35.2028 28.5951 34.8774 28.1391C35.1618 25.3404 35.5713 22.4667 36.3333 20.7287C36.7407 18.6802 36.8968 16.6032 36.8968 15.2234Z" fill="#F6A300"/>
<path d="M15.856 36.1953V30.1625L14.2153 21.3197C13.8875 24.4924 13.863 30.6506 13.9262 36.1953H15.856Z" fill="#262A35"/>
<path d="M13.9297 36.6742C14.0011 42.4736 14.1629 47.4766 14.1629 47.4766L15.8539 45.1191V36.6742H13.9297Z" fill="#262A35"/>
<path d="M25.6231 17.4572C25.6231 17.4572 19.4643 17.3784 14.9141 20.7225L16.3699 28.1328C16.3699 28.1328 18.8739 25.9936 25.6231 25.9936C32.3723 25.9936 34.8763 28.1328 34.8763 28.1328L36.3322 20.7225C31.782 17.3784 25.6231 17.4572 25.6231 17.4572Z" fill="#262A35"/>
<path d="M35.3906 36.1953V30.1625L37.0314 21.3197C37.3588 24.4924 37.3833 30.6506 37.3204 36.1953H35.3906Z" fill="#353F4B"/>
<path d="M37.3148 36.6742C37.2431 42.4736 37.0816 47.4766 37.0816 47.4766L35.3906 45.1191V36.6742H37.3148Z" fill="#353F4B"/>
<path d="M35.0776 46.8016C32.7823 47.4307 18.4587 47.4307 16.1638 46.8016C16.1638 46.8016 15.0829 49.6578 15.2926 51.5215C16.8464 52.4687 20.1372 53.6719 25.6207 53.6719C31.1042 53.6719 34.3946 52.4687 35.9484 51.5215C36.1584 49.6578 35.0776 46.8016 35.0776 46.8016Z" fill="#262A35"/>
<path d="M13.6439 22.9766L11.0876 23.6073C10.8565 23.6645 10.6382 23.4644 10.6762 23.2237C10.7506 22.7554 11.0202 22.0833 11.9294 21.8237C13.3859 21.408 13.6439 22.9766 13.6439 22.9766Z" fill="#F6A300"/>
<path d="M37.6016 22.9766L40.1578 23.6073C40.389 23.6645 40.6072 23.4644 40.5692 23.2237C40.4948 22.7554 40.2253 22.0833 39.3157 21.8237C37.8595 21.408 37.6016 22.9766 37.6016 22.9766Z" fill="#F6A300"/>
<path d="M34.8782 28.1328L36.3341 20.7225C31.7839 17.3784 25.625 17.4572 25.625 17.4572V25.9936C32.3742 25.9936 34.8782 28.1328 34.8782 28.1328Z" fill="#353F4B"/>
<path d="M35.0819 46.8016C35.0042 46.8228 34.9205 46.8413 34.8326 46.8585C34.8091 46.8631 34.7786 46.8674 34.7538 46.8717C34.7022 46.881 34.6516 46.8906 34.5967 46.8985C33.0215 47.1482 29.3262 47.2732 25.625 47.2732V53.6719C31.1085 53.6719 34.399 52.4687 35.9527 51.5215C36.1627 49.6578 35.0819 46.8016 35.0819 46.8016Z" fill="#353F4B"/>
<path d="M28.1883 59.7487C26.4794 59.8853 24.7669 59.8853 23.0576 59.7487C22.8192 59.7296 22.59 60.008 22.5391 60.3831C23.7108 60.4598 24.7897 60.4688 25.6231 60.4688C26.4562 60.4688 27.5354 60.4598 28.7072 60.3831C28.6559 60.008 28.4271 59.7296 28.1883 59.7487Z" fill="#262A35"/>
<path d="M19.3754 59.7298C19.3761 59.7264 19.3767 59.7235 19.3774 59.7202C19.433 59.4619 19.2752 59.2092 19.0238 59.148C18.2767 58.9664 17.5349 58.7534 16.8 58.509C16.5546 58.4277 16.2913 58.5593 16.2077 58.8097C16.2067 58.8126 16.2057 58.8156 16.2047 58.8189C16.1895 58.8642 16.1892 58.9099 16.1875 58.9555C17.1003 59.4172 18.1537 59.738 19.2438 59.9609C19.305 59.8974 19.3556 59.8227 19.3754 59.7298Z" fill="#DF2C3A"/>
<path d="M35.0323 58.8097C34.949 58.5593 34.6857 58.4277 34.44 58.509C33.7054 58.7534 32.9636 58.9664 32.2161 59.148C31.9651 59.2092 31.8073 59.4619 31.8626 59.7202C31.8632 59.7235 31.8642 59.7264 31.8649 59.7298C31.8847 59.8227 31.9353 59.8974 31.9962 59.9609C33.0866 59.738 34.14 59.4172 35.0528 58.9555C35.0508 58.9099 35.0505 58.8642 35.0356 58.8189C35.0346 58.8156 35.0333 58.8126 35.0323 58.8097Z" fill="#DF2C3A"/>
<path d="M31.5276 2.18177C31.8468 2.25089 32.1703 2.04816 32.2467 1.73099C32.2473 1.72834 32.248 1.72537 32.2486 1.72272C32.2784 1.59804 32.205 1.47071 32.081 1.43797C29.7787 0.830414 27.1217 0.46693 25.6238 0.46693C24.1259 0.46693 21.4688 0.830414 19.1666 1.43797C19.0426 1.47071 18.9688 1.59803 18.9989 1.72304C18.9996 1.72569 19.0002 1.72868 19.0012 1.73165C19.0773 2.04849 19.4011 2.25089 19.7196 2.18177C21.6563 1.76009 23.6529 1.33312 25.6238 1.33146C27.6118 1.32948 29.574 1.75645 31.5276 2.18177Z" fill="#262A35"/>
<path d="M29.9715 13.4307C29.9215 13.6791 29.689 13.862 29.4244 13.862H21.813C21.5484 13.862 21.3159 13.6791 21.266 13.4307L20.2734 8.50021L21.097 14.0251C21.1376 14.2979 21.3718 14.5 21.6476 14.5H29.5895C29.8653 14.5 30.0998 14.2979 30.1405 14.0251L30.9636 8.50021L29.9715 13.4307Z" fill="#D99C00"/>
<path d="M15.6761 3.59304C15.5521 3.64265 15.4284 3.69225 15.3047 3.74219C16.2724 3.35259 17.2418 2.9653 18.2125 2.58033C18.4258 2.49567 18.5303 2.25424 18.4453 2.04125C18.4443 2.0386 18.4433 2.03629 18.4423 2.03364C18.4331 2.01016 18.4155 1.99361 18.4026 1.97278C17.2113 2.32997 16.1735 2.75462 15.5293 3.22823C15.5782 3.34994 15.6271 3.47133 15.6761 3.59304Z" fill="white"/>
<path d="M15.3061 3.74366C15.4297 3.69372 15.5534 3.64411 15.6775 3.5945C15.6285 3.47279 15.5796 3.35141 15.5306 3.2297C15.4036 3.3233 15.2912 3.41855 15.1966 3.51545C15.1251 3.58855 15.0587 3.66495 14.9922 3.74135C15.0891 3.78136 15.2012 3.78599 15.3061 3.74366Z" fill="#DA7400"/>
<path d="M33.075 2.49929C34.0252 2.93221 34.9741 3.36746 35.921 3.80469C35.7999 3.74879 35.6789 3.6929 35.5578 3.63734C35.618 3.50637 35.6786 3.37573 35.7387 3.24509C35.1001 2.76686 34.0603 2.33822 32.8627 1.97772C32.7873 2.1798 32.8753 2.408 33.075 2.49929Z" fill="white"/>
<path d="M35.7356 3.24846C35.6754 3.3791 35.6149 3.50973 35.5547 3.6407C35.6757 3.69626 35.7968 3.75216 35.9178 3.80805C36.0428 3.8656 36.1781 3.84973 36.2899 3.78788C36.2118 3.69462 36.1318 3.60333 36.0468 3.51602C35.9582 3.42507 35.8527 3.3361 35.7356 3.24846Z" fill="#DA7400"/>
<path d="M13.0894 35.125H13.0848C12.9647 35.125 12.8672 35.0274 12.8672 34.9074V33.6109C12.8672 33.4905 12.9647 33.3933 13.0848 33.3933H13.0894C13.2095 33.3933 13.3071 33.4905 13.3071 33.6109V34.9074C13.3071 35.0274 13.2095 35.125 13.0894 35.125Z" fill="#262A35"/>
<path d="M13.0894 39.9453H13.0848C12.9647 39.9453 12.8672 39.8481 12.8672 39.7277V38.4312C12.8672 38.3112 12.9647 38.2136 13.0848 38.2136H13.0894C13.2095 38.2136 13.3071 38.3112 13.3071 38.4312V39.7277C13.3071 39.8481 13.2095 39.9453 13.0894 39.9453Z" fill="#262A35"/>
<path d="M38.1594 35.125H38.1551C38.0347 35.125 37.9375 35.0274 37.9375 34.9074V33.6109C37.9375 33.4905 38.0347 33.3933 38.1551 33.3933H38.1594C38.2798 33.3933 38.377 33.4905 38.377 33.6109V34.9074C38.377 35.0274 38.2798 35.125 38.1594 35.125Z" fill="#262A35"/>
<path d="M38.1594 39.9453H38.1551C38.0347 39.9453 37.9375 39.8481 37.9375 39.7277V38.4312C37.9375 38.3112 38.0347 38.2136 38.1551 38.2136H38.1594C38.2798 38.2136 38.377 38.3112 38.377 38.4312V39.7277C38.377 39.8481 38.2798 39.9453 38.1594 39.9453Z" fill="#262A35"/>
<circle opacity="0.8" cx="25.7031" cy="30.9375" r="25" fill="#686767"/>
<path d="M25.7031 20.9375C21.8431 20.9375 18.7031 24.0775 18.7031 27.9375C18.7031 33.1875 25.7031 40.9375 25.7031 40.9375C25.7031 40.9375 32.7031 33.1875 32.7031 27.9375C32.7031 24.0775 29.5631 20.9375 25.7031 20.9375ZM26.5831 34.6875H24.8331V32.9375H26.5831V34.6875ZM26.5831 31.8175H24.8331C24.8331 28.9775 27.4531 29.1975 27.4531 27.4375C27.4531 26.4775 26.6631 25.6875 25.7031 25.6875C24.7431 25.6875 23.9531 26.4775 23.9531 27.4375H22.2031C22.2031 25.5075 23.7731 23.9375 25.7031 23.9375C27.6331 23.9375 29.2031 25.5075 29.2031 27.4375C29.2031 29.6275 26.5831 29.8475 26.5831 31.8175Z" fill="#F6EFE9"/>
</svg>
