<svg width="100" height="50" viewBox="0 0 32 61" fill="none" xmlns="http://www.w3.org/2000/svg">
<path d="M29.1275 13.1678C29.1275 7.33731 28.8008 4.93831 27.3236 3.42393C25.8464 1.90956 19.959 0.84671 17.4675 0.84671C14.9756 0.84671 9.08853 1.90956 7.61136 3.42393C6.13419 4.93831 5.80743 7.04243 5.80743 13.1678C5.80743 21.5577 4.814 52.9688 7.3587 55.0773C9.9031 57.1861 14.9071 57.2705 17.4675 57.2705C20.0275 57.2705 25.0316 57.1861 27.5763 55.0773C30.121 52.9688 29.1275 21.5577 29.1275 13.1678Z" fill="#D99C00"/>
<path d="M28.1253 14.4902C28.1253 8.84604 27.8267 6.75975 26.4765 5.37545C25.1263 3.99115 19.7451 3.42424 17.4674 3.42424C15.1898 3.42424 9.80863 3.99115 8.45841 5.37545C7.1082 6.75975 6.80957 8.22221 6.80957 14.4902C6.80957 15.7947 6.95716 17.7585 7.3424 19.6953C8.06254 21.3385 8.44965 24.0555 8.71888 26.7015C8.41119 27.1327 8.23015 27.9839 8.23015 28.8844C7.82302 30.1146 8.12696 32.7137 8.23015 34.3178C8.23577 34.4057 8.22452 34.6846 8.23015 34.7721C8.23015 34.7721 7.98687 40.3112 8.23015 42.7565C8.28893 43.3481 8.42339 44.1667 8.52627 44.3506C8.61101 45.1017 7.59725 48.2361 7.70263 48.8131C7.91463 49.9713 7.9015 52.6154 8.22733 52.8853C10.5531 54.8127 15.1272 54.8896 17.4674 54.8896C19.8076 54.8896 24.3814 54.8127 26.7076 52.8853C27.0334 52.6154 27.0203 49.9713 27.2319 48.8131C27.3376 48.2361 26.3239 45.1017 26.4086 44.3506C26.5672 43.9166 26.646 43.3481 26.7047 42.7565C26.948 40.3112 26.7047 34.7721 26.7047 34.7721C26.7104 34.6846 26.6991 34.4057 26.7047 34.3178C26.8079 32.7137 27.1119 30.1146 26.7047 28.8844C26.7047 27.9839 26.5237 27.1327 26.216 26.7015C26.4849 24.0555 26.872 21.3385 27.5925 19.6953C27.9777 17.7585 28.1253 15.7947 28.1253 14.4902Z" fill="#F6A300"/>
<path d="M8.23021 34.3174V28.6135L6.67893 20.253C6.36905 23.2527 6.34591 29.0751 6.40564 34.3174H8.23021Z" fill="#262A35"/>
<path d="M6.41089 34.7721C6.47843 40.2552 6.63134 44.9854 6.63134 44.9854L8.23015 42.7565V34.7721H6.41089Z" fill="#262A35"/>
<path d="M17.4673 16.6077C17.4673 16.6077 11.6443 16.5333 7.34229 19.695L8.71877 26.7012C8.71877 26.7012 11.0862 24.6787 17.4673 24.6787C23.8485 24.6787 26.2159 26.7012 26.2159 26.7012L27.5924 19.695C23.2903 16.5333 17.4673 16.6077 17.4673 16.6077Z" fill="#262A35"/>
<path d="M26.7046 34.3174V28.6135L28.2559 20.253C28.5654 23.2527 28.5886 29.0751 28.5292 34.3174H26.7046Z" fill="#353F4B"/>
<path d="M28.5239 34.7721C28.456 40.2552 28.3034 44.9854 28.3034 44.9854L26.7046 42.7565V34.7721H28.5239Z" fill="#353F4B"/>
<path d="M26.4085 44.3511C24.2384 44.9458 10.6959 44.9458 8.52616 44.3511C8.52616 44.3511 7.50427 47.0515 7.70252 48.8135C9.17156 49.7091 12.2829 50.8467 17.4673 50.8467C22.6518 50.8467 25.7628 49.7091 27.2318 48.8135C27.4304 47.0515 26.4085 44.3511 26.4085 44.3511Z" fill="#262A35"/>
<path d="M6.13852 21.826L3.7217 22.4223C3.50313 22.4764 3.29675 22.2872 3.33271 22.0596C3.40307 21.6168 3.65792 20.9814 4.51752 20.736C5.89462 20.3429 6.13852 21.826 6.13852 21.826Z" fill="#F6A300"/>
<path d="M28.7961 21.826L31.213 22.4223C31.4315 22.4764 31.6379 22.2872 31.6019 22.0596C31.5316 21.6168 31.2767 20.9814 30.4168 20.736C29.04 20.3429 28.7961 21.826 28.7961 21.826Z" fill="#F6A300"/>
<path d="M26.2161 26.7012L27.5926 19.695C23.2905 16.5333 17.4675 16.6077 17.4675 16.6077V24.6787C23.8487 24.6787 26.2161 26.7012 26.2161 26.7012Z" fill="#353F4B"/>
<path d="M26.4087 44.3511C26.3352 44.3711 26.2561 44.3886 26.1729 44.4049C26.1507 44.4092 26.122 44.4133 26.0985 44.4174C26.0497 44.4261 26.0019 44.4352 25.95 44.4427C24.4606 44.6788 20.9669 44.797 17.4675 44.797V50.8467C22.652 50.8467 25.763 49.7091 27.232 48.8135C27.4306 47.0515 26.4087 44.3511 26.4087 44.3511Z" fill="#353F4B"/>
<path d="M19.8926 56.5898C18.277 56.7189 16.6578 56.7189 15.0418 56.5898C14.8164 56.5716 14.5997 56.8349 14.5515 57.1895C15.6594 57.2621 16.6794 57.2705 17.4674 57.2705C18.2551 57.2705 19.2754 57.2621 20.3833 57.1895C20.3348 56.8349 20.1184 56.5716 19.8926 56.5898Z" fill="#262A35"/>
<path d="M11.5643 56.5724C11.565 56.5693 11.5656 56.5665 11.5662 56.5634C11.6188 56.3192 11.4696 56.0803 11.232 56.0224C10.5256 55.8507 9.82421 55.6494 9.1294 55.4183C8.89738 55.3414 8.64847 55.4658 8.56936 55.7025C8.56842 55.7053 8.56749 55.7082 8.56655 55.7113C8.55217 55.7541 8.55186 55.7973 8.55029 55.8404C9.41333 56.2769 10.4093 56.5803 11.4399 56.791C11.4977 56.731 11.5456 56.6603 11.5643 56.5724Z" fill="#DF2C3A"/>
<path d="M26.3652 55.7025C26.2864 55.4658 26.0375 55.3414 25.8052 55.4183C25.1107 55.6494 24.4093 55.8507 23.7026 56.0224C23.4653 56.0803 23.3161 56.3192 23.3683 56.5634C23.369 56.5665 23.3699 56.5693 23.3705 56.5724C23.3893 56.6603 23.4371 56.731 23.4947 56.791C24.5256 56.5803 25.5215 56.2769 26.3846 55.8404C26.3827 55.7973 26.3824 55.7541 26.3683 55.7113C26.3674 55.7082 26.3661 55.7053 26.3652 55.7025Z" fill="#DF2C3A"/>
<path d="M23.0493 2.16396C23.3511 2.22931 23.6569 2.03763 23.7291 1.73776C23.7298 1.73526 23.7304 1.73244 23.731 1.72994C23.7592 1.61205 23.6897 1.49167 23.5725 1.46071C21.3958 0.886295 18.8836 0.542633 17.4674 0.542633C16.0512 0.542633 13.5391 0.886295 11.3624 1.46071C11.2451 1.49167 11.1754 1.61205 11.2039 1.73024C11.2045 1.73275 11.2051 1.73557 11.206 1.73838C11.278 2.03794 11.5841 2.22931 11.8852 2.16396C13.7164 1.76527 15.6041 1.36158 17.4674 1.36002C19.347 1.35814 21.2023 1.76183 23.0493 2.16396Z" fill="#262A35"/>
<path d="M21.5827 12.7996C21.5355 13.0344 21.3157 13.2074 21.0655 13.2074H13.8692C13.619 13.2074 13.3992 13.0344 13.352 12.7996L12.4136 8.13796L13.1922 13.3615C13.2306 13.6195 13.452 13.8105 13.7128 13.8105H21.2215C21.4823 13.8105 21.704 13.6195 21.7425 13.3615L22.5208 8.13796L21.5827 12.7996Z" fill="#D99C00"/>
<path d="M8.066 3.49863C7.94874 3.54553 7.83179 3.59243 7.71484 3.63965C8.62979 3.27129 9.54629 2.90513 10.464 2.54116C10.6657 2.46111 10.7645 2.23285 10.6842 2.03147C10.6832 2.02897 10.6823 2.02678 10.6814 2.02428C10.6726 2.00208 10.656 1.98643 10.6438 1.96673C9.51752 2.30444 8.53629 2.70594 7.92716 3.15372C7.97344 3.26879 8.01972 3.38356 8.066 3.49863Z" fill="white"/>
<path d="M7.71472 3.63981C7.83166 3.59259 7.94861 3.5457 8.06587 3.49879C8.01959 3.38372 7.97331 3.26895 7.92704 3.15388C7.80696 3.24238 7.70064 3.33244 7.61121 3.42406C7.54367 3.49316 7.48082 3.5654 7.41797 3.63763C7.50959 3.67546 7.61559 3.67984 7.71472 3.63981Z" fill="#DA7400"/>
<path d="M24.511 2.46598C25.4093 2.8753 26.3065 3.28681 27.2017 3.7002C27.0873 3.64735 26.9728 3.5945 26.8584 3.54197C26.9153 3.41814 26.9725 3.29463 27.0294 3.17112C26.4256 2.71896 25.4425 2.3137 24.3102 1.97286C24.2389 2.16392 24.3221 2.37968 24.511 2.46598Z" fill="white"/>
<path d="M27.0292 3.17155C26.9723 3.29506 26.9151 3.41857 26.8582 3.5424C26.9726 3.59493 27.087 3.64778 27.2015 3.70063C27.3197 3.75503 27.4476 3.74003 27.5533 3.68156C27.4795 3.59338 27.4038 3.50707 27.3234 3.42451C27.2396 3.33852 27.1399 3.25441 27.0292 3.17155Z" fill="#DA7400"/>
<path d="M5.61858 33.3076H5.61419C5.50069 33.3076 5.40845 33.2154 5.40845 33.1019V31.8761C5.40845 31.7623 5.50069 31.6704 5.61419 31.6704H5.61858C5.73208 31.6704 5.82433 31.7623 5.82433 31.8761V33.1019C5.82433 33.2154 5.73208 33.3076 5.61858 33.3076Z" fill="#262A35"/>
<path d="M5.61858 37.8643H5.61419C5.50069 37.8643 5.40845 37.7723 5.40845 37.6585V36.4328C5.40845 36.3192 5.50069 36.227 5.61419 36.227H5.61858C5.73208 36.227 5.82433 36.3192 5.82433 36.4328V37.6585C5.82433 37.7723 5.73208 37.8643 5.61858 37.8643Z" fill="#262A35"/>
<path d="M29.3204 33.3076H29.3164C29.2025 33.3076 29.1106 33.2154 29.1106 33.1019V31.8761C29.1106 31.7623 29.2025 31.6704 29.3164 31.6704H29.3204C29.4342 31.6704 29.5262 31.7623 29.5262 31.8761V33.1019C29.5262 33.2154 29.4342 33.3076 29.3204 33.3076Z" fill="#262A35"/>
<path d="M29.3204 37.8643H29.3164C29.2025 37.8643 29.1106 37.7723 29.1106 37.6585V36.4328C29.1106 36.3192 29.2025 36.227 29.3164 36.227H29.3204C29.4342 36.227 29.5262 36.3192 29.5262 36.4328V37.6585C29.5262 37.7723 29.4342 37.8643 29.3204 37.8643Z" fill="#262A35"/>
</svg>
