<svg width="31" height="51" viewBox="0 0 31 51" fill="none" xmlns="http://www.w3.org/2000/svg">
<path d="M10.1414 21.0201C10.5104 23.8545 11.8865 26.9951 13.772 28.6764C12.9353 29.0799 12.2888 29.6484 12.0354 30.2809L10.7653 33.4459C10.2639 34.6963 10.3082 36.7419 10.864 37.9917L13.2014 43.2471C13.1968 43.2883 13.1942 43.3295 13.1936 43.3714L13.1201 48.6705C13.1044 49.804 14.519 50.7511 16.2617 50.7753C18.0064 50.7995 19.4458 49.8919 19.4615 48.7585L19.535 43.4593C19.5356 43.4174 19.5341 43.3762 19.5306 43.3349L19.8942 42.5749L20.3203 48.6055C20.3777 49.1104 21.0581 49.4987 21.8343 49.4683C22.6095 49.4378 23.199 48.9997 23.1426 48.4947L21.6703 38.8634L22.0139 38.1463C22.6031 36.9124 22.7041 34.8688 22.2376 33.605L21.0568 30.406C20.82 29.7667 20.1885 29.1805 19.3643 28.7539C21.2957 27.1256 22.7583 24.0244 23.2059 21.2013L23.3022 20.4528C23.3287 20.1671 23.3449 19.8866 23.3487 19.6126C23.3766 17.6019 22.756 16.298 21.7153 15.4726L22.7314 15.4867C23.2064 15.4807 24.4511 15.5478 25.3021 15.8783C25.3067 15.9948 25.3777 16.1102 25.5147 16.1999L29.3272 18.7116C29.6101 18.8978 30.0696 18.9015 30.3536 18.7198C30.6355 18.5381 30.6356 18.2394 30.3536 18.0532L26.6648 15.6251C26.7864 15.5662 26.9603 15.5041 27.164 15.499C27.4179 15.4925 27.6747 15.5752 27.9242 15.7423L30.2981 17.4058C30.366 17.454 30.4806 17.4569 30.5539 17.4134C30.6262 17.3691 30.6303 17.2947 30.5613 17.2465L28.1864 15.5817C27.8558 15.3602 27.5052 15.2535 27.1407 15.2638C26.813 15.2732 26.5516 15.3774 26.3876 15.4656C26.2237 15.4028 26.0316 15.3855 25.8531 15.4123C24.579 14.8823 22.7918 14.8968 22.7222 14.8978L20.7124 14.8699C20.6687 14.8507 20.626 14.8315 20.5822 14.8136C21.1807 14.3143 21.5405 13.6873 21.55 13.0022C21.5665 11.8063 20.5074 11.129 18.96 10.8274L19.0011 7.86093C19.0067 7.45653 18.7437 7.08765 18.3215 6.82699L18.3567 4.29083C18.3639 3.77136 17.72 3.33998 16.9197 3.32888C16.1205 3.3178 15.4649 3.73115 15.4577 4.25062L15.4225 6.78679C14.9933 7.03563 14.7201 7.39707 14.7145 7.80148L14.6727 10.8126C13.2421 11.0954 12.268 11.7372 12.2522 12.8732C12.2431 13.5311 12.5591 14.1442 13.1007 14.648C13.0019 14.6832 12.9052 14.7204 12.8105 14.7603L11.0279 14.7356C10.9594 14.7327 9.17322 14.6687 7.88494 15.163C7.70627 15.1313 7.5137 15.1433 7.3481 15.2015C7.18768 15.1088 6.92823 14.9974 6.60097 14.9789C6.23791 14.9586 5.88346 15.0555 5.54788 15.2677L3.12663 16.866C3.05741 16.9123 3.05944 16.9868 3.13045 17.033C3.20248 17.0786 3.31609 17.0788 3.38633 17.0326L5.80449 15.4355C6.05952 15.2754 6.31849 15.1999 6.57213 15.2134C6.77566 15.2242 6.9477 15.2911 7.06761 15.3533L3.3129 17.6782C3.02487 17.8565 3.01663 18.1551 3.29547 18.3445C3.57225 18.534 4.03168 18.543 4.3197 18.3647L8.20141 15.9598C8.34078 15.8739 8.414 15.7605 8.42176 15.6442C9.28268 15.3374 10.5287 15.3048 11.0023 15.324L11.7903 15.335C10.7281 16.1312 10.0706 17.4173 10.0427 19.428C10.0389 19.7021 10.0473 19.9829 10.0668 20.2693L10.1414 21.0201Z" fill="#BEBBBC"/>
<path d="M20.7166 45.9073L18.3278 30.2833C18.2711 29.7786 18.2667 29.6826 17.491 29.7132C16.7145 29.7432 16.7315 29.8389 16.7872 30.3435L17.8943 46.0181C17.951 46.5228 18.632 46.9112 19.4076 46.8805C20.1842 46.8505 20.7733 46.4126 20.7166 45.9073Z" fill="#64676C"/>
<path d="M17.2445 30.3297L17.241 30.304C17.2308 30.2082 17.218 30.0942 17.2217 30.0304C17.2729 30.0236 17.3634 30.0148 17.5262 30.0083C17.688 30.0018 17.7803 30.0037 17.8313 30.0063C17.8497 30.0691 17.8635 30.1832 17.8737 30.279L17.8772 30.3091L20.2658 45.9331C20.3035 46.2689 19.9058 46.5649 19.378 46.5857C18.8513 46.606 18.3929 46.3456 18.3515 46.0041L17.2445 30.3297Z" fill="#7A7B81"/>
<path d="M15.8477 7.96547L15.9346 1.70309C15.9418 1.18343 15.298 0.75219 14.4985 0.741101C13.7001 0.730027 13.0446 1.14325 13.0374 1.66291L12.9506 7.92529C12.9434 8.44428 13.5871 8.8762 14.3856 8.88727C15.185 8.89836 15.8405 8.48446 15.8477 7.96547Z" fill="#152024"/>
<path d="M17.0416 46.1755L17.1151 40.8761C17.1309 39.7425 15.7172 38.7955 13.9731 38.7713C12.2291 38.7471 10.7897 39.6545 10.774 40.7881L10.7005 46.0876C10.6847 47.2206 12.0984 48.1682 13.8425 48.1924C15.5865 48.2166 17.0259 47.3085 17.0416 46.1755Z" fill="#E79900"/>
<path d="M16.0099 46.1585L16.0834 40.8592C16.0941 40.0909 15.1406 39.4528 13.9585 39.4364C12.7774 39.42 11.8066 40.0314 11.7959 40.7998L11.7224 46.0991C11.7118 46.8668 12.6653 47.5055 13.8464 47.5219C15.0285 47.5383 15.9993 46.9263 16.0099 46.1585Z" fill="#FFD47E"/>
<path d="M16.4943 11.5411L16.5811 5.27899C16.5918 4.51226 15.6363 3.87221 14.4567 3.85585C13.2781 3.83951 12.3043 4.45279 12.2937 5.21952L12.2068 11.4816C12.1962 12.2483 13.1526 12.8884 14.3312 12.9047C15.5108 12.9211 16.4836 12.3078 16.4943 11.5411Z" fill="#E79900"/>
<path d="M15.7932 11.5283L15.88 5.26571C15.8872 4.74645 15.2433 4.31509 14.4444 4.30401C13.6456 4.29293 12.9899 4.70627 12.9827 5.22553L12.8959 11.4881C12.8887 12.0073 13.5326 12.4387 14.3315 12.4498C15.1303 12.4609 15.786 12.0475 15.7932 11.5283Z" fill="#FFD47E"/>
<path d="M20.9248 17.0257C20.985 12.6834 18.0205 11.6381 14.3463 11.5871C10.6721 11.5361 7.68072 12.4988 7.6205 16.8412C7.56028 21.1828 10.4541 27.26 14.1282 27.311C17.8024 27.362 20.8646 21.3674 20.9248 17.0257Z" fill="#E79900"/>
<path d="M19.9013 17.0165C19.9265 15.1965 19.3882 13.8995 18.3022 13.1607C17.4352 12.5717 16.1763 12.2854 14.3412 12.26C11.4195 12.2194 8.70732 12.7488 8.6503 16.8605C8.58863 21.3069 11.5655 26.6126 14.1416 26.6483C16.7176 26.6841 19.8396 21.4629 19.9013 17.0165Z" fill="#FFD47E"/>
<path d="M17.0009 23.2619C18.1422 21.3525 18.8414 19.0116 18.8693 16.9989C18.8917 15.3844 18.4381 14.2139 17.558 13.6162C16.8955 13.1656 15.8685 12.9461 14.326 12.9247C11.9028 12.8911 9.72366 13.1675 9.67229 16.8714C9.64438 18.884 10.2775 21.2434 11.3663 23.1837C12.5006 25.2069 13.6732 25.9713 14.1449 25.9778C14.6176 25.9844 15.811 25.2529 17.0009 23.2619Z" fill="#E79900"/>
<path d="M10.7007 16.8878C10.7471 13.5452 12.4822 13.5692 14.3185 13.5947C15.9588 13.6175 16.5324 13.8809 16.8215 14.077C17.49 14.5315 17.8629 15.5923 17.8435 16.9869C17.8167 18.923 17.1437 21.1768 16.0448 23.0155C15.2672 24.3146 14.5448 24.9599 14.1573 25.2136C13.7771 24.9492 13.0728 24.2842 12.3316 22.964C11.2841 21.095 10.6739 18.8239 10.7007 16.8878Z" fill="black"/>
<path d="M10.7007 16.8887C10.7471 13.5453 12.4825 13.5693 14.318 13.5948C15.9589 13.6176 16.5326 13.8816 16.8218 14.0772C17.4901 14.5318 17.8628 15.5927 17.8435 16.9878C17.8166 18.9238 17.1438 21.177 16.0449 23.0159C15.2672 24.3151 14.5449 24.9604 14.1568 25.2136C13.7769 24.9498 13.0727 24.2847 12.3314 22.9644C11.2839 21.0958 10.6739 18.8248 10.7007 16.8887Z" fill="#FFAB05"/>
<path d="M19.5896 35.5606C20.1795 34.3275 20.2809 32.2836 19.8141 31.0195L18.633 27.8208C18.1661 26.5568 16.1528 25.4999 14.1589 25.4723L14.1483 25.4721C12.1543 25.4445 10.1125 26.4451 9.61074 27.6957L8.34141 30.8604C7.83966 32.111 7.88432 34.157 8.44079 35.406L11.1158 41.4204C11.6703 42.6701 12.9237 43.7033 13.901 43.7168C14.8764 43.7304 16.1589 42.7323 16.7488 41.4986L19.5896 35.5606Z" fill="#2F373F"/>
<path d="M9.02296 32.8798C9.03271 32.1768 9.14489 31.5231 9.33846 31.041L10.6068 27.8763C10.9921 26.9158 12.6105 26.1232 14.1412 26.1444C15.6821 26.1658 17.2779 27.003 17.6364 27.9738L18.8174 31.1725C18.9976 31.6603 19.0916 32.3163 19.0818 33.0193C19.0695 33.9065 18.8975 34.7593 18.6102 35.3597L15.7696 41.2978C15.2368 42.4113 14.2209 43.0333 13.9049 43.054C13.6042 43.0247 12.6061 42.3748 12.1034 41.247L9.42855 35.2324C9.15895 34.6242 9.01065 33.767 9.02296 32.8798Z" fill="black"/>
<path d="M9.02296 32.8795C9.03271 32.1766 9.14478 31.5235 9.33842 31.0408L10.607 27.876C10.9923 26.9161 12.6105 26.1233 14.1411 26.1445C15.6821 26.1659 17.2777 27.0033 17.6362 27.9735L18.8175 31.1722C18.9977 31.6602 19.0916 32.3161 19.0819 33.0197C19.0696 33.9067 18.8975 34.7599 18.6106 35.3597L15.7699 41.2975C15.2365 42.411 14.2206 43.0336 13.9046 43.054C13.6046 43.0251 12.6064 42.3745 12.1031 41.2466L9.42812 35.2324C9.15899 34.6248 9.01065 33.7672 9.02295 32.8802L9.02296 32.8795Z" fill="url(#paint0_linear_428_37108)"/>
<path d="M9.91697 35.1386C9.65984 34.5606 9.51934 33.7382 9.53122 32.882C9.5406 32.2054 9.64685 31.5809 9.82995 31.1238L11.0992 27.9591C11.4235 27.1498 12.8408 26.4549 14.1313 26.4728C15.4282 26.4908 16.8303 27.2248 17.132 28.0428L18.313 31.2415C18.4833 31.7034 18.5722 32.3306 18.5628 33.0073C18.551 33.8634 18.3877 34.6816 18.1146 35.2523L9.91697 35.1386Z" fill="black"/>
<path d="M9.91727 35.1386C9.66005 34.5604 9.51935 33.7378 9.53122 32.8821C9.54061 32.205 9.64623 31.5805 9.82939 31.124L11.0987 27.9593C11.4236 27.15 12.8403 26.4553 14.131 26.4732C15.4284 26.4912 16.83 27.2249 17.1314 28.0429L18.3125 31.2416C18.4829 31.7037 18.5721 32.3303 18.5627 33.0074C18.5508 33.8631 18.3874 34.6814 18.1142 35.2523L9.91727 35.1386Z" fill="url(#paint1_linear_428_37108)"/>
<path d="M15.7997 47.3624C15.8022 47.1795 15.5744 47.0263 15.293 47.0224L12.4112 46.9824C12.1298 46.9785 11.8978 47.1254 11.8952 47.3083C11.8927 47.4912 12.1206 47.6438 12.4019 47.6477L15.2838 47.6877C15.5651 47.6916 15.7972 47.5453 15.7997 47.3624Z" fill="#152024"/>
<path d="M19.1275 10.4201C19.1506 8.75087 17.0783 8.09145 14.5111 8.05585C11.944 8.02024 9.85412 8.62193 9.83097 10.2912C9.80782 11.9598 11.8702 13.3414 14.4373 13.377C17.0045 13.4126 19.1043 12.0887 19.1275 10.4201Z" fill="#152024"/>
<path d="M10.3449 10.2161C11.2406 10.6252 12.6158 10.6407 14.049 10.6576L14.8949 10.6694C16.3289 10.6922 17.7041 10.7149 18.6107 10.3307C18.6122 10.3571 18.6118 10.384 18.6114 10.4115C18.5909 11.8935 16.7194 13.0733 14.4394 13.0417C12.1594 13.0101 10.3214 11.7788 10.342 10.2968C10.3423 10.2693 10.3427 10.243 10.3449 10.2161Z" fill="black"/>
<path d="M10.345 10.2161C11.2411 10.6249 12.6164 10.6409 14.0498 10.6576L14.8953 10.6694C16.3295 10.6924 17.7047 10.7145 18.6109 10.3307C18.6124 10.3574 18.6121 10.3839 18.6117 10.4111C18.5912 11.893 16.7198 13.0733 14.44 13.0417C12.1603 13.0101 10.3214 11.7783 10.342 10.2964C10.3423 10.2692 10.3427 10.2427 10.345 10.2161Z" fill="url(#paint2_linear_428_37108)"/>
<path d="M14.5118 8.05145C12.4249 8.02251 10.651 8.41498 10.0502 9.46071C10.6243 10.3407 12.3933 10.297 14.4803 10.326C16.5682 10.3549 18.3334 10.4477 18.9326 9.5839C18.3602 8.5219 16.5998 8.08041 14.5118 8.05145Z" fill="#64676C"/>
<path d="M10.6162 9.4563C11.2868 8.54471 13.0839 8.37122 14.5072 8.39096C15.9286 8.41067 17.7212 8.63395 18.3663 9.56379C17.8889 10.0271 16.7152 10.0335 14.9112 10.0047L14.0576 9.99282C12.2535 9.97158 11.0805 9.93264 10.6162 9.4563Z" fill="#929195"/>
<path d="M14.4401 12.8212L14.4483 12.2324L20.2959 12.3135C20.3743 12.3127 22.672 12.2936 23.9129 13.0767L27.7339 15.5929L27.0938 16.0042L23.2797 13.4927C22.4814 12.9889 20.8619 12.8958 20.3058 12.9025L14.4401 12.8212Z" fill="#484E58"/>
<path d="M27.9273 16.1329C28.2101 15.9513 28.2102 15.6524 27.9264 15.4663L24.2391 13.0378C24.36 12.9792 24.5332 12.9174 24.738 12.9124C24.9912 12.9054 25.2492 12.9883 25.499 13.1556L27.8719 14.8186C27.9398 14.8667 28.0537 14.8703 28.1269 14.8261C28.2001 14.7825 28.2042 14.7079 28.1353 14.6597L25.7594 12.9947C25.4307 12.7738 25.0782 12.6667 24.7161 12.6768C24.3872 12.686 24.1256 12.7905 23.962 12.8787C23.6852 12.7726 23.3249 12.7951 23.0888 12.9465C22.9484 13.0363 22.8782 13.1553 22.8766 13.2739C22.8749 13.3958 22.9448 13.5187 23.0877 13.6131L26.9018 16.1246C27.1846 16.3107 27.6434 16.3144 27.9273 16.1329Z" fill="#283139"/>
<path d="M14.4413 12.8191L14.4495 12.2301L8.60268 12.149C8.5234 12.1455 6.22774 12.0633 4.9649 12.812L1.07613 15.2209L1.70482 15.6494L5.587 13.2446C6.39815 12.7639 8.01992 12.7154 8.57585 12.7377L14.4413 12.8191Z" fill="#484E58"/>
<path d="M0.873324 15.7614C0.595086 15.5714 0.602939 15.2735 0.891869 15.0949L4.64523 12.7694C4.52705 12.7073 4.35405 12.6408 4.15052 12.6301C3.89588 12.6163 3.6372 12.6919 3.38294 12.8522L0.965002 14.4491C0.895539 14.4953 0.78021 14.4955 0.709239 14.4492C0.63733 14.4034 0.63557 14.3291 0.705034 14.2829L3.12672 12.6842C3.46168 12.4725 3.81645 12.3752 4.17889 12.3954C4.50787 12.4138 4.7658 12.5256 4.92727 12.6179C5.20672 12.5196 5.56527 12.5518 5.79837 12.7104C5.93565 12.8042 6.00281 12.9242 6.00116 13.0433C5.99947 13.1654 5.92617 13.2865 5.78077 13.3764L1.89796 15.7811C1.60997 15.959 1.15158 15.9503 0.873324 15.7614Z" fill="#283139"/>
<path d="M14.4538 11.8493C15.9246 11.8697 17.1046 12.6608 17.0913 13.6162C17.0781 14.5722 15.8823 14.9167 14.4115 14.8963C12.9417 14.8759 11.755 14.4984 11.7683 13.5424C11.7815 12.587 12.9839 11.8289 14.4538 11.8493Z" fill="#5D636D"/>
<path d="M16.7965 13.6594C16.2832 13.4255 15.4962 13.4164 14.6751 13.4068L14.191 13.4001C13.3699 13.3869 12.583 13.3742 12.0634 13.5938C12.0627 13.5788 12.0629 13.5632 12.0631 13.5477C12.0749 12.6993 13.1467 12.0236 14.4519 12.0417C15.7571 12.0598 16.8098 12.765 16.798 13.6134C16.7978 13.6289 16.7976 13.6439 16.7965 13.6594Z" fill="black"/>
<path d="M16.7966 13.6594C16.2839 13.4248 15.4968 13.4158 14.6751 13.4062L14.1911 13.3995C13.3704 13.3863 12.5834 13.3735 12.0634 13.5938C12.0627 13.5785 12.0629 13.5627 12.0631 13.5474C12.0749 12.6987 13.1472 12.0233 14.452 12.0414C15.7577 12.0595 16.8099 12.7644 16.7982 13.6131C16.798 13.6283 16.7977 13.6442 16.7966 13.6594Z" fill="url(#paint3_linear_428_37108)"/>
<path d="M14.4111 14.8947C15.6066 14.9112 16.6203 14.686 16.9649 14.0876C16.6356 13.5836 15.6246 13.6087 14.4292 13.5921C13.2328 13.5755 12.222 13.5224 11.8789 14.017C12.2067 14.6248 13.2147 14.8781 14.4111 14.8947Z" fill="#929195"/>
<path d="M16.6491 14.0926C16.2651 14.6149 15.2365 14.7139 14.4222 14.7027C13.6069 14.6913 12.5814 14.5638 12.212 14.0311C12.4856 13.7656 13.1568 13.7621 14.1903 13.7789L14.6786 13.7857C15.7122 13.7976 16.383 13.8197 16.6491 14.0926Z" fill="#BEBBBC"/>
<path d="M14.2725 25.1404C11.8803 25.1072 9.9175 23.8004 9.60622 22.1294C9.57061 22.2931 9.55018 22.46 9.54781 22.6309C9.52141 24.5344 11.6302 26.1077 14.2586 26.1441C16.886 26.1806 19.0376 24.6664 19.064 22.7629C19.0664 22.592 19.0515 22.4246 19.0205 22.26C18.662 23.9217 16.6646 25.1735 14.2725 25.1404Z" fill="#151413"/>
<defs>
<linearGradient id="paint0_linear_428_37108" x1="19.5851" y1="24.8629" x2="19.4069" y2="37.7097" gradientUnits="userSpaceOnUse">
<stop stop-color="#747981"/>
<stop offset="1" stop-color="#2E373F"/>
</linearGradient>
<linearGradient id="paint1_linear_428_37108" x1="19.0795" y1="23.7834" x2="18.9545" y2="32.7901" gradientUnits="userSpaceOnUse">
<stop stop-color="#747981"/>
<stop offset="1" stop-color="#2E373F"/>
</linearGradient>
<linearGradient id="paint2_linear_428_37108" x1="19.5324" y1="6.99038" x2="19.4927" y2="9.85075" gradientUnits="userSpaceOnUse">
<stop stop-color="#2E363E"/>
<stop offset="1" stop-color="#151F24"/>
</linearGradient>
<linearGradient id="paint3_linear_428_37108" x1="17.3265" y1="11.5745" x2="17.342" y2="10.4575" gradientUnits="userSpaceOnUse">
<stop stop-color="#6B717A"/>
<stop offset="1" stop-color="#5E636D"/>
</linearGradient>
</defs>
</svg>
