<svg width="51" height="51" viewBox="0 0 51 51" fill="none" xmlns="http://www.w3.org/2000/svg">
<path d="M20.6018 21.3143C20.9893 23.9991 22.3364 26.9611 24.1477 28.5317C23.3591 28.9256 22.753 29.4735 22.5209 30.077L21.3574 33.0971C20.898 34.2902 20.967 36.2307 21.5109 37.4093L23.7981 42.3655C23.7942 42.4046 23.7922 42.4437 23.7922 42.4835V47.5129C23.7922 48.5886 25.1471 49.4688 26.801 49.4688C28.4569 49.4688 29.8108 48.5886 29.8108 47.5129V42.4835C29.8108 42.4437 29.8089 42.4046 29.805 42.3655L30.14 41.6395L30.6237 47.3564C30.6849 47.8348 31.3356 48.1943 32.0718 48.1552C32.807 48.1161 33.3606 47.6926 33.3003 47.2142L31.7765 38.0942L32.0931 37.4093C32.636 36.2307 32.705 34.2902 32.2456 33.0971L31.0831 30.077C30.85 29.4735 30.243 28.9256 29.4553 28.5317C31.2666 26.9611 32.6137 23.9991 33.0012 21.3143L33.0828 20.6029C33.1042 20.3314 33.1158 20.065 33.1158 19.8049C33.1158 17.8966 32.5098 16.6675 31.5114 15.898H32.4758C32.9264 15.886 34.1084 15.9333 34.9203 16.2357C34.9261 16.3462 34.9951 16.4547 35.1262 16.5381L38.777 18.8713C39.048 19.0442 39.484 19.0417 39.7511 18.8656C40.0162 18.6895 40.0124 18.406 39.7424 18.233L36.2101 15.9775C36.3247 15.9201 36.4888 15.8588 36.6821 15.8512C36.9229 15.8418 37.1677 15.9169 37.4066 16.0722L39.6812 17.6194C39.7462 17.6643 39.855 17.6655 39.924 17.6232C39.992 17.5803 39.9949 17.5096 39.9288 17.4648L37.6533 15.9163C37.3367 15.7105 37.0026 15.6139 36.6568 15.6284C36.346 15.6417 36.0994 15.7439 35.9449 15.8298C35.7886 15.7723 35.606 15.7584 35.437 15.7862C34.2211 15.3001 32.5253 15.3374 32.4593 15.3393H30.5518C30.5101 15.3216 30.4693 15.3039 30.4275 15.2875C30.9889 14.8059 31.322 14.2061 31.322 13.5559C31.322 12.4209 30.3081 11.7921 28.8357 11.5264V8.71088C28.8357 8.32707 28.5813 7.9805 28.1772 7.73872V5.33167C28.1772 4.83864 27.5605 4.43778 26.801 4.43778C26.0425 4.43778 25.4258 4.83864 25.4258 5.33167V7.73872C25.0218 7.9805 24.7673 8.32707 24.7673 8.71088V11.5687C23.4135 11.8559 22.4976 12.4777 22.4976 13.5559C22.4976 14.1803 22.8055 14.7579 23.3261 15.2288C23.2328 15.2635 23.1415 15.3001 23.0522 15.3393H21.3603C21.2953 15.3374 19.5995 15.3001 18.3836 15.7862C18.2136 15.7584 18.031 15.7723 17.8747 15.8298C17.7212 15.7439 17.4736 15.6417 17.1628 15.6284C16.818 15.6139 16.4829 15.7105 16.1673 15.9163L13.8908 17.4648C13.8257 17.5096 13.8286 17.5803 13.8966 17.6232C13.9656 17.6655 14.0734 17.6643 14.1394 17.6194L16.413 16.0722C16.6529 15.9169 16.8976 15.8418 17.1385 15.8512C17.3318 15.8588 17.4959 15.9201 17.6105 15.9775L14.0782 18.233C13.8073 18.406 13.8034 18.6895 14.0705 18.8656C14.3356 19.0417 14.7717 19.0442 15.0426 18.8713L18.6944 16.5381C18.8255 16.4547 18.8935 16.3462 18.8993 16.2357C19.7122 15.9333 20.8942 15.886 21.3438 15.898H22.0917C21.0942 16.6675 20.4872 17.8966 20.4872 19.8049C20.4872 20.065 20.4989 20.3314 20.5212 20.6029L20.6018 21.3143Z" fill="#BEBBBC"/>
<path d="M30.9592 44.7907L28.4868 29.9964C28.4264 29.5182 28.4209 29.4271 27.6853 29.4664C26.9488 29.5051 26.9662 29.5956 27.0258 30.0738L28.2826 44.933C28.343 45.4111 28.9943 45.7707 29.7299 45.7314C30.4664 45.6927 31.0197 45.2694 30.9592 44.7907Z" fill="#64676C"/>
<path d="M27.4556 30.0538L27.452 30.0295C27.441 29.9387 27.4273 29.8306 27.43 29.7701C27.4784 29.7629 27.5643 29.7534 27.7186 29.7451C27.8721 29.7368 27.9597 29.7374 28.0081 29.7392C28.0264 29.7986 28.041 29.9066 28.052 29.9974L28.0556 30.0259L30.5279 44.8202C30.5681 45.1383 30.1945 45.4245 29.6941 45.4512C29.1945 45.4773 28.7561 45.2363 28.7123 44.9128L27.4556 30.0538Z" fill="#7A7B81"/>
<path d="M25.8356 8.85606L25.8356 2.91249C25.8356 2.41928 25.2191 2.01854 24.4603 2.01854C23.7025 2.01854 23.0859 2.41928 23.0859 2.91249L23.0859 8.85606C23.0859 9.34862 23.7025 9.75 24.4603 9.75C25.2191 9.75 25.8356 9.34862 25.8356 8.85606Z" fill="#152024"/>
<path d="M27.4715 45.0909L27.4715 40.0613C27.4715 38.9854 26.1176 38.1053 24.4623 38.1053C22.807 38.1053 21.4531 38.9854 21.4531 40.0613L21.4531 45.0909C21.4531 46.1663 22.807 47.0469 24.4623 47.0469C26.1176 47.0469 27.4715 46.1663 27.4715 45.0909Z" fill="#E79900"/>
<path d="M26.4989 45.0919V40.0623C26.4989 39.3331 25.5858 38.7402 24.4639 38.7402C23.3428 38.7402 22.4297 39.3331 22.4297 40.0623L22.4297 45.0919C22.4297 45.8205 23.3428 46.4141 24.4639 46.4141C25.5858 46.4141 26.4989 45.8205 26.4989 45.0919Z" fill="#FFD47E"/>
<path d="M26.4989 12.2322L26.4989 6.28894C26.4989 5.56124 25.5838 4.96648 24.4643 4.96648C23.3457 4.96648 22.4297 5.56124 22.4297 6.28894L22.4297 12.2322C22.4297 12.9599 23.3457 13.5547 24.4643 13.5547C25.5838 13.5547 26.4989 12.9599 26.4989 12.2322Z" fill="#E79900"/>
<path d="M25.8357 12.2313L25.8357 6.2876C25.8357 5.79477 25.219 5.39392 24.4608 5.39392C23.7026 5.39392 23.0859 5.79477 23.0859 6.2876L23.0859 12.2313C23.0859 12.7242 23.7026 13.125 24.4608 13.125C25.219 13.125 25.8357 12.7242 25.8357 12.2313Z" fill="#FFD47E"/>
<path d="M30.7754 17.3851C30.7754 13.2638 27.9486 12.311 24.4615 12.311C20.9744 12.311 18.1484 13.2638 18.1484 17.3851C18.1484 21.5058 20.9744 27.2344 24.4615 27.2344C27.9486 27.2344 30.7754 21.5058 30.7754 17.3851Z" fill="#E79900"/>
<path d="M29.8032 17.386C29.8032 15.6587 29.2753 14.435 28.235 13.7482C27.4046 13.2008 26.2063 12.9457 24.4646 12.9457C21.6917 12.9457 19.125 13.4837 19.125 17.386C19.125 21.6061 22.0196 26.6016 24.4646 26.6016C26.9095 26.6016 29.8032 21.6061 29.8032 17.386Z" fill="#FFD47E"/>
<path d="M27.1398 23.3462C28.1977 21.5193 28.8304 19.2888 28.8304 17.3786C28.8304 15.8462 28.3845 14.7415 27.5415 14.186C26.907 13.7671 25.9295 13.5723 24.4655 13.5723C22.1658 13.5723 20.1016 13.8633 20.1016 17.3786C20.1016 19.2888 20.7334 21.5193 21.7921 23.3462C22.895 25.2511 24.0178 25.9609 24.4655 25.9609C24.9141 25.9609 26.0369 25.2511 27.1398 23.3462Z" fill="#E79900"/>
<path d="M21.0703 17.3795C21.0703 14.207 22.7171 14.207 24.4599 14.207C26.0167 14.207 26.5644 14.4494 26.8414 14.6317C27.4817 15.0542 27.8495 16.0559 27.8495 17.3795C27.8495 19.217 27.2406 21.3646 26.222 23.1237C25.5012 24.3667 24.8242 24.9885 24.4599 25.2344C24.0956 24.9885 23.4186 24.3667 22.6978 23.1237C21.6792 21.364 21.0703 19.217 21.0703 17.3795Z" fill="black"/>
<path d="M21.0703 17.3803C21.0703 14.2071 22.7174 14.2071 24.4594 14.2071C26.0168 14.2071 26.5646 14.4501 26.8417 14.6319C27.4818 15.0544 27.8494 16.0562 27.8494 17.3803C27.8494 19.2178 27.2407 21.3647 26.2221 23.1241C25.5013 24.3672 24.8243 24.989 24.4594 25.2344C24.0954 24.989 23.4185 24.3672 22.6976 23.1241C21.6791 21.3647 21.0703 19.2178 21.0703 17.3803Z" fill="#FFAB05"/>
<path d="M29.7583 34.9825C30.3018 33.8046 30.3711 31.8638 29.9115 30.6705L28.7487 27.6507C28.289 26.4574 26.3646 25.4811 24.4722 25.4811H24.4622C22.5697 25.4811 20.6454 26.4574 20.1857 27.6507L19.0229 30.6705C18.5632 31.8638 18.6325 33.8046 19.177 34.9825L21.7945 40.6545C22.3372 41.833 23.5401 42.7969 24.4676 42.7969C25.3933 42.7969 26.5972 41.833 27.1408 40.6545L29.7583 34.9825Z" fill="#2F373F"/>
<path d="M19.6875 32.5817C19.6875 31.9145 19.7853 31.2927 19.9627 30.8327L21.1246 27.813C21.4775 26.8965 23.0028 26.1231 24.4556 26.1231C25.9181 26.1231 27.4434 26.8965 27.7963 27.813L28.9591 30.8327C29.1364 31.2933 29.2343 31.9145 29.2343 32.5817C29.2343 33.4238 29.0823 34.2352 28.8176 34.8087L26.2002 40.4809C25.7093 41.5444 24.7535 42.148 24.4539 42.1719C24.1682 42.148 23.2125 41.5444 22.7207 40.4809L20.1033 34.8087C19.8395 34.2352 19.6875 33.4238 19.6875 32.5817Z" fill="black"/>
<path d="M19.6875 32.5737C19.6875 31.9065 19.7852 31.2853 19.9626 30.8247L21.1248 27.8049C21.4778 26.889 23.0028 26.1153 24.4555 26.1153C25.9181 26.1153 27.4432 26.889 27.7961 27.8049L28.9592 30.8247C29.1366 31.2853 29.2343 31.9065 29.2343 32.5742C29.2343 33.4161 29.0823 34.2279 28.818 34.8009L26.2005 40.4727C25.709 41.5364 24.7532 42.1405 24.4537 42.1641C24.1686 42.1405 23.2128 41.5364 22.7204 40.4727L20.1029 34.8009C19.8395 34.2279 19.6875 33.4161 19.6875 32.5742V32.5737Z" fill="url(#paint0_linear_484_4030)"/>
<path d="M20.5754 34.7109C20.3238 34.1658 20.1797 33.3873 20.1797 32.5747C20.1797 31.9325 20.2723 31.3386 20.44 30.9025L21.6028 27.8827C21.8998 27.1104 23.2356 26.4324 24.4604 26.4324C25.6913 26.4324 27.0314 27.1104 27.3284 27.8827L28.4912 30.9025C28.6589 31.3386 28.7515 31.9325 28.7515 32.5747C28.7515 33.3873 28.6074 34.1658 28.3558 34.7109H20.5754Z" fill="black"/>
<path d="M20.5757 34.7109C20.324 34.1656 20.1797 33.387 20.1797 32.5749C20.1797 31.9322 20.2717 31.3382 20.4395 30.9026L21.6023 27.8828C21.9 27.1106 23.2351 26.4328 24.4601 26.4328C25.6915 26.4328 27.0311 27.1106 27.3279 27.8828L28.4907 30.9026C28.6585 31.3388 28.7514 31.9322 28.7514 32.5749C28.7514 33.387 28.6071 34.1656 28.3554 34.7109H20.5757Z" fill="url(#paint1_linear_484_4030)"/>
<path d="M26.3151 46.2314C26.3151 46.0579 26.0968 45.9154 25.8298 45.9154H23.0947C22.8276 45.9154 22.6094 46.0579 22.6094 46.2314C22.6094 46.405 22.8276 46.5469 23.0947 46.5469H25.8298C26.0968 46.5469 26.3151 46.405 26.3151 46.2314Z" fill="#152024"/>
<path d="M28.9795 11.1325C28.9795 9.54822 27.0043 8.94977 24.5679 8.94977C22.1314 8.94977 20.1562 9.54822 20.1562 11.1325C20.1562 12.7162 22.1314 14 24.5679 14C27.0043 14 28.9795 12.7162 28.9795 11.1325Z" fill="#152024"/>
<path d="M20.6502 11.0601C21.5054 11.4366 22.8106 11.4332 24.1708 11.4303H24.9737C26.3347 11.4332 27.6399 11.4366 28.4952 11.0601C28.4969 11.0851 28.4969 11.1106 28.4969 11.1368C28.4969 12.5433 26.7366 13.6875 24.5727 13.6875C22.4088 13.6875 20.6484 12.5433 20.6484 11.1368C20.6484 11.1106 20.6484 11.0857 20.6502 11.0601Z" fill="black"/>
<path d="M20.6502 11.0601C21.506 11.4362 22.8112 11.4333 24.1716 11.4304H24.974C26.3353 11.4333 27.6405 11.4362 28.4954 11.0601C28.4972 11.0854 28.4972 11.1106 28.4972 11.1364C28.4972 12.5428 26.737 13.6875 24.5733 13.6875C22.4095 13.6875 20.6484 12.5428 20.6484 11.1364C20.6484 11.1106 20.6484 11.0854 20.6502 11.0601Z" fill="url(#paint2_linear_484_4030)"/>
<path d="M24.5667 8.94946C22.586 8.94946 20.9079 9.34523 20.3516 10.3454C20.9079 11.1729 22.586 11.1082 24.5667 11.1082C26.5483 11.1082 28.2246 11.1729 28.7818 10.3454C28.2246 9.34523 26.5483 8.94946 24.5667 8.94946Z" fill="#64676C"/>
<path d="M20.8906 10.3328C21.515 9.45891 23.218 9.27064 24.5689 9.27064C25.9179 9.27064 27.6218 9.45891 28.2462 10.3328C27.7993 10.7786 26.6857 10.8002 24.9735 10.7966H24.1633C22.4511 10.8002 21.3375 10.7786 20.8906 10.3328Z" fill="#929195"/>
<path d="M24.5703 13.4742V12.9155L30.1202 12.9155C30.1946 12.9136 32.3746 12.8653 33.5625 13.5921L37.2213 15.9294L36.6193 16.3281L32.9671 13.9952C32.2029 13.5276 30.6649 13.4606 30.1373 13.4742L24.5703 13.4742Z" fill="#484E58"/>
<path d="M37.4084 16.4445C37.6744 16.2684 37.6706 15.9848 37.3988 15.8119L33.868 13.5561C33.9819 13.4989 34.1455 13.4379 34.3397 13.4305C34.5799 13.4205 34.8258 13.4958 35.065 13.6513L37.3386 15.1981C37.4036 15.2428 37.5117 15.2447 37.5806 15.2018C37.6495 15.1595 37.6524 15.0886 37.5864 15.0438L35.31 13.4951C34.9952 13.2899 34.6593 13.1929 34.3158 13.2072C34.0039 13.2202 33.757 13.3229 33.6029 13.4087C33.3388 13.3117 32.9972 13.3378 32.7752 13.4846C32.6432 13.5716 32.5781 13.6855 32.5781 13.798C32.5781 13.9137 32.6461 14.0294 32.7829 14.1171L36.4353 16.4501C36.7061 16.623 37.1414 16.6205 37.4084 16.4445Z" fill="#283139"/>
<path d="M24.5726 13.4747V12.9158L19.0234 12.9158C18.9482 12.9135 16.7687 12.8657 15.5803 13.5927L11.9219 15.9298L12.5241 16.3281L16.1763 13.9951C16.9396 13.5283 18.4779 13.4609 19.0057 13.4747L24.5726 13.4747Z" fill="#484E58"/>
<path d="M11.7342 16.445C11.4677 16.2683 11.4712 15.9855 11.7431 15.8122L15.2741 13.5561C15.1611 13.4988 14.9961 13.438 14.8028 13.4305C14.561 13.4208 14.3165 13.4959 14.0773 13.6514L11.804 15.1984C11.7386 15.2432 11.6292 15.2449 11.5613 15.2019C11.4924 15.1594 11.4898 15.0889 11.5551 15.0441L13.832 13.4953C14.1471 13.29 14.4824 13.193 14.8266 13.2074C15.139 13.2206 15.3852 13.3232 15.5397 13.4087C15.8036 13.3118 16.1442 13.3376 16.3675 13.485C16.499 13.5722 16.5643 13.6852 16.5643 13.7982C16.5643 13.9141 16.4964 14.03 16.3596 14.1171L12.7068 16.4501C12.4358 16.6228 12.0008 16.6205 11.7342 16.445Z" fill="#283139"/>
<path d="M24.5729 12.5534C25.9688 12.5534 27.0989 13.2886 27.0989 14.1953C27.0989 15.1027 25.9688 15.4453 24.5729 15.4453C23.1779 15.4453 22.0469 15.1027 22.0469 14.1953C22.0469 13.2886 23.1779 12.5534 24.5729 12.5534Z" fill="#5D636D"/>
<path d="M26.8211 14.2422C26.331 14.027 25.5841 14.0287 24.8048 14.0304H24.3453C23.566 14.0287 22.8191 14.027 22.329 14.2422C22.3281 14.228 22.3281 14.2132 22.3281 14.1985C22.3281 13.3933 23.3363 12.738 24.575 12.738C25.8138 12.738 26.822 13.3933 26.822 14.1985C26.822 14.2132 26.822 14.2274 26.8211 14.2422Z" fill="black"/>
<path d="M26.8134 14.2422C26.3238 14.0263 25.5768 14.0281 24.797 14.0298H24.3376C23.5586 14.0281 22.8117 14.0263 22.3212 14.2422C22.3203 14.2277 22.3203 14.2127 22.3203 14.1982C22.3203 13.3927 23.329 12.7377 24.5673 12.7377C25.8065 12.7377 26.8143 13.3927 26.8143 14.1982C26.8143 14.2127 26.8143 14.2277 26.8134 14.2422Z" fill="url(#paint3_linear_484_4030)"/>
<path d="M24.5707 15.4453C25.7053 15.4453 26.6643 15.2182 26.9833 14.6459C26.6643 14.172 25.7053 14.2091 24.5707 14.2091C23.4352 14.2091 22.4753 14.172 22.1562 14.6459C22.4753 15.2182 23.4352 15.4453 24.5707 15.4453Z" fill="#929195"/>
<path d="M26.68 14.6575C26.3225 15.1581 25.3477 15.2656 24.5748 15.2656C23.801 15.2656 22.8263 15.1581 22.4688 14.6575C22.7249 14.402 23.3617 14.3898 24.3427 14.3921H24.8061C25.787 14.3898 26.4238 14.402 26.68 14.6575Z" fill="#BEBBBC"/>
<path d="M24.571 25.1645C22.3006 25.1645 20.4209 23.9503 20.1035 22.3688C20.0719 22.5246 20.0547 22.6833 20.0547 22.8455C20.0547 24.6521 22.0764 26.1172 24.571 26.1172C27.0647 26.1172 29.0864 24.6521 29.0864 22.8455C29.0864 22.6833 29.0701 22.5246 29.0385 22.3688C28.7202 23.9503 26.8414 25.1645 24.571 25.1645Z" fill="#151413"/>
<circle opacity="0.8" cx="25.7031" cy="25.9297" r="25" fill="#686767"/>
<path d="M25.7031 15.9297C21.8431 15.9297 18.7031 19.0697 18.7031 22.9297C18.7031 28.1797 25.7031 35.9297 25.7031 35.9297C25.7031 35.9297 32.7031 28.1797 32.7031 22.9297C32.7031 19.0697 29.5631 15.9297 25.7031 15.9297ZM26.5831 29.6797H24.8331V27.9297H26.5831V29.6797ZM26.5831 26.8097H24.8331C24.8331 23.9697 27.4531 24.1897 27.4531 22.4297C27.4531 21.4697 26.6631 20.6797 25.7031 20.6797C24.7431 20.6797 23.9531 21.4697 23.9531 22.4297H22.2031C22.2031 20.4997 23.7731 18.9297 25.7031 18.9297C27.6331 18.9297 29.2031 20.4997 29.2031 22.4297C29.2031 24.6197 26.5831 24.8397 26.5831 26.8097Z" fill="#F6EFE9"/>
<defs>
<linearGradient id="paint0_linear_484_4030" x1="29.6045" y1="24.8276" x2="29.6045" y2="37.0204" gradientUnits="userSpaceOnUse">
<stop stop-color="#747981"/>
<stop offset="1" stop-color="#2E373F"/>
</linearGradient>
<linearGradient id="paint1_linear_484_4030" x1="29.1204" y1="23.8153" x2="29.1204" y2="32.3635" gradientUnits="userSpaceOnUse">
<stop stop-color="#747981"/>
<stop offset="1" stop-color="#2E373F"/>
</linearGradient>
<linearGradient id="paint2_linear_484_4030" x1="29.3258" y1="7.8783" x2="29.3258" y2="10.5931" gradientUnits="userSpaceOnUse">
<stop stop-color="#2E363E"/>
<stop offset="1" stop-color="#151F24"/>
</linearGradient>
<linearGradient id="paint3_linear_484_4030" x1="27.2888" y1="12.2568" x2="27.2888" y2="11.1966" gradientUnits="userSpaceOnUse">
<stop stop-color="#6B717A"/>
<stop offset="1" stop-color="#5E636D"/>
</linearGradient>
</defs>
</svg>
