<svg width="66" height="124" viewBox="0 0 66 124" fill="none" xmlns="http://www.w3.org/2000/svg">
<path d="M60.7183 26.2733C60.7183 14.2614 60.0451 9.31905 57.0019 6.19916C53.9587 3.07926 41.8295 0.88961 36.6965 0.88961C31.5628 0.88961 19.4344 3.07926 16.3911 6.19916C13.3479 9.31905 12.6747 13.6539 12.6747 26.2733C12.6747 43.558 10.628 108.27 15.8706 112.614C21.1125 116.959 31.4217 117.133 36.6965 117.133C41.9706 117.133 52.2799 116.959 57.5224 112.614C62.765 108.27 60.7183 43.558 60.7183 26.2733Z" fill="#D99C00"/>
<path d="M58.6565 28.9885C58.6565 17.3606 58.0413 13.0625 55.2596 10.2105C52.4779 7.35865 41.3917 6.1907 36.6993 6.1907C32.0069 6.1907 20.9208 7.35865 18.1391 10.2105C15.3574 13.0625 14.7422 16.0754 14.7422 28.9885C14.7422 31.6762 15.0463 35.7218 15.8399 39.712C17.3235 43.0973 18.1211 48.6948 18.6757 54.1461C18.0418 55.0344 17.6688 56.788 17.6688 58.6433C16.8301 61.1776 17.4562 66.5323 17.6688 69.837C17.6804 70.0181 17.6572 70.5927 17.6688 70.7731C17.6688 70.7731 17.1676 82.1845 17.6688 87.2222C17.7899 88.4411 18.0669 90.1276 18.2789 90.5064C18.4535 92.0538 16.3649 98.5113 16.582 99.6999C17.0188 102.086 16.9918 107.533 17.663 108.089C22.4546 112.06 31.8781 112.219 36.6993 112.219C41.5206 112.219 50.9434 112.06 55.7356 108.089C56.4069 107.533 56.3798 102.086 56.816 99.6999C57.0337 98.5113 54.9452 92.0538 55.1198 90.5064C55.4464 89.6122 55.6087 88.4411 55.7298 87.2222C56.231 82.1845 55.7298 70.7731 55.7298 70.7731C55.7414 70.5927 55.7182 70.0181 55.7298 69.837C55.9424 66.5323 56.5686 61.1776 55.7298 58.6433C55.7298 56.788 55.3568 55.0344 54.7229 54.1461C55.277 48.6948 56.0745 43.0973 57.5587 39.712C58.3524 35.7218 58.6565 31.6762 58.6565 28.9885Z" fill="#F6A300"/>
<path d="M17.6724 69.8438V58.0928L14.4765 40.8686C13.8381 47.0485 13.7904 59.0436 13.9134 69.8438H17.6724Z" fill="#262A35"/>
<path d="M13.9219 70.7792C14.061 82.0754 14.376 91.8203 14.376 91.8203L17.6699 87.2284V70.7792H13.9219Z" fill="#262A35"/>
<path d="M36.6953 33.3541C36.6953 33.3541 24.6989 33.2008 15.8359 39.7144L18.6717 54.1484C18.6717 54.1484 23.549 49.9817 36.6953 49.9817C49.8417 49.9817 54.719 54.1484 54.719 54.1484L57.5548 39.7144C48.6918 33.2008 36.6953 33.3541 36.6953 33.3541Z" fill="#262A35"/>
<path d="M55.7266 69.8438V58.0928L58.9225 40.8686C59.5603 47.0485 59.6079 59.0436 59.4855 69.8438H55.7266Z" fill="#353F4B"/>
<path d="M59.4746 70.7792C59.3348 82.0754 59.0204 91.8203 59.0204 91.8203L55.7266 87.2284V70.7792H59.4746Z" fill="#353F4B"/>
<path d="M55.1216 90.5085C50.6508 91.7338 22.7508 91.7338 18.2807 90.5085C18.2807 90.5085 16.1754 96.0719 16.5838 99.702C19.6103 101.547 26.0202 103.891 36.7011 103.891C47.3821 103.891 53.7913 101.547 56.8178 99.702C57.2268 96.0719 55.1216 90.5085 55.1216 90.5085Z" fill="#262A35"/>
<path d="M13.3592 44.1038L8.38015 45.3324C7.92985 45.4438 7.50468 45.054 7.57876 44.5851C7.72371 43.6729 8.24875 42.3638 10.0197 41.8581C12.8568 41.0484 13.3592 44.1038 13.3592 44.1038Z" fill="#F6A300"/>
<path d="M60.0391 44.1038L65.0181 45.3324C65.4684 45.4438 65.8936 45.054 65.8195 44.5851C65.6746 43.6729 65.1496 42.3638 63.378 41.8581C60.5415 41.0484 60.0391 44.1038 60.0391 44.1038Z" fill="#F6A300"/>
<path d="M54.7189 54.1484L57.5547 39.7144C48.6917 33.2008 36.6953 33.3541 36.6953 33.3541V49.9817C49.8416 49.9817 54.7189 54.1484 54.7189 54.1484Z" fill="#353F4B"/>
<path d="M55.1158 90.5085C54.9644 90.5498 54.8014 90.5858 54.63 90.6193C54.5843 90.6283 54.525 90.6367 54.4767 90.6451C54.3762 90.6631 54.2776 90.6818 54.1707 90.6973C51.1023 91.1836 43.9046 91.4272 36.6953 91.4272V103.891C47.3763 103.891 53.7855 101.547 56.812 99.702C57.221 96.0719 55.1158 90.5085 55.1158 90.5085Z" fill="#353F4B"/>
<path d="M41.699 115.73C38.3704 115.996 35.0347 115.996 31.7054 115.73C31.241 115.693 30.7945 116.235 30.6953 116.966C32.9777 117.115 35.0791 117.133 36.7025 117.133C38.3253 117.133 40.4273 117.115 42.7098 116.966C42.6099 116.235 42.1641 115.693 41.699 115.73Z" fill="#262A35"/>
<path d="M24.5376 115.69C24.5389 115.684 24.5402 115.678 24.5415 115.672C24.6497 115.169 24.3424 114.676 23.8528 114.557C22.3976 114.204 20.9526 113.789 19.5212 113.313C19.0432 113.154 18.5304 113.41 18.3674 113.898C18.3655 113.904 18.3636 113.91 18.3616 113.916C18.332 114.004 18.3313 114.093 18.3281 114.182C20.1061 115.082 22.1579 115.706 24.2812 116.141C24.4004 116.017 24.499 115.871 24.5376 115.69Z" fill="#DF2C3A"/>
<path d="M55.0315 113.898C54.8691 113.41 54.3564 113.154 53.8777 113.313C52.4469 113.789 51.002 114.204 49.5461 114.557C49.0571 114.676 48.7498 115.169 48.8574 115.672C48.8587 115.678 48.8606 115.684 48.8619 115.69C48.9006 115.871 48.9991 116.017 49.1177 116.141C51.2416 115.706 53.2934 115.082 55.0714 114.182C55.0675 114.093 55.0669 114.004 55.0379 113.916C55.036 113.91 55.0334 113.904 55.0315 113.898Z" fill="#DF2C3A"/>
<path d="M48.1982 3.60644C48.8198 3.74108 49.4499 3.34619 49.5987 2.72839C49.6 2.72324 49.6013 2.71744 49.6025 2.71229C49.6605 2.46942 49.5175 2.22141 49.2759 2.15763C44.7916 0.974226 39.616 0.266221 36.6984 0.266221C33.7808 0.266221 28.6053 0.974226 24.1209 2.15763C23.8794 2.22141 23.7357 2.46941 23.7943 2.71292C23.7956 2.71807 23.7969 2.72388 23.7988 2.72968C23.947 3.34683 24.5777 3.74108 25.1981 3.60644C28.9705 2.78507 32.8596 1.95341 36.6984 1.95018C40.5708 1.94632 44.3928 2.77799 48.1982 3.60644Z" fill="#262A35"/>
<path d="M45.1791 25.511C45.0819 25.9948 44.629 26.3511 44.1136 26.3511H29.2878C28.7725 26.3511 28.3196 25.9948 28.2223 25.511L26.2891 15.9072L27.8931 26.6687C27.9724 27.2001 28.4285 27.5938 28.9657 27.5938H44.4351C44.9723 27.5938 45.4291 27.2001 45.5083 26.6687L47.1118 15.9072L45.1791 25.511Z" fill="#D99C00"/>
<path d="M17.3328 6.3501C17.0912 6.44673 16.8503 6.54335 16.6094 6.64062C18.4943 5.88175 20.3825 5.12739 22.2732 4.37753C22.6887 4.21262 22.8923 3.74236 22.7268 3.32749C22.7248 3.32234 22.7229 3.31783 22.721 3.31267C22.7029 3.26694 22.6688 3.2347 22.6437 3.19412C20.3232 3.88986 18.3017 4.71702 17.0468 5.63953C17.1421 5.87659 17.2375 6.11303 17.3328 6.3501Z" fill="white"/>
<path d="M16.6035 6.64511C16.8445 6.54784 17.0854 6.45122 17.327 6.35459C17.2316 6.11752 17.1363 5.88108 17.041 5.64402C16.7936 5.82633 16.5745 6.01187 16.3903 6.20062C16.2512 6.34299 16.1217 6.49181 15.9922 6.64062C16.1809 6.71857 16.3993 6.72757 16.6035 6.64511Z" fill="#DA7400"/>
<path d="M51.2079 4.23074C53.0587 5.07401 54.907 5.9218 56.7513 6.77344C56.5155 6.66457 56.2798 6.55569 56.044 6.44747C56.1612 6.19236 56.2791 5.93791 56.3964 5.68344C55.1524 4.75192 53.127 3.91701 50.7943 3.21482C50.6475 3.60844 50.8188 4.05294 51.2079 4.23074Z" fill="white"/>
<path d="M56.3993 5.67642C56.282 5.93088 56.1641 6.18533 56.0469 6.44044C56.2827 6.54866 56.5184 6.65754 56.7542 6.76641C56.9977 6.8785 57.2612 6.84759 57.4789 6.72712C57.3269 6.54545 57.171 6.36764 57.0054 6.19757C56.8328 6.02041 56.6273 5.84713 56.3993 5.67642Z" fill="#DA7400"/>
<path d="M12.2845 67.7578H12.2754C12.0416 67.7578 11.8516 67.5678 11.8516 67.3339V64.8086C11.8516 64.5741 12.0416 64.3848 12.2754 64.3848H12.2845C12.5183 64.3848 12.7084 64.5741 12.7084 64.8086V67.3339C12.7084 67.5678 12.5183 67.7578 12.2845 67.7578Z" fill="#262A35"/>
<path d="M12.2845 77.1484H12.2754C12.0416 77.1484 11.8516 76.9591 11.8516 76.7246V74.1993C11.8516 73.9654 12.0416 73.7754 12.2754 73.7754H12.2845C12.5183 73.7754 12.7084 73.9654 12.7084 74.1993V76.7246C12.7084 76.9591 12.5183 77.1484 12.2845 77.1484Z" fill="#262A35"/>
<path d="M61.1198 67.7578H61.1114C60.8769 67.7578 60.6875 67.5678 60.6875 67.3339V64.8086C60.6875 64.5741 60.8769 64.3848 61.1114 64.3848H61.1198C61.3543 64.3848 61.5437 64.5741 61.5437 64.8086V67.3339C61.5437 67.5678 61.3543 67.7578 61.1198 67.7578Z" fill="#262A35"/>
<path d="M61.1198 77.1484H61.1114C60.8769 77.1484 60.6875 76.9591 60.6875 76.7246V74.1993C60.6875 73.9654 60.8769 73.7754 61.1114 73.7754H61.1198C61.3543 73.7754 61.5437 73.9654 61.5437 74.1993V76.7246C61.5437 76.9591 61.3543 77.1484 61.1198 77.1484Z" fill="#262A35"/>
</svg>
