<svg width="43" height="58" viewBox="0 0 43 58" fill="none" xmlns="http://www.w3.org/2000/svg">
<g filter="url(#filter0_d_30_367)">
<path d="M5.32646 13.2232C4.12061 13.0119 2.8872 13.0119 1.68135 13.2232C1.48949 13.257 1.3158 13.3576 1.19108 13.5073C1.06636 13.6569 0.998674 13.8459 1.00002 14.0407V19.7162C0.998923 19.9102 1.06685 20.0983 1.19166 20.2468C1.31648 20.3954 1.49005 20.4947 1.68135 20.527C2.88657 20.7454 4.12124 20.7454 5.32646 20.527C5.51776 20.4947 5.69133 20.3954 5.81615 20.2468C5.94096 20.0983 6.00889 19.9102 6.00779 19.7162V14.0407C6.00779 13.8463 5.93961 13.658 5.81513 13.5086C5.69064 13.3592 5.51773 13.2582 5.32646 13.2232Z" fill="#D6D6D6"/>
<path d="M5.51744 11.8125C4.88856 11.5129 4.20072 11.3574 3.5041 11.3574C2.80749 11.3574 2.11966 11.5129 1.49078 11.8125V21.9439C2.11966 22.2435 2.80749 22.399 3.5041 22.399C4.20072 22.399 4.88856 22.2435 5.51744 21.9439V11.8125Z" fill="#004358"/>
<path d="M4.22292 12.0239C3.74386 11.9557 3.25757 11.9557 2.77851 12.0239L2.61497 11.4515C2.2263 11.5266 1.84861 11.6502 1.49078 11.8195V11.6696C1.88163 11.48 2.29653 11.3448 2.72399 11.2676C2.78531 11.4584 2.83981 11.6491 2.89432 11.8467C3.29717 11.799 3.70424 11.799 4.10708 11.8467C4.1684 11.6491 4.22291 11.4584 4.27742 11.2676C4.70738 11.3435 5.12471 11.4788 5.51744 11.6696V11.8195C5.15922 11.6512 4.78166 11.5276 4.39325 11.4515C4.33875 11.6423 4.28424 11.8263 4.22292 12.0239Z" fill="#003242"/>
<path d="M4.22292 12.9709C3.74263 12.9232 3.2588 12.9232 2.77851 12.9709L2.61497 12.3986C2.23007 12.4589 1.85304 12.5618 1.49078 12.7052V12.5553C1.88645 12.3934 2.30069 12.2812 2.72399 12.2214C2.78531 12.4122 2.83981 12.603 2.89432 12.8006C3.29754 12.7597 3.70386 12.7597 4.10708 12.8006C4.1684 12.603 4.22291 12.4122 4.27742 12.2214C4.70311 12.2803 5.11971 12.3925 5.51744 12.5553V12.7052C5.15489 12.5626 4.77796 12.4599 4.39325 12.3986C4.33875 12.5894 4.28424 12.7801 4.22292 12.9709Z" fill="#003242"/>
<path d="M4.22292 13.925C3.74231 13.8841 3.25911 13.8841 2.77851 13.925L2.61497 13.3459C2.23412 13.3931 1.85802 13.4729 1.49078 13.5843V13.4344C1.89283 13.3097 2.30572 13.223 2.72399 13.1755C2.78531 13.3663 2.83981 13.5571 2.89432 13.7547C3.29812 13.7274 3.70329 13.7274 4.10708 13.7547C4.1684 13.5571 4.22291 13.3663 4.27742 13.1755C4.69803 13.2223 5.11325 13.309 5.51744 13.4344V13.5843C5.15003 13.4736 4.77399 13.3938 4.39325 13.3459C4.33875 13.5366 4.28424 13.7342 4.22292 13.925Z" fill="#003242"/>
<path d="M4.22292 14.8791C3.74183 14.8518 3.25959 14.8518 2.77851 14.8791L2.61497 14.2931C2.23667 14.3267 1.86109 14.3859 1.49078 14.4703V14.3204C1.8961 14.2226 2.30841 14.1565 2.72399 14.1228C2.78531 14.3204 2.83981 14.518 2.89432 14.7087C3.29832 14.6883 3.70309 14.6883 4.10708 14.7087C4.1684 14.518 4.22291 14.3204 4.27742 14.1228C4.6953 14.156 5.10993 14.2221 5.51744 14.3204V14.4703C5.14704 14.3865 4.77149 14.3273 4.39325 14.2931C4.33875 14.4907 4.28424 14.6815 4.22292 14.8791Z" fill="#003242"/>
<path d="M4.22292 15.8327C3.74599 15.8327 3.25544 15.8327 2.77851 15.8327L2.61497 15.2399C2.22661 15.2399 1.85189 15.3013 1.49078 15.3558V15.2059C1.8993 15.1411 2.31093 15.0979 2.72399 15.0764C2.78531 15.274 2.83981 15.4716 2.89432 15.6692C3.2963 15.6692 3.7051 15.6692 4.10708 15.6692C4.1684 15.4716 4.22291 15.274 4.27742 15.0764C4.69276 15.0975 5.10669 15.1408 5.51744 15.2059V15.3626C5.15634 15.3081 4.7748 15.274 4.39325 15.2467C4.33875 15.4375 4.28424 15.6351 4.22292 15.8327Z" fill="#003242"/>
<path d="M4.22292 16.7863H2.77851L2.61497 16.1867L1.49078 16.2344V16.0845C1.88595 16.0845 2.30156 16.0368 2.72399 16.0232C2.78531 16.2208 2.83981 16.4252 2.89432 16.6228H4.10708C4.1684 16.4252 4.22291 16.2208 4.27742 16.0232C4.70665 16.0232 5.12227 16.0232 5.51744 16.0845V16.2344L4.39325 16.1867C4.33875 16.3843 4.28424 16.5887 4.22292 16.7863Z" fill="#003242"/>
<path d="M4.22292 17.7404C3.74599 17.7404 3.25544 17.7404 2.77851 17.7404L2.61497 17.134H1.49078V16.9841H2.72399C2.78531 17.1817 2.83981 17.3861 2.89432 17.5837C3.2963 17.5837 3.7051 17.5837 4.10708 17.5837C4.1684 17.3861 4.22291 17.1817 4.27742 16.9841H5.51744V17.134H4.39325C4.33875 17.3384 4.28424 17.536 4.22292 17.7404Z" fill="#003242"/>
<path d="M4.22292 18.6937C3.74599 18.6937 3.25544 18.6937 2.77851 18.6937L2.61497 18.0874C2.22889 18.0874 1.85416 18.0601 1.49078 18.0056V17.8557C1.88595 17.8557 2.30156 17.917 2.72399 17.9307C2.78531 18.1282 2.83981 18.3326 2.89432 18.537C3.2963 18.537 3.7051 18.537 4.10708 18.537C4.1684 18.3326 4.22291 18.1282 4.27742 17.9307C4.70665 17.9307 5.12227 17.8898 5.51744 17.8557V18.0056C5.15634 18.0397 4.7748 18.0669 4.39325 18.0874C4.33875 18.2849 4.28424 18.4893 4.22292 18.6937Z" fill="#003242"/>
<path d="M4.22292 19.6414C3.74231 19.6823 3.25911 19.6823 2.77851 19.6414L2.61497 19.035C2.22661 19.035 1.85189 18.9532 1.49078 18.8851V18.7693C1.89904 18.8387 2.31069 18.8864 2.72399 18.9124C2.78531 19.1168 2.83981 19.3212 2.89432 19.5256C3.29832 19.546 3.70309 19.546 4.10708 19.5256C4.1684 19.3212 4.22291 19.1168 4.27742 18.9124C4.69301 18.8868 5.10695 18.8391 5.51744 18.7693V18.9192C5.15634 18.9873 4.7748 19.035 4.39325 19.0691C4.33875 19.2326 4.28424 19.4506 4.22292 19.6414Z" fill="#003242"/>
<path d="M4.22292 20.5949C3.74299 20.6494 3.25843 20.6494 2.77851 20.5949L2.61497 19.9817C2.23538 19.9402 1.85955 19.8696 1.49078 19.7705V19.6206C1.89574 19.723 2.30805 19.7936 2.72399 19.8318C2.78531 20.0362 2.83981 20.2406 2.89432 20.445C3.29786 20.4791 3.70355 20.4791 4.10708 20.445C4.1684 20.2406 4.22291 20.0362 4.27742 19.8318C4.69567 19.7942 5.1103 19.7235 5.51744 19.6206V19.7705C5.14853 19.869 4.77275 19.9396 4.39325 19.9817C4.33875 20.1861 4.28424 20.3905 4.22292 20.5949Z" fill="#003242"/>
<path d="M4.22292 21.549C3.7434 21.6103 3.25803 21.6103 2.77851 21.549L2.61497 20.929C2.23249 20.8738 1.85609 20.7825 1.49078 20.6565V20.5066C1.89154 20.639 2.30474 20.7303 2.72399 20.7791C2.78531 20.9903 2.83981 21.1947 2.89432 21.3991C3.29717 21.4468 3.70424 21.4468 4.10708 21.3991C4.1684 21.1947 4.22291 20.9903 4.27742 20.7791C4.69902 20.7311 5.11455 20.6398 5.51744 20.5066V20.6565C5.15187 20.7816 4.77555 20.8729 4.39325 20.929C4.33875 21.1334 4.28424 21.3446 4.22292 21.549Z" fill="#003242"/>
<path d="M4.22292 22.5029C3.74436 22.5778 3.25706 22.5778 2.77851 22.5029L2.61497 21.8761C2.22812 21.8072 1.85076 21.6929 1.49078 21.5354V21.3855C1.88484 21.5549 2.29946 21.6717 2.72399 21.733C2.78531 21.9442 2.83981 22.1486 2.89432 22.3598C3.29717 22.4075 3.70424 22.4075 4.10708 22.3598C4.1684 22.1486 4.22291 21.9442 4.27742 21.733C4.70433 21.6726 5.12133 21.5558 5.51744 21.3855V21.5354C5.15711 21.692 4.77987 21.8063 4.39325 21.8761C4.33875 22.0873 4.28424 22.2917 4.22292 22.5029Z" fill="#003242"/>
<g style="mix-blend-mode:multiply" opacity="0.5">
<path d="M5.51744 12.637V11.6696C5.12471 11.4788 4.70738 11.3435 4.27742 11.2676L4.23654 11.4175C3.75117 11.342 3.25706 11.342 2.77169 11.4175L2.72399 11.2676C2.29653 11.3448 1.88163 11.48 1.49078 11.6696V12.637C2.7856 12.1326 4.22262 12.1326 5.51744 12.637Z" fill="#003242"/>
</g>
<g style="mix-blend-mode:multiply" opacity="0.5">
<path d="M1.49078 19.7502V21.9441C1.88525 22.1336 2.30529 22.2645 2.73761 22.3325L2.77851 22.5028C3.25706 22.5778 3.74436 22.5778 4.22292 22.5028L4.2706 22.3325C4.70267 22.2635 5.12259 22.1327 5.51744 21.9441V19.7502C4.19769 20.0976 2.81053 20.0976 1.49078 19.7502Z" fill="#003242"/>
</g>
<path d="M5.32646 38.0711C4.1206 37.8598 2.88719 37.8598 1.68134 38.0711C1.49064 38.1047 1.31786 38.2043 1.19328 38.3526C1.0687 38.5008 1.00028 38.6882 1.00001 38.8818V44.5641C0.998917 44.7581 1.06684 44.9462 1.19166 45.0947C1.31647 45.2433 1.49004 45.3426 1.68134 45.3749C2.88656 45.5933 4.12124 45.5933 5.32646 45.3749C5.51775 45.3426 5.69132 45.2433 5.81614 45.0947C5.94096 44.9462 6.00888 44.7581 6.00778 44.5641V38.8818C6.0062 38.6886 5.93731 38.5019 5.81296 38.3539C5.68861 38.2059 5.51657 38.1059 5.32646 38.0711Z" fill="#D6D6D6"/>
<path d="M5.51744 36.6609C4.88856 36.3613 4.20072 36.2058 3.5041 36.2058C2.80749 36.2058 2.11966 36.3613 1.49078 36.6609V46.7923C2.12135 47.0859 2.80851 47.2381 3.5041 47.2381C4.19969 47.2381 4.88687 47.0859 5.51744 46.7923V36.6609Z" fill="#004358"/>
<path d="M4.22292 36.8722C3.74386 36.8041 3.25757 36.8041 2.77851 36.8722L2.61497 36.2999C2.2263 36.375 1.84861 36.4986 1.49078 36.6678V36.518C1.88163 36.3284 2.29653 36.1932 2.72399 36.116C2.78531 36.3067 2.83981 36.4975 2.89432 36.6951C3.29717 36.6474 3.70424 36.6474 4.10708 36.6951C4.1684 36.4975 4.22291 36.3067 4.27742 36.116C4.70738 36.1919 5.12471 36.3272 5.51744 36.518V36.6678C5.15922 36.4995 4.78166 36.376 4.39325 36.2999C4.33875 36.4839 4.28424 36.6747 4.22292 36.8722Z" fill="#003242"/>
<path d="M4.22292 37.8461C3.74263 37.7985 3.2588 37.7985 2.77851 37.8461L2.61497 37.2738C2.23007 37.3342 1.85304 37.437 1.49078 37.5804V37.4305C1.88645 37.2686 2.30069 37.1565 2.72399 37.0967C2.78531 37.2875 2.83981 37.4782 2.89432 37.6758C3.29754 37.6349 3.70386 37.6349 4.10708 37.6758C4.1684 37.4782 4.22291 37.2875 4.27742 37.0967C4.70311 37.1556 5.11971 37.2677 5.51744 37.4305V37.5804C5.15489 37.4379 4.77796 37.3351 4.39325 37.2738C4.33875 37.4373 4.28424 37.6281 4.22292 37.8461Z" fill="#003242"/>
<path d="M4.22292 38.7726C3.74231 38.7318 3.25911 38.7318 2.77851 38.7726L2.61497 38.1935C2.23412 38.2407 1.85802 38.3205 1.49078 38.432V38.2821C1.89263 38.1551 2.30551 38.0661 2.72399 38.0164C2.78531 38.2139 2.83981 38.4047 2.89432 38.6023C3.29812 38.5751 3.70329 38.5751 4.10708 38.6023C4.1684 38.4047 4.22291 38.2139 4.27742 38.0164C4.69825 38.0654 5.11347 38.1544 5.51744 38.2821V38.432C5.15003 38.3212 4.77399 38.2414 4.39325 38.1935C4.33875 38.3843 4.28424 38.5819 4.22292 38.7726Z" fill="#003242"/>
<path d="M4.22292 39.727C3.74183 39.6997 3.25959 39.6997 2.77851 39.727L2.61497 39.141C2.23667 39.1746 1.86109 39.2338 1.49078 39.3182V39.1683C1.8961 39.0705 2.30841 39.0044 2.72399 38.9707C2.78531 39.1683 2.83981 39.3591 2.89432 39.5566C3.29832 39.5362 3.70309 39.5362 4.10708 39.5566C4.1684 39.3591 4.22291 39.1683 4.27742 38.9707C4.6953 39.0039 5.10993 39.07 5.51744 39.1683V39.3182C5.14704 39.2344 4.77149 39.1752 4.39325 39.141C4.33875 39.3386 4.28424 39.5294 4.22292 39.727Z" fill="#003242"/>
<path d="M4.22292 40.6806C3.74599 40.6806 3.25544 40.6806 2.77851 40.6806L2.61497 40.0878C2.22661 40.0878 1.85189 40.1492 1.49078 40.2037V40.0538C1.89885 39.9857 2.31068 39.9425 2.72399 39.9243C2.78531 40.1219 2.83981 40.3195 2.89432 40.5171C3.2963 40.5171 3.7051 40.5171 4.10708 40.5171C4.1684 40.3195 4.22291 40.1219 4.27742 39.9243C4.69301 39.9421 5.10714 39.9853 5.51744 40.0538V40.2037C5.15634 40.1492 4.7748 40.1151 4.39325 40.0878C4.33875 40.2854 4.28424 40.483 4.22292 40.6806Z" fill="#003242"/>
<path d="M4.22292 41.6347H2.77851L2.61497 41.0351L1.49078 41.0828V40.9329C1.88595 40.9329 2.30156 40.8852 2.72399 40.8716C2.78531 41.0692 2.83981 41.2736 2.89432 41.4711H4.10708C4.1684 41.2736 4.22291 41.0692 4.27742 40.8716C4.70665 40.8716 5.12227 40.8716 5.51744 40.9329V41.0828L4.39325 41.0351C4.33875 41.2531 4.28424 41.4303 4.22292 41.6347Z" fill="#003242"/>
<path d="M4.22292 42.6159C3.74599 42.6159 3.25544 42.6159 2.77851 42.6159L2.61497 42.0095H1.49078V41.8596H2.72399C2.78531 42.0572 2.83981 42.2616 2.89432 42.4592C3.2963 42.4592 3.7051 42.4592 4.10708 42.4592C4.1684 42.2616 4.22291 42.0572 4.27742 41.8596H5.51744V42.0095H4.39325C4.33875 42.1867 4.28424 42.3842 4.22292 42.6159Z" fill="#003242"/>
<path d="M4.22292 43.5353C3.74183 43.5626 3.25959 43.5626 2.77851 43.5353L2.61497 42.9358C2.22889 42.9358 1.85416 42.9085 1.49078 42.854V42.7041C1.88595 42.7382 2.30156 42.7654 2.72399 42.779C2.78531 42.9766 2.83981 43.181 2.89432 43.3786C3.29832 43.3991 3.70309 43.3991 4.10708 43.3786C4.1684 43.181 4.22291 42.9766 4.27742 42.779C4.70665 42.779 5.12227 42.7382 5.51744 42.7041V42.854C5.15634 42.8881 4.7748 42.9153 4.39325 42.9358C4.33875 43.1333 4.28424 43.3377 4.22292 43.5353Z" fill="#003242"/>
<path d="M4.22292 44.4894C3.74231 44.5303 3.25911 44.5303 2.77851 44.4894L2.61497 43.883C2.22661 43.883 1.85189 43.8013 1.49078 43.7331V43.5833C1.89904 43.6526 2.31069 43.7004 2.72399 43.7263C2.78531 43.9307 2.83981 44.1351 2.89432 44.3395C3.29832 44.36 3.70309 44.36 4.10708 44.3395C4.1684 44.1351 4.22291 43.9307 4.27742 43.7263C4.69301 43.7008 5.10695 43.653 5.51744 43.5833V43.7331C5.15634 43.8013 4.7748 43.849 4.39325 43.883C4.33875 44.0806 4.28424 44.285 4.22292 44.4894Z" fill="#003242"/>
<path d="M4.22292 45.4428C3.74299 45.4973 3.25843 45.4973 2.77851 45.4428L2.61497 44.8296C2.23538 44.7881 1.85955 44.7175 1.49078 44.6184V44.4685C1.89574 44.5709 2.30805 44.6415 2.72399 44.6797C2.78531 44.8841 2.83981 45.0885 2.89432 45.2929C3.29786 45.327 3.70355 45.327 4.10708 45.2929C4.1684 45.0885 4.22291 44.8841 4.27742 44.6797C4.69567 44.6421 5.1103 44.5714 5.51744 44.4685V44.6184C5.14853 44.7169 4.77275 44.7875 4.39325 44.8296C4.33875 45.034 4.28424 45.2384 4.22292 45.4428Z" fill="#003242"/>
<path d="M4.22292 46.3969C3.7434 46.4582 3.25803 46.4582 2.77851 46.3969L2.61497 45.7769C2.23249 45.7217 1.85609 45.6304 1.49078 45.5043V45.3408C1.89154 45.4733 2.30474 45.5646 2.72399 45.6134C2.78531 45.8246 2.83981 46.029 2.89432 46.2334C3.29717 46.2811 3.70424 46.2811 4.10708 46.2334C4.1684 46.029 4.22291 45.8246 4.27742 45.6134C4.69902 45.5653 5.11455 45.474 5.51744 45.3408V45.4907C5.15187 45.6159 4.77555 45.7071 4.39325 45.7632C4.33875 45.9813 4.28424 46.1925 4.22292 46.3969Z" fill="#003242"/>
<path d="M4.22292 47.3847C3.74436 47.4597 3.25706 47.4597 2.77851 47.3847L2.61497 46.7579C2.22812 46.6891 1.85076 46.5747 1.49078 46.4172V46.2673C1.88484 46.4367 2.29946 46.5536 2.72399 46.6148C2.78531 46.826 2.83981 47.0304 2.89432 47.2416C3.29717 47.2893 3.70424 47.2893 4.10708 47.2416C4.1684 47.0304 4.22291 46.826 4.27742 46.6148C4.70433 46.5545 5.12133 46.4376 5.51744 46.2673V46.4172C5.15711 46.5738 4.77987 46.6881 4.39325 46.7579C4.33875 46.935 4.28424 47.1394 4.22292 47.3847Z" fill="#003242"/>
<g style="mix-blend-mode:multiply" opacity="0.5">
<path d="M5.51744 37.5127V36.518C5.12471 36.3272 4.70738 36.1919 4.27742 36.116L4.23654 36.2659C3.75117 36.1904 3.25706 36.1904 2.77169 36.2659L2.72399 36.116C2.29653 36.1932 1.88163 36.3284 1.49078 36.518V37.5127C2.7856 37.0082 4.22262 37.0082 5.51744 37.5127Z" fill="#003242"/>
</g>
<g style="mix-blend-mode:multiply" opacity="0.5">
<path d="M1.49078 44.5981V46.792C1.88525 46.9815 2.30529 47.1124 2.73761 47.1804L2.77851 47.3507C3.25706 47.4257 3.74436 47.4257 4.22292 47.3507L4.2706 47.1804C4.70267 47.1113 5.12259 46.9806 5.51744 46.792V44.5981C4.19769 44.9455 2.81053 44.9455 1.49078 44.5981Z" fill="#003242"/>
</g>
<path d="M31.5236 13.2232C32.7294 13.0119 33.9628 13.0119 35.1687 13.2232C35.3599 13.2582 35.5329 13.3592 35.6573 13.5086C35.7818 13.658 35.85 13.8463 35.85 14.0407V19.7162C35.8511 19.9102 35.7832 20.0983 35.6584 20.2468C35.5335 20.3954 35.36 20.4947 35.1687 20.527C33.9635 20.7454 32.7288 20.7454 31.5236 20.527C31.3323 20.4947 31.1587 20.3954 31.0339 20.2468C30.9091 20.0983 30.8411 19.9102 30.8422 19.7162V14.0407C30.8422 13.8463 30.9104 13.658 31.0349 13.5086C31.1594 13.3592 31.3323 13.2582 31.5236 13.2232Z" fill="#D6D6D6"/>
<path d="M31.3328 11.8125C31.9617 11.5129 32.6495 11.3574 33.3462 11.3574C34.0428 11.3574 34.7306 11.5129 35.3595 11.8125V21.9439C34.7306 22.2435 34.0428 22.399 33.3462 22.399C32.6495 22.399 31.9617 22.2435 31.3328 21.9439V11.8125Z" fill="#004358"/>
<path d="M32.6274 12.0239C33.1064 11.9557 33.5927 11.9557 34.0718 12.0239L34.2353 11.4515C34.624 11.5266 35.0017 11.6502 35.3595 11.8195V11.6696C34.9686 11.48 34.5537 11.3448 34.1263 11.2676C34.065 11.4584 34.0105 11.6491 33.9559 11.8467C33.5508 11.799 33.1415 11.799 32.7364 11.8467L32.5728 11.2676C32.1429 11.3435 31.7256 11.4788 31.3328 11.6696V11.8195C31.6907 11.6502 32.0684 11.5266 32.457 11.4515C32.5115 11.6423 32.566 11.8263 32.6274 12.0239Z" fill="#003242"/>
<path d="M32.6274 12.9709C33.1077 12.9232 33.5915 12.9232 34.0718 12.9709L34.2353 12.3986C34.6202 12.4589 34.9972 12.5618 35.3595 12.7052V12.5553C34.9638 12.3934 34.5496 12.2812 34.1263 12.2214C34.065 12.4122 34.0105 12.603 33.9559 12.8006C33.5504 12.7597 33.1419 12.7597 32.7364 12.8006L32.5728 12.2214C32.1472 12.2803 31.7306 12.3925 31.3328 12.5553V12.7052C31.6951 12.5618 32.0721 12.4589 32.457 12.3986C32.5115 12.5894 32.566 12.7801 32.6274 12.9709Z" fill="#003242"/>
<path d="M32.6274 13.925C33.108 13.8841 33.5912 13.8841 34.0718 13.925L34.2353 13.3459C34.6161 13.3931 34.9922 13.4729 35.3595 13.5843V13.4344C34.9574 13.3097 34.5445 13.223 34.1263 13.1755C34.065 13.3663 34.0105 13.5571 33.9559 13.7547C33.5499 13.7274 33.1425 13.7274 32.7364 13.7547L32.5728 13.1755C32.1522 13.2223 31.737 13.309 31.3328 13.4344V13.5843C31.7037 13.4629 32.0844 13.374 32.4707 13.3186C32.5115 13.5366 32.566 13.7342 32.6274 13.925Z" fill="#003242"/>
<path d="M32.6274 14.8791C33.1085 14.8518 33.5907 14.8518 34.0718 14.8791L34.2353 14.2931C34.6136 14.3267 34.9892 14.3859 35.3595 14.4703V14.3204C34.9542 14.2226 34.5419 14.1565 34.1263 14.1228C34.065 14.3204 34.0105 14.518 33.9559 14.7087C33.5497 14.6883 33.1427 14.6883 32.7364 14.7087L32.5728 14.1228C32.155 14.156 31.7403 14.2221 31.3328 14.3204V14.4703C31.7031 14.3859 32.0787 14.3267 32.457 14.2931C32.5115 14.4907 32.566 14.6815 32.6274 14.8791Z" fill="#003242"/>
<path d="M32.6274 15.8327C33.1043 15.8327 33.588 15.8327 34.0718 15.8327L34.2353 15.2399C34.6237 15.2399 34.9984 15.3013 35.3595 15.3558V15.2059C34.951 15.1411 34.5393 15.0979 34.1263 15.0764C34.065 15.274 34.0105 15.4716 33.9559 15.6692C33.554 15.6692 33.1452 15.6692 32.7364 15.6692L32.5728 15.0764C32.1575 15.0975 31.7436 15.1408 31.3328 15.2059V15.3626C31.6939 15.3081 32.0687 15.274 32.457 15.2467C32.5115 15.4375 32.566 15.6351 32.6274 15.8327Z" fill="#003242"/>
<path d="M32.6274 16.7863H34.0718L34.2353 16.1867L35.3595 16.2344V16.0845C34.9643 16.0845 34.5487 16.0368 34.1263 16.0232C34.065 16.2208 34.0105 16.4252 33.9559 16.6228H32.7364L32.5728 16.0232C32.1436 16.0232 31.728 16.0232 31.3328 16.0845V16.2344L32.457 16.1867C32.5115 16.3843 32.566 16.5887 32.6274 16.7863Z" fill="#003242"/>
<path d="M32.6274 17.7404C33.1043 17.7404 33.588 17.7404 34.0718 17.7404L34.2353 17.134H35.3595V16.9841H34.1263C34.065 17.1817 34.0105 17.3861 33.9559 17.5837C33.554 17.5837 33.1452 17.5837 32.7364 17.5837L32.5728 16.9841H31.3328V17.134H32.457C32.5115 17.3384 32.566 17.536 32.6274 17.7404Z" fill="#003242"/>
<path d="M32.6274 18.6937C33.1043 18.6937 33.588 18.6937 34.0718 18.6937L34.2353 18.0874C34.6259 18.0874 35.0006 18.0601 35.3595 18.0056V17.8557C34.9643 17.8557 34.5487 17.917 34.1263 17.9307C34.065 18.1282 34.0105 18.3326 33.9559 18.537C33.554 18.537 33.1452 18.537 32.7364 18.537L32.5728 17.9307C32.1436 17.9307 31.728 17.8898 31.3328 17.8557V18.0056C31.6962 18.0419 32.0709 18.0692 32.457 18.0874C32.5115 18.2849 32.566 18.4893 32.6274 18.6937Z" fill="#003242"/>
<path d="M32.6274 19.6414C33.108 19.6823 33.5912 19.6823 34.0718 19.6414L34.2353 19.035C34.6237 19.035 34.9984 18.9532 35.3595 18.8851V18.7693C34.9512 18.8387 34.5396 18.8864 34.1263 18.9124C34.065 19.1168 34.0105 19.3212 33.9559 19.5256C33.5497 19.546 33.1427 19.546 32.7364 19.5256L32.5728 18.9124C32.1573 18.8868 31.7433 18.8391 31.3328 18.7693V18.9192C31.6939 18.9873 32.0687 19.035 32.457 19.0691C32.5115 19.2326 32.566 19.4506 32.6274 19.6414Z" fill="#003242"/>
<path d="M32.6274 20.5949C33.1073 20.6494 33.5919 20.6494 34.0718 20.5949L34.2353 19.9817C34.6149 19.9402 34.9907 19.8696 35.3595 19.7705V19.6206C34.9545 19.723 34.5422 19.7936 34.1263 19.8318C34.065 20.0362 34.0105 20.2406 33.9559 20.445C33.5501 20.4791 33.1422 20.4791 32.7364 20.445L32.5728 19.8318C32.1546 19.7942 31.74 19.7235 31.3328 19.6206V19.7705C31.7016 19.8696 32.0774 19.9402 32.457 19.9817C32.5115 20.1861 32.566 20.3905 32.6274 20.5949Z" fill="#003242"/>
<path d="M32.6274 21.549C33.1069 21.6103 33.5923 21.6103 34.0718 21.549L34.2353 20.929C34.6178 20.8738 34.9942 20.7825 35.3595 20.6565V20.5066C34.9587 20.639 34.5455 20.7303 34.1263 20.7791C34.065 20.9903 34.0105 21.1947 33.9559 21.3991C33.5508 21.4469 33.1415 21.4469 32.7364 21.3991L32.5728 20.7791C32.1512 20.7311 31.7357 20.6398 31.3328 20.5066V20.6565C31.6981 20.7825 32.0746 20.8738 32.457 20.929C32.5115 21.1334 32.566 21.3446 32.6274 21.549Z" fill="#003242"/>
<path d="M32.6274 22.5029C33.1059 22.5778 33.5932 22.5778 34.0718 22.5029L34.2353 21.8761C34.6221 21.8072 34.9995 21.6929 35.3595 21.5354V21.3855C34.9654 21.5549 34.5508 21.6717 34.1263 21.733C34.065 21.9442 34.0105 22.1486 33.9559 22.3598C33.5508 22.4075 33.1415 22.4075 32.7364 22.3598L32.5728 21.733C32.1459 21.6726 31.7289 21.5558 31.3328 21.3855V21.5354C31.6928 21.6929 32.0702 21.8072 32.457 21.8761C32.5115 22.0873 32.566 22.2917 32.6274 22.5029Z" fill="#003242"/>
<g style="mix-blend-mode:multiply" opacity="0.5">
<path d="M31.3328 12.637V11.6696C31.7256 11.4788 32.1429 11.3435 32.5728 11.2676L32.6137 11.4175C33.0991 11.342 33.5932 11.342 34.0786 11.4175L34.1263 11.2676C34.5537 11.3448 34.9686 11.48 35.3595 11.6696V12.637C34.0647 12.1326 32.6276 12.1326 31.3328 12.637Z" fill="#003242"/>
</g>
<g style="mix-blend-mode:multiply" opacity="0.5">
<path d="M35.3595 19.7502V21.9441C34.965 22.1336 34.545 22.2645 34.1127 22.3325L34.0718 22.5028C33.5932 22.5778 33.1059 22.5778 32.6274 22.5028L32.5797 22.3325C32.1476 22.2635 31.7277 22.1327 31.3328 21.9441V19.7502C32.6526 20.0976 34.0397 20.0976 35.3595 19.7502Z" fill="#003242"/>
</g>
<path d="M31.5236 38.0711C32.7294 37.8598 33.9628 37.8598 35.1687 38.0711C35.3588 38.1059 35.5308 38.2059 35.6552 38.3539C35.7795 38.5019 35.8484 38.6886 35.85 38.8818V44.5641C35.8511 44.7581 35.7832 44.9462 35.6584 45.0947C35.5335 45.2433 35.36 45.3426 35.1687 45.3749C33.9635 45.5933 32.7288 45.5933 31.5236 45.3749C31.3323 45.3426 31.1587 45.2433 31.0339 45.0947C30.9091 44.9462 30.8411 44.7581 30.8422 44.5641V38.8818C30.8438 38.6886 30.9127 38.5019 31.0371 38.3539C31.1614 38.2059 31.3334 38.1059 31.5236 38.0711Z" fill="#D6D6D6"/>
<path d="M31.3328 36.6609C31.9617 36.3613 32.6495 36.2058 33.3462 36.2058C34.0428 36.2058 34.7306 36.3613 35.3595 36.6609V46.7923C34.7289 47.0859 34.0418 47.2381 33.3462 47.2381C32.6506 47.2381 31.9634 47.0859 31.3328 46.7923V36.6609Z" fill="#004358"/>
<path d="M32.6274 36.8722C33.1064 36.8041 33.5927 36.8041 34.0718 36.8722C34.1263 36.6769 34.1808 36.4862 34.2353 36.2999C34.624 36.375 35.0017 36.4986 35.3595 36.6678V36.518C34.9686 36.3284 34.5537 36.1932 34.1263 36.116C34.065 36.3067 34.0105 36.4975 33.9559 36.6951C33.5508 36.6474 33.1415 36.6474 32.7364 36.6951L32.5728 36.116C32.1429 36.1919 31.7256 36.3272 31.3328 36.518V36.6678C31.6907 36.4986 32.0684 36.375 32.457 36.2999C32.5115 36.4839 32.566 36.6747 32.6274 36.8722Z" fill="#003242"/>
<path d="M32.6274 37.8461C33.1077 37.7985 33.5915 37.7985 34.0718 37.8461L34.2353 37.2738C34.6202 37.3342 34.9972 37.437 35.3595 37.5804V37.4305C34.9638 37.2686 34.5496 37.1565 34.1263 37.0967C34.065 37.2875 34.0105 37.4782 33.9559 37.6758C33.5504 37.6349 33.1419 37.6349 32.7364 37.6758L32.5728 37.0967C32.1472 37.1556 31.7306 37.2677 31.3328 37.4305V37.5804C31.6951 37.437 32.0721 37.3342 32.457 37.2738C32.5115 37.4373 32.566 37.6281 32.6274 37.8461Z" fill="#003242"/>
<path d="M32.6274 38.7726C33.108 38.7318 33.5912 38.7318 34.0718 38.7726L34.2353 38.1935C34.6161 38.2407 34.9922 38.3205 35.3595 38.432V38.2821C34.9576 38.1551 34.5448 38.0661 34.1263 38.0164C34.065 38.2139 34.0105 38.4047 33.9559 38.6023C33.5499 38.5751 33.1425 38.5751 32.7364 38.6023L32.5728 38.0164C32.152 38.0654 31.7368 38.1544 31.3328 38.2821V38.432C31.7001 38.3205 32.0762 38.2407 32.457 38.1935C32.5115 38.3843 32.566 38.5819 32.6274 38.7726Z" fill="#003242"/>
<path d="M32.6274 39.727C33.1085 39.6997 33.5907 39.6997 34.0718 39.727L34.2353 39.141C34.6136 39.1746 34.9892 39.2338 35.3595 39.3182V39.1683C34.9542 39.0705 34.5419 39.0044 34.1263 38.9707C34.065 39.1683 34.0105 39.3591 33.9559 39.5566C33.5497 39.5362 33.1427 39.5362 32.7364 39.5566L32.5728 38.9707C32.155 39.0039 31.7403 39.07 31.3328 39.1683V39.3182C31.7031 39.2338 32.0787 39.1746 32.457 39.141C32.5115 39.3386 32.566 39.5294 32.6274 39.727Z" fill="#003242"/>
<path d="M32.6274 40.6806C33.1043 40.6806 33.588 40.6806 34.0718 40.6806L34.2353 40.0878C34.6237 40.0878 34.9984 40.1492 35.3595 40.2037V40.0538C34.9514 39.9857 34.5396 39.9425 34.1263 39.9243C34.065 40.1219 34.0105 40.3195 33.9559 40.5171C33.554 40.5171 33.1452 40.5171 32.7364 40.5171L32.5728 39.9243C32.1573 39.9421 31.7431 39.9853 31.3328 40.0538V40.2037C31.6939 40.1492 32.0687 40.1151 32.457 40.0878C32.5115 40.2854 32.566 40.483 32.6274 40.6806Z" fill="#003242"/>
<path d="M32.6274 41.6347H34.0718L34.2353 41.0351L35.3595 41.0828V40.9329C34.9643 40.9329 34.5487 40.8852 34.1263 40.8716C34.065 41.0692 34.0105 41.2736 33.9559 41.4711H32.7364L32.5728 40.8716C32.1436 40.8716 31.728 40.8716 31.3328 40.9329V41.0828L32.457 41.0351C32.5115 41.2531 32.566 41.4303 32.6274 41.6347Z" fill="#003242"/>
<path d="M32.6274 42.6159C33.1043 42.6159 33.588 42.6159 34.0718 42.6159L34.2353 42.0095H35.3595V41.8596H34.1263C34.065 42.0572 34.0105 42.2616 33.9559 42.4592C33.554 42.4592 33.1452 42.4592 32.7364 42.4592L32.5728 41.8596H31.3328V42.0095H32.457C32.5115 42.1867 32.566 42.3842 32.6274 42.6159Z" fill="#003242"/>
<path d="M32.6274 43.5353C33.1085 43.5626 33.5907 43.5626 34.0718 43.5353L34.2353 42.9358C34.6259 42.9358 35.0006 42.9085 35.3595 42.854V42.7041C34.9643 42.7382 34.5487 42.7654 34.1263 42.779C34.065 42.9766 34.0105 43.181 33.9559 43.3786C33.5497 43.3991 33.1427 43.3991 32.7364 43.3786L32.5728 42.779C32.1436 42.779 31.728 42.7382 31.3328 42.7041V42.854C31.6962 42.8903 32.0709 42.9176 32.457 42.9358C32.5115 43.1333 32.566 43.3377 32.6274 43.5353Z" fill="#003242"/>
<path d="M32.6274 44.4894C33.108 44.5303 33.5912 44.5303 34.0718 44.4894L34.2353 43.883C34.6237 43.883 34.9984 43.8013 35.3595 43.7331V43.5833C34.9512 43.6526 34.5396 43.7004 34.1263 43.7263C34.065 43.9307 34.0105 44.1351 33.9559 44.3395C33.5497 44.36 33.1427 44.36 32.7364 44.3395L32.5728 43.7263C32.1573 43.7008 31.7433 43.653 31.3328 43.5833V43.7331C31.6939 43.8013 32.0687 43.849 32.457 43.883C32.5115 44.0806 32.566 44.285 32.6274 44.4894Z" fill="#003242"/>
<path d="M32.6274 45.4428C33.1073 45.4973 33.5919 45.4973 34.0718 45.4428L34.2353 44.8296C34.6149 44.7881 34.9907 44.7175 35.3595 44.6184V44.4685C34.9545 44.5709 34.5422 44.6415 34.1263 44.6797C34.065 44.8841 34.0105 45.0885 33.9559 45.2929C33.5501 45.327 33.1422 45.327 32.7364 45.2929L32.5728 44.6797C32.1546 44.6421 31.74 44.5714 31.3328 44.4685V44.6184C31.7016 44.7175 32.0774 44.7881 32.457 44.8296C32.5115 45.034 32.566 45.2384 32.6274 45.4428Z" fill="#003242"/>
<path d="M32.6274 46.3969C33.1069 46.4582 33.5923 46.4582 34.0718 46.3969L34.2353 45.7769C34.6178 45.7217 34.9942 45.6304 35.3595 45.5043V45.3408C34.9587 45.4733 34.5455 45.5646 34.1263 45.6134C34.065 45.8246 34.0105 46.029 33.9559 46.2334C33.5508 46.2811 33.1415 46.2811 32.7364 46.2334L32.5728 45.6134C32.1512 45.5653 31.7357 45.474 31.3328 45.3408V45.4907C31.6981 45.6168 32.0746 45.708 32.457 45.7632C32.5115 45.9813 32.566 46.1925 32.6274 46.3969Z" fill="#003242"/>
<path d="M32.6274 47.3847C33.1059 47.4597 33.5932 47.4597 34.0718 47.3847L34.2353 46.7579C34.6221 46.6891 34.9995 46.5747 35.3595 46.4172V46.2673C34.9654 46.4367 34.5508 46.5536 34.1263 46.6148C34.065 46.826 34.0105 47.0304 33.9559 47.2416C33.5508 47.2894 33.1415 47.2894 32.7364 47.2416L32.5728 46.6148C32.1459 46.5545 31.7289 46.4376 31.3328 46.2673V46.4172C31.6928 46.5747 32.0702 46.6891 32.457 46.7579C32.5115 46.935 32.566 47.1394 32.6274 47.3847Z" fill="#003242"/>
<g style="mix-blend-mode:multiply" opacity="0.5">
<path d="M31.3328 37.5127V36.518C31.7256 36.3272 32.1429 36.1919 32.5728 36.116L32.6137 36.2659C33.0991 36.1904 33.5932 36.1904 34.0786 36.2659L34.1263 36.116C34.5537 36.1932 34.9686 36.3284 35.3595 36.518V37.5127C34.0647 37.0082 32.6276 37.0082 31.3328 37.5127Z" fill="#003242"/>
</g>
<g style="mix-blend-mode:multiply" opacity="0.5">
<path d="M35.3595 44.5981V46.792C34.965 46.9815 34.545 47.1124 34.1127 47.1804L34.0718 47.3507C33.5932 47.4257 33.1059 47.4257 32.6274 47.3507L32.5797 47.1804C32.1476 47.1113 31.7277 46.9806 31.3328 46.792V44.5981C32.6526 44.9455 34.0397 44.9455 35.3595 44.5981Z" fill="#003242"/>
</g>
<path d="M31.7486 7.02344H5.09497V50.7511H31.7486V7.02344Z" fill="#102030"/>
<path d="M33.4448 8.85547H3.40497V48.9176H33.4448V8.85547Z" fill="#0A7992"/>
<path d="M27.9943 8.85547H8.85577V48.9176H27.9943V8.85547Z" fill="#00CAF6"/>
<path d="M7.6837 15.7984C7.6837 14.7561 6.84027 13.9111 5.79984 13.9111C4.7594 13.9111 3.91595 14.7561 3.91595 15.7984V19.1914C3.91595 20.2338 4.7594 21.0787 5.79984 21.0787C6.84027 21.0787 7.6837 20.2338 7.6837 19.1914V15.7984Z" fill="#2CA3E8"/>
<path d="M7.6837 27.19C7.6837 26.1477 6.84027 25.3027 5.79984 25.3027C4.7594 25.3027 3.91595 26.1477 3.91595 27.19V30.583C3.91595 31.6254 4.7594 32.4703 5.79984 32.4703C6.84027 32.4703 7.6837 31.6254 7.6837 30.583V27.19Z" fill="#2CA3E8"/>
<path d="M7.6837 38.5824C7.6837 37.54 6.84027 36.6951 5.79984 36.6951C4.7594 36.6951 3.91595 37.54 3.91595 38.5824V41.9754C3.91595 43.0177 4.7594 43.8627 5.79984 43.8627C6.84027 43.8627 7.6837 43.0177 7.6837 41.9754V38.5824Z" fill="#2CA3E8"/>
<path d="M32.9269 15.7984C32.9269 14.7561 32.0834 13.9111 31.043 13.9111C30.0025 13.9111 29.1591 14.7561 29.1591 15.7984V19.1914C29.1591 20.2338 30.0025 21.0787 31.043 21.0787C32.0834 21.0787 32.9269 20.2338 32.9269 19.1914V15.7984Z" fill="#2CA3E8"/>
<path d="M32.9269 27.19C32.9269 26.1477 32.0834 25.3027 31.043 25.3027C30.0025 25.3027 29.1591 26.1477 29.1591 27.19V30.583C29.1591 31.6254 30.0025 32.4703 31.043 32.4703C32.0834 32.4703 32.9269 31.6254 32.9269 30.583V27.19Z" fill="#2CA3E8"/>
<path d="M32.9269 38.5824C32.9269 37.54 32.0834 36.6951 31.043 36.6951C30.0025 36.6951 29.1591 37.54 29.1591 38.5824V41.9754C29.1591 43.0177 30.0025 43.8627 31.043 43.8627C32.0834 43.8627 32.9269 43.0177 32.9269 41.9754V38.5824Z" fill="#2CA3E8"/>
<g style="mix-blend-mode:overlay">
<path d="M4.14752 20.0771C4.30531 20.3802 4.54298 20.6343 4.8348 20.812C5.12661 20.9898 5.46147 21.0843 5.80315 21.0855C6.30368 21.0855 6.78374 20.8866 7.13767 20.5327C7.49161 20.1787 7.69044 19.6987 7.69044 19.1982V16.5342L4.14752 20.0771Z" fill="#2CA3E8"/>
<path d="M4.3999 31.837C4.5756 32.036 4.79161 32.1954 5.03357 32.3046C5.27554 32.4139 5.53795 32.4704 5.80344 32.4706C6.3028 32.4706 6.78181 32.2727 7.13555 31.9202C7.48929 31.5678 7.68893 31.0895 7.69073 30.5901V28.5461L4.3999 31.837Z" fill="#2CA3E8"/>
<path d="M5.95318 25.3164H5.80329C5.30275 25.3164 4.82272 25.5152 4.46878 25.8692C4.11485 26.2231 3.91602 26.7031 3.91602 27.2037V27.374L5.95318 25.3164Z" fill="#2CA3E8"/>
<path d="M3.91602 41.9679C3.91602 42.4684 4.11485 42.9485 4.46878 43.3024C4.82272 43.6563 5.30275 43.8552 5.80329 43.8552C6.30383 43.8552 6.78388 43.6563 7.13781 43.3024C7.49175 42.9485 7.69058 42.4684 7.69058 41.9679V38.5612C7.6901 38.4581 7.67867 38.3553 7.6565 38.2546C6.41649 39.5037 5.16966 40.7415 3.91602 41.9679Z" fill="#2CA3E8"/>
</g>
<g style="mix-blend-mode:overlay">
<path d="M32.9201 15.6962C32.8957 15.2154 32.6878 14.7622 32.3392 14.4301C31.9906 14.098 31.5279 13.9123 31.0464 13.9111C30.5459 13.9111 30.0659 14.11 29.7119 14.4639C29.358 14.8178 29.1592 15.2979 29.1592 15.7984V19.2051C29.1521 19.2821 29.1521 19.3597 29.1592 19.4367L32.9201 15.6962Z" fill="#2CA3E8"/>
<path d="M32.7363 26.3659C32.5821 26.0485 32.3421 25.7806 32.0435 25.5927C31.7448 25.4049 31.3994 25.3045 31.0466 25.303C30.546 25.303 30.066 25.5018 29.7121 25.8558C29.3581 26.2097 29.1593 26.6897 29.1593 27.1903V29.9156L32.7363 26.3659Z" fill="#2CA3E8"/>
<path d="M31.2034 43.8488C31.6445 43.8117 32.0583 43.6196 32.3713 43.3066C32.6843 42.9936 32.8764 42.5798 32.9135 42.1387L31.2034 43.8488Z" fill="#2CA3E8"/>
<path d="M32.5932 37.5059C32.4202 37.2557 32.1891 37.0513 31.9197 36.91C31.6503 36.7688 31.3507 36.6951 31.0466 36.6951C30.546 36.6951 30.066 36.8939 29.7121 37.2478C29.3581 37.6018 29.1593 38.0818 29.1593 38.5824V40.9329L32.5932 37.5059Z" fill="#2CA3E8"/>
</g>
<path d="M24.1924 46.8875H26.1751C26.2637 46.8875 26.3486 46.9226 26.4112 46.9852C26.4738 47.0478 26.509 47.1328 26.509 47.2213C26.509 47.3098 26.4738 47.3948 26.4112 47.4574C26.3486 47.52 26.2637 47.5552 26.1751 47.5552H24.1924C24.1039 47.5552 24.019 47.52 23.9564 47.4574C23.8938 47.3948 23.8586 47.3098 23.8586 47.2213C23.8586 47.1328 23.8938 47.0478 23.9564 46.9852C24.019 46.9226 24.1039 46.8875 24.1924 46.8875Z" fill="#004358"/>
<path d="M21.1265 46.8875H23.1091C23.1977 46.8875 23.2826 46.9226 23.3452 46.9852C23.4078 47.0478 23.443 47.1328 23.443 47.2213C23.443 47.3098 23.4078 47.3948 23.3452 47.4574C23.2826 47.52 23.1977 47.5552 23.1091 47.5552H21.1265C21.0379 47.5552 20.953 47.52 20.8904 47.4574C20.8278 47.3948 20.7926 47.3098 20.7926 47.2213C20.7926 47.1328 20.8278 47.0478 20.8904 46.9852C20.953 46.9226 21.0379 46.8875 21.1265 46.8875Z" fill="#004358"/>
<path d="M24.1924 45.6746H26.1751C26.2186 45.6737 26.2619 45.6815 26.3023 45.6975C26.3428 45.7136 26.3797 45.7375 26.4108 45.768C26.4419 45.7984 26.4666 45.8348 26.4834 45.8749C26.5003 45.9151 26.509 45.9581 26.509 46.0017C26.509 46.0902 26.4738 46.1751 26.4112 46.2377C26.3486 46.3003 26.2637 46.3355 26.1751 46.3355H24.1924C24.1039 46.3355 24.019 46.3003 23.9564 46.2377C23.8938 46.1751 23.8586 46.0902 23.8586 46.0017C23.8586 45.9581 23.8673 45.9151 23.8841 45.8749C23.901 45.8348 23.9257 45.7984 23.9568 45.768C23.9879 45.7375 24.0247 45.7136 24.0652 45.6975C24.1057 45.6815 24.1489 45.6737 24.1924 45.6746Z" fill="#004358"/>
<path d="M21.1265 45.6746H23.1091C23.1527 45.6737 23.1959 45.6815 23.2364 45.6975C23.2768 45.7136 23.3137 45.7375 23.3448 45.768C23.3759 45.7984 23.4006 45.8348 23.4174 45.8749C23.4343 45.9151 23.443 45.9581 23.443 46.0017C23.443 46.0902 23.4078 46.1751 23.3452 46.2377C23.2826 46.3003 23.1977 46.3355 23.1091 46.3355H21.1265C21.0379 46.3355 20.953 46.3003 20.8904 46.2377C20.8278 46.1751 20.7926 46.0902 20.7926 46.0017C20.7926 45.9581 20.8013 45.9151 20.8181 45.8749C20.835 45.8348 20.8597 45.7984 20.8908 45.768C20.9219 45.7375 20.9587 45.7136 20.9992 45.6975C21.0397 45.6815 21.083 45.6737 21.1265 45.6746Z" fill="#004358"/>
<path d="M24.1924 44.4553H26.1751C26.2637 44.4553 26.3486 44.4905 26.4112 44.5531C26.4738 44.6157 26.509 44.7006 26.509 44.7892C26.509 44.8327 26.5003 44.8758 26.4834 44.9159C26.4666 44.9561 26.4419 44.9924 26.4108 45.0229C26.3797 45.0533 26.3428 45.0773 26.3023 45.0933C26.2619 45.1093 26.2186 45.1171 26.1751 45.1162H24.1924C24.1489 45.1171 24.1057 45.1093 24.0652 45.0933C24.0247 45.0773 23.9879 45.0533 23.9568 45.0229C23.9257 44.9924 23.901 44.9561 23.8841 44.9159C23.8673 44.8758 23.8586 44.8327 23.8586 44.7892C23.8586 44.7006 23.8938 44.6157 23.9564 44.5531C24.019 44.4905 24.1039 44.4553 24.1924 44.4553Z" fill="#004358"/>
<path d="M21.1265 44.4553H23.1091C23.1977 44.4553 23.2826 44.4905 23.3452 44.5531C23.4078 44.6157 23.443 44.7006 23.443 44.7892C23.443 44.8327 23.4343 44.8758 23.4174 44.9159C23.4006 44.9561 23.3759 44.9924 23.3448 45.0229C23.3137 45.0533 23.2768 45.0773 23.2364 45.0933C23.1959 45.1093 23.1527 45.1171 23.1091 45.1162H21.1265C21.083 45.1171 21.0397 45.1093 20.9992 45.0933C20.9587 45.0773 20.9219 45.0533 20.8908 45.0229C20.8597 44.9924 20.835 44.9561 20.8181 44.9159C20.8013 44.8758 20.7926 44.8327 20.7926 44.7892C20.7926 44.7006 20.8278 44.6157 20.8904 44.5531C20.953 44.4905 21.0379 44.4553 21.1265 44.4553Z" fill="#004358"/>
<path d="M12.6575 46.8875H10.668C10.5807 46.8892 10.4975 46.9252 10.4364 46.9876C10.3752 47.05 10.341 47.1339 10.341 47.2213C10.341 47.3087 10.3752 47.3926 10.4364 47.455C10.4975 47.5174 10.5807 47.5534 10.668 47.5552H12.6575C12.7461 47.5552 12.831 47.52 12.8936 47.4574C12.9562 47.3948 12.9914 47.3098 12.9914 47.2213C12.9914 47.1328 12.9562 47.0478 12.8936 46.9852C12.831 46.9226 12.7461 46.8875 12.6575 46.8875Z" fill="#004358"/>
<path d="M15.7235 46.8875H13.7408C13.6523 46.8875 13.5674 46.9226 13.5048 46.9852C13.4422 47.0478 13.407 47.1328 13.407 47.2213C13.407 47.3098 13.4422 47.3948 13.5048 47.4574C13.5674 47.52 13.6523 47.5552 13.7408 47.5552H15.7235C15.8121 47.5552 15.897 47.52 15.9596 47.4574C16.0222 47.3948 16.0574 47.3098 16.0574 47.2213C16.0574 47.1328 16.0222 47.0478 15.9596 46.9852C15.897 46.9226 15.8121 46.8875 15.7235 46.8875Z" fill="#004358"/>
<path d="M12.6575 45.6746H10.668C10.5813 45.6746 10.4981 45.7091 10.4368 45.7704C10.3755 45.8318 10.341 45.9149 10.341 46.0017C10.341 46.089 10.3752 46.1729 10.4364 46.2354C10.4975 46.2978 10.5807 46.3337 10.668 46.3355H12.6575C12.7461 46.3355 12.831 46.3003 12.8936 46.2377C12.9562 46.1751 12.9914 46.0902 12.9914 46.0017C12.9914 45.9581 12.9827 45.9151 12.9658 45.8749C12.949 45.8348 12.9243 45.7984 12.8932 45.768C12.8621 45.7375 12.8252 45.7136 12.7848 45.6975C12.7443 45.6815 12.7011 45.6737 12.6575 45.6746Z" fill="#004358"/>
<path d="M15.7235 45.6746H13.7408C13.6973 45.6737 13.6541 45.6815 13.6136 45.6975C13.5731 45.7136 13.5363 45.7375 13.5052 45.768C13.4741 45.7984 13.4494 45.8348 13.4325 45.8749C13.4157 45.9151 13.407 45.9581 13.407 46.0017C13.407 46.0902 13.4422 46.1751 13.5048 46.2377C13.5674 46.3003 13.6523 46.3355 13.7408 46.3355H15.7235C15.8121 46.3355 15.897 46.3003 15.9596 46.2377C16.0222 46.1751 16.0574 46.0902 16.0574 46.0017C16.0574 45.9581 16.0487 45.9151 16.0318 45.8749C16.015 45.8348 15.9903 45.7984 15.9592 45.768C15.9281 45.7375 15.8912 45.7136 15.8507 45.6975C15.8103 45.6815 15.767 45.6737 15.7235 45.6746Z" fill="#004358"/>
<path d="M12.6575 44.4553H10.668C10.5807 44.4571 10.4975 44.4931 10.4364 44.5555C10.3752 44.6179 10.341 44.7018 10.341 44.7892C10.341 44.8759 10.3755 44.9591 10.4368 45.0204C10.4981 45.0818 10.5813 45.1162 10.668 45.1162H12.6575C12.7011 45.1171 12.7443 45.1093 12.7848 45.0933C12.8252 45.0773 12.8621 45.0533 12.8932 45.0229C12.9243 44.9924 12.949 44.9561 12.9658 44.9159C12.9827 44.8758 12.9914 44.8327 12.9914 44.7892C12.9914 44.7006 12.9562 44.6157 12.8936 44.5531C12.831 44.4905 12.7461 44.4553 12.6575 44.4553Z" fill="#004358"/>
<path d="M15.7235 44.4553H13.7408C13.6523 44.4553 13.5674 44.4905 13.5048 44.5531C13.4422 44.6157 13.407 44.7006 13.407 44.7892C13.407 44.8327 13.4157 44.8758 13.4325 44.9159C13.4494 44.9561 13.4741 44.9924 13.5052 45.0229C13.5363 45.0533 13.5731 45.0773 13.6136 45.0933C13.6541 45.1093 13.6973 45.1171 13.7408 45.1162H15.7235C15.767 45.1171 15.8103 45.1093 15.8507 45.0933C15.8912 45.0773 15.9281 45.0533 15.9592 45.0229C15.9903 44.9924 16.015 44.9561 16.0318 44.9159C16.0487 44.8758 16.0574 44.8327 16.0574 44.7892C16.0574 44.7006 16.0222 44.6157 15.9596 44.5531C15.897 44.4905 15.8121 44.4553 15.7235 44.4553Z" fill="#004358"/>
<path d="M29.1196 7.4672H7.96602C7.71912 7.46979 7.4754 7.41138 7.25649 7.29715C7.03758 7.18293 6.85027 7.01642 6.71117 6.81241C6.57208 6.6084 6.4855 6.3732 6.45914 6.1277C6.43277 5.88219 6.46743 5.63398 6.56004 5.40508L7.26115 3.62417C7.48026 3.07037 7.86102 2.59536 8.35387 2.261C8.84672 1.92664 9.42883 1.74841 10.0244 1.74952H27.0612C27.6568 1.74841 28.2389 1.92664 28.7317 2.261C29.2246 2.59536 29.6053 3.07037 29.8244 3.62417L30.5256 5.40508C30.6182 5.63398 30.6528 5.88219 30.6265 6.1277C30.6001 6.3732 30.5135 6.6084 30.3744 6.81241C30.2353 7.01642 30.048 7.18293 29.8291 7.29715C29.6102 7.41138 29.3665 7.46979 29.1196 7.4672Z" fill="#00CAF6"/>
<path d="M13.949 1.85859C13.949 2.0863 13.8586 2.30469 13.6976 2.4657C13.5366 2.62672 13.3182 2.71718 13.0905 2.71718H9.93355C9.82066 2.71768 9.70879 2.69581 9.60439 2.65283C9.5 2.60986 9.40515 2.54664 9.32533 2.46681C9.2455 2.38698 9.18228 2.29214 9.1393 2.18774C9.09633 2.08335 9.07446 1.97148 9.07496 1.85859C9.07496 1.63088 9.16542 1.41249 9.32643 1.25147C9.48745 1.09046 9.70584 1 9.93355 1H13.0905C13.3179 1.00099 13.5357 1.09176 13.6965 1.25256C13.8573 1.41337 13.9481 1.63118 13.949 1.85859Z" fill="#CFD8DC"/>
<path d="M27.4464 1.85859C27.4464 2.0863 27.356 2.30469 27.1949 2.4657C27.0339 2.62672 26.8155 2.71718 26.5878 2.71718H23.4309C23.318 2.71768 23.2062 2.69581 23.1018 2.65283C22.9974 2.60986 22.9025 2.54664 22.8227 2.46681C22.7429 2.38698 22.6797 2.29214 22.6367 2.18774C22.5937 2.08335 22.5718 1.97148 22.5723 1.85859C22.5723 1.63088 22.6628 1.41249 22.8238 1.25147C22.9848 1.09046 23.2032 1 23.4309 1H26.5878C26.8152 1.00099 27.0331 1.09176 27.1939 1.25256C27.3547 1.41337 27.4454 1.63118 27.4464 1.85859Z" fill="#CFD8DC"/>
</g>
<defs>
<filter id="filter0_d_30_367" x="0" y="0" width="42.85" height="57.7512" filterUnits="userSpaceOnUse" color-interpolation-filters="sRGB">
<feFlood flood-opacity="0" result="BackgroundImageFix"/>
<feColorMatrix in="SourceAlpha" type="matrix" values="0 0 0 0 0 0 0 0 0 0 0 0 0 0 0 0 0 0 127 0" result="hardAlpha"/>
<feOffset dx="3" dy="3"/>
<feGaussianBlur stdDeviation="2"/>
<feComposite in2="hardAlpha" operator="out"/>
<feColorMatrix type="matrix" values="0 0 0 0 0 0 0 0 0 0 0 0 0 0 0 0 0 0 0.25 0"/>
<feBlend mode="normal" in2="BackgroundImageFix" result="effect1_dropShadow_30_367"/>
<feBlend mode="normal" in="SourceGraphic" in2="effect1_dropShadow_30_367" result="shape"/>
</filter>
</defs>
</svg>
