<svg width="43" height="58" viewBox="0 0 43 58" fill="none" xmlns="http://www.w3.org/2000/svg">
<g filter="url(#filter0_d_30_267)">
<path d="M5.32646 13.2232C4.12061 13.0119 2.8872 13.0119 1.68135 13.2232C1.48949 13.257 1.3158 13.3576 1.19108 13.5073C1.06636 13.6569 0.998674 13.8459 1.00002 14.0407V19.7162C0.998923 19.9102 1.06685 20.0983 1.19166 20.2468C1.31648 20.3954 1.49005 20.4947 1.68135 20.527C2.88657 20.7454 4.12124 20.7454 5.32646 20.527C5.51776 20.4947 5.69133 20.3954 5.81615 20.2468C5.94096 20.0983 6.00889 19.9102 6.00779 19.7162V14.0407C6.00779 13.8463 5.93961 13.658 5.81513 13.5086C5.69064 13.3592 5.51773 13.2582 5.32646 13.2232Z" fill="#D6D6D6"/>
<path d="M5.5175 11.8125C4.88862 11.5129 4.20078 11.3574 3.50416 11.3574C2.80755 11.3574 2.11973 11.5129 1.49084 11.8125V21.9439C2.11973 22.2435 2.80755 22.399 3.50416 22.399C4.20078 22.399 4.88862 22.2435 5.5175 21.9439V11.8125Z" fill="#004358"/>
<path d="M4.22298 12.0239C3.74392 11.9557 3.25763 11.9557 2.77857 12.0239L2.61503 11.4515C2.22636 11.5266 1.84867 11.6502 1.49084 11.8195V11.6696C1.88169 11.48 2.29659 11.3448 2.72405 11.2676C2.78537 11.4584 2.83987 11.6491 2.89438 11.8467C3.29723 11.799 3.7043 11.799 4.10715 11.8467C4.16846 11.6491 4.22297 11.4584 4.27748 11.2676C4.70744 11.3435 5.12477 11.4788 5.5175 11.6696V11.8195C5.15928 11.6512 4.78172 11.5276 4.39331 11.4515C4.33881 11.6423 4.2843 11.8263 4.22298 12.0239Z" fill="#003242"/>
<path d="M4.22298 12.9709C3.74269 12.9232 3.25886 12.9232 2.77857 12.9709L2.61503 12.3986C2.23013 12.4589 1.8531 12.5618 1.49084 12.7052V12.5553C1.88651 12.3934 2.30075 12.2812 2.72405 12.2214C2.78537 12.4122 2.83987 12.603 2.89438 12.8006C3.2976 12.7597 3.70392 12.7597 4.10715 12.8006C4.16846 12.603 4.22297 12.4122 4.27748 12.2214C4.70317 12.2803 5.11978 12.3925 5.5175 12.5553V12.7052C5.15495 12.5626 4.77802 12.4599 4.39331 12.3986C4.33881 12.5894 4.2843 12.7801 4.22298 12.9709Z" fill="#003242"/>
<path d="M4.22298 13.925C3.74238 13.8841 3.25917 13.8841 2.77857 13.925L2.61503 13.3459C2.23418 13.3931 1.85808 13.4729 1.49084 13.5843V13.4344C1.89289 13.3097 2.30578 13.223 2.72405 13.1755C2.78537 13.3663 2.83987 13.5571 2.89438 13.7547C3.29818 13.7274 3.70335 13.7274 4.10715 13.7547C4.16846 13.5571 4.22297 13.3663 4.27748 13.1755C4.69809 13.2223 5.11331 13.309 5.5175 13.4344V13.5843C5.15009 13.4736 4.77405 13.3938 4.39331 13.3459C4.33881 13.5366 4.2843 13.7342 4.22298 13.925Z" fill="#003242"/>
<path d="M4.22298 14.8791C3.74189 14.8518 3.25965 14.8518 2.77857 14.8791L2.61503 14.2931C2.23673 14.3267 1.86115 14.3859 1.49084 14.4703V14.3204C1.89616 14.2226 2.30847 14.1565 2.72405 14.1228C2.78537 14.3204 2.83987 14.518 2.89438 14.7087C3.29838 14.6883 3.70315 14.6883 4.10715 14.7087C4.16846 14.518 4.22297 14.3204 4.27748 14.1228C4.69536 14.156 5.10999 14.2221 5.5175 14.3204V14.4703C5.1471 14.3865 4.77155 14.3273 4.39331 14.2931C4.33881 14.4907 4.2843 14.6815 4.22298 14.8791Z" fill="#003242"/>
<path d="M4.22298 15.8327C3.74605 15.8327 3.2555 15.8327 2.77857 15.8327L2.61503 15.2399C2.22668 15.2399 1.85195 15.3013 1.49084 15.3558V15.2059C1.89936 15.1411 2.31099 15.0979 2.72405 15.0764C2.78537 15.274 2.83987 15.4716 2.89438 15.6692C3.29636 15.6692 3.70516 15.6692 4.10715 15.6692C4.16846 15.4716 4.22297 15.274 4.27748 15.0764C4.69282 15.0975 5.10675 15.1408 5.5175 15.2059V15.3626C5.1564 15.3081 4.77486 15.274 4.39331 15.2467C4.33881 15.4375 4.2843 15.6351 4.22298 15.8327Z" fill="#003242"/>
<path d="M4.22298 16.7863H2.77857L2.61503 16.1867L1.49084 16.2344V16.0845C1.88602 16.0845 2.30162 16.0368 2.72405 16.0232C2.78537 16.2208 2.83987 16.4252 2.89438 16.6228H4.10715C4.16846 16.4252 4.22297 16.2208 4.27748 16.0232C4.70671 16.0232 5.12233 16.0232 5.5175 16.0845V16.2344L4.39331 16.1867C4.33881 16.3843 4.2843 16.5887 4.22298 16.7863Z" fill="#003242"/>
<path d="M4.22298 17.7404C3.74605 17.7404 3.2555 17.7404 2.77857 17.7404L2.61503 17.134H1.49084V16.9841H2.72405C2.78537 17.1817 2.83987 17.3861 2.89438 17.5837C3.29636 17.5837 3.70516 17.5837 4.10715 17.5837C4.16846 17.3861 4.22297 17.1817 4.27748 16.9841H5.5175V17.134H4.39331C4.33881 17.3384 4.2843 17.536 4.22298 17.7404Z" fill="#003242"/>
<path d="M4.22298 18.6937C3.74605 18.6937 3.2555 18.6937 2.77857 18.6937L2.61503 18.0874C2.22895 18.0874 1.85422 18.0601 1.49084 18.0056V17.8557C1.88602 17.8557 2.30162 17.917 2.72405 17.9307C2.78537 18.1282 2.83987 18.3326 2.89438 18.537C3.29636 18.537 3.70516 18.537 4.10715 18.537C4.16846 18.3326 4.22297 18.1282 4.27748 17.9307C4.70671 17.9307 5.12233 17.8898 5.5175 17.8557V18.0056C5.1564 18.0397 4.77486 18.0669 4.39331 18.0874C4.33881 18.2849 4.2843 18.4893 4.22298 18.6937Z" fill="#003242"/>
<path d="M4.22298 19.6414C3.74238 19.6823 3.25917 19.6823 2.77857 19.6414L2.61503 19.035C2.22668 19.035 1.85195 18.9532 1.49084 18.8851V18.7693C1.89911 18.8387 2.31075 18.8864 2.72405 18.9124C2.78537 19.1168 2.83987 19.3212 2.89438 19.5256C3.29838 19.546 3.70315 19.546 4.10715 19.5256C4.16846 19.3212 4.22297 19.1168 4.27748 18.9124C4.69307 18.8868 5.10701 18.8391 5.5175 18.7693V18.9192C5.1564 18.9873 4.77486 19.035 4.39331 19.0691C4.33881 19.2326 4.2843 19.4506 4.22298 19.6414Z" fill="#003242"/>
<path d="M4.22298 20.5949C3.74305 20.6494 3.2585 20.6494 2.77857 20.5949L2.61503 19.9817C2.23545 19.9402 1.85961 19.8696 1.49084 19.7705V19.6206C1.8958 19.723 2.30811 19.7936 2.72405 19.8318C2.78537 20.0362 2.83987 20.2406 2.89438 20.445C3.29792 20.4791 3.70361 20.4791 4.10715 20.445C4.16846 20.2406 4.22297 20.0362 4.27748 19.8318C4.69573 19.7942 5.11036 19.7235 5.5175 19.6206V19.7705C5.14859 19.869 4.77281 19.9396 4.39331 19.9817C4.33881 20.1861 4.2843 20.3905 4.22298 20.5949Z" fill="#003242"/>
<path d="M4.22298 21.549C3.74346 21.6103 3.25809 21.6103 2.77857 21.549L2.61503 20.929C2.23255 20.8738 1.85615 20.7825 1.49084 20.6565V20.5066C1.8916 20.639 2.3048 20.7303 2.72405 20.7791C2.78537 20.9903 2.83987 21.1947 2.89438 21.3991C3.29723 21.4468 3.7043 21.4468 4.10715 21.3991C4.16846 21.1947 4.22297 20.9903 4.27748 20.7791C4.69908 20.7311 5.11461 20.6398 5.5175 20.5066V20.6565C5.15193 20.7816 4.77561 20.8729 4.39331 20.929C4.33881 21.1334 4.2843 21.3446 4.22298 21.549Z" fill="#003242"/>
<path d="M4.22298 22.5029C3.74443 22.5778 3.25712 22.5778 2.77857 22.5029L2.61503 21.8761C2.22818 21.8072 1.85083 21.6929 1.49084 21.5354V21.3855C1.8849 21.5549 2.29952 21.6717 2.72405 21.733C2.78537 21.9442 2.83987 22.1486 2.89438 22.3598C3.29723 22.4075 3.7043 22.4075 4.10715 22.3598C4.16846 22.1486 4.22297 21.9442 4.27748 21.733C4.70439 21.6726 5.12139 21.5558 5.5175 21.3855V21.5354C5.15717 21.692 4.77994 21.8063 4.39331 21.8761C4.33881 22.0873 4.2843 22.2917 4.22298 22.5029Z" fill="#003242"/>
<g style="mix-blend-mode:multiply" opacity="0.5">
<path d="M5.5175 12.637V11.6696C5.12477 11.4788 4.70744 11.3435 4.27748 11.2676L4.2366 11.4175C3.75123 11.342 3.25712 11.342 2.77175 11.4175L2.72405 11.2676C2.29659 11.3448 1.88169 11.48 1.49084 11.6696V12.637C2.78566 12.1326 4.22268 12.1326 5.5175 12.637Z" fill="#003242"/>
</g>
<g style="mix-blend-mode:multiply" opacity="0.5">
<path d="M1.49084 19.7502V21.9441C1.88531 22.1336 2.30535 22.2645 2.73767 22.3325L2.77857 22.5028C3.25712 22.5778 3.74443 22.5778 4.22298 22.5028L4.27066 22.3325C4.70273 22.2635 5.12265 22.1327 5.5175 21.9441V19.7502C4.19775 20.0976 2.81059 20.0976 1.49084 19.7502Z" fill="#003242"/>
</g>
<path d="M5.32646 38.0711C4.1206 37.8598 2.88719 37.8598 1.68134 38.0711C1.49064 38.1047 1.31786 38.2043 1.19328 38.3526C1.0687 38.5008 1.00028 38.6882 1.00001 38.8818V44.5641C0.998917 44.7581 1.06684 44.9462 1.19166 45.0947C1.31647 45.2433 1.49004 45.3426 1.68134 45.3749C2.88656 45.5933 4.12124 45.5933 5.32646 45.3749C5.51775 45.3426 5.69132 45.2433 5.81614 45.0947C5.94096 44.9462 6.00888 44.7581 6.00778 44.5641V38.8818C6.0062 38.6886 5.93731 38.5019 5.81296 38.3539C5.68861 38.2059 5.51657 38.1059 5.32646 38.0711Z" fill="#D6D6D6"/>
<path d="M5.5175 36.6609C4.88862 36.3613 4.20078 36.2058 3.50416 36.2058C2.80755 36.2058 2.11973 36.3613 1.49084 36.6609V46.7923C2.12142 47.0859 2.80857 47.2381 3.50416 47.2381C4.19975 47.2381 4.88693 47.0859 5.5175 46.7923V36.6609Z" fill="#004358"/>
<path d="M4.22298 36.8722C3.74392 36.8041 3.25763 36.8041 2.77857 36.8722L2.61503 36.2999C2.22636 36.375 1.84867 36.4986 1.49084 36.6678V36.518C1.88169 36.3284 2.29659 36.1932 2.72405 36.116C2.78537 36.3067 2.83987 36.4975 2.89438 36.6951C3.29723 36.6474 3.7043 36.6474 4.10715 36.6951C4.16846 36.4975 4.22297 36.3067 4.27748 36.116C4.70744 36.1919 5.12477 36.3272 5.5175 36.518V36.6678C5.15928 36.4995 4.78172 36.376 4.39331 36.2999C4.33881 36.4839 4.2843 36.6747 4.22298 36.8722Z" fill="#003242"/>
<path d="M4.22298 37.8461C3.74269 37.7985 3.25886 37.7985 2.77857 37.8461L2.61503 37.2738C2.23013 37.3342 1.8531 37.437 1.49084 37.5804V37.4305C1.88651 37.2686 2.30075 37.1565 2.72405 37.0967C2.78537 37.2875 2.83987 37.4782 2.89438 37.6758C3.2976 37.6349 3.70392 37.6349 4.10715 37.6758C4.16846 37.4782 4.22297 37.2875 4.27748 37.0967C4.70317 37.1556 5.11978 37.2677 5.5175 37.4305V37.5804C5.15495 37.4379 4.77802 37.3351 4.39331 37.2738C4.33881 37.4373 4.2843 37.6281 4.22298 37.8461Z" fill="#003242"/>
<path d="M4.22298 38.7726C3.74238 38.7318 3.25917 38.7318 2.77857 38.7726L2.61503 38.1935C2.23418 38.2407 1.85808 38.3205 1.49084 38.432V38.2821C1.89269 38.1551 2.30557 38.0661 2.72405 38.0164C2.78537 38.2139 2.83987 38.4047 2.89438 38.6023C3.29818 38.5751 3.70335 38.5751 4.10715 38.6023C4.16846 38.4047 4.22297 38.2139 4.27748 38.0164C4.69831 38.0654 5.11353 38.1544 5.5175 38.2821V38.432C5.15009 38.3212 4.77405 38.2414 4.39331 38.1935C4.33881 38.3843 4.2843 38.5819 4.22298 38.7726Z" fill="#003242"/>
<path d="M4.22298 39.727C3.74189 39.6997 3.25965 39.6997 2.77857 39.727L2.61503 39.141C2.23673 39.1746 1.86115 39.2338 1.49084 39.3182V39.1683C1.89616 39.0705 2.30847 39.0044 2.72405 38.9707C2.78537 39.1683 2.83987 39.3591 2.89438 39.5566C3.29838 39.5362 3.70315 39.5362 4.10715 39.5566C4.16846 39.3591 4.22297 39.1683 4.27748 38.9707C4.69536 39.0039 5.10999 39.07 5.5175 39.1683V39.3182C5.1471 39.2344 4.77155 39.1752 4.39331 39.141C4.33881 39.3386 4.2843 39.5294 4.22298 39.727Z" fill="#003242"/>
<path d="M4.22298 40.6806C3.74605 40.6806 3.2555 40.6806 2.77857 40.6806L2.61503 40.0878C2.22668 40.0878 1.85195 40.1492 1.49084 40.2037V40.0538C1.89891 39.9857 2.31074 39.9425 2.72405 39.9243C2.78537 40.1219 2.83987 40.3195 2.89438 40.5171C3.29636 40.5171 3.70516 40.5171 4.10715 40.5171C4.16846 40.3195 4.22297 40.1219 4.27748 39.9243C4.69308 39.9421 5.1072 39.9853 5.5175 40.0538V40.2037C5.1564 40.1492 4.77486 40.1151 4.39331 40.0878C4.33881 40.2854 4.2843 40.483 4.22298 40.6806Z" fill="#003242"/>
<path d="M4.22298 41.6347H2.77857L2.61503 41.0351L1.49084 41.0828V40.9329C1.88602 40.9329 2.30162 40.8852 2.72405 40.8716C2.78537 41.0692 2.83987 41.2736 2.89438 41.4711H4.10715C4.16846 41.2736 4.22297 41.0692 4.27748 40.8716C4.70671 40.8716 5.12233 40.8716 5.5175 40.9329V41.0828L4.39331 41.0351C4.33881 41.2531 4.2843 41.4303 4.22298 41.6347Z" fill="#003242"/>
<path d="M4.22298 42.6159C3.74605 42.6159 3.2555 42.6159 2.77857 42.6159L2.61503 42.0095H1.49084V41.8596H2.72405C2.78537 42.0572 2.83987 42.2616 2.89438 42.4592C3.29636 42.4592 3.70516 42.4592 4.10715 42.4592C4.16846 42.2616 4.22297 42.0572 4.27748 41.8596H5.5175V42.0095H4.39331C4.33881 42.1867 4.2843 42.3842 4.22298 42.6159Z" fill="#003242"/>
<path d="M4.22298 43.5353C3.74189 43.5626 3.25965 43.5626 2.77857 43.5353L2.61503 42.9358C2.22895 42.9358 1.85422 42.9085 1.49084 42.854V42.7041C1.88602 42.7382 2.30162 42.7654 2.72405 42.779C2.78537 42.9766 2.83987 43.181 2.89438 43.3786C3.29838 43.3991 3.70315 43.3991 4.10715 43.3786C4.16846 43.181 4.22297 42.9766 4.27748 42.779C4.70671 42.779 5.12233 42.7382 5.5175 42.7041V42.854C5.1564 42.8881 4.77486 42.9153 4.39331 42.9358C4.33881 43.1333 4.2843 43.3377 4.22298 43.5353Z" fill="#003242"/>
<path d="M4.22298 44.4894C3.74238 44.5303 3.25917 44.5303 2.77857 44.4894L2.61503 43.883C2.22668 43.883 1.85195 43.8013 1.49084 43.7331V43.5833C1.89911 43.6526 2.31075 43.7004 2.72405 43.7263C2.78537 43.9307 2.83987 44.1351 2.89438 44.3395C3.29838 44.36 3.70315 44.36 4.10715 44.3395C4.16846 44.1351 4.22297 43.9307 4.27748 43.7263C4.69307 43.7008 5.10701 43.653 5.5175 43.5833V43.7331C5.1564 43.8013 4.77486 43.849 4.39331 43.883C4.33881 44.0806 4.2843 44.285 4.22298 44.4894Z" fill="#003242"/>
<path d="M4.22298 45.4428C3.74305 45.4973 3.2585 45.4973 2.77857 45.4428L2.61503 44.8296C2.23545 44.7881 1.85961 44.7175 1.49084 44.6184V44.4685C1.8958 44.5709 2.30811 44.6415 2.72405 44.6797C2.78537 44.8841 2.83987 45.0885 2.89438 45.2929C3.29792 45.327 3.70361 45.327 4.10715 45.2929C4.16846 45.0885 4.22297 44.8841 4.27748 44.6797C4.69573 44.6421 5.11036 44.5714 5.5175 44.4685V44.6184C5.14859 44.7169 4.77281 44.7875 4.39331 44.8296C4.33881 45.034 4.2843 45.2384 4.22298 45.4428Z" fill="#003242"/>
<path d="M4.22298 46.3969C3.74346 46.4582 3.25809 46.4582 2.77857 46.3969L2.61503 45.7769C2.23255 45.7217 1.85615 45.6304 1.49084 45.5043V45.3408C1.8916 45.4733 2.3048 45.5646 2.72405 45.6134C2.78537 45.8246 2.83987 46.029 2.89438 46.2334C3.29723 46.2811 3.7043 46.2811 4.10715 46.2334C4.16846 46.029 4.22297 45.8246 4.27748 45.6134C4.69908 45.5653 5.11461 45.474 5.5175 45.3408V45.4907C5.15193 45.6159 4.77561 45.7071 4.39331 45.7632C4.33881 45.9813 4.2843 46.1925 4.22298 46.3969Z" fill="#003242"/>
<path d="M4.22298 47.3847C3.74443 47.4597 3.25712 47.4597 2.77857 47.3847L2.61503 46.7579C2.22818 46.6891 1.85083 46.5747 1.49084 46.4172V46.2673C1.8849 46.4367 2.29952 46.5536 2.72405 46.6148C2.78537 46.826 2.83987 47.0304 2.89438 47.2416C3.29723 47.2893 3.7043 47.2893 4.10715 47.2416C4.16846 47.0304 4.22297 46.826 4.27748 46.6148C4.70439 46.5545 5.12139 46.4376 5.5175 46.2673V46.4172C5.15717 46.5738 4.77994 46.6881 4.39331 46.7579C4.33881 46.935 4.2843 47.1394 4.22298 47.3847Z" fill="#003242"/>
<g style="mix-blend-mode:multiply" opacity="0.5">
<path d="M5.5175 37.5127V36.518C5.12477 36.3272 4.70744 36.1919 4.27748 36.116L4.2366 36.2659C3.75123 36.1904 3.25712 36.1904 2.77175 36.2659L2.72405 36.116C2.29659 36.1932 1.88169 36.3284 1.49084 36.518V37.5127C2.78566 37.0082 4.22268 37.0082 5.5175 37.5127Z" fill="#003242"/>
</g>
<g style="mix-blend-mode:multiply" opacity="0.5">
<path d="M1.49084 44.5981V46.792C1.88531 46.9815 2.30535 47.1124 2.73767 47.1804L2.77857 47.3507C3.25712 47.4257 3.74443 47.4257 4.22298 47.3507L4.27066 47.1804C4.70273 47.1113 5.12265 46.9806 5.5175 46.792V44.5981C4.19775 44.9455 2.81059 44.9455 1.49084 44.5981Z" fill="#003242"/>
</g>
<path d="M31.5236 13.2232C32.7295 13.0119 33.9629 13.0119 35.1687 13.2232C35.36 13.2582 35.5329 13.3592 35.6574 13.5086C35.7819 13.658 35.8501 13.8463 35.8501 14.0407V19.7162C35.8512 19.9102 35.7832 20.0983 35.6584 20.2468C35.5336 20.3954 35.36 20.4947 35.1687 20.527C33.9635 20.7454 32.7288 20.7454 31.5236 20.527C31.3323 20.4947 31.1588 20.3954 31.034 20.2468C30.9091 20.0983 30.8412 19.9102 30.8423 19.7162V14.0407C30.8423 13.8463 30.9105 13.658 31.035 13.5086C31.1594 13.3592 31.3324 13.2582 31.5236 13.2232Z" fill="#D6D6D6"/>
<path d="M31.3328 11.8125C31.9616 11.5129 32.6495 11.3574 33.3461 11.3574C34.0427 11.3574 34.7305 11.5129 35.3594 11.8125V21.9439C34.7305 22.2435 34.0427 22.399 33.3461 22.399C32.6495 22.399 31.9616 22.2435 31.3328 21.9439V11.8125Z" fill="#004358"/>
<path d="M32.6273 12.0239C33.1064 11.9557 33.5927 11.9557 34.0717 12.0239L34.2352 11.4515C34.6239 11.5266 35.0016 11.6502 35.3594 11.8195V11.6696C34.9686 11.48 34.5537 11.3448 34.1262 11.2676C34.0649 11.4584 34.0104 11.6491 33.9559 11.8467C33.5508 11.799 33.1414 11.799 32.7363 11.8467L32.5728 11.2676C32.1428 11.3435 31.7255 11.4788 31.3328 11.6696V11.8195C31.6906 11.6502 32.0683 11.5266 32.457 11.4515C32.5115 11.6423 32.566 11.8263 32.6273 12.0239Z" fill="#003242"/>
<path d="M32.6273 12.9709C33.1076 12.9232 33.5914 12.9232 34.0717 12.9709L34.2352 12.3986C34.6201 12.4589 34.9972 12.5618 35.3594 12.7052V12.5553C34.9638 12.3934 34.5495 12.2812 34.1262 12.2214C34.0649 12.4122 34.0104 12.603 33.9559 12.8006C33.5504 12.7597 33.1418 12.7597 32.7363 12.8006L32.5728 12.2214C32.1471 12.2803 31.7305 12.3925 31.3328 12.5553V12.7052C31.695 12.5618 32.0721 12.4589 32.457 12.3986C32.5115 12.5894 32.566 12.7801 32.6273 12.9709Z" fill="#003242"/>
<path d="M32.6273 13.925C33.1079 13.8841 33.5911 13.8841 34.0717 13.925L34.2352 13.3459C34.6161 13.3931 34.9922 13.4729 35.3594 13.5843V13.4344C34.9574 13.3097 34.5445 13.223 34.1262 13.1755C34.0649 13.3663 34.0104 13.5571 33.9559 13.7547C33.5498 13.7274 33.1424 13.7274 32.7363 13.7547L32.5728 13.1755C32.1522 13.2223 31.737 13.309 31.3328 13.4344V13.5843C31.7036 13.4629 32.0843 13.374 32.4706 13.3186C32.5115 13.5366 32.566 13.7342 32.6273 13.925Z" fill="#003242"/>
<path d="M32.6273 14.8791C33.1084 14.8518 33.5906 14.8518 34.0717 14.8791L34.2352 14.2931C34.6135 14.3267 34.9891 14.3859 35.3594 14.4703V14.3204C34.9541 14.2226 34.5418 14.1565 34.1262 14.1228C34.0649 14.3204 34.0104 14.518 33.9559 14.7087C33.5496 14.6883 33.1426 14.6883 32.7363 14.7087L32.5728 14.1228C32.1549 14.156 31.7403 14.2221 31.3328 14.3204V14.4703C31.7031 14.3859 32.0787 14.3267 32.457 14.2931C32.5115 14.4907 32.566 14.6815 32.6273 14.8791Z" fill="#003242"/>
<path d="M32.6273 15.8327C33.1042 15.8327 33.588 15.8327 34.0717 15.8327L34.2352 15.2399C34.6236 15.2399 34.9983 15.3013 35.3594 15.3558V15.2059C34.9509 15.1411 34.5393 15.0979 34.1262 15.0764C34.0649 15.274 34.0104 15.4716 33.9559 15.6692C33.5539 15.6692 33.1451 15.6692 32.7363 15.6692L32.5728 15.0764C32.1574 15.0975 31.7435 15.1408 31.3328 15.2059V15.3626C31.6939 15.3081 32.0686 15.274 32.457 15.2467C32.5115 15.4375 32.566 15.6351 32.6273 15.8327Z" fill="#003242"/>
<path d="M32.6273 16.7863H34.0717L34.2352 16.1867L35.3594 16.2344V16.0845C34.9642 16.0845 34.5486 16.0368 34.1262 16.0232C34.0649 16.2208 34.0104 16.4252 33.9559 16.6228H32.7363L32.5728 16.0232C32.1436 16.0232 31.7279 16.0232 31.3328 16.0845V16.2344L32.457 16.1867C32.5115 16.3843 32.566 16.5887 32.6273 16.7863Z" fill="#003242"/>
<path d="M32.6273 17.7404C33.1042 17.7404 33.588 17.7404 34.0717 17.7404L34.2352 17.134H35.3594V16.9841H34.1262C34.0649 17.1817 34.0104 17.3861 33.9559 17.5837C33.5539 17.5837 33.1451 17.5837 32.7363 17.5837L32.5728 16.9841H31.3328V17.134H32.457C32.5115 17.3384 32.566 17.536 32.6273 17.7404Z" fill="#003242"/>
<path d="M32.6273 18.6937C33.1042 18.6937 33.588 18.6937 34.0717 18.6937L34.2352 18.0874C34.6259 18.0874 35.0006 18.0601 35.3594 18.0056V17.8557C34.9642 17.8557 34.5486 17.917 34.1262 17.9307C34.0649 18.1282 34.0104 18.3326 33.9559 18.537C33.5539 18.537 33.1451 18.537 32.7363 18.537L32.5728 17.9307C32.1436 17.9307 31.7279 17.8898 31.3328 17.8557V18.0056C31.6961 18.0419 32.0709 18.0692 32.457 18.0874C32.5115 18.2849 32.566 18.4893 32.6273 18.6937Z" fill="#003242"/>
<path d="M32.6273 19.6414C33.1079 19.6823 33.5911 19.6823 34.0717 19.6414L34.2352 19.035C34.6236 19.035 34.9983 18.9532 35.3594 18.8851V18.7693C34.9512 18.8387 34.5395 18.8864 34.1262 18.9124C34.0649 19.1168 34.0104 19.3212 33.9559 19.5256C33.5496 19.546 33.1426 19.546 32.7363 19.5256L32.5728 18.9124C32.1572 18.8868 31.7433 18.8391 31.3328 18.7693V18.9192C31.6939 18.9873 32.0686 19.035 32.457 19.0691C32.5115 19.2326 32.566 19.4506 32.6273 19.6414Z" fill="#003242"/>
<path d="M32.6273 20.5949C33.1072 20.6494 33.5918 20.6494 34.0717 20.5949L34.2352 19.9817C34.6148 19.9402 34.9907 19.8696 35.3594 19.7705V19.6206C34.9545 19.723 34.5422 19.7936 34.1262 19.8318C34.0649 20.0362 34.0104 20.2406 33.9559 20.445C33.5501 20.4791 33.1421 20.4791 32.7363 20.445L32.5728 19.8318C32.1545 19.7942 31.7399 19.7235 31.3328 19.6206V19.7705C31.7015 19.8696 32.0774 19.9402 32.457 19.9817C32.5115 20.1861 32.566 20.3905 32.6273 20.5949Z" fill="#003242"/>
<path d="M32.6273 21.549C33.1068 21.6103 33.5922 21.6103 34.0717 21.549L34.2352 20.929C34.6177 20.8738 34.9941 20.7825 35.3594 20.6565V20.5066C34.9587 20.639 34.5455 20.7303 34.1262 20.7791C34.0649 20.9903 34.0104 21.1947 33.9559 21.3991C33.5508 21.4469 33.1414 21.4469 32.7363 21.3991L32.5728 20.7791C32.1512 20.7311 31.7357 20.6398 31.3328 20.5066V20.6565C31.6981 20.7825 32.0745 20.8738 32.457 20.929C32.5115 21.1334 32.566 21.3446 32.6273 21.549Z" fill="#003242"/>
<path d="M32.6273 22.5029C33.1059 22.5778 33.5932 22.5778 34.0717 22.5029L34.2352 21.8761C34.6221 21.8072 34.9994 21.6929 35.3594 21.5354V21.3855C34.9654 21.5549 34.5507 21.6717 34.1262 21.733C34.0649 21.9442 34.0104 22.1486 33.9559 22.3598C33.5508 22.4075 33.1414 22.4075 32.7363 22.3598L32.5728 21.733C32.1459 21.6726 31.7289 21.5558 31.3328 21.3855V21.5354C31.6927 21.6929 32.0701 21.8072 32.457 21.8761C32.5115 22.0873 32.566 22.2917 32.6273 22.5029Z" fill="#003242"/>
<g style="mix-blend-mode:multiply" opacity="0.5">
<path d="M31.3328 12.637V11.6696C31.7255 11.4788 32.1428 11.3435 32.5728 11.2676L32.6137 11.4175C33.099 11.342 33.5931 11.342 34.0785 11.4175L34.1262 11.2676C34.5537 11.3448 34.9686 11.48 35.3594 11.6696V12.637C34.0646 12.1326 32.6276 12.1326 31.3328 12.637Z" fill="#003242"/>
</g>
<g style="mix-blend-mode:multiply" opacity="0.5">
<path d="M35.3594 19.7502V21.9441C34.965 22.1336 34.5449 22.2645 34.1126 22.3325L34.0717 22.5028C33.5932 22.5778 33.1059 22.5778 32.6273 22.5028L32.5796 22.3325C32.1475 22.2635 31.7276 22.1327 31.3328 21.9441V19.7502C32.6525 20.0976 34.0397 20.0976 35.3594 19.7502Z" fill="#003242"/>
</g>
<path d="M31.5236 38.0711C32.7295 37.8598 33.9629 37.8598 35.1687 38.0711C35.3589 38.1059 35.5309 38.2059 35.6552 38.3539C35.7796 38.5019 35.8485 38.6886 35.8501 38.8818V44.5641C35.8512 44.7581 35.7832 44.9462 35.6584 45.0947C35.5336 45.2433 35.36 45.3426 35.1687 45.3749C33.9635 45.5933 32.7288 45.5933 31.5236 45.3749C31.3323 45.3426 31.1588 45.2433 31.034 45.0947C30.9091 44.9462 30.8412 44.7581 30.8423 44.5641V38.8818C30.8439 38.6886 30.9128 38.5019 31.0371 38.3539C31.1615 38.2059 31.3335 38.1059 31.5236 38.0711Z" fill="#D6D6D6"/>
<path d="M31.3328 36.6609C31.9616 36.3613 32.6495 36.2058 33.3461 36.2058C34.0427 36.2058 34.7305 36.3613 35.3594 36.6609V46.7923C34.7288 47.0859 34.0417 47.2381 33.3461 47.2381C32.6505 47.2381 31.9633 47.0859 31.3328 46.7923V36.6609Z" fill="#004358"/>
<path d="M32.6273 36.8722C33.1064 36.8041 33.5927 36.8041 34.0717 36.8722C34.1262 36.6769 34.1807 36.4862 34.2352 36.2999C34.6239 36.375 35.0016 36.4986 35.3594 36.6678V36.518C34.9686 36.3284 34.5537 36.1932 34.1262 36.116C34.0649 36.3067 34.0104 36.4975 33.9559 36.6951C33.5508 36.6474 33.1414 36.6474 32.7363 36.6951L32.5728 36.116C32.1428 36.1919 31.7255 36.3272 31.3328 36.518V36.6678C31.6906 36.4986 32.0683 36.375 32.457 36.2999C32.5115 36.4839 32.566 36.6747 32.6273 36.8722Z" fill="#003242"/>
<path d="M32.6273 37.8461C33.1076 37.7985 33.5914 37.7985 34.0717 37.8461L34.2352 37.2738C34.6201 37.3342 34.9972 37.437 35.3594 37.5804V37.4305C34.9638 37.2686 34.5495 37.1565 34.1262 37.0967C34.0649 37.2875 34.0104 37.4782 33.9559 37.6758C33.5504 37.6349 33.1418 37.6349 32.7363 37.6758L32.5728 37.0967C32.1471 37.1556 31.7305 37.2677 31.3328 37.4305V37.5804C31.695 37.437 32.0721 37.3342 32.457 37.2738C32.5115 37.4373 32.566 37.6281 32.6273 37.8461Z" fill="#003242"/>
<path d="M32.6273 38.7726C33.1079 38.7318 33.5911 38.7318 34.0717 38.7726L34.2352 38.1935C34.6161 38.2407 34.9922 38.3205 35.3594 38.432V38.2821C34.9576 38.1551 34.5447 38.0661 34.1262 38.0164C34.0649 38.2139 34.0104 38.4047 33.9559 38.6023C33.5498 38.5751 33.1424 38.5751 32.7363 38.6023L32.5728 38.0164C32.152 38.0654 31.7367 38.1544 31.3328 38.2821V38.432C31.7 38.3205 32.0761 38.2407 32.457 38.1935C32.5115 38.3843 32.566 38.5819 32.6273 38.7726Z" fill="#003242"/>
<path d="M32.6273 39.727C33.1084 39.6997 33.5906 39.6997 34.0717 39.727L34.2352 39.141C34.6135 39.1746 34.9891 39.2338 35.3594 39.3182V39.1683C34.9541 39.0705 34.5418 39.0044 34.1262 38.9707C34.0649 39.1683 34.0104 39.3591 33.9559 39.5566C33.5496 39.5362 33.1426 39.5362 32.7363 39.5566L32.5728 38.9707C32.1549 39.0039 31.7403 39.07 31.3328 39.1683V39.3182C31.7031 39.2338 32.0787 39.1746 32.457 39.141C32.5115 39.3386 32.566 39.5294 32.6273 39.727Z" fill="#003242"/>
<path d="M32.6273 40.6806C33.1042 40.6806 33.588 40.6806 34.0717 40.6806L34.2352 40.0878C34.6236 40.0878 34.9983 40.1492 35.3594 40.2037V40.0538C34.9514 39.9857 34.5395 39.9425 34.1262 39.9243C34.0649 40.1219 34.0104 40.3195 33.9559 40.5171C33.5539 40.5171 33.1451 40.5171 32.7363 40.5171L32.5728 39.9243C32.1572 39.9421 31.7431 39.9853 31.3328 40.0538V40.2037C31.6939 40.1492 32.0686 40.1151 32.457 40.0878C32.5115 40.2854 32.566 40.483 32.6273 40.6806Z" fill="#003242"/>
<path d="M32.6273 41.6347H34.0717L34.2352 41.0351L35.3594 41.0828V40.9329C34.9642 40.9329 34.5486 40.8852 34.1262 40.8716C34.0649 41.0692 34.0104 41.2736 33.9559 41.4711H32.7363L32.5728 40.8716C32.1436 40.8716 31.7279 40.8716 31.3328 40.9329V41.0828L32.457 41.0351C32.5115 41.2531 32.566 41.4303 32.6273 41.6347Z" fill="#003242"/>
<path d="M32.6273 42.6159C33.1042 42.6159 33.588 42.6159 34.0717 42.6159L34.2352 42.0095H35.3594V41.8596H34.1262C34.0649 42.0572 34.0104 42.2616 33.9559 42.4592C33.5539 42.4592 33.1451 42.4592 32.7363 42.4592L32.5728 41.8596H31.3328V42.0095H32.457C32.5115 42.1867 32.566 42.3842 32.6273 42.6159Z" fill="#003242"/>
<path d="M32.6273 43.5353C33.1084 43.5626 33.5906 43.5626 34.0717 43.5353L34.2352 42.9358C34.6259 42.9358 35.0006 42.9085 35.3594 42.854V42.7041C34.9642 42.7382 34.5486 42.7654 34.1262 42.779C34.0649 42.9766 34.0104 43.181 33.9559 43.3786C33.5496 43.3991 33.1426 43.3991 32.7363 43.3786L32.5728 42.779C32.1436 42.779 31.7279 42.7382 31.3328 42.7041V42.854C31.6961 42.8903 32.0709 42.9176 32.457 42.9358C32.5115 43.1333 32.566 43.3377 32.6273 43.5353Z" fill="#003242"/>
<path d="M32.6273 44.4894C33.1079 44.5303 33.5911 44.5303 34.0717 44.4894L34.2352 43.883C34.6236 43.883 34.9983 43.8013 35.3594 43.7331V43.5833C34.9512 43.6526 34.5395 43.7004 34.1262 43.7263C34.0649 43.9307 34.0104 44.1351 33.9559 44.3395C33.5496 44.36 33.1426 44.36 32.7363 44.3395L32.5728 43.7263C32.1572 43.7008 31.7433 43.653 31.3328 43.5833V43.7331C31.6939 43.8013 32.0686 43.849 32.457 43.883C32.5115 44.0806 32.566 44.285 32.6273 44.4894Z" fill="#003242"/>
<path d="M32.6273 45.4428C33.1072 45.4973 33.5918 45.4973 34.0717 45.4428L34.2352 44.8296C34.6148 44.7881 34.9907 44.7175 35.3594 44.6184V44.4685C34.9545 44.5709 34.5422 44.6415 34.1262 44.6797C34.0649 44.8841 34.0104 45.0885 33.9559 45.2929C33.5501 45.327 33.1421 45.327 32.7363 45.2929L32.5728 44.6797C32.1545 44.6421 31.7399 44.5714 31.3328 44.4685V44.6184C31.7015 44.7175 32.0774 44.7881 32.457 44.8296C32.5115 45.034 32.566 45.2384 32.6273 45.4428Z" fill="#003242"/>
<path d="M32.6273 46.3969C33.1068 46.4582 33.5922 46.4582 34.0717 46.3969L34.2352 45.7769C34.6177 45.7217 34.9941 45.6304 35.3594 45.5043V45.3408C34.9587 45.4733 34.5455 45.5646 34.1262 45.6134C34.0649 45.8246 34.0104 46.029 33.9559 46.2334C33.5508 46.2811 33.1414 46.2811 32.7363 46.2334L32.5728 45.6134C32.1512 45.5653 31.7357 45.474 31.3328 45.3408V45.4907C31.6981 45.6168 32.0745 45.708 32.457 45.7632C32.5115 45.9813 32.566 46.1925 32.6273 46.3969Z" fill="#003242"/>
<path d="M32.6273 47.3847C33.1059 47.4597 33.5932 47.4597 34.0717 47.3847L34.2352 46.7579C34.6221 46.6891 34.9994 46.5747 35.3594 46.4172V46.2673C34.9654 46.4367 34.5507 46.5536 34.1262 46.6148C34.0649 46.826 34.0104 47.0304 33.9559 47.2416C33.5508 47.2894 33.1414 47.2894 32.7363 47.2416L32.5728 46.6148C32.1459 46.5545 31.7289 46.4376 31.3328 46.2673V46.4172C31.6927 46.5747 32.0701 46.6891 32.457 46.7579C32.5115 46.935 32.566 47.1394 32.6273 47.3847Z" fill="#003242"/>
<g style="mix-blend-mode:multiply" opacity="0.5">
<path d="M31.3328 37.5127V36.518C31.7255 36.3272 32.1428 36.1919 32.5728 36.116L32.6137 36.2659C33.099 36.1904 33.5931 36.1904 34.0785 36.2659L34.1262 36.116C34.5537 36.1932 34.9686 36.3284 35.3594 36.518V37.5127C34.0646 37.0082 32.6276 37.0082 31.3328 37.5127Z" fill="#003242"/>
</g>
<g style="mix-blend-mode:multiply" opacity="0.5">
<path d="M35.3594 44.5981V46.792C34.965 46.9815 34.5449 47.1124 34.1126 47.1804L34.0717 47.3507C33.5932 47.4257 33.1059 47.4257 32.6273 47.3507L32.5796 47.1804C32.1475 47.1113 31.7276 46.9806 31.3328 46.792V44.5981C32.6525 44.9455 34.0397 44.9455 35.3594 44.5981Z" fill="#003242"/>
</g>
<path d="M31.7486 7.02344H5.09497V50.7511H31.7486V7.02344Z" fill="#102030"/>
<path d="M33.4448 8.85547H3.40503V48.9176H33.4448V8.85547Z" fill="#278F51"/>
<path d="M27.9944 8.85547H8.85583V48.9176H27.9944V8.85547Z" fill="#04B54C"/>
<path d="M7.68364 15.7984C7.68364 14.7561 6.84021 13.9111 5.79978 13.9111C4.75934 13.9111 3.91589 14.7561 3.91589 15.7984V19.1914C3.91589 20.2338 4.75934 21.0787 5.79978 21.0787C6.84021 21.0787 7.68364 20.2338 7.68364 19.1914V15.7984Z" fill="#2CA3E8"/>
<path d="M7.68364 27.19C7.68364 26.1477 6.84021 25.3027 5.79978 25.3027C4.75934 25.3027 3.91589 26.1477 3.91589 27.19V30.583C3.91589 31.6254 4.75934 32.4703 5.79978 32.4703C6.84021 32.4703 7.68364 31.6254 7.68364 30.583V27.19Z" fill="#2CA3E8"/>
<path d="M7.68364 38.5824C7.68364 37.54 6.84021 36.6951 5.79978 36.6951C4.75934 36.6951 3.91589 37.54 3.91589 38.5824V41.9754C3.91589 43.0177 4.75934 43.8627 5.79978 43.8627C6.84021 43.8627 7.68364 43.0177 7.68364 41.9754V38.5824Z" fill="#2CA3E8"/>
<path d="M32.9269 15.7984C32.9269 14.7561 32.0835 13.9111 31.043 13.9111C30.0026 13.9111 29.1592 14.7561 29.1592 15.7984V19.1914C29.1592 20.2338 30.0026 21.0787 31.043 21.0787C32.0835 21.0787 32.9269 20.2338 32.9269 19.1914V15.7984Z" fill="#2CA3E8"/>
<path d="M32.9269 27.19C32.9269 26.1477 32.0835 25.3027 31.043 25.3027C30.0026 25.3027 29.1592 26.1477 29.1592 27.19V30.583C29.1592 31.6254 30.0026 32.4703 31.043 32.4703C32.0835 32.4703 32.9269 31.6254 32.9269 30.583V27.19Z" fill="#2CA3E8"/>
<path d="M32.9269 38.5824C32.9269 37.54 32.0835 36.6951 31.043 36.6951C30.0026 36.6951 29.1592 37.54 29.1592 38.5824V41.9754C29.1592 43.0177 30.0026 43.8627 31.043 43.8627C32.0835 43.8627 32.9269 43.0177 32.9269 41.9754V38.5824Z" fill="#2CA3E8"/>
<g style="mix-blend-mode:overlay">
<path d="M4.14746 20.0771C4.30525 20.3802 4.54292 20.6343 4.83474 20.812C5.12655 20.9898 5.46141 21.0843 5.80309 21.0855C6.30362 21.0855 6.78368 20.8866 7.13761 20.5327C7.49154 20.1787 7.69038 19.6987 7.69038 19.1982V16.5342L4.14746 20.0771Z" fill="#2CA3E8"/>
<path d="M4.3999 31.837C4.5756 32.036 4.79161 32.1954 5.03357 32.3046C5.27554 32.4139 5.53795 32.4704 5.80344 32.4706C6.3028 32.4706 6.78181 32.2727 7.13555 31.9202C7.48929 31.5678 7.68893 31.0895 7.69073 30.5901V28.5461L4.3999 31.837Z" fill="#2CA3E8"/>
<path d="M5.95306 25.3164H5.80317C5.30263 25.3164 4.8226 25.5152 4.46866 25.8692C4.11473 26.2231 3.91589 26.7031 3.91589 27.2037V27.374L5.95306 25.3164Z" fill="#2CA3E8"/>
<path d="M3.91589 41.9679C3.91589 42.4684 4.11473 42.9485 4.46866 43.3024C4.8226 43.6563 5.30263 43.8552 5.80317 43.8552C6.30371 43.8552 6.78376 43.6563 7.13769 43.3024C7.49163 42.9485 7.69046 42.4684 7.69046 41.9679V38.5612C7.68998 38.4581 7.67855 38.3553 7.65638 38.2546C6.41636 39.5037 5.16954 40.7415 3.91589 41.9679Z" fill="#2CA3E8"/>
</g>
<g style="mix-blend-mode:overlay">
<path d="M32.9202 15.6962C32.8957 15.2154 32.6878 14.7622 32.3392 14.4301C31.9907 14.098 31.528 13.9123 31.0465 13.9111C30.546 13.9111 30.0659 14.11 29.712 14.4639C29.3581 14.8178 29.1592 15.2979 29.1592 15.7984V19.2051C29.1522 19.2821 29.1522 19.3597 29.1592 19.4367L32.9202 15.6962Z" fill="#2CA3E8"/>
<path d="M32.7363 26.3659C32.5821 26.0485 32.3421 25.7806 32.0435 25.5927C31.7448 25.4049 31.3994 25.3045 31.0466 25.303C30.546 25.303 30.066 25.5018 29.7121 25.8558C29.3581 26.2097 29.1593 26.6897 29.1593 27.1903V29.9156L32.7363 26.3659Z" fill="#2CA3E8"/>
<path d="M31.2034 43.8488C31.6445 43.8117 32.0583 43.6196 32.3713 43.3066C32.6843 42.9936 32.8764 42.5798 32.9135 42.1387L31.2034 43.8488Z" fill="#2CA3E8"/>
<path d="M32.5932 37.5059C32.4202 37.2557 32.1891 37.0513 31.9197 36.91C31.6503 36.7688 31.3507 36.6951 31.0466 36.6951C30.546 36.6951 30.066 36.8939 29.7121 37.2478C29.3581 37.6018 29.1593 38.0818 29.1593 38.5824V40.9329L32.5932 37.5059Z" fill="#2CA3E8"/>
</g>
<path d="M24.1924 46.8875H26.1751C26.2636 46.8875 26.3485 46.9226 26.4111 46.9852C26.4737 47.0478 26.5089 47.1328 26.5089 47.2213C26.5089 47.3098 26.4737 47.3948 26.4111 47.4574C26.3485 47.52 26.2636 47.5552 26.1751 47.5552H24.1924C24.1038 47.5552 24.0189 47.52 23.9563 47.4574C23.8937 47.3948 23.8585 47.3098 23.8585 47.2213C23.8585 47.1328 23.8937 47.0478 23.9563 46.9852C24.0189 46.9226 24.1038 46.8875 24.1924 46.8875Z" fill="#004358"/>
<path d="M21.1265 46.8875H23.1091C23.1977 46.8875 23.2826 46.9226 23.3452 46.9852C23.4078 47.0478 23.443 47.1328 23.443 47.2213C23.443 47.3098 23.4078 47.3948 23.3452 47.4574C23.2826 47.52 23.1977 47.5552 23.1091 47.5552H21.1265C21.0379 47.5552 20.953 47.52 20.8904 47.4574C20.8278 47.3948 20.7926 47.3098 20.7926 47.2213C20.7926 47.1328 20.8278 47.0478 20.8904 46.9852C20.953 46.9226 21.0379 46.8875 21.1265 46.8875Z" fill="#004358"/>
<path d="M24.1924 45.6746H26.1751C26.2186 45.6737 26.2618 45.6815 26.3023 45.6975C26.3428 45.7136 26.3796 45.7375 26.4107 45.768C26.4418 45.7984 26.4665 45.8348 26.4834 45.8749C26.5002 45.9151 26.5089 45.9581 26.5089 46.0017C26.5089 46.0902 26.4737 46.1751 26.4111 46.2377C26.3485 46.3003 26.2636 46.3355 26.1751 46.3355H24.1924C24.1038 46.3355 24.0189 46.3003 23.9563 46.2377C23.8937 46.1751 23.8585 46.0902 23.8585 46.0017C23.8585 45.9581 23.8672 45.9151 23.8841 45.8749C23.9009 45.8348 23.9256 45.7984 23.9567 45.768C23.9878 45.7375 24.0247 45.7136 24.0651 45.6975C24.1056 45.6815 24.1489 45.6737 24.1924 45.6746Z" fill="#004358"/>
<path d="M21.1265 45.6746H23.1091C23.1527 45.6737 23.1959 45.6815 23.2364 45.6975C23.2768 45.7136 23.3137 45.7375 23.3448 45.768C23.3759 45.7984 23.4006 45.8348 23.4174 45.8749C23.4343 45.9151 23.443 45.9581 23.443 46.0017C23.443 46.0902 23.4078 46.1751 23.3452 46.2377C23.2826 46.3003 23.1977 46.3355 23.1091 46.3355H21.1265C21.0379 46.3355 20.953 46.3003 20.8904 46.2377C20.8278 46.1751 20.7926 46.0902 20.7926 46.0017C20.7926 45.9581 20.8013 45.9151 20.8181 45.8749C20.835 45.8348 20.8597 45.7984 20.8908 45.768C20.9219 45.7375 20.9587 45.7136 20.9992 45.6975C21.0397 45.6815 21.083 45.6737 21.1265 45.6746Z" fill="#004358"/>
<path d="M24.1924 44.4553H26.1751C26.2636 44.4553 26.3485 44.4905 26.4111 44.5531C26.4737 44.6157 26.5089 44.7006 26.5089 44.7892C26.5089 44.8327 26.5002 44.8758 26.4834 44.9159C26.4665 44.9561 26.4418 44.9924 26.4107 45.0229C26.3796 45.0533 26.3428 45.0773 26.3023 45.0933C26.2618 45.1093 26.2186 45.1171 26.1751 45.1162H24.1924C24.1489 45.1171 24.1056 45.1093 24.0651 45.0933C24.0247 45.0773 23.9878 45.0533 23.9567 45.0229C23.9256 44.9924 23.9009 44.9561 23.8841 44.9159C23.8672 44.8758 23.8585 44.8327 23.8585 44.7892C23.8585 44.7006 23.8937 44.6157 23.9563 44.5531C24.0189 44.4905 24.1038 44.4553 24.1924 44.4553Z" fill="#004358"/>
<path d="M21.1265 44.4553H23.1091C23.1977 44.4553 23.2826 44.4905 23.3452 44.5531C23.4078 44.6157 23.443 44.7006 23.443 44.7892C23.443 44.8327 23.4343 44.8758 23.4174 44.9159C23.4006 44.9561 23.3759 44.9924 23.3448 45.0229C23.3137 45.0533 23.2768 45.0773 23.2364 45.0933C23.1959 45.1093 23.1527 45.1171 23.1091 45.1162H21.1265C21.083 45.1171 21.0397 45.1093 20.9992 45.0933C20.9587 45.0773 20.9219 45.0533 20.8908 45.0229C20.8597 44.9924 20.835 44.9561 20.8181 44.9159C20.8013 44.8758 20.7926 44.8327 20.7926 44.7892C20.7926 44.7006 20.8278 44.6157 20.8904 44.5531C20.953 44.4905 21.0379 44.4553 21.1265 44.4553Z" fill="#004358"/>
<path d="M12.6576 46.8875H10.6681C10.5808 46.8892 10.4976 46.9252 10.4364 46.9876C10.3753 47.05 10.341 47.1339 10.3411 47.2213C10.341 47.3087 10.3753 47.3926 10.4364 47.455C10.4976 47.5174 10.5808 47.5534 10.6681 47.5552H12.6576C12.7461 47.5552 12.831 47.52 12.8937 47.4574C12.9563 47.3948 12.9914 47.3098 12.9914 47.2213C12.9914 47.1328 12.9563 47.0478 12.8937 46.9852C12.831 46.9226 12.7461 46.8875 12.6576 46.8875Z" fill="#004358"/>
<path d="M15.7235 46.8875H13.7408C13.6523 46.8875 13.5674 46.9226 13.5048 46.9852C13.4422 47.0478 13.407 47.1328 13.407 47.2213C13.407 47.3098 13.4422 47.3948 13.5048 47.4574C13.5674 47.52 13.6523 47.5552 13.7408 47.5552H15.7235C15.8121 47.5552 15.897 47.52 15.9596 47.4574C16.0222 47.3948 16.0574 47.3098 16.0574 47.2213C16.0574 47.1328 16.0222 47.0478 15.9596 46.9852C15.897 46.9226 15.8121 46.8875 15.7235 46.8875Z" fill="#004358"/>
<path d="M12.6576 45.6746H10.6681C10.5814 45.6746 10.4982 45.7091 10.4369 45.7704C10.3755 45.8318 10.3411 45.9149 10.3411 46.0017C10.341 46.089 10.3753 46.1729 10.4364 46.2354C10.4976 46.2978 10.5808 46.3337 10.6681 46.3355H12.6576C12.7461 46.3355 12.831 46.3003 12.8937 46.2377C12.9563 46.1751 12.9914 46.0902 12.9914 46.0017C12.9915 45.9581 12.9828 45.9151 12.9659 45.8749C12.9491 45.8348 12.9244 45.7984 12.8933 45.768C12.8622 45.7375 12.8253 45.7136 12.7848 45.6975C12.7444 45.6815 12.7011 45.6737 12.6576 45.6746Z" fill="#004358"/>
<path d="M15.7235 45.6746H13.7408C13.6973 45.6737 13.6541 45.6815 13.6136 45.6975C13.5731 45.7136 13.5363 45.7375 13.5052 45.768C13.4741 45.7984 13.4494 45.8348 13.4325 45.8749C13.4157 45.9151 13.407 45.9581 13.407 46.0017C13.407 46.0902 13.4422 46.1751 13.5048 46.2377C13.5674 46.3003 13.6523 46.3355 13.7408 46.3355H15.7235C15.8121 46.3355 15.897 46.3003 15.9596 46.2377C16.0222 46.1751 16.0574 46.0902 16.0574 46.0017C16.0574 45.9581 16.0487 45.9151 16.0318 45.8749C16.015 45.8348 15.9903 45.7984 15.9592 45.768C15.9281 45.7375 15.8912 45.7136 15.8507 45.6975C15.8103 45.6815 15.767 45.6737 15.7235 45.6746Z" fill="#004358"/>
<path d="M12.6576 44.4553H10.6681C10.5808 44.4571 10.4976 44.4931 10.4364 44.5555C10.3753 44.6179 10.341 44.7018 10.3411 44.7892C10.3411 44.8759 10.3755 44.9591 10.4369 45.0204C10.4982 45.0818 10.5814 45.1162 10.6681 45.1162H12.6576C12.7011 45.1171 12.7444 45.1093 12.7848 45.0933C12.8253 45.0773 12.8622 45.0533 12.8933 45.0229C12.9244 44.9924 12.9491 44.9561 12.9659 44.9159C12.9828 44.8758 12.9915 44.8327 12.9914 44.7892C12.9914 44.7006 12.9563 44.6157 12.8937 44.5531C12.831 44.4905 12.7461 44.4553 12.6576 44.4553Z" fill="#004358"/>
<path d="M15.7235 44.4553H13.7408C13.6523 44.4553 13.5674 44.4905 13.5048 44.5531C13.4422 44.6157 13.407 44.7006 13.407 44.7892C13.407 44.8327 13.4157 44.8758 13.4325 44.9159C13.4494 44.9561 13.4741 44.9924 13.5052 45.0229C13.5363 45.0533 13.5731 45.0773 13.6136 45.0933C13.6541 45.1093 13.6973 45.1171 13.7408 45.1162H15.7235C15.767 45.1171 15.8103 45.1093 15.8507 45.0933C15.8912 45.0773 15.9281 45.0533 15.9592 45.0229C15.9903 44.9924 16.015 44.9561 16.0318 44.9159C16.0487 44.8758 16.0574 44.8327 16.0574 44.7892C16.0574 44.7006 16.0222 44.6157 15.9596 44.5531C15.897 44.4905 15.8121 44.4553 15.7235 44.4553Z" fill="#004358"/>
<path d="M29.1196 7.4672H7.96602C7.71912 7.46979 7.4754 7.41138 7.25649 7.29715C7.03758 7.18293 6.85027 7.01642 6.71117 6.81241C6.57208 6.6084 6.4855 6.3732 6.45914 6.1277C6.43277 5.88219 6.46743 5.63398 6.56004 5.40508L7.26115 3.62417C7.48026 3.07037 7.86102 2.59536 8.35387 2.261C8.84672 1.92664 9.42883 1.74841 10.0244 1.74952H27.0612C27.6568 1.74841 28.2389 1.92664 28.7317 2.261C29.2246 2.59536 29.6053 3.07037 29.8244 3.62417L30.5256 5.40508C30.6182 5.63398 30.6528 5.88219 30.6265 6.1277C30.6001 6.3732 30.5135 6.6084 30.3744 6.81241C30.2353 7.01642 30.048 7.18293 29.8291 7.29715C29.6102 7.41138 29.3665 7.46979 29.1196 7.4672Z" fill="#04B54C"/>
<path d="M13.949 1.85859C13.949 2.0863 13.8586 2.30469 13.6976 2.4657C13.5366 2.62672 13.3182 2.71718 13.0905 2.71718H9.93355C9.82066 2.71768 9.70879 2.69581 9.60439 2.65283C9.5 2.60986 9.40515 2.54664 9.32533 2.46681C9.2455 2.38698 9.18228 2.29214 9.1393 2.18774C9.09633 2.08335 9.07446 1.97148 9.07496 1.85859C9.07496 1.63088 9.16542 1.41249 9.32643 1.25147C9.48745 1.09046 9.70584 1 9.93355 1H13.0905C13.3179 1.00099 13.5357 1.09176 13.6965 1.25256C13.8573 1.41337 13.9481 1.63118 13.949 1.85859Z" fill="#CFD8DC"/>
<path d="M27.4465 1.85859C27.4465 2.0863 27.356 2.30469 27.195 2.4657C27.034 2.62672 26.8156 2.71718 26.5879 2.71718H23.431C23.3181 2.71768 23.2062 2.69581 23.1018 2.65283C22.9974 2.60986 22.9026 2.54664 22.8228 2.46681C22.7429 2.38698 22.6797 2.29214 22.6367 2.18774C22.5938 2.08335 22.5719 1.97148 22.5724 1.85859C22.5724 1.63088 22.6629 1.41249 22.8239 1.25147C22.9849 1.09046 23.2033 1 23.431 1H26.5879C26.8153 1.00099 27.0331 1.09176 27.1939 1.25256C27.3547 1.41337 27.4455 1.63118 27.4465 1.85859Z" fill="#CFD8DC"/>
</g>
<defs>
<filter id="filter0_d_30_267" x="0" y="0" width="42.8501" height="57.7512" filterUnits="userSpaceOnUse" color-interpolation-filters="sRGB">
<feFlood flood-opacity="0" result="BackgroundImageFix"/>
<feColorMatrix in="SourceAlpha" type="matrix" values="0 0 0 0 0 0 0 0 0 0 0 0 0 0 0 0 0 0 127 0" result="hardAlpha"/>
<feOffset dx="3" dy="3"/>
<feGaussianBlur stdDeviation="2"/>
<feComposite in2="hardAlpha" operator="out"/>
<feColorMatrix type="matrix" values="0 0 0 0 0 0 0 0 0 0 0 0 0 0 0 0 0 0 0.25 0"/>
<feBlend mode="normal" in2="BackgroundImageFix" result="effect1_dropShadow_30_267"/>
<feBlend mode="normal" in="SourceGraphic" in2="effect1_dropShadow_30_267" result="shape"/>
</filter>
</defs>
</svg>
