<svg xmlns="http://www.w3.org/2000/svg" width="51" height="101" viewBox="0 0 51 101" fill="none">
  <g filter="url(#filter0_d_13_19519)">
    <path d="M13.0499 42.9743H31.3507C31.6918 42.9743 32.019 43.1098 32.2602 43.351C32.5014 43.5923 32.6369 43.9194 32.6369 44.2605C32.6369 44.6016 32.5014 44.9288 32.2602 45.17C32.019 45.4112 31.6918 45.5467 31.3507 45.5467H13.0499C12.7088 45.5467 12.3816 45.4112 12.1404 45.17C11.8992 44.9288 11.7637 44.6016 11.7637 44.2605C11.7637 43.9194 11.8992 43.5923 12.1404 43.351C12.3816 43.1098 12.7088 42.9743 13.0499 42.9743Z" fill="#222B32"/>
    <path d="M12.767 45.5467H31.6448V41.9123H12.767V45.5467Z" fill="#3B464E"/>
    <path d="M14.6815 45.5467H29.7301V41.9123H14.6815V45.5467Z" fill="#222B32"/>
    <path d="M16.6513 42.7428H27.7567C28.0179 42.7428 28.2684 42.8466 28.4531 43.0313C28.6378 43.216 28.7416 43.4665 28.7416 43.7277C28.742 43.8573 28.7169 43.9858 28.6677 44.1057C28.6184 44.2256 28.5459 44.3346 28.4544 44.4264C28.3629 44.5183 28.2542 44.5912 28.1344 44.6409C28.0147 44.6906 27.8863 44.7162 27.7567 44.7162H16.6513C16.5216 44.7162 16.3932 44.6906 16.2735 44.6409C16.1538 44.5912 16.045 44.5183 15.9535 44.4264C15.862 44.3346 15.7896 44.2256 15.7403 44.1057C15.691 43.9858 15.6659 43.8573 15.6664 43.7277C15.6664 43.5983 15.6919 43.4703 15.7414 43.3508C15.7909 43.2313 15.8634 43.1227 15.9548 43.0313C16.0463 42.9398 16.1549 42.8673 16.2744 42.8178C16.3938 42.7683 16.5219 42.7428 16.6513 42.7428Z" fill="#637079"/>
    <path d="M36.128 8.01533H8.30921C7.96622 8.01587 7.62942 7.92409 7.33412 7.74961C7.03882 7.57513 6.79593 7.32439 6.63093 7.0237C6.46593 6.72301 6.38489 6.38345 6.39633 6.04065C6.40777 5.69785 6.51127 5.36445 6.69595 5.07543C7.3652 4.01385 8.29181 3.13856 9.38975 2.53081C10.4877 1.92305 11.7214 1.60254 12.9763 1.59901H13.0755V5.88023H31.3065V1.59901H31.4058C32.666 1.59797 33.9059 1.91668 35.0094 2.52532C36.113 3.13397 37.044 4.01264 37.7155 5.07911C37.8981 5.36623 38.0007 5.6969 38.0128 6.03695C38.0248 6.377 37.9458 6.7141 37.784 7.01341C37.6221 7.31273 37.3833 7.56341 37.0922 7.73954C36.8011 7.91568 36.4682 8.01089 36.128 8.01533Z" fill="#D32F2F"/>
    <path d="M13.3439 2.38538H31.0678C32.0093 2.38538 32.9416 2.57083 33.8115 2.93114C34.6813 3.29145 35.4717 3.81957 36.1375 4.48533C36.8032 5.1511 37.3313 5.94147 37.6917 6.81134C38.052 7.6812 38.2374 8.61351 38.2374 9.55505V38.1382C38.2355 39.1892 37.8163 40.1964 37.0721 40.9385C36.3279 41.6806 35.3196 42.097 34.2686 42.096H10.1394C9.61866 42.096 9.10305 41.9934 8.62197 41.7942C8.14089 41.5949 7.70378 41.3028 7.33558 40.9346C6.96738 40.5664 6.6753 40.1293 6.47603 39.6482C6.27676 39.1671 6.17419 38.6515 6.17419 38.1308V9.55505C6.17419 8.61351 6.35964 7.6812 6.71995 6.81134C7.08026 5.94147 7.60838 5.1511 8.27414 4.48533C9.61872 3.14076 11.4423 2.38538 13.3439 2.38538Z" fill="#BF1010"/>
    <path d="M22.2038 24.7212C27.913 24.7212 32.5412 20.093 32.5412 14.3838C32.5412 8.67464 27.913 4.04643 22.2038 4.04643C16.4947 4.04643 11.8665 8.67464 11.8665 14.3838C11.8665 20.093 16.4947 24.7212 22.2038 24.7212Z" fill="#FF0000"/>
    <path d="M14.4169 15.0012H29.991C31.7015 15.0012 33.3419 15.6807 34.5514 16.8902C35.7609 18.0997 36.4404 19.7401 36.4404 21.4506V26.9005H7.96387V21.4543C7.96339 20.6067 8.12998 19.7674 8.4541 18.9842C8.77823 18.2011 9.25354 17.4895 9.85286 16.8902C10.4522 16.2909 11.1637 15.8156 11.9469 15.4915C12.73 15.1673 13.5694 15.0008 14.4169 15.0012Z" fill="#848A8D"/>
    <path d="M13.5454 15H30.9606C32.4313 15 33.8418 15.5842 34.8817 16.6242C35.9217 17.6642 36.5059 19.0746 36.5059 20.5454V29.1629C36.504 30.2127 36.0859 31.2188 35.3433 31.9607C34.6007 32.7026 33.5941 33.1198 32.5444 33.1208H11.9652C10.9135 33.1208 9.90499 32.703 9.16137 31.9594C8.41776 31.2158 8 30.2072 8 29.1556V20.549C7.99952 19.8205 8.1426 19.099 8.42106 18.4258C8.69953 17.7526 9.10792 17.1408 9.62291 16.6255C10.1379 16.1102 10.7494 15.7014 11.4224 15.4225C12.0954 15.1436 12.8168 15 13.5454 15Z" fill="url(#paint0_linear_13_19519)" fill-opacity="0.5"/>
    <path d="M13.4945 21.7703H30.9097C32.3804 21.7703 33.7909 22.3546 34.8308 23.3945C35.8708 24.4345 36.455 25.845 36.455 27.3157V35.9332C36.4531 36.983 36.035 37.9891 35.2924 38.731C34.5498 39.4729 33.5432 39.8901 32.4935 39.8911H11.9143C10.8626 39.8911 9.85408 39.4733 9.11047 38.7297C8.36685 37.9861 7.9491 36.9775 7.9491 35.9259V27.3194C7.94862 26.5908 8.09169 25.8693 8.37016 25.1961C8.64862 24.5229 9.05702 23.9111 9.572 23.3958C10.087 22.8805 10.6985 22.4717 11.3715 22.1928C12.0445 21.9139 12.7659 21.7703 13.4945 21.7703Z" fill="url(#paint1_linear_13_19519)"/>
    <path d="M13.8692 1H30.5348C30.795 1 31.0446 1.10338 31.2286 1.28738C31.4126 1.47139 31.516 1.72096 31.516 1.98119V2.3891H12.8881V1.97752C12.889 1.71793 12.9928 1.4693 13.1767 1.28608C13.3606 1.10287 13.6097 0.999998 13.8692 1Z" fill="#222B32"/>
    <path d="M4.97253 20.903H1.48876C1.21882 20.903 1 21.1219 1 21.3918V21.7593C1 22.0292 1.21882 22.248 1.48876 22.248H4.97253C5.24246 22.248 5.46128 22.0292 5.46128 21.7593V21.3918C5.46128 21.1219 5.24246 20.903 4.97253 20.903Z" fill="#E4EDF1"/>
    <path d="M6.98997 20.282H3.73037C3.59782 20.282 3.47069 20.3347 3.37697 20.4284C3.28324 20.5221 3.23059 20.6492 3.23059 20.7818C3.23059 20.8473 3.24354 20.9121 3.2687 20.9725C3.29386 21.0329 3.33073 21.0878 3.37719 21.1339C3.42365 21.18 3.47878 21.2165 3.53939 21.2412C3.60001 21.2659 3.66491 21.2784 3.73037 21.2779H6.98997C7.05543 21.2784 7.12034 21.2659 7.18096 21.2412C7.24158 21.2165 7.29669 21.18 7.34315 21.1339C7.38961 21.0878 7.42648 21.0329 7.45164 20.9725C7.4768 20.9121 7.48976 20.8473 7.48976 20.7818C7.48976 20.6492 7.4371 20.5221 7.34337 20.4284C7.24965 20.3347 7.12252 20.282 6.98997 20.282Z" fill="#BEC9D2"/>
    <path d="M39.4316 22.2444H42.9154C43.1854 22.2444 43.4042 22.0256 43.4042 21.7556V21.3881C43.4042 21.1182 43.1854 20.8994 42.9154 20.8994H39.4316C39.1617 20.8994 38.9429 21.1182 38.9429 21.3881V21.7556C38.9429 22.0256 39.1617 22.2444 39.4316 22.2444Z" fill="#E4EDF1"/>
    <path d="M37.4179 20.282H40.6775C40.81 20.282 40.9372 20.3347 41.0309 20.4284C41.1246 20.5221 41.1773 20.6492 41.1773 20.7818C41.1773 20.8473 41.1643 20.9121 41.1392 20.9725C41.114 21.0329 41.0771 21.0878 41.0307 21.1339C40.9842 21.18 40.9291 21.2165 40.8685 21.2412C40.8078 21.2659 40.7429 21.2784 40.6775 21.2779H37.4179C37.3524 21.2784 37.2875 21.2659 37.2269 21.2412C37.1663 21.2165 37.1111 21.18 37.0647 21.1339C37.0182 21.0878 36.9814 21.0329 36.9562 20.9725C36.931 20.9121 36.9181 20.8473 36.9181 20.7818C36.9181 20.6492 36.9708 20.5221 37.0645 20.4284C37.1582 20.3347 37.2853 20.282 37.4179 20.282Z" fill="#BEC9D2"/>
    <path d="M12.3002 38.3183C12.171 38.3187 12.043 38.2937 11.9236 38.2446C11.8041 38.1955 11.6955 38.1233 11.604 38.0322C11.5125 37.941 11.4399 37.8327 11.3903 37.7134C11.3408 37.5941 11.3153 37.4662 11.3153 37.3371V27.0915C11.3163 26.831 11.4205 26.5814 11.6051 26.3975C11.7897 26.2136 12.0396 26.1103 12.3002 26.1103C12.5601 26.1113 12.8091 26.215 12.9929 26.3988C13.1767 26.5826 13.2804 26.8316 13.2814 27.0915V37.3371C13.2814 37.5973 13.178 37.8469 12.994 38.0309C12.81 38.2149 12.5604 38.3183 12.3002 38.3183Z" fill="#CAD6DD"/>
    <path d="M16.5814 27.0915C16.5814 26.5496 16.1421 26.1103 15.6002 26.1103C15.0583 26.1103 14.619 26.5496 14.619 27.0915V37.3371C14.619 37.879 15.0583 38.3183 15.6002 38.3183C16.1421 38.3183 16.5814 37.879 16.5814 37.3371V27.0915Z" fill="#CAD6DD"/>
    <path d="M18.9039 38.3183C18.7748 38.3187 18.6468 38.2937 18.5273 38.2446C18.4078 38.1955 18.2992 38.1233 18.2077 38.0322C18.1162 37.941 18.0436 37.8327 17.9941 37.7134C17.9446 37.5941 17.9191 37.4662 17.9191 37.3371V27.0915C17.92 26.831 18.0242 26.5814 18.2088 26.3975C18.3934 26.2136 18.6434 26.1103 18.9039 26.1103C19.1639 26.1113 19.4129 26.215 19.5967 26.3988C19.7805 26.5826 19.8841 26.8316 19.8851 27.0915V37.3371C19.8851 37.5973 19.7817 37.8469 19.5977 38.0309C19.4137 38.2149 19.1642 38.3183 18.9039 38.3183Z" fill="#CAD6DD"/>
    <path d="M22.2038 38.3183C22.0749 38.3187 21.9471 38.2937 21.8278 38.2446C21.7085 38.1954 21.6002 38.1232 21.509 38.0319C21.4178 37.9407 21.3455 37.8324 21.2964 37.7131C21.2472 37.5939 21.2222 37.4661 21.2227 37.3371V27.0915C21.2227 26.9627 21.248 26.8351 21.2974 26.716C21.3467 26.597 21.4189 26.4888 21.51 26.3977C21.6012 26.3066 21.7093 26.2343 21.8284 26.185C21.9474 26.1357 22.075 26.1103 22.2038 26.1103C22.3327 26.1103 22.4603 26.1357 22.5793 26.185C22.6984 26.2343 22.8065 26.3066 22.8977 26.3977C22.9888 26.4888 23.061 26.597 23.1103 26.716C23.1597 26.8351 23.185 26.9627 23.185 27.0915V37.3371C23.1855 37.4661 23.1605 37.5939 23.1113 37.7131C23.0622 37.8324 22.9899 37.9407 22.8987 38.0319C22.8075 38.1232 22.6992 38.1954 22.5799 38.2446C22.4606 38.2937 22.3328 38.3187 22.2038 38.3183Z" fill="#CAD6DD"/>
    <path d="M25.5077 38.3183C25.3785 38.3187 25.2505 38.2937 25.1311 38.2446C25.0116 38.1955 24.903 38.1233 24.8115 38.0322C24.72 37.941 24.6474 37.8327 24.5979 37.7134C24.5483 37.5941 24.5228 37.4662 24.5228 37.3371V27.0915C24.5238 26.831 24.628 26.5814 24.8126 26.3975C24.9972 26.2136 25.2471 26.1103 25.5077 26.1103C25.7676 26.1113 26.0166 26.215 26.2004 26.3988C26.3842 26.5826 26.4879 26.8316 26.4889 27.0915V37.3371C26.4889 37.5973 26.3855 37.8469 26.2015 38.0309C26.0175 38.2149 25.7679 38.3183 25.5077 38.3183Z" fill="#CAD6DD"/>
    <path d="M28.8077 38.3183C28.6787 38.3187 28.5509 38.2937 28.4317 38.2446C28.3124 38.1954 28.2041 38.1232 28.1128 38.0319C28.0216 37.9407 27.9494 37.8324 27.9002 37.7131C27.8511 37.5939 27.8261 37.4661 27.8265 37.3371V27.0915C27.8265 26.9627 27.8519 26.8351 27.9012 26.716C27.9505 26.597 28.0228 26.4888 28.1139 26.3977C28.205 26.3066 28.3132 26.2343 28.4322 26.185C28.5513 26.1357 28.6789 26.1103 28.8077 26.1103C28.9366 26.1103 29.0642 26.1357 29.1832 26.185C29.3023 26.2343 29.4104 26.3066 29.5015 26.3977C29.5927 26.4888 29.6649 26.597 29.7142 26.716C29.7635 26.8351 29.7889 26.9627 29.7889 27.0915V37.3371C29.7894 37.4661 29.7644 37.5939 29.7152 37.7131C29.6661 37.8324 29.5938 37.9407 29.5026 38.0319C29.4114 38.1232 29.3031 38.1954 29.1838 38.2446C29.0645 38.2937 28.9367 38.3187 28.8077 38.3183Z" fill="#CAD6DD"/>
    <path d="M32.1114 38.3183C31.9823 38.3187 31.8543 38.2937 31.7348 38.2446C31.6154 38.1955 31.5068 38.1233 31.4153 38.0322C31.3238 37.941 31.2512 37.8327 31.2016 37.7134C31.1521 37.5941 31.1266 37.4662 31.1266 37.3371V27.0915C31.1276 26.831 31.2317 26.5814 31.4163 26.3975C31.6009 26.2136 31.8509 26.1103 32.1114 26.1103C32.3714 26.1113 32.6204 26.215 32.8042 26.3988C32.988 26.5826 33.0917 26.8316 33.0926 27.0915V37.3371C33.0926 37.5973 32.9893 37.8469 32.8053 38.0309C32.6212 38.2149 32.3717 38.3183 32.1114 38.3183Z" fill="#CAD6DD"/>
    <path d="M34.3825 29.517H10.0255C6.89996 29.517 4.36621 32.0507 4.36621 35.1762V87.6901C4.36621 90.8156 6.89996 93.3494 10.0255 93.3494H34.3825C37.5081 93.3494 40.0418 90.8156 40.0418 87.6901V35.1762C40.0418 32.0507 37.5081 29.517 34.3825 29.517Z" fill="#BF1010"/>
    <path d="M32.8795 31.7108H11.5248C8.68342 31.7108 6.38 34.0143 6.38 36.8557V86.0144C6.38 88.8558 8.68342 91.1592 11.5248 91.1592H32.8795C35.7209 91.1592 38.0243 88.8558 38.0243 86.0144V36.8557C38.0243 34.0143 35.7209 31.7108 32.8795 31.7108Z" fill="#FF0000"/>
    <path d="M30.7729 37H13.2272C10.8926 37 9 38.8598 9 41.154V80.846C9 83.1402 10.8926 85 13.2272 85H30.7729C33.1074 85 35 83.1402 35 80.846V41.154C35 38.8598 33.1074 37 30.7729 37Z" fill="#BF1010"/>
  </g>
  <defs>
    <filter id="filter0_d_13_19519" x="0" y="0" width="50.4042" height="100.349" filterUnits="userSpaceOnUse" color-interpolation-filters="sRGB">
      <feFlood flood-opacity="0" result="BackgroundImageFix"/>
      <feColorMatrix in="SourceAlpha" type="matrix" values="0 0 0 0 0 0 0 0 0 0 0 0 0 0 0 0 0 0 127 0" result="hardAlpha"/>
      <feOffset dx="3" dy="3"/>
      <feGaussianBlur stdDeviation="2"/>
      <feComposite in2="hardAlpha" operator="out"/>
      <feColorMatrix type="matrix" values="0 0 0 0 0 0 0 0 0 0 0 0 0 0 0 0 0 0 0.25 0"/>
      <feBlend mode="normal" in2="BackgroundImageFix" result="effect1_dropShadow_13_19519"/>
      <feBlend mode="normal" in="SourceGraphic" in2="effect1_dropShadow_13_19519" result="shape"/>
    </filter>
    <linearGradient id="paint0_linear_13_19519" x1="11.0509" y1="22.2297" x2="32.0509" y2="17.2297" gradientUnits="userSpaceOnUse">
      <stop stop-color="#363B39"/>
      <stop offset="1"/>
    </linearGradient>
    <linearGradient id="paint1_linear_13_19519" x1="11" y1="29" x2="32" y2="24" gradientUnits="userSpaceOnUse">
      <stop stop-color="#363B39"/>
      <stop offset="1"/>
    </linearGradient>
  </defs>
</svg>