<svg width="48" height="76" viewBox="0 0 48 76" fill="none" xmlns="http://www.w3.org/2000/svg">
<g filter="url(#filter0_d_13_23246)">
<path d="M4.76321 20.6228C4.92947 17.4135 7.42833 6.49831 8.42188 4.88836C9.41542 3.27842 11.5558 2.06426 14.3839 1.45922C17.2121 0.85417 23.7849 0.85417 26.6122 1.45922C29.4396 2.06426 31.5807 3.27436 32.5743 4.88836C33.5678 6.50236 36.0667 17.4175 36.2321 20.6228C36.8737 33.032 36.2427 65.2 36.0902 66.9146C35.9377 68.6292 35.0196 68.2253 35.0196 68.2253H5.97655C5.97655 68.2253 5.05924 68.6308 4.90595 66.9146C4.75266 65.1984 4.12247 33.0279 4.76321 20.6228Z" fill="#00CAF6"/>
<path d="M7.21265 24.228H34.5995V66.5026H7.21265V24.228Z" fill="#1F7284"/>
<path d="M10.4195 24.228H30.9595V66.5026H10.4195V24.228Z" fill="#00CAF6"/>
<path d="M10.2265 11.4677C11.1624 9.55519 20.2025 8.77577 20.8846 8.71899H20.9057H20.9267C21.6121 8.77577 30.6489 9.55519 31.5848 11.4677C33.0399 14.4434 34.8712 23.0609 34.5654 24.5621C34.5654 24.5621 30.8005 25.2288 30.8005 25.1453L20.9267 25.1526H20.8846L11.0108 25.1453C11.0108 25.2264 7.24586 24.5621 7.24586 24.5621C6.9401 23.0609 8.77146 14.4434 10.2265 11.4677Z" fill="#385459"/>
<path d="M10.2265 11.4677C11.1624 9.55519 20.2025 8.77577 20.8846 8.71899H20.9057H20.9267C21.6121 8.77577 30.6489 9.55519 31.5848 11.4677C33.0399 14.4434 34.8712 23.0609 34.5654 24.5621L33.9839 24.6635C33.6725 21.6505 32.2945 15.4783 31.1558 13.0525C30.2579 11.14 21.5853 10.3606 20.9259 10.3038H20.9057H20.8854C20.2276 10.3606 11.5534 11.14 10.6555 13.0525C9.52007 15.4783 8.14127 21.6496 7.82739 24.6635L7.24586 24.5621C6.9401 23.0609 8.77146 14.4434 10.2265 11.4677Z" fill="#40413C"/>
<path d="M29.202 2.2581C29.202 2.2581 28.6342 2.37733 28.4071 3.29463C28.18 4.21194 28.4071 5.12924 28.4071 5.12924C28.4071 5.12924 22.9731 4.41714 20.6891 4.30522C17.1205 4.12841 12.2801 5.12924 12.2801 5.12924C12.2801 5.12924 12.9744 4.21518 12.7392 3.37818C12.6734 3.13376 12.5547 2.90677 12.3916 2.71323C12.2285 2.5197 12.0248 2.36433 11.7951 2.2581C11.7951 2.2581 13.2607 1.03584 19.5423 1.00097C26.9553 0.959604 29.202 2.2581 29.202 2.2581Z" fill="#40413C"/>
<path d="M29.2019 2.25812C29.2019 2.25812 30.4712 2.33436 31.3918 3.06917C32.3123 3.80399 32.5784 4.88837 32.5784 4.88837C32.5784 4.88837 31.7487 5.1317 31.494 5.63374C31.2393 6.13578 30.9636 7.74248 30.9636 7.74248C30.9636 7.74248 28.8637 6.1893 28.4112 5.12925C27.3625 2.68311 29.2019 2.25812 29.2019 2.25812Z" fill="#95968D"/>
<path d="M29.2019 2.25812C29.2019 2.25812 30.4712 2.33436 31.3918 3.06917C32.3123 3.80399 32.5784 4.88837 32.5784 4.88837C32.5784 4.88837 31.7487 5.1317 31.494 5.63374C31.2393 6.13578 30.9636 7.74248 30.9636 7.74248C30.9636 7.74248 28.8637 6.1893 28.4112 5.12925C27.3625 2.68311 29.2019 2.25812 29.2019 2.25812ZM28.7567 4.88189C29.1265 5.74891 30.8451 7.01983 30.8451 7.01983C30.8451 7.01983 31.0706 5.70024 31.2791 5.29065C31.4875 4.88107 32.1664 4.68075 32.1664 4.68075C32.1664 4.68075 31.9466 3.78858 31.1931 3.19164C30.4396 2.59471 29.4039 2.53145 29.4039 2.53145C29.4039 2.53145 27.9018 2.87939 28.7567 4.87864V4.88189Z" fill="#385459"/>
<path d="M11.7635 2.25812C11.7635 2.25812 10.4942 2.33436 9.57367 3.06917C8.65312 3.80399 8.38872 4.88431 8.38872 4.88431C8.38872 4.88431 9.21843 5.12764 9.4731 5.62968C9.72777 6.13172 10.0043 7.73842 10.0043 7.73842C10.0043 7.73842 12.1033 6.18525 12.5559 5.12521C13.6022 2.68312 11.7635 2.25812 11.7635 2.25812Z" fill="#95968D"/>
<path d="M12.5576 5.12925C12.105 6.1893 10.006 7.74248 10.006 7.74248C10.006 7.74248 9.72944 6.1301 9.47477 5.63374C9.2201 5.13737 8.39039 4.88837 8.39039 4.88837C8.39039 4.88837 8.65966 3.79912 9.57696 3.06917C10.4943 2.33922 11.7668 2.25812 11.7668 2.25812C11.7668 2.25812 13.6022 2.68311 12.5576 5.12925ZM11.5584 2.53388C11.5584 2.53388 10.5194 2.59633 9.76918 3.19408C9.01895 3.79183 8.79591 4.68317 8.79591 4.68317C8.79591 4.68317 9.47477 4.88432 9.68321 5.29309C9.89165 5.70186 10.1171 7.02226 10.1171 7.02226C10.1171 7.02226 11.8357 5.75133 12.2056 4.88431C13.0629 2.87939 11.5584 2.53145 11.5584 2.53145V2.53388Z" fill="#385459"/>
<path d="M26.2855 62.723C26.2855 63.0944 26.3956 63.4574 26.6019 63.7662C26.8082 64.0749 27.1014 64.3156 27.4445 64.4577C27.7876 64.5998 28.1651 64.637 28.5294 64.5646C28.8936 64.4921 29.2281 64.3133 29.4907 64.0507C29.7533 63.7881 29.9321 63.4536 30.0046 63.0893C30.077 62.7251 30.0398 62.3476 29.8977 62.0045C29.7556 61.6614 29.515 61.3682 29.2062 61.1619C28.8974 60.9556 28.5344 60.8455 28.1631 60.8455C27.9165 60.8454 27.6723 60.8938 27.4444 60.9882C27.2166 61.0825 27.0095 61.2208 26.8352 61.3951C26.6608 61.5695 26.5225 61.7766 26.4282 62.0044C26.3338 62.2322 26.2854 62.4764 26.2855 62.723Z" fill="#40413C"/>
<path d="M26.8626 63.0528C26.6811 62.3345 27.1163 61.6051 27.8346 61.4236C28.5529 61.2421 29.2823 61.6772 29.4638 62.3956C29.6453 63.1139 29.2101 63.8433 28.4918 64.0248C27.7735 64.2063 27.0441 63.7711 26.8626 63.0528Z" fill="#4848CC"/>
<path d="M28.4217 62.5649C28.2952 62.2916 27.9521 62.0604 27.7988 61.8211L27.9935 61.7725C29.3106 61.5973 29.734 63.5503 28.2936 63.4757C28.3236 63.0864 28.6123 62.9785 28.4217 62.5649Z" fill="#2974E2"/>
<path d="M11.0773 62.723C11.0773 63.0944 11.1874 63.4574 11.3938 63.7662C11.6001 64.0749 11.8933 64.3156 12.2364 64.4577C12.5795 64.5998 12.957 64.637 13.3212 64.5646C13.6854 64.4921 14.02 64.3133 14.2826 64.0507C14.5452 63.7881 14.724 63.4536 14.7964 63.0893C14.8689 62.7251 14.8317 62.3476 14.6896 62.0045C14.5475 61.6614 14.3068 61.3682 13.9981 61.1619C13.6893 60.9556 13.3263 60.8455 12.9549 60.8455C12.457 60.8455 11.9794 61.0433 11.6273 61.3954C11.2752 61.7475 11.0773 62.2251 11.0773 62.723Z" fill="#40413C"/>
<path d="M11.6143 62.7231C11.6141 62.9885 11.6927 63.248 11.84 63.4687C11.9874 63.6894 12.1969 63.8615 12.442 63.9631C12.6872 64.0648 12.957 64.0914 13.2173 64.0397C13.4776 63.9879 13.7167 63.8602 13.9043 63.6725C14.092 63.4848 14.2198 63.2457 14.2715 62.9854C14.3232 62.7251 14.2966 62.4554 14.195 62.2102C14.0933 61.965 13.9213 61.7555 13.7005 61.6082C13.4798 61.4608 13.2203 61.3823 12.9549 61.3824C12.5994 61.3827 12.2586 61.524 12.0072 61.7754C11.7558 62.0267 11.6145 62.3676 11.6143 62.7231Z" fill="#4848CC"/>
<path d="M13.212 62.5649C13.0855 62.2916 12.7424 62.0604 12.5891 61.8211L12.7846 61.7725C14.1018 61.5973 14.5251 63.5503 13.0847 63.4757C13.1163 63.0864 13.4042 62.9785 13.212 62.5649Z" fill="#2974E2"/>
<path d="M12.6953 27.0318H27.9423C28.4489 27.0318 28.8596 27.4425 28.8596 27.9491V30.259C28.8596 30.7656 28.4489 31.1763 27.9423 31.1763H12.6953C12.1887 31.1763 11.778 30.7656 11.778 30.259V27.9491C11.778 27.4425 12.1887 27.0318 12.6953 27.0318Z" fill="#4848CC"/>
<path d="M12.4334 27.6628H28.1273V28.4779H12.4334V27.6628Z" fill="#2974E2"/>
<path d="M17.5423 27.0318H23.0964V31.1763H17.5423V27.0318Z" fill="#F71E1E"/>
<path d="M17.9999 27.6628H21.6899V28.4779H17.9999V27.6628Z" fill="#F77777"/>
<path d="M14.9696 35.444H25.8085C26.3151 35.444 26.7258 35.8547 26.7258 36.3613V42.3988C26.7258 42.9054 26.3151 43.3161 25.8085 43.3161H14.9696C14.463 43.3161 14.0523 42.9054 14.0523 42.3988V36.3613C14.0523 35.8547 14.463 35.444 14.9696 35.444Z" fill="white"/>
<path d="M17.9096 38.6607H19.6688V36.9016H21.1084V38.6607H22.8676V40.1004H21.1084V41.8595H19.6688V40.1004H17.9096V38.6607Z" fill="#F71E1E"/>
<path d="M17.8011 5.74325H19.5602V4.67346H20.9999V5.74325H22.759V6.61918H20.9999V7.68897H19.5602V6.61918H17.8011V5.74325Z" fill="#FF0000"/>
<path d="M31.6976 4.15515C31.6733 4.11513 31.6462 4.07691 31.6165 4.04079L31.64 3.96942C31.664 4.02974 31.6832 4.09184 31.6976 4.15515Z" fill="#CECDB6"/>
<path d="M29.197 3.45925C29.412 2.27268 31.1322 3.41384 31.6188 4.04078L31.5377 4.27518C30.9027 4.54931 30.97 5.29954 30.1589 4.7464C29.7899 4.48929 29.1054 3.96616 29.197 3.45925Z" fill="#CECDB6"/>
<path d="M9.52907 4.32551C10.0157 3.96865 10.1877 3.45119 10.8649 3.31818C11.6638 3.16083 12.2753 3.54365 11.9128 4.37255C11.7278 4.79754 11.1236 5.52344 10.6508 5.59724C10.1284 5.67835 9.76752 4.79187 9.47798 4.37255L9.52907 4.32551Z" fill="#CECDB6"/>
<path opacity="0.2" d="M17.5423 10.702L23.0964 20.7332H21.8344L15.0208 11.1497L17.5423 10.702Z" fill="#CECDB6"/>
<path opacity="0.2" d="M24.5092 10.7385L29.202 22.8727L22.7589 10.4984L24.5092 10.7385Z" fill="#CECDB6"/>
<path opacity="0.2" d="M12.2298 11.9429L17.0191 21.0389L15.796 21.7007L10.7488 12.8959L12.2298 11.9429Z" fill="#CECDB6"/>
<path d="M30.9595 25.4721C30.9595 25.4721 30.5937 18.9666 20.7077 19.2173C10.8218 19.4679 10.4163 25.4721 10.4163 25.4721H30.9595Z" fill="#00CAF6"/>
<path d="M7.96375 23.0138L5.43649 21.8345L1.00003 22.0024L1.11195 22.6204L5.21184 22.3398L7.45765 23.9116L7.96375 23.0138Z" fill="#40413C"/>
<path d="M33.7707 23.0138L36.2979 21.8345L40.7344 22.0024L40.6216 22.6204L36.5226 22.3398L34.2759 23.9116L33.7707 23.0138Z" fill="#40413C"/>
</g>
<defs>
<filter id="filter0_d_13_23246" x="0" y="0" width="47.7344" height="75.267" filterUnits="userSpaceOnUse" color-interpolation-filters="sRGB">
<feFlood flood-opacity="0" result="BackgroundImageFix"/>
<feColorMatrix in="SourceAlpha" type="matrix" values="0 0 0 0 0 0 0 0 0 0 0 0 0 0 0 0 0 0 127 0" result="hardAlpha"/>
<feOffset dx="3" dy="3"/>
<feGaussianBlur stdDeviation="2"/>
<feComposite in2="hardAlpha" operator="out"/>
<feColorMatrix type="matrix" values="0 0 0 0 0 0 0 0 0 0 0 0 0 0 0 0 0 0 0.25 0"/>
<feBlend mode="normal" in2="BackgroundImageFix" result="effect1_dropShadow_13_23246"/>
<feBlend mode="normal" in="SourceGraphic" in2="effect1_dropShadow_13_23246" result="shape"/>
</filter>
</defs>
</svg>
