<svg width="45" height="69" viewBox="0 0 45 69" fill="none" xmlns="http://www.w3.org/2000/svg">
<g filter="url(#filter0_d_30_6257)">
<path d="M37.8524 44.8799H1V50.0422H37.8524V44.8799Z" fill="#FD7400"/>
<path d="M37.1364 38.7632H1.70337V56.1657H37.1364V38.7632Z" fill="#004358"/>
<g style="mix-blend-mode:multiply" opacity="0.5">
<path d="M37.1364 51.9136H1.70337V56.1653H37.1364V51.9136Z" fill="#003242"/>
</g>
<g style="mix-blend-mode:multiply" opacity="0.5">
<path d="M37.1364 38.7632H1.70337V40.8357H37.1364V38.7632Z" fill="#003242"/>
</g>
<path d="M37.1364 42.3931H1.70337V48.7863H37.1364V42.3931Z" fill="#0E6B87"/>
<path d="M33.6509 40.4775H5.19524L3.74451 41.9157V52.9877L5.19524 54.4385H33.6509C34.2224 53.8733 34.5364 53.5592 35.1017 52.9877V41.9157L33.6509 40.4775Z" fill="#C25900"/>
<path d="M35.1017 41.9282H3.74451V53.0065H35.1017V41.9282Z" fill="#FD7400"/>
<path d="M32.0118 4.5293H6.83435V8.05878H32.0118V4.5293Z" fill="#FD7400"/>
<path d="M31.5282 1H7.31799V11.5885H31.5282V1Z" fill="#004358"/>
<g style="mix-blend-mode:multiply" opacity="0.5">
<path d="M31.5282 9.00098H7.31799V11.5884H31.5282V9.00098Z" fill="#003242"/>
</g>
<g style="mix-blend-mode:multiply" opacity="0.5">
<path d="M31.5282 1H7.31799V2.26233H31.5282V1Z" fill="#003242"/>
</g>
<path d="M31.5282 3.75098H7.31799V7.10462H31.5282V3.75098Z" fill="#0E6B87"/>
<path d="M12.7628 15.501V16.1667C12.7628 16.2672 13.1082 16.3551 13.529 16.3739C17.4981 16.4995 21.5174 16.4995 25.4614 16.3739C25.8822 16.3739 26.2276 16.2672 26.2276 16.1667V15.501H12.7628Z" fill="#102030"/>
<path d="M25.719 27.2954C21.5992 27.4273 17.4166 27.4273 13.2967 27.2954C12.8571 27.2954 12.4991 27.1824 12.4991 27.0819V22.1143C12.4991 22.0138 12.8571 21.9321 13.2967 21.9321H25.719C26.1586 21.9321 26.5166 22.0138 26.5166 22.1143V27.0819C26.5166 27.1824 26.1586 27.2766 25.719 27.2954Z" fill="#102030"/>
<path d="M22.5475 21.9322H16.3489L16.9769 19.2129H21.9194L22.5475 21.9322Z" fill="#102030"/>
<path d="M22.5475 16.3867H16.3489L16.9769 19.2128H21.9194L22.5475 16.3867Z" fill="#102030"/>
<path d="M19.4513 21.6871C20.8179 21.6871 21.9257 20.5793 21.9257 19.2127C21.9257 17.8461 20.8179 16.7383 19.4513 16.7383C18.0848 16.7383 16.9769 17.8461 16.9769 19.2127C16.9769 20.5793 18.0848 21.6871 19.4513 21.6871Z" fill="#19334D"/>
<path d="M20.5504 19.2128C20.5504 19.4302 20.4859 19.6427 20.3652 19.8234C20.2444 20.0041 20.0727 20.145 19.8719 20.2282C19.6711 20.3114 19.4501 20.3331 19.2369 20.2907C19.0237 20.2483 18.8279 20.1437 18.6742 19.9899C18.5205 19.8362 18.4158 19.6404 18.3734 19.4272C18.331 19.214 18.3528 18.993 18.436 18.7922C18.5191 18.5914 18.66 18.4198 18.8407 18.299C19.0215 18.1782 19.234 18.1138 19.4513 18.1138C19.7428 18.1138 20.0224 18.2296 20.2285 18.4357C20.4346 18.6418 20.5504 18.9213 20.5504 19.2128Z" fill="#FFD000"/>
<path d="M11.7769 22.6104H27.2388C27.437 22.6104 27.6271 22.6891 27.7673 22.8292C27.9074 22.9694 27.9861 23.1595 27.9861 23.3577V25.3171H11.0295V23.3577C11.0295 23.1595 11.1083 22.9694 11.2484 22.8292C11.3886 22.6891 11.5787 22.6104 11.7769 22.6104Z" fill="#19334D"/>
<path d="M8.99013 15.2975L8.76196 16.5518L10.4488 16.8586L10.677 15.6043L8.99013 15.2975Z" fill="#004358"/>
<path d="M9.18727 17.1989L8.00256 23.6489L8.82113 23.7993L10.0058 17.3492L9.18727 17.1989Z" fill="#E0E0E0"/>
<path d="M7.83906 21.62L6.65662 28.1201L8.34344 28.427L9.52588 21.9268L7.83906 21.62Z" fill="#004358"/>
<path d="M30.026 15.2913L28.3392 15.5981L28.5674 16.8524L30.2542 16.5456L30.026 15.2913Z" fill="#004358"/>
<path d="M29.8191 16.6313L28.9973 16.7808L30.1753 23.2562L30.997 23.1067L29.8191 16.6313Z" fill="#E0E0E0"/>
<path d="M30.6192 21.3037L28.939 21.6123L30.1282 28.087L31.8084 27.7784L30.6192 21.3037Z" fill="#004358"/>
<path d="M19.4262 61.3653H9.79229L5.95508 57.5281V28.2937L9.68553 25.3105H19.4262H29.1605L32.8972 28.2937V57.5281L29.0537 61.3653H19.4262Z" fill="#FD9400"/>
<path d="M9.472 47.5303H29.5687L32.6272 44.4719V28.4761L30.5861 26.4351H8.41693L6.37585 28.4761V44.4719L9.472 47.5303Z" fill="#FFBA1A"/>
<path d="M8.20337 46.2803H30.8122L29.2233 61.7799H9.79226L8.20337 46.2803Z" fill="#FFBA1A"/>
<path d="M19.4451 60.9261L13.0958 60.3295L13.0643 58.5836L10.3513 57.6918L9.84888 46.2932L10.3324 46.2681L10.816 57.3338L13.5416 58.2319L13.573 59.8899L19.4451 60.4488L25.2731 59.8899L25.3045 58.2319L28.0301 57.3338L28.5137 46.2681L28.9973 46.2932L28.4949 57.6918L25.7818 58.5836L25.7504 60.3295L19.4451 60.9261Z" fill="#FD7400"/>
<path d="M30.0712 30.624H8.94452C8.67745 30.624 8.46094 30.8405 8.46094 31.1076V44.3212C8.46094 44.5883 8.67745 44.8048 8.94452 44.8048H30.0712C30.3383 44.8048 30.5548 44.5883 30.5548 44.3212V31.1076C30.5548 30.8405 30.3383 30.624 30.0712 30.624Z" fill="#FFE11A"/>
<path d="M29.1041 44.0759H9.9117C9.72016 44.0759 9.53646 43.9998 9.40101 43.8644C9.26557 43.729 9.18948 43.5453 9.18948 43.3537V32.0493C9.18865 31.9539 9.20672 31.8593 9.24265 31.771C9.27857 31.6826 9.33163 31.6023 9.39878 31.5346C9.46593 31.4668 9.54583 31.4131 9.63387 31.3764C9.7219 31.3397 9.81633 31.3208 9.9117 31.3208H29.1041C29.2973 31.3208 29.4826 31.3976 29.6192 31.5342C29.7558 31.6708 29.8326 31.8561 29.8326 32.0493V43.3537C29.8309 43.5458 29.7534 43.7295 29.617 43.8648C29.4805 44.0001 29.2962 44.0759 29.1041 44.0759ZM9.9117 31.8295C9.87954 31.8295 9.84769 31.8358 9.81797 31.8481C9.78826 31.8605 9.76125 31.8785 9.73851 31.9012C9.71577 31.924 9.69773 31.951 9.68542 31.9807C9.67311 32.0104 9.66677 32.0423 9.66677 32.0744V43.3788C9.66841 43.4427 9.69494 43.5034 9.7407 43.548C9.78645 43.5926 9.84782 43.6175 9.9117 43.6175H29.1041C29.1679 43.6175 29.2293 43.5926 29.2751 43.548C29.3208 43.5034 29.3474 43.4427 29.349 43.3788V32.0744C29.349 32.0423 29.3427 32.0104 29.3304 31.9807C29.318 31.951 29.3 31.924 29.2773 31.9012C29.2545 31.8785 29.2275 31.8605 29.1978 31.8481C29.1681 31.8358 29.1362 31.8295 29.1041 31.8295H9.9117Z" fill="#FD7400"/>
<path d="M30.8248 30.2972L31.5847 29.1353C31.6294 29.0679 31.6946 29.0167 31.7707 28.9892C31.8467 28.9618 31.9296 28.9595 32.007 28.9827C32.0845 29.0059 32.1524 29.0535 32.2008 29.1183C32.2491 29.1831 32.2753 29.2617 32.2756 29.3426V41.3315H30.8248V30.2972Z" fill="#2CA3E8"/>
<g style="mix-blend-mode:overlay">
<path d="M32.263 31.8232V36.2634C31.7794 36.7532 31.2958 37.2305 30.8123 37.7141V33.2551L32.263 31.8232Z" fill="#2CA3E8"/>
</g>
<path d="M8.21599 30.2972L7.45608 29.1353C7.41138 29.0679 7.3462 29.0167 7.27015 28.9892C7.19411 28.9618 7.11124 28.9595 7.03379 28.9827C6.95634 29.0059 6.88842 29.0535 6.84006 29.1183C6.79171 29.1831 6.76548 29.2617 6.76526 29.3426V41.3315H8.21599V30.2972Z" fill="#2CA3E8"/>
<g style="mix-blend-mode:overlay">
<path d="M8.20342 35.02V41.3316H6.75269V36.4708L8.20342 35.02Z" fill="#2CA3E8"/>
</g>
<path d="M9.08263 30.2971L7.9773 27.6029C7.95494 27.5461 7.94668 27.4848 7.95323 27.4242C7.95978 27.3636 7.98096 27.3054 8.01493 27.2548C8.0489 27.2041 8.09465 27.1625 8.14826 27.1334C8.20187 27.1043 8.26174 27.0887 8.32272 27.0879H30.6929C30.7538 27.0887 30.8137 27.1043 30.8673 27.1334C30.9209 27.1625 30.9667 27.2041 31.0007 27.2548C31.0346 27.3054 31.0558 27.3636 31.0624 27.4242C31.0689 27.4848 31.0607 27.5461 31.0383 27.6029L29.933 30.2971H9.08263Z" fill="#2CA3E8"/>
<g style="mix-blend-mode:overlay">
<path d="M17.7431 27.0879H24.9151C23.8412 28.1555 22.7736 29.2294 21.6934 30.2971H14.5339L17.7431 27.0879Z" fill="#2CA3E8"/>
</g>
<path d="M8.20348 41.9473H7.95227V44.7985H8.20348V41.9473Z" fill="#102030"/>
<path d="M7.47497 41.9473H7.22375V44.7985H7.47497V41.9473Z" fill="#102030"/>
<path d="M6.75267 41.9473H6.50146V44.7985H6.75267V41.9473Z" fill="#102030"/>
<path d="M31.0635 41.9473H30.8123V44.7985H31.0635V41.9473Z" fill="#102030"/>
<path d="M31.7856 41.9473H31.5344V44.7985H31.7856V41.9473Z" fill="#102030"/>
<path d="M32.5142 41.9473H32.2629V44.7985H32.5142V41.9473Z" fill="#102030"/>
<path d="M9.89285 47.2478H29.1229C29.4506 47.2479 29.7655 47.1199 30.0001 46.8911C30.2348 46.6623 30.3707 46.3508 30.3789 46.0231C30.3789 45.69 30.2466 45.3705 30.0111 45.135C29.7755 44.8994 29.456 44.7671 29.1229 44.7671H9.89285C9.5652 44.7753 9.25373 44.9112 9.02493 45.1459C8.79612 45.3806 8.66811 45.6954 8.66821 46.0231C8.67617 46.3454 8.80775 46.6523 9.03572 46.8803C9.26368 47.1082 9.57057 47.2398 9.89285 47.2478Z" fill="#2CA3E8"/>
<g style="mix-blend-mode:overlay">
<path d="M29.1856 44.811C29.5088 44.8194 29.8154 44.9557 30.0379 45.1901C30.2605 45.4245 30.3809 45.7377 30.3726 46.0608C30.3643 46.3839 30.2279 46.6905 29.9935 46.9131C29.7592 47.1357 29.446 47.2561 29.1228 47.2478H26.7489C27.5653 46.4376 28.3692 45.6212 29.1856 44.811Z" fill="#2CA3E8"/>
</g>
<g style="mix-blend-mode:overlay">
<path d="M11.3561 47.2476H9.88026C9.60276 47.1844 9.35497 47.0288 9.17748 46.8063C8.99998 46.5838 8.90332 46.3076 8.90332 46.023C8.90332 45.7384 8.99998 45.4622 9.17748 45.2397C9.35497 45.0172 9.60276 44.8616 9.88026 44.7983H13.818L11.3561 47.2476Z" fill="#2CA3E8"/>
</g>
<g style="mix-blend-mode:overlay">
<path d="M19.288 44.7983H23.747C22.9243 45.6085 22.1204 46.4375 21.2977 47.2476H16.8262L19.288 44.7983Z" fill="#2CA3E8"/>
</g>
<g style="mix-blend-mode:multiply" opacity="0.3">
<path d="M16.5876 36.3828C16.394 36.1889 16.1564 36.0447 15.895 35.9627C15.6336 35.8806 15.3562 35.8632 15.0866 35.9118L13.0078 33.833L11.645 35.1958L13.7238 37.2746C13.6704 37.5618 13.6922 37.858 13.787 38.1344C13.8818 38.4107 14.0464 38.6579 14.2649 38.852C14.4833 39.046 14.7482 39.1803 15.0338 39.2418C15.3194 39.3033 15.6161 39.29 15.8951 39.2032C16.174 39.1163 16.4258 38.9588 16.626 38.746C16.8262 38.5332 16.968 38.2722 17.0377 37.9885C17.1073 37.7047 17.1025 37.4078 17.0236 37.1265C16.9448 36.8451 16.7946 36.589 16.5876 36.3828Z" fill="#583200"/>
</g>
<path d="M12.3296 36.2695C13.2973 36.2695 14.0818 35.485 14.0818 34.5173C14.0818 33.5496 13.2973 32.7651 12.3296 32.7651C11.3619 32.7651 10.5774 33.5496 10.5774 34.5173C10.5774 35.485 11.3619 36.2695 12.3296 36.2695Z" fill="#004358"/>
<path d="M12.3295 35.4784C12.8602 35.4784 13.2904 35.0482 13.2904 34.5175C13.2904 33.9868 12.8602 33.5566 12.3295 33.5566C11.7988 33.5566 11.3687 33.9868 11.3687 34.5175C11.3687 35.0482 11.7988 35.4784 12.3295 35.4784Z" fill="#668E9B"/>
<g style="mix-blend-mode:multiply" opacity="0.3">
<path d="M29.6629 55.9205C29.5408 55.9189 29.4242 55.8692 29.3384 55.7822C29.2526 55.6952 29.2045 55.5779 29.2045 55.4558V53.9548L26.0204 50.7707C25.974 50.6829 25.9569 50.5825 25.9717 50.4843C25.9866 50.3861 26.0324 50.2952 26.1027 50.225C26.1729 50.1547 26.2638 50.1089 26.362 50.0941C26.4602 50.0793 26.5606 50.0963 26.6484 50.1427L30.1025 53.5968V55.4809C30.0965 55.5955 30.0482 55.7039 29.9671 55.785C29.8859 55.8662 29.7776 55.9145 29.6629 55.9205Z" fill="#583200"/>
</g>
<path d="M26.8494 53.4965H25.8446V50.4883C25.8446 50.355 25.8975 50.2272 25.9918 50.133C26.086 50.0388 26.2138 49.9858 26.347 49.9858C26.4803 49.9858 26.6081 50.0388 26.7023 50.133C26.7965 50.2272 26.8494 50.355 26.8494 50.4883V53.4965Z" fill="#004358"/>
<path d="M25.8446 51.6938V53.4962H26.8494V51.6938C26.8495 51.6216 26.8212 51.5523 26.7707 51.5006C26.7203 51.449 26.6516 51.4191 26.5794 51.4175H26.1209C26.0476 51.4175 25.9774 51.4466 25.9255 51.4984C25.8737 51.5502 25.8446 51.6205 25.8446 51.6938Z" fill="#668E9B"/>
<path d="M20.475 54.2812H24.0233C24.1899 54.2812 24.3496 54.3474 24.4674 54.4652C24.5852 54.583 24.6513 54.7427 24.6513 54.9093C24.6417 55.0692 24.5713 55.2194 24.4546 55.3292C24.3378 55.4389 24.1835 55.4999 24.0233 55.4996H20.475C20.3184 55.4996 20.1683 55.4374 20.0575 55.3267C19.9468 55.216 19.8846 55.0658 19.8846 54.9093C19.8844 54.749 19.9453 54.5948 20.0551 54.478C20.1648 54.3612 20.315 54.2909 20.475 54.2812Z" fill="#004358"/>
<path d="M14.9924 54.2812H18.5407C18.7018 54.2893 18.8536 54.359 18.9646 54.4759C19.0757 54.5928 19.1375 54.748 19.1373 54.9093C19.1282 55.0639 19.0622 55.2098 18.9521 55.3187C18.842 55.4277 18.6955 55.4921 18.5407 55.4996H14.9924C14.8376 55.4921 14.6911 55.4277 14.581 55.3187C14.4708 55.2098 14.4049 55.0639 14.3958 54.9093C14.3956 54.748 14.4574 54.5928 14.5685 54.4759C14.6795 54.359 14.8313 54.2893 14.9924 54.2812Z" fill="#004358"/>
<path d="M20.475 52.1084H24.0233C24.1835 52.1081 24.3378 52.1691 24.4546 52.2788C24.5713 52.3886 24.6417 52.5388 24.6513 52.6987C24.6513 52.8653 24.5852 53.025 24.4674 53.1428C24.3496 53.2606 24.1899 53.3268 24.0233 53.3268H20.475C20.315 53.3171 20.1648 53.2468 20.0551 53.13C19.9453 53.0133 19.8844 52.859 19.8846 52.6987C19.8846 52.5422 19.9468 52.392 20.0575 52.2813C20.1683 52.1706 20.3184 52.1084 20.475 52.1084Z" fill="#004358"/>
<path d="M14.9924 52.1084H18.5407C18.6955 52.1159 18.842 52.1803 18.9521 52.2893C19.0622 52.3982 19.1282 52.5441 19.1373 52.6987C19.1375 52.86 19.0757 53.0152 18.9646 53.1321C18.8536 53.249 18.7018 53.3187 18.5407 53.3268H14.9924C14.8313 53.3187 14.6795 53.249 14.5685 53.1321C14.4574 53.0152 14.3956 52.86 14.3958 52.6987C14.4049 52.5441 14.4708 52.3982 14.581 52.2893C14.6911 52.1803 14.8376 52.1159 14.9924 52.1084Z" fill="#004358"/>
<path d="M20.475 49.9355H24.0233C24.1835 49.9353 24.3378 49.9962 24.4546 50.106C24.5713 50.2157 24.6417 50.3659 24.6513 50.5259C24.6417 50.6858 24.5713 50.8361 24.4546 50.9458C24.3378 51.0556 24.1835 51.1165 24.0233 51.1162H20.475C20.3184 51.1162 20.1683 51.054 20.0575 50.9433C19.9468 50.8326 19.8846 50.6825 19.8846 50.5259C19.8846 50.3693 19.9468 50.2192 20.0575 50.1085C20.1683 49.9977 20.3184 49.9355 20.475 49.9355Z" fill="#004358"/>
<path d="M14.9924 49.9355H18.5407C18.6955 49.943 18.842 50.0074 18.9521 50.1164C19.0622 50.2254 19.1282 50.3712 19.1373 50.5259C19.1282 50.6806 19.0622 50.8264 18.9521 50.9354C18.842 51.0443 18.6955 51.1088 18.5407 51.1162H14.9924C14.8376 51.1088 14.6911 51.0443 14.581 50.9354C14.4708 50.8264 14.4049 50.6806 14.3958 50.5259C14.4049 50.3712 14.4708 50.2254 14.581 50.1164C14.6911 50.0074 14.8376 49.943 14.9924 49.9355Z" fill="#004358"/>
<g style="mix-blend-mode:multiply" opacity="0.3">
<path d="M26.9938 33.2178H22.717C21.7215 33.2178 20.9146 34.0233 20.9146 35.0171C20.9146 36.0108 21.7215 36.8163 22.717 36.8163H26.9938C27.9893 36.8163 28.7962 36.0108 28.7962 35.0171C28.7962 34.0233 27.9893 33.2178 26.9938 33.2178Z" fill="#583200"/>
</g>
<path d="M26.5165 32.7339H22.2397C21.2442 32.7339 20.4373 33.5395 20.4373 34.5332C20.4373 35.5269 21.2442 36.3325 22.2397 36.3325H26.5165C27.512 36.3325 28.3189 35.5269 28.3189 34.5332C28.3189 33.5395 27.512 32.7339 26.5165 32.7339Z" fill="#FFED78"/>
<path d="M26.5166 35.9057H22.2335C21.8704 35.9057 21.5221 35.7614 21.2654 35.5047C21.0086 35.2479 20.8644 34.8997 20.8644 34.5366C20.8644 34.1735 21.0086 33.8252 21.2654 33.5685C21.5221 33.3117 21.8704 33.1675 22.2335 33.1675H26.5166C26.8797 33.1675 27.2279 33.3117 27.4847 33.5685C27.7414 33.8252 27.8857 34.1735 27.8857 34.5366C27.8857 34.8997 27.7414 35.2479 27.4847 35.5047C27.2279 35.7614 26.8797 35.9057 26.5166 35.9057ZM22.2335 33.4564C21.947 33.4564 21.6722 33.5702 21.4697 33.7728C21.2671 33.9753 21.1533 34.2501 21.1533 34.5366C21.1533 34.8231 21.2671 35.0978 21.4697 35.3004C21.6722 35.503 21.947 35.6168 22.2335 35.6168H26.5166C26.8031 35.6168 27.0778 35.503 27.2804 35.3004C27.483 35.0978 27.5968 34.8231 27.5968 34.5366C27.5968 34.2501 27.483 33.9753 27.2804 33.7728C27.0778 33.5702 26.8031 33.4564 26.5166 33.4564H22.2335Z" fill="#004358"/>
<path d="M23.7406 34.5364C23.7406 34.6035 23.7208 34.669 23.6835 34.7248C23.6462 34.7806 23.5933 34.824 23.5313 34.8497C23.4693 34.8754 23.4011 34.8821 23.3353 34.869C23.2696 34.8559 23.2091 34.8236 23.1617 34.7762C23.1143 34.7288 23.082 34.6683 23.0689 34.6026C23.0558 34.5368 23.0625 34.4686 23.0882 34.4066C23.1139 34.3446 23.1573 34.2917 23.2131 34.2544C23.2689 34.2172 23.3344 34.1973 23.4015 34.1973C23.4914 34.1973 23.5777 34.233 23.6413 34.2966C23.7049 34.3602 23.7406 34.4465 23.7406 34.5364Z" fill="#004358"/>
<path d="M25.6875 34.5365C25.6875 34.6038 25.6675 34.6696 25.6299 34.7255C25.5924 34.7814 25.539 34.8249 25.4767 34.8503C25.4144 34.8758 25.3458 34.8821 25.2799 34.8685C25.2139 34.8549 25.1535 34.822 25.1064 34.7739C25.0592 34.7259 25.0274 34.6649 25.015 34.5987C25.0027 34.5325 25.0103 34.4641 25.0369 34.4023C25.0636 34.3404 25.108 34.2879 25.1646 34.2514C25.2212 34.2149 25.2874 34.1961 25.3547 34.1973C25.4435 34.199 25.5282 34.2354 25.5904 34.2988C25.6527 34.3623 25.6876 34.4476 25.6875 34.5365Z" fill="#004358"/>
<path d="M28.3315 40.0317H27.4397V40.9235H28.3315V40.0317Z" fill="#004358"/>
<path d="M28.3315 41.7461H27.4397V42.6379H28.3315V41.7461Z" fill="#004358"/>
<path d="M11.4754 40.0317H10.5836V40.9235H11.4754V40.0317Z" fill="#004358"/>
<path d="M11.4754 41.7461H10.5836V42.6379H11.4754V41.7461Z" fill="#004358"/>
<path d="M32.5896 14.1003H6.2566L4.6991 12.5428V6.89062L6.01795 5.57178H6.83438V7.02251H6.61457L6.14355 7.49352V11.9399L6.85949 12.6496H31.993L32.7026 11.9399V7.49352L32.2316 7.02251H32.0118V5.57178H32.8282L34.1533 6.89062V12.5428L32.5896 14.1003Z" fill="#004358"/>
<path d="M31.4528 13.6611H7.39331L8.60539 15.7524H30.2408L31.4528 13.6611Z" fill="#FFE11A"/>
<path d="M31.4528 13.6611H7.39331L8.60539 14.7036H30.2408L31.4528 13.6611Z" fill="#FFBA1A"/>
</g>
<defs>
<filter id="filter0_d_30_6257" x="0" y="0" width="44.8523" height="68.7798" filterUnits="userSpaceOnUse" color-interpolation-filters="sRGB">
<feFlood flood-opacity="0" result="BackgroundImageFix"/>
<feColorMatrix in="SourceAlpha" type="matrix" values="0 0 0 0 0 0 0 0 0 0 0 0 0 0 0 0 0 0 127 0" result="hardAlpha"/>
<feOffset dx="3" dy="3"/>
<feGaussianBlur stdDeviation="2"/>
<feComposite in2="hardAlpha" operator="out"/>
<feColorMatrix type="matrix" values="0 0 0 0 0 0 0 0 0 0 0 0 0 0 0 0 0 0 0.25 0"/>
<feBlend mode="normal" in2="BackgroundImageFix" result="effect1_dropShadow_30_6257"/>
<feBlend mode="normal" in="SourceGraphic" in2="effect1_dropShadow_30_6257" result="shape"/>
</filter>
</defs>
</svg>
