<svg width="55" height="108" viewBox="0 0 55 108" fill="none" xmlns="http://www.w3.org/2000/svg">
<g filter="url(#filter0_d_30_2732)">
<path d="M12.2023 44.3188C10.5126 44.0145 8.78223 44.0145 7.0926 44.3188C6.82747 44.3664 6.58756 44.5059 6.41497 44.7127C6.24237 44.9195 6.1481 45.1805 6.14868 45.4499V53.4147C6.15071 53.6801 6.24413 53.9368 6.41322 54.1414C6.5823 54.346 6.81672 54.4861 7.077 54.5381C8.76663 54.8423 10.497 54.8423 12.1866 54.5381C12.4524 54.4888 12.6925 54.3477 12.865 54.1396C13.0375 53.9315 13.1315 53.6694 13.1306 53.3991V45.4499C13.1318 45.1828 13.0398 44.9235 12.8703 44.717C12.7008 44.5105 12.4645 44.3696 12.2023 44.3188Z" fill="#D6D6D6"/>
<path d="M12.4674 42.3376C11.5866 41.9176 10.6231 41.6997 9.64733 41.6997C8.67154 41.6997 7.70807 41.9176 6.82727 42.3376V56.5354C7.70807 56.9553 8.67154 57.1732 9.64733 57.1732C10.6231 57.1732 11.5866 56.9553 12.4674 56.5354V42.3376Z" fill="#004358"/>
<path d="M10.6576 42.6259C9.98735 42.5323 9.30735 42.5323 8.63712 42.6259L8.40309 41.8458C7.86284 41.9488 7.33834 42.1219 6.8429 42.3607V42.1501C7.39011 41.8804 7.97341 41.6912 8.57471 41.5884L8.80875 42.3685C9.3765 42.3059 9.94941 42.3059 10.5172 42.3685L10.7512 41.5884C11.3525 41.6912 11.9358 41.8804 12.483 42.1501V42.3607C11.9879 42.1211 11.4633 41.9479 10.9228 41.8458C10.8214 42.0564 10.7434 42.3607 10.6576 42.6259Z" fill="#003242"/>
<path d="M10.6576 43.9602C9.98592 43.89 9.30878 43.89 8.63712 43.9602L8.40309 43.1801C7.86863 43.2643 7.34529 43.4082 6.8429 43.6091V43.3985C7.39901 43.1727 7.98057 43.0155 8.57471 42.9304L8.80875 43.7105C9.37691 43.6559 9.949 43.6559 10.5172 43.7105L10.7512 42.9304C11.3453 43.0155 11.9269 43.1727 12.483 43.3985V43.6169C11.9808 43.4155 11.4574 43.2716 10.9228 43.1879C10.8214 43.4219 10.7434 43.6949 10.6576 43.9602Z" fill="#003242"/>
<path d="M10.6576 45.3017C9.98554 45.2393 9.30916 45.2393 8.63712 45.3017L8.40309 44.5216C7.87447 44.5891 7.35253 44.7013 6.8429 44.8571V44.6464C7.4069 44.4683 7.98691 44.3455 8.57471 44.2798L8.80875 45.0599C9.37755 45.0209 9.94836 45.0209 10.5172 45.0599L10.7512 44.2798C11.339 44.3455 11.919 44.4683 12.483 44.6464V44.8571C11.9734 44.701 11.4515 44.5888 10.9228 44.5216C10.8214 44.7556 10.7434 45.0287 10.6576 45.3017Z" fill="#003242"/>
<path d="M10.6576 46.6359C9.98466 46.5969 9.31004 46.5969 8.63712 46.6359L8.40309 45.8168C7.87801 45.8608 7.35667 45.9416 6.8429 46.0586V45.848C7.41222 45.7122 7.99124 45.621 8.57471 45.575L8.80875 46.4019C9.37779 46.3707 9.94812 46.3707 10.5172 46.4019L10.7512 45.575C11.3347 45.621 11.9137 45.7122 12.483 45.848V46.0586C11.9693 45.9412 11.4479 45.8604 10.9228 45.8168C10.8214 46.082 10.7434 46.3551 10.6576 46.6359Z" fill="#003242"/>
<path d="M10.6576 47.9699C9.98669 47.9699 9.30801 47.9699 8.63712 47.9699L8.40309 47.143C7.85702 47.143 7.33436 47.2288 6.8429 47.299V47.0884C7.4168 46.9996 7.9948 46.9397 8.57471 46.9089L8.80875 47.7358C9.37562 47.7358 9.94509 47.7358 10.5172 47.7358L10.7512 46.9089C11.3311 46.9397 11.9091 46.9996 12.483 47.0884V47.299C11.9837 47.2288 11.4533 47.1742 10.9228 47.143C10.8214 47.416 10.7434 47.689 10.6576 47.9699Z" fill="#003242"/>
<path d="M10.6576 49.3038H8.63712L8.40309 48.4691C7.85702 48.4691 7.33436 48.5081 6.8429 48.5393V48.2975C7.39677 48.2507 7.98184 48.2273 8.57471 48.2117L8.80875 49.0464H10.5172L10.7512 48.2117C11.3441 48.2117 11.9291 48.2117 12.483 48.2975V48.5081C11.9837 48.5081 11.4533 48.4535 10.9228 48.4379C10.8214 48.7499 10.7434 49.023 10.6576 49.3038Z" fill="#003242"/>
<path d="M10.6576 50.6376C9.98669 50.6376 9.30801 50.6376 8.63712 50.6376L8.40309 49.7951H6.8429V49.5923H8.55911L8.79314 50.4348H10.5016L10.7356 49.5923H12.4674V49.7951H10.9072C10.8214 50.0759 10.7434 50.3568 10.6576 50.6376Z" fill="#003242"/>
<path d="M10.6576 51.9795C9.98669 51.9795 9.30801 51.9795 8.63712 51.9795L8.40309 51.1292C7.85702 51.1292 7.33436 51.0667 6.8429 51.0121V50.8015C7.39677 50.8561 7.98184 50.8873 8.57471 50.9107L8.80875 51.761C9.37562 51.761 9.94509 51.761 10.5172 51.761L10.7512 50.9107C11.3441 50.9107 11.9291 50.8561 12.483 50.8015V51.0121C11.9837 51.0667 11.4533 51.1058 10.9228 51.1292C10.8214 51.4178 10.7434 51.6908 10.6576 51.9795Z" fill="#003242"/>
<path d="M10.6576 53.3135C9.9852 53.3681 9.3095 53.3681 8.63712 53.3135L8.40309 52.4554C7.87969 52.4166 7.35883 52.3489 6.8429 52.2526V52.042C7.41638 52.1388 7.99439 52.2064 8.57471 52.2448L8.80875 53.0951C9.37755 53.1341 9.94836 53.1341 10.5172 53.0951L10.7512 52.2448C11.3315 52.2064 11.9095 52.1388 12.483 52.042V52.2526C11.9671 52.3492 11.4462 52.4169 10.9228 52.4554C10.8214 52.7441 10.7434 53.0249 10.6576 53.3135Z" fill="#003242"/>
<path d="M10.6576 54.6474C9.98592 54.7176 9.30878 54.7176 8.63712 54.6474L8.40309 53.7893C7.8767 53.7273 7.35533 53.6283 6.8429 53.4929V53.2822C7.4116 53.4258 7.99062 53.5249 8.57471 53.5787L8.80875 54.4368C9.37726 54.4836 9.94865 54.4836 10.5172 54.4368L10.7512 53.5787C11.3353 53.5249 11.9143 53.4258 12.483 53.2822V53.4929C11.9707 53.6286 11.4493 53.7277 10.9228 53.7893C10.8214 54.0701 10.7434 54.3588 10.6576 54.6474Z" fill="#003242"/>
<path d="M10.6576 55.9813C9.98735 56.0749 9.30735 56.0749 8.63712 55.9813L8.40309 55.1154C7.87243 55.036 7.35017 54.908 6.8429 54.7331V54.5381C7.40615 54.724 7.98615 54.8546 8.57471 54.9281L8.80875 55.794C9.3765 55.8566 9.94941 55.8566 10.5172 55.794L10.7512 54.9281C11.3397 54.8546 11.9198 54.724 12.483 54.5381V54.7487C11.9759 54.9241 11.4536 55.052 10.9228 55.131C10.8214 55.404 10.7434 55.6926 10.6576 55.9813Z" fill="#003242"/>
<path d="M10.6576 57.3231C9.98791 57.4245 9.30679 57.4245 8.63712 57.3231L8.40309 56.4416C7.86526 56.3485 7.34114 56.1887 6.8429 55.9658V55.7551C7.39816 55.9884 7.97968 56.1535 8.57471 56.2466L8.80875 57.1203C9.37606 57.1905 9.94985 57.1905 10.5172 57.1203L10.7512 56.2466C11.3462 56.1535 11.9278 55.9884 12.483 55.7551V55.9658C11.985 56.1893 11.4608 56.3492 10.9228 56.4416C10.8214 56.7381 10.7434 57.0267 10.6576 57.3231Z" fill="#003242"/>
<g style="mix-blend-mode:multiply" opacity="0.5">
<path d="M12.4674 43.523V42.1344C11.9202 41.8648 11.3369 41.6756 10.7356 41.5728C10.7194 41.6417 10.6985 41.7095 10.6732 41.7756C9.99303 41.6742 9.30163 41.6742 8.6215 41.7756C8.6215 41.7132 8.6215 41.643 8.55909 41.5728C7.95778 41.6756 7.37449 41.8648 6.82727 42.1344V43.523C8.64151 42.8196 10.6531 42.8196 12.4674 43.523Z" fill="#003242"/>
</g>
<g style="mix-blend-mode:multiply" opacity="0.5">
<path d="M6.82727 53.4692V56.535C7.38055 56.7999 7.96905 56.9838 8.57469 57.0811L8.6371 57.3229C9.30677 57.4243 9.98789 57.4243 10.6576 57.3229L10.7278 57.0811C11.3309 56.9837 11.9168 56.7998 12.4674 56.535V53.4692C10.6175 53.9451 8.67719 53.9451 6.82727 53.4692Z" fill="#003242"/>
</g>
<path d="M12.2023 83.5031C10.5126 83.1988 8.78225 83.1988 7.09262 83.5031C6.82684 83.5524 6.58679 83.6934 6.4143 83.9015C6.24181 84.1097 6.14782 84.3717 6.1487 84.642V92.599C6.14713 92.8671 6.23891 93.1274 6.40829 93.3352C6.57768 93.5431 6.81411 93.6855 7.07702 93.738C8.76665 94.0422 10.497 94.0422 12.1867 93.738C12.4524 93.6887 12.6925 93.5477 12.865 93.3395C13.0375 93.1314 13.1315 92.8694 13.1306 92.599V84.642C13.1322 84.3739 13.0404 84.1136 12.871 83.9058C12.7016 83.698 12.4652 83.5556 12.2023 83.5031Z" fill="#D6D6D6"/>
<path d="M12.4674 81.5219C11.5866 81.102 10.6231 80.884 9.64733 80.884C8.67154 80.884 7.70807 81.102 6.82727 81.5219V95.7197C7.70807 96.1396 8.67154 96.3576 9.64733 96.3576C10.6231 96.3576 11.5866 96.1396 12.4674 95.7197V81.5219Z" fill="#004358"/>
<path d="M10.6576 81.8415C9.98735 81.7479 9.30735 81.7479 8.63712 81.8415L8.40309 81.0614C7.86284 81.1644 7.33834 81.3375 6.8429 81.5763V81.3656C7.39011 81.096 7.97341 80.9068 8.57471 80.804L8.80875 81.5841C9.3765 81.5215 9.94941 81.5215 10.5172 81.5841L10.7512 80.804C11.3525 80.9068 11.9358 81.096 12.483 81.3656V81.5763C11.9879 81.3366 11.4633 81.1635 10.9228 81.0614C10.8214 81.2798 10.7434 81.5451 10.6576 81.8415Z" fill="#003242"/>
<path d="M10.6576 83.1445C9.98592 83.0743 9.30878 83.0743 8.63712 83.1445L8.40309 82.3644C7.86863 82.4486 7.34529 82.5926 6.8429 82.7934V82.5828C7.39901 82.357 7.98057 82.1998 8.57471 82.1147L8.80875 82.8948C9.37691 82.8403 9.949 82.8403 10.5172 82.8948L10.7512 82.1147C11.3453 82.1998 11.9269 82.357 12.483 82.5828V82.7934C11.9808 82.5921 11.4574 82.4481 10.9228 82.3644C10.8214 82.6218 10.7434 82.8792 10.6576 83.1445Z" fill="#003242"/>
<path d="M10.6576 84.4862C9.98554 84.4238 9.30916 84.4238 8.63712 84.4862L8.40309 83.7061C7.87447 83.7736 7.35253 83.8858 6.8429 84.0415V83.8387C7.39944 83.6378 7.97422 83.4915 8.55911 83.4019L8.79314 84.221C9.36195 84.1819 9.93275 84.1819 10.5016 84.221L10.7356 83.4019C11.3236 83.4702 11.9037 83.5956 12.4674 83.7763V83.9791C11.9578 83.8231 11.4359 83.7109 10.9072 83.6437C10.8214 83.9401 10.7434 84.182 10.6576 84.4862Z" fill="#003242"/>
<path d="M10.6576 85.82C9.98466 85.781 9.31004 85.781 8.63712 85.82L8.40309 85.0399C7.87847 85.0877 7.35737 85.1685 6.8429 85.2818V85.0711C7.41222 84.9354 7.99124 84.8441 8.57471 84.7981L8.80875 85.625C9.37779 85.5938 9.94812 85.5938 10.5172 85.625L10.7512 84.7981C11.3347 84.8441 11.9137 84.9354 12.483 85.0711V85.2818C11.9686 85.1681 11.4475 85.0874 10.9228 85.0399C10.8214 85.2662 10.7434 85.547 10.6576 85.82Z" fill="#003242"/>
<path d="M10.6576 87.1542C9.98669 87.1542 9.30801 87.1542 8.63712 87.1542L8.40309 86.3273C7.85702 86.3273 7.33436 86.4131 6.8429 86.4833V86.2727C7.4168 86.1839 7.9948 86.124 8.57471 86.0933L8.80875 86.9202C9.37562 86.9202 9.94509 86.9202 10.5172 86.9202L10.7512 86.0933C11.3311 86.124 11.9091 86.1839 12.483 86.2727V86.5223C11.9837 86.4521 11.4533 86.3975 10.9228 86.3663C10.8214 86.6003 10.7434 86.8812 10.6576 87.1542Z" fill="#003242"/>
<path d="M10.6576 88.4882H8.63712L8.40309 87.6535C7.85702 87.6535 7.33436 87.6925 6.8429 87.7237V87.5131C7.39677 87.4741 7.98184 87.4428 8.57471 87.4272L8.80875 88.2619H10.5172L10.7512 87.4272C11.3441 87.4272 11.9291 87.4741 12.483 87.5131V87.7237C11.9837 87.7237 11.4533 87.6691 10.9228 87.6535C10.8214 87.9343 10.7434 88.2073 10.6576 88.4882Z" fill="#003242"/>
<path d="M10.6576 89.83C9.98669 89.83 9.30801 89.83 8.63712 89.83L8.40309 88.9875H6.8429V88.7769H8.55911L8.79314 89.6194H10.5016L10.7356 88.7769H12.4674V88.9875H10.9072C10.8214 89.2605 10.7434 89.5413 10.6576 89.83Z" fill="#003242"/>
<path d="M10.6576 91.2029C9.98669 91.2029 9.30801 91.2029 8.63712 91.2029L8.40309 90.3526C7.85702 90.3526 7.33436 90.2902 6.8429 90.2355V90.0249C7.39677 90.0795 7.98184 90.1107 8.57471 90.1341L8.80875 90.9844C9.37562 90.9844 9.94509 90.9844 10.5172 90.9844L10.7512 90.1341C11.3441 90.1341 11.9291 90.0795 12.483 90.0249V90.2355C11.9837 90.2902 11.4533 90.3292 10.9228 90.3526C10.8214 90.5944 10.7434 90.8752 10.6576 91.2029Z" fill="#003242"/>
<path d="M10.6576 92.4976C9.9852 92.5522 9.3095 92.5522 8.63712 92.4976L8.40309 91.6395C7.87969 91.6007 7.35883 91.533 6.8429 91.4367V91.2026C7.41583 91.3032 7.99404 91.371 8.57471 91.4055L8.80875 92.2558C9.37755 92.2948 9.94836 92.2948 10.5172 92.2558L10.7512 91.4055C11.3319 91.371 11.9101 91.3032 12.483 91.2026V91.4133C11.9671 91.5099 11.4462 91.5776 10.9228 91.6161C10.8214 91.9281 10.7434 92.209 10.6576 92.4976Z" fill="#003242"/>
<path d="M10.6576 93.8317C9.98592 93.9019 9.30878 93.9019 8.63712 93.8317L8.40309 92.9736C7.8767 92.9117 7.35533 92.8126 6.8429 92.6772V92.4666C7.4116 92.6101 7.99062 92.7093 8.57471 92.763L8.80875 93.6211C9.37726 93.6679 9.94865 93.6679 10.5172 93.6211L10.7512 92.763C11.3353 92.7093 11.9143 92.6101 12.483 92.4666V92.6772C11.9707 92.813 11.4493 92.912 10.9228 92.9736C10.8214 93.2544 10.7434 93.5431 10.6576 93.8317Z" fill="#003242"/>
<path d="M10.6576 95.1737C9.98682 95.2594 9.30788 95.2594 8.63712 95.1737L8.40309 94.3234C7.87171 94.2476 7.34911 94.1196 6.8429 93.9411V93.7305C7.40513 93.92 7.98551 94.0507 8.57471 94.1205L8.80875 94.9864C9.3765 95.049 9.94941 95.049 10.5172 94.9864L10.7512 94.1205C11.3404 94.0507 11.9208 93.92 12.483 93.7305V93.9411C11.9769 94.1201 11.4543 94.2481 10.9228 94.3234C10.8214 94.5886 10.7434 94.8772 10.6576 95.1737Z" fill="#003242"/>
<path d="M10.6576 96.5074C9.98791 96.6088 9.30679 96.6088 8.63712 96.5074L8.40309 95.6259C7.86526 95.5328 7.34114 95.373 6.8429 95.1501V94.9395C7.39689 95.1763 7.97887 95.3415 8.57471 95.4309L8.80875 96.3046C9.37606 96.3748 9.94985 96.3748 10.5172 96.3046L10.7512 95.4309C11.347 95.3415 11.929 95.1763 12.483 94.9395V95.1501C11.985 95.3736 11.4608 95.5335 10.9228 95.6259C10.8214 95.9224 10.7434 96.211 10.6576 96.5074Z" fill="#003242"/>
<g style="mix-blend-mode:multiply" opacity="0.5">
<path d="M12.4674 82.7078V81.3192C11.9202 81.0496 11.3369 80.8604 10.7356 80.7576L10.6732 80.9604C9.99303 80.859 9.30163 80.859 8.6215 80.9604L8.55909 80.7576C7.95778 80.8604 7.37449 81.0496 6.82727 81.3192V82.7078C8.64151 82.0044 10.6531 82.0044 12.4674 82.7078Z" fill="#003242"/>
</g>
<g style="mix-blend-mode:multiply" opacity="0.5">
<path d="M6.82727 92.6541V95.7199C7.38055 95.9847 7.96905 96.1686 8.57469 96.2659C8.59088 96.3476 8.61172 96.4284 8.6371 96.5077C9.30677 96.6091 9.98789 96.6091 10.6576 96.5077L10.7278 96.2659C11.3309 96.1685 11.9168 95.9846 12.4674 95.7199V92.6541C10.6175 93.1299 8.67719 93.1299 6.82727 92.6541Z" fill="#003242"/>
</g>
<path d="M35.8158 44.3188C37.5054 44.0145 39.2358 44.0145 40.9254 44.3188C41.1905 44.3664 41.4304 44.5059 41.603 44.7127C41.7756 44.9195 41.8699 45.1805 41.8693 45.4499V53.4147C41.8666 53.6823 41.7709 53.9407 41.5988 54.1456C41.4266 54.3505 41.1886 54.4893 40.9254 54.5381C39.2358 54.8423 37.5054 54.8423 35.8158 54.5381C35.55 54.4888 35.3099 54.3477 35.1374 54.1396C34.9649 53.9315 34.8709 53.6694 34.8718 53.3991V45.4499C34.8713 45.1805 34.9655 44.9195 35.1381 44.7127C35.3107 44.5059 35.5506 44.3664 35.8158 44.3188Z" fill="#D6D6D6"/>
<path d="M35.5507 42.3376C36.4315 41.9176 37.3949 41.6997 38.3707 41.6997C39.3465 41.6997 40.31 41.9176 41.1908 42.3376V56.5354C40.31 56.9553 39.3465 57.1732 38.3707 57.1732C37.3949 57.1732 36.4315 56.9553 35.5507 56.5354V42.3376Z" fill="#004358"/>
<path d="M37.3605 42.6259C38.0307 42.5323 38.7107 42.5323 39.3809 42.6259C39.4589 42.3607 39.537 42.0876 39.6228 41.8458C40.1629 41.9493 40.6873 42.1224 41.183 42.3607V42.1501C40.6357 41.8804 40.0525 41.6912 39.4511 41.5884L39.2171 42.3685C38.6494 42.3059 38.0765 42.3059 37.5087 42.3685L37.2747 41.5884C36.6734 41.6912 36.0901 41.8804 35.5428 42.1501V42.3607C36.038 42.1211 36.5626 41.9479 37.103 41.8458C37.1967 42.0564 37.2825 42.3607 37.3605 42.6259Z" fill="#003242"/>
<path d="M37.3605 43.9602C38.0321 43.89 38.7093 43.89 39.3809 43.9602C39.4589 43.6949 39.537 43.4219 39.6228 43.1801C40.1571 43.2648 40.6804 43.4087 41.183 43.6091V43.3985C40.6268 43.1727 40.0453 43.0155 39.4511 42.9304L39.2171 43.7105C38.6489 43.6559 38.0769 43.6559 37.5087 43.7105L37.2747 42.9304C36.6805 43.0155 36.099 43.1727 35.5428 43.3985V43.6169C36.0451 43.4155 36.5685 43.2716 37.103 43.1879L37.3605 43.9602Z" fill="#003242"/>
<path d="M37.3605 45.3017C38.0325 45.2393 38.7089 45.2393 39.3809 45.3017C39.4589 45.0287 39.537 44.7556 39.6228 44.5216C40.1513 44.5894 40.6732 44.7016 41.183 44.8571V44.6464C40.619 44.4683 40.0389 44.3455 39.4511 44.2798L39.2171 45.0599C38.6483 45.0209 38.0775 45.0209 37.5087 45.0599L37.2747 44.2798C36.6869 44.3455 36.1069 44.4683 35.5428 44.6464V44.8571C36.0524 44.701 36.5744 44.5888 37.103 44.5216C37.1967 44.7556 37.2825 45.0287 37.3605 45.3017Z" fill="#003242"/>
<path d="M37.3605 46.6359C38.0334 46.5969 38.708 46.5969 39.3809 46.6359C39.4589 46.3551 39.537 46.082 39.6228 45.8168C40.1478 45.861 40.6692 45.9418 41.183 46.0586V45.848C40.6136 45.7122 40.0346 45.621 39.4511 45.575L39.2171 46.4019C38.6481 46.3707 38.0777 46.3707 37.5087 46.4019L37.2747 45.575C36.6912 45.621 36.1122 45.7122 35.5428 45.848V46.0586C36.0565 45.9412 36.5779 45.8604 37.103 45.8168C37.1967 46.082 37.2825 46.3551 37.3605 46.6359Z" fill="#003242"/>
<path d="M37.3605 47.9699C38.0314 47.9699 38.7101 47.9699 39.3809 47.9699C39.4589 47.689 39.537 47.416 39.6228 47.143C40.161 47.143 40.6837 47.2288 41.183 47.299V47.0884C40.6091 46.9996 40.0311 46.9397 39.4511 46.9089L39.2171 47.7358C38.6502 47.7358 38.0808 47.7358 37.5087 47.7358L37.2747 46.9089C36.6948 46.9397 36.1167 46.9996 35.5428 47.0884V47.299C36.0421 47.2288 36.5726 47.1742 37.103 47.143C37.1967 47.416 37.2825 47.689 37.3605 47.9699Z" fill="#003242"/>
<path d="M37.3605 49.3038H39.3809C39.4589 49.023 39.5369 48.7499 39.6228 48.4691C40.1428 48.4691 40.6629 48.4925 41.1829 48.5393V48.2975C40.6291 48.2507 40.044 48.2273 39.4511 48.2117L39.2171 49.0464H37.5009L37.2668 48.2117C36.674 48.2117 36.0889 48.2117 35.535 48.2975V48.5081C36.0343 48.5081 36.5648 48.4535 37.0952 48.4379C37.1966 48.7499 37.2825 49.023 37.3605 49.3038Z" fill="#003242"/>
<path d="M37.3605 50.6376C38.0314 50.6376 38.7101 50.6376 39.3809 50.6376C39.459 50.349 39.537 50.0681 39.6228 49.7951H41.183V49.5923H39.459L39.2249 50.4348H37.5009L37.2669 49.5923H35.5507V49.7951H37.1109C37.1967 50.0759 37.2825 50.3568 37.3605 50.6376Z" fill="#003242"/>
<path d="M37.3605 51.9795C38.0314 51.9795 38.7101 51.9795 39.3809 51.9795C39.4589 51.6908 39.537 51.41 39.6228 51.1292C40.1428 51.1292 40.6629 51.0901 41.183 51.0121V50.8015C40.6291 50.8561 40.044 50.8873 39.4511 50.9107L39.2171 51.761C38.6502 51.761 38.0808 51.761 37.5087 51.761L37.2747 50.9107C36.6818 50.9107 36.0967 50.8561 35.5428 50.8015V51.0121C36.0421 51.0667 36.5726 51.1058 37.103 51.1292C37.1967 51.4178 37.2825 51.6908 37.3605 51.9795Z" fill="#003242"/>
<path d="M37.3605 53.3135C38.0329 53.3681 38.7086 53.3681 39.3809 53.3135C39.4589 53.0249 39.537 52.7441 39.6228 52.4554C40.1462 52.4164 40.667 52.3487 41.183 52.2526V52.042C40.6095 52.1388 40.0315 52.2064 39.4511 52.2448L39.2171 53.0951C38.6483 53.1341 38.0775 53.1341 37.5087 53.0951L37.2747 52.2448C36.6943 52.2064 36.1163 52.1388 35.5428 52.042V52.2526C36.0587 52.3492 36.5796 52.4169 37.103 52.4554C37.1967 52.7441 37.2825 53.0249 37.3605 53.3135Z" fill="#003242"/>
<path d="M37.3605 54.6474C38.0321 54.7176 38.7093 54.7176 39.3809 54.6474C39.4589 54.3588 39.537 54.0701 39.6228 53.7893C40.1491 53.727 40.6704 53.6279 41.183 53.4929V53.2822C40.6143 53.4258 40.0352 53.5249 39.4511 53.5787L39.2171 54.4368C38.6486 54.4836 38.0772 54.4836 37.5087 54.4368L37.2747 53.5787C36.6906 53.5249 36.1116 53.4258 35.5428 53.2822V53.4929C36.0552 53.6286 36.5766 53.7277 37.103 53.7893C37.1967 54.0701 37.2825 54.3588 37.3605 54.6474Z" fill="#003242"/>
<path d="M37.3605 55.9813C38.0307 56.0749 38.7107 56.0749 39.3809 55.9813C39.4589 55.6926 39.537 55.404 39.6228 55.1154C40.1533 55.0355 40.6756 54.9076 41.183 54.7331V54.5381C40.6197 54.724 40.0397 54.8546 39.4511 54.9281L39.2171 55.794C38.6494 55.8566 38.0765 55.8566 37.5087 55.794L37.2747 54.9281C36.6861 54.8546 36.1061 54.724 35.5428 54.5381V54.7487C36.05 54.9241 36.5723 55.052 37.103 55.131C37.1967 55.404 37.2825 55.6926 37.3605 55.9813Z" fill="#003242"/>
<path d="M37.3605 57.3231C38.0301 57.4245 38.7113 57.4245 39.3809 57.3231C39.4589 57.0267 39.537 56.7381 39.6228 56.4416C40.1605 56.348 40.6845 56.1882 41.183 55.9658V55.7551C40.6277 55.9884 40.0462 56.1535 39.4511 56.2466L39.2171 57.1203C38.6498 57.1905 38.076 57.1905 37.5087 57.1203L37.2747 56.2466C36.6796 56.1535 36.0981 55.9884 35.5428 55.7551V55.9658C36.0409 56.1893 36.5651 56.3492 37.103 56.4416C37.1967 56.7381 37.2825 57.0267 37.3605 57.3231Z" fill="#003242"/>
<g style="mix-blend-mode:multiply" opacity="0.5">
<path d="M35.5507 43.523V42.1344C36.0979 41.8648 36.6812 41.6756 37.2825 41.5728C37.2987 41.6417 37.3195 41.7095 37.3449 41.7756C38.025 41.6742 38.7164 41.6742 39.3965 41.7756C39.3965 41.7132 39.3965 41.643 39.459 41.5728C40.0603 41.6756 40.6436 41.8648 41.1908 42.1344V43.523C39.3765 42.8196 37.3649 42.8196 35.5507 43.523Z" fill="#003242"/>
</g>
<g style="mix-blend-mode:multiply" opacity="0.5">
<path d="M41.1908 53.4692V56.535C40.6379 56.8009 40.0492 56.9849 39.4434 57.0811L39.3809 57.3229C38.7113 57.4243 38.0302 57.4243 37.3605 57.3229L37.2903 57.0811C36.6872 56.9837 36.1012 56.7998 35.5507 56.535V53.4692C37.4006 53.9451 39.3409 53.9451 41.1908 53.4692Z" fill="#003242"/>
</g>
<path d="M35.8158 83.5031C37.5054 83.1988 39.2358 83.1988 40.9254 83.5031C41.1912 83.5524 41.4312 83.6934 41.6037 83.9015C41.7762 84.1097 41.8702 84.3717 41.8693 84.642V92.599C41.8702 92.8694 41.7762 93.1314 41.6037 93.3395C41.4312 93.5477 41.1912 93.6887 40.9254 93.738C39.2358 94.0422 37.5054 94.0422 35.8158 93.738C35.55 93.6887 35.3099 93.5477 35.1374 93.3395C34.9649 93.1314 34.8709 92.8694 34.8718 92.599V84.642C34.8709 84.3717 34.9649 84.1097 35.1374 83.9015C35.3099 83.6934 35.55 83.5524 35.8158 83.5031Z" fill="#D6D6D6"/>
<path d="M35.5507 81.5219C36.4315 81.102 37.3949 80.884 38.3707 80.884C39.3465 80.884 40.31 81.102 41.1908 81.5219V95.7197C40.31 96.1396 39.3465 96.3576 38.3707 96.3576C37.3949 96.3576 36.4315 96.1396 35.5507 95.7197V81.5219Z" fill="#004358"/>
<path d="M37.3605 81.8415C38.0307 81.7479 38.7107 81.7479 39.3809 81.8415C39.4589 81.5763 39.537 81.311 39.6228 81.0614C40.1629 81.1649 40.6873 81.338 41.183 81.5763V81.3656C40.6357 81.096 40.0525 80.9068 39.4511 80.804L39.2171 81.5841C38.6494 81.5215 38.0765 81.5215 37.5087 81.5841L37.2747 80.804C36.6734 80.9068 36.0901 81.096 35.5428 81.3656V81.5763C36.038 81.3366 36.5626 81.1635 37.103 81.0614C37.1967 81.2798 37.2825 81.5451 37.3605 81.8415Z" fill="#003242"/>
<path d="M37.3605 83.1445C38.0321 83.0743 38.7093 83.0743 39.3809 83.1445C39.4589 82.8792 39.537 82.6062 39.6228 82.3644C40.1571 82.4491 40.6804 82.593 41.183 82.7934V82.5828C40.6268 82.357 40.0453 82.1998 39.4511 82.1147L39.2171 82.8948C38.6489 82.8403 38.0769 82.8403 37.5087 82.8948L37.2747 82.1147C36.6805 82.1998 36.099 82.357 35.5428 82.5828V82.7934C36.0451 82.5921 36.5685 82.4481 37.103 82.3644L37.3605 83.1445Z" fill="#003242"/>
<path d="M37.3605 84.4863C38.0325 84.4239 38.7089 84.4239 39.3809 84.4863C39.4589 84.2132 39.537 83.9402 39.6228 83.7062C40.1513 83.774 40.6732 83.8862 41.183 84.0416V83.8388C40.6192 83.6581 40.0392 83.5327 39.4511 83.4644L39.2171 84.2835C38.6483 84.2444 38.0775 84.2444 37.5087 84.2835L37.2747 83.4644C36.6866 83.5327 36.1066 83.6581 35.5428 83.8388V84.0416C36.0524 83.8856 36.5744 83.7734 37.103 83.7062C37.1967 83.9402 37.2825 84.182 37.3605 84.4863Z" fill="#003242"/>
<path d="M37.3605 85.82C38.0334 85.781 38.708 85.781 39.3809 85.82C39.4589 85.547 39.537 85.2662 39.6228 85.0399C40.1474 85.0879 40.6684 85.1687 41.183 85.2818V85.0711C40.6136 84.9354 40.0346 84.8441 39.4511 84.7981L39.2171 85.625C38.6481 85.5938 38.0777 85.5938 37.5087 85.625L37.2747 84.7981C36.6912 84.8441 36.1122 84.9354 35.5428 85.0711V85.2818C36.0573 85.1681 36.5784 85.0874 37.103 85.0399C37.1967 85.2662 37.2825 85.547 37.3605 85.82Z" fill="#003242"/>
<path d="M37.3605 87.1542C38.0314 87.1542 38.7101 87.1542 39.3809 87.1542C39.4589 86.8812 39.537 86.6003 39.6228 86.3273C40.161 86.3273 40.6837 86.4131 41.183 86.4833V86.2727C40.6091 86.1839 40.0311 86.124 39.4511 86.0933L39.2171 86.9202C38.6502 86.9202 38.0808 86.9202 37.5087 86.9202L37.2747 86.0933C36.6948 86.124 36.1167 86.1839 35.5428 86.2727V86.5223C36.0421 86.4521 36.5726 86.3975 37.103 86.3663L37.3605 87.1542Z" fill="#003242"/>
<path d="M37.3605 88.4882H39.3809C39.4589 88.2073 39.5369 87.9343 39.6228 87.6535C40.1428 87.6535 40.6629 87.6769 41.1829 87.7237V87.5131C40.6291 87.4741 40.044 87.4428 39.4511 87.4272L39.2171 88.2619H37.5009L37.2668 87.4272C36.674 87.4272 36.0889 87.4741 35.535 87.5131V87.7237C36.0343 87.7237 36.5648 87.6691 37.0952 87.6535C37.1966 87.9343 37.2825 88.2073 37.3605 88.4882Z" fill="#003242"/>
<path d="M37.3605 89.83C38.0314 89.83 38.7101 89.83 39.3809 89.83C39.459 89.5413 39.537 89.2605 39.6228 88.9875H41.183V88.7769H39.459L39.2249 89.6194H37.5009L37.2669 88.7769H35.5507V88.9875H37.1109C37.1967 89.2605 37.2825 89.5413 37.3605 89.83Z" fill="#003242"/>
<path d="M37.3605 91.2029C38.0314 91.2029 38.7101 91.2029 39.3809 91.2029C39.4589 90.9142 39.537 90.6334 39.6228 90.3526C40.1428 90.3526 40.6629 90.3136 41.183 90.2355V90.0249C40.6291 90.0795 40.044 90.1107 39.4511 90.1341L39.2171 90.9844C38.6502 90.9844 38.0808 90.9844 37.5087 90.9844L37.2747 90.1341C36.6818 90.1341 36.0967 90.0795 35.5428 90.0249V90.2355C36.0421 90.2902 36.5726 90.3292 37.103 90.3526C37.1967 90.5944 37.2825 90.8752 37.3605 91.2029Z" fill="#003242"/>
<path d="M37.3605 92.4976C38.0329 92.5522 38.7086 92.5522 39.3809 92.4976C39.459 92.209 39.537 91.9281 39.6228 91.6395C40.1462 91.6005 40.667 91.5328 41.183 91.4367V91.2026C40.61 91.3032 40.0318 91.371 39.4512 91.4055L39.2171 92.2558C38.6483 92.2948 38.0775 92.2948 37.5087 92.2558L37.2747 91.4055C36.6966 91.3707 36.121 91.3029 35.5507 91.2026V91.4133C36.0665 91.5099 36.5874 91.5776 37.1109 91.6161C37.1967 91.9281 37.2825 92.209 37.3605 92.4976Z" fill="#003242"/>
<path d="M37.3605 93.8317C38.0321 93.9019 38.7093 93.9019 39.3809 93.8317C39.4589 93.5431 39.537 93.2544 39.6228 92.9736C40.1491 92.9113 40.6704 92.8123 41.183 92.6772V92.4666C40.6143 92.6101 40.0352 92.7093 39.4511 92.763L39.2171 93.6211C38.6486 93.6679 38.0772 93.6679 37.5087 93.6211L37.2747 92.763C36.6906 92.7093 36.1116 92.6101 35.5428 92.4666V92.6772C36.0552 92.813 36.5766 92.912 37.103 92.9736C37.1967 93.2544 37.2825 93.5431 37.3605 93.8317Z" fill="#003242"/>
<path d="M37.3605 95.1734C38.0312 95.2591 38.7102 95.2591 39.3809 95.1734C39.4589 94.8769 39.537 94.5883 39.6228 94.2997C40.1541 94.2235 40.6766 94.0955 41.183 93.9174V93.7068C40.6207 93.8963 40.0403 94.027 39.4511 94.0968L39.2171 94.9628C38.6494 95.0253 38.0765 95.0253 37.5087 94.9628L37.2747 94.0968C36.6855 94.027 36.1051 93.8963 35.5428 93.7068V93.9174C36.0489 94.0964 36.5716 94.2244 37.103 94.2997C37.1967 94.5883 37.2825 94.8769 37.3605 95.1734Z" fill="#003242"/>
<path d="M37.3605 96.5074C38.0301 96.6088 38.7113 96.6088 39.3809 96.5074C39.4589 96.211 39.537 95.9224 39.6228 95.6259C40.1605 95.5324 40.6845 95.3725 41.183 95.1501V94.9395C40.629 95.1763 40.047 95.3415 39.4511 95.4309L39.2171 96.3046C38.6498 96.3748 38.076 96.3748 37.5087 96.3046L37.2747 95.4309C36.6788 95.3415 36.0968 95.1763 35.5428 94.9395V95.1501C36.0409 95.3736 36.5651 95.5335 37.103 95.6259C37.1967 95.9224 37.2825 96.211 37.3605 96.5074Z" fill="#003242"/>
<g style="mix-blend-mode:multiply" opacity="0.5">
<path d="M35.5507 82.7078V81.3192C36.0979 81.0496 36.6812 80.8604 37.2825 80.7576L37.3449 80.9604C38.025 80.859 38.7164 80.859 39.3965 80.9604C39.3965 80.898 39.3965 80.8278 39.459 80.7576C40.0603 80.8604 40.6436 81.0496 41.1908 81.3192V82.7078C39.3765 82.0044 37.3649 82.0044 35.5507 82.7078Z" fill="#003242"/>
</g>
<g style="mix-blend-mode:multiply" opacity="0.5">
<path d="M41.1908 92.6541V95.7199C40.6379 95.9857 40.0492 96.1697 39.4434 96.2659C39.4272 96.3476 39.4063 96.4284 39.3809 96.5077C38.7113 96.6091 38.0302 96.6091 37.3605 96.5077L37.2903 96.2659C36.6872 96.1685 36.1012 95.9846 35.5507 95.7199V92.6541C37.4006 93.1299 39.3409 93.1299 41.1908 92.6541Z" fill="#003242"/>
</g>
<path d="M31.4317 27.8431C26.5093 27.9991 21.5088 27.9991 16.6098 27.8431C16.0793 27.8431 15.6581 27.7105 15.6581 27.5856V21.6491C15.6581 21.5321 16.0871 21.4307 16.6098 21.4307H31.4317C31.9621 21.4307 32.3912 21.5321 32.3912 21.6491V27.5856C32.3912 27.7105 31.9621 27.8197 31.4317 27.8431Z" fill="#102030"/>
<path d="M31.7282 41.3935C26.6029 41.5651 21.4153 41.5651 16.29 41.3935C15.744 41.3935 15.2993 41.2609 15.2993 41.1361V34.9655C15.2993 34.8407 15.7518 34.7393 16.2978 34.7393H31.7204C32.2743 34.7393 32.7189 34.8407 32.7189 34.9655V41.1361C32.7189 41.2765 32.2743 41.3779 31.7282 41.3935Z" fill="#102030"/>
<path d="M28.8495 36.6738C28.7637 36.5256 28.8495 36.3462 29.0211 36.1668L29.1616 35.9483C29.0854 35.9245 29.007 35.9089 28.9275 35.9015C28.7013 35.8625 28.4751 35.8235 28.4283 35.6441C28.3815 35.4647 28.5375 35.3321 28.7013 35.1839C28.7774 35.1395 28.8504 35.0899 28.9197 35.0356C28.8489 35.0024 28.7759 34.9737 28.7013 34.9498C28.4829 34.8796 28.2723 34.8094 28.2489 34.63C28.2254 34.4506 28.3971 34.3335 28.5765 34.2009C28.647 34.1527 28.7147 34.1006 28.7793 34.0449C28.7095 34.005 28.6364 33.9711 28.5609 33.9435C28.3581 33.8421 28.1552 33.7563 28.1474 33.5769C28.1396 33.3974 28.3191 33.296 28.5141 33.179L28.7247 33.0464L28.5219 32.9294C28.3191 32.8202 28.1318 32.7109 28.1318 32.5393C28.1318 32.3677 28.3269 32.2663 28.5297 32.1649L28.7403 32.0479C28.6786 31.9967 28.6134 31.9498 28.5453 31.9074C28.3503 31.7904 28.1708 31.6734 28.1786 31.5018C28.1864 31.3302 28.3893 31.2366 28.5999 31.1507C28.675 31.1191 28.7479 31.0826 28.8183 31.0415L28.6233 30.9011C28.4361 30.7685 28.2645 30.6437 28.2879 30.4643C28.3113 30.2848 28.5141 30.2224 28.7247 30.1366C28.7993 30.1127 28.8723 30.0841 28.9431 30.0508C28.887 29.9947 28.8271 29.9426 28.7637 29.8948C28.5843 29.7544 28.4127 29.6217 28.4439 29.4501C28.4751 29.2785 28.6857 29.2161 28.9041 29.1459L29.1226 29.0679C29.0692 29.0094 29.0118 28.9547 28.9509 28.9041C28.7793 28.748 28.6155 28.6076 28.6623 28.4438C28.7091 28.28 28.9119 28.2176 29.1382 28.163L29.3644 28.0928L29.1928 27.9133C29.0368 27.7573 28.8885 27.6091 28.9353 27.4375C28.9821 27.2658 29.2084 27.2346 29.4346 27.1956L29.6608 27.1488C29.6164 27.0802 29.5669 27.015 29.5126 26.9538C29.3644 26.7744 29.2318 26.6184 29.2942 26.4545C29.3566 26.2907 29.5906 26.2751 29.8247 26.2595C29.9155 26.2661 30.0068 26.2661 30.0977 26.2595L30.3395 26.4155C30.2693 26.5638 30.0743 26.5794 29.8403 26.595C29.7624 26.5873 29.684 26.5873 29.6062 26.595L29.7388 26.7666C29.8871 26.9382 30.0275 27.102 29.9651 27.2658C29.9027 27.4297 29.7154 27.4609 29.4892 27.4999C29.4098 27.5072 29.3313 27.5229 29.2552 27.5467L29.4112 27.7105C29.5672 27.8743 29.7232 28.0225 29.6764 28.1942C29.6296 28.3658 29.4346 28.4048 29.2084 28.4594C29.1315 28.4745 29.0559 28.4954 28.9821 28.5218C29.0328 28.5802 29.0875 28.635 29.146 28.6856C29.3176 28.8338 29.4814 28.9743 29.4424 29.1459C29.4034 29.3175 29.2162 29.3721 28.9899 29.4423L28.7715 29.5125L28.9431 29.6686C29.1226 29.8012 29.2942 29.9338 29.263 30.1054C29.2318 30.277 29.0368 30.3472 28.8261 30.4252L28.6155 30.5189C28.6731 30.5718 28.7358 30.6188 28.8027 30.6593C28.9821 30.7919 29.1538 30.9167 29.1382 31.0805C29.1226 31.2443 28.9275 31.338 28.7169 31.4316L28.5063 31.533L28.7013 31.6656C28.8963 31.7826 29.0758 31.8996 29.068 32.0713C29.0602 32.2429 28.8651 32.3365 28.6623 32.4379L28.4595 32.5471L28.6623 32.6719C28.8573 32.7812 29.0446 32.8826 29.0446 33.0464C29.0446 33.2102 28.8651 33.335 28.6701 33.4442L28.4751 33.569L28.6857 33.6783C28.9041 33.7719 29.0836 33.8577 29.0992 34.0215C29.1148 34.1853 28.9353 34.3179 28.7559 34.4506C28.6928 34.4929 28.6328 34.5399 28.5765 34.591C28.6474 34.6243 28.7203 34.6529 28.7949 34.6768C29.0133 34.747 29.2006 34.8094 29.2318 34.9732C29.263 35.137 29.1148 35.2853 28.9431 35.4413L28.7793 35.6051H29.0211C29.2396 35.6441 29.4346 35.6753 29.497 35.8235C29.5594 35.9718 29.4346 36.1512 29.302 36.3384C29.2481 36.4092 29.2011 36.4849 29.1616 36.5646C29.1657 36.552 29.1657 36.5383 29.1616 36.5256L28.8495 36.6738Z" fill="#0092ED"/>
<path d="M19.0203 36.6738L18.7629 36.5256C18.7604 36.5385 18.7604 36.5517 18.7629 36.5646C18.7234 36.4849 18.6764 36.4091 18.6225 36.3383C18.4899 36.1511 18.3651 35.9795 18.4275 35.8235C18.4899 35.6675 18.6771 35.6441 18.9033 35.6051L19.1374 35.5582L18.9813 35.4022C18.8097 35.254 18.6537 35.1058 18.6849 34.9342C18.7161 34.7625 18.9111 34.7079 19.1218 34.6377C19.1993 34.615 19.2749 34.5863 19.348 34.5519C19.2917 34.5008 19.2317 34.4539 19.1686 34.4115C18.9813 34.2789 18.8097 34.1541 18.8253 33.9824C18.8409 33.8108 19.0203 33.7328 19.231 33.6392L19.4494 33.53L19.2544 33.4052C19.0593 33.296 18.8721 33.1867 18.8721 33.0073C18.8721 32.8279 19.0593 32.7421 19.2544 32.6329L19.465 32.5081L19.2544 32.3988C19.0593 32.2974 18.8643 32.2038 18.8565 32.0322C18.8487 31.8606 19.0281 31.7436 19.2154 31.6266L19.4104 31.4939L19.1998 31.3925C18.9969 31.2989 18.8019 31.2131 18.7863 31.0415C18.7707 30.8699 18.9423 30.7528 19.1218 30.6202C19.1874 30.5778 19.2499 30.5309 19.309 30.4798L19.0906 30.3862C18.8799 30.3082 18.6849 30.238 18.6537 30.0664C18.6225 29.8947 18.7941 29.7621 18.9735 29.6295L19.153 29.4735L18.9345 29.4033C18.7083 29.3331 18.5133 29.2706 18.4821 29.1068C18.4509 28.943 18.6069 28.7948 18.7785 28.6466C18.837 28.5959 18.8917 28.5412 18.9423 28.4828L18.7161 28.4203C18.4899 28.3657 18.2948 28.3189 18.248 28.1551C18.2012 27.9913 18.3573 27.8353 18.5133 27.6714L18.6693 27.5076C18.5932 27.4838 18.5147 27.4681 18.4353 27.4608C18.209 27.4608 18.014 27.3828 17.9516 27.2268C17.8892 27.0708 18.0374 26.8992 18.1778 26.7275C18.232 26.669 18.2815 26.6064 18.3261 26.5403H18.0764C17.8502 26.5403 17.6552 26.5403 17.585 26.3609L17.8502 26.2283C17.9411 26.2353 18.0324 26.2353 18.1232 26.2283C18.3573 26.2283 18.5757 26.2283 18.6459 26.4233C18.7161 26.6183 18.5835 26.7431 18.4353 26.9226L18.2792 27.1176L18.5133 27.1644C18.7395 27.2034 18.9579 27.2424 19.0125 27.4062C19.0671 27.57 18.9111 27.7261 18.7473 27.8821L18.5835 28.0615L18.8097 28.1317C19.0359 28.1863 19.2466 28.2409 19.2856 28.4125C19.3246 28.5842 19.1686 28.7168 18.9969 28.8728C18.9342 28.9213 18.8767 28.9762 18.8253 29.0366L19.0437 29.1146C19.2622 29.1848 19.465 29.2473 19.504 29.4189C19.543 29.5905 19.3636 29.7231 19.1842 29.8635C19.1192 29.9093 19.0591 29.9616 19.0047 30.0196C19.0751 30.0541 19.1481 30.0828 19.2232 30.1054C19.4338 30.1912 19.6366 30.2614 19.66 30.433C19.6834 30.6046 19.504 30.7372 19.3168 30.8699L19.1296 31.0103C19.1991 31.0528 19.2722 31.0894 19.348 31.1195C19.5508 31.2053 19.7536 31.2911 19.7614 31.4627C19.7692 31.6344 19.5976 31.7592 19.4026 31.8762C19.3332 31.9166 19.2679 31.9636 19.2076 32.0166L19.4182 32.1336C19.621 32.235 19.8082 32.3286 19.816 32.5081C19.8238 32.6875 19.6288 32.7889 19.426 32.8981C19.3549 32.9307 19.287 32.9699 19.2232 33.0151C19.2884 33.0629 19.3561 33.1071 19.426 33.1477C19.621 33.2648 19.8082 33.374 19.8004 33.5456C19.7926 33.7172 19.5898 33.8108 19.3792 33.9122L19.1686 34.0137C19.2154 34.0605 19.309 34.1229 19.3636 34.1697C19.5508 34.3023 19.7224 34.4271 19.699 34.5987C19.6756 34.7704 19.465 34.8484 19.2466 34.9186C19.1715 34.9411 19.0985 34.9698 19.0281 35.0044C19.084 35.068 19.1439 35.128 19.2076 35.1838C19.3714 35.332 19.5274 35.4802 19.4806 35.6441C19.4338 35.8079 19.2076 35.8625 18.9735 35.9015C18.8966 35.9088 18.8208 35.9245 18.7473 35.9483C18.7875 36.0252 18.8345 36.0983 18.8877 36.1667C18.9891 36.3461 19.114 36.5256 19.0203 36.6738Z" fill="#E84646"/>
<path d="M27.7886 34.7392H20.089L20.8691 31.3613H27.0085L27.7886 34.7392Z" fill="#102030"/>
<path d="M27.7886 27.8508H20.089L20.8691 31.3613H27.0085L27.7886 27.8508Z" fill="#102030"/>
<path d="M27.0085 31.3614C27.0085 31.9693 26.8283 32.5636 26.4905 33.069C26.1528 33.5745 25.6728 33.9684 25.1111 34.2011C24.5495 34.4337 23.9315 34.4946 23.3353 34.376C22.7391 34.2574 22.1914 33.9646 21.7616 33.5348C21.3317 33.1049 21.039 32.5573 20.9204 31.9611C20.8018 31.3648 20.8627 30.7468 21.0953 30.1852C21.3279 29.6236 21.7219 29.1436 22.2273 28.8058C22.7328 28.4681 23.327 28.2879 23.9349 28.2879C24.3388 28.2868 24.739 28.3656 25.1123 28.5197C25.4857 28.6738 25.825 28.9002 26.1106 29.1858C26.3962 29.4714 26.6225 29.8106 26.7766 30.184C26.9307 30.5574 27.0095 30.9575 27.0085 31.3614Z" fill="#19334D"/>
<path d="M25.3079 31.3615C25.3095 31.6334 25.2303 31.8996 25.0804 32.1264C24.9304 32.3532 24.7165 32.5304 24.4658 32.6356C24.2151 32.7407 23.9388 32.769 23.6719 32.7169C23.4051 32.6648 23.1597 32.5346 22.9669 32.3429C22.7741 32.1512 22.6426 31.9066 22.589 31.6401C22.5354 31.3735 22.5621 31.0971 22.6658 30.8457C22.7695 30.5944 22.9454 30.3795 23.1714 30.2283C23.3973 30.0771 23.6631 29.9964 23.935 29.9964C24.1149 29.9953 24.2933 30.0299 24.4598 30.098C24.6263 30.1662 24.7777 30.2666 24.9053 30.3934C25.0329 30.5203 25.1342 30.6712 25.2033 30.8373C25.2724 31.0034 25.3079 31.1816 25.3079 31.3615Z" fill="#FFD000"/>
<path d="M42.3921 1.7801C42.3921 1.93439 42.3464 2.08521 42.2606 2.2135C42.1749 2.34179 42.0531 2.44178 41.9105 2.50082C41.768 2.55987 41.6111 2.57531 41.4598 2.54521C41.3085 2.51511 41.1695 2.44081 41.0604 2.33171C40.9513 2.22261 40.877 2.08362 40.8469 1.9323C40.8168 1.78097 40.8322 1.62412 40.8913 1.48157C40.9503 1.33903 41.0503 1.21719 41.1786 1.13147C41.3069 1.04575 41.4577 1 41.612 1C41.8189 1 42.0173 1.08219 42.1636 1.22849C42.3099 1.37478 42.3921 1.5732 42.3921 1.7801Z" fill="#102030"/>
<path d="M39.9424 4.12048L39.568 3.80065L41.6509 1.39014L42.782 2.84112L42.3919 3.14536L41.6275 2.16244L39.9424 4.12048Z" fill="#102030"/>
<path d="M46.082 2.98901H42.5871C42.336 2.99107 42.096 3.09226 41.9192 3.27052C41.7424 3.44878 41.6432 3.68967 41.6432 3.94074V5.20449H47.0181V3.94074C47.0181 3.691 46.92 3.45126 46.7449 3.27322C46.5697 3.09518 46.3317 2.99311 46.082 2.98901Z" fill="#636363"/>
<path d="M6.37486 2.53659C6.79277 2.53659 7.13156 2.1978 7.13156 1.77989C7.13156 1.36198 6.79277 1.02319 6.37486 1.02319C5.95695 1.02319 5.61816 1.36198 5.61816 1.77989C5.61816 2.1978 5.95695 2.53659 6.37486 2.53659Z" fill="#102030"/>
<path d="M8.0754 4.12048L6.39039 2.16244L5.62589 3.14536L5.23584 2.84112L6.36698 1.39014L8.44985 3.80065L8.0754 4.12048Z" fill="#102030"/>
<path d="M1.94392 2.98901H5.43096C5.68202 2.99107 5.92209 3.09226 6.09889 3.27052C6.27569 3.44878 6.37489 3.68967 6.37488 3.94074V5.20449H1V3.94074C0.999992 3.68967 1.09919 3.44878 1.27599 3.27052C1.45279 3.09226 1.69286 2.99107 1.94392 2.98901Z" fill="#636363"/>
<path d="M39.5915 26.4079H8.38753C8.13719 26.4079 7.8971 26.3084 7.72008 26.1314C7.54306 25.9544 7.44361 25.7143 7.44361 25.4639V3.34813C7.44259 3.07812 7.54307 2.81757 7.72513 2.61817C7.90719 2.41877 8.15754 2.29507 8.42653 2.27159C18.7999 1.19235 29.2572 1.19235 39.6305 2.27159C39.8872 2.30339 40.1238 2.42653 40.2971 2.61848C40.4704 2.81043 40.5689 3.05836 40.5744 3.31692V25.4327C40.5788 25.5626 40.5564 25.6921 40.5084 25.8129C40.4605 25.9337 40.3881 26.0433 40.2958 26.1349C40.2035 26.2264 40.0934 26.2979 39.9722 26.3449C39.851 26.3919 39.7214 26.4133 39.5915 26.4079Z" fill="black"/>
<path d="M37.2513 6.83521H10.7669C10.2456 6.83521 9.823 7.25781 9.823 7.77912V25.464C9.823 25.9853 10.2456 26.4079 10.7669 26.4079H37.2513C37.7726 26.4079 38.1952 25.9853 38.1952 25.464V7.77912C38.1952 7.25781 37.7726 6.83521 37.2513 6.83521Z" fill="#636363"/>
<path d="M38.905 3.5274L38.3823 6.06272C38.3353 6.2856 38.2124 6.48524 38.0345 6.62753C37.8567 6.76981 37.6349 6.84591 37.4072 6.84282H10.3768C10.1484 6.84478 9.9263 6.76842 9.74744 6.62647C9.56857 6.48451 9.44377 6.28554 9.39383 6.06272L8.87896 3.5274C8.85442 3.38641 8.86172 3.24172 8.90034 3.10392C8.93896 2.96611 9.00792 2.8387 9.10215 2.731C9.19639 2.62329 9.31353 2.53803 9.44499 2.48147C9.57644 2.4249 9.71889 2.39845 9.86189 2.40406H37.9454C38.0865 2.40198 38.2263 2.43104 38.3548 2.48916C38.4834 2.54727 38.5975 2.63301 38.6891 2.74028C38.7808 2.84755 38.8476 2.9737 38.8849 3.10975C38.9222 3.2458 38.9291 3.3884 38.905 3.5274Z" fill="#2CA3E8"/>
<g style="mix-blend-mode:overlay">
<path d="M25.9085 2.40406H9.86189C9.71889 2.39845 9.57644 2.4249 9.44499 2.48147C9.31353 2.53803 9.19639 2.62329 9.10215 2.731C9.00792 2.8387 8.93896 2.96611 8.90034 3.10392C8.86172 3.24172 8.85442 3.38641 8.87896 3.5274L9.39383 6.06272C9.44377 6.28554 9.56857 6.48451 9.74744 6.62647C9.9263 6.76842 10.1484 6.84478 10.3768 6.84282H21.4776L25.9085 2.40406Z" fill="#2CA3E8"/>
</g>
<g style="mix-blend-mode:overlay">
<path d="M36.6427 2.40405H31.1742L26.7433 6.82721H32.2118L36.6427 2.40405Z" fill="#2CA3E8"/>
</g>
<path d="M9.04284 24.3174H8.20813V25.2613H9.04284V24.3174Z" fill="#004358"/>
<path d="M7.48267 5.87573L8.78543 7.05369C8.86766 7.12592 8.93378 7.21464 8.97947 7.3141C9.02517 7.41356 9.04942 7.52151 9.05066 7.63096V17.5148C9.05066 17.7217 8.96848 17.9201 8.82218 18.0664C8.67588 18.2127 8.47746 18.2949 8.27056 18.2949C8.06367 18.2949 7.86525 18.2127 7.71895 18.0664C7.57266 17.9201 7.49047 17.7217 7.49047 17.5148L7.48267 5.87573Z" fill="#2CA3E8"/>
<path d="M39.8021 24.3174H38.9674V25.2613H39.8021V24.3174Z" fill="#004358"/>
<path d="M9.04284 22.6401H8.20813V23.5841H9.04284V22.6401Z" fill="#004358"/>
<path d="M39.8021 22.6401H38.9674V23.5841H39.8021V22.6401Z" fill="#004358"/>
<path d="M9.04284 20.9626H8.20813V21.9066H9.04284V20.9626Z" fill="#004358"/>
<path d="M39.8021 20.9626H38.9674V21.9066H39.8021V20.9626Z" fill="#004358"/>
<path d="M40.5354 5.87573L39.2326 7.05369C39.1504 7.12592 39.0843 7.21464 39.0386 7.3141C38.9929 7.41356 38.9686 7.52151 38.9674 7.63096V17.5148C38.9674 17.7217 39.0496 17.9201 39.1959 18.0664C39.3422 18.2127 39.5406 18.2949 39.7475 18.2949C39.9544 18.2949 40.1528 18.2127 40.2991 18.0664C40.4454 17.9201 40.5276 17.7217 40.5276 17.5148L40.5354 5.87573Z" fill="#2CA3E8"/>
<path d="M33.1402 19.3555H14.6518C14.2813 19.3555 13.981 19.6558 13.981 20.0264V20.0342C13.981 20.4047 14.2813 20.705 14.6518 20.705H33.1402C33.5107 20.705 33.8111 20.4047 33.8111 20.0342V20.0264C33.8111 19.6558 33.5107 19.3555 33.1402 19.3555Z" fill="#FFBA1A"/>
<path d="M30.7687 17.491H33.1948C33.299 17.4889 33.3999 17.5278 33.4757 17.5993C33.5516 17.6708 33.5964 17.7691 33.6004 17.8733C33.6004 17.9788 33.5585 18.08 33.4839 18.1546C33.4093 18.2292 33.3081 18.2711 33.2026 18.2711H30.7687C30.7158 18.2722 30.6632 18.2627 30.614 18.2431C30.5649 18.2236 30.5201 18.1945 30.4823 18.1574C30.4445 18.1204 30.4145 18.0762 30.3941 18.0274C30.3736 17.9786 30.363 17.9262 30.363 17.8733C30.369 17.7698 30.4144 17.6726 30.4898 17.6015C30.5653 17.5304 30.665 17.4909 30.7687 17.491Z" fill="#004358"/>
<path d="M27.032 17.4915H29.4503C29.5579 17.4915 29.6611 17.5342 29.7371 17.6103C29.8132 17.6863 29.856 17.7895 29.856 17.8971C29.856 17.95 29.8454 18.0024 29.8249 18.0512C29.8045 18.1 29.7745 18.1442 29.7367 18.1812C29.6989 18.2183 29.6541 18.2474 29.605 18.2669C29.5558 18.2865 29.5032 18.296 29.4503 18.295H27.032C26.9791 18.296 26.9265 18.2865 26.8773 18.2669C26.8282 18.2474 26.7834 18.2183 26.7456 18.1812C26.7078 18.1442 26.6778 18.1 26.6574 18.0512C26.6369 18.0024 26.6263 17.95 26.6263 17.8971C26.6263 17.7895 26.6691 17.6863 26.7452 17.6103C26.8212 17.5342 26.9244 17.4915 27.032 17.4915Z" fill="#004358"/>
<path d="M30.7687 16.0089H33.1948C33.3003 16.0089 33.4015 16.0508 33.4761 16.1254C33.5507 16.2 33.5926 16.3012 33.5926 16.4067C33.5937 16.4596 33.5842 16.5122 33.5646 16.5614C33.5451 16.6105 33.516 16.6553 33.4789 16.6931C33.4419 16.7309 33.3977 16.7609 33.3489 16.7814C33.3001 16.8018 33.2477 16.8124 33.1948 16.8124H30.7687C30.6611 16.8124 30.5579 16.7696 30.4819 16.6936C30.4058 16.6175 30.363 16.5143 30.363 16.4067C30.363 16.3538 30.3736 16.3014 30.3941 16.2526C30.4145 16.2039 30.4445 16.1596 30.4823 16.1226C30.5201 16.0856 30.5649 16.0564 30.614 16.0369C30.6632 16.0174 30.7158 16.0078 30.7687 16.0089Z" fill="#004358"/>
<path d="M27.032 16.0089H29.4503C29.5032 16.0078 29.5558 16.0174 29.605 16.0369C29.6541 16.0564 29.6989 16.0856 29.7367 16.1226C29.7745 16.1596 29.8045 16.2039 29.8249 16.2526C29.8454 16.3014 29.856 16.3538 29.856 16.4067C29.856 16.5143 29.8132 16.6175 29.7371 16.6936C29.6611 16.7696 29.5579 16.8124 29.4503 16.8124H27.032C26.9244 16.8124 26.8212 16.7696 26.7452 16.6936C26.6691 16.6175 26.6263 16.5143 26.6263 16.4067C26.6263 16.3538 26.6369 16.3014 26.6574 16.2526C26.6778 16.2039 26.7078 16.1596 26.7456 16.1226C26.7834 16.0856 26.8282 16.0564 26.8773 16.0369C26.9265 16.0174 26.9791 16.0078 27.032 16.0089Z" fill="#004358"/>
<path d="M30.7687 14.5269H33.1948C33.3003 14.5269 33.4015 14.5688 33.4761 14.6435C33.5507 14.7181 33.5926 14.8193 33.5926 14.9248C33.5937 14.9777 33.5842 15.0303 33.5646 15.0794C33.5451 15.1286 33.516 15.1734 33.4789 15.2112C33.4419 15.2489 33.3977 15.2789 33.3489 15.2994C33.3001 15.3199 33.2477 15.3304 33.1948 15.3304H30.7687C30.7154 15.3304 30.6627 15.3199 30.6135 15.2996C30.5642 15.2792 30.5195 15.2493 30.4819 15.2116C30.4442 15.1739 30.4143 15.1292 30.3939 15.08C30.3735 15.0308 30.363 14.978 30.363 14.9248C30.363 14.8719 30.3736 14.8195 30.3941 14.7707C30.4145 14.7219 30.4445 14.6777 30.4823 14.6407C30.5201 14.6036 30.5649 14.5745 30.614 14.5549C30.6632 14.5354 30.7158 14.5259 30.7687 14.5269Z" fill="#004358"/>
<path d="M27.032 14.5269H29.4503C29.5032 14.5259 29.5558 14.5354 29.605 14.5549C29.6541 14.5745 29.6989 14.6036 29.7367 14.6407C29.7745 14.6777 29.8045 14.7219 29.8249 14.7707C29.8454 14.8195 29.856 14.8719 29.856 14.9248C29.856 14.978 29.8455 15.0308 29.8251 15.08C29.8047 15.1292 29.7748 15.1739 29.7371 15.2116C29.6995 15.2493 29.6548 15.2792 29.6055 15.2996C29.5563 15.3199 29.5036 15.3304 29.4503 15.3304H27.032C26.9787 15.3304 26.926 15.3199 26.8768 15.2996C26.8275 15.2792 26.7828 15.2493 26.7452 15.2116C26.7075 15.1739 26.6776 15.1292 26.6572 15.08C26.6368 15.0308 26.6263 14.978 26.6263 14.9248C26.6263 14.8719 26.6369 14.8195 26.6574 14.7707C26.6778 14.7219 26.7078 14.6777 26.7456 14.6407C26.7834 14.6036 26.8282 14.5745 26.8773 14.5549C26.9265 14.5354 26.9791 14.5259 27.032 14.5269Z" fill="#004358"/>
<path d="M17.0154 17.4915H14.5892C14.536 17.4915 14.4832 17.5019 14.434 17.5223C14.3848 17.5427 14.3401 17.5726 14.3024 17.6103C14.2647 17.6479 14.2349 17.6927 14.2145 17.7419C14.1941 17.7911 14.1836 17.8438 14.1836 17.8971C14.1856 18.0033 14.2293 18.1045 14.3051 18.1789C14.381 18.2533 14.483 18.295 14.5892 18.295H17.0154C17.1216 18.295 17.2236 18.2533 17.2995 18.1789C17.3753 18.1045 17.419 18.0033 17.421 17.8971C17.421 17.7895 17.3783 17.6863 17.3022 17.6103C17.2261 17.5342 17.1229 17.4915 17.0154 17.4915Z" fill="#004358"/>
<path d="M20.7521 17.4915H18.3338C18.2805 17.4915 18.2277 17.5019 18.1785 17.5223C18.1293 17.5427 18.0846 17.5726 18.0469 17.6103C18.0092 17.6479 17.9794 17.6927 17.959 17.7419C17.9386 17.7911 17.9281 17.8438 17.9281 17.8971C17.9281 17.95 17.9386 18.0024 17.9591 18.0512C17.9796 18.1 18.0096 18.1442 18.0474 18.1812C18.0851 18.2183 18.1299 18.2474 18.1791 18.2669C18.2283 18.2865 18.2809 18.296 18.3338 18.295H20.7521C20.805 18.296 20.8575 18.2865 20.9067 18.2669C20.9559 18.2474 21.0007 18.2183 21.0384 18.1812C21.0762 18.1442 21.1062 18.1 21.1267 18.0512C21.1472 18.0024 21.1577 17.95 21.1577 17.8971C21.1577 17.8438 21.1472 17.7911 21.1268 17.7419C21.1064 17.6927 21.0766 17.6479 21.0389 17.6103C21.0012 17.5726 20.9565 17.5427 20.9073 17.5223C20.8581 17.5019 20.8053 17.4915 20.7521 17.4915Z" fill="#004358"/>
<path d="M17.0154 16.0093H14.5892C14.483 16.0093 14.381 16.0509 14.3051 16.1253C14.2293 16.1997 14.1856 16.3009 14.1836 16.4071C14.1836 16.4604 14.1941 16.5132 14.2145 16.5624C14.2349 16.6116 14.2647 16.6563 14.3024 16.694C14.3401 16.7316 14.3848 16.7615 14.434 16.7819C14.4832 16.8023 14.536 16.8128 14.5892 16.8128H17.0154C17.1229 16.8128 17.2261 16.77 17.3022 16.694C17.3783 16.6179 17.421 16.5147 17.421 16.4071C17.419 16.3009 17.3753 16.1997 17.2995 16.1253C17.2236 16.0509 17.1216 16.0093 17.0154 16.0093Z" fill="#004358"/>
<path d="M20.7521 16.0089H18.3338C18.2809 16.0078 18.2283 16.0174 18.1791 16.0369C18.1299 16.0564 18.0851 16.0856 18.0474 16.1226C18.0096 16.1596 17.9796 16.2039 17.9591 16.2526C17.9386 16.3014 17.9281 16.3538 17.9281 16.4067C17.9281 16.46 17.9386 16.5127 17.959 16.562C17.9794 16.6112 18.0092 16.6559 18.0469 16.6936C18.0846 16.7312 18.1293 16.7611 18.1785 16.7815C18.2277 16.8019 18.2805 16.8124 18.3338 16.8124H20.7521C20.8053 16.8124 20.8581 16.8019 20.9073 16.7815C20.9565 16.7611 21.0012 16.7312 21.0389 16.6936C21.0766 16.6559 21.1064 16.6112 21.1268 16.562C21.1472 16.5127 21.1577 16.46 21.1577 16.4067C21.1577 16.3538 21.1472 16.3014 21.1267 16.2526C21.1062 16.2039 21.0762 16.1596 21.0384 16.1226C21.0007 16.0856 20.9559 16.0564 20.9067 16.0369C20.8575 16.0174 20.805 16.0078 20.7521 16.0089Z" fill="#004358"/>
<path d="M17.0154 14.5269H14.5892C14.483 14.5268 14.381 14.5685 14.3051 14.6429C14.2293 14.7173 14.1856 14.8185 14.1836 14.9247C14.1836 14.978 14.1941 15.0307 14.2145 15.0799C14.2349 15.1291 14.2647 15.1739 14.3024 15.2115C14.3401 15.2492 14.3848 15.2791 14.434 15.2995C14.4832 15.3199 14.536 15.3304 14.5892 15.3304H17.0154C17.0686 15.3304 17.1214 15.3199 17.1706 15.2995C17.2198 15.2791 17.2645 15.2492 17.3022 15.2115C17.3399 15.1739 17.3697 15.1291 17.3901 15.0799C17.4105 15.0307 17.421 14.978 17.421 14.9247C17.419 14.8185 17.3753 14.7173 17.2995 14.6429C17.2236 14.5685 17.1216 14.5268 17.0154 14.5269Z" fill="#004358"/>
<path d="M20.7521 14.5269H18.3338C18.2809 14.5259 18.2283 14.5354 18.1791 14.5549C18.1299 14.5745 18.0851 14.6036 18.0474 14.6407C18.0096 14.6777 17.9796 14.7219 17.9591 14.7707C17.9386 14.8195 17.9281 14.8719 17.9281 14.9248C17.9281 14.978 17.9386 15.0308 17.959 15.08C17.9794 15.1292 18.0092 15.1739 18.0469 15.2116C18.0846 15.2493 18.1293 15.2792 18.1785 15.2996C18.2277 15.3199 18.2805 15.3304 18.3338 15.3304H20.7521C20.8053 15.3304 20.8581 15.3199 20.9073 15.2996C20.9565 15.2792 21.0012 15.2493 21.0389 15.2116C21.0766 15.1739 21.1064 15.1292 21.1268 15.08C21.1472 15.0308 21.1577 14.978 21.1577 14.9248C21.1577 14.8719 21.1472 14.8195 21.1267 14.7707C21.1062 14.7219 21.0762 14.6777 21.0384 14.6407C21.0007 14.6036 20.9559 14.5745 20.9067 14.5549C20.8575 14.5354 20.805 14.5259 20.7521 14.5269Z" fill="#004358"/>
<g style="mix-blend-mode:multiply" opacity="0.3">
<path d="M23.1157 26.1116C22.8637 25.8631 22.5558 25.6789 22.2177 25.5743C21.8797 25.4698 21.5215 25.448 21.1732 25.5109L18.4819 22.8196L16.7189 24.5826L19.4102 27.274C19.3432 27.6451 19.3731 28.0273 19.497 28.3835C19.6209 28.7398 19.8346 29.058 20.1175 29.3075C20.4004 29.5569 20.7429 29.7292 21.1118 29.8076C21.4807 29.886 21.8636 29.8679 22.2235 29.755C22.5834 29.6421 22.9081 29.4383 23.1661 29.1632C23.4242 28.8881 23.6069 28.5511 23.6966 28.1848C23.7863 27.8184 23.78 27.4351 23.6782 27.072C23.5764 26.7088 23.3827 26.378 23.1157 26.1116Z" fill="#583200"/>
</g>
<path d="M17.6007 25.9708C18.8544 25.9708 19.8707 24.9545 19.8707 23.7008C19.8707 22.447 18.8544 21.4307 17.6007 21.4307C16.3469 21.4307 15.3306 22.447 15.3306 23.7008C15.3306 24.9545 16.3469 25.9708 17.6007 25.9708Z" fill="#004358"/>
<path d="M18.8486 23.7008C18.8486 23.9477 18.7754 24.189 18.6383 24.3942C18.5011 24.5995 18.3062 24.7595 18.0781 24.854C17.85 24.9484 17.5991 24.9731 17.357 24.925C17.1148 24.8768 16.8924 24.7579 16.7179 24.5834C16.5433 24.4088 16.4244 24.1864 16.3763 23.9443C16.3281 23.7022 16.3528 23.4512 16.4473 23.2232C16.5418 22.9951 16.7018 22.8001 16.907 22.663C17.1123 22.5258 17.3536 22.4526 17.6005 22.4526C17.7644 22.4526 17.9267 22.4849 18.0781 22.5476C18.2295 22.6104 18.3671 22.7023 18.483 22.8182C18.5989 22.9341 18.6909 23.0717 18.7536 23.2232C18.8163 23.3746 18.8486 23.5369 18.8486 23.7008Z" fill="#668E9B"/>
<path d="M38.1952 36.9546H9.823V99.0739H38.1952V36.9546Z" fill="#102030"/>
<path d="M39.2093 36.9546H8.80103V39.0296H39.2093V36.9546Z" fill="black"/>
<path d="M37.3527 37.3916H10.6655V38.6008H37.3527V37.3916Z" fill="#636363"/>
<path d="M39.2093 97.8179H8.80103V99.8929H39.2093V97.8179Z" fill="black"/>
<path d="M37.3527 98.2549H10.6655V99.464H37.3527V98.2549Z" fill="#636363"/>
<path d="M18.2324 39.2949H11.3597V97.1237H18.2324V39.2949Z" fill="#C48D5C"/>
<g style="mix-blend-mode:multiply" opacity="0.3">
<path d="M17.7565 40.6601C17.7565 40.2778 17.7565 39.9502 17.7565 39.2949H16.3055C16.3055 46.0115 16.3055 54.8969 16.3055 66.1069C16.3055 64.5467 16.3055 62.9865 16.3835 61.3639C16.3133 78.9395 16.0481 69.8514 15.9545 97.1236H16.5005C16.4849 87.4426 16.4381 74.8206 16.4381 60.693C16.5707 56.2074 16.8126 51.5892 16.8126 46.6512C16.8126 66.0913 17.2338 13.3254 17.2806 73.042C17.1402 81.2408 16.9062 111.649 16.9062 70.0464C16.9062 81.2642 16.9062 90.1963 16.9062 97.108H17.4133C17.4133 92.17 17.4133 86.7015 17.4133 80.6557C17.4133 71.1073 17.4133 69.8592 17.3352 72.1604C17.4055 39.4587 17.7955 77.4573 17.7955 87.6298C17.7955 66.4735 18.1075 88.3553 18.2246 39.2637H17.7955L17.7565 40.6601Z" fill="#C9A064"/>
</g>
<g style="mix-blend-mode:multiply" opacity="0.3">
<path d="M17.9984 97.1239H18.1778C18.1154 92.3029 18.053 92.3809 17.9984 97.1239Z" fill="#C9A064"/>
</g>
<g style="mix-blend-mode:multiply" opacity="0.3">
<path d="M15.5488 97.1236H15.7361C15.658 93.0593 15.5956 91.6239 15.5488 97.1236Z" fill="#C9A064"/>
</g>
<g style="mix-blend-mode:multiply" opacity="0.3">
<path d="M11.703 94.3232C11.703 65.8027 11.5002 66.8793 11.3597 70.8578V97.0925H12.0462C11.9058 77.668 11.703 79.8913 11.703 94.3232Z" fill="#C9A064"/>
</g>
<g style="mix-blend-mode:multiply" opacity="0.3">
<path d="M15.8687 78.4637C15.8687 62.0348 15.8687 48.7497 15.9467 39.2949H15.4084C15.4787 61.949 15.8687 96.4918 15.8687 78.4637Z" fill="#C9A064"/>
</g>
<g style="mix-blend-mode:multiply" opacity="0.3">
<path d="M15.3928 39.2949H14.9325C14.9949 62.1128 15.3459 70.14 15.3928 39.2949Z" fill="#C9A064"/>
</g>
<g style="mix-blend-mode:multiply" opacity="0.3">
<path d="M14.6205 97.1238H15.0105C14.9793 59.8741 14.7375 78.5653 14.6205 97.1238Z" fill="#C9A064"/>
</g>
<g style="mix-blend-mode:multiply" opacity="0.3">
<path d="M14.917 39.2949H14.4957C14.6127 76.7943 14.878 82.1692 14.917 39.2949Z" fill="#C9A064"/>
</g>
<g style="mix-blend-mode:multiply" opacity="0.3">
<path d="M14.0277 81.7401C14.0823 71.2868 14.1681 54.6395 14.2461 39.2949H13.466C13.505 50.4893 13.5362 65.4204 13.5362 84.408C13.3958 104.691 13.154 89.19 13.154 40.1764C13.154 47.3767 12.8654 67.7451 12.7405 57.7131C12.8107 50.1929 12.9044 43.4919 12.9668 39.2949H12.0931C12.0931 41.1724 12.0931 43.2344 12.0931 45.4811V39.2949H11.625C11.6718 89.6659 12.0931 3.20755 12.0931 93.4806C12.0931 40.7693 12.5689 48.8745 12.5689 83.1989C12.5689 77.59 12.5689 71.3258 12.6469 65.2566C12.6469 79.3452 12.6079 89.5177 12.5689 97.1549H14.5036C14.3865 80.2189 14.0745 89.6191 14.0745 76.1468C14.0979 80.1955 14.0511 81.8415 14.0277 81.7401ZM13.505 84.408C13.505 75.944 13.505 65.7325 13.5908 57.1904C13.5752 69.3599 13.544 78.4481 13.505 84.408ZM13.6455 49.4128C13.7703 33.92 13.9497 31.9698 13.9731 79.8367C13.8717 74.298 13.7235 58.2825 13.6455 49.4128Z" fill="#C9A064"/>
</g>
<g style="mix-blend-mode:multiply">
<path d="M18.2402 39.2949H15.4084V97.1237H18.2402V39.2949Z" fill="#C48D5C"/>
</g>
<g style="mix-blend-mode:multiply">
<path d="M18.2324 39.2949H16.8204V97.1237H18.2324V39.2949Z" fill="#C48D5C"/>
</g>
<g style="mix-blend-mode:overlay" opacity="0.5">
<path d="M13.895 39.2949H12.483V97.1237H13.895V39.2949Z" fill="#FFB778"/>
</g>
<path d="M36.7988 39.2949H29.9261V97.1237H36.7988V39.2949Z" fill="#C48D5C"/>
<g style="mix-blend-mode:multiply" opacity="0.3">
<path d="M36.3151 40.6601C36.3151 40.2778 36.3151 39.9502 36.3151 39.2949H34.8641C34.8641 46.0115 34.8641 54.8969 34.8641 66.1069C34.8641 64.5467 34.8641 62.9865 34.9343 61.3639C34.8641 78.9395 34.5989 69.8514 34.5131 97.1236H35.0513C35.0045 87.4426 34.9655 74.7816 34.9577 60.693C35.0981 56.2074 35.3322 51.5892 35.3322 46.6512C35.3322 66.0913 35.7534 13.3254 35.8002 73.042C35.6598 81.2408 35.4258 111.649 35.4258 70.0464C35.4258 81.2642 35.4258 90.1963 35.4258 97.108H35.9406C35.9406 92.17 35.9406 86.7015 35.9406 80.6557C35.9406 71.1073 35.9406 69.8592 35.8626 72.1604C35.9406 39.4587 36.3229 77.4573 36.3229 87.6298C36.3229 66.4735 36.6349 88.3553 36.7519 39.2637H36.3229L36.3151 40.6601Z" fill="#C9A064"/>
</g>
<g style="mix-blend-mode:multiply" opacity="0.3">
<path d="M36.557 97.1239H36.7208C36.7208 92.3029 36.6116 92.3809 36.557 97.1239Z" fill="#C9A064"/>
</g>
<g style="mix-blend-mode:multiply" opacity="0.3">
<path d="M34.1073 97.1236H34.2945C34.2243 93.0593 34.1619 91.6239 34.1073 97.1236Z" fill="#C9A064"/>
</g>
<g style="mix-blend-mode:multiply" opacity="0.3">
<path d="M30.2694 94.3232C30.2694 65.8027 30.0666 66.8793 29.9261 70.8578V97.0925H30.6048C30.48 77.668 30.2694 79.8913 30.2694 94.3232Z" fill="#C9A064"/>
</g>
<g style="mix-blend-mode:multiply" opacity="0.3">
<path d="M34.4273 78.4637C34.4273 62.0348 34.4273 48.7497 34.5053 39.2949H33.967C34.0451 61.949 34.4273 96.4918 34.4273 78.4637Z" fill="#C9A064"/>
</g>
<g style="mix-blend-mode:multiply" opacity="0.3">
<path d="M33.9513 39.2949H33.4911C33.5535 62.1128 33.9045 70.14 33.9513 39.2949Z" fill="#C9A064"/>
</g>
<g style="mix-blend-mode:multiply" opacity="0.3">
<path d="M33.1791 97.1238H33.6003C33.5379 59.8741 33.3039 78.5653 33.1791 97.1238Z" fill="#C9A064"/>
</g>
<g style="mix-blend-mode:multiply" opacity="0.3">
<path d="M33.4834 39.2949H33.0621C33.1791 76.7943 33.4522 82.1692 33.4834 39.2949Z" fill="#C9A064"/>
</g>
<g style="mix-blend-mode:multiply" opacity="0.3">
<path d="M32.5862 81.7401C32.6408 71.2868 32.7266 54.6395 32.8046 39.2949H32.0245C32.0401 50.4893 32.0401 65.4594 32.0401 84.408C31.9075 104.691 31.6579 89.19 31.6579 40.1764C31.6579 47.3767 31.3692 67.7451 31.2444 57.7131C31.3224 50.1929 31.4082 43.4919 31.4784 39.2949H30.6515V45.4811C30.6515 43.3592 30.6515 41.2998 30.6515 39.2949H30.1835C30.2303 89.6659 30.6593 3.20755 30.6593 93.4806C30.6593 40.7693 31.1274 48.8745 31.1274 83.1989C31.1274 77.59 31.1274 71.3258 31.2054 65.2566C31.2054 79.3452 31.2054 89.5177 31.1274 97.1549H33.0542C32.9372 80.2189 32.633 89.6191 32.633 76.1468C32.633 80.1955 32.6174 81.8415 32.5862 81.7401ZM32.0401 84.408C32.0401 75.944 32.0401 65.7325 32.1259 57.1904C32.1337 69.3599 32.1025 78.4481 32.0401 84.408ZM32.1805 49.4128C32.3131 33.92 32.4848 31.9698 32.5082 79.8367C32.438 74.298 32.2819 58.2825 32.2039 49.4128H32.1805Z" fill="#C9A064"/>
</g>
<g style="mix-blend-mode:multiply">
<path d="M36.7988 39.2949H33.967V97.1237H36.7988V39.2949Z" fill="#C48D5C"/>
</g>
<g style="mix-blend-mode:multiply">
<path d="M36.7988 39.2949H36.1747V97.1237H36.7988V39.2949Z" fill="#C48D5C"/>
</g>
<g style="mix-blend-mode:overlay" opacity="0.5">
<path d="M33.569 39.2949H32.6953V97.1237H33.569V39.2949Z" fill="#FFB778"/>
</g>
<path d="M24.9802 39.2949H17.5146V97.1237H24.9802V39.2949Z" fill="#C48D5C"/>
<g style="mix-blend-mode:multiply" opacity="0.3">
<path d="M21.2513 97.1238H21.7272V39.7163C21.7272 91.078 21.2513 70.6238 21.2513 91.0702V97.1238Z" fill="#C9A064"/>
</g>
<g style="mix-blend-mode:multiply" opacity="0.3">
<path d="M19.816 97.1239C19.816 95.4233 19.816 93.2234 19.816 90.5632C19.8316 92.5291 19.8316 94.768 19.816 97.1239Z" fill="#C9A064"/>
</g>
<g style="mix-blend-mode:multiply" opacity="0.3">
<path d="M20.3387 91.8427C20.3387 61.8401 20.1515 85.6565 20.0111 97.124H20.8692C20.8692 90.5555 20.8146 83.441 20.8146 76.974C20.7834 60.9976 20.3387 97.2254 20.3387 91.8427Z" fill="#C9A064"/>
</g>
<g style="mix-blend-mode:multiply" opacity="0.3">
<path d="M17.889 97.1237H18.0373C17.9826 91.7255 17.9436 79.6963 17.9436 55.0686C17.9436 73.6506 17.9202 87.4583 17.889 97.1237Z" fill="#C9A064"/>
</g>
<g style="mix-blend-mode:multiply" opacity="0.3">
<path d="M20.8613 39.2949C20.9861 51.4957 21.1344 74.2043 21.1578 97.1237C21.1578 66.77 21.2124 48.8121 21.2748 39.2949H20.8613Z" fill="#C9A064"/>
</g>
<g style="mix-blend-mode:multiply" opacity="0.3">
<path d="M20.1125 39.2949H18.6849C18.7317 47.4548 18.7785 56.5975 18.7941 66.0367C18.6693 75.0157 18.4743 78.6743 18.4275 97.1237H19.0126C19.0126 92.3729 18.958 86.5767 18.9346 79.7743C19.075 76.2404 19.27 62.0426 19.27 47.7902C19.27 70.1946 19.7459 52.6502 19.7459 52.5332C19.7459 86.8341 19.9721 68.5798 20.1125 39.2949Z" fill="#C9A064"/>
</g>
<g style="mix-blend-mode:multiply" opacity="0.3">
<path d="M19.3557 97.1239V90.5789C19.3609 92.9504 19.3609 95.132 19.3557 97.1239Z" fill="#C9A064"/>
</g>
<g style="mix-blend-mode:multiply" opacity="0.3">
<path d="M17.5146 39.2949V46.9945C17.6551 47.9072 17.8501 34.0293 17.8501 69.9996C17.8501 44.0457 17.9983 43.5465 18.1309 39.2949H17.5146Z" fill="#C9A064"/>
</g>
<g style="mix-blend-mode:multiply" opacity="0.3">
<path d="M21.6337 39.2949H21.5713C21.6103 44.4046 21.6337 51.051 21.6337 57.479V39.2949Z" fill="#C9A064"/>
</g>
<g style="mix-blend-mode:multiply" opacity="0.3">
<path d="M20.6507 39.2949H20.2762C20.3777 61.1143 20.5727 47.7512 20.6507 39.2949Z" fill="#C9A064"/>
</g>
<g style="mix-blend-mode:multiply" opacity="0.3">
<path d="M25.0193 97.1239V47.9777C24.8867 57.6041 24.6605 65.1867 24.6449 41.6589C24.6449 40.8788 24.6449 40.0987 24.6449 39.3186H23.4591C23.5527 67.4802 23.9116 0.836311 23.9116 83.9247C23.9116 31.2134 24.3796 39.3264 24.3796 73.6508C24.3796 63.5563 24.4888 51.3789 24.5981 41.7603C24.5981 69.5786 24.5512 86.226 24.4966 97.1473L25.0193 97.1239Z" fill="#C9A064"/>
</g>
<g style="mix-blend-mode:multiply" opacity="0.3">
<path d="M22.6009 39.2949H22.5151C22.5385 42.0019 22.5619 41.5806 22.6009 39.2949Z" fill="#C9A064"/>
</g>
<g style="mix-blend-mode:multiply" opacity="0.3">
<path d="M23.654 91.1326C23.654 47.7045 23.1859 72.9017 23.1859 72.4648C23.1859 102.756 22.9051 76.3653 22.7725 97.1237H24.0128C23.8724 74.2434 23.654 75.9129 23.654 91.1326Z" fill="#C9A064"/>
</g>
<g style="mix-blend-mode:multiply" opacity="0.3">
<path d="M22.4839 39.2949H22.2655C22.3591 50.2787 22.4527 55.5288 22.4839 39.2949Z" fill="#C9A064"/>
</g>
<g style="mix-blend-mode:multiply" opacity="0.3">
<path d="M21.7664 93.3248V97.1238H22.0862C21.9458 83.2927 21.7664 77.5902 21.7664 93.3248Z" fill="#C9A064"/>
</g>
<g style="mix-blend-mode:multiply">
<path d="M24.9802 39.2949H22.1484V97.1237H24.9802V39.2949Z" fill="#C48D5C"/>
</g>
<g style="mix-blend-mode:multiply">
<path d="M24.9802 39.2949H23.5682V97.1237H24.9802V39.2949Z" fill="#C48D5C"/>
</g>
<g style="mix-blend-mode:overlay" opacity="0.5">
<path d="M20.6584 39.2949H18.9188V97.1237H20.6584V39.2949Z" fill="#FFB778"/>
</g>
<path d="M31.8528 39.2949H24.3248V97.1237H31.8528V39.2949Z" fill="#C48D5C"/>
<g style="mix-blend-mode:multiply" opacity="0.3">
<path d="M26.4313 81.116C26.4313 -7.86986 26.8603 81.116 26.8993 39.2949H26.01C26.1348 81.5373 26.4313 91.1013 26.4313 81.116Z" fill="#C9A064"/>
</g>
<g style="mix-blend-mode:multiply" opacity="0.3">
<path d="M30.519 39.2949H30.3474C30.402 42.7664 30.48 41.877 30.519 39.2949Z" fill="#C9A064"/>
</g>
<g style="mix-blend-mode:multiply" opacity="0.3">
<path d="M27.5155 97.1236H27.6481C27.6481 90.0559 27.5935 80.7415 27.5935 69.7188C27.5935 80.0473 27.5623 89.3148 27.5155 97.1236Z" fill="#C9A064"/>
</g>
<g style="mix-blend-mode:multiply" opacity="0.3">
<path d="M27.8511 60.42C27.8511 49.756 27.8511 43.3904 27.9135 39.2949H27.7965C27.8277 42.7586 27.8511 49.1398 27.8511 60.42Z" fill="#C9A064"/>
</g>
<g style="mix-blend-mode:multiply" opacity="0.3">
<path d="M27.9991 97.1239H28.2098C28.1318 94.5886 28.0694 83.8622 28.0694 51.8782C28.0694 72.5976 28.0382 87.3961 27.9991 97.1239Z" fill="#C9A064"/>
</g>
<g style="mix-blend-mode:multiply" opacity="0.3">
<path d="M28.3113 97.1239H28.5297C28.5063 89.1903 28.4127 95.0567 28.3113 97.1239Z" fill="#C9A064"/>
</g>
<g style="mix-blend-mode:multiply" opacity="0.3">
<path d="M27.3596 39.2949H26.9227C26.9539 65.124 27.2504 75.6397 27.3596 39.2949Z" fill="#C9A064"/>
</g>
<g style="mix-blend-mode:multiply" opacity="0.3">
<path d="M25.7058 66.4971C25.7058 78.2922 25.7058 88.3944 25.6278 97.1238H26.0881C25.9555 81.4438 25.7058 108.771 25.7058 66.4971Z" fill="#C9A064"/>
</g>
<g style="mix-blend-mode:multiply" opacity="0.3">
<path d="M26.3766 97.124H27.0943C26.9851 69.3915 26.6496 95.9694 26.6496 54.2185C26.6496 47.8373 26.5014 72.5352 26.3766 97.124Z" fill="#C9A064"/>
</g>
<g style="mix-blend-mode:multiply" opacity="0.3">
<path d="M29.4736 97.124C29.4736 94.2376 29.4736 90.9924 29.4736 87.3572C29.4788 91.0861 29.4788 94.3417 29.4736 97.124Z" fill="#C9A064"/>
</g>
<g style="mix-blend-mode:multiply" opacity="0.3">
<path d="M30.4332 88.6207C30.4332 55.3495 30.1991 88.2618 30.0587 97.1238H30.9792C30.9324 89.7206 30.9012 81.2956 30.9012 73.7208C30.9012 57.7756 30.4332 94.0034 30.4332 88.6207Z" fill="#C9A064"/>
</g>
<g style="mix-blend-mode:multiply" opacity="0.3">
<path d="M31.1585 93.7146C31.1585 68.1976 31.1585 50.7234 31.2287 39.2949H30.9401C31.0493 53.4849 31.1585 73.8689 31.1585 93.7146Z" fill="#C9A064"/>
</g>
<g style="mix-blend-mode:multiply" opacity="0.3">
<path d="M28.7326 39.2949C28.7326 47.2987 28.795 55.8954 28.795 64.5857C28.795 66.5125 28.795 67.9713 28.795 69.0089C28.678 75.0624 28.5532 81.0068 28.5298 97.0924H29.1383C29.0837 89.8219 29.0369 79.4778 29.0134 66.2161C29.1305 60.3654 29.2397 49.912 29.2475 39.2637L28.7326 39.2949Z" fill="#C9A064"/>
</g>
<g style="mix-blend-mode:multiply" opacity="0.3">
<path d="M31.845 39.2949C31.845 87.0526 31.377 67.7529 31.377 87.8093C31.377 91.2573 31.377 94.3543 31.377 97.1237H31.8528V39.2949H31.845Z" fill="#C9A064"/>
</g>
<g style="mix-blend-mode:multiply" opacity="0.3">
<path d="M25.893 39.2949H25.5731C25.6667 51.6205 25.7994 54.9749 25.893 39.2949Z" fill="#C9A064"/>
</g>
<g style="mix-blend-mode:multiply" opacity="0.3">
<path d="M29.9261 97.124H29.973C29.973 95.3064 29.973 92.1782 29.973 87.3416C29.9573 90.1889 29.9417 93.6135 29.9261 97.124Z" fill="#C9A064"/>
</g>
<g style="mix-blend-mode:multiply" opacity="0.3">
<path d="M29.7388 42.9224C29.7388 73.3462 29.9182 62.5029 30.0587 39.2949H29.2786C29.2864 59.9987 29.7388 43.0394 29.7388 42.9224Z" fill="#C9A064"/>
</g>
<g style="mix-blend-mode:multiply" opacity="0.3">
<path d="M25.23 93.9956V97.116H25.4328C25.4439 96.0722 25.3761 95.0291 25.23 93.9956Z" fill="#C9A064"/>
</g>
<g style="mix-blend-mode:multiply" opacity="0.3">
<path d="M24.3248 39.2949V53.5083C24.4418 59.9987 24.5433 72.7846 24.5433 78.0736C24.5433 58.4385 24.8085 75.8582 24.9411 39.2949H24.3248Z" fill="#C9A064"/>
</g>
<g style="mix-blend-mode:multiply" opacity="0.3">
<path d="M24.8787 97.124H25.1205C25.0191 87.9422 24.9489 88.1528 24.8787 97.124Z" fill="#C9A064"/>
</g>
<g style="mix-blend-mode:multiply">
<path d="M31.8607 39.2949H29.0289V97.1237H31.8607V39.2949Z" fill="#C48D5C"/>
</g>
<g style="mix-blend-mode:multiply">
<path d="M31.8607 39.2949H31.182V97.1237H31.8607V39.2949Z" fill="#C48D5C"/>
</g>
<g style="mix-blend-mode:overlay" opacity="0.5">
<path d="M27.3439 39.2949H25.5653V97.1237H27.3439V39.2949Z" fill="#FFB778"/>
</g>
<path d="M17.5772 99.9009H10.6655V100.33H17.5772V99.9009Z" fill="#D60F0F"/>
<path d="M37.3604 99.9009H30.4487V100.33H37.3604V99.9009Z" fill="#D60F0F"/>
</g>
<defs>
<filter id="filter0_d_30_2732" x="0" y="0" width="54.0181" height="107.33" filterUnits="userSpaceOnUse" color-interpolation-filters="sRGB">
<feFlood flood-opacity="0" result="BackgroundImageFix"/>
<feColorMatrix in="SourceAlpha" type="matrix" values="0 0 0 0 0 0 0 0 0 0 0 0 0 0 0 0 0 0 127 0" result="hardAlpha"/>
<feOffset dx="3" dy="3"/>
<feGaussianBlur stdDeviation="2"/>
<feComposite in2="hardAlpha" operator="out"/>
<feColorMatrix type="matrix" values="0 0 0 0 0 0 0 0 0 0 0 0 0 0 0 0 0 0 0.25 0"/>
<feBlend mode="normal" in2="BackgroundImageFix" result="effect1_dropShadow_30_2732"/>
<feBlend mode="normal" in="SourceGraphic" in2="effect1_dropShadow_30_2732" result="shape"/>
</filter>
</defs>
</svg>
