<svg width="55" height="108" viewBox="0 0 55 108" fill="none" xmlns="http://www.w3.org/2000/svg">
<g filter="url(#filter0_d_30_3293)">
<path d="M12.7162 44.3188C11.0266 44.0145 9.29621 44.0145 7.60658 44.3188C7.34144 44.3664 7.10154 44.5059 6.92895 44.7127C6.75635 44.9195 6.66208 45.1805 6.66266 45.4499V53.4147C6.66469 53.6801 6.75811 53.9368 6.92719 54.1414C7.09628 54.346 7.33069 54.4861 7.59098 54.5381C9.28061 54.8423 11.011 54.8423 12.7006 54.5381C12.9664 54.4888 13.2065 54.3477 13.3789 54.1396C13.5514 53.9315 13.6454 53.6694 13.6445 53.3991V45.4499C13.6458 45.1828 13.5537 44.9235 13.3843 44.717C13.2148 44.5105 12.9785 44.3696 12.7162 44.3188Z" fill="#D6D6D6"/>
<path d="M12.9814 42.3376C12.1006 41.9176 11.1371 41.6997 10.1613 41.6997C9.18552 41.6997 8.22205 41.9176 7.34125 42.3376V56.5354C8.22205 56.9553 9.18552 57.1732 10.1613 57.1732C11.1371 57.1732 12.1006 56.9553 12.9814 56.5354V42.3376Z" fill="#004358"/>
<path d="M11.1716 42.6259C10.5013 42.5323 9.82133 42.5323 9.1511 42.6259L8.91707 41.8458C8.37681 41.9488 7.85232 42.1219 7.35687 42.3607V42.1501C7.90409 41.8804 8.48738 41.6912 9.08869 41.5884L9.32272 42.3685C9.89048 42.3059 10.4634 42.3059 11.0311 42.3685L11.2652 41.5884C11.8665 41.6912 12.4498 41.8804 12.997 42.1501V42.3607C12.5019 42.1211 11.9773 41.9479 11.4368 41.8458C11.3354 42.0564 11.2574 42.3607 11.1716 42.6259Z" fill="#003242"/>
<path d="M11.1716 43.9602C10.4999 43.89 9.82276 43.89 9.1511 43.9602L8.91707 43.1801C8.3826 43.2643 7.85927 43.4082 7.35687 43.6091V43.3985C7.91299 43.1727 8.49455 43.0155 9.08869 42.9304L9.32272 43.7105C9.89089 43.6559 10.463 43.6559 11.0311 43.7105L11.2652 42.9304C11.8593 43.0155 12.4409 43.1727 12.997 43.3985V43.6169C12.4948 43.4155 11.9714 43.2716 11.4368 43.1879C11.3354 43.4219 11.2574 43.6949 11.1716 43.9602Z" fill="#003242"/>
<path d="M11.1716 45.3017C10.4995 45.2393 9.82314 45.2393 9.1511 45.3017L8.91707 44.5216C8.38845 44.5891 7.86651 44.7013 7.35687 44.8571V44.6464C7.92088 44.4683 8.50089 44.3455 9.08869 44.2798L9.32272 45.0599C9.89153 45.0209 10.4623 45.0209 11.0311 45.0599L11.2652 44.2798C11.853 44.3455 12.433 44.4683 12.997 44.6464V44.8571C12.4874 44.701 11.9655 44.5888 11.4368 44.5216C11.3354 44.7556 11.2574 45.0287 11.1716 45.3017Z" fill="#003242"/>
<path d="M11.1716 46.6359C10.4986 46.5969 9.82402 46.5969 9.1511 46.6359L8.91707 45.8168C8.39199 45.8608 7.87064 45.9416 7.35687 46.0586V45.848C7.9262 45.7122 8.50522 45.621 9.08869 45.575L9.32272 46.4019C9.89177 46.3707 10.4621 46.3707 11.0311 46.4019L11.2652 45.575C11.8486 45.621 12.4277 45.7122 12.997 45.848V46.0586C12.4833 45.9412 11.9619 45.8604 11.4368 45.8168C11.3354 46.082 11.2574 46.3551 11.1716 46.6359Z" fill="#003242"/>
<path d="M11.1716 47.9699C10.5007 47.9699 9.82198 47.9699 9.1511 47.9699L8.91707 47.143C8.371 47.143 7.84833 47.2288 7.35687 47.299V47.0884C7.93077 46.9996 8.50877 46.9397 9.08869 46.9089L9.32272 47.7358C9.88959 47.7358 10.4591 47.7358 11.0311 47.7358L11.2652 46.9089C11.8451 46.9397 12.4231 46.9996 12.997 47.0884V47.299C12.4977 47.2288 11.9673 47.1742 11.4368 47.143C11.3354 47.416 11.2574 47.689 11.1716 47.9699Z" fill="#003242"/>
<path d="M11.1716 49.3038H9.1511L8.91707 48.4691C8.371 48.4691 7.84833 48.5081 7.35687 48.5393V48.2975C7.91074 48.2507 8.49582 48.2273 9.08869 48.2117L9.32272 49.0464H11.0311L11.2652 48.2117C11.858 48.2117 12.4431 48.2117 12.997 48.2975V48.5081C12.4977 48.5081 11.9673 48.4535 11.4368 48.4379C11.3354 48.7499 11.2574 49.023 11.1716 49.3038Z" fill="#003242"/>
<path d="M11.1716 50.6376C10.5007 50.6376 9.82199 50.6376 9.1511 50.6376L8.91707 49.7951H7.35687V49.5923H9.07309L9.30712 50.4348H11.0155L11.2496 49.5923H12.9814V49.7951H11.4212C11.3354 50.0759 11.2574 50.3568 11.1716 50.6376Z" fill="#003242"/>
<path d="M11.1716 51.9795C10.5007 51.9795 9.82198 51.9795 9.1511 51.9795L8.91707 51.1292C8.371 51.1292 7.84833 51.0667 7.35687 51.0121V50.8015C7.91074 50.8561 8.49582 50.8873 9.08869 50.9107L9.32272 51.761C9.88959 51.761 10.4591 51.761 11.0311 51.761L11.2652 50.9107C11.858 50.9107 12.4431 50.8561 12.997 50.8015V51.0121C12.4977 51.0667 11.9673 51.1058 11.4368 51.1292C11.3354 51.4178 11.2574 51.6908 11.1716 51.9795Z" fill="#003242"/>
<path d="M11.1716 53.3135C10.4992 53.3681 9.82348 53.3681 9.1511 53.3135L8.91707 52.4554C8.39366 52.4166 7.8728 52.3489 7.35687 52.2526V52.042C7.93036 52.1388 8.50837 52.2064 9.08869 52.2448L9.32272 53.0951C9.89153 53.1341 10.4623 53.1341 11.0311 53.0951L11.2652 52.2448C11.8455 52.2064 12.4235 52.1388 12.997 52.042V52.2526C12.4811 52.3492 11.9602 52.4169 11.4368 52.4554C11.3354 52.7441 11.2574 53.0249 11.1716 53.3135Z" fill="#003242"/>
<path d="M11.1716 54.6474C10.4999 54.7176 9.82276 54.7176 9.1511 54.6474L8.91707 53.7893C8.39067 53.7273 7.86931 53.6283 7.35687 53.4929V53.2822C7.92558 53.4258 8.5046 53.5249 9.08869 53.5787L9.32272 54.4368C9.89123 54.4836 10.4626 54.4836 11.0311 54.4368L11.2652 53.5787C11.8493 53.5249 12.4283 53.4258 12.997 53.2822V53.4929C12.4846 53.6286 11.9632 53.7277 11.4368 53.7893C11.3354 54.0701 11.2574 54.3588 11.1716 54.6474Z" fill="#003242"/>
<path d="M11.1716 55.9813C10.5013 56.0749 9.82133 56.0749 9.1511 55.9813L8.91707 55.1154C8.3864 55.036 7.86415 54.908 7.35687 54.7331V54.5381C7.92013 54.724 8.50013 54.8546 9.08869 54.9281L9.32272 55.794C9.89048 55.8566 10.4634 55.8566 11.0311 55.794L11.2652 54.9281C11.8537 54.8546 12.4337 54.724 12.997 54.5381V54.7487C12.4899 54.9241 11.9676 55.052 11.4368 55.131C11.3354 55.404 11.2574 55.6926 11.1716 55.9813Z" fill="#003242"/>
<path d="M11.1716 57.3231C10.5019 57.4245 9.82077 57.4245 9.1511 57.3231L8.91707 56.4416C8.37923 56.3485 7.85512 56.1887 7.35687 55.9658V55.7551C7.91213 55.9884 8.49366 56.1535 9.08869 56.2466L9.32272 57.1203C9.89003 57.1905 10.4638 57.1905 11.0311 57.1203L11.2652 56.2466C11.8602 56.1535 12.4417 55.9884 12.997 55.7551V55.9658C12.499 56.1893 11.9748 56.3492 11.4368 56.4416C11.3354 56.7381 11.2574 57.0267 11.1716 57.3231Z" fill="#003242"/>
<g style="mix-blend-mode:multiply" opacity="0.5">
<path d="M12.9814 43.523V42.1344C12.4341 41.8648 11.8508 41.6756 11.2495 41.5728C11.2334 41.6417 11.2125 41.7095 11.1871 41.7756C10.507 41.6742 9.8156 41.6742 9.13547 41.7756C9.13547 41.7132 9.13548 41.643 9.07307 41.5728C8.47176 41.6756 7.88846 41.8648 7.34125 42.1344V43.523C9.15549 42.8196 11.1671 42.8196 12.9814 43.523Z" fill="#003242"/>
</g>
<g style="mix-blend-mode:multiply" opacity="0.5">
<path d="M7.34125 53.4692V56.535C7.89453 56.7999 8.48302 56.9838 9.08867 57.0811L9.15108 57.3229C9.82075 57.4243 10.5019 57.4243 11.1715 57.3229L11.2417 57.0811C11.8449 56.9837 12.4308 56.7998 12.9814 56.535V53.4692C11.1314 53.9451 9.19117 53.9451 7.34125 53.4692Z" fill="#003242"/>
</g>
<path d="M12.7162 83.5031C11.0266 83.1988 9.29623 83.1988 7.6066 83.5031C7.34082 83.5524 7.10077 83.6934 6.92828 83.9015C6.75579 84.1097 6.6618 84.3717 6.66268 84.642V92.599C6.66111 92.8671 6.75288 93.1274 6.92227 93.3352C7.09166 93.5431 7.32809 93.6855 7.591 93.738C9.28062 94.0422 11.011 94.0422 12.7006 93.738C12.9664 93.6887 13.2065 93.5477 13.379 93.3395C13.5515 93.1314 13.6454 92.8694 13.6446 92.599V84.642C13.6461 84.3739 13.5544 84.1136 13.385 83.9058C13.2156 83.698 12.9792 83.5556 12.7162 83.5031Z" fill="#D6D6D6"/>
<path d="M12.9814 81.5219C12.1006 81.102 11.1371 80.884 10.1613 80.884C9.18552 80.884 8.22205 81.102 7.34125 81.5219V95.7197C8.22205 96.1396 9.18552 96.3576 10.1613 96.3576C11.1371 96.3576 12.1006 96.1396 12.9814 95.7197V81.5219Z" fill="#004358"/>
<path d="M11.1716 81.8415C10.5013 81.7479 9.82133 81.7479 9.1511 81.8415L8.91707 81.0614C8.37681 81.1644 7.85232 81.3375 7.35687 81.5763V81.3656C7.90409 81.096 8.48738 80.9068 9.08869 80.804L9.32272 81.5841C9.89048 81.5215 10.4634 81.5215 11.0311 81.5841L11.2652 80.804C11.8665 80.9068 12.4498 81.096 12.997 81.3656V81.5763C12.5019 81.3366 11.9773 81.1635 11.4368 81.0614C11.3354 81.2798 11.2574 81.5451 11.1716 81.8415Z" fill="#003242"/>
<path d="M11.1716 83.1445C10.4999 83.0743 9.82276 83.0743 9.1511 83.1445L8.91707 82.3644C8.3826 82.4486 7.85927 82.5926 7.35687 82.7934V82.5828C7.91299 82.357 8.49455 82.1998 9.08869 82.1147L9.32272 82.8948C9.89089 82.8403 10.463 82.8403 11.0311 82.8948L11.2652 82.1147C11.8593 82.1998 12.4409 82.357 12.997 82.5828V82.7934C12.4948 82.5921 11.9714 82.4481 11.4368 82.3644C11.3354 82.6218 11.2574 82.8792 11.1716 83.1445Z" fill="#003242"/>
<path d="M11.1716 84.4862C10.4995 84.4238 9.82314 84.4238 9.1511 84.4862L8.91707 83.7061C8.38845 83.7736 7.86651 83.8858 7.35687 84.0415V83.8387C7.91342 83.6378 8.4882 83.4915 9.07309 83.4019L9.30712 84.221C9.87592 84.1819 10.4467 84.1819 11.0155 84.221L11.2496 83.4019C11.8376 83.4702 12.4176 83.5956 12.9814 83.7763V83.9791C12.4718 83.8231 11.9499 83.7109 11.4212 83.6437C11.3354 83.9401 11.2574 84.182 11.1716 84.4862Z" fill="#003242"/>
<path d="M11.1716 85.82C10.4986 85.781 9.82402 85.781 9.1511 85.82L8.91707 85.0399C8.39244 85.0877 7.87134 85.1685 7.35687 85.2818V85.0711C7.9262 84.9354 8.50522 84.8441 9.08869 84.7981L9.32272 85.625C9.89177 85.5938 10.4621 85.5938 11.0311 85.625L11.2652 84.7981C11.8486 84.8441 12.4277 84.9354 12.997 85.0711V85.2818C12.4826 85.1681 11.9615 85.0874 11.4368 85.0399C11.3354 85.2662 11.2574 85.547 11.1716 85.82Z" fill="#003242"/>
<path d="M11.1716 87.1542C10.5007 87.1542 9.82198 87.1542 9.1511 87.1542L8.91707 86.3273C8.371 86.3273 7.84833 86.4131 7.35687 86.4833V86.2727C7.93077 86.1839 8.50877 86.124 9.08869 86.0933L9.32272 86.9202C9.88959 86.9202 10.4591 86.9202 11.0311 86.9202L11.2652 86.0933C11.8451 86.124 12.4231 86.1839 12.997 86.2727V86.5223C12.4977 86.4521 11.9673 86.3975 11.4368 86.3663C11.3354 86.6003 11.2574 86.8812 11.1716 87.1542Z" fill="#003242"/>
<path d="M11.1716 88.4882H9.1511L8.91707 87.6535C8.371 87.6535 7.84833 87.6925 7.35687 87.7237V87.5131C7.91074 87.4741 8.49582 87.4428 9.08869 87.4272L9.32272 88.2619H11.0311L11.2652 87.4272C11.858 87.4272 12.4431 87.4741 12.997 87.5131V87.7237C12.4977 87.7237 11.9673 87.6691 11.4368 87.6535C11.3354 87.9343 11.2574 88.2073 11.1716 88.4882Z" fill="#003242"/>
<path d="M11.1716 89.83C10.5007 89.83 9.82199 89.83 9.1511 89.83L8.91707 88.9875H7.35687V88.7769H9.07309L9.30712 89.6194H11.0155L11.2496 88.7769H12.9814V88.9875H11.4212C11.3354 89.2605 11.2574 89.5413 11.1716 89.83Z" fill="#003242"/>
<path d="M11.1716 91.2029C10.5007 91.2029 9.82198 91.2029 9.1511 91.2029L8.91707 90.3526C8.371 90.3526 7.84833 90.2902 7.35687 90.2355V90.0249C7.91074 90.0795 8.49582 90.1107 9.08869 90.1341L9.32272 90.9844C9.88959 90.9844 10.4591 90.9844 11.0311 90.9844L11.2652 90.1341C11.858 90.1341 12.4431 90.0795 12.997 90.0249V90.2355C12.4977 90.2902 11.9673 90.3292 11.4368 90.3526C11.3354 90.5944 11.2574 90.8752 11.1716 91.2029Z" fill="#003242"/>
<path d="M11.1716 92.4976C10.4992 92.5522 9.82348 92.5522 9.1511 92.4976L8.91707 91.6395C8.39366 91.6007 7.8728 91.533 7.35687 91.4367V91.2026C7.9298 91.3032 8.50802 91.371 9.08869 91.4055L9.32272 92.2558C9.89153 92.2948 10.4623 92.2948 11.0311 92.2558L11.2652 91.4055C11.8458 91.371 12.4241 91.3032 12.997 91.2026V91.4133C12.4811 91.5099 11.9602 91.5776 11.4368 91.6161C11.3354 91.9281 11.2574 92.209 11.1716 92.4976Z" fill="#003242"/>
<path d="M11.1716 93.8317C10.4999 93.9019 9.82276 93.9019 9.1511 93.8317L8.91707 92.9736C8.39067 92.9117 7.86931 92.8126 7.35687 92.6772V92.4666C7.92558 92.6101 8.5046 92.7093 9.08869 92.763L9.32272 93.6211C9.89123 93.6679 10.4626 93.6679 11.0311 93.6211L11.2652 92.763C11.8493 92.7093 12.4283 92.6101 12.997 92.4666V92.6772C12.4846 92.813 11.9632 92.912 11.4368 92.9736C11.3354 93.2544 11.2574 93.5431 11.1716 93.8317Z" fill="#003242"/>
<path d="M11.1716 95.1737C10.5008 95.2594 9.82185 95.2594 9.1511 95.1737L8.91707 94.3234C8.38569 94.2476 7.86309 94.1196 7.35687 93.9411V93.7305C7.91911 93.92 8.49948 94.0507 9.08869 94.1205L9.32272 94.9864C9.89048 95.049 10.4634 95.049 11.0311 94.9864L11.2652 94.1205C11.8544 94.0507 12.4348 93.92 12.997 93.7305V93.9411C12.4909 94.1201 11.9683 94.2481 11.4368 94.3234C11.3354 94.5886 11.2574 94.8772 11.1716 95.1737Z" fill="#003242"/>
<path d="M11.1716 96.5074C10.5019 96.6088 9.82077 96.6088 9.1511 96.5074L8.91707 95.6259C8.37923 95.5328 7.85512 95.373 7.35687 95.1501V94.9395C7.91087 95.1763 8.49285 95.3415 9.08869 95.4309L9.32272 96.3046C9.89003 96.3748 10.4638 96.3748 11.0311 96.3046L11.2652 95.4309C11.861 95.3415 12.443 95.1763 12.997 94.9395V95.1501C12.499 95.3736 11.9748 95.5335 11.4368 95.6259C11.3354 95.9224 11.2574 96.211 11.1716 96.5074Z" fill="#003242"/>
<g style="mix-blend-mode:multiply" opacity="0.5">
<path d="M12.9814 82.7078V81.3192C12.4341 81.0496 11.8508 80.8604 11.2495 80.7576L11.1871 80.9604C10.507 80.859 9.8156 80.859 9.13547 80.9604L9.07307 80.7576C8.47176 80.8604 7.88846 81.0496 7.34125 81.3192V82.7078C9.15549 82.0044 11.1671 82.0044 12.9814 82.7078Z" fill="#003242"/>
</g>
<g style="mix-blend-mode:multiply" opacity="0.5">
<path d="M7.34125 92.6541V95.7199C7.89453 95.9847 8.48302 96.1686 9.08867 96.2659C9.10486 96.3476 9.1257 96.4284 9.15108 96.5077C9.82075 96.6091 10.5019 96.6091 11.1715 96.5077L11.2417 96.2659C11.8449 96.1685 12.4308 95.9846 12.9814 95.7199V92.6541C11.1314 93.1299 9.19117 93.1299 7.34125 92.6541Z" fill="#003242"/>
</g>
<path d="M36.3297 44.3188C38.0193 44.0145 39.7497 44.0145 41.4393 44.3188C41.7045 44.3664 41.9444 44.5059 42.117 44.7127C42.2895 44.9195 42.3838 45.1805 42.3832 45.4499V53.4147C42.3805 53.6823 42.2849 53.9407 42.1127 54.1456C41.9405 54.3505 41.7025 54.4893 41.4393 54.5381C39.7497 54.8423 38.0193 54.8423 36.3297 54.5381C36.0639 54.4888 35.8238 54.3477 35.6513 54.1396C35.4789 53.9315 35.3849 53.6694 35.3857 53.3991V45.4499C35.3852 45.1805 35.4794 44.9195 35.652 44.7127C35.8246 44.5059 36.0645 44.3664 36.3297 44.3188Z" fill="#D6D6D6"/>
<path d="M36.0645 42.3376C36.9453 41.9176 37.9088 41.6997 38.8846 41.6997C39.8604 41.6997 40.8238 41.9176 41.7046 42.3376V56.5354C40.8238 56.9553 39.8604 57.1732 38.8846 57.1732C37.9088 57.1732 36.9453 56.9553 36.0645 56.5354V42.3376Z" fill="#004358"/>
<path d="M37.8743 42.6259C38.5446 42.5323 39.2246 42.5323 39.8948 42.6259C39.9728 42.3607 40.0508 42.0876 40.1366 41.8458C40.6767 41.9493 41.2012 42.1224 41.6968 42.3607V42.1501C41.1496 41.8804 40.5663 41.6912 39.965 41.5884L39.731 42.3685C39.1632 42.3059 38.5903 42.3059 38.0226 42.3685L37.7885 41.5884C37.1872 41.6912 36.6039 41.8804 36.0567 42.1501V42.3607C36.5518 42.1211 37.0764 41.9479 37.6169 41.8458C37.7105 42.0564 37.7963 42.3607 37.8743 42.6259Z" fill="#003242"/>
<path d="M37.8743 43.9602C38.546 43.89 39.2231 43.89 39.8948 43.9602C39.9728 43.6949 40.0508 43.4219 40.1366 43.1801C40.671 43.2648 41.1943 43.4087 41.6968 43.6091V43.3985C41.1407 43.1727 40.5591 43.0155 39.965 42.9304L39.731 43.7105C39.1628 43.6559 38.5907 43.6559 38.0226 43.7105L37.7885 42.9304C37.1944 43.0155 36.6128 43.1727 36.0567 43.3985V43.6169C36.5589 43.4155 37.0823 43.2716 37.6169 43.1879L37.8743 43.9602Z" fill="#003242"/>
<path d="M37.8743 45.3017C38.5464 45.2393 39.2228 45.2393 39.8948 45.3017C39.9728 45.0287 40.0508 44.7556 40.1366 44.5216C40.6652 44.5894 41.1871 44.7016 41.6968 44.8571V44.6464C41.1328 44.4683 40.5528 44.3455 39.965 44.2798L39.731 45.0599C39.1622 45.0209 38.5914 45.0209 38.0226 45.0599L37.7885 44.2798C37.2007 44.3455 36.6207 44.4683 36.0567 44.6464V44.8571C36.5663 44.701 37.0882 44.5888 37.6169 44.5216C37.7105 44.7556 37.7963 45.0287 37.8743 45.3017Z" fill="#003242"/>
<path d="M37.8743 46.6359C38.5473 46.5969 39.2219 46.5969 39.8948 46.6359C39.9728 46.3551 40.0508 46.082 40.1366 45.8168C40.6617 45.861 41.183 45.9418 41.6968 46.0586V45.848C41.1275 45.7122 40.5485 45.621 39.965 45.575L39.731 46.4019C39.1619 46.3707 38.5916 46.3707 38.0226 46.4019L37.7885 45.575C37.205 45.621 36.626 45.7122 36.0567 45.848V46.0586C36.5704 45.9412 37.0918 45.8604 37.6169 45.8168C37.7105 46.082 37.7963 46.3551 37.8743 46.6359Z" fill="#003242"/>
<path d="M37.8743 47.9699C38.5452 47.9699 39.2239 47.9699 39.8948 47.9699C39.9728 47.689 40.0508 47.416 40.1366 47.143C40.6749 47.143 41.1976 47.2288 41.6968 47.299V47.0884C41.1229 46.9996 40.5449 46.9397 39.965 46.9089L39.731 47.7358C39.1641 47.7358 38.5946 47.7358 38.0226 47.7358L37.7885 46.9089C37.2086 46.9397 36.6306 46.9996 36.0567 47.0884V47.299C36.556 47.2288 37.0864 47.1742 37.6169 47.143C37.7105 47.416 37.7963 47.689 37.8743 47.9699Z" fill="#003242"/>
<path d="M37.8743 49.3038H39.8948C39.9728 49.023 40.0508 48.7499 40.1366 48.4691C40.6567 48.4691 41.1767 48.4925 41.6968 48.5393V48.2975C41.1429 48.2507 40.5579 48.2273 39.965 48.2117L39.731 49.0464H38.0147L37.7807 48.2117C37.1878 48.2117 36.6028 48.2117 36.0489 48.2975V48.5081C36.5482 48.5081 37.0786 48.4535 37.6091 48.4379C37.7105 48.7499 37.7963 49.023 37.8743 49.3038Z" fill="#003242"/>
<path d="M37.8743 50.6376C38.5452 50.6376 39.2239 50.6376 39.8948 50.6376C39.9728 50.349 40.0508 50.0681 40.1366 49.7951H41.6968V49.5923H39.9728L39.7388 50.4348H38.0148L37.7807 49.5923H36.0645V49.7951H37.6247C37.7105 50.0759 37.7963 50.3568 37.8743 50.6376Z" fill="#003242"/>
<path d="M37.8743 51.9795C38.5452 51.9795 39.2239 51.9795 39.8948 51.9795C39.9728 51.6908 40.0508 51.41 40.1366 51.1292C40.6567 51.1292 41.1768 51.0901 41.6968 51.0121V50.8015C41.1429 50.8561 40.5579 50.8873 39.965 50.9107L39.731 51.761C39.1641 51.761 38.5946 51.761 38.0226 51.761L37.7885 50.9107C37.1956 50.9107 36.6106 50.8561 36.0567 50.8015V51.0121C36.556 51.0667 37.0864 51.1058 37.6169 51.1292C37.7105 51.4178 37.7963 51.6908 37.8743 51.9795Z" fill="#003242"/>
<path d="M37.8743 53.3135C38.5467 53.3681 39.2224 53.3681 39.8948 53.3135C39.9728 53.0249 40.0508 52.7441 40.1366 52.4554C40.66 52.4164 41.1809 52.3487 41.6968 52.2526V52.042C41.1233 52.1388 40.5453 52.2064 39.965 52.2448L39.731 53.0951C39.1622 53.1341 38.5914 53.1341 38.0226 53.0951L37.7885 52.2448C37.2082 52.2064 36.6302 52.1388 36.0567 52.042V52.2526C36.5726 52.3492 37.0935 52.4169 37.6169 52.4554C37.7105 52.7441 37.7963 53.0249 37.8743 53.3135Z" fill="#003242"/>
<path d="M37.8743 54.6474C38.546 54.7176 39.2231 54.7176 39.8948 54.6474C39.9728 54.3588 40.0508 54.0701 40.1366 53.7893C40.663 53.727 41.1843 53.6279 41.6968 53.4929V53.2822C41.1281 53.4258 40.5491 53.5249 39.965 53.5787L39.731 54.4368C39.1625 54.4836 38.5911 54.4836 38.0226 54.4368L37.7885 53.5787C37.2044 53.5249 36.6254 53.4258 36.0567 53.2822V53.4929C36.5691 53.6286 37.0904 53.7277 37.6169 53.7893C37.7105 54.0701 37.7963 54.3588 37.8743 54.6474Z" fill="#003242"/>
<path d="M37.8743 55.9813C38.5446 56.0749 39.2246 56.0749 39.8948 55.9813C39.9728 55.6926 40.0508 55.404 40.1366 55.1154C40.6672 55.0355 41.1894 54.9076 41.6968 54.7331V54.5381C41.1336 54.724 40.5536 54.8546 39.965 54.9281L39.731 55.794C39.1632 55.8566 38.5903 55.8566 38.0226 55.794L37.7885 54.9281C37.2 54.8546 36.62 54.724 36.0567 54.5381V54.7487C36.5638 54.9241 37.0861 55.052 37.6169 55.131C37.7105 55.404 37.7963 55.6926 37.8743 55.9813Z" fill="#003242"/>
<path d="M37.8743 57.3231C38.544 57.4245 39.2251 57.4245 39.8948 57.3231C39.9728 57.0267 40.0508 56.7381 40.1366 56.4416C40.6743 56.348 41.1984 56.1882 41.6968 55.9658V55.7551C41.1416 55.9884 40.56 56.1535 39.965 56.2466L39.731 57.1203C39.1637 57.1905 38.5899 57.1905 38.0226 57.1203L37.7885 56.2466C37.1935 56.1535 36.612 55.9884 36.0567 55.7551V55.9658C36.5547 56.1893 37.0789 56.3492 37.6169 56.4416C37.7105 56.7381 37.7963 57.0267 37.8743 57.3231Z" fill="#003242"/>
<g style="mix-blend-mode:multiply" opacity="0.5">
<path d="M36.0645 43.523V42.1344C36.6117 41.8648 37.195 41.6756 37.7963 41.5728C37.8125 41.6417 37.8334 41.7095 37.8587 41.7756C38.5389 41.6742 39.2303 41.6742 39.9104 41.7756C39.9104 41.7132 39.9104 41.643 39.9728 41.5728C40.5741 41.6756 41.1574 41.8648 41.7046 42.1344V43.523C39.8904 42.8196 37.8788 42.8196 36.0645 43.523Z" fill="#003242"/>
</g>
<g style="mix-blend-mode:multiply" opacity="0.5">
<path d="M41.7046 53.4692V56.535C41.1518 56.8009 40.5631 56.9849 39.9572 57.0811L39.8948 57.3229C39.2251 57.4243 38.544 57.4243 37.8743 57.3229L37.8041 57.0811C37.201 56.9837 36.6151 56.7998 36.0645 56.535V53.4692C37.9144 53.9451 39.8547 53.9451 41.7046 53.4692Z" fill="#003242"/>
</g>
<path d="M36.3297 83.5031C38.0193 83.1988 39.7497 83.1988 41.4393 83.5031C41.7051 83.5524 41.9451 83.6934 42.1176 83.9015C42.2901 84.1097 42.3841 84.3717 42.3832 84.642V92.599C42.3841 92.8694 42.2901 93.1314 42.1176 93.3395C41.9451 93.5477 41.7051 93.6887 41.4393 93.738C39.7497 94.0422 38.0193 94.0422 36.3297 93.738C36.0639 93.6887 35.8238 93.5477 35.6513 93.3395C35.4789 93.1314 35.3849 92.8694 35.3857 92.599V84.642C35.3849 84.3717 35.4789 84.1097 35.6513 83.9015C35.8238 83.6934 36.0639 83.5524 36.3297 83.5031Z" fill="#D6D6D6"/>
<path d="M36.0645 81.5219C36.9453 81.102 37.9088 80.884 38.8846 80.884C39.8604 80.884 40.8238 81.102 41.7046 81.5219V95.7197C40.8238 96.1396 39.8604 96.3576 38.8846 96.3576C37.9088 96.3576 36.9453 96.1396 36.0645 95.7197V81.5219Z" fill="#004358"/>
<path d="M37.8743 81.8415C38.5446 81.7479 39.2246 81.7479 39.8948 81.8415C39.9728 81.5763 40.0508 81.311 40.1366 81.0614C40.6767 81.1649 41.2012 81.338 41.6968 81.5763V81.3656C41.1496 81.096 40.5663 80.9068 39.965 80.804L39.731 81.5841C39.1632 81.5215 38.5903 81.5215 38.0226 81.5841L37.7885 80.804C37.1872 80.9068 36.6039 81.096 36.0567 81.3656V81.5763C36.5518 81.3366 37.0764 81.1635 37.6169 81.0614C37.7105 81.2798 37.7963 81.5451 37.8743 81.8415Z" fill="#003242"/>
<path d="M37.8743 83.1445C38.546 83.0743 39.2231 83.0743 39.8948 83.1445C39.9728 82.8792 40.0508 82.6062 40.1366 82.3644C40.671 82.4491 41.1943 82.593 41.6968 82.7934V82.5828C41.1407 82.357 40.5591 82.1998 39.965 82.1147L39.731 82.8948C39.1628 82.8403 38.5907 82.8403 38.0226 82.8948L37.7885 82.1147C37.1944 82.1998 36.6128 82.357 36.0567 82.5828V82.7934C36.5589 82.5921 37.0823 82.4481 37.6169 82.3644L37.8743 83.1445Z" fill="#003242"/>
<path d="M37.8743 84.4863C38.5464 84.4239 39.2228 84.4239 39.8948 84.4863C39.9728 84.2132 40.0508 83.9402 40.1366 83.7062C40.6652 83.774 41.1871 83.8862 41.6968 84.0416V83.8388C41.1331 83.6581 40.5531 83.5327 39.965 83.4644L39.731 84.2835C39.1622 84.2444 38.5914 84.2444 38.0226 84.2835L37.7885 83.4644C37.2005 83.5327 36.6205 83.6581 36.0567 83.8388V84.0416C36.5663 83.8856 37.0882 83.7734 37.6169 83.7062C37.7105 83.9402 37.7963 84.182 37.8743 84.4863Z" fill="#003242"/>
<path d="M37.8743 85.82C38.5473 85.781 39.2219 85.781 39.8948 85.82C39.9728 85.547 40.0508 85.2662 40.1366 85.0399C40.6612 85.0879 41.1823 85.1687 41.6968 85.2818V85.0711C41.1275 84.9354 40.5485 84.8441 39.965 84.7981L39.731 85.625C39.1619 85.5938 38.5916 85.5938 38.0226 85.625L37.7885 84.7981C37.205 84.8441 36.626 84.9354 36.0567 85.0711V85.2818C36.5711 85.1681 37.0922 85.0874 37.6169 85.0399C37.7105 85.2662 37.7963 85.547 37.8743 85.82Z" fill="#003242"/>
<path d="M37.8743 87.1542C38.5452 87.1542 39.2239 87.1542 39.8948 87.1542C39.9728 86.8812 40.0508 86.6003 40.1366 86.3273C40.6749 86.3273 41.1976 86.4131 41.6968 86.4833V86.2727C41.1229 86.1839 40.5449 86.124 39.965 86.0933L39.731 86.9202C39.1641 86.9202 38.5946 86.9202 38.0226 86.9202L37.7885 86.0933C37.2086 86.124 36.6306 86.1839 36.0567 86.2727V86.5223C36.556 86.4521 37.0864 86.3975 37.6169 86.3663L37.8743 87.1542Z" fill="#003242"/>
<path d="M37.8743 88.4882H39.8948C39.9728 88.2073 40.0508 87.9343 40.1366 87.6535C40.6567 87.6535 41.1767 87.6769 41.6968 87.7237V87.5131C41.1429 87.4741 40.5579 87.4428 39.965 87.4272L39.731 88.2619H38.0147L37.7807 87.4272C37.1878 87.4272 36.6028 87.4741 36.0489 87.5131V87.7237C36.5482 87.7237 37.0786 87.6691 37.6091 87.6535C37.7105 87.9343 37.7963 88.2073 37.8743 88.4882Z" fill="#003242"/>
<path d="M37.8743 89.83C38.5452 89.83 39.2239 89.83 39.8948 89.83C39.9728 89.5413 40.0508 89.2605 40.1366 88.9875H41.6968V88.7769H39.9728L39.7388 89.6194H38.0148L37.7807 88.7769H36.0645V88.9875H37.6247C37.7105 89.2605 37.7963 89.5413 37.8743 89.83Z" fill="#003242"/>
<path d="M37.8743 91.2029C38.5452 91.2029 39.2239 91.2029 39.8948 91.2029C39.9728 90.9142 40.0508 90.6334 40.1366 90.3526C40.6567 90.3526 41.1768 90.3136 41.6968 90.2355V90.0249C41.1429 90.0795 40.5579 90.1107 39.965 90.1341L39.731 90.9844C39.1641 90.9844 38.5946 90.9844 38.0226 90.9844L37.7885 90.1341C37.1956 90.1341 36.6106 90.0795 36.0567 90.0249V90.2355C36.556 90.2902 37.0864 90.3292 37.6169 90.3526C37.7105 90.5944 37.7963 90.8752 37.8743 91.2029Z" fill="#003242"/>
<path d="M37.8743 92.4976C38.5467 92.5522 39.2224 92.5522 39.8948 92.4976C39.9728 92.209 40.0508 91.9281 40.1366 91.6395C40.66 91.6005 41.1809 91.5328 41.6968 91.4367V91.2026C41.1239 91.3032 40.5457 91.371 39.965 91.4055L39.731 92.2558C39.1622 92.2948 38.5914 92.2948 38.0226 92.2558L37.7885 91.4055C37.2105 91.3707 36.6349 91.3029 36.0645 91.2026V91.4133C36.5804 91.5099 37.1013 91.5776 37.6247 91.6161C37.7105 91.9281 37.7963 92.209 37.8743 92.4976Z" fill="#003242"/>
<path d="M37.8743 93.8317C38.546 93.9019 39.2231 93.9019 39.8948 93.8317C39.9728 93.5431 40.0508 93.2544 40.1366 92.9736C40.663 92.9113 41.1843 92.8123 41.6968 92.6772V92.4666C41.1281 92.6101 40.5491 92.7093 39.965 92.763L39.731 93.6211C39.1625 93.6679 38.5911 93.6679 38.0226 93.6211L37.7885 92.763C37.2044 92.7093 36.6254 92.6101 36.0567 92.4666V92.6772C36.5691 92.813 37.0904 92.912 37.6169 92.9736C37.7105 93.2544 37.7963 93.5431 37.8743 93.8317Z" fill="#003242"/>
<path d="M37.8743 95.1734C38.5451 95.2591 39.224 95.2591 39.8948 95.1734C39.9728 94.8769 40.0508 94.5883 40.1366 94.2997C40.6679 94.2235 41.1905 94.0955 41.6968 93.9174V93.7068C41.1346 93.8963 40.5542 94.027 39.965 94.0968L39.731 94.9628C39.1632 95.0253 38.5903 95.0253 38.0226 94.9628L37.7885 94.0968C37.1993 94.027 36.6189 93.8963 36.0567 93.7068V93.9174C36.5628 94.0964 37.0854 94.2244 37.6169 94.2997C37.7105 94.5883 37.7963 94.8769 37.8743 95.1734Z" fill="#003242"/>
<path d="M37.8743 96.5074C38.544 96.6088 39.2251 96.6088 39.8948 96.5074C39.9728 96.211 40.0508 95.9224 40.1366 95.6259C40.6743 95.5324 41.1984 95.3725 41.6968 95.1501V94.9395C41.1428 95.1763 40.5608 95.3415 39.965 95.4309L39.731 96.3046C39.1637 96.3748 38.5899 96.3748 38.0226 96.3046L37.7885 95.4309C37.1927 95.3415 36.6107 95.1763 36.0567 94.9395V95.1501C36.5547 95.3736 37.0789 95.5335 37.6169 95.6259C37.7105 95.9224 37.7963 96.211 37.8743 96.5074Z" fill="#003242"/>
<g style="mix-blend-mode:multiply" opacity="0.5">
<path d="M36.0645 82.7078V81.3192C36.6117 81.0496 37.195 80.8604 37.7963 80.7576L37.8587 80.9604C38.5389 80.859 39.2303 80.859 39.9104 80.9604C39.9104 80.898 39.9104 80.8278 39.9728 80.7576C40.5741 80.8604 41.1574 81.0496 41.7046 81.3192V82.7078C39.8904 82.0044 37.8788 82.0044 36.0645 82.7078Z" fill="#003242"/>
</g>
<g style="mix-blend-mode:multiply" opacity="0.5">
<path d="M41.7046 92.6541V95.7199C41.1518 95.9857 40.5631 96.1697 39.9572 96.2659C39.941 96.3476 39.9202 96.4284 39.8948 96.5077C39.2251 96.6091 38.544 96.6091 37.8743 96.5077L37.8041 96.2659C37.201 96.1685 36.6151 95.9846 36.0645 95.7199V92.6541C37.9144 93.1299 39.8547 93.1299 41.7046 92.6541Z" fill="#003242"/>
</g>
<path d="M31.9456 27.8431C27.0232 27.9991 22.0227 27.9991 17.1237 27.8431C16.5933 27.8431 16.172 27.7105 16.172 27.5856V21.6491C16.172 21.5321 16.6011 21.4307 17.1237 21.4307H31.9456C32.4761 21.4307 32.9051 21.5321 32.9051 21.6491V27.5856C32.9051 27.7105 32.4761 27.8197 31.9456 27.8431Z" fill="#102030"/>
<path d="M32.2421 41.3935C27.1168 41.5651 21.9291 41.5651 16.8039 41.3935C16.2578 41.3935 15.8132 41.2609 15.8132 41.1361V34.9655C15.8132 34.8407 16.2656 34.7393 16.8117 34.7393H32.2343C32.7881 34.7393 33.2328 34.8407 33.2328 34.9655V41.1361C33.2328 41.2765 32.7881 41.3779 32.2421 41.3935Z" fill="#102030"/>
<path d="M29.3634 36.6738C29.2776 36.5256 29.3634 36.3462 29.5351 36.1668L29.6755 35.9483C29.5993 35.9245 29.5209 35.9089 29.4415 35.9015C29.2152 35.8625 28.989 35.8235 28.9422 35.6441C28.8954 35.4647 29.0514 35.3321 29.2152 35.1839C29.2913 35.1395 29.3643 35.0899 29.4337 35.0356C29.3628 35.0024 29.2898 34.9737 29.2152 34.9498C28.9968 34.8796 28.7862 34.8094 28.7628 34.63C28.7394 34.4506 28.911 34.3335 29.0904 34.2009C29.1609 34.1527 29.2286 34.1006 29.2932 34.0449C29.2234 34.005 29.1504 33.9711 29.0748 33.9435C28.872 33.8421 28.6692 33.7563 28.6614 33.5769C28.6536 33.3974 28.833 33.296 29.028 33.179L29.2386 33.0464L29.0358 32.9294C28.833 32.8202 28.6458 32.7109 28.6458 32.5393C28.6458 32.3677 28.8408 32.2663 29.0436 32.1649L29.2542 32.0479C29.1925 31.9967 29.1273 31.9498 29.0592 31.9074C28.8642 31.7904 28.6848 31.6734 28.6926 31.5018C28.7004 31.3302 28.9032 31.2366 29.1138 31.1507C29.1889 31.1191 29.2618 31.0826 29.3322 31.0415L29.1372 30.9011C28.95 30.7685 28.7784 30.6437 28.8018 30.4643C28.8252 30.2848 29.028 30.2224 29.2386 30.1366C29.3132 30.1127 29.3862 30.0841 29.4571 30.0508C29.4009 29.9947 29.341 29.9426 29.2776 29.8948C29.0982 29.7544 28.9266 29.6217 28.9578 29.4501C28.989 29.2785 29.1996 29.2161 29.4181 29.1459L29.6365 29.0679C29.5831 29.0094 29.5257 28.9547 29.4649 28.9041C29.2932 28.748 29.1294 28.6076 29.1762 28.4438C29.223 28.28 29.4259 28.2176 29.6521 28.163L29.8783 28.0928L29.7067 27.9133C29.5507 27.7573 29.4024 27.6091 29.4493 27.4375C29.4961 27.2658 29.7223 27.2346 29.9485 27.1956L30.1747 27.1488C30.1303 27.0802 30.0808 27.015 30.0265 26.9538C29.8783 26.7744 29.7457 26.6184 29.8081 26.4545C29.8705 26.2907 30.1045 26.2751 30.3386 26.2595C30.4295 26.2661 30.5207 26.2661 30.6116 26.2595L30.8534 26.4155C30.7832 26.5638 30.5882 26.5794 30.3542 26.595C30.2763 26.5873 30.198 26.5873 30.1201 26.595L30.2528 26.7666C30.401 26.9382 30.5414 27.102 30.479 27.2658C30.4166 27.4297 30.2294 27.4609 30.0031 27.4999C29.9237 27.5072 29.8452 27.5229 29.7691 27.5467L29.9251 27.7105C30.0811 27.8743 30.2372 28.0225 30.1904 28.1942C30.1435 28.3658 29.9485 28.4048 29.7223 28.4594C29.6454 28.4745 29.5698 28.4954 29.4961 28.5218C29.5467 28.5802 29.6014 28.635 29.6599 28.6856C29.8315 28.8338 29.9953 28.9743 29.9563 29.1459C29.9173 29.3175 29.7301 29.3721 29.5039 29.4423L29.2854 29.5125L29.4571 29.6686C29.6365 29.8012 29.8081 29.9338 29.7769 30.1054C29.7457 30.277 29.5507 30.3472 29.34 30.4252L29.1294 30.5189C29.187 30.5718 29.2497 30.6188 29.3166 30.6593C29.4961 30.7919 29.6677 30.9167 29.6521 31.0805C29.6365 31.2443 29.4415 31.338 29.2308 31.4316L29.0202 31.533L29.2152 31.6656C29.4103 31.7826 29.5897 31.8996 29.5819 32.0713C29.5741 32.2429 29.379 32.3365 29.1762 32.4379L28.9734 32.5471L29.1762 32.6719C29.3712 32.7812 29.5585 32.8826 29.5585 33.0464C29.5585 33.2102 29.379 33.335 29.184 33.4442L28.989 33.569L29.1996 33.6783C29.418 33.7719 29.5975 33.8577 29.6131 34.0215C29.6287 34.1853 29.4493 34.3179 29.2698 34.4506C29.2067 34.4929 29.1467 34.5399 29.0904 34.591C29.1613 34.6243 29.2343 34.6529 29.3088 34.6768C29.5273 34.747 29.7145 34.8094 29.7457 34.9732C29.7769 35.137 29.6287 35.2853 29.4571 35.4413L29.2932 35.6051H29.5351C29.7535 35.6441 29.9485 35.6753 30.0109 35.8235C30.0733 35.9718 29.9485 36.1512 29.8159 36.3384C29.762 36.4092 29.715 36.4849 29.6755 36.5646C29.6796 36.552 29.6796 36.5383 29.6755 36.5256L29.3634 36.6738Z" fill="#0092ED"/>
<path d="M19.5342 36.6738L19.2768 36.5256C19.2742 36.5385 19.2742 36.5517 19.2768 36.5646C19.2373 36.4849 19.1903 36.4091 19.1363 36.3383C19.0037 36.1511 18.8789 35.9795 18.9413 35.8235C19.0037 35.6675 19.191 35.6441 19.4172 35.6051L19.6512 35.5582L19.4952 35.4022C19.3236 35.254 19.1676 35.1058 19.1988 34.9342C19.23 34.7625 19.425 34.7079 19.6356 34.6377C19.7131 34.615 19.7888 34.5863 19.8618 34.5519C19.8055 34.5008 19.7456 34.4539 19.6824 34.4115C19.4952 34.2789 19.3236 34.1541 19.3392 33.9824C19.3548 33.8108 19.5342 33.7328 19.7448 33.6392L19.9633 33.53L19.7682 33.4052C19.5732 33.296 19.386 33.1867 19.386 33.0073C19.386 32.8279 19.5732 32.7421 19.7682 32.6329L19.9789 32.5081L19.7682 32.3988C19.5732 32.2974 19.3782 32.2038 19.3704 32.0322C19.3626 31.8606 19.542 31.7436 19.7292 31.6266L19.9242 31.4939L19.7136 31.3925C19.5108 31.2989 19.3158 31.2131 19.3002 31.0415C19.2846 30.8699 19.4562 30.7528 19.6356 30.6202C19.7012 30.5778 19.7638 30.5309 19.8228 30.4798L19.6044 30.3862C19.3938 30.3082 19.1988 30.238 19.1676 30.0664C19.1363 29.8947 19.308 29.7621 19.4874 29.6295L19.6668 29.4735L19.4484 29.4033C19.2222 29.3331 19.0271 29.2706 18.9959 29.1068C18.9647 28.943 19.1207 28.7948 19.2924 28.6466C19.3508 28.5959 19.4056 28.5412 19.4562 28.4828L19.23 28.4203C19.0037 28.3657 18.8087 28.3189 18.7619 28.1551C18.7151 27.9913 18.8711 27.8353 19.0271 27.6714L19.1832 27.5076C19.107 27.4838 19.0286 27.4681 18.9491 27.4608C18.7229 27.4608 18.5279 27.3828 18.4655 27.2268C18.4031 27.0708 18.5513 26.8992 18.6917 26.7275C18.7458 26.669 18.7954 26.6064 18.8399 26.5403H18.5903C18.364 26.5403 18.169 26.5403 18.0988 26.3609L18.364 26.2283C18.4549 26.2353 18.5462 26.2353 18.6371 26.2283C18.8711 26.2283 19.0895 26.2283 19.1598 26.4233C19.23 26.6183 19.0973 26.7431 18.9491 26.9226L18.7931 27.1176L19.0271 27.1644C19.2534 27.2034 19.4718 27.2424 19.5264 27.4062C19.581 27.57 19.425 27.7261 19.2612 27.8821L19.0973 28.0615L19.3236 28.1317C19.5498 28.1863 19.7604 28.2409 19.7994 28.4125C19.8384 28.5842 19.6824 28.7168 19.5108 28.8728C19.4481 28.9213 19.3906 28.9762 19.3392 29.0366L19.5576 29.1146C19.776 29.1848 19.9789 29.2473 20.0179 29.4189C20.0569 29.5905 19.8774 29.7231 19.698 29.8635C19.6331 29.9093 19.573 29.9616 19.5186 30.0196C19.5889 30.0541 19.662 30.0828 19.737 30.1054C19.9476 30.1912 20.1505 30.2614 20.1739 30.433C20.1973 30.6046 20.0179 30.7372 19.8306 30.8699L19.6434 31.0103C19.713 31.0528 19.786 31.0894 19.8618 31.1195C20.0647 31.2053 20.2675 31.2911 20.2753 31.4627C20.2831 31.6344 20.1115 31.7592 19.9164 31.8762C19.8471 31.9166 19.7818 31.9636 19.7214 32.0166L19.932 32.1336C20.1349 32.235 20.3221 32.3286 20.3299 32.5081C20.3377 32.6875 20.1427 32.7889 19.9398 32.8981C19.8687 32.9307 19.8008 32.9699 19.737 33.0151C19.8022 33.0629 19.87 33.1071 19.9398 33.1477C20.1349 33.2648 20.3221 33.374 20.3143 33.5456C20.3065 33.7172 20.1037 33.8108 19.893 33.9122L19.6824 34.0137C19.7292 34.0605 19.8228 34.1229 19.8774 34.1697C20.0647 34.3023 20.2363 34.4271 20.2129 34.5987C20.1895 34.7704 19.9789 34.8484 19.7604 34.9186C19.6854 34.9411 19.6123 34.9698 19.542 35.0044C19.5978 35.068 19.6578 35.128 19.7214 35.1838C19.8852 35.332 20.0413 35.4802 19.9945 35.6441C19.9477 35.8079 19.7214 35.8625 19.4874 35.9015C19.4105 35.9088 19.3346 35.9245 19.2612 35.9483C19.3013 36.0252 19.3483 36.0983 19.4016 36.1667C19.503 36.3461 19.6278 36.5256 19.5342 36.6738Z" fill="#E84646"/>
<path d="M28.3025 34.7392H20.6029L21.383 31.3613H27.5224L28.3025 34.7392Z" fill="#102030"/>
<path d="M28.3025 27.8508H20.6029L21.383 31.3613H27.5224L28.3025 27.8508Z" fill="#102030"/>
<path d="M27.5224 31.3614C27.5224 31.9693 27.3421 32.5636 27.0044 33.069C26.6666 33.5745 26.1866 33.9684 25.625 34.2011C25.0634 34.4337 24.4454 34.4946 23.8491 34.376C23.2529 34.2574 22.7053 33.9646 22.2754 33.5348C21.8456 33.1049 21.5528 32.5573 21.4342 31.9611C21.3156 31.3648 21.3765 30.7468 21.6091 30.1852C21.8418 29.6236 22.2357 29.1436 22.7412 28.8058C23.2466 28.4681 23.8409 28.2879 24.4488 28.2879C24.8527 28.2868 25.2528 28.3656 25.6262 28.5197C25.9996 28.6738 26.3388 28.9002 26.6244 29.1858C26.91 29.4714 27.1364 29.8106 27.2905 30.184C27.4446 30.5574 27.5234 30.9575 27.5224 31.3614Z" fill="#19334D"/>
<path d="M25.8219 31.3615C25.8234 31.6334 25.7442 31.8996 25.5943 32.1264C25.4443 32.3532 25.2305 32.5304 24.9797 32.6356C24.729 32.7407 24.4527 32.769 24.1858 32.7169C23.919 32.6648 23.6736 32.5346 23.4808 32.3429C23.288 32.1512 23.1565 31.9066 23.1029 31.6401C23.0493 31.3735 23.076 31.0971 23.1797 30.8457C23.2834 30.5944 23.4593 30.3795 23.6853 30.2283C23.9112 30.0771 24.177 29.9964 24.4489 29.9964C24.6288 29.9953 24.8072 30.0299 24.9737 30.098C25.1402 30.1662 25.2917 30.2666 25.4193 30.3934C25.5468 30.5203 25.6481 30.6712 25.7172 30.8373C25.7863 31.0034 25.8219 31.1816 25.8219 31.3615Z" fill="#FFD000"/>
<path d="M42.906 1.7801C42.906 1.93439 42.8603 2.08521 42.7746 2.2135C42.6888 2.34179 42.567 2.44178 42.4245 2.50082C42.2819 2.55987 42.1251 2.57531 41.9737 2.54521C41.8224 2.51511 41.6834 2.44081 41.5743 2.33171C41.4652 2.22261 41.3909 2.08362 41.3608 1.9323C41.3307 1.78097 41.3462 1.62412 41.4052 1.48157C41.4643 1.33903 41.5642 1.21719 41.6925 1.13147C41.8208 1.04575 41.9716 1 42.1259 1C42.3328 1 42.5312 1.08219 42.6775 1.22849C42.8238 1.37478 42.906 1.5732 42.906 1.7801Z" fill="#102030"/>
<path d="M40.4564 4.12048L40.082 3.80065L42.1648 1.39014L43.296 2.84112L42.9059 3.14536L42.1414 2.16244L40.4564 4.12048Z" fill="#102030"/>
<path d="M46.5959 2.98901H43.1011C42.85 2.99107 42.61 3.09226 42.4332 3.27052C42.2564 3.44878 42.1572 3.68967 42.1572 3.94074V5.20449H47.532V3.94074C47.5321 3.691 47.434 3.45126 47.2588 3.27322C47.0837 3.09518 46.8456 2.99311 46.5959 2.98901Z" fill="#00CAF6"/>
<path d="M6.88871 2.53659C7.30662 2.53659 7.64541 2.1978 7.64541 1.77989C7.64541 1.36198 7.30662 1.02319 6.88871 1.02319C6.4708 1.02319 6.13202 1.36198 6.13202 1.77989C6.13202 2.1978 6.4708 2.53659 6.88871 2.53659Z" fill="#102030"/>
<path d="M8.58938 4.12048L6.90436 2.16244L6.13987 3.14536L5.74982 2.84112L6.88096 1.39014L8.96382 3.80065L8.58938 4.12048Z" fill="#102030"/>
<path d="M2.45784 2.98901H5.94488C6.19594 2.99107 6.43601 3.09226 6.61281 3.27052C6.78961 3.44878 6.88881 3.68967 6.8888 3.94074V5.20449H1.51392V3.94074C1.51391 3.68967 1.61311 3.44878 1.7899 3.27052C1.9667 3.09226 2.20678 2.99107 2.45784 2.98901Z" fill="#00CAF6"/>
<path d="M40.1054 26.4079H8.90145C8.6511 26.4079 8.41101 26.3084 8.23399 26.1314C8.05698 25.9544 7.95753 25.7143 7.95753 25.4639V3.34813C7.9565 3.07812 8.05699 2.81757 8.23905 2.61817C8.42111 2.41877 8.67146 2.29507 8.94045 2.27159C19.3138 1.19235 29.7711 1.19235 40.1444 2.27159C40.4011 2.30339 40.6377 2.42653 40.811 2.61848C40.9844 2.81043 41.0828 3.05836 41.0883 3.31692V25.4327C41.0927 25.5626 41.0703 25.6921 41.0223 25.8129C40.9744 25.9337 40.902 26.0433 40.8097 26.1349C40.7175 26.2264 40.6073 26.2979 40.4861 26.3449C40.3649 26.3919 40.2353 26.4133 40.1054 26.4079Z" fill="#0A7992"/>
<path d="M37.7651 6.83521H11.2808C10.7595 6.83521 10.3369 7.25781 10.3369 7.77912V25.464C10.3369 25.9853 10.7595 26.4079 11.2808 26.4079H37.7651C38.2864 26.4079 38.7091 25.9853 38.7091 25.464V7.77912C38.7091 7.25781 38.2864 6.83521 37.7651 6.83521Z" fill="#00CAF6"/>
<path d="M39.4189 3.5274L38.8963 6.06272C38.8493 6.2856 38.7264 6.48524 38.5485 6.62753C38.3707 6.76981 38.1489 6.84591 37.9212 6.84282H10.8907C10.6624 6.84478 10.4403 6.76842 10.2614 6.62647C10.0826 6.48451 9.95775 6.28554 9.90781 6.06272L9.39294 3.5274C9.3684 3.38641 9.3757 3.24172 9.41432 3.10392C9.45294 2.96611 9.52189 2.8387 9.61613 2.731C9.71037 2.62329 9.82751 2.53803 9.95896 2.48147C10.0904 2.4249 10.2329 2.39845 10.3759 2.40406H38.4594C38.6005 2.40198 38.7403 2.43104 38.8688 2.48916C38.9974 2.54727 39.1115 2.63301 39.2031 2.74028C39.2947 2.84755 39.3616 2.9737 39.3989 3.10975C39.4362 3.2458 39.4431 3.3884 39.4189 3.5274Z" fill="#2CA3E8"/>
<g style="mix-blend-mode:overlay">
<path d="M26.4225 2.40406H10.3759C10.2329 2.39845 10.0904 2.4249 9.95896 2.48147C9.82751 2.53803 9.71037 2.62329 9.61613 2.731C9.52189 2.8387 9.45294 2.96611 9.41432 3.10392C9.3757 3.24172 9.3684 3.38641 9.39294 3.5274L9.90781 6.06272C9.95775 6.28554 10.0826 6.48451 10.2614 6.62647C10.4403 6.76842 10.6624 6.84478 10.8907 6.84282H21.9915L26.4225 2.40406Z" fill="#2CA3E8"/>
</g>
<g style="mix-blend-mode:overlay">
<path d="M37.1567 2.40405H31.6882L27.2572 6.82721H32.7257L37.1567 2.40405Z" fill="#2CA3E8"/>
</g>
<path d="M9.55675 24.3174H8.72205V25.2613H9.55675V24.3174Z" fill="#004358"/>
<path d="M7.99658 5.87573L9.29935 7.05369C9.38158 7.12592 9.44769 7.21464 9.49339 7.3141C9.53908 7.41356 9.56334 7.52151 9.56458 7.63096V17.5148C9.56458 17.7217 9.48239 17.9201 9.33609 18.0664C9.1898 18.2127 8.99138 18.2949 8.78448 18.2949C8.57759 18.2949 8.37917 18.2127 8.23287 18.0664C8.08657 17.9201 8.00438 17.7217 8.00438 17.5148L7.99658 5.87573Z" fill="#2CA3E8"/>
<path d="M40.316 24.3174H39.4813V25.2613H40.316V24.3174Z" fill="#004358"/>
<path d="M9.55675 22.6401H8.72205V23.5841H9.55675V22.6401Z" fill="#004358"/>
<path d="M40.316 22.6401H39.4813V23.5841H40.316V22.6401Z" fill="#004358"/>
<path d="M9.55675 20.9626H8.72205V21.9066H9.55675V20.9626Z" fill="#004358"/>
<path d="M40.316 20.9626H39.4813V21.9066H40.316V20.9626Z" fill="#004358"/>
<path d="M41.0493 5.87573L39.7465 7.05369C39.6643 7.12592 39.5982 7.21464 39.5525 7.3141C39.5068 7.41356 39.4825 7.52151 39.4813 7.63096V17.5148C39.4813 17.7217 39.5635 17.9201 39.7097 18.0664C39.856 18.2127 40.0545 18.2949 40.2614 18.2949C40.4683 18.2949 40.6667 18.2127 40.813 18.0664C40.9593 17.9201 41.0415 17.7217 41.0415 17.5148L41.0493 5.87573Z" fill="#2CA3E8"/>
<path d="M33.6541 19.3555H15.1658C14.7952 19.3555 14.4949 19.6558 14.4949 20.0264V20.0342C14.4949 20.4047 14.7952 20.705 15.1658 20.705H33.6541C34.0246 20.705 34.325 20.4047 34.325 20.0342V20.0264C34.325 19.6558 34.0246 19.3555 33.6541 19.3555Z" fill="#FFBA1A"/>
<path d="M31.2826 17.491H33.7087C33.8129 17.4889 33.9138 17.5278 33.9897 17.5993C34.0655 17.6708 34.1103 17.7691 34.1144 17.8733C34.1144 17.9788 34.0724 18.08 33.9978 18.1546C33.9232 18.2292 33.822 18.2711 33.7165 18.2711H31.2826C31.2297 18.2722 31.1771 18.2627 31.128 18.2431C31.0788 18.2236 31.034 18.1945 30.9962 18.1574C30.9585 18.1204 30.9284 18.0762 30.908 18.0274C30.8875 17.9786 30.8769 17.9262 30.877 17.8733C30.8829 17.7698 30.9283 17.6726 31.0037 17.6015C31.0792 17.5304 31.179 17.4909 31.2826 17.491Z" fill="#004358"/>
<path d="M27.5459 17.4915H29.9642C30.0718 17.4915 30.175 17.5342 30.2511 17.6103C30.3271 17.6863 30.3699 17.7895 30.3699 17.8971C30.3699 17.95 30.3593 18.0024 30.3389 18.0512C30.3184 18.1 30.2884 18.1442 30.2506 18.1812C30.2128 18.2183 30.168 18.2474 30.1189 18.2669C30.0697 18.2865 30.0171 18.296 29.9642 18.295H27.5459C27.493 18.296 27.4404 18.2865 27.3913 18.2669C27.3421 18.2474 27.2973 18.2183 27.2595 18.1812C27.2218 18.1442 27.1918 18.1 27.1713 18.0512C27.1508 18.0024 27.1402 17.95 27.1403 17.8971C27.1403 17.7895 27.183 17.6863 27.2591 17.6103C27.3351 17.5342 27.4383 17.4915 27.5459 17.4915Z" fill="#004358"/>
<path d="M31.2826 16.0089H33.7087C33.8142 16.0089 33.9154 16.0508 33.99 16.1254C34.0646 16.2 34.1066 16.3012 34.1066 16.4067C34.1076 16.4596 34.0981 16.5122 34.0785 16.5614C34.059 16.6105 34.0299 16.6553 33.9928 16.6931C33.9558 16.7309 33.9116 16.7609 33.8628 16.7814C33.814 16.8018 33.7616 16.8124 33.7087 16.8124H31.2826C31.175 16.8124 31.0718 16.7696 30.9958 16.6936C30.9197 16.6175 30.877 16.5143 30.877 16.4067C30.8769 16.3538 30.8875 16.3014 30.908 16.2526C30.9284 16.2039 30.9585 16.1596 30.9962 16.1226C31.034 16.0856 31.0788 16.0564 31.128 16.0369C31.1771 16.0174 31.2297 16.0078 31.2826 16.0089Z" fill="#004358"/>
<path d="M27.5459 16.0089H29.9642C30.0171 16.0078 30.0697 16.0174 30.1189 16.0369C30.168 16.0564 30.2128 16.0856 30.2506 16.1226C30.2884 16.1596 30.3184 16.2039 30.3389 16.2526C30.3593 16.3014 30.3699 16.3538 30.3699 16.4067C30.3699 16.5143 30.3271 16.6175 30.2511 16.6936C30.175 16.7696 30.0718 16.8124 29.9642 16.8124H27.5459C27.4383 16.8124 27.3351 16.7696 27.2591 16.6936C27.183 16.6175 27.1403 16.5143 27.1403 16.4067C27.1402 16.3538 27.1508 16.3014 27.1713 16.2526C27.1918 16.2039 27.2218 16.1596 27.2595 16.1226C27.2973 16.0856 27.3421 16.0564 27.3913 16.0369C27.4404 16.0174 27.493 16.0078 27.5459 16.0089Z" fill="#004358"/>
<path d="M31.2826 14.5269H33.7087C33.8142 14.5269 33.9154 14.5688 33.99 14.6435C34.0646 14.7181 34.1066 14.8193 34.1066 14.9248C34.1076 14.9777 34.0981 15.0303 34.0785 15.0794C34.059 15.1286 34.0299 15.1734 33.9928 15.2112C33.9558 15.2489 33.9116 15.2789 33.8628 15.2994C33.814 15.3199 33.7616 15.3304 33.7087 15.3304H31.2826C31.2293 15.3304 31.1766 15.3199 31.1274 15.2996C31.0782 15.2792 31.0334 15.2493 30.9958 15.2116C30.9581 15.1739 30.9282 15.1292 30.9078 15.08C30.8874 15.0308 30.877 14.978 30.877 14.9248C30.8769 14.8719 30.8875 14.8195 30.908 14.7707C30.9284 14.7219 30.9585 14.6777 30.9962 14.6407C31.034 14.6036 31.0788 14.5745 31.128 14.5549C31.1771 14.5354 31.2297 14.5259 31.2826 14.5269Z" fill="#004358"/>
<path d="M27.5459 14.5269H29.9642C30.0171 14.5259 30.0697 14.5354 30.1189 14.5549C30.168 14.5745 30.2128 14.6036 30.2506 14.6407C30.2884 14.6777 30.3184 14.7219 30.3389 14.7707C30.3593 14.8195 30.3699 14.8719 30.3699 14.9248C30.3699 14.978 30.3594 15.0308 30.339 15.08C30.3186 15.1292 30.2887 15.1739 30.2511 15.2116C30.2134 15.2493 30.1687 15.2792 30.1195 15.2996C30.0702 15.3199 30.0175 15.3304 29.9642 15.3304H27.5459C27.4926 15.3304 27.4399 15.3199 27.3907 15.2996C27.3415 15.2792 27.2967 15.2493 27.2591 15.2116C27.2214 15.1739 27.1915 15.1292 27.1711 15.08C27.1508 15.0308 27.1403 14.978 27.1403 14.9248C27.1402 14.8719 27.1508 14.8195 27.1713 14.7707C27.1918 14.7219 27.2218 14.6777 27.2595 14.6407C27.2973 14.6036 27.3421 14.5745 27.3913 14.5549C27.4404 14.5354 27.493 14.5259 27.5459 14.5269Z" fill="#004358"/>
<path d="M17.5293 17.4915H15.1032C15.0499 17.4915 14.9971 17.5019 14.9479 17.5223C14.8987 17.5427 14.854 17.5726 14.8163 17.6103C14.7787 17.6479 14.7488 17.6927 14.7284 17.7419C14.708 17.7911 14.6975 17.8438 14.6975 17.8971C14.6996 18.0033 14.7432 18.1045 14.819 18.1789C14.8949 18.2533 14.9969 18.295 15.1032 18.295H17.5293C17.6355 18.295 17.7375 18.2533 17.8134 18.1789C17.8892 18.1045 17.9329 18.0033 17.9349 17.8971C17.9349 17.7895 17.8922 17.6863 17.8161 17.6103C17.74 17.5342 17.6369 17.4915 17.5293 17.4915Z" fill="#004358"/>
<path d="M21.266 17.4915H18.8477C18.7944 17.4915 18.7416 17.5019 18.6924 17.5223C18.6432 17.5427 18.5985 17.5726 18.5608 17.6103C18.5232 17.6479 18.4933 17.6927 18.4729 17.7419C18.4525 17.7911 18.442 17.8438 18.442 17.8971C18.442 17.95 18.4526 18.0024 18.473 18.0512C18.4935 18.1 18.5235 18.1442 18.5613 18.1812C18.5991 18.2183 18.6438 18.2474 18.693 18.2669C18.7422 18.2865 18.7948 18.296 18.8477 18.295H21.266C21.3189 18.296 21.3714 18.2865 21.4206 18.2669C21.4698 18.2474 21.5146 18.2183 21.5524 18.1812C21.5901 18.1442 21.6201 18.1 21.6406 18.0512C21.6611 18.0024 21.6716 17.95 21.6716 17.8971C21.6716 17.8438 21.6611 17.7911 21.6407 17.7419C21.6204 17.6927 21.5905 17.6479 21.5528 17.6103C21.5151 17.5726 21.4704 17.5427 21.4212 17.5223C21.372 17.5019 21.3192 17.4915 21.266 17.4915Z" fill="#004358"/>
<path d="M17.5293 16.0093H15.1032C14.9969 16.0093 14.8949 16.0509 14.819 16.1253C14.7432 16.1997 14.6996 16.3009 14.6975 16.4071C14.6975 16.4604 14.708 16.5132 14.7284 16.5624C14.7488 16.6116 14.7787 16.6563 14.8163 16.694C14.854 16.7316 14.8987 16.7615 14.9479 16.7819C14.9971 16.8023 15.0499 16.8128 15.1032 16.8128H17.5293C17.6369 16.8128 17.74 16.77 17.8161 16.694C17.8922 16.6179 17.9349 16.5147 17.9349 16.4071C17.9329 16.3009 17.8892 16.1997 17.8134 16.1253C17.7375 16.0509 17.6355 16.0093 17.5293 16.0093Z" fill="#004358"/>
<path d="M21.266 16.0089H18.8477C18.7948 16.0078 18.7422 16.0174 18.693 16.0369C18.6438 16.0564 18.5991 16.0856 18.5613 16.1226C18.5235 16.1596 18.4935 16.2039 18.473 16.2526C18.4526 16.3014 18.442 16.3538 18.442 16.4067C18.442 16.46 18.4525 16.5127 18.4729 16.562C18.4933 16.6112 18.5232 16.6559 18.5608 16.6936C18.5985 16.7312 18.6432 16.7611 18.6924 16.7815C18.7416 16.8019 18.7944 16.8124 18.8477 16.8124H21.266C21.3192 16.8124 21.372 16.8019 21.4212 16.7815C21.4704 16.7611 21.5151 16.7312 21.5528 16.6936C21.5905 16.6559 21.6204 16.6112 21.6407 16.562C21.6611 16.5127 21.6716 16.46 21.6716 16.4067C21.6716 16.3538 21.6611 16.3014 21.6406 16.2526C21.6201 16.2039 21.5901 16.1596 21.5524 16.1226C21.5146 16.0856 21.4698 16.0564 21.4206 16.0369C21.3714 16.0174 21.3189 16.0078 21.266 16.0089Z" fill="#004358"/>
<path d="M17.5293 14.5269H15.1032C14.9969 14.5268 14.8949 14.5685 14.819 14.6429C14.7432 14.7173 14.6996 14.8185 14.6975 14.9247C14.6975 14.978 14.708 15.0307 14.7284 15.0799C14.7488 15.1291 14.7787 15.1739 14.8163 15.2115C14.854 15.2492 14.8987 15.2791 14.9479 15.2995C14.9971 15.3199 15.0499 15.3304 15.1032 15.3304H17.5293C17.5825 15.3304 17.6353 15.3199 17.6845 15.2995C17.7337 15.2791 17.7784 15.2492 17.8161 15.2115C17.8538 15.1739 17.8837 15.1291 17.904 15.0799C17.9244 15.0307 17.9349 14.978 17.9349 14.9247C17.9329 14.8185 17.8892 14.7173 17.8134 14.6429C17.7375 14.5685 17.6355 14.5268 17.5293 14.5269Z" fill="#004358"/>
<path d="M21.266 14.5269H18.8477C18.7948 14.5259 18.7422 14.5354 18.693 14.5549C18.6438 14.5745 18.5991 14.6036 18.5613 14.6407C18.5235 14.6777 18.4935 14.7219 18.473 14.7707C18.4526 14.8195 18.442 14.8719 18.442 14.9248C18.442 14.978 18.4525 15.0308 18.4729 15.08C18.4933 15.1292 18.5232 15.1739 18.5608 15.2116C18.5985 15.2493 18.6432 15.2792 18.6924 15.2996C18.7416 15.3199 18.7944 15.3304 18.8477 15.3304H21.266C21.3192 15.3304 21.372 15.3199 21.4212 15.2996C21.4704 15.2792 21.5151 15.2493 21.5528 15.2116C21.5905 15.1739 21.6204 15.1292 21.6407 15.08C21.6611 15.0308 21.6716 14.978 21.6716 14.9248C21.6716 14.8719 21.6611 14.8195 21.6406 14.7707C21.6201 14.7219 21.5901 14.6777 21.5524 14.6407C21.5146 14.6036 21.4698 14.5745 21.4206 14.5549C21.3714 14.5354 21.3189 14.5259 21.266 14.5269Z" fill="#004358"/>
<g style="mix-blend-mode:multiply" opacity="0.3">
<path d="M23.6297 26.1116C23.3777 25.8631 23.0698 25.6789 22.7317 25.5743C22.3937 25.4698 22.0354 25.448 21.6872 25.5109L18.9959 22.8196L17.2328 24.5826L19.9242 27.274C19.8572 27.6451 19.8871 28.0273 20.011 28.3835C20.1349 28.7398 20.3486 29.058 20.6315 29.3075C20.9144 29.5569 21.2568 29.7292 21.6258 29.8076C21.9947 29.886 22.3776 29.8679 22.7375 29.755C23.0974 29.6421 23.422 29.4383 23.6801 29.1632C23.9381 28.8881 24.1209 28.5511 24.2106 28.1848C24.3003 27.8184 24.2939 27.4351 24.1922 27.072C24.0904 26.7088 23.8967 26.378 23.6297 26.1116Z" fill="#583200"/>
</g>
<path d="M18.1145 25.9708C19.3682 25.9708 20.3846 24.9545 20.3846 23.7008C20.3846 22.447 19.3682 21.4307 18.1145 21.4307C16.8608 21.4307 15.8444 22.447 15.8444 23.7008C15.8444 24.9545 16.8608 25.9708 18.1145 25.9708Z" fill="#004358"/>
<path d="M19.3625 23.7008C19.3625 23.9477 19.2893 24.189 19.1522 24.3942C19.015 24.5995 18.8201 24.7595 18.592 24.854C18.364 24.9484 18.113 24.9731 17.8709 24.925C17.6287 24.8768 17.4063 24.7579 17.2318 24.5834C17.0572 24.4088 16.9384 24.1864 16.8902 23.9443C16.842 23.7022 16.8668 23.4512 16.9612 23.2232C17.0557 22.9951 17.2157 22.8001 17.4209 22.663C17.6262 22.5258 17.8675 22.4526 18.1144 22.4526C18.2783 22.4526 18.4406 22.4849 18.592 22.5476C18.7435 22.6104 18.8811 22.7023 18.997 22.8182C19.1129 22.9341 19.2048 23.0717 19.2675 23.2232C19.3302 23.3746 19.3625 23.5369 19.3625 23.7008Z" fill="#668E9B"/>
<path d="M38.7091 36.9546H10.3369V99.0739H38.7091V36.9546Z" fill="#0A7992"/>
<path d="M39.7231 36.9546H9.31488V39.0296H39.7231V36.9546Z" fill="#0A7992"/>
<path d="M37.8666 37.3916H11.1794V38.6008H37.8666V37.3916Z" fill="#00CAF6"/>
<path d="M39.7231 97.8179H9.31488V99.8929H39.7231V97.8179Z" fill="#0A7992"/>
<path d="M37.8666 98.2549H11.1794V99.464H37.8666V98.2549Z" fill="#00CAF6"/>
<path d="M18.7463 39.2949H11.8737V97.1237H18.7463V39.2949Z" fill="#C48D5C"/>
<g style="mix-blend-mode:multiply" opacity="0.3">
<path d="M18.2703 40.6601C18.2703 40.2778 18.2703 39.9502 18.2703 39.2949H16.8194C16.8194 46.0115 16.8194 54.8969 16.8194 66.1069C16.8194 64.5467 16.8194 62.9865 16.8974 61.3639C16.8272 78.9395 16.5619 69.8514 16.4683 97.1236H17.0144C16.9988 87.4426 16.952 74.8206 16.952 60.693C17.0846 56.2074 17.3264 51.5892 17.3264 46.6512C17.3264 66.0913 17.7477 13.3254 17.7945 73.042C17.6541 81.2408 17.42 111.649 17.42 70.0464C17.42 81.2642 17.42 90.1963 17.42 97.108H17.9271C17.9271 92.17 17.9271 86.7015 17.9271 80.6557C17.9271 71.1073 17.9271 69.8592 17.8491 72.1604C17.9193 39.4587 18.3094 77.4573 18.3094 87.6298C18.3094 66.4735 18.6214 88.3553 18.7384 39.2637H18.3094L18.2703 40.6601Z" fill="#C9A064"/>
</g>
<g style="mix-blend-mode:multiply" opacity="0.3">
<path d="M18.5123 97.1239H18.6918C18.6293 92.3029 18.5669 92.3809 18.5123 97.1239Z" fill="#C9A064"/>
</g>
<g style="mix-blend-mode:multiply" opacity="0.3">
<path d="M16.0627 97.1236H16.2499C16.1719 93.0593 16.1095 91.6239 16.0627 97.1236Z" fill="#C9A064"/>
</g>
<g style="mix-blend-mode:multiply" opacity="0.3">
<path d="M12.2169 94.3232C12.2169 65.8027 12.0141 66.8793 11.8737 70.8578V97.0925H12.5601C12.4197 77.668 12.2169 79.8913 12.2169 94.3232Z" fill="#C9A064"/>
</g>
<g style="mix-blend-mode:multiply" opacity="0.3">
<path d="M16.3826 78.4637C16.3826 62.0348 16.3826 48.7497 16.4606 39.2949H15.9223C15.9925 61.949 16.3826 96.4918 16.3826 78.4637Z" fill="#C9A064"/>
</g>
<g style="mix-blend-mode:multiply" opacity="0.3">
<path d="M15.9066 39.2949H15.4464C15.5088 62.1128 15.8598 70.14 15.9066 39.2949Z" fill="#C9A064"/>
</g>
<g style="mix-blend-mode:multiply" opacity="0.3">
<path d="M15.1344 97.1238H15.5244C15.4932 59.8741 15.2514 78.5653 15.1344 97.1238Z" fill="#C9A064"/>
</g>
<g style="mix-blend-mode:multiply" opacity="0.3">
<path d="M15.4309 39.2949H15.0096C15.1267 76.7943 15.3919 82.1692 15.4309 39.2949Z" fill="#C9A064"/>
</g>
<g style="mix-blend-mode:multiply" opacity="0.3">
<path d="M14.5417 81.7401C14.5963 71.2868 14.6821 54.6395 14.7601 39.2949H13.98C14.019 50.4893 14.0502 65.4204 14.0502 84.408C13.9098 104.691 13.668 89.19 13.668 40.1764C13.668 47.3767 13.3793 67.7451 13.2545 57.7131C13.3247 50.1929 13.4183 43.4919 13.4807 39.2949H12.607C12.607 41.1724 12.607 43.2344 12.607 45.4811V39.2949H12.139C12.1858 89.6659 12.607 3.20755 12.607 93.4806C12.607 40.7693 13.0829 48.8745 13.0829 83.1989C13.0829 77.59 13.0829 71.3258 13.1609 65.2566C13.1609 79.3452 13.1219 89.5177 13.0829 97.1549H15.0175C14.9005 80.2189 14.5885 89.6191 14.5885 76.1468C14.6119 80.1955 14.5651 81.8415 14.5417 81.7401ZM14.019 84.408C14.019 75.944 14.019 65.7325 14.1048 57.1904C14.0892 69.3599 14.058 78.4481 14.019 84.408ZM14.1594 49.4128C14.2842 33.92 14.4637 31.9698 14.4871 79.8367C14.3857 74.298 14.2374 58.2825 14.1594 49.4128Z" fill="#C9A064"/>
</g>
<g style="mix-blend-mode:multiply">
<path d="M18.7541 39.2949H15.9223V97.1237H18.7541V39.2949Z" fill="#C48D5C"/>
</g>
<g style="mix-blend-mode:multiply">
<path d="M18.7463 39.2949H17.3344V97.1237H18.7463V39.2949Z" fill="#C48D5C"/>
</g>
<g style="mix-blend-mode:overlay" opacity="0.5">
<path d="M14.4089 39.2949H12.9969V97.1237H14.4089V39.2949Z" fill="#FFB778"/>
</g>
<path d="M37.3127 39.2949H30.4401V97.1237H37.3127V39.2949Z" fill="#C48D5C"/>
<g style="mix-blend-mode:multiply" opacity="0.3">
<path d="M36.8289 40.6601C36.8289 40.2778 36.8289 39.9502 36.8289 39.2949H35.378C35.378 46.0115 35.378 54.8969 35.378 66.1069C35.378 64.5467 35.378 62.9865 35.4482 61.3639C35.378 78.9395 35.1127 69.8514 35.0269 97.1236H35.5652C35.5184 87.4426 35.4794 74.7816 35.4716 60.693C35.612 56.2074 35.846 51.5892 35.846 46.6512C35.846 66.0913 36.2673 13.3254 36.3141 73.042C36.1737 81.2408 35.9396 111.649 35.9396 70.0464C35.9396 81.2642 35.9396 90.1963 35.9396 97.108H36.4545C36.4545 92.17 36.4545 86.7015 36.4545 80.6557C36.4545 71.1073 36.4545 69.8592 36.3765 72.1604C36.4545 39.4587 36.8367 77.4573 36.8367 87.6298C36.8367 66.4735 37.1488 88.3553 37.2658 39.2637H36.8367L36.8289 40.6601Z" fill="#C9A064"/>
</g>
<g style="mix-blend-mode:multiply" opacity="0.3">
<path d="M37.0709 97.1239H37.2347C37.2347 92.3029 37.1255 92.3809 37.0709 97.1239Z" fill="#C9A064"/>
</g>
<g style="mix-blend-mode:multiply" opacity="0.3">
<path d="M34.6213 97.1236H34.8085C34.7383 93.0593 34.6759 91.6239 34.6213 97.1236Z" fill="#C9A064"/>
</g>
<g style="mix-blend-mode:multiply" opacity="0.3">
<path d="M30.7833 94.3232C30.7833 65.8027 30.5805 66.8793 30.4401 70.8578V97.0925H31.1188C30.9939 77.668 30.7833 79.8913 30.7833 94.3232Z" fill="#C9A064"/>
</g>
<g style="mix-blend-mode:multiply" opacity="0.3">
<path d="M34.9412 78.4637C34.9412 62.0348 34.9412 48.7497 35.0192 39.2949H34.4809C34.5589 61.949 34.9412 96.4918 34.9412 78.4637Z" fill="#C9A064"/>
</g>
<g style="mix-blend-mode:multiply" opacity="0.3">
<path d="M34.4652 39.2949H34.0049C34.0674 62.1128 34.4184 70.14 34.4652 39.2949Z" fill="#C9A064"/>
</g>
<g style="mix-blend-mode:multiply" opacity="0.3">
<path d="M33.693 97.1238H34.1142C34.0518 59.8741 33.8178 78.5653 33.693 97.1238Z" fill="#C9A064"/>
</g>
<g style="mix-blend-mode:multiply" opacity="0.3">
<path d="M33.9973 39.2949H33.576C33.6931 76.7943 33.9661 82.1692 33.9973 39.2949Z" fill="#C9A064"/>
</g>
<g style="mix-blend-mode:multiply" opacity="0.3">
<path d="M33.1 81.7401C33.1546 71.2868 33.2404 54.6395 33.3185 39.2949H32.5384C32.554 50.4893 32.554 65.4594 32.554 84.408C32.4213 104.691 32.1717 89.19 32.1717 40.1764C32.1717 47.3767 31.8831 67.7451 31.7583 57.7131C31.8363 50.1929 31.9221 43.4919 31.9923 39.2949H31.1654V45.4811C31.1654 43.3592 31.1654 41.2998 31.1654 39.2949H30.6973C30.7441 89.6659 31.1732 3.20755 31.1732 93.4806C31.1732 40.7693 31.6412 48.8745 31.6412 83.1989C31.6412 77.59 31.6412 71.3258 31.7193 65.2566C31.7193 79.3452 31.7193 89.5177 31.6412 97.1549H33.5681C33.4511 80.2189 33.1468 89.6191 33.1468 76.1468C33.1468 80.1955 33.1312 81.8415 33.1 81.7401ZM32.554 84.408C32.554 75.944 32.554 65.7325 32.6398 57.1904C32.6476 69.3599 32.6164 78.4481 32.554 84.408ZM32.6944 49.4128C32.827 33.92 32.9986 31.9698 33.022 79.8367C32.9518 74.298 32.7958 58.2825 32.7178 49.4128H32.6944Z" fill="#C9A064"/>
</g>
<g style="mix-blend-mode:multiply">
<path d="M37.3127 39.2949H34.4809V97.1237H37.3127V39.2949Z" fill="#C48D5C"/>
</g>
<g style="mix-blend-mode:multiply">
<path d="M37.3127 39.2949H36.6887V97.1237H37.3127V39.2949Z" fill="#C48D5C"/>
</g>
<g style="mix-blend-mode:overlay" opacity="0.5">
<path d="M34.0829 39.2949H33.2092V97.1237H34.0829V39.2949Z" fill="#FFB778"/>
</g>
<path d="M25.4941 39.2949H18.0286V97.1237H25.4941V39.2949Z" fill="#C48D5C"/>
<g style="mix-blend-mode:multiply" opacity="0.3">
<path d="M21.7653 97.1238H22.2411V39.7163C22.2411 91.078 21.7653 70.6238 21.7653 91.0702V97.1238Z" fill="#C9A064"/>
</g>
<g style="mix-blend-mode:multiply" opacity="0.3">
<path d="M20.33 97.1239C20.33 95.4233 20.33 93.2234 20.33 90.5632C20.3456 92.5291 20.3456 94.768 20.33 97.1239Z" fill="#C9A064"/>
</g>
<g style="mix-blend-mode:multiply" opacity="0.3">
<path d="M20.8527 91.8427C20.8527 61.8401 20.6654 85.6565 20.525 97.124H21.3831C21.3831 90.5555 21.3285 83.441 21.3285 76.974C21.2973 60.9976 20.8527 97.2254 20.8527 91.8427Z" fill="#C9A064"/>
</g>
<g style="mix-blend-mode:multiply" opacity="0.3">
<path d="M18.403 97.1237H18.5512C18.4966 91.7255 18.4576 79.6963 18.4576 55.0686C18.4576 73.6506 18.4342 87.4583 18.403 97.1237Z" fill="#C9A064"/>
</g>
<g style="mix-blend-mode:multiply" opacity="0.3">
<path d="M21.3752 39.2949C21.5 51.4957 21.6482 74.2043 21.6716 97.1237C21.6716 66.77 21.7262 48.8121 21.7886 39.2949H21.3752Z" fill="#C9A064"/>
</g>
<g style="mix-blend-mode:multiply" opacity="0.3">
<path d="M20.6264 39.2949H19.1988C19.2456 47.4548 19.2925 56.5975 19.3081 66.0367C19.1832 75.0157 18.9882 78.6743 18.9414 97.1237H19.5265C19.5265 92.3729 19.4719 86.5767 19.4485 79.7743C19.5889 76.2404 19.7839 62.0426 19.7839 47.7902C19.7839 70.1946 20.2598 52.6502 20.2598 52.5332C20.2598 86.8341 20.486 68.5798 20.6264 39.2949Z" fill="#C9A064"/>
</g>
<g style="mix-blend-mode:multiply" opacity="0.3">
<path d="M19.8697 97.1239V90.5789C19.8749 92.9504 19.8749 95.132 19.8697 97.1239Z" fill="#C9A064"/>
</g>
<g style="mix-blend-mode:multiply" opacity="0.3">
<path d="M18.0286 39.2949V46.9945C18.169 47.9072 18.364 34.0293 18.364 69.9996C18.364 44.0457 18.5122 43.5465 18.6448 39.2949H18.0286Z" fill="#C9A064"/>
</g>
<g style="mix-blend-mode:multiply" opacity="0.3">
<path d="M22.1476 39.2949H22.0852C22.1242 44.4046 22.1476 51.051 22.1476 57.479V39.2949Z" fill="#C9A064"/>
</g>
<g style="mix-blend-mode:multiply" opacity="0.3">
<path d="M21.1646 39.2949H20.7902C20.8916 61.1143 21.0866 47.7512 21.1646 39.2949Z" fill="#C9A064"/>
</g>
<g style="mix-blend-mode:multiply" opacity="0.3">
<path d="M25.5332 97.1239V47.9777C25.4006 57.6041 25.1744 65.1867 25.1588 41.6589C25.1588 40.8788 25.1588 40.0987 25.1588 39.3186H23.973C24.0666 67.4802 24.4255 0.836311 24.4255 83.9247C24.4255 31.2134 24.8935 39.3264 24.8935 73.6508C24.8935 63.5563 25.0028 51.3789 25.112 41.7603C25.112 69.5786 25.0652 86.226 25.0106 97.1473L25.5332 97.1239Z" fill="#C9A064"/>
</g>
<g style="mix-blend-mode:multiply" opacity="0.3">
<path d="M23.1149 39.2949H23.0291C23.0525 42.0019 23.0759 41.5806 23.1149 39.2949Z" fill="#C9A064"/>
</g>
<g style="mix-blend-mode:multiply" opacity="0.3">
<path d="M24.1679 91.1326C24.1679 47.7045 23.6999 72.9017 23.6999 72.4648C23.6999 102.756 23.4191 76.3653 23.2864 97.1237H24.5268C24.3864 74.2434 24.1679 75.9129 24.1679 91.1326Z" fill="#C9A064"/>
</g>
<g style="mix-blend-mode:multiply" opacity="0.3">
<path d="M22.9978 39.2949H22.7794C22.873 50.2787 22.9666 55.5288 22.9978 39.2949Z" fill="#C9A064"/>
</g>
<g style="mix-blend-mode:multiply" opacity="0.3">
<path d="M22.2803 93.3248V97.1238H22.6001C22.4597 83.2927 22.2803 77.5902 22.2803 93.3248Z" fill="#C9A064"/>
</g>
<g style="mix-blend-mode:multiply">
<path d="M25.494 39.2949H22.6623V97.1237H25.494V39.2949Z" fill="#C48D5C"/>
</g>
<g style="mix-blend-mode:multiply">
<path d="M25.4941 39.2949H24.0822V97.1237H25.4941V39.2949Z" fill="#C48D5C"/>
</g>
<g style="mix-blend-mode:overlay" opacity="0.5">
<path d="M21.1724 39.2949H19.4327V97.1237H21.1724V39.2949Z" fill="#FFB778"/>
</g>
<path d="M32.3668 39.2949H24.8388V97.1237H32.3668V39.2949Z" fill="#C48D5C"/>
<g style="mix-blend-mode:multiply" opacity="0.3">
<path d="M26.9452 81.116C26.9452 -7.86986 27.3742 81.116 27.4132 39.2949H26.5239C26.6487 81.5373 26.9452 91.1013 26.9452 81.116Z" fill="#C9A064"/>
</g>
<g style="mix-blend-mode:multiply" opacity="0.3">
<path d="M31.033 39.2949H30.8613C30.9159 42.7664 30.9939 41.877 31.033 39.2949Z" fill="#C9A064"/>
</g>
<g style="mix-blend-mode:multiply" opacity="0.3">
<path d="M28.0295 97.1236H28.1621C28.1621 90.0559 28.1075 80.7415 28.1075 69.7188C28.1075 80.0473 28.0763 89.3148 28.0295 97.1236Z" fill="#C9A064"/>
</g>
<g style="mix-blend-mode:multiply" opacity="0.3">
<path d="M28.365 60.42C28.365 49.756 28.365 43.3904 28.4274 39.2949H28.3104C28.3416 42.7586 28.365 49.1398 28.365 60.42Z" fill="#C9A064"/>
</g>
<g style="mix-blend-mode:multiply" opacity="0.3">
<path d="M28.5131 97.1239H28.7237C28.6457 94.5886 28.5833 83.8622 28.5833 51.8782C28.5833 72.5976 28.5521 87.3961 28.5131 97.1239Z" fill="#C9A064"/>
</g>
<g style="mix-blend-mode:multiply" opacity="0.3">
<path d="M28.8252 97.1239H29.0436C29.0202 89.1903 28.9266 95.0567 28.8252 97.1239Z" fill="#C9A064"/>
</g>
<g style="mix-blend-mode:multiply" opacity="0.3">
<path d="M27.8734 39.2949H27.4366C27.4678 65.124 27.7642 75.6397 27.8734 39.2949Z" fill="#C9A064"/>
</g>
<g style="mix-blend-mode:multiply" opacity="0.3">
<path d="M26.2197 66.4971C26.2197 78.2922 26.2197 88.3944 26.1417 97.1238H26.602C26.4694 81.4438 26.2197 108.771 26.2197 66.4971Z" fill="#C9A064"/>
</g>
<g style="mix-blend-mode:multiply" opacity="0.3">
<path d="M26.8906 97.124H27.6083C27.499 69.3915 27.1636 95.9694 27.1636 54.2185C27.1636 47.8373 27.0154 72.5352 26.8906 97.124Z" fill="#C9A064"/>
</g>
<g style="mix-blend-mode:multiply" opacity="0.3">
<path d="M29.9875 97.124C29.9875 94.2376 29.9875 90.9924 29.9875 87.3572C29.9927 91.0861 29.9927 94.3417 29.9875 97.124Z" fill="#C9A064"/>
</g>
<g style="mix-blend-mode:multiply" opacity="0.3">
<path d="M30.9471 88.6207C30.9471 55.3495 30.713 88.2618 30.5726 97.1238H31.4931C31.4463 89.7206 31.4151 81.2956 31.4151 73.7208C31.4151 57.7756 30.9471 94.0034 30.9471 88.6207Z" fill="#C9A064"/>
</g>
<g style="mix-blend-mode:multiply" opacity="0.3">
<path d="M31.6725 93.7146C31.6725 68.1976 31.6725 50.7234 31.7427 39.2949H31.454C31.5633 53.4849 31.6725 73.8689 31.6725 93.7146Z" fill="#C9A064"/>
</g>
<g style="mix-blend-mode:multiply" opacity="0.3">
<path d="M29.2465 39.2949C29.2465 47.2987 29.3089 55.8954 29.3089 64.5857C29.3089 66.5125 29.3089 67.9713 29.3089 69.0089C29.1919 75.0624 29.067 81.0068 29.0436 97.0924H29.6521C29.5975 89.8219 29.5507 79.4778 29.5273 66.2161C29.6443 60.3654 29.7535 49.912 29.7613 39.2637L29.2465 39.2949Z" fill="#C9A064"/>
</g>
<g style="mix-blend-mode:multiply" opacity="0.3">
<path d="M32.359 39.2949C32.359 87.0526 31.8909 67.7529 31.8909 87.8093C31.8909 91.2573 31.8909 94.3543 31.8909 97.1237H32.3668V39.2949H32.359Z" fill="#C9A064"/>
</g>
<g style="mix-blend-mode:multiply" opacity="0.3">
<path d="M26.4069 39.2949H26.087C26.1806 51.6205 26.3133 54.9749 26.4069 39.2949Z" fill="#C9A064"/>
</g>
<g style="mix-blend-mode:multiply" opacity="0.3">
<path d="M30.4401 97.124H30.4869C30.4869 95.3064 30.4869 92.1782 30.4869 87.3416C30.4713 90.1889 30.4557 93.6135 30.4401 97.124Z" fill="#C9A064"/>
</g>
<g style="mix-blend-mode:multiply" opacity="0.3">
<path d="M30.2527 42.9224C30.2527 73.3462 30.4322 62.5029 30.5726 39.2949H29.7925C29.8003 59.9987 30.2527 43.0394 30.2527 42.9224Z" fill="#C9A064"/>
</g>
<g style="mix-blend-mode:multiply" opacity="0.3">
<path d="M25.7438 93.9956V97.116H25.9467C25.9577 96.0722 25.8899 95.0291 25.7438 93.9956Z" fill="#C9A064"/>
</g>
<g style="mix-blend-mode:multiply" opacity="0.3">
<path d="M24.8388 39.2949V53.5083C24.9558 59.9987 25.0572 72.7846 25.0572 78.0736C25.0572 58.4385 25.3225 75.8582 25.4551 39.2949H24.8388Z" fill="#C9A064"/>
</g>
<g style="mix-blend-mode:multiply" opacity="0.3">
<path d="M25.3926 97.124H25.6345C25.5331 87.9422 25.4628 88.1528 25.3926 97.124Z" fill="#C9A064"/>
</g>
<g style="mix-blend-mode:multiply">
<path d="M32.3746 39.2949H29.5428V97.1237H32.3746V39.2949Z" fill="#C48D5C"/>
</g>
<g style="mix-blend-mode:multiply">
<path d="M32.3746 39.2949H31.6959V97.1237H32.3746V39.2949Z" fill="#C48D5C"/>
</g>
<g style="mix-blend-mode:overlay" opacity="0.5">
<path d="M27.8579 39.2949H26.0792V97.1237H27.8579V39.2949Z" fill="#FFB778"/>
</g>
<path d="M18.0911 99.9009H11.1794V100.33H18.0911V99.9009Z" fill="#D60F0F"/>
<path d="M37.8743 99.9009H30.9626V100.33H37.8743V99.9009Z" fill="#D60F0F"/>
</g>
<defs>
<filter id="filter0_d_30_3293" x="0.513916" y="0" width="54.0181" height="107.33" filterUnits="userSpaceOnUse" color-interpolation-filters="sRGB">
<feFlood flood-opacity="0" result="BackgroundImageFix"/>
<feColorMatrix in="SourceAlpha" type="matrix" values="0 0 0 0 0 0 0 0 0 0 0 0 0 0 0 0 0 0 127 0" result="hardAlpha"/>
<feOffset dx="3" dy="3"/>
<feGaussianBlur stdDeviation="2"/>
<feComposite in2="hardAlpha" operator="out"/>
<feColorMatrix type="matrix" values="0 0 0 0 0 0 0 0 0 0 0 0 0 0 0 0 0 0 0.25 0"/>
<feBlend mode="normal" in2="BackgroundImageFix" result="effect1_dropShadow_30_3293"/>
<feBlend mode="normal" in="SourceGraphic" in2="effect1_dropShadow_30_3293" result="shape"/>
</filter>
</defs>
</svg>
