<svg width="20" height="19" viewBox="0 0 20 19" fill="none" xmlns="http://www.w3.org/2000/svg">
<path fill-rule="evenodd" clip-rule="evenodd" d="M10.0001 5.65322C10.8494 5.65322 11.5386 4.96399 11.5386 4.11476C11.5386 3.26552 10.8494 2.57629 10.0001 2.57629C9.1509 2.57629 8.46167 3.26552 8.46167 4.11476C8.46167 4.96399 9.1509 5.65322 10.0001 5.65322ZM10.0001 7.96091C9.1509 7.96091 8.46167 8.65014 8.46167 9.49937C8.46167 10.3486 9.1509 11.0378 10.0001 11.0378C10.8494 11.0378 11.5386 10.3486 11.5386 9.49937C11.5386 8.65014 10.8494 7.96091 10.0001 7.96091ZM8.46167 14.884C8.46167 14.0348 9.1509 13.3455 10.0001 13.3455C10.8494 13.3455 11.5386 14.0348 11.5386 14.884C11.5386 15.7332 10.8494 16.4224 10.0001 16.4224C9.1509 16.4224 8.46167 15.7332 8.46167 14.884Z" fill="#231F20"/>
<mask id="mask0_206_1285" style="mask-type:alpha" maskUnits="userSpaceOnUse" x="8" y="2" width="4" height="15">
<path fill-rule="evenodd" clip-rule="evenodd" d="M10.0001 5.65322C10.8494 5.65322 11.5386 4.96399 11.5386 4.11476C11.5386 3.26552 10.8494 2.57629 10.0001 2.57629C9.1509 2.57629 8.46167 3.26552 8.46167 4.11476C8.46167 4.96399 9.1509 5.65322 10.0001 5.65322ZM10.0001 7.96091C9.1509 7.96091 8.46167 8.65014 8.46167 9.49937C8.46167 10.3486 9.1509 11.0378 10.0001 11.0378C10.8494 11.0378 11.5386 10.3486 11.5386 9.49937C11.5386 8.65014 10.8494 7.96091 10.0001 7.96091ZM8.46167 14.884C8.46167 14.0348 9.1509 13.3455 10.0001 13.3455C10.8494 13.3455 11.5386 14.0348 11.5386 14.884C11.5386 15.7332 10.8494 16.4224 10.0001 16.4224C9.1509 16.4224 8.46167 15.7332 8.46167 14.884Z" fill="white"/>
</mask>
<g mask="url(#mask0_206_1285)">
<rect x="0.769287" y="0.268555" width="18.4615" height="18.4615" fill="#00A9FC"/>
</g>
</svg>
