<svg width="44" height="27" viewBox="0 0 44 27" fill="none" xmlns="http://www.w3.org/2000/svg">
<g filter="url(#filter0_d_19_32654)">
<rect x="12" y="9" width="15" height="8" fill="#E2A100"/>
<path d="M8.5259 17.4426L12.4462 17.4426C12.4462 17.694 12.3463 17.9351 12.1685 18.1129C11.9907 18.2907 11.7495 18.3906 11.4981 18.3906L9.4532 18.3906C9.20538 18.3852 8.96954 18.2829 8.79621 18.1057C8.62288 17.9285 8.52585 17.6905 8.5259 17.4426Z" fill="#191F23"/>
<path d="M8.52594 17.4597L12.4635 17.4597L12.4635 16.5151L8.52594 16.5151L8.52594 17.4597Z" fill="#222B32"/>
<path d="M8.52594 16.5151L12.4635 16.5151L12.4635 15.5705L8.52594 15.5705L8.52594 16.5151Z" fill="#191F23"/>
<path d="M8.52594 15.5671L12.4635 15.5671L12.4635 14.6225L8.52594 14.6225L8.52594 15.5671Z" fill="#222B32"/>
<path d="M8.52594 14.6226L12.4635 14.6226L12.4635 13.678L8.52594 13.678L8.52594 14.6226Z" fill="#191F23"/>
<path d="M8.52594 13.6746L12.4635 13.6746L12.4635 12.73L8.52594 12.73L8.52594 13.6746Z" fill="#222B32"/>
<path d="M8.52594 12.73L12.4635 12.73L12.4635 11.7854L8.52594 11.7854L8.52594 12.73Z" fill="#191F23"/>
<path d="M8.52594 11.7852L12.4635 11.7852L12.4635 10.8406L8.52594 10.8406L8.52594 11.7852Z" fill="#222B32"/>
<path d="M8.52594 10.8372L12.4635 10.8372L12.4635 9.89256L8.52594 9.89256L8.52594 10.8372Z" fill="#191F23"/>
<path d="M8.52594 9.89258L12.4635 9.89258L12.4635 8.94798L8.52594 8.94798L8.52594 9.89258Z" fill="#222B32"/>
<path d="M9.47054 7.99998L11.5154 7.99998C11.7663 7.99998 12.0069 8.09939 12.1846 8.27643C12.3623 8.45348 12.4626 8.69374 12.4635 8.94458L8.52594 8.94458C8.52594 8.69406 8.62546 8.45379 8.8026 8.27665C8.97975 8.0995 9.22001 7.99998 9.47054 7.99998Z" fill="#191F23"/>
<path d="M4.00352 17.4425L7.948 17.4425C7.948 17.6934 7.84859 17.934 7.67154 18.1117C7.49449 18.2894 7.25424 18.3897 7.0034 18.3906L4.9585 18.3906C4.83341 18.3915 4.70939 18.3677 4.59356 18.3204C4.47774 18.2732 4.37241 18.2035 4.28364 18.1154C4.19487 18.0273 4.12441 17.9224 4.07634 17.807C4.02826 17.6915 4.00351 17.5676 4.00352 17.4425Z" fill="#191F23"/>
<path d="M4.00006 17.4597L7.93762 17.4597L7.93762 16.5151L4.00006 16.5151L4.00006 17.4597Z" fill="#222B32"/>
<path d="M4.00006 16.5151L7.93762 16.5151L7.93762 15.5705L4.00006 15.5705L4.00006 16.5151Z" fill="#191F23"/>
<path d="M4.00006 15.5671L7.93762 15.5671L7.93762 14.6225L4.00006 14.6225L4.00006 15.5671Z" fill="#222B32"/>
<path d="M4.00006 14.6226L7.93762 14.6226L7.93762 13.678L4.00006 13.678L4.00006 14.6226Z" fill="#191F23"/>
<path d="M4.00006 13.6746L7.93762 13.6746L7.93762 12.73L4.00006 12.73L4.00006 13.6746Z" fill="#222B32"/>
<path d="M4.00006 12.73L7.93762 12.73L7.93762 11.7854L4.00006 11.7854L4.00006 12.73Z" fill="#191F23"/>
<path d="M4.00006 11.7852L7.93762 11.7852L7.93762 10.8406L4.00006 10.8406L4.00006 11.7852Z" fill="#222B32"/>
<path d="M4.00006 10.8372L7.93762 10.8372L7.93762 9.89256L4.00006 9.89256L4.00006 10.8372Z" fill="#191F23"/>
<path d="M4.00006 9.89258L7.93762 9.89258L7.93762 8.94798L4.00006 8.94798L4.00006 9.89258Z" fill="#222B32"/>
<path d="M4.94812 7.99998L6.99302 7.99998C7.24354 7.99998 7.48381 8.0995 7.66096 8.27665C7.8381 8.45379 7.93762 8.69406 7.93762 8.94458L4.00352 8.94458C4.00352 8.69406 4.10304 8.45379 4.28019 8.27665C4.45733 8.0995 4.6976 7.99998 4.94812 7.99998Z" fill="#191F23"/>
<path d="M7.94107 15.958L8.56042 15.958L8.56043 10.4461L7.94107 10.4461L7.94107 15.958Z" fill="#525D65"/>
<path d="M30.5259 17.4426L34.4462 17.4426C34.4462 17.694 34.3463 17.9351 34.1685 18.1129C33.9907 18.2907 33.7495 18.3906 33.4981 18.3906L31.4532 18.3906C31.2054 18.3852 30.9695 18.2829 30.7962 18.1057C30.6229 17.9285 30.5258 17.6905 30.5259 17.4426Z" fill="#191F23"/>
<path d="M30.5259 17.4597L34.4635 17.4597L34.4635 16.5151L30.5259 16.5151L30.5259 17.4597Z" fill="#222B32"/>
<path d="M30.5259 16.5151L34.4635 16.5151L34.4635 15.5705L30.5259 15.5705L30.5259 16.5151Z" fill="#191F23"/>
<path d="M30.5259 15.5671L34.4635 15.5671L34.4635 14.6225L30.5259 14.6225L30.5259 15.5671Z" fill="#222B32"/>
<path d="M30.5259 14.6226L34.4635 14.6226L34.4635 13.678L30.5259 13.678L30.5259 14.6226Z" fill="#191F23"/>
<path d="M30.5259 13.6746L34.4635 13.6746L34.4635 12.73L30.5259 12.73L30.5259 13.6746Z" fill="#222B32"/>
<path d="M30.5259 12.73L34.4635 12.73L34.4635 11.7854L30.5259 11.7854L30.5259 12.73Z" fill="#191F23"/>
<path d="M30.5259 11.7852L34.4635 11.7852L34.4635 10.8406L30.5259 10.8406L30.5259 11.7852Z" fill="#222B32"/>
<path d="M30.5259 10.8372L34.4635 10.8372L34.4635 9.89256L30.5259 9.89256L30.5259 10.8372Z" fill="#191F23"/>
<path d="M30.5259 9.89258L34.4635 9.89258L34.4635 8.94798L30.5259 8.94798L30.5259 9.89258Z" fill="#222B32"/>
<path d="M31.4705 7.99998L33.5154 7.99998C33.7663 7.99998 34.0069 8.09939 34.1846 8.27643C34.3623 8.45348 34.4626 8.69374 34.4635 8.94458L30.5259 8.94458C30.5259 8.69406 30.6255 8.45379 30.8026 8.27665C30.9798 8.0995 31.22 7.99998 31.4705 7.99998Z" fill="#191F23"/>
<path d="M26.0035 17.4425L29.948 17.4425C29.948 17.6934 29.8486 17.934 29.6715 18.1117C29.4945 18.2894 29.2542 18.3897 29.0034 18.3906L26.9585 18.3906C26.8334 18.3915 26.7094 18.3677 26.5936 18.3204C26.4777 18.2732 26.3724 18.2035 26.2836 18.1154C26.1949 18.0273 26.1244 17.9224 26.0763 17.807C26.0283 17.6915 26.0035 17.5676 26.0035 17.4425Z" fill="#191F23"/>
<path d="M26.0001 17.4597L29.9376 17.4597L29.9376 16.5151L26.0001 16.5151L26.0001 17.4597Z" fill="#222B32"/>
<path d="M26.0001 16.5151L29.9376 16.5151L29.9376 15.5705L26.0001 15.5705L26.0001 16.5151Z" fill="#191F23"/>
<path d="M26.0001 15.5671L29.9376 15.5671L29.9376 14.6225L26.0001 14.6225L26.0001 15.5671Z" fill="#222B32"/>
<path d="M26.0001 14.6226L29.9376 14.6226L29.9376 13.678L26.0001 13.678L26.0001 14.6226Z" fill="#191F23"/>
<path d="M26.0001 13.6746L29.9376 13.6746L29.9376 12.73L26.0001 12.73L26.0001 13.6746Z" fill="#222B32"/>
<path d="M26.0001 12.73L29.9376 12.73L29.9376 11.7854L26.0001 11.7854L26.0001 12.73Z" fill="#191F23"/>
<path d="M26.0001 11.7852L29.9376 11.7852L29.9376 10.8406L26.0001 10.8406L26.0001 11.7852Z" fill="#222B32"/>
<path d="M26.0001 10.8372L29.9376 10.8372L29.9376 9.89256L26.0001 9.89256L26.0001 10.8372Z" fill="#191F23"/>
<path d="M26.0001 9.89258L29.9376 9.89258L29.9376 8.94798L26.0001 8.94798L26.0001 9.89258Z" fill="#222B32"/>
<path d="M26.9481 7.99998L28.993 7.99998C29.2435 7.99998 29.4838 8.0995 29.661 8.27665C29.8381 8.45379 29.9376 8.69406 29.9376 8.94458L26.0035 8.94458C26.0035 8.69406 26.103 8.45379 26.2802 8.27665C26.4573 8.0995 26.6976 7.99998 26.9481 7.99998Z" fill="#191F23"/>
<path d="M29.9411 15.958L30.5604 15.958L30.5604 10.4461L29.9411 10.4461L29.9411 15.958Z" fill="#525D65"/>
<path d="M28.7747 11.5332L36.148 11.5332C36.6814 11.5332 36.9463 11.9644 36.9463 12.4978C36.9463 13.0313 36.6814 13.4625 36.148 13.4625L28.7747 13.4625L28.7747 11.5332Z" fill="url(#paint0_linear_19_32654)"/>
<path style="mix-blend-mode:multiply" d="M28.9262 13.4625L36.148 13.4625C36.6814 13.4625 36.9463 13.03 36.9463 12.4978C36.9463 11.9656 36.6814 11.5332 36.148 11.5332L28.9262 11.5332C28.9262 11.5332 28.5369 11.7069 28.5369 12.4978C28.5369 13.2888 28.9262 13.4625 28.9262 13.4625ZM29.7023 13.083C29.6284 13.083 29.3697 12.9524 29.3697 12.3623C29.3697 11.7722 29.6087 11.6404 29.7023 11.6404L35.8622 11.6404C36.3168 11.6404 36.5422 11.9632 36.5422 12.3623C36.5422 12.7615 36.3168 13.083 35.8622 13.083L29.7023 13.083Z" fill="url(#paint1_linear_19_32654)"/>
<path d="M28.3225 12.498C28.3225 13.3091 28.525 13.9665 28.7747 13.9665C29.0244 13.9665 29.2268 13.3091 29.2268 12.498C29.2268 11.687 29.0244 11.0295 28.7747 11.0295C28.525 11.0295 28.3225 11.687 28.3225 12.498Z" fill="url(#paint2_linear_19_32654)"/>
<path d="M17.7313 5.42645L17.7313 2.04717C17.7313 1.34865 18.2993 1 18.999 1C19.6988 1 20.2655 1.34865 20.2655 2.04717L20.2655 5.42645C20.2655 6.12621 19.6976 6.36151 18.999 6.36151C18.3005 6.36151 17.7313 6.12621 17.7313 5.42645Z" fill="url(#paint3_linear_19_32654)"/>
<path style="mix-blend-mode:multiply" d="M20.2679 5.42645L20.2679 2.04717C20.2679 1.34865 19.7 1 19.0015 1C18.303 1 17.7313 1.34495 17.7313 2.04717L17.7313 5.42645C17.7313 6.12621 18.2993 6.36151 18.999 6.36151C19.6988 6.36151 20.2679 6.12621 20.2679 5.42645ZM17.8989 3.89512L17.8989 2.23197C17.8989 1.66526 18.3917 1.20574 19.0003 1.20574C19.6088 1.20574 20.1029 1.66526 20.1029 2.23197L20.1029 3.89512C20.1029 4.46182 19.6101 4.92135 19.0003 4.92135C18.3904 4.92135 17.8989 4.46675 17.8989 3.89512Z" fill="url(#paint4_linear_19_32654)"/>
<path d="M20.6437 5.88099C20.6437 5.43009 19.9045 5.06543 19.0015 5.06543C18.0984 5.06543 17.358 5.43502 17.358 5.88099L17.358 8.03693L20.6437 8.03693L20.6437 5.88099Z" fill="url(#paint5_linear_19_32654)"/>
<path style="mix-blend-mode:multiply" opacity="0.7" d="M20.6437 5.88099C20.6437 5.43009 19.9045 5.06543 19.0015 5.06543C18.0984 5.06543 17.358 5.43502 17.358 5.88099L17.358 8.03693L20.6437 8.03693L20.6437 5.88099ZM20.4416 7.38522C20.4416 7.38522 20.1731 6.94418 19.0865 6.94418C17.9999 6.94418 17.7313 7.14376 17.7313 7.14376L17.7313 5.76149C17.7313 5.4227 18.3399 5.14551 19.0865 5.14551C19.833 5.14551 20.4416 5.42147 20.4416 5.76149L20.4416 7.38522Z" fill="url(#paint6_linear_19_32654)"/>
<path d="M19.0015 8.85379C18.0935 8.85379 17.358 8.4842 17.358 8.037C17.358 7.58979 18.0972 7.22144 19.0015 7.22144C19.9057 7.22144 20.6437 7.59103 20.6437 8.037C20.6437 8.48297 19.9082 8.85379 19.0015 8.85379Z" fill="url(#paint7_linear_19_32654)"/>
<path style="mix-blend-mode:multiply" opacity="0.7" d="M19.0014 8.63818C18.4815 8.63818 18.0602 8.39918 18.0602 8.10351C18.0602 7.80784 18.4815 7.57007 19.0014 7.57007C19.5213 7.57007 19.9414 7.80907 19.9414 8.10351C19.9414 8.39795 19.5201 8.63818 19.0014 8.63818Z" fill="url(#paint8_linear_19_32654)"/>
<path style="mix-blend-mode:multiply" d="M20.6437 8.037C20.6437 7.5861 19.9045 7.22144 19.0015 7.22144C18.0984 7.22144 17.3617 7.59103 17.3617 8.037C17.3617 8.48297 18.1009 8.85379 19.0052 8.85379C19.9094 8.85379 20.6437 8.4879 20.6437 8.037ZM17.5441 8.10229C17.5441 7.7327 18.1379 7.44442 18.8696 7.44442C19.6014 7.44442 20.1952 7.73886 20.1952 8.10229C20.1952 8.46572 19.6014 8.76139 18.8696 8.76139C18.1379 8.76139 17.5441 8.46572 17.5441 8.10229Z" fill="url(#paint9_linear_19_32654)"/>
<path d="M18.1391 12.498L18.1391 8.43255C18.1391 7.95578 18.5247 7.71924 19.0015 7.71924C19.4783 7.71924 19.8639 7.95578 19.8639 8.43255L19.8639 12.498C19.8639 12.9748 19.4771 13.135 19.0015 13.135C18.526 13.135 18.1391 12.9748 18.1391 12.498Z" fill="#636363"/>
<path d="M17.3617 18.8328C17.3617 19.2825 18.1009 19.6483 19.0051 19.6483C19.9094 19.6483 20.6473 19.2788 20.6473 18.8328L20.6473 12.6877L17.3617 12.6877L17.3617 18.8328Z" fill="url(#paint10_linear_19_32654)"/>
<path style="mix-blend-mode:multiply" opacity="0.6" d="M20.6437 18.8328L20.6437 12.6877L17.3617 12.6877L17.3617 18.8328C17.3617 19.2825 18.1009 19.6483 19.0052 19.6483C19.9094 19.6483 20.6437 19.2825 20.6437 18.8328ZM17.5477 18.2168L17.5477 14.8412C17.5477 14.1969 18.1724 13.6733 18.9423 13.6733L19.0594 13.6733C19.8293 13.6733 20.454 14.1969 20.454 14.8412L20.454 18.2168C20.454 18.8611 19.8293 19.3847 19.0594 19.3847L18.9423 19.3847C18.1724 19.3847 17.5477 18.8611 17.5477 18.2168Z" fill="url(#paint11_linear_19_32654)"/>
<path d="M8.69981 12.498C8.69981 13.3091 8.93037 13.9665 9.21477 13.9665C9.49918 13.9665 9.72974 13.3091 9.72974 12.498C9.72974 11.687 9.49918 11.0295 9.21477 11.0295C8.93037 11.0295 8.69981 11.687 8.69981 12.498Z" fill="url(#paint12_linear_19_32654)"/>
<path d="M9.02012 13.4625L1.79834 13.4625C1.26613 13.4625 1.00003 13.03 1.00003 12.4978C1.00003 11.9656 1.26613 11.5332 1.79834 11.5332L9.02012 11.5332C9.02012 11.5332 9.40942 11.7069 9.40942 12.4978C9.40942 13.2888 9.02012 13.4625 9.02012 13.4625Z" fill="url(#paint13_linear_19_32654)"/>
<path style="mix-blend-mode:multiply" d="M9.40942 12.4978C9.40942 11.7069 9.02012 11.5332 9.02012 11.5332L1.79834 11.5332C1.26613 11.5332 1.00003 11.9644 1.00003 12.4978C1.00003 13.0313 1.26613 13.4625 1.79834 13.4625L9.02012 13.4625C9.02012 13.4625 9.40942 13.2888 9.40942 12.4978ZM2.12604 13.083C1.64434 13.083 1.40411 12.7602 1.40411 12.3611C1.40411 11.9619 1.64434 11.6404 2.12604 11.6404L8.65546 11.6404C8.75402 11.6404 9.00657 11.771 9.00657 12.3623C9.00657 12.9537 8.73308 13.083 8.65546 13.083L2.12604 13.083Z" fill="url(#paint14_linear_19_32654)"/>
<path style="mix-blend-mode:multiply" d="M19.8639 12.498L19.8639 8.43255C19.8639 7.95578 19.4771 7.71924 19.0015 7.71924C18.526 7.71924 18.1391 7.95578 18.1391 8.43255L18.1391 12.498C18.1391 12.9748 18.5247 13.135 19.0015 13.135C19.4783 13.135 19.8639 12.9748 19.8639 12.498ZM18.457 11.0332L18.457 8.42639C18.457 8.13318 18.7391 7.89664 19.0878 7.89664C19.4364 7.89664 19.7185 8.13318 19.7185 8.42639L19.7185 11.0332C19.7185 11.3264 19.4364 11.5642 19.0878 11.5642C18.7391 11.5642 18.457 11.3264 18.457 11.0332Z" fill="#E2A100"/>
<g style="mix-blend-mode:overlay" opacity="0.5">
<path d="M19.2701 11.1734C19.2342 11.173 19.1988 11.1654 19.1659 11.1512C19.133 11.137 19.1032 11.1164 19.0782 11.0907C19.0532 11.0649 19.0336 11.0345 19.0205 11.0011C19.0073 10.9677 19.0009 10.9321 19.0015 10.8962L19.0015 8.28818C19.0009 8.25232 19.0073 8.21669 19.0205 8.18332C19.0336 8.14996 19.0532 8.11953 19.0782 8.09377C19.1032 8.06801 19.133 8.04744 19.1659 8.03324C19.1988 8.01903 19.2342 8.01147 19.2701 8.01099C19.306 8.01147 19.3415 8.01902 19.3745 8.03321C19.4075 8.0474 19.4374 8.06796 19.4624 8.0937C19.4875 8.11944 19.5072 8.14986 19.5205 8.18323C19.5338 8.2166 19.5404 8.25226 19.5399 8.28818L19.5399 10.8962C19.5404 10.9322 19.5338 10.9678 19.5205 11.0012C19.5072 11.0346 19.4875 11.065 19.4624 11.0907C19.4374 11.1165 19.4075 11.137 19.3745 11.1512C19.3415 11.1654 19.306 11.173 19.2701 11.1734Z" fill="white"/>
</g>
<g style="mix-blend-mode:overlay" opacity="0.4">
<path d="M2.13955 11.8363C2.05631 11.834 1.97552 11.8647 1.91482 11.9217C1.85413 11.9787 1.81843 12.0574 1.81554 12.1406C1.81812 12.2241 1.85367 12.3031 1.9144 12.3604C1.97514 12.4176 2.0561 12.4485 2.13955 12.4462L8.36836 12.4462C8.40979 12.4475 8.45106 12.4406 8.48983 12.426C8.5286 12.4113 8.5641 12.3892 8.59431 12.3608C8.62451 12.3324 8.64883 12.2984 8.66586 12.2606C8.6829 12.2228 8.69233 12.1821 8.6936 12.1406C8.69071 12.0572 8.65485 11.9783 8.59388 11.9213C8.53291 11.8642 8.45181 11.8337 8.36836 11.8363L2.13955 11.8363Z" fill="white"/>
</g>
<g style="mix-blend-mode:overlay" opacity="0.4">
<path d="M29.8748 11.8363C29.7914 11.8337 29.7103 11.8642 29.6493 11.9213C29.5884 11.9783 29.5525 12.0572 29.5496 12.1406C29.5509 12.1821 29.5603 12.2228 29.5773 12.2606C29.5944 12.2984 29.6187 12.3324 29.6489 12.3608C29.6791 12.3892 29.7146 12.4113 29.7534 12.426C29.7921 12.4406 29.8334 12.4475 29.8748 12.4462L36.1098 12.4462C36.1934 12.4485 36.2745 12.4177 36.3354 12.3604C36.3963 12.3032 36.4322 12.2242 36.4351 12.1406C36.4318 12.0573 36.3959 11.9786 36.335 11.9216C36.2741 11.8647 36.1932 11.834 36.1098 11.8363L29.8748 11.8363Z" fill="white"/>
</g>
<g style="mix-blend-mode:overlay" opacity="0.4">
<path d="M20.332 7.08586C20.332 7.08586 20.0856 6.71627 19.1074 6.71627C18.1292 6.71627 17.8828 6.88505 17.8828 6.88505L17.8828 5.71714C17.8828 5.4301 18.431 5.19849 19.1086 5.19849C19.7862 5.19849 20.3406 5.4301 20.3406 5.71714L20.3406 7.08586L20.332 7.08586Z" fill="white"/>
</g>
<path style="mix-blend-mode:screen" d="M17.7313 17.3382L17.7313 14.8903C17.7313 14.4222 18.2783 14.0427 18.9521 14.0427L19.0544 14.0427C19.7283 14.0427 20.2753 14.4222 20.2753 14.8903L20.2753 17.3382C20.2753 17.8064 19.7283 18.1858 19.0544 18.1858L18.9521 18.1858C18.2758 18.1858 17.7313 17.8064 17.7313 17.3382Z" fill="url(#paint15_linear_19_32654)"/>
<path d="M9.52021 13.268C9.09518 13.268 9.11489 12.923 9.11489 12.498C9.11489 12.073 9.09518 11.728 9.52021 11.728L28.6157 11.728C28.6157 11.728 28.8879 11.8192 28.8879 12.498C28.8879 13.1768 28.6157 13.268 28.6157 13.268L9.52021 13.268Z" fill="#FFE11A"/>
<path style="mix-blend-mode:multiply" d="M28.8879 12.498C28.8879 11.8192 28.6157 11.728 28.6157 11.728L9.52021 11.728C9.09518 11.728 9.11489 12.073 9.11489 12.498C9.11489 12.923 9.09518 13.268 9.52021 13.268L28.6157 13.268C28.6157 13.268 28.8879 13.1768 28.8879 12.498ZM10.2754 12.8676C9.87378 12.8676 9.89226 12.6298 9.89226 12.3378C9.89226 12.0459 9.87378 11.8069 10.2754 11.8069L28.3151 11.8069C28.3151 11.8069 28.5713 11.8697 28.5713 12.3378C28.5713 12.806 28.3151 12.8676 28.3151 12.8676L10.2754 12.8676Z" fill="#B5BAC4"/>
<g style="mix-blend-mode:overlay" opacity="0.7">
<path d="M10.3173 11.8893C10.2492 11.887 10.1829 11.9115 10.1326 11.9576C10.0824 12.0036 10.0523 12.0676 10.0488 12.1357C10.0526 12.2037 10.0828 12.2675 10.133 12.3135C10.1831 12.3595 10.2493 12.3841 10.3173 12.3821L27.9344 12.3821C28.0025 12.3841 28.0686 12.3595 28.1188 12.3135C28.169 12.2675 28.1992 12.2037 28.203 12.1357C28.1995 12.0676 28.1694 12.0036 28.1191 11.9576C28.0689 11.9115 28.0026 11.887 27.9344 11.8893L10.3173 11.8893Z" fill="white"/>
</g>
</g>
<defs>
<filter id="filter0_d_19_32654" x="0" y="0" width="43.9463" height="26.6484" filterUnits="userSpaceOnUse" color-interpolation-filters="sRGB">
<feFlood flood-opacity="0" result="BackgroundImageFix"/>
<feColorMatrix in="SourceAlpha" type="matrix" values="0 0 0 0 0 0 0 0 0 0 0 0 0 0 0 0 0 0 127 0" result="hardAlpha"/>
<feOffset dx="3" dy="3"/>
<feGaussianBlur stdDeviation="2"/>
<feComposite in2="hardAlpha" operator="out"/>
<feColorMatrix type="matrix" values="0 0 0 0 0 0 0 0 0 0 0 0 0 0 0 0 0 0 0.25 0"/>
<feBlend mode="normal" in2="BackgroundImageFix" result="effect1_dropShadow_19_32654"/>
<feBlend mode="normal" in="SourceGraphic" in2="effect1_dropShadow_19_32654" result="shape"/>
</filter>
<linearGradient id="paint0_linear_19_32654" x1="32.8611" y1="11.5332" x2="32.8611" y2="13.4625" gradientUnits="userSpaceOnUse">
<stop stop-color="#282828"/>
<stop offset="0.02" stop-color="#333333"/>
<stop offset="0.09" stop-color="#4C4C4C"/>
<stop offset="0.17" stop-color="#5F5F5F"/>
<stop offset="0.24" stop-color="#696969"/>
<stop offset="0.33" stop-color="#6D6D6D"/>
<stop offset="0.47" stop-color="#464646"/>
<stop offset="0.6" stop-color="#2A2A2A"/>
<stop offset="0.68" stop-color="#202020"/>
<stop offset="0.91" stop-color="#0A0A0A"/>
<stop offset="1"/>
</linearGradient>
<linearGradient id="paint1_linear_19_32654" x1="32.7428" y1="11.5332" x2="32.7428" y2="13.4625" gradientUnits="userSpaceOnUse">
<stop stop-color="#282828"/>
<stop offset="0.02" stop-color="#333333"/>
<stop offset="0.09" stop-color="#4C4C4C"/>
<stop offset="0.17" stop-color="#5F5F5F"/>
<stop offset="0.24" stop-color="#696969"/>
<stop offset="0.33" stop-color="#6D6D6D"/>
<stop offset="0.47" stop-color="#464646"/>
<stop offset="0.6" stop-color="#2A2A2A"/>
<stop offset="0.68" stop-color="#202020"/>
<stop offset="0.91" stop-color="#0A0A0A"/>
<stop offset="1"/>
</linearGradient>
<linearGradient id="paint2_linear_19_32654" x1="28.7747" y1="11.0295" x2="28.7747" y2="13.9665" gradientUnits="userSpaceOnUse">
<stop stop-color="#B2B2B2"/>
<stop offset="0.54" stop-color="#343434"/>
<stop offset="1" stop-color="#0F0F0F"/>
</linearGradient>
<linearGradient id="paint3_linear_19_32654" x1="20.2643" y1="3.67829" x2="17.7572" y2="3.67829" gradientUnits="userSpaceOnUse">
<stop stop-color="#282828"/>
<stop offset="0.02" stop-color="#333333"/>
<stop offset="0.09" stop-color="#4C4C4C"/>
<stop offset="0.17" stop-color="#5F5F5F"/>
<stop offset="0.24" stop-color="#696969"/>
<stop offset="0.33" stop-color="#6D6D6D"/>
<stop offset="0.47" stop-color="#464646"/>
<stop offset="0.6" stop-color="#2A2A2A"/>
<stop offset="0.68" stop-color="#202020"/>
<stop offset="0.91" stop-color="#0A0A0A"/>
<stop offset="1"/>
</linearGradient>
<linearGradient id="paint4_linear_19_32654" x1="20.2642" y1="3.67829" x2="17.7572" y2="3.67829" gradientUnits="userSpaceOnUse">
<stop stop-color="#484848"/>
<stop offset="0.05" stop-color="#565656"/>
<stop offset="0.17" stop-color="#777777"/>
<stop offset="0.27" stop-color="#8B8B8B"/>
<stop offset="0.34" stop-color="#929292"/>
<stop offset="0.76" stop-color="#2C2C2C"/>
<stop offset="1" stop-color="#0F0F0F"/>
</linearGradient>
<linearGradient id="paint5_linear_19_32654" x1="20.6437" y1="6.55118" x2="17.3174" y2="6.55118" gradientUnits="userSpaceOnUse">
<stop stop-color="#484848"/>
<stop offset="0.04" stop-color="#565656"/>
<stop offset="0.14" stop-color="#777777"/>
<stop offset="0.22" stop-color="#8B8B8B"/>
<stop offset="0.28" stop-color="#929292"/>
<stop offset="0.47" stop-color="#636363"/>
<stop offset="0.66" stop-color="#3B3B3B"/>
<stop offset="0.76" stop-color="#2C2C2C"/>
<stop offset="1" stop-color="#0F0F0F"/>
</linearGradient>
<linearGradient id="paint6_linear_19_32654" x1="20.6437" y1="6.55118" x2="17.3174" y2="6.55118" gradientUnits="userSpaceOnUse">
<stop stop-color="#484848"/>
<stop offset="0.05" stop-color="#565656"/>
<stop offset="0.17" stop-color="#777777"/>
<stop offset="0.27" stop-color="#8B8B8B"/>
<stop offset="0.34" stop-color="#929292"/>
<stop offset="0.76" stop-color="#2C2C2C"/>
<stop offset="1" stop-color="#0F0F0F"/>
</linearGradient>
<linearGradient id="paint7_linear_19_32654" x1="19.0015" y1="7.22144" x2="19.0015" y2="8.85379" gradientUnits="userSpaceOnUse">
<stop stop-color="#B2B2B2"/>
<stop offset="0.54" stop-color="#343434"/>
<stop offset="1" stop-color="#0F0F0F"/>
</linearGradient>
<linearGradient id="paint8_linear_19_32654" x1="19.0014" y1="7.57007" x2="19.0014" y2="8.63818" gradientUnits="userSpaceOnUse">
<stop stop-color="#484848"/>
<stop offset="0.05" stop-color="#565656"/>
<stop offset="0.17" stop-color="#777777"/>
<stop offset="0.27" stop-color="#8B8B8B"/>
<stop offset="0.34" stop-color="#929292"/>
<stop offset="0.76" stop-color="#2C2C2C"/>
<stop offset="1" stop-color="#0F0F0F"/>
</linearGradient>
<linearGradient id="paint9_linear_19_32654" x1="19.0015" y1="7.22144" x2="19.0015" y2="8.85379" gradientUnits="userSpaceOnUse">
<stop stop-color="#B2B2B2"/>
<stop offset="0.54" stop-color="#343434"/>
<stop offset="1" stop-color="#0F0F0F"/>
</linearGradient>
<linearGradient id="paint10_linear_19_32654" x1="19.0014" y1="12.7136" x2="19.0014" y2="19.4993" gradientUnits="userSpaceOnUse">
<stop stop-color="#484848"/>
<stop offset="0.04" stop-color="#565656"/>
<stop offset="0.14" stop-color="#777777"/>
<stop offset="0.22" stop-color="#8B8B8B"/>
<stop offset="0.28" stop-color="#929292"/>
<stop offset="0.37" stop-color="#898989"/>
<stop offset="0.52" stop-color="#6F6F6F"/>
<stop offset="0.71" stop-color="#464646"/>
<stop offset="0.82" stop-color="#2C2C2C"/>
<stop offset="1" stop-color="#0F0F0F"/>
</linearGradient>
<linearGradient id="paint11_linear_19_32654" x1="19.0015" y1="12.7136" x2="19.0015" y2="19.4993" gradientUnits="userSpaceOnUse">
<stop stop-color="#484848"/>
<stop offset="0.04" stop-color="#565656"/>
<stop offset="0.14" stop-color="#777777"/>
<stop offset="0.22" stop-color="#8B8B8B"/>
<stop offset="0.28" stop-color="#929292"/>
<stop offset="0.37" stop-color="#898989"/>
<stop offset="0.52" stop-color="#6F6F6F"/>
<stop offset="0.71" stop-color="#464646"/>
<stop offset="0.82" stop-color="#2C2C2C"/>
<stop offset="1" stop-color="#0F0F0F"/>
</linearGradient>
<linearGradient id="paint12_linear_19_32654" x1="9.21477" y1="11.0295" x2="9.21477" y2="13.9665" gradientUnits="userSpaceOnUse">
<stop stop-color="#B2B2B2"/>
<stop offset="0.54" stop-color="#343434"/>
<stop offset="1" stop-color="#0F0F0F"/>
</linearGradient>
<linearGradient id="paint13_linear_19_32654" x1="5.20473" y1="11.5332" x2="5.20473" y2="13.4625" gradientUnits="userSpaceOnUse">
<stop stop-color="#282828"/>
<stop offset="0.02" stop-color="#333333"/>
<stop offset="0.09" stop-color="#4C4C4C"/>
<stop offset="0.17" stop-color="#5F5F5F"/>
<stop offset="0.24" stop-color="#696969"/>
<stop offset="0.33" stop-color="#6D6D6D"/>
<stop offset="0.47" stop-color="#464646"/>
<stop offset="0.6" stop-color="#2A2A2A"/>
<stop offset="0.68" stop-color="#202020"/>
<stop offset="0.91" stop-color="#0A0A0A"/>
<stop offset="1"/>
</linearGradient>
<linearGradient id="paint14_linear_19_32654" x1="5.20473" y1="11.5332" x2="5.20473" y2="13.4625" gradientUnits="userSpaceOnUse">
<stop stop-color="#282828"/>
<stop offset="0.02" stop-color="#333333"/>
<stop offset="0.09" stop-color="#4C4C4C"/>
<stop offset="0.17" stop-color="#5F5F5F"/>
<stop offset="0.24" stop-color="#696969"/>
<stop offset="0.33" stop-color="#6D6D6D"/>
<stop offset="0.47" stop-color="#464646"/>
<stop offset="0.6" stop-color="#2A2A2A"/>
<stop offset="0.68" stop-color="#202020"/>
<stop offset="0.91" stop-color="#0A0A0A"/>
<stop offset="1"/>
</linearGradient>
<linearGradient id="paint15_linear_19_32654" x1="19.0014" y1="14.0587" x2="19.0014" y2="18.0971" gradientUnits="userSpaceOnUse">
<stop stop-color="#484848"/>
<stop offset="0.04" stop-color="#565656"/>
<stop offset="0.14" stop-color="#777777"/>
<stop offset="0.22" stop-color="#8B8B8B"/>
<stop offset="0.28" stop-color="#929292"/>
<stop offset="0.37" stop-color="#6F6F6F"/>
<stop offset="0.5" stop-color="#3F3F3F"/>
<stop offset="0.62" stop-color="#1D1D1D"/>
<stop offset="0.72" stop-color="#080808"/>
<stop offset="0.78"/>
</linearGradient>
</defs>
</svg>
