<svg width="61" height="60" viewBox="0 0 61 60" fill="none" xmlns="http://www.w3.org/2000/svg">
<path opacity="0.2" d="M30.1785 7.5C25.6257 7.49867 21.1796 8.87851 17.4276 11.4573C13.6756 14.036 10.7941 17.6923 9.16385 21.9432C7.53359 26.194 7.23124 30.8394 8.29674 35.2658C9.36224 39.6921 11.7455 43.691 15.1316 46.7344C16.5425 43.9559 18.6952 41.6224 21.3511 39.9925C24.007 38.3626 27.0623 37.4999 30.1785 37.5C28.3243 37.5 26.5117 36.9502 24.97 35.92C23.4283 34.8899 22.2267 33.4257 21.5171 31.7127C20.8075 29.9996 20.6219 28.1146 20.9836 26.296C21.3453 24.4775 22.2382 22.807 23.5493 21.4959C24.8604 20.1848 26.5309 19.2919 28.3495 18.9301C30.1681 18.5684 32.0531 18.7541 33.7661 19.4636C35.4792 20.1732 36.9433 21.3748 37.9735 22.9165C39.0036 24.4582 39.5535 26.2708 39.5535 28.125C39.5535 30.6114 38.5657 32.996 36.8076 34.7541C35.0494 36.5123 32.6649 37.5 30.1785 37.5C33.2946 37.4999 36.3499 38.3626 39.0058 39.9925C41.6617 41.6224 43.8144 43.9559 45.2253 46.7344C48.6114 43.691 50.9947 39.6921 52.0602 35.2658C53.1257 30.8394 52.8233 26.194 51.1931 21.9432C49.5628 17.6923 46.6813 14.036 42.9293 11.4573C39.1773 8.87851 34.7312 7.49867 30.1785 7.5Z" fill="#9C4900"/>
<path d="M54.5547 29.9999C54.556 25.9453 53.5458 21.9544 51.6156 18.3886C49.6854 14.8229 46.8962 11.795 43.5006 9.57912C40.105 7.36326 36.2103 6.02946 32.1692 5.69852C28.1281 5.36758 24.0682 6.04996 20.3574 7.68385C16.6465 9.31773 13.4018 11.8515 10.9172 15.0557C8.43263 18.2599 6.7866 22.0333 6.1282 26.0341C5.4698 30.035 5.81984 34.1368 7.14661 37.9683C8.47338 41.7997 10.735 45.2396 13.7266 47.9765L14.0313 48.2577C18.4873 52.1989 24.2308 54.3744 30.1797 54.3744C36.1286 54.3744 41.8721 52.1989 46.3281 48.2577L46.6328 47.9765C49.1315 45.6964 51.1268 42.9197 52.4909 39.8242C53.855 36.7288 54.5579 33.3826 54.5547 29.9999ZM9.55469 29.9999C9.55346 26.6595 10.3636 23.3687 11.9155 20.4106C13.4673 17.4525 15.7145 14.9156 18.4637 13.0181C21.2128 11.1205 24.3818 9.91911 27.698 9.51717C31.0141 9.11522 34.3783 9.52476 37.5012 10.7106C40.6241 11.8964 43.4123 13.823 45.6259 16.3247C47.8396 18.8264 49.4124 21.8283 50.2093 25.0723C51.0061 28.3163 51.0031 31.7054 50.2005 34.948C49.3979 38.1906 47.8196 41.1897 45.6016 43.6874C43.511 40.6556 40.5658 38.3141 37.1406 36.9609C38.9777 35.5139 40.3182 33.5305 40.9758 31.2864C41.6333 29.0423 41.5752 26.6491 40.8096 24.4395C40.0439 22.2299 38.6087 20.3139 36.7036 18.9578C34.7985 17.6017 32.5182 16.873 30.1797 16.873C27.8412 16.873 25.5609 17.6017 23.6558 18.9578C21.7507 20.3139 20.3155 22.2299 19.5498 24.4395C18.7841 26.6491 18.7261 29.0423 19.3836 31.2864C20.0412 33.5305 21.3817 35.5139 23.2188 36.9609C19.7936 38.3141 16.8484 40.6556 14.7578 43.6874C11.4001 39.9195 9.5478 35.0469 9.55469 29.9999ZM22.6797 28.1249C22.6797 26.6416 23.1196 25.1915 23.9437 23.9582C24.7678 22.7248 25.9391 21.7635 27.3096 21.1958C28.68 20.6282 30.188 20.4797 31.6429 20.769C33.0977 21.0584 34.4341 21.7727 35.483 22.8216C36.5319 23.8705 37.2462 25.2069 37.5356 26.6618C37.825 28.1166 37.6764 29.6246 37.1088 30.9951C36.5411 32.3655 35.5798 33.5368 34.3465 34.361C33.1131 35.1851 31.663 35.6249 30.1797 35.6249C28.1925 35.6188 26.2884 34.8266 24.8832 33.4214C23.478 32.0162 22.6859 30.1122 22.6797 28.1249ZM17.5469 46.289C18.9037 44.1697 20.772 42.4257 22.9796 41.2178C25.1872 40.0099 27.6632 39.3768 30.1797 39.3768C32.6962 39.3768 35.1722 40.0099 37.3798 41.2178C39.5874 42.4257 41.4557 44.1697 42.8125 46.289C39.2005 49.098 34.7554 50.623 30.1797 50.623C25.604 50.623 21.1589 49.098 17.5469 46.289Z" fill="#9C4900"/>
</svg>
