<svg width="32" height="26" viewBox="0 0 32 26" fill="none" xmlns="http://www.w3.org/2000/svg">
<path d="M2.88119 11.4271C2.17124 11.8982 1.22241 11.7141 0.744633 11.0041C0.273569 10.3009 0.45804 9.34535 1.16799 8.87429C1.87086 8.4036 2.82641 8.5877 3.29747 9.29765C3.77524 10.0005 3.58406 10.9564 2.88119 11.4271Z" fill="#3D4359"/>
<path d="M2.62789 10.7776C2.51422 11.0385 2.32042 11.261 2.04688 11.4078L4.61276 13.9219L5.21241 13.3099L2.62789 10.7776Z" fill="#3D4359"/>
<path d="M29.2267 11.4271C29.9367 11.8982 30.8855 11.7141 31.3633 11.0041C31.8344 10.3009 31.6499 9.34535 30.9399 8.87429C30.2371 8.4036 29.2815 8.5877 28.8105 9.29765C28.3327 10.0005 28.5239 10.9564 29.2267 11.4271Z" fill="#3D4359"/>
<path d="M29.483 10.7776C29.5966 11.0385 29.7904 11.261 30.064 11.4078L27.4981 13.9219L26.8984 13.3099L29.483 10.7776Z" fill="#3D4359"/>
<path d="M6.99023 21.0582H4.09267C3.7308 21.0582 3.4375 21.3515 3.4375 21.713V24.3687C3.4375 24.7301 3.7308 25.0234 4.09267 25.0234H6.99023C7.3521 25.0234 7.64502 24.7301 7.64502 24.3687V21.713C7.64502 21.3515 7.3521 21.0582 6.99023 21.0582Z" fill="#3D4359"/>
<path d="M28.0211 21.0582H25.1235C24.762 21.0582 24.4688 21.3515 24.4688 21.713V24.3687C24.4688 24.7301 24.762 25.0234 25.1235 25.0234H28.0211C28.383 25.0234 28.6759 24.7301 28.6759 24.3687V21.713C28.6759 21.3515 28.383 21.0582 28.0211 21.0582Z" fill="#3D4359"/>
<path d="M27.0245 16.2412C19.5501 18.9092 12.0686 18.9092 4.59416 16.2412C3.78359 15.9535 3.2898 15.1429 3.42993 14.2951L4.80809 4.63194C5.05145 2.92918 6.33383 1.57262 8.0146 1.20442C13.0931 0.0912323 18.3191 0.106133 23.7002 1.27075C25.3512 1.62442 26.5821 3.00297 26.818 4.66846L28.1887 14.2951C28.3289 15.1429 27.8351 15.9535 27.0245 16.2412Z" fill="#EB2743"/>
<path d="M25.0176 10.3574C18.8774 9.30313 12.7375 9.30313 6.59729 10.3574C5.8456 10.4897 5.17477 9.8558 5.28546 9.09666L5.89703 4.7848C6.07405 3.5613 7.01767 2.55133 8.24862 2.28599C10.6587 1.7553 13.1355 1.48996 15.6049 1.48996C18.1771 1.48996 20.8235 1.77729 23.4624 2.35233C24.6416 2.60277 25.5483 3.59819 25.7179 4.82168L26.3294 9.09666C26.4401 9.8558 25.7693 10.4897 25.0176 10.3574Z" fill="#3D4359"/>
<path d="M30.0453 21.6562L30.0502 21.61V17.8467C30.0502 17.3649 29.7573 17.0287 28.9664 17.0287C29.3645 16.5129 29.6004 15.8566 29.6004 15.1564C29.6004 13.2475 27.8607 11.7438 25.8781 12.1418C24.8606 12.3483 23.9837 13.0854 23.6301 14.0581C23.4899 14.4636 23.4307 14.8616 23.4381 15.2451C23.4676 16.2916 22.657 17.1539 21.6102 17.2132C17.9333 17.4401 14.2569 17.4413 10.573 17.2173C9.50264 17.1521 8.67417 16.2506 8.67417 15.1787V15.1564C8.67417 13.2475 6.93452 11.7438 4.95188 12.1418C3.93447 12.3483 3.05718 13.0854 2.70351 14.0581C2.31295 15.1493 2.5414 16.2476 3.14588 17.0287C2.36177 17.0287 2.0625 17.369 2.0625 17.8467V21.603L2.06772 21.6562H30.0453Z" fill="#F03C54"/>
<path d="M30.5228 21.1133V21.1208C30.5228 22.2101 29.6235 23.1094 28.5264 23.1094H3.59727C2.49266 23.1094 1.59375 22.2179 1.59375 21.1133C1.59375 20.6102 1.99736 20.2066 2.49265 20.2066H29.6235C30.1188 20.2066 30.5228 20.6102 30.5228 21.1133Z" fill="#F2FBFE"/>
<path d="M28.1817 15.1749C28.1817 16.0839 27.445 16.8203 26.5364 16.8203C25.6274 16.8203 24.8906 16.0839 24.8906 15.1749C24.8906 14.2663 25.6274 13.5296 26.5364 13.5296C27.445 13.5296 28.1817 14.2663 28.1817 15.1749Z" fill="white"/>
<path d="M7.21299 15.1749C7.21299 16.0839 6.4762 16.8203 5.56724 16.8203C4.65865 16.8203 3.92188 16.0839 3.92188 15.1749C3.92188 14.2663 4.65865 13.5296 5.56724 13.5296C6.4762 13.5296 7.21299 14.2663 7.21299 15.1749Z" fill="white"/>
<path d="M12.7521 16.3438C12.4316 16.3438 12.1719 16.084 12.1719 15.7635V13.9292C12.1719 13.609 12.4316 13.3493 12.7521 13.3493C13.0726 13.3493 13.3324 13.609 13.3324 13.9292V15.7635C13.3324 16.084 13.0726 16.3438 12.7521 16.3438Z" fill="#3D4359"/>
<path d="M14.7834 16.3438C14.4629 16.3438 14.2031 16.084 14.2031 15.7635V13.9292C14.2031 13.609 14.4629 13.3493 14.7834 13.3493C15.1039 13.3493 15.3636 13.609 15.3636 13.9292V15.7635C15.3636 16.084 15.1039 16.3438 14.7834 16.3438Z" fill="#3D4359"/>
<path d="M16.8225 16.3438C16.502 16.3438 16.2422 16.084 16.2422 15.7635V13.9292C16.2422 13.609 16.502 13.3493 16.8225 13.3493C17.143 13.3493 17.4027 13.609 17.4027 13.9292V15.7635C17.4027 16.084 17.143 16.3438 16.8225 16.3438Z" fill="#3D4359"/>
<path d="M18.8611 16.3438C18.5406 16.3438 18.2812 16.084 18.2812 15.7635V13.9292C18.2812 13.609 18.5406 13.3493 18.8611 13.3493C19.1816 13.3493 19.4414 13.609 19.4414 13.9292V15.7635C19.4414 16.084 19.1816 16.3438 18.8611 16.3438Z" fill="#3D4359"/>
<path d="M7.25 10.2578C7.25149 10.2541 7.25299 10.2504 7.25448 10.247C7.57125 10.1963 7.88877 10.1486 8.20555 10.1039C8.20406 10.1076 8.20256 10.111 8.20107 10.1147C7.8843 10.1598 7.56715 10.2071 7.25 10.2578Z" fill="#ED3554"/>
<path d="M7.25781 10.25C8.45411 7.32262 9.77114 4.49884 11.1985 1.7865C11.5276 1.74401 11.8563 1.70116 12.1865 1.66836C10.7461 4.3699 9.41785 7.18695 8.20889 10.1069C7.89211 10.1516 7.57459 10.1993 7.25781 10.25Z" fill="#4F556B"/>
<path d="M8.89062 10.0156C9.62964 9.92059 10.3683 9.84083 11.1073 9.77599C11.1073 9.77673 11.1069 9.77712 11.1066 9.77786C10.3679 9.84271 9.62927 9.92059 8.89062 10.0156Z" fill="#ED3554"/>
<path d="M8.89062 10.0156C10.1052 7.10763 11.4383 4.30211 12.8842 1.61325C13.6356 1.55399 14.388 1.51635 15.1412 1.50629C13.6821 4.14819 12.3375 6.91122 11.1073 9.77599C10.3683 9.84083 9.62964 9.92059 8.89062 10.0156Z" fill="#4F556B"/>
</svg>
