<svg width="32" height="24" viewBox="0 0 32 24" fill="none" xmlns="http://www.w3.org/2000/svg">
<path d="M7.40721 18.1074V22.0448C7.40721 22.5918 6.96036 23.0391 6.4129 23.0391H3.60367C3.05658 23.0391 2.60938 22.5918 2.60938 22.0448V18.1074C2.60938 17.5603 3.05658 17.1131 3.60367 17.1131H6.4129C6.96036 17.1131 7.40721 17.5603 7.40721 18.1074Z" fill="#3E4657"/>
<path d="M29.8994 18.1074V22.0448C29.8994 22.5918 29.4526 23.0391 28.9051 23.0391H26.0959C25.5484 23.0391 25.1016 22.5918 25.1016 22.0448V18.1074C25.1016 17.5603 25.5484 17.1131 26.0959 17.1131H28.9051C29.4526 17.1131 29.8994 17.5603 29.8994 18.1074Z" fill="#3E4657"/>
<path d="M31.5288 11.7989L31.2001 18.8913C31.1677 19.5785 30.627 20.1342 29.9405 20.1841C20.7529 20.8497 11.6268 20.8601 2.5655 20.1863C1.8794 20.1353 1.3405 19.5804 1.30883 18.8939L0.979384 11.7981C0.942489 11.0047 1.26895 10.2388 1.86709 9.7156C2.06014 9.54678 3.78824 8.10786 3.91458 7.88984C4.95435 5.18943 6.23487 2.85759 7.96819 1.21632C8.16124 1.03371 8.40684 0.916315 8.66958 0.877184C13.4152 0.173943 18.4822 0.21718 23.8182 0.884645C24.1021 0.920422 24.3645 1.04899 24.5713 1.24651C26.289 2.88517 27.5606 5.20582 28.5936 7.88984C28.7181 8.106 30.4503 9.549 30.6411 9.71596C31.2393 10.2388 31.5657 11.0054 31.5288 11.7989Z" fill="#65CDF3"/>
<path d="M28.1089 7.88281C20.2085 7.29547 12.3074 7.29547 4.40625 7.88281C5.3521 5.46377 6.40865 3.60374 7.61799 2.23266C13.3777 1.77986 19.1371 1.77986 24.8964 2.23266C26.1065 3.60449 27.163 5.46339 28.1089 7.88281Z" fill="#3D4359"/>
<path d="M29.4206 19.1563C28.4569 19.4362 27.3922 19.5468 26.2663 19.5547C26.1202 19.5558 25.9797 19.4984 25.8772 19.3944L24.1003 17.5862C23.9199 17.4024 23.9933 17.095 24.2363 17.0108C25.6704 16.5132 27.1566 16.1667 28.7062 16.0019C29.3487 15.9337 29.9297 16.3988 29.9934 17.0417C30.0389 17.5008 30.0471 17.9622 30.011 18.4254C29.9841 18.7683 29.7508 19.0601 29.4206 19.1563Z" fill="#50BBED"/>
<path d="M3.08167 19.1563C4.04542 19.4362 5.11016 19.5468 6.23602 19.5547C6.38211 19.5558 6.5226 19.4984 6.62509 19.3944L8.402 17.5862C8.58238 17.4024 8.50896 17.095 8.26598 17.0108C6.83192 16.5132 5.34569 16.1667 3.79647 16.0019C3.15398 15.9337 2.57259 16.3988 2.50886 17.0417C2.4634 17.5008 2.45521 17.9622 2.49136 18.4254C2.51819 18.7683 2.75148 19.0601 3.08167 19.1563Z" fill="#50BBED"/>
<path d="M22.9733 19.9688H9.53869C9.21297 19.9688 8.99048 19.6397 9.1116 19.3371L9.9423 17.268C10.0601 16.9754 10.3437 16.7839 10.6593 16.7839H21.853C22.1683 16.7839 22.4523 16.9754 22.5693 17.268L23.4 19.3371C23.5219 19.6397 23.2994 19.9688 22.9733 19.9688Z" fill="#3D4359"/>
<path d="M29.9726 12.6815C28.417 13.2494 26.3621 13.7745 24.1413 14.284C23.9028 14.3391 23.6605 14.2132 23.5681 13.9869L22.6115 11.6335C22.525 11.4211 22.6677 11.1848 22.8962 11.1628C25.4118 10.9198 27.706 10.631 29.4397 10.2255C29.6707 10.1718 29.9051 10.3015 29.9819 10.5263L30.4071 11.774C30.5331 12.1441 30.3408 12.5473 29.9726 12.6815Z" fill="white"/>
<path d="M2.53543 12.6815C4.09098 13.2494 6.14593 13.7745 8.36671 14.284C8.60523 14.3391 8.84746 14.2132 8.93989 13.9869L9.89693 11.6335C9.98302 11.4211 9.84027 11.1848 9.61182 11.1628C7.09587 10.9198 4.80204 10.631 3.06835 10.2255C2.83729 10.1718 2.60289 10.3015 2.52649 10.5263L2.10126 11.774C1.97493 12.1441 2.16722 12.5473 2.53543 12.6815Z" fill="white"/>
<path d="M18.2103 11.3001H16.4297V15.3984H18.2103V11.3001Z" fill="#3D4359"/>
<path d="M18.5547 15.3984H20.3353V11.3195C20.2384 11.3068 20.1401 11.3001 20.0402 11.3001H18.5547V15.3984Z" fill="#3D4359"/>
<path d="M14.2969 15.3984H16.0775V11.3001H14.2969V15.3984Z" fill="#3D4359"/>
<path d="M12.1719 15.3984H13.9525V11.3001H12.467C12.3672 11.3001 12.2688 11.3068 12.1719 11.3195V15.3984Z" fill="#3D4359"/>
<path d="M11.8195 11.3933C11.1036 11.6049 10.5218 12.1632 10.296 12.9041L10.0951 13.5637C9.97584 13.9562 10.0492 14.3825 10.2934 14.7123C10.3929 14.8469 10.4883 14.9751 10.6027 15.1297C10.7275 15.2989 10.9258 15.3984 11.136 15.3984H11.8195V11.3933Z" fill="#3D4359"/>
<path d="M22.2106 12.9041C21.9852 12.1632 21.4034 11.6049 20.6875 11.3933V15.3984H21.371C21.5812 15.3984 21.7794 15.2989 21.9047 15.1297C22.0187 14.9751 22.1141 14.8469 22.2136 14.7123C22.4577 14.3825 22.5311 13.9562 22.4119 13.5637L22.2106 12.9041Z" fill="#3D4359"/>
<path d="M7.88281 7.66406V7.6637C8.24655 7.64469 8.60991 7.6268 8.97364 7.6104C8.97327 7.6104 8.97326 7.6104 8.97326 7.6104C8.6099 7.62717 8.24617 7.64506 7.88281 7.66406Z" fill="#6FD0F3"/>
<path d="M7.88281 7.66406C8.6155 5.76751 9.53936 3.87579 10.6533 2.0385C11.0204 2.01986 11.3871 2.00272 11.7542 1.98782C10.6365 3.824 9.70968 5.71458 8.97364 7.61076C8.60991 7.62716 8.24655 7.64506 7.88281 7.66406Z" fill="#4F556B"/>
<path d="M9.71094 7.57812C9.71094 7.57812 9.71094 7.57813 9.71094 7.57776C10.5413 7.54385 11.3723 7.51626 12.2027 7.49502C12.2027 7.49539 12.2027 7.49539 12.2027 7.49576C11.372 7.51663 10.5416 7.54421 9.71094 7.57812Z" fill="#6FD0F3"/>
<path d="M9.71094 7.57812C10.4488 5.68381 11.3768 3.79433 12.4952 1.96038C13.3266 1.93169 14.1585 1.91231 14.9899 1.90263C13.8719 3.72837 12.9432 5.60889 12.2027 7.49538C11.3723 7.51663 10.5413 7.54421 9.71094 7.57812Z" fill="#4F556B"/>
</svg>
