<svg width="35" height="22" viewBox="0 0 35 22" fill="none" xmlns="http://www.w3.org/2000/svg">
<path d="M23.4287 3.03831L21.7402 1.81555L20.6881 1.7317L17.1719 6.39538L19.2171 7.28906L23.526 5.19275L23.4287 3.03831Z" fill="#3D4359"/>
<path d="M4.68145 12.0656C3.29025 13.2668 2.40625 15.0392 2.40625 17.0215L14.2775 18.1328V12.0656H4.68145Z" fill="#3D4359"/>
<path d="M20.6881 1.73549C22.0453 1.73549 19.4403 6.39917 17.1719 6.39917C2.11795 6.67719 1.54998 12.8387 1.46538 13.7812C1.39308 14.7117 2.22677 14.6391 2.22677 14.6391C1.54999 15.8592 1.68302 17.0555 1.68302 17.0555L1.69012 17.0566C2.69038 17.2284 3.60343 16.6053 3.94853 15.6509C4.26716 14.7702 4.8411 13.963 5.66621 13.3339C7.37158 12.0344 9.81634 11.9901 11.5709 13.2218C13.0184 14.2381 13.7436 15.8078 13.7395 17.3782C13.7369 18.2991 14.448 19.0579 15.3688 19.0661L33.7716 19.1406C34.9888 13.2616 34.7965 5.77233 33.1944 0.403912C26.693 0.00589371 20.6881 1.73549 20.6881 1.73549Z" fill="#F03C54"/>
<path d="M30.4493 2.01661V6.46264C30.4493 6.86141 30.1232 7.1875 29.7245 7.1875H20.7597C20.3367 7.1875 20.071 6.71644 20.2887 6.35382L22.5359 2.47575C22.6443 2.29463 22.8135 2.16158 23.0189 2.12506C24.6139 1.79896 27.0062 1.40057 29.6883 1.29175C30.099 1.27945 30.4493 1.60592 30.4493 2.01661Z" fill="#3D4359"/>
<path d="M33.4516 1.34691C33.1538 1.32529 32.8564 1.30405 32.5501 1.29175C32.1394 1.26753 31.7891 1.60592 31.7891 2.01661V6.46264C31.7891 6.86141 32.1152 7.1875 32.5139 7.1875H34.4041C34.2316 5.12548 33.9129 3.13948 33.4516 1.34691Z" fill="#3D4359"/>
<path d="M8.69698 21.5078C6.41358 21.5078 4.5625 19.6567 4.5625 17.3733C4.5625 15.0903 6.41358 13.2392 8.69698 13.2392C10.9804 13.2392 12.8311 15.0903 12.8311 17.3733C12.8311 19.6567 10.98 21.5078 8.69698 21.5078Z" fill="#4C576D"/>
<path d="M8.70015 19.7031C7.41143 19.7031 6.36719 18.6585 6.36719 17.3702C6.36719 16.0818 7.41143 15.0376 8.70015 15.0376C9.98849 15.0376 11.0327 16.0818 11.0327 17.3702C11.0327 18.6589 9.98849 19.7031 8.70015 19.7031Z" fill="white"/>
<path d="M8.6987 18.6641C7.98502 18.6641 7.40625 18.0853 7.40625 17.3716C7.40625 16.6579 7.98502 16.0795 8.6987 16.0795C9.412 16.0795 9.99077 16.6579 9.99077 17.3716C9.99077 18.0853 9.412 18.6641 8.6987 18.6641Z" fill="#4C576D"/>
<path d="M2.80608 10.0072C3.45491 10.0072 3.46423 13.5472 2.80608 13.5469C1.96047 13.5469 1.96047 10.0072 2.80608 10.0072Z" fill="white"/>
<path d="M3.46396 13.5906C3.45427 13.6636 3.39129 13.7188 3.31788 13.7188H2.95861C2.87066 13.7188 2.80283 13.6416 2.81363 13.5537C2.95525 12.3719 2.95525 11.1954 2.81363 10.0136C2.80283 9.92564 2.87066 9.8485 2.95861 9.8485H3.31788C3.39129 9.8485 3.45427 9.90365 3.46396 9.9767C3.61825 11.1834 3.61825 12.3838 3.46396 13.5906Z" fill="#F03C54"/>
<path d="M30.9464 17.3203H18.4308C18.0779 17.3203 17.7891 17.0311 17.7891 16.6782C17.7891 16.3253 18.0779 16.0364 18.4308 16.0364H30.9464C31.2994 16.0364 31.5882 16.3253 31.5882 16.6782C31.5882 17.0311 31.2994 17.3203 30.9464 17.3203Z" fill="#EE2641"/>
<path d="M1.9693 17.0938H0.263916C0.212859 17.0938 0.171875 17.0524 0.171875 17.0013V15.6004C0.171875 15.5494 0.213232 15.508 0.263916 15.508H1.9693C2.02035 15.508 2.06172 15.5494 2.06172 15.6004V17.0013C2.06172 17.0524 2.02035 17.0938 1.9693 17.0938Z" fill="white"/>
</svg>
