<svg width="32" height="16" viewBox="0 0 32 16" fill="none" xmlns="http://www.w3.org/2000/svg">
<path d="M31.4235 9.04373L30.7232 13.1331L25.4081 13.8125H6.63112L1.4375 12.8182V10.0731C1.4375 9.1067 2.17949 8.30135 3.14585 8.22421L9.81267 7.70618L12.2429 0.997251C12.411 0.535131 12.8869 0.254886 13.3773 0.324948L23.7974 1.87976C24.1548 1.92858 24.4559 2.16672 24.6027 2.49579L26.3394 6.56468L30.5551 7.64991C31.1715 7.8042 31.5498 8.42024 31.4235 9.04373Z" fill="#46AD96"/>
<path d="M31.7393 9.6544L31.4032 10.6275C31.3402 10.8026 31.1792 10.9219 30.9902 10.9219H29.9885C29.8208 10.9219 29.7086 10.7605 29.7645 10.6066L30.1007 9.63316C30.1636 9.45801 30.3247 9.33912 30.5069 9.33912H31.5153C31.6763 9.33912 31.7952 9.50011 31.7393 9.6544Z" fill="#F03C54"/>
<path d="M20.2312 7.61068L24.2118 6.92793C24.8454 6.81911 25.2113 6.14717 24.959 5.5561L23.8056 2.85457C23.7776 2.7983 23.7285 2.75655 23.6726 2.74947L19.8768 2.18412C19.5947 2.14238 19.3469 2.37307 19.3685 2.65705L19.7132 7.20669C19.733 7.46757 19.973 7.65503 20.2312 7.61068Z" fill="#3D4359"/>
<path d="M18.5995 2.34554C18.5872 2.13535 18.4295 1.96244 18.2212 1.9315L13.2337 1.18875C13.1565 1.18875 13.0935 1.23087 13.0726 1.29385L10.9995 7.01295C10.8802 7.34091 11.1232 7.6875 11.4724 7.6875H18.4351C18.6904 7.6875 18.8931 7.47283 18.8786 7.21792L18.5995 2.34554Z" fill="#3D4359"/>
<path d="M10.2455 13.8125C10.285 13.6116 10.3077 13.4052 10.3077 13.1927C10.3077 11.4251 8.87477 9.99219 7.10716 9.99219C5.33918 9.99219 3.90625 11.4251 3.90625 13.1927C3.90625 13.227 3.91518 13.2583 3.91629 13.2922L6.63349 13.8125H10.2455Z" fill="#313748"/>
<path d="M9.60212 13.1913C9.60212 14.5698 8.48446 15.6875 7.10593 15.6875C5.72702 15.6875 4.60938 14.5698 4.60938 13.1913C4.60938 11.8124 5.72702 10.6947 7.10593 10.6947C8.48446 10.6947 9.60212 11.8124 9.60212 13.1913Z" fill="#3D4359"/>
<path d="M8.68336 13.1899C8.68336 14.0601 7.9775 14.7656 7.1073 14.7656C6.23673 14.7656 5.53125 14.0601 5.53125 13.1899C5.53125 12.3194 6.23673 11.6135 7.1073 11.6135C7.9775 11.6135 8.68336 12.3194 8.68336 13.1899Z" fill="white"/>
<path d="M7.77915 13.1926C7.77915 13.5653 7.4769 13.8672 7.1046 13.8672C6.73192 13.8672 6.42969 13.5653 6.42969 13.1926C6.42969 12.82 6.73192 12.5177 7.1046 12.5177C7.4769 12.5177 7.77915 12.82 7.77915 13.1926Z" fill="#3D4359"/>
<path d="M28.2191 13.454C28.2262 13.3664 28.2456 13.2825 28.2456 13.1927C28.2456 11.4251 26.8123 9.99219 25.0447 9.99219C23.2767 9.99219 21.8438 11.4251 21.8438 13.1927C21.8438 13.4052 21.8668 13.6116 21.9063 13.8125H25.4144L28.2191 13.454Z" fill="#313748"/>
<path d="M27.54 13.1913C27.54 14.5698 26.4223 15.6875 25.0434 15.6875C23.6645 15.6875 22.5469 14.5698 22.5469 13.1913C22.5469 11.8124 23.6645 10.6947 25.0434 10.6947C26.4223 10.6947 27.54 11.8124 27.54 13.1913Z" fill="#3D4359"/>
<path d="M26.6209 13.1899C26.6209 14.0601 25.9154 14.7656 25.0448 14.7656C24.1742 14.7656 23.4688 14.0601 23.4688 13.1899C23.4688 12.3194 24.1742 11.6135 25.0448 11.6135C25.9154 11.6135 26.6209 12.3194 26.6209 13.1899Z" fill="white"/>
<path d="M25.7163 13.1926C25.7163 13.5653 25.4144 13.8672 25.0417 13.8672C24.669 13.8672 24.3672 13.5653 24.3672 13.1926C24.3672 12.82 24.669 12.5177 25.0417 12.5177C25.4144 12.5177 25.7163 12.82 25.7163 13.1926Z" fill="#3D4359"/>
<path d="M3.00057 12.2917V13.0132C3.00057 13.1809 2.86045 13.3281 2.68529 13.3281H1.29185C1.11669 13.3281 0.976562 13.1809 0.976562 13.0132V12.2917C0.976562 12.1169 1.11669 11.9764 1.29185 11.9764H2.68529C2.86045 11.9764 3.00057 12.1169 3.00057 12.2917Z" fill="white"/>
<path d="M31.4533 12.2917V13.0132C31.4533 13.1809 31.3132 13.3281 31.1384 13.3281H29.7446C29.5694 13.3281 29.4297 13.1809 29.4297 13.0132V12.2917C29.4297 12.1169 29.5694 11.9764 29.7446 11.9764H31.1384C31.3132 11.9764 31.4533 12.1169 31.4533 12.2917Z" fill="white"/>
<path d="M12.7904 7.6875H12.2344L14.6277 1.39634L14.8748 1.43323L15.1539 1.4746L12.7904 7.6875Z" fill="#4F556B"/>
<path d="M14.6923 7.6875H13.2031L15.5439 1.53348L16.9534 1.7433L14.6923 7.6875Z" fill="#4F556B"/>
<path d="M19.556 12.6484H12.5724C12.3864 12.6484 12.2344 12.4964 12.2344 12.3104C12.2344 12.1248 12.3864 11.9724 12.5724 11.9724H19.556C19.7416 11.9724 19.8936 12.1248 19.8936 12.3104C19.8936 12.4964 19.7416 12.6484 19.556 12.6484Z" fill="#38907A"/>
</svg>
