<svg width="24" height="26" viewBox="0 0 24 26" fill="none" xmlns="http://www.w3.org/2000/svg">
<path d="M23.8857 3.36847V5.98761C23.8857 6.36886 23.5749 6.67969 23.1936 6.67969H20.8252C20.444 6.67969 20.1328 6.36886 20.1328 5.98761V3.36847C20.1328 2.98722 20.444 2.67603 20.8252 2.67603H23.1936C23.5749 2.67603 23.8857 2.98722 23.8857 3.36847Z" fill="#46AD96"/>
<path d="M23.8857 7.8294V10.4486C23.8857 10.8298 23.5749 11.1406 23.1936 11.1406H20.8252C20.444 11.1406 20.1328 10.8298 20.1328 10.4486V7.8294C20.1328 7.44816 20.444 7.13697 20.8252 7.13697H23.1936C23.5749 7.13697 23.8857 7.44816 23.8857 7.8294Z" fill="white"/>
<path d="M23.8857 12.2982V14.9169C23.8857 15.2986 23.5749 15.6094 23.1936 15.6094H20.8252C20.444 15.6094 20.1328 15.2986 20.1328 14.9169V12.2982C20.1328 11.9169 20.444 11.6057 20.8252 11.6057H23.1936C23.5749 11.6057 23.8857 11.9169 23.8857 12.2982Z" fill="#F14B68"/>
<path d="M23.8857 16.7591V19.3779C23.8857 19.7595 23.5749 20.0703 23.1936 20.0703H20.8252C20.444 20.0703 20.1328 19.7595 20.1328 19.3779V16.7591C20.1328 16.3778 20.444 16.0667 20.8252 16.0667H23.1936C23.5749 16.0667 23.8857 16.3778 23.8857 16.7591Z" fill="#3D4359"/>
<path d="M22.3034 1.39865V24.3108C22.3034 25.0785 21.6792 25.7031 20.9033 25.7031H3.84546C3.06954 25.7031 2.44531 25.0785 2.44531 24.3108V1.39865C2.44531 0.622734 3.06954 -0.00151253 3.84546 -0.00151253H20.9033C21.6792 -0.00151253 22.3034 0.622734 22.3034 1.39865Z" fill="#F9DF27"/>
<path d="M18.0448 10.3281V4.48714H7.97656V10.3281H18.0448Z" fill="white"/>
<path d="M4.3611 8.82182V8.85537C4.3611 9.29438 4.00669 9.64844 3.56804 9.64844H1.32416C0.885442 9.64844 0.53125 9.29438 0.53125 8.85537V8.82182C0.53125 8.38317 0.885442 8.02878 1.32416 8.02878H3.56804C4.00669 8.02878 4.3611 8.38317 4.3611 8.82182Z" fill="#3D4359"/>
<path d="M4.3611 12.8297V12.8718C4.3611 13.3022 4.00669 13.6562 3.56804 13.6562H1.32416C0.885442 13.6562 0.53125 13.3022 0.53125 12.8718V12.8297C0.53125 12.3996 0.885442 12.0452 1.32416 12.0452H3.56804C4.00669 12.0452 4.3611 12.3996 4.3611 12.8297Z" fill="#3D4359"/>
<path d="M4.3611 4.80623V4.83975C4.3611 5.27839 4.00669 5.63281 3.56804 5.63281H1.32416C0.885442 5.63281 0.53125 5.27839 0.53125 4.83975V4.80623C0.53125 4.36721 0.885442 4.0128 1.32416 4.0128H3.56804C4.00669 4.0128 4.3611 4.36721 4.3611 4.80623Z" fill="#3D4359"/>
<path d="M4.3611 16.8449V16.8784C4.3611 17.3175 4.00669 17.6719 3.56804 17.6719H1.32416C0.885442 17.6719 0.53125 17.3175 0.53125 16.8784V16.8449C0.53125 16.4145 0.885442 16.0519 1.32416 16.0519H3.56804C4.00669 16.0519 4.3611 16.4145 4.3611 16.8449Z" fill="#3D4359"/>
<path d="M4.3611 20.8609V20.8944C4.3611 21.3331 4.00669 21.6875 3.56804 21.6875H1.32416C0.885442 21.6875 0.53125 21.3331 0.53125 20.8944V20.8609C0.53125 20.4219 0.885442 20.0678 1.32416 20.0678H3.56804C4.00669 20.0678 4.3611 20.4219 4.3611 20.8609Z" fill="#3D4359"/>
<path d="M9.21094 5.61559V6.3125H16.8199V5.61559H9.21094Z" fill="#E8EBEE"/>
<path d="M9.21094 7.0609V7.75781H16.8199V7.0609H9.21094Z" fill="#E8EBEE"/>
<path d="M9.21094 8.50661V9.20312H16.8199V8.50661H9.21094Z" fill="#E8EBEE"/>
</svg>
