<svg width="44" height="142" viewBox="0 0 44 142" fill="none" xmlns="http://www.w3.org/2000/svg">
<g filter="url(#filter0_d_2_970)">
<path d="M9.69457 2.30538C9.69457 3.0261 10.2222 3.61076 10.8722 3.61076H25.794C26.4448 3.61076 26.9716 3.0261 26.9716 2.30538C26.9716 1.58374 26.4448 1 25.794 1H10.8749C10.225 1 9.69733 1.58374 9.69733 2.30538H9.69457Z" fill="#385459"/>
<path d="M6.64623 7.25758C7.37614 5.64516 9.8582 2.07467 11.1719 1.84393C12.1481 1.67294 16.1452 1.7566 18.1363 1.80992C20.2066 1.7566 24.3617 1.67294 25.3766 1.84393C26.7426 2.07467 29.3231 5.64516 30.0824 7.25758C30.8417 8.87 31.2968 23.3836 31.2968 23.3836H5.47875C5.47875 23.3836 5.91632 8.87 6.64623 7.25758Z" fill="#636363"/>
<path d="M18.3882 2.91955C18.3882 2.91955 23.5978 2.65664 24.5998 3.34794C25.6019 4.03924 29.4307 13.7799 29.4307 13.7799L18.3882 14.2092V2.91955Z" fill="black"/>
<path d="M18.3883 2.91955C18.3883 2.91955 13.1787 2.65664 12.1767 3.34794C11.1747 4.03924 7.34499 13.7799 7.34499 13.7799L18.3883 14.2092V2.91955Z" fill="#252222"/>
<path d="M7.25484 23.1565C7.25484 23.9205 7.99025 24.5355 8.89391 24.5355H27.8817C28.7872 24.5355 29.5208 23.9168 29.5208 23.1565V14.2395C29.5208 13.4756 28.7853 12.8606 27.8817 12.8606H8.89299C7.98749 12.8606 7.25392 13.4793 7.25392 14.2395L7.25484 23.1565Z" fill="#40413C"/>
<path d="M8.20909 24.2725C8.20909 25.0364 8.89029 25.6514 9.73143 25.6514H27.3623C28.2026 25.6514 28.8846 25.0328 28.8846 24.2725V15.3555C28.8846 14.5916 28.2026 13.9766 27.3623 13.9766H9.73327C8.89213 13.9766 8.21093 14.5952 8.21093 15.3555L8.20909 24.2725Z" fill="#385459"/>
<path d="M5.48614 21.3446C5.70401 18.3836 11.3971 16.0128 18.3883 16.0128C25.3794 16.0128 31.0744 18.3855 31.2904 21.3446H31.2977V39.5584H5.4788V21.3446H5.48614Z" fill="#2C2A2A"/>
<path d="M27.3081 23.9701H27.3017C27.1123 21.3896 22.1739 19.3222 16.1085 19.3222C12.4966 19.3222 9.28465 20.0576 7.23741 21.1938C8.00593 18.8635 12.6741 17.0699 18.323 17.0699C24.3903 17.0699 29.3259 19.1374 29.5153 21.7178H29.5217V37.5892H27.3081V23.9701Z" fill="black"/>
<path d="M11.125 31.4456C11.125 32.2086 11.8605 32.8245 12.7641 32.8245H22.0489C22.9544 32.8245 23.6888 32.2049 23.6888 31.4456V26.8382C23.6888 26.0751 22.9534 25.4592 22.0489 25.4592H12.7641C11.8595 25.4592 11.125 26.0779 11.125 26.8382V31.4456Z" fill="#71798E"/>
<path d="M11.125 30.8123C11.125 31.5753 11.8605 32.1912 12.7641 32.1912H22.0489C22.9544 32.1912 23.6888 31.5725 23.6888 30.8123V26.2048C23.6888 25.4418 22.9534 24.8259 22.0489 24.8259H12.7641C11.8595 24.8259 11.125 25.4455 11.125 26.2048V30.8123Z" fill="black"/>
<path d="M28.937 14.1155L31.5542 12.8947L36.1478 13.0684L36.032 13.7082L31.7868 13.4177L29.461 15.0458L28.937 14.1155Z" fill="#40413C"/>
<path d="M8.21082 14.1155L5.59362 12.8947L0.999977 13.0684L1.11581 13.7082L5.36104 13.4177L7.68775 15.0458L8.21082 14.1155Z" fill="#40413C"/>
<path d="M1 36H36V135H1V36Z" fill="black"/>
<path d="M2.46262 39.6161H34.632V130.58H2.46262V39.6161Z" fill="#636363"/>
<path d="M2.46262 50.0989H34.632V51.4475H2.46262V50.0989Z" fill="black"/>
<path d="M2.46262 63.8503H34.632V65.1989H2.46262V63.8503Z" fill="black"/>
<path d="M2.46262 77.6018H34.632V78.9504H2.46262V77.6018Z" fill="black"/>
<path d="M2.46262 91.3534H34.632V92.702H2.46262V91.3534Z" fill="black"/>
<path d="M2.46262 105.104H34.632V106.453H2.46262V105.104Z" fill="black"/>
<path d="M2.46262 118.856H34.632V120.204H2.46262V118.856Z" fill="black"/>
</g>
<defs>
<filter id="filter0_d_2_970" x="0" y="0" width="43.1478" height="142" filterUnits="userSpaceOnUse" color-interpolation-filters="sRGB">
<feFlood flood-opacity="0" result="BackgroundImageFix"/>
<feColorMatrix in="SourceAlpha" type="matrix" values="0 0 0 0 0 0 0 0 0 0 0 0 0 0 0 0 0 0 127 0" result="hardAlpha"/>
<feOffset dx="3" dy="3"/>
<feGaussianBlur stdDeviation="2"/>
<feComposite in2="hardAlpha" operator="out"/>
<feColorMatrix type="matrix" values="0 0 0 0 0 0 0 0 0 0 0 0 0 0 0 0 0 0 0.25 0"/>
<feBlend mode="normal" in2="BackgroundImageFix" result="effect1_dropShadow_2_970"/>
<feBlend mode="normal" in="SourceGraphic" in2="effect1_dropShadow_2_970" result="shape"/>
</filter>
</defs>
</svg>
