<svg width="33" height="65" viewBox="0 0 33 65" fill="none" xmlns="http://www.w3.org/2000/svg">
<g filter="url(#filter0_d_13_23021)">
<path d="M25.2017 50.1978C25.0292 51.6896 24.7968 52.8485 24.4922 53.4138C23.3284 55.5559 13.6018 55.4239 13.6018 55.4239C11.9285 55.4604 4.06215 55.5292 2.98339 53.6511C2.64648 53.0639 2.38003 51.8102 2.17351 50.1978H1.96051C2.19376 52.7246 2.52743 54.7922 2.98663 55.5989C4.06539 57.4778 11.9318 57.4081 13.605 57.3725C13.605 57.3725 23.3317 57.5037 24.4955 55.3616C24.9255 54.5687 25.2058 52.608 25.3864 50.1978H25.2017Z" fill="#385459"/>
<path d="M22.6741 2.16121C21.5767 0.827338 14.0893 0.998233 13.4204 1.01686C12.7482 0.998233 5.26322 0.827338 4.16583 2.16121C3.01661 3.55745 1 6.1426 1 9.10434V11.2036C1 8.24181 3.01661 5.65748 4.16583 4.26043C5.26322 2.92656 12.7506 3.09744 13.4204 3.11607C14.0917 3.09744 21.5767 2.92656 22.6741 4.26043C23.8241 5.65748 25.8399 8.24181 25.8399 11.2036V9.10434C25.8399 6.1426 23.8241 3.55745 22.6741 2.16121Z" fill="#385459"/>
<path d="M25.8666 10.2852C25.8666 7.32342 23.8508 4.73909 22.7016 3.34204C21.6034 2.00817 14.1168 2.17986 13.4471 2.19768C12.7749 2.17986 5.29075 2.00817 4.19255 3.34204C3.04332 4.73909 1.02753 7.32342 1.02753 10.2852V34.3265C1.02753 34.3265 1.02753 52.0435 2.65863 54.823C3.76169 56.7011 11.7998 56.6323 13.5111 56.5958C13.5111 56.5958 23.4507 56.7279 24.6396 54.5857C26.0934 51.9658 25.8731 36.6063 25.8326 34.3265H25.8682L25.8666 10.2852Z" fill="#1F7284"/>
<path d="M21.0114 21.5717C20.1116 20.7051 6.78258 20.7051 5.8828 21.5717C4.82995 22.5881 5.37176 39.4401 6.1703 40.3504C6.79877 41.0664 20.0954 41.0664 20.7239 40.3504C21.5224 39.4409 22.0659 22.5881 21.0114 21.5717Z" fill="#00CAF6"/>
<path d="M21.3159 7.21167C20.3206 3.64252 13.443 3.76886 13.443 3.76886C13.443 3.76886 6.56633 3.64252 5.57099 7.21167C5.04133 9.10842 4.41205 15.6992 4.41205 15.6992C4.41205 15.6992 6.10389 15.3243 9.23004 14.8181C11.1511 14.5071 15.7358 14.5071 17.6569 14.8181C20.783 15.3243 22.4821 15.6984 22.4821 15.6984C22.4821 15.6984 21.8448 9.10842 21.3159 7.21167Z" fill="#FFD62C"/>
<path d="M21.9055 44.6136C21.9055 44.6136 19.2969 45.2559 17.946 45.3272C15.9634 45.4308 13.4787 45.5499 13.4787 45.5499C13.4787 45.5499 10.994 45.4308 9.01138 45.3272C7.65969 45.2559 5.05187 44.6136 5.05187 44.6136C5.05187 44.6136 5.00652 52.9028 5.43332 53.7694C6.29099 55.5106 13.4787 55.5106 13.4787 55.5106C13.4787 55.5106 20.6656 55.5106 21.5241 53.7694C21.9509 52.9028 21.9055 44.6136 21.9055 44.6136Z" fill="#FFD62C"/>
<path d="M4.44684 16.433C3.94633 16.7642 5.6155 20.7326 5.6155 20.7326C5.6155 20.7326 10.7931 20.2726 13.0883 20.2726C19.5771 20.2726 20.8097 21.0671 21.2049 20.7326C21.6001 20.3982 22.7113 16.9173 22.5153 16.6022C22.0796 15.9025 17.801 15.3186 13.6374 15.3064C8.76756 15.2862 5.31746 15.858 4.44684 16.433Z" fill="#385459"/>
<path d="M21.0592 40.8873C20.3303 40.8873 19.3625 41.1303 17.2616 41.2801C15.2677 41.4227 13.4203 41.468 13.4203 41.468C13.4203 41.468 11.573 41.4227 9.57827 41.2801C7.47743 41.1295 6.508 40.8898 5.78073 40.8873C5.0324 40.8873 4.11237 43.8402 4.55052 44.122C4.75137 44.2516 6.55903 44.6128 8.5076 44.8566C10.8117 45.1441 13.4203 45.1198 13.4203 45.1198C13.4203 45.1198 16.0282 45.1441 18.3323 44.8566C20.2809 44.6136 22.0885 44.2516 22.2894 44.122C22.7283 43.8402 21.8083 40.8849 21.0592 40.8873Z" fill="#385459"/>
<path d="M2.48613 17.0987C2.08118 17.2777 2.36464 28.6047 2.36464 29.8138C2.36464 30.2188 4.42903 30.3807 4.52298 29.8705C4.61693 29.3603 4.91577 21.5676 4.78619 20.7188C4.43713 18.4544 2.99473 16.8727 2.48613 17.0987Z" fill="#385459"/>
<path d="M2.47078 31.0271C2.74938 30.6116 4.36996 30.7695 4.43718 31.0271C4.5044 31.2846 5.02677 40.2014 4.81377 40.7457C4.60078 41.2899 3.37461 44.4355 2.9227 44.0718C2.47078 43.7082 2.07556 31.6167 2.47078 31.0271Z" fill="#385459"/>
<path d="M24.3732 17.0987C24.7781 17.2777 24.4947 28.6047 24.4947 29.8138C24.4947 30.2188 22.4303 30.3807 22.3364 29.8705C22.2424 29.3603 21.9436 21.5676 22.0731 20.7188C22.4222 18.4544 23.8646 16.8727 24.3732 17.0987Z" fill="#385459"/>
<path d="M24.3886 31.0271C24.11 30.6116 22.4894 30.7695 22.4222 31.0271C22.355 31.2846 21.8326 40.2014 22.0456 40.7457C22.2586 41.2899 23.4848 44.4355 23.9367 44.0718C24.3886 43.7082 24.7838 31.6167 24.3886 31.0271Z" fill="#385459"/>
<path d="M19.3746 3.82071C19.4054 3.53968 19.4272 3.07076 19.7698 2.92984C20.1278 2.78001 20.7417 2.8691 21.1345 2.90554C22.044 2.98653 22.6894 3.53239 23.0677 4.23132C23.2377 4.54555 23.6257 6.17504 22.8466 6.05679L22.7931 6.10376C22.5501 5.94179 22.3987 5.59435 22.1719 5.38135C21.9234 5.1521 21.6352 4.9699 21.3216 4.84359C20.8988 4.6638 20.5586 4.51072 20.0913 4.47023C19.5455 4.42083 19.3179 4.33985 19.3746 3.82071Z" fill="#385459"/>
<path d="M19.2143 4.10009C19.245 3.81987 19.2669 3.35095 19.6087 3.20922C19.9666 3.0602 20.5805 3.14928 20.9741 3.18573C21.8836 3.26671 22.5291 3.81257 22.9065 4.51069C23.0766 4.82493 23.4653 6.45441 22.6862 6.33698L22.6328 6.38314C22.3898 6.22116 22.2384 5.87454 22.0116 5.66154C21.7632 5.43202 21.475 5.24978 21.1612 5.12378C20.7385 4.94398 20.3983 4.79092 19.931 4.75042C19.3876 4.70102 19.1576 4.61598 19.2143 4.10009Z" fill="#CECDB6"/>
<path opacity="0.5" d="M21.6163 3.61575C21.6763 3.72833 21.6496 4.06038 21.5094 4.14784C21.3564 4.24341 21.0235 4.15756 20.8672 4.13003C20.5287 4.07091 19.8743 4.14704 19.7228 3.80608C19.5034 3.30719 20.1869 3.33473 20.519 3.36307C20.7846 3.38575 21.4098 3.4392 21.5969 3.61332C21.6277 3.64248 21.6423 3.72751 21.6431 3.71294L21.6163 3.61575Z" fill="white"/>
<path d="M7.48474 3.82071C7.45396 3.53968 7.4321 3.07076 7.08952 2.92984C6.73155 2.78001 6.11766 2.8691 5.72487 2.90554C4.81537 2.98653 4.16989 3.53239 3.79168 4.23132C3.6216 4.54555 3.23367 6.17504 4.01277 6.05679L4.06623 6.10376C4.30919 5.94179 4.46064 5.59435 4.68741 5.38135C4.93598 5.1521 5.22411 4.9699 5.53778 4.84359C5.96054 4.6638 6.30069 4.51072 6.76799 4.47023C7.31142 4.42083 7.54143 4.33985 7.48474 3.82071Z" fill="#385459"/>
<path d="M7.64506 4.10009C7.61429 3.81987 7.59242 3.35095 7.25065 3.20922C6.89268 3.0602 6.27879 3.14928 5.88519 3.18573C4.97569 3.26671 4.33021 3.81257 3.95281 4.51069C3.78192 4.82493 3.39399 6.45441 4.1731 6.33698L4.22655 6.38314C4.46951 6.22116 4.62096 5.87454 4.84773 5.66154C5.09609 5.43202 5.38428 5.24978 5.6981 5.12378C6.12086 4.94398 6.46101 4.79092 6.92832 4.75042C7.47175 4.70102 7.70175 4.61598 7.64506 4.10009Z" fill="#CECDB6"/>
<path opacity="0.5" d="M5.24295 3.61575C5.18302 3.72833 5.20975 4.06038 5.34986 4.14784C5.50292 4.24341 5.83579 4.15756 5.99209 4.13003C6.33062 4.07091 6.98501 4.14704 7.13646 3.80608C7.35593 3.30719 6.67239 3.33473 6.34034 3.36307C6.0747 3.38575 5.44947 3.4392 5.26239 3.61332C5.23161 3.64248 5.21704 3.72751 5.21623 3.71294L5.24295 3.61575Z" fill="white"/>
<path d="M6.54124 55.6523C6.49427 55.0968 6.27722 55.0433 5.77833 54.8894C5.31589 54.7461 4.85587 54.5145 4.39586 54.3743C4.04518 54.2666 3.34301 53.9888 2.99072 54.218C2.81011 54.3347 2.73236 54.6019 2.69916 54.8732C3.19805 55.6175 4.80971 56.0468 6.65786 56.2913C6.63033 56.0581 6.5542 55.8005 6.54124 55.6523Z" fill="#F71E1E"/>
<path d="M20.7239 55.483C20.7716 54.9275 20.9879 54.874 21.4876 54.7201C21.9492 54.5768 22.4092 54.3452 22.8692 54.2042C23.2207 54.0973 23.9221 53.8195 24.2752 54.0487C24.4558 54.1646 24.5327 54.4326 24.5668 54.7031C24.0671 55.4482 22.4562 55.8775 20.6072 56.122C20.6348 55.8888 20.7117 55.6321 20.7239 55.483Z" fill="#F71E1E"/>
<path opacity="0.2" d="M9.91922 15.4141L8.18121 20.5261L9.54668 20.4298L11.9026 15.3226L9.91922 15.4141Z" fill="#CECDB6"/>
<path opacity="0.2" d="M11.7698 20.3058L15.0636 15.3032L17.1118 15.4425L13.7832 20.2758L11.7698 20.3058Z" fill="#CECDB6"/>
<path opacity="0.2" d="M16.3432 20.3504L19.1211 15.6474L19.8816 15.7575L17.1118 20.3966L16.3432 20.3504Z" fill="#CECDB6"/>
<path opacity="0.2" d="M7.97468 15.5915L5.61792 20.7334L6.21561 20.6816L8.79671 15.504L7.97468 15.5915Z" fill="#CECDB6"/>
<path d="M13.1491 7.91705H12.025V9.04117H13.1491V7.91705Z" fill="#231F20"/>
<path d="M14.3396 9.0412H13.2155V10.1653H14.3396V9.0412Z" fill="#231F20"/>
<path d="M15.4961 7.91705H14.3719V9.04117H15.4961V7.91705Z" fill="#231F20"/>
<path d="M11.969 9.0412H10.8449V10.1653H11.969V9.0412Z" fill="#231F20"/>
<path d="M16.6202 9.0412H15.4961V10.1653H16.6202V9.0412Z" fill="#231F20"/>
<path d="M10.8304 7.91705H9.70624V9.04117H10.8304V7.91705Z" fill="#231F20"/>
<path d="M17.7209 7.91705H16.5967V9.04117H17.7209V7.91705Z" fill="#231F20"/>
<path d="M13.1061 50.1978H11.982V51.3219H13.1061V50.1978Z" fill="#231F20"/>
<path d="M14.2967 49.0736H13.1725V50.1977H14.2967V49.0736Z" fill="#231F20"/>
<path d="M15.4532 50.1978H14.329V51.3219H15.4532V50.1978Z" fill="#231F20"/>
<path d="M11.9261 49.0736H10.802V50.1977H11.9261V49.0736Z" fill="#231F20"/>
<path d="M16.5772 49.0736H15.4531V50.1977H16.5772V49.0736Z" fill="#231F20"/>
<path d="M10.7874 50.1978H9.66333V51.3219H10.7874V50.1978Z" fill="#231F20"/>
<path d="M17.6779 50.1978H16.5538V51.3219H17.6779V50.1978Z" fill="#231F20"/>
</g>
<defs>
<filter id="filter0_d_13_23021" x="0" y="0" width="32.8682" height="64.3842" filterUnits="userSpaceOnUse" color-interpolation-filters="sRGB">
<feFlood flood-opacity="0" result="BackgroundImageFix"/>
<feColorMatrix in="SourceAlpha" type="matrix" values="0 0 0 0 0 0 0 0 0 0 0 0 0 0 0 0 0 0 127 0" result="hardAlpha"/>
<feOffset dx="3" dy="3"/>
<feGaussianBlur stdDeviation="2"/>
<feComposite in2="hardAlpha" operator="out"/>
<feColorMatrix type="matrix" values="0 0 0 0 0 0 0 0 0 0 0 0 0 0 0 0 0 0 0.25 0"/>
<feBlend mode="normal" in2="BackgroundImageFix" result="effect1_dropShadow_13_23021"/>
<feBlend mode="normal" in="SourceGraphic" in2="effect1_dropShadow_13_23021" result="shape"/>
</filter>
</defs>
</svg>
