<svg width="25" height="24" viewBox="0 0 25 24" fill="none" xmlns="http://www.w3.org/2000/svg">
<path d="M18.3904 6.75H3.9236C2.74041 6.75 1.78125 7.70909 1.78125 8.89219V15.1078C1.78125 16.2909 2.74041 17.25 3.9236 17.25H18.3904C19.5735 17.25 20.5327 16.2909 20.5327 15.1078V8.89219C20.5327 7.70909 19.5735 6.75 18.3904 6.75Z" stroke="#9C4900" stroke-width="1.5" stroke-miterlimit="10" stroke-linecap="square"/>
<path d="M11.3427 9.32812H4.48438C4.38082 9.32812 4.29688 9.41207 4.29688 9.51562V14.4905C4.29688 14.594 4.38082 14.678 4.48438 14.678H11.3427C11.4462 14.678 11.5302 14.594 11.5302 14.4905V9.51562C11.5302 9.41207 11.4462 9.32812 11.3427 9.32812Z" fill="#9C4900" stroke="#9C4900" stroke-width="1.5" stroke-miterlimit="10" stroke-linecap="square"/>
<path d="M22.7812 10.25V13.7497" stroke="#9C4900" stroke-width="1.5" stroke-miterlimit="10" stroke-linecap="round"/>
</svg>
