<svg width="25" height="24" viewBox="0 0 25 24" fill="none" xmlns="http://www.w3.org/2000/svg">
<g clip-path="url(#clip0_484_4596)">
<path fill-rule="evenodd" clip-rule="evenodd" d="M12.2807 1.5C12.5192 1.49974 12.7517 1.5753 12.9445 1.71578C13.1373 1.85625 13.2804 2.05436 13.3533 2.2815L18.2826 17.685L20.2118 11.658C20.2843 11.4308 20.4271 11.2326 20.6196 11.0918C20.8121 10.9511 21.0444 10.8752 21.2829 10.875H23.158C23.4564 10.875 23.7426 10.9935 23.9536 11.2045C24.1646 11.4155 24.2831 11.7016 24.2831 12C24.2831 12.2984 24.1646 12.5845 23.9536 12.7955C23.7426 13.0065 23.4564 13.125 23.158 13.125H22.1034L19.3537 21.7185C19.2808 21.9452 19.1378 22.143 18.9454 22.2833C18.7529 22.4236 18.5208 22.4991 18.2826 22.4991C18.0445 22.4991 17.8124 22.4236 17.6199 22.2833C17.4275 22.143 17.2845 21.9452 17.2116 21.7185L12.2897 6.339L8.85442 17.214C8.78354 17.4381 8.64426 17.6344 8.45613 17.7753C8.26799 17.9161 8.04045 17.9946 7.80546 17.9995C7.57046 18.0045 7.33981 17.9357 7.14589 17.8029C6.95197 17.6701 6.80452 17.4799 6.72425 17.259L4.8281 12.045L4.72309 12.357C4.64851 12.5809 4.50538 12.7757 4.31396 12.9138C4.12255 13.0519 3.89255 13.1263 3.65651 13.1265H1.40634C1.10795 13.1265 0.821775 13.008 0.61078 12.797C0.399786 12.586 0.28125 12.2999 0.28125 12.0015C0.28125 11.7031 0.399786 11.417 0.61078 11.206C0.821775 10.995 1.10795 10.8765 1.40634 10.8765H2.84645L3.71352 8.271C3.78702 8.04908 3.92784 7.85556 4.1164 7.71735C4.30496 7.57914 4.5319 7.50311 4.76568 7.49981C4.99945 7.49651 5.22844 7.56611 5.42083 7.69894C5.61322 7.83178 5.75944 8.02124 5.83918 8.241L7.70683 13.3785L11.2096 2.2875C11.2813 2.05949 11.4238 1.86024 11.6164 1.71864C11.809 1.57705 12.0416 1.50046 12.2807 1.5Z" fill="#9C4900"/>
</g>
<defs>
<clipPath id="clip0_484_4596">
<rect width="24.0019" height="24" fill="white" transform="translate(0.28125)"/>
</clipPath>
</defs>
</svg>
