<svg width="30" height="25" viewBox="0 0 30 25" fill="none" xmlns="http://www.w3.org/2000/svg">
<path d="M11.5 3.24219H11.9009V1.58188H11.5V3.24219Z" fill="#3D4359"/>
<path d="M18.5156 3.24219H18.9167V1.58188H18.5156V3.24219Z" fill="#3D4359"/>
<path d="M23.7188 22.2488V24.3224C23.7188 24.5975 23.9416 24.8203 24.2166 24.8203H27.1373C27.4124 24.8203 27.6352 24.5975 27.6352 24.3224V22.2488H23.7188Z" fill="#3D4359"/>
<path d="M2.76562 22.2488V24.3224C2.76562 24.5975 2.98852 24.8203 3.26352 24.8203H6.18464C6.4593 24.8203 6.68216 24.5975 6.68216 24.3224V22.2488H2.76562Z" fill="#3D4359"/>
<path d="M28.5704 22.9026C28.5216 22.9612 28.3654 23.0197 28.2875 23.0391C27.0584 23.3707 23.6447 23.3514 23.6447 23.3514C23.4889 23.3514 23.3328 23.3219 23.1863 23.2537C22.9396 23.1393 22.6459 22.9708 22.3966 22.9708H8.01985C7.76009 22.9708 7.4694 23.1382 7.22008 23.2537C7.08368 23.3219 6.92753 23.3514 6.77138 23.3514C6.77138 23.3514 3.35769 23.361 2.12872 23.0391C2.05083 23.0197 1.88502 22.9612 1.846 22.9026C-0.202117 19.9473 0.831614 15.9876 1.10475 13.4516C1.52953 11.7697 2.61219 10.4888 4.00142 9.45273C5.03545 7.3363 6.20566 5.36595 7.54208 3.55176C7.54208 3.55176 8.16631 3.00578 8.77079 2.88876C13.0614 2.67783 17.3532 2.67783 21.6453 2.88876C22.2501 3.00578 22.8647 3.55176 22.8647 3.55176C24.2007 5.36595 25.3713 7.3363 26.4051 9.45273C27.8008 10.4761 28.8722 11.7779 29.3116 13.4516C29.5848 15.9876 30.5989 19.9376 28.5704 22.9026Z" fill="white"/>
<path d="M28.5704 22.9026C28.5216 22.9612 28.3654 23.0197 28.2875 23.0391C27.0584 23.3707 23.6447 23.3514 23.6447 23.3514C23.4889 23.3514 23.3328 23.3219 23.1863 23.2537C22.9396 23.1393 22.6459 22.9708 22.3966 22.9708H8.01985C7.76009 22.9708 7.4694 23.1382 7.22008 23.2537C7.08368 23.3219 6.92753 23.3514 6.77138 23.3514C6.77138 23.3514 3.35769 23.361 2.12872 23.0391C2.05083 23.0197 1.88502 22.9612 1.846 22.9026C-0.202117 19.9473 0.831614 15.9876 1.10475 13.4516C1.52953 11.7697 2.61219 10.4888 4.00142 9.45273C5.03545 7.3363 6.20566 5.36595 7.54208 3.55176C7.54208 3.55176 8.16631 3.00578 8.77079 2.88876C13.0614 2.67783 17.3532 2.67783 21.6453 2.88876C22.2501 3.00578 22.8647 3.55176 22.8647 3.55176C24.2007 5.36595 25.3713 7.3363 26.4051 9.45273C27.8008 10.4761 28.8722 11.7779 29.3116 13.4516C29.5848 15.9876 30.5989 19.9376 28.5704 22.9026Z" fill="#78D3EE"/>
<path d="M7.84991 19.7871L7.3781 21.2614C7.3412 21.3777 7.2268 21.4508 7.10605 21.4355C6.50529 21.3602 5.4808 21.2313 4.56364 21.1105C3.31044 20.9454 2.33172 19.966 2.14262 18.7347C2.12399 18.6125 2.23885 18.5085 2.36056 18.5297L7.65276 19.4607C7.8037 19.4871 7.89687 19.641 7.84991 19.7871Z" fill="#3D4359"/>
<path d="M28.055 18.5243C28.1765 18.5027 28.2917 18.6063 28.2734 18.7282C28.0901 19.961 27.1069 20.9393 25.8518 21.1036C24.929 21.2229 23.9075 21.3563 23.3086 21.4353C23.1871 21.4513 23.072 21.3776 23.0347 21.2605L22.5666 19.7851C22.5204 19.639 22.6132 19.4858 22.7638 19.4594L28.055 18.5243Z" fill="#3D4359"/>
<path d="M21.5903 21.7559C17.3373 21.9147 13.0802 21.9147 8.82763 21.7559C8.67931 21.7515 8.58055 21.599 8.63011 21.4596L9.4023 19.43C9.46528 19.265 9.6233 19.1561 9.79958 19.1561H20.6158C20.7939 19.1561 20.9534 19.2661 21.0164 19.4327L21.7834 21.4596C21.837 21.599 21.7383 21.7515 21.5903 21.7559Z" fill="#3D4359"/>
<path d="M25.6475 8.78125C22.3511 8.36348 8.06158 8.36348 4.76562 8.78125C5.66378 6.96669 6.5977 5.2874 7.59909 3.85036C7.84953 3.31892 22.4339 3.38563 22.8136 3.85036C23.815 5.2874 24.7489 6.96669 25.6475 8.78125Z" fill="#3D4359"/>
<path d="M25.6445 8.78184V8.78221C22.3851 8.36891 8.38246 8.3648 4.88414 8.76841C4.84463 8.77326 4.80476 8.77699 4.76562 8.78221L7.14554 13.9688H23.2627L25.6475 8.78221L25.6445 8.78184Z" fill="#50BBED"/>
<path d="M6.73314 15.6419C6.83674 15.8618 6.66867 16.1141 6.42941 16.1011L4.92268 16.0299C3.4222 15.9587 2.21291 14.7688 2.12875 13.262L2.10938 12.9516L5.2525 13.1715C5.42691 13.1845 5.58232 13.2877 5.65983 13.4495L6.73314 15.6419Z" fill="white"/>
<path d="M28.2971 12.9516L28.284 13.262C28.1935 14.7688 26.9908 15.9587 25.4904 16.0299L23.9837 16.1011C23.7444 16.1141 23.576 15.8618 23.6796 15.6419L24.7533 13.4495C24.8308 13.2877 24.9858 13.1845 25.1606 13.1715L28.2971 12.9516Z" fill="white"/>
<path d="M7.74219 8.58594V8.58556C7.88828 8.57997 8.0366 8.57474 8.18903 8.56952C8.0366 8.57474 7.88865 8.58035 7.74219 8.58594Z" fill="#84D7EF"/>
<path d="M7.74219 8.58594L11.0981 3.5235C11.2737 3.51828 11.4541 3.5138 11.6374 3.5097L8.28555 8.56656C8.25313 8.56768 8.22108 8.56879 8.18903 8.56991C8.0366 8.57512 7.88828 8.58035 7.74219 8.58594Z" fill="#4F556B"/>
<path d="M8.78906 8.55469V8.55431C9.26646 8.54052 9.76771 8.52822 10.2868 8.51778C9.76696 8.52822 9.26646 8.54053 8.78906 8.55469Z" fill="#84D7EF"/>
<path d="M8.78906 8.55469L12.1376 3.50344C12.6168 3.49487 13.1144 3.48853 13.6231 3.48481L10.2868 8.51817C9.76771 8.5286 9.26646 8.5409 8.78906 8.55469Z" fill="#4F556B"/>
<path d="M23.261 13.9732L21.5367 16.7485C21.2896 17.148 20.8539 17.3906 20.387 17.3906H10.0224C9.551 17.3906 9.11534 17.148 8.86825 16.7485L7.14388 13.9732C7.09021 13.8834 7.15729 13.7622 7.26537 13.7622H23.1444C23.2521 13.7622 23.3196 13.8834 23.261 13.9732Z" fill="#4C576D"/>
<path d="M21.7149 14.8281H8.69955C8.65409 14.8281 8.61719 14.7909 8.61719 14.7458V14.4786C8.61719 14.4331 8.65409 14.3962 8.69955 14.3962H21.7149C21.7604 14.3962 21.7973 14.4335 21.7973 14.4786V14.7458C21.7973 14.7909 21.7604 14.8281 21.7149 14.8281Z" fill="#3E4657"/>
<path d="M21.0567 15.7891H9.36361C9.31815 15.7891 9.28125 15.7522 9.28125 15.7067V15.4399C9.28125 15.3944 9.31815 15.3571 9.36361 15.3571H21.0567C21.1022 15.3571 21.1395 15.3944 21.1395 15.4399V15.7067C21.1395 15.7522 21.1022 15.7891 21.0567 15.7891Z" fill="#3E4657"/>
<path d="M20.3806 16.75H10.0277C9.98221 16.75 9.94531 16.7127 9.94531 16.6673V16.4004C9.94531 16.355 9.98221 16.3181 10.0277 16.3181H20.3806C20.4261 16.3181 20.463 16.355 20.463 16.4004V16.6673C20.463 16.7127 20.4261 16.75 20.3806 16.75Z" fill="#3E4657"/>
<path d="M20.2615 0.560744C20.2343 0.406828 20.1005 0.295011 19.9444 0.295011H16.4375V2.20312H20.1676C20.3678 2.20312 20.5194 2.02237 20.4848 1.82523L20.2615 0.560744Z" fill="#F03C54"/>
<path d="M13.9801 0.295011H10.4672C10.3111 0.295011 10.1773 0.406828 10.1501 0.560744L9.92683 1.82523C9.89217 2.02237 10.0438 2.20312 10.2436 2.20312H13.9801V0.295011Z" fill="#65CDF3"/>
<path d="M13.9766 2.19531H16.434V0.287235H13.9766V2.19531Z" fill="white"/>
<path d="M10.0296 2.11719C9.9502 2.0475 9.90734 1.93906 9.92635 1.82167L9.95207 1.67929C9.95244 1.68004 9.95244 1.68042 9.95281 1.68117L9.92784 1.82203C9.90772 1.93681 9.95058 2.04601 10.0296 2.11719ZM20.412 2.08849C20.4727 2.01843 20.5033 1.92265 20.4858 1.82203L20.4604 1.68042C20.4608 1.68005 20.4608 1.67966 20.4608 1.67929L20.4869 1.82167C20.5033 1.92415 20.4727 2.01955 20.412 2.08849Z" fill="#E1D147"/>
<path d="M20.1691 2.19531H16.4375V1.86549H20.1691C20.2981 1.86549 20.4076 1.78835 20.4594 1.67879L20.4848 1.8204C20.5023 1.92102 20.4717 2.01679 20.411 2.08686C20.3528 2.15319 20.2671 2.19531 20.1691 2.19531Z" fill="#E2364A"/>
<path d="M13.98 2.19531H10.2421C10.159 2.19531 10.0845 2.16512 10.0286 2.11555C9.94955 2.04437 9.90669 1.93518 9.92681 1.8204L9.95178 1.67953C10.004 1.78835 10.1135 1.86549 10.2421 1.86549H13.98V2.19531Z" fill="#55BCE1"/>
<path d="M13.9766 2.19531H16.434V1.86544H13.9766V2.19531Z" fill="#E8E7E6"/>
</svg>
