<svg width="32" height="12" viewBox="0 0 32 12" fill="none" xmlns="http://www.w3.org/2000/svg">
<path d="M31.2292 7.78177V8.58637C31.2292 8.86812 31.0279 9.1152 30.7466 9.17259L27.3608 9.82812H4.59771L1.44782 9.37422C1.11428 9.328 0.867188 9.04066 0.867188 8.70711V7.75307C0.867188 7.47394 1.05986 7.24139 1.45899 7.24139C1.59129 6.51727 1.98226 5.88483 2.51705 5.44209C3.05147 4.99376 3.74126 4.72953 4.48252 4.72953H7.07972C10.0228 1.7865 12.7489 0.222755 17.7439 0.222755C22.7393 0.222755 26.9468 2.13122 28.2459 4.72953H29.5104C30.0508 4.72953 30.4991 5.13761 30.5453 5.67203L30.6888 7.24139C30.9877 7.24139 31.2292 7.48288 31.2292 7.78177Z" fill="#50BBED"/>
<path d="M24.8225 3.00253L24.1673 4.47981C24.0983 4.64081 23.9318 4.75 23.7533 4.75H18.3215C18.074 4.75 17.8672 4.54876 17.8672 4.29571V1.41603C17.8672 1.15739 18.08 0.950565 18.3386 0.956155C20.7241 1.03106 22.9199 1.56549 24.6156 2.41631C24.8284 2.51954 24.9145 2.78414 24.8225 3.00253Z" fill="#3D4359"/>
<path d="M16.9029 1.43914V4.29571C16.9029 4.54876 16.7016 4.75 16.449 4.75H8.78074C8.53365 4.75 8.41292 4.44516 8.59665 4.28454C10.7179 2.38165 12.9193 1.21479 16.4203 0.984852C16.6845 0.967708 16.9029 1.18013 16.9029 1.43914Z" fill="#3D4359"/>
<path d="M1.26562 6.71969V7.01148C1.26562 7.13894 1.36887 7.24219 1.49633 7.24219H3.12828C3.28183 7.24219 3.39249 7.09497 3.34963 6.94739L3.13127 6.19272C3.10257 6.09396 3.01238 6.02613 2.90952 6.02613H1.95919C1.57608 6.02613 1.26562 6.33658 1.26562 6.71969Z" fill="white"/>
<path d="M29.8338 6.02613C29.4511 6.02613 29.1406 6.33658 29.1406 6.71969V7.01148C29.1406 7.13894 29.2438 7.24219 29.3713 7.24219H30.6936L30.5821 6.02613H29.8338Z" fill="#F03C54"/>
<path d="M9.92867 9.82812C9.96295 9.6511 9.98566 9.4696 9.98566 9.28252C9.98566 7.67293 8.68092 6.36782 7.07096 6.36782C5.46136 6.36782 4.15625 7.67293 4.15625 9.28252C4.15625 9.44911 4.17155 9.61235 4.19876 9.77111L4.59455 9.82812H9.92867Z" fill="#313748"/>
<path d="M9.39729 9.28573C9.39729 10.5689 8.35713 11.6094 7.07363 11.6094C5.7905 11.6094 4.75 10.5689 4.75 9.28573C4.75 8.0026 5.7905 6.9621 7.07363 6.9621C8.35713 6.9621 9.39729 8.0026 9.39729 9.28573Z" fill="#3D4359"/>
<path d="M8.4337 9.28704C8.4337 10.0387 7.82436 10.6484 7.0723 10.6484C6.32061 10.6484 5.71094 10.0387 5.71094 9.28704C5.71094 8.53535 6.32061 7.92566 7.0723 7.92566C7.82436 7.92566 8.4337 8.53535 8.4337 9.28704Z" fill="white"/>
<path d="M7.71279 9.28421C7.71279 9.63639 7.42731 9.92188 7.07513 9.92188C6.72295 9.92188 6.4375 9.63639 6.4375 9.28421C6.4375 8.93203 6.72295 8.64657 7.07513 8.64657C7.42731 8.64657 7.71279 8.93203 7.71279 9.28421Z" fill="#3D4359"/>
<path d="M27.9964 9.70402C28.0173 9.56613 28.0326 9.42637 28.0326 9.28252C28.0326 7.67293 26.7278 6.36782 25.1179 6.36782C23.5079 6.36782 22.2031 7.67293 22.2031 9.28252C22.2031 9.4696 22.2259 9.6511 22.2602 9.82812H27.3558L27.9964 9.70402Z" fill="#313748"/>
<path d="M27.4442 9.28573C27.4442 10.5689 26.4037 11.6094 25.1205 11.6094C23.8374 11.6094 22.7969 10.5689 22.7969 9.28573C22.7969 8.0026 23.8374 6.9621 25.1205 6.9621C26.4037 6.9621 27.4442 8.0026 27.4442 9.28573Z" fill="#3D4359"/>
<path d="M26.4806 9.28704C26.4806 10.0387 25.8713 10.6484 25.1192 10.6484C24.3675 10.6484 23.7578 10.0387 23.7578 9.28704C23.7578 8.53535 24.3675 7.92566 25.1192 7.92566C25.8713 7.92566 26.4806 8.53535 26.4806 9.28704Z" fill="white"/>
<path d="M25.7597 9.28421C25.7597 9.63639 25.4742 9.92188 25.122 9.92188C24.7699 9.92188 24.4844 9.63639 24.4844 9.28421C24.4844 8.93203 24.7699 8.64657 25.122 8.64657C25.4742 8.64657 25.7597 8.93203 25.7597 9.28421Z" fill="#3D4359"/>
<path d="M12.0476 4.75H11.4531L13.0046 1.61877C13.2267 1.54535 13.4623 1.48498 13.6959 1.42311L12.0476 4.75Z" fill="#4F556B"/>
<path d="M13.4037 4.75H12.3359L14.0313 1.32883C14.4054 1.24125 14.7975 1.16896 15.207 1.11119L13.4037 4.75Z" fill="#4F556B"/>
</svg>
