<svg width="32" height="24" viewBox="0 0 32 24" fill="none" xmlns="http://www.w3.org/2000/svg">
<path d="M8.4375 20.579C8.57837 21.0415 9.55441 21.9922 16.3476 21.9922C23.096 21.9922 24.1037 21.0415 24.2543 20.579H8.4375Z" fill="#3D4359"/>
<path d="M29.3883 23.1875H25.3638C25.1372 23.1875 24.9531 23.0034 24.9531 22.7768V19.7939C24.9531 19.5673 25.1372 19.3832 25.3638 19.3832H29.3883C29.6153 19.3832 29.799 19.5673 29.799 19.7939V22.7768C29.799 23.0034 29.6153 23.1875 29.3883 23.1875Z" fill="#3D4359"/>
<path d="M7.05241 23.1875H3.02788C2.80129 23.1875 2.61719 23.0034 2.61719 22.7768V19.7939C2.61719 19.5673 2.80129 19.3832 3.02788 19.3832H7.05241C7.27937 19.3832 7.4631 19.5673 7.4631 19.7939V22.7768C7.4631 23.0034 7.27937 23.1875 7.05241 23.1875Z" fill="#3D4359"/>
<path d="M29.6192 13.0938V8.64138C29.6192 6.00879 27.4852 3.87484 24.8527 3.87484H8.41499C5.7824 3.87484 3.64844 6.00879 3.64844 8.64138V13.0938H29.6192Z" fill="#F3AF37"/>
<path d="M28.6597 9.58107H28.6519C26.1151 9.58107 23.8973 11.3066 23.2794 13.7666C22.8288 15.5622 22.5541 17.3562 22.4725 19.1484H9.93865C9.86076 17.357 9.58833 15.5637 9.13851 13.7688C8.52173 11.3073 6.30318 9.58107 3.76562 9.58107C4.03395 9.4648 4.31682 9.38505 4.61421 9.3489H4.66489C5.73857 9.23299 6.62369 8.44963 6.84842 7.3834C7.35638 4.9677 8.03054 2.77003 8.90857 2.0448C11.8315 -0.377975 20.5868 -0.377975 23.5026 2.0448C24.3803 2.77003 25.0619 4.9677 25.5698 7.3834C25.7875 8.43509 26.6577 9.23299 27.7314 9.34181L27.8182 9.3489C28.1156 9.38505 28.3988 9.47225 28.6597 9.58107Z" fill="#3D4359"/>
<path d="M23.3199 7.37928C23.9647 7.29767 24.3854 6.6548 24.2244 6.02497C23.5965 3.57052 23.0345 2.86765 22.7963 2.67237C21.6164 1.69186 19.0949 1.0829 16.216 1.0829C13.3363 1.0829 10.8125 1.69223 9.62928 2.67349C9.34083 2.91163 8.80791 3.66705 8.20641 6.02311C8.04541 6.65442 8.46429 7.29729 9.11051 7.37891C13.8495 7.97743 18.5858 7.97817 23.3199 7.37928Z" fill="#78D3EE"/>
<path d="M8.61708 11.923C9.37958 14.3334 9.83798 16.7447 9.94232 19.1484H1.89062V12.3735C1.89062 10.8202 3.06121 9.51213 4.60633 9.3515L4.66334 9.34591C6.42498 9.1633 8.08304 10.234 8.61708 11.923Z" fill="#F9DF27"/>
<path d="M30.5353 12.3735V19.1484H22.4766C22.5858 16.7447 23.046 14.3331 23.8089 11.9222C24.3429 10.234 26.001 9.1633 27.7622 9.34591L27.8196 9.3515C29.3648 9.51213 30.5353 10.8202 30.5353 12.3735Z" fill="#F9DF27"/>
<path d="M4.20346 19.1875L4.67937 17.1896C4.78484 16.7472 4.44944 16.3227 3.99478 16.3227H1.89062V19.1875H4.20346Z" fill="#3D4359"/>
<path d="M28.222 19.1875H30.5348V16.3227H28.4311C27.976 16.3227 27.6406 16.7472 27.7461 17.1896L28.222 19.1875Z" fill="#3D4359"/>
<path d="M31.179 20.8828H1.24369C1.01002 20.8828 0.820312 20.6931 0.820312 20.4595V19.2438C0.820312 19.0097 1.01002 18.8204 1.24369 18.8204H31.179C31.4126 18.8204 31.6023 19.0097 31.6023 19.2438V20.4595C31.6023 20.6931 31.4126 20.8828 31.179 20.8828Z" fill="#5A6575"/>
<path d="M6.98754 12.815C6.98754 13.7799 6.20416 14.5703 5.23967 14.5703C4.26773 14.5703 3.48438 13.7799 3.48438 12.815C3.48438 11.8501 4.26773 11.0668 5.23967 11.0668C6.20416 11.0668 6.98754 11.8501 6.98754 12.815Z" fill="white"/>
<path d="M28.9336 12.815C28.9336 13.7799 28.1502 14.5703 27.1854 14.5703C26.2209 14.5703 25.4375 13.7799 25.4375 12.815C25.4375 11.8501 26.2209 11.0668 27.1854 11.0668C28.1502 11.0668 28.9336 11.8501 28.9336 12.815Z" fill="white"/>
<path d="M19.7623 17.3438H12.668C12.141 17.3438 11.7519 16.8514 11.8742 16.3386L12.5767 13.3878C12.6918 12.9033 13.1245 12.5616 13.6224 12.5616H18.8082C19.3057 12.5616 19.7384 12.9033 19.8539 13.3878L20.5564 16.3386C20.6787 16.8514 20.2896 17.3438 19.7623 17.3438Z" fill="#5A6575"/>
<path d="M14.3647 13.8049V16.0987C14.3647 16.2921 14.2037 16.4531 14.0107 16.4531C13.8176 16.4531 13.6562 16.2921 13.6562 16.0987V13.8049C13.6562 13.6115 13.8176 13.4505 14.0107 13.4505C14.2037 13.4505 14.3647 13.6115 14.3647 13.8049Z" fill="#3D4359"/>
<path d="M18.7788 13.8049V16.0987C18.7788 16.2921 18.6178 16.4531 18.4244 16.4531C18.2313 16.4531 18.0703 16.2921 18.0703 16.0987V13.8049C18.0703 13.6115 18.2313 13.4505 18.4244 13.4505C18.6178 13.4505 18.7788 13.6115 18.7788 13.8049Z" fill="#3D4359"/>
<path d="M17.3022 13.8049V16.0987C17.3022 16.2921 17.1494 16.4531 16.9482 16.4531C16.7547 16.4531 16.5938 16.2921 16.5938 16.0987V13.8049C16.5938 13.6115 16.7547 13.4505 16.9482 13.4505C17.1494 13.4505 17.3022 13.6115 17.3022 13.8049Z" fill="#3D4359"/>
<path d="M15.8335 13.8049V16.0987C15.8335 16.2921 15.6725 16.4531 15.4794 16.4531C15.2782 16.4531 15.125 16.2921 15.125 16.0987V13.8049C15.125 13.6115 15.2782 13.4505 15.4794 13.4505C15.6725 13.4505 15.8335 13.6115 15.8335 13.8049Z" fill="#3D4359"/>
<path d="M23.3199 7.37928C23.9647 7.29767 24.3854 6.6548 24.2244 6.02497C23.5965 3.57052 23.0345 2.86765 22.7963 2.67237C21.6164 1.69186 19.0949 1.0829 16.216 1.0829C13.3363 1.0829 10.8125 1.69223 9.62928 2.67349C9.34083 2.91163 8.80791 3.66705 8.20641 6.02311C8.04541 6.65442 8.46429 7.29729 9.11051 7.37891C13.8495 7.97743 18.5858 7.97817 23.3199 7.37928Z" fill="#78D3EE"/>
<path d="M31.179 20.8828H1.24369C1.01002 20.8828 0.820312 20.6931 0.820312 20.4595V19.2438C0.820312 19.0097 1.01002 18.8204 1.24369 18.8204H31.179C31.4126 18.8204 31.6023 19.0097 31.6023 19.2438V20.4595C31.6023 20.6931 31.4126 20.8828 31.179 20.8828Z" fill="#5A6575"/>
<path d="M6.98754 12.815C6.98754 13.7799 6.20416 14.5703 5.23967 14.5703C4.26773 14.5703 3.48438 13.7799 3.48438 12.815C3.48438 11.8501 4.26773 11.0668 5.23967 11.0668C6.20416 11.0668 6.98754 11.8501 6.98754 12.815Z" fill="white"/>
<path d="M28.9336 12.815C28.9336 13.7799 28.1502 14.5703 27.1854 14.5703C26.2209 14.5703 25.4375 13.7799 25.4375 12.815C25.4375 11.8501 26.2209 11.0668 27.1854 11.0668C28.1502 11.0668 28.9336 11.8501 28.9336 12.815Z" fill="white"/>
<path d="M12.2866 7.67969C11.842 7.64838 11.3977 7.61559 10.9531 7.57422L12.2333 1.51561C12.6719 1.40791 13.1482 1.32331 13.6442 1.25399L12.2866 7.67969Z" fill="#9CDFF1"/>
<path d="M15.3538 7.8125C14.5119 7.79946 13.67 7.77225 12.8281 7.72156L14.2093 1.18555C14.8477 1.1181 15.5192 1.08083 16.2132 1.08083C16.4028 1.08083 16.5862 1.09052 16.7729 1.09574L15.3538 7.8125Z" fill="#9CDFF1"/>
</svg>
