<svg width="29" height="20" viewBox="0 0 29 20" fill="none" xmlns="http://www.w3.org/2000/svg">
<path d="M28.4943 2.21431V17.7874C28.4943 18.791 27.6759 19.6094 26.6719 19.6094H2.39309C1.3809 19.6094 0.5625 18.791 0.5625 17.7874V2.21431C0.5625 1.20212 1.3809 0.383715 2.39309 0.383715H26.6719C27.6759 0.383715 28.4943 1.20212 28.4943 2.21431Z" fill="white"/>
<path d="M15.3181 8.32812H25.3849C25.7576 8.32812 26.0624 8.02329 26.0624 7.65061C26.0624 7.27831 25.7576 6.97309 25.3849 6.97309H15.3181C14.9455 6.97309 14.6406 7.27831 14.6406 7.65061C14.6406 8.02329 14.9455 8.32812 15.3181 8.32812Z" fill="#E8EBEE"/>
<path d="M25.3849 9.92658H15.3181C14.9455 9.92658 14.6406 10.231 14.6406 10.6041C14.6406 10.9764 14.9455 11.2812 15.3181 11.2812H25.3849C25.7576 11.2812 26.0624 10.9764 26.0624 10.6041C26.0624 10.231 25.7576 9.92658 25.3849 9.92658Z" fill="#E8EBEE"/>
<path d="M25.3849 12.8797H15.3181C14.9455 12.8797 14.6406 13.1845 14.6406 13.5572C14.6406 13.9295 14.9455 14.2344 15.3181 14.2344H25.3849C25.7576 14.2344 26.0624 13.9295 26.0624 13.5572C26.0624 13.1845 25.7576 12.8797 25.3849 12.8797Z" fill="#E8EBEE"/>
<path d="M25.3849 15.8324H15.3181C14.9455 15.8324 14.6406 16.1373 14.6406 16.51C14.6406 16.8827 14.9455 17.1875 15.3181 17.1875H25.3849C25.7576 17.1875 26.0624 16.8827 26.0624 16.51C26.0624 16.1373 25.7576 15.8324 25.3849 15.8324Z" fill="#E8EBEE"/>
<path d="M3 6.36869V17.1875H12.406V6.36869H3Z" fill="#65CDF3"/>
<path d="M9.36596 13.9319C8.96943 13.5022 8.73241 12.941 8.73241 12.3406H6.6648C6.6648 12.941 6.42778 13.5022 6.03125 13.9319C6.03125 17.1164 9.36596 17.1164 9.36596 13.9319Z" fill="#FAB81D"/>
<path d="M11.6205 17.1875H3.78125L4.22772 14.8821C4.2825 14.5884 4.47815 14.3503 4.75356 14.234L6.25135 13.6102L7.70069 13.7693L9.1437 13.6102L10.6419 14.234C10.9173 14.3503 11.1129 14.5884 11.1677 14.8821L11.6205 17.1875Z" fill="#EB2642"/>
<path d="M8.28148 13.9221L8.08434 13.7268L7.70048 13.7693L7.31662 13.7272L7.11947 13.9221L7.42544 14.2277L6.875 17.1875H8.52596L7.97552 14.2277L8.28148 13.9221Z" fill="#3D4359"/>
<path d="M6.91192 12.7312L6.63949 12.4103C6.36819 12.0909 6.21875 11.6854 6.21875 11.2662V8.89633H9.186V11.2662C9.186 11.6854 9.03656 12.0909 8.76525 12.4103L8.49282 12.7308C8.09815 13.1948 7.30473 13.1929 6.91192 12.7312Z" fill="#F9DF27"/>
<path d="M9.5569 10.9789C9.51963 11.3296 9.33478 11.5972 9.14434 11.5771C8.95353 11.5569 8.82869 11.2562 8.86595 10.9055C8.90322 10.5548 9.0877 10.2872 9.27851 10.3074C9.46932 10.3275 9.59417 10.6282 9.5569 10.9789Z" fill="#F9DF27"/>
<path d="M5.84252 10.9789C5.87941 11.3296 6.06425 11.5972 6.25506 11.5771C6.44588 11.5569 6.57073 11.2562 6.53346 10.9055C6.49619 10.5548 6.31134 10.2872 6.12053 10.3074C5.9301 10.3275 5.80525 10.6282 5.84252 10.9789Z" fill="#F9DF27"/>
<path d="M6.15976 11.1719C6.15976 11.1719 6.07666 9.84551 6.8153 9.20488C6.8153 9.20488 6.59057 9.37593 6.522 9.79668C6.522 9.79668 6.58573 9.3614 6.93307 9.20488C6.93307 9.20488 7.46338 9.8496 9.09459 9.43034C9.09459 9.43034 9.2664 10.6721 9.12441 11.1719C9.12441 11.1719 9.5843 10.0464 9.50119 9.13631C9.41808 8.2266 7.88712 7.16671 6.62896 8.16287C5.62758 8.20424 5.81243 9.32489 6.15976 11.1719Z" fill="#3D4359"/>
<path d="M8.8383 13.0159L7.70312 13.7721C7.70312 13.7721 8.3322 14.2774 8.46189 14.5625L9.14761 13.611L8.8383 13.0159Z" fill="#F14B68"/>
<path d="M6.55969 13.0159L7.69487 13.7721C7.69487 13.7721 7.06541 14.2774 6.9361 14.5625L6.25 13.611L6.55969 13.0159Z" fill="#F14B68"/>
<path d="M28.4943 4.19531V2.21266C28.4943 1.20047 27.6759 0.382069 26.6719 0.382069H2.39309C1.3809 0.382069 0.5625 1.20047 0.5625 2.21266V4.19531H28.4943Z" fill="#3D4359"/>
</svg>
