<svg width="30" height="25" viewBox="0 0 30 25" fill="none" xmlns="http://www.w3.org/2000/svg">
<path d="M6.45008 24.8438H2.11025C1.94143 24.8438 1.80469 24.707 1.80469 24.5381V20.3627C1.80469 20.1939 1.94143 20.0571 2.11025 20.0571H6.45008C6.61891 20.0571 6.75569 20.1939 6.75569 20.3627V24.5381C6.75569 24.707 6.61891 24.8438 6.45008 24.8438Z" fill="#3D4359"/>
<path d="M27.9892 24.8438H23.6494C23.4805 24.8438 23.3438 24.707 23.3438 24.5381V20.3627C23.3438 20.1939 23.4805 20.0571 23.6494 20.0571H27.9892C28.158 20.0571 28.2947 20.1939 28.2947 20.3627V24.5381C28.2947 24.707 28.158 24.8438 27.9892 24.8438Z" fill="#3D4359"/>
<path d="M21.2069 21.7359L19.9901 22.9609H10.0996C9.6211 22.4742 9.31065 22.1638 8.88281 21.7359H21.2069Z" fill="#3D4359"/>
<path d="M3.01562 20.1562H27.0822V16.0754H3.01562V20.1562Z" fill="#F9DF27"/>
<path d="M27.3717 16.0703H2.71875L3.37352 2.56635C3.40482 1.96597 3.84942 1.4513 4.45763 1.35776C11.303 0.289664 18.3589 0.25836 25.6332 1.35776C26.2335 1.4513 26.6934 1.96597 26.7247 2.57418L27.3717 16.0703Z" fill="#F9DF27"/>
<path d="M26.0071 8.12756L25.7798 3.24624C25.7642 2.90896 25.4861 2.6436 25.1481 2.6436H4.9483C4.61028 2.6436 4.33263 2.90895 4.3166 3.24585L4.08667 8.12718C4.06952 8.48756 4.35721 8.78906 4.71796 8.78906H25.3758C25.7366 8.78906 26.0239 8.48757 26.0071 8.12756Z" fill="#3D4359"/>
<path d="M7.29925 8.78906H6.15625L10.0474 2.6436H11.1904L7.29925 8.78906Z" fill="#4F556B"/>
<path d="M9.81746 8.78906H7.83594L11.7267 2.6436H13.7082L9.81746 8.78906Z" fill="#4F556B"/>
<path d="M9.33724 20.6562H6.75722V20.3656C6.75722 20.2832 6.7248 20.2087 6.67188 20.1539H9.33724V20.6562Z" fill="#42A28E"/>
<path d="M6.75373 20.6562H4.42188V20.1539H6.66838C6.7213 20.2087 6.75373 20.2832 6.75373 20.3656V20.6562Z" fill="#3A3F53"/>
<path d="M9.33375 20.1562H4.42188V16.0754H9.42918C9.36619 16.3594 9.33375 16.6516 9.33375 16.9479V20.1562Z" fill="#EBD223"/>
<path d="M9.42954 16.0703H4.42188V10.2927L10.8931 13.7545C10.1444 14.337 9.63116 15.1595 9.42954 16.0703Z" fill="#EBD223"/>
<path d="M25.671 20.1562H20.7595V16.9479C20.7595 16.6516 20.7267 16.3594 20.6641 16.0754H25.671V20.1562Z" fill="#EBD223"/>
<path d="M25.6665 16.0703H20.6592C20.4576 15.1595 19.9444 14.337 19.1953 13.7545L25.6665 10.2927V16.0703Z" fill="#EBD223"/>
<path d="M29.0579 20.1172V16.7754C29.0579 15.275 27.8418 14.059 26.3414 14.059C24.8414 14.059 23.625 15.275 23.625 16.7754V20.1172H29.0579Z" fill="#F9DF27"/>
<path d="M6.46415 20.1172V16.7754C6.46415 15.275 5.24771 14.059 3.74768 14.059C2.24728 14.059 1.03125 15.275 1.03125 16.7754V20.1172H6.46415Z" fill="#F9DF27"/>
<path d="M29.6214 20.1225V21.1884C29.6214 21.4906 29.3695 21.7422 29.059 21.7422H1.03037C0.719934 21.7422 0.476562 21.4906 0.476562 21.1884V20.1225C0.476562 19.8121 0.719934 19.5687 1.03037 19.5687H29.059C29.3695 19.5687 29.6214 19.8121 29.6214 20.1225Z" fill="white"/>
<path d="M11.9677 14.7873V17.7665C11.9677 18.0769 11.7244 18.3203 11.4139 18.3203C11.1035 18.3203 10.8516 18.0769 10.8516 17.7665V14.7873C10.8516 14.4851 11.1035 14.2335 11.4139 14.2335C11.7244 14.2335 11.9677 14.4851 11.9677 14.7873Z" fill="#3D4359"/>
<path d="M13.7877 14.3308V17.7665C13.7877 18.0769 13.5443 18.3203 13.2339 18.3203C12.9234 18.3203 12.6719 18.0769 12.6719 17.7665V14.3308C12.6719 14.0286 12.9234 13.777 13.2339 13.777C13.5443 13.777 13.7877 14.0286 13.7877 14.3308Z" fill="#3D4359"/>
<path d="M15.6006 13.6454V17.7665C15.6006 18.0769 15.3572 18.3203 15.0467 18.3203C14.7363 18.3203 14.4844 18.0769 14.4844 17.7665V13.6454C14.4844 13.3432 14.7363 13.0916 15.0467 13.0916C15.3572 13.0916 15.6006 13.3432 15.6006 13.6454Z" fill="#3D4359"/>
<path d="M17.4287 14.3308V17.7665C17.4287 18.0769 17.1853 18.3203 16.8749 18.3203C16.5644 18.3203 16.3125 18.0769 16.3125 17.7665V14.3308C16.3125 14.0286 16.5644 13.777 16.8749 13.777C17.1853 13.777 17.4287 14.0286 17.4287 14.3308Z" fill="#3D4359"/>
<path d="M19.2408 14.7873V17.7665C19.2408 18.0769 18.9978 18.3203 18.6874 18.3203C18.3766 18.3203 18.125 18.0769 18.125 17.7665V14.7873C18.125 14.4851 18.3766 14.2335 18.6874 14.2335C18.9978 14.2335 19.2408 14.4851 19.2408 14.7873Z" fill="#3D4359"/>
<path d="M27.7651 16.7739C27.7651 17.5632 27.1248 18.2031 26.3355 18.2031C25.5461 18.2031 24.9062 17.5632 24.9062 16.7739C24.9062 15.9846 25.5461 15.3447 26.3355 15.3447C27.1248 15.3447 27.7651 15.9846 27.7651 16.7739Z" fill="white"/>
<path d="M5.17912 16.7739C5.17912 17.5632 4.53921 18.2031 3.74988 18.2031C2.96018 18.2031 2.32031 17.5632 2.32031 16.7739C2.32031 15.9846 2.96018 15.3447 3.74988 15.3447C4.53921 15.3447 5.17912 15.9846 5.17912 16.7739Z" fill="white"/>
</svg>
