<svg width="29" height="21" viewBox="0 0 29 21" fill="none" xmlns="http://www.w3.org/2000/svg">
<path d="M28.4917 5.77965L28.5088 5.86054C28.6068 6.32601 28.3091 6.78327 27.8432 6.88129C27.6092 6.93085 26.8869 7.11198 26.6626 7.07434C26.3313 7.01844 25.9627 7.4895 25.6947 7.75L25.1719 7.21149L25.8583 6.54513C25.95 6.45644 25.9895 6.32712 25.9631 6.20264L25.9191 5.99432C25.8617 5.72078 26.0365 5.45208 26.3104 5.39431L27.5115 5.1409C27.9588 5.04661 28.3974 5.33244 28.4917 5.77965Z" fill="#46AD96"/>
<path d="M0.559241 5.77965L0.542099 5.86054C0.444085 6.32601 0.741858 6.78327 1.2077 6.88129C1.44175 6.93085 2.16399 7.11235 2.38834 7.07434C2.53704 7.049 2.68835 7.10155 2.79642 7.20627L3.35618 7.75L3.87905 7.21186L3.19258 6.54513C3.1009 6.45644 3.0614 6.32712 3.08786 6.20264L3.13183 5.99432C3.18922 5.72078 3.01407 5.45208 2.74052 5.39431L1.53938 5.1409C1.09217 5.04661 0.653528 5.33244 0.559241 5.77965Z" fill="#46AD96"/>
<path d="M1.59375 16.4916V20.0648C1.59375 20.4002 1.86581 20.6719 2.20084 20.6719H4.95046C5.28549 20.6719 5.55755 20.4002 5.55755 20.0648V16.4916H1.59375Z" fill="#2F3644"/>
<path d="M23.4922 16.4916V20.0648C23.4922 20.4002 23.7639 20.6719 24.0993 20.6719H26.8489C27.1839 20.6719 27.456 20.4002 27.456 20.0648V16.4916H23.4922Z" fill="#2F3644"/>
<path d="M28.1172 14.6321L27.9081 15.8906H1.14658L0.9375 14.6321C0.9375 9.92818 1.63589 11.2117 1.98807 9.62594C2.34063 8.03982 3.12362 7.37423 3.12362 7.37423L5.79348 2.57004C6.32604 1.61151 7.31028 0.990635 8.40409 0.923181C12.4823 0.671251 16.572 0.671251 20.6502 0.923181C21.7444 0.990635 22.7287 1.61151 23.2612 2.57004L25.9311 7.37423C25.9311 7.37423 26.7141 8.03982 27.0666 9.62594C27.4188 11.2117 28.1172 9.92818 28.1172 14.6321Z" fill="#46AD96"/>
<path d="M25.1183 6.89381L19.663 9.74219H9.37749L3.92188 6.89381L12.2288 4.02942L25.1183 6.89381Z" fill="#38907A"/>
<path d="M25.1183 6.89062C19.4569 5.82291 9.68272 5.8039 3.92188 6.89062C4.18946 6.4095 6.2321 2.63019 6.61297 2.23254C6.95025 1.87887 7.42094 1.68285 7.90877 1.66496C12.2669 1.50359 16.6734 1.50769 21.1261 1.6657C21.6438 1.68396 22.1365 1.90683 22.4831 2.29143C22.6202 2.44423 22.7409 2.61267 22.8434 2.7964L25.1183 6.89062Z" fill="#3E4657"/>
<path d="M1.51562 15.2978L1.53127 15.3906L2.88521 15.2978H1.51562Z" fill="#F03C54"/>
<path d="M26.1562 15.2978L27.5106 15.3906L27.5262 15.2978H26.1562Z" fill="#F03C54"/>
<path d="M7.66608 13.3047H3.08327C2.60811 13.3047 2.24064 12.8854 2.304 12.4147C2.3599 12.0085 2.43407 11.6161 2.53357 11.2419C2.58127 11.0608 2.74898 10.9371 2.93606 10.9419L4.62839 11.0194C5.98717 11.0548 7.21178 11.8159 7.85018 12.9961C7.92621 13.1355 7.82409 13.3047 7.66608 13.3047Z" fill="white"/>
<path d="M28.1191 14.72C28.1191 15.1862 28.0024 16.7872 27.9491 17.7949C27.9287 18.1669 27.7118 18.5015 27.3782 18.6674C27.0939 18.809 26.7801 18.8891 26.4566 18.8984H2.59219C2.26871 18.8891 1.95455 18.809 1.67057 18.6674C1.33665 18.5015 1.11975 18.1669 1.09962 17.7949C1.04633 16.7872 0.929688 15.1862 0.929688 14.72C0.929688 14.6685 0.931174 14.6388 0.934528 14.6354C1.46671 14.862 2.03915 14.9786 2.61717 14.9786H26.4316C27.0092 14.9786 27.5821 14.862 28.1142 14.6354C28.1176 14.6388 28.1191 14.6685 28.1191 14.72Z" fill="#3D4359"/>
<path d="M21.3739 13.3047H25.9567C26.4319 13.3047 26.7993 12.8854 26.736 12.4147C26.6801 12.0085 26.6059 11.6161 26.5064 11.2419C26.4583 11.0608 26.291 10.9371 26.1039 10.9419L24.4116 11.0194C23.0528 11.0548 21.8278 11.8159 21.1898 12.9961C21.1138 13.1355 21.2155 13.3047 21.3739 13.3047Z" fill="white"/>
<path d="M3.88281 6.96875C3.88989 6.92067 3.8951 6.89496 3.8951 6.89496L3.92716 6.88861L3.88281 6.96875Z" fill="#3F9B87"/>
<path d="M25.1682 6.96875L25.125 6.89048L25.1567 6.89683C25.1567 6.89683 25.1619 6.92179 25.1682 6.96875Z" fill="#3F9B87"/>
<path d="M19.6641 9.73983C19.9708 9.73983 20.1959 10.0279 20.1225 10.3253L19.3988 13.2467C19.3425 13.4737 19.139 13.6328 18.905 13.6328H10.1378C9.90372 13.6328 9.70024 13.4737 9.64396 13.2467L8.92023 10.3253C8.84681 10.0279 9.0719 9.73983 9.37861 9.73983H19.6641Z" fill="#4C576D"/>
<path d="M7.3125 6.41406L10.1475 1.60504C10.4329 1.59796 10.7165 1.58713 11.002 1.58154L8.20246 6.33057C7.90879 6.35554 7.61251 6.3835 7.3125 6.41406Z" fill="#505869"/>
<path d="M8.82031 6.28125L11.596 1.57322C12.2709 1.56278 12.9473 1.55831 13.6241 1.55533L10.9088 6.16124C10.2626 6.1877 9.55933 6.22647 8.82031 6.28125Z" fill="#505869"/>
</svg>
