<svg width="17" height="17" viewBox="0 0 17 17" fill="none" xmlns="http://www.w3.org/2000/svg">
<path fill-rule="evenodd" clip-rule="evenodd" d="M8.11198 1.83331C11.794 1.83331 14.7786 4.81798 14.7786 8.49998C14.7786 12.182 11.794 15.1666 8.11198 15.1666C4.42998 15.1666 1.44531 12.182 1.44531 8.49998C1.44531 4.81798 4.42998 1.83331 8.11198 1.83331ZM2.91531 9.70665C3.14862 10.7082 3.66617 11.6211 4.40579 12.3357C5.1454 13.0502 6.07561 13.536 7.08465 13.7346C6.95598 11.9846 6.38065 10.9346 5.65398 10.354C4.95798 9.79731 4.01398 9.58198 2.91531 9.70598V9.70665ZM10.57 10.3533C9.84331 10.9353 9.26798 11.9846 9.13931 13.7346C10.1484 13.536 11.0787 13.0501 11.8183 12.3354C12.5579 11.6207 13.0755 10.7077 13.3086 9.70598C12.21 9.58198 11.266 9.79731 10.57 10.354V10.3533ZM8.11198 3.16665C6.86943 3.16681 5.6659 3.60066 4.70904 4.39334C3.75217 5.18602 3.10198 6.28782 2.87065 7.50865L2.84198 7.67398L4.31531 7.37931C4.70331 7.30198 5.07198 7.09731 5.48398 6.81931L5.80198 6.59798C6.33331 6.22065 7.12065 5.83331 8.11198 5.83331C9.03731 5.83331 9.78465 6.17065 10.312 6.52265L10.74 6.81931C11.1 7.06265 11.428 7.24931 11.764 7.34465L11.9086 7.37931L13.382 7.67398C13.1848 6.41793 12.5455 5.27361 11.5793 4.44721C10.613 3.62081 9.38341 3.16668 8.11198 3.16665Z" fill="#9C4900"/>
</svg>
