<svg width="17" height="17" viewBox="0 0 17 17" fill="none" xmlns="http://www.w3.org/2000/svg">
<path d="M12.1094 13.1666V12.3333C12.1094 10.9526 10.83 9.83331 9.25204 9.83331H6.96671C5.38871 9.83331 4.10938 10.9526 4.10938 12.3333V13.1666M10.1094 5.83331C10.1094 6.36375 9.89866 6.87245 9.52359 7.24753C9.14852 7.6226 8.63981 7.83331 8.10938 7.83331C7.57894 7.83331 7.07023 7.6226 6.69516 7.24753C6.32009 6.87245 6.10938 6.36375 6.10938 5.83331C6.10938 5.30288 6.32009 4.79417 6.69516 4.4191C7.07023 4.04403 7.57894 3.83331 8.10938 3.83331C8.63981 3.83331 9.14852 4.04403 9.52359 4.4191C9.89866 4.79417 10.1094 5.30288 10.1094 5.83331Z" stroke="#9C4900" stroke-width="1.33333" stroke-linecap="round" stroke-linejoin="round"/>
</svg>
