<svg width="172" height="169" viewBox="0 0 172 169" fill="none" xmlns="http://www.w3.org/2000/svg">
<path d="M86.0891 124.575C63.8523 124.575 45.8257 106.549 45.8257 84.3126C45.8257 62.0758 63.8523 44.0492 86.0891 44.0492C108.325 44.0492 126.351 62.0758 126.351 84.3126C126.351 106.549 108.325 124.575 86.0891 124.575ZM170.495 96.5499C171.069 92.5527 171.373 88.4677 171.373 84.3126C171.373 80.1566 171.069 76.0716 170.495 72.0753L154.732 67.4311C153.905 64.0591 152.837 60.7828 151.546 57.6199L161.571 44.5946C157.731 37.3102 152.868 30.6501 147.17 24.8037L131.683 30.3138C129.064 28.0997 126.281 26.073 123.355 24.2534L123.81 7.80972C116.572 4.2346 108.755 1.65558 100.536 0.253143L91.2383 13.8228C89.538 13.7006 87.8209 13.6355 86.0891 13.6355C84.3563 13.6355 82.6402 13.7006 80.9389 13.8228L71.6426 0.253143C63.4223 1.65558 55.6053 4.2346 48.3673 7.80972L48.8219 24.2534C45.8967 26.073 43.1136 28.0997 40.4941 30.3138L25.0071 24.8037C19.3106 30.6501 14.4464 37.3102 10.606 44.5946L20.6311 57.6199C19.3411 60.7828 18.273 64.0591 17.4466 67.4311L1.68246 72.0753C1.10846 76.0716 0.804688 80.1566 0.804688 84.3126C0.804688 88.4677 1.10846 92.5527 1.68246 96.5499L17.4466 101.193C18.273 104.565 19.3411 107.841 20.6311 111.004L10.606 124.03C14.4464 131.315 19.3106 137.975 25.0071 143.821L40.4941 138.31C43.1136 140.526 45.8967 142.552 48.8219 144.371L48.3673 160.814C55.6053 164.391 63.4223 166.969 71.6426 168.371L80.9389 154.801C82.6402 154.923 84.3563 154.989 86.0891 154.989C87.8209 154.989 89.537 154.923 91.2383 154.801L100.536 168.371C108.755 166.969 116.572 164.391 123.81 160.814L123.355 144.371C126.28 142.552 129.064 140.526 131.683 138.31L147.17 143.821C152.868 137.975 157.731 131.315 161.571 124.03L151.546 111.004C152.837 107.841 153.905 104.565 154.732 101.193L170.495 96.5499Z" fill="#F6EFE9"/>
</svg>
