<svg width="42" height="69" viewBox="0 0 42 69" fill="none" xmlns="http://www.w3.org/2000/svg">
<g filter="url(#filter0_d_5_6788)">
<path d="M32.5624 42.5288H32.1464C31.6645 42.5288 31.2738 42.9195 31.2738 43.4014V57.9162C31.2738 58.3982 31.6645 58.7889 32.1464 58.7889H32.5624C33.0443 58.7889 33.435 58.3982 33.435 57.9162V43.4014C33.435 42.9195 33.0443 42.5288 32.5624 42.5288Z" fill="#58595B"/>
<path d="M4.05641 42.5288H3.64046C3.15851 42.5288 2.76782 42.9195 2.76782 43.4014V57.9162C2.76782 58.3982 3.15851 58.7889 3.64046 58.7889H4.05641C4.53835 58.7889 4.92904 58.3982 4.92904 57.9162V43.4014C4.92904 42.9195 4.53835 42.5288 4.05641 42.5288Z" fill="#58595B"/>
<path d="M32.5624 5.29639H32.1464C31.6645 5.29639 31.2738 5.68708 31.2738 6.16902V20.6838C31.2738 21.1658 31.6645 21.5565 32.1464 21.5565H32.5624C33.0443 21.5565 33.435 21.1658 33.435 20.6838V6.16902C33.435 5.68708 33.0443 5.29639 32.5624 5.29639Z" fill="#58595B"/>
<path d="M4.05641 5.29639H3.64046C3.15851 5.29639 2.76782 5.68708 2.76782 6.16902V20.6838C2.76782 21.1658 3.15851 21.5565 3.64046 21.5565H4.05641C4.53835 21.5565 4.92904 21.1658 4.92904 20.6838V6.16902C4.92904 5.68708 4.53835 5.29639 4.05641 5.29639Z" fill="#58595B"/>
<path d="M33.5747 58.8845C33.5763 58.9029 33.5763 58.9214 33.5747 58.9398C33.5738 58.9928 33.567 59.0455 33.5543 59.0969C33.4922 59.6073 33.2837 60.0887 32.9538 60.4831C32.624 60.8775 32.187 61.1679 31.6956 61.3192C31.4405 61.399 31.1746 61.4392 30.9073 61.4385H5.30135C5.03404 61.4392 4.7682 61.399 4.51307 61.3192C4.02172 61.1679 3.5847 60.8775 3.25485 60.4831C2.925 60.0887 2.71643 59.6073 2.65436 59.0969C2.64169 59.0455 2.63485 58.9928 2.634 58.9398C2.63242 58.9214 2.63242 58.9029 2.634 58.8845C2.634 58.8467 2.634 58.8089 2.634 58.7711L2.666 58.7507C2.70547 58.6222 2.78479 58.5095 2.8925 58.429C3.00021 58.3485 3.13073 58.3043 3.26521 58.3028H3.58226C3.62293 58.2998 3.66377 58.2998 3.70443 58.3028H32.5013C32.542 58.2998 32.5828 58.2998 32.6235 58.3028H32.9347C33.0697 58.3033 33.2011 58.3467 33.3098 58.4267C33.4186 58.5066 33.4991 58.6191 33.5398 58.7478L33.5718 58.7711C33.5805 58.8176 33.5776 58.8555 33.5747 58.8845Z" fill="#6D6E70"/>
<path d="M9.80412 61.4473H6.02271C6.0432 61.3024 6.10944 61.1679 6.21177 61.0634C6.33731 60.9393 6.50648 60.8693 6.68299 60.8685H9.13219C9.29555 60.8663 9.45407 60.9239 9.57785 61.0306C9.70162 61.1372 9.78211 61.2854 9.80412 61.4473Z" fill="black"/>
<path d="M30.1656 61.4473H26.3842C26.4047 61.3024 26.4709 61.1679 26.5732 61.0634C26.6988 60.9393 26.8679 60.8693 27.0444 60.8685H29.4936C29.657 60.8663 29.8155 60.9239 29.9393 61.0306C30.0631 61.1372 30.1436 61.2854 30.1656 61.4473Z" fill="black"/>
<path d="M33.5746 3.56264C33.5746 3.60046 33.5746 5.09266 33.5746 5.13048L33.5426 5.15084C33.5027 5.28081 33.4221 5.39452 33.3126 5.47517C33.2032 5.55583 33.0707 5.59917 32.9347 5.59879H32.6176C32.577 5.60179 32.5361 5.60179 32.4955 5.59879H3.69857C3.6579 5.60179 3.61707 5.60179 3.5764 5.59879H3.26516C3.13017 5.59828 2.99883 5.55491 2.89009 5.47492C2.78134 5.39493 2.70082 5.28246 2.66014 5.15375L2.62814 5.13048C2.62814 5.09266 2.62814 3.60046 2.62814 3.56264C2.62656 3.54426 2.62656 3.52577 2.62814 3.50738C2.62899 3.45442 2.63583 3.40173 2.6485 3.3503C2.71057 2.83993 2.91914 2.35846 3.24899 1.96409C3.57884 1.56971 4.01585 1.27932 4.50721 1.128C4.76373 1.04468 5.03159 1.00151 5.30131 1.00001H30.9276C31.195 0.999285 31.4608 1.0395 31.7159 1.11927C32.2073 1.27059 32.6443 1.56099 32.9741 1.95536C33.304 2.34974 33.5126 2.83121 33.5746 3.34158C33.5873 3.393 33.5941 3.44569 33.595 3.49865C33.5905 3.52063 33.5836 3.54208 33.5746 3.56264Z" fill="#6D6E70"/>
<path d="M32.9348 4.17647V57.5206V58.0122C32.9359 58.5576 32.7615 59.0889 32.4374 59.5276C32.3506 59.6458 32.2532 59.7558 32.1465 59.8563C31.6722 60.3128 31.0392 60.5673 30.3809 60.5661H5.82789C5.1696 60.5673 4.53656 60.3128 4.06226 59.8563C3.95477 59.7565 3.85735 59.6465 3.77138 59.5276C3.44307 59.0906 3.26547 58.5588 3.26526 58.0122V4.49062V4.17356L3.34379 4.12702C3.83929 3.84959 4.35572 3.61131 4.88835 3.41437C6.28631 2.91553 7.72607 2.54269 9.19044 2.30031L9.95545 2.1636H10.0107L10.2463 2.12579H10.2929C12.8786 1.75491 15.4879 1.57311 18.1 1.58184H18.2164C18.7341 1.58184 19.2519 1.58184 19.758 1.60511C21.003 1.64002 22.2101 1.70983 23.3591 1.82036C23.8565 1.86399 24.3452 1.91635 24.8135 1.97162C25.1858 2.01816 25.5523 2.07052 25.913 2.12288H25.9595L26.1952 2.16069H26.2446L26.8031 2.25377L26.9893 2.28868C28.4538 2.53033 29.8936 2.90318 31.2913 3.40274C31.8247 3.59789 32.3413 3.83623 32.8359 4.11539L32.9348 4.17647Z" fill="black"/>
<path d="M31.649 6.69541V57.3082C31.4745 57.3983 31.2796 57.4885 31.0673 57.5758C29.5285 58.2157 27.1113 58.7393 24.1822 59.0302C23.6993 59.0796 23.2019 59.1262 22.69 59.164C21.5788 59.2454 20.4095 59.3007 19.1994 59.321C18.8358 59.321 18.4664 59.321 18.0941 59.321H17.7858C17.3117 59.321 16.8433 59.321 16.3838 59.3007L15.8311 59.2861C11.209 59.1232 7.29091 58.4717 5.12387 57.57C4.91444 57.4827 4.71955 57.3925 4.54211 57.3023V6.68959C4.59447 6.65469 4.65264 6.6256 4.70791 6.59069C7.07275 5.22357 12.1777 4.26367 18.0883 4.26367H18.193C18.6642 4.26367 19.1325 4.26367 19.5921 4.28403C20.7236 4.31603 21.8173 4.38002 22.8616 4.47892C23.3125 4.51964 23.7546 4.56618 24.1851 4.61854C24.6156 4.6709 25.0577 4.73489 25.4853 4.8018L25.9973 4.88615C28.3621 5.29629 30.2703 5.88095 31.4716 6.57615C31.5385 6.63142 31.5967 6.66051 31.649 6.69541Z" fill="#404041"/>
<path d="M31.4076 5.3252L29.0806 11.5791V13.5134L32.4257 9.41785L31.4076 5.3252Z" fill="black"/>
<path d="M4.79224 5.3252L7.11927 11.5791V13.5134L3.77417 9.41785L4.79224 5.3252Z" fill="black"/>
<path d="M4.79224 59.1814L7.11927 52.9246V50.9932L3.77417 55.0858L4.79224 59.1814Z" fill="black"/>
<path d="M31.4076 59.1814L29.0806 52.9246V50.9932L32.4257 55.0858L31.4076 59.1814Z" fill="black"/>
<path d="M32.4257 36.9468H3.271V40.5333H32.4257V36.9468Z" fill="black"/>
<path d="M32.6787 20.1804H3.52405V23.7669H32.6787V20.1804Z" fill="black"/>
<path d="M34.5521 11.201H34.1332C34.1332 10.3283 33.9587 10.212 33.0075 10.212H32.449V9.83094C32.449 9.76383 32.4224 9.69946 32.3749 9.652C32.3274 9.60454 32.2631 9.57788 32.1959 9.57788H32.0302V10.9886H32.1959C32.2557 10.9886 32.3135 10.9672 32.3589 10.9283C32.4043 10.8893 32.4342 10.8354 32.4432 10.7763H33.0075C33.1848 10.7655 33.3625 10.7655 33.5398 10.7763C33.5689 10.9109 33.5796 11.0489 33.5718 11.1864H33.2431C33.1235 11.1864 33.0089 11.2339 32.9243 11.3185C32.8397 11.403 32.7922 11.5177 32.7922 11.6373C32.7925 11.6922 32.8033 11.7465 32.8242 11.7973H34.9709C34.9895 11.7459 34.9993 11.6919 35 11.6373C34.997 11.5205 34.9484 11.4095 34.8648 11.328C34.7811 11.2465 34.6689 11.2009 34.5521 11.201Z" fill="#232323"/>
<path d="M1.64791 11.201H2.06677C2.06677 10.3283 2.2413 10.212 3.19247 10.212H3.75096V9.83094C3.75096 9.76383 3.77761 9.69946 3.82507 9.652C3.87253 9.60454 3.9369 9.57788 4.00402 9.57788H4.16981V10.9886H4.00402C3.94423 10.9886 3.88642 10.9672 3.84107 10.9283C3.79571 10.8893 3.76581 10.8354 3.75677 10.7763H3.19247C3.0152 10.7655 2.83743 10.7655 2.66016 10.7763C2.63108 10.9109 2.62032 11.0489 2.62816 11.1864H2.95686C3.01606 11.1864 3.0747 11.1981 3.1294 11.2208C3.1841 11.2434 3.23379 11.2766 3.27566 11.3185C3.31753 11.3604 3.35074 11.4101 3.3734 11.4648C3.39605 11.5195 3.40771 11.5781 3.40771 11.6373C3.40749 11.6922 3.39663 11.7465 3.37572 11.7973H1.22904C1.21048 11.7459 1.20064 11.6919 1.19995 11.6373C1.20299 11.5205 1.25152 11.4095 1.3352 11.328C1.41888 11.2465 1.53109 11.2009 1.64791 11.201Z" fill="#232323"/>
<path d="M3.72189 17.4956H3.68116C3.5414 17.4956 3.4281 17.6089 3.4281 17.7487V20.067C3.4281 20.2067 3.5414 20.32 3.68116 20.32H3.72189C3.86165 20.32 3.97495 20.2067 3.97495 20.067V17.7487C3.97495 17.6089 3.86165 17.4956 3.72189 17.4956Z" fill="#404041"/>
<path d="M32.5188 17.4956H32.478C32.3383 17.4956 32.225 17.6089 32.225 17.7487V20.067C32.225 20.2067 32.3383 20.32 32.478 20.32H32.5188C32.6585 20.32 32.7718 20.2067 32.7718 20.067V17.7487C32.7718 17.6089 32.6585 17.4956 32.5188 17.4956Z" fill="#404041"/>
<path d="M6.43874 11.0614L3.26526 7.00659V7.50108L6.14495 11.1516L6.17404 21.7221H3.26526V22.013H6.46492L6.43874 11.0614Z" fill="#0C0D0D"/>
<path d="M32.9348 7.50108V7.00659L29.7613 11.0614L29.7351 22.013H32.9348V21.7221H30.026L30.058 11.1516L32.9348 7.50108Z" fill="#0C0D0D"/>
<path d="M6.17687 37.8948V38.3078H3.271V38.5987H6.46193V37.8948H6.17687Z" fill="#0C0D0D"/>
<path d="M30.023 37.8948H29.7379V38.5987H32.9288V38.3078H30.023V37.8948Z" fill="#0C0D0D"/>
<path d="M7.09888 53.2329L4.06212 57.7008V59.865C3.95463 59.7652 3.8572 59.6551 3.77124 59.5363V57.6106L6.85746 53.0671L7.09888 53.2329Z" fill="#0C0D0D"/>
<path d="M32.4286 57.6107V59.5363C32.3418 59.6544 32.2444 59.7644 32.1377 59.865V57.7008L29.101 53.233L29.3424 53.0701L32.4286 57.6107Z" fill="#0C0D0D"/>
<path d="M10.2142 45.6585V46.2228L4.55078 42.7323V42.168L10.2142 45.6585Z" fill="#58595B"/>
<path d="M10.2142 47.6363V49.047L4.55078 45.5565V44.1458L10.2142 47.6363Z" fill="#58595B"/>
<path d="M10.2142 50.5452V53.4104L4.55078 49.9198V47.0547L10.2142 50.5452Z" fill="#58595B"/>
<path d="M10.2142 27.8482V28.4125L4.55078 24.922V24.3577L10.2142 27.8482Z" fill="#58595B"/>
<path d="M10.2142 28.9505V30.3642L4.55078 26.8736V25.46L10.2142 28.9505Z" fill="#58595B"/>
<path d="M10.2142 31.8594V34.7275L4.55078 31.237V28.3689L10.2142 31.8594Z" fill="#58595B"/>
<path d="M26.0089 4.90662L21.8377 11.6783H21.2734L25.497 4.82227L26.0089 4.90662Z" fill="#58595B"/>
<path d="M24.2084 4.63883L19.8714 11.6781H18.449L22.8732 4.49048C23.3357 4.53993 23.7662 4.58647 24.2084 4.63883Z" fill="#58595B"/>
<path d="M20.552 5.97109L17.0382 11.6781H15.6245L18.446 7.10842H16.4681L18.2133 4.29272C18.6846 4.29272 19.1529 4.29272 19.6125 4.31309L18.5857 5.97982L20.552 5.97109Z" fill="#58595B"/>
<path d="M31.649 31.6875V32.2518L25.3137 28.3482V27.781L31.649 31.6875Z" fill="#58595B"/>
<path d="M31.649 28.8633V30.2741L25.3137 26.3705V24.9597L31.649 28.8633Z" fill="#58595B"/>
<path d="M31.649 25.3728V28.238L25.3137 24.3344V21.4692L31.649 25.3728Z" fill="#58595B"/>
<path d="M31.649 50.3706V50.9349L25.3137 47.0313V46.467L31.649 50.3706Z" fill="#58595B"/>
<path d="M31.649 47.5464V48.9601L25.3137 45.0536V43.6428L31.649 47.5464Z" fill="#58595B"/>
<path d="M31.649 43.1831V46.0512L25.3137 42.1447V39.2795L31.649 43.1831Z" fill="#58595B"/>
<path d="M20.3601 52.8606L16.3896 59.3035L15.8369 59.289L19.7958 52.8606H20.3601Z" fill="#58595B"/>
<path d="M23.1845 52.8606L19.2053 59.318C18.8417 59.318 18.4723 59.318 18.1 59.318H17.7916L21.7737 52.8547L23.1845 52.8606Z" fill="#58595B"/>
<path d="M23.1874 57.4303H25.1653L24.1851 59.0185C23.7022 59.068 23.2048 59.1145 22.6929 59.1523L23.0565 58.5705H21.0814L24.5952 52.8635H26.0089L23.1874 57.4303Z" fill="#58595B"/>
<path d="M29.5692 54.7688C29.7525 54.6902 29.927 54.6146 30.0812 54.5331V10.628L29.9357 10.5408C27.8414 9.33364 23.3299 8.50464 18.0999 8.50464C12.8699 8.50464 8.35841 9.34237 6.26409 10.5408L6.11865 10.628V54.5215C6.27573 54.603 6.44735 54.6786 6.6306 54.7571C8.85291 55.6821 13.1579 56.3075 18.0999 56.3075C23.0419 56.3075 27.3469 55.685 29.5692 54.7688Z" fill="#636363"/>
<path d="M18.1 56.61C13.2918 56.61 8.85592 56.0078 6.52017 55.0392C6.2991 54.9461 6.1304 54.8676 5.98496 54.7891C5.93797 54.7647 5.89851 54.728 5.87083 54.6829C5.84315 54.6378 5.8283 54.586 5.82788 54.5331V10.9189C5.82796 10.8702 5.84025 10.8223 5.86363 10.7796C5.887 10.7369 5.92072 10.7008 5.96168 10.6745C5.99362 10.6534 6.02663 10.634 6.06058 10.6163L6.11294 10.5844C8.34689 9.29286 12.9369 8.49585 18.1 8.49585C23.2631 8.49585 27.8532 9.29285 30.0813 10.5814L30.1395 10.6134L30.2384 10.6745C30.2793 10.7008 30.313 10.7369 30.3364 10.7796C30.3598 10.8223 30.3721 10.8702 30.3722 10.9189V54.5215C30.3717 54.5744 30.3569 54.6262 30.3292 54.6713C30.3015 54.7164 30.2621 54.7531 30.2151 54.7774C30.0696 54.8531 29.9009 54.9345 29.6828 55.0247C27.3441 56.0078 22.9082 56.61 18.1 56.61ZM6.40964 54.3527C6.50854 54.3993 6.61616 54.4487 6.74414 54.5011C9.01299 55.4435 13.3645 56.0282 18.0884 56.0282C22.8122 56.0282 27.1754 55.4464 29.4326 54.5011C29.5606 54.4458 29.6711 54.3993 29.7671 54.3527V11.0818C27.6612 9.86588 23.0769 9.07761 18.0826 9.07761C13.0882 9.07761 8.50396 9.86588 6.39218 11.0847L6.40964 54.3527Z" fill="black"/>
<path d="M9.75462 1C9.70288 1.11885 9.61746 1.21994 9.5089 1.29076C9.40033 1.36158 9.27339 1.39904 9.14377 1.3985H6.69459C6.56496 1.39904 6.43802 1.36158 6.32946 1.29076C6.2209 1.21994 6.13547 1.11885 6.08374 1H9.75462Z" fill="black"/>
<path d="M30.1161 1C30.0643 1.11885 29.9789 1.21994 29.8703 1.29076C29.7618 1.36158 29.6348 1.39904 29.5052 1.3985H27.056C26.9264 1.39904 26.7995 1.36158 26.6909 1.29076C26.5823 1.21994 26.4969 1.11885 26.4452 1H30.1161Z" fill="black"/>
<path d="M3.72189 33.7849H3.68116C3.5414 33.7849 3.4281 33.8982 3.4281 34.038V36.3563C3.4281 36.496 3.5414 36.6093 3.68116 36.6093H3.72189C3.86165 36.6093 3.97495 36.496 3.97495 36.3563V34.038C3.97495 33.8982 3.86165 33.7849 3.72189 33.7849Z" fill="#404041"/>
<path d="M32.5188 33.7849H32.478C32.3383 33.7849 32.225 33.8982 32.225 34.038V36.3563C32.225 36.496 32.3383 36.6093 32.478 36.6093H32.5188C32.6585 36.6093 32.7718 36.496 32.7718 36.3563V34.038C32.7718 33.8982 32.6585 33.7849 32.5188 33.7849Z" fill="#404041"/>
<path d="M9.80985 59.7573C9.80985 60.0045 9.51897 60.2052 9.14374 60.2052H6.69456C6.32805 60.2052 6.02844 60.0045 6.02844 59.7573C6.02844 59.51 6.31932 59.3093 6.69456 59.3093H9.14374C9.51025 59.3093 9.80985 59.51 9.80985 59.7573Z" fill="#BE1E2D"/>
<path d="M30.1714 59.7573C30.1714 60.0045 29.8805 60.2052 29.5053 60.2052H27.0561C26.6896 60.2052 26.39 60.0045 26.39 59.7573C26.39 59.51 26.6809 59.3093 27.0561 59.3093H29.5053C29.8718 59.3093 30.1714 59.51 30.1714 59.7573Z" fill="#BE1E2D"/>
<path d="M11.8025 2.65231C11.7834 2.65346 11.7643 2.65083 11.7462 2.64458C11.7281 2.63833 11.7114 2.62858 11.6971 2.61589C11.6828 2.60319 11.6711 2.5878 11.6627 2.57059C11.6544 2.55339 11.6495 2.5347 11.6483 2.5156C11.6472 2.4965 11.6498 2.47736 11.6561 2.45928C11.6623 2.4412 11.6721 2.42452 11.6848 2.4102C11.6974 2.39589 11.7128 2.38421 11.7301 2.37585C11.7473 2.36748 11.7659 2.36258 11.785 2.36144C13.8817 2.12589 15.9901 2.01032 18.1 2.01529H18.2164C18.7021 2.01529 19.2199 2.01529 19.7609 2.03856C21.0437 2.07347 22.2596 2.14619 23.3736 2.25381C23.7256 2.28581 24.0717 2.32071 24.415 2.35853C24.4535 2.36277 24.4888 2.38216 24.5131 2.41244C24.5374 2.44271 24.5486 2.48139 24.5444 2.51996C24.5402 2.55854 24.5208 2.59384 24.4905 2.61812C24.4602 2.64239 24.4215 2.65365 24.383 2.6494C24.0426 2.61159 23.6965 2.57668 23.3474 2.54469C22.2363 2.43706 21.0204 2.36434 19.7551 2.32944C19.2141 2.31489 18.6992 2.30617 18.2164 2.30617H18.1C16.0017 2.30117 13.9049 2.41674 11.8199 2.65231H11.8025Z" fill="#0C0D0D"/>
<path d="M11.8025 3.2341C11.7834 3.23525 11.7643 3.23262 11.7462 3.22637C11.7281 3.22012 11.7114 3.21037 11.6971 3.19767C11.6828 3.18498 11.6711 3.16959 11.6627 3.15238C11.6544 3.13517 11.6495 3.11649 11.6483 3.09739C11.6472 3.07829 11.6498 3.05915 11.6561 3.04107C11.6623 3.02298 11.6721 3.00631 11.6848 2.99199C11.6974 2.97768 11.7128 2.966 11.7301 2.95763C11.7473 2.94927 11.7659 2.94437 11.785 2.94322C13.8817 2.70767 15.9901 2.5921 18.1 2.59708H18.2164C18.7021 2.59708 19.2199 2.59708 19.7609 2.62035C21.0437 2.65525 22.2596 2.72797 23.3736 2.8356C23.7256 2.86759 24.0717 2.9025 24.415 2.94031C24.4535 2.94456 24.4888 2.96395 24.5131 2.99422C24.5374 3.0245 24.5486 3.06318 24.5444 3.10175C24.5402 3.14032 24.5208 3.17563 24.4905 3.19991C24.4602 3.22418 24.4215 3.23543 24.383 3.23119C24.0426 3.19338 23.6965 3.15847 23.3474 3.12648C22.2363 3.01885 21.0204 2.94613 19.7551 2.91123C19.2141 2.91123 18.6992 2.88796 18.2164 2.88796H18.1C16.0017 2.88296 13.9049 2.99853 11.8199 3.2341H11.8025Z" fill="#0C0D0D"/>
<path d="M11.8025 3.81564C11.7834 3.81679 11.7643 3.81416 11.7462 3.80791C11.7281 3.80166 11.7114 3.79191 11.6971 3.77922C11.6828 3.76652 11.6711 3.75113 11.6627 3.73392C11.6544 3.71672 11.6495 3.69803 11.6483 3.67893C11.6472 3.65983 11.6498 3.64069 11.6561 3.62261C11.6623 3.60453 11.6721 3.58785 11.6848 3.57353C11.6974 3.55922 11.7128 3.54754 11.7301 3.53918C11.7473 3.53081 11.7659 3.52591 11.785 3.52477C13.8817 3.28922 15.9901 3.17365 18.1 3.17862H18.2164C18.7021 3.17862 19.2199 3.17862 19.7609 3.20189C21.0437 3.2368 22.2596 3.30952 23.3736 3.41714C23.7256 3.44914 24.0717 3.48404 24.415 3.52186C24.4535 3.5261 24.4888 3.54549 24.5131 3.57577C24.5374 3.60604 24.5486 3.64472 24.5444 3.68329C24.5402 3.72187 24.5208 3.75717 24.4905 3.78145C24.4602 3.80572 24.4215 3.81698 24.383 3.81273C24.0426 3.77492 23.6965 3.74001 23.3474 3.70802C22.2363 3.60039 21.0204 3.52767 19.7551 3.49277C19.2141 3.49277 18.6992 3.4695 18.2164 3.4695H18.1C16.0017 3.4645 13.9049 3.58007 11.8199 3.81564H11.8025Z" fill="#0C0D0D"/>
<path d="M10.2462 2.12866V3.32708C10.246 3.36144 10.2336 3.3946 10.2112 3.42069C10.1888 3.44678 10.158 3.46411 10.124 3.46961C10.0688 3.46961 4.88824 4.34224 3.28259 5.67737V5.31378C5.00168 4.11536 9.16414 3.34162 9.95533 3.202V2.16357H10.0106L10.2462 2.12866Z" fill="#0C0D0D"/>
<path d="M32.9347 5.31375V5.67444C31.3145 4.35095 26.1485 3.47831 26.0932 3.46668C26.0567 3.46524 26.022 3.45007 25.9961 3.42419C25.9702 3.39831 25.955 3.36363 25.9536 3.32706V2.12573L26.1892 2.16355H26.2387V3.19325C27.0473 3.3416 31.2098 4.11534 32.9347 5.31375Z" fill="#0C0D0D"/>
<path d="M9.19906 2.30029V3.10021C7.72128 3.22436 6.27081 3.57153 4.89697 4.12991V3.41436C6.29493 2.91552 7.73469 2.54268 9.19906 2.30029Z" fill="#CFD8DC"/>
<path d="M31.3029 3.41436V4.12991C29.9291 3.57153 28.4786 3.22436 27.0009 3.10021V2.30029C28.4654 2.54194 29.9052 2.9148 31.3029 3.41436Z" fill="#CFD8DC"/>
<path d="M26.1777 36.0073L26.3028 35.6989L26.3668 35.7251V35.5681L26.4715 35.315L26.3929 35.1201L26.3086 35.3324L26.0439 35.4372L25.9392 35.3964L25.8984 35.2917L26.0032 35.027L26.2155 34.9427L26.0235 34.8641L25.7675 34.9688H25.6105L25.6366 35.0299L25.3283 35.155L24.6302 34.8641H24.6098H24.5866L23.8885 35.155L23.1904 34.8641H23.17H23.1467L22.4486 35.155L21.7534 34.8641H21.7302H21.7069L21.0117 35.155L20.3136 34.8641H20.2903H20.2699L19.5718 35.155L18.8737 34.8641H18.8534H18.8301L18.132 35.155L17.4339 34.8641H17.4135H17.3903L16.6922 35.155L15.994 34.8641H15.9737H15.9504L15.2552 35.155L14.5571 34.8641H14.5338H14.5135L13.8154 35.155L13.1173 34.8641H13.0969H13.0736L12.3755 35.155L11.6774 34.8641H11.6571H11.6338L10.9822 35.1288H10.9415L10.6041 34.9921L10.6244 34.9427H10.479L10.2463 34.8467L10.0514 34.9252L10.2201 34.9921L10.3336 35.283L10.2841 35.4052L10.223 35.4284L9.89724 35.3237L9.81871 35.1288L9.74017 35.3237L9.84779 35.5913H9.83325V35.7484L9.90306 35.7222L10.0223 36.0131L9.73145 36.7112V36.7345V36.7548L10.0223 37.4529L9.73145 38.1511V38.1714V38.1947L10.0223 38.8928L9.73145 39.5909V39.6113V39.6345L10.0223 40.3326L9.73145 41.0278V41.0511V41.0744L10.0223 41.7696L9.73145 42.4677V42.491V42.5113L10.0223 43.2094L9.73145 43.9075V43.9279V43.9512L10.0223 44.6493L9.73145 45.3474V45.3677V45.391L10.0223 46.0891L9.73145 46.7843V46.8076V46.8308L10.0223 47.526L9.73145 48.2242V48.2474V48.2678L10.0223 48.9659L9.73145 49.664V49.6844V49.7076L10.0223 50.4057L9.89142 50.7315L9.83325 50.7083V50.8653L9.73726 51.1038L9.81579 51.2958L9.87688 51.1446L10.1998 51.0137L10.2783 51.0457L10.3103 51.1242L10.1794 51.4471L10.0281 51.5082L10.223 51.5867L10.4586 51.4907H10.6157L10.5924 51.4325L10.9182 51.3016L11.6163 51.5925H11.6396H11.66L12.3581 51.3016L13.0562 51.5925H13.0794H13.0998L13.7979 51.3016L14.496 51.5925H14.5164H14.5397L15.2378 51.3016L15.933 51.5925H15.9562H15.9766L16.6747 51.3016L17.3728 51.5925H17.3961H17.4164L18.1145 51.3016L18.8127 51.5925H18.8359H18.8563L19.5544 51.3016L20.2525 51.5925H20.2729H20.2961L20.9942 51.3016L21.6894 51.5925H21.7127H21.736L22.4312 51.3016L23.1293 51.5925H23.1525H23.1729L23.871 51.3016L24.5691 51.5925H24.5924H24.6128L25.3109 51.3016L25.6017 51.4209L25.5756 51.4907H25.7326L26.0002 51.5983L26.1922 51.5198L25.9973 51.4413L25.8752 51.1504L25.8984 51.0893L26.0206 51.0399L26.3115 51.1533L26.3784 51.322L26.4569 51.13L26.3638 50.8973V50.749L26.3115 50.7693L26.1748 50.4319L26.1893 50.3941L26.454 49.7425V49.7193V49.6989L26.1631 49.0008L26.454 48.3027V48.2823V48.2591L26.1631 47.561L26.454 46.8658V46.8425V46.8192L26.1631 46.124L26.454 45.4259V45.4026V45.3823L26.1631 44.6842L26.454 43.9861V43.9628V43.9424L26.1631 43.2443L26.454 42.5462V42.5259V42.5026L26.1631 41.8045L26.454 41.1093V41.086V41.0627L26.1631 40.3675L26.454 39.6694V39.6462V39.6258L26.1631 38.9277L26.454 38.2296V38.2063V38.186L26.1631 37.4879L26.454 36.7897V36.7694V36.7461L26.1777 36.0073ZM9.9816 35.5244V35.4982L10.0194 35.5128L9.9816 35.5244ZM9.95542 50.941L9.96996 50.9031L10.0107 50.9177L9.95542 50.941ZM26.0322 35.5797L26.1689 35.635L26.0991 35.8037L26.0119 35.5884L26.0322 35.5797ZM25.8781 35.6437L26.0206 35.9956L25.6541 35.8473L25.7123 35.7048L25.8781 35.6437ZM25.5174 50.1876L25.305 49.6611L25.5174 49.1346L25.7297 49.6611L25.5174 50.1876ZM25.5407 50.6355H25.5057H25.5319H25.5407ZM24.6157 50.2603H24.5953H24.572L23.8739 50.5512L23.1758 50.2603H23.1555H23.1322L22.4341 50.5512L21.7389 50.2603H21.7156H21.6923L20.9971 50.5512L20.299 50.2603H20.2758H20.2554L19.5573 50.5512L18.8592 50.2603H18.8388H18.8156L18.1175 50.5512L17.4193 50.2603H17.399H17.3757L16.6776 50.5512L15.9795 50.2603H15.9591H15.9359L15.2407 50.5512L14.5426 50.2603H14.5193H14.4989L13.8008 50.5512L13.1027 50.2603H13.0824H13.0591L12.361 50.5512L11.6629 50.2603H11.6425H11.6192L10.9211 50.5512L10.8077 50.5046L10.7611 50.3912L11.052 49.6931V49.6698V49.6495L10.7611 48.9513L11.052 48.2532V48.2329V48.2096L10.7611 47.5115L11.052 46.8163V46.793V46.7698L10.7611 46.0746L11.052 45.3765V45.3532V45.3328L10.7611 44.6347L11.052 43.9366V43.9133V43.893L10.7611 43.1949L11.052 42.4968V42.4764V42.4531L10.7611 41.755L11.052 41.0598V41.0366V41.0133L10.7611 40.3181L11.052 39.62V39.5967V39.5764L10.7611 38.8782L11.052 38.1801V38.1569V38.1365L10.7611 37.4384L11.052 36.7403V36.7199V36.6967L10.7611 35.9986L10.7902 35.9258L10.9211 35.8735L11.6192 36.1644H11.6425H11.6629L12.361 35.8735L13.0591 36.1644H13.0824H13.1027L13.8008 35.8735L14.4989 36.1644H14.5193H14.5426L15.2407 35.8735L15.9359 36.1644H15.9591H15.9795L16.6776 35.8735L17.3757 36.1644H17.399H17.4193L18.1175 35.8735L18.8156 36.1644H18.8388H18.8592L19.5573 35.8735L20.2554 36.1644H20.2758H20.299L20.9971 35.8735L21.6923 36.1644H21.7156H21.7389L22.4341 35.8735L23.1322 36.1644H23.1555H23.1758L23.8739 35.8735L24.572 36.1644H24.5953H24.6157L25.3138 35.8735L25.4039 35.9084L25.4389 35.9986L25.148 36.6967V36.7199V36.7403L25.4389 37.4384L25.148 38.1365V38.1569V38.1801L25.4389 38.8782L25.148 39.5764V39.5967V39.62L25.4389 40.3181L25.148 41.0133V41.0366V41.0598L25.4389 41.755L25.148 42.4531V42.4764V42.4968L25.4389 43.1949L25.148 43.893V43.9133V43.9366L25.4389 44.6347L25.148 45.3328V45.3532V45.3765L25.4389 46.0746L25.148 46.7698V46.793V46.8163L25.4389 47.5115L25.148 48.2096V48.2329V48.2532L25.4389 48.9513L25.148 49.6495V49.6698V49.6931L25.4389 50.3912L25.3865 50.5221L25.3138 50.5512L24.6157 50.2603ZM25.1189 50.621L24.5953 50.8333L24.0688 50.621L24.5953 50.4086L25.1189 50.621ZM23.6819 50.621L23.1555 50.8333L22.629 50.621L23.1555 50.4086L23.6819 50.621ZM22.2421 50.621L21.7156 50.8333L21.1891 50.621L21.7156 50.4086L22.2421 50.621ZM20.8023 50.621L20.2758 50.8333L19.7493 50.621L20.2758 50.4086L20.8023 50.621ZM19.3479 50.621L18.8214 50.8333L18.2949 50.621L18.8243 50.4086L19.3479 50.621ZM17.9109 50.621L17.3844 50.8333L16.858 50.621L17.3844 50.4086L17.9109 50.621ZM16.4711 50.621L15.9446 50.8333L15.4181 50.621L15.9446 50.4086L16.4711 50.621ZM15.0312 50.621L14.5048 50.8333L13.9783 50.621L14.5048 50.4086L15.0312 50.621ZM13.5914 50.621L13.0678 50.8333L12.5413 50.621L13.0678 50.4086L13.5914 50.621ZM12.1545 50.621L11.628 50.8333L11.1015 50.621L11.628 50.4086L12.1545 50.621ZM10.6681 50.1876L10.4557 49.6611L10.6681 49.1346L10.8804 49.6611L10.6681 50.1876ZM10.6913 50.6297L10.6361 50.653L10.6593 50.5977H10.6826L10.6913 50.6297ZM10.6826 36.1964L10.895 36.7228L10.6826 37.2493L10.4703 36.7228L10.6826 36.1964ZM10.6681 35.7746H10.6943V35.8008L10.6681 35.7746ZM10.4703 46.7959L10.6826 46.2695L10.895 46.7959L10.6826 47.3224L10.4703 46.7959ZM10.895 48.2358L10.6826 48.7623L10.4703 48.2358L10.6826 47.7093L10.895 48.2358ZM10.4703 45.3561L10.6826 44.8296L10.895 45.3561L10.6826 45.8826L10.4703 45.3561ZM10.4703 43.9163L10.6826 43.3898L10.895 43.9163L10.6826 44.4427L10.4703 43.9163ZM10.4703 42.4793L10.6826 41.9528L10.895 42.4793L10.6826 43.0058L10.4703 42.4793ZM10.4703 41.0249L10.6826 40.4984L10.895 41.0249L10.6826 41.5514L10.4703 41.0249ZM10.4703 39.5851L10.6826 39.0586L10.895 39.5851L10.6826 40.1116L10.4703 39.5851ZM10.4703 38.1452L10.6826 37.6187L10.895 38.1452L10.6826 38.6717L10.4703 38.1452ZM10.3917 36.5134L10.2405 36.1382L10.6041 35.9898L10.3917 36.5134ZM10.6041 37.4268L10.3917 37.9533L10.1794 37.4268L10.3917 36.9003L10.6041 37.4268ZM10.6041 38.8666L10.3917 39.3931L10.1794 38.8666L10.3917 38.3401L10.6041 38.8666ZM10.6041 40.3065L10.3917 40.83L10.1794 40.3065L10.3917 39.78L10.6041 40.3065ZM10.6041 41.7434L10.3917 42.3048L10.1794 41.7783L10.3917 41.2518L10.6041 41.7434ZM10.6041 43.1978L10.3917 43.7243L10.1794 43.1978L10.3917 42.6713L10.6041 43.1978ZM10.6041 44.6376L10.3917 45.1641L10.1794 44.6376L10.3917 44.1111L10.6041 44.6376ZM10.6041 46.092L10.3917 46.6185L10.1794 46.092L10.3917 45.5655L10.6041 46.092ZM10.6041 47.529L10.3917 48.0554L10.1794 47.529L10.3917 47.0025L10.6041 47.529ZM10.6041 48.9688L10.3917 49.4953L10.1794 48.9688L10.3917 48.4423L10.6041 48.9688ZM10.6041 50.4232V50.4494L10.2376 50.3039L10.4034 49.8967L10.6041 50.4232ZM11.1189 35.8037L11.6454 35.5913L12.1719 35.8037L11.6454 36.016L11.1189 35.8037ZM12.5588 35.8037L13.0853 35.5913L13.6088 35.8037L13.0853 36.016L12.5588 35.8037ZM13.9957 35.8037L14.5222 35.5913L15.0487 35.8037L14.5222 36.016L13.9957 35.8037ZM15.4356 35.8037L15.962 35.5913L16.4885 35.8037L15.962 36.016L15.4356 35.8037ZM16.8754 35.8037L17.4019 35.5913L17.9284 35.8037L17.4019 36.016L16.8754 35.8037ZM18.3123 35.8037L18.8388 35.5913L19.3653 35.8037L18.8417 36.016L18.3123 35.8037ZM19.7522 35.8037L20.2787 35.5913L20.8052 35.8037L20.2787 36.016L19.7522 35.8037ZM21.192 35.8037L21.7185 35.5913L22.245 35.8037L21.7185 36.016L21.192 35.8037ZM22.6319 35.8037L23.1584 35.5913L23.6849 35.8037L23.1584 36.016L22.6319 35.8037ZM24.0717 35.8037L24.5982 35.5913L25.1218 35.8037L24.5982 36.016L24.0717 35.8037ZM25.5261 36.2022L25.7385 36.7287L25.5261 37.2551L25.3138 36.7287L25.5261 36.2022ZM25.3196 46.8018L25.5319 46.2753L25.7443 46.8018L25.5319 47.3283L25.3196 46.8018ZM25.7443 48.2416L25.5319 48.7681L25.3196 48.2416L25.5319 47.7151L25.7443 48.2416ZM25.3196 45.3619L25.5319 44.8354L25.7443 45.3619L25.5319 45.8884L25.3196 45.3619ZM25.3196 43.9221L25.5319 43.3956L25.7443 43.9221L25.5319 44.4486L25.3196 43.9221ZM25.3196 42.4851L25.5319 41.9586L25.7443 42.4851L25.5319 43.0116L25.3196 42.4851ZM25.3196 41.0307L25.5319 40.5043L25.7443 41.0307L25.5319 41.5572L25.3196 41.0307ZM25.3196 39.5909L25.5319 39.0644L25.7443 39.5909L25.5319 40.1174L25.3196 39.5909ZM25.3196 38.1511L25.5319 37.6246L25.7443 38.1511L25.5319 38.6775L25.3196 38.1511ZM25.8083 49.8676L25.977 50.2865L25.6105 50.4348L25.5959 50.3941L25.8083 49.8676ZM25.5959 48.9543L25.8083 48.4278L26.0206 48.9543L25.8083 49.4807L25.5959 48.9543ZM25.5959 47.5144L25.8083 46.9879L26.0206 47.5144L25.8083 48.0409L25.5959 47.5144ZM25.5959 46.0775L25.8083 45.551L26.0206 46.0775L25.8083 46.604L25.5959 46.0775ZM25.5959 44.6231L25.8083 44.0966L26.0206 44.6231L25.8083 45.1496L25.5959 44.6231ZM25.5959 43.1832L25.8083 42.6568L26.0206 43.1832L25.8083 43.7097L25.5959 43.1832ZM25.5959 41.7289L25.8083 41.2024L26.0206 41.7289L25.8083 42.3048L25.5959 41.7289ZM25.5959 40.2919L25.8083 39.7654L26.0206 40.2919L25.8083 40.8155L25.5959 40.2919ZM25.5959 38.8521L25.8083 38.3256L26.0206 38.8521L25.8083 39.3786L25.5959 38.8521ZM25.5959 37.4122L25.8083 36.8857L26.0206 37.4122L25.8083 37.9387L25.5959 37.4122ZM25.5959 35.9578L25.9624 36.1062L25.8054 36.493L25.5959 35.9578ZM25.6745 35.1027L25.7297 35.2394V35.2597L25.5145 35.1725L25.6745 35.1027ZM25.3138 35.251L25.6686 35.3935L25.6017 35.5593L25.4563 35.6175L25.3109 35.251H25.3138ZM25.3138 35.6728L24.7873 35.4604L25.1742 35.3034L25.3138 35.6728ZM24.5866 34.9601L25.1102 35.1725L24.5866 35.3848L24.0601 35.1725L24.5866 34.9601ZM24.3917 35.4633L23.8652 35.6757L23.3387 35.4633L23.8652 35.251L24.3917 35.4633ZM23.1467 34.9601L23.6732 35.1725L23.1467 35.3848L22.6202 35.1725L23.1467 34.9601ZM22.9518 35.4633L22.4254 35.6757L21.8989 35.4633L22.4254 35.251L22.9518 35.4633ZM21.7069 34.9601L22.2334 35.1725L21.7069 35.3848L21.1804 35.1725L21.7069 34.9601ZM21.5149 35.4633L20.9884 35.6757L20.4619 35.4633L20.9884 35.251L21.5149 35.4633ZM20.267 34.9601L20.7935 35.1725L20.267 35.3848L19.7406 35.1725L20.267 34.9601ZM20.0751 35.4633L19.5486 35.6757L19.0221 35.4633L19.5486 35.251L20.0751 35.4633ZM18.8301 34.9601L19.3537 35.1725L18.8272 35.3848L18.3007 35.1725L18.8301 34.9601ZM18.6352 35.4633L18.1087 35.6757L17.5822 35.4633L18.1087 35.251L18.6352 35.4633ZM17.3903 34.9601L17.9167 35.1725L17.3903 35.3848L16.8638 35.1725L17.3903 34.9601ZM17.1954 35.4633L16.6689 35.6757L16.1424 35.4633L16.6689 35.251L17.1954 35.4633ZM15.9504 34.9601L16.4769 35.1725L15.9504 35.3848L15.4239 35.1725L15.9504 34.9601ZM15.7584 35.4633L15.2319 35.6757L14.7055 35.4633L15.2319 35.251L15.7584 35.4633ZM14.5106 34.9601L15.0371 35.1725L14.5106 35.3848L13.9841 35.1725L14.5106 34.9601ZM14.3186 35.4633L13.7921 35.6757L13.2656 35.4633L13.7921 35.251L14.3186 35.4633ZM13.0736 34.9601L13.5972 35.1725L13.0736 35.3848L12.5471 35.1725L13.0736 34.9601ZM12.8787 35.4633L12.3522 35.6757L11.8258 35.4633L12.3522 35.251L12.8787 35.4633ZM11.6338 34.9601L12.1603 35.1725L11.6338 35.3848L11.1073 35.1725L11.6338 34.9601ZM11.02 35.2946L11.4389 35.4633L10.9124 35.6757H10.8717L11.02 35.2946ZM10.7292 35.6059L10.575 35.5419L10.5197 35.4052L10.8688 35.2655L10.7292 35.6059ZM10.511 35.091L10.7117 35.1725L10.4645 35.2714V35.2394L10.511 35.091ZM10.319 35.5913L10.4732 35.6553L10.543 35.8269L10.1765 35.9753V35.9578L10.319 35.5913ZM10.1794 35.5477L10.0921 35.7659L10.0281 35.6088L10.1794 35.5477ZM9.88851 36.6792L10.1009 36.1527L10.3132 36.6792L10.1009 37.2057L9.88851 36.6792ZM9.88851 38.1161L10.1009 37.5897L10.3132 38.1161L10.1009 38.6426L9.88851 38.1161ZM9.88851 39.556L10.1009 39.0295L10.3132 39.556L10.1009 40.0825L9.88851 39.556ZM9.88851 40.9958L10.1009 40.4693L10.3132 40.9958L10.1009 41.5223L9.88851 40.9958ZM9.88851 42.4502L10.1009 41.9237L10.3132 42.4502L10.1009 42.9767L9.88851 42.4502ZM9.88851 43.8872L10.1009 43.3607L10.3132 43.8872L10.1009 44.4137L9.88851 43.8872ZM9.88851 45.327L10.1009 44.8005L10.3132 45.327L10.1009 45.8535L9.88851 45.327ZM9.88851 46.7814L10.1009 46.2549L10.3132 46.7814L10.1009 47.3079L9.88851 46.7814ZM9.88851 48.2212L10.1009 47.6948L10.3132 48.2212L10.1009 48.7477L9.88851 48.2212ZM9.88851 49.6582L10.1009 49.1317L10.3132 49.6582L10.1009 50.1847L9.88851 49.6582ZM10.2027 50.8217L10.0252 50.749L10.1009 50.5628L10.2056 50.8217H10.2027ZM10.3685 51.3365L10.3917 51.2813L10.4063 51.322L10.3685 51.3365ZM10.3394 50.7548L10.1852 50.3796L10.5401 50.5221L10.4645 50.7053L10.3394 50.7548ZM10.543 51.2551L10.4703 51.0777L10.7292 51.1824L10.543 51.2551ZM10.5255 50.941L10.575 50.8159L10.7611 50.7402L10.9008 51.0951L10.5255 50.941ZM10.895 50.6879H10.9211L11.4476 50.9002L11.0433 51.066L10.895 50.6879ZM11.6425 51.3918L11.116 51.1795L11.6425 50.9671L12.169 51.1795L11.6425 51.3918ZM11.8345 50.8886L12.361 50.6763L12.8875 50.8886L12.361 51.1009L11.8345 50.8886ZM13.0824 51.3918L12.5559 51.1795L13.0824 50.9671L13.6059 51.1795L13.0824 51.3918ZM13.2743 50.8886L13.8008 50.6763L14.3273 50.8886L13.8008 51.1009L13.2743 50.8886ZM14.5193 51.3918L13.9928 51.1795L14.5193 50.9671L15.0458 51.1795L14.5193 51.3918ZM14.7142 50.8886L15.2407 50.6763L15.7672 50.8886L15.2407 51.1009L14.7142 50.8886ZM15.9591 51.3918L15.4326 51.1795L15.9591 50.9671L16.4856 51.1795L15.9591 51.3918ZM16.1511 50.8886L16.6776 50.6763L17.2041 50.8886L16.6776 51.1009L16.1511 50.8886ZM17.399 51.3918L16.8725 51.1795L17.399 50.9671L17.9255 51.1795L17.399 51.3918ZM17.591 50.8886L18.1175 50.6763L18.6439 50.8886L18.1175 51.1009L17.591 50.8886ZM18.8388 51.3918L18.3094 51.1795L18.8359 50.9671L19.3624 51.1795L18.8388 51.3918ZM19.0308 50.8886L19.5573 50.6763L20.0838 50.8886L19.5573 51.1009L19.0308 50.8886ZM20.2758 51.3918L19.7493 51.1795L20.2758 50.9671L20.8023 51.1795L20.2758 51.3918ZM20.4707 50.8886L20.9971 50.6763L21.5236 50.8886L20.9971 51.1009L20.4707 50.8886ZM21.7156 51.3918L21.1891 51.1795L21.7156 50.9671L22.2421 51.1795L21.7156 51.3918ZM21.9076 50.8886L22.4341 50.6763L22.9606 50.8886L22.4341 51.1009L21.9076 50.8886ZM23.1555 51.3918L22.629 51.1795L23.1555 50.9671L23.6819 51.1795L23.1555 51.3918ZM23.3474 50.8886L23.8739 50.6763L24.4004 50.8886L23.8739 51.1009L23.3474 50.8886ZM24.5953 51.3918L24.0688 51.1795L24.5953 50.9671L25.1189 51.1795L24.5953 51.3918ZM24.7873 50.8886L25.3109 50.6763L25.1625 51.0399L24.7873 50.8886ZM25.2963 51.0951L25.4447 50.7286L25.6163 50.7984L25.6803 50.9526L25.3138 51.1009L25.2963 51.0951ZM25.6628 51.2435L25.5057 51.1795L25.7239 51.0922L25.6628 51.2435ZM25.7966 51.2987V51.2696L25.8112 51.3075L25.7966 51.2987ZM25.8577 50.7432L25.721 50.6879L25.657 50.5337L25.9973 50.397L25.8577 50.7432ZM26.1719 50.7519L26.0235 50.8101H25.9915L26.0904 50.5628L26.1719 50.7519ZM26.3028 49.6378L26.0904 50.1643L25.8781 49.6378L26.0904 49.1113L26.3028 49.6378ZM26.3028 48.2009L26.0904 48.7274L25.8781 48.2009L26.0904 47.6744L26.3028 48.2009ZM26.3028 46.761L26.0904 47.2875L25.8781 46.761L26.0904 46.2345L26.3028 46.761ZM26.3028 45.3067L26.0904 45.8331L25.8781 45.3067L26.0904 44.7802L26.3028 45.3067ZM26.3028 43.8668L26.0904 44.3933L25.8781 43.8668L26.0904 43.3403L26.3028 43.8668ZM26.3028 42.4299L26.0904 42.9564L25.8781 42.4299L26.0904 41.9034L26.3028 42.4299ZM26.3028 40.9755L26.0904 41.502L25.8781 40.9755L26.0904 40.449L26.3028 40.9755ZM26.3028 39.5356L26.0904 40.0621L25.8781 39.5356L26.0904 39.0091L26.3028 39.5356ZM26.3028 38.0958L26.0904 38.6223L25.8781 38.0958L26.0904 37.5693L26.3028 38.0958ZM26.0904 37.1853L25.8781 36.6588L26.0904 36.1324L26.3028 36.6588L26.0904 37.1853Z" fill="#929497"/>
<path d="M24.3363 35.8909H11.8635C11.2771 35.8909 10.8018 36.3662 10.8018 36.9526V49.4254C10.8018 50.0118 11.2771 50.4871 11.8635 50.4871H24.3363C24.9227 50.4871 25.398 50.0118 25.398 49.4254V36.9526C25.398 36.3662 24.9227 35.8909 24.3363 35.8909Z" fill="#6D6E70"/>
<path d="M25.5173 51.8862H10.6826C10.347 51.8862 10.0251 51.7528 9.78784 51.5156C9.55054 51.2783 9.41724 50.9564 9.41724 50.6208V35.7861C9.41724 35.4505 9.55054 35.1286 9.78784 34.8914C10.0251 34.6541 10.347 34.5208 10.6826 34.5208H25.5173C25.8529 34.5208 26.1748 34.6541 26.412 34.8914C26.6493 35.1286 26.7826 35.4505 26.7826 35.7861V50.6208C26.7826 50.9564 26.6493 51.2783 26.412 51.5156C26.1748 51.7528 25.8529 51.8862 25.5173 51.8862ZM10.6826 35.3934C10.5786 35.3941 10.4792 35.4358 10.4057 35.5092C10.3323 35.5827 10.2906 35.6822 10.2899 35.7861V50.6208C10.2906 50.7248 10.3323 50.8242 10.4057 50.8977C10.4792 50.9711 10.5786 51.0128 10.6826 51.0135H25.5173C25.6212 51.0128 25.7207 50.9711 25.7942 50.8977C25.8676 50.8242 25.9093 50.7248 25.91 50.6208V35.7861C25.9093 35.6822 25.8676 35.5827 25.7942 35.5092C25.7207 35.4358 25.6212 35.3941 25.5173 35.3934H10.6826Z" fill="#58595B"/>
<path d="M25.7509 43.2233C25.762 38.9967 22.3446 35.5613 18.118 35.5503C13.8913 35.5392 10.456 38.9566 10.445 43.1832C10.4339 47.4098 13.8513 50.8452 18.0779 50.8562C22.3045 50.8673 25.7398 47.4499 25.7509 43.2233Z" fill="#262626"/>
<path d="M25.1168 43.2217C25.1269 39.3453 21.9927 36.1947 18.1163 36.1845C14.2399 36.1744 11.0892 39.3086 11.079 43.185C11.0689 47.0614 14.2031 50.2121 18.0795 50.2222C21.9559 50.2324 25.1066 47.0982 25.1168 43.2217Z" fill="#404041"/>
<path d="M22.2138 43.214C22.2197 40.9408 20.3818 39.0933 18.1086 39.0873C15.8355 39.0814 13.9879 40.9193 13.982 43.1924C13.976 45.4656 15.8139 47.3132 18.0871 47.3191C20.3603 47.3251 22.2078 45.4871 22.2138 43.214Z" fill="#BBBDBF"/>
<path d="M18.1 44.5736C17.8291 44.5736 17.5642 44.4932 17.3389 44.3427C17.1136 44.1921 16.938 43.9782 16.8343 43.7278C16.7306 43.4775 16.7034 43.202 16.7563 42.9363C16.8092 42.6705 16.9397 42.4264 17.1313 42.2348C17.3229 42.0432 17.567 41.9127 17.8327 41.8598C18.0985 41.807 18.374 41.8341 18.6243 41.9378C18.8746 42.0415 19.0886 42.2171 19.2392 42.4424C19.3897 42.6677 19.47 42.9326 19.47 43.2035C19.47 43.5669 19.3257 43.9154 19.0688 44.1723C18.8118 44.4292 18.4634 44.5736 18.1 44.5736Z" fill="#808184"/>
<path d="M20.9709 43.6864C20.8754 43.6864 20.782 43.6581 20.7026 43.605C20.6232 43.552 20.5613 43.4766 20.5248 43.3883C20.4883 43.3001 20.4787 43.203 20.4973 43.1094C20.5159 43.0157 20.5619 42.9297 20.6295 42.8621C20.697 42.7946 20.783 42.7486 20.8767 42.73C20.9704 42.7113 21.0674 42.7209 21.1557 42.7575C21.2439 42.794 21.3193 42.8559 21.3724 42.9353C21.4254 43.0147 21.4538 43.1081 21.4538 43.2036C21.4538 43.3316 21.4029 43.4544 21.3123 43.545C21.2218 43.6355 21.099 43.6864 20.9709 43.6864Z" fill="#808184"/>
<path d="M15.229 43.6864C15.1335 43.6864 15.0401 43.6581 14.9607 43.605C14.8813 43.552 14.8194 43.4766 14.7829 43.3883C14.7463 43.3001 14.7367 43.203 14.7554 43.1094C14.774 43.0157 14.82 42.9297 14.8875 42.8621C14.955 42.7946 15.0411 42.7486 15.1348 42.73C15.2284 42.7113 15.3255 42.7209 15.4137 42.7575C15.502 42.794 15.5774 42.8559 15.6304 42.9353C15.6835 43.0147 15.7118 43.1081 15.7118 43.2036C15.7118 43.3316 15.6609 43.4544 15.5704 43.545C15.4798 43.6355 15.357 43.6864 15.229 43.6864Z" fill="#808184"/>
<path d="M17.6172 46.0861C17.6172 45.9906 17.6455 45.8973 17.6986 45.8179C17.7516 45.7385 17.827 45.6766 17.9153 45.64C18.0035 45.6035 18.1006 45.5939 18.1942 45.6126C18.2879 45.6312 18.3739 45.6772 18.4415 45.7447C18.509 45.8122 18.555 45.8983 18.5736 45.9919C18.5923 46.0856 18.5827 46.1827 18.5461 46.2709C18.5096 46.3591 18.4477 46.4346 18.3683 46.4876C18.2889 46.5407 18.1955 46.569 18.1 46.569C18.0366 46.569 17.9738 46.5565 17.9153 46.5322C17.8567 46.508 17.8035 46.4724 17.7586 46.4276C17.7138 46.3827 17.6782 46.3295 17.6539 46.2709C17.6297 46.2123 17.6172 46.1495 17.6172 46.0861Z" fill="#808184"/>
<path d="M17.6172 40.3325C17.6172 40.237 17.6455 40.1436 17.6986 40.0642C17.7516 39.9848 17.827 39.9229 17.9153 39.8864C18.0035 39.8498 18.1006 39.8403 18.1942 39.8589C18.2879 39.8775 18.3739 39.9235 18.4415 39.991C18.509 40.0586 18.555 40.1446 18.5736 40.2383C18.5923 40.3319 18.5827 40.429 18.5461 40.5172C18.5096 40.6055 18.4477 40.6809 18.3683 40.7339C18.2889 40.787 18.1955 40.8153 18.1 40.8153C18.0366 40.8153 17.9738 40.8028 17.9153 40.7786C17.8567 40.7543 17.8035 40.7187 17.7586 40.6739C17.7138 40.6291 17.6782 40.5758 17.6539 40.5172C17.6297 40.4587 17.6172 40.3959 17.6172 40.3325Z" fill="#808184"/>
<path d="M19.787 45.5742C19.6963 45.4835 19.6454 45.3606 19.6454 45.2324C19.6454 45.1042 19.6963 44.9812 19.787 44.8906C19.8776 44.7999 20.0005 44.749 20.1287 44.749C20.2569 44.749 20.3799 44.7999 20.4705 44.8906C20.5154 44.9355 20.551 44.9888 20.5753 45.0474C20.5996 45.106 20.6121 45.1689 20.6121 45.2324C20.6121 45.2958 20.5996 45.3587 20.5753 45.4173C20.551 45.476 20.5154 45.5293 20.4705 45.5742C20.4256 45.619 20.3724 45.6546 20.3137 45.6789C20.2551 45.7032 20.1922 45.7157 20.1287 45.7157C20.0653 45.7157 20.0024 45.7032 19.9438 45.6789C19.8851 45.6546 19.8318 45.619 19.787 45.5742Z" fill="#808184"/>
<path d="M15.7293 41.5165C15.6387 41.4259 15.5878 41.303 15.5878 41.1748C15.5878 41.0466 15.6387 40.9236 15.7293 40.833C15.82 40.7423 15.9429 40.6914 16.0711 40.6914C16.1993 40.6914 16.3223 40.7423 16.4129 40.833C16.4578 40.8779 16.4934 40.9311 16.5177 40.9898C16.542 41.0484 16.5545 41.1113 16.5545 41.1748C16.5545 41.2382 16.542 41.3011 16.5177 41.3597C16.4934 41.4184 16.4578 41.4717 16.4129 41.5165C16.368 41.5614 16.3147 41.597 16.2561 41.6213C16.1974 41.6456 16.1346 41.6581 16.0711 41.6581C16.0076 41.6581 15.9448 41.6456 15.8861 41.6213C15.8275 41.597 15.7742 41.5614 15.7293 41.5165Z" fill="#808184"/>
<path d="M15.7293 44.8906C15.7742 44.8457 15.8275 44.8101 15.8861 44.7858C15.9448 44.7615 16.0076 44.749 16.0711 44.749C16.1346 44.749 16.1974 44.7615 16.2561 44.7858C16.3147 44.8101 16.368 44.8457 16.4129 44.8906C16.4578 44.9355 16.4934 44.9888 16.5177 45.0474C16.542 45.106 16.5545 45.1689 16.5545 45.2324C16.5545 45.2958 16.542 45.3587 16.5177 45.4173C16.4934 45.476 16.4578 45.5293 16.4129 45.5742C16.3223 45.6648 16.1993 45.7157 16.0711 45.7157C15.9429 45.7157 15.82 45.6648 15.7293 45.5742C15.6387 45.4835 15.5878 45.3606 15.5878 45.2324C15.5878 45.1042 15.6387 44.9812 15.7293 44.8906Z" fill="#808184"/>
<path d="M19.787 40.833C19.8776 40.7423 20.0005 40.6914 20.1287 40.6914C20.2569 40.6914 20.3799 40.7423 20.4705 40.833C20.5612 40.9236 20.6121 41.0466 20.6121 41.1748C20.6121 41.303 20.5612 41.4259 20.4705 41.5165C20.4256 41.5614 20.3724 41.597 20.3137 41.6213C20.2551 41.6456 20.1922 41.6581 20.1287 41.6581C20.0653 41.6581 20.0024 41.6456 19.9438 41.6213C19.8851 41.597 19.8318 41.5614 19.787 41.5165C19.7421 41.4717 19.7065 41.4184 19.6822 41.3597C19.6579 41.3011 19.6454 41.2382 19.6454 41.1748C19.6454 41.1113 19.6579 41.0484 19.6822 40.9898C19.7065 40.9311 19.7421 40.8779 19.787 40.833Z" fill="#808184"/>
</g>
<defs>
<filter id="filter0_d_5_6788" x="0.199951" y="0" width="41.8" height="68.4473" filterUnits="userSpaceOnUse" color-interpolation-filters="sRGB">
<feFlood flood-opacity="0" result="BackgroundImageFix"/>
<feColorMatrix in="SourceAlpha" type="matrix" values="0 0 0 0 0 0 0 0 0 0 0 0 0 0 0 0 0 0 127 0" result="hardAlpha"/>
<feOffset dx="3" dy="3"/>
<feGaussianBlur stdDeviation="2"/>
<feComposite in2="hardAlpha" operator="out"/>
<feColorMatrix type="matrix" values="0 0 0 0 0 0 0 0 0 0 0 0 0 0 0 0 0 0 0.25 0"/>
<feBlend mode="normal" in2="BackgroundImageFix" result="effect1_dropShadow_5_6788"/>
<feBlend mode="normal" in="SourceGraphic" in2="effect1_dropShadow_5_6788" result="shape"/>
</filter>
</defs>
</svg>
