<svg width="42" height="69" viewBox="0 0 42 69" fill="none" xmlns="http://www.w3.org/2000/svg">
<g filter="url(#filter0_d_16_31888)">
<path d="M32.3624 42.5288H31.9465C31.4645 42.5288 31.0739 42.9195 31.0739 43.4014V57.9162C31.0739 58.3982 31.4645 58.7889 31.9465 58.7889H32.3624C32.8444 58.7889 33.2351 58.3982 33.2351 57.9162V43.4014C33.2351 42.9195 32.8444 42.5288 32.3624 42.5288Z" fill="#58595B"/>
<path d="M3.85646 42.5288H3.4405C2.95856 42.5288 2.56787 42.9195 2.56787 43.4014V57.9162C2.56787 58.3982 2.95856 58.7889 3.4405 58.7889H3.85646C4.3384 58.7889 4.72909 58.3982 4.72909 57.9162V43.4014C4.72909 42.9195 4.3384 42.5288 3.85646 42.5288Z" fill="#58595B"/>
<path d="M32.3624 5.29639H31.9465C31.4645 5.29639 31.0739 5.68708 31.0739 6.16902V20.6838C31.0739 21.1658 31.4645 21.5565 31.9465 21.5565H32.3624C32.8444 21.5565 33.2351 21.1658 33.2351 20.6838V6.16902C33.2351 5.68708 32.8444 5.29639 32.3624 5.29639Z" fill="#58595B"/>
<path d="M3.85646 5.29639H3.4405C2.95856 5.29639 2.56787 5.68708 2.56787 6.16902V20.6838C2.56787 21.1658 2.95856 21.5565 3.4405 21.5565H3.85646C4.3384 21.5565 4.72909 21.1658 4.72909 20.6838V6.16902C4.72909 5.68708 4.3384 5.29639 3.85646 5.29639Z" fill="#58595B"/>
<path d="M33.3747 58.8845C33.3763 58.9029 33.3763 58.9214 33.3747 58.9398C33.3739 58.9928 33.367 59.0455 33.3544 59.0969C33.2923 59.6073 33.0837 60.0887 32.7539 60.4831C32.424 60.8775 31.987 61.1679 31.4957 61.3192C31.2405 61.399 30.9747 61.4392 30.7074 61.4385H5.1014C4.83409 61.4392 4.56825 61.399 4.31312 61.3192C3.82176 61.1679 3.38475 60.8775 3.0549 60.4831C2.72505 60.0887 2.51648 59.6073 2.45441 59.0969C2.44173 59.0455 2.4349 58.9928 2.43405 58.9398C2.43247 58.9214 2.43247 58.9029 2.43405 58.8845C2.43405 58.8467 2.43405 58.8089 2.43405 58.7711L2.46605 58.7507C2.50552 58.6222 2.58484 58.5095 2.69255 58.429C2.80026 58.3485 2.93078 58.3043 3.06525 58.3028H3.38231C3.42298 58.2998 3.46382 58.2998 3.50448 58.3028H32.3014C32.3421 58.2998 32.3829 58.2998 32.4236 58.3028H32.7348C32.8698 58.3033 33.0011 58.3467 33.1099 58.4267C33.2186 58.5066 33.2991 58.6191 33.3398 58.7478L33.3718 58.7711C33.3805 58.8176 33.3776 58.8555 33.3747 58.8845Z" fill="#04B54C"/>
<path d="M9.60417 61.4473H5.82275C5.84325 61.3024 5.90949 61.1679 6.01182 61.0634C6.13736 60.9393 6.30653 60.8693 6.48304 60.8685H8.93224C9.0956 60.8663 9.25412 60.9239 9.37789 61.0306C9.50167 61.1372 9.58216 61.2854 9.60417 61.4473Z" fill="#126C37"/>
<path d="M29.9656 61.4473H26.1842C26.2047 61.3024 26.2709 61.1679 26.3733 61.0634C26.4988 60.9393 26.668 60.8693 26.8445 60.8685H29.2937C29.4571 60.8663 29.6156 60.9239 29.7393 61.0306C29.8631 61.1372 29.9436 61.2854 29.9656 61.4473Z" fill="#126C37"/>
<path d="M33.3747 3.56264C33.3747 3.60046 33.3747 5.09266 33.3747 5.13048L33.3427 5.15084C33.3028 5.28081 33.2221 5.39452 33.1127 5.47517C33.0032 5.55583 32.8707 5.59917 32.7348 5.59879H32.4177C32.377 5.60179 32.3362 5.60179 32.2955 5.59879H3.49862C3.45795 5.60179 3.41712 5.60179 3.37645 5.59879H3.06521C2.93022 5.59828 2.79888 5.55491 2.69013 5.47492C2.58139 5.39493 2.50087 5.28246 2.46019 5.15375L2.42819 5.13048C2.42819 5.09266 2.42819 3.60046 2.42819 3.56264C2.42661 3.54426 2.42661 3.52577 2.42819 3.50738C2.42904 3.45442 2.43588 3.40173 2.44855 3.3503C2.51062 2.83993 2.71919 2.35846 3.04904 1.96409C3.37889 1.56971 3.8159 1.27932 4.30726 1.128C4.56378 1.04468 4.83164 1.00151 5.10136 1.00001H30.7277C30.995 0.999285 31.2608 1.0395 31.516 1.11927C32.0073 1.27059 32.4443 1.56099 32.7742 1.95536C33.104 2.34974 33.3126 2.83121 33.3747 3.34158C33.3874 3.393 33.3942 3.44569 33.395 3.49865C33.3905 3.52063 33.3837 3.54208 33.3747 3.56264Z" fill="#04B54C"/>
<path d="M32.7349 4.17647V57.5206V58.0122C32.7359 58.5576 32.5615 59.0889 32.2375 59.5276C32.1506 59.6458 32.0533 59.7558 31.9466 59.8563C31.4723 60.3128 30.8392 60.5673 30.1809 60.5661H5.62794C4.96965 60.5673 4.33661 60.3128 3.86231 59.8563C3.75482 59.7565 3.6574 59.6465 3.57143 59.5276C3.24312 59.0906 3.06552 58.5588 3.06531 58.0122V4.49062V4.17356L3.14384 4.12702C3.63934 3.84959 4.15576 3.61131 4.6884 3.41437C6.08636 2.91553 7.52612 2.54269 8.99049 2.30031L9.7555 2.1636H9.81077L10.0464 2.12579H10.0929C12.6786 1.75491 15.2879 1.57311 17.9001 1.58184H18.0164C18.5342 1.58184 19.052 1.58184 19.5581 1.60511C20.803 1.64002 22.0102 1.70983 23.1591 1.82036C23.6565 1.86399 24.1452 1.91635 24.6135 1.97162C24.9859 2.01816 25.3524 2.07052 25.7131 2.12288H25.7596L25.9952 2.16069H26.0447L26.6031 2.25377L26.7893 2.28868C28.2538 2.53033 29.6937 2.90318 31.0914 3.40274C31.6248 3.59789 32.1413 3.83623 32.636 4.11539L32.7349 4.17647Z" fill="#278F51"/>
<path d="M31.4491 6.69541V57.3082C31.2745 57.3983 31.0797 57.4885 30.8673 57.5758C29.3286 58.2157 26.9114 58.7393 23.9822 59.0302C23.4994 59.0796 23.002 59.1262 22.49 59.164C21.3789 59.2454 20.2095 59.3007 18.9995 59.321C18.6359 59.321 18.2665 59.321 17.8942 59.321H17.5858C17.1117 59.321 16.6434 59.321 16.1838 59.3007L15.6311 59.2861C11.0091 59.1232 7.09096 58.4717 4.92392 57.57C4.71449 57.4827 4.5196 57.3925 4.34216 57.3023V6.68959C4.39452 6.65469 4.45269 6.6256 4.50796 6.59069C6.87279 5.22357 11.9777 4.26367 17.8883 4.26367H17.9931C18.4643 4.26367 18.9326 4.26367 19.3922 4.28403C20.5237 4.31603 21.6174 4.38002 22.6616 4.47892C23.1125 4.51964 23.5546 4.56618 23.9851 4.61854C24.4156 4.6709 24.8578 4.73489 25.2854 4.8018L25.7973 4.88615C28.1621 5.29629 30.0703 5.88095 31.2716 6.57615C31.3385 6.63142 31.3967 6.66051 31.4491 6.69541Z" fill="#404041"/>
<path d="M31.2076 5.3252L28.8806 11.5791V13.5134L32.2257 9.41785L31.2076 5.3252Z" fill="#126C37"/>
<path d="M4.59229 5.3252L6.91931 11.5791V13.5134L3.57422 9.41785L4.59229 5.3252Z" fill="#126C37"/>
<path d="M4.59229 59.1814L6.91931 52.9246V50.9932L3.57422 55.0858L4.59229 59.1814Z" fill="#126C37"/>
<path d="M31.2076 59.1814L28.8806 52.9246V50.9932L32.2257 55.0858L31.2076 59.1814Z" fill="#126C37"/>
<path d="M32.2257 36.9468H3.07104V40.5333H32.2257V36.9468Z" fill="#126C37"/>
<path d="M32.4788 20.1804H3.3241V23.7669H32.4788V20.1804Z" fill="#126C37"/>
<path d="M34.3521 11.201H33.9332C33.9332 10.3283 33.7587 10.212 32.8075 10.212H32.2491V9.83094C32.2491 9.76383 32.2224 9.69946 32.1749 9.652C32.1275 9.60454 32.0631 9.57788 31.996 9.57788H31.8302V10.9886H31.996C32.0558 10.9886 32.1136 10.9672 32.1589 10.9283C32.2043 10.8893 32.2342 10.8354 32.2432 10.7763H32.8075C32.9848 10.7655 33.1626 10.7655 33.3398 10.7763C33.3689 10.9109 33.3797 11.0489 33.3718 11.1864H33.0432C32.9236 11.1864 32.8089 11.2339 32.7244 11.3185C32.6398 11.403 32.5923 11.5177 32.5923 11.6373C32.5925 11.6922 32.6034 11.7465 32.6243 11.7973H34.771C34.7895 11.7459 34.7994 11.6919 34.8001 11.6373C34.797 11.5205 34.7485 11.4095 34.6648 11.328C34.5811 11.2465 34.4689 11.2009 34.3521 11.201Z" fill="#232323"/>
<path d="M1.44795 11.201H1.86682C1.86682 10.3283 2.04134 10.212 2.99252 10.212H3.551V9.83094C3.551 9.76383 3.57766 9.69946 3.62512 9.652C3.67258 9.60454 3.73695 9.57788 3.80407 9.57788H3.96986V10.9886H3.80407C3.74428 10.9886 3.68647 10.9672 3.64111 10.9283C3.59576 10.8893 3.56586 10.8354 3.55682 10.7763H2.99252C2.81525 10.7655 2.63748 10.7655 2.46021 10.7763C2.43113 10.9109 2.42037 11.0489 2.42821 11.1864H2.7569C2.81611 11.1864 2.87474 11.1981 2.92944 11.2208C2.98415 11.2434 3.03384 11.2766 3.07571 11.3185C3.11758 11.3604 3.15079 11.4101 3.17344 11.4648C3.1961 11.5195 3.20776 11.5781 3.20776 11.6373C3.20754 11.6922 3.19667 11.7465 3.17577 11.7973H1.02909C1.01053 11.7459 1.00069 11.6919 1 11.6373C1.00303 11.5205 1.05157 11.4095 1.13525 11.328C1.21893 11.2465 1.33114 11.2009 1.44795 11.201Z" fill="#232323"/>
<path d="M3.52194 17.4956H3.48121C3.34145 17.4956 3.22815 17.6089 3.22815 17.7487V20.067C3.22815 20.2067 3.34145 20.32 3.48121 20.32H3.52194C3.6617 20.32 3.775 20.2067 3.775 20.067V17.7487C3.775 17.6089 3.6617 17.4956 3.52194 17.4956Z" fill="#404041"/>
<path d="M32.3188 17.4956H32.2781C32.1383 17.4956 32.025 17.6089 32.025 17.7487V20.067C32.025 20.2067 32.1383 20.32 32.2781 20.32H32.3188C32.4586 20.32 32.5719 20.2067 32.5719 20.067V17.7487C32.5719 17.6089 32.4586 17.4956 32.3188 17.4956Z" fill="#404041"/>
<path d="M6.23879 11.0614L3.06531 7.00659V7.50108L5.945 11.1516L5.97409 21.7221H3.06531V22.013H6.26496L6.23879 11.0614Z" fill="#0C0D0D"/>
<path d="M32.7348 7.50108V7.00659L29.5613 11.0614L29.5352 22.013H32.7348V21.7221H29.826L29.858 11.1516L32.7348 7.50108Z" fill="#0C0D0D"/>
<path d="M5.97692 37.8948V38.3078H3.07104V38.5987H6.26198V37.8948H5.97692Z" fill="#0C0D0D"/>
<path d="M29.823 37.8948H29.538V38.5987H32.7289V38.3078H29.823V37.8948Z" fill="#0C0D0D"/>
<path d="M6.89893 53.2329L3.86217 57.7008V59.865C3.75468 59.7652 3.65725 59.6551 3.57129 59.5363V57.6106L6.65751 53.0671L6.89893 53.2329Z" fill="#0C0D0D"/>
<path d="M32.2286 57.6107V59.5363C32.1418 59.6544 32.0445 59.7644 31.9378 59.865V57.7008L28.901 53.233L29.1424 53.0701L32.2286 57.6107Z" fill="#0C0D0D"/>
<path d="M10.0142 45.6585V46.2228L4.35083 42.7323V42.168L10.0142 45.6585Z" fill="#58595B"/>
<path d="M10.0142 47.6363V49.047L4.35083 45.5565V44.1458L10.0142 47.6363Z" fill="#58595B"/>
<path d="M10.0142 50.5452V53.4104L4.35083 49.9198V47.0547L10.0142 50.5452Z" fill="#58595B"/>
<path d="M10.0142 27.8482V28.4125L4.35083 24.922V24.3577L10.0142 27.8482Z" fill="#58595B"/>
<path d="M10.0142 28.9505V30.3642L4.35083 26.8736V25.46L10.0142 28.9505Z" fill="#58595B"/>
<path d="M10.0142 31.8594V34.7275L4.35083 31.237V28.3689L10.0142 31.8594Z" fill="#58595B"/>
<path d="M25.809 4.90662L21.6378 11.6783H21.0735L25.297 4.82227L25.809 4.90662Z" fill="#58595B"/>
<path d="M24.0084 4.63883L19.6714 11.6781H18.249L22.6733 4.49048C23.1358 4.53993 23.5663 4.58647 24.0084 4.63883Z" fill="#58595B"/>
<path d="M20.352 5.97109L16.8382 11.6781H15.4246L18.2461 7.10842H16.2681L18.0134 4.29272C18.4846 4.29272 18.9529 4.29272 19.4125 4.31309L18.3857 5.97982L20.352 5.97109Z" fill="#58595B"/>
<path d="M31.4491 31.6875V32.2518L25.1138 28.3482V27.781L31.4491 31.6875Z" fill="#58595B"/>
<path d="M31.4491 28.8633V30.2741L25.1138 26.3705V24.9597L31.4491 28.8633Z" fill="#58595B"/>
<path d="M31.4491 25.3728V28.238L25.1138 24.3344V21.4692L31.4491 25.3728Z" fill="#58595B"/>
<path d="M31.4491 50.3706V50.9349L25.1138 47.0313V46.467L31.4491 50.3706Z" fill="#58595B"/>
<path d="M31.4491 47.5464V48.9601L25.1138 45.0536V43.6428L31.4491 47.5464Z" fill="#58595B"/>
<path d="M31.4491 43.1831V46.0512L25.1138 42.1447V39.2795L31.4491 43.1831Z" fill="#58595B"/>
<path d="M20.1601 52.8606L16.1896 59.3035L15.637 59.289L19.5958 52.8606H20.1601Z" fill="#58595B"/>
<path d="M22.9846 52.8606L19.0053 59.318C18.6417 59.318 18.2723 59.318 17.9 59.318H17.5917L21.5738 52.8547L22.9846 52.8606Z" fill="#58595B"/>
<path d="M22.9874 57.4303H24.9654L23.9851 59.0185C23.5023 59.068 23.0049 59.1145 22.4929 59.1523L22.8565 58.5705H20.8815L24.3953 52.8635H25.8089L22.9874 57.4303Z" fill="#58595B"/>
<path d="M29.3693 54.7688C29.5525 54.6902 29.7271 54.6146 29.8812 54.5331V10.628L29.7358 10.5408C27.6415 9.33364 23.1299 8.50464 17.9 8.50464C12.67 8.50464 8.15846 9.34237 6.06414 10.5408L5.9187 10.628V54.5215C6.07578 54.603 6.2474 54.6786 6.43065 54.7571C8.65296 55.6821 12.9579 56.3075 17.9 56.3075C22.842 56.3075 27.147 55.685 29.3693 54.7688Z" fill="#04B54C"/>
<path d="M17.9001 56.61C13.0919 56.61 8.65597 56.0078 6.32022 55.0392C6.09915 54.9461 5.93045 54.8676 5.78501 54.7891C5.73802 54.7647 5.69855 54.728 5.67088 54.6829C5.6432 54.6378 5.62835 54.586 5.62793 54.5331V10.9189C5.62801 10.8702 5.6403 10.8223 5.66368 10.7796C5.68705 10.7369 5.72077 10.7008 5.76173 10.6745C5.79366 10.6534 5.82667 10.634 5.86063 10.6163L5.91299 10.5844C8.14693 9.29286 12.737 8.49585 17.9001 8.49585C23.0631 8.49585 27.6532 9.29285 29.8813 10.5814L29.9395 10.6134L30.0384 10.6745C30.0794 10.7008 30.1131 10.7369 30.1365 10.7796C30.1598 10.8223 30.1721 10.8702 30.1722 10.9189V54.5215C30.1718 54.5744 30.1569 54.6262 30.1293 54.6713C30.1016 54.7164 30.0621 54.7531 30.0151 54.7774C29.8697 54.8531 29.701 54.9345 29.4828 55.0247C27.1442 56.0078 22.7083 56.61 17.9001 56.61ZM6.20969 54.3527C6.30858 54.3993 6.41621 54.4487 6.54419 54.5011C8.81304 55.4435 13.1646 56.0282 17.8884 56.0282C22.6123 56.0282 26.9755 55.4464 29.2327 54.5011C29.3607 54.4458 29.4712 54.3993 29.5672 54.3527V11.0818C27.4612 9.86588 22.877 9.07761 17.8826 9.07761C12.8882 9.07761 8.30401 9.86588 6.19223 11.0847L6.20969 54.3527Z" fill="#126C37"/>
<path d="M9.55467 1C9.50293 1.11885 9.41751 1.21994 9.30894 1.29076C9.20038 1.36158 9.07344 1.39904 8.94382 1.3985H6.49463C6.36501 1.39904 6.23807 1.36158 6.12951 1.29076C6.02095 1.21994 5.93552 1.11885 5.88379 1H9.55467Z" fill="#126C37"/>
<path d="M29.9161 1C29.8644 1.11885 29.779 1.21994 29.6704 1.29076C29.5618 1.36158 29.4349 1.39904 29.3053 1.3985H26.8561C26.7265 1.39904 26.5995 1.36158 26.491 1.29076C26.3824 1.21994 26.297 1.11885 26.2452 1H29.9161Z" fill="#126C37"/>
<path d="M3.52194 33.7849H3.48121C3.34145 33.7849 3.22815 33.8982 3.22815 34.038V36.3563C3.22815 36.496 3.34145 36.6093 3.48121 36.6093H3.52194C3.6617 36.6093 3.775 36.496 3.775 36.3563V34.038C3.775 33.8982 3.6617 33.7849 3.52194 33.7849Z" fill="#404041"/>
<path d="M32.3188 33.7849H32.2781C32.1383 33.7849 32.025 33.8982 32.025 34.038V36.3563C32.025 36.496 32.1383 36.6093 32.2781 36.6093H32.3188C32.4586 36.6093 32.5719 36.496 32.5719 36.3563V34.038C32.5719 33.8982 32.4586 33.7849 32.3188 33.7849Z" fill="#404041"/>
<path d="M9.6099 59.7573C9.6099 60.0045 9.31902 60.2052 8.94379 60.2052H6.4946C6.1281 60.2052 5.82849 60.0045 5.82849 59.7573C5.82849 59.51 6.11937 59.3093 6.4946 59.3093H8.94379C9.3103 59.3093 9.6099 59.51 9.6099 59.7573Z" fill="#F52924"/>
<path d="M29.9715 59.7573C29.9715 60.0045 29.6806 60.2052 29.3054 60.2052H26.8562C26.4897 60.2052 26.1901 60.0045 26.1901 59.7573C26.1901 59.51 26.4809 59.3093 26.8562 59.3093H29.3054C29.6719 59.3093 29.9715 59.51 29.9715 59.7573Z" fill="#F52924"/>
<path d="M11.6025 2.65231C11.5834 2.65346 11.5643 2.65083 11.5462 2.64458C11.5281 2.63833 11.5115 2.62858 11.4972 2.61589C11.4828 2.60319 11.4712 2.5878 11.4628 2.57059C11.4544 2.55339 11.4495 2.5347 11.4484 2.5156C11.4472 2.4965 11.4499 2.47736 11.4561 2.45928C11.4624 2.4412 11.4721 2.42452 11.4848 2.4102C11.4975 2.39589 11.5129 2.38421 11.5301 2.37585C11.5473 2.36748 11.566 2.36258 11.5851 2.36144C13.6818 2.12589 15.7902 2.01032 17.9001 2.01529H18.0164C18.5022 2.01529 19.0199 2.01529 19.561 2.03856C20.8437 2.07347 22.0596 2.14619 23.1737 2.25381C23.5256 2.28581 23.8718 2.32071 24.215 2.35853C24.2536 2.36277 24.2889 2.38216 24.3132 2.41244C24.3374 2.44271 24.3487 2.48139 24.3444 2.51996C24.3402 2.55854 24.3208 2.59384 24.2905 2.61812C24.2603 2.64239 24.2216 2.65365 24.183 2.6494C23.8427 2.61159 23.4965 2.57668 23.1475 2.54469C22.0363 2.43706 20.8205 2.36434 19.5551 2.32944C19.0141 2.31489 18.4993 2.30617 18.0164 2.30617H17.9001C15.8018 2.30117 13.705 2.41674 11.62 2.65231H11.6025Z" fill="#0C0D0D"/>
<path d="M11.6025 3.2341C11.5834 3.23525 11.5643 3.23262 11.5462 3.22637C11.5281 3.22012 11.5115 3.21037 11.4972 3.19767C11.4828 3.18498 11.4712 3.16959 11.4628 3.15238C11.4544 3.13517 11.4495 3.11649 11.4484 3.09739C11.4472 3.07829 11.4499 3.05915 11.4561 3.04107C11.4624 3.02298 11.4721 3.00631 11.4848 2.99199C11.4975 2.97768 11.5129 2.966 11.5301 2.95763C11.5473 2.94927 11.566 2.94437 11.5851 2.94322C13.6818 2.70767 15.7902 2.5921 17.9001 2.59708H18.0164C18.5022 2.59708 19.0199 2.59708 19.561 2.62035C20.8437 2.65525 22.0596 2.72797 23.1737 2.8356C23.5256 2.86759 23.8718 2.9025 24.215 2.94031C24.2536 2.94456 24.2889 2.96395 24.3132 2.99422C24.3374 3.0245 24.3487 3.06318 24.3444 3.10175C24.3402 3.14032 24.3208 3.17563 24.2905 3.19991C24.2603 3.22418 24.2216 3.23543 24.183 3.23119C23.8427 3.19338 23.4965 3.15847 23.1475 3.12648C22.0363 3.01885 20.8205 2.94613 19.5551 2.91123C19.0141 2.91123 18.4993 2.88796 18.0164 2.88796H17.9001C15.8018 2.88296 13.705 2.99853 11.62 3.2341H11.6025Z" fill="#0C0D0D"/>
<path d="M11.6025 3.81564C11.5834 3.81679 11.5643 3.81416 11.5462 3.80791C11.5281 3.80166 11.5115 3.79191 11.4972 3.77922C11.4828 3.76652 11.4712 3.75113 11.4628 3.73392C11.4544 3.71672 11.4495 3.69803 11.4484 3.67893C11.4472 3.65983 11.4499 3.64069 11.4561 3.62261C11.4624 3.60453 11.4721 3.58785 11.4848 3.57353C11.4975 3.55922 11.5129 3.54754 11.5301 3.53918C11.5473 3.53081 11.566 3.52591 11.5851 3.52477C13.6818 3.28922 15.7902 3.17365 17.9001 3.17862H18.0164C18.5022 3.17862 19.0199 3.17862 19.561 3.20189C20.8437 3.2368 22.0596 3.30952 23.1737 3.41714C23.5256 3.44914 23.8718 3.48404 24.215 3.52186C24.2536 3.5261 24.2889 3.54549 24.3132 3.57577C24.3374 3.60604 24.3487 3.64472 24.3444 3.68329C24.3402 3.72187 24.3208 3.75717 24.2905 3.78145C24.2603 3.80572 24.2216 3.81698 24.183 3.81273C23.8427 3.77492 23.4965 3.74001 23.1475 3.70802C22.0363 3.60039 20.8205 3.52767 19.5551 3.49277C19.0141 3.49277 18.4993 3.4695 18.0164 3.4695H17.9001C15.8018 3.4645 13.705 3.58007 11.62 3.81564H11.6025Z" fill="#0C0D0D"/>
<path d="M10.0463 2.12866V3.32708C10.046 3.36144 10.0336 3.3946 10.0112 3.42069C9.98889 3.44678 9.95801 3.46411 9.92409 3.46961C9.86882 3.46961 4.68829 4.34224 3.08264 5.67737V5.31378C4.80173 4.11536 8.96419 3.34162 9.75538 3.202V2.16357H9.81065L10.0463 2.12866Z" fill="#0C0D0D"/>
<path d="M32.7347 5.31375V5.67444C31.1145 4.35095 25.9486 3.47831 25.8933 3.46668C25.8567 3.46524 25.822 3.45007 25.7961 3.42419C25.7703 3.39831 25.7551 3.36363 25.7537 3.32706V2.12573L25.9893 2.16355H26.0387V3.19325C26.8474 3.3416 31.0098 4.11534 32.7347 5.31375Z" fill="#0C0D0D"/>
<path d="M8.99911 2.30029V3.10021C7.52133 3.22436 6.07086 3.57153 4.69702 4.12991V3.41436C6.09498 2.91552 7.53474 2.54268 8.99911 2.30029Z" fill="#CFD8DC"/>
<path d="M31.103 3.41436V4.12991C29.7291 3.57153 28.2787 3.22436 26.8009 3.10021V2.30029C28.2654 2.54194 29.7053 2.9148 31.103 3.41436Z" fill="#CFD8DC"/>
<path d="M25.9777 36.0073L26.1028 35.6989L26.1668 35.7251V35.5681L26.2715 35.315L26.193 35.1201L26.1086 35.3324L25.8439 35.4372L25.7392 35.3964L25.6985 35.2917L25.8032 35.027L26.0155 34.9427L25.8236 34.8641L25.5676 34.9688H25.4105L25.4367 35.0299L25.1284 35.155L24.4303 34.8641H24.4099H24.3866L23.6885 35.155L22.9904 34.8641H22.97H22.9468L22.2487 35.155L21.5535 34.8641H21.5302H21.5069L20.8117 35.155L20.1136 34.8641H20.0904H20.07L19.3719 35.155L18.6738 34.8641H18.6534H18.6302L17.932 35.155L17.2339 34.8641H17.2136H17.1903L16.4922 35.155L15.7941 34.8641H15.7737H15.7505L15.0553 35.155L14.3572 34.8641H14.3339H14.3135L13.6154 35.155L12.9173 34.8641H12.8969H12.8737L12.1756 35.155L11.4775 34.8641H11.4571H11.4338L10.7823 35.1288H10.7415L10.4041 34.9921L10.4245 34.9427H10.279L10.0463 34.8467L9.85145 34.9252L10.0202 34.9921L10.1336 35.283L10.0842 35.4052L10.0231 35.4284L9.69729 35.3237L9.61875 35.1288L9.54022 35.3237L9.64784 35.5913H9.63329V35.7484L9.70311 35.7222L9.82237 36.0131L9.53149 36.7112V36.7345V36.7548L9.82237 37.4529L9.53149 38.1511V38.1714V38.1947L9.82237 38.8928L9.53149 39.5909V39.6113V39.6345L9.82237 40.3326L9.53149 41.0278V41.0511V41.0744L9.82237 41.7696L9.53149 42.4677V42.491V42.5113L9.82237 43.2094L9.53149 43.9075V43.9279V43.9512L9.82237 44.6493L9.53149 45.3474V45.3677V45.391L9.82237 46.0891L9.53149 46.7843V46.8076V46.8308L9.82237 47.526L9.53149 48.2242V48.2474V48.2678L9.82237 48.9659L9.53149 49.664V49.6844V49.7076L9.82237 50.4057L9.69147 50.7315L9.63329 50.7083V50.8653L9.53731 51.1038L9.61584 51.2958L9.67693 51.1446L9.9998 51.0137L10.0783 51.0457L10.1103 51.1242L9.97944 51.4471L9.82819 51.5082L10.0231 51.5867L10.2587 51.4907H10.4158L10.3925 51.4325L10.7183 51.3016L11.4164 51.5925H11.4397H11.46L12.1581 51.3016L12.8562 51.5925H12.8795H12.8999L13.598 51.3016L14.2961 51.5925H14.3164H14.3397L15.0378 51.3016L15.733 51.5925H15.7563H15.7766L16.4747 51.3016L17.1729 51.5925H17.1961H17.2165L17.9146 51.3016L18.6127 51.5925H18.636H18.6563L19.3544 51.3016L20.0525 51.5925H20.0729H20.0962L20.7943 51.3016L21.4895 51.5925H21.5128H21.536L22.2312 51.3016L22.9293 51.5925H22.9526H22.973L23.6711 51.3016L24.3692 51.5925H24.3924H24.4128L25.1109 51.3016L25.4018 51.4209L25.3756 51.4907H25.5327L25.8003 51.5983L25.9923 51.5198L25.7974 51.4413L25.6752 51.1504L25.6985 51.0893L25.8207 51.0399L26.1115 51.1533L26.1784 51.322L26.257 51.13L26.1639 50.8973V50.749L26.1115 50.7693L25.9748 50.4319L25.9894 50.3941L26.2541 49.7425V49.7193V49.6989L25.9632 49.0008L26.2541 48.3027V48.2823V48.2591L25.9632 47.561L26.2541 46.8658V46.8425V46.8192L25.9632 46.124L26.2541 45.4259V45.4026V45.3823L25.9632 44.6842L26.2541 43.9861V43.9628V43.9424L25.9632 43.2443L26.2541 42.5462V42.5259V42.5026L25.9632 41.8045L26.2541 41.1093V41.086V41.0627L25.9632 40.3675L26.2541 39.6694V39.6462V39.6258L25.9632 38.9277L26.2541 38.2296V38.2063V38.186L25.9632 37.4879L26.2541 36.7897V36.7694V36.7461L25.9777 36.0073ZM9.78164 35.5244V35.4982L9.81946 35.5128L9.78164 35.5244ZM9.75547 50.941L9.77001 50.9031L9.81073 50.9177L9.75547 50.941ZM25.8323 35.5797L25.969 35.635L25.8992 35.8037L25.8119 35.5884L25.8323 35.5797ZM25.6781 35.6437L25.8207 35.9956L25.4541 35.8473L25.5123 35.7048L25.6781 35.6437ZM25.3174 50.1876L25.1051 49.6611L25.3174 49.1346L25.5298 49.6611L25.3174 50.1876ZM25.3407 50.6355H25.3058H25.332H25.3407ZM24.4157 50.2603H24.3953H24.3721L23.674 50.5512L22.9759 50.2603H22.9555H22.9322L22.2341 50.5512L21.5389 50.2603H21.5157H21.4924L20.7972 50.5512L20.0991 50.2603H20.0758H20.0555L19.3573 50.5512L18.6592 50.2603H18.6389H18.6156L17.9175 50.5512L17.2194 50.2603H17.199H17.1758L16.4777 50.5512L15.7795 50.2603H15.7592H15.7359L15.0407 50.5512L14.3426 50.2603H14.3193H14.299L13.6009 50.5512L12.9028 50.2603H12.8824H12.8591L12.161 50.5512L11.4629 50.2603H11.4426H11.4193L10.7212 50.5512L10.6077 50.5046L10.5612 50.3912L10.8521 49.6931V49.6698V49.6495L10.5612 48.9513L10.8521 48.2532V48.2329V48.2096L10.5612 47.5115L10.8521 46.8163V46.793V46.7698L10.5612 46.0746L10.8521 45.3765V45.3532V45.3328L10.5612 44.6347L10.8521 43.9366V43.9133V43.893L10.5612 43.1949L10.8521 42.4968V42.4764V42.4531L10.5612 41.755L10.8521 41.0598V41.0366V41.0133L10.5612 40.3181L10.8521 39.62V39.5967V39.5764L10.5612 38.8782L10.8521 38.1801V38.1569V38.1365L10.5612 37.4384L10.8521 36.7403V36.7199V36.6967L10.5612 35.9986L10.5903 35.9258L10.7212 35.8735L11.4193 36.1644H11.4426H11.4629L12.161 35.8735L12.8591 36.1644H12.8824H12.9028L13.6009 35.8735L14.299 36.1644H14.3193H14.3426L15.0407 35.8735L15.7359 36.1644H15.7592H15.7795L16.4777 35.8735L17.1758 36.1644H17.199H17.2194L17.9175 35.8735L18.6156 36.1644H18.6389H18.6592L19.3573 35.8735L20.0555 36.1644H20.0758H20.0991L20.7972 35.8735L21.4924 36.1644H21.5157H21.5389L22.2341 35.8735L22.9322 36.1644H22.9555H22.9759L23.674 35.8735L24.3721 36.1644H24.3953H24.4157L25.1138 35.8735L25.204 35.9084L25.2389 35.9986L24.948 36.6967V36.7199V36.7403L25.2389 37.4384L24.948 38.1365V38.1569V38.1801L25.2389 38.8782L24.948 39.5764V39.5967V39.62L25.2389 40.3181L24.948 41.0133V41.0366V41.0598L25.2389 41.755L24.948 42.4531V42.4764V42.4968L25.2389 43.1949L24.948 43.893V43.9133V43.9366L25.2389 44.6347L24.948 45.3328V45.3532V45.3765L25.2389 46.0746L24.948 46.7698V46.793V46.8163L25.2389 47.5115L24.948 48.2096V48.2329V48.2532L25.2389 48.9513L24.948 49.6495V49.6698V49.6931L25.2389 50.3912L25.1865 50.5221L25.1138 50.5512L24.4157 50.2603ZM24.9189 50.621L24.3953 50.8333L23.8689 50.621L24.3953 50.4086L24.9189 50.621ZM23.482 50.621L22.9555 50.8333L22.429 50.621L22.9555 50.4086L23.482 50.621ZM22.0421 50.621L21.5157 50.8333L20.9892 50.621L21.5157 50.4086L22.0421 50.621ZM20.6023 50.621L20.0758 50.8333L19.5493 50.621L20.0758 50.4086L20.6023 50.621ZM19.1479 50.621L18.6214 50.8333L18.0949 50.621L18.6243 50.4086L19.1479 50.621ZM17.711 50.621L17.1845 50.8333L16.658 50.621L17.1845 50.4086L17.711 50.621ZM16.2711 50.621L15.7446 50.8333L15.2182 50.621L15.7446 50.4086L16.2711 50.621ZM14.8313 50.621L14.3048 50.8333L13.7783 50.621L14.3048 50.4086L14.8313 50.621ZM13.3914 50.621L12.8679 50.8333L12.3414 50.621L12.8679 50.4086L13.3914 50.621ZM11.9545 50.621L11.428 50.8333L10.9015 50.621L11.428 50.4086L11.9545 50.621ZM10.4681 50.1876L10.2558 49.6611L10.4681 49.1346L10.6805 49.6611L10.4681 50.1876ZM10.4914 50.6297L10.4361 50.653L10.4594 50.5977H10.4827L10.4914 50.6297ZM10.4827 36.1964L10.695 36.7228L10.4827 37.2493L10.2703 36.7228L10.4827 36.1964ZM10.4681 35.7746H10.4943V35.8008L10.4681 35.7746ZM10.2703 46.7959L10.4827 46.2695L10.695 46.7959L10.4827 47.3224L10.2703 46.7959ZM10.695 48.2358L10.4827 48.7623L10.2703 48.2358L10.4827 47.7093L10.695 48.2358ZM10.2703 45.3561L10.4827 44.8296L10.695 45.3561L10.4827 45.8826L10.2703 45.3561ZM10.2703 43.9163L10.4827 43.3898L10.695 43.9163L10.4827 44.4427L10.2703 43.9163ZM10.2703 42.4793L10.4827 41.9528L10.695 42.4793L10.4827 43.0058L10.2703 42.4793ZM10.2703 41.0249L10.4827 40.4984L10.695 41.0249L10.4827 41.5514L10.2703 41.0249ZM10.2703 39.5851L10.4827 39.0586L10.695 39.5851L10.4827 40.1116L10.2703 39.5851ZM10.2703 38.1452L10.4827 37.6187L10.695 38.1452L10.4827 38.6717L10.2703 38.1452ZM10.1918 36.5134L10.0405 36.1382L10.4041 35.9898L10.1918 36.5134ZM10.4041 37.4268L10.1918 37.9533L9.97944 37.4268L10.1918 36.9003L10.4041 37.4268ZM10.4041 38.8666L10.1918 39.3931L9.97944 38.8666L10.1918 38.3401L10.4041 38.8666ZM10.4041 40.3065L10.1918 40.83L9.97944 40.3065L10.1918 39.78L10.4041 40.3065ZM10.4041 41.7434L10.1918 42.3048L9.97944 41.7783L10.1918 41.2518L10.4041 41.7434ZM10.4041 43.1978L10.1918 43.7243L9.97944 43.1978L10.1918 42.6713L10.4041 43.1978ZM10.4041 44.6376L10.1918 45.1641L9.97944 44.6376L10.1918 44.1111L10.4041 44.6376ZM10.4041 46.092L10.1918 46.6185L9.97944 46.092L10.1918 45.5655L10.4041 46.092ZM10.4041 47.529L10.1918 48.0554L9.97944 47.529L10.1918 47.0025L10.4041 47.529ZM10.4041 48.9688L10.1918 49.4953L9.97944 48.9688L10.1918 48.4423L10.4041 48.9688ZM10.4041 50.4232V50.4494L10.0376 50.3039L10.2034 49.8967L10.4041 50.4232ZM10.919 35.8037L11.4455 35.5913L11.972 35.8037L11.4455 36.016L10.919 35.8037ZM12.3588 35.8037L12.8853 35.5913L13.4089 35.8037L12.8853 36.016L12.3588 35.8037ZM13.7958 35.8037L14.3223 35.5913L14.8487 35.8037L14.3223 36.016L13.7958 35.8037ZM15.2356 35.8037L15.7621 35.5913L16.2886 35.8037L15.7621 36.016L15.2356 35.8037ZM16.6755 35.8037L17.2019 35.5913L17.7284 35.8037L17.2019 36.016L16.6755 35.8037ZM18.1124 35.8037L18.6389 35.5913L19.1654 35.8037L18.6418 36.016L18.1124 35.8037ZM19.5522 35.8037L20.0787 35.5913L20.6052 35.8037L20.0787 36.016L19.5522 35.8037ZM20.9921 35.8037L21.5186 35.5913L22.0451 35.8037L21.5186 36.016L20.9921 35.8037ZM22.4319 35.8037L22.9584 35.5913L23.4849 35.8037L22.9584 36.016L22.4319 35.8037ZM23.8718 35.8037L24.3983 35.5913L24.9218 35.8037L24.3983 36.016L23.8718 35.8037ZM25.3262 36.2022L25.5385 36.7287L25.3262 37.2551L25.1138 36.7287L25.3262 36.2022ZM25.1196 46.8018L25.332 46.2753L25.5443 46.8018L25.332 47.3283L25.1196 46.8018ZM25.5443 48.2416L25.332 48.7681L25.1196 48.2416L25.332 47.7151L25.5443 48.2416ZM25.1196 45.3619L25.332 44.8354L25.5443 45.3619L25.332 45.8884L25.1196 45.3619ZM25.1196 43.9221L25.332 43.3956L25.5443 43.9221L25.332 44.4486L25.1196 43.9221ZM25.1196 42.4851L25.332 41.9586L25.5443 42.4851L25.332 43.0116L25.1196 42.4851ZM25.1196 41.0307L25.332 40.5043L25.5443 41.0307L25.332 41.5572L25.1196 41.0307ZM25.1196 39.5909L25.332 39.0644L25.5443 39.5909L25.332 40.1174L25.1196 39.5909ZM25.1196 38.1511L25.332 37.6246L25.5443 38.1511L25.332 38.6775L25.1196 38.1511ZM25.6083 49.8676L25.777 50.2865L25.4105 50.4348L25.396 50.3941L25.6083 49.8676ZM25.396 48.9543L25.6083 48.4278L25.8207 48.9543L25.6083 49.4807L25.396 48.9543ZM25.396 47.5144L25.6083 46.9879L25.8207 47.5144L25.6083 48.0409L25.396 47.5144ZM25.396 46.0775L25.6083 45.551L25.8207 46.0775L25.6083 46.604L25.396 46.0775ZM25.396 44.6231L25.6083 44.0966L25.8207 44.6231L25.6083 45.1496L25.396 44.6231ZM25.396 43.1832L25.6083 42.6568L25.8207 43.1832L25.6083 43.7097L25.396 43.1832ZM25.396 41.7289L25.6083 41.2024L25.8207 41.7289L25.6083 42.3048L25.396 41.7289ZM25.396 40.2919L25.6083 39.7654L25.8207 40.2919L25.6083 40.8155L25.396 40.2919ZM25.396 38.8521L25.6083 38.3256L25.8207 38.8521L25.6083 39.3786L25.396 38.8521ZM25.396 37.4122L25.6083 36.8857L25.8207 37.4122L25.6083 37.9387L25.396 37.4122ZM25.396 35.9578L25.7625 36.1062L25.6054 36.493L25.396 35.9578ZM25.4745 35.1027L25.5298 35.2394V35.2597L25.3145 35.1725L25.4745 35.1027ZM25.1138 35.251L25.4687 35.3935L25.4018 35.5593L25.2564 35.6175L25.1109 35.251H25.1138ZM25.1138 35.6728L24.5873 35.4604L24.9742 35.3034L25.1138 35.6728ZM24.3866 34.9601L24.9102 35.1725L24.3866 35.3848L23.8601 35.1725L24.3866 34.9601ZM24.1917 35.4633L23.6652 35.6757L23.1388 35.4633L23.6652 35.251L24.1917 35.4633ZM22.9468 34.9601L23.4733 35.1725L22.9468 35.3848L22.4203 35.1725L22.9468 34.9601ZM22.7519 35.4633L22.2254 35.6757L21.6989 35.4633L22.2254 35.251L22.7519 35.4633ZM21.5069 34.9601L22.0334 35.1725L21.5069 35.3848L20.9804 35.1725L21.5069 34.9601ZM21.315 35.4633L20.7885 35.6757L20.262 35.4633L20.7885 35.251L21.315 35.4633ZM20.0671 34.9601L20.5936 35.1725L20.0671 35.3848L19.5406 35.1725L20.0671 34.9601ZM19.8751 35.4633L19.3486 35.6757L18.8221 35.4633L19.3486 35.251L19.8751 35.4633ZM18.6302 34.9601L19.1537 35.1725L18.6272 35.3848L18.1008 35.1725L18.6302 34.9601ZM18.4353 35.4633L17.9088 35.6757L17.3823 35.4633L17.9088 35.251L18.4353 35.4633ZM17.1903 34.9601L17.7168 35.1725L17.1903 35.3848L16.6638 35.1725L17.1903 34.9601ZM16.9954 35.4633L16.4689 35.6757L15.9424 35.4633L16.4689 35.251L16.9954 35.4633ZM15.7505 34.9601L16.277 35.1725L15.7505 35.3848L15.224 35.1725L15.7505 34.9601ZM15.5585 35.4633L15.032 35.6757L14.5055 35.4633L15.032 35.251L15.5585 35.4633ZM14.3106 34.9601L14.8371 35.1725L14.3106 35.3848L13.7841 35.1725L14.3106 34.9601ZM14.1186 35.4633L13.5921 35.6757L13.0657 35.4633L13.5921 35.251L14.1186 35.4633ZM12.8737 34.9601L13.3973 35.1725L12.8737 35.3848L12.3472 35.1725L12.8737 34.9601ZM12.6788 35.4633L12.1523 35.6757L11.6258 35.4633L12.1523 35.251L12.6788 35.4633ZM11.4338 34.9601L11.9603 35.1725L11.4338 35.3848L10.9073 35.1725L11.4338 34.9601ZM10.8201 35.2946L11.2389 35.4633L10.7125 35.6757H10.6717L10.8201 35.2946ZM10.5292 35.6059L10.375 35.5419L10.3198 35.4052L10.6688 35.2655L10.5292 35.6059ZM10.311 35.091L10.5118 35.1725L10.2645 35.2714V35.2394L10.311 35.091ZM10.1191 35.5913L10.2732 35.6553L10.343 35.8269L9.97654 35.9753V35.9578L10.1191 35.5913ZM9.97944 35.5477L9.89218 35.7659L9.82819 35.6088L9.97944 35.5477ZM9.68856 36.6792L9.90091 36.1527L10.1132 36.6792L9.90091 37.2057L9.68856 36.6792ZM9.68856 38.1161L9.90091 37.5897L10.1132 38.1161L9.90091 38.6426L9.68856 38.1161ZM9.68856 39.556L9.90091 39.0295L10.1132 39.556L9.90091 40.0825L9.68856 39.556ZM9.68856 40.9958L9.90091 40.4693L10.1132 40.9958L9.90091 41.5223L9.68856 40.9958ZM9.68856 42.4502L9.90091 41.9237L10.1132 42.4502L9.90091 42.9767L9.68856 42.4502ZM9.68856 43.8872L9.90091 43.3607L10.1132 43.8872L9.90091 44.4137L9.68856 43.8872ZM9.68856 45.327L9.90091 44.8005L10.1132 45.327L9.90091 45.8535L9.68856 45.327ZM9.68856 46.7814L9.90091 46.2549L10.1132 46.7814L9.90091 47.3079L9.68856 46.7814ZM9.68856 48.2212L9.90091 47.6948L10.1132 48.2212L9.90091 48.7477L9.68856 48.2212ZM9.68856 49.6582L9.90091 49.1317L10.1132 49.6582L9.90091 50.1847L9.68856 49.6582ZM10.0027 50.8217L9.82527 50.749L9.90091 50.5628L10.0056 50.8217H10.0027ZM10.1685 51.3365L10.1918 51.2813L10.2063 51.322L10.1685 51.3365ZM10.1394 50.7548L9.98526 50.3796L10.3401 50.5221L10.2645 50.7053L10.1394 50.7548ZM10.343 51.2551L10.2703 51.0777L10.5292 51.1824L10.343 51.2551ZM10.3256 50.941L10.375 50.8159L10.5612 50.7402L10.7008 51.0951L10.3256 50.941ZM10.695 50.6879H10.7212L11.2477 50.9002L10.8433 51.066L10.695 50.6879ZM11.4426 51.3918L10.9161 51.1795L11.4426 50.9671L11.969 51.1795L11.4426 51.3918ZM11.6345 50.8886L12.161 50.6763L12.6875 50.8886L12.161 51.1009L11.6345 50.8886ZM12.8824 51.3918L12.3559 51.1795L12.8824 50.9671L13.406 51.1795L12.8824 51.3918ZM13.0744 50.8886L13.6009 50.6763L14.1274 50.8886L13.6009 51.1009L13.0744 50.8886ZM14.3193 51.3918L13.7929 51.1795L14.3193 50.9671L14.8458 51.1795L14.3193 51.3918ZM14.5142 50.8886L15.0407 50.6763L15.5672 50.8886L15.0407 51.1009L14.5142 50.8886ZM15.7592 51.3918L15.2327 51.1795L15.7592 50.9671L16.2857 51.1795L15.7592 51.3918ZM15.9512 50.8886L16.4777 50.6763L17.0041 50.8886L16.4777 51.1009L15.9512 50.8886ZM17.199 51.3918L16.6725 51.1795L17.199 50.9671L17.7255 51.1795L17.199 51.3918ZM17.391 50.8886L17.9175 50.6763L18.444 50.8886L17.9175 51.1009L17.391 50.8886ZM18.6389 51.3918L18.1095 51.1795L18.636 50.9671L19.1625 51.1795L18.6389 51.3918ZM18.8309 50.8886L19.3573 50.6763L19.8838 50.8886L19.3573 51.1009L18.8309 50.8886ZM20.0758 51.3918L19.5493 51.1795L20.0758 50.9671L20.6023 51.1795L20.0758 51.3918ZM20.2707 50.8886L20.7972 50.6763L21.3237 50.8886L20.7972 51.1009L20.2707 50.8886ZM21.5157 51.3918L20.9892 51.1795L21.5157 50.9671L22.0421 51.1795L21.5157 51.3918ZM21.7076 50.8886L22.2341 50.6763L22.7606 50.8886L22.2341 51.1009L21.7076 50.8886ZM22.9555 51.3918L22.429 51.1795L22.9555 50.9671L23.482 51.1795L22.9555 51.3918ZM23.1475 50.8886L23.674 50.6763L24.2005 50.8886L23.674 51.1009L23.1475 50.8886ZM24.3953 51.3918L23.8689 51.1795L24.3953 50.9671L24.9189 51.1795L24.3953 51.3918ZM24.5873 50.8886L25.1109 50.6763L24.9626 51.0399L24.5873 50.8886ZM25.0964 51.0951L25.2447 50.7286L25.4163 50.7984L25.4803 50.9526L25.1138 51.1009L25.0964 51.0951ZM25.4629 51.2435L25.3058 51.1795L25.524 51.0922L25.4629 51.2435ZM25.5967 51.2987V51.2696L25.6112 51.3075L25.5967 51.2987ZM25.6578 50.7432L25.5211 50.6879L25.4571 50.5337L25.7974 50.397L25.6578 50.7432ZM25.9719 50.7519L25.8236 50.8101H25.7916L25.8905 50.5628L25.9719 50.7519ZM26.1028 49.6378L25.8905 50.1643L25.6781 49.6378L25.8905 49.1113L26.1028 49.6378ZM26.1028 48.2009L25.8905 48.7274L25.6781 48.2009L25.8905 47.6744L26.1028 48.2009ZM26.1028 46.761L25.8905 47.2875L25.6781 46.761L25.8905 46.2345L26.1028 46.761ZM26.1028 45.3067L25.8905 45.8331L25.6781 45.3067L25.8905 44.7802L26.1028 45.3067ZM26.1028 43.8668L25.8905 44.3933L25.6781 43.8668L25.8905 43.3403L26.1028 43.8668ZM26.1028 42.4299L25.8905 42.9564L25.6781 42.4299L25.8905 41.9034L26.1028 42.4299ZM26.1028 40.9755L25.8905 41.502L25.6781 40.9755L25.8905 40.449L26.1028 40.9755ZM26.1028 39.5356L25.8905 40.0621L25.6781 39.5356L25.8905 39.0091L26.1028 39.5356ZM26.1028 38.0958L25.8905 38.6223L25.6781 38.0958L25.8905 37.5693L26.1028 38.0958ZM25.8905 37.1853L25.6781 36.6588L25.8905 36.1324L26.1028 36.6588L25.8905 37.1853Z" fill="#929497"/>
<path d="M24.1364 35.8909H11.6635C11.0771 35.8909 10.6018 36.3662 10.6018 36.9526V49.4254C10.6018 50.0118 11.0771 50.4871 11.6635 50.4871H24.1364C24.7227 50.4871 25.1981 50.0118 25.1981 49.4254V36.9526C25.1981 36.3662 24.7227 35.8909 24.1364 35.8909Z" fill="#126C37"/>
<path d="M25.3174 51.8862H10.4826C10.147 51.8862 9.82518 51.7528 9.58789 51.5156C9.35059 51.2783 9.21729 50.9564 9.21729 50.6208V35.7861C9.21729 35.4505 9.35059 35.1286 9.58789 34.8914C9.82518 34.6541 10.147 34.5208 10.4826 34.5208H25.3174C25.653 34.5208 25.9748 34.6541 26.2121 34.8914C26.4494 35.1286 26.5827 35.4505 26.5827 35.7861V50.6208C26.5827 50.9564 26.4494 51.2783 26.2121 51.5156C25.9748 51.7528 25.653 51.8862 25.3174 51.8862ZM10.4826 35.3934C10.3787 35.3941 10.2793 35.4358 10.2058 35.5092C10.1323 35.5827 10.0907 35.6822 10.0899 35.7861V50.6208C10.0907 50.7248 10.1323 50.8242 10.2058 50.8977C10.2793 50.9711 10.3787 51.0128 10.4826 51.0135H25.3174C25.4213 51.0128 25.5207 50.9711 25.5942 50.8977C25.6677 50.8242 25.7093 50.7248 25.7101 50.6208V35.7861C25.7093 35.6822 25.6677 35.5827 25.5942 35.5092C25.5207 35.4358 25.4213 35.3941 25.3174 35.3934H10.4826Z" fill="#126C37"/>
<path d="M25.551 43.2233C25.562 38.9967 22.1446 35.5613 17.918 35.5503C13.6914 35.5392 10.2561 38.9566 10.245 43.1832C10.2339 47.4098 13.6513 50.8452 17.8779 50.8562C22.1046 50.8673 25.5399 47.4499 25.551 43.2233Z" fill="#262626"/>
<path d="M24.9168 43.2217C24.927 39.3453 21.7927 36.1947 17.9163 36.1845C14.0399 36.1744 10.8892 39.3086 10.8791 43.185C10.8689 47.0614 14.0032 50.2121 17.8796 50.2222C21.756 50.2324 24.9067 47.0982 24.9168 43.2217Z" fill="#404041"/>
<path d="M22.0138 43.214C22.0198 40.9408 20.1819 39.0933 17.9087 39.0873C15.6355 39.0814 13.788 40.9193 13.782 43.1924C13.7761 45.4656 15.614 47.3132 17.8871 47.3191C20.1603 47.3251 22.0079 45.4871 22.0138 43.214Z" fill="#BBBDBF"/>
<path d="M17.9001 44.5736C17.6291 44.5736 17.3642 44.4932 17.1389 44.3427C16.9136 44.1921 16.738 43.9782 16.6343 43.7278C16.5306 43.4775 16.5035 43.202 16.5564 42.9363C16.6092 42.6705 16.7397 42.4264 16.9313 42.2348C17.1229 42.0432 17.367 41.9127 17.6328 41.8598C17.8985 41.807 18.174 41.8341 18.4244 41.9378C18.6747 42.0415 18.8887 42.2171 19.0392 42.4424C19.1898 42.6677 19.2701 42.9326 19.2701 43.2035C19.2701 43.5669 19.1258 43.9154 18.8688 44.1723C18.6119 44.4292 18.2634 44.5736 17.9001 44.5736Z" fill="#808184"/>
<path d="M20.7709 43.6864C20.6754 43.6864 20.5821 43.6581 20.5027 43.605C20.4233 43.552 20.3614 43.4766 20.3248 43.3883C20.2883 43.3001 20.2787 43.203 20.2974 43.1094C20.316 43.0157 20.362 42.9297 20.4295 42.8621C20.497 42.7946 20.5831 42.7486 20.6767 42.73C20.7704 42.7113 20.8675 42.7209 20.9557 42.7575C21.044 42.794 21.1194 42.8559 21.1724 42.9353C21.2255 43.0147 21.2538 43.1081 21.2538 43.2036C21.2538 43.3316 21.2029 43.4544 21.1124 43.545C21.0218 43.6355 20.899 43.6864 20.7709 43.6864Z" fill="#808184"/>
<path d="M15.029 43.6864C14.9335 43.6864 14.8401 43.6581 14.7607 43.605C14.6813 43.552 14.6194 43.4766 14.5829 43.3883C14.5464 43.3001 14.5368 43.203 14.5554 43.1094C14.5741 43.0157 14.62 42.9297 14.6876 42.8621C14.7551 42.7946 14.8411 42.7486 14.9348 42.73C15.0285 42.7113 15.1256 42.7209 15.2138 42.7575C15.302 42.794 15.3774 42.8559 15.4305 42.9353C15.4835 43.0147 15.5119 43.1081 15.5119 43.2036C15.5119 43.3316 15.461 43.4544 15.3704 43.545C15.2799 43.6355 15.1571 43.6864 15.029 43.6864Z" fill="#808184"/>
<path d="M17.4172 46.0861C17.4172 45.9906 17.4456 45.8973 17.4986 45.8179C17.5517 45.7385 17.6271 45.6766 17.7153 45.64C17.8035 45.6035 17.9006 45.5939 17.9943 45.6126C18.088 45.6312 18.174 45.6772 18.2415 45.7447C18.3091 45.8122 18.355 45.8983 18.3737 45.9919C18.3923 46.0856 18.3827 46.1827 18.3462 46.2709C18.3096 46.3591 18.2478 46.4346 18.1684 46.4876C18.0889 46.5407 17.9956 46.569 17.9001 46.569C17.8367 46.569 17.7739 46.5565 17.7153 46.5322C17.6567 46.508 17.6035 46.4724 17.5587 46.4276C17.5138 46.3827 17.4783 46.3295 17.454 46.2709C17.4297 46.2123 17.4172 46.1495 17.4172 46.0861Z" fill="#808184"/>
<path d="M17.4172 40.3325C17.4172 40.237 17.4456 40.1436 17.4986 40.0642C17.5517 39.9848 17.6271 39.9229 17.7153 39.8864C17.8035 39.8498 17.9006 39.8403 17.9943 39.8589C18.088 39.8775 18.174 39.9235 18.2415 39.991C18.3091 40.0586 18.355 40.1446 18.3737 40.2383C18.3923 40.3319 18.3827 40.429 18.3462 40.5172C18.3096 40.6055 18.2478 40.6809 18.1684 40.7339C18.0889 40.787 17.9956 40.8153 17.9001 40.8153C17.8367 40.8153 17.7739 40.8028 17.7153 40.7786C17.6567 40.7543 17.6035 40.7187 17.5587 40.6739C17.5138 40.6291 17.4783 40.5758 17.454 40.5172C17.4297 40.4587 17.4172 40.3959 17.4172 40.3325Z" fill="#808184"/>
<path d="M19.587 45.5742C19.4964 45.4835 19.4454 45.3606 19.4454 45.2324C19.4454 45.1042 19.4964 44.9812 19.587 44.8906C19.6776 44.7999 19.8006 44.749 19.9288 44.749C20.057 44.749 20.1799 44.7999 20.2706 44.8906C20.3155 44.9355 20.3511 44.9888 20.3754 45.0474C20.3996 45.106 20.4121 45.1689 20.4121 45.2324C20.4121 45.2958 20.3996 45.3587 20.3754 45.4173C20.3511 45.476 20.3155 45.5293 20.2706 45.5742C20.2257 45.619 20.1724 45.6546 20.1138 45.6789C20.0551 45.7032 19.9923 45.7157 19.9288 45.7157C19.8653 45.7157 19.8025 45.7032 19.7438 45.6789C19.6852 45.6546 19.6319 45.619 19.587 45.5742Z" fill="#808184"/>
<path d="M15.5294 41.5165C15.4387 41.4259 15.3878 41.303 15.3878 41.1748C15.3878 41.0466 15.4387 40.9236 15.5294 40.833C15.62 40.7423 15.743 40.6914 15.8712 40.6914C15.9994 40.6914 16.1223 40.7423 16.213 40.833C16.2578 40.8779 16.2934 40.9311 16.3177 40.9898C16.342 41.0484 16.3545 41.1113 16.3545 41.1748C16.3545 41.2382 16.342 41.3011 16.3177 41.3597C16.2934 41.4184 16.2578 41.4717 16.213 41.5165C16.1681 41.5614 16.1148 41.597 16.0561 41.6213C15.9975 41.6456 15.9346 41.6581 15.8712 41.6581C15.8077 41.6581 15.7448 41.6456 15.6862 41.6213C15.6276 41.597 15.5743 41.5614 15.5294 41.5165Z" fill="#808184"/>
<path d="M15.5294 44.8906C15.5743 44.8457 15.6276 44.8101 15.6862 44.7858C15.7448 44.7615 15.8077 44.749 15.8712 44.749C15.9346 44.749 15.9975 44.7615 16.0561 44.7858C16.1148 44.8101 16.1681 44.8457 16.213 44.8906C16.2578 44.9355 16.2934 44.9888 16.3177 45.0474C16.342 45.106 16.3545 45.1689 16.3545 45.2324C16.3545 45.2958 16.342 45.3587 16.3177 45.4173C16.2934 45.476 16.2578 45.5293 16.213 45.5742C16.1223 45.6648 15.9994 45.7157 15.8712 45.7157C15.743 45.7157 15.62 45.6648 15.5294 45.5742C15.4387 45.4835 15.3878 45.3606 15.3878 45.2324C15.3878 45.1042 15.4387 44.9812 15.5294 44.8906Z" fill="#808184"/>
<path d="M19.587 40.833C19.6776 40.7423 19.8006 40.6914 19.9288 40.6914C20.057 40.6914 20.1799 40.7423 20.2706 40.833C20.3612 40.9236 20.4121 41.0466 20.4121 41.1748C20.4121 41.303 20.3612 41.4259 20.2706 41.5165C20.2257 41.5614 20.1724 41.597 20.1138 41.6213C20.0551 41.6456 19.9923 41.6581 19.9288 41.6581C19.8653 41.6581 19.8025 41.6456 19.7438 41.6213C19.6852 41.597 19.6319 41.5614 19.587 41.5165C19.5421 41.4717 19.5065 41.4184 19.4822 41.3597C19.4579 41.3011 19.4454 41.2382 19.4454 41.1748C19.4454 41.1113 19.4579 41.0484 19.4822 40.9898C19.5065 40.9311 19.5421 40.8779 19.587 40.833Z" fill="#808184"/>
</g>
<defs>
<filter id="filter0_d_16_31888" x="0" y="0" width="41.8" height="68.4473" filterUnits="userSpaceOnUse" color-interpolation-filters="sRGB">
<feFlood flood-opacity="0" result="BackgroundImageFix"/>
<feColorMatrix in="SourceAlpha" type="matrix" values="0 0 0 0 0 0 0 0 0 0 0 0 0 0 0 0 0 0 127 0" result="hardAlpha"/>
<feOffset dx="3" dy="3"/>
<feGaussianBlur stdDeviation="2"/>
<feComposite in2="hardAlpha" operator="out"/>
<feColorMatrix type="matrix" values="0 0 0 0 0 0 0 0 0 0 0 0 0 0 0 0 0 0 0.25 0"/>
<feBlend mode="normal" in2="BackgroundImageFix" result="effect1_dropShadow_16_31888"/>
<feBlend mode="normal" in="SourceGraphic" in2="effect1_dropShadow_16_31888" result="shape"/>
</filter>
</defs>
</svg>
