<svg width="47" height="95" viewBox="0 0 47 95" fill="none" xmlns="http://www.w3.org/2000/svg">
<g filter="url(#filter0_d_16_29760)">
<path d="M10.6954 46.1588C9.26718 45.9012 7.80434 45.9012 6.37607 46.1588C6.15098 46.2016 5.94766 46.321 5.80074 46.4968C5.65383 46.6727 5.5724 46.894 5.57031 47.1231V53.8663C5.57113 54.0958 5.65211 54.3177 5.79924 54.4938C5.94637 54.6699 6.15041 54.789 6.37607 54.8306C7.80434 55.0882 9.26718 55.0882 10.6954 54.8306C10.9217 54.7902 11.1265 54.6714 11.2738 54.4951C11.4212 54.3188 11.5017 54.0961 11.5012 53.8663V47.1231C11.5004 46.8936 11.4194 46.6717 11.2723 46.4956C11.1251 46.3195 10.9211 46.2004 10.6954 46.1588Z" fill="#D6D6D6"/>
<path d="M10.9002 44.4811C10.1536 44.1288 9.33826 43.946 8.51267 43.946C7.68709 43.946 6.87174 44.1288 6.12512 44.4811V56.508C6.87084 56.8636 7.68654 57.0481 8.51267 57.0481C9.3388 57.0481 10.1545 56.8636 10.9002 56.508V44.4811Z" fill="#004358"/>
<path d="M9.37453 44.7321C8.80489 44.6529 8.22699 44.6529 7.65735 44.7321L7.45922 44.0717C7.00221 44.1636 6.55848 44.3123 6.13831 44.5142V44.3359C6.60117 44.1066 7.09516 43.9463 7.60452 43.8604L7.80265 44.5208C8.28074 44.4613 8.76436 44.4613 9.24245 44.5208C9.3151 44.2896 9.38114 44.0651 9.44718 43.8604C9.95627 43.9474 10.4501 44.1076 10.9134 44.3359V44.5142C10.4926 44.3137 10.0491 44.1651 9.59249 44.0717L9.37453 44.7321Z" fill="black"/>
<path d="M9.37453 45.8616C8.80405 45.7955 8.22783 45.7955 7.65735 45.8616L7.45922 45.2011C7.00752 45.2728 6.56473 45.3924 6.13831 45.5577V45.3794C6.60911 45.1896 7.10158 45.0587 7.60452 44.9897L7.80265 45.6502C8.28146 45.604 8.76363 45.604 9.24245 45.6502C9.3151 45.419 9.38114 45.1879 9.44718 44.9897C9.94995 45.0595 10.4423 45.1904 10.9134 45.3794V45.5577C10.4866 45.3934 10.0439 45.2739 9.59249 45.2011L9.37453 45.8616Z" fill="black"/>
<path d="M9.37453 47.0041C8.80307 46.9579 8.22881 46.9579 7.65735 47.0041L7.45922 46.3437C7.01163 46.4005 6.56972 46.4956 6.13831 46.6276V46.4493C6.6148 46.2947 7.10624 46.1907 7.60452 46.1389C7.67056 46.3635 7.7366 46.5946 7.80265 46.8324C8.28176 46.7928 8.76333 46.7928 9.24245 46.8324C9.3151 46.5946 9.38114 46.3635 9.44718 46.1389C9.94532 46.1916 10.4367 46.2956 10.9134 46.4493V46.6276C10.4818 46.4964 10.0399 46.4014 9.59249 46.3437L9.37453 47.0041Z" fill="black"/>
<path d="M9.37453 48.1204C8.80654 48.1204 8.22534 48.1204 7.65735 48.1204L7.45922 47.4269C7.01487 47.4692 6.57367 47.5398 6.13831 47.6382V47.4599C6.62022 47.3445 7.11047 47.2672 7.60452 47.2288L7.80265 47.8892C8.27817 47.8892 8.76692 47.8892 9.24245 47.8892C9.3151 47.6581 9.38114 47.4269 9.44718 47.2288C9.94117 47.2677 10.4314 47.345 10.9134 47.4599V47.6647C10.4779 47.567 10.0367 47.4964 9.59249 47.4533L9.37453 48.1204Z" fill="black"/>
<path d="M9.37453 49.2564C8.80654 49.2564 8.22534 49.2564 7.65735 49.2564L7.45922 48.5563C7.0035 48.5563 6.55439 48.6223 6.13831 48.6884V48.5101C6.62372 48.4313 7.11327 48.3806 7.60452 48.3582L7.80265 49.0582C8.27817 49.0582 8.76692 49.0582 9.24245 49.0582C9.3151 48.8205 9.38114 48.5893 9.44718 48.3582C9.93841 48.3809 10.4279 48.4316 10.9134 48.5101V48.6884C10.4841 48.6223 10.035 48.5827 9.59249 48.5563L9.37453 49.2564Z" fill="black"/>
<path d="M9.37453 50.3858H7.65735L7.45922 49.6791C7.0035 49.6791 6.55439 49.6791 6.13831 49.7319V49.5536C6.60723 49.5206 7.09597 49.5008 7.60452 49.4875L7.80265 50.1942C8.27817 50.1942 8.76692 50.1942 9.24245 50.1942C9.3151 49.9565 9.38114 49.7187 9.44718 49.4875C9.94913 49.4875 10.4445 49.5206 10.9134 49.5536V49.7319C10.4841 49.7319 10.035 49.6923 9.59249 49.6791L9.37453 50.3858Z" fill="black"/>
<path d="M9.37453 51.5152C8.80654 51.5152 8.22534 51.5152 7.65735 51.5152L7.45922 50.8019C7.0035 50.8019 6.55439 50.8019 6.13831 50.8019V50.6235H7.60452L7.80265 51.3434H9.24245C9.3151 51.0991 9.38114 50.8613 9.44718 50.6235H10.9134V50.8019C10.4841 50.8019 10.035 50.8019 9.59249 50.8019L9.37453 51.5152Z" fill="black"/>
<path d="M9.37453 52.6445C8.80262 52.6776 8.22926 52.6776 7.65735 52.6445L7.45922 51.9313C7.0035 51.9313 6.55439 51.8784 6.13831 51.8322V51.6274C6.60723 51.6671 7.09597 51.7001 7.60452 51.7133L7.80265 52.4332C8.27817 52.4332 8.76692 52.4332 9.24245 52.4332C9.3151 52.1954 9.38114 51.9577 9.44718 51.7133C9.94913 51.7133 10.4445 51.6671 10.9134 51.6274V51.8058C10.4841 51.852 10.035 51.885 9.59249 51.9048L9.37453 52.6445Z" fill="black"/>
<path d="M9.37453 53.7804C8.80283 53.82 8.22905 53.82 7.65735 53.7804L7.45922 53.0539C7.01606 53.0213 6.57507 52.964 6.13831 52.8822V52.7039C6.62345 52.7871 7.113 52.8423 7.60452 52.869L7.80265 53.5955C8.28201 53.6285 8.76308 53.6285 9.24245 53.5955C9.3151 53.3511 9.38114 53.1133 9.44718 52.869C9.93867 52.8419 10.4282 52.7868 10.9134 52.7039V52.8822C10.4765 52.9633 10.0356 53.0206 9.59249 53.0539L9.37453 53.7804Z" fill="black"/>
<path d="M9.37453 54.9297C8.80368 54.9892 8.2282 54.9892 7.65735 54.9297L7.45922 54.1966C7.01255 54.1508 6.57063 54.0669 6.13831 53.9456V53.7739C6.61985 53.8938 7.11011 53.9755 7.60452 54.0183L7.80265 54.7514C8.28176 54.791 8.76333 54.791 9.24245 54.7514C9.3151 54.507 9.38114 54.2627 9.44718 54.0183C9.94152 53.975 10.4317 53.8933 10.9134 53.7739V53.9456C10.4808 54.0659 10.039 54.1499 9.59249 54.1966L9.37453 54.9297Z" fill="black"/>
<path d="M9.37453 56.0393C8.80489 56.1185 8.22699 56.1185 7.65735 56.0393L7.45922 55.3062C7.00904 55.2402 6.56655 55.1296 6.13831 54.9759V54.7976C6.61324 54.9619 7.10502 55.0726 7.60452 55.1278L7.80265 55.8675C8.28146 55.9138 8.76363 55.9138 9.24245 55.8675C9.3151 55.6166 9.38114 55.3722 9.44718 55.1278C9.94657 55.0719 10.4383 54.9612 10.9134 54.7976V54.9759C10.4848 55.1285 10.0424 55.2391 9.59249 55.3062L9.37453 56.0393Z" fill="black"/>
<path d="M9.37453 57.1686C8.80587 57.261 8.22601 57.261 7.65735 57.1686L7.45922 56.4289C7.00448 56.3475 6.56106 56.2122 6.13831 56.026V55.8477C6.6073 56.0469 7.10014 56.1846 7.60452 56.2571L7.80265 56.9969C8.28033 57.0625 8.76476 57.0625 9.24245 56.9969C9.3151 56.7525 9.38114 56.5081 9.44718 56.2571C9.95138 56.1837 10.4441 56.0461 10.9134 55.8477V56.026C10.4902 56.2111 10.0469 56.3463 9.59249 56.4289L9.37453 57.1686Z" fill="black"/>
<g style="mix-blend-mode:multiply" opacity="0.5">
<path d="M10.9002 45.4917V44.3161C10.4369 44.0878 9.94309 43.9277 9.434 43.8406C9.434 43.8934 9.40098 43.9529 9.38116 44.0123C8.80364 43.9198 8.21508 43.9198 7.63756 44.0123C7.63756 43.9529 7.60454 43.8934 7.59133 43.8406C7.08198 43.9266 6.58799 44.0868 6.12512 44.3161V45.4917C7.66015 44.891 9.36519 44.891 10.9002 45.4917Z" fill="black"/>
</g>
<g style="mix-blend-mode:multiply" opacity="0.5">
<path d="M6.12512 53.906V56.5082C6.59205 56.7304 7.08781 56.886 7.59794 56.9705L7.65077 57.1687C8.21943 57.2611 8.7993 57.2611 9.36796 57.1687C9.36796 57.1026 9.36796 57.0366 9.4208 56.9705C9.93281 56.885 10.4306 56.7294 10.9002 56.5082V53.906C9.33487 54.3156 7.69047 54.3156 6.12512 53.906Z" fill="black"/>
</g>
<path d="M10.6954 75.6547C9.26718 75.397 7.80434 75.397 6.37607 75.6547C6.15041 75.6962 5.94637 75.8154 5.79924 75.9914C5.65211 76.1675 5.57113 76.3895 5.57031 76.6189V83.3622C5.5724 83.5913 5.65383 83.8126 5.80074 83.9884C5.94766 84.1642 6.15098 84.2837 6.37607 84.3264C7.80492 84.5774 9.26659 84.5774 10.6954 84.3264C10.9211 84.2849 11.1251 84.1657 11.2723 83.9897C11.4194 83.8136 11.5004 83.5916 11.5012 83.3622V76.6189C11.5017 76.3891 11.4212 76.1665 11.2738 75.9902C11.1265 75.8138 10.9217 75.695 10.6954 75.6547Z" fill="#D6D6D6"/>
<path d="M10.9002 73.977C10.1545 73.6215 9.3388 73.437 8.51267 73.437C7.68654 73.437 6.87084 73.6215 6.12512 73.977V86.0039C6.87174 86.3563 7.68709 86.539 8.51267 86.539C9.33826 86.539 10.1536 86.3563 10.9002 86.0039V73.977Z" fill="#004358"/>
<path d="M9.37453 74.2214C8.80445 74.1487 8.22743 74.1487 7.65735 74.2214L7.45922 73.561C7.00163 73.6474 6.55748 73.794 6.13831 73.9969V73.8185C6.60117 73.5892 7.09516 73.429 7.60452 73.343L7.80265 74.0035C8.28074 73.944 8.76436 73.944 9.24245 74.0035C9.3151 73.7723 9.38114 73.5412 9.44718 73.343C9.95627 73.4301 10.4501 73.5903 10.9134 73.8185V73.9969C10.4936 73.7957 10.0496 73.6492 9.59249 73.561L9.37453 74.2214Z" fill="black"/>
<path d="M9.37453 75.3574C8.80405 75.2913 8.22783 75.2913 7.65735 75.3574L7.45922 74.6969C7.00729 74.7709 6.5645 74.8927 6.13831 75.0602V74.8819C6.60885 74.6899 7.10132 74.5568 7.60452 74.4856L7.80265 75.1461C8.28146 75.0998 8.76363 75.0998 9.24245 75.1461C9.3151 74.9149 9.38114 74.6903 9.44718 74.4856C9.95021 74.5576 10.4426 74.6907 10.9134 74.8819V75.0602C10.4868 74.8939 10.0441 74.7722 9.59249 74.6969L9.37453 75.3574Z" fill="black"/>
<path d="M9.37453 76.4868C8.80307 76.4406 8.22881 76.4406 7.65735 76.4868L7.45922 75.8263C7.01105 75.8798 6.56883 75.9748 6.13831 76.1103V75.932C6.61542 75.7783 7.10654 75.6722 7.60452 75.615L7.80265 76.3085C8.28201 76.2754 8.76308 76.2754 9.24245 76.3085C9.3151 76.0773 9.38114 75.8461 9.44718 75.615C9.94505 75.6728 10.4361 75.779 10.9134 75.932V76.0641C10.4826 75.9298 10.0405 75.8347 9.59249 75.7801L9.37453 76.4868Z" fill="black"/>
<path d="M9.37453 77.6162C8.80262 77.5832 8.22926 77.5832 7.65735 77.6162L7.45922 76.9227C7.01502 76.9629 6.57382 77.0313 6.13831 77.1275V76.9558C6.62004 76.8381 7.11029 76.7586 7.60452 76.718L7.80265 77.4181C8.28221 77.3917 8.76288 77.3917 9.24245 77.4181C9.3151 77.1803 9.38114 76.9492 9.44718 76.718C9.94135 76.7591 10.4316 76.8386 10.9134 76.9558V77.1275C10.4777 77.0321 10.0366 76.9637 9.59249 76.9227L9.37453 77.6162Z" fill="black"/>
<path d="M9.37453 78.7456C8.80654 78.7456 8.22534 78.7456 7.65735 78.7456L7.45922 78.0455C7.0035 78.0455 6.55439 78.1182 6.13831 78.1776V77.9993C6.62414 77.9238 7.11352 77.8731 7.60452 77.8474L7.80265 78.5541C8.27817 78.5541 8.76692 78.5541 9.24245 78.5541C9.3151 78.3163 9.38114 78.0786 9.44718 77.8474C9.93816 77.8734 10.4275 77.9241 10.9134 77.9993V78.1776C10.4841 78.1182 10.035 78.072 9.59249 78.0455L9.37453 78.7456Z" fill="black"/>
<path d="M9.37453 79.8816H7.65735L7.45922 79.1749C7.0035 79.1749 6.55439 79.1749 6.13831 79.2278V79.0494C6.60723 79.0494 7.09597 78.99 7.60452 78.9768L7.80265 79.6835H9.24245C9.3151 79.4457 9.38114 79.2146 9.44718 78.9768C9.94913 78.9768 10.4445 79.0164 10.9134 79.0494V79.2278C10.4841 79.2278 10.035 79.1815 9.59249 79.1749L9.37453 79.8816Z" fill="black"/>
<path d="M9.37453 81.011C8.80654 81.011 8.22534 81.011 7.65735 81.011L7.45922 80.2977H6.13831V80.1194H7.60452L7.80265 80.8327H9.24245C9.3151 80.5949 9.38114 80.3571 9.44718 80.1194H10.9134V80.2977H9.59249L9.37453 81.011Z" fill="black"/>
<path d="M9.37453 82.1403C8.80654 82.1403 8.22534 82.1403 7.65735 82.1403L7.45922 81.4204C7.0035 81.4204 6.55439 81.3676 6.13831 81.328V81.1497C6.60723 81.1893 7.09597 81.2223 7.60452 81.2355L7.80265 81.9554C8.27817 81.9554 8.76692 81.9554 9.24245 81.9554C9.3151 81.7177 9.38114 81.4733 9.44718 81.2355C9.94913 81.2355 10.4445 81.1893 10.9134 81.1497V81.3478C10.4841 81.3874 10.035 81.4204 9.59249 81.4403L9.37453 82.1403Z" fill="black"/>
<path d="M9.37453 83.2699C8.80307 83.3161 8.22881 83.3161 7.65735 83.2699L7.45922 82.55C7.01592 82.5153 6.57493 82.4558 6.13831 82.3717V82.1934C6.62331 82.2789 7.11287 82.3362 7.60452 82.3651L7.80265 83.0916C8.28221 83.118 8.76288 83.118 9.24245 83.0916C9.3151 82.8472 9.38114 82.6028 9.44718 82.3651C9.9388 82.3359 10.4283 82.2785 10.9134 82.1934V82.3717C10.4767 82.455 10.0357 82.5146 9.59249 82.55L9.37453 83.2699Z" fill="black"/>
<path d="M9.37453 84.4058C8.80368 84.4653 8.2282 84.4653 7.65735 84.4058L7.45922 83.6727C7.01303 83.6237 6.57137 83.5398 6.13831 83.4217V83.2434C6.61967 83.3655 7.10994 83.4495 7.60452 83.4944L7.80265 84.2209C8.28146 84.2671 8.76363 84.2671 9.24245 84.2209C9.3151 83.9831 9.38114 83.7388 9.44718 83.4944C9.94169 83.4489 10.4319 83.365 10.9134 83.2434V83.4217C10.4801 83.5389 10.0385 83.6228 9.59249 83.6727L9.37453 84.4058Z" fill="black"/>
<path d="M9.37453 85.5351C8.80445 85.6078 8.22743 85.6078 7.65735 85.5351L7.45922 84.7954C7.00925 84.7317 6.56676 84.6233 6.13831 84.4718V84.2935C6.61412 84.4546 7.10556 84.5653 7.60452 84.6237L7.80265 85.3568C8.28112 85.4096 8.76397 85.4096 9.24245 85.3568C9.3151 85.1124 9.38114 84.8681 9.44718 84.6237C9.94602 84.5646 10.4374 84.4539 10.9134 84.2935V84.4718C10.4846 84.6222 10.0422 84.7305 9.59249 84.7954L9.37453 85.5351Z" fill="black"/>
<path d="M9.37453 86.6644C8.80587 86.7569 8.22601 86.7569 7.65735 86.6644L7.45922 85.9181C7.00472 85.839 6.56128 85.706 6.13831 85.5218V85.3435C6.6073 85.5428 7.10014 85.6804 7.60452 85.753L7.80265 86.4927C8.28074 86.5522 8.76436 86.5522 9.24245 86.4927C9.3151 86.2483 9.38114 85.9974 9.44718 85.753C9.95138 85.6796 10.4441 85.5419 10.9134 85.3435V85.5218C10.49 85.7047 10.0467 85.8377 9.59249 85.9181L9.37453 86.6644Z" fill="black"/>
<g style="mix-blend-mode:multiply" opacity="0.5">
<path d="M10.9002 74.981V73.8054C10.4369 73.5771 9.94309 73.4169 9.434 73.3298C9.434 73.3893 9.40098 73.4487 9.38116 73.5082C8.80364 73.4157 8.21508 73.4157 7.63756 73.5082C7.63756 73.4487 7.60454 73.3893 7.59133 73.3298C7.08198 73.4158 6.58799 73.576 6.12512 73.8054V74.981C7.66111 74.3854 9.36422 74.3854 10.9002 74.981Z" fill="black"/>
</g>
<g style="mix-blend-mode:multiply" opacity="0.5">
<path d="M6.12512 83.4019V86.0041C6.59205 86.2262 7.08781 86.3818 7.59794 86.4664L7.65077 86.6645C8.21943 86.757 8.7993 86.757 9.36796 86.6645C9.36796 86.5985 9.36796 86.5324 9.4208 86.4664C9.93281 86.3808 10.4306 86.2253 10.9002 86.0041V83.4019C9.33487 83.8115 7.69047 83.8115 6.12512 83.4019Z" fill="black"/>
</g>
<path d="M30.3308 46.1588C31.7591 45.9012 33.2219 45.9012 34.6502 46.1588C34.8758 46.2004 35.0799 46.3195 35.227 46.4956C35.3741 46.6717 35.4551 46.8936 35.4559 47.1231V53.8663C35.4564 54.0961 35.3759 54.3188 35.2285 54.4951C35.0812 54.6714 34.8764 54.7902 34.6502 54.8306C33.2219 55.0882 31.7591 55.0882 30.3308 54.8306C30.1046 54.7902 29.8998 54.6714 29.7524 54.4951C29.6051 54.3188 29.5246 54.0961 29.525 53.8663V47.1231C29.5258 46.8936 29.6068 46.6717 29.754 46.4956C29.9011 46.3195 30.1051 46.2004 30.3308 46.1588Z" fill="#D6D6D6"/>
<path d="M30.0996 44.4813C30.8474 44.1288 31.6638 43.946 32.4905 43.946C33.3171 43.946 34.1336 44.1288 34.8813 44.4813V56.5082C34.1344 56.8638 33.3177 57.0484 32.4905 57.0484C31.6632 57.0484 30.8465 56.8638 30.0996 56.5082V44.4813Z" fill="#004358"/>
<path d="M31.6319 44.7321C32.2015 44.6529 32.7794 44.6529 33.3491 44.7321L33.5472 44.0717C34.0038 44.1651 34.4474 44.3137 34.8681 44.5142V44.3359C34.4048 44.1076 33.911 43.9474 33.4019 43.8604C33.3359 44.0849 33.2632 44.3095 33.1972 44.5208C32.7191 44.4613 32.2355 44.4613 31.7574 44.5208C31.6913 44.2896 31.6253 44.0651 31.5526 43.8604C31.0436 43.9474 30.5497 44.1076 30.0864 44.3359V44.5142C30.5072 44.3137 30.9507 44.1651 31.4073 44.0717L31.6319 44.7321Z" fill="black"/>
<path d="M31.6319 45.8616C32.2024 45.7955 32.7786 45.7955 33.3491 45.8616L33.5472 45.2011C33.9987 45.2739 34.4414 45.3934 34.8681 45.5577V45.3794C34.3971 45.1904 33.9047 45.0595 33.4019 44.9897C33.3359 45.2143 33.2632 45.4455 33.1972 45.6502C32.7184 45.604 32.2362 45.604 31.7574 45.6502C31.6913 45.419 31.6253 45.1879 31.5526 44.9897C31.0499 45.0595 30.5575 45.1904 30.0864 45.3794V45.5577C30.5132 45.3934 30.9559 45.2739 31.4073 45.2011L31.6319 45.8616Z" fill="black"/>
<path d="M31.6319 47.0041C32.2034 46.9579 32.7776 46.9579 33.3491 47.0041L33.5472 46.3437C33.9946 46.4014 34.4365 46.4964 34.8681 46.6276V46.4493C34.3914 46.2956 33.9 46.1916 33.4019 46.1389C33.3359 46.3635 33.2632 46.5946 33.1972 46.8324C32.7181 46.7928 32.2365 46.7928 31.7574 46.8324C31.6913 46.5946 31.6253 46.3635 31.5526 46.1389C31.0545 46.1916 30.5632 46.2956 30.0864 46.4493V46.6276C30.5181 46.4964 30.9599 46.4014 31.4073 46.3437L31.6319 47.0041Z" fill="black"/>
<path d="M31.6319 48.1204C32.1999 48.1204 32.7811 48.1204 33.3491 48.1204L33.5472 47.4269C33.9915 47.47 34.4326 47.5406 34.8681 47.6382V47.4599C34.3861 47.345 33.8959 47.2677 33.4019 47.2288C33.3359 47.4599 33.2632 47.6911 33.1972 47.8892C32.7216 47.8892 32.2329 47.8892 31.7574 47.8892C31.6913 47.6581 31.6253 47.4269 31.5526 47.2288C31.0587 47.2677 30.5684 47.345 30.0864 47.4599V47.6647C30.5219 47.567 30.9631 47.4964 31.4073 47.4533L31.6319 48.1204Z" fill="black"/>
<path d="M31.6319 49.2564C32.1999 49.2564 32.7811 49.2564 33.3491 49.2564L33.5472 48.5563C34.0029 48.5563 34.452 48.6223 34.8681 48.6884V48.5101C34.3827 48.4316 33.8931 48.3809 33.4019 48.3582C33.3359 48.5893 33.2632 48.8205 33.1972 49.0582C32.7216 49.0582 32.2329 49.0582 31.7574 49.0582C31.6913 48.8205 31.6253 48.5893 31.5526 48.3582C31.0614 48.3809 30.5719 48.4316 30.0864 48.5101V48.6884C30.5157 48.6223 30.9648 48.5827 31.4073 48.5563L31.6319 49.2564Z" fill="black"/>
<path d="M31.6319 50.3858H33.3491L33.5472 49.6791C34.0029 49.6791 34.452 49.6791 34.8681 49.7319V49.5536C34.3992 49.5206 33.9039 49.5008 33.4019 49.4875C33.3359 49.7187 33.2632 49.9565 33.1972 50.1942C32.7216 50.1942 32.2329 50.1942 31.7574 50.1942C31.6913 49.9565 31.6253 49.7187 31.5526 49.4875C31.0507 49.4875 30.5553 49.5206 30.0864 49.5536V49.7319C30.5157 49.7319 30.9648 49.6923 31.4073 49.6791L31.6319 50.3858Z" fill="black"/>
<path d="M31.6319 51.5152C32.1999 51.5152 32.7811 51.5152 33.3491 51.5152L33.5472 50.8019C34.0029 50.8019 34.452 50.8019 34.8681 50.8019V50.6235H33.4151C33.349 50.8613 33.2764 51.0991 33.2104 51.3434H31.7706C31.7045 51.0991 31.6385 50.8613 31.5658 50.6235H30.0996V50.8019C30.5289 50.8019 30.978 50.8019 31.4205 50.8019L31.6319 51.5152Z" fill="black"/>
<path d="M31.6319 52.6445C32.2038 52.6776 32.7772 52.6776 33.3491 52.6445L33.5472 51.9313C34.0029 51.9313 34.452 51.8784 34.8681 51.8322V51.6274C34.3992 51.6671 33.9039 51.7001 33.4019 51.7133C33.3359 51.9577 33.2632 52.1954 33.1972 52.4332C32.7216 52.4332 32.2329 52.4332 31.7574 52.4332C31.6913 52.1954 31.6253 51.9577 31.5526 51.7133C31.0507 51.7133 30.5553 51.6671 30.0864 51.6274V51.8058C30.5157 51.852 30.9648 51.885 31.4073 51.9048L31.6319 52.6445Z" fill="black"/>
<path d="M31.6319 53.7804C32.2036 53.82 32.7774 53.82 33.3491 53.7804L33.5472 53.0539C33.9903 53.0206 34.4313 52.9633 34.8681 52.8822V52.7039C34.3829 52.7868 33.8934 52.8419 33.4019 52.869C33.3359 53.1133 33.2632 53.3511 33.1972 53.5955C32.7178 53.6285 32.2367 53.6285 31.7574 53.5955C31.6913 53.3511 31.6253 53.1133 31.5526 52.869C31.0612 52.8419 30.5716 52.7868 30.0864 52.7039V52.8822C30.5233 52.9633 30.9642 53.0206 31.4073 53.0539L31.6319 53.7804Z" fill="black"/>
<path d="M31.6319 54.9297C32.2027 54.9892 32.7782 54.9892 33.3491 54.9297L33.5472 54.1966C33.9937 54.1499 34.4356 54.0659 34.8681 53.9456V53.7739C34.3865 53.8933 33.8962 53.975 33.4019 54.0183C33.3359 54.2627 33.2632 54.507 33.1972 54.7514C32.7181 54.791 32.2365 54.791 31.7574 54.7514C31.6913 54.507 31.6253 54.2627 31.5526 54.0183C31.0583 53.975 30.5681 53.8933 30.0864 53.7739V53.9456C30.519 54.0659 30.9608 54.1499 31.4073 54.1966L31.6319 54.9297Z" fill="black"/>
<path d="M31.6319 56.0393C32.2015 56.1185 32.7794 56.1185 33.3491 56.0393L33.5472 55.3062C33.9972 55.2391 34.4395 55.1285 34.8681 54.9759V54.7976C34.393 54.9612 33.9013 55.0719 33.4019 55.1278C33.3359 55.3722 33.2632 55.6166 33.1972 55.8675C32.7184 55.9138 32.2362 55.9138 31.7574 55.8675C31.6913 55.6166 31.6253 55.3722 31.5526 55.1278C31.0533 55.0719 30.5616 54.9612 30.0864 54.7976V54.9759C30.515 55.1285 30.9574 55.2391 31.4073 55.3062L31.6319 56.0393Z" fill="black"/>
<path d="M31.6319 57.1686C32.2006 57.261 32.7804 57.261 33.3491 57.1686L33.5472 56.4289C34.0017 56.3463 34.445 56.2111 34.8681 56.026V55.8477C34.3988 56.0461 33.9061 56.1837 33.4019 56.2571C33.3359 56.5081 33.2632 56.7525 33.1972 56.9969C32.7195 57.0625 32.2351 57.0625 31.7574 56.9969C31.6913 56.7525 31.6253 56.5081 31.5526 56.2571C31.0484 56.1837 30.5557 56.0461 30.0864 55.8477V56.026C30.5096 56.2111 30.9529 56.3463 31.4073 56.4289L31.6319 57.1686Z" fill="black"/>
<g style="mix-blend-mode:multiply" opacity="0.5">
<path d="M30.0996 45.4917V44.3161C30.5629 44.0878 31.0567 43.9277 31.5658 43.8406C31.5873 43.8966 31.605 43.9539 31.6186 44.0123C32.1962 43.9198 32.7847 43.9198 33.3623 44.0123C33.376 43.9539 33.3936 43.8966 33.4151 43.8406C33.9242 43.9277 34.418 44.0878 34.8813 44.3161V45.4917C33.3441 44.8906 31.6368 44.8906 30.0996 45.4917Z" fill="black"/>
</g>
<g style="mix-blend-mode:multiply" opacity="0.5">
<path d="M34.8813 53.906V56.5082C34.4117 56.7294 33.9139 56.885 33.4019 56.9705L33.3491 57.1687C32.7804 57.2611 32.2005 57.2611 31.6319 57.1687L31.579 56.9705C31.067 56.885 30.5692 56.7294 30.0996 56.5082V53.906C31.6672 54.3156 33.3137 54.3156 34.8813 53.906Z" fill="black"/>
</g>
<path d="M30.3308 75.6547C31.7591 75.397 33.2219 75.397 34.6502 75.6547C34.8764 75.695 35.0812 75.8138 35.2285 75.9902C35.3759 76.1665 35.4564 76.3891 35.4559 76.6189V83.3622C35.4551 83.5916 35.3741 83.8136 35.227 83.9897C35.0799 84.1657 34.8758 84.2849 34.6502 84.3264C33.2213 84.5774 31.7596 84.5774 30.3308 84.3264C30.1051 84.2849 29.9011 84.1657 29.754 83.9897C29.6068 83.8136 29.5258 83.5916 29.525 83.3622V76.6189C29.5246 76.3891 29.6051 76.1665 29.7524 75.9902C29.8998 75.8138 30.1046 75.695 30.3308 75.6547Z" fill="#D6D6D6"/>
<path d="M30.0996 73.9772C30.8465 73.6215 31.6632 73.437 32.4905 73.437C33.3177 73.437 34.1344 73.6215 34.8813 73.9772V86.0041C34.1336 86.3566 33.3171 86.5394 32.4905 86.5394C31.6638 86.5394 30.8474 86.3566 30.0996 86.0041V73.9772Z" fill="#004358"/>
<path d="M31.6319 74.2214C32.202 74.1487 32.779 74.1487 33.3491 74.2214L33.5472 73.561C34.0044 73.6492 34.4483 73.7957 34.8681 73.9969V73.8185C34.4048 73.5903 33.911 73.4301 33.4019 73.343C33.3359 73.5676 33.2632 73.7987 33.1972 74.0035C32.7191 73.944 32.2355 73.944 31.7574 74.0035C31.6913 73.7723 31.6253 73.5412 31.5526 73.343C31.0436 73.4301 30.5497 73.5903 30.0864 73.8185V73.9969C30.5063 73.7957 30.9502 73.6492 31.4073 73.561L31.6319 74.2214Z" fill="black"/>
<path d="M31.6319 75.3574C32.2024 75.2913 32.7786 75.2913 33.3491 75.3574L33.5472 74.6969C33.9989 74.7722 34.4415 74.8939 34.8681 75.0602V74.8819C34.3973 74.6907 33.9049 74.5576 33.4019 74.4856C33.3359 74.7168 33.2632 74.9413 33.1972 75.1461C32.7184 75.0998 32.2362 75.0998 31.7574 75.1461C31.6913 74.9149 31.6253 74.6903 31.5526 74.4856C31.0496 74.5576 30.5573 74.6907 30.0864 74.8819V75.0602C30.513 74.8939 30.9557 74.7722 31.4073 74.6969L31.6319 75.3574Z" fill="black"/>
<path d="M31.6319 76.4868C32.2034 76.4406 32.7776 76.4406 33.3491 76.4868L33.5472 75.8263C33.9952 75.881 34.4373 75.976 34.8681 76.1103V75.932C34.3908 75.779 33.8998 75.6728 33.4019 75.615C33.3359 75.8461 33.2632 76.0773 33.1972 76.3085C32.7178 76.2754 32.2367 76.2754 31.7574 76.3085C31.6913 76.0773 31.6253 75.8461 31.5526 75.615C31.0548 75.6728 30.5637 75.779 30.0864 75.932V76.0641C30.5173 75.9298 30.9594 75.8347 31.4073 75.7801L31.6319 76.4868Z" fill="black"/>
<path d="M31.6319 77.6162C32.2038 77.5832 32.7772 77.5832 33.3491 77.6162L33.5472 76.9227C33.9913 76.9637 34.4325 77.0321 34.8681 77.1275V76.9558C34.3863 76.8386 33.8961 76.7591 33.4019 76.718C33.3359 76.9492 33.2632 77.1803 33.1972 77.4181C32.7176 77.3917 32.2369 77.3917 31.7574 77.4181C31.6913 77.1803 31.6253 76.9492 31.5526 76.718C31.0585 76.7591 30.5683 76.8386 30.0864 76.9558V77.1275C30.5221 77.0321 30.9632 76.9637 31.4073 76.9227L31.6319 77.6162Z" fill="black"/>
<path d="M31.6319 78.7456C32.1999 78.7456 32.7811 78.7456 33.3491 78.7456L33.5472 78.0455C34.0029 78.0455 34.452 78.1182 34.8681 78.1776V77.9993C34.3822 77.9241 33.8929 77.8734 33.4019 77.8474C33.3359 78.0786 33.2632 78.3163 33.1972 78.5541C32.7216 78.5541 32.2329 78.5541 31.7574 78.5541C31.6913 78.3163 31.6253 78.0786 31.5526 77.8474C31.0617 77.8734 30.5723 77.9241 30.0864 77.9993V78.1776C30.5157 78.1182 30.9648 78.072 31.4073 78.0455L31.6319 78.7456Z" fill="black"/>
<path d="M31.6319 79.8816H33.3491L33.5472 79.1749C34.0029 79.1749 34.452 79.1749 34.8681 79.2278V79.0494C34.3992 79.0494 33.9039 78.99 33.4019 78.9768C33.3359 79.2146 33.2632 79.4457 33.1972 79.6835H31.7574C31.6913 79.4457 31.6253 79.2146 31.5526 78.9768C31.0507 78.9768 30.5553 79.0164 30.0864 79.0494V79.2278C30.5157 79.2278 30.9648 79.1815 31.4073 79.1749L31.6319 79.8816Z" fill="black"/>
<path d="M31.6319 81.011C32.1999 81.011 32.7811 81.011 33.3491 81.011L33.5472 80.2977H34.8681V80.1194H33.4151C33.349 80.3571 33.2764 80.5949 33.2104 80.8327H31.7706C31.7045 80.5949 31.6385 80.3571 31.5658 80.1194H30.0996V80.2977H31.4205L31.6319 81.011Z" fill="black"/>
<path d="M31.6319 82.1403C32.1999 82.1403 32.7811 82.1403 33.3491 82.1403L33.5472 81.4204C34.0029 81.4204 34.452 81.3676 34.8681 81.328V81.1497C34.3992 81.1893 33.9039 81.2223 33.4019 81.2355L33.1972 81.9554C32.7216 81.9554 32.2329 81.9554 31.7574 81.9554C31.6913 81.7177 31.6253 81.4733 31.5526 81.2355C31.0507 81.2355 30.5553 81.1893 30.0864 81.1497V81.3478C30.5157 81.3874 30.9648 81.4204 31.4073 81.4403L31.6319 82.1403Z" fill="black"/>
<path d="M31.6319 83.2699C32.2034 83.3161 32.7776 83.3161 33.3491 83.2699L33.5472 82.55C33.9904 82.5146 34.4314 82.455 34.8681 82.3717V82.1934C34.3831 82.2785 33.8935 82.3359 33.4019 82.3651C33.3359 82.6028 33.2632 82.8472 33.1972 83.0916C32.7176 83.118 32.2369 83.118 31.7574 83.0916C31.6913 82.8472 31.6253 82.6028 31.5526 82.3651C31.061 82.3359 30.5715 82.2785 30.0864 82.1934V82.3717C30.5232 82.455 30.9641 82.5146 31.4073 82.55L31.6319 83.2699Z" fill="black"/>
<path d="M31.6319 84.4058C32.2027 84.4653 32.7782 84.4653 33.3491 84.4058L33.5472 83.6727C33.9933 83.6228 34.4349 83.5389 34.8681 83.4217V83.2434C34.3866 83.365 33.8964 83.4489 33.4019 83.4944C33.3359 83.7388 33.2632 83.9831 33.1972 84.2209C32.7184 84.2671 32.2362 84.2671 31.7574 84.2209C31.6913 83.9831 31.6253 83.7388 31.5526 83.4944C31.0581 83.4489 30.5679 83.365 30.0864 83.2434V83.4217C30.5197 83.5389 30.9613 83.6228 31.4073 83.6727L31.6319 84.4058Z" fill="black"/>
<path d="M31.6319 85.5351C32.202 85.6078 32.779 85.6078 33.3491 85.5351L33.5472 84.7954C33.997 84.7305 34.4393 84.6222 34.8681 84.4718V84.2935C34.3921 84.4539 33.9008 84.5646 33.4019 84.6237C33.3359 84.8681 33.2632 85.1124 33.1972 85.3568C32.7187 85.4096 32.2359 85.4096 31.7574 85.3568C31.6913 85.1124 31.6253 84.8681 31.5526 84.6237C31.0538 84.5646 30.5624 84.4539 30.0864 84.2935V84.4718C30.5152 84.6222 30.9576 84.7305 31.4073 84.7954L31.6319 85.5351Z" fill="black"/>
<path d="M31.6319 86.6644C32.2006 86.7569 32.7804 86.7569 33.3491 86.6644L33.5472 85.9181C34.0014 85.8377 34.4447 85.7047 34.8681 85.5218V85.3435C34.3988 85.5419 33.9061 85.6796 33.4019 85.753L33.1972 86.4927C32.7191 86.5522 32.2355 86.5522 31.7574 86.4927C31.6913 86.2483 31.6253 85.9974 31.5526 85.753C31.0484 85.6796 30.5557 85.5419 30.0864 85.3435V85.5218C30.5099 85.7047 30.9531 85.8377 31.4073 85.9181L31.6319 86.6644Z" fill="black"/>
<g style="mix-blend-mode:multiply" opacity="0.5">
<path d="M30.0996 74.981V73.8054C30.5629 73.5771 31.0567 73.4169 31.5658 73.3298C31.5865 73.3883 31.6041 73.4479 31.6186 73.5082C32.1962 73.4157 32.7847 73.4157 33.3623 73.5082C33.3768 73.4479 33.3945 73.3883 33.4151 73.3298C33.9242 73.4169 34.418 73.5771 34.8813 73.8054V74.981C33.3433 74.3837 31.6376 74.3837 30.0996 74.981Z" fill="black"/>
</g>
<g style="mix-blend-mode:multiply" opacity="0.5">
<path d="M34.8813 83.4019V86.0041C34.4117 86.2253 33.9139 86.3808 33.4019 86.4664L33.3491 86.6645C32.7804 86.757 32.2005 86.757 31.6319 86.6645L31.579 86.4664C31.067 86.3808 30.5692 86.2253 30.0996 86.0041V83.4019C31.6672 83.8114 33.3137 83.8114 34.8813 83.4019Z" fill="black"/>
</g>
<path d="M31.3479 85.971C24.1247 86.473 16.8752 86.473 9.65197 85.971C8.88584 85.9182 8.26501 85.5549 8.26501 85.1719V33.3921C8.26501 33.0091 8.92547 32.7317 9.66518 32.7317H31.3413C32.1141 32.7317 32.7349 33.0421 32.7349 33.3921V85.1983C32.7349 85.5813 32.1141 85.971 31.3479 85.971Z" fill="#BF1010"/>
<path d="M36.0636 18.4063C36.0636 18.5369 36.0249 18.6646 35.9523 18.7732C35.8797 18.8818 35.7766 18.9665 35.6559 19.0165C35.5352 19.0665 35.4024 19.0796 35.2743 19.0541C35.1462 19.0286 35.0285 18.9657 34.9361 18.8733C34.8438 18.781 34.7809 18.6633 34.7554 18.5352C34.7299 18.407 34.743 18.2742 34.7929 18.1536C34.8429 18.0329 34.9276 17.9297 35.0362 17.8572C35.1448 17.7846 35.2725 17.7458 35.4031 17.7458C35.5783 17.7458 35.7463 17.8154 35.8701 17.9393C35.994 18.0632 36.0636 18.2311 36.0636 18.4063Z" fill="#102030"/>
<path d="M33.9898 20.3944L33.6727 20.1236L35.4362 18.0762L36.3938 19.3112L36.0636 19.5688L35.4229 18.7366L33.9898 20.3944Z" fill="#102030"/>
<path d="M39.181 19.4368H36.2287C36.0168 19.4368 35.8135 19.521 35.6636 19.6708C35.5138 19.8207 35.4296 20.024 35.4296 20.2359V21.3125H39.9801V20.2359C39.9801 20.024 39.8959 19.8207 39.746 19.6708C39.5962 19.521 39.3929 19.4368 39.181 19.4368Z" fill="#102030"/>
<path d="M4.93628 18.4063C4.93628 18.5369 4.97502 18.6646 5.04759 18.7732C5.12016 18.8818 5.22331 18.9665 5.34399 19.0165C5.46468 19.0665 5.59747 19.0796 5.72559 19.0541C5.8537 19.0286 5.97138 18.9657 6.06375 18.8733C6.15611 18.781 6.21902 18.6633 6.2445 18.5352C6.26999 18.407 6.2569 18.2742 6.20691 18.1536C6.15692 18.0329 6.07228 17.9297 5.96367 17.8572C5.85505 17.7846 5.72736 17.7458 5.59673 17.7458C5.42157 17.7458 5.25358 17.8154 5.12972 17.9393C5.00586 18.0632 4.93628 18.2311 4.93628 18.4063Z" fill="#102030"/>
<path d="M7.01674 20.3944L5.58355 18.7366L4.93631 19.5688L4.60608 19.3112L5.56374 18.0762L7.32715 20.1236L7.01674 20.3944Z" fill="#102030"/>
<path d="M1.81896 19.4368H4.75138C4.96333 19.4368 5.1666 19.521 5.31647 19.6708C5.46634 19.8207 5.55054 20.024 5.55054 20.2359V21.3125H1V20.2359C0.999967 20.1293 1.02127 20.0237 1.06266 19.9255C1.10406 19.8272 1.1647 19.7382 1.24102 19.6637C1.31734 19.5892 1.4078 19.5308 1.50705 19.4918C1.60631 19.4528 1.71236 19.4341 1.81896 19.4368Z" fill="#102030"/>
<path d="M34.4719 19.7405V38.4645C34.4719 38.5694 34.4512 38.6733 34.411 38.7703C34.3709 38.8672 34.312 38.9553 34.2378 39.0296C34.1636 39.1038 34.0755 39.1626 33.9785 39.2028C33.8816 39.2429 33.7777 39.2636 33.6727 39.2636H7.31394C7.20843 39.2645 7.1038 39.2445 7.00608 39.2047C6.90836 39.1649 6.81948 39.1062 6.74457 39.0319C6.66966 38.9576 6.61021 38.8692 6.56963 38.7718C6.52906 38.6744 6.50818 38.57 6.50818 38.4645V19.7405C6.51148 19.5212 6.59435 19.3106 6.74135 19.1478C6.88835 18.985 7.08948 18.8811 7.30732 18.8555C13.6249 18.1942 19.9833 18.0109 26.3285 18.3074C27.689 18.3668 29.0561 18.4527 30.4101 18.5583C31.5064 18.6376 32.6028 18.7367 33.7124 18.8555C33.923 18.8898 34.1147 18.9974 34.2537 19.1594C34.3927 19.3213 34.47 19.5272 34.4719 19.7405Z" fill="#BF1010"/>
<path d="M31.7111 22.686H9.28865C8.84729 22.686 8.4895 23.0438 8.4895 23.4852V38.4577C8.4895 38.8991 8.84729 39.2569 9.28865 39.2569H31.7111C32.1525 39.2569 32.5103 38.8991 32.5103 38.4577V23.4852C32.5103 23.0438 32.1525 22.686 31.7111 22.686Z" fill="#BFBFBF"/>
<path d="M33.1113 19.9256L32.6688 22.072C32.6302 22.2613 32.5265 22.4311 32.3756 22.5518C32.2248 22.6724 32.0364 22.7364 31.8433 22.7325H8.95845C8.76532 22.7364 8.57693 22.6724 8.42609 22.5518C8.27524 22.4311 8.17148 22.2613 8.13289 22.072L7.69038 19.9256C7.6696 19.8062 7.67579 19.6837 7.70848 19.567C7.74118 19.4504 7.79956 19.3425 7.87935 19.2513C7.95913 19.1601 8.0583 19.0879 8.1696 19.04C8.28089 18.9921 8.40149 18.9698 8.52256 18.9745H32.299C32.4184 18.9727 32.5367 18.9973 32.6456 19.0465C32.7544 19.0957 32.851 19.1683 32.9286 19.2592C33.0062 19.35 33.0628 19.4568 33.0944 19.572C33.1259 19.6871 33.1317 19.8079 33.1113 19.9256Z" fill="#2CA3E8"/>
<g style="mix-blend-mode:overlay">
<path d="M22.1081 18.9413H8.52256C8.40149 18.9365 8.28089 18.9589 8.1696 19.0068C8.0583 19.0547 7.95913 19.1269 7.87935 19.2181C7.79956 19.3093 7.74118 19.4172 7.70848 19.5338C7.67579 19.6505 7.6696 19.773 7.69038 19.8924L8.13289 22.0388C8.17148 22.2281 8.27524 22.3979 8.42609 22.5186C8.57693 22.6392 8.76532 22.7032 8.95845 22.6993H18.3567L22.1081 18.9413Z" fill="#2CA3E8"/>
</g>
<g style="mix-blend-mode:overlay">
<path d="M31.196 18.9414H26.5662L22.8148 22.6862H27.4446L31.196 18.9414Z" fill="#2CA3E8"/>
</g>
<path d="M7.82913 37.4937H7.12244V38.2928H7.82913V37.4937Z" fill="#004358"/>
<path d="M6.50818 21.9067L7.61114 22.904C7.68076 22.9652 7.73673 23.0403 7.77542 23.1245C7.8141 23.2087 7.83464 23.3001 7.83569 23.3928V31.7607C7.83569 31.9359 7.76611 32.1039 7.64225 32.2277C7.51839 32.3516 7.3504 32.4212 7.17524 32.4212C7.00007 32.4212 6.83208 32.3516 6.70822 32.2277C6.58436 32.1039 6.51478 31.9359 6.51478 31.7607L6.50818 21.9067Z" fill="#2CA3E8"/>
<path d="M33.8775 37.4937H33.1708V38.2928H33.8775V37.4937Z" fill="#004358"/>
<path d="M7.82913 36.0737H7.12244V36.8729H7.82913V36.0737Z" fill="#004358"/>
<path d="M33.8775 36.0737H33.1708V36.8729H33.8775V36.0737Z" fill="#004358"/>
<path d="M7.82913 34.647H7.12244V35.4461H7.82913V34.647Z" fill="#004358"/>
<path d="M33.8775 34.647H33.1708V35.4461H33.8775V34.647Z" fill="#004358"/>
<path d="M34.4718 21.9067L33.3688 22.904C33.3004 22.9658 33.2457 23.0412 33.2081 23.1253C33.1706 23.2095 33.1511 23.3006 33.1509 23.3928V31.7607C33.1509 31.9359 33.2205 32.1039 33.3443 32.2277C33.4682 32.3516 33.6362 32.4212 33.8113 32.4212C33.9865 32.4212 34.1545 32.3516 34.2783 32.2277C34.4022 32.1039 34.4718 31.9359 34.4718 31.7607V21.9067Z" fill="#2CA3E8"/>
<path d="M30.595 37.6653H10.4049C10.2035 37.6653 10.0103 37.5853 9.86784 37.4429C9.7254 37.3004 9.64539 37.1072 9.64539 36.9058V25.0176C9.64539 24.8161 9.7254 24.623 9.86784 24.4805C10.0103 24.3381 10.2035 24.2581 10.4049 24.2581H30.595C30.6948 24.2581 30.7935 24.2777 30.8857 24.3159C30.9778 24.354 31.0616 24.41 31.1321 24.4805C31.2026 24.551 31.2586 24.6348 31.2967 24.7269C31.3349 24.8191 31.3546 24.9178 31.3546 25.0176V36.9058C31.3546 37.0055 31.3349 37.1043 31.2967 37.1964C31.2586 37.2886 31.2026 37.3723 31.1321 37.4429C31.0616 37.5134 30.9778 37.5693 30.8857 37.6075C30.7935 37.6457 30.6948 37.6653 30.595 37.6653ZM10.4049 24.7864C10.3377 24.7881 10.2739 24.816 10.227 24.8642C10.1801 24.9123 10.1539 24.9768 10.1539 25.044V36.9322C10.1539 36.9994 10.1801 37.0639 10.227 37.112C10.2739 37.1602 10.3377 37.1881 10.4049 37.1898H30.595C30.6622 37.1881 30.726 37.1602 30.7729 37.112C30.8198 37.0639 30.846 36.9994 30.846 36.9322V25.044C30.846 24.9768 30.8198 24.9123 30.7729 24.8642C30.726 24.816 30.6622 24.7881 30.595 24.7864H10.4049Z" fill="black"/>
<path d="M29.7826 26.0742H28.8447V27.0121H29.7826V26.0742Z" fill="#004358"/>
<path d="M29.7826 27.8708H28.8447V28.8087H29.7826V27.8708Z" fill="#004358"/>
<path d="M12.056 26.0742H11.1182V27.0121H12.056V26.0742Z" fill="#004358"/>
<path d="M12.056 27.8708H11.1182V28.8087H12.056V27.8708Z" fill="#004358"/>
<path d="M35.5484 72.762C35.5502 75.6836 34.7016 78.5426 33.1063 80.9901C31.5109 83.4377 29.2377 85.3681 26.564 86.5458C23.8903 87.7235 20.9316 88.0976 18.0488 87.6225C15.1661 87.1474 12.484 85.8436 10.3296 83.8701C8.17523 81.8967 6.64178 79.3389 5.91628 76.5088C5.19078 73.6787 5.30461 70.6986 6.24389 67.9321C7.18316 65.1655 8.90728 62.7322 11.2059 60.9288C13.5045 59.1255 16.2783 58.0301 19.1889 57.7762C19.6278 57.7327 20.0688 57.7129 20.5098 57.7168C24.3582 57.7075 28.0622 59.1811 30.8526 61.8314C31.0969 62.0626 31.3281 62.2937 31.5526 62.5381C31.7772 62.7825 31.9951 63.0401 32.2131 63.2976C34.3814 65.9743 35.5595 69.3173 35.5484 72.762Z" fill="#FD7400"/>
<path d="M33.3388 75.7402C34.9976 68.6511 30.5955 61.5595 23.5064 59.9007C16.4173 58.2419 9.32571 62.644 7.66689 69.7331C6.00807 76.8222 10.4102 83.9138 17.4993 85.5726C24.5884 87.2315 31.68 82.8293 33.3388 75.7402Z" fill="#FFBA1A"/>
<path d="M20.5033 86.1824C17.8407 86.1837 15.2377 85.3949 13.0237 83.9159C10.8097 82.437 9.08433 80.3343 8.06603 77.8742C7.04773 75.4141 6.7823 72.7072 7.30334 70.0961C7.82438 67.4851 9.10846 65.0873 10.993 63.2065C12.8776 61.3256 15.2778 60.0463 17.8899 59.5304C20.502 59.0145 23.2084 59.2852 25.6665 60.3084C28.1246 61.3315 30.2238 63.061 31.6984 65.2779C33.173 67.4948 33.9567 70.0994 33.9501 72.7619C33.9362 76.3215 32.5142 79.731 29.9946 82.2455C27.4751 84.7601 24.0629 86.1754 20.5033 86.1824ZM20.5033 59.7641C17.945 59.7629 15.4437 60.5196 13.3152 61.9389C11.1867 63.3582 9.52645 65.3764 8.54414 67.7386C7.56182 70.1007 7.30146 72.701 7.79593 75.2111C8.2904 77.7211 9.51753 80.0284 11.3224 81.8415C13.1272 83.6546 15.4288 84.8923 17.9366 85.3983C20.4443 85.9043 23.0458 85.6558 25.4124 84.6844C27.7791 83.7129 29.8048 82.0619 31.2339 79.9399C32.6629 77.818 33.4311 75.3202 33.4416 72.7619C33.4451 69.3263 32.0841 66.03 29.6579 63.5976C27.2317 61.1652 23.9388 59.7958 20.5033 59.7906V59.7641Z" fill="#004358"/>
<g style="mix-blend-mode:multiply" opacity="0.3">
<path d="M34.0426 72.4714V79.3005C33.1117 81.2157 31.7859 82.912 30.1524 84.278C28.5189 85.644 26.6147 86.6487 24.5651 87.226H19.1889V82.2462H15.9791V72.4714H19.1757V57.7433C19.6146 57.6998 20.0556 57.6799 20.4966 57.6838C24.345 57.6746 28.0491 59.1481 30.8394 61.7985V70.7212H31.1696V64.0638H31.513V62.5052C31.7376 62.7495 31.9556 63.0071 32.1735 63.2647V64.0638H32.5169V70.7212H33.2831V72.4714H34.0426Z" fill="#583200"/>
</g>
<path d="M29.5251 67.9539H11.4814V77.722H29.5251V67.9539Z" fill="#FFE11A"/>
<path d="M14.678 66.2036H12.2145V79.4788H14.678V66.2036Z" fill="#BF1010"/>
<path d="M28.792 66.2036H26.3285V79.4788H28.792V66.2036Z" fill="#BF1010"/>
<path d="M14.6781 48.1072H12.7231V51.7331H14.6781V48.1072Z" fill="#FFE11A"/>
<path d="M28.2834 48.1072H26.3285V51.7331H28.2834V48.1072Z" fill="#FFE11A"/>
<path d="M21.4741 4.37834L20.074 3.1829L21.6525 1.33364C21.7312 1.23822 21.8285 1.1597 21.9383 1.10281C22.0482 1.04591 22.1684 1.01183 22.2918 1.00257C22.4152 0.993319 22.5392 1.00909 22.6563 1.04896C22.7734 1.08883 22.8813 1.15196 22.9734 1.23456C23.0685 1.31339 23.1468 1.41047 23.2038 1.52007C23.2607 1.62968 23.2952 1.74959 23.305 1.87272C23.3149 1.99584 23.2999 2.1197 23.2611 2.23697C23.2223 2.35423 23.1604 2.46253 23.0791 2.55547L21.4741 4.37834Z" fill="#102030"/>
<path d="M22.9073 4.07448C22.9086 4.55182 22.7681 5.01881 22.5037 5.41625C22.2394 5.81369 21.8629 6.1237 21.4222 6.30697C20.9814 6.49025 20.4962 6.53854 20.0279 6.44573C19.5597 6.35293 19.1295 6.1232 18.792 5.78567C18.4545 5.44814 18.2247 5.01799 18.1319 4.54975C18.0391 4.08152 18.0874 3.59627 18.2707 3.15551C18.454 2.71475 18.764 2.33832 19.1614 2.07393C19.5589 1.80955 20.0259 1.66911 20.5032 1.67042C21.1408 1.67042 21.7523 1.9237 22.2031 2.37455C22.654 2.8254 22.9073 3.43688 22.9073 4.07448Z" fill="#F52924"/>
<path d="M24.7632 3.54614H16.2367V7.19186H24.7632V3.54614Z" fill="#FFED78"/>
<path d="M26.3284 15.5928H14.678V82.6951H26.3284V15.5928Z" fill="#F52924"/>
<path d="M27.3059 5.67944H13.7006V15.5929H27.3059V5.67944Z" fill="#102030"/>
<path d="M24.7632 5.67944H16.2367V15.5929H24.7632V5.67944Z" fill="#F52924"/>
<path d="M20.5032 60.002C19.5066 60.002 18.5507 60.3979 17.8459 61.1026C17.1412 61.8074 16.7452 62.7633 16.7452 63.7599V75.5491C16.7452 76.5458 17.1412 77.5016 17.8459 78.2064C18.5507 78.9111 19.5066 79.3071 20.5032 79.3071C21.4999 79.3071 22.4558 78.9111 23.1605 78.2064C23.8653 77.5016 24.2612 76.5458 24.2612 75.5491V63.7599C24.2612 62.7633 23.8653 61.8074 23.1605 61.1026C22.4558 60.3979 21.4999 60.002 20.5032 60.002Z" fill="#BF1010"/>
<path d="M20.5032 38.7021C19.5066 38.7021 18.5507 39.0981 17.8459 39.8028C17.1412 40.5076 16.7452 41.4635 16.7452 42.4601V54.2691C16.7452 55.2658 17.1412 56.2216 17.8459 56.9264C18.5507 57.6312 19.5066 58.0271 20.5032 58.0271C21.4999 58.0271 22.4558 57.6312 23.1605 56.9264C23.8653 56.2216 24.2612 55.2658 24.2612 54.2691V42.4601C24.2612 41.4635 23.8653 40.5076 23.1605 39.8028C22.4558 39.0981 21.4999 38.7021 20.5032 38.7021Z" fill="#BF1010"/>
<path d="M20.5032 17.4026C19.5066 17.4026 18.5507 17.7985 17.8459 18.5033C17.1412 19.208 16.7452 20.1639 16.7452 21.1606V32.9497C16.7452 33.9464 17.1412 34.9023 17.8459 35.607C18.5507 36.3118 19.5066 36.7077 20.5032 36.7077C21.4999 36.7077 22.4558 36.3118 23.1605 35.607C23.8653 34.9023 24.2612 33.9464 24.2612 32.9497V21.1606C24.2612 20.1639 23.8653 19.208 23.1605 18.5033C22.4558 17.7985 21.4999 17.4026 20.5032 17.4026Z" fill="#BF1010"/>
<path d="M14.3147 51.5283H12.9806V54.3419H14.3147V51.5283Z" fill="#00659C"/>
<path d="M13.978 54.3418H13.3241V60.986H13.978V54.3418Z" fill="#F2F2F2"/>
<path d="M14.3147 59.5461H12.9806V66.2167H14.3147V59.5461Z" fill="#00659C"/>
<path d="M28.0192 51.5283H26.6851V54.3419H28.0192V51.5283Z" fill="#00659C"/>
<path d="M27.6758 54.3418H27.022V60.986H27.6758V54.3418Z" fill="#F2F2F2"/>
<path d="M28.0192 59.5461H26.6851V66.2167H28.0192V59.5461Z" fill="#00659C"/>
<path d="M16.2367 11.6697L13.7006 13.9284V15.2824L16.2367 13.017V11.6697Z" fill="#FFBA1A"/>
<path d="M16.2367 8.82983L13.7006 11.0952V12.4425L16.2367 10.1838V8.82983Z" fill="#FFBA1A"/>
<path d="M16.2367 5.99634L13.7006 8.2551V9.60903L16.2367 7.34366V5.99634Z" fill="#FFBA1A"/>
<path d="M24.7632 11.6697L27.3059 13.9284V15.2824L24.7632 13.017V11.6697Z" fill="#FFBA1A"/>
<path d="M24.7632 8.82983L27.3059 11.0952V12.4425L24.7632 10.1838V8.82983Z" fill="#FFBA1A"/>
<path d="M24.7632 5.99634L27.3059 8.2551V9.60903L24.7632 7.34366V5.99634Z" fill="#FFBA1A"/>
<path d="M10.1539 42.6517L8.83301 44.0849V43.1668L10.1539 41.7336V42.6517Z" fill="#FFBA1A"/>
<path d="M10.1539 44.8446L8.83301 46.2777V45.3531L10.1539 43.9199V44.8446Z" fill="#FFBA1A"/>
<path d="M10.1539 47.0372L8.83301 48.4704V47.5457L10.1539 46.1125V47.0372Z" fill="#FFBA1A"/>
<path d="M10.1539 49.2232L8.83301 50.6564V49.7384L10.1539 48.3052V49.2232Z" fill="#FFBA1A"/>
<path d="M10.1539 51.4161L8.83301 52.8493V51.9312L10.1539 50.498V51.4161Z" fill="#FFBA1A"/>
<path d="M10.1539 53.6087L8.83301 55.0419V54.1173L10.1539 52.6841V53.6087Z" fill="#FFBA1A"/>
<path d="M10.1539 55.8014L8.83301 57.2345V56.3099L10.1539 54.8767V55.8014Z" fill="#FFBA1A"/>
<path d="M10.1539 57.9876L8.83301 59.4208V58.5028L10.1539 57.0696V57.9876Z" fill="#FFBA1A"/>
<path d="M30.8459 42.6517L32.1735 44.0849V43.1668L30.8459 41.7336V42.6517Z" fill="#FFBA1A"/>
<path d="M30.8459 44.8446L32.1735 46.2777V45.3531L30.8459 43.9199V44.8446Z" fill="#FFBA1A"/>
<path d="M30.8459 47.0372L32.1735 48.4704V47.5457L30.8459 46.1125V47.0372Z" fill="#FFBA1A"/>
<path d="M30.8459 49.2232L32.1735 50.6564V49.7384L30.8459 48.3052V49.2232Z" fill="#FFBA1A"/>
<path d="M30.8459 51.4161L32.1735 52.8493V51.9312L30.8459 50.498V51.4161Z" fill="#FFBA1A"/>
<path d="M30.8459 53.6087L32.1735 55.0419V54.1173L30.8459 52.6841V53.6087Z" fill="#FFBA1A"/>
<path d="M30.8459 55.8014L32.1735 57.2345V56.3099L30.8459 54.8767V55.8014Z" fill="#FFBA1A"/>
<path d="M30.8459 57.9876L32.1735 59.4208V58.5028L30.8459 57.0696V57.9876Z" fill="#FFBA1A"/>
<path d="M24.7632 11.6697L27.3059 13.9284V15.2824L24.7632 13.017V11.6697Z" fill="#FFE11A"/>
<path d="M24.7632 8.82983L27.3059 11.0952V12.4425L24.7632 10.1838V8.82983Z" fill="#FFE11A"/>
<path d="M24.7632 5.99634L27.3059 8.2551V9.60903L24.7632 7.34366V5.99634Z" fill="#FFE11A"/>
<path d="M16.2367 11.6697L13.7006 13.9284V15.2824L16.2367 13.017V11.6697Z" fill="#FFE11A"/>
<path d="M16.2367 8.82983L13.7006 11.0952V12.4425L16.2367 10.1838V8.82983Z" fill="#FFE11A"/>
<path d="M16.2367 5.99634L13.7006 8.2551V9.60903L16.2367 7.34366V5.99634Z" fill="#FFE11A"/>
<g style="mix-blend-mode:multiply" opacity="0.3">
<path d="M30.4101 18.5583V39.2636H26.3285V18.3074C27.689 18.3668 29.0562 18.4527 30.4101 18.5583Z" fill="#583200"/>
</g>
</g>
<defs>
<filter id="filter0_d_16_29760" x="0" y="0" width="46.9801" height="94.823" filterUnits="userSpaceOnUse" color-interpolation-filters="sRGB">
<feFlood flood-opacity="0" result="BackgroundImageFix"/>
<feColorMatrix in="SourceAlpha" type="matrix" values="0 0 0 0 0 0 0 0 0 0 0 0 0 0 0 0 0 0 127 0" result="hardAlpha"/>
<feOffset dx="3" dy="3"/>
<feGaussianBlur stdDeviation="2"/>
<feComposite in2="hardAlpha" operator="out"/>
<feColorMatrix type="matrix" values="0 0 0 0 0 0 0 0 0 0 0 0 0 0 0 0 0 0 0.25 0"/>
<feBlend mode="normal" in2="BackgroundImageFix" result="effect1_dropShadow_16_29760"/>
<feBlend mode="normal" in="SourceGraphic" in2="effect1_dropShadow_16_29760" result="shape"/>
</filter>
</defs>
</svg>
