<svg width="42" height="72" viewBox="0 0 42 72" fill="none" xmlns="http://www.w3.org/2000/svg">
<g filter="url(#filter0_d_30_4375)">
<path d="M23.5845 8.08622C23.4841 6.63024 22.8348 5.26666 21.7678 4.27094C20.7008 3.27523 19.2956 2.7216 17.8362 2.72192C16.3761 2.7215 14.9702 3.27491 13.9022 4.27049C12.8342 5.26608 12.1836 6.6297 12.0817 8.08622L11.5923 15.2097V15.5194C11.5915 15.6132 11.6093 15.7062 11.6449 15.793C11.6804 15.8798 11.7328 15.9587 11.7991 16.025C11.8654 16.0913 11.9443 16.1437 12.0311 16.1792C12.1179 16.2147 12.2109 16.2326 12.3047 16.2318C12.4936 16.2318 12.6748 16.1567 12.8084 16.0231C12.942 15.8895 13.017 15.7083 13.017 15.5194V15.2097H13.7975V15.5194C13.7967 15.6132 13.8145 15.7062 13.85 15.793C13.8855 15.8798 13.938 15.9587 14.0043 16.025C14.0706 16.0913 14.1495 16.1437 14.2363 16.1792C14.3231 16.2147 14.4161 16.2326 14.5098 16.2318C14.6036 16.2326 14.6966 16.2147 14.7834 16.1792C14.8702 16.1437 14.9491 16.0913 15.0154 16.025C15.0817 15.9587 15.1341 15.8798 15.1697 15.793C15.2052 15.7062 15.223 15.6132 15.2222 15.5194V15.2097H16.0089V15.5194C16.008 15.6132 16.0259 15.7062 16.0614 15.793C16.0969 15.8798 16.1494 15.9587 16.2157 16.025C16.282 16.0913 16.3608 16.1437 16.4476 16.1792C16.5344 16.2147 16.6274 16.2326 16.7212 16.2318C16.815 16.2326 16.908 16.2147 16.9948 16.1792C17.0816 16.1437 17.1605 16.0913 17.2268 16.025C17.2931 15.9587 17.3455 15.8798 17.381 15.793C17.4165 15.7062 17.4344 15.6132 17.4336 15.5194V15.2097H18.2202V15.5194C18.2194 15.6132 18.2373 15.7062 18.2728 15.793C18.3083 15.8798 18.3607 15.9587 18.4271 16.025C18.4934 16.0913 18.5722 16.1437 18.659 16.1792C18.7458 16.2147 18.8388 16.2326 18.9326 16.2318C19.0264 16.2326 19.1194 16.2147 19.2062 16.1792C19.293 16.1437 19.3718 16.0913 19.4381 16.025C19.5045 15.9587 19.5569 15.8798 19.5924 15.793C19.6279 15.7062 19.6458 15.6132 19.6449 15.5194V15.2097H20.4316V15.5194C20.4316 15.7083 20.5067 15.8895 20.6403 16.0231C20.7739 16.1567 20.955 16.2318 21.144 16.2318C21.3329 16.2318 21.5141 16.1567 21.6477 16.0231C21.7813 15.8895 21.8563 15.7083 21.8563 15.5194V15.2097H22.6368V15.5194C22.6368 15.7083 22.7119 15.8895 22.8455 16.0231C22.979 16.1567 23.1602 16.2318 23.3492 16.2318C23.5381 16.2318 23.7193 16.1567 23.8529 16.0231C23.9865 15.8895 24.0615 15.7083 24.0615 15.5194V15.2097L23.5845 8.08622Z" fill="#2A6380"/>
<path d="M12.6888 15.3955V15.2097C12.6888 15.1674 12.6971 15.1255 12.7133 15.0864C12.7295 15.0474 12.7532 15.0119 12.7831 14.9819C12.813 14.952 12.8485 14.9283 12.8876 14.9121C12.9267 14.8959 12.9686 14.8876 13.0109 14.8876H13.7975C13.8398 14.8876 13.8817 14.8959 13.9208 14.9121C13.9599 14.9283 13.9954 14.952 14.0253 14.9819C14.0552 15.0119 14.0789 15.0474 14.0951 15.0864C14.1113 15.1255 14.1196 15.1674 14.1196 15.2097V15.3955H14.9125V15.2097C14.9125 15.1674 14.9209 15.1255 14.937 15.0864C14.9532 15.0474 14.977 15.0119 15.0069 14.9819C15.0368 14.952 15.0723 14.9283 15.1114 14.9121C15.1504 14.8959 15.1923 14.8876 15.2346 14.8876H16.0213C16.0636 14.8876 16.1055 14.8959 16.1446 14.9121C16.1836 14.9283 16.2192 14.952 16.2491 14.9819C16.279 15.0119 16.3027 15.0474 16.3189 15.0864C16.3351 15.1255 16.3434 15.1674 16.3434 15.2097V15.3955H17.1301V15.2097C17.1293 15.1677 17.1368 15.126 17.1523 15.0869C17.1678 15.0479 17.191 15.0123 17.2204 14.9823C17.2498 14.9523 17.2849 14.9285 17.3237 14.9122C17.3624 14.896 17.404 14.8876 17.446 14.8876H18.2327C18.275 14.8876 18.3169 14.8959 18.3559 14.9121C18.395 14.9283 18.4305 14.952 18.4604 14.9819C18.4904 15.0119 18.5141 15.0474 18.5303 15.0864C18.5465 15.1255 18.5548 15.1674 18.5548 15.2097V15.3955H19.3415V15.2097C19.3406 15.1677 19.3482 15.126 19.3637 15.0869C19.3792 15.0479 19.4024 15.0123 19.4318 14.9823C19.4612 14.9523 19.4963 14.9285 19.535 14.9122C19.5738 14.896 19.6154 14.8876 19.6574 14.8876H20.4441C20.4864 14.8876 20.5282 14.8959 20.5673 14.9121C20.6064 14.9283 20.6419 14.952 20.6718 14.9819C20.7017 15.0119 20.7255 15.0474 20.7416 15.0864C20.7578 15.1255 20.7662 15.1674 20.7662 15.2097V15.3955H21.5405V15.2097C21.5396 15.1677 21.5472 15.126 21.5627 15.0869C21.5782 15.0479 21.6014 15.0123 21.6308 14.9823C21.6602 14.9523 21.6953 14.9285 21.734 14.9122C21.7728 14.896 21.8144 14.8876 21.8564 14.8876H22.6431C22.6854 14.8876 22.7272 14.8959 22.7663 14.9121C22.8054 14.9283 22.8409 14.952 22.8708 14.9819C22.9007 15.0119 22.9244 15.0474 22.9406 15.0864C22.9568 15.1255 22.9652 15.1674 22.9652 15.2097V15.3955H23.7518V15.2593V15.0053L23.2687 8.13578C23.2147 7.34295 22.9876 6.57158 22.6034 5.87596C22.2192 5.18034 21.6872 4.57736 21.0449 4.10946L20.9706 4.05371H14.6833L14.609 4.10946C13.972 4.57596 13.4443 5.17555 13.0624 5.86657C12.6805 6.55759 12.4537 7.32347 12.3976 8.111L11.9207 14.9867V15.2097V15.3955H12.6888Z" fill="#00212B"/>
<path d="M19.6016 3.26099H16.0522V4.84673H19.6016V3.26099Z" fill="#004358"/>
<path d="M15.2408 7.46075C15.2408 9.51108 13.1905 13.0357 11.9207 14.9869L12.3976 8.11116C12.4537 7.32363 12.6805 6.55775 13.0624 5.86673C13.4443 5.17571 13.972 4.57612 14.609 4.10962C15.0403 5.17356 15.2551 6.31281 15.2408 7.46075Z" fill="#002E3D"/>
<path d="M23.7394 14.9807C22.4634 13.0047 20.4131 9.50489 20.4131 7.46075C20.3949 6.31365 20.6055 5.17442 21.0325 4.10962C21.6695 4.57612 22.1972 5.17571 22.5791 5.86673C22.961 6.55775 23.1878 7.32363 23.2439 8.11116L23.7394 14.9807Z" fill="#002E3D"/>
<path d="M8.56328 23.4297H1V64.368H8.56328V23.4297Z" fill="#004358"/>
<path d="M6.10413 24.6189H3.45296L3.14324 23.572H1V23.2871H3.35385L3.66356 24.3401H5.89352L6.20944 23.2871H8.56328V23.572H6.42004L6.10413 24.6189Z" fill="#003242"/>
<path d="M6.10413 25.9507H3.45296L3.14324 24.8976H1V24.6189H3.35385L3.66356 25.6657H5.89352L6.20944 24.6189H8.56328V24.8976H6.42004L6.10413 25.9507Z" fill="#003242"/>
<path d="M6.10413 27.2826H3.45296L3.14324 26.2295H1V25.9446H3.35385L3.66356 26.9976H5.89352L6.20944 25.9446H8.56328V26.2295H6.42004L6.10413 27.2826Z" fill="#003242"/>
<path d="M6.10413 28.6082H3.45296L3.14324 27.5613H1V27.2764H3.35385L3.66356 28.3294H5.89352L6.20944 27.2764H8.56328V27.5613H6.42004L6.10413 28.6082Z" fill="#003242"/>
<path d="M6.10413 29.94H3.45296L3.14324 28.887H1V28.6021H3.35385L3.66356 29.6551H5.89352L6.20944 28.6021H8.56328V28.887H6.42004L6.10413 29.94Z" fill="#003242"/>
<path d="M6.10413 31.2718H3.45296L3.14324 30.2188H1V29.9338H3.35385L3.66356 30.9869H5.89352L6.20944 29.9338H8.56328V30.2188H6.42004L6.10413 31.2718Z" fill="#003242"/>
<path d="M6.10413 32.5974H3.45296L3.14324 31.5444H1V31.2656H3.35385L3.66356 32.3125H5.89352L6.20944 31.2656H8.56328V31.5444H6.42004L6.10413 32.5974Z" fill="#003242"/>
<path d="M6.10413 33.929H3.45296L3.14324 32.876H1V32.5911H3.35385L3.66356 33.6441H5.89352L6.20944 32.5911H8.56328V32.876H6.42004L6.10413 33.929Z" fill="#003242"/>
<path d="M6.10413 35.2546H3.45296L3.14324 34.2078H1V33.9229H3.35385L3.66356 34.9759H5.89352L6.20944 33.9229H8.56328V34.2078H6.42004L6.10413 35.2546Z" fill="#003242"/>
<path d="M6.10413 36.5864H3.45296L3.14324 35.5334H1V35.2546H3.35385L3.66356 36.3015H5.89352L6.20944 35.2546H8.56328V35.5334H6.42004L6.10413 36.5864Z" fill="#003242"/>
<path d="M6.10413 37.9183H3.45296L3.14324 36.8653H1V36.5803H3.35385L3.66356 37.6334H5.89352L6.20944 36.5803H8.56328V36.8653H6.42004L6.10413 37.9183Z" fill="#003242"/>
<path d="M6.10413 39.2439H3.45296L3.14324 38.197H1V37.9121H3.35385L3.66356 38.9651H5.89352L6.20944 37.9121H8.56328V38.197H6.42004L6.10413 39.2439Z" fill="#003242"/>
<path d="M6.10413 40.5755H3.45296L3.14324 39.5225H1V39.2375H3.35385L3.66356 40.2906H5.89352L6.20944 39.2375H8.56328V39.5225H6.42004L6.10413 40.5755Z" fill="#003242"/>
<path d="M6.10413 41.9073H3.45296L3.14324 40.8543H1V40.5693H3.35385L3.66356 41.6224H5.89352L6.20944 40.5693H8.56328V40.8543H6.42004L6.10413 41.9073Z" fill="#003242"/>
<path d="M6.10413 43.2329H3.45296L3.14324 42.1799H1V41.9011H3.35385L3.66356 42.948H5.89352L6.20944 41.9011H8.56328V42.1799H6.42004L6.10413 43.2329Z" fill="#003242"/>
<path d="M6.10413 44.5648H3.45296L3.14324 43.5117H1V43.2268H3.35385L3.66356 44.2798H5.89352L6.20944 43.2268H8.56328V43.5117H6.42004L6.10413 44.5648Z" fill="#003242"/>
<path d="M6.10413 45.8904H3.45296L3.14324 44.8435H1V44.5586H3.35385L3.66356 45.6116H5.89352L6.20944 44.5586H8.56328V44.8435H6.42004L6.10413 45.8904Z" fill="#003242"/>
<path d="M6.10413 47.2223H3.45296L3.14324 46.1692H1V45.8843H3.35385L3.66356 46.9373H5.89352L6.20944 45.8843H8.56328V46.1692H6.42004L6.10413 47.2223Z" fill="#003242"/>
<path d="M6.10413 48.5538H3.45296L3.14324 47.5008H1V47.2158H3.35385L3.66356 48.2689H5.89352L6.20944 47.2158H8.56328V47.5008H6.42004L6.10413 48.5538Z" fill="#003242"/>
<path d="M6.10413 49.8794H3.45296L3.14324 48.8264H1V48.5476H3.35385L3.66356 49.6006H5.89352L6.20944 48.5476H8.56328V48.8264H6.42004L6.10413 49.8794Z" fill="#003242"/>
<path d="M6.10413 51.2113H3.45296L3.14324 50.1582H1V49.8733H3.35385L3.66356 50.9263H5.89352L6.20944 49.8733H8.56328V50.1582H6.42004L6.10413 51.2113Z" fill="#003242"/>
<path d="M6.10413 52.5431H3.45296L3.14324 51.49H1V51.2051H3.35385L3.66356 52.2581H5.89352L6.20944 51.2051H8.56328V51.49H6.42004L6.10413 52.5431Z" fill="#003242"/>
<path d="M6.10413 53.8686H3.45296L3.14324 52.8156H1V52.5369H3.35385L3.66356 53.5899H5.89352L6.20944 52.5369H8.56328V52.8156H6.42004L6.10413 53.8686Z" fill="#003242"/>
<path d="M6.10413 55.2005H3.45296L3.14324 54.1475H1V53.8625H3.35385L3.66356 54.9156H5.89352L6.20944 53.8625H8.56328V54.1475H6.42004L6.10413 55.2005Z" fill="#003242"/>
<path d="M6.10413 56.5323H3.45296L3.14324 55.4793H1V55.1943H3.35385L3.66356 56.2474H5.89352L6.20944 55.1943H8.56328V55.4793H6.42004L6.10413 56.5323Z" fill="#003242"/>
<path d="M6.10413 57.8577H3.45296L3.14324 56.8047H1V56.5198H3.35385L3.66356 57.5728H5.89352L6.20944 56.5198H8.56328V56.8047H6.42004L6.10413 57.8577Z" fill="#003242"/>
<path d="M6.10413 59.1895H3.45296L3.14324 58.1365H1V57.8516H3.35385L3.66356 58.9046H5.89352L6.20944 57.8516H8.56328V58.1365H6.42004L6.10413 59.1895Z" fill="#003242"/>
<path d="M6.10413 60.5151H3.45296L3.14324 59.4621H1V59.1833H3.35385L3.66356 60.2364H5.89352L6.20944 59.1833H8.56328V59.4621H6.42004L6.10413 60.5151Z" fill="#003242"/>
<path d="M6.10413 61.847H3.45296L3.14324 60.794H1V60.509H3.35385L3.66356 61.5621H5.89352L6.20944 60.509H8.56328V60.794H6.42004L6.10413 61.847Z" fill="#003242"/>
<path d="M6.10413 63.1788H3.45296L3.14324 62.1258H1V61.8408H3.35385L3.66356 62.8939H5.89352L6.20944 61.8408H8.56328V62.1258H6.42004L6.10413 63.1788Z" fill="#003242"/>
<path d="M6.10413 64.5044H3.45296L3.14324 63.4514H1V63.1726H3.35385L3.66356 64.2194H5.89352L6.20944 63.1726H8.56328V63.4514H6.42004L6.10413 64.5044Z" fill="#003242"/>
<path d="M34.6539 23.4297H27.0906V64.368H34.6539V23.4297Z" fill="#004358"/>
<path d="M32.2009 24.6189H29.5497L29.2338 23.572H27.0906V23.2871H29.4506L29.7603 24.3401H31.9903L32.3 23.2871H34.66V23.572H32.5168L32.2009 24.6189Z" fill="#003242"/>
<path d="M32.2009 25.9507H29.5497L29.2338 24.8976H27.0906V24.6189H29.4506L29.7603 25.6657H31.9903L32.3 24.6189H34.66V24.8976H32.5168L32.2009 25.9507Z" fill="#003242"/>
<path d="M32.2009 27.2826H29.5497L29.2338 26.2295H27.0906V25.9446H29.4506L29.7603 26.9976H31.9903L32.3 25.9446H34.66V26.2295H32.5168L32.2009 27.2826Z" fill="#003242"/>
<path d="M32.2009 28.6082H29.5497L29.2338 27.5613H27.0906V27.2764H29.4506L29.7603 28.3294H31.9903L32.3 27.2764H34.66V27.5613H32.5168L32.2009 28.6082Z" fill="#003242"/>
<path d="M32.2009 29.94H29.5497L29.2338 28.887H27.0906V28.6021H29.4506L29.7603 29.6551H31.9903L32.3 28.6021H34.66V28.887H32.5168L32.2009 29.94Z" fill="#003242"/>
<path d="M32.2009 31.2718H29.5497L29.2338 30.2188H27.0906V29.9338H29.4506L29.7603 30.9869H31.9903L32.3 29.9338H34.66V30.2188H32.5168L32.2009 31.2718Z" fill="#003242"/>
<path d="M32.2009 32.5974H29.5497L29.2338 31.5444H27.0906V31.2656H29.4506L29.7603 32.3125H31.9903L32.3 31.2656H34.66V31.5444H32.5168L32.2009 32.5974Z" fill="#003242"/>
<path d="M32.2009 33.929H29.5497L29.2338 32.876H27.0906V32.5911H29.4506L29.7603 33.6441H31.9903L32.3 32.5911H34.66V32.876H32.5168L32.2009 33.929Z" fill="#003242"/>
<path d="M32.2009 35.2546H29.5497L29.2338 34.2078H27.0906V33.9229H29.4506L29.7603 34.9759H31.9903L32.3 33.9229H34.66V34.2078H32.5168L32.2009 35.2546Z" fill="#003242"/>
<path d="M32.2009 36.5864H29.5497L29.2338 35.5334H27.0906V35.2546H29.4506L29.7603 36.3015H31.9903L32.3 35.2546H34.66V35.5334H32.5168L32.2009 36.5864Z" fill="#003242"/>
<path d="M32.2009 37.9183H29.5497L29.2338 36.8653H27.0906V36.5803H29.4506L29.7603 37.6334H31.9903L32.3 36.5803H34.66V36.8653H32.5168L32.2009 37.9183Z" fill="#003242"/>
<path d="M32.2009 39.2439H29.5497L29.2338 38.197H27.0906V37.9121H29.4506L29.7603 38.9651H31.9903L32.3 37.9121H34.66V38.197H32.5168L32.2009 39.2439Z" fill="#003242"/>
<path d="M32.2009 40.5755H29.5497L29.2338 39.5225H27.0906V39.2375H29.4506L29.7603 40.2906H31.9903L32.3 39.2375H34.66V39.5225H32.5168L32.2009 40.5755Z" fill="#003242"/>
<path d="M32.2009 41.9073H29.5497L29.2338 40.8543H27.0906V40.5693H29.4506L29.7603 41.6224H31.9903L32.3 40.5693H34.66V40.8543H32.5168L32.2009 41.9073Z" fill="#003242"/>
<path d="M32.2009 43.2329H29.5497L29.2338 42.1799H27.0906V41.9011H29.4506L29.7603 42.948H31.9903L32.3 41.9011H34.66V42.1799H32.5168L32.2009 43.2329Z" fill="#003242"/>
<path d="M32.2009 44.5648H29.5497L29.2338 43.5117H27.0906V43.2268H29.4506L29.7603 44.2798H31.9903L32.3 43.2268H34.66V43.5117H32.5168L32.2009 44.5648Z" fill="#003242"/>
<path d="M32.2009 45.8904H29.5497L29.2338 44.8435H27.0906V44.5586H29.4506L29.7603 45.6116H31.9903L32.3 44.5586H34.66V44.8435H32.5168L32.2009 45.8904Z" fill="#003242"/>
<path d="M32.2009 47.2223H29.5497L29.2338 46.1692H27.0906V45.8843H29.4506L29.7603 46.9373H31.9903L32.3 45.8843H34.66V46.1692H32.5168L32.2009 47.2223Z" fill="#003242"/>
<path d="M32.2009 48.5538H29.5497L29.2338 47.5008H27.0906V47.2158H29.4506L29.7603 48.2689H31.9903L32.3 47.2158H34.66V47.5008H32.5168L32.2009 48.5538Z" fill="#003242"/>
<path d="M32.2009 49.8794H29.5497L29.2338 48.8264H27.0906V48.5476H29.4506L29.7603 49.6006H31.9903L32.3 48.5476H34.66V48.8264H32.5168L32.2009 49.8794Z" fill="#003242"/>
<path d="M32.2009 51.2113H29.5497L29.2338 50.1582H27.0906V49.8733H29.4506L29.7603 50.9263H31.9903L32.3 49.8733H34.66V50.1582H32.5168L32.2009 51.2113Z" fill="#003242"/>
<path d="M32.2009 52.5431H29.5497L29.2338 51.49H27.0906V51.2051H29.4506L29.7603 52.2581H31.9903L32.3 51.2051H34.66V51.49H32.5168L32.2009 52.5431Z" fill="#003242"/>
<path d="M32.2009 53.8686H29.5497L29.2338 52.8156H27.0906V52.5369H29.4506L29.7603 53.5899H31.9903L32.3 52.5369H34.66V52.8156H32.5168L32.2009 53.8686Z" fill="#003242"/>
<path d="M32.2009 55.2005H29.5497L29.2338 54.1475H27.0906V53.8625H29.4506L29.7603 54.9156H31.9903L32.3 53.8625H34.66V54.1475H32.5168L32.2009 55.2005Z" fill="#003242"/>
<path d="M32.2009 56.5323H29.5497L29.2338 55.4793H27.0906V55.1943H29.4506L29.7603 56.2474H31.9903L32.3 55.1943H34.66V55.4793H32.5168L32.2009 56.5323Z" fill="#003242"/>
<path d="M32.2009 57.8577H29.5497L29.2338 56.8047H27.0906V56.5198H29.4506L29.7603 57.5728H31.9903L32.3 56.5198H34.66V56.8047H32.5168L32.2009 57.8577Z" fill="#003242"/>
<path d="M32.2009 59.1895H29.5497L29.2338 58.1365H27.0906V57.8516H29.4506L29.7603 58.9046H31.9903L32.3 57.8516H34.66V58.1365H32.5168L32.2009 59.1895Z" fill="#003242"/>
<path d="M32.2009 60.5151H29.5497L29.2338 59.4621H27.0906V59.1833H29.4506L29.7603 60.2364H31.9903L32.3 59.1833H34.66V59.4621H32.5168L32.2009 60.5151Z" fill="#003242"/>
<path d="M32.2009 61.847H29.5497L29.2338 60.794H27.0906V60.509H29.4506L29.7603 61.5621H31.9903L32.3 60.509H34.66V60.794H32.5168L32.2009 61.847Z" fill="#003242"/>
<path d="M32.2009 63.1788H29.5497L29.2338 62.1258H27.0906V61.8408H29.4506L29.7603 62.8939H31.9903L32.3 61.8408H34.66V62.1258H32.5168L32.2009 63.1788Z" fill="#003242"/>
<path d="M32.2009 64.5044H29.5497L29.2338 63.4514H27.0906V63.1726H29.4506L29.7603 64.2194H31.9903L32.3 63.1726H34.66V63.4514H32.5168L32.2009 64.5044Z" fill="#003242"/>
<g style="mix-blend-mode:multiply" opacity="0.5">
<path d="M34.6539 25.5233V24.8976H34.66V24.6189H34.6539V23.572H34.66V23.2871H32.3L32.2628 23.4296H29.4878L29.4506 23.2871H27.0906V23.4296V25.5233H34.6539Z" fill="#003242"/>
</g>
<g style="mix-blend-mode:multiply" opacity="0.5">
<path d="M34.6539 62.2866H27.0906V64.3617H29.5064L29.5497 64.5042H32.2009L32.2443 64.3617H34.6539V63.4512H34.66V63.1724H34.6539V62.2866Z" fill="#003242"/>
</g>
<g style="mix-blend-mode:multiply" opacity="0.5">
<path d="M1 25.5233V24.8976V24.6189V23.572V23.2871H3.35385L3.39721 23.4296H6.16608L6.20944 23.2871H8.56328V23.4296V25.5233H1Z" fill="#003242"/>
</g>
<g style="mix-blend-mode:multiply" opacity="0.5">
<path d="M1 62.2866H8.56328V64.3617H6.14749L6.10413 64.5042H3.45296L3.4096 64.3617H1V63.4512V63.1724V62.2866Z" fill="#003242"/>
</g>
<g style="mix-blend-mode:multiply" opacity="0.5">
<path d="M33.2539 36.1466V62.5902C31.2242 63.2066 29.1546 63.6827 27.0596 64.0149V34.7281H31.8106C31.9992 34.724 32.1867 34.7577 32.3621 34.8272C32.5374 34.8967 32.6971 35.0006 32.8316 35.1328C32.9661 35.265 33.0728 35.4229 33.1453 35.597C33.2179 35.7711 33.2548 35.958 33.2539 36.1466Z" fill="#004358"/>
</g>
<path d="M30.8753 60.2054C22.3728 62.8196 13.2811 62.8196 4.77856 60.2054V57.9321H30.8753V60.2054Z" fill="#668E9B"/>
<path d="M30.8753 41.6719H4.77856V57.932H30.8753V41.6719Z" fill="black"/>
<path d="M30.8753 33.7681V41.6721H21.5838V33.7681C21.582 33.3978 21.7259 33.0416 21.9842 32.7763C22.2426 32.511 22.5948 32.3577 22.9651 32.3496H29.4568C29.833 32.3496 30.1938 32.4991 30.4598 32.7651C30.7258 33.0311 30.8753 33.3919 30.8753 33.7681Z" fill="black"/>
<path d="M30.8753 60.2054C22.3728 62.8196 13.2811 62.8196 4.77856 60.2054V57.9321H30.8753V60.2054Z" fill="#668E9B"/>
<path d="M17.83 61.5991C13.7989 61.5991 9.78752 61.0362 5.91211 59.9266V59.6355H29.7417V59.9266C25.8683 61.0358 21.8591 61.5987 17.83 61.5991Z" fill="#75A4B3"/>
<path d="M6.17849 58.6196H29.5125C29.8131 58.6059 30.1098 58.692 30.3564 58.8646C30.6029 59.0371 30.7853 59.2864 30.8753 59.5736V57.9197H4.77856V59.6789C4.85297 59.3674 5.03327 59.0915 5.28862 58.8983C5.54398 58.7051 5.85854 58.6066 6.17849 58.6196Z" fill="#567782"/>
<path d="M30.8753 41.6719H4.77856V57.932H30.8753V41.6719Z" fill="black"/>
<path d="M20.5989 44.0383H15.0612L14.0329 42.657H4.77856V42.3721H14.1754L15.2036 43.7534H20.4502L21.4785 42.3721H30.8753V42.657H21.621L20.5989 44.0383Z" fill="#FFAB1A"/>
<path d="M28.7259 42.5144H28.4409V57.9321H28.7259V42.5144Z" fill="#FFAB1A"/>
<path d="M7.21915 42.5144H6.9342V57.9321H7.21915V42.5144Z" fill="#FFAB1A"/>
<path d="M26.341 44.7134H9.31899C8.69294 44.7134 8.18542 45.2209 8.18542 45.8469V56.7985C8.18542 57.4246 8.69294 57.9321 9.31899 57.9321H26.341C26.9671 57.9321 27.4746 57.4246 27.4746 56.7985V45.8469C27.4746 45.2209 26.9671 44.7134 26.341 44.7134Z" fill="#636363"/>
<path d="M17.9724 44.7134H17.6875V57.9321H17.9724V44.7134Z" fill="black"/>
<path d="M12.3108 55.5906H9.61007C9.55098 55.5898 9.49232 55.6007 9.43749 55.6228C9.38266 55.6448 9.33277 55.6775 9.29069 55.719C9.24862 55.7605 9.21521 55.81 9.19241 55.8645C9.16961 55.919 9.15787 55.9775 9.15788 56.0366C9.15705 56.0962 9.16817 56.1554 9.1906 56.2106C9.21303 56.2659 9.24631 56.3161 9.28847 56.3582C9.33062 56.4004 9.3808 56.4336 9.43604 56.4561C9.49128 56.4785 9.55045 56.4896 9.61007 56.4888H12.3108C12.4307 56.4888 12.5457 56.4412 12.6305 56.3564C12.7153 56.2716 12.763 56.1565 12.763 56.0366C12.7614 55.9178 12.713 55.8043 12.6284 55.7209C12.5437 55.6374 12.4297 55.5906 12.3108 55.5906Z" fill="#004358"/>
<path d="M16.4796 55.5906H13.7788C13.66 55.5906 13.5459 55.6374 13.4613 55.7208C13.3766 55.8043 13.3283 55.9177 13.3267 56.0366C13.3267 56.1565 13.3743 56.2715 13.4591 56.3563C13.5439 56.4411 13.6589 56.4888 13.7788 56.4888H16.4796C16.5995 56.4888 16.7145 56.4411 16.7993 56.3563C16.8841 56.2715 16.9318 56.1565 16.9318 56.0366C16.9301 55.9177 16.8818 55.8043 16.7972 55.7208C16.7125 55.6374 16.5984 55.5906 16.4796 55.5906Z" fill="#004358"/>
<path d="M12.3108 53.9368H9.61007C9.55098 53.936 9.49232 53.9469 9.43749 53.969C9.38266 53.991 9.33277 54.0237 9.29069 54.0652C9.24862 54.1067 9.21521 54.1562 9.19241 54.2107C9.16961 54.2652 9.15787 54.3237 9.15788 54.3828C9.15705 54.4424 9.16817 54.5016 9.1906 54.5568C9.21303 54.6121 9.24631 54.6622 9.28847 54.7044C9.33062 54.7466 9.3808 54.7798 9.43604 54.8023C9.49128 54.8247 9.55045 54.8358 9.61007 54.835H12.3108C12.4307 54.835 12.5457 54.7873 12.6305 54.7025C12.7153 54.6177 12.763 54.5027 12.763 54.3828C12.7614 54.264 12.713 54.1505 12.6284 54.0671C12.5437 53.9836 12.4297 53.9368 12.3108 53.9368Z" fill="#004358"/>
<path d="M16.4796 53.9368H13.7788C13.66 53.9368 13.5459 53.9835 13.4613 54.067C13.3766 54.1505 13.3283 54.2639 13.3267 54.3828C13.3267 54.5027 13.3743 54.6177 13.4591 54.7025C13.5439 54.7873 13.6589 54.8349 13.7788 54.8349H16.4796C16.5995 54.8349 16.7145 54.7873 16.7993 54.7025C16.8841 54.6177 16.9318 54.5027 16.9318 54.3828C16.9301 54.2639 16.8818 54.1505 16.7972 54.067C16.7125 53.9835 16.5984 53.9368 16.4796 53.9368Z" fill="#004358"/>
<path d="M12.3109 52.283H9.61015C9.55106 52.2822 9.4924 52.2931 9.43757 52.3152C9.38274 52.3372 9.33284 52.3699 9.29077 52.4114C9.2487 52.4529 9.21529 52.5024 9.19249 52.5569C9.16969 52.6114 9.15795 52.6699 9.15796 52.729C9.15796 52.8489 9.2056 52.9639 9.2904 53.0487C9.3752 53.1335 9.49022 53.1812 9.61015 53.1812H12.3109C12.4308 53.1812 12.5458 53.1335 12.6306 53.0487C12.7154 52.9639 12.7631 52.8489 12.7631 52.729C12.7614 52.6101 12.7131 52.4967 12.6284 52.4132C12.5438 52.3298 12.4297 52.283 12.3109 52.283Z" fill="#004358"/>
<path d="M16.4796 52.283H13.7788C13.66 52.2829 13.5459 52.3297 13.4613 52.4132C13.3766 52.4967 13.3283 52.6101 13.3267 52.729C13.3267 52.8489 13.3743 52.9639 13.4591 53.0487C13.5439 53.1335 13.6589 53.1811 13.7788 53.1811H16.4796C16.5995 53.1811 16.7145 53.1335 16.7993 53.0487C16.8841 52.9639 16.9318 52.8489 16.9318 52.729C16.9301 52.6101 16.8818 52.4967 16.7972 52.4132C16.7125 52.3297 16.5984 52.2829 16.4796 52.283Z" fill="#004358"/>
<path d="M23.343 55.5906H26.0623C26.1806 55.5906 26.294 55.6376 26.3777 55.7212C26.4613 55.8048 26.5083 55.9183 26.5083 56.0366C26.5091 56.0957 26.4982 56.1543 26.4762 56.2091C26.4541 56.264 26.4214 56.3139 26.3799 56.3559C26.3384 56.398 26.289 56.4314 26.2344 56.4542C26.1799 56.477 26.1214 56.4888 26.0623 56.4888H23.343C23.2839 56.4888 23.2254 56.477 23.1709 56.4542C23.1164 56.4314 23.0669 56.398 23.0254 56.3559C22.9839 56.3139 22.9512 56.264 22.9292 56.2091C22.9071 56.1543 22.8962 56.0957 22.897 56.0366C22.897 55.9183 22.944 55.8048 23.0276 55.7212C23.1113 55.6376 23.2247 55.5906 23.343 55.5906Z" fill="#004358"/>
<path d="M19.1741 55.5906H21.8748C21.9937 55.5906 22.1078 55.6374 22.1924 55.7208C22.277 55.8043 22.3254 55.9177 22.327 56.0366C22.327 56.1565 22.2794 56.2715 22.1946 56.3563C22.1098 56.4411 21.9948 56.4888 21.8748 56.4888H19.1741C19.0542 56.4888 18.9392 56.4411 18.8544 56.3563C18.7696 56.2715 18.7219 56.1565 18.7219 56.0366C18.7236 55.9177 18.7719 55.8043 18.8565 55.7208C18.9412 55.6374 19.0552 55.5906 19.1741 55.5906Z" fill="#004358"/>
<path d="M23.343 53.9368H26.0623C26.1806 53.9368 26.294 53.9838 26.3777 54.0674C26.4613 54.151 26.5083 54.2645 26.5083 54.3828C26.5091 54.4418 26.4982 54.5005 26.4762 54.5553C26.4541 54.6102 26.4214 54.6601 26.3799 54.7021C26.3384 54.7442 26.289 54.7776 26.2344 54.8004C26.1799 54.8232 26.1214 54.8349 26.0623 54.8349H23.343C23.2839 54.8349 23.2254 54.8232 23.1709 54.8004C23.1164 54.7776 23.0669 54.7442 23.0254 54.7021C22.9839 54.6601 22.9512 54.6102 22.9292 54.5553C22.9071 54.5005 22.8962 54.4418 22.897 54.3828C22.897 54.2645 22.944 54.151 23.0276 54.0674C23.1113 53.9838 23.2247 53.9368 23.343 53.9368Z" fill="#004358"/>
<path d="M19.1741 53.9368H21.8748C21.9937 53.9368 22.1078 53.9835 22.1924 54.067C22.277 54.1505 22.3254 54.2639 22.327 54.3828C22.327 54.5027 22.2794 54.6177 22.1946 54.7025C22.1098 54.7873 21.9948 54.8349 21.8748 54.8349H19.1741C19.0542 54.8349 18.9392 54.7873 18.8544 54.7025C18.7696 54.6177 18.7219 54.5027 18.7219 54.3828C18.7236 54.2639 18.7719 54.1505 18.8565 54.067C18.9412 53.9835 19.0552 53.9368 19.1741 53.9368Z" fill="#004358"/>
<path d="M23.343 52.283H26.0623C26.1806 52.283 26.294 52.3299 26.3776 52.4136C26.4613 52.4972 26.5083 52.6107 26.5083 52.729C26.5083 52.8478 26.4615 52.9619 26.378 53.0465C26.2946 53.1312 26.1811 53.1795 26.0623 53.1811H23.343C23.2241 53.1795 23.1107 53.1312 23.0272 53.0465C22.9438 52.9619 22.897 52.8478 22.897 52.729C22.897 52.6107 22.944 52.4972 23.0276 52.4136C23.1112 52.3299 23.2247 52.283 23.343 52.283Z" fill="#004358"/>
<path d="M19.1741 52.283H21.8748C21.9937 52.2829 22.1078 52.3297 22.1924 52.4132C22.277 52.4967 22.3254 52.6101 22.327 52.729C22.327 52.8489 22.2794 52.9639 22.1946 53.0487C22.1098 53.1335 21.9948 53.1811 21.8748 53.1811H19.1741C19.0542 53.1811 18.9392 53.1335 18.8544 53.0487C18.7696 52.9639 18.7219 52.8489 18.7219 52.729C18.7236 52.6101 18.7719 52.4967 18.8565 52.4132C18.9412 52.3297 19.0552 52.2829 19.1741 52.283Z" fill="#004358"/>
<g style="mix-blend-mode:multiply" opacity="0.3">
<path d="M15.3337 49.3281C15.1351 49.1286 14.8907 48.9808 14.6218 48.8977C14.3529 48.8145 14.0678 48.7986 13.7913 48.8512L11.6604 46.7141L10.2605 48.0893L12.3975 50.2201C12.3411 50.5135 12.3613 50.8165 12.4564 51.0998C12.5515 51.3831 12.7181 51.637 12.9402 51.8369C13.1622 52.0368 13.4322 52.176 13.7238 52.2409C14.0155 52.3058 14.319 52.2943 14.6048 52.2075C14.8907 52.1206 15.1493 51.9614 15.3556 51.7452C15.5619 51.529 15.7088 51.2632 15.7821 50.9735C15.8554 50.6839 15.8526 50.3802 15.7741 50.0919C15.6955 49.8036 15.5438 49.5405 15.3337 49.3281Z" fill="#583200"/>
</g>
<path d="M12.7631 47.3955C12.7668 47.7528 12.6642 48.1031 12.4684 48.402C12.2726 48.7009 11.9923 48.9348 11.6633 49.0741C11.3343 49.2134 10.9713 49.2517 10.6204 49.1843C10.2695 49.1168 9.94661 48.9466 9.69266 48.6953C9.4387 48.444 9.26517 48.1228 9.1941 47.7727C9.12303 47.4225 9.15762 47.0591 9.29349 46.7287C9.42936 46.3982 9.66037 46.1156 9.95719 45.9167C10.254 45.7178 10.6032 45.6116 10.9605 45.6116C11.4354 45.6115 11.8911 45.7989 12.2286 46.1329C12.5661 46.467 12.7582 46.9207 12.7631 47.3955Z" fill="#004358"/>
<path d="M11.9453 47.3957C11.9453 47.5919 11.887 47.7838 11.7779 47.9469C11.6687 48.11 11.5135 48.2371 11.3321 48.3119C11.1506 48.3867 10.951 48.406 10.7586 48.3672C10.5662 48.3285 10.3896 48.2335 10.2512 48.0942C10.1129 47.955 10.019 47.7778 9.98143 47.5852C9.94389 47.3925 9.9644 47.1931 10.0404 47.0121C10.1163 46.8311 10.2443 46.6767 10.4081 46.5686C10.5719 46.4604 10.7641 46.4033 10.9604 46.4046C11.0903 46.4046 11.2189 46.4302 11.3388 46.4801C11.4587 46.53 11.5675 46.6031 11.659 46.6952C11.7506 46.7873 11.823 46.8966 11.8721 47.0168C11.9213 47.1371 11.9461 47.2658 11.9453 47.3957Z" fill="#668E9B"/>
<g style="mix-blend-mode:multiply" opacity="0.3">
<path d="M23.9315 51.6881C23.8055 51.6865 23.6851 51.6358 23.596 51.5467C23.5069 51.4576 23.4561 51.3372 23.4545 51.2112V49.6626L20.1901 46.3982C20.1457 46.3539 20.1105 46.3013 20.0864 46.2433C20.0624 46.1854 20.05 46.1233 20.05 46.0606C20.05 45.9979 20.0624 45.9358 20.0864 45.8778C20.1105 45.8199 20.1457 45.7673 20.1901 45.723C20.2338 45.6788 20.2859 45.6437 20.3434 45.6198C20.4008 45.5958 20.4624 45.5835 20.5246 45.5835C20.5868 45.5835 20.6484 45.5958 20.7058 45.6198C20.7632 45.6437 20.8153 45.6788 20.8591 45.723L24.4084 49.2724V51.1864C24.4118 51.2511 24.4019 51.3158 24.3795 51.3765C24.357 51.4373 24.3224 51.4929 24.2778 51.5398C24.2332 51.5868 24.1794 51.6241 24.1199 51.6496C24.0603 51.6751 23.9962 51.6882 23.9315 51.6881Z" fill="#583200"/>
</g>
<path d="M21.0448 49.1919H20.0104V46.0947C20.0104 45.9583 20.0645 45.8276 20.161 45.7312C20.2574 45.6347 20.3881 45.5806 20.5245 45.5806C20.6614 45.5806 20.7929 45.6345 20.8903 45.7308C20.9877 45.827 21.0432 45.9578 21.0448 46.0947V49.1919Z" fill="#004358"/>
<path d="M20.0104 47.346V49.2043H21.0448V47.346C21.0432 47.2709 21.0127 47.1993 20.9596 47.1462C20.9065 47.0931 20.835 47.0626 20.7599 47.061H20.2891C20.2146 47.0627 20.1437 47.0934 20.0916 47.1467C20.0395 47.1999 20.0104 47.2715 20.0104 47.346Z" fill="#668E9B"/>
<path d="M30.2125 44.7134H29.3329V45.593H30.2125V44.7134Z" fill="#004358"/>
<path d="M30.2125 46.4045H29.3329V47.2841H30.2125V46.4045Z" fill="#004358"/>
<path d="M6.3271 44.7134H5.44751V45.593H6.3271V44.7134Z" fill="#004358"/>
<path d="M6.3271 46.4045H5.44751V47.2841H6.3271V46.4045Z" fill="#004358"/>
<path d="M12.6887 32.3496H6.19707C6.01079 32.3496 5.82633 32.3863 5.65423 32.4576C5.48213 32.5289 5.32576 32.6334 5.19404 32.7651C5.06231 32.8968 4.95783 33.0532 4.88654 33.2253C4.81526 33.3974 4.77856 33.5818 4.77856 33.7681V41.6721H14.1072V33.7681C14.1072 33.5818 14.0705 33.3974 13.9993 33.2253C13.928 33.0532 13.8235 32.8968 13.6918 32.7651C13.56 32.6334 13.4037 32.5289 13.2316 32.4576C13.0595 32.3863 12.875 32.3496 12.6887 32.3496Z" fill="black"/>
<path d="M21.5528 35.4529H14.1072V41.672H21.5528V35.4529Z" fill="black"/>
<path d="M20.4873 39.1819H15.1416C14.8726 39.182 14.614 39.0773 14.4209 38.8899C14.2278 38.7026 14.1152 38.4473 14.1072 38.1784C14.1072 37.9035 14.216 37.6397 14.4098 37.4447C14.6036 37.2497 14.8667 37.1394 15.1416 37.1377H20.4873C20.6258 37.1344 20.7635 37.1589 20.8923 37.2098C21.0211 37.2607 21.1383 37.3369 21.2371 37.434C21.3359 37.531 21.4142 37.6469 21.4673 37.7748C21.5205 37.9027 21.5474 38.0399 21.5466 38.1784C21.5385 38.4517 21.4225 38.7107 21.224 38.8987C21.0255 39.0867 20.7607 39.1885 20.4873 39.1819Z" fill="#004358"/>
<path d="M20.4873 27.7223H15.1416C15.0058 27.7223 14.8713 27.6956 14.7458 27.6436C14.6203 27.5916 14.5062 27.5154 14.4102 27.4193C14.3141 27.3233 14.2379 27.2092 14.1859 27.0837C14.1339 26.9582 14.1072 26.8237 14.1072 26.6879C14.1072 26.4129 14.216 26.1492 14.4098 25.9542C14.6036 25.7592 14.8667 25.6489 15.1416 25.6472H20.4873C20.6237 25.6472 20.7587 25.6742 20.8846 25.7266C21.0106 25.7789 21.1249 25.8557 21.221 25.9524C21.3172 26.0491 21.3932 26.1639 21.4448 26.2901C21.4965 26.4163 21.5226 26.5515 21.5218 26.6879C21.5218 26.8237 21.495 26.9582 21.4431 27.0837C21.3911 27.2092 21.3149 27.3233 21.2188 27.4193C21.1228 27.5154 21.0087 27.5916 20.8832 27.6436C20.7577 27.6956 20.6232 27.7223 20.4873 27.7223Z" fill="#004358"/>
<path d="M20.3263 26.688H15.3275V40.4518H20.3263V26.688Z" fill="black"/>
<path d="M19.4715 29.1843C19.4715 28.2743 18.7338 27.5366 17.8238 27.5366C16.9138 27.5366 16.1761 28.2743 16.1761 29.1843V37.9555C16.1761 38.8655 16.9138 39.6032 17.8238 39.6032C18.7338 39.6032 19.4715 38.8655 19.4715 37.9555V29.1843Z" fill="#19334D"/>
<g style="mix-blend-mode:multiply" opacity="0.3">
<path d="M19.6264 28.3976V27.1401H17.9353V28.3976H18.3689V33.4831H17.9353V40.4518H19.6264V33.4831H19.1928V28.3976H19.6264Z" fill="#583200"/>
</g>
<path d="M18.6724 27.1401H16.9813V28.3976H18.6724V27.1401Z" fill="#004358"/>
<path d="M18.2389 28.3975H17.415V34.8891H18.2389V28.3975Z" fill="#F2F2F2"/>
<path d="M18.6724 33.4832H16.9813V39.9996H18.6724V33.4832Z" fill="#004358"/>
<path d="M19.4344 39.9995H16.2257V40.9101H19.4344V39.9995Z" fill="#004358"/>
<g style="mix-blend-mode:multiply" opacity="0.3">
<path d="M5.34839 41.6719L10.0375 44.9364C10.306 45.2027 10.669 45.3519 11.0472 45.3514H20.9024C20.9964 45.3515 21.0884 45.3238 21.1668 45.2718C21.2452 45.2198 21.3064 45.1458 21.3428 45.0591C21.3792 44.9723 21.3892 44.8768 21.3714 44.7844C21.3537 44.692 21.309 44.607 21.2431 44.5399L13.3267 33.7742L5.34839 41.6719Z" fill="#583200"/>
</g>
<path d="M13.5373 34.3317V41.672H5.34839V34.3317C5.35001 34.1072 5.43994 33.8922 5.59874 33.7334C5.75753 33.5746 5.97244 33.4847 6.19701 33.4831H12.6887C12.8159 33.4802 12.9418 33.5101 13.0541 33.5698C13.1986 33.6379 13.3208 33.7457 13.4063 33.8806C13.4919 34.0155 13.5373 34.172 13.5373 34.3317Z" fill="#2CA3E8"/>
<path d="M13.5374 34.3317V34.4123L12.7569 35.1989H12.3109L13.0542 33.5698C13.1987 33.6379 13.3209 33.7457 13.4064 33.8806C13.4919 34.0155 13.5374 34.172 13.5374 34.3317Z" fill="#FFC61A"/>
<path d="M5.34839 34.3317V34.4123L6.12887 35.1989H6.57487L5.83774 33.5698C5.69163 33.6364 5.56779 33.7437 5.48101 33.8788C5.39424 34.0139 5.3482 34.1712 5.34839 34.3317Z" fill="#FFC61A"/>
<path d="M5.91211 41.672V34.9016C5.91369 34.8266 5.94422 34.755 5.99732 34.7019C6.05041 34.6488 6.12197 34.6183 6.19705 34.6167H12.6887C12.7638 34.6183 12.8353 34.6488 12.8884 34.7019C12.9415 34.755 12.9721 34.8266 12.9737 34.9016V41.672H5.91211Z" fill="#FFE11A"/>
<path d="M11.9392 35.3848H6.94653C6.79943 35.3848 6.68018 35.504 6.68018 35.6511V40.6438C6.68018 40.7909 6.79943 40.9101 6.94653 40.9101H11.9392C12.0863 40.9101 12.2055 40.7909 12.2055 40.6438V35.6511C12.2055 35.504 12.0863 35.3848 11.9392 35.3848Z" fill="#5CC3FF"/>
<path d="M26.948 35.3599H29.6488C29.7082 35.3599 29.767 35.3716 29.8218 35.3943C29.8767 35.417 29.9265 35.4503 29.9685 35.4923C30.0105 35.5343 30.0438 35.5841 30.0665 35.639C30.0893 35.6939 30.101 35.7527 30.101 35.8121C30.101 35.8714 30.0893 35.9302 30.0665 35.9851C30.0438 36.04 30.0105 36.0898 29.9685 36.1318C29.9265 36.1738 29.8767 36.2071 29.8218 36.2298C29.767 36.2525 29.7082 36.2642 29.6488 36.2642H26.948C26.8281 36.2642 26.7131 36.2166 26.6283 36.1318C26.5435 36.047 26.4958 35.932 26.4958 35.8121C26.4958 35.6921 26.5435 35.5771 26.6283 35.4923C26.7131 35.4075 26.8281 35.3599 26.948 35.3599Z" fill="#004358"/>
<path d="M22.7731 35.3599H25.4801C25.5989 35.3615 25.7123 35.4099 25.7958 35.4945C25.8793 35.5791 25.9261 35.6932 25.9261 35.8121C25.9261 35.9309 25.8793 36.045 25.7958 36.1296C25.7123 36.2143 25.5989 36.2626 25.4801 36.2642H22.7731C22.6543 36.2626 22.5409 36.2143 22.4574 36.1296C22.3739 36.045 22.3271 35.9309 22.3271 35.8121C22.3271 35.6932 22.3739 35.5791 22.4574 35.4945C22.5409 35.4099 22.6543 35.3615 22.7731 35.3599Z" fill="#004358"/>
<path d="M26.948 33.7061H29.6488C29.7082 33.7061 29.767 33.7178 29.8218 33.7405C29.8767 33.7632 29.9265 33.7965 29.9685 33.8385C30.0105 33.8805 30.0438 33.9303 30.0665 33.9852C30.0893 34.0401 30.101 34.0989 30.101 34.1582C30.0993 34.2771 30.051 34.3905 29.9663 34.474C29.8817 34.5575 29.7676 34.6042 29.6488 34.6042H26.948C26.8292 34.6042 26.7151 34.5575 26.6305 34.474C26.5458 34.3905 26.4975 34.2771 26.4958 34.1582C26.4958 34.0383 26.5435 33.9233 26.6283 33.8385C26.7131 33.7537 26.8281 33.7061 26.948 33.7061Z" fill="#004358"/>
<path d="M22.7731 33.7061H25.4801C25.5989 33.7077 25.7123 33.756 25.7958 33.8407C25.8793 33.9253 25.9261 34.0394 25.9261 34.1582C25.9261 34.2765 25.8791 34.39 25.7954 34.4736C25.7118 34.5572 25.5983 34.6042 25.4801 34.6042H22.7731C22.6549 34.6042 22.5414 34.5572 22.4578 34.4736C22.3741 34.39 22.3271 34.2765 22.3271 34.1582C22.3271 34.0394 22.3739 33.9253 22.4574 33.8407C22.5409 33.756 22.6543 33.7077 22.7731 33.7061Z" fill="#004358"/>
<path d="M12.2613 34.8892H6.63069C6.57241 34.8884 6.51456 34.8992 6.46048 34.9209C6.4064 34.9426 6.35719 34.9749 6.31569 35.0158C6.27419 35.0567 6.24124 35.1055 6.21875 35.1593C6.19626 35.213 6.18469 35.2707 6.18469 35.329V40.9597C6.18469 41.0179 6.19626 41.0756 6.21875 41.1294C6.24124 41.1832 6.27419 41.2319 6.31569 41.2728C6.35719 41.3138 6.4064 41.346 6.46048 41.3678C6.51456 41.3895 6.57241 41.4003 6.63069 41.3994H12.2613C12.378 41.3994 12.4898 41.3531 12.5723 41.2706C12.6548 41.1882 12.7011 41.0763 12.7011 40.9597V35.329C12.7011 35.2712 12.6898 35.2141 12.6677 35.1607C12.6456 35.1073 12.6132 35.0589 12.5723 35.018C12.5315 34.9772 12.483 34.9448 12.4296 34.9227C12.3763 34.9006 12.3191 34.8892 12.2613 34.8892ZM12.4162 35.329V36.8528H10.7375V35.1741H12.2613C12.2832 35.1715 12.3053 35.1735 12.3263 35.1801C12.3473 35.1867 12.3667 35.1977 12.3831 35.2124C12.3995 35.227 12.4126 35.245 12.4215 35.2651C12.4304 35.2852 12.4349 35.307 12.4348 35.329H12.4162ZM8.43324 39.1571V37.1377H10.4526V39.1571H8.43324ZM10.4526 39.4173V41.0959H8.43324V39.4173H10.4526ZM8.1483 39.1385H6.46963V37.1377H8.1483V39.1385ZM8.43324 36.8342V35.1741H10.4526V36.8528L8.43324 36.8342ZM10.7375 37.1192H12.4348V39.1385H10.7375V37.1192ZM6.63069 35.1556H8.1483V36.8342H6.46963V35.329C6.47123 35.2874 6.48891 35.248 6.51894 35.2191C6.54897 35.1902 6.58902 35.1741 6.63069 35.1741V35.1556ZM6.46963 40.9411V39.4173H8.1483V41.0959H6.63069C6.59194 41.0964 6.55432 41.0829 6.52474 41.0578C6.49516 41.0328 6.47559 40.9979 6.46963 40.9597V40.9411ZM12.2613 41.0959H10.7375V39.4173H12.4348V40.9411C12.4378 40.9646 12.4354 40.9884 12.4278 41.0109C12.4201 41.0333 12.4075 41.0537 12.3907 41.0704C12.3739 41.0872 12.3536 41.0999 12.3311 41.1075C12.3087 41.1152 12.2848 41.1175 12.2613 41.1145V41.0959Z" fill="#004358"/>
<path d="M10.7375 35.6016H10.4526V36.8404H8.43323V35.6016H8.14829V36.8404H6.90942V37.1254H8.14829V39.1447H6.90942V39.4173H8.14829V40.6561H8.43323V39.4173H10.4526V40.6561H10.7375V39.4173H11.9764V39.1385H10.7375V37.1378H11.9764V36.8528H10.7375V35.6016ZM10.4526 39.1571H8.43323V37.1378H10.4526V39.1571Z" fill="#005975"/>
<path d="M20.4873 3.07517H15.1416C14.8667 3.07353 14.6036 2.96317 14.4098 2.76819C14.216 2.5732 14.1072 2.30944 14.1072 2.03452C14.1104 1.76232 14.2209 1.50237 14.4145 1.31104C14.6082 1.11972 14.8694 1.01243 15.1416 1.01245H20.4873C20.6232 1.01245 20.7577 1.03921 20.8832 1.09119C21.0087 1.14318 21.1228 1.21938 21.2188 1.31544C21.3149 1.41149 21.3911 1.52553 21.4431 1.65104C21.495 1.77654 21.5218 1.91106 21.5218 2.0469C21.5202 2.32018 21.4105 2.58171 21.2166 2.77437C21.0228 2.96703 20.7606 3.07517 20.4873 3.07517Z" fill="#004358"/>
<path d="M14.6709 6.33332H20.9829L20.3263 1H15.3275L14.6709 6.33332Z" fill="#19334D"/>
<path d="M20.3263 1H15.3275V13.1966H20.3263V1Z" fill="black"/>
<path d="M19.4715 3.49633C19.4715 2.58633 18.7338 1.84863 17.8238 1.84863C16.9138 1.84863 16.1761 2.58633 16.1761 3.49633V10.6941C16.1761 11.6041 16.9138 12.3418 17.8238 12.3418C18.7338 12.3418 19.4715 11.6041 19.4715 10.6941V3.49633Z" fill="#19334D"/>
<path d="M20.3263 13.1965H15.3275V26.6878H20.3263V13.1965Z" fill="#FFE11A"/>
<path d="M19.4715 15.6929C19.4715 14.7829 18.7338 14.0452 17.8238 14.0452C16.9138 14.0452 16.1761 14.7829 16.1761 15.6929V24.1853C16.1761 25.0953 16.9138 25.833 17.8238 25.833C18.7338 25.833 19.4715 25.0953 19.4715 24.1853V15.6929Z" fill="#FFC000"/>
<g style="mix-blend-mode:multiply" opacity="0.3">
<path d="M28.794 37.6084H24.5756C23.5938 37.6084 22.7979 38.4029 22.7979 39.3831C22.7979 40.3632 23.5938 41.1577 24.5756 41.1577H28.794C29.7758 41.1577 30.5717 40.3632 30.5717 39.3831C30.5717 38.4029 29.7758 37.6084 28.794 37.6084Z" fill="#583200"/>
</g>
<path d="M28.3233 37.1377H24.1049C23.1231 37.1377 22.3271 37.9322 22.3271 38.9124C22.3271 39.8925 23.1231 40.6871 24.1049 40.6871H28.3233C29.3051 40.6871 30.101 39.8925 30.101 38.9124C30.101 37.9322 29.3051 37.1377 28.3233 37.1377Z" fill="#FFAB1A"/>
<path d="M28.3232 40.2598H24.0987C23.7405 40.2598 23.397 40.1175 23.1438 39.8643C22.8906 39.6111 22.7483 39.2676 22.7483 38.9094C22.7483 38.5513 22.8906 38.2078 23.1438 37.9546C23.397 37.7014 23.7405 37.5591 24.0987 37.5591H28.3232C28.6813 37.5591 29.0248 37.7014 29.278 37.9546C29.5313 38.2078 29.6736 38.5513 29.6736 38.9094C29.6736 39.2676 29.5313 39.6111 29.278 39.8643C29.0248 40.1175 28.6813 40.2598 28.3232 40.2598ZM24.0987 37.844C23.8293 37.8645 23.5777 37.986 23.3941 38.1841C23.2105 38.3823 23.1085 38.6424 23.1085 38.9125C23.1085 39.1827 23.2105 39.4428 23.3941 39.6409C23.5777 39.8391 23.8293 39.9605 24.0987 39.9811H28.3232C28.5925 39.9605 28.8442 39.8391 29.0278 39.6409C29.2114 39.4428 29.3134 39.1827 29.3134 38.9125C29.3134 38.6424 29.2114 38.3823 29.0278 38.1841C28.8442 37.986 28.5925 37.8645 28.3232 37.844H24.0987Z" fill="#004358"/>
<path d="M25.5853 38.9094C25.5865 38.9758 25.568 39.041 25.532 39.0968C25.496 39.1527 25.4442 39.1965 25.3832 39.2228C25.3222 39.249 25.2547 39.2566 25.1894 39.2444C25.1242 39.2322 25.064 39.2008 25.0166 39.1543C24.9692 39.1077 24.9367 39.0482 24.9233 38.9831C24.9099 38.9181 24.9161 38.8505 24.9412 38.789C24.9664 38.7275 25.0092 38.6749 25.0644 38.6379C25.1195 38.6008 25.1844 38.5811 25.2508 38.5811C25.3385 38.581 25.4226 38.6154 25.4852 38.6768C25.5477 38.7382 25.5837 38.8217 25.5853 38.9094Z" fill="#004358"/>
<path d="M27.5056 38.9094C27.5068 38.9761 27.4881 39.0416 27.4518 39.0975C27.4155 39.1535 27.3634 39.1973 27.302 39.2234C27.2406 39.2495 27.1729 39.2566 27.1074 39.2439C27.042 39.2312 26.9818 39.1992 26.9346 39.1521C26.8875 39.1049 26.8555 39.0448 26.8428 38.9793C26.8301 38.9138 26.8372 38.8461 26.8633 38.7847C26.8894 38.7233 26.9332 38.6712 26.9892 38.6349C27.0451 38.5986 27.1106 38.5799 27.1773 38.5811C27.2639 38.5827 27.3465 38.6178 27.4077 38.679C27.4689 38.7403 27.504 38.8228 27.5056 38.9094Z" fill="#004358"/>
<path d="M19.4344 26.2295H16.2257V27.1401H19.4344V26.2295Z" fill="#004358"/>
<g style="mix-blend-mode:multiply" opacity="0.3">
<path d="M17.1362 2.19551H17.4088V7.0147H17.1362V13.1966H18.1893V7.0147H17.9229V2.19551H18.1893V1H17.1362V2.19551Z" fill="#583200"/>
<path d="M19.4838 2.72202V1H18.4308V2.72202H18.6971V7.0147H18.4308V13.1966H19.4838V7.0147H19.2113V2.72202H19.4838Z" fill="#583200"/>
</g>
<path d="M17.7184 1.45215H16.6654V2.56094H17.7184V1.45215Z" fill="#004358"/>
<path d="M17.4459 2.56104H16.9318V8.27221H17.4459V2.56104Z" fill="#F2F2F2"/>
<g style="mix-blend-mode:multiply" opacity="0.3">
<path d="M19.4343 19.6077V13.1965H18.1273V19.6077H18.4618V24.6189H18.1273V26.3037H19.4343V24.6189H19.0998V19.6077H19.4343Z" fill="#583200"/>
</g>
<path d="M17.7184 7.0332H16.6654V12.763H17.7184V7.0332Z" fill="#004358"/>
<path d="M19.0069 1.45215H17.9539V2.56094H19.0069V1.45215Z" fill="#004358"/>
<path d="M18.7406 2.56104H18.2264V8.27221H18.7406V2.56104Z" fill="#F2F2F2"/>
<path d="M19.0069 7.0332H17.9539V12.763H19.0069V7.0332Z" fill="#004358"/>
<path d="M18.4803 24.9722H17.1733V26.2296H18.4803V24.9722Z" fill="#004358"/>
<path d="M18.146 18.4805H17.5079V24.9721H18.146V18.4805Z" fill="#F2F2F2"/>
<path d="M18.4803 13.3762H17.1733V19.8927H18.4803V13.3762Z" fill="#004358"/>
<path d="M19.4715 12.7383H16.1761V13.6488H19.4715V12.7383Z" fill="#004358"/>
<path d="M19.4839 1H16.1761V1.45219H19.4839V1Z" fill="#004358"/>
<g style="mix-blend-mode:multiply" opacity="0.3">
<path d="M25.1269 32.3496L21.5527 40.2722V33.7681C21.5519 33.5821 21.5879 33.3978 21.6585 33.2257C21.7291 33.0537 21.833 32.8973 21.9642 32.7655C22.0954 32.6337 22.2514 32.5291 22.4232 32.4577C22.5949 32.3863 22.7791 32.3496 22.9651 32.3496H25.1269Z" fill="#583200"/>
</g>
</g>
<defs>
<filter id="filter0_d_30_4375" x="0" y="0" width="41.66" height="71.5044" filterUnits="userSpaceOnUse" color-interpolation-filters="sRGB">
<feFlood flood-opacity="0" result="BackgroundImageFix"/>
<feColorMatrix in="SourceAlpha" type="matrix" values="0 0 0 0 0 0 0 0 0 0 0 0 0 0 0 0 0 0 127 0" result="hardAlpha"/>
<feOffset dx="3" dy="3"/>
<feGaussianBlur stdDeviation="2"/>
<feComposite in2="hardAlpha" operator="out"/>
<feColorMatrix type="matrix" values="0 0 0 0 0 0 0 0 0 0 0 0 0 0 0 0 0 0 0.25 0"/>
<feBlend mode="normal" in2="BackgroundImageFix" result="effect1_dropShadow_30_4375"/>
<feBlend mode="normal" in="SourceGraphic" in2="effect1_dropShadow_30_4375" result="shape"/>
</filter>
</defs>
</svg>
