<svg width="42" height="72" viewBox="0 0 42 72" fill="none" xmlns="http://www.w3.org/2000/svg">
<g filter="url(#filter0_d_30_4858)">
<path d="M23.5845 8.08622C23.4841 6.63024 22.8348 5.26666 21.7678 4.27094C20.7008 3.27523 19.2956 2.7216 17.8362 2.72192C16.3761 2.7215 14.9702 3.27491 13.9022 4.27049C12.8342 5.26608 12.1836 6.6297 12.0817 8.08622L11.5923 15.2097V15.5194C11.5915 15.6132 11.6093 15.7062 11.6449 15.793C11.6804 15.8798 11.7328 15.9587 11.7991 16.025C11.8654 16.0913 11.9443 16.1437 12.0311 16.1792C12.1179 16.2147 12.2109 16.2326 12.3047 16.2318C12.4936 16.2318 12.6748 16.1567 12.8084 16.0231C12.942 15.8895 13.017 15.7083 13.017 15.5194V15.2097H13.7975V15.5194C13.7967 15.6132 13.8145 15.7062 13.85 15.793C13.8855 15.8798 13.938 15.9587 14.0043 16.025C14.0706 16.0913 14.1495 16.1437 14.2363 16.1792C14.3231 16.2147 14.4161 16.2326 14.5098 16.2318C14.6036 16.2326 14.6966 16.2147 14.7834 16.1792C14.8702 16.1437 14.9491 16.0913 15.0154 16.025C15.0817 15.9587 15.1341 15.8798 15.1697 15.793C15.2052 15.7062 15.223 15.6132 15.2222 15.5194V15.2097H16.0089V15.5194C16.008 15.6132 16.0259 15.7062 16.0614 15.793C16.0969 15.8798 16.1494 15.9587 16.2157 16.025C16.282 16.0913 16.3608 16.1437 16.4476 16.1792C16.5344 16.2147 16.6274 16.2326 16.7212 16.2318C16.815 16.2326 16.908 16.2147 16.9948 16.1792C17.0816 16.1437 17.1605 16.0913 17.2268 16.025C17.2931 15.9587 17.3455 15.8798 17.381 15.793C17.4165 15.7062 17.4344 15.6132 17.4336 15.5194V15.2097H18.2202V15.5194C18.2194 15.6132 18.2373 15.7062 18.2728 15.793C18.3083 15.8798 18.3607 15.9587 18.4271 16.025C18.4934 16.0913 18.5722 16.1437 18.659 16.1792C18.7458 16.2147 18.8388 16.2326 18.9326 16.2318C19.0264 16.2326 19.1194 16.2147 19.2062 16.1792C19.293 16.1437 19.3718 16.0913 19.4381 16.025C19.5045 15.9587 19.5569 15.8798 19.5924 15.793C19.6279 15.7062 19.6458 15.6132 19.6449 15.5194V15.2097H20.4316V15.5194C20.4316 15.7083 20.5067 15.8895 20.6403 16.0231C20.7739 16.1567 20.955 16.2318 21.144 16.2318C21.3329 16.2318 21.5141 16.1567 21.6477 16.0231C21.7813 15.8895 21.8563 15.7083 21.8563 15.5194V15.2097H22.6368V15.5194C22.6368 15.7083 22.7119 15.8895 22.8455 16.0231C22.979 16.1567 23.1602 16.2318 23.3492 16.2318C23.5381 16.2318 23.7193 16.1567 23.8529 16.0231C23.9865 15.8895 24.0615 15.7083 24.0615 15.5194V15.2097L23.5845 8.08622Z" fill="#2A6380"/>
<path d="M12.6887 15.3955V15.2097C12.6887 15.1674 12.697 15.1255 12.7132 15.0864C12.7294 15.0474 12.7531 15.0119 12.783 14.9819C12.8129 14.952 12.8485 14.9283 12.8875 14.9121C12.9266 14.8959 12.9685 14.8876 13.0108 14.8876H13.7975C13.8398 14.8876 13.8817 14.8959 13.9207 14.9121C13.9598 14.9283 13.9953 14.952 14.0252 14.9819C14.0552 15.0119 14.0789 15.0474 14.0951 15.0864C14.1113 15.1255 14.1196 15.1674 14.1196 15.2097V15.3955H14.9125V15.2097C14.9125 15.1674 14.9208 15.1255 14.937 15.0864C14.9532 15.0474 14.9769 15.0119 15.0068 14.9819C15.0367 14.952 15.0722 14.9283 15.1113 14.9121C15.1504 14.8959 15.1923 14.8876 15.2346 14.8876H16.0212C16.0635 14.8876 16.1054 14.8959 16.1445 14.9121C16.1836 14.9283 16.2191 14.952 16.249 14.9819C16.2789 15.0119 16.3026 15.0474 16.3188 15.0864C16.335 15.1255 16.3433 15.1674 16.3433 15.2097V15.3955H17.13V15.2097C17.1292 15.1677 17.1368 15.126 17.1523 15.0869C17.1678 15.0479 17.1909 15.0123 17.2203 14.9823C17.2498 14.9523 17.2849 14.9285 17.3236 14.9122C17.3623 14.896 17.4039 14.8876 17.4459 14.8876H18.2326C18.2749 14.8876 18.3168 14.8959 18.3559 14.9121C18.395 14.9283 18.4305 14.952 18.4604 14.9819C18.4903 15.0119 18.514 15.0474 18.5302 15.0864C18.5464 15.1255 18.5547 15.1674 18.5547 15.2097V15.3955H19.3414V15.2097C19.3406 15.1677 19.3481 15.126 19.3637 15.0869C19.3792 15.0479 19.4023 15.0123 19.4317 14.9823C19.4611 14.9523 19.4962 14.9285 19.535 14.9122C19.5737 14.896 19.6153 14.8876 19.6573 14.8876H20.444C20.4863 14.8876 20.5282 14.8959 20.5673 14.9121C20.6063 14.9283 20.6419 14.952 20.6718 14.9819C20.7017 15.0119 20.7254 15.0474 20.7416 15.0864C20.7578 15.1255 20.7661 15.1674 20.7661 15.2097V15.3955H21.5404V15.2097C21.5396 15.1677 21.5471 15.126 21.5626 15.0869C21.5782 15.0479 21.6013 15.0123 21.6307 14.9823C21.6601 14.9523 21.6952 14.9285 21.734 14.9122C21.7727 14.896 21.8143 14.8876 21.8563 14.8876H22.643C22.6853 14.8876 22.7272 14.8959 22.7663 14.9121C22.8053 14.9283 22.8408 14.952 22.8708 14.9819C22.9007 15.0119 22.9244 15.0474 22.9406 15.0864C22.9568 15.1255 22.9651 15.1674 22.9651 15.2097V15.3955H23.7518V15.2593V15.0053L23.2686 8.13578C23.2146 7.34295 22.9875 6.57158 22.6033 5.87596C22.2191 5.18034 21.6872 4.57736 21.0449 4.10946L20.9705 4.05371H14.6833L14.6089 4.10946C13.972 4.57596 13.4442 5.17555 13.0623 5.86657C12.6805 6.55759 12.4536 7.32347 12.3976 8.111L11.9206 14.9867V15.2097V15.3955H12.6887Z" fill="#00212B"/>
<path d="M19.6016 3.26099H16.0522V4.84673H19.6016V3.26099Z" fill="#004358"/>
<path d="M15.2408 7.46075C15.2408 9.51108 13.1904 13.0357 11.9206 14.9869L12.3976 8.11116C12.4536 7.32363 12.6805 6.55775 13.0623 5.86673C13.4442 5.17571 13.972 4.57612 14.6089 4.10962C15.0402 5.17356 15.255 6.31281 15.2408 7.46075Z" fill="#002E3D"/>
<path d="M23.7394 14.9807C22.4634 13.0047 20.4131 9.50489 20.4131 7.46075C20.3949 6.31365 20.6055 5.17442 21.0325 4.10962C21.6695 4.57612 22.1972 5.17571 22.5791 5.86673C22.961 6.55775 23.1878 7.32363 23.2439 8.11116L23.7394 14.9807Z" fill="#002E3D"/>
<path d="M8.56328 23.4297H1V64.368H8.56328V23.4297Z" fill="#004358"/>
<path d="M6.10413 24.6189H3.45296L3.14324 23.572H1V23.2871H3.35385L3.66356 24.3401H5.89352L6.20944 23.2871H8.56328V23.572H6.42004L6.10413 24.6189Z" fill="#003242"/>
<path d="M6.10413 25.9507H3.45296L3.14324 24.8976H1V24.6189H3.35385L3.66356 25.6657H5.89352L6.20944 24.6189H8.56328V24.8976H6.42004L6.10413 25.9507Z" fill="#003242"/>
<path d="M6.10413 27.2826H3.45296L3.14324 26.2295H1V25.9446H3.35385L3.66356 26.9976H5.89352L6.20944 25.9446H8.56328V26.2295H6.42004L6.10413 27.2826Z" fill="#003242"/>
<path d="M6.10413 28.6082H3.45296L3.14324 27.5613H1V27.2764H3.35385L3.66356 28.3294H5.89352L6.20944 27.2764H8.56328V27.5613H6.42004L6.10413 28.6082Z" fill="#003242"/>
<path d="M6.10413 29.94H3.45296L3.14324 28.887H1V28.6021H3.35385L3.66356 29.6551H5.89352L6.20944 28.6021H8.56328V28.887H6.42004L6.10413 29.94Z" fill="#003242"/>
<path d="M6.10413 31.2718H3.45296L3.14324 30.2188H1V29.9338H3.35385L3.66356 30.9869H5.89352L6.20944 29.9338H8.56328V30.2188H6.42004L6.10413 31.2718Z" fill="#003242"/>
<path d="M6.10413 32.5974H3.45296L3.14324 31.5444H1V31.2656H3.35385L3.66356 32.3125H5.89352L6.20944 31.2656H8.56328V31.5444H6.42004L6.10413 32.5974Z" fill="#003242"/>
<path d="M6.10413 33.929H3.45296L3.14324 32.876H1V32.5911H3.35385L3.66356 33.6441H5.89352L6.20944 32.5911H8.56328V32.876H6.42004L6.10413 33.929Z" fill="#003242"/>
<path d="M6.10413 35.2546H3.45296L3.14324 34.2078H1V33.9229H3.35385L3.66356 34.9759H5.89352L6.20944 33.9229H8.56328V34.2078H6.42004L6.10413 35.2546Z" fill="#003242"/>
<path d="M6.10413 36.5864H3.45296L3.14324 35.5334H1V35.2546H3.35385L3.66356 36.3015H5.89352L6.20944 35.2546H8.56328V35.5334H6.42004L6.10413 36.5864Z" fill="#003242"/>
<path d="M6.10413 37.9183H3.45296L3.14324 36.8653H1V36.5803H3.35385L3.66356 37.6334H5.89352L6.20944 36.5803H8.56328V36.8653H6.42004L6.10413 37.9183Z" fill="#003242"/>
<path d="M6.10413 39.2439H3.45296L3.14324 38.197H1V37.9121H3.35385L3.66356 38.9651H5.89352L6.20944 37.9121H8.56328V38.197H6.42004L6.10413 39.2439Z" fill="#003242"/>
<path d="M6.10413 40.5755H3.45296L3.14324 39.5225H1V39.2375H3.35385L3.66356 40.2906H5.89352L6.20944 39.2375H8.56328V39.5225H6.42004L6.10413 40.5755Z" fill="#003242"/>
<path d="M6.10413 41.9073H3.45296L3.14324 40.8543H1V40.5693H3.35385L3.66356 41.6224H5.89352L6.20944 40.5693H8.56328V40.8543H6.42004L6.10413 41.9073Z" fill="#003242"/>
<path d="M6.10413 43.2329H3.45296L3.14324 42.1799H1V41.9011H3.35385L3.66356 42.948H5.89352L6.20944 41.9011H8.56328V42.1799H6.42004L6.10413 43.2329Z" fill="#003242"/>
<path d="M6.10413 44.5648H3.45296L3.14324 43.5117H1V43.2268H3.35385L3.66356 44.2798H5.89352L6.20944 43.2268H8.56328V43.5117H6.42004L6.10413 44.5648Z" fill="#003242"/>
<path d="M6.10413 45.8904H3.45296L3.14324 44.8435H1V44.5586H3.35385L3.66356 45.6116H5.89352L6.20944 44.5586H8.56328V44.8435H6.42004L6.10413 45.8904Z" fill="#003242"/>
<path d="M6.10413 47.2223H3.45296L3.14324 46.1692H1V45.8843H3.35385L3.66356 46.9373H5.89352L6.20944 45.8843H8.56328V46.1692H6.42004L6.10413 47.2223Z" fill="#003242"/>
<path d="M6.10413 48.5538H3.45296L3.14324 47.5008H1V47.2158H3.35385L3.66356 48.2689H5.89352L6.20944 47.2158H8.56328V47.5008H6.42004L6.10413 48.5538Z" fill="#003242"/>
<path d="M6.10413 49.8794H3.45296L3.14324 48.8264H1V48.5476H3.35385L3.66356 49.6006H5.89352L6.20944 48.5476H8.56328V48.8264H6.42004L6.10413 49.8794Z" fill="#003242"/>
<path d="M6.10413 51.2113H3.45296L3.14324 50.1582H1V49.8733H3.35385L3.66356 50.9263H5.89352L6.20944 49.8733H8.56328V50.1582H6.42004L6.10413 51.2113Z" fill="#003242"/>
<path d="M6.10413 52.5431H3.45296L3.14324 51.49H1V51.2051H3.35385L3.66356 52.2581H5.89352L6.20944 51.2051H8.56328V51.49H6.42004L6.10413 52.5431Z" fill="#003242"/>
<path d="M6.10413 53.8686H3.45296L3.14324 52.8156H1V52.5369H3.35385L3.66356 53.5899H5.89352L6.20944 52.5369H8.56328V52.8156H6.42004L6.10413 53.8686Z" fill="#003242"/>
<path d="M6.10413 55.2005H3.45296L3.14324 54.1475H1V53.8625H3.35385L3.66356 54.9156H5.89352L6.20944 53.8625H8.56328V54.1475H6.42004L6.10413 55.2005Z" fill="#003242"/>
<path d="M6.10413 56.5323H3.45296L3.14324 55.4793H1V55.1943H3.35385L3.66356 56.2474H5.89352L6.20944 55.1943H8.56328V55.4793H6.42004L6.10413 56.5323Z" fill="#003242"/>
<path d="M6.10413 57.8577H3.45296L3.14324 56.8047H1V56.5198H3.35385L3.66356 57.5728H5.89352L6.20944 56.5198H8.56328V56.8047H6.42004L6.10413 57.8577Z" fill="#003242"/>
<path d="M6.10413 59.1895H3.45296L3.14324 58.1365H1V57.8516H3.35385L3.66356 58.9046H5.89352L6.20944 57.8516H8.56328V58.1365H6.42004L6.10413 59.1895Z" fill="#003242"/>
<path d="M6.10413 60.5151H3.45296L3.14324 59.4621H1V59.1833H3.35385L3.66356 60.2364H5.89352L6.20944 59.1833H8.56328V59.4621H6.42004L6.10413 60.5151Z" fill="#003242"/>
<path d="M6.10413 61.847H3.45296L3.14324 60.794H1V60.509H3.35385L3.66356 61.5621H5.89352L6.20944 60.509H8.56328V60.794H6.42004L6.10413 61.847Z" fill="#003242"/>
<path d="M6.10413 63.1788H3.45296L3.14324 62.1258H1V61.8408H3.35385L3.66356 62.8939H5.89352L6.20944 61.8408H8.56328V62.1258H6.42004L6.10413 63.1788Z" fill="#003242"/>
<path d="M6.10413 64.5044H3.45296L3.14324 63.4514H1V63.1726H3.35385L3.66356 64.2194H5.89352L6.20944 63.1726H8.56328V63.4514H6.42004L6.10413 64.5044Z" fill="#003242"/>
<path d="M34.6538 23.4297H27.0905V64.368H34.6538V23.4297Z" fill="#004358"/>
<path d="M32.2008 24.6189H29.5497L29.2338 23.572H27.0905V23.2871H29.4506L29.7603 24.3401H31.9902L32.2999 23.2871H34.66V23.572H32.5167L32.2008 24.6189Z" fill="#003242"/>
<path d="M32.2008 25.9507H29.5497L29.2338 24.8976H27.0905V24.6189H29.4506L29.7603 25.6657H31.9902L32.2999 24.6189H34.66V24.8976H32.5167L32.2008 25.9507Z" fill="#003242"/>
<path d="M32.2008 27.2826H29.5497L29.2338 26.2295H27.0905V25.9446H29.4506L29.7603 26.9976H31.9902L32.2999 25.9446H34.66V26.2295H32.5167L32.2008 27.2826Z" fill="#003242"/>
<path d="M32.2008 28.6082H29.5497L29.2338 27.5613H27.0905V27.2764H29.4506L29.7603 28.3294H31.9902L32.2999 27.2764H34.66V27.5613H32.5167L32.2008 28.6082Z" fill="#003242"/>
<path d="M32.2008 29.94H29.5497L29.2338 28.887H27.0905V28.6021H29.4506L29.7603 29.6551H31.9902L32.2999 28.6021H34.66V28.887H32.5167L32.2008 29.94Z" fill="#003242"/>
<path d="M32.2008 31.2718H29.5497L29.2338 30.2188H27.0905V29.9338H29.4506L29.7603 30.9869H31.9902L32.2999 29.9338H34.66V30.2188H32.5167L32.2008 31.2718Z" fill="#003242"/>
<path d="M32.2008 32.5974H29.5497L29.2338 31.5444H27.0905V31.2656H29.4506L29.7603 32.3125H31.9902L32.2999 31.2656H34.66V31.5444H32.5167L32.2008 32.5974Z" fill="#003242"/>
<path d="M32.2008 33.929H29.5497L29.2338 32.876H27.0905V32.5911H29.4506L29.7603 33.6441H31.9902L32.2999 32.5911H34.66V32.876H32.5167L32.2008 33.929Z" fill="#003242"/>
<path d="M32.2008 35.2546H29.5497L29.2338 34.2078H27.0905V33.9229H29.4506L29.7603 34.9759H31.9902L32.2999 33.9229H34.66V34.2078H32.5167L32.2008 35.2546Z" fill="#003242"/>
<path d="M32.2008 36.5864H29.5497L29.2338 35.5334H27.0905V35.2546H29.4506L29.7603 36.3015H31.9902L32.2999 35.2546H34.66V35.5334H32.5167L32.2008 36.5864Z" fill="#003242"/>
<path d="M32.2008 37.9183H29.5497L29.2338 36.8653H27.0905V36.5803H29.4506L29.7603 37.6334H31.9902L32.2999 36.5803H34.66V36.8653H32.5167L32.2008 37.9183Z" fill="#003242"/>
<path d="M32.2008 39.2439H29.5497L29.2338 38.197H27.0905V37.9121H29.4506L29.7603 38.9651H31.9902L32.2999 37.9121H34.66V38.197H32.5167L32.2008 39.2439Z" fill="#003242"/>
<path d="M32.2008 40.5755H29.5497L29.2338 39.5225H27.0905V39.2375H29.4506L29.7603 40.2906H31.9902L32.2999 39.2375H34.66V39.5225H32.5167L32.2008 40.5755Z" fill="#003242"/>
<path d="M32.2008 41.9073H29.5497L29.2338 40.8543H27.0905V40.5693H29.4506L29.7603 41.6224H31.9902L32.2999 40.5693H34.66V40.8543H32.5167L32.2008 41.9073Z" fill="#003242"/>
<path d="M32.2008 43.2329H29.5497L29.2338 42.1799H27.0905V41.9011H29.4506L29.7603 42.948H31.9902L32.2999 41.9011H34.66V42.1799H32.5167L32.2008 43.2329Z" fill="#003242"/>
<path d="M32.2008 44.5648H29.5497L29.2338 43.5117H27.0905V43.2268H29.4506L29.7603 44.2798H31.9902L32.2999 43.2268H34.66V43.5117H32.5167L32.2008 44.5648Z" fill="#003242"/>
<path d="M32.2008 45.8904H29.5497L29.2338 44.8435H27.0905V44.5586H29.4506L29.7603 45.6116H31.9902L32.2999 44.5586H34.66V44.8435H32.5167L32.2008 45.8904Z" fill="#003242"/>
<path d="M32.2008 47.2223H29.5497L29.2338 46.1692H27.0905V45.8843H29.4506L29.7603 46.9373H31.9902L32.2999 45.8843H34.66V46.1692H32.5167L32.2008 47.2223Z" fill="#003242"/>
<path d="M32.2008 48.5538H29.5497L29.2338 47.5008H27.0905V47.2158H29.4506L29.7603 48.2689H31.9902L32.2999 47.2158H34.66V47.5008H32.5167L32.2008 48.5538Z" fill="#003242"/>
<path d="M32.2008 49.8794H29.5497L29.2338 48.8264H27.0905V48.5476H29.4506L29.7603 49.6006H31.9902L32.2999 48.5476H34.66V48.8264H32.5167L32.2008 49.8794Z" fill="#003242"/>
<path d="M32.2008 51.2113H29.5497L29.2338 50.1582H27.0905V49.8733H29.4506L29.7603 50.9263H31.9902L32.2999 49.8733H34.66V50.1582H32.5167L32.2008 51.2113Z" fill="#003242"/>
<path d="M32.2008 52.5431H29.5497L29.2338 51.49H27.0905V51.2051H29.4506L29.7603 52.2581H31.9902L32.2999 51.2051H34.66V51.49H32.5167L32.2008 52.5431Z" fill="#003242"/>
<path d="M32.2008 53.8686H29.5497L29.2338 52.8156H27.0905V52.5369H29.4506L29.7603 53.5899H31.9902L32.2999 52.5369H34.66V52.8156H32.5167L32.2008 53.8686Z" fill="#003242"/>
<path d="M32.2008 55.2005H29.5497L29.2338 54.1475H27.0905V53.8625H29.4506L29.7603 54.9156H31.9902L32.2999 53.8625H34.66V54.1475H32.5167L32.2008 55.2005Z" fill="#003242"/>
<path d="M32.2008 56.5323H29.5497L29.2338 55.4793H27.0905V55.1943H29.4506L29.7603 56.2474H31.9902L32.2999 55.1943H34.66V55.4793H32.5167L32.2008 56.5323Z" fill="#003242"/>
<path d="M32.2008 57.8577H29.5497L29.2338 56.8047H27.0905V56.5198H29.4506L29.7603 57.5728H31.9902L32.2999 56.5198H34.66V56.8047H32.5167L32.2008 57.8577Z" fill="#003242"/>
<path d="M32.2008 59.1895H29.5497L29.2338 58.1365H27.0905V57.8516H29.4506L29.7603 58.9046H31.9902L32.2999 57.8516H34.66V58.1365H32.5167L32.2008 59.1895Z" fill="#003242"/>
<path d="M32.2008 60.5151H29.5497L29.2338 59.4621H27.0905V59.1833H29.4506L29.7603 60.2364H31.9902L32.2999 59.1833H34.66V59.4621H32.5167L32.2008 60.5151Z" fill="#003242"/>
<path d="M32.2008 61.847H29.5497L29.2338 60.794H27.0905V60.509H29.4506L29.7603 61.5621H31.9902L32.2999 60.509H34.66V60.794H32.5167L32.2008 61.847Z" fill="#003242"/>
<path d="M32.2008 63.1788H29.5497L29.2338 62.1258H27.0905V61.8408H29.4506L29.7603 62.8939H31.9902L32.2999 61.8408H34.66V62.1258H32.5167L32.2008 63.1788Z" fill="#003242"/>
<path d="M32.2008 64.5044H29.5497L29.2338 63.4514H27.0905V63.1726H29.4506L29.7603 64.2194H31.9902L32.2999 63.1726H34.66V63.4514H32.5167L32.2008 64.5044Z" fill="#003242"/>
<g style="mix-blend-mode:multiply" opacity="0.5">
<path d="M34.6538 25.5233V24.8976H34.66V24.6189H34.6538V23.572H34.66V23.2871H32.2999L32.2628 23.4296H29.4877L29.4506 23.2871H27.0905V23.4296V25.5233H34.6538Z" fill="#003242"/>
</g>
<g style="mix-blend-mode:multiply" opacity="0.5">
<path d="M34.6538 62.2866H27.0905V64.3617H29.5063L29.5497 64.5042H32.2008L32.2442 64.3617H34.6538V63.4512H34.66V63.1724H34.6538V62.2866Z" fill="#003242"/>
</g>
<g style="mix-blend-mode:multiply" opacity="0.5">
<path d="M1 25.5233V24.8976V24.6189V23.572V23.2871H3.35385L3.39721 23.4296H6.16608L6.20944 23.2871H8.56328V23.4296V25.5233H1Z" fill="#003242"/>
</g>
<g style="mix-blend-mode:multiply" opacity="0.5">
<path d="M1 62.2866H8.56328V64.3617H6.14749L6.10413 64.5042H3.45296L3.4096 64.3617H1V63.4512V63.1724V62.2866Z" fill="#003242"/>
</g>
<g style="mix-blend-mode:multiply" opacity="0.5">
<path d="M33.2539 36.1466V62.5902C31.2242 63.2066 29.1546 63.6827 27.0596 64.0149V34.7281H31.8106C31.9992 34.724 32.1867 34.7577 32.3621 34.8272C32.5374 34.8967 32.6971 35.0006 32.8316 35.1328C32.9661 35.265 33.0728 35.4229 33.1453 35.597C33.2179 35.7711 33.2548 35.958 33.2539 36.1466Z" fill="#004358"/>
</g>
<path d="M30.8752 60.2054C22.3727 62.8196 13.281 62.8196 4.7785 60.2054V57.9321H30.8752V60.2054Z" fill="#668E9B"/>
<path d="M30.8752 41.6719H4.7785V57.932H30.8752V41.6719Z" fill="#0A7992"/>
<path d="M30.8753 33.7681V41.6721H21.5838V33.7681C21.582 33.3978 21.7259 33.0416 21.9842 32.7763C22.2426 32.511 22.5948 32.3577 22.9651 32.3496H29.4568C29.833 32.3496 30.1938 32.4991 30.4598 32.7651C30.7258 33.0311 30.8753 33.3919 30.8753 33.7681Z" fill="#0A7992"/>
<path d="M30.8752 60.2054C22.3727 62.8196 13.281 62.8196 4.7785 60.2054V57.9321H30.8752V60.2054Z" fill="#668E9B"/>
<path d="M17.83 61.5991C13.7989 61.5991 9.78752 61.0362 5.91211 59.9266V59.6355H29.7417V59.9266C25.8683 61.0358 21.8591 61.5987 17.83 61.5991Z" fill="#75A4B3"/>
<path d="M6.17842 58.6196H29.5125C29.8131 58.6059 30.1098 58.692 30.3563 58.8646C30.6028 59.0371 30.7853 59.2864 30.8752 59.5736V57.9197H4.7785V59.6789C4.85291 59.3674 5.03321 59.0915 5.28856 58.8983C5.54392 58.7051 5.85847 58.6066 6.17842 58.6196Z" fill="#567782"/>
<path d="M30.8752 41.6719H4.7785V57.932H30.8752V41.6719Z" fill="#0A7992"/>
<path d="M20.5988 44.0383H15.0611L14.0328 42.657H4.7785V42.3721H14.1753L15.2036 43.7534H20.4502L21.4784 42.3721H30.8752V42.657H21.6209L20.5988 44.0383Z" fill="#FFAB1A"/>
<path d="M28.7259 42.5144H28.4409V57.9321H28.7259V42.5144Z" fill="#FFAB1A"/>
<path d="M7.21908 42.5144H6.93414V57.9321H7.21908V42.5144Z" fill="#FFAB1A"/>
<path d="M26.341 44.7134H9.31899C8.69294 44.7134 8.18542 45.2209 8.18542 45.8469V56.7985C8.18542 57.4246 8.69294 57.9321 9.31899 57.9321H26.341C26.9671 57.9321 27.4746 57.4246 27.4746 56.7985V45.8469C27.4746 45.2209 26.9671 44.7134 26.341 44.7134Z" fill="#00CAF6"/>
<path d="M17.9725 44.7134H17.6876V57.9321H17.9725V44.7134Z" fill="#0A7992"/>
<path d="M12.3109 55.5906H9.61013C9.55104 55.5898 9.49238 55.6007 9.43755 55.6228C9.38272 55.6448 9.33283 55.6775 9.29075 55.719C9.24868 55.7605 9.21527 55.81 9.19247 55.8645C9.16967 55.919 9.15794 55.9775 9.15794 56.0366C9.15711 56.0962 9.16823 56.1554 9.19066 56.2106C9.21309 56.2659 9.24637 56.3161 9.28853 56.3582C9.33068 56.4004 9.38086 56.4336 9.4361 56.4561C9.49134 56.4785 9.55052 56.4896 9.61013 56.4888H12.3109C12.4308 56.4888 12.5458 56.4412 12.6306 56.3564C12.7154 56.2716 12.763 56.1565 12.763 56.0366C12.7614 55.9178 12.7131 55.8043 12.6284 55.7209C12.5438 55.6374 12.4297 55.5906 12.3109 55.5906Z" fill="#004358"/>
<path d="M16.4796 55.5906H13.7789C13.66 55.5906 13.546 55.6374 13.4613 55.7208C13.3767 55.8043 13.3283 55.9177 13.3267 56.0366C13.3267 56.1565 13.3744 56.2715 13.4592 56.3563C13.544 56.4411 13.659 56.4888 13.7789 56.4888H16.4796C16.5996 56.4888 16.7146 56.4411 16.7994 56.3563C16.8842 56.2715 16.9318 56.1565 16.9318 56.0366C16.9302 55.9177 16.8818 55.8043 16.7972 55.7208C16.7126 55.6374 16.5985 55.5906 16.4796 55.5906Z" fill="#004358"/>
<path d="M12.3109 53.9368H9.61013C9.55104 53.936 9.49238 53.9469 9.43755 53.969C9.38272 53.991 9.33283 54.0237 9.29075 54.0652C9.24868 54.1067 9.21527 54.1562 9.19247 54.2107C9.16967 54.2652 9.15794 54.3237 9.15794 54.3828C9.15711 54.4424 9.16823 54.5016 9.19066 54.5568C9.21309 54.6121 9.24637 54.6622 9.28853 54.7044C9.33068 54.7466 9.38086 54.7798 9.4361 54.8023C9.49134 54.8247 9.55052 54.8358 9.61013 54.835H12.3109C12.4308 54.835 12.5458 54.7873 12.6306 54.7025C12.7154 54.6177 12.763 54.5027 12.763 54.3828C12.7614 54.264 12.7131 54.1505 12.6284 54.0671C12.5438 53.9836 12.4297 53.9368 12.3109 53.9368Z" fill="#004358"/>
<path d="M16.4796 53.9368H13.7789C13.66 53.9368 13.546 53.9835 13.4613 54.067C13.3767 54.1505 13.3283 54.2639 13.3267 54.3828C13.3267 54.5027 13.3744 54.6177 13.4592 54.7025C13.544 54.7873 13.659 54.8349 13.7789 54.8349H16.4796C16.5996 54.8349 16.7146 54.7873 16.7994 54.7025C16.8842 54.6177 16.9318 54.5027 16.9318 54.3828C16.9302 54.2639 16.8818 54.1505 16.7972 54.067C16.7126 53.9835 16.5985 53.9368 16.4796 53.9368Z" fill="#004358"/>
<path d="M12.3109 52.283H9.61015C9.55106 52.2822 9.4924 52.2931 9.43757 52.3152C9.38274 52.3372 9.33284 52.3699 9.29077 52.4114C9.2487 52.4529 9.21529 52.5024 9.19249 52.5569C9.16969 52.6114 9.15795 52.6699 9.15796 52.729C9.15796 52.8489 9.2056 52.9639 9.2904 53.0487C9.3752 53.1335 9.49022 53.1812 9.61015 53.1812H12.3109C12.4308 53.1812 12.5458 53.1335 12.6306 53.0487C12.7154 52.9639 12.7631 52.8489 12.7631 52.729C12.7614 52.6101 12.7131 52.4967 12.6284 52.4132C12.5438 52.3298 12.4297 52.283 12.3109 52.283Z" fill="#004358"/>
<path d="M16.4796 52.283H13.7789C13.66 52.2829 13.546 52.3297 13.4613 52.4132C13.3767 52.4967 13.3283 52.6101 13.3267 52.729C13.3267 52.8489 13.3744 52.9639 13.4592 53.0487C13.544 53.1335 13.659 53.1811 13.7789 53.1811H16.4796C16.5996 53.1811 16.7146 53.1335 16.7994 53.0487C16.8842 52.9639 16.9318 52.8489 16.9318 52.729C16.9302 52.6101 16.8818 52.4967 16.7972 52.4132C16.7126 52.3297 16.5985 52.2829 16.4796 52.283Z" fill="#004358"/>
<path d="M23.3429 55.5906H26.0623C26.1805 55.5906 26.294 55.6376 26.3776 55.7212C26.4613 55.8048 26.5083 55.9183 26.5083 56.0366C26.5091 56.0957 26.4981 56.1543 26.4761 56.2091C26.4541 56.264 26.4213 56.3139 26.3798 56.3559C26.3383 56.398 26.2889 56.4314 26.2344 56.4542C26.1799 56.477 26.1214 56.4888 26.0623 56.4888H23.3429C23.2839 56.4888 23.2253 56.477 23.1708 56.4542C23.1163 56.4314 23.0669 56.398 23.0254 56.3559C22.9839 56.3139 22.9512 56.264 22.9291 56.2091C22.9071 56.1543 22.8961 56.0957 22.897 56.0366C22.897 55.9183 22.9439 55.8048 23.0276 55.7212C23.1112 55.6376 23.2247 55.5906 23.3429 55.5906Z" fill="#004358"/>
<path d="M19.1742 55.5906H21.8749C21.9938 55.5906 22.1078 55.6374 22.1925 55.7208C22.2771 55.8043 22.3255 55.9177 22.3271 56.0366C22.3271 56.1565 22.2794 56.2715 22.1946 56.3563C22.1098 56.4411 21.9948 56.4888 21.8749 56.4888H19.1742C19.0542 56.4888 18.9392 56.4411 18.8544 56.3563C18.7696 56.2715 18.722 56.1565 18.722 56.0366C18.7236 55.9177 18.772 55.8043 18.8566 55.7208C18.9412 55.6374 19.0553 55.5906 19.1742 55.5906Z" fill="#004358"/>
<path d="M23.3429 53.9368H26.0623C26.1805 53.9368 26.294 53.9838 26.3776 54.0674C26.4613 54.151 26.5083 54.2645 26.5083 54.3828C26.5091 54.4418 26.4981 54.5005 26.4761 54.5553C26.4541 54.6102 26.4213 54.6601 26.3798 54.7021C26.3383 54.7442 26.2889 54.7776 26.2344 54.8004C26.1799 54.8232 26.1214 54.8349 26.0623 54.8349H23.3429C23.2839 54.8349 23.2253 54.8232 23.1708 54.8004C23.1163 54.7776 23.0669 54.7442 23.0254 54.7021C22.9839 54.6601 22.9512 54.6102 22.9291 54.5553C22.9071 54.5005 22.8961 54.4418 22.897 54.3828C22.897 54.2645 22.9439 54.151 23.0276 54.0674C23.1112 53.9838 23.2247 53.9368 23.3429 53.9368Z" fill="#004358"/>
<path d="M19.1742 53.9368H21.8749C21.9938 53.9368 22.1078 53.9835 22.1925 54.067C22.2771 54.1505 22.3255 54.2639 22.3271 54.3828C22.3271 54.5027 22.2794 54.6177 22.1946 54.7025C22.1098 54.7873 21.9948 54.8349 21.8749 54.8349H19.1742C19.0542 54.8349 18.9392 54.7873 18.8544 54.7025C18.7696 54.6177 18.722 54.5027 18.722 54.3828C18.7236 54.2639 18.772 54.1505 18.8566 54.067C18.9412 53.9835 19.0553 53.9368 19.1742 53.9368Z" fill="#004358"/>
<path d="M23.343 52.283H26.0623C26.1806 52.283 26.294 52.3299 26.3776 52.4136C26.4613 52.4972 26.5083 52.6107 26.5083 52.729C26.5083 52.8478 26.4615 52.9619 26.378 53.0465C26.2946 53.1312 26.1811 53.1795 26.0623 53.1811H23.343C23.2241 53.1795 23.1107 53.1312 23.0272 53.0465C22.9438 52.9619 22.897 52.8478 22.897 52.729C22.897 52.6107 22.944 52.4972 23.0276 52.4136C23.1112 52.3299 23.2247 52.283 23.343 52.283Z" fill="#004358"/>
<path d="M19.1742 52.283H21.8749C21.9938 52.2829 22.1078 52.3297 22.1925 52.4132C22.2771 52.4967 22.3255 52.6101 22.3271 52.729C22.3271 52.8489 22.2794 52.9639 22.1946 53.0487C22.1098 53.1335 21.9948 53.1811 21.8749 53.1811H19.1742C19.0542 53.1811 18.9392 53.1335 18.8544 53.0487C18.7696 52.9639 18.722 52.8489 18.722 52.729C18.7236 52.6101 18.772 52.4967 18.8566 52.4132C18.9412 52.3297 19.0553 52.2829 19.1742 52.283Z" fill="#004358"/>
<g style="mix-blend-mode:multiply" opacity="0.3">
<path d="M15.3337 49.3281C15.1352 49.1286 14.8908 48.9808 14.6219 48.8977C14.353 48.8145 14.0678 48.7986 13.7913 48.8512L11.6605 46.7141L10.2606 48.0893L12.3976 50.2201C12.3411 50.5135 12.3614 50.8165 12.4565 51.0998C12.5515 51.3831 12.7182 51.637 12.9402 51.8369C13.1623 52.0368 13.4322 52.176 13.7239 52.2409C14.0155 52.3058 14.319 52.2943 14.6049 52.2075C14.8908 52.1206 15.1494 51.9614 15.3557 51.7452C15.5619 51.529 15.7088 51.2632 15.7821 50.9735C15.8555 50.6839 15.8527 50.3802 15.7741 50.0919C15.6956 49.8036 15.5439 49.5405 15.3337 49.3281Z" fill="#583200"/>
</g>
<path d="M12.763 47.3955C12.7667 47.7528 12.6641 48.1031 12.4683 48.402C12.2725 48.7009 11.9923 48.9348 11.6633 49.0741C11.3342 49.2134 10.9712 49.2517 10.6203 49.1843C10.2695 49.1168 9.94655 48.9466 9.6926 48.6953C9.43864 48.444 9.26511 48.1228 9.19404 47.7727C9.12297 47.4225 9.15756 47.0591 9.29343 46.7287C9.4293 46.3982 9.66031 46.1156 9.95713 45.9167C10.2539 45.7178 10.6032 45.6116 10.9605 45.6116C11.4353 45.6115 11.891 45.7989 12.2285 46.1329C12.5661 46.467 12.7581 46.9207 12.763 47.3955Z" fill="#004358"/>
<path d="M11.9454 47.3957C11.9454 47.5919 11.8871 47.7838 11.7779 47.9469C11.6687 48.11 11.5136 48.2371 11.3321 48.3119C11.1507 48.3867 10.9511 48.406 10.7586 48.3672C10.5662 48.3285 10.3896 48.2335 10.2513 48.0942C10.1129 47.955 10.019 47.7778 9.98149 47.5852C9.94395 47.3925 9.96446 47.1931 10.0404 47.0121C10.1164 46.8311 10.2444 46.6767 10.4082 46.5686C10.572 46.4604 10.7642 46.4033 10.9605 46.4046C11.0903 46.4046 11.2189 46.4302 11.3388 46.4801C11.4587 46.53 11.5676 46.6031 11.6591 46.6952C11.7506 46.7873 11.8231 46.8966 11.8722 47.0168C11.9213 47.1371 11.9462 47.2658 11.9454 47.3957Z" fill="#668E9B"/>
<g style="mix-blend-mode:multiply" opacity="0.3">
<path d="M23.9314 51.6881C23.8054 51.6865 23.685 51.6358 23.5959 51.5467C23.5068 51.4576 23.456 51.3372 23.4544 51.2112V49.6626L20.19 46.3982C20.1456 46.3539 20.1104 46.3013 20.0864 46.2433C20.0624 46.1854 20.05 46.1233 20.05 46.0606C20.05 45.9979 20.0624 45.9358 20.0864 45.8778C20.1104 45.8199 20.1456 45.7673 20.19 45.723C20.2338 45.6788 20.2859 45.6437 20.3433 45.6198C20.4007 45.5958 20.4623 45.5835 20.5245 45.5835C20.5867 45.5835 20.6483 45.5958 20.7057 45.6198C20.7631 45.6437 20.8152 45.6788 20.859 45.723L24.4084 49.2724V51.1864C24.4117 51.2511 24.4019 51.3158 24.3794 51.3765C24.357 51.4373 24.3224 51.4929 24.2777 51.5398C24.2331 51.5868 24.1794 51.6241 24.1198 51.6496C24.0603 51.6751 23.9962 51.6882 23.9314 51.6881Z" fill="#583200"/>
</g>
<path d="M21.0449 49.1919H20.0104V46.0947C20.0104 45.9583 20.0646 45.8276 20.161 45.7312C20.2574 45.6347 20.3882 45.5806 20.5246 45.5806C20.6615 45.5806 20.7929 45.6345 20.8903 45.7308C20.9877 45.827 21.0433 45.9578 21.0449 46.0947V49.1919Z" fill="#004358"/>
<path d="M20.0104 47.346V49.2043H21.0449V47.346C21.0433 47.2709 21.0128 47.1993 20.9597 47.1462C20.9066 47.0931 20.835 47.0626 20.76 47.061H20.2892C20.2147 47.0627 20.1438 47.0934 20.0917 47.1467C20.0396 47.1999 20.0104 47.2715 20.0104 47.346Z" fill="#668E9B"/>
<path d="M30.2125 44.7134H29.3329V45.593H30.2125V44.7134Z" fill="#004358"/>
<path d="M30.2125 46.4045H29.3329V47.2841H30.2125V46.4045Z" fill="#004358"/>
<path d="M6.3271 44.7134H5.44751V45.593H6.3271V44.7134Z" fill="#004358"/>
<path d="M6.3271 46.4045H5.44751V47.2841H6.3271V46.4045Z" fill="#004358"/>
<path d="M12.6887 32.3496H6.19701C6.01073 32.3496 5.82627 32.3863 5.65417 32.4576C5.48207 32.5289 5.32569 32.6334 5.19397 32.7651C5.06225 32.8968 4.95777 33.0532 4.88648 33.2253C4.81519 33.3974 4.7785 33.5818 4.7785 33.7681V41.6721H14.1072V33.7681C14.1072 33.5818 14.0705 33.3974 13.9992 33.2253C13.9279 33.0532 13.8234 32.8968 13.6917 32.7651C13.56 32.6334 13.4036 32.5289 13.2315 32.4576C13.0594 32.3863 12.875 32.3496 12.6887 32.3496Z" fill="#0A7992"/>
<path d="M21.5528 35.4529H14.1072V41.672H21.5528V35.4529Z" fill="#0A7992"/>
<path d="M20.4873 39.1819H15.1416C14.8726 39.182 14.614 39.0773 14.4209 38.8899C14.2278 38.7026 14.1152 38.4473 14.1072 38.1784C14.1072 37.9035 14.216 37.6397 14.4098 37.4447C14.6036 37.2497 14.8667 37.1394 15.1416 37.1377H20.4873C20.6258 37.1344 20.7635 37.1589 20.8923 37.2098C21.0211 37.2607 21.1383 37.3369 21.2371 37.434C21.3359 37.531 21.4142 37.6469 21.4673 37.7748C21.5205 37.9027 21.5474 38.0399 21.5466 38.1784C21.5385 38.4517 21.4225 38.7107 21.224 38.8987C21.0255 39.0867 20.7607 39.1885 20.4873 39.1819Z" fill="#004358"/>
<path d="M20.4873 27.7223H15.1416C15.0058 27.7223 14.8713 27.6956 14.7458 27.6436C14.6203 27.5916 14.5062 27.5154 14.4102 27.4193C14.3141 27.3233 14.2379 27.2092 14.1859 27.0837C14.1339 26.9582 14.1072 26.8237 14.1072 26.6879C14.1072 26.4129 14.216 26.1492 14.4098 25.9542C14.6036 25.7592 14.8667 25.6489 15.1416 25.6472H20.4873C20.6237 25.6472 20.7587 25.6742 20.8846 25.7266C21.0106 25.7789 21.1249 25.8557 21.221 25.9524C21.3172 26.0491 21.3932 26.1639 21.4448 26.2901C21.4965 26.4163 21.5226 26.5515 21.5218 26.6879C21.5218 26.8237 21.495 26.9582 21.4431 27.0837C21.3911 27.2092 21.3149 27.3233 21.2188 27.4193C21.1228 27.5154 21.0087 27.5916 20.8832 27.6436C20.7577 27.6956 20.6232 27.7223 20.4873 27.7223Z" fill="#004358"/>
<path d="M20.3263 26.688H15.3275V40.4518H20.3263V26.688Z" fill="#0A7992"/>
<path d="M19.4715 29.1843C19.4715 28.2743 18.7338 27.5366 17.8238 27.5366C16.9138 27.5366 16.1761 28.2743 16.1761 29.1843V37.9555C16.1761 38.8655 16.9138 39.6032 17.8238 39.6032C18.7338 39.6032 19.4715 38.8655 19.4715 37.9555V29.1843Z" fill="#19334D"/>
<g style="mix-blend-mode:multiply" opacity="0.3">
<path d="M19.6264 28.3976V27.1401H17.9353V28.3976H18.3689V33.4831H17.9353V40.4518H19.6264V33.4831H19.1928V28.3976H19.6264Z" fill="#583200"/>
</g>
<path d="M18.6724 27.1401H16.9814V28.3976H18.6724V27.1401Z" fill="#004358"/>
<path d="M18.2388 28.3975H17.415V34.8891H18.2388V28.3975Z" fill="#F2F2F2"/>
<path d="M18.6724 33.4832H16.9814V39.9996H18.6724V33.4832Z" fill="#004358"/>
<path d="M19.4343 39.9995H16.2256V40.9101H19.4343V39.9995Z" fill="#004358"/>
<g style="mix-blend-mode:multiply" opacity="0.3">
<path d="M5.34839 41.6719L10.0375 44.9364C10.306 45.2027 10.669 45.3519 11.0472 45.3514H20.9024C20.9964 45.3515 21.0884 45.3238 21.1668 45.2718C21.2452 45.2198 21.3064 45.1458 21.3428 45.0591C21.3792 44.9723 21.3892 44.8768 21.3714 44.7844C21.3537 44.692 21.309 44.607 21.2431 44.5399L13.3267 33.7742L5.34839 41.6719Z" fill="#583200"/>
</g>
<path d="M13.5373 34.3317V41.672H5.34839V34.3317C5.35001 34.1072 5.43994 33.8922 5.59874 33.7334C5.75753 33.5746 5.97244 33.4847 6.19701 33.4831H12.6887C12.8159 33.4802 12.9418 33.5101 13.0541 33.5698C13.1986 33.6379 13.3208 33.7457 13.4063 33.8806C13.4919 34.0155 13.5373 34.172 13.5373 34.3317Z" fill="#2CA3E8"/>
<path d="M13.5373 34.3317V34.4123L12.7568 35.1989H12.3109L13.0542 33.5698C13.1987 33.6379 13.3208 33.7457 13.4063 33.8806C13.4919 34.0155 13.5373 34.172 13.5373 34.3317Z" fill="#FFC61A"/>
<path d="M5.34839 34.3317V34.4123L6.12887 35.1989H6.57487L5.83774 33.5698C5.69163 33.6364 5.56779 33.7437 5.48101 33.8788C5.39424 34.0139 5.3482 34.1712 5.34839 34.3317Z" fill="#FFC61A"/>
<path d="M5.91211 41.672V34.9016C5.91369 34.8266 5.94422 34.755 5.99732 34.7019C6.05041 34.6488 6.12197 34.6183 6.19705 34.6167H12.6887C12.7638 34.6183 12.8353 34.6488 12.8884 34.7019C12.9415 34.755 12.9721 34.8266 12.9737 34.9016V41.672H5.91211Z" fill="#FFE11A"/>
<path d="M11.9392 35.3848H6.94653C6.79943 35.3848 6.68018 35.504 6.68018 35.6511V40.6438C6.68018 40.7909 6.79943 40.9101 6.94653 40.9101H11.9392C12.0863 40.9101 12.2055 40.7909 12.2055 40.6438V35.6511C12.2055 35.504 12.0863 35.3848 11.9392 35.3848Z" fill="#5CC3FF"/>
<path d="M26.948 35.3599H29.6488C29.7082 35.3599 29.767 35.3716 29.8218 35.3943C29.8767 35.417 29.9265 35.4503 29.9685 35.4923C30.0105 35.5343 30.0438 35.5841 30.0665 35.639C30.0893 35.6939 30.101 35.7527 30.101 35.8121C30.101 35.8714 30.0893 35.9302 30.0665 35.9851C30.0438 36.04 30.0105 36.0898 29.9685 36.1318C29.9265 36.1738 29.8767 36.2071 29.8218 36.2298C29.767 36.2525 29.7082 36.2642 29.6488 36.2642H26.948C26.8281 36.2642 26.7131 36.2166 26.6283 36.1318C26.5435 36.047 26.4958 35.932 26.4958 35.8121C26.4958 35.6921 26.5435 35.5771 26.6283 35.4923C26.7131 35.4075 26.8281 35.3599 26.948 35.3599Z" fill="#004358"/>
<path d="M22.7731 35.3599H25.48C25.5989 35.3615 25.7123 35.4099 25.7957 35.4945C25.8792 35.5791 25.926 35.6932 25.926 35.8121C25.926 35.9309 25.8792 36.045 25.7957 36.1296C25.7123 36.2143 25.5989 36.2626 25.48 36.2642H22.7731C22.6542 36.2626 22.5408 36.2143 22.4573 36.1296C22.3739 36.045 22.3271 35.9309 22.3271 35.8121C22.3271 35.6932 22.3739 35.5791 22.4573 35.4945C22.5408 35.4099 22.6542 35.3615 22.7731 35.3599Z" fill="#004358"/>
<path d="M26.948 33.7061H29.6488C29.7082 33.7061 29.767 33.7178 29.8218 33.7405C29.8767 33.7632 29.9265 33.7965 29.9685 33.8385C30.0105 33.8805 30.0438 33.9303 30.0665 33.9852C30.0893 34.0401 30.101 34.0989 30.101 34.1582C30.0993 34.2771 30.051 34.3905 29.9663 34.474C29.8817 34.5575 29.7676 34.6042 29.6488 34.6042H26.948C26.8292 34.6042 26.7151 34.5575 26.6305 34.474C26.5458 34.3905 26.4975 34.2771 26.4958 34.1582C26.4958 34.0383 26.5435 33.9233 26.6283 33.8385C26.7131 33.7537 26.8281 33.7061 26.948 33.7061Z" fill="#004358"/>
<path d="M22.7731 33.7061H25.48C25.5989 33.7077 25.7123 33.756 25.7957 33.8407C25.8792 33.9253 25.926 34.0394 25.926 34.1582C25.926 34.2765 25.879 34.39 25.7954 34.4736C25.7117 34.5572 25.5983 34.6042 25.48 34.6042H22.7731C22.6548 34.6042 22.5414 34.5572 22.4577 34.4736C22.3741 34.39 22.3271 34.2765 22.3271 34.1582C22.3271 34.0394 22.3739 33.9253 22.4573 33.8407C22.5408 33.756 22.6542 33.7077 22.7731 33.7061Z" fill="#004358"/>
<path d="M12.2613 34.8892H6.63062C6.57235 34.8884 6.51449 34.8992 6.46042 34.9209C6.40634 34.9426 6.35713 34.9749 6.31563 35.0158C6.27413 35.0567 6.24118 35.1055 6.21869 35.1593C6.1962 35.213 6.18463 35.2707 6.18463 35.329V40.9597C6.18463 41.0179 6.1962 41.0756 6.21869 41.1294C6.24118 41.1832 6.27413 41.2319 6.31563 41.2728C6.35713 41.3138 6.40634 41.346 6.46042 41.3678C6.51449 41.3895 6.57235 41.4003 6.63062 41.3994H12.2613C12.3779 41.3994 12.4898 41.3531 12.5723 41.2706C12.6547 41.1882 12.7011 41.0763 12.7011 40.9597V35.329C12.7011 35.2712 12.6897 35.2141 12.6676 35.1607C12.6455 35.1073 12.6131 35.0589 12.5723 35.018C12.5314 34.9772 12.4829 34.9448 12.4296 34.9227C12.3762 34.9006 12.319 34.8892 12.2613 34.8892ZM12.4161 35.329V36.8528H10.7375V35.1741H12.2613C12.2831 35.1715 12.3053 35.1735 12.3263 35.1801C12.3472 35.1867 12.3666 35.1977 12.383 35.2124C12.3994 35.227 12.4125 35.245 12.4214 35.2651C12.4303 35.2852 12.4349 35.307 12.4347 35.329H12.4161ZM8.43318 39.1571V37.1377H10.4525V39.1571H8.43318ZM10.4525 39.4173V41.0959H8.43318V39.4173H10.4525ZM8.14824 39.1385H6.46957V37.1377H8.14824V39.1385ZM8.43318 36.8342V35.1741H10.4525V36.8528L8.43318 36.8342ZM10.7375 37.1192H12.4347V39.1385H10.7375V37.1192ZM6.63062 35.1556H8.14824V36.8342H6.46957V35.329C6.47117 35.2874 6.48885 35.248 6.51888 35.2191C6.54891 35.1902 6.58896 35.1741 6.63062 35.1741V35.1556ZM6.46957 40.9411V39.4173H8.14824V41.0959H6.63062C6.59188 41.0964 6.55426 41.0829 6.52468 41.0578C6.49509 41.0328 6.47553 40.9979 6.46957 40.9597V40.9411ZM12.2613 41.0959H10.7375V39.4173H12.4347V40.9411C12.4378 40.9646 12.4354 40.9884 12.4277 41.0109C12.4201 41.0333 12.4074 41.0537 12.3906 41.0704C12.3739 41.0872 12.3535 41.0999 12.3311 41.1075C12.3087 41.1152 12.2848 41.1175 12.2613 41.1145V41.0959Z" fill="#004358"/>
<path d="M10.7375 35.6016H10.4525V36.8404H8.43317V35.6016H8.14823V36.8404H6.90936V37.1254H8.14823V39.1447H6.90936V39.4173H8.14823V40.6561H8.43317V39.4173H10.4525V40.6561H10.7375V39.4173H11.9763V39.1385H10.7375V37.1378H11.9763V36.8528H10.7375V35.6016ZM10.4525 39.1571H8.43317V37.1378H10.4525V39.1571Z" fill="#005975"/>
<path d="M20.4873 3.07517H15.1416C14.8667 3.07353 14.6036 2.96317 14.4098 2.76819C14.216 2.5732 14.1072 2.30944 14.1072 2.03452C14.1104 1.76232 14.2209 1.50237 14.4145 1.31104C14.6082 1.11972 14.8694 1.01243 15.1416 1.01245H20.4873C20.6232 1.01245 20.7577 1.03921 20.8832 1.09119C21.0087 1.14318 21.1228 1.21938 21.2188 1.31544C21.3149 1.41149 21.3911 1.52553 21.4431 1.65104C21.495 1.77654 21.5218 1.91106 21.5218 2.0469C21.5202 2.32018 21.4105 2.58171 21.2166 2.77437C21.0228 2.96703 20.7606 3.07517 20.4873 3.07517Z" fill="#004358"/>
<path d="M14.6709 6.33332H20.9829L20.3263 1H15.3275L14.6709 6.33332Z" fill="#19334D"/>
<path d="M20.3263 1H15.3275V13.1966H20.3263V1Z" fill="#0A7992"/>
<path d="M19.4715 3.49633C19.4715 2.58633 18.7338 1.84863 17.8238 1.84863C16.9138 1.84863 16.1761 2.58633 16.1761 3.49633V10.6941C16.1761 11.6041 16.9138 12.3418 17.8238 12.3418C18.7338 12.3418 19.4715 11.6041 19.4715 10.6941V3.49633Z" fill="#19334D"/>
<path d="M20.3263 13.1965H15.3275V26.6878H20.3263V13.1965Z" fill="#FFE11A"/>
<path d="M19.4715 15.6929C19.4715 14.7829 18.7338 14.0452 17.8238 14.0452C16.9138 14.0452 16.1761 14.7829 16.1761 15.6929V24.1853C16.1761 25.0953 16.9138 25.833 17.8238 25.833C18.7338 25.833 19.4715 25.0953 19.4715 24.1853V15.6929Z" fill="#FFC000"/>
<g style="mix-blend-mode:multiply" opacity="0.3">
<path d="M28.794 37.6084H24.5756C23.5938 37.6084 22.7979 38.4029 22.7979 39.3831C22.7979 40.3632 23.5938 41.1577 24.5756 41.1577H28.794C29.7758 41.1577 30.5717 40.3632 30.5717 39.3831C30.5717 38.4029 29.7758 37.6084 28.794 37.6084Z" fill="#583200"/>
</g>
<path d="M28.3232 37.1377H24.1049C23.123 37.1377 22.3271 37.9322 22.3271 38.9124C22.3271 39.8925 23.123 40.6871 24.1049 40.6871H28.3232C29.305 40.6871 30.101 39.8925 30.101 38.9124C30.101 37.9322 29.305 37.1377 28.3232 37.1377Z" fill="#FFAB1A"/>
<path d="M28.3232 40.2598H24.0987C23.7405 40.2598 23.397 40.1175 23.1438 39.8643C22.8906 39.6111 22.7483 39.2676 22.7483 38.9094C22.7483 38.5513 22.8906 38.2078 23.1438 37.9546C23.397 37.7014 23.7405 37.5591 24.0987 37.5591H28.3232C28.6813 37.5591 29.0248 37.7014 29.278 37.9546C29.5313 38.2078 29.6736 38.5513 29.6736 38.9094C29.6736 39.2676 29.5313 39.6111 29.278 39.8643C29.0248 40.1175 28.6813 40.2598 28.3232 40.2598ZM24.0987 37.844C23.8293 37.8645 23.5777 37.986 23.3941 38.1841C23.2105 38.3823 23.1085 38.6424 23.1085 38.9125C23.1085 39.1827 23.2105 39.4428 23.3941 39.6409C23.5777 39.8391 23.8293 39.9605 24.0987 39.9811H28.3232C28.5925 39.9605 28.8442 39.8391 29.0278 39.6409C29.2114 39.4428 29.3134 39.1827 29.3134 38.9125C29.3134 38.6424 29.2114 38.3823 29.0278 38.1841C28.8442 37.986 28.5925 37.8645 28.3232 37.844H24.0987Z" fill="#004358"/>
<path d="M25.5853 38.9094C25.5865 38.9758 25.568 39.041 25.532 39.0968C25.496 39.1527 25.4442 39.1965 25.3832 39.2228C25.3222 39.249 25.2547 39.2566 25.1894 39.2444C25.1242 39.2322 25.064 39.2008 25.0166 39.1543C24.9692 39.1077 24.9367 39.0482 24.9233 38.9831C24.9099 38.9181 24.9161 38.8505 24.9412 38.789C24.9664 38.7275 25.0092 38.6749 25.0644 38.6379C25.1195 38.6008 25.1844 38.5811 25.2508 38.5811C25.3385 38.581 25.4226 38.6154 25.4852 38.6768C25.5477 38.7382 25.5837 38.8217 25.5853 38.9094Z" fill="#004358"/>
<path d="M27.5055 38.9094C27.5068 38.9761 27.488 39.0416 27.4518 39.0975C27.4155 39.1535 27.3633 39.1973 27.3019 39.2234C27.2406 39.2495 27.1728 39.2566 27.1074 39.2439C27.0419 39.2312 26.9817 39.1992 26.9346 39.1521C26.8874 39.1049 26.8554 39.0448 26.8427 38.9793C26.83 38.9138 26.8372 38.8461 26.8633 38.7847C26.8893 38.7233 26.9332 38.6712 26.9891 38.6349C27.0451 38.5986 27.1106 38.5799 27.1772 38.5811C27.2638 38.5827 27.3464 38.6178 27.4076 38.679C27.4689 38.7403 27.504 38.8228 27.5055 38.9094Z" fill="#004358"/>
<path d="M19.4343 26.2295H16.2256V27.1401H19.4343V26.2295Z" fill="#004358"/>
<g style="mix-blend-mode:multiply" opacity="0.3">
<path d="M17.1362 2.19551H17.4088V7.0147H17.1362V13.1966H18.1893V7.0147H17.9229V2.19551H18.1893V1H17.1362V2.19551Z" fill="#583200"/>
<path d="M19.4839 2.72202V1H18.4308V2.72202H18.6972V7.0147H18.4308V13.1966H19.4839V7.0147H19.2113V2.72202H19.4839Z" fill="#583200"/>
</g>
<path d="M17.7185 1.45215H16.6655V2.56094H17.7185V1.45215Z" fill="#004358"/>
<path d="M17.4459 2.56104H16.9318V8.27221H17.4459V2.56104Z" fill="#F2F2F2"/>
<g style="mix-blend-mode:multiply" opacity="0.3">
<path d="M19.4343 19.6077V13.1965H18.1273V19.6077H18.4618V24.6189H18.1273V26.3037H19.4343V24.6189H19.0998V19.6077H19.4343Z" fill="#583200"/>
</g>
<path d="M17.7185 7.0332H16.6655V12.763H17.7185V7.0332Z" fill="#004358"/>
<path d="M19.007 1.45215H17.9539V2.56094H19.007V1.45215Z" fill="#004358"/>
<path d="M18.7406 2.56104H18.2264V8.27221H18.7406V2.56104Z" fill="#F2F2F2"/>
<path d="M19.007 7.0332H17.9539V12.763H19.007V7.0332Z" fill="#004358"/>
<path d="M18.4804 24.9722H17.1734V26.2296H18.4804V24.9722Z" fill="#004358"/>
<path d="M18.1459 18.4805H17.5079V24.9721H18.1459V18.4805Z" fill="#F2F2F2"/>
<path d="M18.4804 13.3762H17.1734V19.8927H18.4804V13.3762Z" fill="#004358"/>
<path d="M19.4715 12.7383H16.1761V13.6488H19.4715V12.7383Z" fill="#004358"/>
<path d="M19.4839 1H16.1761V1.45219H19.4839V1Z" fill="#004358"/>
<g style="mix-blend-mode:multiply" opacity="0.3">
<path d="M25.1269 32.3496L21.5527 40.2722V33.7681C21.5519 33.5821 21.5879 33.3978 21.6585 33.2257C21.7291 33.0537 21.833 32.8973 21.9642 32.7655C22.0954 32.6337 22.2514 32.5291 22.4232 32.4577C22.5949 32.3863 22.7791 32.3496 22.9651 32.3496H25.1269Z" fill="#583200"/>
</g>
</g>
<defs>
<filter id="filter0_d_30_4858" x="0" y="0" width="41.66" height="71.5044" filterUnits="userSpaceOnUse" color-interpolation-filters="sRGB">
<feFlood flood-opacity="0" result="BackgroundImageFix"/>
<feColorMatrix in="SourceAlpha" type="matrix" values="0 0 0 0 0 0 0 0 0 0 0 0 0 0 0 0 0 0 127 0" result="hardAlpha"/>
<feOffset dx="3" dy="3"/>
<feGaussianBlur stdDeviation="2"/>
<feComposite in2="hardAlpha" operator="out"/>
<feColorMatrix type="matrix" values="0 0 0 0 0 0 0 0 0 0 0 0 0 0 0 0 0 0 0.25 0"/>
<feBlend mode="normal" in2="BackgroundImageFix" result="effect1_dropShadow_30_4858"/>
<feBlend mode="normal" in="SourceGraphic" in2="effect1_dropShadow_30_4858" result="shape"/>
</filter>
</defs>
</svg>
