<svg width="52" height="86" viewBox="0 0 52 86" fill="none" xmlns="http://www.w3.org/2000/svg">
<path d="M16.484 34.9719C17.1863 39.8379 19.6278 45.2062 22.9106 48.0528C21.4813 48.7668 20.3829 49.7599 19.9622 50.8537L17.8535 56.3273C17.0209 58.4897 17.1459 62.0068 18.1316 64.1429L22.277 73.1256C22.2699 73.1965 22.2664 73.2675 22.2664 73.3395V82.4549C22.2664 84.4047 24.7219 85.9998 27.7196 85.9998C30.7209 85.9998 33.1746 84.4047 33.1746 82.4549V73.3395C33.1746 73.2675 33.1711 73.1965 33.1641 73.1256L33.7713 71.8098L34.648 82.1714C34.7589 83.0383 35.9382 83.6899 37.2725 83.6191C38.605 83.5481 39.6083 82.7807 39.4992 81.9135L36.7374 65.3843L37.3112 64.1429C38.2952 62.0068 38.4202 58.4897 37.5876 56.3273L35.4806 50.8537C35.0581 49.7599 33.9579 48.7668 32.5304 48.0528C35.8132 45.2062 38.2547 39.8379 38.957 34.9719L39.1049 33.6824C39.1436 33.1904 39.1647 32.7076 39.1647 32.2362C39.1647 28.7775 38.0663 26.5498 36.2568 25.1551H38.0047C38.8215 25.1334 40.9637 25.2192 42.4353 25.7672C42.4458 25.9675 42.5708 26.1643 42.8084 26.3153L49.4252 30.544C49.9163 30.8575 50.7067 30.853 51.1907 30.5337C51.6713 30.2145 51.6642 29.7008 51.1749 29.3873L44.7729 25.2993C44.9806 25.1952 45.2781 25.0842 45.6284 25.0705C46.0649 25.0533 46.5085 25.1894 46.9415 25.4709L51.064 28.2752C51.1819 28.3564 51.3791 28.3587 51.504 28.2821C51.6273 28.2043 51.6325 28.0761 51.5128 27.9949L47.3886 25.1883C46.8148 24.8153 46.2092 24.6403 45.5826 24.6666C45.0193 24.6906 44.5722 24.876 44.2923 25.0316C44.0089 24.9274 43.678 24.9023 43.3717 24.9526C41.1679 24.0716 38.0945 24.1391 37.9748 24.1426H34.5177C34.442 24.1105 34.3681 24.0785 34.2924 24.0487C35.3098 23.1758 35.9136 22.0888 35.9136 20.9104C35.9136 18.8532 34.0759 17.7136 31.4073 17.2319V12.1291C31.4073 11.4334 30.9462 10.8053 30.2139 10.3671V6.00448C30.2139 5.1109 29.0961 4.38437 27.7196 4.38437C26.3449 4.38437 25.2271 5.1109 25.2271 6.00448V10.3671C24.4949 10.8053 24.0337 11.4334 24.0337 12.1291V17.3086C21.5799 17.8292 19.92 18.9562 19.92 20.9104C19.92 22.0419 20.478 23.0888 21.4215 23.9423C21.2525 24.0053 21.087 24.0716 20.9251 24.1426H17.8587C17.7408 24.1391 14.6674 24.0716 12.4636 24.9526C12.1556 24.9023 11.8246 24.9274 11.5412 25.0316C11.2631 24.876 10.8143 24.6906 10.251 24.6666C9.62611 24.6403 9.01882 24.8153 8.44674 25.1883L4.32073 27.9949C4.20279 28.0761 4.20806 28.2043 4.33128 28.2821C4.45626 28.3587 4.65165 28.3564 4.77134 28.2752L8.89208 25.4709C9.32686 25.1894 9.77045 25.0533 10.207 25.0705C10.5573 25.0842 10.8547 25.1952 11.0625 25.2993L4.66045 29.3873C4.16934 29.7008 4.1623 30.2145 4.64637 30.5337C5.12692 30.853 5.91726 30.8575 6.40837 30.544L13.0269 26.3153C13.2645 26.1643 13.3877 25.9675 13.3983 25.7672C14.8716 25.2192 17.0138 25.1334 17.8288 25.1551H19.1842C17.3765 26.5498 16.2763 28.7775 16.2763 32.2362C16.2763 32.7076 16.2974 33.1904 16.3379 33.6824L16.484 34.9719Z" fill="#BEBBBC"/>
<path d="M35.264 77.5303L30.7829 50.7167C30.6734 49.8501 30.6634 49.685 29.3302 49.7562C27.9954 49.8264 28.0269 49.9904 28.1348 50.8569L30.4127 77.7882C30.5223 78.6548 31.7027 79.3066 33.0359 79.2354C34.3707 79.1652 35.3735 78.3979 35.264 77.5303Z" fill="#64676C"/>
<path d="M28.9167 50.8221L28.9101 50.778C28.8902 50.6134 28.8654 50.4176 28.8704 50.3079C28.9581 50.2949 29.1137 50.2777 29.3934 50.2627C29.6715 50.2476 29.8304 50.2487 29.9182 50.2519C29.9513 50.3595 29.9778 50.5553 29.9976 50.7199L30.0042 50.7716L34.485 77.5851C34.5578 78.1618 33.8808 78.6804 32.9738 78.7288C32.0683 78.7761 31.2738 78.3393 31.1944 77.753L28.9167 50.8221Z" fill="#7A7B81"/>
<path d="M25.9785 12.3926V1.62031C25.9785 0.726397 24.8611 9.42953e-05 23.4859 9.42953e-05C22.1124 9.42953e-05 20.995 0.726397 20.995 1.62031V12.3926C20.995 13.2854 22.1124 14.0128 23.4859 14.0128C24.8611 14.0128 25.9785 13.2854 25.9785 12.3926Z" fill="#152024"/>
<path d="M28.9396 78.0714V68.9555C28.9396 67.0055 26.4857 65.4105 23.4857 65.4105C20.4856 65.4105 18.0317 67.0055 18.0317 68.9555V78.0714C18.0317 80.0204 20.4856 81.6164 23.4857 81.6164C26.4857 81.6164 28.9396 80.0204 28.9396 78.0714Z" fill="#282523"/>
<path d="M27.1732 78.072V68.9563C27.1732 67.6347 25.5181 66.56 23.4848 66.56C21.453 66.56 19.798 67.6347 19.798 68.9563V78.072C19.798 79.3926 21.453 80.4684 23.4848 80.4684C25.5181 80.4684 27.1732 79.3926 27.1732 78.072Z" fill="#4E5E70"/>
<path d="M27.1733 18.5166V7.7448C27.1733 6.4259 25.5149 5.34792 23.4858 5.34792C21.4584 5.34792 19.7982 6.4259 19.7982 7.7448V18.5166C19.7982 19.8355 21.4584 20.9135 23.4858 20.9135C25.5149 20.9135 27.1733 19.8355 27.1733 18.5166Z" fill="#282523"/>
<path d="M25.9783 18.5166V7.74401C25.9783 6.8508 24.8606 6.12429 23.4864 6.12429C22.1122 6.12429 20.9945 6.8508 20.9945 7.74401V18.5166C20.9945 19.4098 22.1122 20.1363 23.4864 20.1363C24.8606 20.1363 25.9783 19.4098 25.9783 18.5166Z" fill="#4E5E70"/>
<path d="M34.9298 27.8509C34.9298 20.3814 29.8064 18.6544 23.4862 18.6544C17.1661 18.6544 12.0443 20.3814 12.0443 27.8509C12.0443 35.3193 17.1661 45.702 23.4862 45.702C29.8064 45.702 34.9298 35.3193 34.9298 27.8509Z" fill="#282523"/>
<path d="M33.1618 27.8525C33.1618 24.7218 32.2051 22.5041 30.3197 21.2593C28.8146 20.2671 26.6426 19.8047 23.4859 19.8047C18.4602 19.8047 13.8083 20.7798 13.8083 27.8525C13.8083 35.5011 19.0547 44.555 23.4859 44.555C27.9171 44.555 33.1618 35.5011 33.1618 27.8525Z" fill="#4E5E70"/>
<path d="M28.3333 38.6669C30.2505 35.3558 31.3973 31.3132 31.3973 27.8511C31.3973 25.0738 30.5891 23.0716 29.0613 22.0647C27.9112 21.3055 26.1396 20.9525 23.4863 20.9525C19.3181 20.9525 15.5769 21.4799 15.5769 27.8511C15.5769 31.3132 16.722 35.3558 18.6409 38.6669C20.6399 42.1194 22.6749 43.406 23.4863 43.406C24.2993 43.406 26.3343 42.1194 28.3333 38.6669Z" fill="#282523"/>
<path d="M17.3419 27.8518C17.3419 22.1018 20.3265 22.1019 23.4853 22.1019C26.3069 22.1019 27.2996 22.5413 27.8015 22.8717C28.9621 23.6374 29.6287 25.4528 29.6287 27.8518C29.6287 31.1822 28.5251 35.0745 26.6789 38.2628C25.3727 40.5157 24.1456 41.6426 23.4853 42.0882C22.8251 41.6426 21.598 40.5157 20.2917 38.2628C18.4455 35.0734 17.3419 31.1822 17.3419 27.8518Z" fill="black"/>
<path d="M17.3414 27.853C17.3414 22.1018 20.3266 22.1018 23.484 22.1018C26.3066 22.1018 27.2995 22.5422 27.8016 22.8718C28.9619 23.6376 29.6281 25.4532 29.6281 27.853C29.6281 31.1834 28.5247 35.0745 26.6787 38.2633C25.3722 40.5163 24.1453 41.6433 23.484 42.088C22.8242 41.6433 21.5973 40.5163 20.2908 38.2633C18.4448 35.0745 17.3414 31.1834 17.3414 27.853Z" fill="#282523"/>
<path d="M33.0746 59.7587C34.0598 57.6238 34.1854 54.1062 33.3523 51.9434L31.2448 46.4703C30.4117 44.3075 26.9239 42.538 23.494 42.538H23.4758C20.0459 42.538 16.5581 44.3075 15.7251 46.4703L13.6175 51.9434C12.7844 54.1062 12.91 57.6238 13.8969 59.7587L18.6409 70.0387C19.6244 72.1747 21.8047 73.9217 23.4857 73.9217C25.1635 73.9217 27.3454 72.1747 28.3306 70.0387L33.0746 59.7587Z" fill="#2F373F"/>
<path d="M14.8342 55.3929C14.8342 54.1836 15.0116 53.0567 15.333 52.2231L17.4388 46.75C18.0785 45.0889 20.843 43.6872 23.4762 43.6872C26.1267 43.6872 28.8912 45.0889 29.5309 46.75L31.6383 52.2231C31.9598 53.0577 32.1371 54.1836 32.1371 55.3929C32.1371 56.9191 31.8616 58.3898 31.3818 59.4293L26.6381 69.7096C25.7483 71.6372 24.0161 72.7312 23.473 72.7744C22.9552 72.7312 21.2231 71.6372 20.3316 69.7096L15.5879 59.4293C15.1097 58.3898 14.8342 56.9191 14.8342 55.3929Z" fill="black"/>
<path d="M14.8337 55.3923C14.8337 54.1832 15.0109 53.0572 15.3324 52.2223L17.4387 46.7493C18.0784 45.0892 20.8425 43.687 23.4754 43.687C26.1262 43.687 28.8903 45.0892 29.5301 46.7493L31.638 52.2223C31.9595 53.0572 32.1367 54.1831 32.1367 55.3933C32.1367 56.9191 31.8611 58.3905 31.3821 59.4291L26.638 69.7087C25.7473 71.6365 24.015 72.7316 23.4721 72.7742C22.9553 72.7316 21.2231 71.6365 20.3307 69.7087L15.5867 59.4291C15.1093 58.3905 14.8337 56.9191 14.8337 55.3933V55.3923Z" fill="url(#paint0_linear_30_187)"/>
<path d="M16.4354 59.2642C15.9794 58.2762 15.7181 56.8652 15.7181 55.3924C15.7181 54.2285 15.886 53.152 16.19 52.3616L18.2974 46.8885C18.8358 45.4888 21.2567 44.26 23.4766 44.26C25.7075 44.26 28.1364 45.4888 28.6747 46.8885L30.7821 52.3616C31.0861 53.152 31.254 54.2285 31.254 55.3924C31.254 56.8652 30.9927 58.2762 30.5367 59.2642H16.4354Z" fill="black"/>
<path d="M16.4365 59.2644C15.9804 58.2761 15.7188 56.8648 15.7188 55.3929C15.7188 54.2282 15.8855 53.1516 16.1896 52.362L18.2971 46.889C18.8367 45.4894 21.2564 44.2609 23.4767 44.2609C25.7085 44.2609 28.1365 45.4894 28.6744 46.889L30.7819 52.362C31.086 53.1527 31.2544 54.2282 31.2544 55.3929C31.2544 56.8648 30.9928 58.2761 30.5366 59.2644H16.4365Z" fill="url(#paint1_linear_30_187)"/>
<path d="M26.8436 80.1406C26.8436 79.826 26.4481 79.5679 25.9641 79.5679H21.0069C20.5229 79.5679 20.1273 79.826 20.1273 80.1406C20.1273 80.4552 20.5229 80.7123 21.0069 80.7123H25.9641C26.4481 80.7123 26.8436 80.4552 26.8436 80.1406Z" fill="#152024"/>
<path d="M31.6759 16.5281C31.6759 13.6567 28.0961 12.572 23.6802 12.572C19.2643 12.572 15.6844 13.6567 15.6844 16.5281C15.6844 19.3983 19.2643 21.7252 23.6802 21.7252C28.0961 21.7252 31.6759 19.3983 31.6759 16.5281Z" fill="#152024"/>
<path d="M16.5725 16.3881C18.1226 17.0704 20.4881 17.0642 22.9534 17.0591H24.4085C26.8754 17.0642 29.2409 17.0704 30.791 16.3881C30.7942 16.4333 30.7942 16.4796 30.7942 16.527C30.7942 19.0762 27.6037 21.15 23.6818 21.15C19.7598 21.15 16.5693 19.0762 16.5693 16.527C16.5693 16.4796 16.5693 16.4344 16.5725 16.3881Z" fill="black"/>
<path d="M16.5737 16.3865C18.1247 17.0682 20.4904 17.0629 22.9559 17.0575H24.4103C26.8774 17.0629 29.2431 17.0682 30.7924 16.3865C30.7957 16.4323 30.7957 16.478 30.7957 16.5248C30.7957 19.0738 27.6054 21.1485 23.6839 21.1485C19.7623 21.1485 16.5704 19.0738 16.5704 16.5248C16.5704 16.478 16.5704 16.4323 16.5737 16.3865Z" fill="url(#paint2_linear_30_187)"/>
<path d="M23.6801 12.5717C20.0902 12.5717 17.0488 13.289 16.0405 15.1018C17.0488 16.6016 20.0902 16.4843 23.6801 16.4843C27.2717 16.4843 30.3098 16.6016 31.3197 15.1018C30.3098 13.289 27.2717 12.5717 23.6801 12.5717Z" fill="#64676C"/>
<path d="M17.0149 15.071C18.1465 13.4872 21.2331 13.146 23.6814 13.146C26.1264 13.146 29.2147 13.4872 30.3463 15.071C29.5363 15.8791 27.518 15.9181 24.4148 15.9116H22.9465C19.8432 15.9181 17.8249 15.8791 17.0149 15.071Z" fill="#929195"/>
<path d="M23.6807 20.7714V19.7587H33.7394C33.8743 19.7553 37.8255 19.6677 39.9783 20.9849L46.6098 25.2211L45.5187 25.9439L38.8993 21.7155C37.5142 20.8681 34.7268 20.7467 33.7705 20.7714H23.6807Z" fill="#484E58"/>
<path d="M46.9549 26.1502C47.437 25.8312 47.43 25.3171 46.9375 25.0038L40.5381 20.9152C40.7445 20.8115 41.041 20.701 41.3931 20.6875C41.8284 20.6695 42.2741 20.8059 42.7076 21.0877L46.8283 23.8912C46.9462 23.9723 47.1422 23.9757 47.267 23.8979C47.3919 23.8213 47.3971 23.6928 47.2774 23.6116L43.1516 20.8047C42.5811 20.4328 41.9723 20.2569 41.3497 20.2828C40.7844 20.3065 40.3369 20.4925 40.0577 20.6481C39.579 20.4722 38.9599 20.5196 38.5576 20.7856C38.3182 20.9434 38.2003 21.1497 38.2003 21.3537C38.2003 21.5634 38.3234 21.7731 38.5714 21.932L45.1911 26.1603C45.6819 26.4737 46.471 26.4692 46.9549 26.1502Z" fill="#283139"/>
<path d="M23.6814 20.7717V19.7587H13.624C13.4876 19.7545 9.5375 19.6679 7.38349 20.9856L0.75293 25.2213L1.84438 25.9433L8.46372 21.7148C9.84729 20.8687 12.6353 20.7467 13.5919 20.7717H23.6814Z" fill="#484E58"/>
<path d="M0.41037 26.1499C-0.072684 25.8297 -0.0662859 25.3171 0.426365 25.0031L6.82604 20.9141C6.6213 20.8101 6.32219 20.6999 5.97189 20.6864C5.53363 20.6687 5.09056 20.8049 4.65709 21.0867L0.536738 23.8907C0.418374 23.9718 0.220034 23.9749 0.0968711 23.8969C-0.0278913 23.82 -0.0326929 23.6921 0.0856713 23.611L4.21243 20.8039C4.78345 20.4317 5.39127 20.256 6.01508 20.282C6.58131 20.3059 7.02758 20.492 7.30749 20.6469C7.78575 20.4712 8.40316 20.518 8.80783 20.7852C9.04616 20.9432 9.16454 21.148 9.16454 21.3528C9.16454 21.5628 9.04137 21.7729 8.79345 21.9309L2.17304 26.1592C1.68199 26.4722 0.893424 26.468 0.41037 26.1499Z" fill="#283139"/>
<path d="M23.6821 19.102C26.2122 19.102 28.2604 20.4344 28.2604 22.0778C28.2604 23.7223 26.2122 24.3433 23.6821 24.3433C21.1538 24.3433 19.1039 23.7223 19.1039 22.0778C19.1039 20.4344 21.1538 19.102 23.6821 19.102Z" fill="#5D636D"/>
<path d="M27.752 22.1582C26.8637 21.7681 25.5099 21.7712 24.0976 21.7743H23.2647C21.8524 21.7712 20.4986 21.7681 19.6104 22.1582C19.6088 22.1324 19.6088 22.1057 19.6088 22.0789C19.6088 20.6196 21.436 19.4319 23.6811 19.4319C25.9263 19.4319 27.7535 20.6196 27.7535 22.0789C27.7535 22.1057 27.7535 22.1314 27.752 22.1582Z" fill="black"/>
<path d="M27.7533 22.1566C26.8658 21.7654 25.5121 21.7686 24.0987 21.7717H23.2661C21.8543 21.7686 20.5005 21.7654 19.6115 22.1566C19.6099 22.1304 19.6099 22.1031 19.6099 22.0769C19.6099 20.617 21.438 19.4298 23.6824 19.4298C25.9284 19.4298 27.7549 20.617 27.7549 22.0769C27.7549 22.1031 27.7549 22.1304 27.7533 22.1566Z" fill="url(#paint3_linear_30_187)"/>
<path d="M23.682 24.3443C25.7383 24.3443 27.4765 23.9327 28.0548 22.8954C27.4765 22.0365 25.7383 22.1037 23.682 22.1037C21.624 22.1037 19.8843 22.0365 19.306 22.8954C19.8843 23.9327 21.624 24.3443 23.682 24.3443Z" fill="#929195"/>
<path d="M27.4993 22.9114C26.8513 23.8187 25.0846 24.0136 23.6838 24.0136C22.2814 24.0136 20.5147 23.8187 19.8667 22.9114C20.3309 22.4483 21.4851 22.4263 23.2631 22.4305H24.1029C25.8809 22.4263 27.035 22.4483 27.4993 22.9114Z" fill="#BEBBBC"/>
<path d="M23.6812 41.9609C19.5663 41.9609 16.1594 39.7603 15.5842 36.8939C15.5269 37.1762 15.4957 37.4638 15.4957 37.7578C15.4957 41.0321 19.1599 43.6875 23.6812 43.6875C28.2009 43.6875 31.8651 41.0321 31.8651 37.7578C31.8651 37.4638 31.8356 37.1762 31.7782 36.8939C31.2014 39.7603 27.7961 41.9609 23.6812 41.9609Z" fill="#151413"/>
<defs>
<linearGradient id="paint0_linear_30_187" x1="32.8076" y1="41.353" x2="32.8076" y2="63.4517" gradientUnits="userSpaceOnUse">
<stop stop-color="#747981"/>
<stop offset="1" stop-color="#2E373F"/>
</linearGradient>
<linearGradient id="paint1_linear_30_187" x1="31.9231" y1="39.5169" x2="31.9231" y2="55.0098" gradientUnits="userSpaceOnUse">
<stop stop-color="#747981"/>
<stop offset="1" stop-color="#2E373F"/>
</linearGradient>
<linearGradient id="paint2_linear_30_187" x1="32.2976" y1="10.6197" x2="32.2976" y2="15.54" gradientUnits="userSpaceOnUse">
<stop stop-color="#2E363E"/>
<stop offset="1" stop-color="#151F24"/>
</linearGradient>
<linearGradient id="paint3_linear_30_187" x1="28.6149" y1="18.5583" x2="28.6149" y2="16.6368" gradientUnits="userSpaceOnUse">
<stop stop-color="#6B717A"/>
<stop offset="1" stop-color="#5E636D"/>
</linearGradient>
</defs>
</svg>
