<svg width="52" height="86" viewBox="0 0 52 86" fill="none" xmlns="http://www.w3.org/2000/svg">
<path d="M16.4846 34.9721C17.187 39.8382 19.6284 45.2065 22.9113 48.0531C21.4819 48.767 20.3835 49.7601 19.9628 50.854L17.8541 56.3275C17.0215 58.49 17.1465 62.007 18.1322 64.1432L22.2776 73.1258C22.2705 73.1968 22.267 73.2677 22.267 73.3398V82.4552C22.267 84.4049 24.7226 86.0001 27.7202 86.0001C30.7215 86.0001 33.1752 84.4049 33.1752 82.4552V73.3398C33.1752 73.2677 33.1717 73.1968 33.1647 73.1258L33.772 71.8101L34.6486 82.1717C34.7595 83.0386 35.9388 83.6902 37.2731 83.6193C38.6056 83.5484 39.6089 82.7809 39.4998 81.9138L36.738 65.3846L37.3118 64.1432C38.2958 62.007 38.4208 58.49 37.5882 56.3275L35.4812 50.854C35.0587 49.7601 33.9585 48.767 32.531 48.0531C35.8138 45.2065 38.2553 39.8382 38.9576 34.9721L39.1055 33.6827C39.1442 33.1907 39.1653 32.7079 39.1653 32.2365C39.1653 28.7777 38.067 26.5501 36.2574 25.1554H38.0053C38.8221 25.1336 40.9643 25.2194 42.4359 25.7675C42.4464 25.9677 42.5714 26.1645 42.8091 26.3155L49.4258 30.5443C49.9169 30.8578 50.7073 30.8532 51.1913 30.534C51.6719 30.2148 51.6648 29.7011 51.1755 29.3876L44.7735 25.2995C44.9812 25.1954 45.2787 25.0844 45.629 25.0707C46.0655 25.0535 46.5091 25.1897 46.9421 25.4711L51.0646 28.2754C51.1825 28.3567 51.3797 28.359 51.5047 28.2823C51.6279 28.2045 51.6332 28.0764 51.5135 27.9951L47.3892 25.1886C46.8154 24.8156 46.2098 24.6405 45.5832 24.6668C45.0199 24.6908 44.5728 24.8762 44.2929 25.0318C44.0095 24.9277 43.6786 24.9025 43.3723 24.9529C41.1685 24.0719 38.0951 24.1394 37.9754 24.1428L34.5183 24.1428C34.4426 24.1108 34.3687 24.0787 34.293 24.049C35.3104 23.176 35.9142 22.0891 35.9142 20.9106C35.9142 18.8534 34.0765 17.7139 31.408 17.2322V12.1293C31.408 11.4337 30.9468 10.8055 30.2145 10.3673V6.00471C30.2145 5.11114 29.0968 4.38461 27.7202 4.38461C26.3455 4.38461 25.2277 5.11114 25.2277 6.00471V10.3673C24.4955 10.8055 24.0343 11.4337 24.0343 12.1293V17.3088C21.5805 17.8294 19.9206 18.9564 19.9206 20.9106C19.9206 22.0422 20.4786 23.0891 21.4221 23.9426C21.2531 24.0055 21.0876 24.0719 20.9257 24.1428H17.8594C17.7414 24.1394 14.668 24.0719 12.4642 24.9529C12.1562 24.9025 11.8253 24.9277 11.5419 25.0318C11.2637 24.8762 10.8149 24.6908 10.2516 24.6668C9.62672 24.6405 9.01943 24.8156 8.44735 25.1886L4.32134 27.9951C4.2034 28.0764 4.20867 28.2045 4.33189 28.2823C4.45687 28.359 4.65226 28.3567 4.77195 28.2754L8.89269 25.4711C9.32747 25.1897 9.77106 25.0535 10.2076 25.0707C10.5579 25.0844 10.8554 25.1954 11.0631 25.2995L4.66106 29.3876C4.16995 29.7011 4.16291 30.2148 4.64698 30.534C5.12753 30.8532 5.91787 30.8578 6.40898 30.5443L13.0275 26.3155C13.2651 26.1645 13.3884 25.9677 13.3989 25.7675C14.8722 25.2194 17.0145 25.1336 17.8294 25.1554H19.1848C17.3771 26.5501 16.2769 28.7777 16.2769 32.2365C16.2769 32.7079 16.298 33.1907 16.3385 33.6827L16.4846 34.9721Z" fill="#BEBBBC"/>
<path d="M35.2638 77.5299L30.7828 50.7162C30.6732 49.8496 30.6633 49.6845 29.3301 49.7558C27.9952 49.8259 28.0268 49.9899 28.1347 50.8565L30.4126 77.7878C30.5221 78.6543 31.7026 79.3061 33.0358 79.2349C34.3706 79.1648 35.3734 78.3975 35.2638 77.5299Z" fill="#64676C"/>
<path d="M28.9166 50.8231L28.91 50.779C28.8901 50.6144 28.8653 50.4186 28.8703 50.3089C28.958 50.296 29.1136 50.2787 29.3933 50.2637C29.6714 50.2486 29.8303 50.2497 29.918 50.2529C29.9511 50.3605 29.9776 50.5563 29.9975 50.7209L30.0041 50.7726L34.4849 77.5861C34.5577 78.1628 33.8807 78.6814 32.9736 78.7298C32.0682 78.7771 31.2737 78.3403 31.1942 77.754L28.9166 50.8231Z" fill="#7A7B81"/>
<path d="M25.9785 12.3925V1.62021C25.9785 0.726305 24.8611 1.90735e-06 23.4859 1.90735e-06C22.1124 1.90735e-06 20.995 0.726305 20.995 1.62021V12.3925C20.995 13.2853 22.1124 14.0127 23.4859 14.0127C24.8611 14.0127 25.9785 13.2853 25.9785 12.3925Z" fill="#152024"/>
<path d="M28.9392 78.0711V68.9552C28.9392 67.0052 26.4854 65.4102 23.4853 65.4102C20.4852 65.4102 18.0314 67.0052 18.0314 68.9552V78.0711C18.0314 80.0201 20.4852 81.6161 23.4853 81.6161C26.4854 81.6161 28.9392 80.0201 28.9392 78.0711Z" fill="#E79900"/>
<path d="M27.1738 78.0718V68.9561C27.1738 67.6344 25.5187 66.5597 23.4854 66.5597C21.4536 66.5597 19.7986 67.6344 19.7986 68.9561V78.0718C19.7986 79.3924 21.4536 80.4681 23.4854 80.4681C25.5187 80.4681 27.1738 79.3924 27.1738 78.0718Z" fill="#FFD47E"/>
<path d="M27.1737 18.5173V7.74553C27.1737 6.42663 25.5152 5.34865 23.4861 5.34865C21.4588 5.34865 19.7986 6.42663 19.7986 7.74553V18.5173C19.7986 19.8362 21.4588 20.9142 23.4861 20.9142C25.5152 20.9142 27.1737 19.8362 27.1737 18.5173Z" fill="#E79900"/>
<path d="M25.9773 18.5174V7.74485C25.9773 6.85164 24.8596 6.12513 23.4854 6.12513C22.1112 6.12513 20.9935 6.85164 20.9935 7.74485V18.5174C20.9935 19.4107 22.1112 20.1372 23.4854 20.1372C24.8596 20.1372 25.9773 19.4107 25.9773 18.5174Z" fill="#FFD47E"/>
<path d="M34.9296 27.8522C34.9296 20.3827 29.8062 18.6556 23.486 18.6556C17.1658 18.6556 12.0441 20.3827 12.0441 27.8522C12.0441 35.3206 17.1658 45.7033 23.486 45.7033C29.8062 45.7033 34.9296 35.3206 34.9296 27.8522Z" fill="#E79900"/>
<path d="M33.1616 27.8529C33.1616 24.7222 32.2049 22.5044 30.3194 21.2596C28.8143 20.2674 26.6424 19.8051 23.4857 19.8051C18.46 19.8051 13.8081 20.7801 13.8081 27.8529C13.8081 35.5015 19.0544 44.5554 23.4857 44.5554C27.9169 44.5554 33.1616 35.5015 33.1616 27.8529Z" fill="#FFD47E"/>
<path d="M28.3322 38.6666C30.2494 35.3556 31.3962 31.3129 31.3962 27.8508C31.3962 25.0735 30.588 23.0714 29.0602 22.0644C27.9101 21.3052 26.1385 20.9522 23.4852 20.9522C19.317 20.9522 15.5758 21.4796 15.5758 27.8508C15.5758 31.3129 16.7209 35.3556 18.6398 38.6666C20.6388 42.1191 22.6738 43.4057 23.4852 43.4057C24.2982 43.4057 26.3332 42.1191 28.3322 38.6666Z" fill="#E79900"/>
<path d="M17.3424 27.8515C17.3424 22.1016 20.327 22.1016 23.4858 22.1016C26.3073 22.1016 27.3001 22.541 27.802 22.8714C28.9626 23.6371 29.6292 25.4525 29.6292 27.8515C29.6292 31.1819 28.5256 35.0742 26.6794 38.2625C25.3732 40.5154 24.1461 41.6423 23.4858 42.088C22.8256 41.6423 21.5985 40.5154 20.2922 38.2625C18.446 35.0732 17.3424 31.1819 17.3424 27.8515Z" fill="black"/>
<path d="M17.3417 27.8523C17.3417 22.1011 20.3268 22.1011 23.4842 22.1011C26.3068 22.1011 27.2997 22.5415 27.8018 22.8711C28.9621 23.6369 29.6284 25.4525 29.6284 27.8523C29.6284 31.1827 28.525 35.0738 26.679 38.2626C25.3725 40.5156 24.1456 41.6426 23.4842 42.0873C22.8245 41.6426 21.5976 40.5156 20.2911 38.2626C18.4451 35.0738 17.3417 31.1827 17.3417 27.8523Z" fill="#FFAB05"/>
<path d="M33.0755 59.7578C34.0607 57.6229 34.1863 54.1052 33.3532 51.9424L31.2456 46.4694C30.4125 44.3066 26.9248 42.537 23.4949 42.537H23.4767C20.0468 42.537 16.559 44.3066 15.7259 46.4694L13.6184 51.9424C12.7853 54.1052 12.9109 57.6229 13.8977 59.7578L18.6417 70.0378C19.6253 72.1737 21.8055 73.9207 23.4866 73.9207C25.1644 73.9207 27.3463 72.1737 28.3315 70.0378L33.0755 59.7578Z" fill="#2F373F"/>
<path d="M14.8346 55.3929C14.8346 54.1836 15.0119 53.0567 15.3334 52.223L17.4392 46.7499C18.0789 45.0889 20.8434 43.6871 23.4765 43.6871C26.1271 43.6871 28.8916 45.0889 29.5312 46.7499L31.6387 52.223C31.9601 53.0577 32.1375 54.1836 32.1375 55.3929C32.1375 56.9191 31.8619 58.3898 31.3822 59.4292L26.6385 69.7096C25.7486 71.6372 24.0164 72.7312 23.4734 72.7744C22.9556 72.7312 21.2234 71.6372 20.332 69.7096L15.5883 59.4292C15.1101 58.3898 14.8346 56.9191 14.8346 55.3929Z" fill="black"/>
<path d="M14.8339 55.3919C14.8339 54.1828 15.011 53.0569 15.3325 52.222L17.4388 46.749C18.0786 45.0888 20.8426 43.6867 23.4755 43.6867C26.1264 43.6867 28.8904 45.0888 29.5302 46.749L31.6381 52.222C31.9596 53.0569 32.1368 54.1828 32.1368 55.393C32.1368 56.9188 31.8612 58.3902 31.3822 59.4287L26.6382 69.7084C25.7474 71.6362 24.0152 72.7312 23.4722 72.7739C22.9555 72.7312 21.2232 71.6362 20.3308 69.7084L15.5868 59.4287C15.1094 58.3902 14.8339 56.9188 14.8339 55.393V55.3919Z" fill="url(#paint0_linear_30_67)"/>
<path d="M16.4348 59.2639C15.9788 58.2759 15.7175 56.8649 15.7175 55.3921C15.7175 54.2282 15.8854 53.1516 16.1894 52.3612L18.2968 46.8882C18.8352 45.4885 21.2561 44.2597 23.4759 44.2597C25.7069 44.2597 28.1357 45.4885 28.6741 46.8882L30.7815 52.3612C31.0855 53.1516 31.2534 54.2282 31.2534 55.3921C31.2534 56.8649 30.9921 58.2759 30.5361 59.2639H16.4348Z" fill="black"/>
<path d="M16.4361 59.2646C15.98 58.2763 15.7184 56.865 15.7184 55.3931C15.7184 54.2284 15.8851 53.1518 16.1893 52.3622L18.2968 46.8892C18.8363 45.4896 21.2561 44.2611 23.4764 44.2611C25.7081 44.2611 28.1361 45.4896 28.674 46.8892L30.7815 52.3622C31.0856 53.1529 31.254 54.2284 31.254 55.3931C31.254 56.865 30.9924 58.2763 30.5362 59.2646H16.4361Z" fill="url(#paint1_linear_30_67)"/>
<path d="M26.8439 80.1402C26.8439 79.8256 26.4483 79.5674 25.9643 79.5674H21.0071C20.5231 79.5674 20.1276 79.8256 20.1276 80.1402C20.1276 80.4547 20.5231 80.7119 21.0071 80.7119H25.9643C26.4483 80.7119 26.8439 80.4547 26.8439 80.1402Z" fill="#152024"/>
<path d="M31.6768 16.5276C31.6768 13.6563 28.0969 12.5716 23.6811 12.5716C19.2652 12.5716 15.6853 13.6563 15.6853 16.5276C15.6853 19.3979 19.2652 21.7248 23.6811 21.7248C28.0969 21.7248 31.6768 19.3979 31.6768 16.5276Z" fill="#152024"/>
<path d="M16.5727 16.3871C18.1229 17.0695 20.4884 17.0633 22.9537 17.0582H24.4087C26.8756 17.0633 29.2412 17.0695 30.7913 16.3871C30.7944 16.4324 30.7944 16.4787 30.7944 16.5261C30.7944 19.0753 27.604 21.1491 23.682 21.1491C19.76 21.1491 16.5696 19.0753 16.5696 16.5261C16.5696 16.4787 16.5696 16.4334 16.5727 16.3871Z" fill="black"/>
<path d="M16.5729 16.3872C18.1238 17.0688 20.4895 17.0635 22.955 17.0582H24.4094C26.8766 17.0635 29.2423 17.0688 30.7916 16.3872C30.7949 16.4329 30.7949 16.4786 30.7949 16.5254C30.7949 19.0744 27.6046 21.1491 23.683 21.1491C19.7615 21.1491 16.5696 19.0744 16.5696 16.5254C16.5696 16.4786 16.5696 16.4329 16.5729 16.3872Z" fill="url(#paint2_linear_30_67)"/>
<path d="M23.6804 12.5709C20.0905 12.5709 17.049 13.2882 16.0408 15.101C17.049 16.6009 20.0905 16.4835 23.6804 16.4835C27.2719 16.4835 30.31 16.6009 31.32 15.101C30.31 13.2882 27.2719 12.5709 23.6804 12.5709Z" fill="#64676C"/>
<path d="M17.0155 15.071C18.1471 13.4872 21.2338 13.146 23.682 13.146C26.127 13.146 29.2153 13.4872 30.3469 15.071C29.5369 15.8791 27.5186 15.9181 24.4154 15.9116H22.9471C19.8438 15.9181 17.8255 15.8791 17.0155 15.071Z" fill="#929195"/>
<path d="M23.6812 20.7718V19.7591H33.7399C33.8748 19.7557 37.826 19.6681 39.9788 20.9853L46.6103 25.2215L45.5191 25.9443L38.8998 21.7159C37.5147 20.8685 34.7272 20.7471 33.771 20.7718H23.6812Z" fill="#484E58"/>
<path d="M46.954 26.1504C47.4361 25.8314 47.4292 25.3174 46.9367 25.004L40.5372 20.9155C40.7436 20.8117 41.0402 20.7013 41.3922 20.6877C41.8275 20.6697 42.2732 20.8061 42.7068 21.0879L46.8274 23.8914C46.9453 23.9726 47.1413 23.9759 47.2662 23.8982C47.391 23.8215 47.3962 23.693 47.2766 23.6118L43.1508 20.805C42.5802 20.433 41.9715 20.2571 41.3489 20.2831C40.7835 20.3067 40.3361 20.4927 40.0568 20.6483C39.5782 20.4724 38.9591 20.5198 38.5567 20.7858C38.3174 20.9436 38.1995 21.1499 38.1995 21.354C38.1995 21.5636 38.3226 21.7733 38.5706 21.9322L45.1903 26.1606C45.6811 26.4739 46.4701 26.4694 46.954 26.1504Z" fill="#283139"/>
<path d="M23.6825 20.7707V19.7576L13.6251 19.7576C13.4887 19.7535 9.5386 19.6669 7.38459 20.9845L0.754028 25.2203L1.84548 25.9422L8.46481 21.7138C9.84839 20.8677 12.6364 20.7456 13.593 20.7707L23.6825 20.7707Z" fill="#484E58"/>
<path d="M0.41037 26.1498C-0.072684 25.8296 -0.0662859 25.3171 0.426365 25.0031L6.82604 20.9141C6.6213 20.8101 6.32219 20.6999 5.97189 20.6864C5.53363 20.6687 5.09056 20.8049 4.65709 21.0866L0.536738 23.8906C0.418374 23.9717 0.220034 23.9749 0.0968711 23.8969C-0.0278913 23.8199 -0.0326929 23.6921 0.0856713 23.611L4.21243 20.8039C4.78345 20.4316 5.39127 20.2559 6.01508 20.2819C6.58131 20.3058 7.02758 20.4919 7.30749 20.6469C7.78575 20.4712 8.40316 20.5179 8.80783 20.7851C9.04616 20.9432 9.16454 21.148 9.16454 21.3528C9.16454 21.5628 9.04137 21.7728 8.79345 21.9308L2.17304 26.1592C1.68199 26.4721 0.893424 26.468 0.41037 26.1498Z" fill="#283139"/>
<path d="M23.6821 19.1014C26.2122 19.1014 28.2604 20.4338 28.2604 22.0772C28.2604 23.7217 26.2122 24.3427 23.6821 24.3427C21.1538 24.3427 19.1039 23.7217 19.1039 22.0772C19.1039 20.4338 21.1538 19.1014 23.6821 19.1014Z" fill="#5D636D"/>
<path d="M27.7524 22.1577C26.8642 21.7677 25.5104 21.7708 24.0981 21.7739H23.2652C21.8529 21.7708 20.4991 21.7677 19.6108 22.1577C19.6093 22.132 19.6093 22.1052 19.6093 22.0785C19.6093 20.6191 21.4364 19.4315 23.6816 19.4315C25.9268 19.4315 27.754 20.6191 27.754 22.0785C27.754 22.1052 27.754 22.131 27.7524 22.1577Z" fill="black"/>
<path d="M27.7525 22.1561C26.8651 21.7649 25.5114 21.768 24.0979 21.7712H23.2653C21.8535 21.768 20.4998 21.7649 19.6107 22.1561C19.6091 22.1298 19.6091 22.1026 19.6091 22.0764C19.6091 20.6165 21.4372 19.4293 23.6816 19.4293C25.9276 19.4293 27.7541 20.6165 27.7541 22.0764C27.7541 22.1026 27.7542 22.1298 27.7525 22.1561Z" fill="url(#paint3_linear_30_67)"/>
<path d="M23.6812 24.3449C25.7375 24.3449 27.4756 23.9333 28.0539 22.8959C27.4756 22.0371 25.7375 22.1043 23.6812 22.1043C21.6232 22.1043 19.8835 22.0371 19.3052 22.8959C19.8835 23.9333 21.6232 24.3449 23.6812 24.3449Z" fill="#929195"/>
<path d="M27.4994 22.9107C26.8514 23.8181 25.0847 24.0129 23.6839 24.0129C22.2815 24.0129 20.5148 23.8181 19.8668 22.9107C20.3311 22.4476 21.4852 22.4256 23.2632 22.4298H24.103C25.881 22.4256 27.0351 22.4476 27.4994 22.9107Z" fill="#BEBBBC"/>
<path d="M23.6819 41.9607C19.5671 41.9607 16.1602 39.7601 15.585 36.8937C15.5276 37.176 15.4965 37.4636 15.4965 37.7575C15.4965 41.0319 19.1607 43.6873 23.6819 43.6873C28.2016 43.6873 31.8658 41.0319 31.8658 37.7575C31.8658 37.4636 31.8363 37.176 31.779 36.8937C31.2021 39.7601 27.7968 41.9607 23.6819 41.9607Z" fill="#151413"/>
<defs>
<linearGradient id="paint0_linear_30_67" x1="32.8077" y1="41.3527" x2="32.8077" y2="63.4514" gradientUnits="userSpaceOnUse">
<stop stop-color="#747981"/>
<stop offset="1" stop-color="#2E373F"/>
</linearGradient>
<linearGradient id="paint1_linear_30_67" x1="31.9227" y1="39.5171" x2="31.9227" y2="55.01" gradientUnits="userSpaceOnUse">
<stop stop-color="#747981"/>
<stop offset="1" stop-color="#2E373F"/>
</linearGradient>
<linearGradient id="paint2_linear_30_67" x1="32.2967" y1="10.6203" x2="32.2967" y2="15.5406" gradientUnits="userSpaceOnUse">
<stop stop-color="#2E363E"/>
<stop offset="1" stop-color="#151F24"/>
</linearGradient>
<linearGradient id="paint3_linear_30_67" x1="28.6141" y1="18.5577" x2="28.6141" y2="16.6362" gradientUnits="userSpaceOnUse">
<stop stop-color="#6B717A"/>
<stop offset="1" stop-color="#5E636D"/>
</linearGradient>
</defs>
</svg>
