<svg width="52" height="86" viewBox="0 0 52 86" fill="none" xmlns="http://www.w3.org/2000/svg">
<path d="M16.4842 34.9717C17.1866 39.8377 19.628 45.206 22.9109 48.0526C21.4816 48.7666 20.3832 49.7597 19.9625 50.8535L17.8537 56.3271C17.0211 58.4895 17.1461 62.0066 18.1318 64.1427L22.2772 73.1254C22.2702 73.1963 22.2666 73.2673 22.2666 73.3393V82.4547C22.2666 84.4044 24.7222 85.9996 27.7199 85.9996C30.7211 85.9996 33.1749 84.4044 33.1749 82.4547V73.3393C33.1749 73.2673 33.1713 73.1963 33.1643 73.1254L33.7716 71.8096L34.6482 82.1712C34.7591 83.0381 35.9385 83.6897 37.2727 83.6189C38.6052 83.5479 39.6086 82.7805 39.4994 81.9133L36.7376 65.3841L37.3115 64.1427C38.2954 62.0066 38.4204 58.4895 37.5878 56.3271L35.4808 50.8535C35.0583 49.7597 33.9582 48.7666 32.5306 48.0526C35.8135 45.206 38.2549 39.8377 38.9573 34.9717L39.1051 33.6822C39.1439 33.1902 39.165 32.7074 39.165 32.236C39.165 28.7773 38.0666 26.5496 36.2571 25.1549H38.005C38.8217 25.1332 40.9639 25.219 42.4355 25.767C42.4461 25.9673 42.5711 26.1641 42.8087 26.3151L49.4254 30.5438C49.9166 30.8573 50.7069 30.8527 51.191 30.5335C51.6715 30.2143 51.6645 29.7006 51.1751 29.3871L44.7731 25.2991C44.9808 25.195 45.2783 25.084 45.6286 25.0702C46.0651 25.0531 46.5087 25.1892 46.9417 25.4707L51.0642 28.275C51.1822 28.3562 51.3793 28.3585 51.5043 28.2819C51.6275 28.204 51.6328 28.0759 51.5131 27.9947L47.3888 25.1881C46.815 24.8151 46.2095 24.64 45.5828 24.6664C45.0195 24.6904 44.5724 24.8757 44.2926 25.0313C44.0092 24.9272 43.6782 24.9021 43.372 24.9524C41.1681 24.0714 38.0948 24.1389 37.9751 24.1423H34.5179C34.4423 24.1103 34.3683 24.0783 34.2926 24.0485C35.3101 23.1755 35.9138 22.0886 35.9138 20.9101C35.9138 18.853 34.0761 17.7134 31.4076 17.2317V12.1289C31.4076 11.4332 30.9464 10.8051 30.2141 10.3669V6.00426C30.2141 5.11068 29.0964 4.38415 27.7199 4.38415C26.3451 4.38415 25.2274 5.11068 25.2274 6.00426V10.3669C24.4951 10.8051 24.0339 11.4332 24.0339 12.1289V17.3084C21.5802 17.829 19.9202 18.9559 19.9202 20.9101C19.9202 22.0417 20.4782 23.0886 21.4217 23.9421C21.2527 24.0051 21.0873 24.0714 20.9253 24.1423H17.859C17.7411 24.1389 14.6677 24.0714 12.4638 24.9524C12.1558 24.9021 11.8249 24.9272 11.5415 25.0313C11.2634 24.8757 10.8145 24.6904 10.2512 24.6664C9.62635 24.64 9.01907 24.8151 8.44699 25.1881L4.32097 27.9947C4.20303 28.0759 4.20831 28.204 4.33152 28.2819C4.4565 28.3585 4.65189 28.3562 4.77159 28.275L8.89232 25.4707C9.32711 25.1892 9.77069 25.0531 10.2072 25.0702C10.5575 25.084 10.855 25.195 11.0627 25.2991L4.66069 29.3871C4.16959 29.7006 4.16255 30.2143 4.64662 30.5335C5.12716 30.8527 5.9175 30.8573 6.40861 30.5438L13.0271 26.3151C13.2648 26.1641 13.388 25.9673 13.3985 25.767C14.8719 25.219 17.0141 25.1332 17.8291 25.1549H19.1845C17.3767 26.5496 16.2765 28.7773 16.2765 32.236C16.2765 32.7074 16.2977 33.1902 16.3382 33.6822L16.4842 34.9717Z" fill="#BEBBBC"/>
<path d="M35.2635 77.5303L30.7824 50.7167C30.6729 49.8501 30.6629 49.685 29.3297 49.7562C27.9949 49.8264 28.0264 49.9904 28.1343 50.8569L30.4122 77.7882C30.5218 78.6548 31.7022 79.3066 33.0354 79.2354C34.3703 79.1652 35.373 78.3979 35.2635 77.5303Z" fill="#64676C"/>
<path d="M28.9166 50.8213L28.91 50.7772C28.8901 50.6126 28.8653 50.4168 28.8703 50.307C28.958 50.2941 29.1136 50.2769 29.3933 50.2618C29.6714 50.2468 29.8303 50.2479 29.918 50.2511C29.9511 50.3587 29.9776 50.5545 29.9975 50.7191L30.0041 50.7707L34.4849 77.5843C34.5577 78.161 33.8807 78.6795 32.9736 78.728C32.0682 78.7753 31.2737 78.3385 31.1942 77.7521L28.9166 50.8213Z" fill="#7A7B81"/>
<path d="M25.9784 12.3925V1.62021C25.9784 0.726305 24.861 1.90735e-06 23.4858 1.90735e-06C22.1123 1.90735e-06 20.9949 0.726305 20.9949 1.62021V12.3925C20.9949 13.2853 22.1123 14.0127 23.4858 14.0127C24.861 14.0127 25.9784 13.2853 25.9784 12.3925Z" fill="#152024"/>
<path d="M28.9389 78.0714V68.9556C28.9389 67.0056 26.485 65.4106 23.4849 65.4106C20.4849 65.4106 18.031 67.0056 18.031 68.9556V78.0714C18.031 80.0204 20.4849 81.6165 23.4849 81.6165C26.485 81.6165 28.9389 80.0204 28.9389 78.0714Z" fill="#00D1FF"/>
<path d="M27.1738 78.071V68.9553C27.1738 67.6336 25.5187 66.5589 23.4854 66.5589C21.4536 66.5589 19.7986 67.6336 19.7986 68.9553V78.071C19.7986 79.3916 21.4536 80.4673 23.4854 80.4673C25.5187 80.4673 27.1738 79.3916 27.1738 78.071Z" fill="#00AFD5"/>
<path d="M27.1736 18.5153V7.74355C27.1736 6.42465 25.5151 5.34667 23.486 5.34667C21.4586 5.34667 19.7985 6.42465 19.7985 7.74355V18.5153C19.7985 19.8342 21.4586 20.9122 23.486 20.9122C25.5151 20.9122 27.1736 19.8342 27.1736 18.5153Z" fill="#00D1FF"/>
<path d="M25.9777 18.5157V7.74309C25.9777 6.84988 24.86 6.12338 23.4858 6.12338C22.1116 6.12338 20.9939 6.84988 20.9939 7.74309V18.5157C20.9939 19.4089 22.1116 20.1354 23.4858 20.1354C24.86 20.1354 25.9777 19.4089 25.9777 18.5157Z" fill="#00AFD5"/>
<path d="M34.9294 27.8503C34.9294 20.3808 29.8059 18.6538 23.4858 18.6538C17.1656 18.6538 12.0438 20.3808 12.0438 27.8503C12.0438 35.3187 17.1656 45.7014 23.4858 45.7014C29.8059 45.7014 34.9294 35.3187 34.9294 27.8503Z" fill="#00D1FF"/>
<path d="M33.1618 27.8512C33.1618 24.7205 32.2051 22.5028 30.3197 21.258C28.8146 20.2658 26.6426 19.8034 23.4859 19.8034C18.4602 19.8034 13.8083 20.7785 13.8083 27.8512C13.8083 35.4998 19.0547 44.5537 23.4859 44.5537C27.9172 44.5537 33.1618 35.4998 33.1618 27.8512Z" fill="#00AFD5"/>
<path d="M28.3322 38.6672C30.2494 35.3561 31.3962 31.3135 31.3962 27.8514C31.3962 25.0741 30.588 23.0719 29.0602 22.065C27.9101 21.3058 26.1385 20.9528 23.4852 20.9528C19.317 20.9528 15.5758 21.4802 15.5758 27.8514C15.5758 31.3135 16.7209 35.3561 18.6398 38.6672C20.6388 42.1197 22.6738 43.4063 23.4852 43.4063C24.2982 43.4063 26.3332 42.1197 28.3322 38.6672Z" fill="#00CAF6"/>
<path d="M17.3424 27.8507C17.3424 22.1007 20.327 22.1008 23.4858 22.1008C26.3073 22.1008 27.3001 22.5402 27.802 22.8706C28.9626 23.6363 29.6292 25.4517 29.6292 27.8507C29.6292 31.1811 28.5256 35.0734 26.6794 38.2617C25.3731 40.5146 24.1461 41.6415 23.4858 42.0871C22.8256 41.6415 21.5985 40.5146 20.2922 38.2617C18.446 35.0723 17.3424 31.1811 17.3424 27.8507Z" fill="black"/>
<path d="M17.3417 27.8527C17.3417 22.1014 20.3268 22.1014 23.4842 22.1014C26.3068 22.1014 27.2997 22.5419 27.8018 22.8714C28.9621 23.6372 29.6284 25.4529 29.6284 27.8527C29.6284 31.183 28.525 35.0742 26.679 38.263C25.3725 40.5159 24.1456 41.6429 23.4842 42.0876C22.8245 41.6429 21.5976 40.5159 20.2911 38.263C18.4451 35.0742 17.3417 31.183 17.3417 27.8527Z" fill="#02A3C7"/>
<path d="M33.0755 59.7569C34.0607 57.622 34.1863 54.1044 33.3532 51.9416L31.2456 46.4685C30.4125 44.3057 26.9248 42.5362 23.4949 42.5362H23.4767C20.0468 42.5362 16.559 44.3057 15.7259 46.4685L13.6184 51.9416C12.7853 54.1044 12.9109 57.622 13.8977 59.7569L18.6417 70.0369C19.6253 72.1729 21.8055 73.9199 23.4866 73.9199C25.1644 73.9199 27.3463 72.1729 28.3315 70.0369L33.0755 59.7569Z" fill="#2F373F"/>
<path d="M14.8346 55.3909C14.8346 54.1816 15.0119 53.0547 15.3334 52.2211L17.4392 46.748C18.0789 45.0869 20.8434 43.6852 23.4765 43.6852C26.127 43.6852 28.8916 45.0869 29.5312 46.748L31.6387 52.2211C31.9601 53.0557 32.1375 54.1816 32.1375 55.3909C32.1375 56.9172 31.8619 58.3878 31.3822 59.4273L26.6385 69.7076C25.7486 71.6352 24.0164 72.7292 23.4734 72.7725C22.9556 72.7292 21.2234 71.6352 20.332 69.7076L15.5883 59.4273C15.1101 58.3878 14.8346 56.9172 14.8346 55.3909Z" fill="black"/>
<path d="M14.8344 55.3897C14.8344 54.1806 15.0115 53.0547 15.333 52.2198L17.4393 46.7468C18.0791 45.0866 20.8431 43.6845 23.476 43.6845C26.1269 43.6845 28.8909 45.0866 29.5307 46.7468L31.6386 52.2198C31.9601 53.0547 32.1373 54.1806 32.1373 55.3908C32.1373 56.9166 31.8617 58.388 31.3827 59.4265L26.6387 69.7062C25.7479 71.634 24.0157 72.729 23.4727 72.7717C22.956 72.729 21.2237 71.634 20.3313 69.7062L15.5873 59.4265C15.1099 58.388 14.8344 56.9166 14.8344 55.3908V55.3897Z" fill="url(#paint0_linear_30_227)"/>
<path d="M16.4352 59.263C15.9791 58.275 15.7179 56.864 15.7179 55.3913C15.7179 54.2273 15.8857 53.1508 16.1897 52.3604L18.2972 46.8873C18.8355 45.4877 21.2565 44.2588 23.4763 44.2588C25.7073 44.2588 28.1361 45.4877 28.6745 46.8873L30.7819 52.3604C31.0859 53.1508 31.2537 54.2273 31.2537 55.3913C31.2537 56.864 30.9925 58.275 30.5365 59.263H16.4352Z" fill="black"/>
<path d="M16.4364 59.2631C15.9802 58.2748 15.7186 56.8635 15.7186 55.3916C15.7186 54.2268 15.8854 53.1503 16.1895 52.3607L18.297 46.8877C18.8365 45.488 21.2563 44.2595 23.4766 44.2595C25.7084 44.2595 28.1363 45.488 28.6742 46.8877L30.7817 52.3607C31.0858 53.1514 31.2542 54.2268 31.2542 55.3916C31.2542 56.8635 30.9926 58.2748 30.5365 59.2631H16.4364Z" fill="url(#paint1_linear_30_227)"/>
<path d="M26.8437 80.1396C26.8437 79.825 26.4482 79.5669 25.9642 79.5669H21.007C20.523 79.5669 20.1274 79.825 20.1274 80.1396C20.1274 80.4542 20.523 80.7113 21.007 80.7113H25.9642C26.4482 80.7113 26.8437 80.4542 26.8437 80.1396Z" fill="#152024"/>
<path d="M31.6764 16.527C31.6764 13.6556 28.0966 12.571 23.6807 12.571C19.2648 12.571 15.6849 13.6556 15.6849 16.527C15.6849 19.3973 19.2648 21.7241 23.6807 21.7241C28.0966 21.7241 31.6764 19.3973 31.6764 16.527Z" fill="#152024"/>
<path d="M16.573 16.3869C18.1231 17.0692 20.4886 17.0631 22.9539 17.0579H24.409C26.8759 17.0631 29.2414 17.0692 30.7915 16.3869C30.7947 16.4322 30.7947 16.4785 30.7947 16.5258C30.7947 19.0751 27.6042 21.1488 23.6822 21.1488C19.7603 21.1488 16.5698 19.0751 16.5698 16.5258C16.5698 16.4785 16.5698 16.4332 16.573 16.3869Z" fill="black"/>
<path d="M16.5727 16.3869C18.1237 17.0685 20.4894 17.0632 22.9549 17.0579H24.4093C26.8764 17.0632 29.2421 17.0685 30.7915 16.3869C30.7947 16.4326 30.7947 16.4783 30.7947 16.5251C30.7947 19.0741 27.6045 21.1488 23.6829 21.1488C19.7613 21.1488 16.5695 19.0741 16.5695 16.5251C16.5695 16.4783 16.5695 16.4326 16.5727 16.3869Z" fill="url(#paint2_linear_30_227)"/>
<path d="M23.6805 12.5708C20.0906 12.5708 17.0491 13.2881 16.0409 15.1009C17.0491 16.6007 20.0906 16.4834 23.6805 16.4834C27.2721 16.4834 30.3102 16.6007 31.3201 15.1009C30.3102 13.2881 27.2721 12.5708 23.6805 12.5708Z" fill="#64676C"/>
<path d="M17.0155 15.0696C18.1471 13.4858 21.2338 13.1446 23.682 13.1446C26.127 13.1446 29.2153 13.4858 30.3469 15.0696C29.5369 15.8778 27.5186 15.9168 24.4154 15.9103H22.9471C19.8438 15.9168 17.8255 15.8778 17.0155 15.0696Z" fill="#929195"/>
<path d="M23.6814 20.7706V19.7579H33.7401C33.875 19.7545 37.8262 19.6669 39.979 20.9841L46.6105 25.2203L45.5194 25.9431L38.9 21.7147C37.5149 20.8672 34.7275 20.7459 33.7712 20.7706H23.6814Z" fill="#484E58"/>
<path d="M46.9541 26.1501C47.4362 25.8311 47.4293 25.3171 46.9367 25.0037L40.5373 20.9152C40.7437 20.8115 41.0402 20.701 41.3923 20.6875C41.8276 20.6694 42.2733 20.8058 42.7069 21.0876L46.8275 23.8911C46.9454 23.9723 47.1414 23.9757 47.2662 23.8979C47.3911 23.8212 47.3963 23.6927 47.2766 23.6116L43.1508 20.8047C42.5803 20.4327 41.9715 20.2569 41.3489 20.2828C40.7836 20.3065 40.3361 20.4925 40.0569 20.648C39.5783 20.4722 38.9591 20.5195 38.5568 20.7855C38.3174 20.9434 38.1995 21.1496 38.1995 21.3537C38.1995 21.5633 38.3226 21.773 38.5706 21.932L45.1903 26.1603C45.6811 26.4737 46.4702 26.4692 46.9541 26.1501Z" fill="#283139"/>
<path d="M23.6825 20.7701V19.757H13.6251C13.4887 19.7529 9.5386 19.6663 7.38459 20.9839L0.754028 25.2197L1.84548 25.9416L8.46481 21.7132C9.84839 20.8671 12.6364 20.745 13.593 20.7701H23.6825Z" fill="#484E58"/>
<path d="M0.41037 26.1491C-0.072684 25.8288 -0.0662859 25.3163 0.426365 25.0023L6.82604 20.9133C6.6213 20.8093 6.32219 20.6991 5.97189 20.6856C5.53363 20.6679 5.09056 20.8041 4.65709 21.0859L0.536738 23.8899C0.418374 23.9709 0.220034 23.9741 0.0968711 23.8961C-0.0278913 23.8192 -0.0326929 23.6913 0.0856713 23.6102L4.21243 20.8031C4.78345 20.4309 5.39127 20.2552 6.01508 20.2812C6.58131 20.3051 7.02758 20.4912 7.30749 20.6461C7.78575 20.4704 8.40316 20.5172 8.80783 20.7844C9.04616 20.9424 9.16454 21.1472 9.16454 21.352C9.16454 21.562 9.04137 21.772 8.79345 21.9301L2.17304 26.1584C1.68199 26.4714 0.893424 26.4672 0.41037 26.1491Z" fill="#283139"/>
<path d="M23.6823 19.1007C26.2123 19.1007 28.2605 20.4331 28.2605 22.0765C28.2605 23.721 26.2123 24.342 23.6823 24.342C21.1539 24.342 19.104 23.721 19.104 22.0765C19.104 20.4331 21.1539 19.1007 23.6823 19.1007Z" fill="#5D636D"/>
<path d="M27.753 22.1561C26.8648 21.766 25.511 21.7691 24.0987 21.7722H23.2658C21.8535 21.7691 20.4997 21.766 19.6115 22.1561C19.6099 22.1304 19.6099 22.1036 19.6099 22.0768C19.6099 20.6175 21.4371 19.4298 23.6822 19.4298C25.9274 19.4298 27.7546 20.6175 27.7546 22.0768C27.7546 22.1036 27.7546 22.1293 27.753 22.1561Z" fill="black"/>
<path d="M27.7524 22.1561C26.865 21.7649 25.5112 21.768 24.0978 21.7712H23.2652C21.8534 21.768 20.4997 21.7649 19.6106 22.1561C19.609 22.1298 19.609 22.1026 19.609 22.0764C19.609 20.6165 21.4371 19.4293 23.6815 19.4293C25.9275 19.4293 27.754 20.6165 27.754 22.0764C27.754 22.1026 27.754 22.1298 27.7524 22.1561Z" fill="url(#paint3_linear_30_227)"/>
<path d="M23.6814 24.3437C25.7377 24.3437 27.4759 23.9321 28.0542 22.8947C27.4759 22.0358 25.7377 22.103 23.6814 22.103C21.6234 22.103 19.8837 22.0358 19.3054 22.8947C19.8837 23.9321 21.6234 24.3437 23.6814 24.3437Z" fill="#929195"/>
<path d="M27.4994 22.9106C26.8514 23.8179 25.0847 24.0128 23.6839 24.0128C22.2815 24.0128 20.5148 23.8179 19.8668 22.9106C20.3311 22.4474 21.4852 22.4254 23.2632 22.4296H24.103C25.881 22.4254 27.0351 22.4474 27.4994 22.9106Z" fill="#BEBBBC"/>
<path d="M23.6821 41.959C19.5672 41.959 16.1603 39.7583 15.5851 36.892C15.5277 37.1743 15.4966 37.4619 15.4966 37.7558C15.4966 41.0302 19.1608 43.6856 23.6821 43.6856C28.2017 43.6856 31.8659 41.0302 31.8659 37.7558C31.8659 37.4619 31.8364 37.1743 31.7791 36.892C31.2022 39.7583 27.7969 41.959 23.6821 41.959Z" fill="#151413"/>
<defs>
<linearGradient id="paint0_linear_30_227" x1="32.8082" y1="41.3505" x2="32.8082" y2="63.4492" gradientUnits="userSpaceOnUse">
<stop stop-color="#747981"/>
<stop offset="1" stop-color="#2E373F"/>
</linearGradient>
<linearGradient id="paint1_linear_30_227" x1="31.923" y1="39.5155" x2="31.923" y2="55.0085" gradientUnits="userSpaceOnUse">
<stop stop-color="#747981"/>
<stop offset="1" stop-color="#2E373F"/>
</linearGradient>
<linearGradient id="paint2_linear_30_227" x1="32.2966" y1="10.6201" x2="32.2966" y2="15.5404" gradientUnits="userSpaceOnUse">
<stop stop-color="#2E363E"/>
<stop offset="1" stop-color="#151F24"/>
</linearGradient>
<linearGradient id="paint3_linear_30_227" x1="28.614" y1="18.5577" x2="28.614" y2="16.6362" gradientUnits="userSpaceOnUse">
<stop stop-color="#6B717A"/>
<stop offset="1" stop-color="#5E636D"/>
</linearGradient>
</defs>
</svg>
