<svg width="52" height="86" viewBox="0 0 52 86" fill="none" xmlns="http://www.w3.org/2000/svg">
<path d="M16.484 34.9717C17.1863 39.8377 19.6278 45.206 22.9106 48.0527C21.4813 48.7666 20.3829 49.7597 19.9622 50.8535L17.8535 56.3271C17.0209 58.4895 17.1459 62.0066 18.1316 64.1427L22.277 73.1254C22.2699 73.1963 22.2664 73.2673 22.2664 73.3394V82.4547C22.2664 84.4045 24.7219 85.9996 27.7196 85.9996C30.7209 85.9996 33.1746 84.4045 33.1746 82.4547V73.3394C33.1746 73.2673 33.1711 73.1963 33.1641 73.1254L33.7713 71.8096L34.648 82.1712C34.7589 83.0381 35.9382 83.6897 37.2725 83.6189C38.605 83.548 39.6083 82.7805 39.4992 81.9133L36.7374 65.3841L37.3112 64.1427C38.2952 62.0066 38.4202 58.4895 37.5876 56.3271L35.4806 50.8535C35.0581 49.7597 33.9579 48.7666 32.5304 48.0527C35.8132 45.206 38.2547 39.8377 38.957 34.9717L39.1049 33.6822C39.1436 33.1903 39.1647 32.7074 39.1647 32.236C39.1647 28.7773 38.0663 26.5497 36.2568 25.1549H38.0047C38.8215 25.1332 40.9637 25.219 42.4353 25.7671C42.4458 25.9673 42.5708 26.1641 42.8084 26.3151L49.4252 30.5439C49.9163 30.8573 50.7067 30.8528 51.1907 30.5336C51.6713 30.2143 51.6642 29.7006 51.1749 29.3871L44.7729 25.2991C44.9806 25.195 45.2781 25.084 45.6284 25.0703C46.0649 25.0531 46.5085 25.1893 46.9415 25.4707L51.064 28.275C51.1819 28.3563 51.3791 28.3585 51.504 28.2819C51.6273 28.2041 51.6325 28.0759 51.5128 27.9947L47.3886 25.1881C46.8148 24.8151 46.2092 24.6401 45.5826 24.6664C45.0193 24.6904 44.5722 24.8758 44.2923 25.0314C44.0089 24.9273 43.678 24.9021 43.3717 24.9524C41.1679 24.0714 38.0945 24.1389 37.9748 24.1424H34.5177C34.442 24.1103 34.3681 24.0783 34.2924 24.0486C35.3098 23.1756 35.9136 22.0886 35.9136 20.9102C35.9136 18.853 34.0759 17.7134 31.4073 17.2318V12.1289C31.4073 11.4332 30.9462 10.8051 30.2139 10.3669V6.00429C30.2139 5.11071 29.0961 4.38418 27.7196 4.38418C26.3449 4.38418 25.2271 5.11071 25.2271 6.00429V10.3669C24.4949 10.8051 24.0337 11.4332 24.0337 12.1289V17.3084C21.5799 17.829 19.92 18.956 19.92 20.9102C19.92 22.0417 20.478 23.0886 21.4215 23.9422C21.2525 24.0051 21.087 24.0714 20.9251 24.1424H17.8587C17.7408 24.1389 14.6674 24.0714 12.4636 24.9524C12.1556 24.9021 11.8246 24.9273 11.5412 25.0314C11.2631 24.8758 10.8143 24.6904 10.251 24.6664C9.62611 24.6401 9.01882 24.8151 8.44674 25.1881L4.32073 27.9947C4.20279 28.0759 4.20806 28.2041 4.33128 28.2819C4.45626 28.3585 4.65165 28.3563 4.77134 28.275L8.89208 25.4707C9.32686 25.1893 9.77045 25.0531 10.207 25.0703C10.5573 25.084 10.8547 25.195 11.0625 25.2991L4.66045 29.3871C4.16934 29.7006 4.1623 30.2143 4.64637 30.5336C5.12692 30.8528 5.91726 30.8573 6.40837 30.5439L13.0269 26.3151C13.2645 26.1641 13.3877 25.9673 13.3983 25.7671C14.8716 25.219 17.0138 25.1332 17.8288 25.1549H19.1842C17.3765 26.5497 16.2763 28.7773 16.2763 32.236C16.2763 32.7074 16.2974 33.1903 16.3379 33.6822L16.484 34.9717Z" fill="#BEBBBC"/>
<path d="M35.264 77.5316L30.7829 50.7179C30.6734 49.8513 30.6634 49.6862 29.3302 49.7575C27.9954 49.8276 28.0269 49.9916 28.1348 50.8582L30.4127 77.7895C30.5223 78.656 31.7027 79.3078 33.0359 79.2366C34.3707 79.1665 35.3735 78.3992 35.264 77.5316Z" fill="#64676C"/>
<path d="M28.9167 50.8233L28.9101 50.7792C28.8902 50.6146 28.8654 50.4188 28.8704 50.309C28.9581 50.2961 29.1137 50.2789 29.3934 50.2638C29.6715 50.2488 29.8304 50.2498 29.9182 50.2531C29.9513 50.3607 29.9778 50.5565 29.9976 50.7211L30.0042 50.7727L34.485 77.5863C34.5578 78.163 33.8808 78.6815 32.9738 78.7299C32.0683 78.7773 31.2738 78.3405 31.1944 77.7541L28.9167 50.8233Z" fill="#7A7B81"/>
<path d="M25.9783 12.3925V1.62021C25.9783 0.726305 24.8609 1.90735e-06 23.4856 1.90735e-06C22.1122 1.90735e-06 20.9948 0.726305 20.9948 1.62021V12.3925C20.9948 13.2853 22.1122 14.0127 23.4856 14.0127C24.8609 14.0127 25.9783 13.2853 25.9783 12.3925Z" fill="#152024"/>
<path d="M28.9394 78.0724V68.9565C28.9394 67.0065 26.4855 65.4115 23.4854 65.4115C20.4854 65.4115 18.0315 67.0065 18.0315 68.9565V78.0724C18.0315 80.0213 20.4854 81.6174 23.4854 81.6174C26.4855 81.6174 28.9394 80.0213 28.9394 78.0724Z" fill="#02C038"/>
<path d="M27.174 78.0715V68.9559C27.174 67.6342 25.519 66.5595 23.4856 66.5595C21.4539 66.5595 19.7988 67.6342 19.7988 68.9559V78.0715C19.7988 79.3921 21.4539 80.4679 23.4856 80.4679C25.519 80.4679 27.174 79.3921 27.174 78.0715Z" fill="#00AC30"/>
<path d="M27.1736 18.5175V7.7457C27.1736 6.4268 25.5151 5.34882 23.486 5.34882C21.4586 5.34882 19.7985 6.4268 19.7985 7.7457V18.5175C19.7985 19.8364 21.4586 20.9144 23.486 20.9144C25.5151 20.9144 27.1736 19.8364 27.1736 18.5175Z" fill="#02C038"/>
<path d="M25.9772 18.517V7.74442C25.9772 6.85121 24.8595 6.12471 23.4853 6.12471C22.1111 6.12471 20.9934 6.85121 20.9934 7.74442V18.517C20.9934 19.4102 22.1111 20.1367 23.4853 20.1367C24.8595 20.1367 25.9772 19.4102 25.9772 18.517Z" fill="#00AC30"/>
<path d="M34.9296 27.8525C34.9296 20.383 29.8062 18.656 23.486 18.656C17.1658 18.656 12.0441 20.383 12.0441 27.8525C12.0441 35.3209 17.1658 45.7036 23.486 45.7036C29.8062 45.7036 34.9296 35.3209 34.9296 27.8525Z" fill="#02C038"/>
<path d="M33.1618 27.8537C33.1618 24.723 32.2051 22.5053 30.3197 21.2605C28.8146 20.2683 26.6426 19.8059 23.4859 19.8059C18.4602 19.8059 13.8083 20.781 13.8083 27.8537C13.8083 35.5023 19.0547 44.5562 23.4859 44.5562C27.9172 44.5562 33.1618 35.5023 33.1618 27.8537Z" fill="#00AC30"/>
<path d="M28.3324 38.6676C30.2497 35.3565 31.3964 31.3139 31.3964 27.8518C31.3964 25.0745 30.5883 23.0723 29.0604 22.0654C27.9104 21.3062 26.1388 20.9532 23.4854 20.9532C19.3172 20.9532 15.576 21.4806 15.576 27.8518C15.576 31.3139 16.7211 35.3565 18.64 38.6676C20.639 42.1201 22.674 43.4067 23.4854 43.4067C24.2984 43.4067 26.3334 42.1201 28.3324 38.6676Z" fill="#00B833"/>
<path d="M17.342 27.8515C17.342 22.1015 20.3267 22.1015 23.4854 22.1015C26.307 22.1015 27.2997 22.541 27.8017 22.8713C28.9622 23.637 29.6288 25.4525 29.6288 27.8515C29.6288 31.1818 28.5252 35.0741 26.679 38.2625C25.3728 40.5153 24.1457 41.6423 23.4854 42.0879C22.8252 41.6423 21.5981 40.5153 20.2918 38.2625C18.4456 35.0731 17.342 31.1818 17.342 27.8515Z" fill="black"/>
<path d="M17.3414 27.853C17.3414 22.1018 20.3266 22.1018 23.484 22.1018C26.3066 22.1018 27.2995 22.5422 27.8016 22.8718C28.9619 23.6376 29.6281 25.4532 29.6281 27.853C29.6281 31.1834 28.5247 35.0745 26.6787 38.2633C25.3722 40.5163 24.1453 41.6433 23.484 42.088C22.8242 41.6433 21.5973 40.5163 20.2908 38.2633C18.4448 35.0745 17.3414 31.1834 17.3414 27.853Z" fill="#038126"/>
<path d="M33.0755 59.7589C34.0607 57.624 34.1863 54.1063 33.3532 51.9435L31.2456 46.4705C30.4125 44.3077 26.9248 42.5381 23.4949 42.5381H23.4767C20.0468 42.5381 16.559 44.3077 15.7259 46.4705L13.6184 51.9435C12.7853 54.1063 12.9109 57.624 13.8977 59.7589L18.6417 70.0389C19.6253 72.1748 21.8055 73.9218 23.4866 73.9218C25.1644 73.9218 27.3463 72.1748 28.3315 70.0389L33.0755 59.7589Z" fill="#2F373F"/>
<path d="M14.8344 55.3925C14.8344 54.1833 15.0117 53.0563 15.3331 52.2227L17.439 46.7496C18.0786 45.0886 20.8432 43.6868 23.4763 43.6868C26.1268 43.6868 28.8913 45.0886 29.531 46.7496L31.6385 52.2227C31.9599 53.0574 32.1372 54.1833 32.1372 55.3925C32.1372 56.9188 31.8617 58.3895 31.3819 59.4289L26.6382 69.7093C25.7484 71.6369 24.0162 72.7309 23.4731 72.7741C22.9554 72.7309 21.2232 71.6369 20.3317 69.7093L15.588 59.4289C15.1098 58.3895 14.8344 56.9188 14.8344 55.3925Z" fill="black"/>
<path d="M14.8341 55.3922C14.8341 54.1831 15.0113 53.0571 15.3328 52.2223L17.4391 46.7492C18.0788 45.0891 20.8429 43.687 23.4757 43.687C26.1266 43.687 28.8907 45.0891 29.5304 46.7492L31.6383 52.2223C31.9599 53.0571 32.137 54.1831 32.137 55.3933C32.137 56.9191 31.8614 58.3905 31.3825 59.429L26.6384 69.7087C25.7477 71.6365 24.0154 72.7315 23.4724 72.7741C22.9557 72.7315 21.2235 71.6365 20.3311 69.7087L15.587 59.429C15.1097 58.3905 14.8341 56.9191 14.8341 55.3933V55.3922Z" fill="url(#paint0_linear_30_27)"/>
<path d="M16.4352 59.2649C15.9791 58.2769 15.7179 56.8659 15.7179 55.3932C15.7179 54.2292 15.8857 53.1527 16.1897 52.3623L18.2972 46.8892C18.8355 45.4896 21.2565 44.2607 23.4763 44.2607C25.7073 44.2607 28.1361 45.4896 28.6745 46.8892L30.7819 52.3623C31.0859 53.1527 31.2537 54.2292 31.2537 55.3932C31.2537 56.8659 30.9925 58.2769 30.5365 59.2649H16.4352Z" fill="black"/>
<path d="M16.4361 59.2648C15.98 58.2765 15.7184 56.8652 15.7184 55.3933C15.7184 54.2286 15.8851 53.152 16.1893 52.3624L18.2968 46.8894C18.8363 45.4898 21.2561 44.2613 23.4764 44.2613C25.7081 44.2613 28.1361 45.4898 28.674 46.8894L30.7815 52.3624C31.0856 53.1531 31.254 54.2286 31.254 55.3933C31.254 56.8652 30.9924 58.2765 30.5362 59.2648H16.4361Z" fill="url(#paint1_linear_30_27)"/>
<path d="M26.8439 80.1415C26.8439 79.8269 26.4483 79.5687 25.9643 79.5687H21.0071C20.5231 79.5687 20.1276 79.8269 20.1276 80.1415C20.1276 80.4561 20.5231 80.7132 21.0071 80.7132H25.9643C26.4483 80.7132 26.8439 80.4561 26.8439 80.1415Z" fill="#152024"/>
<path d="M31.6768 16.529C31.6768 13.6577 28.0969 12.573 23.6811 12.573C19.2652 12.573 15.6853 13.6577 15.6853 16.529C15.6853 19.3993 19.2652 21.7262 23.6811 21.7262C28.0969 21.7262 31.6768 19.3993 31.6768 16.529Z" fill="#152024"/>
<path d="M16.5726 16.3877C18.1227 17.0701 20.4883 17.0639 22.9535 17.0588H24.4086C26.8755 17.0639 29.241 17.0701 30.7911 16.3877C30.7943 16.433 30.7943 16.4793 30.7943 16.5267C30.7943 19.0759 27.6038 21.1497 23.6819 21.1497C19.7599 21.1497 16.5695 19.0759 16.5695 16.5267C16.5695 16.4793 16.5695 16.434 16.5726 16.3877Z" fill="black"/>
<path d="M16.5729 16.3871C18.1238 17.0687 20.4895 17.0634 22.955 17.0581H24.4094C26.8766 17.0634 29.2423 17.0687 30.7916 16.3871C30.7949 16.4328 30.7949 16.4785 30.7949 16.5253C30.7949 19.0743 27.6046 21.149 23.683 21.149C19.7615 21.149 16.5696 19.0743 16.5696 16.5253C16.5696 16.4785 16.5696 16.4328 16.5729 16.3871Z" fill="url(#paint2_linear_30_27)"/>
<path d="M23.6803 12.5716C20.0904 12.5716 17.0489 13.2889 16.0406 15.1018C17.0489 16.6016 20.0904 16.4842 23.6803 16.4842C27.2718 16.4842 30.3099 16.6016 31.3198 15.1018C30.3099 13.2889 27.2718 12.5716 23.6803 12.5716Z" fill="#64676C"/>
<path d="M17.0155 15.0707C18.1471 13.4869 21.2338 13.1456 23.682 13.1456C26.127 13.1456 29.2153 13.4869 30.3469 15.0707C29.5369 15.8788 27.5186 15.9178 24.4154 15.9113H22.9471C19.8438 15.9178 17.8255 15.8788 17.0155 15.0707Z" fill="#929195"/>
<path d="M23.6812 20.772V19.7593H33.7399C33.8748 19.7559 37.826 19.6683 39.9788 20.9855L46.6103 25.2217L45.5191 25.9445L38.8998 21.7161C37.5147 20.8686 34.7272 20.7473 33.771 20.772H23.6812Z" fill="#484E58"/>
<path d="M46.9544 26.1518C47.4365 25.8328 47.4296 25.3187 46.937 25.0054L40.5376 20.9168C40.744 20.8131 41.0405 20.7026 41.3926 20.6891C41.8279 20.6711 42.2736 20.8075 42.7072 21.0893L46.8278 23.8928C46.9457 23.9739 47.1417 23.9773 47.2665 23.8995C47.3914 23.8229 47.3966 23.6944 47.2769 23.6132L43.1511 20.8063C42.5806 20.4343 41.9718 20.2585 41.3492 20.2844C40.7839 20.3081 40.3364 20.4941 40.0572 20.6497C39.5786 20.4738 38.9594 20.5211 38.5571 20.7872C38.3178 20.945 38.1998 21.1513 38.1998 21.3553C38.1998 21.565 38.323 21.7746 38.571 21.9336L45.1906 26.1619C45.6814 26.4753 46.4705 26.4708 46.9544 26.1518Z" fill="#283139"/>
<path d="M23.6825 20.7718V19.7588H13.6251C13.4887 19.7546 9.5386 19.668 7.38459 20.9857L0.754028 25.2214L1.84548 25.9434L8.46481 21.7149C9.84839 20.8688 12.6364 20.7468 13.593 20.7718H23.6825Z" fill="#484E58"/>
<path d="M0.41037 26.1504C-0.072684 25.8302 -0.0662859 25.3176 0.426365 25.0036L6.82604 20.9146C6.6213 20.8106 6.32219 20.7004 5.97189 20.6869C5.53363 20.6692 5.09056 20.8054 4.65709 21.0872L0.536738 23.8912C0.418374 23.9723 0.220034 23.9754 0.0968711 23.8974C-0.0278913 23.8205 -0.0326929 23.6926 0.0856713 23.6115L4.21243 20.8044C4.78345 20.4322 5.39127 20.2565 6.01508 20.2825C6.58131 20.3064 7.02758 20.4925 7.30749 20.6474C7.78575 20.4717 8.40316 20.5185 8.80783 20.7857C9.04616 20.9437 9.16454 21.1485 9.16454 21.3533C9.16454 21.5633 9.04137 21.7734 8.79345 21.9314L2.17304 26.1597C1.68199 26.4727 0.893424 26.4685 0.41037 26.1504Z" fill="#283139"/>
<path d="M23.6823 19.1021C26.2123 19.1021 28.2605 20.4345 28.2605 22.0779C28.2605 23.7224 26.2123 24.3434 23.6823 24.3434C21.1539 24.3434 19.104 23.7224 19.104 22.0779C19.104 20.4345 21.1539 19.1021 23.6823 19.1021Z" fill="#5D636D"/>
<path d="M27.7528 22.158C26.8645 21.768 25.5108 21.7711 24.0984 21.7742H23.2656C21.8532 21.7711 20.4995 21.768 19.6112 22.158C19.6096 22.1323 19.6096 22.1055 19.6096 22.0788C19.6096 20.6194 21.4368 19.4318 23.682 19.4318C25.9272 19.4318 27.7544 20.6194 27.7544 22.0788C27.7544 22.1055 27.7544 22.1313 27.7528 22.158Z" fill="black"/>
<path d="M27.7527 22.1581C26.8652 21.7669 25.5115 21.77 24.0981 21.7731H23.2655C21.8536 21.77 20.4999 21.7669 19.6109 22.1581C19.6092 22.1318 19.6093 22.1046 19.6093 22.0783C19.6093 20.6185 21.4374 19.4312 23.6818 19.4312C25.9278 19.4312 27.7543 20.6185 27.7543 22.0783C27.7543 22.1046 27.7543 22.1318 27.7527 22.1581Z" fill="url(#paint3_linear_30_27)"/>
<path d="M23.6814 24.3448C25.7377 24.3448 27.4759 23.9332 28.0542 22.8958C27.4759 22.0369 25.7377 22.1041 23.6814 22.1041C21.6234 22.1041 19.8837 22.0369 19.3054 22.8958C19.8837 23.9332 21.6234 24.3448 23.6814 24.3448Z" fill="#929195"/>
<path d="M27.499 22.9115C26.851 23.8188 25.0843 24.0137 23.6835 24.0137C22.2811 24.0137 20.5145 23.8188 19.8665 22.9115C20.3307 22.4484 21.4849 22.4264 23.2628 22.4306H24.1026C25.8806 22.4264 27.0348 22.4484 27.499 22.9115Z" fill="#BEBBBC"/>
<path d="M23.6821 41.961C19.5672 41.961 16.1603 39.7603 15.5851 36.894C15.5277 37.1762 15.4966 37.4638 15.4966 37.7578C15.4966 41.0321 19.1608 43.6876 23.6821 43.6876C28.2017 43.6876 31.8659 41.0321 31.8659 37.7578C31.8659 37.4638 31.8364 37.1762 31.7791 36.894C31.2022 39.7603 27.7969 41.961 23.6821 41.961Z" fill="#151413"/>
<defs>
<linearGradient id="paint0_linear_30_27" x1="32.808" y1="41.353" x2="32.808" y2="63.4516" gradientUnits="userSpaceOnUse">
<stop stop-color="#747981"/>
<stop offset="1" stop-color="#2E373F"/>
</linearGradient>
<linearGradient id="paint1_linear_30_27" x1="31.9227" y1="39.5173" x2="31.9227" y2="55.0102" gradientUnits="userSpaceOnUse">
<stop stop-color="#747981"/>
<stop offset="1" stop-color="#2E373F"/>
</linearGradient>
<linearGradient id="paint2_linear_30_27" x1="32.2967" y1="10.6203" x2="32.2967" y2="15.5405" gradientUnits="userSpaceOnUse">
<stop stop-color="#2E363E"/>
<stop offset="1" stop-color="#151F24"/>
</linearGradient>
<linearGradient id="paint3_linear_30_27" x1="28.6143" y1="18.5597" x2="28.6143" y2="16.6382" gradientUnits="userSpaceOnUse">
<stop stop-color="#6B717A"/>
<stop offset="1" stop-color="#5E636D"/>
</linearGradient>
</defs>
</svg>
