<svg width="52" height="86" viewBox="0 0 52 86" fill="none" xmlns="http://www.w3.org/2000/svg">
<path d="M16.4846 34.9722C17.187 39.8383 19.6284 45.2066 22.9113 48.0532C21.4819 48.7672 20.3835 49.7603 19.9628 50.8541L17.8541 56.3277C17.0215 58.4901 17.1465 62.0072 18.1322 64.1433L22.2776 73.126C22.2705 73.1969 22.267 73.2678 22.267 73.3399V82.4553C22.267 84.405 24.7226 86.0002 27.7202 86.0002C30.7215 86.0002 33.1752 84.405 33.1752 82.4553V73.3399C33.1752 73.2678 33.1717 73.1969 33.1647 73.126L33.772 71.8102L34.6486 82.1718C34.7595 83.0387 35.9388 83.6903 37.2731 83.6195C38.6056 83.5485 39.6089 82.781 39.4998 81.9139L36.738 65.3847L37.3118 64.1433C38.2958 62.0072 38.4208 58.4901 37.5882 56.3277L35.4812 50.8541C35.0587 49.7603 33.9585 48.7672 32.531 48.0532C35.8138 45.2066 38.2553 39.8383 38.9576 34.9722L39.1055 33.6828C39.1442 33.1908 39.1653 32.708 39.1653 32.2366C39.1653 28.7779 38.067 26.5502 36.2574 25.1555H38.0053C38.8221 25.1338 40.9643 25.2196 42.4359 25.7676C42.4464 25.9678 42.5714 26.1646 42.8091 26.3157L49.4258 30.5444C49.9169 30.8579 50.7073 30.8533 51.1913 30.5341C51.6719 30.2149 51.6648 29.7012 51.1755 29.3877L44.7735 25.2996C44.9812 25.1955 45.2787 25.0845 45.629 25.0708C46.0655 25.0537 46.5091 25.1898 46.9421 25.4713L51.0646 28.2756C51.1825 28.3568 51.3797 28.3591 51.5047 28.2824C51.6279 28.2046 51.6332 28.0765 51.5135 27.9953L47.3892 25.1887C46.8154 24.8157 46.2098 24.6406 45.5832 24.6669C45.0199 24.691 44.5728 24.8763 44.2929 25.0319C44.0095 24.9278 43.6786 24.9026 43.3723 24.953C41.1685 24.072 38.0951 24.1395 37.9754 24.1429H34.5183C34.4426 24.1109 34.3687 24.0789 34.293 24.0491C35.3104 23.1761 35.9142 22.0892 35.9142 20.9107C35.9142 18.8536 34.0765 17.714 31.408 17.2323V12.1294C31.408 11.4338 30.9468 10.8057 30.2145 10.3675V6.00484C30.2145 5.11126 29.0968 4.38473 27.7202 4.38473C26.3455 4.38473 25.2277 5.11126 25.2277 6.00484V10.3675C24.4955 10.8057 24.0343 11.4338 24.0343 12.1294V17.309C21.5805 17.8296 19.9206 18.9565 19.9206 20.9107C19.9206 22.0423 20.4786 23.0892 21.4221 23.9427C21.2531 24.0056 21.0876 24.072 20.9257 24.1429H17.8594C17.7414 24.1395 14.668 24.072 12.4642 24.953C12.1562 24.9026 11.8253 24.9278 11.5419 25.0319C11.2637 24.8763 10.8149 24.691 10.2516 24.6669C9.62672 24.6406 9.01943 24.8157 8.44735 25.1887L4.32134 27.9953C4.2034 28.0765 4.20867 28.2046 4.33189 28.2824C4.45687 28.3591 4.65226 28.3568 4.77195 28.2756L8.89269 25.4713C9.32747 25.1898 9.77106 25.0537 10.2076 25.0708C10.5579 25.0845 10.8554 25.1955 11.0631 25.2996L4.66106 29.3877C4.16995 29.7012 4.16291 30.2149 4.64698 30.5341C5.12753 30.8533 5.91787 30.8579 6.40898 30.5444L13.0275 26.3157C13.2651 26.1646 13.3884 25.9678 13.3989 25.7676C14.8722 25.2196 17.0145 25.1338 17.8294 25.1555H19.1848C17.3771 26.5502 16.2769 28.7779 16.2769 32.2366C16.2769 32.708 16.298 33.1908 16.3385 33.6828L16.4846 34.9722Z" fill="#BEBBBC"/>
<path d="M35.2643 77.5305L30.7833 50.7168C30.6737 49.8503 30.6638 49.6851 29.3306 49.7564C27.9957 49.8265 28.0273 49.9905 28.1352 50.8571L30.4131 77.7884C30.5226 78.6549 31.7031 79.3067 33.0363 79.2355C34.3711 79.1654 35.3739 78.3981 35.2643 77.5305Z" fill="#64676C"/>
<path d="M28.9166 50.8229L28.91 50.7788C28.8901 50.6141 28.8653 50.4183 28.8703 50.3086C28.958 50.2957 29.1136 50.2785 29.3933 50.2634C29.6714 50.2483 29.8303 50.2494 29.918 50.2526C29.9511 50.3602 29.9776 50.556 29.9975 50.7207L30.0041 50.7723L34.4849 77.5858C34.5577 78.1625 33.8807 78.6811 32.9736 78.7295C32.0682 78.7769 31.2737 78.3401 31.1942 77.7537L28.9166 50.8229Z" fill="#7A7B81"/>
<path d="M25.9785 12.3925V1.62021C25.9785 0.726305 24.8611 1.90735e-06 23.4859 1.90735e-06C22.1124 1.90735e-06 20.995 0.726305 20.995 1.62021V12.3925C20.995 13.2853 22.1124 14.0127 23.4859 14.0127C24.8611 14.0127 25.9785 13.2853 25.9785 12.3925Z" fill="#152024"/>
<path d="M28.9394 78.0708V68.9549C28.9394 67.0049 26.4855 65.4099 23.4854 65.4099C20.4854 65.4099 18.0315 67.0049 18.0315 68.9549V78.0708C18.0315 80.0198 20.4854 81.6158 23.4854 81.6158C26.4855 81.6158 28.9394 80.0198 28.9394 78.0708Z" fill="#FF0000"/>
<path d="M27.1741 78.0712V68.9555C27.1741 67.6338 25.5191 66.5591 23.4857 66.5591C21.454 66.5591 19.799 67.6338 19.799 68.9555V78.0712C19.799 79.3918 21.454 80.4676 23.4857 80.4676C25.5191 80.4676 27.1741 79.3918 27.1741 78.0712Z" fill="#C00000"/>
<path d="M27.1733 18.5173V7.74549C27.1733 6.42658 25.5149 5.34861 23.4858 5.34861C21.4584 5.34861 19.7982 6.42658 19.7982 7.74549V18.5173C19.7982 19.8362 21.4584 20.9141 23.4858 20.9141C25.5149 20.9141 27.1733 19.8362 27.1733 18.5173Z" fill="#FF0000"/>
<path d="M25.978 18.5165V7.74386C25.978 6.85065 24.8602 6.12414 23.486 6.12414C22.1119 6.12414 20.9941 6.85065 20.9941 7.74386V18.5165C20.9941 19.4097 22.1119 20.1362 23.486 20.1362C24.8602 20.1362 25.978 19.4097 25.978 18.5165Z" fill="#C00000"/>
<path d="M34.9295 27.8512C34.9295 20.3817 29.806 18.6547 23.4859 18.6547C17.1657 18.6547 12.0439 20.3817 12.0439 27.8512C12.0439 35.3196 17.1657 45.7023 23.4859 45.7023C29.806 45.7023 34.9295 35.3196 34.9295 27.8512Z" fill="#FF0000"/>
<path d="M33.1621 27.853C33.1621 24.7223 32.2054 22.5046 30.3199 21.2598C28.8148 20.2676 26.6429 19.8052 23.4862 19.8052C18.4605 19.8052 13.8086 20.7803 13.8086 27.853C13.8086 35.5016 19.0549 44.5555 23.4862 44.5555C27.9174 44.5555 33.1621 35.5016 33.1621 27.853Z" fill="#C00000"/>
<path d="M28.3326 38.6664C30.2498 35.3553 31.3965 31.3127 31.3965 27.8506C31.3965 25.0733 30.5884 23.0711 29.0605 22.0642C27.9105 21.305 26.1389 20.952 23.4855 20.952C19.3174 20.952 15.5762 21.4794 15.5762 27.8506C15.5762 31.3127 16.7213 35.3553 18.6401 38.6664C20.6391 42.1189 22.6741 43.4055 23.4855 43.4055C24.2985 43.4055 26.3336 42.1189 28.3326 38.6664Z" fill="#FF0000"/>
<path d="M17.3425 27.852C17.3425 22.1021 20.3271 22.1021 23.4859 22.1021C26.3075 22.1021 27.3002 22.5415 27.8021 22.8719C28.9627 23.6376 29.6293 25.453 29.6293 27.852C29.6293 31.1824 28.5257 35.0747 26.6795 38.263C25.3733 40.5159 24.1462 41.6428 23.4859 42.0884C22.8257 41.6428 21.5986 40.5159 20.2923 38.263C18.4461 35.0737 17.3425 31.1824 17.3425 27.852Z" fill="black"/>
<path d="M17.342 27.8529C17.342 22.1016 20.3272 22.1016 23.4846 22.1016C26.3072 22.1016 27.3001 22.5421 27.8022 22.8716C28.9625 23.6374 29.6287 25.4531 29.6287 27.8529C29.6287 31.1832 28.5253 35.0744 26.6793 38.2632C25.3728 40.5161 24.146 41.6432 23.4846 42.0878C22.8248 41.6432 21.5979 40.5161 20.2914 38.2632C18.4454 35.0744 17.342 31.1832 17.342 27.8529Z" fill="#CD0101"/>
<path d="M33.0762 59.7576C34.0614 57.6227 34.187 54.1051 33.3539 51.9423L31.2464 46.4692C30.4133 44.3064 26.9255 42.5369 23.4956 42.5369H23.4774C20.0475 42.5369 16.5597 44.3064 15.7266 46.4692L13.6191 51.9423C12.786 54.1051 12.9116 57.6227 13.8984 59.7576L18.6425 70.0376C19.626 72.1736 21.8063 73.9206 23.4873 73.9206C25.1651 73.9206 27.347 72.1736 28.3322 70.0376L33.0762 59.7576Z" fill="#2F373F"/>
<path d="M14.835 55.3923C14.835 54.1831 15.0123 53.0561 15.3337 52.2225L17.4396 46.7494C18.0792 45.0883 20.8438 43.6866 23.4769 43.6866C26.1274 43.6866 28.8919 45.0883 29.5316 46.7494L31.6391 52.2225C31.9605 53.0572 32.1378 54.1831 32.1378 55.3923C32.1378 56.9186 31.8623 58.3893 31.3826 59.4287L26.6388 69.709C25.749 71.6367 24.0168 72.7307 23.4737 72.7739C22.956 72.7307 21.2238 71.6367 20.3324 69.709L15.5886 59.4287C15.1105 58.3893 14.835 56.9186 14.835 55.3923Z" fill="black"/>
<path d="M14.8344 55.392C14.8344 54.1828 15.0115 53.0569 15.333 52.222L17.4393 46.749C18.0791 45.0888 20.8431 43.6867 23.476 43.6867C26.1269 43.6867 28.8909 45.0888 29.5307 46.749L31.6386 52.222C31.9601 53.0569 32.1373 54.1828 32.1373 55.393C32.1373 56.9188 31.8617 58.3902 31.3827 59.4288L26.6387 69.7084C25.7479 71.6362 24.0157 72.7312 23.4727 72.7739C22.956 72.7312 21.2237 71.6362 20.3313 69.7084L15.5873 59.4288C15.1099 58.3902 14.8344 56.9188 14.8344 55.393V55.392Z" fill="url(#paint0_linear_30_107)"/>
<path d="M16.4352 59.2644C15.9791 58.2764 15.7179 56.8654 15.7179 55.3927C15.7179 54.2287 15.8857 53.1522 16.1897 52.3618L18.2972 46.8887C18.8355 45.489 21.2565 44.2602 23.4763 44.2602C25.7073 44.2602 28.1361 45.489 28.6745 46.8887L30.7819 52.3618C31.0859 53.1522 31.2537 54.2287 31.2537 55.3927C31.2537 56.8654 30.9925 58.2764 30.5365 59.2644H16.4352Z" fill="black"/>
<path d="M16.4364 59.2645C15.9802 58.2761 15.7186 56.8648 15.7186 55.393C15.7186 54.2282 15.8854 53.1517 16.1895 52.3621L18.297 46.889C18.8365 45.4894 21.2563 44.2609 23.4766 44.2609C25.7084 44.2609 28.1363 45.4894 28.6742 46.889L30.7817 52.3621C31.0858 53.1527 31.2542 54.2282 31.2542 55.393C31.2542 56.8648 30.9926 58.2761 30.5365 59.2645H16.4364Z" fill="url(#paint1_linear_30_107)"/>
<path d="M26.8442 80.1401C26.8442 79.8255 26.4487 79.5673 25.9647 79.5673H21.0075C20.5235 79.5673 20.1279 79.8255 20.1279 80.1401C20.1279 80.4547 20.5235 80.7118 21.0075 80.7118H25.9647C26.4487 80.7118 26.8442 80.4547 26.8442 80.1401Z" fill="#152024"/>
<path d="M31.677 16.5279C31.677 13.6566 28.0972 12.5719 23.6813 12.5719C19.2654 12.5719 15.6855 13.6566 15.6855 16.5279C15.6855 19.3982 19.2654 21.7251 23.6813 21.7251C28.0972 21.7251 31.677 19.3982 31.677 16.5279Z" fill="#152024"/>
<path d="M16.573 16.3873C18.1231 17.0697 20.4886 17.0635 22.9539 17.0584H24.409C26.8759 17.0635 29.2414 17.0697 30.7915 16.3873C30.7947 16.4326 30.7947 16.4789 30.7947 16.5263C30.7947 19.0755 27.6042 21.1493 23.6822 21.1493C19.7603 21.1493 16.5698 19.0755 16.5698 16.5263C16.5698 16.4789 16.5698 16.4336 16.573 16.3873Z" fill="black"/>
<path d="M16.5729 16.3865C18.1238 17.0682 20.4895 17.0629 22.955 17.0575H24.4094C26.8766 17.0629 29.2423 17.0682 30.7916 16.3865C30.7948 16.4323 30.7949 16.478 30.7949 16.5248C30.7949 19.0738 27.6046 21.1485 23.683 21.1485C19.7615 21.1485 16.5696 19.0738 16.5696 16.5248C16.5696 16.478 16.5696 16.4323 16.5729 16.3865Z" fill="url(#paint2_linear_30_107)"/>
<path d="M23.6807 12.5721C20.0908 12.5721 17.0494 13.2894 16.0411 15.1022C17.0494 16.602 20.0908 16.4846 23.6807 16.4846C27.2723 16.4846 30.3104 16.602 31.3203 15.1022C30.3104 13.2894 27.2723 12.5721 23.6807 12.5721Z" fill="#64676C"/>
<path d="M17.0156 15.0702C18.1473 13.4864 21.2339 13.1451 23.6822 13.1451C26.1271 13.1451 29.2154 13.4864 30.347 15.0702C29.5371 15.8783 27.5188 15.9173 24.4155 15.9108H22.9472C19.8439 15.9173 17.8256 15.8783 17.0156 15.0702Z" fill="#929195"/>
<path d="M23.682 20.7705V19.7578H33.7407C33.8756 19.7544 37.8268 19.6667 39.9797 20.984L46.6111 25.2202L45.52 25.9429L38.9006 21.7146C37.5155 20.8671 34.7281 20.7458 33.7718 20.7705H23.682Z" fill="#484E58"/>
<path d="M46.9545 26.1509C47.4366 25.8318 47.4297 25.3178 46.9372 25.0044L40.5377 20.9159C40.7441 20.8122 41.0407 20.7017 41.3927 20.6882C41.828 20.6702 42.2737 20.8066 42.7073 21.0884L46.8279 23.8918C46.9458 23.973 47.1418 23.9764 47.2667 23.8986C47.3915 23.822 47.3967 23.6934 47.2771 23.6123L43.1513 20.8054C42.5807 20.4334 41.972 20.2576 41.3494 20.2835C40.784 20.3072 40.3366 20.4932 40.0573 20.6487C39.5787 20.4729 38.9596 20.5202 38.5572 20.7863C38.3179 20.9441 38.2 21.1504 38.2 21.3544C38.2 21.5641 38.3231 21.7737 38.5711 21.9327L45.1907 26.161C45.6815 26.4744 46.4706 26.4699 46.9545 26.1509Z" fill="#283139"/>
<path d="M23.683 20.7714V19.7584H13.6256C13.4892 19.7542 9.53909 19.6677 7.38507 20.9853L0.754517 25.2211L1.84597 25.943L8.4653 21.7146C9.84888 20.8685 12.6369 20.7464 13.5935 20.7714H23.683Z" fill="#484E58"/>
<path d="M0.41037 26.1503C-0.072684 25.8301 -0.0662859 25.3175 0.426365 25.0036L6.82604 20.9145C6.6213 20.8106 6.32219 20.7004 5.97189 20.6869C5.53363 20.6692 5.09056 20.8054 4.65709 21.0871L0.536738 23.8911C0.418374 23.9722 0.220034 23.9753 0.0968711 23.8974C-0.0278913 23.8204 -0.0326929 23.6925 0.0856713 23.6115L4.21243 20.8043C4.78345 20.4321 5.39127 20.2564 6.01508 20.2824C6.58131 20.3063 7.02758 20.4924 7.30749 20.6473C7.78575 20.4716 8.40316 20.5184 8.80783 20.7856C9.04616 20.9437 9.16454 21.1485 9.16454 21.3533C9.16454 21.5633 9.04137 21.7733 8.79345 21.9313L2.17304 26.1597C1.68199 26.4726 0.893424 26.4685 0.41037 26.1503Z" fill="#283139"/>
<path d="M23.6825 19.1009C26.2125 19.1009 28.2608 20.4333 28.2608 22.0767C28.2608 23.7212 26.2125 24.3422 23.6825 24.3422C21.1541 24.3422 19.1042 23.7212 19.1042 22.0767C19.1042 20.4333 21.1541 19.1009 23.6825 19.1009Z" fill="#5D636D"/>
<path d="M27.7532 22.1578C26.8649 21.7678 25.5111 21.7709 24.0988 21.774H23.2659C21.8536 21.7709 20.4998 21.7678 19.6116 22.1578C19.61 22.1321 19.61 22.1053 19.61 22.0786C19.61 20.6192 21.4372 19.4316 23.6824 19.4316C25.9276 19.4316 27.7547 20.6192 27.7547 22.0786C27.7547 22.1053 27.7548 22.1311 27.7532 22.1578Z" fill="black"/>
<path d="M27.753 22.1561C26.8656 21.7649 25.5119 21.7681 24.0984 21.7712H23.2658C21.854 21.7681 20.5003 21.7649 19.6112 22.1561C19.6096 22.1299 19.6096 22.1026 19.6096 22.0764C19.6096 20.6165 21.4377 19.4293 23.6821 19.4293C25.9281 19.4293 27.7546 20.6165 27.7546 22.0764C27.7546 22.1026 27.7546 22.1299 27.753 22.1561Z" fill="url(#paint3_linear_30_107)"/>
<path d="M23.6819 24.3443C25.7382 24.3443 27.4763 23.9327 28.0546 22.8953C27.4763 22.0364 25.7382 22.1037 23.6819 22.1037C21.6239 22.1037 19.8842 22.0364 19.3059 22.8953C19.8842 23.9327 21.6239 24.3443 23.6819 24.3443Z" fill="#929195"/>
<path d="M27.4996 22.9116C26.8516 23.8189 25.0849 24.0138 23.6842 24.0138C22.2818 24.0138 20.5151 23.8189 19.8671 22.9116C20.3313 22.4485 21.4855 22.4265 23.2634 22.4306H24.1033C25.8812 22.4265 27.0354 22.4485 27.4996 22.9116Z" fill="#BEBBBC"/>
<path d="M23.6824 41.9609C19.5676 41.9609 16.1606 39.7603 15.5854 36.8939C15.5281 37.1762 15.4969 37.4638 15.4969 37.7578C15.4969 41.0321 19.1612 43.6875 23.6824 43.6875C28.2021 43.6875 31.8663 41.0321 31.8663 37.7578C31.8663 37.4638 31.8368 37.1762 31.7794 36.8939C31.2026 39.7603 27.7973 41.9609 23.6824 41.9609Z" fill="#151413"/>
<defs>
<linearGradient id="paint0_linear_30_107" x1="32.8082" y1="41.3527" x2="32.8082" y2="63.4514" gradientUnits="userSpaceOnUse">
<stop stop-color="#747981"/>
<stop offset="1" stop-color="#2E373F"/>
</linearGradient>
<linearGradient id="paint1_linear_30_107" x1="31.923" y1="39.5169" x2="31.923" y2="55.0098" gradientUnits="userSpaceOnUse">
<stop stop-color="#747981"/>
<stop offset="1" stop-color="#2E373F"/>
</linearGradient>
<linearGradient id="paint2_linear_30_107" x1="32.2967" y1="10.6197" x2="32.2967" y2="15.54" gradientUnits="userSpaceOnUse">
<stop stop-color="#2E363E"/>
<stop offset="1" stop-color="#151F24"/>
</linearGradient>
<linearGradient id="paint3_linear_30_107" x1="28.6146" y1="18.5578" x2="28.6146" y2="16.6363" gradientUnits="userSpaceOnUse">
<stop stop-color="#6B717A"/>
<stop offset="1" stop-color="#5E636D"/>
</linearGradient>
</defs>
</svg>
