<svg xmlns="http://www.w3.org/2000/svg" width="41" height="86" viewBox="0 0 41 86" fill="none">
  <g filter="url(#filter0_d_13_18534)">
    <mask id="mask0_13_18534" style="mask-type:luminance" maskUnits="userSpaceOnUse" x="25" y="2" width="6" height="12">
      <path d="M25.3428 2.42252C25.3428 2.42252 28.983 2.42252 29.3626 4.3685C29.7182 6.20659 30.3136 13.3152 30.3136 13.3152L27.9161 13.0755L25.3428 2.42252Z" fill="white"/>
    </mask>
    <g mask="url(#mask0_13_18534)">
      <path d="M30.3176 2.42249H25.3428V13.3152H30.3176V2.42249Z" fill="#FFE43F"/>
      <path d="M29.7982 7.30545C30.3343 10.1349 30.5661 13.0137 30.4895 15.8925V13.7148H26.0101V14.8616C25.797 14.2409 25.5945 13.5749 25.4027 12.8637C25.0031 11.4571 24.6595 9.89876 24.3678 8.24847H24.9432V2.02292H28.1599V0.708282C28.3677 1.32364 28.5595 1.99095 28.7672 2.70621C29.1548 4.09677 29.5105 5.65516 29.7982 7.30545Z" fill="#FFE43F"/>
      <path d="M29.7662 7.30942C30.2977 10.1059 30.5307 12.9509 30.4614 15.7966V13.7148H26.6654V16.4679C25.6243 13.8184 24.8675 11.0658 24.4077 8.25644H24.9512V2.0229H28.1478V0.788177C28.3556 1.40088 28.5554 2.05487 28.7472 2.75014C29.1308 4.16068 29.4785 5.67911 29.7662 7.30942Z" fill="#FFE33F"/>
      <path d="M29.7343 7.31742C30.2554 10.0828 30.4831 12.8955 30.4136 15.7087V13.7108H26.6615V16.3601C25.6332 13.7414 24.8858 11.0209 24.4318 8.24446H24.9432V2.02291H28.1399V0.872101C28.3424 1.47947 28.5395 2.12547 28.7313 2.81009C29.1069 4.18467 29.4506 5.70709 29.7343 7.31742Z" fill="#FFE33E"/>
      <path d="M29.7022 7.32142C30.2176 10.0524 30.4413 12.8305 30.3695 15.6088V13.7148H26.6654V16.2602C25.6512 13.6736 24.9145 10.9866 24.4677 8.24446H24.9472V2.02291H27.5045V-0.694275C28.52 1.89188 29.2567 4.57898 29.7022 7.32142Z" fill="#FFE23D"/>
      <path d="M29.6623 7.3294C30.1737 10.0259 30.3947 12.7694 30.3216 15.5129V13.7148H26.6654V16.1483C25.6621 13.5939 24.9322 10.9405 24.4877 8.23246H24.9352V2.0229H27.4886V-0.590393C28.4932 1.96458 29.2219 4.61958 29.6623 7.3294Z" fill="#FEE13D"/>
      <path d="M29.6383 7.33341C30.1434 9.99697 30.3618 12.707 30.2896 15.417V13.7148H26.6934V16.0524C25.7025 13.529 24.9818 10.9078 24.5436 8.23248H24.9432V2.02292H27.4925V-0.486481C28.4815 2.03721 29.2007 4.65842 29.6383 7.33341Z" fill="#FEE03C"/>
      <path d="M29.6063 7.35738C30.1038 9.99092 30.3194 12.6699 30.2497 15.3491V13.7508H26.6814V15.9485C25.7017 13.4579 24.9905 10.8699 24.5596 8.22848H24.9592V2.02291H27.5005V-0.374603C28.475 2.12066 29.1809 4.71261 29.6063 7.35738Z" fill="#FEDF3C"/>
      <path d="M29.5744 7.35737C30.0661 9.95391 30.2804 12.5954 30.2137 15.2372V13.7148H26.6854V15.8486C25.7191 13.3872 25.0172 10.8302 24.5916 8.22048H24.9432V2.0229H27.4806V-0.278717C28.4482 2.1849 29.1501 4.74476 29.5744 7.35737Z" fill="#FEDF3B"/>
      <path d="M29.5424 7.35739C30.027 9.92109 30.2373 12.5291 30.1698 15.1373V13.7148H26.6934V15.7487C25.7384 13.3212 25.0446 10.7989 24.6235 8.22449H24.9432V2.02292H27.4766V-0.178802C28.4301 2.25303 29.1226 4.77926 29.5424 7.35739Z" fill="#FEDE3A"/>
      <path d="M29.5105 7.35738C29.9889 9.88681 30.1965 12.46 30.1298 15.0334V13.7148H26.6974V15.6408C25.7561 13.2438 25.0717 10.7538 24.6555 8.21249H24.9432V2.02291H27.4726V-0.0709229C28.4115 2.32652 29.0946 4.81644 29.5105 7.35738Z" fill="#FEDD3A"/>
      <path d="M29.4785 7.3574C29.9535 9.85892 30.1585 12.4042 30.0899 14.9495V13.7148H26.7014V15.5369C25.7797 13.1698 25.1101 10.712 24.7035 8.20452H24.9592V2.02292H27.4806V0.0249939C28.4055 2.39111 29.0752 4.84916 29.4785 7.3574Z" fill="#FEDC39"/>
      <path d="M29.4465 7.35739C29.9171 9.82451 30.1234 12.3348 30.0619 14.8456V13.7148H26.7213V15.433C25.7995 13.1003 25.1297 10.6757 24.7234 8.20051H24.9472V2.02291H27.4645V0.132874C28.3792 2.46407 29.0435 4.88583 29.4465 7.35739Z" fill="#FDDB38"/>
      <path d="M29.4145 7.35738C29.8745 9.78802 30.0741 12.2608 30.0099 14.7337V13.7148H26.7133V15.3131C25.807 13.0109 25.1493 10.6185 24.7513 8.17653H24.9431V2.0229H27.4565V0.236755C28.3579 2.5348 29.0142 4.92156 29.4145 7.35738Z" fill="#FDDA38"/>
      <path d="M29.3826 7.37734C29.8383 9.77481 30.0352 12.2143 29.97 14.6538V13.7148H26.7173V15.2292C25.8254 12.9573 25.1771 10.5972 24.7833 8.1885H24.9432V2.02289H27.4486V0.340637C28.3412 2.61091 28.9895 4.96978 29.3826 7.37734Z" fill="#FDD937"/>
      <path d="M29.3506 7.38536C29.7996 9.75535 29.9939 12.1666 29.93 14.5779V13.7148H26.7333V15.1213C25.8559 12.8825 25.217 10.5574 24.8273 8.18453H24.9551V2.02291H27.4565V0.44455C28.3322 2.68446 28.9671 5.01115 29.3506 7.38536Z" fill="#FDD836"/>
      <path d="M29.3187 7.38935C29.76 9.7199 29.9515 12.0909 29.8901 14.462V13.7148H26.7294V15.0214C25.8683 12.8121 25.2441 10.5176 24.8673 8.17653H24.9632V2.02291H27.4606V0.564423C28.3197 2.76725 28.9426 5.05504 29.3187 7.38935Z" fill="#FDD736"/>
      <path d="M29.2867 7.39336C29.7217 9.691 29.9106 12.0285 29.8501 14.3661V13.7148H26.7334V14.9136C25.8738 12.7337 25.2482 10.4686 24.8673 8.15657H24.9312V2.02292H27.4247V0.648346C28.2819 2.82458 28.9061 5.08555 29.2867 7.39336Z" fill="#FDD735"/>
      <path d="M29.2627 7.40134C29.6918 9.66467 29.878 11.9674 29.8182 14.2702V13.7148H26.7454V14.8137C25.8984 12.6664 25.2835 10.4346 24.9113 8.15655H24.9432V2.02291H27.4286V0.752228C28.2751 2.89694 28.89 5.12597 29.2627 7.40134Z" fill="#FCD634"/>
      <path d="M29.2228 7.40532C29.6471 9.64363 29.8306 11.9209 29.7702 14.1983V13.7148H26.7454V14.7098C25.9131 12.5957 25.309 10.3989 24.9432 8.15654C24.5225 5.92584 24.339 3.65688 24.3958 1.38756L24.9432 2.0189H27.4247V0.85611C28.2552 2.96905 28.858 5.16454 29.2228 7.40532Z" fill="#FCD534"/>
      <path d="M29.1908 7.41331C29.6055 9.61106 29.7863 11.8466 29.7302 14.0824V13.7148H26.7493V14.6059C25.93 12.5254 25.3352 10.3633 24.9751 8.15654C24.5593 5.95761 24.3798 3.72054 24.4397 1.48345L24.9432 2.02289H27.4206V0.963989C28.2381 3.04479 28.8315 5.20676 29.1908 7.41331Z" fill="#FCD433"/>
      <path d="M29.1589 7.41732C29.5694 9.58189 29.7475 11.7841 29.6903 13.9865V13.7148H26.7534V14.514C25.9466 12.463 25.3612 10.3318 25.0072 8.15655C24.5953 5.98941 24.4144 3.78467 24.4677 1.57937L24.9352 2.02291H27.4087V1.0639C28.214 3.11422 28.8007 5.24383 29.1589 7.41732Z" fill="#FCD332"/>
      <path d="M29.1268 7.4213C29.5352 9.55252 29.7147 11.7213 29.6623 13.8906V13.7148H26.7693V14.3981C25.9733 12.3847 25.3933 10.2924 25.0391 8.15654C24.6387 6.02436 24.4633 3.85605 24.5156 1.68725L24.9432 2.03489H27.4086V1.16779C28.2013 3.18552 28.7773 5.2818 29.1268 7.4213Z" fill="#FCD232"/>
      <path d="M29.0949 7.42932C29.491 9.52696 29.6638 11.6607 29.6103 13.7947V13.7148H26.7653V14.2942C25.9847 12.3141 25.4167 10.2567 25.071 8.15656C24.672 6.04992 24.5005 3.90648 24.5596 1.76319L24.9592 2.01493H27.4206V1.2717C28.1951 3.25918 28.7563 5.3233 29.0949 7.42932Z" fill="#FCD131"/>
      <path d="M29.0629 7.4333C29.91 12.2483 29.7102 16.3041 28.6194 16.4999V13.7028H26.7693V14.1823C25.9993 12.2269 25.4407 10.1948 25.103 8.12058C24.7121 6.05603 24.5433 3.95556 24.5995 1.85508L24.9432 2.01092H27.4006V1.36359C28.17 3.32163 28.7272 5.35649 29.0629 7.4333Z" fill="#FBD030"/>
      <path d="M29.031 7.44128C29.8661 12.1764 29.6703 16.1682 28.5914 16.356V13.7148H26.7733V14.0904C26.0166 12.1671 25.4674 10.1685 25.135 8.12857C24.7503 6.09694 24.5842 4.02996 24.6395 1.96296L24.9432 2.0229H27.3927V1.47946C28.1505 3.40241 28.6997 5.40113 29.031 7.44128Z" fill="#FBCF2F"/>
      <path d="M28.999 7.44529C29.8222 12.1045 29.6264 16.0324 28.5715 16.2362C27.5166 16.44 25.9861 12.7997 25.167 8.14057C24.3478 3.4814 24.5396 -0.462516 25.5985 -0.634338V2.03889H27.3887V1.57937C28.1326 3.47182 28.6725 5.43826 28.999 7.44529Z" fill="#FBCE2F"/>
      <path d="M28.971 7.44928C29.7701 12.0325 29.5863 15.8925 28.5434 16.0763C27.5005 16.2601 26.006 12.6958 25.1989 8.11659C24.3917 3.53733 24.5835 -0.326662 25.6224 -0.510472C26.6613 -0.694281 28.1638 2.87003 28.971 7.44928Z" fill="#FBCD2E"/>
      <path d="M28.9351 7.45727C29.7343 11.9606 29.5425 15.7567 28.5355 15.9365C27.5286 16.1163 26.0381 12.6119 25.2469 8.10859C24.4558 3.60526 24.6396 -0.190807 25.6465 -0.37062C26.6535 -0.550434 28.1439 2.96193 28.9351 7.45727Z" fill="#FBCC2D"/>
      <path d="M28.907 7.46127C29.6822 11.8887 29.4984 15.6208 28.5074 15.7966C27.5165 15.9725 26.054 12.528 25.2748 8.1046C24.4956 3.68119 24.6674 -0.0509461 25.6664 -0.234756C26.6654 -0.418565 28.1238 3.03785 28.907 7.46127Z" fill="#FBCB2C"/>
      <path d="M28.8631 7.46927C29.6303 11.8168 29.4505 15.461 28.4635 15.6568C27.4766 15.8526 26.066 12.4601 25.2668 8.10062C24.4677 3.74113 24.6834 0.084922 25.6664 -0.0869C26.6494 -0.258722 28.1079 3.12177 28.8631 7.46927Z" fill="#FACA2C"/>
      <path d="M28.8631 7.47325C29.6104 11.7448 29.4346 15.3451 28.4636 15.5129C27.4926 15.6807 26.098 12.3642 25.3468 8.0926C24.5956 3.82103 24.7714 0.220762 25.7464 0.0529359C26.7214 -0.11489 28.088 3.20567 28.8631 7.47325Z" fill="#FAC92B"/>
      <path d="M28.8071 7.47726C29.5464 11.6729 29.3745 15.2053 28.4075 15.3731C27.4405 15.5409 26.086 12.2803 25.3467 8.08863C24.6075 3.89698 24.7833 0.36064 25.7463 0.192814C26.7093 0.0249875 28.0639 3.28561 28.8071 7.47726Z" fill="#FAC82A"/>
      <path d="M28.7792 7.48525C29.5024 11.601 29.3306 15.0774 28.3796 15.2332C27.4286 15.3891 26.098 12.1964 25.3747 8.08063C24.6515 3.9649 24.8193 0.488501 25.7743 0.332662C26.7293 0.176824 28.0639 3.36152 28.7792 7.48525Z" fill="#FAC729"/>
      <path d="M28.7433 7.49325C29.4545 11.5291 29.2867 14.9295 28.3716 15.0854C27.4566 15.2412 26.134 12.1045 25.4227 8.06865C24.7114 4.03284 24.8793 0.628365 25.7943 0.476523C26.7094 0.32468 28.036 3.45344 28.7433 7.49325Z" fill="#FAC629"/>
      <path d="M28.7113 7.49722C29.4106 11.4571 29.2467 14.7937 28.3477 14.9535C27.4486 15.1133 26.1499 12.0285 25.4547 8.07262C24.7594 4.11672 24.9232 0.77219 25.8223 0.612356C26.7213 0.452522 28.016 3.53732 28.7113 7.49722Z" fill="#FAC528"/>
      <path d="M28.6793 7.50124C29.3626 11.3852 29.2028 14.6578 28.3197 14.8137C27.4366 14.9695 26.1699 11.9446 25.4866 8.06465C24.8034 4.18467 24.9632 0.912065 25.8463 0.756226C26.7294 0.600388 27.996 3.62126 28.6793 7.50124Z" fill="#F9C427"/>
      <path d="M28.6473 7.50924C29.3186 11.3093 29.1628 14.518 28.2957 14.6698C27.4286 14.8217 26.1859 11.8727 25.4986 8.06067C24.8113 4.24862 24.9871 1.04793 25.8502 0.896092C26.7133 0.744249 27.98 3.70518 28.6473 7.50924Z" fill="#F9C326"/>
      <path d="M28.6154 7.51322C29.2747 11.2374 29.1188 14.3821 28.2717 14.5299C27.4246 14.6778 26.2058 11.7808 25.5505 8.05266C24.8952 4.32453 25.047 1.18378 25.8942 1.03593C26.7413 0.888087 27.96 3.78508 28.6154 7.51322Z" fill="#F9C226"/>
      <path d="M28.5834 7.5212C29.2267 11.1694 29.0789 14.2422 28.2477 14.3901C27.4166 14.5379 26.2258 11.6969 25.5825 8.04865C24.9391 4.40043 25.091 1.32362 25.9221 1.17578C26.7533 1.02793 27.944 3.86898 28.5834 7.5212Z" fill="#F9C125"/>
      <path d="M28.5555 7.52521C29.1828 11.0975 29.035 14.1064 28.2238 14.2502C27.4127 14.3941 26.2259 11.613 25.6145 8.04067C25.0032 4.46837 25.131 1.45949 25.9462 1.31564C26.7613 1.17179 27.9241 3.95291 28.5555 7.52521Z" fill="#F9C024"/>
      <path d="M28.5195 7.52919C29.1349 11.0256 28.991 13.9705 28.1998 14.1104C27.4087 14.2502 26.2618 11.529 25.6465 8.03667C25.0311 4.54429 25.175 1.59934 25.9701 1.45549C26.7653 1.31163 27.9081 4.03681 28.5195 7.52919Z" fill="#F8BF23"/>
      <path d="M28.4876 7.53719C29.0909 10.9537 28.9471 13.8307 28.1719 13.9665C27.3967 14.1024 26.2818 11.4451 25.6785 8.03268C25.0751 4.62022 25.219 1.73521 25.9942 1.59935C26.7693 1.46349 27.8882 4.12073 28.4876 7.53719Z" fill="#F8BE23"/>
      <path d="M28.4636 7.5412C29.055 10.8817 28.9151 13.6948 28.1559 13.8267C27.3967 13.9585 26.3058 11.3652 25.7184 8.0247C25.131 4.68416 25.2669 1.87108 26.0261 1.73921C26.7853 1.60735 27.8722 4.20466 28.4636 7.5412Z" fill="#F8BD22"/>
      <path d="M28.4276 7.54919C28.999 10.8058 28.8632 13.543 28.1239 13.6868C27.3847 13.8307 26.3138 11.2893 25.7264 8.0207C25.139 4.75209 25.2869 2.02691 26.0301 1.87907C26.7733 1.73122 27.8522 4.28457 28.4276 7.54919Z" fill="#F8BC21"/>
      <path d="M28.3916 7.55319C28.955 10.7499 28.8232 13.4191 28.0999 13.547C27.3767 13.6748 26.3337 11.1974 25.7743 8.01271C25.2149 4.82802 25.3468 2.14679 26.07 2.01893C26.7933 1.89106 27.8322 4.36849 28.3916 7.55319Z" fill="#F8BB20"/>
      <path d="M28.3636 7.55717C28.907 10.662 28.7632 13.2832 28.0719 13.4071C27.3806 13.531 26.3537 11.1135 25.8062 8.00871C25.2588 4.90392 25.4067 2.28264 26.0939 2.16276C26.7812 2.04289 27.8162 4.45239 28.3636 7.55717Z" fill="#F8BA20"/>
      <path d="M28.3276 7.56517C28.8631 10.59 28.7272 13.1594 28.0479 13.2673C27.3686 13.3752 26.3697 11.0296 25.8382 8.00472C25.3068 4.97985 25.4386 2.41051 26.1179 2.30262C26.7972 2.19474 27.7962 4.53631 28.3276 7.56517Z" fill="#F7B91F"/>
      <path d="M28.2997 7.56915C28.8191 10.5181 28.6993 13.0075 28.024 13.1234C27.3487 13.2393 26.3896 10.9536 25.8702 7.99671C25.3507 5.03977 25.4706 2.55835 26.1419 2.44247C26.8132 2.32659 27.7802 4.62021 28.2997 7.56915Z" fill="#F7B71E"/>
      <path d="M28.2638 7.57716C28.7713 10.4462 28.6634 12.8677 28.0001 12.9836C27.3367 13.0994 26.4017 10.8618 25.9022 7.99273C25.4027 5.12371 25.5026 2.69822 26.166 2.58234C26.8293 2.46646 27.7603 4.70414 28.2638 7.57716Z" fill="#F7B61D"/>
      <path d="M28.2358 7.58114C28.7272 10.3782 28.6114 12.7318 27.976 12.8437C27.3407 12.9556 26.4256 10.7818 25.9341 7.98472C25.4427 5.18762 25.5585 2.83406 26.1939 2.72217C26.8292 2.61029 27.7443 4.78803 28.2358 7.58114Z" fill="#F7B51C"/>
      <path d="M28.1998 7.58515C28.6793 10.3063 28.5674 12.596 27.948 12.7038C27.3287 12.8117 26.4456 10.7059 25.9501 7.98074C25.4546 5.25557 25.5825 2.96993 26.2018 2.86205C26.8212 2.75416 27.7243 4.86797 28.1998 7.58515Z" fill="#F7B41C"/>
      <path d="M28.1719 7.59315C28.6354 10.2304 28.5275 12.4561 27.9241 12.564C27.3208 12.6719 26.4617 10.614 25.9981 7.97276C25.5346 5.33149 25.6425 3.1098 26.2419 3.0059C26.8413 2.90201 27.7044 4.95988 28.1719 7.59315Z" fill="#F6B31B"/>
      <path d="M28.1358 7.59714C28.5874 10.1585 28.4835 12.3202 27.9001 12.4241C27.3167 12.528 26.4816 10.5301 26.03 7.96875C25.5785 5.40741 25.6864 3.24565 26.2658 3.14575C26.8452 3.04586 27.6843 5.03579 28.1358 7.59714Z" fill="#F6B21A"/>
      <path d="M28.1079 7.60512C28.5435 10.0865 28.4396 12.1804 27.8761 12.2803C27.3127 12.3802 26.4976 10.4462 26.062 7.96474C25.6265 5.48332 25.7264 3.38549 26.2898 3.28559C26.8532 3.1857 27.6644 5.11969 28.1079 7.60512Z" fill="#F6B119"/>
      <path d="M28.0639 7.60912C28.4915 10.0066 28.3916 12.0445 27.8441 12.1404C27.2967 12.2363 26.5095 10.3623 26.086 7.95676C25.6624 5.55126 25.7623 3.52136 26.3057 3.42546C26.8492 3.32956 27.6643 5.20362 28.0639 7.60912Z" fill="#F6B018"/>
      <path d="M28.064 7.61312C28.4636 9.94271 28.3757 11.9087 27.8482 12.0086C27.3208 12.1085 26.5576 10.2903 26.146 7.96076C25.7344 5.63118 25.8303 3.66921 26.3618 3.56532C26.8932 3.46143 27.6324 5.28753 28.064 7.61312Z" fill="#F6AF18"/>
      <path d="M28.0121 7.6211C28.4116 9.87077 28.3117 11.7688 27.8003 11.8607C27.2888 11.9526 26.5536 10.1984 26.158 7.94477C25.7624 5.6911 25.8543 3.79706 26.3658 3.70516C26.8772 3.61325 27.6165 5.35944 28.0121 7.6211Z" fill="#F5AE17"/>
      <path d="M27.98 7.62511C28.3796 9.79885 28.2717 11.621 27.7762 11.7169C27.2807 11.8128 26.5774 10.1185 26.1779 7.94078C25.7783 5.76304 25.8862 3.94492 26.3776 3.84502C26.8691 3.74513 27.5964 5.45136 27.98 7.62511Z" fill="#F5AD16"/>
      <path d="M27.9481 7.6331C28.3158 9.72693 28.2279 11.4971 27.7523 11.577C27.2768 11.6569 26.5895 10.0306 26.2219 7.93679C25.8543 5.84296 25.9382 4.07279 26.4177 3.98888C26.8972 3.90497 27.5765 5.53528 27.9481 7.6331Z" fill="#F5AC15"/>
      <path d="M27.9121 7.63708C28.2717 9.63501 28.1838 11.3572 27.7283 11.4371C27.2727 11.5171 26.6094 9.94668 26.2538 7.92878C25.8982 5.91087 25.9821 4.20863 26.4416 4.12871C26.9011 4.0488 27.5565 5.61917 27.9121 7.63708Z" fill="#F5AB14"/>
      <path d="M27.8842 7.64109C28.2238 9.58308 28.1439 11.2174 27.7003 11.2973C27.2568 11.3772 26.6255 9.86279 26.2858 7.9248C25.9462 5.98681 26.0221 4.32853 26.4656 4.26859C26.9092 4.20865 27.5405 5.7031 27.8842 7.64109Z" fill="#F5AA14"/>
      <path d="M27.8482 7.64906C28.1799 9.51113 28.1 11.0815 27.6804 11.1574C27.2608 11.2333 26.6455 9.78285 26.3178 7.91679C25.9901 6.05072 26.0661 4.48434 26.4896 4.40842C26.9132 4.3325 27.5206 5.78699 27.8482 7.64906Z" fill="#F4A813"/>
      <path d="M27.8202 7.65308C28.1318 9.43923 28.0599 10.9457 27.6523 11.0176C27.2448 11.0895 26.6654 9.69896 26.3497 7.91281C26.034 6.12666 26.1099 4.62023 26.5135 4.5523C26.9171 4.48437 27.5045 5.86693 27.8202 7.65308Z" fill="#F4A712"/>
      <path d="M27.7842 7.66105C28.0879 9.36728 28.016 10.8058 27.6284 10.8577C27.2408 10.9097 26.6814 9.59904 26.3817 7.89281C26.082 6.18658 26.1499 4.74407 26.5375 4.67614C26.9251 4.60821 27.4845 5.95082 27.7842 7.66105Z" fill="#F4A611"/>
      <path d="M27.7563 7.66506C28.044 9.29537 27.9721 10.6699 27.6044 10.7339C27.2368 10.7978 26.7014 9.53513 26.4057 7.90082C26.11 6.26651 26.1859 4.89593 26.5575 4.832C26.9291 4.76807 27.4686 6.03475 27.7563 7.66506Z" fill="#F4A510"/>
      <path d="M27.7203 7.67304C27.996 9.22344 27.9321 10.5341 27.5805 10.594C27.2288 10.654 26.7174 9.4472 26.4456 7.89681C26.1739 6.34642 26.2379 5.03578 26.5895 4.97184C26.9411 4.90791 27.4486 6.11865 27.7203 7.67304Z" fill="#F4A410"/>
      <path d="M27.6923 7.67706C27.9481 9.15154 27.8881 10.3942 27.5525 10.4742C27.2168 10.5541 26.7533 9.3833 26.4776 7.90882C26.2019 6.43435 26.2778 5.19164 26.6135 5.1317C26.9491 5.07176 27.4286 6.20259 27.6923 7.67706Z" fill="#F4A30F"/>
      <path d="M27.6644 7.68104C27.9121 9.07959 27.8562 10.2584 27.5365 10.3143C27.2168 10.3703 26.7613 9.28338 26.5176 7.88483C26.2738 6.48628 26.3298 5.31149 26.6454 5.25155C26.9611 5.19162 27.4126 6.28648 27.6644 7.68104Z" fill="#F3A20E"/>
      <path d="M27.6284 7.68904C27.8602 9.00768 27.8042 10.1185 27.5045 10.1745C27.2048 10.2304 26.7733 9.19948 26.5415 7.87685C26.3098 6.55422 26.3617 5.44736 26.6614 5.39542C26.9611 5.34347 27.3926 6.36641 27.6284 7.68904Z" fill="#F3A10D"/>
      <path d="M27.5965 7.69302C27.8162 8.93573 27.7643 9.98265 27.4806 10.0346C27.1969 10.0865 26.7933 9.11555 26.5735 7.87283C26.3537 6.63012 26.4057 5.5832 26.6854 5.53525C26.9651 5.4873 27.3767 6.45031 27.5965 7.69302Z" fill="#F3A00C"/>
      <path d="M27.5645 7.70103C27.7683 8.86382 27.7203 9.8468 27.4566 9.89076C27.1929 9.93471 26.8093 9.03165 26.6055 7.86885C26.4017 6.70606 26.4456 5.72308 26.7134 5.67513C26.9811 5.62718 27.3567 6.53424 27.5645 7.70103Z" fill="#F39F0C"/>
      <path d="M27.5285 7.70502C27.7203 8.79189 27.6763 9.70295 27.4286 9.7509C27.1808 9.79885 26.8292 8.95173 26.6294 7.86086C26.4296 6.76999 26.4815 5.86293 26.7293 5.81498C26.977 5.76703 27.3407 6.61815 27.5285 7.70502Z" fill="#F39E0B"/>
      <path d="M27.5005 7.70901C27.6763 8.71996 27.6364 9.57108 27.4046 9.61104C27.1728 9.65099 26.8452 8.86381 26.6693 7.85685C26.4935 6.8499 26.5335 5.99478 26.7613 5.95483C26.989 5.91487 27.3207 6.70205 27.5005 7.70901Z" fill="#F29C0A"/>
      <path d="M27.4686 7.71699C27.6324 8.64803 27.5924 9.43521 27.3806 9.47117C27.1689 9.50714 26.8652 8.78388 26.7013 7.84885C26.5375 6.91382 26.5735 6.13463 26.7853 6.09467C26.997 6.05471 27.3007 6.78596 27.4686 7.71699Z" fill="#F29B09"/>
      <path d="M27.4366 7.72101C27.5844 8.57613 27.5485 9.29538 27.3567 9.31936C27.1649 9.34333 26.8812 8.68801 26.7333 7.8329C26.5855 6.97778 26.6174 6.25853 26.8132 6.23455C27.009 6.21058 27.2847 6.8659 27.4366 7.72101Z" fill="#F29A08"/>
      <path d="M27.4046 7.729C27.5405 8.5042 27.5085 9.15952 27.3327 9.19149C27.1569 9.22345 26.9012 8.61608 26.7653 7.84088C26.6294 7.06569 26.6574 6.40637 26.8372 6.3784C27.017 6.35043 27.2648 6.9578 27.4046 7.729Z" fill="#F29907"/>
      <path d="M27.3726 7.73299C27.4925 8.43227 27.4645 9.01966 27.3087 9.04763C27.1529 9.0756 26.9091 8.53217 26.7972 7.84887C26.6854 7.16558 26.7013 6.56221 26.8612 6.53424C27.021 6.50626 27.2648 7.03372 27.3726 7.73299Z" fill="#F29807"/>
      <path d="M27.3407 7.75696C27.4485 8.38031 27.4206 8.90377 27.2807 8.92774C27.1409 8.95172 26.9371 8.46822 26.8292 7.84886C26.7213 7.2295 26.7453 6.70205 26.8851 6.67807C27.025 6.6541 27.2288 7.11762 27.3407 7.75696Z" fill="#F19706"/>
      <path d="M27.3087 7.75697C27.4046 8.3004 27.3806 8.75593 27.2567 8.77991C27.1328 8.80388 26.957 8.38032 26.8571 7.83289C26.7572 7.28545 26.7812 6.83392 26.9051 6.80995C27.029 6.78597 27.2128 7.20154 27.3087 7.75697Z" fill="#F19605"/>
      <path d="M27.2648 7.75696C27.3447 8.22448 27.3247 8.61607 27.2208 8.63605C27.1169 8.65603 26.9611 8.29241 26.8812 7.83688C26.8013 7.38135 26.8172 6.97777 26.9251 6.95779C27.033 6.93781 27.1929 7.28545 27.2648 7.75696Z" fill="#F19504"/>
      <path d="M27.2648 7.75696C27.3328 8.15655 27.3168 8.47222 27.2289 8.48421C27.141 8.49619 27.0131 8.2005 26.9452 7.8129C26.8772 7.4253 26.8932 7.09365 26.9811 7.08166C27.069 7.06967 27.1729 7.35737 27.2648 7.75696Z" fill="#F19303"/>
      <path d="M27.2129 7.75697C27.2648 8.06864 27.2528 8.32837 27.1809 8.34036C27.109 8.35235 27.0091 8.1126 26.9572 7.80092C26.9052 7.48924 26.9132 7.22951 26.9851 7.21753C27.0571 7.20554 27.1569 7.44929 27.2129 7.75697Z" fill="#F19202"/>
      <path d="M27.1808 7.75697C27.2208 7.99273 27.2128 8.18852 27.1568 8.19652C27.1009 8.20451 27.029 8.02469 26.989 7.79693C26.9491 7.56917 26.957 7.36937 27.009 7.35739C27.0609 7.3454 27.1369 7.5332 27.1808 7.75697Z" fill="#F09102"/>
      <path d="M27.1489 7.75697C27.1728 7.91281 27.1489 8.04068 27.1489 8.04867C27.1489 8.05666 27.0649 7.93279 27.037 7.77695C27.009 7.62111 27.037 7.49324 27.037 7.48525C27.037 7.47726 27.1209 7.61711 27.1489 7.75697Z" fill="#F71E1E"/>
      <path d="M27.1129 7.77694C27.1129 7.85685 27.1129 7.92079 27.1129 7.92478C27.1129 7.92878 27.069 7.86485 27.057 7.78893C27.045 7.713 27.057 7.64507 27.057 7.64108C27.057 7.63708 27.1009 7.70102 27.1129 7.77694Z" fill="#F08F00"/>
    </g>
    <mask id="mask1_13_18534" style="mask-type:luminance" maskUnits="userSpaceOnUse" x="3" y="2" width="6" height="12">
      <path d="M8.92382 2.42252C8.92382 2.42252 5.2796 2.42252 4.90398 4.3685C4.54436 6.20659 3.94897 13.3152 3.94897 13.3152L6.34649 13.0755L8.92382 2.42252Z" fill="white"/>
    </mask>
    <g mask="url(#mask1_13_18534)">
      <path d="M8.92382 2.42252H3.94897V13.3152H8.92382V2.42252Z" fill="#F08F00"/>
      <path d="M4.99994 6.28652C4.08489 11.4811 3.87311 15.8007 4.52443 15.9165C5.17576 16.0324 6.45044 11.9207 7.36949 6.70209C7.77815 4.48024 8.05302 2.23586 8.19263 -0.018942V2.02294H6.52236V-0.314636C5.88511 1.85379 5.37675 4.05803 4.99994 6.28652Z" fill="#F08F00"/>
      <path d="M5.01591 6.2905C4.10885 11.4332 3.89707 15.6928 4.5444 15.8046C5.19173 15.9165 6.45042 11.8447 7.3415 6.70207C7.74301 4.50477 8.01652 2.28599 8.16065 0.0569563V2.02292H6.50237V-0.234741C5.8784 1.90906 5.38205 4.08796 5.01591 6.2905Z" fill="#F71E1E"/>
      <path d="M5.02785 6.29051C4.13278 11.3732 3.92499 15.5809 4.56433 15.6968C5.20367 15.8126 6.44638 11.7808 7.34145 6.69808C7.73716 4.52737 8.00401 2.33514 8.14062 0.132886V2.02293H6.50232V-0.154816C5.88632 1.96323 5.394 4.1153 5.02785 6.29051Z" fill="#F09102"/>
      <path d="M5.04391 6.29451C4.15683 11.3133 3.95305 15.485 4.58439 15.5849C5.21574 15.6848 6.44247 11.7169 7.32555 6.6941C7.7199 4.55003 7.98676 2.38447 8.12472 0.208816V2.02294H6.52638V-0.0748901C5.90672 2.01706 5.41169 4.14393 5.04391 6.29451Z" fill="#F19202"/>
      <path d="M5.05586 6.2945C4.18077 11.2534 3.98097 15.3651 4.60433 15.485C5.22768 15.6049 6.43843 11.6649 7.31353 6.69409C7.70595 4.58062 7.97281 2.44575 8.1127 0.300716V2.03891H6.51435V0.0409851C5.90506 2.09484 5.41804 4.18301 5.05586 6.2945Z" fill="#F19303"/>
      <path d="M5.06778 6.29849C4.20867 11.1974 4.00888 15.2532 4.62424 15.3491C5.2396 15.445 6.43836 11.577 7.29747 6.6781C7.68464 4.59105 7.94749 2.48286 8.08466 0.364641V2.02292H6.48631V0.0849304C5.89175 2.12643 5.41808 4.20122 5.06778 6.29849Z" fill="#F19504"/>
      <path d="M5.08388 6.3025C4.23276 11.1375 4.03296 15.1453 4.64433 15.2492C5.2557 15.3531 6.43447 11.5251 7.28559 6.69009C7.66326 4.62371 7.91943 2.53695 8.0528 0.44057V2.03891H6.48642V0.164856C5.8984 2.18132 5.43007 4.23077 5.08388 6.3025Z" fill="#F19605"/>
      <path d="M5.09586 6.3025C4.25673 11.0975 4.06093 15.0335 4.66031 15.1413C5.25969 15.2492 6.43048 11.4612 7.26961 6.68611C7.64522 4.64651 7.89874 2.58631 8.02882 0.516499V2.02294H6.48642V0.244781C5.9057 2.23531 5.44139 4.25798 5.09586 6.3025Z" fill="#F19706"/>
      <path d="M5.1118 6.30648C4.28067 11.0176 4.08886 14.9255 4.68025 15.0294C5.27164 15.1333 6.42644 11.3972 7.25758 6.68609C7.62788 4.67157 7.8774 2.63671 8.00481 0.592401V2.02292H6.48638V0.328674C5.91174 2.29269 5.45276 4.28872 5.1118 6.30648Z" fill="#F29807"/>
      <path d="M5.12375 6.31047C4.3046 10.9616 4.11679 14.8137 4.70019 14.9175C5.28358 15.0214 6.4224 11.3213 7.24155 6.68208C7.60691 4.70063 7.85376 2.69914 7.98079 0.688295V2.0389H6.48634V0.440552C5.91598 2.3684 5.46098 4.32851 5.12375 6.31047Z" fill="#F29907"/>
      <path d="M5.13979 6.31049C4.34062 10.9017 4.14482 14.7018 4.7402 14.8057C5.33559 14.9096 6.44244 11.2694 7.2496 6.67811C7.6085 4.71752 7.85133 2.73746 7.97685 0.748254V2.02293H6.48639V0.484528C5.92461 2.39868 5.47498 4.34397 5.13979 6.31049Z" fill="#F29A08"/>
      <path d="M5.1518 6.31446C4.35263 10.8418 4.16882 14.5979 4.75222 14.7058C5.33561 14.8137 6.43048 11.2134 7.22566 6.68608C7.58252 4.75095 7.8227 2.79611 7.94491 0.832145V2.0309H6.48642V0.564423C5.92853 2.4531 5.48288 4.37314 5.1518 6.31446Z" fill="#F29B09"/>
      <path d="M5.16773 6.31447C4.36856 10.7858 4.19673 14.486 4.76814 14.5859C5.33955 14.6858 6.42243 11.1415 7.20961 6.6741C7.55847 4.76485 7.79595 2.83692 7.92087 0.900086V2.02292H6.48636V0.648346C5.93556 2.50942 5.49525 4.40143 5.16773 6.31447Z" fill="#F29C0A"/>
      <path d="M5.17977 6.31848C4.40457 10.7139 4.22476 14.3781 4.78018 14.474C5.33561 14.5699 6.41049 11.0775 7.1777 6.67411C7.52744 4.78648 7.76494 2.87977 7.88896 0.964027V2.01094H6.48642V0.728271C5.94062 2.56417 5.5043 4.43086 5.17977 6.31848Z" fill="#F39E0B"/>
      <path d="M5.19576 6.32247C4.42855 10.666 4.25273 14.2702 4.79617 14.3661C5.33961 14.462 6.39452 11.0176 7.16971 6.67011C7.51015 4.82062 7.74098 2.95263 7.86099 1.07591V2.0429H6.48642V0.844147C5.94833 2.64315 5.51736 4.47246 5.19576 6.32247Z" fill="#F39F0C"/>
      <path d="M5.20767 6.32246C4.45246 10.61 4.28064 14.1583 4.80809 14.2542C5.33554 14.3501 6.40643 10.9537 7.14966 6.66211C7.4871 4.83121 7.71527 2.98186 7.83295 1.12385V2.01892H6.45438V0.888092C5.93321 2.67369 5.51694 4.48825 5.20767 6.32246Z" fill="#F3A00C"/>
      <path d="M5.22366 6.32646C4.48842 10.5541 4.30861 14.0505 4.84006 14.1504C5.37151 14.2503 6.40244 10.8977 7.14567 6.6741C7.47753 4.86958 7.7017 3.04691 7.81698 1.21576V2.01493H6.45838V0.96402C5.93968 2.72513 5.52737 4.51585 5.22366 6.32646Z" fill="#F3A10D"/>
      <path d="M5.23971 6.33047C4.50447 10.4902 4.33265 13.9226 4.84012 14.0305C5.3476 14.1384 6.38252 10.8338 7.11377 6.66212C7.44159 4.8841 7.66308 3.0881 7.77707 1.2837V2.02293H6.43846V1.04794C5.93345 2.78319 5.53314 4.54721 5.23971 6.33047Z" fill="#F3A20E"/>
      <path d="M5.25166 6.33048C4.52841 10.4342 4.36058 13.8307 4.87605 13.9226C5.39151 14.0145 6.39447 10.7619 7.11772 6.65814C7.4383 4.90757 7.65578 3.13969 7.76905 1.36362V2.02694H6.45042V1.12787C5.94697 2.83649 5.54666 4.57383 5.25166 6.33048Z" fill="#F4A30F"/>
      <path d="M5.2636 6.33446C4.55234 10.3743 4.38851 13.7228 4.89598 13.8107C5.40346 13.8986 6.39443 10.6979 7.10569 6.65812C7.42112 4.93132 7.63459 3.18744 7.74503 1.43554V2.02293H6.44637V1.22375C5.95155 2.90247 5.5566 4.60903 5.2636 6.33446Z" fill="#F4A410"/>
      <path d="M5.28758 6.33846C4.58831 10.3143 4.42447 13.6109 4.92396 13.6988C5.42344 13.7867 6.39843 10.634 7.0977 6.65413C7.79698 2.67426 7.96081 -0.622327 7.46133 -0.710236V2.02293H6.45038V1.28769C5.96262 2.94665 5.57433 4.63323 5.28758 6.33846Z" fill="#F4A510"/>
      <path d="M5.28756 6.33844C4.60027 10.2544 4.44044 13.503 4.93193 13.5869C5.42342 13.6708 6.38242 10.5701 7.07371 6.65012C7.76499 2.73018 7.92083 -0.51446 7.42934 -0.598373C6.93785 -0.682286 5.98284 2.4185 5.28756 6.33844Z" fill="#F4A611"/>
      <path d="M5.30756 6.34245C4.62826 10.1985 4.46843 13.3951 4.95592 13.4791C5.44342 13.563 6.38245 10.5061 7.06174 6.65013C7.74104 2.79413 7.90087 -0.402557 7.41338 -0.48647C6.92588 -0.570383 5.98686 2.48245 5.30756 6.34245Z" fill="#F4A712"/>
      <path d="M5.3196 6.34245C4.6523 10.1545 4.48847 13.2833 4.97197 13.3512C5.45547 13.4191 6.37851 10.4262 7.04981 6.63015C7.72112 2.83409 7.86896 -0.306658 7.39346 -0.394567C6.91795 -0.482475 5.98691 2.56237 5.3196 6.34245Z" fill="#F4A813"/>
      <path d="M5.33548 6.34646C4.67617 10.0786 4.53632 13.1714 4.99584 13.2553C5.45536 13.3392 6.3784 10.3783 7.03372 6.64614C7.68904 2.91401 7.8329 -0.182779 7.37337 -0.266692C6.91385 -0.350605 5.9908 2.61033 5.33548 6.34646Z" fill="#F5AA14"/>
      <path d="M5.34756 6.34644C4.70423 10.0186 4.54839 13.0635 5.01191 13.1394C5.47543 13.2153 6.3745 10.3103 7.00984 6.63813C7.64518 2.96594 7.80901 -0.0789044 7.34549 -0.154826C6.88197 -0.230747 5.99489 2.67424 5.34756 6.34644Z" fill="#F5AB14"/>
      <path d="M5.36349 6.35043C4.72415 9.9467 4.56432 12.9556 5.03183 13.0355C5.49935 13.1154 6.37045 10.2384 7.00579 6.64212C7.64113 3.04585 7.80496 0.0409653 7.33345 -0.0389519C6.86193 -0.118869 5.99883 2.73817 5.36349 6.35043Z" fill="#F5AC15"/>
      <path d="M5.37557 6.35044C4.75221 9.90276 4.60437 12.8437 5.0519 12.9236C5.49944 13.0035 6.36654 10.1865 6.99389 6.63814C7.62124 3.08982 7.76509 0.14487 7.31756 0.0649526C6.87002 -0.0149645 6.00292 2.80212 5.37557 6.35044Z" fill="#F5AD16"/>
      <path d="M5.39151 6.35444C4.77615 9.84682 4.6323 12.7478 5.07184 12.8117C5.51139 12.8757 6.3665 10.1265 6.97786 6.63415C7.58923 3.14177 7.73308 0.240776 7.29753 0.176842C6.86199 0.112908 6.00287 2.86606 5.39151 6.35444Z" fill="#F5AE17"/>
      <path d="M5.40345 6.35843C4.80008 9.78688 4.66022 12.6279 5.09178 12.7039C5.52333 12.7798 6.36246 10.0626 6.96584 6.63415C7.56921 3.2057 7.70907 0.364645 7.27751 0.288723C6.84596 0.212802 6.00683 2.92999 5.40345 6.35843Z" fill="#F6AF18"/>
      <path d="M5.41952 6.35842C4.82414 9.72693 4.68828 12.516 5.11184 12.592C5.5354 12.6679 6.35855 9.99865 6.94993 6.63014C7.54132 3.26163 7.68117 0.472518 7.25761 0.400592C6.83405 0.328667 6.01091 2.9939 5.41952 6.35842Z" fill="#F6B018"/>
      <path d="M5.43144 6.36244C4.85204 9.66701 4.71618 12.4082 5.13175 12.4801C5.54732 12.552 6.35448 9.93473 6.93388 6.62616C7.51328 3.31759 7.65314 0.584424 7.23757 0.508503C6.822 0.432582 6.01484 3.05786 5.43144 6.36244Z" fill="#F6B119"/>
      <path d="M5.44743 6.36643C4.87203 9.61107 4.74017 12.2963 5.15174 12.3602C5.56332 12.4242 6.3505 9.86281 6.9219 6.61817C7.49331 3.37354 7.62518 0.684322 7.2176 0.624384C6.81002 0.564447 6.01884 3.1218 5.44743 6.36643Z" fill="#F6B21A"/>
      <path d="M5.4594 6.36643C4.89998 9.56312 4.76812 12.1884 5.1677 12.2603C5.56729 12.3322 6.36646 9.80686 6.9099 6.62216C7.45333 3.43746 7.60118 0.800197 7.20159 0.732267C6.80201 0.664338 6.02282 3.18573 5.4594 6.36643Z" fill="#F6B31B"/>
      <path d="M5.47147 6.37041C4.92403 9.49118 4.79616 12.0805 5.18776 12.1484C5.57935 12.2164 6.34656 9.75091 6.89399 6.62215C7.44142 3.4934 7.57328 0.912072 7.17769 0.844142C6.7821 0.776212 6.02289 3.24565 5.47147 6.37041Z" fill="#F7B41C"/>
      <path d="M5.48741 6.37441C4.94796 9.43523 4.82409 11.9686 5.2077 12.0365C5.5913 12.1045 6.34252 9.67898 6.88196 6.61815C7.4214 3.55733 7.54527 1.02395 7.16167 0.952024C6.77807 0.880099 6.02685 3.31358 5.48741 6.37441Z" fill="#F7B51C"/>
      <path d="M5.50335 6.37442C4.9719 9.37531 4.85203 11.8607 5.22764 11.9247C5.60325 11.9886 6.33848 9.61507 6.86594 6.61417C7.39339 3.61328 7.51726 1.13186 7.14165 1.06393C6.76604 0.995997 6.0308 3.36155 5.50335 6.37442Z" fill="#F7B61D"/>
      <path d="M5.51534 6.3784C4.99988 9.31536 4.88799 11.7528 5.24761 11.8168C5.60724 11.8807 6.33449 9.55111 6.84596 6.62215C7.35743 3.69318 7.4813 1.24772 7.11368 1.18378C6.74607 1.11985 6.0348 3.44145 5.51534 6.3784Z" fill="#F7B71E"/>
      <path d="M5.53137 6.37841C5.02389 9.25543 4.90401 11.641 5.26764 11.7049C5.63126 11.7688 6.33054 9.48719 6.83801 6.61017C7.34549 3.73315 7.46536 1.34762 7.10174 1.28369C6.73811 1.21976 6.03884 3.50139 5.53137 6.37841Z" fill="#F7B91F"/>
      <path d="M5.54331 6.3824C5.04782 9.1795 4.93194 11.5331 5.28757 11.577C5.6432 11.621 6.33049 9.40727 6.82598 6.59019C7.32147 3.77311 7.43735 1.44352 7.08172 1.39557C6.72608 1.34762 6.03879 3.56532 5.54331 6.3824Z" fill="#F8BA20"/>
      <path d="M5.55937 6.38641C5.07187 9.13955 4.95999 11.4212 5.30763 11.4811C5.65527 11.5411 6.32658 9.35932 6.81008 6.60618C7.29357 3.85303 7.40946 1.5674 7.06182 1.50746C6.71418 1.44752 6.04287 3.62926 5.55937 6.38641Z" fill="#F8BB20"/>
      <path d="M5.57136 6.3864C5.09585 9.0796 4.98796 11.3133 5.32361 11.3732C5.65927 11.4332 6.32258 9.29538 6.79809 6.60217C7.2736 3.90896 7.38148 1.67927 7.04184 1.61934C6.70219 1.5594 6.04687 3.69319 5.57136 6.3864Z" fill="#F8BC21"/>
      <path d="M5.58728 6.3904C5.12377 9.01967 5.01588 11.1854 5.34354 11.2613C5.6712 11.3373 6.31853 9.23545 6.78205 6.60218C7.24557 3.96891 7.35345 1.80715 7.0218 1.72723C6.69014 1.64731 6.0508 3.76112 5.58728 6.3904Z" fill="#F8BD22"/>
      <path d="M5.59925 6.3944C5.14772 8.96373 5.03983 11.0935 5.3635 11.1495C5.68716 11.2054 6.31452 9.15154 6.77004 6.59818C7.22557 4.04483 7.32946 1.89905 7.0058 1.83912C6.68213 1.77918 6.05079 3.82106 5.59925 6.3944Z" fill="#F8BE23"/>
      <path d="M5.61132 6.39441C5.17177 8.90381 5.06788 10.9856 5.38355 11.0376C5.69923 11.0895 6.31459 9.10759 6.75413 6.5942C7.19368 4.0808 7.30156 2.00695 6.98589 1.95101C6.67022 1.89507 6.05486 3.88501 5.61132 6.39441Z" fill="#F8BF23"/>
      <path d="M5.62726 6.39839C5.19571 8.84785 5.09581 10.8737 5.40349 10.9297C5.71117 10.9856 6.31055 9.03965 6.74211 6.59418C7.17366 4.14872 7.27355 2.11483 6.96587 2.06288C6.65819 2.01093 6.05882 3.94892 5.62726 6.39839Z" fill="#F9C024"/>
      <path d="M5.63929 6.39838C5.23971 8.7959 5.12382 10.7659 5.42351 10.8178C5.7232 10.8697 6.3066 8.97571 6.73016 6.59018C7.15372 4.20465 7.24562 2.2267 6.94593 2.17076C6.64624 2.11482 6.06285 4.01285 5.63929 6.39838Z" fill="#F9C125"/>
      <path d="M5.65522 6.40239C5.25564 8.72798 5.15175 10.654 5.44344 10.7059C5.73514 10.7579 6.30256 8.91578 6.71413 6.5862C7.1257 4.25661 7.21761 2.3346 6.92591 2.28266C6.63421 2.23071 6.08678 4.0768 5.65522 6.40239Z" fill="#F9C226"/>
      <path d="M5.68714 6.40637C5.28755 8.66803 5.19565 10.5461 5.48335 10.598C5.77105 10.65 6.32248 8.85184 6.72206 6.60217C7.12165 4.3525 7.21356 2.45846 6.92586 2.41051C6.63816 2.36256 6.08672 4.1607 5.68714 6.40637Z" fill="#F9C326"/>
      <path d="M5.68719 6.40639C5.2876 8.6121 5.20769 10.4382 5.4834 10.4862C5.75911 10.5341 6.30255 8.78792 6.68216 6.5822C7.06176 4.37649 7.16166 2.55438 6.88195 2.50643C6.60224 2.45848 6.08677 4.20467 5.68719 6.40639Z" fill="#F9C427"/>
      <path d="M5.68717 6.41037C5.31156 8.55215 5.22365 10.3263 5.49537 10.3743C5.76709 10.4222 6.29454 8.72397 6.66216 6.58219C7.02978 4.44041 7.12967 2.66225 6.85795 2.6143C6.58624 2.56635 6.08676 4.26859 5.68717 6.41037Z" fill="#FAC528"/>
      <path d="M5.71121 6.41039C5.34359 8.49223 5.25968 10.2184 5.51941 10.2624C5.77914 10.3064 6.29061 8.66405 6.65823 6.57821C7.02585 4.49238 7.10976 2.77416 6.85003 2.72621C6.5903 2.67826 6.08682 4.33254 5.71121 6.41039Z" fill="#FAC629"/>
      <path d="M5.72315 6.41438C5.36752 8.43628 5.28761 10.1066 5.53935 10.1545C5.79109 10.2025 6.28657 8.59612 6.6422 6.55823C6.99783 4.52034 7.08175 2.86206 6.83001 2.8181C6.57827 2.77415 6.08678 4.39647 5.72315 6.41438Z" fill="#FAC729"/>
      <path d="M5.73908 6.41436C5.39544 8.37633 5.31552 10.0106 5.55926 10.0426C5.80301 10.0746 6.28651 8.53217 6.63016 6.57419C6.9738 4.61622 7.05372 2.97792 6.80997 2.94595C6.56622 2.91399 6.08672 4.45639 5.73908 6.41436Z" fill="#FAC82A"/>
      <path d="M5.75109 6.41837C5.41943 8.3164 5.3515 9.89077 5.57927 9.93073C5.80703 9.97069 6.28254 8.46825 6.6142 6.57021C6.94585 4.67218 7.01378 3.10181 6.79001 3.05785C6.56624 3.0139 6.08674 4.52034 5.75109 6.41837Z" fill="#FAC92B"/>
      <path d="M5.76711 6.42238C5.44345 8.25648 5.36753 9.7789 5.59929 9.81886C5.83105 9.85882 6.27858 8.40432 6.60225 6.57022C6.92591 4.73613 7.00184 3.20971 6.77008 3.16975C6.53832 3.12979 6.08678 4.58428 5.76711 6.42238Z" fill="#FACA2C"/>
      <path d="M5.77905 6.42237C5.46737 8.20053 5.37947 9.671 5.61922 9.71096C5.85897 9.75092 6.27454 8.34038 6.58621 6.56622C6.89789 4.79206 6.9858 3.32158 6.75005 3.28162C6.51429 3.24166 6.08673 4.64821 5.77905 6.42237Z" fill="#FBCB2C"/>
      <path d="M5.79512 6.42636C5.49144 8.14058 5.42351 9.56311 5.63928 9.59907C5.85506 9.63504 6.27063 8.27644 6.57431 6.56622C6.878 4.85599 6.94593 3.42947 6.73015 3.36953C6.51438 3.30959 6.08682 4.71214 5.79512 6.42636Z" fill="#FBCC2D"/>
      <path d="M5.80707 6.43037C5.51538 8.08066 5.45144 9.45124 5.65922 9.4872C5.86701 9.52317 6.27059 8.21252 6.56229 6.56223C6.85399 4.91194 6.91792 3.54136 6.71014 3.50141C6.50235 3.46145 6.08678 4.77609 5.80707 6.43037Z" fill="#FBCD2E"/>
      <path d="M5.82306 6.43037C5.54335 8.02871 5.47543 9.33936 5.67522 9.37532C5.87501 9.41128 6.2666 8.14859 6.54631 6.57822C6.82602 5.00784 6.89396 3.66923 6.69416 3.63327C6.49437 3.59731 6.08679 4.84002 5.82306 6.43037Z" fill="#FBCE2F"/>
      <path d="M5.835 6.43437C5.56728 7.96478 5.50335 9.23147 5.69515 9.26743C5.88695 9.30339 6.26256 8.06867 6.53428 6.55824C6.80599 5.0478 6.86594 3.76114 6.67014 3.72517C6.47434 3.68921 6.10672 4.90395 5.835 6.43437Z" fill="#FBCF2F"/>
      <path d="M5.85107 6.43836C5.59134 7.90484 5.5314 9.12357 5.71521 9.15554C5.89902 9.18751 6.25864 8.02471 6.51438 6.55424C6.77011 5.08376 6.83405 3.86902 6.65024 3.83306C6.46643 3.79709 6.1068 4.95989 5.85107 6.43836Z" fill="#FBD030"/>
      <path d="M5.86301 6.43836C5.61527 7.8489 5.55932 9.01169 5.73514 9.04366C5.91096 9.07563 6.2586 7.96078 6.50634 6.55024C6.75409 5.13971 6.81003 3.97691 6.63421 3.94494C6.45839 3.91298 6.11075 5.03182 5.86301 6.43836Z" fill="#FCD131"/>
      <path d="M5.87895 6.44236C5.6392 7.78896 5.58726 8.90381 5.75508 8.93578C5.92291 8.96774 6.25456 7.89685 6.49032 6.53826C6.72607 5.17967 6.78202 4.07281 6.61419 4.04484C6.44637 4.01687 6.11471 5.09575 5.87895 6.44236Z" fill="#FCD232"/>
      <path d="M5.89102 6.44234C5.66726 7.72901 5.61132 8.7959 5.77515 8.83986C5.93898 8.88381 6.25065 7.84889 6.47842 6.56222C6.70618 5.27555 6.75813 4.21265 6.5943 4.18468C6.43047 4.15671 6.11879 5.15967 5.89102 6.44234Z" fill="#FCD332"/>
      <path d="M5.90697 6.44636C5.69119 7.66909 5.63924 8.68404 5.79508 8.71201C5.95092 8.73998 6.24661 7.757 6.46239 6.55824C6.67817 5.35948 6.73011 4.32056 6.57427 4.29259C6.41844 4.26462 6.12274 5.22362 5.90697 6.44636Z" fill="#FCD433"/>
      <path d="M5.91891 6.45033C5.71512 7.61312 5.66717 8.57613 5.81502 8.6001C5.96287 8.62408 6.24257 7.70503 6.45036 6.54223C6.65814 5.37944 6.7021 4.41644 6.55425 4.38846C6.4064 4.36049 6.1227 5.28753 5.91891 6.45033Z" fill="#FCD534"/>
      <path d="M5.9349 6.45035C5.7391 7.5532 5.69515 8.44828 5.83101 8.49223C5.96687 8.53619 6.23059 7.64111 6.43438 6.53826C6.63817 5.4354 6.67413 4.54033 6.53428 4.50037C6.39442 4.46041 6.1267 5.35948 5.9349 6.45035Z" fill="#FCD634"/>
      <path d="M5.94696 6.45432C5.76315 7.49325 5.7232 8.35635 5.85106 8.38033C5.97893 8.4043 6.25065 7.58116 6.42247 6.53824C6.59429 5.49532 6.64624 4.63221 6.51438 4.60824C6.38251 4.58426 6.13077 5.4114 5.94696 6.45432Z" fill="#FDD735"/>
      <path d="M5.9629 6.45434C5.78709 7.43732 5.75112 8.24848 5.871 8.26846C5.99088 8.28844 6.23462 7.51324 6.40644 6.53426C6.57827 5.55527 6.62222 4.74411 6.49835 4.72413C6.37448 4.70416 6.13473 5.47536 5.9629 6.45434Z" fill="#FDD736"/>
      <path d="M5.97486 6.45832C5.81503 7.37737 5.77506 8.13658 5.89094 8.15656C6.00682 8.17654 6.2306 7.44929 6.39443 6.53025C6.55826 5.6112 6.59422 4.85199 6.47834 4.83201C6.36246 4.81203 6.13469 5.53927 5.97486 6.45832Z" fill="#FDD836"/>
      <path d="M5.99092 6.46233C5.83908 7.31745 5.80312 8.02871 5.911 8.06068C6.01889 8.09264 6.23067 7.39736 6.37852 6.54225C6.52637 5.68714 6.56632 4.97587 6.45844 4.94391C6.35055 4.91194 6.13877 5.60322 5.99092 6.46233Z" fill="#FDD937"/>
      <path d="M6.00286 6.46233C5.86301 7.2615 5.83104 7.92082 5.93094 7.9368C6.03083 7.95278 6.22663 7.32144 6.36649 6.52626C6.50634 5.73108 6.53831 5.07177 6.43841 5.05179C6.33852 5.03181 6.14272 5.66715 6.00286 6.46233Z" fill="#FDDA38"/>
      <path d="M6.01481 6.46632C5.88695 7.20156 5.85897 7.80893 5.95088 7.82491C6.04278 7.84089 6.2226 7.2575 6.35046 6.52226C6.47833 5.78702 6.5103 5.17965 6.41839 5.16766C6.32649 5.15568 6.14668 5.73108 6.01481 6.46632Z" fill="#FDDB38"/>
      <path d="M6.03088 6.46631C5.911 7.14161 5.88703 7.70103 5.97094 7.71302C6.05486 7.72501 6.21869 7.19356 6.33856 6.51426C6.45844 5.83497 6.48241 5.28354 6.3985 5.26756C6.31458 5.25157 6.15075 5.79501 6.03088 6.46631Z" fill="#FEDC39"/>
      <path d="M6.05878 6.47432C5.96087 6.80503 5.94307 7.1543 6.00684 7.49326C6.07876 7.49326 6.21462 7.0697 6.31052 6.51827C6.40642 5.96684 6.43039 5.51131 6.35847 5.49533C6.18233 5.79327 6.07961 6.12884 6.05878 6.47432Z" fill="#FEDE3A"/>
      <path d="M6.08681 6.47431C6.00068 6.76894 5.98561 7.07979 6.04285 7.38137C6.10679 7.38137 6.22666 7.00576 6.31058 6.51427C6.39449 6.02278 6.41846 5.6192 6.35453 5.60721C6.19889 5.87141 6.10721 6.16835 6.08681 6.47431Z" fill="#FEDF3B"/>
      <path d="M6.0868 6.47831C6.00986 6.73769 5.99616 7.01173 6.04684 7.27749C6.10278 7.27749 6.20668 6.94583 6.2826 6.51827C6.35969 6.25892 6.37339 5.98485 6.32255 5.7191C6.26661 5.71111 6.16272 6.05076 6.0868 6.47831Z" fill="#FEDF3C"/>
      <path d="M6.0868 6.4783C6.02227 6.70024 6.00996 6.9341 6.05084 7.16159C6.09879 7.16159 6.18669 6.87789 6.25063 6.51027C6.31753 6.2901 6.32988 6.05697 6.28659 5.83097C6.25462 5.82298 6.16671 6.11468 6.0868 6.4783Z" fill="#FEE03C"/>
      <path d="M6.11473 6.4823C6.05879 6.78998 6.0468 7.04172 6.08676 7.04971C6.12672 7.0577 6.20264 6.81396 6.25459 6.51027C6.30653 6.20659 6.32252 5.94686 6.28256 5.94286C6.2426 5.93886 6.16668 6.17862 6.11473 6.4823Z" fill="#FEE13D"/>
      <path d="M6.13078 6.48629C6.08683 6.73004 6.07484 6.93383 6.10681 6.93782C6.18475 6.80664 6.22997 6.65862 6.23867 6.50627C6.28262 6.25853 6.29461 6.05873 6.26264 6.05074C6.23068 6.04275 6.17074 6.23855 6.13078 6.48629Z" fill="#FFE23D"/>
      <path d="M6.14278 6.48631C6.11081 6.67412 6.10282 6.82197 6.14278 6.82996C6.20155 6.73019 6.23579 6.61789 6.24267 6.5023C6.27464 6.31849 6.28263 6.16664 6.24267 6.16265C6.20272 6.15865 6.17474 6.3025 6.14278 6.48631Z" fill="#FFE33E"/>
      <path d="M6.15867 6.49028C6.13469 6.61415 6.1307 6.71405 6.15867 6.71805C6.19469 6.65132 6.21647 6.57785 6.2226 6.50227C6.24658 6.3784 6.25057 6.27451 6.2226 6.27451C6.19463 6.27451 6.17865 6.36641 6.15867 6.49028Z" fill="#FFE33F"/>
      <path d="M6.17065 6.4943C6.17065 6.55424 6.17065 6.60619 6.17065 6.60619C6.18635 6.57191 6.1971 6.53559 6.20262 6.4983C6.20262 6.43836 6.20262 6.38641 6.20262 6.38641C6.20262 6.38641 6.17865 6.43037 6.17065 6.4943Z" fill="#FFE43F"/>
    </g>
    <path style="mix-blend-mode:multiply" d="M6.36248 13.0515L3.96497 13.3152C3.96497 13.3152 4.02091 12.1365 4.18074 10.7139H6.62621L6.36248 13.0515Z" fill="url(#paint0_linear_13_18534)"/>
    <path style="mix-blend-mode:multiply" d="M27.9001 13.0515L30.2976 13.3152C30.2976 13.3152 30.2416 12.1365 30.0858 10.7139H27.6643L27.9001 13.0515Z" fill="url(#paint1_linear_13_18534)"/>
    <path d="M5.68713 13.3152L8.48424 2.98195C8.62966 2.51641 8.91542 2.10719 9.30241 1.81034C9.68939 1.51348 10.1587 1.3435 10.646 1.32367H23.6285C24.1157 1.34258 24.5849 1.51228 24.9714 1.80933C25.3579 2.10638 25.6427 2.51612 25.7863 2.98195L28.5834 13.3152H5.68713Z" fill="#04B54C"/>
    <path d="M5.68708 13.1155L3.74909 12.5041C3.73475 12.502 3.72104 12.4968 3.70891 12.4889C3.69678 12.4809 3.68653 12.4704 3.67885 12.4582C3.67118 12.4459 3.66627 12.432 3.66447 12.4177C3.66267 12.4033 3.66402 12.3887 3.66843 12.3749C3.67283 12.3611 3.68019 12.3484 3.68999 12.3377C3.69978 12.327 3.71179 12.3186 3.72517 12.313C3.73854 12.3075 3.75297 12.3049 3.76745 12.3054C3.78193 12.306 3.79612 12.3097 3.80903 12.3163L5.74702 12.9237C5.77051 12.9304 5.79071 12.9456 5.80378 12.9662C5.81686 12.9869 5.8219 13.0116 5.81796 13.0357C5.81402 13.0599 5.80137 13.0817 5.7824 13.0971C5.76344 13.1126 5.73948 13.1205 5.71506 13.1195L5.68708 13.1155Z" fill="black"/>
    <path d="M5.9029 13.1274C5.86511 13.1277 5.82791 13.1181 5.79501 13.0995L4.15272 12.0525C4.11121 12.0226 4.08275 11.978 4.07321 11.9277C4.06367 11.8774 4.07377 11.8254 4.10143 11.7824C4.1291 11.7394 4.17222 11.7086 4.2219 11.6964C4.27159 11.6842 4.32405 11.6915 4.36849 11.7169L6.01079 12.7598C6.05524 12.7885 6.08651 12.8336 6.09775 12.8853C6.10898 12.937 6.09927 12.991 6.07073 13.0355C6.05325 13.0642 6.02854 13.0878 5.99909 13.1039C5.96964 13.12 5.93647 13.1281 5.9029 13.1274Z" fill="black"/>
    <path d="M4.33255 11.6729C4.33255 11.9287 4.12077 12.608 3.86503 12.608H1.46752C1.20779 12.608 1 11.9287 1 11.6729H4.33654H4.33255Z" fill="url(#paint2_radial_13_18534)"/>
    <path d="M1.13989 12.2484C1.22381 12.4441 1.33569 12.608 1.46355 12.608H3.86107C3.98494 12.608 4.10083 12.4441 4.18474 12.2484H1.13989Z" fill="url(#paint3_linear_13_18534)"/>
    <path d="M28.6793 13.1154C28.6582 13.1152 28.6378 13.1081 28.6212 13.0951C28.6046 13.0821 28.5927 13.0639 28.5874 13.0435C28.5831 13.0312 28.5814 13.0181 28.5823 13.0051C28.5832 12.9921 28.5867 12.9794 28.5927 12.9678C28.5987 12.9562 28.607 12.946 28.6171 12.9377C28.6272 12.9294 28.6388 12.9233 28.6514 12.9196L30.5854 12.3123C30.5979 12.3079 30.6113 12.3061 30.6246 12.307C30.6379 12.3078 30.6508 12.3114 30.6628 12.3173C30.6747 12.3233 30.6853 12.3315 30.6939 12.3417C30.7026 12.3518 30.7092 12.3635 30.7132 12.3762C30.7175 12.3888 30.7191 12.4021 30.7179 12.4153C30.7168 12.4286 30.7129 12.4414 30.7065 12.4531C30.7001 12.4647 30.6914 12.4749 30.6808 12.483C30.6703 12.4911 30.6582 12.4969 30.6453 12.5001L28.7113 13.1114L28.6793 13.1154Z" fill="black"/>
    <path d="M28.4635 13.1274C28.4302 13.127 28.3974 13.1184 28.3681 13.1024C28.3389 13.0864 28.314 13.0634 28.2957 13.0355C28.2812 13.0134 28.2713 12.9886 28.2667 12.9625C28.2621 12.9365 28.2628 12.9098 28.2687 12.884C28.2747 12.8582 28.2858 12.834 28.3015 12.8126C28.3171 12.7913 28.3369 12.7733 28.3596 12.7598L30.0019 11.7169C30.0238 11.7022 30.0484 11.6921 30.0743 11.6872C30.1002 11.6823 30.1268 11.6826 30.1525 11.6882C30.1783 11.6938 30.2026 11.7045 30.2241 11.7198C30.2456 11.735 30.2638 11.7544 30.2776 11.7768C30.2916 11.7991 30.301 11.824 30.3053 11.8499C30.3097 11.8758 30.3088 11.9024 30.3029 11.928C30.297 11.9536 30.286 11.9778 30.2707 11.9992C30.2554 12.0205 30.236 12.0387 30.2137 12.0526L28.5714 13.0995C28.5388 13.1188 28.5014 13.1285 28.4635 13.1274Z" fill="black"/>
    <path d="M30.0619 11.6729C30.0619 11.9287 30.2697 12.608 30.5294 12.608H32.9269C33.1827 12.608 33.3944 11.9287 33.3944 11.6729H30.0619Z" fill="url(#paint4_radial_13_18534)"/>
    <path d="M33.2586 12.2484C33.1747 12.4441 33.0588 12.608 32.9349 12.608H30.5374C30.4095 12.608 30.2977 12.4441 30.2137 12.2484H33.2586Z" fill="url(#paint5_linear_13_18534)"/>
    <g style="mix-blend-mode:multiply">
      <path d="M7.26154 12.7798C7.23891 12.7768 7.21833 12.7651 7.20417 12.7472C7.19 12.7293 7.18334 12.7066 7.18562 12.6839C7.777 7.13765 10.5421 1.34365 10.5701 1.28771C10.5744 1.27735 10.5808 1.268 10.5889 1.26026C10.597 1.25253 10.6066 1.24658 10.6172 1.24282C10.6277 1.23905 10.6389 1.23754 10.6501 1.23839C10.6613 1.23924 10.6721 1.24243 10.682 1.24775C10.7024 1.25806 10.718 1.27594 10.7255 1.29758C10.733 1.31922 10.7317 1.34291 10.722 1.36363C10.694 1.41957 7.92485 7.1856 7.35344 12.7039C7.35244 12.7149 7.34927 12.7256 7.3441 12.7355C7.33893 12.7453 7.33186 12.7539 7.32332 12.761C7.31477 12.7681 7.30491 12.7734 7.29431 12.7766C7.2837 12.7798 7.27257 12.7809 7.26154 12.7798Z" fill="#C7C2A9"/>
    </g>
    <g style="mix-blend-mode:multiply">
      <path d="M27.0011 12.7798C26.9801 12.7799 26.9599 12.7721 26.9444 12.7581C26.9289 12.744 26.9191 12.7247 26.9171 12.7039C26.3298 7.18558 23.5766 1.41955 23.5486 1.36361C23.5389 1.34289 23.5376 1.3192 23.5451 1.29756C23.5525 1.27592 23.5682 1.25804 23.5886 1.24773C23.6093 1.23799 23.633 1.23672 23.6546 1.24418C23.6763 1.25164 23.6942 1.26725 23.7045 1.28769C23.7324 1.34363 26.5016 7.13763 27.089 12.6839C27.0912 12.7066 27.0846 12.7293 27.0704 12.7472C27.0562 12.7651 27.0357 12.7768 27.013 12.7798H27.0011Z" fill="#C7C2A9"/>
    </g>
    <path d="M28.6194 13.1075C24.8114 12.8557 20.6477 12.4561 17.1313 12.4561C13.615 12.4561 9.34339 13.0076 5.64722 13.1075C6.7221 12.8038 6.80202 11.0176 7.789 10.7099C12.8118 10.0746 21.287 10.0746 26.3098 10.7099C27.2968 11.0176 27.5405 12.8038 28.6194 13.1075Z" fill="url(#paint6_linear_13_18534)"/>
    <path d="M4.2926 77.4887C4.45119 77.7033 4.65768 77.8779 4.89562 77.9986C5.13356 78.1193 5.39638 78.1828 5.66319 78.184H28.5994C28.8283 78.1841 29.0548 78.1382 29.2656 78.049C29.4763 77.9597 29.667 77.829 29.8261 77.6646C28.2558 76.8414 23.0332 76.234 16.8636 76.234C11.1215 76.234 6.2226 76.7575 4.2926 77.4887Z" fill="#116734"/>
    <path d="M30.3136 13.3153C30.3136 12.6519 24.4117 12.4561 17.1273 12.4561C9.8428 12.4561 3.94092 12.6519 3.94092 13.3153V76.4858C3.94207 76.8537 4.06267 77.2113 4.28456 77.5047C6.21456 76.7735 11.1135 76.25 16.8555 76.25C23.0411 76.25 28.2477 76.8574 29.8181 77.6806C30.1328 77.3612 30.3081 76.9301 30.3056 76.4818L30.3136 13.3153Z" fill="#04B54C"/>
    <path style="mix-blend-mode:multiply" d="M17.1313 12.4561C9.85083 12.4561 3.94495 12.6519 3.94495 13.3153V13.7868C3.94495 13.1235 9.84683 12.9277 17.1313 12.9277C24.4157 12.9277 30.3176 13.1235 30.3176 13.7868V13.3153C30.3136 12.6519 24.4117 12.4561 17.1313 12.4561Z" fill="url(#paint7_linear_13_18534)"/>
    <g style="mix-blend-mode:multiply">
      <path d="M19.2251 22.8773H14.502C13.6502 22.8773 12.9596 23.5679 12.9596 24.4197V31.2127C12.9596 32.0645 13.6502 32.7551 14.502 32.7551H19.2251C20.077 32.7551 20.7675 32.0645 20.7675 31.2127V24.4197C20.7675 23.5679 20.077 22.8773 19.2251 22.8773Z" fill="url(#paint8_linear_13_18534)"/>
      <path d="M19.2251 22.9213H14.506C13.6784 22.9213 13.0076 23.5922 13.0076 24.4197V31.2047C13.0076 32.0323 13.6784 32.7031 14.506 32.7031H19.2251C20.0527 32.7031 20.7236 32.0323 20.7236 31.2047V24.4197C20.7236 23.5922 20.0527 22.9213 19.2251 22.9213Z" fill="url(#paint9_linear_13_18534)"/>
      <path d="M19.2251 22.9692H14.502C13.7009 22.9692 13.0515 23.6186 13.0515 24.4197V31.2087C13.0515 32.0098 13.7009 32.6592 14.502 32.6592H19.2251C20.0262 32.6592 20.6756 32.0098 20.6756 31.2087V24.4197C20.6756 23.6186 20.0262 22.9692 19.2251 22.9692Z" fill="url(#paint10_linear_13_18534)"/>
      <path d="M19.2251 23.0172H14.502C13.7274 23.0172 13.0995 23.6451 13.0995 24.4197V31.2127C13.0995 31.9873 13.7274 32.6152 14.502 32.6152H19.2251C19.9997 32.6152 20.6277 31.9873 20.6277 31.2127V24.4197C20.6277 23.6451 19.9997 23.0172 19.2251 23.0172Z" fill="url(#paint11_linear_13_18534)"/>
      <path d="M14.502 23.0611H19.2251C19.5855 23.0611 19.931 23.2043 20.1858 23.4591C20.4406 23.7139 20.5837 24.0594 20.5837 24.4197V31.2127C20.5837 31.573 20.4406 31.9186 20.1858 32.1734C19.931 32.4282 19.5855 32.5713 19.2251 32.5713H14.502C14.1417 32.5713 13.7961 32.4282 13.5414 32.1734C13.2866 31.9186 13.1434 31.573 13.1434 31.2127V24.4197C13.1429 24.2412 13.1777 24.0643 13.2458 23.8992C13.3139 23.7341 13.4139 23.5842 13.5402 23.4579C13.6664 23.3316 13.8164 23.2316 13.9815 23.1635C14.1466 23.0954 14.3235 23.0606 14.502 23.0611Z" fill="url(#paint12_linear_13_18534)"/>
      <path d="M19.2251 23.1091H14.506C13.7821 23.1091 13.1953 23.6959 13.1953 24.4197V31.2087C13.1953 31.9325 13.7821 32.5193 14.506 32.5193H19.2251C19.9489 32.5193 20.5357 31.9325 20.5357 31.2087V24.4197C20.5357 23.6959 19.9489 23.1091 19.2251 23.1091Z" fill="url(#paint13_linear_13_18534)"/>
      <path d="M19.2251 23.157H14.502C13.8046 23.157 13.2393 23.7224 13.2393 24.4197V31.2087C13.2393 31.9061 13.8046 32.4714 14.502 32.4714H19.2251C19.9224 32.4714 20.4877 31.9061 20.4877 31.2087V24.4197C20.4877 23.7224 19.9224 23.157 19.2251 23.157Z" fill="url(#paint14_linear_13_18534)"/>
      <path d="M19.2251 23.201H14.502C13.8311 23.201 13.2872 23.7448 13.2872 24.4157V31.2087C13.2872 31.8796 13.8311 32.4234 14.502 32.4234H19.2251C19.896 32.4234 20.4398 31.8796 20.4398 31.2087V24.4157C20.4398 23.7448 19.896 23.201 19.2251 23.201Z" fill="url(#paint15_linear_13_18534)"/>
      <path d="M19.2251 23.2489H14.506C13.8594 23.2489 13.3352 23.7731 13.3352 24.4197V31.2087C13.3352 31.8553 13.8594 32.3795 14.506 32.3795H19.2251C19.8717 32.3795 20.3959 31.8553 20.3959 31.2087V24.4197C20.3959 23.7731 19.8717 23.2489 19.2251 23.2489Z" fill="url(#paint16_linear_13_18534)"/>
      <path d="M19.2251 23.2969H14.502C13.8819 23.2969 13.3792 23.7996 13.3792 24.4197V31.2087C13.3792 31.8288 13.8819 32.3315 14.502 32.3315H19.2251C19.8452 32.3315 20.3479 31.8288 20.3479 31.2087V24.4197C20.3479 23.7996 19.8452 23.2969 19.2251 23.2969Z" fill="url(#paint17_linear_13_18534)"/>
      <path d="M19.2251 23.3448H14.502C13.9084 23.3448 13.4271 23.8261 13.4271 24.4197V31.2127C13.4271 31.8063 13.9084 32.2876 14.502 32.2876H19.2251C19.8188 32.2876 20.3 31.8063 20.3 31.2127V24.4197C20.3 23.8261 19.8188 23.3448 19.2251 23.3448Z" fill="url(#paint18_linear_13_18534)"/>
      <path d="M14.502 23.3888H19.2251C19.4986 23.3888 19.7608 23.4974 19.9541 23.6907C20.1475 23.8841 20.2561 24.1463 20.2561 24.4197V31.2127C20.2561 31.4861 20.1475 31.7483 19.9541 31.9417C19.7608 32.135 19.4986 32.2436 19.2251 32.2436H14.502C14.2297 32.2436 13.9685 32.1354 13.7759 31.9428C13.5833 31.7502 13.4751 31.489 13.4751 31.2167V24.4237C13.4746 24.2883 13.5007 24.1542 13.552 24.0289C13.6034 23.9036 13.6789 23.7897 13.7742 23.6936C13.8696 23.5975 13.9829 23.5211 14.1078 23.4688C14.2327 23.4165 14.3667 23.3893 14.502 23.3888Z" fill="url(#paint19_linear_13_18534)"/>
    </g>
    <path d="M14.502 23.3888H19.2251C19.4986 23.3888 19.7608 23.4974 19.9541 23.6907C20.1475 23.8841 20.2561 24.1463 20.2561 24.4197V31.2127C20.2561 31.4861 20.1475 31.7483 19.9541 31.9417C19.7608 32.135 19.4986 32.2436 19.2251 32.2436H14.502C14.2297 32.2436 13.9685 32.1354 13.7759 31.9428C13.5833 31.7502 13.4751 31.489 13.4751 31.2167V24.4237C13.4746 24.2883 13.5007 24.1542 13.552 24.0289C13.6034 23.9036 13.6789 23.7897 13.7742 23.6936C13.8696 23.5975 13.9829 23.5211 14.1078 23.4688C14.2327 23.4165 14.3667 23.3893 14.502 23.3888Z" fill="black"/>
    <g style="mix-blend-mode:multiply">
      <path d="M19.2251 58.0689H14.502C13.6502 58.0689 12.9596 58.7594 12.9596 59.6113V66.4042C12.9596 67.2561 13.6502 67.9466 14.502 67.9466H19.2251C20.077 67.9466 20.7675 67.2561 20.7675 66.4042V59.6113C20.7675 58.7594 20.077 58.0689 19.2251 58.0689Z" fill="url(#paint20_linear_13_18534)"/>
      <path d="M19.2251 58.1168H14.506C13.6784 58.1168 13.0076 58.7877 13.0076 59.6153V66.4002C13.0076 67.2278 13.6784 67.8987 14.506 67.8987H19.2251C20.0527 67.8987 20.7236 67.2278 20.7236 66.4002V59.6153C20.7236 58.7877 20.0527 58.1168 19.2251 58.1168Z" fill="url(#paint21_linear_13_18534)"/>
      <path d="M19.2251 58.1648H14.502C13.7009 58.1648 13.0515 58.8142 13.0515 59.6153V66.4042C13.0515 67.2053 13.7009 67.8547 14.502 67.8547H19.2251C20.0262 67.8547 20.6756 67.2053 20.6756 66.4042V59.6153C20.6756 58.8142 20.0262 58.1648 19.2251 58.1648Z" fill="url(#paint22_linear_13_18534)"/>
      <path d="M19.2251 58.2127H14.502C13.7274 58.2127 13.0995 58.8406 13.0995 59.6153V66.4082C13.0995 67.1828 13.7274 67.8108 14.502 67.8108H19.2251C19.9997 67.8108 20.6277 67.1828 20.6277 66.4082V59.6153C20.6277 58.8406 19.9997 58.2127 19.2251 58.2127Z" fill="url(#paint23_linear_13_18534)"/>
      <path d="M19.229 58.2567H14.5019C13.7538 58.2567 13.1473 58.8631 13.1473 59.6113V66.4042C13.1473 67.1523 13.7538 67.7588 14.5019 67.7588H19.229C19.9772 67.7588 20.5836 67.1523 20.5836 66.4042V59.6113C20.5836 58.8631 19.9772 58.2567 19.229 58.2567Z" fill="url(#paint24_linear_13_18534)"/>
      <path d="M19.2251 58.3046H14.506C13.7821 58.3046 13.1953 58.8914 13.1953 59.6153V66.4042C13.1953 67.1281 13.7821 67.7149 14.506 67.7149H19.2251C19.9489 67.7149 20.5357 67.1281 20.5357 66.4042V59.6153C20.5357 58.8914 19.9489 58.3046 19.2251 58.3046Z" fill="url(#paint25_linear_13_18534)"/>
      <path d="M19.2251 58.3526H14.502C13.8046 58.3526 13.2393 58.9179 13.2393 59.6153V66.4042C13.2393 67.1016 13.8046 67.6669 14.502 67.6669H19.2251C19.9224 67.6669 20.4877 67.1016 20.4877 66.4042V59.6153C20.4877 58.9179 19.9224 58.3526 19.2251 58.3526Z" fill="url(#paint26_linear_13_18534)"/>
      <path d="M19.2251 58.3965H14.502C13.8311 58.3965 13.2872 58.9404 13.2872 59.6113V66.4042C13.2872 67.0751 13.8311 67.619 14.502 67.619H19.2251C19.896 67.619 20.4398 67.0751 20.4398 66.4042V59.6113C20.4398 58.9404 19.896 58.3965 19.2251 58.3965Z" fill="url(#paint27_linear_13_18534)"/>
      <path d="M19.2251 58.4445H14.506C13.8594 58.4445 13.3352 58.9686 13.3352 59.6153V66.4042C13.3352 67.0508 13.8594 67.575 14.506 67.575H19.2251C19.8717 67.575 20.3959 67.0508 20.3959 66.4042V59.6153C20.3959 58.9686 19.8717 58.4445 19.2251 58.4445Z" fill="url(#paint28_linear_13_18534)"/>
      <path d="M19.2251 58.4924H14.502C13.8819 58.4924 13.3792 58.9951 13.3792 59.6153V66.4042C13.3792 67.0243 13.8819 67.5271 14.502 67.5271H19.2251C19.8452 67.5271 20.3479 67.0243 20.3479 66.4042V59.6153C20.3479 58.9951 19.8452 58.4924 19.2251 58.4924Z" fill="url(#paint29_linear_13_18534)"/>
      <path d="M19.2251 58.5404H14.502C13.9084 58.5404 13.4271 59.0216 13.4271 59.6153V66.4082C13.4271 67.0019 13.9084 67.4831 14.502 67.4831H19.2251C19.8188 67.4831 20.3 67.0019 20.3 66.4082V59.6153C20.3 59.0216 19.8188 58.5404 19.2251 58.5404Z" fill="url(#paint30_linear_13_18534)"/>
      <path d="M14.502 58.5843H19.2251C19.4986 58.5843 19.7608 58.6929 19.9541 58.8863C20.1475 59.0796 20.2561 59.3418 20.2561 59.6153V66.4082C20.2561 66.6816 20.1475 66.9439 19.9541 67.1372C19.7608 67.3305 19.4986 67.4391 19.2251 67.4391H14.502C14.2297 67.4391 13.9685 67.331 13.7759 67.1384C13.5833 66.9458 13.4751 66.6846 13.4751 66.4122V59.6192C13.4746 59.4839 13.5007 59.3497 13.552 59.2244C13.6034 59.0991 13.6789 58.9852 13.7742 58.8891C13.8696 58.793 13.9829 58.7166 14.1078 58.6643C14.2327 58.612 14.3667 58.5848 14.502 58.5843Z" fill="url(#paint31_linear_13_18534)"/>
    </g>
    <path d="M14.502 58.5843H19.2251C19.4986 58.5843 19.7608 58.6929 19.9541 58.8863C20.1475 59.0796 20.2561 59.3418 20.2561 59.6153V66.4082C20.2561 66.6816 20.1475 66.9439 19.9541 67.1372C19.7608 67.3305 19.4986 67.4391 19.2251 67.4391H14.502C14.2297 67.4391 13.9685 67.331 13.7759 67.1384C13.5833 66.9458 13.4751 66.6846 13.4751 66.4122V59.6192C13.4746 59.4839 13.5007 59.3497 13.552 59.2244C13.6034 59.0991 13.6789 58.9852 13.7742 58.8891C13.8696 58.793 13.9829 58.7166 14.1078 58.6643C14.2327 58.612 14.3667 58.5848 14.502 58.5843Z" fill="black"/>
    <path d="M11.7728 77.5287C11.7209 77.1651 10.1745 77.1291 8.29244 77.4248L4.87598 77.9842C5.12181 78.1157 5.39636 78.1843 5.67515 78.184H11.8767C11.8767 78.184 11.8208 77.8883 11.7728 77.5287Z" fill="url(#paint32_linear_13_18534)"/>
    <path d="M22.5097 77.5287C22.5617 77.1651 24.1081 77.1291 25.9861 77.4248L29.4066 77.9842C29.1605 78.1151 28.8861 78.1837 28.6074 78.184H22.4138C22.4138 78.184 22.4698 77.8883 22.5097 77.5287Z" fill="url(#paint33_linear_13_18534)"/>
    <g style="mix-blend-mode:multiply">
      <path d="M29.7702 77.7724C28.1719 76.9373 22.8774 76.3539 16.8636 76.3539C11.3333 76.3539 6.29856 76.8574 4.3366 77.6006L4.25269 77.3769C6.27059 76.6096 11.2215 76.1142 16.8636 76.1142C22.9094 76.1142 28.2638 76.7095 29.8821 77.5567L29.7702 77.7724Z" fill="#B3B3B3"/>
    </g>
    <path d="M21.2551 77.9043H13.0116V78.184H21.2551V77.9043Z" fill="url(#paint34_linear_13_18534)"/>
    <path d="M16.2242 12.4561H15.3372V12.9237H16.2242V12.4561Z" fill="#A03C00"/>
    <path d="M17.5748 12.4561H16.6877V12.9277H17.5748V12.4561Z" fill="#A03C00"/>
    <path d="M18.0424 12.4561V12.9277H18.9294V12.4601L18.0424 12.4561Z" fill="#A03C00"/>
    <path style="mix-blend-mode:screen" d="M17.343 10.2624C15.3041 10.3091 13.2689 10.4598 11.2453 10.7139C10.2543 11.0176 9.26737 12.4042 8.2804 12.7119C9.98663 12.6599 11.7528 12.596 13.531 12.548C14.6954 11.6215 15.9772 10.853 17.343 10.2624Z" fill="url(#paint35_linear_13_18534)"/>
    <path d="M24.2559 1.16383C24.2576 1.18326 24.2554 1.20282 24.2494 1.22139C24.2435 1.23995 24.2339 1.25716 24.2213 1.27202C24.2086 1.28687 24.1932 1.29908 24.1758 1.30795C24.1585 1.31681 24.1395 1.32215 24.1201 1.32366H10.1346C10.1151 1.32215 10.0962 1.31681 10.0788 1.30795C10.0615 1.29908 10.046 1.28687 10.0334 1.27202C10.0208 1.25716 10.0112 1.23995 10.0052 1.22139C9.99929 1.20282 9.99707 1.18326 9.99871 1.16383C9.99536 1.12416 10.0077 1.08477 10.0331 1.05413C10.0585 1.02349 10.095 1.00405 10.1346 1H24.1201C24.1597 1.00405 24.1961 1.02349 24.2215 1.05413C24.2469 1.08477 24.2593 1.12416 24.2559 1.16383Z" fill="url(#paint36_linear_13_18534)"/>
    <g style="mix-blend-mode:multiply">
      <path d="M5.90288 76.1701C5.89186 76.1701 5.88095 76.1679 5.87077 76.1637C5.86059 76.1595 5.85134 76.1533 5.84355 76.1455C5.83576 76.1377 5.82957 76.1285 5.82535 76.1183C5.82114 76.1081 5.81897 76.0972 5.81897 76.0862V13.9985C5.81897 13.9875 5.82114 13.9766 5.82535 13.9664C5.82957 13.9562 5.83576 13.947 5.84355 13.9392C5.85134 13.9314 5.86059 13.9252 5.87077 13.921C5.88095 13.9168 5.89186 13.9146 5.90288 13.9146C5.92552 13.9146 5.9473 13.9233 5.96367 13.9389C5.98005 13.9546 5.98976 13.9759 5.99079 13.9985V76.0862C5.9908 76.0975 5.98851 76.1088 5.98405 76.1192C5.97958 76.1297 5.97304 76.1391 5.96482 76.147C5.9566 76.1548 5.94687 76.1609 5.93622 76.1649C5.92558 76.1689 5.91423 76.1706 5.90288 76.1701Z" fill="#C7C2A9"/>
    </g>
    <g style="mix-blend-mode:multiply">
      <path d="M28.3597 76.1701C28.3374 76.1701 28.3161 76.1613 28.3003 76.1455C28.2846 76.1298 28.2758 76.1084 28.2758 76.0862V13.9985C28.2758 13.9763 28.2846 13.9549 28.3003 13.9392C28.3161 13.9235 28.3374 13.9146 28.3597 13.9146C28.3823 13.9146 28.4041 13.9233 28.4205 13.9389C28.4368 13.9546 28.4466 13.9759 28.4476 13.9985V76.0862C28.4476 76.0975 28.4453 76.1088 28.4408 76.1192C28.4364 76.1297 28.4298 76.1391 28.4216 76.147C28.4134 76.1548 28.4037 76.1609 28.393 76.1649C28.3824 76.1689 28.371 76.1706 28.3597 76.1701Z" fill="#C7C2A9"/>
    </g>
    <path d="M26.8172 11.621C23.0306 10.6668 19.1334 10.2234 15.2292 10.3024C15.2292 10.1985 15.2292 10.0986 15.2292 9.99868C19.1961 9.92273 23.1552 10.3783 27.001 11.3533L26.8172 11.621Z" fill="black"/>
    <path d="M19.4928 10.3184C19.4928 10.4982 18.2181 10.646 16.6437 10.646C15.0694 10.646 13.7947 10.4982 13.7947 10.3184C13.7947 10.1385 15.0734 9.99069 16.6437 9.99069C18.2141 9.99069 19.4928 10.1545 19.4928 10.3184Z" fill="black"/>
  </g>
  <defs>
    <filter id="filter0_d_13_18534" x="0" y="0" width="40.3944" height="85.184" filterUnits="userSpaceOnUse" color-interpolation-filters="sRGB">
      <feFlood flood-opacity="0" result="BackgroundImageFix"/>
      <feColorMatrix in="SourceAlpha" type="matrix" values="0 0 0 0 0 0 0 0 0 0 0 0 0 0 0 0 0 0 127 0" result="hardAlpha"/>
      <feOffset dx="3" dy="3"/>
      <feGaussianBlur stdDeviation="2"/>
      <feComposite in2="hardAlpha" operator="out"/>
      <feColorMatrix type="matrix" values="0 0 0 0 0 0 0 0 0 0 0 0 0 0 0 0 0 0 0.25 0"/>
      <feBlend mode="normal" in2="BackgroundImageFix" result="effect1_dropShadow_13_18534"/>
      <feBlend mode="normal" in="SourceGraphic" in2="effect1_dropShadow_13_18534" result="shape"/>
    </filter>
    <linearGradient id="paint0_linear_13_18534" x1="5.2796" y1="13.0955" x2="5.2796" y2="11.3892" gradientUnits="userSpaceOnUse">
      <stop stop-color="#CCCCCC"/>
      <stop offset="1" stop-color="white"/>
    </linearGradient>
    <linearGradient id="paint1_linear_13_18534" x1="28.9829" y1="13.0955" x2="28.9829" y2="11.3892" gradientUnits="userSpaceOnUse">
      <stop stop-color="#CCCCCC"/>
      <stop offset="1" stop-color="white"/>
    </linearGradient>
    <radialGradient id="paint2_radial_13_18534" cx="0" cy="0" r="1" gradientUnits="userSpaceOnUse" gradientTransform="translate(2.68226 -21.0215) scale(2.1178 0.677698)">
      <stop stop-color="#F7D41C"/>
      <stop offset="0.33" stop-color="#E9B720"/>
      <stop offset="1" stop-color="#CA722A"/>
    </radialGradient>
    <linearGradient id="paint3_linear_13_18534" x1="1.13989" y1="12.4282" x2="4.18873" y2="12.4282" gradientUnits="userSpaceOnUse">
      <stop stop-color="#363B39"/>
      <stop offset="1" stop-color="#1B1C1C"/>
    </linearGradient>
    <radialGradient id="paint4_radial_13_18534" cx="0" cy="0" r="1" gradientUnits="userSpaceOnUse" gradientTransform="translate(31.7002 -21.0215) rotate(180) scale(2.11381 0.676419)">
      <stop stop-color="#F7D41C"/>
      <stop offset="0.33" stop-color="#E9B720"/>
      <stop offset="1" stop-color="#CA722A"/>
    </radialGradient>
    <linearGradient id="paint5_linear_13_18534" x1="33.2426" y1="12.4282" x2="30.1898" y2="12.4282" gradientUnits="userSpaceOnUse">
      <stop stop-color="#363B39"/>
      <stop offset="1" stop-color="#1B1C1C"/>
    </linearGradient>
    <linearGradient id="paint6_linear_13_18534" x1="17.1313" y1="12.3922" x2="17.1313" y2="8.51621" gradientUnits="userSpaceOnUse">
      <stop stop-color="#363B39"/>
      <stop offset="1" stop-color="#1B1C1C"/>
    </linearGradient>
    <linearGradient id="paint7_linear_13_18534" x1="17.1313" y1="12.4362" x2="17.1313" y2="12.9476" gradientUnits="userSpaceOnUse">
      <stop stop-color="#CA722A"/>
      <stop offset="0.27" stop-color="#DCA273"/>
      <stop offset="0.52" stop-color="#EBCAAF"/>
      <stop offset="0.73" stop-color="#F6E7DA"/>
      <stop offset="0.9" stop-color="#FDF8F5"/>
      <stop offset="1" stop-color="white"/>
    </linearGradient>
    <linearGradient id="paint8_linear_13_18534" x1="12.9596" y1="27.8162" x2="20.7675" y2="27.8162" gradientUnits="userSpaceOnUse">
      <stop stop-color="#C27527"/>
      <stop offset="0.12" stop-color="#C98226"/>
      <stop offset="0.34" stop-color="#DCA322"/>
      <stop offset="0.62" stop-color="#F7D41C"/>
      <stop offset="1" stop-color="#F0D800"/>
    </linearGradient>
    <linearGradient id="paint9_linear_13_18534" x1="13.0076" y1="27.8162" x2="20.7236" y2="27.8162" gradientUnits="userSpaceOnUse">
      <stop stop-color="#C67924"/>
      <stop offset="0.2" stop-color="#D49122"/>
      <stop offset="0.47" stop-color="#EAB91F"/>
      <stop offset="0.55" stop-color="#EBBB1F"/>
      <stop offset="0.59" stop-color="#EFC21E"/>
      <stop offset="0.61" stop-color="#F6CF1C"/>
      <stop offset="0.62" stop-color="#F8D31C"/>
      <stop offset="0.93" stop-color="#F2D707"/>
      <stop offset="1" stop-color="#F0D800"/>
    </linearGradient>
    <linearGradient id="paint10_linear_13_18534" x1="13.0515" y1="27.8162" x2="20.6756" y2="27.8162" gradientUnits="userSpaceOnUse">
      <stop stop-color="#CB7C22"/>
      <stop offset="0.47" stop-color="#ECBB1F"/>
      <stop offset="0.55" stop-color="#EDBD1F"/>
      <stop offset="0.59" stop-color="#F1C41E"/>
      <stop offset="0.62" stop-color="#F8D21D"/>
      <stop offset="0.93" stop-color="#F2D609"/>
      <stop offset="1" stop-color="#F0D800"/>
    </linearGradient>
    <linearGradient id="paint11_linear_13_18534" x1="13.0995" y1="27.8162" x2="20.6277" y2="27.8162" gradientUnits="userSpaceOnUse">
      <stop stop-color="#CF801F"/>
      <stop offset="0.22" stop-color="#DF9F20"/>
      <stop offset="0.47" stop-color="#EEBC20"/>
      <stop offset="0.56" stop-color="#EFBE20"/>
      <stop offset="0.59" stop-color="#F3C51F"/>
      <stop offset="0.62" stop-color="#F9D11D"/>
      <stop offset="0.93" stop-color="#F3D60B"/>
      <stop offset="1" stop-color="#F0D800"/>
    </linearGradient>
    <linearGradient id="paint12_linear_13_18534" x1="13.1474" y1="27.8162" x2="20.5837" y2="27.8162" gradientUnits="userSpaceOnUse">
      <stop stop-color="#D3841C"/>
      <stop offset="0.05" stop-color="#D78C1D"/>
      <stop offset="0.32" stop-color="#E9B01F"/>
      <stop offset="0.47" stop-color="#F0BE20"/>
      <stop offset="0.56" stop-color="#F1C020"/>
      <stop offset="0.6" stop-color="#F5C71F"/>
      <stop offset="0.62" stop-color="#FAD01E"/>
      <stop offset="0.93" stop-color="#F3D60D"/>
      <stop offset="1" stop-color="#F0D800"/>
    </linearGradient>
    <linearGradient id="paint13_linear_13_18534" x1="13.1953" y1="27.8162" x2="20.5357" y2="27.8162" gradientUnits="userSpaceOnUse">
      <stop stop-color="#D8871A"/>
      <stop offset="0.15" stop-color="#E39E1C"/>
      <stop offset="0.35" stop-color="#EEB61F"/>
      <stop offset="0.47" stop-color="#F2BF20"/>
      <stop offset="0.56" stop-color="#F3C120"/>
      <stop offset="0.6" stop-color="#F7C81F"/>
      <stop offset="0.62" stop-color="#FBCF1E"/>
      <stop offset="0.93" stop-color="#F4D60F"/>
      <stop offset="1" stop-color="#F0D800"/>
    </linearGradient>
    <linearGradient id="paint14_linear_13_18534" x1="13.2393" y1="27.8162" x2="20.4877" y2="27.8162" gradientUnits="userSpaceOnUse">
      <stop stop-color="#DC8B17"/>
      <stop offset="0.19" stop-color="#EAA81C"/>
      <stop offset="0.35" stop-color="#F2BB1F"/>
      <stop offset="0.47" stop-color="#F5C120"/>
      <stop offset="0.57" stop-color="#F6C320"/>
      <stop offset="0.61" stop-color="#FACA1F"/>
      <stop offset="0.62" stop-color="#FBCD1F"/>
      <stop offset="0.93" stop-color="#F4D512"/>
      <stop offset="1" stop-color="#F0D800"/>
    </linearGradient>
    <linearGradient id="paint15_linear_13_18534" x1="13.2872" y1="27.8122" x2="20.4398" y2="27.8122" gradientUnits="userSpaceOnUse">
      <stop stop-color="#E18E15"/>
      <stop offset="0.05" stop-color="#E59717"/>
      <stop offset="0.2" stop-color="#EFAE1C"/>
      <stop offset="0.35" stop-color="#F5BD1F"/>
      <stop offset="0.47" stop-color="#F7C220"/>
      <stop offset="0.57" stop-color="#F8C420"/>
      <stop offset="0.62" stop-color="#FCCC1F"/>
      <stop offset="0.93" stop-color="#F5D514"/>
      <stop offset="1" stop-color="#F0D800"/>
    </linearGradient>
    <linearGradient id="paint16_linear_13_18534" x1="13.3352" y1="27.8122" x2="20.3959" y2="27.8122" gradientUnits="userSpaceOnUse">
      <stop stop-color="#E59212"/>
      <stop offset="0.07" stop-color="#EAA016"/>
      <stop offset="0.2" stop-color="#F3B41B"/>
      <stop offset="0.34" stop-color="#F7C01F"/>
      <stop offset="0.47" stop-color="#F9C420"/>
      <stop offset="0.58" stop-color="#FAC620"/>
      <stop offset="0.62" stop-color="#FDCB20"/>
      <stop offset="0.93" stop-color="#F5D516"/>
      <stop offset="1" stop-color="#F0D800"/>
    </linearGradient>
    <linearGradient id="paint17_linear_13_18534" x1="13.3792" y1="27.8162" x2="20.3479" y2="27.8162" gradientUnits="userSpaceOnUse">
      <stop stop-color="#E9960F"/>
      <stop offset="0.08" stop-color="#EFA615"/>
      <stop offset="0.19" stop-color="#F6B71C"/>
      <stop offset="0.32" stop-color="#FAC220"/>
      <stop offset="0.47" stop-color="#FBC521"/>
      <stop offset="0.59" stop-color="#FCC721"/>
      <stop offset="0.62" stop-color="#FECA20"/>
      <stop offset="0.93" stop-color="#F6D518"/>
      <stop offset="1" stop-color="#F0D800"/>
    </linearGradient>
    <linearGradient id="paint18_linear_13_18534" x1="13.4271" y1="27.8162" x2="20.3" y2="27.8162" gradientUnits="userSpaceOnUse">
      <stop stop-color="#EE990D"/>
      <stop offset="0.08" stop-color="#F4AC15"/>
      <stop offset="0.18" stop-color="#F9BB1C"/>
      <stop offset="0.3" stop-color="#FCC420"/>
      <stop offset="0.47" stop-color="#FDC721"/>
      <stop offset="0.62" stop-color="#FEC921"/>
      <stop offset="0.93" stop-color="#F6D41A"/>
      <stop offset="1" stop-color="#F0D800"/>
    </linearGradient>
    <linearGradient id="paint19_linear_13_18534" x1="13.4751" y1="27.8162" x2="20.2561" y2="27.8162" gradientUnits="userSpaceOnUse">
      <stop stop-color="#F29D0A"/>
      <stop offset="0.07" stop-color="#F8B014"/>
      <stop offset="0.16" stop-color="#FCBD1B"/>
      <stop offset="0.27" stop-color="#FEC620"/>
      <stop offset="0.47" stop-color="#FFC821"/>
      <stop offset="0.77" stop-color="#FECA20"/>
      <stop offset="0.9" stop-color="#F9D11D"/>
      <stop offset="0.93" stop-color="#F7D41C"/>
      <stop offset="1" stop-color="#F0D800"/>
    </linearGradient>
    <linearGradient id="paint20_linear_13_18534" x1="12.9596" y1="63.0077" x2="20.7675" y2="63.0077" gradientUnits="userSpaceOnUse">
      <stop stop-color="#C27527"/>
      <stop offset="0.12" stop-color="#C98226"/>
      <stop offset="0.34" stop-color="#DCA322"/>
      <stop offset="0.62" stop-color="#F7D41C"/>
      <stop offset="1" stop-color="#F0D800"/>
    </linearGradient>
    <linearGradient id="paint21_linear_13_18534" x1="13.0076" y1="63.0077" x2="20.7236" y2="63.0077" gradientUnits="userSpaceOnUse">
      <stop stop-color="#C67924"/>
      <stop offset="0.2" stop-color="#D49122"/>
      <stop offset="0.47" stop-color="#EAB91F"/>
      <stop offset="0.55" stop-color="#EBBB1F"/>
      <stop offset="0.59" stop-color="#EFC21E"/>
      <stop offset="0.61" stop-color="#F6CF1C"/>
      <stop offset="0.62" stop-color="#F8D31C"/>
      <stop offset="0.93" stop-color="#F2D707"/>
      <stop offset="1" stop-color="#F0D800"/>
    </linearGradient>
    <linearGradient id="paint22_linear_13_18534" x1="13.0515" y1="63.0077" x2="20.6756" y2="63.0077" gradientUnits="userSpaceOnUse">
      <stop stop-color="#CB7C22"/>
      <stop offset="0.47" stop-color="#ECBB1F"/>
      <stop offset="0.55" stop-color="#EDBD1F"/>
      <stop offset="0.59" stop-color="#F1C41E"/>
      <stop offset="0.62" stop-color="#F8D21D"/>
      <stop offset="0.93" stop-color="#F2D609"/>
      <stop offset="1" stop-color="#F0D800"/>
    </linearGradient>
    <linearGradient id="paint23_linear_13_18534" x1="13.0995" y1="63.0077" x2="20.6277" y2="63.0077" gradientUnits="userSpaceOnUse">
      <stop stop-color="#CF801F"/>
      <stop offset="0.22" stop-color="#DF9F20"/>
      <stop offset="0.47" stop-color="#EEBC20"/>
      <stop offset="0.56" stop-color="#EFBE20"/>
      <stop offset="0.59" stop-color="#F3C51F"/>
      <stop offset="0.62" stop-color="#F9D11D"/>
      <stop offset="0.93" stop-color="#F3D60B"/>
      <stop offset="1" stop-color="#F0D800"/>
    </linearGradient>
    <linearGradient id="paint24_linear_13_18534" x1="13.1473" y1="63.0077" x2="20.5836" y2="63.0077" gradientUnits="userSpaceOnUse">
      <stop stop-color="#D3841C"/>
      <stop offset="0.05" stop-color="#D78C1D"/>
      <stop offset="0.32" stop-color="#E9B01F"/>
      <stop offset="0.47" stop-color="#F0BE20"/>
      <stop offset="0.56" stop-color="#F1C020"/>
      <stop offset="0.6" stop-color="#F5C71F"/>
      <stop offset="0.62" stop-color="#FAD01E"/>
      <stop offset="0.93" stop-color="#F3D60D"/>
      <stop offset="1" stop-color="#F0D800"/>
    </linearGradient>
    <linearGradient id="paint25_linear_13_18534" x1="13.1953" y1="63.0077" x2="20.5357" y2="63.0077" gradientUnits="userSpaceOnUse">
      <stop stop-color="#D8871A"/>
      <stop offset="0.15" stop-color="#E39E1C"/>
      <stop offset="0.35" stop-color="#EEB61F"/>
      <stop offset="0.47" stop-color="#F2BF20"/>
      <stop offset="0.56" stop-color="#F3C120"/>
      <stop offset="0.6" stop-color="#F7C81F"/>
      <stop offset="0.62" stop-color="#FBCF1E"/>
      <stop offset="0.93" stop-color="#F4D60F"/>
      <stop offset="1" stop-color="#F0D800"/>
    </linearGradient>
    <linearGradient id="paint26_linear_13_18534" x1="13.2393" y1="63.0077" x2="20.4877" y2="63.0077" gradientUnits="userSpaceOnUse">
      <stop stop-color="#DC8B17"/>
      <stop offset="0.19" stop-color="#EAA81C"/>
      <stop offset="0.35" stop-color="#F2BB1F"/>
      <stop offset="0.47" stop-color="#F5C120"/>
      <stop offset="0.57" stop-color="#F6C320"/>
      <stop offset="0.61" stop-color="#FACA1F"/>
      <stop offset="0.62" stop-color="#FBCD1F"/>
      <stop offset="0.93" stop-color="#F4D512"/>
      <stop offset="1" stop-color="#F0D800"/>
    </linearGradient>
    <linearGradient id="paint27_linear_13_18534" x1="13.2872" y1="63.0077" x2="20.4398" y2="63.0077" gradientUnits="userSpaceOnUse">
      <stop stop-color="#E18E15"/>
      <stop offset="0.05" stop-color="#E59717"/>
      <stop offset="0.2" stop-color="#EFAE1C"/>
      <stop offset="0.35" stop-color="#F5BD1F"/>
      <stop offset="0.47" stop-color="#F7C220"/>
      <stop offset="0.57" stop-color="#F8C420"/>
      <stop offset="0.62" stop-color="#FCCC1F"/>
      <stop offset="0.93" stop-color="#F5D514"/>
      <stop offset="1" stop-color="#F0D800"/>
    </linearGradient>
    <linearGradient id="paint28_linear_13_18534" x1="13.3352" y1="63.0077" x2="20.3959" y2="63.0077" gradientUnits="userSpaceOnUse">
      <stop stop-color="#E59212"/>
      <stop offset="0.07" stop-color="#EAA016"/>
      <stop offset="0.2" stop-color="#F3B41B"/>
      <stop offset="0.34" stop-color="#F7C01F"/>
      <stop offset="0.47" stop-color="#F9C420"/>
      <stop offset="0.58" stop-color="#FAC620"/>
      <stop offset="0.62" stop-color="#FDCB20"/>
      <stop offset="0.93" stop-color="#F5D516"/>
      <stop offset="1" stop-color="#F0D800"/>
    </linearGradient>
    <linearGradient id="paint29_linear_13_18534" x1="13.3792" y1="63.0077" x2="20.3479" y2="63.0077" gradientUnits="userSpaceOnUse">
      <stop stop-color="#E9960F"/>
      <stop offset="0.08" stop-color="#EFA615"/>
      <stop offset="0.19" stop-color="#F6B71C"/>
      <stop offset="0.32" stop-color="#FAC220"/>
      <stop offset="0.47" stop-color="#FBC521"/>
      <stop offset="0.59" stop-color="#FCC721"/>
      <stop offset="0.62" stop-color="#FECA20"/>
      <stop offset="0.93" stop-color="#F6D518"/>
      <stop offset="1" stop-color="#F0D800"/>
    </linearGradient>
    <linearGradient id="paint30_linear_13_18534" x1="13.4271" y1="63.0077" x2="20.3" y2="63.0077" gradientUnits="userSpaceOnUse">
      <stop stop-color="#EE990D"/>
      <stop offset="0.08" stop-color="#F4AC15"/>
      <stop offset="0.18" stop-color="#F9BB1C"/>
      <stop offset="0.3" stop-color="#FCC420"/>
      <stop offset="0.47" stop-color="#FDC721"/>
      <stop offset="0.62" stop-color="#FEC921"/>
      <stop offset="0.93" stop-color="#F6D41A"/>
      <stop offset="1" stop-color="#F0D800"/>
    </linearGradient>
    <linearGradient id="paint31_linear_13_18534" x1="13.4751" y1="63.0077" x2="20.2561" y2="63.0077" gradientUnits="userSpaceOnUse">
      <stop stop-color="#F29D0A"/>
      <stop offset="0.07" stop-color="#F8B014"/>
      <stop offset="0.16" stop-color="#FCBD1B"/>
      <stop offset="0.27" stop-color="#FEC620"/>
      <stop offset="0.47" stop-color="#FFC821"/>
      <stop offset="0.77" stop-color="#FECA20"/>
      <stop offset="0.9" stop-color="#F9D11D"/>
      <stop offset="0.93" stop-color="#F7D41C"/>
      <stop offset="1" stop-color="#F0D800"/>
    </linearGradient>
    <linearGradient id="paint32_linear_13_18534" x1="4.87598" y1="77.7045" x2="11.8647" y2="77.7045" gradientUnits="userSpaceOnUse">
      <stop stop-color="#363B39"/>
      <stop offset="1" stop-color="#1B1C1C"/>
    </linearGradient>
    <linearGradient id="paint33_linear_13_18534" x1="29.4026" y1="77.7045" x2="22.4138" y2="77.7045" gradientUnits="userSpaceOnUse">
      <stop stop-color="#363B39"/>
      <stop offset="1" stop-color="#1B1C1C"/>
    </linearGradient>
    <linearGradient id="paint34_linear_13_18534" x1="17.1313" y1="77.9203" x2="17.1313" y2="78.5476" gradientUnits="userSpaceOnUse">
      <stop stop-color="#363B39"/>
      <stop offset="1" stop-color="#1B1C1C"/>
    </linearGradient>
    <linearGradient id="paint35_linear_13_18534" x1="15.1533" y1="15.417" x2="12.504" y2="10.9697" gradientUnits="userSpaceOnUse">
      <stop stop-color="#3B3B3B"/>
      <stop offset="1"/>
    </linearGradient>
    <linearGradient id="paint36_linear_13_18534" x1="17.1313" y1="1.24375" x2="17.1313" y2="0.804203" gradientUnits="userSpaceOnUse">
      <stop stop-color="#363B39"/>
      <stop offset="1" stop-color="#1B1C1C"/>
    </linearGradient>
  </defs>
</svg>