<svg xmlns="http://www.w3.org/2000/svg" width="41" height="98" viewBox="0 0 41 98" fill="none">
  <g filter="url(#filter0_d_13_17609)">
    <path d="M5.49955 2.50499C7.58393 1.28813 26.5308 1.28813 28.6159 2.50499C30.7011 3.72184 32.9412 18.7277 32.9412 18.7277V90.3394H1.17356V18.7277C1.17356 18.7277 3.41517 3.72107 5.49955 2.50499Z" fill="black"/>
    <path d="M6.99053 9.65975C8.63185 8.56528 25.2333 8.56528 26.8738 9.65975C28.5144 10.7542 29.5554 24.3124 29.5554 24.3124V88.7492H4.55217V24.3124C4.55217 24.3124 5.34998 10.7542 6.99053 9.65975Z" fill="#3B3B3B"/>
    <path d="M29.7429 7.99284C30.0311 8.36154 30.7228 10.6264 31.1132 12.5334C31.5035 14.4404 32.409 21.4937 32.0427 21.7508C31.6763 22.008 30.6647 22.125 30.2402 21.7508C29.8158 21.3767 29.5013 16.4915 29.2495 14.8401C28.8437 12.1817 28.1101 10.6349 28.4293 10.1926C28.7484 9.75035 29.3092 7.43825 29.7429 7.99284Z" fill="#385459"/>
    <path d="M30.2379 34.4361C30.2379 34.9209 30.6817 35.3136 31.2294 35.3136C31.777 35.3136 32.2208 34.9209 32.2208 34.4361V23.685C32.2208 23.2001 31.777 22.8074 31.2294 22.8074C30.6817 22.8074 30.2379 23.2001 30.2379 23.685V34.4361Z" fill="#385459"/>
    <path d="M30.2379 47.8362C30.2379 48.3211 30.6817 48.7145 31.2294 48.7145C31.777 48.7145 32.2208 48.3211 32.2208 47.8362V37.0851C32.2208 36.6002 31.777 36.2067 31.2294 36.2067C30.6817 36.2067 30.2379 36.6002 30.2379 37.0851V47.8362Z" fill="#385459"/>
    <path d="M30.2379 61.2371C30.2379 61.722 30.6817 62.1147 31.2294 62.1147C31.777 62.1147 32.2208 61.722 32.2208 61.2371V50.4852C32.2208 50.0003 31.777 49.6076 31.2294 49.6076C30.6817 49.6076 30.2379 50.0003 30.2379 50.4852V61.2371Z" fill="#385459"/>
    <path d="M30.2379 74.638C30.2379 75.1229 30.6817 75.5156 31.2294 75.5156C31.777 75.5156 32.2208 75.1229 32.2208 74.638V63.8853C32.2208 63.4005 31.777 63.0078 31.2294 63.0078C30.6817 63.0078 30.2379 63.4005 30.2379 63.8853V74.638Z" fill="#385459"/>
    <path d="M30.2379 88.0381C30.2379 88.523 30.6817 88.9165 31.2294 88.9165C31.777 88.9165 32.2208 88.523 32.2208 88.0381V77.2855C32.2208 76.8014 31.777 76.4079 31.2294 76.4079C30.6817 76.4079 30.2379 76.8014 30.2379 77.2855V88.0381Z" fill="#385459"/>
    <path d="M4.27496 7.66135C3.98682 8.03082 3.29513 10.2949 2.90397 12.2019C2.51281 14.1089 1.6081 21.1622 1.97448 21.4193C2.34085 21.6765 3.35245 21.7935 3.77691 21.4193C4.20138 21.0452 4.51585 16.16 4.76759 14.5086C5.17346 11.851 5.90699 10.3034 5.58787 9.86114C5.26874 9.41886 4.70794 7.10908 4.27496 7.66135Z" fill="#385459"/>
    <path d="M3.77917 34.1045C3.77917 34.5894 3.33535 34.9821 2.78773 34.9821C2.24088 34.9821 1.79704 34.5894 1.79704 34.1045V23.3519C1.79704 22.867 2.24088 22.4743 2.78773 22.4743C3.33535 22.4743 3.77917 22.867 3.77917 23.3519V34.1045Z" fill="#385459"/>
    <path d="M3.77917 47.5054C3.77917 47.9903 3.33535 48.383 2.78773 48.383C2.24088 48.383 1.79704 47.9903 1.79704 47.5054V36.7528C1.79704 36.2679 2.24088 35.8752 2.78773 35.8752C3.33535 35.8752 3.77917 36.2679 3.77917 36.7528V47.5054Z" fill="#385459"/>
    <path d="M3.77917 60.9056C3.77917 61.3904 3.33535 61.7839 2.78773 61.7839C2.24088 61.7839 1.79704 61.3904 1.79704 60.9056V50.1529C1.79704 49.6688 2.24088 49.2753 2.78773 49.2753C3.33535 49.2753 3.77917 49.6688 3.77917 50.1529V60.9056Z" fill="#385459"/>
    <path d="M3.77917 74.3064C3.77917 74.7913 3.33535 75.184 2.78773 75.184C2.24088 75.184 1.79704 74.7913 1.79704 74.3064V63.5538C1.79704 63.0689 2.24088 62.6762 2.78773 62.6762C3.33535 62.6762 3.77917 63.0689 3.77917 63.5538V74.3064Z" fill="#385459"/>
    <path d="M3.77917 87.7074C3.77917 88.1923 3.33535 88.585 2.78773 88.585C2.24088 88.585 1.79704 88.1923 1.79704 87.7074V76.9547C1.79704 76.4699 2.24088 76.0771 2.78773 76.0771C3.33535 76.0771 3.77917 76.4699 3.77917 76.9547V87.7074Z" fill="#385459"/>
    <path d="M6.55835 5.46619L4.54137 4.52509L1.00002 4.65986L1.08908 5.15249L4.36166 4.92864L6.1548 6.18345L6.55835 5.46619Z" fill="#303030"/>
    <path d="M27.4587 5.46619L29.4757 4.52509L33.0178 4.65986L32.928 5.15249L29.6554 4.92864L27.8623 6.18345L27.4587 5.46619Z" fill="#303030"/>
    <path d="M28.3216 4.87208C28.9885 5.23149 27.4789 8.8836 27.4789 8.8836C27.4789 8.8836 20.8416 8.10283 17.7866 8.10283C9.14782 8.10283 7.25244 9.24765 6.72495 8.8836C6.19747 8.51955 5.46163 5.03785 5.72343 4.69471C6.30359 3.93408 11.1307 3.42906 16.6728 3.41279C23.1591 3.3911 27.1629 4.24313 28.3216 4.87208Z" fill="#385459"/>
    <path d="M10.8379 21.362H23.2713C23.8685 21.362 24.3527 21.8461 24.3527 22.4433V32.5685C24.3527 33.1657 23.8685 33.6498 23.2713 33.6498H10.8379C10.2407 33.6498 9.75658 33.1657 9.75658 32.5685V22.4433C9.75658 21.8461 10.2407 21.362 10.8379 21.362Z" fill="#636363"/>
    <path d="M10.8634 20.8214H23.2969C23.8941 20.8214 24.3782 21.3055 24.3782 21.9027V32.0279C24.3782 32.6251 23.8941 33.1092 23.2969 33.1092H10.8634C10.2662 33.1092 9.7821 32.6251 9.7821 32.0279V21.9027C9.7821 21.3055 10.2662 20.8214 10.8634 20.8214Z" fill="black"/>
    <path d="M10.6427 56.2411H23.0762C23.6733 56.2411 24.1575 56.7252 24.1575 57.3224V67.4476C24.1575 68.0448 23.6733 68.5289 23.0762 68.5289H10.6427C10.0455 68.5289 9.56139 68.0448 9.56139 67.4476V57.3224C9.56139 56.7252 10.0455 56.2411 10.6427 56.2411Z" fill="#636363"/>
    <path d="M10.6691 55.7004H23.1025C23.6997 55.7004 24.1838 56.1845 24.1838 56.7817V66.907C24.1838 67.5041 23.6997 67.9883 23.1025 67.9883H10.6691C10.0719 67.9883 9.58777 67.5041 9.58777 66.907V56.7817C9.58777 56.1845 10.0719 55.7004 10.6691 55.7004Z" fill="black"/>
    <path d="M23.7834 2.14481C23.7833 2.18142 23.7904 2.21771 23.8043 2.25158C23.8182 2.28545 23.8387 2.31624 23.8645 2.34221C23.8903 2.36817 23.921 2.3888 23.9548 2.40291C23.9886 2.41701 24.0248 2.42433 24.0614 2.42443H27.8569C27.9307 2.42402 28.0013 2.39436 28.0533 2.34194C28.1053 2.28952 28.1344 2.21863 28.1342 2.14481C28.1344 2.10819 28.1273 2.07189 28.1135 2.03798C28.0997 2.00407 28.0793 1.97321 28.0536 1.94718C28.0278 1.92114 27.9972 1.90043 27.9634 1.88623C27.9297 1.87203 27.8935 1.86461 27.8569 1.86441H24.0614C23.9874 1.86482 23.9166 1.89457 23.8644 1.94713C23.8123 1.99969 23.7832 2.07078 23.7834 2.14481Z" fill="#385459"/>
    <path d="M23.9382 1.86442C24.1791 1.36715 24.9925 1 25.9591 1C26.9258 1 27.7406 1.36715 27.98 1.86442H23.9382Z" fill="#CECDB6"/>
    <path d="M5.84261 2.14481C5.84241 2.21863 5.87148 2.28952 5.92346 2.34194C5.97545 2.39436 6.0461 2.42402 6.11992 2.42443H9.91533C9.98915 2.42402 10.0598 2.39436 10.1118 2.34194C10.1638 2.28952 10.1928 2.21863 10.1926 2.14481C10.1928 2.10819 10.1858 2.07189 10.172 2.03798C10.1582 2.00407 10.1378 1.97321 10.112 1.94718C10.0863 1.92114 10.0557 1.90043 10.0219 1.88623C9.98816 1.87203 9.95195 1.86461 9.91533 1.86441H6.11992C6.0833 1.86461 6.04707 1.87203 6.01332 1.88623C5.97956 1.90043 5.94894 1.92114 5.92319 1.94718C5.89744 1.97321 5.87707 2.00407 5.86324 2.03798C5.84942 2.07189 5.84241 2.10819 5.84261 2.14481Z" fill="#385459"/>
    <path d="M5.99762 1.86442C6.23774 1.36715 7.05105 1 8.01849 1C8.98593 1 9.80001 1.36715 10.0386 1.86442H5.99762Z" fill="#CECDB6"/>
  </g>
  <defs>
    <filter id="filter0_d_13_17609" x="0" y="0" width="40.0178" height="97.3394" filterUnits="userSpaceOnUse" color-interpolation-filters="sRGB">
      <feFlood flood-opacity="0" result="BackgroundImageFix"/>
      <feColorMatrix in="SourceAlpha" type="matrix" values="0 0 0 0 0 0 0 0 0 0 0 0 0 0 0 0 0 0 127 0" result="hardAlpha"/>
      <feOffset dx="3" dy="3"/>
      <feGaussianBlur stdDeviation="2"/>
      <feComposite in2="hardAlpha" operator="out"/>
      <feColorMatrix type="matrix" values="0 0 0 0 0 0 0 0 0 0 0 0 0 0 0 0 0 0 0.25 0"/>
      <feBlend mode="normal" in2="BackgroundImageFix" result="effect1_dropShadow_13_17609"/>
      <feBlend mode="normal" in="SourceGraphic" in2="effect1_dropShadow_13_17609" result="shape"/>
    </filter>
  </defs>
</svg>