<svg xmlns="http://www.w3.org/2000/svg" width="41" height="98" viewBox="0 0 41 98" fill="none">
  <g filter="url(#filter0_d_13_17635)">
    <path d="M6.48173 2.50499C8.56611 1.28813 27.513 1.28813 29.5981 2.50499C31.6833 3.72184 33.9233 18.7277 33.9233 18.7277V90.3394H2.15574V18.7277C2.15574 18.7277 4.39735 3.72107 6.48173 2.50499Z" fill="#FF0000"/>
    <path d="M7.97271 9.65975C9.61403 8.56528 26.2155 8.56528 27.856 9.65975C29.4966 10.7542 30.5376 24.3124 30.5376 24.3124V88.7492H5.53435V24.3124C5.53435 24.3124 6.33216 10.7542 7.97271 9.65975Z" fill="#FF0000"/>
    <path d="M30.7251 7.99284C31.0133 8.36154 31.705 10.6264 32.0953 12.5334C32.4857 14.4404 33.3912 21.4937 33.0248 21.7508C32.6585 22.008 31.6469 22.125 31.2224 21.7508C30.7979 21.3767 30.4835 16.4915 30.2317 14.8401C29.8258 12.1817 29.0923 10.6349 29.4115 10.1926C29.7306 9.75035 30.2914 7.43825 30.7251 7.99284Z" fill="#385459"/>
    <path d="M31.2201 34.4361C31.2201 34.9209 31.6639 35.3136 32.2115 35.3136C32.7592 35.3136 33.203 34.9209 33.203 34.4361V23.685C33.203 23.2001 32.7592 22.8074 32.2115 22.8074C31.6639 22.8074 31.2201 23.2001 31.2201 23.685V34.4361Z" fill="#385459"/>
    <path d="M31.2201 47.8362C31.2201 48.3211 31.6639 48.7145 32.2115 48.7145C32.7592 48.7145 33.203 48.3211 33.203 47.8362V37.0851C33.203 36.6002 32.7592 36.2067 32.2115 36.2067C31.6639 36.2067 31.2201 36.6002 31.2201 37.0851V47.8362Z" fill="#385459"/>
    <path d="M31.2201 61.2371C31.2201 61.722 31.6639 62.1147 32.2115 62.1147C32.7592 62.1147 33.203 61.722 33.203 61.2371V50.4852C33.203 50.0003 32.7592 49.6076 32.2115 49.6076C31.6639 49.6076 31.2201 50.0003 31.2201 50.4852V61.2371Z" fill="#385459"/>
    <path d="M31.2201 74.638C31.2201 75.1229 31.6639 75.5156 32.2115 75.5156C32.7592 75.5156 33.203 75.1229 33.203 74.638V63.8853C33.203 63.4005 32.7592 63.0078 32.2115 63.0078C31.6639 63.0078 31.2201 63.4005 31.2201 63.8853V74.638Z" fill="#385459"/>
    <path d="M31.2201 88.0381C31.2201 88.523 31.6639 88.9165 32.2115 88.9165C32.7592 88.9165 33.203 88.523 33.203 88.0381V77.2855C33.203 76.8014 32.7592 76.4079 32.2115 76.4079C31.6639 76.4079 31.2201 76.8014 31.2201 77.2855V88.0381Z" fill="#385459"/>
    <path d="M5.25714 7.66135C4.96899 8.03082 4.2773 10.2949 3.88614 12.2019C3.49498 14.1089 2.59028 21.1622 2.95665 21.4193C3.32303 21.6765 4.33462 21.7935 4.75909 21.4193C5.18356 21.0452 5.49803 16.16 5.74976 14.5086C6.15564 11.851 6.88917 10.3034 6.57004 9.86114C6.25092 9.41886 5.69012 7.10908 5.25714 7.66135Z" fill="#385459"/>
    <path d="M4.76135 34.1045C4.76135 34.5894 4.31753 34.9821 3.7699 34.9821C3.22305 34.9821 2.77922 34.5894 2.77922 34.1045V23.3519C2.77922 22.867 3.22305 22.4743 3.7699 22.4743C4.31753 22.4743 4.76135 22.867 4.76135 23.3519V34.1045Z" fill="#385459"/>
    <path d="M4.76135 47.5054C4.76135 47.9903 4.31753 48.383 3.7699 48.383C3.22305 48.383 2.77922 47.9903 2.77922 47.5054V36.7528C2.77922 36.2679 3.22305 35.8752 3.7699 35.8752C4.31753 35.8752 4.76135 36.2679 4.76135 36.7528V47.5054Z" fill="#385459"/>
    <path d="M4.76135 60.9056C4.76135 61.3904 4.31753 61.7839 3.7699 61.7839C3.22305 61.7839 2.77922 61.3904 2.77922 60.9056V50.1529C2.77922 49.6688 3.22305 49.2753 3.7699 49.2753C4.31753 49.2753 4.76135 49.6688 4.76135 50.1529V60.9056Z" fill="#385459"/>
    <path d="M4.76135 74.3064C4.76135 74.7913 4.31753 75.184 3.7699 75.184C3.22305 75.184 2.77922 74.7913 2.77922 74.3064V63.5538C2.77922 63.0689 3.22305 62.6762 3.7699 62.6762C4.31753 62.6762 4.76135 63.0689 4.76135 63.5538V74.3064Z" fill="#385459"/>
    <path d="M4.76135 87.7074C4.76135 88.1923 4.31753 88.585 3.7699 88.585C3.22305 88.585 2.77922 88.1923 2.77922 87.7074V76.9547C2.77922 76.4699 3.22305 76.0771 3.7699 76.0771C4.31753 76.0771 4.76135 76.4699 4.76135 76.9547V87.7074Z" fill="#385459"/>
    <path d="M7.54053 5.46619L5.52354 4.52509L1.98219 4.65986L2.07126 5.15249L5.34384 4.92864L7.13698 6.18345L7.54053 5.46619Z" fill="#40413C"/>
    <path d="M28.4409 5.46619L30.4579 4.52509L34 4.65986L33.9102 5.15249L30.6376 4.92864L28.8444 6.18345L28.4409 5.46619Z" fill="#40413C"/>
    <path d="M29.3038 4.87208C29.9707 5.23149 28.4611 8.8836 28.4611 8.8836C28.4611 8.8836 21.8237 8.10283 18.7688 8.10283C10.13 8.10283 8.23461 9.24765 7.70713 8.8836C7.17964 8.51955 6.4438 5.03785 6.70561 4.69471C7.28576 3.93408 12.1129 3.42906 17.655 3.41279C24.1413 3.3911 28.145 4.24313 29.3038 4.87208Z" fill="#385459"/>
    <path d="M11.8201 21.362H24.2535C24.8507 21.362 25.3348 21.8461 25.3348 22.4433V32.5685C25.3348 33.1657 24.8507 33.6498 24.2535 33.6498H11.8201C11.2229 33.6498 10.7388 33.1657 10.7388 32.5685V22.4433C10.7388 21.8461 11.2229 21.362 11.8201 21.362Z" fill="#FF0000"/>
    <path d="M11.8456 20.8214H24.279C24.8762 20.8214 25.3604 21.3055 25.3604 21.9027V32.0279C25.3604 32.6251 24.8762 33.1092 24.279 33.1092H11.8456C11.2484 33.1092 10.7643 32.6251 10.7643 32.0279V21.9027C10.7643 21.3055 11.2484 20.8214 11.8456 20.8214Z" fill="black"/>
    <path d="M11.6249 56.2411H24.0583C24.6555 56.2411 25.1396 56.7252 25.1396 57.3224V67.4476C25.1396 68.0448 24.6555 68.5289 24.0583 68.5289H11.6249C11.0277 68.5289 10.5436 68.0448 10.5436 67.4476V57.3224C10.5436 56.7252 11.0277 56.2411 11.6249 56.2411Z" fill="#FF0000"/>
    <path d="M11.6512 55.7004H24.0847C24.6819 55.7004 25.166 56.1845 25.166 56.7817V66.907C25.166 67.5041 24.6819 67.9883 24.0847 67.9883H11.6512C11.0541 67.9883 10.5699 67.5041 10.5699 66.907V56.7817C10.5699 56.1845 11.0541 55.7004 11.6512 55.7004Z" fill="black"/>
    <path d="M24.7655 2.14481C24.7654 2.18142 24.7726 2.21771 24.7865 2.25158C24.8004 2.28545 24.8208 2.31624 24.8467 2.34221C24.8725 2.36817 24.9032 2.3888 24.937 2.40291C24.9708 2.41701 25.007 2.42433 25.0436 2.42443H28.839C28.9129 2.42402 28.9835 2.39436 29.0355 2.34194C29.0875 2.28952 29.1165 2.21863 29.1163 2.14481C29.1165 2.10819 29.1095 2.07189 29.0957 2.03798C29.0819 2.00407 29.0615 1.97321 29.0358 1.94718C29.01 1.92114 28.9794 1.90043 28.9456 1.88623C28.9119 1.87203 28.8757 1.86461 28.839 1.86441H25.0436C24.9696 1.86482 24.8987 1.89457 24.8466 1.94713C24.7945 1.99969 24.7653 2.07078 24.7655 2.14481Z" fill="#385459"/>
    <path d="M24.9204 1.86442C25.1613 1.36715 25.9746 1 26.9413 1C27.908 1 28.7228 1.36715 28.9622 1.86442H24.9204Z" fill="#CECDB6"/>
    <path d="M6.82479 2.14481C6.82458 2.21863 6.85366 2.28952 6.90564 2.34194C6.95762 2.39436 7.02827 2.42402 7.10209 2.42443H10.8975C10.9713 2.42402 11.042 2.39436 11.0939 2.34194C11.1459 2.28952 11.175 2.21863 11.1748 2.14481C11.175 2.10819 11.168 2.07189 11.1542 2.03798C11.1403 2.00407 11.12 1.97321 11.0942 1.94718C11.0685 1.92114 11.0378 1.90043 11.0041 1.88623C10.9703 1.87203 10.9341 1.86461 10.8975 1.86441H7.10209C7.06547 1.86461 7.02925 1.87203 6.99549 1.88623C6.96174 1.90043 6.93112 1.92114 6.90537 1.94718C6.87962 1.97321 6.85925 2.00407 6.84542 2.03798C6.8316 2.07189 6.82459 2.10819 6.82479 2.14481Z" fill="#385459"/>
    <path d="M6.9798 1.86442C7.21991 1.36715 8.03322 1 9.00067 1C9.96811 1 10.7822 1.36715 11.0208 1.86442H6.9798Z" fill="#CECDB6"/>
  </g>
  <defs>
    <filter id="filter0_d_13_17635" x="0.982178" y="0" width="40.0178" height="97.3394" filterUnits="userSpaceOnUse" color-interpolation-filters="sRGB">
      <feFlood flood-opacity="0" result="BackgroundImageFix"/>
      <feColorMatrix in="SourceAlpha" type="matrix" values="0 0 0 0 0 0 0 0 0 0 0 0 0 0 0 0 0 0 127 0" result="hardAlpha"/>
      <feOffset dx="3" dy="3"/>
      <feGaussianBlur stdDeviation="2"/>
      <feComposite in2="hardAlpha" operator="out"/>
      <feColorMatrix type="matrix" values="0 0 0 0 0 0 0 0 0 0 0 0 0 0 0 0 0 0 0.25 0"/>
      <feBlend mode="normal" in2="BackgroundImageFix" result="effect1_dropShadow_13_17635"/>
      <feBlend mode="normal" in="SourceGraphic" in2="effect1_dropShadow_13_17635" result="shape"/>
    </filter>
  </defs>
</svg>