<svg width="25" height="24" viewBox="0 0 25 24" fill="none" xmlns="http://www.w3.org/2000/svg">
<path d="M16.0822 3C16.8067 3.00012 17.5104 3.24224 18.0815 3.68794C18.6526 4.13363 19.0584 4.75733 19.2345 5.46L19.6195 7H20.5326C20.7138 7.00001 20.889 7.06564 21.0256 7.18477C21.1622 7.30389 21.251 7.46845 21.2756 7.648L21.2826 7.75C21.2826 7.93124 21.217 8.10634 21.0979 8.24293C20.9787 8.37952 20.8142 8.46835 20.6346 8.493L20.5326 8.5H19.9965L20.2046 9.326C20.5351 9.52664 20.8084 9.8091 20.9979 10.1461C21.1875 10.4831 21.2869 10.8633 21.2866 11.25V19.747C21.2866 20.2111 21.1023 20.6562 20.774 20.9844C20.4458 21.3126 20.0007 21.497 19.5365 21.497H18.0324C17.5682 21.497 17.1231 21.3126 16.7949 20.9844C16.4667 20.6562 16.2823 20.2111 16.2823 19.747L16.2813 18.5H8.28564V19.747C8.28564 20.2111 8.10125 20.6562 7.77304 20.9844C7.44482 21.3126 6.99967 21.497 6.5355 21.497H5.03139C4.56722 21.497 4.12207 21.3126 3.79385 20.9844C3.46564 20.6562 3.28125 20.2111 3.28125 19.747V11.25C3.28125 10.435 3.71428 9.721 4.36333 9.327L4.57035 8.5H4.03131C3.85006 8.49999 3.67494 8.43436 3.53834 8.31523C3.40174 8.19611 3.3129 8.03155 3.28825 7.852L3.28125 7.75C3.28126 7.56876 3.3469 7.39366 3.46603 7.25707C3.58516 7.12048 3.74973 7.03165 3.9293 7.007L4.03131 7H4.94438L5.33041 5.462C5.50617 4.75879 5.91198 4.13451 6.48333 3.68842C7.05467 3.24232 7.75876 3.00001 8.48365 3H16.0812H16.0822ZM6.78452 18.5H4.78037L4.78137 19.747C4.78137 19.885 4.89338 19.997 5.03139 19.997H6.5355C6.60181 19.997 6.66541 19.9707 6.71229 19.9238C6.75918 19.8769 6.78552 19.8133 6.78552 19.747V18.5H6.78452ZM19.7855 18.5H17.7804L17.7814 19.747C17.7814 19.885 17.8934 19.997 18.0314 19.997H19.5355C19.6018 19.997 19.6654 19.9707 19.7123 19.9238C19.7592 19.8769 19.7855 19.8133 19.7855 19.747V18.5ZM19.0355 10.5H5.53142C5.3325 10.5 5.14172 10.579 5.00105 10.7197C4.86039 10.8603 4.78137 11.0511 4.78137 11.25V17H19.7865V11.25C19.7865 11.0511 19.7075 10.8603 19.5668 10.7197C19.4262 10.579 19.2344 10.5 19.0355 10.5ZM10.5318 14H14.0341C14.224 14.0003 14.4068 14.0727 14.5455 14.2025C14.6841 14.3323 14.7684 14.5099 14.7812 14.6994C14.794 14.8889 14.7345 15.0762 14.6145 15.2235C14.4946 15.3708 14.3233 15.4671 14.1351 15.493L14.0341 15.5H10.5318C10.3418 15.4999 10.1588 15.4278 10.02 15.298C9.88112 15.1683 9.79668 14.9907 9.78373 14.8011C9.77078 14.6115 9.83027 14.4241 9.9502 14.2767C10.0701 14.1293 10.2415 14.0329 10.4298 14.007L10.5318 14ZM17.2823 12C17.5476 12 17.8019 12.1054 17.9895 12.2929C18.1771 12.4804 18.2824 12.7348 18.2824 13C18.2824 13.2652 18.1771 13.5196 17.9895 13.7071C17.8019 13.8946 17.5476 14 17.2823 14C17.0171 14 16.7627 13.8946 16.5752 13.7071C16.3876 13.5196 16.2823 13.2652 16.2823 13C16.2823 12.7348 16.3876 12.4804 16.5752 12.2929C16.7627 12.1054 17.0171 12 17.2823 12ZM7.28156 12C7.5468 12 7.80117 12.1054 7.98872 12.2929C8.17627 12.4804 8.28164 12.7348 8.28164 13C8.28164 13.2652 8.17627 13.5196 7.98872 13.7071C7.80117 13.8946 7.5468 14 7.28156 14C7.01632 14 6.76195 13.8946 6.5744 13.7071C6.38685 13.5196 6.28148 13.2652 6.28148 13C6.28148 12.7348 6.38685 12.4804 6.5744 12.2929C6.76195 12.1054 7.01632 12 7.28156 12ZM16.0822 4.5H8.48265C8.09225 4.49997 7.71304 4.63047 7.40534 4.87074C7.09764 5.11101 6.87911 5.44725 6.78452 5.826L5.99246 9H18.5754L17.7794 5.824C17.6844 5.44562 17.4657 5.10983 17.1581 4.86995C16.8504 4.63007 16.4714 4.49986 16.0812 4.5H16.0822Z" fill="#9C4900"/>
</svg>
