<svg width="25" height="24" viewBox="0 0 25 24" fill="none" xmlns="http://www.w3.org/2000/svg">
<path d="M4.28141 20C3.73136 20 3.26066 19.8043 2.8693 19.413C2.47727 19.021 2.28125 18.55 2.28125 18V6C2.28125 5.45 2.47727 4.97933 2.8693 4.588C3.26066 4.196 3.73136 4 4.28141 4H14.3822C14.3155 4.33333 14.2822 4.66667 14.2822 5C14.2822 5.33333 14.3155 5.66667 14.3822 6H4.28141L12.282 11L15.9323 8.725C16.1657 8.94167 16.42 9.129 16.6954 9.287C16.9701 9.44567 17.2574 9.58333 17.5574 9.7L12.282 13L4.28141 8V18H20.2826V9.9C20.666 9.81667 21.0244 9.7 21.3577 9.55C21.6911 9.4 21.9994 9.21667 22.2828 9V18C22.2828 18.55 22.0871 19.021 21.6958 19.413C21.3037 19.8043 20.8327 20 20.2826 20H4.28141ZM19.2826 8C18.4492 8 17.7408 7.70833 17.1574 7.125C16.574 6.54167 16.2823 5.83333 16.2823 5C16.2823 4.16667 16.574 3.45833 17.1574 2.875C17.7408 2.29167 18.4492 2 19.2826 2C20.116 2 20.8244 2.29167 21.4077 2.875C21.9911 3.45833 22.2828 4.16667 22.2828 5C22.2828 5.83333 21.9911 6.54167 21.4077 7.125C20.8244 7.70833 20.116 8 19.2826 8Z" fill="#9C4900"/>
</svg>
