<svg width="23" height="14" viewBox="0 0 23 14" fill="none" xmlns="http://www.w3.org/2000/svg">
<path d="M11.3594 13C16.8824 13 21.3594 7 21.3594 7C21.3594 7 16.8824 1 11.3594 1C5.83638 1 1.35938 7 1.35938 7C1.35938 7 5.83638 13 11.3594 13Z" stroke="#9C4900" stroke-width="2" stroke-linejoin="round"/>
<path d="M11.3594 9.5C12.0224 9.5 12.6583 9.23661 13.1271 8.76777C13.596 8.29893 13.8594 7.66304 13.8594 7C13.8594 6.33696 13.596 5.70107 13.1271 5.23223C12.6583 4.76339 12.0224 4.5 11.3594 4.5C10.6963 4.5 10.0604 4.76339 9.59161 5.23223C9.12277 5.70107 8.85938 6.33696 8.85938 7C8.85938 7.66304 9.12277 8.29893 9.59161 8.76777C10.0604 9.23661 10.6963 9.5 11.3594 9.5Z" stroke="#9C4900" stroke-width="2" stroke-linejoin="round"/>
</svg>
