<svg width="25" height="24" viewBox="0 0 25 24" fill="none" xmlns="http://www.w3.org/2000/svg">
<path d="M16.0594 14.2C16.2427 14.2833 16.4304 14.2917 16.6224 14.225C16.8137 14.1583 16.9427 14.0333 17.0094 13.85C17.1427 13.55 17.2344 13.246 17.2844 12.938C17.3344 12.6293 17.3594 12.3167 17.3594 12C17.3594 11.3667 17.2387 10.7373 16.9974 10.112C16.7554 9.48733 16.3927 8.93333 15.9094 8.45C15.426 7.96667 14.8804 7.60833 14.2724 7.375C13.6637 7.14167 13.0427 7.025 12.4094 7.025L12.8594 6.575C13.0094 6.425 13.0804 6.25 13.0724 6.05C13.0637 5.85 12.9844 5.675 12.8344 5.525C12.6844 5.375 12.5094 5.3 12.3094 5.3C12.1094 5.3 11.9344 5.375 11.7844 5.525L9.80937 7.475C9.70937 7.575 9.65938 7.69167 9.65938 7.825C9.65938 7.95833 9.70937 8.075 9.80937 8.175L11.7844 10.125C11.9344 10.2583 12.1094 10.329 12.3094 10.337C12.5094 10.3457 12.6844 10.275 12.8344 10.125C12.9844 9.975 13.0594 9.8 13.0594 9.6C13.0594 9.4 12.9844 9.225 12.8344 9.075L12.2594 8.5C12.7094 8.5 13.1677 8.58733 13.6344 8.762C14.101 8.93733 14.501 9.19167 14.8344 9.525C15.1677 9.85833 15.422 10.2417 15.5974 10.675C15.772 11.1083 15.8594 11.5417 15.8594 11.975C15.8594 12.175 15.847 12.375 15.8224 12.575C15.797 12.775 15.7427 12.9667 15.6594 13.15C15.576 13.3833 15.572 13.5957 15.6474 13.787C15.722 13.979 15.8594 14.1167 16.0594 14.2ZM11.8844 18.475C12.0344 18.625 12.2094 18.7 12.4094 18.7C12.6094 18.7 12.7844 18.625 12.9344 18.475L14.9094 16.525C15.0094 16.425 15.0594 16.3083 15.0594 16.175C15.0594 16.0417 15.0094 15.925 14.9094 15.825L12.9344 13.875C12.7844 13.7417 12.6094 13.6707 12.4094 13.662C12.2094 13.654 12.0344 13.725 11.8844 13.875C11.7344 14.025 11.6594 14.2 11.6594 14.4C11.6594 14.6 11.7344 14.775 11.8844 14.925L12.4344 15.475C11.9677 15.4917 11.5137 15.4167 11.0724 15.25C10.6304 15.0833 10.2344 14.825 9.88437 14.475C9.55104 14.1417 9.29671 13.7583 9.12138 13.325C8.94671 12.8917 8.85938 12.4583 8.85938 12.025C8.85938 11.8083 8.87204 11.604 8.89738 11.412C8.92204 11.2207 8.97604 11.025 9.05937 10.825C9.12604 10.6417 9.13438 10.4623 9.08438 10.287C9.03438 10.1123 8.93438 9.975 8.78438 9.875C8.58438 9.74167 8.37171 9.70833 8.14638 9.775C7.92171 9.84167 7.76771 9.975 7.68437 10.175C7.55104 10.475 7.46337 10.7707 7.42137 11.062C7.38004 11.354 7.35938 11.6667 7.35938 12C7.35938 12.6333 7.48438 13.2583 7.73438 13.875C7.98438 14.4917 8.35104 15.0417 8.83438 15.525C9.31771 16.0083 9.85938 16.371 10.4594 16.613C11.0594 16.8543 11.676 16.9833 12.3094 17L11.8844 17.425C11.7344 17.575 11.6594 17.75 11.6594 17.95C11.6594 18.15 11.7344 18.325 11.8844 18.475ZM12.3594 22C10.976 22 9.67604 21.7373 8.45938 21.212C7.24271 20.6873 6.18438 19.975 5.28438 19.075C4.38438 18.175 3.67204 17.1167 3.14738 15.9C2.62204 14.6833 2.35938 13.3833 2.35938 12C2.35938 10.6167 2.62204 9.31667 3.14738 8.1C3.67204 6.88333 4.38438 5.825 5.28438 4.925C6.18438 4.025 7.24271 3.31233 8.45938 2.787C9.67604 2.26233 10.976 2 12.3594 2C13.7427 2 15.0427 2.26233 16.2594 2.787C17.476 3.31233 18.5344 4.025 19.4344 4.925C20.3344 5.825 21.0467 6.88333 21.5714 8.1C22.0967 9.31667 22.3594 10.6167 22.3594 12C22.3594 13.3833 22.0967 14.6833 21.5714 15.9C21.0467 17.1167 20.3344 18.175 19.4344 19.075C18.5344 19.975 17.476 20.6873 16.2594 21.212C15.0427 21.7373 13.7427 22 12.3594 22ZM12.3594 20C14.576 20 16.4637 19.221 18.0224 17.663C19.5804 16.1043 20.3594 14.2167 20.3594 12C20.3594 9.78333 19.5804 7.89567 18.0224 6.337C16.4637 4.779 14.576 4 12.3594 4C10.1427 4 8.25537 4.779 6.69737 6.337C5.13871 7.89567 4.35938 9.78333 4.35938 12C4.35938 14.2167 5.13871 16.1043 6.69737 17.663C8.25537 19.221 10.1427 20 12.3594 20Z" fill="#9C4900"/>
</svg>
