<svg width="22" height="42" viewBox="0 0 22 42" fill="none" xmlns="http://www.w3.org/2000/svg">
<path d="M10.2606 40.5152C10.2606 41.1048 10.7385 41.5827 11.3281 41.5827C11.9177 41.5827 12.3957 41.1048 12.3957 40.5152L10.2606 40.5152ZM10.2606 19.1641L10.2606 40.5152L12.3957 40.5152L12.3957 19.1641L10.2606 19.1641Z" fill="black"/>
<path d="M6.0625 40.5156H16.7381" stroke="black" stroke-width="2.13511" stroke-linecap="round"/>
<path d="M15.0727 21.333H7.729C7.51864 21.3335 7.31025 21.2924 7.11592 21.2118C6.92158 21.1313 6.74515 21.013 6.59686 20.8638L1.46138 15.7283C1.31218 15.58 1.19388 15.4036 1.11334 15.2093C1.0328 15.0149 0.991624 14.8065 0.992193 14.5962V7.25244C0.991624 7.04208 1.0328 6.83369 1.11334 6.63936C1.19388 6.44502 1.31218 6.26859 1.46138 6.1203L6.59686 0.984822C6.74515 0.835615 6.92158 0.717316 7.11592 0.636777C7.31025 0.556238 7.51864 0.515061 7.729 0.515631H15.0727C15.2831 0.515061 15.4915 0.556238 15.6858 0.636777C15.8801 0.717316 16.0566 0.835615 16.2049 0.984822L21.3403 6.1203C21.4895 6.26859 21.6078 6.44502 21.6884 6.63936C21.7689 6.83369 21.8101 7.04208 21.8095 7.25244V14.5962C21.8101 14.8065 21.7689 15.0149 21.6884 15.2093C21.6078 15.4036 21.4895 15.58 21.3403 15.7283L16.2049 20.8638C16.0566 21.013 15.8801 21.1313 15.6858 21.2118C15.4915 21.2924 15.2831 21.3335 15.0727 21.333Z" fill="#111111"/>
<path d="M14.6035 20H8.20124C8.01785 20.0005 7.83618 19.9646 7.66676 19.8944C7.49733 19.8242 7.34353 19.7211 7.21425 19.591L2.73717 15.1139C2.60709 14.9846 2.50396 14.8308 2.43374 14.6614C2.36353 14.492 2.32763 14.3103 2.32813 14.1269V7.72468C2.32763 7.54129 2.36353 7.35962 2.43374 7.1902C2.50396 7.02077 2.60709 6.86697 2.73717 6.73769L7.21425 2.26061C7.34353 2.13053 7.49733 2.0274 7.66676 1.95718C7.83618 1.88697 8.01785 1.85107 8.20124 1.85157H14.6035C14.7868 1.85107 14.9685 1.88697 15.1379 1.95718C15.3074 2.0274 15.4612 2.13053 15.5904 2.26061L20.0675 6.73769C20.1976 6.86697 20.3007 7.02077 20.371 7.1902C20.4412 7.35962 20.4771 7.54129 20.4766 7.72468V14.1269C20.4771 14.3103 20.4412 14.492 20.371 14.6614C20.3007 14.8308 20.1976 14.9846 20.0675 15.1139L15.5904 19.591C15.4612 19.7211 15.3074 19.8242 15.1379 19.8944C14.9685 19.9646 14.7868 20.0005 14.6035 20Z" fill="#FF0000"/>
<path d="M5.35938 16.9609L17.4374 4.88292" stroke="black" stroke-width="2.13511" stroke-linecap="round"/>
</svg>
