<svg width="20" height="17" viewBox="0 0 20 17" fill="none" xmlns="http://www.w3.org/2000/svg">
<path d="M19.1581 7.65803L16.3223 4.46936C16.1683 4.29589 15.9791 4.15722 15.7672 4.06258C15.5554 3.96794 15.3259 3.91951 15.0939 3.92049H12.4802V1.63354C12.4803 1.20255 12.3099 0.789024 12.0064 0.483048C11.7029 0.177073 11.2907 0.00344789 10.8598 0H1.63354C1.2003 0 0.784801 0.172105 0.478453 0.478453C0.172105 0.784801 0 1.2003 0 1.63354V12.7416C0 13.1748 0.172105 13.5903 0.478453 13.8967C0.784801 14.203 1.2003 14.3751 1.63354 14.3751H2.06479C2.08868 15.0904 2.39502 15.767 2.91673 16.2569C3.43844 16.7468 4.13301 17.01 4.84834 16.9888C5.56496 17.01 6.26094 16.7472 6.78473 16.2577C7.30852 15.7682 7.6177 15.0916 7.64497 14.3751H12.4018C12.4257 15.0904 12.7321 15.767 13.2538 16.2569C13.7755 16.7468 14.47 17.01 15.1854 16.9888C15.902 17.01 16.598 16.7472 17.1218 16.2577C17.6456 15.7682 17.9547 15.0916 17.982 14.3751C18.4027 14.3551 18.7998 14.1746 19.0915 13.8707C19.3832 13.5669 19.5473 13.1628 19.5502 12.7416V8.7427C19.5595 8.34489 19.4196 7.958 19.1581 7.65803ZM4.84834 15.3553C4.56606 15.377 4.28667 15.286 4.07119 15.1024C3.85572 14.9188 3.72167 14.6573 3.69833 14.3751C3.72167 14.093 3.85572 13.8315 4.07119 13.6479C4.28667 13.4643 4.56606 13.3733 4.84834 13.395C5.13202 13.3732 5.4129 13.4637 5.63046 13.6471C5.84802 13.8304 5.98484 14.0919 6.01143 14.3751C5.98484 14.6584 5.84802 14.9199 5.63046 15.1032C5.4129 15.2866 5.13202 15.3771 4.84834 15.3553ZM10.8598 12.7416H7.03075C6.76037 12.4291 6.42495 12.1794 6.04797 12.0101C5.67099 11.8408 5.26156 11.756 4.84834 11.7615C4.43732 11.7579 4.03043 11.8437 3.65585 12.0129C3.28127 12.1821 2.94796 12.4308 2.679 12.7416H1.63354V1.63354H10.8598V12.7416ZM12.4933 5.55403H15.107L16.9888 7.68417H12.4933V5.55403ZM15.2115 15.3553C14.9292 15.377 14.6498 15.286 14.4344 15.1024C14.2189 14.9188 14.0848 14.6573 14.0615 14.3751C14.0848 14.093 14.2189 13.8315 14.4344 13.6479C14.6498 13.4643 14.9292 13.3733 15.2115 13.395C15.4952 13.3732 15.7761 13.4637 15.9936 13.6471C16.2112 13.8304 16.348 14.0919 16.3746 14.3751C16.348 14.6584 16.2112 14.9199 15.9936 15.1032C15.7761 15.2866 15.4952 15.3771 15.2115 15.3553ZM15.2115 11.7615C14.8005 11.7579 14.3936 11.8437 14.019 12.0129C13.6444 12.1821 13.3111 12.4308 13.0422 12.7416H12.4933V9.30464H17.9428V12.7416H17.3939C17.1235 12.4291 16.7881 12.1794 16.4111 12.0101C16.0342 11.8408 15.6247 11.756 15.2115 11.7615Z" fill="#9C4900"/>
<path d="M4.1203 6.89933H4.91048C5.11842 6.89933 5.28757 7.07456 5.28757 7.29014V9.61654C5.28757 9.88653 5.49937 10.1062 5.75974 10.1062H6.78595C7.04631 10.1062 7.25805 9.88653 7.25805 9.61654V7.29014C7.25805 7.0746 7.42726 6.89933 7.6352 6.89933H8.42539C8.55734 6.89933 8.6522 6.85301 8.69245 6.76886C8.73274 6.68484 8.71097 6.57846 8.63126 6.46942L6.56736 3.64905C6.48987 3.54327 6.38526 3.48488 6.27278 3.48488C6.16033 3.48488 6.05572 3.54327 5.97823 3.64905L3.91433 6.46942C3.83457 6.57846 3.81286 6.68487 3.85314 6.76886C3.89343 6.85301 3.98835 6.89933 4.1203 6.89933Z" fill="#9C4900"/>
</svg>
