<svg width="31" height="18" viewBox="0 0 31 18" fill="none" xmlns="http://www.w3.org/2000/svg">
<path d="M24.8591 4.10564L26.4456 4.15932L26.8946 6.85938H24.6094L24.8591 4.10564Z" fill="#3D4359"/>
<path d="M17.3577 7.63281L18.0923 3.8334C18.1553 3.51439 17.8165 3.25314 17.531 3.4078C16.9411 3.72234 16.4958 4.26421 16.3023 4.92683L15.5312 7.63281H17.3577Z" fill="#3D4359"/>
<path d="M25.1312 7.63281L25.8653 3.8334C25.9283 3.51439 25.5899 3.25314 25.3044 3.4078C24.7141 3.72234 24.2692 4.26421 24.0754 4.92683L23.3047 7.63281H25.1312Z" fill="#3D4359"/>
<path d="M8.42343 0.720596L5.625 7.10156H7.1921L9.13526 1.27324L8.42343 0.720596Z" fill="#F9DF27"/>
<path d="M28.5929 14.7031H1.36582C0.848171 14.7031 0.437125 14.2679 0.470666 13.7551L0.528788 12.7246C0.693511 9.88479 2.8122 7.54327 5.62293 7.09829H26.8946C27.5576 7.91595 28.114 8.7526 28.5008 9.6187C28.6749 10.0055 28.5638 10.4651 28.2347 10.7408C28.7427 11.6021 29.1251 12.5744 29.4202 13.6194C29.5749 14.1612 29.159 14.7031 28.5929 14.7031Z" fill="#F9DF27"/>
<path d="M10.2922 6.93374H10.776V2.01327C10.776 1.89215 10.6742 1.79043 10.5535 1.79043H9.1239C9.01732 1.79043 8.92562 1.86309 8.89655 1.95999L7.20312 7.02505L7.66264 7.17969L9.30278 2.27414H10.2922V6.93374Z" fill="#3D4359"/>
<path d="M26.8954 7.34375H7.43719C7.3034 7.34375 7.19531 7.23529 7.19531 7.10187C7.19531 6.96808 7.3034 6.85963 7.43719 6.85963H26.8954C27.0292 6.85963 27.1372 6.96808 27.1372 7.10187C27.1372 7.23529 27.0292 7.34375 26.8954 7.34375Z" fill="#3D4359"/>
<path d="M28.9104 12.1543C28.7107 11.6613 28.4927 11.1842 28.234 10.7426H27.1391C27.0467 10.7426 26.9971 10.8518 27.0582 10.9215L28.0712 12.0753C28.3235 12.3626 28.597 12.29 28.9104 12.1543Z" fill="#F03C54"/>
<path d="M11.2296 14.3703C11.2296 12.2573 9.51675 10.5444 7.40367 10.5444C5.29096 10.5444 3.57812 12.2573 3.57812 14.3703C3.57812 14.4844 3.60199 14.5917 3.61168 14.7031H11.196C11.2057 14.5917 11.2296 14.4844 11.2296 14.3703Z" fill="#2B303F"/>
<path d="M10.3015 14.3688C10.3015 15.9687 9.00456 17.2656 7.40428 17.2656C5.80475 17.2656 4.50781 15.9687 4.50781 14.3688C4.50781 12.7689 5.80475 11.4716 7.40428 11.4716C9.00456 11.4716 10.3015 12.7689 10.3015 14.3688Z" fill="#3D4359"/>
<path d="M9.17179 14.3715C9.17179 15.3487 8.37947 16.1406 7.40194 16.1406C6.42515 16.1406 5.63281 15.3487 5.63281 14.3715C5.63281 13.3944 6.42515 12.602 7.40194 12.602C8.37947 12.602 9.17179 13.3944 9.17179 14.3715Z" fill="white"/>
<path d="M8.01256 14.3724C8.01256 14.7101 7.73865 14.9844 7.40063 14.9844C7.06299 14.9844 6.78906 14.7101 6.78906 14.3724C6.78906 14.0344 7.06299 13.7605 7.40063 13.7605C7.73865 13.7605 8.01256 14.0344 8.01256 14.3724Z" fill="#3D4359"/>
<path d="M26.2765 14.3703C26.2765 12.2573 24.5636 10.5444 22.4505 10.5444C20.3378 10.5444 18.625 12.2573 18.625 14.3703C18.625 14.4844 18.6489 14.5917 18.6586 14.7031H26.2429C26.2526 14.5917 26.2765 14.4844 26.2765 14.3703Z" fill="#2B303F"/>
<path d="M25.3487 14.3688C25.3487 15.9687 24.0518 17.2656 22.4515 17.2656C20.8516 17.2656 19.5547 15.9687 19.5547 14.3688C19.5547 12.7689 20.8516 11.4716 22.4515 11.4716C24.0518 11.4716 25.3487 12.7689 25.3487 14.3688Z" fill="#3D4359"/>
<path d="M24.2261 14.3715C24.2261 15.3487 23.4338 16.1406 22.4566 16.1406C21.4795 16.1406 20.6875 15.3487 20.6875 14.3715C20.6875 13.3944 21.4795 12.602 22.4566 12.602C23.4338 12.602 24.2261 13.3944 24.2261 14.3715Z" fill="white"/>
<path d="M23.0594 14.3724C23.0594 14.7101 22.7855 14.9844 22.4475 14.9844C22.1095 14.9844 21.8359 14.7101 21.8359 14.3724C21.8359 14.0344 22.1095 13.7605 22.4475 13.7605C22.7855 13.7605 23.0594 14.0344 23.0594 14.3724Z" fill="#3D4359"/>
<path d="M30.0105 13.7132V14.5398C30.0105 14.7735 29.8238 14.9531 29.5901 14.9531H27.8501C27.6164 14.9531 27.4297 14.7735 27.4297 14.5398V13.7132C27.4297 13.4796 27.6164 13.2996 27.8501 13.2996H29.5901C29.8238 13.2996 30.0105 13.4796 30.0105 13.7132Z" fill="#3D4359"/>
<path d="M2.66748 13.7132V14.5398C2.66748 14.7735 2.48074 14.9531 2.25415 14.9531H0.507043C0.273747 14.9531 0.09375 14.7735 0.09375 14.5398V13.7132C0.09375 13.4796 0.273747 13.2996 0.507043 13.2996H2.25415C2.48074 13.2996 2.66748 13.4796 2.66748 13.7132Z" fill="#3D4359"/>
<path d="M17.5694 13.5686C17.5694 13.762 17.4095 13.9219 17.2161 13.9219H12.7286C12.5352 13.9219 12.375 13.762 12.375 13.5686C12.375 13.3751 12.5352 13.2153 12.7286 13.2153H17.2161C17.4095 13.2153 17.5694 13.3751 17.5694 13.5686Z" fill="#FBC611"/>
</svg>
