<svg width="29" height="22" viewBox="0 0 29 22" fill="none" xmlns="http://www.w3.org/2000/svg">
<path d="M6.20774 18.1053V20.4416C6.20774 20.7759 5.93718 21.0469 5.60289 21.0469H2.33157C1.99746 21.0469 1.72656 20.7759 1.72656 20.4416V18.1027C1.72656 17.7684 1.99746 17.4975 2.33157 17.4975H5.60028C5.93569 17.4975 6.20774 17.7696 6.20774 18.1053Z" fill="#3D4359"/>
<path d="M26.7779 18.1053V20.4416C26.7779 20.7759 26.507 21.0469 26.1731 21.0469H22.9017C22.5674 21.0469 22.2968 20.7759 22.2968 20.4416C22.2968 18.538 22.058 17.4975 22.9017 17.4975H26.1705C26.5059 17.4975 26.7779 17.7696 26.7779 18.1053Z" fill="#3D4359"/>
<path d="M27.416 18.9691C27.7722 18.9557 28.057 18.6658 28.0667 18.3091C28.174 14.3286 28.215 12.7533 28.0532 10.6875C28.0249 10.3167 27.8576 9.969 27.5818 9.71632L25.4702 7.71766C24.3917 4.65984 23.514 3.00516 22.8455 2.15769C22.5838 1.82563 22.2123 1.59793 21.796 1.52376C16.5409 0.58499 11.4769 0.494431 6.6627 1.51035C6.27661 1.59159 5.93002 1.80663 5.68405 2.1152C5.02665 2.94031 4.1244 4.60804 3.02802 7.71766L0.913674 9.71632C0.640726 9.969 0.473171 10.3167 0.444773 10.6875C0.28087 12.7533 0.323654 14.3286 0.431544 18.3091C0.441122 18.6658 0.726479 18.9557 1.08283 18.9691C9.92325 19.3031 18.7005 19.3008 27.416 18.9691Z" fill="#F9DF27"/>
<path d="M24.9479 7.78906C17.87 6.62743 10.7354 6.64532 3.54688 7.78906C4.41968 5.32939 5.12814 3.89459 5.65101 3.05756C5.87536 2.69681 6.25624 2.46016 6.67885 2.42401C11.647 1.98872 16.6957 2.00139 21.8133 2.42662C22.2355 2.46277 22.6194 2.69681 22.846 3.05756C23.3614 3.88415 24.0695 5.31635 24.9479 7.78906Z" fill="#3D4359"/>
<path d="M26.9267 14.591L26.8239 15.4411C26.6487 16.8681 25.474 17.96 24.0392 18.0323L21.8371 18.1635C21.6131 18.1765 21.4432 17.9652 21.505 17.7513C22.2079 15.2909 23.8428 14.174 25.7599 14.174H26.5585C26.7825 14.174 26.9551 14.3696 26.9267 14.591Z" fill="#3D4359"/>
<path d="M1.56554 14.591L1.66858 15.4411C1.84389 16.8681 3.01823 17.96 4.45274 18.0323L6.65526 18.1635C6.87924 18.1765 7.04918 17.9652 6.98732 17.7513L6.85353 17.2829C6.32805 15.4437 4.64616 14.174 2.73231 14.174H1.93385C1.7098 14.174 1.53729 14.3696 1.56554 14.591Z" fill="#3D4359"/>
<path d="M20.6811 15.1871C20.5872 15.982 20.2932 16.7769 19.7986 17.5748C19.7267 17.6907 19.5985 17.7657 19.4606 17.775C15.2017 18.0567 13.077 18.0724 9.04019 17.775C8.90565 17.7657 8.77745 17.6907 8.70552 17.5748C8.21098 16.7799 7.91694 15.982 7.82302 15.1871C7.7947 14.9337 7.99185 14.7082 8.24862 14.7082H20.2555C20.5123 14.7082 20.7095 14.9337 20.6811 15.1871Z" fill="#3D4359"/>
<path d="M21.908 11.691L23.8742 9.65213C24.4414 9.0633 25.3787 9.04653 25.9672 9.61374C26.556 10.1813 26.5728 11.1186 26.0056 11.7071C25.5669 12.1621 25.1089 12.1684 22.6004 12.8575C22.2259 12.9604 21.839 12.7401 21.7362 12.3656C21.668 12.1178 21.7421 11.864 21.908 11.691Z" fill="white"/>
<path d="M6.59032 11.691L4.62407 9.65213C4.05686 9.0633 3.11958 9.04653 2.53101 9.61374C1.94244 10.1813 1.92526 11.1186 2.49288 11.7071C2.93138 12.1621 3.38977 12.1684 5.89751 12.8575C6.27242 12.9604 6.65927 12.7401 6.76212 12.3656C6.83032 12.1178 6.75616 11.864 6.59032 11.691Z" fill="white"/>
<path d="M25.4679 7.71593C25.4679 7.71593 23.296 8.02525 20.6567 11.8754C20.4789 12.1389 20.1759 12.2969 19.8603 12.2969H8.63114C8.31511 12.2969 8.01921 12.1389 7.83473 11.8754C5.19543 8.02525 3.02344 7.71593 3.02344 7.71593C10.4677 6.66274 18.0237 6.66274 25.4679 7.71593Z" fill="#F3AF37"/>
<path d="M7.55469 7.20312L10.2872 2.1895C10.5067 2.17981 10.7273 2.17385 10.9475 2.16565L8.23147 7.14908C8.00526 7.16623 7.78053 7.18412 7.55469 7.20312Z" fill="#575E72"/>
<path d="M7.50781 7.28906L7.55402 7.20484C7.77987 7.18584 8.00459 7.16794 8.23081 7.1508L8.19317 7.22012C7.96472 7.24136 7.73626 7.26596 7.50781 7.28906Z" fill="#F4BB4E"/>
<path d="M8.54688 7.125L11.2559 2.15461C11.7705 2.13784 12.2859 2.12442 12.8025 2.11659L10.1259 7.02773C9.59931 7.05494 9.07272 7.08736 8.54688 7.125Z" fill="#575E72"/>
<path d="M8.50781 7.1875L8.54061 7.12713C9.06646 7.08949 9.59305 7.05706 10.1196 7.02986L10.0954 7.07458C9.56621 7.10812 9.03739 7.14166 8.50781 7.1875Z" fill="#F4BB4E"/>
</svg>
