<svg width="32" height="18" viewBox="0 0 32 18" fill="none" xmlns="http://www.w3.org/2000/svg">
<path d="M31.4579 12.9196V14.925C31.4579 15.121 31.2976 15.2812 31.096 15.2812H1.73615C1.41155 15.2812 1.14844 15.0178 1.14844 14.6932V13.0914L1.23751 10.9437C1.28484 9.8398 2.10362 8.92003 3.19556 8.74226L8.38174 7.89367L11.823 1.93009C12.464 0.814672 13.6566 0.126341 14.9442 0.126341H28.1467C28.9893 0.126341 29.6955 0.767342 29.7786 1.604L30.9596 12.5574H31.096C31.2976 12.5574 31.4579 12.7176 31.4579 12.9196Z" fill="white"/>
<path d="M20.0472 1.81774L19.5903 7.27671C19.5549 7.65647 19.2344 7.95312 18.8547 7.95312H10.2686C9.87687 7.95312 9.62756 7.52604 9.82955 7.18764L12.6004 2.37563C13.0812 1.5386 13.983 1.01648 14.9501 1.01648H19.3116C19.7387 1.01648 20.083 1.38432 20.0472 1.81774Z" fill="#3D4359"/>
<path d="M29.4177 6.96217C29.471 7.49026 29.0558 7.95312 28.5218 7.95312H21.4961C21.063 7.95312 20.7246 7.57933 20.7604 7.15224L21.2173 1.6929C21.2468 1.31314 21.5673 1.01648 21.953 1.01648H28.1536C28.5393 1.01648 28.8598 1.30718 28.9015 1.6929L29.4177 6.96217Z" fill="#3D4359"/>
<path d="M31.0583 11.6082C31.0703 11.7505 30.9574 11.875 30.815 11.875H29.9075C29.7827 11.875 29.6817 11.7859 29.6642 11.6674L29.3612 9.66167C29.3437 9.51335 29.4562 9.38291 29.6045 9.38291H30.6607C30.7915 9.38291 30.8981 9.47795 30.9041 9.60838L31.0583 11.6082Z" fill="#F03C54"/>
<path d="M10.8241 14.5016C10.8241 12.4966 9.1985 10.871 7.1935 10.871C5.18812 10.871 3.5625 12.4966 3.5625 14.5016C3.5625 14.7696 3.59343 15.0297 3.64859 15.2812H10.738C10.7932 15.0297 10.8241 14.7696 10.8241 14.5016Z" fill="#313748"/>
<path d="M9.96694 14.5007C9.96694 16.0321 8.72592 17.2734 7.19459 17.2734C5.66326 17.2734 4.42188 16.0321 4.42188 14.5007C4.42188 12.9694 5.66326 11.7284 7.19459 11.7284C8.72592 11.7284 9.96694 12.9694 9.96694 14.5007Z" fill="#3D4359"/>
<path d="M8.84021 14.5016C8.84021 15.4113 8.10306 16.1484 7.19373 16.1484C6.28403 16.1484 5.54688 15.4113 5.54688 14.5016C5.54688 13.5922 6.28403 12.8547 7.19373 12.8547C8.10306 12.8547 8.84021 13.5922 8.84021 14.5016Z" fill="white"/>
<path d="M7.83521 14.4966C7.83521 14.8525 7.54677 15.1406 7.19124 15.1406C6.83533 15.1406 6.54688 14.8525 6.54688 14.4966C6.54688 14.1411 6.83533 13.8527 7.19124 13.8527C7.54677 13.8527 7.83521 14.1411 7.83521 14.4966Z" fill="#313748"/>
<path d="M29.355 14.5016C29.355 12.4966 27.7297 10.871 25.7244 10.871C23.7194 10.871 22.0938 12.4966 22.0938 14.5016C22.0938 14.7696 22.1247 15.0297 22.1798 15.2812H29.2693C29.3241 15.0297 29.355 14.7696 29.355 14.5016Z" fill="#313748"/>
<path d="M28.4986 14.5007C28.4986 16.0321 27.2572 17.2734 25.7258 17.2734C24.1945 17.2734 22.9531 16.0321 22.9531 14.5007C22.9531 12.9694 24.1945 11.7284 25.7258 11.7284C27.2572 11.7284 28.4986 12.9694 28.4986 14.5007Z" fill="#3D4359"/>
<path d="M27.3793 14.5016C27.3793 15.4113 26.6418 16.1484 25.7324 16.1484C24.8231 16.1484 24.0859 15.4113 24.0859 14.5016C24.0859 13.5922 24.8231 12.8547 25.7324 12.8547C26.6418 12.8547 27.3793 13.5922 27.3793 14.5016Z" fill="white"/>
<path d="M26.3739 14.4966C26.3739 14.8525 26.0858 15.1406 25.7299 15.1406C25.3744 15.1406 25.0859 14.8525 25.0859 14.4966C25.0859 14.1411 25.3744 13.8527 25.7299 13.8527C26.0858 13.8527 26.3739 14.1411 26.3739 14.4966Z" fill="#313748"/>
<path d="M2.97744 10.1458H1.41109C1.28177 10.1458 1.17294 10.2431 1.1584 10.3717L1.04026 11.4267C1.02759 11.5407 1.11667 11.6406 1.23183 11.6406H2.60476C2.72476 11.6406 2.83321 11.5683 2.87905 11.4573L3.25211 10.5565C3.33298 10.3608 3.18912 10.1458 2.97744 10.1458Z" fill="#F9DF27"/>
<path d="M2.27312 15.2812H0.941167C0.839799 15.2812 0.757812 15.1989 0.757812 15.0979V13.9635C0.757812 13.8625 0.839799 13.7801 0.941167 13.7801H2.27312C2.37412 13.7801 2.45648 13.8625 2.45648 13.9635V15.0979C2.45648 15.1989 2.37412 15.2812 2.27312 15.2812Z" fill="#3D4359"/>
<path d="M30.1431 15.2812C29.9415 15.2812 29.7812 15.121 29.7812 14.925V12.9196C29.7812 12.7176 29.9415 12.5574 30.1431 12.5574H31.3763C31.5779 12.5574 31.7382 12.7176 31.7382 12.9196V14.925C31.7382 15.121 31.5779 15.2812 31.3763 15.2812H30.1431Z" fill="#3D4359"/>
</svg>
