<svg width="34" height="16" viewBox="0 0 34 16" fill="none" xmlns="http://www.w3.org/2000/svg">
<path d="M29.4793 6.29669V8.95312H10.0703L15.1477 1.98892C15.6243 1.34047 16.379 0.9566 17.1866 0.9566H24.1392C27.0882 0.9566 29.4793 3.34732 29.4793 6.29669Z" fill="#F03C54"/>
<path d="M24.1102 1.78354H21.977C21.7221 1.78354 21.5156 1.99 21.5156 2.24491V7.66363C21.5156 7.91854 21.7221 8.125 21.977 8.125H28.1884C28.4429 8.125 28.6494 7.91854 28.6494 7.66363V6.32274C28.6494 3.81574 26.6172 1.78354 24.1102 1.78354Z" fill="#3D4359"/>
<path d="M20.3244 2.24491C20.3244 1.99 20.1175 1.78354 19.863 1.78354H15.3249C14.7853 1.78354 14.2725 2.04328 13.9546 2.47596L10.3705 7.39195C10.1484 7.6968 10.3661 8.125 10.7436 8.125H19.863C20.1175 8.125 20.3244 7.91854 20.3244 7.66363V2.24491Z" fill="#3D4359"/>
<path d="M29.4793 6.29669V8.95312H10.0703L15.1477 1.98892C15.6243 1.34047 16.379 0.9566 17.1866 0.9566H24.1392C27.0882 0.9566 29.4793 3.34732 29.4793 6.29669Z" fill="#F03C54"/>
<path d="M24.1102 1.78354H21.977C21.7221 1.78354 21.5156 1.99 21.5156 2.24491V7.66363C21.5156 7.91854 21.7221 8.125 21.977 8.125H28.1884C28.4429 8.125 28.6494 7.91854 28.6494 7.66363V6.32274C28.6494 3.81574 26.6172 1.78354 24.1102 1.78354Z" fill="#3D4359"/>
<path d="M20.3244 2.24491C20.3244 1.99 20.1175 1.78354 19.863 1.78354H15.3249C14.7853 1.78354 14.2725 2.04328 13.9546 2.47596L10.3705 7.39195C10.1484 7.6968 10.3661 8.125 10.7436 8.125H19.863C20.1175 8.125 20.3244 7.91854 20.3244 7.66363V2.24491Z" fill="#3D4359"/>
<path d="M32.5204 13.6016V8.65316C32.5204 7.54259 31.62 6.6422 30.5095 6.6422H6.01459C3.30556 6.6422 1.10938 8.83837 1.10938 11.5474V13.6016H32.5204Z" fill="#F03C54"/>
<path d="M7.51569 8.81639C5.32811 8.81639 3.55469 10.59 3.55469 12.7776C3.55469 13.0604 3.58539 13.3355 3.64159 13.6016H11.39C11.4463 13.3355 11.4772 13.0604 11.4772 12.7776C11.4772 10.59 9.70367 8.81639 7.51569 8.81639Z" fill="#313748"/>
<path d="M10.5951 12.7807C10.5951 14.4812 9.21653 15.8594 7.516 15.8594C5.81596 15.8594 4.4375 14.4812 4.4375 12.7807C4.4375 11.0805 5.81596 9.70202 7.516 9.70202C9.21653 9.70202 10.5951 11.0805 10.5951 12.7807Z" fill="#3D4359"/>
<path d="M9.45932 12.7782C9.45932 13.8545 8.58689 14.7266 7.5106 14.7266C6.43468 14.7266 5.5625 13.8545 5.5625 12.7782C5.5625 11.7023 6.43468 10.8299 7.5106 10.8299C8.58689 10.8299 9.45932 11.7023 9.45932 12.7782Z" fill="white"/>
<path d="M8.63413 12.7804C8.63413 13.3979 8.13362 13.8984 7.5161 13.8984C6.89894 13.8984 6.39844 13.3979 6.39844 12.7804C6.39844 12.1633 6.89894 11.6627 7.5161 11.6627C8.13362 11.6627 8.63413 12.1633 8.63413 12.7804Z" fill="#3D4359"/>
<path d="M26.094 8.81639C23.9064 8.81639 22.1328 10.59 22.1328 12.7776C22.1328 13.0604 22.1634 13.3355 22.2196 13.6016H29.968C30.0243 13.3355 30.0552 13.0604 30.0552 12.7776C30.0552 10.59 28.2816 8.81639 26.094 8.81639Z" fill="#313748"/>
<path d="M29.1652 12.7807C29.1652 14.4812 27.7866 15.8594 26.0865 15.8594C24.3863 15.8594 23.0078 14.4812 23.0078 12.7807C23.0078 11.0805 24.3863 9.70202 26.0865 9.70202C27.7866 9.70202 29.1652 11.0805 29.1652 12.7807Z" fill="#3D4359"/>
<path d="M28.0373 12.7782C28.0373 13.8545 27.1649 14.7266 26.089 14.7266C25.0131 14.7266 24.1406 13.8545 24.1406 12.7782C24.1406 11.7023 25.0131 10.8299 26.089 10.8299C27.1649 10.8299 28.0373 11.7023 28.0373 12.7782Z" fill="white"/>
<path d="M27.2041 12.7804C27.2041 13.3979 26.7039 13.8984 26.0864 13.8984C25.4693 13.8984 24.9688 13.3979 24.9688 12.7804C24.9688 12.1633 25.4693 11.6627 26.0864 11.6627C26.7039 11.6627 27.2041 12.1633 27.2041 12.7804Z" fill="#3D4359"/>
<path d="M33.1132 12.1582V13.211C33.1132 13.4294 32.941 13.6016 32.729 13.6016H31.3057C31.0941 13.6016 30.9219 13.4294 30.9219 13.211V12.1582C30.9219 11.9465 31.0941 11.7743 31.3057 11.7743H32.729C32.941 11.7743 33.1132 11.9465 33.1132 12.1582Z" fill="white"/>
<path d="M2.73029 12.1582V13.211C2.73029 13.4294 2.55804 13.6016 2.34625 13.6016H0.92307C0.711277 13.6016 0.539062 13.4294 0.539062 13.211V12.1582C0.539062 11.9465 0.711277 11.7743 0.92307 11.7743H2.34625C2.55804 11.7743 2.73029 11.9465 2.73029 12.1582Z" fill="white"/>
<path d="M32.5204 13.6016V8.65316C32.5204 7.54259 31.62 6.6422 30.5095 6.6422H6.01459C3.30556 6.6422 1.10938 8.83837 1.10938 11.5474V13.6016H32.5204Z" fill="#F03C54"/>
<path d="M7.51569 8.81639C5.32811 8.81639 3.55469 10.59 3.55469 12.7776C3.55469 13.0604 3.58539 13.3355 3.64159 13.6016H11.39C11.4463 13.3355 11.4772 13.0604 11.4772 12.7776C11.4772 10.59 9.70367 8.81639 7.51569 8.81639Z" fill="#313748"/>
<path d="M10.5951 12.7807C10.5951 14.4812 9.21653 15.8594 7.516 15.8594C5.81596 15.8594 4.4375 14.4812 4.4375 12.7807C4.4375 11.0805 5.81596 9.70202 7.516 9.70202C9.21653 9.70202 10.5951 11.0805 10.5951 12.7807Z" fill="#3D4359"/>
<path d="M9.45932 12.7782C9.45932 13.8545 8.58689 14.7266 7.5106 14.7266C6.43468 14.7266 5.5625 13.8545 5.5625 12.7782C5.5625 11.7023 6.43468 10.8299 7.5106 10.8299C8.58689 10.8299 9.45932 11.7023 9.45932 12.7782Z" fill="white"/>
<path d="M8.63413 12.7804C8.63413 13.3979 8.13362 13.8984 7.5161 13.8984C6.89894 13.8984 6.39844 13.3979 6.39844 12.7804C6.39844 12.1633 6.89894 11.6627 7.5161 11.6627C8.13362 11.6627 8.63413 12.1633 8.63413 12.7804Z" fill="#3D4359"/>
<path d="M26.094 8.81639C23.9064 8.81639 22.1328 10.59 22.1328 12.7776C22.1328 13.0604 22.1634 13.3355 22.2196 13.6016H29.968C30.0243 13.3355 30.0552 13.0604 30.0552 12.7776C30.0552 10.59 28.2816 8.81639 26.094 8.81639Z" fill="#313748"/>
<path d="M29.1652 12.7807C29.1652 14.4812 27.7866 15.8594 26.0865 15.8594C24.3863 15.8594 23.0078 14.4812 23.0078 12.7807C23.0078 11.0805 24.3863 9.70202 26.0865 9.70202C27.7866 9.70202 29.1652 11.0805 29.1652 12.7807Z" fill="#3D4359"/>
<path d="M28.0373 12.7782C28.0373 13.8545 27.1649 14.7266 26.089 14.7266C25.0131 14.7266 24.1406 13.8545 24.1406 12.7782C24.1406 11.7023 25.0131 10.8299 26.089 10.8299C27.1649 10.8299 28.0373 11.7023 28.0373 12.7782Z" fill="white"/>
<path d="M27.2041 12.7804C27.2041 13.3979 26.7039 13.8984 26.0864 13.8984C25.4693 13.8984 24.9688 13.3979 24.9688 12.7804C24.9688 12.1633 25.4693 11.6627 26.0864 11.6627C26.7039 11.6627 27.2041 12.1633 27.2041 12.7804Z" fill="#3D4359"/>
<path d="M33.1132 12.1582V13.211C33.1132 13.4294 32.941 13.6016 32.729 13.6016H31.3057C31.0941 13.6016 30.9219 13.4294 30.9219 13.211V12.1582C30.9219 11.9465 31.0941 11.7743 31.3057 11.7743H32.729C32.941 11.7743 33.1132 11.9465 33.1132 12.1582Z" fill="white"/>
<path d="M2.73029 12.1582V13.211C2.73029 13.4294 2.55804 13.6016 2.34625 13.6016H0.92307C0.711277 13.6016 0.539062 13.4294 0.539062 13.211V12.1582C0.539062 11.9465 0.711277 11.7743 0.92307 11.7743H2.34625C2.55804 11.7743 2.73029 11.9465 2.73029 12.1582Z" fill="white"/>
<path d="M18.6084 8.14091C18.6084 8.63694 18.2067 9.03906 17.7107 9.03906C17.2146 9.03906 16.8125 8.63694 16.8125 8.14091C16.8125 7.64525 17.2146 7.24312 17.7107 7.24312C18.2067 7.24312 18.6084 7.64525 18.6084 8.14091Z" fill="#EB2642"/>
<path d="M18.6344 8.47656H16.7949C16.6111 8.47656 16.4609 8.32638 16.4609 8.14265C16.4609 7.95892 16.6111 7.80873 16.7949 7.80873H18.6344C18.8177 7.80873 18.9683 7.95892 18.9683 8.14265C18.9683 8.32638 18.8177 8.47656 18.6344 8.47656Z" fill="#3D4359"/>
<path d="M1.56469 10.9844C1.35636 10.9844 1.1875 10.8155 1.1875 10.6072V8.91229C1.1875 8.70396 1.35636 8.53513 1.56469 8.53513C1.77301 8.53513 1.94172 8.70396 1.94172 8.91229V10.6072C1.94172 10.8155 1.77301 10.9844 1.56469 10.9844Z" fill="#F03C54"/>
<path d="M1.18494 8.90699V10.6016C0.688352 10.6016 0.688352 8.90699 1.18494 8.90699Z" fill="#F9DF27"/>
<path d="M32.5022 8.53513C32.7105 8.53513 32.8793 8.70396 32.8793 8.91229V10.6072C32.8793 10.8155 32.7105 10.9844 32.5022 10.9844C32.2938 10.9844 32.125 10.8155 32.125 10.6072V8.91229C32.125 8.70396 32.2938 8.53513 32.5022 8.53513Z" fill="#F03C54"/>
<path d="M32.875 10.6094V8.9148C33.3714 8.9148 33.3714 10.6094 32.875 10.6094Z" fill="#F9DF27"/>
</svg>
