<svg width="34" height="16" viewBox="0 0 34 16" fill="none" xmlns="http://www.w3.org/2000/svg">
<path d="M29.4715 6.29669V8.95312H10.0625L15.1399 1.98892C15.6165 1.34047 16.3712 0.9566 17.1788 0.9566H24.1314C27.0804 0.9566 29.4715 3.34732 29.4715 6.29669Z" fill="#283139"/>
<path d="M24.1024 1.78354H21.9692C21.7143 1.78354 21.5078 1.99 21.5078 2.24491V7.66363C21.5078 7.91854 21.7143 8.125 21.9692 8.125H28.1806C28.4351 8.125 28.6416 7.91854 28.6416 7.66363V6.32274C28.6416 3.81574 26.6094 1.78354 24.1024 1.78354Z" fill="#3D4359"/>
<path d="M20.3166 2.24491C20.3166 1.99 20.1097 1.78354 19.8552 1.78354H15.3171C14.7775 1.78354 14.2647 2.04328 13.9468 2.47596L10.3627 7.39195C10.1406 7.6968 10.3583 8.125 10.7358 8.125H19.8552C20.1097 8.125 20.3166 7.91854 20.3166 7.66363V2.24491Z" fill="#3D4359"/>
<path d="M29.4715 6.29669V8.95312H10.0625L15.1399 1.98892C15.6165 1.34047 16.3712 0.9566 17.1788 0.9566H24.1314C27.0804 0.9566 29.4715 3.34732 29.4715 6.29669Z" fill="#283139"/>
<path d="M24.1024 1.78354H21.9692C21.7143 1.78354 21.5078 1.99 21.5078 2.24491V7.66363C21.5078 7.91854 21.7143 8.125 21.9692 8.125H28.1806C28.4351 8.125 28.6416 7.91854 28.6416 7.66363V6.32274C28.6416 3.81574 26.6094 1.78354 24.1024 1.78354Z" fill="#3D4359"/>
<path d="M20.3166 2.24491C20.3166 1.99 20.1097 1.78354 19.8552 1.78354H15.3171C14.7775 1.78354 14.2647 2.04328 13.9468 2.47596L10.3627 7.39195C10.1406 7.6968 10.3583 8.125 10.7358 8.125H19.8552C20.1097 8.125 20.3166 7.91854 20.3166 7.66363V2.24491Z" fill="#3D4359"/>
<path d="M32.5126 13.6016V8.65316C32.5126 7.54259 31.6122 6.6422 30.5016 6.6422H6.00677C3.29775 6.6422 1.10156 8.83837 1.10156 11.5474V13.6016H32.5126Z" fill="#283139"/>
<path d="M7.50787 8.81639C5.3203 8.81639 3.54688 10.59 3.54688 12.7776C3.54688 13.0604 3.57758 13.3355 3.63378 13.6016H11.3822C11.4385 13.3355 11.4694 13.0604 11.4694 12.7776C11.4694 10.59 9.69586 8.81639 7.50787 8.81639Z" fill="#838589"/>
<path d="M10.5872 12.7807C10.5872 14.4812 9.20871 15.8594 7.50819 15.8594C5.80815 15.8594 4.42969 14.4812 4.42969 12.7807C4.42969 11.0805 5.80815 9.70202 7.50819 9.70202C9.20871 9.70202 10.5872 11.0805 10.5872 12.7807Z" fill="#3D4359"/>
<path d="M9.45932 12.7782C9.45932 13.8545 8.58689 14.7266 7.5106 14.7266C6.43468 14.7266 5.5625 13.8545 5.5625 12.7782C5.5625 11.7023 6.43468 10.8299 7.5106 10.8299C8.58689 10.8299 9.45932 11.7023 9.45932 12.7782Z" fill="white"/>
<path d="M8.62632 12.7804C8.62632 13.3979 8.12581 13.8984 7.50829 13.8984C6.89113 13.8984 6.39062 13.3979 6.39062 12.7804C6.39062 12.1633 6.89113 11.6627 7.50829 11.6627C8.12581 11.6627 8.62632 12.1633 8.62632 12.7804Z" fill="#3D4359"/>
<path d="M26.0862 8.81639C23.8986 8.81639 22.125 10.59 22.125 12.7776C22.125 13.0604 22.1556 13.3355 22.2118 13.6016H29.9602C30.0164 13.3355 30.0474 13.0604 30.0474 12.7776C30.0474 10.59 28.2738 8.81639 26.0862 8.81639Z" fill="#838589"/>
<path d="M29.1574 12.7807C29.1574 14.4812 27.7788 15.8594 26.0787 15.8594C24.3785 15.8594 23 14.4812 23 12.7807C23 11.0805 24.3785 9.70202 26.0787 9.70202C27.7788 9.70202 29.1574 11.0805 29.1574 12.7807Z" fill="#3D4359"/>
<path d="M28.0295 12.7782C28.0295 13.8545 27.1571 14.7266 26.0812 14.7266C25.0053 14.7266 24.1328 13.8545 24.1328 12.7782C24.1328 11.7023 25.0053 10.8299 26.0812 10.8299C27.1571 10.8299 28.0295 11.7023 28.0295 12.7782Z" fill="white"/>
<path d="M27.2041 12.7804C27.2041 13.3979 26.7039 13.8984 26.0864 13.8984C25.4693 13.8984 24.9688 13.3979 24.9688 12.7804C24.9688 12.1633 25.4693 11.6627 26.0864 11.6627C26.7039 11.6627 27.2041 12.1633 27.2041 12.7804Z" fill="#3D4359"/>
<path d="M33.1132 12.1582V13.211C33.1132 13.4294 32.941 13.6016 32.729 13.6016H31.3057C31.0941 13.6016 30.9219 13.4294 30.9219 13.211V12.1582C30.9219 11.9465 31.0941 11.7743 31.3057 11.7743H32.729C32.941 11.7743 33.1132 11.9465 33.1132 12.1582Z" fill="white"/>
<path d="M2.72248 12.1582V13.211C2.72248 13.4294 2.55023 13.6016 2.33844 13.6016H0.915257C0.703465 13.6016 0.53125 13.4294 0.53125 13.211V12.1582C0.53125 11.9465 0.703465 11.7743 0.915257 11.7743H2.33844C2.55023 11.7743 2.72248 11.9465 2.72248 12.1582Z" fill="white"/>
<path d="M32.5126 13.6016V8.65316C32.5126 7.54259 31.6122 6.6422 30.5016 6.6422H6.00677C3.29775 6.6422 1.10156 8.83837 1.10156 11.5474V13.6016H32.5126Z" fill="#283139"/>
<path d="M7.50787 8.81639C5.3203 8.81639 3.54688 10.59 3.54688 12.7776C3.54688 13.0604 3.57758 13.3355 3.63378 13.6016H11.3822C11.4385 13.3355 11.4694 13.0604 11.4694 12.7776C11.4694 10.59 9.69586 8.81639 7.50787 8.81639Z" fill="#838589"/>
<path d="M10.5872 12.7807C10.5872 14.4812 9.20871 15.8594 7.50819 15.8594C5.80815 15.8594 4.42969 14.4812 4.42969 12.7807C4.42969 11.0805 5.80815 9.70202 7.50819 9.70202C9.20871 9.70202 10.5872 11.0805 10.5872 12.7807Z" fill="#3D4359"/>
<path d="M9.45932 12.7782C9.45932 13.8545 8.58689 14.7266 7.5106 14.7266C6.43468 14.7266 5.5625 13.8545 5.5625 12.7782C5.5625 11.7023 6.43468 10.8299 7.5106 10.8299C8.58689 10.8299 9.45932 11.7023 9.45932 12.7782Z" fill="white"/>
<path d="M8.62632 12.7804C8.62632 13.3979 8.12581 13.8984 7.50829 13.8984C6.89113 13.8984 6.39062 13.3979 6.39062 12.7804C6.39062 12.1633 6.89113 11.6627 7.50829 11.6627C8.12581 11.6627 8.62632 12.1633 8.62632 12.7804Z" fill="#3D4359"/>
<path d="M26.0862 8.81639C23.8986 8.81639 22.125 10.59 22.125 12.7776C22.125 13.0604 22.1556 13.3355 22.2118 13.6016H29.9602C30.0164 13.3355 30.0474 13.0604 30.0474 12.7776C30.0474 10.59 28.2738 8.81639 26.0862 8.81639Z" fill="#838589"/>
<path d="M29.1574 12.7807C29.1574 14.4812 27.7788 15.8594 26.0787 15.8594C24.3785 15.8594 23 14.4812 23 12.7807C23 11.0805 24.3785 9.70202 26.0787 9.70202C27.7788 9.70202 29.1574 11.0805 29.1574 12.7807Z" fill="#3D4359"/>
<path d="M28.0295 12.7782C28.0295 13.8545 27.1571 14.7266 26.0812 14.7266C25.0053 14.7266 24.1328 13.8545 24.1328 12.7782C24.1328 11.7023 25.0053 10.8299 26.0812 10.8299C27.1571 10.8299 28.0295 11.7023 28.0295 12.7782Z" fill="white"/>
<path d="M27.2041 12.7804C27.2041 13.3979 26.7039 13.8984 26.0864 13.8984C25.4693 13.8984 24.9688 13.3979 24.9688 12.7804C24.9688 12.1633 25.4693 11.6627 26.0864 11.6627C26.7039 11.6627 27.2041 12.1633 27.2041 12.7804Z" fill="#3D4359"/>
<path d="M33.1132 12.1582V13.211C33.1132 13.4294 32.941 13.6016 32.729 13.6016H31.3057C31.0941 13.6016 30.9219 13.4294 30.9219 13.211V12.1582C30.9219 11.9465 31.0941 11.7743 31.3057 11.7743H32.729C32.941 11.7743 33.1132 11.9465 33.1132 12.1582Z" fill="white"/>
<path d="M2.72248 12.1582V13.211C2.72248 13.4294 2.55023 13.6016 2.33844 13.6016H0.915257C0.703465 13.6016 0.53125 13.4294 0.53125 13.211V12.1582C0.53125 11.9465 0.703465 11.7743 0.915257 11.7743H2.33844C2.55023 11.7743 2.72248 11.9465 2.72248 12.1582Z" fill="white"/>
<path d="M18.6084 8.14091C18.6084 8.63694 18.2067 9.03906 17.7107 9.03906C17.2146 9.03906 16.8125 8.63694 16.8125 8.14091C16.8125 7.64525 17.2146 7.24312 17.7107 7.24312C18.2067 7.24312 18.6084 7.64525 18.6084 8.14091Z" fill="#262A35"/>
<path d="M18.6266 8.47656H16.787C16.6033 8.47656 16.4531 8.32638 16.4531 8.14265C16.4531 7.95892 16.6033 7.80873 16.787 7.80873H18.6266C18.8099 7.80873 18.9605 7.95892 18.9605 8.14265C18.9605 8.32638 18.8099 8.47656 18.6266 8.47656Z" fill="#3D4359"/>
<path d="M1.54906 10.9844C1.34073 10.9844 1.17188 10.8155 1.17188 10.6072V8.91229C1.17188 8.70396 1.34073 8.53513 1.54906 8.53513C1.75739 8.53513 1.9261 8.70396 1.9261 8.91229V10.6072C1.9261 10.8155 1.75739 10.9844 1.54906 10.9844Z" fill="#283139"/>
<path d="M1.16932 8.90699V10.6016C0.672727 10.6016 0.672727 8.90699 1.16932 8.90699Z" fill="#F9DF27"/>
<path d="M32.4943 8.53513C32.7027 8.53513 32.8715 8.70396 32.8715 8.91229V10.6072C32.8715 10.8155 32.7027 10.9844 32.4943 10.9844C32.286 10.9844 32.1172 10.8155 32.1172 10.6072V8.91229C32.1172 8.70396 32.286 8.53513 32.4943 8.53513Z" fill="#283139"/>
<path d="M32.8672 10.6094V8.9148C33.3636 8.9148 33.3636 10.6094 32.8672 10.6094Z" fill="#F9DF27"/>
</svg>
