<svg width="29" height="26" viewBox="0 0 29 26" fill="none" xmlns="http://www.w3.org/2000/svg">
<path d="M26.2622 12.3747C25.5828 12.63 24.7427 12.7947 23.7906 12.8961C23.5908 12.9173 23.4004 12.7917 23.34 12.6002L23.0195 11.5779C22.9591 11.3856 23.0426 11.1765 23.22 11.0804C24.0388 10.6377 24.9026 10.2124 25.5604 10.0734C25.714 10.0406 25.8775 10.1092 25.9692 10.2367C26.3542 10.7733 26.5394 11.3603 26.5301 11.9968C26.5275 12.1642 26.4187 12.3158 26.2622 12.3747Z" fill="#3D4359"/>
<path d="M2.25233 12.3747C2.93135 12.63 3.77175 12.7947 4.72394 12.8961C4.92369 12.9173 5.1145 12.7917 5.1745 12.6002L5.49501 11.5779C5.55538 11.3856 5.4719 11.1765 5.29451 11.0804C4.47574 10.6377 3.61186 10.2124 2.95409 10.0734C2.80054 10.0406 2.63695 10.1092 2.54527 10.2367C2.1603 10.7733 1.9747 11.3603 1.98476 11.9968C1.987 12.1642 2.09581 12.3158 2.25233 12.3747Z" fill="#3D4359"/>
<path d="M24.6197 13.6797H3.89397C3.89397 13.6797 3.67038 8.06864 4.51524 5.07194C4.7463 4.2487 5.40333 3.59168 6.24111 3.38186C11.5778 2.02457 16.9213 2.02456 22.2655 3.37477C23.1029 3.59166 23.7674 4.24872 23.9984 5.0865C24.8291 8.08319 24.6197 13.6797 24.6197 13.6797Z" fill="#F9DF27"/>
<path d="M23.7195 10.7495C23.6859 9.38477 23.5924 7.76513 23.3613 6.4179C23.2872 5.98523 22.913 5.67106 22.474 5.67106H6.02586C5.58722 5.67106 5.21343 5.98447 5.13852 6.41678C4.90559 7.76438 4.81317 9.38552 4.78149 10.7506C4.76994 11.2541 5.17652 11.6641 5.68001 11.6641H22.8213C23.3252 11.6641 23.7318 11.253 23.7195 10.7495Z" fill="#3D4359"/>
<path d="M8.65754 11.6641H7.5L11.5503 5.67106H12.7078L8.65754 11.6641Z" fill="#4F556B"/>
<path d="M12.1075 11.6641H9.54688L13.5971 5.67106H16.1582L12.1075 11.6641Z" fill="#4F556B"/>
<path d="M1.77344 22.6994V24.3906C1.77344 24.7565 2.06523 25.0547 2.43157 25.0547H5.34852C5.71486 25.0547 6.01264 24.7565 6.01264 24.3906V22.6994H1.77344Z" fill="#3D4359"/>
<path d="M22.4922 22.6994V24.3906C22.4922 24.7565 22.7903 25.0547 23.1563 25.0547H26.0736C26.44 25.0547 26.7377 24.7565 26.7377 24.3906V22.6994H22.4922Z" fill="#3D4359"/>
<path d="M25.6034 22.4453V14.5256C25.6034 13.3762 24.6721 12.4449 23.5231 12.4449H4.98653C3.83756 12.4449 2.90625 13.3762 2.90625 14.5256V22.4453H25.6034Z" fill="#FAB50F"/>
<path d="M18.4943 20.2734H10.0095C9.81426 20.2734 9.65625 20.1151 9.65625 19.9202V14.9673C9.65625 14.772 9.81426 14.614 10.0095 14.614H18.4943C18.6896 14.614 18.8476 14.772 18.8476 14.9673V19.9202C18.8476 20.1151 18.6896 20.2734 18.4943 20.2734Z" fill="#4C576D"/>
<path d="M27.3225 16.9849V22.4453H21.8438V16.9849C21.8438 15.4737 23.0687 14.2483 24.5803 14.2483C26.0915 14.2483 27.3225 15.4737 27.3225 16.9849Z" fill="#F9DF27"/>
<path d="M6.67403 16.9849V22.4453H1.19531V16.9849C1.19531 15.4737 2.4203 14.2483 3.9315 14.2483C5.44308 14.2483 6.67403 15.4737 6.67403 16.9849Z" fill="#F9DF27"/>
<path d="M26.2704 16.9859C26.2704 17.9168 25.5154 18.6719 24.5844 18.6719C23.6535 18.6719 22.8984 17.9168 22.8984 16.9859C22.8984 16.0549 23.6535 15.3003 24.5844 15.3003C25.5154 15.3003 26.2704 16.0549 26.2704 16.9859Z" fill="white"/>
<path d="M5.61379 16.9859C5.61379 17.9168 4.85912 18.6719 3.92817 18.6719C2.99722 18.6719 2.24219 17.9168 2.24219 16.9859C2.24219 16.0549 2.99722 15.3003 3.92817 15.3003C4.85912 15.3003 5.61379 16.0549 5.61379 16.9859Z" fill="white"/>
<path d="M27.3441 22.9609H1.1665C0.752451 22.9609 0.414062 22.6221 0.414062 22.2089C0.414062 21.7948 0.752451 21.4564 1.1665 21.4564H27.3441C27.7577 21.4564 28.0961 21.7948 28.0961 22.2089C28.0961 22.6221 27.7577 22.9609 27.3441 22.9609Z" fill="white"/>
<path d="M10.6016 22.1591V23.2972C10.6016 23.5342 10.7939 23.7266 11.0309 23.7266H17.4778C17.7148 23.7266 17.9071 23.5342 17.9071 23.2972V22.1591C17.9071 21.9217 17.7148 21.7298 17.4778 21.7298H11.0309C10.7939 21.7298 10.6016 21.9217 10.6016 22.1591Z" fill="white"/>
<path d="M10.8641 19.4531C10.6636 19.4531 10.5 19.2895 10.5 19.089V15.8053C10.5 15.6052 10.6636 15.4412 10.8641 15.4412C11.0642 15.4412 11.2282 15.6052 11.2282 15.8053V19.089C11.2282 19.2895 11.0642 19.4531 10.8641 19.4531Z" fill="#3D4359"/>
<path d="M12.2235 19.4531C12.0234 19.4531 11.8594 19.2895 11.8594 19.089V15.8053C11.8594 15.6052 12.0234 15.4412 12.2235 15.4412C12.424 15.4412 12.5876 15.6052 12.5876 15.8053V19.089C12.5876 19.2895 12.424 19.4531 12.2235 19.4531Z" fill="#3D4359"/>
<path d="M13.575 19.4531C13.3745 19.4531 13.2109 19.2895 13.2109 19.089V15.8053C13.2109 15.6052 13.3745 15.4412 13.575 15.4412C13.7752 15.4412 13.9391 15.6052 13.9391 15.8053V19.089C13.9391 19.2895 13.7752 19.4531 13.575 19.4531Z" fill="#3D4359"/>
<path d="M14.9344 19.4531C14.7343 19.4531 14.5703 19.2895 14.5703 19.089V15.8053C14.5703 15.6052 14.7343 15.4412 14.9344 15.4412C15.1349 15.4412 15.2985 15.6052 15.2985 15.8053V19.089C15.2985 19.2895 15.1349 19.4531 14.9344 19.4531Z" fill="#3D4359"/>
<path d="M16.286 19.4531C16.0855 19.4531 15.9219 19.2895 15.9219 19.089V15.8053C15.9219 15.6052 16.0855 15.4412 16.286 15.4412C16.4861 15.4412 16.6501 15.6052 16.6501 15.8053V19.089C16.6501 19.2895 16.4861 19.4531 16.286 19.4531Z" fill="#3D4359"/>
<path d="M17.6454 19.4531C17.4452 19.4531 17.2812 19.2895 17.2812 19.089V15.8053C17.2812 15.6052 17.4452 15.4412 17.6454 15.4412C17.8459 15.4412 18.0098 15.6052 18.0098 15.8053V19.089C18.0098 19.2895 17.8459 19.4531 17.6454 19.4531Z" fill="#3D4359"/>
<path d="M17.5204 1.69884V3.69939C17.5204 3.93791 17.3254 4.13281 17.0869 4.13281H11.4256C11.1871 4.13281 10.9922 3.93791 10.9922 3.69939V1.69884C10.9922 1.49685 11.1293 1.31609 11.3242 1.26578C13.2812 0.818198 15.231 0.818198 17.1808 1.26578C17.3758 1.31609 17.5204 1.49685 17.5204 1.69884Z" fill="#3D4359"/>
<path d="M12.6497 2.10007V3.375H12.3951V2.10007H11.9375V1.86679H13.107V2.10007H12.6497Z" fill="white"/>
<path d="M14.1295 2.79699L13.8556 2.17574L13.5813 2.79699H14.1295ZM13.4777 3.03213L13.3268 3.375H13.0547L13.7192 1.86679H13.9912L14.6557 3.375H14.384L14.2327 3.03213H13.4777Z" fill="white"/>
<path d="M15.7575 3.375L15.3867 2.8078H15.3758L15.0047 3.375H14.6875L15.2052 2.60057L14.724 1.86679H15.0393L15.3758 2.37623H15.3867L15.7232 1.86679H16.0381L15.557 2.60057L16.075 3.375H15.7575Z" fill="white"/>
<path d="M16.3125 1.86679H16.567V3.375H16.3125V1.86679Z" fill="white"/>
</svg>
