<svg width="25" height="24" viewBox="0 0 25 24" fill="none" xmlns="http://www.w3.org/2000/svg">
<path d="M11.2819 21V16H13.282V21H11.2819ZM19.3575 18.475L15.8072 14.95L17.2323 13.525L20.7576 17.075L19.3575 18.475ZM5.2064 18.475L3.80629 17.075L7.33156 13.525L8.75668 14.95L5.2064 18.475ZM5.28141 6H19.2825V5H5.28141V6ZM8.68167 9H15.8822L16.1823 8H8.38165L8.68167 9ZM8.68167 11C8.2483 11 7.85661 10.871 7.50658 10.613C7.15655 10.3543 6.91487 10.0167 6.78152 9.6L6.28148 8H5.28141C4.73136 8 4.26033 7.804 3.8683 7.412C3.47693 7.02067 3.28125 6.55 3.28125 6V3H21.2826V6C21.2826 6.55 21.087 7.02067 20.6956 7.412C20.3036 7.804 19.8325 8 19.2825 8H18.2824L17.6324 9.7C17.4824 10.0833 17.2407 10.3957 16.9073 10.637C16.5739 10.879 16.1989 11 15.7822 11H8.68167Z" fill="#9C4900"/>
</svg>
