<svg width="33" height="18" viewBox="0 0 33 18" fill="none" xmlns="http://www.w3.org/2000/svg">
<path d="M31.7371 11.0273C31.4922 9.13071 29.9635 7.65827 28.0591 7.48535L24.9984 7.20695C23.9325 4.94704 22.4899 2.84216 20.6578 0.89716C20.2083 0.420133 19.586 0.141369 18.9301 0.141369H3.58806C3.58806 0.141369 3.52134 0.623242 4.46608 0.963123L0.915211 6.31737C0.726264 7.55131 0.765768 8.97679 0.915211 10.4951C0.551851 10.4951 0.25744 10.7906 0.257813 11.1543C0.258931 12.1222 0.306636 12.6518 0.362537 13.4508C0.440054 14.5599 1.36131 15.4219 2.47338 15.4219H30.2341C31.0499 15.4219 31.7438 14.8263 31.8672 14.0199L32.1441 12.6529C32.232 12.0782 32.0855 11.4924 31.7371 11.0273Z" fill="#50BBED"/>
<path d="M3.62397 5.47273V6.25125C3.62397 6.44727 3.46969 6.60156 3.27366 6.60156H0.882568C0.840456 6.52442 0.854613 6.54566 0.8125 6.46852L1.70283 5.12241H3.27366C3.46969 5.12241 3.62397 5.28378 3.62397 5.47273Z" fill="#44A4D8"/>
<path d="M11.3923 14.5919C11.3923 12.3868 9.60461 10.5991 7.39911 10.5991C5.19398 10.5991 3.40625 12.3868 3.40625 14.5919C3.40625 14.8766 3.43719 15.1539 3.49383 15.4219H11.3048C11.3614 15.1539 11.3923 14.8766 11.3923 14.5919Z" fill="#313748"/>
<path d="M12.1924 1.57945L13.0264 6.2491C13.0968 6.64413 12.7398 6.98252 12.3493 6.89122L6.29959 5.4743C5.88257 5.37778 5.61946 4.96969 5.70293 4.55267L6.27761 1.65212C6.35214 1.28354 6.67674 1.01596 7.05426 1.01596H11.5193C11.8506 1.01596 12.1342 1.25336 12.1924 1.57945Z" fill="#3D4359"/>
<path d="M23.5491 6.314C22.8473 6.85811 21.9827 7.15625 21.092 7.15625H14.6898C14.3607 7.15625 14.0756 6.91923 14.0186 6.59463L13.1671 1.82064C13.0925 1.40361 13.413 1.01752 13.8386 1.01752H18.9286C19.3323 1.01752 19.7318 1.19304 20.0169 1.50013C21.4256 2.99233 22.6058 4.60714 23.5491 6.314Z" fill="#3D4359"/>
<path d="M4.46799 0.958252L0.917122 6.3125C0.328665 5.92007 3.87953 0.565823 4.46799 0.958252Z" fill="#3D4359"/>
<path d="M2.21415 6.31767H0.918347C0.848283 6.77756 0.817731 7.27098 0.804688 7.77894C1.40544 7.77894 2.17539 7.92093 2.33713 7.40589L2.54322 6.76526C2.61366 6.54165 2.4467 6.31767 2.21415 6.31767Z" fill="#F03C54"/>
<path d="M2.21059 6.31998H1.77344V7.78125C2.08239 7.78125 2.26649 7.62249 2.33357 7.4082L2.53966 6.76757C2.6101 6.54396 2.44314 6.31998 2.21059 6.31998Z" fill="#F9DF27"/>
<path d="M10.4993 14.5939C10.4993 16.3067 9.11074 17.6953 7.39792 17.6953C5.68547 17.6953 4.29688 16.3067 4.29688 14.5939C4.29688 12.8814 5.68547 11.4929 7.39792 11.4929C9.11074 11.4929 10.4993 12.8814 10.4993 14.5939Z" fill="#3D4359"/>
<path d="M9.36254 14.5922C9.36254 15.6763 8.48413 16.5547 7.40001 16.5547C6.31627 16.5547 5.4375 15.6763 5.4375 14.5922C5.4375 13.5084 6.31627 12.6297 7.40001 12.6297C8.48413 12.6297 9.36254 13.5084 9.36254 14.5922Z" fill="white"/>
<path d="M8.52516 14.5929C8.52516 15.2149 8.02129 15.7188 7.39929 15.7188C6.77767 15.7188 6.27344 15.2149 6.27344 14.5929C6.27344 13.9713 6.77767 13.467 7.39929 13.467C8.02129 13.467 8.52516 13.9713 8.52516 14.5929Z" fill="#3D4359"/>
<path d="M25.6074 10.602C23.4034 10.602 21.6172 12.3883 21.6172 14.5919C21.6172 14.8766 21.6481 15.1539 21.7048 15.4219H29.5097C29.5664 15.1539 29.5973 14.8766 29.5973 14.5919C29.5973 12.3883 27.8111 10.602 25.6074 10.602Z" fill="#313748"/>
<path d="M28.7025 14.5939C28.7025 16.3067 27.3139 17.6953 25.6014 17.6953C23.8886 17.6953 22.5 16.3067 22.5 14.5939C22.5 12.8814 23.8886 11.4929 25.6014 11.4929C27.3139 11.4929 28.7025 12.8814 28.7025 14.5939Z" fill="#3D4359"/>
<path d="M27.566 14.5922C27.566 15.6763 26.6873 16.5547 25.6035 16.5547C24.5194 16.5547 23.6406 15.6763 23.6406 14.5922C23.6406 13.5084 24.5194 12.6297 25.6035 12.6297C26.6873 12.6297 27.566 13.5084 27.566 14.5922Z" fill="white"/>
<path d="M26.7287 14.5929C26.7287 15.2149 26.2244 15.7188 25.6028 15.7188C24.9808 15.7188 24.4766 15.2149 24.4766 14.5929C24.4766 13.9713 24.9808 13.467 25.6028 13.467C26.2244 13.467 26.7287 13.9713 26.7287 14.5929Z" fill="#3D4359"/>
<path d="M30.816 8.9249L29.9849 9.1213C29.8504 9.15297 29.7818 9.31285 29.8631 9.42502C29.9842 9.59198 30.0829 9.76752 30.1631 9.9505C30.4415 10.5882 31.0426 11.0234 31.7387 11.0234C31.6359 10.227 31.3046 9.50702 30.816 8.9249Z" fill="white"/>
<path d="M16.2131 8.11587C16.2131 8.29811 16.0656 8.44531 15.8833 8.44531H14.8596C14.6774 8.44531 14.5234 8.29811 14.5234 8.11587C14.5234 7.93363 14.6774 7.77934 14.8596 7.77934H15.8833C16.0656 7.77934 16.2131 7.93363 16.2131 8.11587Z" fill="#44A4D8"/>
<path d="M7.62066 6.82736C7.56326 7.01855 7.3419 7.10165 7.19991 7.04501L6.22536 6.74351C6.04982 6.68724 5.95181 6.49792 6.00808 6.32276C6.06436 6.16139 6.20672 6.06226 6.42176 6.10549L7.40339 6.40661C7.57855 6.46288 7.67656 6.65221 7.62066 6.82736Z" fill="#44A4D8"/>
<path d="M20.2742 14.0317C20.2742 14.2319 20.1072 14.3984 19.9007 14.3984H13.2328C13.026 14.3984 12.8594 14.2319 12.8594 14.0317C12.8594 13.8249 13.026 13.6583 13.2328 13.6583H19.9007C20.1072 13.6583 20.2742 13.8249 20.2742 14.0317Z" fill="#44A4D8"/>
</svg>
