<svg width="32" height="16" viewBox="0 0 32 16" fill="none" xmlns="http://www.w3.org/2000/svg">
<path d="M31.4336 10.2276L31.2566 11.2804C31.1362 11.9799 30.6137 12.5427 29.9224 12.7033L27.6155 13.25H5.09202V12.5602H3.39597C2.06141 12.5602 0.984375 11.4749 0.984375 10.1408V8.38656C0.984375 7.75152 1.49867 7.23723 2.13371 7.23723C2.24626 5.81434 3.01808 3.02523 3.54057 1.67465C3.82194 0.943082 4.52108 0.469042 5.30892 0.469042H14.9952C17.2622 0.469042 19.4565 1.32097 21.1283 2.8564L23.2507 4.80961H26.1364C28.58 4.80961 30.5574 6.78703 30.5574 9.23067H30.5895C31.1202 9.23067 31.5219 9.70509 31.4336 10.2276Z" fill="#F9DF27"/>
<path d="M11.2663 13.25C11.3196 12.9984 11.3495 12.7391 11.3495 12.4718C11.3495 10.4013 9.67128 8.72272 7.60069 8.72272C5.53009 8.72272 3.85156 10.4013 3.85156 12.4718L3.86051 12.5602H5.09481V13.25H11.2663Z" fill="#313748"/>
<path d="M13.3296 1.55972V4.77518C13.3296 5.04835 13.1123 5.26562 12.8391 5.26562H9.59981C9.32627 5.26562 9.10938 5.04835 9.10938 4.77518V1.55972C9.10938 1.28655 9.32627 1.06928 9.59981 1.06928H12.8391C13.1123 1.06928 13.3296 1.28655 13.3296 1.55972Z" fill="#3D4359"/>
<path d="M21.8713 5.26562H14.7088C14.4356 5.26562 14.2188 5.04835 14.2188 4.77518V1.55972C14.2188 1.28655 14.4356 1.06928 14.7088 1.06928H14.9984C17.1286 1.06928 19.1623 1.85712 20.7216 3.29602L22.1284 4.59033C22.3938 4.83145 22.2168 5.26562 21.8713 5.26562Z" fill="#3D4359"/>
<path d="M8.16768 1.55972V4.77518C8.16768 5.04835 7.94258 5.26562 7.67724 5.26562H7.46891L6.65647 4.42933C6.50367 4.31678 6.42317 4.12411 6.46342 3.93107L6.97772 1.4632C7.02617 1.23028 7.22704 1.06928 7.46033 1.06928H7.67724C7.94258 1.06928 8.16768 1.28655 8.16768 1.55972Z" fill="#3D4359"/>
<path d="M24.4545 8.71228C22.3783 8.71228 20.6953 10.3957 20.6953 12.4718C20.6953 12.7387 20.7251 12.9984 20.778 13.25H27.6163L28.1481 13.1248C28.1854 12.912 28.2137 12.6955 28.2137 12.4718C28.2137 10.3957 26.5307 8.71228 24.4545 8.71228Z" fill="#313748"/>
<path d="M29.7877 6.73308L28.2601 6.57656C28.076 6.55755 27.9273 6.72451 27.9676 6.90526L28.1226 7.60589C28.1591 7.77024 28.2966 7.89248 28.464 7.91L30.4112 8.10938C30.2811 7.61148 30.0706 7.14638 29.7877 6.73308Z" fill="white"/>
<path d="M3.21134 5.15223H2.50288C2.31691 5.94156 2.17604 6.68878 2.13281 7.23438H2.59306C2.87481 7.23438 3.12227 7.04618 3.19793 6.77487L3.53147 5.5741C3.59035 5.36204 3.43122 5.15223 3.21134 5.15223Z" fill="#F03C54"/>
<path d="M10.6498 12.4682C10.6498 14.1557 9.28212 15.5234 7.59464 15.5234C5.90716 15.5234 4.53906 14.1557 4.53906 12.4682C4.53906 10.7808 5.90716 9.41303 7.59464 9.41303C9.28212 9.41303 10.6498 10.7808 10.6498 12.4682Z" fill="#3D4359"/>
<path d="M9.62244 12.47C9.62244 13.591 8.71348 14.5 7.59247 14.5C6.47109 14.5 5.5625 13.591 5.5625 12.47C5.5625 11.3486 6.47109 10.4401 7.59247 10.4401C8.71348 10.4401 9.62244 11.3486 9.62244 12.47Z" fill="white"/>
<path d="M8.65363 12.474C8.65363 13.0576 8.17995 13.5312 7.59634 13.5312C7.01236 13.5312 6.53906 13.0576 6.53906 12.474C6.53906 11.89 7.01236 11.4167 7.59634 11.4167C8.17995 11.4167 8.65363 11.89 8.65363 12.474Z" fill="#3D4359"/>
<path d="M27.5088 12.4682C27.5088 14.1557 26.1411 15.5234 24.4536 15.5234C22.7662 15.5234 21.3984 14.1557 21.3984 12.4682C21.3984 10.7808 22.7662 9.41303 24.4536 9.41303C26.1411 9.41303 27.5088 10.7808 27.5088 12.4682Z" fill="#3D4359"/>
<path d="M26.4818 12.47C26.4818 13.591 25.5732 14.5 24.4518 14.5C23.3308 14.5 22.4219 13.591 22.4219 12.47C22.4219 11.3486 23.3308 10.4401 24.4518 10.4401C25.5732 10.4401 26.4818 11.3486 26.4818 12.47Z" fill="white"/>
<path d="M25.5126 12.474C25.5126 13.0576 25.0393 13.5312 24.4553 13.5312C23.8714 13.5312 23.3984 13.0576 23.3984 12.474C23.3984 11.89 23.8714 11.4167 24.4553 11.4167C25.0393 11.4167 25.5126 11.89 25.5126 12.474Z" fill="#3D4359"/>
<path d="M18.8937 12.0938H12.3626C12.1762 12.0938 12.0234 11.9413 12.0234 11.7546C12.0234 11.5683 12.1762 11.4155 12.3626 11.4155H18.8937C19.0805 11.4155 19.2329 11.5683 19.2329 11.7546C19.2329 11.9413 19.0805 12.0938 18.8937 12.0938Z" fill="#FABD0F"/>
</svg>
