<svg width="33" height="10" viewBox="0 0 33 10" fill="none" xmlns="http://www.w3.org/2000/svg">
<path d="M25.544 4.03704C23.8714 4.03704 22.5156 5.39283 22.5156 7.0654V8.2304L22.6613 8.58594L23.1033 8.28146L28.127 7.81598L28.4848 8.00865L28.5724 7.42392V7.0654C28.5724 5.39283 27.2166 4.03704 25.544 4.03704Z" fill="#2E3445"/>
<path d="M7.1249 3.79489C5.30325 3.79675 3.86248 5.35901 4.02869 7.1732C4.06559 7.57607 4.11702 7.98451 4.18187 8.39856C4.3097 8.33558 4.45057 8.30317 4.59293 8.30317H9.04344C9.41425 8.30317 9.76643 8.46639 10.0053 8.75L10.283 7.90998V6.90077C10.283 5.19056 8.89772 3.80457 7.1875 3.79525L7.1249 3.79489Z" fill="#2E3445"/>
<path d="M32.4602 2.7689L30.7265 7.15642C30.4541 7.84588 29.3379 8.00315 28.5997 8.00315L28.4797 8.01657V7.06959C28.4797 6.26311 28.1595 5.53603 27.6329 5.00944C27.0512 4.43477 26.2354 4.10084 25.3462 4.16978C23.8026 4.28904 22.6584 5.6713 22.6584 7.2194V8.59012L22.5519 8.60353C22.0346 8.4444 21.4964 8.36315 20.9553 8.36315H13.4671C12.3785 8.36315 11.2933 8.4772 10.2285 8.70342L10.0094 8.75V7.06959C10.0094 6.26311 9.68295 5.53603 9.16269 5.00944C8.58914 4.43589 7.77596 4.10233 6.88228 4.16904C5.34201 4.276 4.18857 5.65603 4.18857 7.20301V8.4034L0.954481 8.02328C0.73572 7.99421 0.68019 7.77097 0.581058 7.56338C0.527765 7.44301 0.594477 7.3096 0.714479 7.27643L1.26119 7.15642L0.981313 5.03589C0.961188 4.85589 1.00777 4.67588 1.12777 4.53613C1.63461 3.94916 3.20135 2.42902 5.9286 2.33548C9.30282 2.22218 11.5832 2.57548 11.5832 2.57548L15.7106 0.721776C16.2708 0.468728 16.8641 0.315198 17.4842 0.268613C18.7245 0.175071 20.9848 0.135197 23.6386 0.708747C23.772 0.88875 23.9654 1.02179 24.1857 1.06838C29.645 2.32318 29.7542 2.45734 30.4064 2.30231C31.0254 2.42119 31.3817 2.33249 31.9403 2.18901C32.2869 2.09547 32.5869 2.43572 32.4602 2.7689Z" fill="#46AD96"/>
<path d="M19.9329 0.914748C19.9329 0.743689 19.7969 0.602072 19.6254 0.597972C19.5054 0.595363 19.3851 0.593496 19.2647 0.593496C18.7873 0.593496 18.3203 0.611006 17.8742 0.644175C17.3301 0.685542 16.8017 0.819703 16.3038 1.04182L16.2751 1.05561L13.8195 2.39315C13.6082 2.50831 13.6824 2.82843 13.9227 2.83924L19.602 3.09342C19.7823 3.10162 19.9329 2.95775 19.9329 2.777V0.914748Z" fill="#3D4359"/>
<path d="M20.4922 0.969001V2.64417C20.4922 2.86294 20.7095 3.01573 20.9155 2.94232L22.3548 2.42877C22.4808 2.38368 22.565 2.26443 22.565 2.13027V1.12999C22.565 0.97384 22.451 0.838942 22.2963 0.815836C21.8107 0.743537 21.3218 0.689857 20.8313 0.65259C20.6483 0.638428 20.4922 0.785272 20.4922 0.969001Z" fill="#3D4359"/>
<path d="M4.63322 3.06862C4.61645 2.95756 4.50427 2.88079 4.34998 2.82787C3.37543 2.49358 1.11999 4.19746 1.48484 4.34355C1.8728 4.49858 4.69434 3.47335 4.63322 3.06862Z" fill="white"/>
<path d="M2.7854 6.32481C2.7854 6.55103 2.60241 6.73438 2.3762 6.73438C2.15036 6.73438 1.90625 6.55103 1.90625 6.32481C1.90625 6.09897 2.15036 5.91561 2.3762 5.91561C2.60241 5.91561 2.7854 6.09897 2.7854 6.32481Z" fill="#3D4359"/>
<path d="M9.44421 7.27826C9.44421 8.56996 8.39699 9.61719 7.10492 9.61719C5.81322 9.61719 4.76562 8.56996 4.76562 7.27826C4.76562 5.98619 5.81322 4.93896 7.10492 4.93896C8.39699 4.93896 9.44421 5.98619 9.44421 7.27826Z" fill="#3D4359"/>
<path d="M8.61843 7.28454C8.61843 8.12418 7.93792 8.80469 7.09828 8.80469C6.25863 8.80469 5.57812 8.12418 5.57812 7.28454C5.57812 6.4449 6.25863 5.76402 7.09828 5.76402C7.93792 5.76402 8.61843 6.4449 8.61843 7.28454Z" fill="white"/>
<path d="M8.05729 7.27994C8.05729 7.8069 7.6302 8.23438 7.10286 8.23438C6.57589 8.23438 6.14844 7.8069 6.14844 7.27994C6.14844 6.7526 6.57589 6.32552 7.10286 6.32552C7.6302 6.32552 8.05729 6.7526 8.05729 7.27994Z" fill="#3D4359"/>
<path d="M27.9126 7.27826C27.9126 8.56996 26.8654 9.61719 25.5733 9.61719C24.2816 9.61719 23.2344 8.56996 23.2344 7.27826C23.2344 5.98619 24.2816 4.93896 25.5733 4.93896C26.8654 4.93896 27.9126 5.98619 27.9126 7.27826Z" fill="#3D4359"/>
<path d="M27.0954 7.28454C27.0954 8.12418 26.4149 8.80469 25.5748 8.80469C24.7352 8.80469 24.0547 8.12418 24.0547 7.28454C24.0547 6.4449 24.7352 5.76402 25.5748 5.76402C26.4149 5.76402 27.0954 6.4449 27.0954 7.28454Z" fill="white"/>
<path d="M26.5264 7.27994C26.5264 7.8069 26.099 8.23438 25.5716 8.23438C25.0447 8.23438 24.6172 7.8069 24.6172 7.27994C24.6172 6.7526 25.0447 6.32552 25.5716 6.32552C26.099 6.32552 26.5264 6.7526 26.5264 7.27994Z" fill="#3D4359"/>
<path d="M20.9298 7.52344H11.9755C11.8343 7.52344 11.7188 7.4079 11.7188 7.26666C11.7188 7.12541 11.8343 7.00951 11.9755 7.00951H20.9298C21.0711 7.00951 21.187 7.12541 21.187 7.26666C21.187 7.4079 21.0711 7.52344 20.9298 7.52344Z" fill="#38907A"/>
<path d="M25.544 4.03704C23.8714 4.03704 22.5156 5.39283 22.5156 7.0654V8.2304L22.6613 8.58594L23.1033 8.28146L28.127 7.81598L28.4848 8.00865L28.5724 7.42392V7.0654C28.5724 5.39283 27.2166 4.03704 25.544 4.03704Z" fill="#2E3445"/>
<path d="M7.1249 3.79489C5.30325 3.79675 3.86248 5.35901 4.02869 7.1732C4.06559 7.57607 4.11702 7.98451 4.18187 8.39856C4.3097 8.33558 4.45057 8.30317 4.59293 8.30317H9.04344C9.41425 8.30317 9.76643 8.46639 10.0053 8.75L10.283 7.90998V6.90077C10.283 5.19056 8.89772 3.80457 7.1875 3.79525L7.1249 3.79489Z" fill="#2E3445"/>
<path d="M32.4602 2.7689L30.7265 7.15642C30.4541 7.84588 29.3379 8.00315 28.5997 8.00315L28.4797 8.01657V7.06959C28.4797 6.26311 28.1595 5.53603 27.6329 5.00944C27.0512 4.43477 26.2354 4.10084 25.3462 4.16978C23.8026 4.28904 22.6584 5.6713 22.6584 7.2194V8.59012L22.5519 8.60353C22.0346 8.4444 21.4964 8.36315 20.9553 8.36315H13.4671C12.3785 8.36315 11.2933 8.4772 10.2285 8.70342L10.0094 8.75V7.06959C10.0094 6.26311 9.68295 5.53603 9.16269 5.00944C8.58914 4.43589 7.77596 4.10233 6.88228 4.16904C5.34201 4.276 4.18857 5.65603 4.18857 7.20301V8.4034L0.954481 8.02328C0.73572 7.99421 0.68019 7.77097 0.581058 7.56338C0.527765 7.44301 0.594477 7.3096 0.714479 7.27643L1.26119 7.15642L0.981313 5.03589C0.961188 4.85589 1.00777 4.67588 1.12777 4.53613C1.63461 3.94916 3.20135 2.42902 5.9286 2.33548C9.30282 2.22218 11.5832 2.57548 11.5832 2.57548L15.7106 0.721776C16.2708 0.468728 16.8641 0.315198 17.4842 0.268613C18.7245 0.175071 20.9848 0.135197 23.6386 0.708747C23.772 0.88875 23.9654 1.02179 24.1857 1.06838C29.645 2.32318 29.7542 2.45734 30.4064 2.30231C31.0254 2.42119 31.3817 2.33249 31.9403 2.18901C32.2869 2.09547 32.5869 2.43572 32.4602 2.7689Z" fill="#46AD96"/>
<path d="M19.9329 0.914748C19.9329 0.743689 19.7969 0.602072 19.6254 0.597972C19.5054 0.595363 19.3851 0.593496 19.2647 0.593496C18.7873 0.593496 18.3203 0.611006 17.8742 0.644175C17.3301 0.685542 16.8017 0.819703 16.3038 1.04182L16.2751 1.05561L13.8195 2.39315C13.6082 2.50831 13.6824 2.82843 13.9227 2.83924L19.602 3.09342C19.7823 3.10162 19.9329 2.95775 19.9329 2.777V0.914748Z" fill="#3D4359"/>
<path d="M20.4922 0.969001V2.64417C20.4922 2.86294 20.7095 3.01573 20.9155 2.94232L22.3548 2.42877C22.4808 2.38368 22.565 2.26443 22.565 2.13027V1.12999C22.565 0.97384 22.451 0.838942 22.2963 0.815836C21.8107 0.743537 21.3218 0.689857 20.8313 0.65259C20.6483 0.638428 20.4922 0.785272 20.4922 0.969001Z" fill="#3D4359"/>
<path d="M4.63322 3.06862C4.61645 2.95756 4.50427 2.88079 4.34998 2.82787C3.37543 2.49358 1.11999 4.19746 1.48484 4.34355C1.8728 4.49858 4.69434 3.47335 4.63322 3.06862Z" fill="white"/>
<path d="M2.7854 6.32481C2.7854 6.55103 2.60241 6.73438 2.3762 6.73438C2.15036 6.73438 1.90625 6.55103 1.90625 6.32481C1.90625 6.09897 2.15036 5.91561 2.3762 5.91561C2.60241 5.91561 2.7854 6.09897 2.7854 6.32481Z" fill="#3D4359"/>
<path d="M9.44421 7.27826C9.44421 8.56996 8.39699 9.61719 7.10492 9.61719C5.81322 9.61719 4.76562 8.56996 4.76562 7.27826C4.76562 5.98619 5.81322 4.93896 7.10492 4.93896C8.39699 4.93896 9.44421 5.98619 9.44421 7.27826Z" fill="#3D4359"/>
<path d="M8.61843 7.28454C8.61843 8.12418 7.93792 8.80469 7.09828 8.80469C6.25863 8.80469 5.57812 8.12418 5.57812 7.28454C5.57812 6.4449 6.25863 5.76402 7.09828 5.76402C7.93792 5.76402 8.61843 6.4449 8.61843 7.28454Z" fill="white"/>
<path d="M8.05729 7.27994C8.05729 7.8069 7.6302 8.23438 7.10286 8.23438C6.57589 8.23438 6.14844 7.8069 6.14844 7.27994C6.14844 6.7526 6.57589 6.32552 7.10286 6.32552C7.6302 6.32552 8.05729 6.7526 8.05729 7.27994Z" fill="#3D4359"/>
<path d="M27.9126 7.27826C27.9126 8.56996 26.8654 9.61719 25.5733 9.61719C24.2816 9.61719 23.2344 8.56996 23.2344 7.27826C23.2344 5.98619 24.2816 4.93896 25.5733 4.93896C26.8654 4.93896 27.9126 5.98619 27.9126 7.27826Z" fill="#3D4359"/>
<path d="M27.0954 7.28454C27.0954 8.12418 26.4149 8.80469 25.5748 8.80469C24.7352 8.80469 24.0547 8.12418 24.0547 7.28454C24.0547 6.4449 24.7352 5.76402 25.5748 5.76402C26.4149 5.76402 27.0954 6.4449 27.0954 7.28454Z" fill="white"/>
<path d="M26.5264 7.27994C26.5264 7.8069 26.099 8.23438 25.5716 8.23438C25.0447 8.23438 24.6172 7.8069 24.6172 7.27994C24.6172 6.7526 25.0447 6.32552 25.5716 6.32552C26.099 6.32552 26.5264 6.7526 26.5264 7.27994Z" fill="#3D4359"/>
<path d="M20.9298 7.52344H11.9755C11.8343 7.52344 11.7188 7.4079 11.7188 7.26666C11.7188 7.12541 11.8343 7.00951 11.9755 7.00951H20.9298C21.0711 7.00951 21.187 7.12541 21.187 7.26666C21.187 7.4079 21.0711 7.52344 20.9298 7.52344Z" fill="#38907A"/>
<path d="M16.4541 2.95312L16.3293 2.94754L16.0859 2.93673L17.7115 0.67086C17.7656 0.664897 17.8174 0.648865 17.8718 0.644766C17.9504 0.638803 18.0369 0.640676 18.1167 0.635831L16.4541 2.95312Z" fill="#62687C"/>
<path d="M17.4266 2.99219L16.6562 2.95752L18.3314 0.622704C18.6012 0.60966 18.8688 0.594388 19.148 0.592897L17.4266 2.99219Z" fill="#62687C"/>
</svg>
