<svg width="33" height="16" viewBox="0 0 33 16" fill="none" xmlns="http://www.w3.org/2000/svg">
<path d="M14.8428 1.35938V0.990419C14.8428 0.651656 14.5681 0.377367 14.2293 0.377367H4.33988C4.00115 0.377367 3.72656 0.651656 3.72656 0.990419V1.35938H14.8428Z" fill="#3D4359"/>
<path d="M32.2597 9.86816L32.0469 11.5646C31.9031 12.7147 30.9311 13.5774 29.7754 13.589L1.43044 13.75C0.769241 13.7555 0.234375 13.2208 0.234375 12.5652V11.398L0.740396 11.1621V7.64289C0.740396 7.29779 1.02225 7.01606 1.36728 7.01606H1.31559L2.17811 1.55261C2.24713 1.10428 2.63233 0.77632 3.08099 0.77632H14.1852C16.6986 0.77632 19.1023 1.78292 20.8617 3.56544L24.2606 7.01606L29.8157 7.52177C30.6665 7.60264 31.3224 8.31558 31.3224 9.17833L32.0182 9.46007C32.1792 9.52901 32.2768 9.69561 32.2597 9.86816Z" fill="#F3AF37"/>
<path d="M0.234375 12.2678V12.5652C0.234375 13.2208 0.769241 13.7555 1.43044 13.75L29.7754 13.589C30.6781 13.58 31.4596 13.0475 31.8293 12.2678H0.234375Z" fill="#3D4359"/>
<path d="M11.182 2.36601L11.8349 7.10683C11.877 7.41355 11.6385 7.68708 11.3288 7.68708C9.88508 7.68708 8.32095 7.75678 6.00104 6.09166C5.84079 5.9765 5.76178 5.77489 5.79756 5.58072L6.3972 2.34253C6.44229 2.10066 6.65322 1.92476 6.89956 1.92476H10.6759C10.9312 1.92476 11.147 2.11333 11.182 2.36601Z" fill="#3D4359"/>
<path d="M22.5512 7.6875H13.2469C12.9916 7.6875 12.7758 7.49968 12.7408 7.247L12.083 2.50618C12.0406 2.19909 12.2791 1.92517 12.5891 1.92517H14.182C16.3673 1.92517 18.5065 2.81662 20.0419 4.37515L22.7755 7.15197C22.9712 7.35098 22.8303 7.6875 22.5512 7.6875Z" fill="#3D4359"/>
<path d="M30.7115 7.89395H29.5122C29.3654 7.89395 29.2558 8.02923 29.2864 8.17271L29.4608 8.99632C29.4835 9.10328 29.5775 9.17969 29.6866 9.17969H31.3249C31.3249 8.66092 31.0853 8.19955 30.7115 7.89395Z" fill="white"/>
<path d="M4.34175 6.57885L5.47343 2.59866C5.58262 2.2148 5.29443 1.83318 4.89525 1.83318H2.1386L1.32031 7.01562H1.372H3.76351C4.0321 7.01562 4.26822 6.83711 4.34175 6.57885Z" fill="#3D4359"/>
<path d="M10.654 12.6935C10.654 10.7049 9.04183 9.09268 7.0536 9.09268C5.06496 9.09268 3.45312 10.7049 3.45312 12.6935C3.45312 13.0554 3.50787 13.4046 3.6073 13.7344L10.5098 13.6949C10.6019 13.3766 10.654 13.0412 10.654 12.6935Z" fill="#313748"/>
<path d="M9.976 12.6921C9.976 14.3031 8.6694 15.6094 7.05832 15.6094C5.44686 15.6094 4.14062 14.3031 4.14062 12.6921C4.14062 11.0806 5.44686 9.77437 7.05832 9.77437C8.6694 9.77437 9.976 11.0806 9.976 12.6921Z" fill="#3D4359"/>
<path d="M8.97867 12.6983C8.97867 13.7623 8.11592 14.625 7.05193 14.625C5.98756 14.625 5.125 13.7623 5.125 12.6983C5.125 11.6339 5.98756 10.7712 7.05193 10.7712C8.11592 10.7712 8.97867 11.6339 8.97867 12.6983Z" fill="white"/>
<path d="M8.00891 12.691C8.00891 13.2154 7.58369 13.6406 7.05933 13.6406C6.5346 13.6406 6.10938 13.2154 6.10938 12.691C6.10938 12.1663 6.5346 11.7411 7.05933 11.7411C7.58369 11.7411 8.00891 12.1663 8.00891 12.691Z" fill="#3D4359"/>
<path d="M25.4442 9.09547C23.456 9.09547 21.8438 10.7077 21.8438 12.6963C21.8438 13.0205 21.8907 13.3336 21.9712 13.6328L28.9272 13.5933C29.001 13.306 29.0446 13.0063 29.0446 12.6963C29.0446 10.7077 27.4328 9.09547 25.4442 9.09547Z" fill="#313748"/>
<path d="M28.3588 12.6921C28.3588 14.3031 27.0526 15.6094 25.4411 15.6094C23.8297 15.6094 22.5234 14.3031 22.5234 12.6921C22.5234 11.0806 23.8297 9.77437 25.4411 9.77437C27.0526 9.77437 28.3588 11.0806 28.3588 12.6921Z" fill="#3D4359"/>
<path d="M27.3691 12.6983C27.3691 13.7623 26.5067 14.625 25.4424 14.625C24.3784 14.625 23.5156 13.7623 23.5156 12.6983C23.5156 11.6339 24.3784 10.7712 25.4424 10.7712C26.5067 10.7712 27.3691 11.6339 27.3691 12.6983Z" fill="white"/>
<path d="M26.3917 12.691C26.3917 13.2154 25.9665 13.6406 25.4418 13.6406C24.9174 13.6406 24.4922 13.2154 24.4922 12.691C24.4922 12.1663 24.9174 11.7411 25.4418 11.7411C25.9665 11.7411 26.3917 12.1663 26.3917 12.691Z" fill="#3D4359"/>
<path d="M15.2862 9.17969H14.0731C13.8913 9.17969 13.7422 9.03099 13.7422 8.84913C13.7422 8.66689 13.8913 8.51819 14.0731 8.51819H15.2862C15.4681 8.51819 15.6168 8.66689 15.6168 8.84913C15.6168 9.03099 15.4681 9.17969 15.2862 9.17969Z" fill="#E49420"/>
<path d="M2.01887 10.7996C2.03605 10.9897 1.88657 11.1562 1.69687 11.1562H0.742188V9.21236C1.45504 9.31075 1.91597 9.79225 2.01887 10.7996Z" fill="#3D4359"/>
</svg>
