<svg width="40" height="80" viewBox="0 0 40 80" fill="none" xmlns="http://www.w3.org/2000/svg">
<path d="M36.4611 17.8043C36.4611 9.58188 36.0003 6.19871 33.9171 4.06306C31.8339 1.92741 23.5313 0.428535 20.0176 0.428535C16.5034 0.428535 8.20117 1.92741 6.118 4.06306C4.03483 6.19871 3.57401 9.16604 3.57401 17.8043C3.57401 29.6361 2.17302 73.9335 5.76169 76.907C9.34991 79.8809 16.4068 80 20.0176 80C23.6278 80 30.6848 79.8809 34.2734 76.907C37.8621 73.9335 36.4611 29.6361 36.4611 17.8043Z" fill="#9C4900"/>
<path d="M35.0448 19.6674C35.0448 11.7078 34.6237 8.76559 32.7196 6.8134C30.8154 4.8612 23.2267 4.06171 20.0146 4.06171C16.8025 4.06171 9.21379 4.8612 7.30965 6.8134C5.40552 8.76559 4.98437 10.828 4.98437 19.6674C4.98437 21.5072 5.19252 24.2765 5.7358 27.0079C6.75137 29.3252 7.2973 33.1569 7.67698 36.8884C7.24306 37.4965 6.98774 38.6968 6.98774 39.9669C6.41359 41.7017 6.84221 45.367 6.98774 47.6293C6.99567 47.7532 6.9798 48.1465 6.98774 48.27C6.98774 48.27 6.64466 56.0814 6.98774 59.5299C7.07064 60.3642 7.26026 61.5187 7.40534 61.778C7.52484 62.8372 6.0952 67.2575 6.24381 68.0711C6.54279 69.7045 6.52427 73.4334 6.98376 73.814C10.2637 76.5321 16.7143 76.6406 20.0146 76.6406C23.3149 76.6406 29.765 76.5321 33.0454 73.814C33.5049 73.4334 33.4864 69.7045 33.785 68.0711C33.934 67.2575 32.5044 62.8372 32.6239 61.778C32.8474 61.1659 32.9586 60.3642 33.0415 59.5299C33.3846 56.0814 33.0415 48.27 33.0415 48.27C33.0494 48.1465 33.0335 47.7532 33.0415 47.6293C33.187 45.367 33.6156 41.7017 33.0415 39.9669C33.0415 38.6968 32.7862 37.4965 32.3522 36.8884C32.7315 33.1569 33.2774 29.3252 34.2934 27.0079C34.8367 24.2765 35.0448 21.5072 35.0448 19.6674Z" fill="#FF7800"/>
<path d="M6.99292 47.6328V39.589L4.80523 27.7986C4.36823 32.0289 4.33559 40.2399 4.41982 47.6328H6.99292Z" fill="#262A35"/>
<path d="M4.42187 48.2687C4.51713 56.0012 4.73277 62.6719 4.73277 62.6719L6.98748 59.5286L6.98748 48.2687H4.42187Z" fill="#262A35"/>
<path d="M20.021 22.6564C20.021 22.6564 11.8091 22.5514 5.74219 27.0101L7.68336 36.8906C7.68336 36.8906 11.022 34.0384 20.021 34.0384C29.02 34.0384 32.3586 36.8906 32.3586 36.8906L34.2998 27.0101C28.2328 22.5514 20.021 22.6564 20.021 22.6564Z" fill="#262A35"/>
<path d="M33.0469 47.6328V39.589L35.2346 27.7986C35.6711 32.0289 35.7038 40.2399 35.62 47.6328H33.0469Z" fill="#353F4B"/>
<path d="M35.6125 48.2687C35.5168 56.0012 35.3016 62.6719 35.3016 62.6719L33.0469 59.5286V48.2687H35.6125Z" fill="#353F4B"/>
<path d="M32.627 61.7771C29.5666 62.6158 10.4684 62.6158 7.40846 61.7771C7.40846 61.7771 5.96735 65.5854 6.24693 68.0703C8.31863 69.3332 12.7063 70.9375 20.0177 70.9375C27.3291 70.9375 31.7164 69.3332 33.7881 68.0703C34.0681 65.5854 32.627 61.7771 32.627 61.7771Z" fill="#262A35"/>
<path d="M4.04079 30.0131L0.63248 30.854C0.324238 30.9303 0.0331967 30.6635 0.0839089 30.3425C0.183129 29.7181 0.54253 28.822 1.75477 28.4758C3.69683 27.9215 4.04079 30.0131 4.04079 30.0131Z" fill="#FF7800"/>
<path d="M35.9922 30.0131L39.4005 30.854C39.7087 30.9303 39.9998 30.6635 39.9491 30.3425C39.8498 29.7181 39.4905 28.822 38.2778 28.4758C36.3362 27.9215 35.9922 30.0131 35.9922 30.0131Z" fill="#FF7800"/>
<path d="M32.3533 36.8906L34.2944 27.0101C28.2275 22.5514 20.0156 22.6564 20.0156 22.6564V34.0384C29.0146 34.0384 32.3533 36.8906 32.3533 36.8906Z" fill="#353F4B"/>
<path d="M32.6249 61.7771C32.5213 61.8053 32.4097 61.83 32.2924 61.853C32.2611 61.8591 32.2205 61.8649 32.1874 61.8706C32.1187 61.8829 32.0512 61.8957 31.978 61.9063C29.8776 62.2392 24.9506 62.4059 20.0156 62.4059V70.9375C27.327 70.9375 31.7143 69.3332 33.786 68.0703C34.066 65.5854 32.6249 61.7771 32.6249 61.7771Z" fill="#353F4B"/>
<path d="M23.4386 79.04C21.16 79.2221 18.8767 79.2221 16.5977 79.04C16.2798 79.0144 15.9742 79.3857 15.9062 79.8858C17.4686 79.9881 18.9071 80 20.0184 80C21.1292 80 22.5681 79.9881 24.1305 79.8858C24.0621 79.3857 23.7569 79.0144 23.4386 79.04Z" fill="#262A35"/>
<path d="M11.6959 79.0121C11.6968 79.0077 11.6976 79.0037 11.6985 78.9993C11.7726 78.6549 11.5623 78.318 11.2271 78.2364C10.231 77.9943 9.24185 77.7103 8.262 77.3844C7.9348 77.276 7.58377 77.4515 7.47221 77.7853C7.47088 77.7893 7.46957 77.7932 7.46824 77.7976C7.44796 77.858 7.44752 77.9189 7.44531 77.9797C8.66241 78.5954 10.0669 79.0231 11.5204 79.3203C11.6019 79.2356 11.6694 79.136 11.6959 79.0121Z" fill="#FF7800"/>
<path d="M32.5691 77.7853C32.458 77.4515 32.107 77.276 31.7793 77.3844C30.7999 77.7103 29.8108 77.9943 28.8142 78.2364C28.4795 78.318 28.2692 78.6549 28.3428 78.9993C28.3437 79.0037 28.345 79.0077 28.3459 79.0121C28.3724 79.136 28.4398 79.2356 28.521 79.3203C29.9749 79.0231 31.3794 78.5954 32.5965 77.9797C32.5938 77.9189 32.5934 77.858 32.5735 77.7976C32.5722 77.7932 32.5705 77.7893 32.5691 77.7853Z" fill="#FF7800"/>
<path d="M27.8859 2.28663C28.3114 2.3788 28.7427 2.10848 28.8446 1.68559C28.8454 1.68206 28.8463 1.67809 28.8472 1.67456C28.8869 1.50832 28.789 1.33855 28.6236 1.29489C25.554 0.484817 22.0112 0.000168562 20.014 0.000168562C18.0168 0.000168562 14.474 0.484817 11.4044 1.29489C11.239 1.33855 11.1407 1.50831 11.1808 1.67499C11.1817 1.67852 11.1826 1.6825 11.1839 1.68647C11.2853 2.10893 11.7171 2.3788 12.1417 2.28663C14.7241 1.72439 17.3862 1.15509 20.014 1.15289C22.6647 1.15024 25.281 1.71954 27.8859 2.28663Z" fill="#262A35"/>
<path d="M25.8214 17.2853C25.7548 17.6164 25.4448 17.8603 25.092 17.8603H14.9434C14.5906 17.8603 14.2806 17.6164 14.214 17.2853L12.8906 10.7112L13.9887 18.0777C14.0429 18.4415 14.3551 18.7109 14.7229 18.7109H25.312C25.6798 18.7109 25.9925 18.4415 26.0467 18.0777L27.1443 10.7112L25.8214 17.2853Z" fill="#9C4900"/>
<path d="M6.76084 4.16832C6.59547 4.23446 6.43055 4.3006 6.26562 4.36719C7.55592 3.84772 8.84842 3.33134 10.1427 2.81804C10.4271 2.70515 10.5665 2.38325 10.4531 2.09926C10.4518 2.09573 10.4505 2.09265 10.4492 2.08912C10.4368 2.05781 10.4134 2.03575 10.3962 2.00797C8.80785 2.48422 7.42407 3.05043 6.56505 3.68191C6.63031 3.84419 6.69558 4.00604 6.76084 4.16832Z" fill="white"/>
<path d="M6.26224 4.36654C6.42716 4.29995 6.59208 4.23382 6.75745 4.16767C6.69219 4.00539 6.62692 3.84354 6.56166 3.68126C6.39233 3.80606 6.24239 3.93307 6.11627 4.06227C6.02102 4.15973 5.93239 4.2616 5.84375 4.36346C5.97296 4.41682 6.12245 4.42299 6.26224 4.36654Z" fill="#FF7800"/>
<path d="M29.9516 2.71258C31.2185 3.28982 32.4837 3.87015 33.7462 4.45312C33.5848 4.3786 33.4234 4.30407 33.262 4.22999C33.3423 4.05536 33.423 3.88118 33.5032 3.707C32.6517 3.06935 31.2653 2.49783 29.6685 2.01716C29.568 2.2866 29.6853 2.59087 29.9516 2.71258Z" fill="white"/>
<path d="M33.499 3.70628C33.4188 3.88046 33.3381 4.05464 33.2578 4.22927C33.4192 4.30335 33.5806 4.37788 33.742 4.45241C33.9087 4.52913 34.0891 4.50797 34.2381 4.42551C34.134 4.30116 34.0273 4.17944 33.914 4.06302C33.7958 3.94175 33.6551 3.82314 33.499 3.70628Z" fill="#FF7800"/>
<path d="M3.30415 46.2031H3.29797C3.13789 46.2031 3.00781 46.073 3.00781 45.913V44.1843C3.00781 44.0238 3.13789 43.8942 3.29797 43.8942H3.30415C3.46422 43.8942 3.59431 44.0238 3.59431 44.1843V45.913C3.59431 46.073 3.46422 46.2031 3.30415 46.2031Z" fill="#262A35"/>
<path d="M3.30415 52.6328H3.29797C3.13789 52.6328 3.00781 52.5032 3.00781 52.3427V50.614C3.00781 50.454 3.13789 50.3239 3.29797 50.3239H3.30415C3.46422 50.3239 3.59431 50.454 3.59431 50.614V52.3427C3.59431 52.5032 3.46422 52.6328 3.30415 52.6328Z" fill="#262A35"/>
<path d="M36.7334 46.2031H36.7277C36.5672 46.2031 36.4375 46.073 36.4375 45.913V44.1843C36.4375 44.0238 36.5672 43.8942 36.7277 43.8942H36.7334C36.8939 43.8942 37.0236 44.0238 37.0236 44.1843V45.913C37.0236 46.073 36.8939 46.2031 36.7334 46.2031Z" fill="#262A35"/>
<path d="M36.7334 52.6328H36.7277C36.5672 52.6328 36.4375 52.5032 36.4375 52.3427V50.614C36.4375 50.454 36.5672 50.3239 36.7277 50.3239H36.7334C36.8939 50.3239 37.0236 50.454 37.0236 50.614V52.3427C37.0236 52.5032 36.8939 52.6328 36.7334 52.6328Z" fill="#262A35"/>
</svg>
