<svg width="50" height="85" viewBox="0 0 50 85" fill="none" xmlns="http://www.w3.org/2000/svg">
<g filter="url(#filter0_d_30_5808)">
<path d="M30.9261 48.7455C34.3045 49.3791 37.7693 49.4008 41.1553 48.8095C41.361 48.7697 41.5506 48.6708 41.7009 48.5249C41.8513 48.3791 41.9559 48.1925 42.0019 47.9882C42.9707 43.7852 42.998 39.4201 42.0819 35.2053C42.0351 34.9982 41.9291 34.8093 41.7766 34.6615C41.6242 34.5137 41.432 34.4136 41.2235 34.3733C37.8434 33.7323 34.3749 33.7106 30.987 34.3092C30.7767 34.3456 30.5817 34.4427 30.426 34.5887C30.2703 34.7346 30.1607 34.9229 30.1109 35.1304C29.1361 39.3376 29.1088 43.7089 30.0308 47.928C30.0789 48.1393 30.1904 48.3308 30.3504 48.4769C30.5105 48.623 30.7113 48.7167 30.9261 48.7455Z" fill="#D6D6D6"/>
<path d="M12.9844 48.6333C9.59832 49.2246 6.13357 49.2029 2.75517 48.5692C2.54556 48.5317 2.35191 48.4325 2.19901 48.2843C2.04611 48.136 1.9409 47.9456 1.89684 47.7372C0.974834 43.5181 1.0022 39.1469 1.97695 34.9397C2.02681 34.7322 2.13634 34.5438 2.29203 34.3979C2.44772 34.252 2.64273 34.1548 2.853 34.1185C6.24093 33.5198 9.70944 33.5415 13.0896 34.1826C13.2986 34.2252 13.4906 34.3281 13.6418 34.4786C13.793 34.6291 13.8968 34.8205 13.9405 35.0293C14.8588 39.2488 14.8314 43.6192 13.8603 47.8269C13.8097 48.0325 13.6996 48.2186 13.5439 48.362C13.3881 48.5055 13.1935 48.5998 12.9844 48.6333Z" fill="#D6D6D6"/>
<path d="M30.834 54.0222C32.4614 54.735 34.2171 55.1084 35.9936 55.1195C37.7702 55.1306 39.5304 54.7793 41.1666 54.0869L41.3231 29.0895C39.6986 28.366 37.9419 27.9867 36.1636 27.9755C34.3853 27.9644 32.6239 28.3217 30.9905 29.0248L30.834 54.0222Z" fill="#004358"/>
<path d="M36.5521 51.9766C38.0178 52.3824 39.5404 52.5441 41.0587 52.4551C41.1263 52.4491 41.1944 52.4577 41.2584 52.4803C41.3223 52.503 41.3807 52.5392 41.4294 52.5864C41.4781 52.6336 41.5161 52.6908 41.5408 52.754C41.5654 52.8173 41.5761 52.8851 41.5722 52.9528L41.567 53.7942C41.5658 53.9432 41.5134 54.0872 41.4186 54.2022C41.3238 54.3172 41.1924 54.3961 41.0464 54.4256C39.5371 54.6134 38.0057 54.5035 36.5388 54.1022C36.3803 54.052 36.2415 53.9536 36.1418 53.8206C36.042 53.6876 35.9863 53.5268 35.9825 53.3607L35.9883 52.4307C35.98 52.3589 35.9901 52.2862 36.0175 52.2193C36.0449 52.1525 36.0888 52.0936 36.1451 52.0483C36.2013 52.003 36.2682 51.9726 36.3394 51.9601C36.4105 51.9476 36.4837 51.9533 36.5521 51.9766Z" fill="#0E6B87"/>
<path d="M35.4431 49.9251C33.9726 50.3248 32.4538 50.5189 30.9299 50.5021C30.8615 50.5016 30.7936 50.5148 30.7303 50.5408C30.6669 50.5669 30.6094 50.6052 30.561 50.6537C30.5126 50.7021 30.4744 50.7597 30.4485 50.8231C30.4225 50.8865 30.4095 50.9544 30.41 51.0228L30.4046 51.8863C30.4024 52.0318 30.4532 52.173 30.5476 52.2837C30.642 52.3943 30.7735 52.4667 30.9175 52.4874C32.4342 52.602 33.9593 52.4619 35.4297 52.0728C35.5871 52.0218 35.7254 51.9243 35.8263 51.7932C35.9273 51.6621 35.9862 51.5035 35.9952 51.3383L36.001 50.4157C36.0161 50.3418 36.0113 50.2653 35.9873 50.1938C35.9633 50.1224 35.9209 50.0585 35.8643 50.0087C35.8076 49.9589 35.7389 49.925 35.6649 49.9103C35.591 49.8956 35.5145 49.9007 35.4431 49.9251Z" fill="#0E6B87"/>
<path d="M36.5779 47.8656C38.0487 48.2771 39.5585 48.5339 41.0827 48.6319C41.2242 48.6422 41.3564 48.7065 41.4519 48.8115C41.5474 48.9165 41.5989 49.0541 41.5958 49.196L41.5903 50.0669C41.5935 50.2093 41.5409 50.3474 41.4437 50.4515C41.3465 50.5557 41.2125 50.6178 41.0702 50.6246C39.5469 50.6209 38.0311 50.4103 36.5645 49.9985C36.4078 49.9456 36.2707 49.8464 36.1714 49.714C36.0721 49.5816 36.0152 49.4223 36.0082 49.257L36.0142 48.3049C36.0086 48.2343 36.0206 48.1634 36.0492 48.0986C36.0777 48.0338 36.1219 47.9771 36.1778 47.9335C36.2336 47.89 36.2994 47.861 36.3693 47.8491C36.4391 47.8373 36.5108 47.8429 36.5779 47.8656Z" fill="#0E6B87"/>
<path d="M35.4687 45.829C33.9855 46.2477 32.4705 46.5443 30.9388 46.7159C30.7959 46.7376 30.6652 46.8093 30.57 46.9181C30.4747 47.0269 30.4211 47.1659 30.4185 47.3105L30.4132 48.1518C30.4097 48.2212 30.4205 48.2905 30.4448 48.3555C30.4691 48.4205 30.5064 48.4799 30.5545 48.5299C30.6025 48.58 30.6603 48.6197 30.7243 48.6466C30.7883 48.6735 30.8571 48.6871 30.9265 48.6865C32.4526 48.6159 33.9664 48.3779 35.4405 47.9767C35.598 47.9257 35.7362 47.8282 35.8372 47.6971C35.9381 47.566 35.997 47.4073 36.0061 47.2421L36.0123 46.2384C36.0119 46.1726 35.9963 46.1077 35.9667 46.0489C35.9371 45.9901 35.8944 45.9389 35.8418 45.8993C35.7892 45.8597 35.7282 45.8327 35.6635 45.8205C35.5988 45.8084 35.5321 45.8113 35.4687 45.829Z" fill="#0E6B87"/>
<path d="M36.6036 43.7547C38.136 44.1998 39.6687 44.5932 41.1063 44.8605C41.2501 44.8928 41.3789 44.9726 41.4719 45.087C41.5649 45.2013 41.6167 45.3437 41.619 45.4911L41.6137 46.3398C41.6168 46.4076 41.6052 46.4753 41.5797 46.5382C41.5543 46.6011 41.5156 46.6578 41.4663 46.7044C41.417 46.751 41.3582 46.7865 41.2939 46.8083C41.2297 46.8302 41.1615 46.8379 41.094 46.831C39.5709 46.6317 38.0653 46.3163 36.5903 45.8876C36.4341 45.8338 36.2976 45.7344 36.1984 45.6022C36.0992 45.47 36.042 45.3111 36.034 45.1461L36.0398 44.2162C36.0279 44.1433 36.0354 44.0686 36.0615 43.9995C36.0876 43.9305 36.1314 43.8695 36.1885 43.8227C36.2457 43.776 36.3141 43.7451 36.387 43.7331C36.4598 43.7212 36.5346 43.7286 36.6036 43.7547Z" fill="#0E6B87"/>
<path d="M35.4945 41.7182C33.9566 42.1514 32.4261 42.5773 30.9773 42.9225C30.8335 42.9665 30.7066 43.0534 30.6135 43.1715C30.5204 43.2896 30.4657 43.4334 30.4565 43.5835L30.4513 44.4249C30.4463 44.4914 30.4566 44.5581 30.4815 44.62C30.5064 44.6819 30.5451 44.7372 30.5947 44.7817C30.6444 44.8262 30.7036 44.8588 30.7678 44.8768C30.832 44.8948 30.8995 44.8979 30.965 44.8857C32.4872 44.6187 33.9945 44.2734 35.4811 43.8511C35.638 43.7992 35.7757 43.7015 35.8765 43.5706C35.9773 43.4397 36.0366 43.2815 36.0466 43.1166L36.0525 42.1867C36.0653 42.114 36.0587 42.0392 36.0335 41.9698C36.0083 41.9004 35.9652 41.8389 35.9087 41.7914C35.8521 41.7439 35.7841 41.7122 35.7114 41.6993C35.6387 41.6865 35.5638 41.693 35.4945 41.7182Z" fill="#0E6B87"/>
<path d="M36.6294 39.644C38.1616 40.1112 39.6937 40.6079 41.1301 41.0598C41.2853 41.1095 41.4197 41.2091 41.5123 41.3432C41.605 41.4773 41.6506 41.6383 41.6421 41.8011L41.6372 42.5834C41.643 42.6493 41.6326 42.7156 41.6069 42.7765C41.5813 42.8374 41.5411 42.8912 41.4899 42.9331C41.4387 42.9749 41.378 43.0037 41.3132 43.0168C41.2484 43.0299 41.1813 43.0269 41.1179 43.0082C39.644 42.6521 38.1707 42.2074 36.6162 41.7548C36.46 41.701 36.3235 41.6015 36.2243 41.4694C36.1251 41.3372 36.0679 41.1783 36.0599 41.0133L36.0657 40.0834C36.0581 40.0122 36.0688 39.9403 36.0968 39.8745C36.1247 39.8086 36.169 39.751 36.2254 39.707C36.2818 39.663 36.3486 39.6342 36.4192 39.6231C36.4899 39.6121 36.5623 39.6193 36.6294 39.644Z" fill="#0E6B87"/>
<path d="M35.5201 37.6146C33.9452 38.0624 32.4658 38.5919 30.9863 39.1214C30.8387 39.1819 30.7114 39.2831 30.6191 39.4132C30.5268 39.5433 30.4734 39.6969 30.4651 39.8562L30.4598 40.6976C30.4541 40.762 30.4647 40.8267 30.4907 40.8859C30.5167 40.9451 30.5572 40.9968 30.6085 41.0361C30.6598 41.0754 30.7202 41.1012 30.7841 41.1109C30.848 41.1207 30.9133 41.1142 30.974 41.092C32.4529 40.6584 33.9319 40.1879 35.4921 39.7401C35.6489 39.6882 35.7867 39.5905 35.8875 39.4595C35.9883 39.3286 36.0475 39.1705 36.0576 39.0055L36.0634 38.0756C36.0735 38.0051 36.0656 37.9333 36.0404 37.8667C36.0152 37.8001 35.9735 37.741 35.9192 37.6949C35.8649 37.6489 35.7998 37.6173 35.73 37.6033C35.6602 37.5892 35.588 37.5931 35.5201 37.6146Z" fill="#0E6B87"/>
<path d="M36.655 35.5406C38.1854 36.0294 39.6873 36.603 41.1539 37.2589C41.2955 37.3284 41.4169 37.433 41.5065 37.5628C41.5962 37.6926 41.651 37.8432 41.6659 38.0002L41.6603 38.8932C41.6673 38.9573 41.6567 39.022 41.6296 39.0805C41.6025 39.1389 41.56 39.1889 41.5066 39.225C41.4533 39.2611 41.3911 39.282 41.3267 39.2854C41.2624 39.2888 41.1983 39.2745 41.1414 39.2442C39.6687 38.7036 38.196 38.1556 36.6416 37.6809C36.4865 37.6253 36.3511 37.5254 36.2522 37.3936C36.1533 37.2618 36.0953 37.1038 36.0854 36.9393L36.0912 36.0094C36.0751 35.9355 36.0796 35.8586 36.1043 35.7871C36.1289 35.7156 36.1727 35.6522 36.2308 35.6039C36.289 35.5555 36.3593 35.524 36.4341 35.5129C36.5089 35.5017 36.5853 35.5113 36.655 35.5406Z" fill="#0E6B87"/>
<path d="M35.5459 33.5037C33.993 33.9882 32.4812 34.5958 31.0249 35.3206C30.8776 35.4014 30.7528 35.5177 30.6617 35.6589C30.5706 35.8 30.5161 35.9617 30.5032 36.1292L30.4979 36.9706C30.4961 37.2658 30.724 37.4074 31.0126 37.2912C32.489 36.6581 33.9977 36.1034 35.5326 35.6293C35.6884 35.5757 35.8251 35.4775 35.9256 35.3469C36.0262 35.2163 36.0861 35.0591 36.0981 34.8947L36.1039 33.9648C36.1177 33.8922 36.1116 33.8172 36.0865 33.7476C36.0614 33.6781 36.0181 33.6166 35.9611 33.5695C35.9041 33.5224 35.8355 33.4914 35.7625 33.4799C35.6894 33.4683 35.6146 33.4765 35.5459 33.5037Z" fill="#0E6B87"/>
<path d="M36.6807 31.4295C38.2435 31.954 39.75 32.6334 41.1776 33.4578C41.3241 33.5493 41.4468 33.6742 41.5357 33.8223C41.6246 33.9704 41.6771 34.1375 41.6889 34.3098L41.6836 35.1512C41.6818 35.4464 41.4522 35.5704 41.1653 35.4284C39.7158 34.6903 38.2122 34.0641 36.6674 33.555C36.5127 33.4987 36.3778 33.3986 36.2791 33.2669C36.1803 33.1353 36.1219 32.9777 36.1111 32.8135L36.1169 31.8836C36.1041 31.8108 36.1111 31.7358 36.1371 31.6666C36.1631 31.5974 36.2071 31.5364 36.2647 31.4901C36.3223 31.4437 36.3913 31.4136 36.4644 31.4029C36.5376 31.3923 36.6123 31.4015 36.6807 31.4295Z" fill="#0E6B87"/>
<path d="M35.5716 29.3929C33.9784 29.9151 32.4546 30.6293 31.0339 31.5196C30.8878 31.618 30.7652 31.7475 30.675 31.8988C30.5847 32.05 30.529 32.2194 30.5118 32.3947L30.5065 33.236C30.5046 33.5386 30.7327 33.6508 31.0216 33.4902C32.4587 32.6844 33.9737 32.0262 35.5435 31.5257C35.6978 31.4697 35.833 31.3709 35.9332 31.2408C36.0333 31.1107 36.0943 30.9547 36.109 30.7912L36.1148 29.8613C36.1287 29.7898 36.1234 29.716 36.0995 29.6472C36.0757 29.5784 36.0341 29.5172 35.979 29.4696C35.9238 29.4221 35.8571 29.39 35.7856 29.3765C35.7141 29.363 35.6402 29.3687 35.5716 29.3929Z" fill="#0E6B87"/>
<path d="M41.2014 29.657C40.3159 29.0352 39.3814 28.4863 38.407 28.0158C37.6606 27.8725 36.9025 27.7986 36.1425 27.795L36.137 28.6732C36.1496 28.8369 36.2087 28.9936 36.3072 29.125C36.4057 29.2563 36.5397 29.3568 36.6933 29.4148C38.2739 29.9569 39.7834 30.6875 41.1893 31.5907C41.476 31.7696 41.7053 31.6825 41.7072 31.3873L41.7125 30.5385C41.6907 30.3649 41.6342 30.1973 41.5464 30.0459C41.4586 29.8945 41.3413 29.7622 41.2014 29.657Z" fill="#0E6B87"/>
<path d="M30.5475 29.0589L30.5446 29.5091C30.5427 29.8117 30.7711 29.8869 31.0602 29.6895C32.0589 29.0045 33.1203 28.4155 34.2301 27.9306C32.9522 28.1167 31.7103 28.4972 30.5475 29.0589Z" fill="#0E6B87"/>
<path d="M35.8287 55.5296C35.9197 55.4056 35.9696 55.2563 35.9716 55.1024L35.9774 54.1725C35.9833 54.1019 35.9719 54.0309 35.9442 53.9657C35.9164 53.9005 35.8732 53.843 35.8182 53.7983C35.7632 53.7536 35.6981 53.723 35.6286 53.7091C35.5591 53.6953 35.4873 53.6986 35.4193 53.7188C33.9481 54.1038 32.4169 54.2045 30.9079 54.0153C30.8192 53.9996 30.7278 54.0123 30.6467 54.0515C30.5656 54.0908 30.499 54.1546 30.4563 54.2339C32.1305 55.0542 33.9646 55.4965 35.8287 55.5296Z" fill="#0E6B87"/>
<g style="mix-blend-mode:multiply" opacity="0.5">
<path d="M41.1399 52.4702L41.1445 51.7322C37.6473 52.9054 33.8508 52.8242 30.407 51.5026L30.4047 51.8716C30.4055 52.0025 30.4487 52.1297 30.5279 52.234C30.6071 52.3383 30.718 52.4141 30.8439 52.45L30.8342 53.9999C30.7576 53.9999 30.6822 54.0202 30.6159 54.0587C30.5496 54.0971 30.4946 54.1524 30.4565 54.219C32.1307 55.0393 33.9647 55.4816 35.8289 55.5147C35.9152 55.3911 35.9648 55.2455 35.9717 55.0949C37.3211 55.1024 38.6638 54.9042 39.9536 54.5072C40.3195 54.4974 40.6845 54.4652 41.0465 54.4107C41.1926 54.3812 41.324 54.3023 41.4188 54.1873C41.5136 54.0723 41.5659 53.9282 41.5671 53.7792L41.5725 52.9157C41.568 52.8012 41.5213 52.6924 41.4415 52.6101C41.3616 52.5279 41.2542 52.4781 41.1399 52.4702Z" fill="#003242"/>
</g>
<g style="mix-blend-mode:multiply" opacity="0.5">
<path d="M30.9623 33.5194L30.9605 33.8146C34.4611 32.9143 38.1396 32.9731 41.6097 33.9846C41.5348 33.8012 41.4137 33.6403 41.2584 33.5174L41.27 31.6576C41.5128 31.7772 41.7055 31.6603 41.7069 31.4241L41.7123 30.5754C41.681 30.2497 41.5272 29.948 41.2821 29.7313L41.2861 29.0892C40.5618 28.7705 39.8099 28.5187 39.0397 28.3371C38.8263 28.2324 38.6204 28.1204 38.4069 28.0231C37.6605 27.8798 36.9025 27.8059 36.1425 27.8023L36.1412 27.9942C35.2838 27.9875 34.4279 28.0662 33.5861 28.2291L34.23 27.9379C32.9471 28.1226 31.7001 28.5031 30.5326 29.0662L30.5298 29.5164C30.5281 29.7894 30.7195 29.8644 30.9713 29.7332L30.9597 31.5856C30.8341 31.6831 30.7297 31.8051 30.6527 31.9442C30.5757 32.0833 30.5277 32.2365 30.5118 32.3947L30.5065 33.2361C30.5196 33.5092 30.7108 33.6138 30.9623 33.5194Z" fill="#003242"/>
</g>
<path d="M2.64104 53.8455C4.26329 54.5531 6.01241 54.9237 7.78224 54.9348C9.55207 54.9459 11.3057 54.5972 12.9367 53.91L13.0931 28.9126C11.4737 28.1944 9.72357 27.8179 7.95206 27.8068C6.18054 27.7957 4.42579 28.1502 2.79751 28.8482L2.64104 53.8455Z" fill="#004358"/>
<path d="M7.24468 51.7931C5.77389 52.1801 4.24949 52.3226 2.73245 52.2151C2.66461 52.2083 2.5961 52.2161 2.5315 52.2379C2.4669 52.2597 2.40769 52.295 2.35781 52.3415C2.30794 52.388 2.26854 52.4445 2.24225 52.5074C2.21596 52.5703 2.20337 52.6381 2.20534 52.7063L2.20007 53.5476C2.19972 53.6977 2.25133 53.8432 2.34613 53.9595C2.44093 54.0758 2.57308 54.1557 2.72011 54.1856C4.22687 54.392 5.75948 54.3013 7.23137 53.9186C7.38966 53.8702 7.52871 53.7731 7.62887 53.6413C7.72903 53.5095 7.78522 53.3496 7.78952 53.1841L7.79534 52.2541C7.80399 52.1833 7.79478 52.1114 7.76857 52.045C7.74235 51.9786 7.69995 51.9199 7.64523 51.8741C7.5905 51.8282 7.5252 51.7968 7.45524 51.7827C7.38529 51.7685 7.3129 51.7721 7.24468 51.7931Z" fill="#0E6B87"/>
<path d="M8.37185 49.7556C9.83749 50.1728 11.3536 50.3859 12.8775 50.3891C12.9466 50.3885 13.0151 50.4018 13.0789 50.4282C13.1428 50.4546 13.2007 50.4935 13.2493 50.5427C13.2978 50.5918 13.336 50.6502 13.3616 50.7144C13.3872 50.7786 13.3996 50.8473 13.3982 50.9163L13.3928 51.7798C13.393 51.9264 13.3394 52.0679 13.2421 52.1775C13.1448 52.2872 13.0106 52.3572 12.8651 52.3744C11.3471 52.4693 9.82393 52.3101 8.35841 51.9033C8.20164 51.8504 8.06459 51.7512 7.96529 51.6188C7.86599 51.4864 7.80911 51.3271 7.80212 51.1618L7.8079 50.2392C7.79376 50.1652 7.79943 50.0887 7.82433 50.0175C7.84924 49.9464 7.89249 49.8831 7.94972 49.834C8.00696 49.7849 8.07613 49.7518 8.15026 49.7381C8.22438 49.7243 8.30082 49.7304 8.37185 49.7556Z" fill="#0E6B87"/>
<path d="M7.27041 47.6822C5.79442 48.0747 4.2816 48.3125 2.75638 48.392C2.61342 48.3987 2.47862 48.4605 2.38026 48.5645C2.28191 48.6685 2.22764 48.8065 2.22886 48.9496L2.2234 49.8205C2.21851 49.9641 2.2704 50.1038 2.36783 50.2095C2.46525 50.3151 2.60038 50.378 2.7439 50.3847C4.26712 50.3996 5.78532 50.208 7.25706 49.8151C7.41365 49.7638 7.55091 49.666 7.65061 49.5348C7.75031 49.4036 7.80772 49.2451 7.81521 49.0805L7.82117 48.1285C7.82907 48.0583 7.81918 47.9872 7.79241 47.9219C7.76563 47.8565 7.72284 47.799 7.66797 47.7545C7.6131 47.7101 7.54793 47.6801 7.47845 47.6675C7.40897 47.6548 7.33743 47.6599 7.27041 47.6822Z" fill="#0E6B87"/>
<path d="M8.39748 45.6597C9.87092 46.0946 11.377 46.4101 12.9012 46.6031C13.0452 46.625 13.1767 46.6976 13.272 46.8078C13.3674 46.9179 13.4204 47.0585 13.4214 47.2042L13.4162 48.0455C13.4188 48.1155 13.407 48.1853 13.3814 48.2505C13.3559 48.3157 13.3171 48.375 13.2676 48.4246C13.2181 48.4741 13.159 48.5129 13.0938 48.5386C13.0286 48.5642 12.9588 48.5762 12.8888 48.5736C11.3638 48.4828 9.8533 48.2259 8.38403 47.8074C8.22727 47.7544 8.09021 47.6552 7.99091 47.5228C7.89161 47.3905 7.83473 47.2311 7.82775 47.0658L7.83403 46.0621C7.83461 45.9946 7.85115 45.9281 7.88231 45.8682C7.91346 45.8083 7.95835 45.7567 8.01329 45.7174C8.06824 45.6782 8.13169 45.6525 8.19846 45.6425C8.26523 45.6324 8.33342 45.6383 8.39748 45.6597Z" fill="#0E6B87"/>
<path d="M7.29602 43.5713C5.7508 43.9971 4.22066 44.3713 2.77986 44.6206C2.6343 44.6497 2.50287 44.7272 2.407 44.8405C2.31113 44.9539 2.25647 45.0963 2.25192 45.2447L2.24661 46.0934C2.24379 46.1615 2.25553 46.2295 2.28103 46.2927C2.30653 46.3559 2.34522 46.413 2.39451 46.4601C2.4438 46.5072 2.50256 46.5433 2.56689 46.5659C2.63121 46.5885 2.69961 46.5971 2.76753 46.5912C4.29284 46.4102 5.80223 46.1137 7.28267 45.7043C7.43872 45.652 7.57542 45.554 7.67498 45.423C7.77453 45.292 7.83232 45.134 7.84082 44.9697L7.84664 44.0398C7.85882 43.9679 7.85211 43.8941 7.82718 43.8256C7.80226 43.7571 7.75998 43.6963 7.70446 43.6491C7.64895 43.6018 7.58211 43.5698 7.51051 43.5562C7.43891 43.5426 7.365 43.5478 7.29602 43.5713Z" fill="#0E6B87"/>
<path d="M8.42324 41.5488C9.96297 42.0013 11.488 42.4463 12.9249 42.8096C13.0696 42.8541 13.197 42.9421 13.29 43.0615C13.383 43.1809 13.437 43.326 13.4448 43.4771L13.4395 44.3185C13.444 44.3858 13.4327 44.4532 13.4067 44.5154C13.3806 44.5776 13.3405 44.633 13.2894 44.677C13.2383 44.7211 13.1777 44.7526 13.1123 44.7693C13.0469 44.7859 12.9786 44.7871 12.9127 44.7728C11.3943 44.4851 9.89149 44.121 8.40989 43.6818C8.25367 43.6279 8.11717 43.5285 8.01801 43.3963C7.91885 43.2641 7.86159 43.1053 7.8536 42.9402L7.85942 42.0103C7.84751 41.9374 7.85498 41.8627 7.88109 41.7936C7.90719 41.7246 7.95101 41.6636 8.00815 41.6168C8.06528 41.5701 8.13373 41.5392 8.20659 41.5272C8.27946 41.5153 8.35417 41.5227 8.42324 41.5488Z" fill="#0E6B87"/>
<path d="M7.32178 39.4606C5.77642 39.9085 4.24563 40.3861 2.80368 40.8199C2.6465 40.8663 2.50923 40.9637 2.41351 41.0967C2.3178 41.2298 2.26908 41.3909 2.27505 41.5546L2.27015 42.337C2.26489 42.4031 2.27565 42.4696 2.3015 42.5307C2.32735 42.5918 2.36755 42.6459 2.41869 42.6882C2.46982 42.7305 2.5304 42.7598 2.59529 42.7738C2.66018 42.7877 2.72748 42.7859 2.79149 42.7683C4.23283 42.4304 5.74854 42.0045 7.30857 41.5714C7.46462 41.5192 7.60132 41.4212 7.70088 41.2901C7.80043 41.1591 7.85822 41.0012 7.86672 40.8368L7.87254 39.9069C7.88044 39.8367 7.87055 39.7657 7.84378 39.7003C7.817 39.635 7.77421 39.5774 7.71934 39.533C7.66447 39.4885 7.5993 39.4586 7.52982 39.4459C7.46034 39.4333 7.3888 39.4383 7.32178 39.4606Z" fill="#0E6B87"/>
<path d="M8.44892 37.4452C9.98856 37.9124 11.5129 38.4607 12.9487 39.0085C13.0975 39.069 13.2256 39.1711 13.3177 39.3026C13.4099 39.4341 13.4621 39.5894 13.4681 39.7498L13.4629 40.5912C13.4683 40.6565 13.457 40.7222 13.4299 40.7819C13.4028 40.8416 13.3609 40.8934 13.3081 40.9323C13.2553 40.9712 13.1934 40.9959 13.1283 41.0041C13.0633 41.0123 12.9972 41.0037 12.9364 40.9791C11.5 40.5272 9.99001 40.0381 8.43562 39.5707C8.2794 39.5169 8.1429 39.4174 8.04374 39.2853C7.94458 39.1531 7.88732 38.9942 7.87933 38.8292L7.88515 37.8992C7.87473 37.8269 7.8833 37.7532 7.91004 37.6852C7.93678 37.6172 7.98076 37.5574 8.03765 37.5116C8.09454 37.4657 8.16238 37.4355 8.23449 37.4239C8.30661 37.4122 8.38051 37.4196 8.44892 37.4452Z" fill="#0E6B87"/>
<path d="M7.34754 35.357C5.81078 35.8254 4.30171 36.3803 2.82755 37.0189C2.6833 37.085 2.55871 37.1875 2.46604 37.3164C2.37336 37.4452 2.31577 37.5959 2.29892 37.7537L2.29333 38.6467C2.28725 38.711 2.29848 38.7757 2.32584 38.8341C2.3532 38.8926 2.39571 38.9426 2.44895 38.9791C2.50219 39.0156 2.56423 39.0372 2.62861 39.0416C2.693 39.046 2.7574 39.0331 2.81512 39.0042C4.25762 38.4819 5.77398 37.9526 7.33415 37.4973C7.48913 37.4434 7.62476 37.3449 7.72404 37.2143C7.82332 37.0836 7.88185 36.9265 7.8923 36.7628L7.89812 35.8328C7.91428 35.76 7.91043 35.6842 7.88697 35.6133C7.86351 35.5425 7.82132 35.4794 7.76487 35.4306C7.70842 35.3818 7.63982 35.3492 7.56635 35.3363C7.49287 35.3233 7.41727 35.3305 7.34754 35.357Z" fill="#0E6B87"/>
<path d="M8.47461 33.3344C10.0223 33.8357 11.5265 34.4622 12.9725 35.2077C13.121 35.2884 13.2466 35.4056 13.3374 35.5482C13.4281 35.6908 13.4812 35.8541 13.4914 36.0229L13.4861 36.8642C13.4843 37.1594 13.2546 37.2982 12.9601 37.1783C11.4928 36.5244 9.99094 35.9508 8.4613 35.46C8.30614 35.4044 8.17072 35.3045 8.07182 35.1727C7.97293 35.0409 7.91493 34.8829 7.90501 34.7184L7.91084 33.7885C7.89802 33.7157 7.90497 33.6407 7.93097 33.5715C7.95696 33.5023 8.00105 33.4413 8.05864 33.395C8.11622 33.3486 8.18519 33.3185 8.25835 33.3079C8.33151 33.2972 8.40619 33.3064 8.47461 33.3344Z" fill="#0E6B87"/>
<path d="M7.37329 31.246C5.80346 31.7495 4.28847 32.4101 2.85135 33.2179C2.70152 33.3057 2.57514 33.4285 2.48297 33.5757C2.39081 33.7229 2.33559 33.8902 2.32203 34.0633L2.31676 34.9047C2.31491 35.1999 2.54292 35.3268 2.83902 35.1884C4.29698 34.4673 5.80846 33.8599 7.35998 33.3716C7.51445 33.3168 7.64956 33.2181 7.74871 33.0876C7.84787 32.9571 7.90675 32.8005 7.91813 32.637L7.92395 31.7071C7.9395 31.6348 7.93502 31.5597 7.91101 31.4898C7.887 31.4199 7.84436 31.3579 7.7877 31.3104C7.73103 31.263 7.66248 31.2319 7.58945 31.2206C7.51642 31.2092 7.44168 31.218 7.37329 31.246Z" fill="#0E6B87"/>
<path d="M8.50031 29.2235C10.083 29.7637 11.593 30.497 12.9962 31.4068C13.1432 31.5055 13.2661 31.6359 13.3559 31.7885C13.4456 31.9411 13.4999 32.1119 13.5148 32.2883L13.5095 33.1297C13.5076 33.4323 13.2781 33.5416 12.9839 33.3773C11.5583 32.551 10.0514 31.8738 8.48696 31.3564C8.33333 31.2985 8.1994 31.198 8.10088 31.0666C8.00235 30.9353 7.94331 30.7786 7.93067 30.6149L7.9365 29.6849C7.92209 29.6116 7.92785 29.5357 7.95318 29.4653C7.9785 29.395 8.02243 29.3328 8.08029 29.2855C8.13815 29.2381 8.20777 29.2073 8.28174 29.1964C8.35571 29.1855 8.43124 29.1949 8.50031 29.2235Z" fill="#0E6B87"/>
<path d="M2.87514 29.4172C3.76735 28.8049 4.70882 28.2676 5.68986 27.811C6.43551 27.6771 7.19198 27.6126 7.94955 27.6185L7.94405 28.4968C7.93086 28.6597 7.87128 28.8155 7.77238 28.9457C7.67347 29.0758 7.53936 29.175 7.3859 29.2313C5.79813 29.7524 4.27942 30.4641 2.86304 31.3508C2.56672 31.5261 2.33847 31.4361 2.34032 31.1409L2.34563 30.2921C2.36968 30.1179 2.42905 29.9505 2.5201 29.8C2.61115 29.6495 2.73196 29.5193 2.87514 29.4172Z" fill="#0E6B87"/>
<path d="M13.5356 28.9525L13.5328 29.4027C13.5309 29.7053 13.3017 29.7777 13.0077 29.5766C12.021 28.8779 10.9694 28.2756 9.8674 27.7782C11.1429 27.9803 12.3799 28.3763 13.5356 28.9525Z" fill="#0E6B87"/>
<path d="M7.91616 55.3547C7.83113 55.2274 7.78348 55.0788 7.77861 54.9258L7.78443 53.9958C7.7794 53.9251 7.7917 53.8543 7.82027 53.7894C7.84883 53.7246 7.8928 53.6677 7.94835 53.6236C8.0039 53.5796 8.06934 53.5498 8.13902 53.5368C8.20869 53.5239 8.28048 53.5281 8.34816 53.5491C9.81456 53.952 11.3443 54.0718 12.8555 53.9021C12.9455 53.887 13.0379 53.9005 13.1198 53.9408C13.2016 53.981 13.2688 54.0459 13.3117 54.1264C11.6245 54.9249 9.7828 55.3441 7.91616 55.3547Z" fill="#0E6B87"/>
<g style="mix-blend-mode:multiply" opacity="0.5">
<path d="M2.65104 52.2294L2.65566 51.4914C6.13783 52.7083 9.93508 52.6747 13.3951 51.3962L13.3928 51.7653C13.3904 51.8962 13.3456 52.0228 13.2651 52.1261C13.1846 52.2294 13.0728 52.3038 12.9464 52.3382L12.9367 53.888C13.0132 53.8898 13.088 53.9113 13.1537 53.9505C13.2194 53.9897 13.2739 54.0453 13.3117 54.1118C11.6244 54.9103 9.78277 55.3295 7.91614 55.3401C7.83357 55.2148 7.7884 55.0686 7.78592 54.9186C6.4365 54.9092 5.09639 54.6942 3.81172 54.2811C3.44591 54.267 3.08133 54.2302 2.72008 54.171C2.57304 54.1411 2.4409 54.0612 2.34609 53.9449C2.25129 53.8286 2.19968 53.683 2.20004 53.533L2.20544 52.6695C2.21156 52.5538 2.26063 52.4446 2.34304 52.3632C2.42546 52.2818 2.5353 52.2341 2.65104 52.2294Z" fill="#003242"/>
</g>
<g style="mix-blend-mode:multiply" opacity="0.5">
<path d="M13.065 33.4074L13.0631 33.7026C9.57152 32.7587 5.89028 32.7713 2.40522 33.7392C2.48781 33.5579 2.61285 33.3992 2.76977 33.2765L2.78142 31.4166C2.52975 31.5332 2.33859 31.4139 2.34007 31.1777L2.34538 30.329C2.38047 30.0019 2.54112 29.7013 2.79348 29.4904L2.79749 28.8483C3.51408 28.5414 4.2566 28.2991 5.01623 28.1241L5.66026 27.8181C6.40591 27.6842 7.16239 27.6197 7.91995 27.6256L7.91875 27.8175C8.77862 27.8216 9.63597 27.911 10.4782 28.0845L9.83793 27.7852C11.1185 27.986 12.3606 28.382 13.5209 28.9597L13.5181 29.4099C13.5164 29.683 13.324 29.7556 13.0739 29.6211L13.0623 31.4736C13.1867 31.5727 13.2896 31.696 13.3648 31.836C13.4401 31.976 13.4861 32.1299 13.5001 32.2882L13.4948 33.1296C13.5079 33.4028 13.3079 33.5048 13.065 33.4074Z" fill="#003242"/>
</g>
<path d="M11.5018 70.9064C18.1435 71.0439 25.391 71.0892 32.0561 71.035C34.2702 71.0489 35.8729 70.8744 35.8741 70.6899L35.8903 68.0994C35.8915 67.9149 34.2835 67.7498 32.077 67.7065C25.4353 67.5616 18.1877 67.5162 11.5226 67.5778C9.30848 67.5639 7.69841 67.7384 7.69725 67.9229L7.68103 70.5134C7.67988 70.6979 9.28783 70.863 11.5018 70.9064Z" fill="#00212B"/>
<path d="M30.7667 74.2077C32.3634 74.5056 34.0005 74.5158 35.6009 74.238C35.852 74.1916 36.0791 74.0592 36.2433 73.8636C36.4075 73.668 36.4985 73.4214 36.5006 73.1661L36.5478 65.6307C36.5503 65.3749 36.4629 65.1265 36.3009 64.9285C36.139 64.7306 35.9127 64.5958 35.6615 64.5476C34.0648 64.2497 32.4277 64.2395 30.8274 64.5173C30.5756 64.5624 30.3477 64.6944 30.1833 64.8902C30.0188 65.0861 29.9284 65.3335 29.9276 65.5892L29.8804 73.1246C29.8794 73.38 29.9673 73.6277 30.129 73.8254C30.2908 74.023 30.5162 74.1582 30.7667 74.2077Z" fill="#D6D6D6"/>
<path d="M12.7955 74.0954C11.1952 74.3732 9.55811 74.363 7.96138 74.0651C7.71087 74.0156 7.48541 73.8804 7.3237 73.6827C7.16198 73.4851 7.07409 73.2373 7.07509 72.982L7.12226 65.4466C7.12335 65.1898 7.21487 64.9416 7.38077 64.7456C7.54667 64.5496 7.77633 64.4182 8.02942 64.3747C9.62726 64.0968 11.2619 64.107 12.8562 64.4049C13.1081 64.453 13.3352 64.5875 13.4984 64.7853C13.6616 64.9831 13.7505 65.2317 13.7498 65.4881L13.7027 73.0235C13.6987 73.2795 13.6062 73.5262 13.4408 73.7217C13.2754 73.9171 13.0474 74.0492 12.7955 74.0954Z" fill="#D6D6D6"/>
<path d="M30.504 76.081C31.3359 76.48 32.2457 76.6899 33.1683 76.6957C34.0909 76.7015 35.0033 76.503 35.84 76.1144L35.9242 62.6748C35.0934 62.2723 34.1831 62.0604 33.2599 62.0546C32.3368 62.0488 31.424 62.2493 30.5882 62.6414L30.504 76.081Z" fill="#004358"/>
<path d="M32.2328 75.8113C32.8664 75.9038 33.5097 75.9078 34.1444 75.8232C34.2166 76.082 34.2962 76.3334 34.3685 76.5627C34.8796 76.462 35.3763 76.299 35.8477 76.0774L35.8465 76.2767C35.3272 76.5286 34.7742 76.7041 34.2047 76.7978L33.9879 76.0584C33.4508 76.1215 32.9079 76.1181 32.3716 76.0483L32.1456 76.785C31.5773 76.6841 31.0266 76.5017 30.5104 76.2433L30.5117 76.044C30.9803 76.2715 31.475 76.4406 31.9847 76.5478C32.0599 76.3194 32.1427 76.069 32.2328 75.8113Z" fill="#003242"/>
<path d="M32.2408 74.5491C32.8758 74.6194 33.5164 74.6234 34.1523 74.561C34.2245 74.8198 34.3041 75.0712 34.3765 75.3005C34.8815 75.2223 35.377 75.0918 35.855 74.9112L35.8538 75.1105C35.3249 75.3148 34.7742 75.4574 34.2126 75.5356L33.9958 74.7962C33.458 74.8445 32.9167 74.8411 32.3795 74.7861L32.1535 75.5228C31.593 75.4375 31.0441 75.288 30.5178 75.0771L30.519 74.8778C30.9948 75.0644 31.4886 75.201 31.9926 75.2856C32.0678 75.0572 32.1506 74.8068 32.2408 74.5491Z" fill="#003242"/>
<path d="M32.2487 73.2874C32.8845 73.343 33.5237 73.347 34.1602 73.2994C34.2324 73.5581 34.312 73.8096 34.3844 74.0388C34.8848 73.9778 35.3793 73.8747 35.8624 73.7307L35.8612 73.93C35.3274 74.0984 34.7776 74.2113 34.2206 74.2666C34.1483 74.0152 34.0761 73.7564 34.004 73.4903C33.4659 73.5312 32.9253 73.5278 32.3877 73.4802C32.3122 73.7454 32.2368 74.0032 32.1614 74.2537C31.6052 74.1914 31.0568 74.0717 30.5252 73.8966L30.5264 73.6973C31.0077 73.8473 31.5008 73.9566 32.0005 74.0239C32.0757 73.7956 32.1586 73.523 32.2487 73.2874Z" fill="#003242"/>
<path d="M32.2564 72.0474C32.8928 72.0883 33.5311 72.0923 34.1679 72.0594C34.2401 72.3255 34.3196 72.5844 34.3918 72.8431C34.8886 72.7984 35.3821 72.7226 35.8694 72.6162L35.8682 72.8081C35.3288 72.9331 34.7804 73.0161 34.2281 73.0561L34.0113 72.3167C33.4701 72.3133 32.9313 72.31 32.395 72.3066L32.169 73.0433C31.6173 72.9963 31.07 72.9065 30.5322 72.7747L30.5334 72.5754C31.0194 72.6879 31.5118 72.7699 32.008 72.8208C32.0836 72.5408 32.1664 72.283 32.2564 72.0474Z" fill="#003242"/>
<path d="M32.2645 70.7559C32.8992 70.7598 33.5413 70.7638 34.176 70.7678C34.2482 71.034 34.3278 71.2928 34.3999 71.5516C34.9092 71.5548 35.4041 71.4841 35.8769 71.4132L35.8757 71.6125C35.3322 71.6931 34.785 71.7463 34.2362 71.772L34.0197 70.9883C33.4784 70.9849 32.9397 70.9815 32.4034 70.9781L32.1771 71.7591C31.6286 71.7266 31.0821 71.6665 30.5397 71.5791L30.5409 71.3798C31.0202 71.4566 31.5144 71.504 32.0161 71.5367C32.0913 71.3083 32.1743 71.021 32.2645 70.7559Z" fill="#003242"/>
<path d="M32.2723 69.4936L34.1839 69.5056C34.256 69.7718 34.3355 70.038 34.4077 70.2967L35.8842 70.2469L35.883 70.4388C35.3587 70.4798 34.805 70.4985 34.244 70.5098L34.0275 69.7187C33.4863 69.7153 32.9475 69.7119 32.4112 69.7086L32.1849 70.4969C31.624 70.4934 31.0704 70.4899 30.5469 70.4054L30.5481 70.2135L32.0238 70.2818C32.0993 70.024 32.1821 69.7588 32.2723 69.4936Z" fill="#003242"/>
<path d="M32.2804 68.2315C32.9151 68.2355 33.5572 68.2395 34.1919 68.2435C34.264 68.5096 34.3435 68.7758 34.4157 69.042C34.9077 69.0451 35.3997 69.0481 35.8918 69.0512L35.8905 69.2505L34.2521 69.2402C34.1798 68.9839 34.1077 68.7178 34.0356 68.4418L32.4193 68.4316C32.3438 68.7018 32.2684 68.967 32.1929 69.2273L30.5545 69.2171L30.5557 69.0178C31.0478 69.0209 31.5398 69.024 32.0318 69.0271C32.1073 68.7618 32.1901 68.4966 32.2804 68.2315Z" fill="#003242"/>
<path d="M32.2883 66.962C32.923 66.966 33.5651 66.97 34.1998 66.974C34.2719 67.2475 34.3514 67.5138 34.4236 67.7799C34.9156 67.783 35.4074 67.823 35.899 67.8999L35.8977 68.0991C35.374 68.0442 34.8207 68.0112 34.2599 67.9929L34.0435 67.1871C33.5023 67.1837 32.9635 67.1803 32.4272 67.177L32.2007 67.98C31.6398 67.9765 31.086 68.0173 30.5617 68.0657L30.5629 67.8664C31.0553 67.8203 31.5475 67.7865 32.0397 67.765C32.1152 67.4998 32.198 67.2346 32.2883 66.962Z" fill="#003242"/>
<path d="M32.2962 65.7001C32.9328 65.6598 33.5715 65.6638 34.2077 65.712C34.2798 65.9856 34.3592 66.2591 34.4314 66.5253C34.9263 66.5653 35.4187 66.6324 35.9063 66.7264L35.9052 66.9036C35.3635 66.8075 34.8169 66.7425 34.2679 66.7088L34.0515 65.8956C33.5136 65.8553 32.9736 65.8519 32.4352 65.8855L32.2087 66.6959C31.6593 66.7227 31.1119 66.7809 30.5691 66.8702L30.5704 66.6709C31.0591 66.583 31.5523 66.522 32.0477 66.4882C32.123 66.2452 32.2059 65.9726 32.2962 65.7001Z" fill="#003242"/>
<path d="M32.304 64.438C32.9399 64.3756 33.5805 64.3796 34.2156 64.45C34.2877 64.7235 34.3671 64.9971 34.4392 65.2706C34.9372 65.3267 35.4301 65.4211 35.9136 65.5529L35.9124 65.7522C35.3749 65.6155 34.8277 65.5207 34.2756 65.4689L34.0593 64.6483C33.5218 64.6006 32.9812 64.5972 32.443 64.6381L32.2165 65.456C31.6638 65.5009 31.1154 65.5888 30.5763 65.7188L30.5776 65.5195C31.0627 65.3937 31.5567 65.3055 32.0554 65.2557C32.1309 64.9831 32.2138 64.7105 32.304 64.438Z" fill="#003242"/>
<path d="M32.3119 63.1907C32.9465 63.1061 33.5898 63.1101 34.2234 63.2026C34.2955 63.4762 34.3749 63.7498 34.447 64.0233C34.9495 64.101 35.4431 64.2277 35.9208 64.4016L35.9196 64.6008C35.3898 64.4147 34.8411 64.2875 34.2834 64.2216L34.0672 63.3936C33.53 63.3386 32.9887 63.3352 32.4509 63.3834L32.2243 64.2087C31.6659 64.2676 31.1156 64.388 30.5835 64.5674L30.5848 64.3682C31.0647 64.2003 31.5598 64.0798 32.0632 64.0084C32.1388 63.721 32.2217 63.4484 32.3119 63.1907Z" fill="#003242"/>
<path d="M32.3199 61.9139C32.9534 61.814 33.5991 61.8181 34.2314 61.9258L34.455 62.7539C34.9623 62.8493 35.4567 63.0035 35.9282 63.2133L35.927 63.4126C35.404 63.1876 34.8543 63.0304 34.2914 62.9448L34.0752 62.1168C33.5394 62.0393 32.9956 62.0359 32.4589 62.1066L32.2323 62.9319C31.6684 63.0104 31.1168 63.1607 30.591 63.3792L30.5922 63.1799C31.0664 62.976 31.5627 62.828 32.0711 62.739L32.3199 61.9139Z" fill="#003242"/>
<g style="mix-blend-mode:multiply" opacity="0.5">
<path d="M30.5111 74.9516L30.5029 76.2653C31.019 76.5236 31.5697 76.7061 32.138 76.8069C32.1547 76.7421 32.1748 76.6781 32.1982 76.6154C32.8405 76.7227 33.4957 76.7268 34.1393 76.6276L34.1971 76.8198C34.7666 76.7261 35.3196 76.5505 35.8389 76.2987L35.8471 74.985C34.1276 75.6455 32.2222 75.6336 30.5111 74.9516Z" fill="#003242"/>
</g>
<g style="mix-blend-mode:multiply" opacity="0.5">
<path d="M35.906 65.5825L35.9242 62.6746C35.4014 62.4231 34.8461 62.2457 34.2742 62.1477L34.2166 61.9259C33.5843 61.8181 32.9387 61.8141 32.3051 61.9139L32.2446 62.135C31.6716 62.2259 31.1141 62.3963 30.5882 62.6412L30.57 65.5491C32.3221 65.1023 34.1596 65.1138 35.906 65.5825Z" fill="#003242"/>
</g>
<path d="M7.64705 75.9378C8.48017 76.3369 9.39123 76.5468 10.315 76.5526C11.2388 76.5584 12.1524 76.3599 12.9904 75.9712L13.0746 62.5315C12.2425 62.1289 11.331 61.9169 10.4067 61.9112C9.48227 61.9054 8.56825 62.1059 7.73118 62.4981L7.64705 75.9378Z" fill="#004358"/>
<path d="M9.3537 75.6682C9.98971 75.7608 10.6355 75.7648 11.2726 75.6802L11.4894 76.4196C12.0003 76.3184 12.497 76.1555 12.9686 75.9344L12.9673 76.1337C12.448 76.3855 11.895 76.561 11.3255 76.6548C11.2533 76.4034 11.1737 76.1519 11.1014 75.9153C10.5667 75.9784 10.0263 75.975 9.49245 75.9052C9.41703 76.1631 9.34166 76.4136 9.25904 76.6418C8.69077 76.541 8.14004 76.3585 7.62392 76.1002L7.62517 75.9009C8.09395 76.1279 8.58857 76.297 9.09815 76.4047L9.3537 75.6682Z" fill="#003242"/>
<path d="M9.36152 74.406C9.99901 74.4764 10.6421 74.4804 11.2804 74.418L11.4972 75.1574C12.0022 75.0792 12.4977 74.9487 12.9758 74.7681L12.9745 74.9674C12.4456 75.1717 11.8949 75.3144 11.3334 75.3926C11.2611 75.1412 11.1816 74.8824 11.1092 74.6531C10.5738 74.7014 10.035 74.6981 9.50027 74.643C9.42485 74.9009 9.34943 75.1587 9.26686 75.3796C8.70631 75.2944 8.15745 75.1448 7.63114 74.9339L7.63238 74.7347C8.10814 74.9212 8.60198 75.0579 9.10597 75.1425L9.36152 74.406Z" fill="#003242"/>
<path d="M9.3694 73.1438C10.0077 73.1995 10.6494 73.2035 11.2883 73.1558L11.5051 73.8953C12.0055 73.8338 12.4999 73.7308 12.9832 73.5872L12.9819 73.7864C12.4481 73.9549 11.8983 74.0677 11.3413 74.123C11.2691 73.8716 11.1895 73.6128 11.1174 73.3467C10.5817 73.3876 10.0435 73.3842 9.50843 73.3366C9.43297 73.6018 9.35755 73.8597 9.27479 74.1101C8.71851 74.0478 8.17017 73.9281 7.63852 73.753L7.63976 73.5537C8.1212 73.7033 8.61427 73.8126 9.11385 73.8803L9.3694 73.1438Z" fill="#003242"/>
<path d="M9.37716 71.9039C10.016 71.9448 10.6567 71.9488 11.2961 71.9159L11.5126 72.6996C12.0093 72.6545 12.5028 72.5787 12.9901 72.4727L12.9889 72.6645C12.4495 72.7896 11.9011 72.8725 11.3489 72.9126C11.2767 72.6538 11.1971 72.395 11.1247 72.1731C10.5933 72.1698 10.0472 72.1664 9.51577 72.1631C9.44035 72.4209 9.36493 72.6788 9.28236 72.8997C8.73062 72.8527 8.18336 72.7629 7.64553 72.6311L7.64678 72.4318C8.13277 72.544 8.62525 72.626 9.12138 72.6772L9.37716 71.9039Z" fill="#003242"/>
<path d="M9.38526 70.6123C10.02 70.6163 10.6695 70.6203 11.3042 70.6243L11.5207 71.408C12.0299 71.4112 12.5322 71.3405 12.9977 71.2697L12.9964 71.4689C12.4529 71.5495 11.9057 71.6028 11.3569 71.6284C11.2847 71.3696 11.2052 71.1108 11.133 70.8447C10.6016 70.8413 10.0555 70.8379 9.5241 70.8346C9.44864 71.0998 9.37322 71.3577 9.29042 71.6155C8.74195 71.583 8.19547 71.5229 7.65303 71.4355L7.65428 71.2362C8.13354 71.313 8.63513 71.3604 9.12943 71.3931L9.38526 70.6123Z" fill="#003242"/>
<path d="M9.3932 69.3506L11.3121 69.3626L11.5286 70.1537L13.005 70.1039L13.0038 70.2958C12.4795 70.3368 11.9259 70.3554 11.3648 70.3667C11.2927 70.1079 11.2131 69.8417 11.141 69.5756C10.6096 69.5722 10.0635 69.5688 9.53208 69.5655C9.45662 69.8307 9.38115 70.096 9.29835 70.3538C8.73744 70.3502 8.18391 70.3468 7.66041 70.2623L7.66161 70.0704L9.13732 70.1387L9.3932 69.3506Z" fill="#003242"/>
<path d="M9.40108 68.0884C10.0358 68.0924 10.6853 68.0965 11.32 68.1004L11.5364 68.8989C12.0456 68.9021 12.5475 68.9052 13.0125 68.9082L13.0112 69.1074L11.3728 69.0972C11.3006 68.8384 11.2211 68.5722 11.149 68.2987L9.54007 68.2886C9.46455 68.5612 9.38909 68.8264 9.30629 69.0842L7.66784 69.074L7.66909 68.8747C8.14881 68.8777 8.65068 68.8808 9.14516 68.8839L9.40108 68.0884Z" fill="#003242"/>
<path d="M9.40902 66.819C10.0437 66.823 10.6932 66.827 11.3279 66.831L11.5443 67.6368C12.0535 67.64 12.555 67.7022 13.0197 67.7568L13.0184 67.9561C12.4947 67.9011 11.9414 67.8681 11.3806 67.8499C11.3085 67.5763 11.229 67.3101 11.1568 67.044C10.6254 67.0406 10.0793 67.0372 9.54791 67.0339C9.47245 67.2991 9.39698 67.5644 9.31409 67.8369C8.75318 67.8334 8.19937 67.8742 7.67504 67.9226L7.67629 67.7233C8.15634 67.6747 8.65843 67.6409 9.15306 67.6219L9.40902 66.819Z" fill="#003242"/>
<path d="M9.41689 65.557C10.056 65.5167 10.6972 65.5207 11.3358 65.569L11.5521 66.3822C12.047 66.4225 12.5394 66.4896 13.027 66.5834L13.0259 66.7605C12.4843 66.6644 11.9376 66.5994 11.3886 66.5657C11.3165 66.2922 11.237 66.026 11.1649 65.7525C10.6294 65.7122 10.0919 65.7088 9.55596 65.7424C9.48045 66.015 9.40498 66.2802 9.32209 66.5528C8.77268 66.5796 8.22525 66.6378 7.68249 66.727L7.68374 66.5278C8.17249 66.4402 8.66564 66.3792 9.16101 66.3451L9.41689 65.557Z" fill="#003242"/>
<path d="M9.42478 64.2949C10.0631 64.2325 10.7062 64.2365 11.3437 64.3069L11.56 65.1275C12.0579 65.184 12.5508 65.2783 13.0343 65.4099L13.0331 65.6091C12.4957 65.4724 11.9484 65.3777 11.3963 65.3258C11.3242 65.0523 11.2448 64.7787 11.1727 64.5051C10.6376 64.4575 10.0994 64.4541 9.56376 64.4951C9.48825 64.7677 9.41274 65.0403 9.32985 65.3129C8.77714 65.3578 8.22877 65.4457 7.68969 65.5757L7.69094 65.3764C8.17609 65.251 8.67013 65.1628 9.16872 65.1126L9.42478 64.2949Z" fill="#003242"/>
<path d="M9.43271 63.0476C10.0698 62.963 10.7156 62.967 11.3516 63.0596L11.5679 63.8802C12.0702 63.9584 12.5638 64.085 13.0417 64.2585L13.0404 64.4578C12.5106 64.2716 11.9619 64.1445 11.4043 64.0785L11.1807 63.2505C10.6459 63.1954 10.1071 63.1921 9.57173 63.2404C9.49622 63.513 9.42066 63.793 9.33777 64.0656C8.77934 64.1245 8.2291 64.2448 7.69701 64.4243L7.69826 64.225C8.17826 64.0576 8.67338 63.9371 9.17665 63.8653L9.43271 63.0476Z" fill="#003242"/>
<path d="M9.44059 61.7708C10.0767 61.6715 10.7247 61.6755 11.3595 61.7828L11.5757 62.6108C12.083 62.7062 12.5774 62.8604 13.049 63.0703L13.0477 63.2695C12.5247 63.0445 11.9751 62.8873 11.4121 62.8017C11.3401 62.5208 11.2606 62.2472 11.1885 61.9737C10.6552 61.8969 10.1139 61.8935 9.57961 61.9636C9.5041 62.2362 9.42859 62.5088 9.34565 62.7888C8.78172 62.8673 8.23014 63.0176 7.70434 63.2361L7.70559 63.0368C8.17974 62.8329 8.67606 62.6849 9.18448 62.5958L9.44059 61.7708Z" fill="#003242"/>
<g style="mix-blend-mode:multiply" opacity="0.5">
<path d="M7.65412 74.8085L7.6459 76.1222C8.16201 76.3805 8.71274 76.5629 9.28102 76.6638C9.30445 76.6011 9.32456 76.5372 9.34126 76.4723C9.98598 76.5797 10.6437 76.5838 11.2897 76.4845C11.3056 76.5496 11.3249 76.6137 11.3475 76.6768C11.917 76.583 12.47 76.4075 12.9893 76.1556L12.9975 74.8419C11.2755 75.5029 9.36772 75.4909 7.65412 74.8085Z" fill="#003242"/>
</g>
<g style="mix-blend-mode:multiply" opacity="0.5">
<path d="M13.0564 65.4395L13.0746 62.5316C12.5514 62.2811 11.9962 62.1038 11.4246 62.0046L11.367 61.7828C10.7322 61.6755 10.0842 61.6715 9.44807 61.7708L9.38764 61.9919C8.81489 62.0839 8.25753 62.2542 7.73121 62.4981L7.71301 65.406C9.4676 64.9593 11.3075 64.9708 13.0564 65.4395Z" fill="#003242"/>
</g>
<path d="M16.6822 34.4633L27.3838 34.5303L27.4159 29.4083L16.7143 29.3413L16.6822 34.4633Z" fill="#FD7400"/>
<path d="M17.4498 34.4681L26.6089 34.5254L26.6409 29.4034L17.4819 29.3461L17.4498 34.4681Z" fill="#C25900"/>
<path d="M13.2074 31.8805L30.9203 31.9914L34.6973 35.8308L34.604 50.7466L30.7395 58.5164L13.0266 58.4055L9.25973 50.588L9.35309 35.6722L13.2074 31.8805Z" fill="#FD7400"/>
<path d="M14.082 58.4121L29.6841 58.5098L28.1694 76.4649L15.3644 76.3847L14.082 58.4121Z" fill="#FD7400"/>
<path d="M15.8976 58.4235L27.8612 58.4984L26.7499 74.4928C26.7312 74.7687 26.6079 75.0271 26.405 75.2152C26.2022 75.4032 25.9352 75.5067 25.6586 75.5045L17.8945 75.4559C17.6171 75.4548 17.3506 75.3482 17.1489 75.1578C16.9472 74.9674 16.8255 74.7074 16.8085 74.4305L15.8976 58.4235Z" fill="#FFBA1A"/>
<path d="M25.5344 58.8011L24.7635 69.9337C24.7346 70.348 24.5488 70.7356 24.2439 71.0176C23.9391 71.2996 23.5381 71.4547 23.1229 71.4512L20.4512 71.4345C20.0364 71.431 19.6385 71.2703 19.3375 70.9849C19.0366 70.6995 18.8551 70.3105 18.8297 69.8965L18.1983 58.7552L25.5344 58.8011Z" fill="#FFE11A"/>
<path d="M26.7025 58.4839L26.6486 60.0113C26.6057 60.9779 26.5601 62.3652 26.4759 64.0327C26.3916 65.7002 26.2983 67.6334 26.1672 69.7065C26.151 70.2476 26.1008 70.7872 26.0169 71.322C25.8652 71.891 25.5487 72.4026 25.1073 72.7924C24.6525 73.1971 24.0838 73.4513 23.479 73.5203C23.1913 73.5363 22.9029 73.5345 22.6154 73.5149L21.7888 73.5097C21.2206 73.5061 20.6965 73.5029 20.099 73.4622C19.4941 73.389 18.9276 73.1273 18.4799 72.714C18.0416 72.3201 17.7313 71.8041 17.5887 71.2323C17.506 70.6945 17.46 70.1517 17.4513 69.6077C17.3462 67.5331 17.2845 65.5916 17.2137 63.9305C17.143 62.2694 17.1222 60.8743 17.0913 59.9072C17.0605 58.9402 17.1009 58.3795 17.1009 58.3795C17.1009 58.3795 17.1491 58.9333 17.239 59.9008C17.3289 60.8682 17.4531 62.2492 17.5755 63.9106C17.698 65.572 17.8556 67.5067 17.9829 69.5815C17.9967 70.0934 18.0428 70.604 18.1209 71.1102C18.2389 71.59 18.5001 72.0227 18.8698 72.3506C19.2395 72.6785 19.7002 72.8862 20.1908 72.9461C20.6924 72.9936 21.2831 72.953 21.8292 72.9564L22.6558 72.9616C22.9363 72.9633 23.2167 72.9651 23.4529 72.9666C23.9457 72.9117 24.4103 72.7086 24.7853 72.3842C25.1602 72.0597 25.4279 71.6291 25.553 71.1493C25.6392 70.6442 25.6942 70.1344 25.7176 69.6225C25.8708 67.5495 26.0526 65.6169 26.1959 63.9572C26.3391 62.2974 26.488 60.9182 26.5752 59.9518C26.6624 58.9855 26.7025 58.4839 26.7025 58.4839Z" fill="#004358"/>
<path d="M14.4428 51.4765L29.4029 51.5701C30.6053 51.5776 31.5862 50.609 31.5937 49.4065L31.6628 38.3655C31.6703 37.163 30.7017 36.1822 29.4992 36.1746L14.5392 36.081C13.3368 36.0735 12.3559 37.0421 12.3484 38.2446L12.2792 49.2856C12.2717 50.4881 13.2404 51.4689 14.4428 51.4765Z" fill="#FFE11A"/>
<path d="M14.9603 41.9069L18.6874 41.9302C18.9837 41.9321 19.2672 42.0511 19.476 42.2612C19.6849 42.4713 19.8022 42.7555 19.8023 43.0517L19.7622 49.4579C19.7565 49.7528 19.6348 50.0336 19.4235 50.2395C19.2123 50.4454 18.9284 50.5598 18.6334 50.5579L14.9063 50.5346C14.6101 50.5327 14.3266 50.4138 14.1177 50.2037C13.9089 49.9936 13.7916 49.7094 13.7915 49.4131L13.8316 43.007C13.8373 42.712 13.959 42.4312 14.1702 42.2253C14.3815 42.0194 14.6654 41.905 14.9603 41.9069ZM18.6369 49.997C18.7825 49.9979 18.9225 49.9415 19.0268 49.8399C19.131 49.7384 19.191 49.5998 19.1939 49.4543L19.234 43.0482C19.233 42.9026 19.1747 42.7633 19.0717 42.6605C18.9687 42.5576 18.8294 42.4994 18.6839 42.4985L14.9568 42.4752C14.8112 42.4743 14.6712 42.5307 14.567 42.6323C14.4627 42.7338 14.4027 42.8724 14.3998 43.0179L14.3597 49.4241C14.3608 49.5696 14.4191 49.7089 14.522 49.8117C14.625 49.9146 14.7643 49.9728 14.9098 49.9737L18.6369 49.997Z" fill="#FD7400"/>
<path d="M15.6078 9.20743C15.7359 7.5426 16.4904 5.98825 17.7193 4.85775C18.9481 3.72725 20.5598 3.10467 22.2295 3.11554C23.8985 3.1257 25.5014 3.76864 26.7148 4.91459C27.9282 6.06054 28.6616 7.62416 28.7671 9.2898L29.2845 17.4118L29.2823 17.766C29.279 17.982 29.1906 18.1879 29.0362 18.339C28.8818 18.4901 28.674 18.5741 28.458 18.5728C28.242 18.5714 28.0353 18.4848 27.8828 18.3318C27.7303 18.1788 27.6445 17.9718 27.6439 17.7558L27.6461 17.4015L26.7531 17.3959L26.7508 17.7502C26.7475 17.9662 26.6591 18.1721 26.5047 18.3232C26.3503 18.4743 26.1425 18.5583 25.9265 18.5569C25.7105 18.5556 25.5038 18.469 25.3513 18.316C25.1989 18.163 25.113 17.9559 25.1124 17.7399L25.1146 17.3857L24.2216 17.3801L24.2194 17.7343C24.2161 17.9503 24.1276 18.1563 23.9732 18.3073C23.8189 18.4584 23.6111 18.5424 23.3951 18.5411C23.1791 18.5397 22.9723 18.4531 22.8199 18.3001C22.6674 18.1471 22.5815 17.9401 22.5809 17.7241L22.5831 17.3698L21.6901 17.3642L21.6879 17.7185C21.6846 17.9345 21.5961 18.1404 21.4418 18.2915C21.2874 18.4426 21.0796 18.5266 20.8636 18.5252C20.6483 18.5239 20.4423 18.437 20.291 18.2838C20.1397 18.1306 20.0555 17.9236 20.0568 17.7083L20.059 17.354L19.1586 17.3484L19.1564 17.7027C19.1531 17.9186 19.0647 18.1246 18.9103 18.2756C18.7559 18.4267 18.5481 18.5107 18.3321 18.5094C18.1168 18.508 17.9108 18.4212 17.7595 18.268C17.6082 18.1148 17.524 17.9078 17.5254 17.6924L17.5276 17.3382L16.6272 17.3325L16.625 17.6868C16.6217 17.9028 16.5332 18.1087 16.3788 18.2598C16.2244 18.4109 16.0166 18.4949 15.8006 18.4935C15.5853 18.4922 15.3794 18.4053 15.2281 18.2521C15.0768 18.0989 14.9925 17.8919 14.9939 17.6766L14.9961 17.3223L15.6078 9.20743Z" fill="#2A6380"/>
<path d="M28.0135 17.6546L28.015 17.4036C28.0153 17.3555 28.0061 17.3078 27.9877 17.2633C27.9693 17.2189 27.9423 17.1785 27.9081 17.1446C27.874 17.1107 27.8334 17.084 27.7888 17.0659C27.7442 17.0479 27.6964 17.039 27.6483 17.0397L26.7553 17.0341C26.7072 17.0328 26.6593 17.0411 26.6144 17.0586C26.5696 17.076 26.5287 17.1023 26.4941 17.1357C26.4595 17.1692 26.432 17.2092 26.4131 17.2535C26.3942 17.2977 26.3843 17.3453 26.384 17.3934L26.3826 17.6075L25.4822 17.6018L25.4836 17.3878C25.4842 17.2919 25.4466 17.1997 25.3792 17.1314C25.3118 17.0632 25.2201 17.0245 25.1242 17.0239L24.2238 17.0183C24.1757 17.017 24.1278 17.0253 24.083 17.0427C24.0381 17.0602 23.9972 17.0864 23.9626 17.1199C23.9281 17.1534 23.9005 17.1934 23.8816 17.2376C23.8627 17.2819 23.8528 17.3295 23.8525 17.3776L23.8512 17.5916L22.9507 17.586L22.9521 17.3719C22.9524 17.3238 22.9431 17.2761 22.9248 17.2316C22.9064 17.1872 22.8793 17.1468 22.8452 17.1129C22.811 17.079 22.7705 17.0523 22.7258 17.0343C22.6812 17.0162 22.6334 17.0073 22.5853 17.008L21.6923 17.0024C21.6442 17.0011 21.5963 17.0094 21.5515 17.0269C21.5067 17.0444 21.4657 17.0706 21.4312 17.104C21.3966 17.1375 21.369 17.1775 21.3501 17.2218C21.3312 17.266 21.3213 17.3136 21.321 17.3617L21.3197 17.5758L20.4193 17.5701L20.4206 17.3561C20.4212 17.2602 20.3837 17.168 20.3163 17.0997C20.2489 17.0315 20.1572 16.9928 20.0612 16.9922L19.1608 16.9866C19.1127 16.9853 19.0649 16.9936 19.02 17.0111C18.9752 17.0285 18.9343 17.0547 18.8997 17.0882C18.8651 17.1217 18.8376 17.1617 18.8187 17.2059C18.7997 17.2502 18.7898 17.2978 18.7896 17.3459L18.7882 17.5599L17.8952 17.5543L17.8965 17.3403C17.8952 17.2437 17.8561 17.1515 17.7875 17.0834C17.7189 17.0154 17.6264 16.9769 17.5298 16.9763L16.6294 16.9707C16.5328 16.9701 16.4398 17.0074 16.3703 17.0746C16.3009 17.1417 16.2606 17.2335 16.2581 17.33L16.2567 17.5441L15.3563 17.5384L15.3575 17.3539L15.3593 17.0661L15.9768 9.20954C16.046 8.30897 16.311 7.43436 16.7532 6.64677C17.1954 5.85917 17.8041 5.17758 18.5369 4.64955L18.6259 4.58368L25.8144 4.62868L25.9025 4.69566C26.6277 5.2332 27.2267 5.9226 27.6577 6.71569C28.0887 7.50878 28.3414 8.38642 28.398 9.28729L28.9094 17.1952L28.9078 17.4461L28.9065 17.6602L28.0135 17.6546Z" fill="#00212B"/>
<path d="M20.1773 5.53826L24.2439 5.56372L24.2553 3.74814L20.1887 3.72269L20.1773 5.53826Z" fill="#004358"/>
<path d="M25.1552 8.52907C25.1405 10.876 27.4625 14.8909 28.9022 17.1658L28.3979 9.29482C28.3413 8.39395 28.0887 7.5163 27.6577 6.72321C27.2266 5.93012 26.6276 5.24072 25.9025 4.70318C25.397 5.91475 25.1428 7.21634 25.1552 8.52907Z" fill="#002E3D"/>
<path d="M15.3813 17.1032C16.8715 14.854 19.2214 10.861 19.236 8.52143C19.2528 7.20854 19.0102 5.90525 18.522 4.68639C17.7892 5.21442 17.1804 5.89602 16.7382 6.68361C16.2961 7.4712 16.0311 8.34581 15.9618 9.24638L15.3813 17.1032Z" fill="#002E3D"/>
<path d="M18.9728 31.7026L25.128 31.7411C25.4432 31.7431 25.7462 31.6198 25.9704 31.3983C26.1947 31.1769 26.3217 30.8754 26.3237 30.5603C26.3237 30.2464 26.1996 29.9453 25.9783 29.7227C25.7571 29.5 25.4567 29.374 25.1429 29.372L18.995 29.3335C18.6818 29.3315 18.3807 29.4541 18.1579 29.6741C17.935 29.8942 17.8087 30.1938 17.8068 30.507C17.8048 30.8196 17.9261 31.1204 18.1443 31.3442C18.3626 31.568 18.6603 31.6967 18.9728 31.7026Z" fill="#004358"/>
<path d="M19.1494 3.50213L25.3046 3.54066C25.6185 3.54263 25.9204 3.42034 26.1444 3.20048C26.3684 2.98063 26.4963 2.68108 26.5002 2.36723C26.5042 2.20935 26.4766 2.05228 26.4191 1.90518C26.3616 1.75809 26.2754 1.62392 26.1655 1.51054C26.0556 1.39715 25.9241 1.30682 25.7789 1.24481C25.6336 1.18281 25.4775 1.15037 25.3196 1.14941L19.1717 1.11092C18.8578 1.11091 18.5567 1.23508 18.3341 1.45632C18.1114 1.67757 17.9854 1.97791 17.9834 2.29177C17.9795 2.44806 18.0067 2.60358 18.0633 2.74929C18.12 2.895 18.205 3.028 18.3135 3.1406C18.4219 3.25319 18.5517 3.34313 18.6951 3.40519C18.8386 3.46725 18.993 3.5002 19.1494 3.50213Z" fill="#004358"/>
<path d="M25.8126 7.27832L18.5946 7.23314L19.3782 1.13422L25.098 1.17003L25.8126 7.27832Z" fill="#E36800"/>
<path d="M19.2908 15.0833L25.0106 15.1191L25.0979 1.17021L19.3781 1.13441L19.2908 15.0833Z" fill="#FD7400"/>
<path d="M22.1532 14.1268L22.1606 14.1269C23.2 14.1334 24.0479 13.2961 24.0544 12.2567L24.106 4.01278C24.1125 2.97338 23.2752 2.12551 22.2358 2.119L22.2284 2.11896C21.189 2.11245 20.3411 2.94978 20.3346 3.98918L20.283 12.2331C20.2765 13.2725 21.1138 14.1203 22.1532 14.1268Z" fill="#E36800"/>
<path d="M19.1943 30.5157L24.9141 30.5515L25.0107 15.1191L19.2909 15.0833L19.1943 30.5157Z" fill="#FFE11A"/>
<path d="M22.0565 29.5668L22.0639 29.5668C23.1033 29.5733 23.9512 28.736 23.9577 27.6966L24.0185 17.9766C24.0251 16.9372 23.1877 16.0894 22.1483 16.0829L22.141 16.0828C21.1016 16.0763 20.2537 16.9136 20.2472 17.953L20.1863 27.673C20.1798 28.7124 21.0171 29.5603 22.0565 29.5668Z" fill="#FFC000"/>
<g style="mix-blend-mode:multiply" opacity="0.3">
<path d="M23.0155 2.52241L22.7129 2.52051L22.6784 8.03365L22.981 8.03555L22.9368 15.106L21.7411 15.0985L21.7854 8.02806L22.088 8.02996L22.1225 2.51682L21.8199 2.51492L21.8285 1.14955L23.0241 1.15703L23.0155 2.52241Z" fill="#583200"/>
<path d="M20.3327 3.11078L20.345 1.14022L21.548 1.14775L21.5357 3.11831L21.2257 3.11637L21.195 8.02433L21.505 8.02627L21.4607 15.0967L20.2577 15.0891L20.3019 8.01874L20.6119 8.02068L20.6426 3.11272L20.3327 3.11078Z" fill="#583200"/>
</g>
<path d="M22.3561 2.939L23.5591 2.94653L23.567 1.67711L22.364 1.66958L22.3561 2.939Z" fill="#004358"/>
<path d="M22.6251 9.47262L23.2156 9.47632L23.2565 2.94467L22.666 2.94098L22.6251 9.47262Z" fill="#F2F2F2"/>
<g style="mix-blend-mode:multiply" opacity="0.3">
<path d="M20.2695 22.6473L20.3168 15.0898L21.8077 15.0991L21.7604 22.6566L21.3766 22.6542L21.3397 28.5438L21.7235 28.5462L21.7111 30.5315L20.2202 30.5222L20.2326 28.5368L20.6164 28.5392L20.6533 22.6497L20.2695 22.6473Z" fill="#583200"/>
</g>
<path d="M22.2831 14.6075L23.4861 14.615L23.5271 8.06121L22.3241 8.05368L22.2831 14.6075Z" fill="#004358"/>
<path d="M20.88 2.92973L22.083 2.93726L22.091 1.66783L20.8879 1.6603L20.88 2.92973Z" fill="#004358"/>
<path d="M21.1417 9.46335L21.7322 9.46704L21.7731 2.9354L21.1826 2.9317L21.1417 9.46335Z" fill="#F2F2F2"/>
<path d="M20.807 14.5982L22.01 14.6057L22.051 8.05193L20.848 8.0444L20.807 14.5982Z" fill="#004358"/>
<path d="M21.3049 31.7172L22.7958 31.7266L22.8155 28.5825L21.3246 28.5732L21.3049 31.7172Z" fill="#004358"/>
<path d="M21.7011 28.5755L22.4318 28.5801L22.4782 21.1554L21.7476 21.1508L21.7011 28.5755Z" fill="#F2F2F2"/>
<path d="M21.3611 22.7573L22.8519 22.7666L22.8986 15.3124L21.4078 15.3031L21.3611 22.7573Z" fill="#004358"/>
<path d="M20.2618 15.6134L24.0332 15.637L24.0397 14.5963L20.2683 14.5727L20.2618 15.6134Z" fill="#004358"/>
<path d="M20.3418 1.65696L24.1279 1.68066L24.1312 1.16404L20.345 1.14034L20.3418 1.65696Z" fill="#004358"/>
<g style="mix-blend-mode:multiply" opacity="0.3">
<path d="M15.1033 59.1419C15.2481 59.1428 15.3867 59.2012 15.4885 59.3043C15.5903 59.4074 15.6469 59.5466 15.646 59.6915L15.6349 61.4628L19.3534 65.2207C19.4195 65.3278 19.4466 65.4544 19.4301 65.5792C19.4136 65.7039 19.3545 65.8192 19.2628 65.9054C19.1712 65.9916 19.0525 66.0435 18.927 66.0524C18.8014 66.0612 18.6767 66.0264 18.5738 65.9539L14.54 61.8766L14.5539 59.6625C14.5605 59.5216 14.6213 59.3886 14.7238 59.2916C14.8262 59.1945 14.9622 59.1409 15.1033 59.1419Z" fill="#583200"/>
</g>
<path d="M18.3919 62.0188L19.5801 62.0262L19.558 65.5541C19.5575 65.6322 19.5415 65.7095 19.5109 65.7814C19.4804 65.8534 19.4358 65.9185 19.3799 65.9731C19.3239 66.0277 19.2577 66.0706 19.185 66.0994C19.1123 66.1281 19.0347 66.1422 18.9565 66.1407C18.7999 66.1398 18.6501 66.0766 18.5401 65.9652C18.4301 65.8538 18.3688 65.7032 18.3698 65.5466L18.3919 62.0188Z" fill="#004358"/>
<path d="M19.5669 64.1369L19.5801 62.0261L18.3918 62.0187L18.3786 64.1295C18.3781 64.2156 18.4118 64.2984 18.4723 64.3597C18.5328 64.421 18.6152 64.4557 18.7013 64.4563L19.2401 64.4596C19.3262 64.4602 19.409 64.4265 19.4703 64.366C19.5316 64.3054 19.5663 64.2231 19.5669 64.1369Z" fill="#668E9B"/>
<path d="M16.3328 38.4172L14.4582 38.4055C14.4168 38.4052 14.376 38.3967 14.338 38.3804C14.3 38.3642 14.2656 38.3404 14.2369 38.3107C14.2082 38.2809 14.1858 38.2458 14.1709 38.2072C14.156 38.1686 14.1489 38.1275 14.1502 38.0862C14.1507 38.004 14.1838 37.9253 14.2423 37.8676C14.3008 37.8098 14.3799 37.7776 14.4621 37.7781L16.3367 37.7899C16.378 37.7891 16.4191 37.7967 16.4575 37.8121C16.4958 37.8274 16.5307 37.8503 16.5601 37.8794C16.5895 37.9085 16.6128 37.9431 16.6286 37.9813C16.6444 38.0195 16.6524 38.0605 16.6521 38.1018C16.6516 38.186 16.6177 38.2665 16.5578 38.3257C16.4979 38.3848 16.417 38.4177 16.3328 38.4172Z" fill="#004358"/>
<path d="M19.2333 38.4353L17.3586 38.4236C17.317 38.4233 17.2758 38.4149 17.2374 38.3987C17.199 38.3825 17.1641 38.3589 17.1348 38.3292C17.1055 38.2996 17.0824 38.2644 17.0667 38.2258C17.051 38.1872 17.043 38.1459 17.0433 38.1042C17.0435 38.0629 17.052 38.022 17.0683 37.984C17.0846 37.946 17.1083 37.9117 17.1381 37.883C17.1678 37.8543 17.203 37.8318 17.2415 37.8169C17.2801 37.802 17.3213 37.795 17.3626 37.7962L19.2372 37.808C19.3194 37.8085 19.398 37.8417 19.4558 37.9001C19.5136 37.9586 19.5457 38.0377 19.5452 38.1199C19.546 38.1612 19.5384 38.2023 19.523 38.2407C19.5077 38.279 19.4848 38.3139 19.4557 38.3433C19.4266 38.3727 19.392 38.396 19.3538 38.4118C19.3156 38.4276 19.2746 38.4356 19.2333 38.4353Z" fill="#004358"/>
<path d="M16.3256 39.5612L14.451 39.5494C14.3688 39.5489 14.2901 39.5158 14.2323 39.4573C14.1746 39.3988 14.1424 39.3197 14.1429 39.2375C14.1422 39.1962 14.1498 39.1551 14.1651 39.1167C14.1805 39.0784 14.2034 39.0435 14.2325 39.0141C14.2615 38.9847 14.2962 38.9614 14.3344 38.9456C14.3726 38.9298 14.4136 38.9218 14.4549 38.9221L16.3295 38.9338C16.3712 38.9341 16.4124 38.9426 16.4508 38.9587C16.4892 38.9749 16.5241 38.9985 16.5533 39.0282C16.5826 39.0578 16.6058 39.093 16.6215 39.1316C16.6372 39.1702 16.6451 39.2115 16.6449 39.2532C16.6446 39.2945 16.6361 39.3354 16.6198 39.3734C16.6036 39.4114 16.5799 39.4457 16.5501 39.4744C16.5204 39.5031 16.4852 39.5256 16.4466 39.5405C16.4081 39.5554 16.3669 39.5624 16.3256 39.5612Z" fill="#004358"/>
<path d="M19.2261 39.5793L17.3514 39.5675C17.3101 39.5683 17.2691 39.5607 17.2307 39.5453C17.1923 39.53 17.1574 39.5071 17.128 39.478C17.0986 39.4489 17.0754 39.4143 17.0596 39.3761C17.0438 39.3379 17.0358 39.2969 17.036 39.2556C17.0363 39.2139 17.0448 39.1727 17.061 39.1343C17.0771 39.0959 17.1007 39.061 17.1304 39.0317C17.16 39.0025 17.1952 38.9793 17.2338 38.9636C17.2724 38.9479 17.3137 38.9399 17.3554 38.9402L19.23 38.9519C19.2713 38.9522 19.3122 38.9607 19.3502 38.977C19.3882 38.9932 19.4225 39.017 19.4512 39.0467C19.4799 39.0765 19.5024 39.1116 19.5173 39.1502C19.5322 39.1888 19.5392 39.2299 19.538 39.2712C19.5375 39.3534 19.5043 39.4321 19.4458 39.4899C19.3873 39.5476 19.3083 39.5798 19.2261 39.5793Z" fill="#004358"/>
<path d="M16.3184 40.7125L14.4438 40.7008C14.3616 40.7003 14.2829 40.6671 14.2251 40.6086C14.1674 40.5501 14.1352 40.4711 14.1357 40.3889C14.135 40.3475 14.1426 40.3065 14.1579 40.2681C14.1733 40.2297 14.1962 40.1948 14.2253 40.1655C14.2543 40.1361 14.289 40.1128 14.3272 40.097C14.3654 40.0812 14.4064 40.0732 14.4477 40.0735L16.3223 40.0852C16.4065 40.0857 16.487 40.1197 16.5461 40.1796C16.6053 40.2394 16.6382 40.3204 16.6377 40.4045C16.6374 40.4459 16.6289 40.4867 16.6126 40.5247C16.5964 40.5627 16.5727 40.5971 16.5429 40.6258C16.5132 40.6545 16.478 40.6769 16.4394 40.6918C16.4008 40.7067 16.3597 40.7138 16.3184 40.7125Z" fill="#004358"/>
<path d="M19.2189 40.7306L17.3442 40.7189C17.3029 40.7196 17.2619 40.7121 17.2235 40.6967C17.1851 40.6813 17.1502 40.6584 17.1208 40.6294C17.0914 40.6003 17.0682 40.5656 17.0524 40.5274C17.0366 40.4892 17.0286 40.4483 17.0288 40.4069C17.0291 40.3653 17.0376 40.324 17.0538 40.2856C17.0699 40.2472 17.0935 40.2124 17.1232 40.1831C17.1528 40.1538 17.188 40.1307 17.2266 40.115C17.2652 40.0993 17.3065 40.0913 17.3482 40.0916L19.2228 40.1033C19.2641 40.1036 19.305 40.1121 19.343 40.1283C19.381 40.1446 19.4153 40.1683 19.444 40.1981C19.4727 40.2278 19.4952 40.263 19.5101 40.3016C19.525 40.3401 19.532 40.3813 19.5308 40.4226C19.5303 40.5048 19.4971 40.5835 19.4386 40.6412C19.3801 40.699 19.3011 40.7312 19.2189 40.7306Z" fill="#004358"/>
<path d="M27.6765 38.4882L29.5142 38.4997C29.5984 38.5002 29.6793 38.4673 29.7392 38.4081C29.7991 38.349 29.833 38.2685 29.8335 38.1843C29.8338 38.143 29.8258 38.102 29.81 38.0638C29.7942 38.0256 29.7709 37.991 29.7416 37.9619C29.7122 37.9328 29.6773 37.9099 29.6389 37.8946C29.6005 37.8792 29.5595 37.8716 29.5181 37.8724L27.6435 37.8606C27.5613 37.8601 27.4823 37.8923 27.4238 37.95C27.3653 38.0078 27.3321 38.0865 27.3316 38.1687C27.3299 38.2133 27.3379 38.2577 27.355 38.299C27.3721 38.3402 27.398 38.3773 27.4307 38.4076C27.4635 38.4379 27.5024 38.4609 27.5448 38.4748C27.5872 38.4887 27.6321 38.4933 27.6765 38.4882Z" fill="#004358"/>
<path d="M24.776 38.4699L26.658 38.4817C26.6993 38.482 26.7403 38.474 26.7785 38.4582C26.8167 38.4424 26.8513 38.4191 26.8804 38.3897C26.9094 38.3603 26.9323 38.3254 26.9477 38.287C26.9631 38.2487 26.9706 38.2076 26.9699 38.1663C26.9704 38.0841 26.9383 38.005 26.8805 37.9465C26.8227 37.888 26.7441 37.8549 26.6619 37.8544L24.7799 37.8426C24.6977 37.8421 24.6186 37.8742 24.5601 37.932C24.5016 37.9898 24.4685 38.0684 24.468 38.1506C24.4667 38.1919 24.4738 38.2331 24.4887 38.2717C24.5035 38.3102 24.526 38.3454 24.5547 38.3752C24.5834 38.4049 24.6178 38.4286 24.6558 38.4449C24.6938 38.4612 24.7346 38.4697 24.776 38.4699Z" fill="#004358"/>
<path d="M27.6693 39.6323L29.507 39.6438C29.5483 39.645 29.5895 39.638 29.628 39.6231C29.6666 39.6082 29.7018 39.5857 29.7315 39.557C29.7613 39.5283 29.785 39.494 29.8013 39.456C29.8175 39.418 29.826 39.3771 29.8263 39.3358C29.8266 39.2941 29.8186 39.2528 29.8029 39.2142C29.7872 39.1756 29.764 39.1404 29.7348 39.1108C29.7055 39.0811 29.6706 39.0575 29.6322 39.0413C29.5938 39.0252 29.5526 39.0167 29.5109 39.0164L27.6363 39.0047C27.595 39.0044 27.554 39.0124 27.5158 39.0282C27.4776 39.044 27.443 39.0673 27.4139 39.0967C27.3848 39.1261 27.3619 39.161 27.3466 39.1993C27.3312 39.2377 27.3236 39.2788 27.3243 39.3201C27.3238 39.3641 27.3326 39.4077 27.3501 39.4481C27.3677 39.4884 27.3937 39.5246 27.4263 39.5541C27.4589 39.5836 27.4975 39.6059 27.5394 39.6193C27.5813 39.6328 27.6256 39.6372 27.6693 39.6323Z" fill="#004358"/>
<path d="M24.7688 39.614L26.6508 39.6257C26.733 39.6263 26.812 39.5941 26.8705 39.5363C26.929 39.4786 26.9622 39.3999 26.9627 39.3177C26.9639 39.2764 26.9569 39.2352 26.942 39.1967C26.9271 39.1581 26.9046 39.1229 26.8759 39.0932C26.8472 39.0634 26.8129 39.0397 26.7749 39.0234C26.7369 39.0072 26.696 38.9987 26.6547 38.9984L24.7727 38.9866C24.7313 38.9864 24.6904 38.9944 24.6522 39.0102C24.614 39.026 24.5793 39.0492 24.5503 39.0786C24.5212 39.108 24.4983 39.1429 24.4829 39.1813C24.4675 39.2197 24.46 39.2607 24.4607 39.302C24.4602 39.3843 24.4924 39.4633 24.5501 39.5218C24.6079 39.5803 24.6865 39.6134 24.7688 39.614Z" fill="#004358"/>
<path d="M27.6621 40.7834L29.4998 40.7949C29.5411 40.7961 29.5823 40.7891 29.6208 40.7742C29.6594 40.7593 29.6946 40.7368 29.7243 40.7081C29.7541 40.6794 29.7778 40.6451 29.7941 40.6071C29.8103 40.5691 29.8188 40.5282 29.8191 40.4869C29.8196 40.4027 29.7867 40.3218 29.7276 40.2619C29.6684 40.202 29.5879 40.1681 29.5037 40.1675L27.6291 40.1558C27.5878 40.1555 27.5468 40.1635 27.5086 40.1793C27.4704 40.1951 27.4358 40.2184 27.4067 40.2478C27.3776 40.2772 27.3547 40.3121 27.3394 40.3505C27.324 40.3888 27.3164 40.4299 27.3171 40.4712C27.3166 40.5152 27.3254 40.5589 27.3429 40.5992C27.3605 40.6395 27.3865 40.6757 27.4191 40.7052C27.4517 40.7347 27.4903 40.757 27.5322 40.7705C27.5741 40.7839 27.6184 40.7883 27.6621 40.7834Z" fill="#004358"/>
<path d="M24.7616 40.7653L26.6436 40.7771C26.7258 40.7776 26.8048 40.7455 26.8633 40.6877C26.9218 40.6299 26.955 40.5513 26.9555 40.4691C26.9567 40.4278 26.9497 40.3866 26.9348 40.3481C26.9199 40.3095 26.8974 40.2743 26.8687 40.2445C26.84 40.2148 26.8057 40.1911 26.7677 40.1748C26.7297 40.1585 26.6888 40.15 26.6475 40.1498L24.7655 40.138C24.7241 40.1377 24.6832 40.1457 24.645 40.1615C24.6068 40.1773 24.5721 40.2006 24.5431 40.23C24.514 40.2594 24.4911 40.2943 24.4757 40.3327C24.4603 40.371 24.4528 40.4121 24.4535 40.4534C24.453 40.5356 24.4852 40.6147 24.5429 40.6732C24.6007 40.7317 24.6793 40.7648 24.7616 40.7653Z" fill="#004358"/>
<g style="mix-blend-mode:multiply" opacity="0.3">
<path d="M23.2966 46.0556C23.5226 46.2849 23.8008 46.4561 24.1074 46.5544C24.414 46.6527 24.7398 46.6753 25.057 46.6202L27.4846 49.0784L29.0962 47.4868L26.6686 45.0286C26.7334 44.6914 26.71 44.3432 26.6006 44.0177C26.4912 43.6923 26.2996 43.4006 26.0443 43.1709C25.789 42.9413 25.4787 42.7816 25.1435 42.7071C24.8083 42.6327 24.4596 42.6462 24.1311 42.7462C23.8026 42.8463 23.5056 43.0295 23.2688 43.2781C23.0319 43.5267 22.8634 43.8323 22.7794 44.1653C22.6955 44.4982 22.6989 44.8472 22.7896 45.1784C22.8802 45.5096 23.0548 45.8118 23.2966 46.0556Z" fill="#583200"/>
</g>
<path d="M28.2997 46.227C27.1624 46.2199 26.2348 47.136 26.2276 48.2732C26.2205 49.4105 27.1366 50.3381 28.2739 50.3453C29.4111 50.3524 30.3388 49.4363 30.3459 48.299C30.353 47.1618 29.4369 46.2341 28.2997 46.227Z" fill="#004358"/>
<path d="M28.2938 47.1569C27.6701 47.153 27.1614 47.6554 27.1575 48.279C27.1536 48.9027 27.656 49.4114 28.2796 49.4153C28.9033 49.4192 29.412 48.9168 29.4159 48.2932C29.4198 47.6695 28.9174 47.1608 28.2938 47.1569Z" fill="#668E9B"/>
<path d="M27.4002 33.0913L30.5221 33.1108L30.5266 32.3949L27.4047 32.3754L27.4002 33.0913Z" fill="#D60F0F"/>
<path d="M13.5398 33.0044L16.6617 33.0239L16.6662 32.308L13.5443 32.2885L13.5398 33.0044Z" fill="#D60F0F"/>
<path d="M31.7848 51.8803L32.4504 52.8587C32.488 52.9181 32.5439 52.9636 32.6096 52.9884C32.6753 53.0133 32.7473 53.0162 32.8148 52.9966C32.8823 52.9771 32.9417 52.9362 32.9839 52.8801C33.0262 52.8239 33.0491 52.7556 33.0493 52.6853L33.1207 41.2753L31.8513 41.2673L31.7848 51.8803Z" fill="#2CA3E8"/>
<path d="M11.9685 51.7562L11.2906 52.7631C11.2505 52.8203 11.1935 52.8634 11.1275 52.8863C11.0616 52.9092 10.9901 52.9108 10.9232 52.8908C10.8563 52.8707 10.7974 52.8301 10.755 52.7747C10.7125 52.7193 10.6885 52.6519 10.6865 52.5821L10.7582 41.1352L12.035 41.1432L11.9685 51.7562Z" fill="#2CA3E8"/>
<path d="M12.7287 51.761L11.7545 54.1167C11.7334 54.1661 11.7249 54.2201 11.7298 54.2736C11.7347 54.3272 11.7528 54.3787 11.7825 54.4235C11.8123 54.4683 11.8526 54.505 11.9001 54.5304C11.9475 54.5558 12.0005 54.5689 12.0542 54.5688L31.627 54.6913C31.6808 54.6921 31.7339 54.6796 31.7817 54.6549C31.8294 54.6301 31.8702 54.5939 31.9005 54.5494C31.9308 54.505 31.9496 54.4537 31.9551 54.4002C31.9607 54.3467 31.9529 54.2927 31.9324 54.243L30.9804 51.8752L12.7287 51.761Z" fill="#2CA3E8"/>
<path d="M11.8169 40.6031L12.0383 40.6045L12.054 38.1025L11.8326 38.1012L11.8169 40.6031Z" fill="#004358"/>
<path d="M11.1748 40.5992L11.3962 40.6006L11.4119 38.0986L11.1905 38.0973L11.1748 40.5992Z" fill="#004358"/>
<path d="M10.5401 40.595L10.7615 40.5964L10.7771 38.0945L10.5557 38.0931L10.5401 40.595Z" fill="#004358"/>
<path d="M31.8546 40.7286L32.076 40.73L32.0917 38.228L31.8703 38.2266L31.8546 40.7286Z" fill="#004358"/>
<path d="M32.4893 40.7325L32.7107 40.7339L32.7264 38.2319L32.5049 38.2306L32.4893 40.7325Z" fill="#004358"/>
<path d="M33.124 40.7364L33.3455 40.7378L33.3611 38.2358L33.1397 38.2345L33.124 40.7364Z" fill="#004358"/>
<path d="M14.4885 33.5566L29.4855 33.6504C29.6192 33.6588 29.7501 33.6935 29.8704 33.7525C29.9907 33.8116 30.0982 33.8938 30.1868 33.9944C30.2753 34.0951 30.343 34.2122 30.3862 34.3391C30.4293 34.4661 30.447 34.6002 30.4382 34.734C30.4506 35.0038 30.3562 35.2677 30.1753 35.4683C29.9944 35.6689 29.7417 35.7901 29.472 35.8055L14.475 35.7116C14.2069 35.691 13.9576 35.5659 13.7808 35.3632C13.604 35.1606 13.5138 34.8966 13.5297 34.6281C13.5152 34.359 13.608 34.0951 13.7877 33.8942C13.9674 33.6934 14.2194 33.572 14.4885 33.5566Z" fill="#2CA3E8"/>
<g style="mix-blend-mode:overlay">
<path d="M31.8207 46.1458L31.7848 51.8803L32.4504 52.8587C32.488 52.9181 32.5439 52.9636 32.6096 52.9884C32.6753 53.0133 32.7473 53.0162 32.8148 52.9966C32.8823 52.9771 32.9417 52.9362 32.9839 52.8801C33.0262 52.8239 33.0491 52.7556 33.0493 52.6853L33.0981 44.8843L31.8207 46.1458Z" fill="#2CA3E8"/>
</g>
<g style="mix-blend-mode:overlay">
<path d="M10.7252 46.3974L10.6865 52.5821C10.6885 52.6519 10.7125 52.7193 10.755 52.7747C10.7974 52.8301 10.8563 52.8707 10.9232 52.8908C10.9901 52.9108 11.0616 52.9092 11.1275 52.8863C11.1935 52.8634 11.2505 52.8203 11.2906 52.7631L11.9685 51.7562L12.0101 45.1138L10.7252 46.3974Z" fill="#2CA3E8"/>
</g>
<g style="mix-blend-mode:overlay">
<path d="M31.0173 51.8754L26.0503 51.8443L23.2208 54.6387L31.627 54.6913C31.6808 54.6921 31.7339 54.6796 31.7817 54.6549C31.8294 54.6301 31.8702 54.5939 31.9005 54.5494C31.9308 54.505 31.9496 54.4537 31.9551 54.4002C31.9607 54.3467 31.9529 54.2927 31.9324 54.243L31.0173 51.8754Z" fill="#2CA3E8"/>
</g>
<g style="mix-blend-mode:overlay">
<path d="M12.0542 54.5689L15.0433 54.5876L17.8728 51.7933L12.7066 51.7609L11.7323 54.1166C11.7103 54.1679 11.7018 54.2239 11.7077 54.2794C11.7136 54.3349 11.7337 54.3879 11.7661 54.4333C11.7984 54.4788 11.8419 54.5151 11.8924 54.5388C11.9429 54.5626 11.9986 54.5729 12.0542 54.5689Z" fill="#2CA3E8"/>
</g>
<g style="mix-blend-mode:overlay">
<path d="M21.5232 35.7704L29.4718 35.8202C29.7361 35.7909 29.9804 35.6656 30.1583 35.468C30.3363 35.2705 30.4355 35.0145 30.4372 34.7486C30.4388 34.4828 30.3428 34.2256 30.1673 34.0258C29.9919 33.8261 29.7492 33.6977 29.4853 33.6651L23.6917 33.6288C22.9639 34.3476 22.2434 35.0811 21.5232 35.7704Z" fill="#2CA3E8"/>
</g>
<g style="mix-blend-mode:overlay">
<path d="M15.5217 33.5631L14.5032 33.5567C14.2342 33.5721 13.9822 33.6935 13.8024 33.8944C13.6227 34.0952 13.5299 34.3591 13.5444 34.6283C13.5412 34.8714 13.6146 35.1094 13.7542 35.3086C14.3334 34.7439 14.9202 34.1571 15.5217 33.5631Z" fill="#2CA3E8"/>
</g>
<path d="M28.8445 61.9254L28.9357 60.9258L27.9361 60.8347L27.8449 61.8343L28.8445 61.9254Z" fill="#004358"/>
<path d="M29.0174 60.0001L29.1085 59.0005L28.1089 58.9094L28.0178 59.909L29.0174 60.0001Z" fill="#004358"/>
<path d="M14.872 61.8379L15.8727 61.7593L15.7941 60.7586L14.7934 60.8372L14.872 61.8379Z" fill="#004358"/>
<path d="M14.7217 59.9162L15.7224 59.8376L15.6438 58.837L14.6431 58.9156L14.7217 59.9162Z" fill="#004358"/>
<path d="M26.7272 76.9428C26.7298 76.5278 26.8971 76.1309 27.1924 75.8393C27.4876 75.5477 27.8866 75.3854 28.3016 75.388C28.7166 75.3906 29.1135 75.5579 29.4051 75.8532C29.6967 76.1484 29.859 76.5474 29.8564 76.9624L26.7272 76.9428Z" fill="#FFE11A"/>
<path d="M27.4725 76.9476C27.4744 76.7939 27.507 76.6421 27.5685 76.5012C27.63 76.3603 27.719 76.2331 27.8305 76.1272C27.9419 76.0213 28.0734 75.9387 28.2172 75.8844C28.361 75.8301 28.5143 75.8052 28.6679 75.8111C28.9496 75.8009 29.225 75.8956 29.4407 76.077C29.6564 76.2584 29.797 76.5134 29.8353 76.7927C29.7991 76.3926 29.6096 76.022 29.3066 75.7583C29.0036 75.4946 28.6104 75.3582 28.2091 75.3776C27.8079 75.397 27.4297 75.5707 27.1535 75.8624C26.8773 76.1541 26.7246 76.5413 26.7271 76.943L27.4725 76.9476Z" fill="#FFBA1A"/>
<path d="M27.0593 76.9452C27.0572 77.2774 27.5943 77.5464 28.2586 77.5506C28.9228 77.5547 29.4632 77.2924 29.4653 76.9603L27.0593 76.9452Z" fill="#FFF4B3"/>
<path d="M13.6786 76.8613C13.6652 76.6472 13.696 76.4326 13.769 76.2309C13.8421 76.0292 13.9558 75.8447 14.1032 75.6888C14.2506 75.5329 14.4284 75.409 14.6257 75.3247C14.823 75.2405 15.0355 75.1977 15.25 75.199C15.4645 75.2004 15.6765 75.2458 15.8727 75.3325C16.0689 75.4192 16.2452 75.5454 16.3906 75.7031C16.536 75.8608 16.6474 76.0468 16.718 76.2494C16.7885 76.452 16.8166 76.6669 16.8005 76.8808L13.6786 76.8613Z" fill="#FFE11A"/>
<path d="M14.4167 76.866C14.4315 76.5733 14.5534 76.2962 14.7592 76.0874C14.965 75.8786 15.2403 75.7527 15.5328 75.7335C15.8253 75.7144 16.1147 75.8034 16.3459 75.9837C16.5771 76.1639 16.734 76.4228 16.7868 76.7111C16.7506 76.3111 16.5612 75.9405 16.2581 75.6768C15.9551 75.4131 15.5619 75.2767 15.1607 75.2961C14.7594 75.3155 14.3812 75.4892 14.1051 75.7809C13.8289 76.0726 13.6761 76.4597 13.6786 76.8614L14.4167 76.866Z" fill="#FFBA1A"/>
<path d="M14.0403 76.8637C14.0382 77.1959 14.5679 77.4649 15.2322 77.469C15.8964 77.4732 16.4368 77.2109 16.4389 76.8788L14.0403 76.8637Z" fill="#FFF4B3"/>
<path d="M17.3393 47.4279C16.9928 47.4258 16.7102 47.7049 16.708 48.0513C16.7058 48.3978 16.9849 48.6804 17.3314 48.6826C17.6779 48.6848 17.9605 48.4057 17.9627 48.0592C17.9648 47.7127 17.6857 47.4301 17.3393 47.4279Z" fill="#004358"/>
<path d="M17.3619 43.8042C17.4863 43.8049 17.6076 43.8427 17.7105 43.9126C17.8134 43.9825 17.8932 44.0814 17.9397 44.1968C17.9862 44.3121 17.9974 44.4387 17.9719 44.5605C17.9463 44.6822 17.8851 44.7936 17.7961 44.8804C17.7071 44.9673 17.5942 45.0258 17.4719 45.0484C17.3496 45.071 17.2233 45.0567 17.1091 45.0074C16.9949 44.9581 16.898 44.8759 16.8306 44.7713C16.7632 44.6668 16.7284 44.5445 16.7307 44.4202C16.7336 44.2551 16.8016 44.0978 16.9198 43.9825C17.0379 43.8672 17.1968 43.8031 17.3619 43.8042Z" fill="#004358"/>
</g>
<defs>
<filter id="filter0_d_30_5808" x="0.225098" y="0.11084" width="49.5242" height="84.4399" filterUnits="userSpaceOnUse" color-interpolation-filters="sRGB">
<feFlood flood-opacity="0" result="BackgroundImageFix"/>
<feColorMatrix in="SourceAlpha" type="matrix" values="0 0 0 0 0 0 0 0 0 0 0 0 0 0 0 0 0 0 127 0" result="hardAlpha"/>
<feOffset dx="3" dy="3"/>
<feGaussianBlur stdDeviation="2"/>
<feComposite in2="hardAlpha" operator="out"/>
<feColorMatrix type="matrix" values="0 0 0 0 0 0 0 0 0 0 0 0 0 0 0 0 0 0 0.25 0"/>
<feBlend mode="normal" in2="BackgroundImageFix" result="effect1_dropShadow_30_5808"/>
<feBlend mode="normal" in="SourceGraphic" in2="effect1_dropShadow_30_5808" result="shape"/>
</filter>
</defs>
</svg>
