<svg width="51" height="85" viewBox="0 0 51 85" fill="none" xmlns="http://www.w3.org/2000/svg">
<g filter="url(#filter0_d_30_5337)">
<path d="M31.4493 48.7455C34.8277 49.3791 38.2925 49.4008 41.6785 48.8095C41.8842 48.7697 42.0738 48.6708 42.2241 48.5249C42.3745 48.3791 42.4791 48.1925 42.5251 47.9882C43.4939 43.7852 43.5212 39.4201 42.6051 35.2053C42.5583 34.9982 42.4523 34.8093 42.2998 34.6615C42.1474 34.5137 41.9552 34.4136 41.7467 34.3733C38.3666 33.7323 34.8981 33.7106 31.5102 34.3092C31.2999 34.3456 31.1049 34.4427 30.9492 34.5887C30.7935 34.7346 30.6839 34.9229 30.6341 35.1304C29.6593 39.3376 29.632 43.7089 30.554 47.928C30.6021 48.1393 30.7136 48.3308 30.8736 48.4769C31.0337 48.623 31.2345 48.7167 31.4493 48.7455Z" fill="#D6D6D6"/>
<path d="M13.5076 48.6333C10.1215 49.2246 6.65676 49.2029 3.27836 48.5692C3.06875 48.5317 2.87511 48.4325 2.7222 48.2843C2.5693 48.136 2.46409 47.9456 2.42003 47.7372C1.49803 43.5181 1.52539 39.1469 2.50014 34.9397C2.55 34.7322 2.65953 34.5438 2.81522 34.3979C2.97091 34.252 3.16593 34.1548 3.3762 34.1185C6.76412 33.5198 10.2326 33.5415 13.6128 34.1826C13.8218 34.2252 14.0138 34.3281 14.165 34.4786C14.3162 34.6291 14.42 34.8205 14.4636 35.0293C15.382 39.2488 15.3546 43.6192 14.3835 47.8269C14.3329 48.0325 14.2228 48.2186 14.067 48.362C13.9113 48.5055 13.7167 48.5998 13.5076 48.6333Z" fill="#D6D6D6"/>
<path d="M31.3572 54.0222C32.9846 54.735 34.7402 55.1084 36.5168 55.1195C38.2934 55.1306 40.0536 54.7793 41.6898 54.0869L41.8462 29.0895C40.2218 28.366 38.465 27.9867 36.6868 27.9755C34.9085 27.9644 33.1471 28.3217 31.5137 29.0248L31.3572 54.0222Z" fill="#004358"/>
<path d="M37.0753 51.9766C38.541 52.3824 40.0636 52.5441 41.5819 52.4551C41.6495 52.4491 41.7176 52.4577 41.7815 52.4803C41.8455 52.503 41.9039 52.5392 41.9526 52.5864C42.0013 52.6336 42.0393 52.6908 42.0639 52.754C42.0886 52.8173 42.0993 52.8851 42.0954 52.9528L42.0901 53.7942C42.089 53.9432 42.0366 54.0872 41.9418 54.2022C41.847 54.3172 41.7156 54.3961 41.5695 54.4256C40.0603 54.6134 38.5289 54.5035 37.062 54.1022C36.9035 54.052 36.7647 53.9536 36.6649 53.8206C36.5652 53.6876 36.5095 53.5268 36.5057 53.3607L36.5115 52.4307C36.5032 52.3589 36.5133 52.2862 36.5407 52.2193C36.5681 52.1525 36.612 52.0936 36.6682 52.0483C36.7245 52.003 36.7914 51.9726 36.8625 51.9601C36.9337 51.9476 37.0069 51.9533 37.0753 51.9766Z" fill="#0E6B87"/>
<path d="M35.9663 49.9251C34.4958 50.3248 32.9769 50.5189 31.4531 50.5021C31.3847 50.5016 31.3168 50.5148 31.2534 50.5408C31.1901 50.5669 31.1326 50.6052 31.0842 50.6537C31.0358 50.7021 30.9976 50.7597 30.9717 50.8231C30.9457 50.8865 30.9327 50.9544 30.9332 51.0228L30.9278 51.8863C30.9256 52.0318 30.9764 52.173 31.0708 52.2837C31.1652 52.3943 31.2967 52.4667 31.4407 52.4874C32.9574 52.602 34.4825 52.4619 35.9529 52.0728C36.1103 52.0218 36.2486 51.9243 36.3495 51.7932C36.4505 51.6621 36.5094 51.5035 36.5184 51.3383L36.5242 50.4157C36.5393 50.3418 36.5345 50.2653 36.5105 50.1938C36.4865 50.1224 36.4441 50.0585 36.3874 50.0087C36.3308 49.9589 36.2621 49.925 36.1881 49.9103C36.1142 49.8956 36.0377 49.9007 35.9663 49.9251Z" fill="#0E6B87"/>
<path d="M37.1011 47.8656C38.5719 48.2771 40.0817 48.5339 41.6059 48.6319C41.7474 48.6422 41.8796 48.7065 41.9751 48.8115C42.0705 48.9165 42.1221 49.0541 42.119 49.196L42.1135 50.0669C42.1167 50.2093 42.0641 50.3474 41.9669 50.4515C41.8697 50.5557 41.7357 50.6178 41.5934 50.6246C40.0701 50.6209 38.5543 50.4103 37.0877 49.9985C36.9309 49.9456 36.7939 49.8464 36.6946 49.714C36.5953 49.5816 36.5384 49.4223 36.5314 49.257L36.5374 48.3049C36.5318 48.2343 36.5438 48.1634 36.5724 48.0986C36.6009 48.0338 36.6451 47.9771 36.701 47.9335C36.7568 47.89 36.8226 47.861 36.8925 47.8491C36.9623 47.8373 37.034 47.8429 37.1011 47.8656Z" fill="#0E6B87"/>
<path d="M35.9919 45.829C34.5087 46.2477 32.9937 46.5443 31.462 46.7159C31.3191 46.7376 31.1884 46.8093 31.0932 46.9181C30.9979 47.0269 30.9443 47.1659 30.9417 47.3105L30.9364 48.1518C30.9329 48.2212 30.9437 48.2905 30.968 48.3555C30.9923 48.4205 31.0296 48.4799 31.0777 48.5299C31.1257 48.58 31.1835 48.6197 31.2475 48.6466C31.3115 48.6735 31.3803 48.6871 31.4497 48.6865C32.9758 48.6159 34.4896 48.3779 35.9637 47.9767C36.1211 47.9257 36.2594 47.8282 36.3604 47.6971C36.4613 47.566 36.5202 47.4073 36.5293 47.2421L36.5355 46.2384C36.5351 46.1726 36.5195 46.1077 36.4899 46.0489C36.4603 45.9901 36.4176 45.9389 36.365 45.8993C36.3124 45.8597 36.2514 45.8327 36.1867 45.8205C36.122 45.8084 36.0553 45.8113 35.9919 45.829Z" fill="#0E6B87"/>
<path d="M37.1268 43.7547C38.6592 44.1998 40.1919 44.5932 41.6295 44.8605C41.7733 44.8928 41.9021 44.9726 41.9951 45.087C42.0881 45.2013 42.1399 45.3437 42.1422 45.4911L42.1369 46.3398C42.1399 46.4076 42.1284 46.4753 42.1029 46.5382C42.0775 46.6011 42.0388 46.6578 41.9895 46.7044C41.9402 46.751 41.8814 46.7865 41.8171 46.8083C41.7529 46.8302 41.6847 46.8379 41.6172 46.831C40.0941 46.6317 38.5885 46.3163 37.1135 45.8876C36.9573 45.8338 36.8208 45.7344 36.7216 45.6022C36.6224 45.47 36.5652 45.3111 36.5572 45.1461L36.563 44.2162C36.5511 44.1433 36.5586 44.0686 36.5847 43.9995C36.6108 43.9305 36.6546 43.8695 36.7117 43.8227C36.7689 43.776 36.8373 43.7451 36.9102 43.7331C36.983 43.7212 37.0578 43.7286 37.1268 43.7547Z" fill="#0E6B87"/>
<path d="M36.0176 41.7182C34.4798 42.1514 32.9493 42.5773 31.5005 42.9225C31.3567 42.9665 31.2298 43.0534 31.1367 43.1715C31.0436 43.2896 30.9889 43.4334 30.9797 43.5835L30.9745 44.4249C30.9695 44.4914 30.9798 44.5581 31.0047 44.62C31.0295 44.6819 31.0683 44.7372 31.1179 44.7817C31.1676 44.8262 31.2268 44.8588 31.291 44.8768C31.3552 44.8948 31.4227 44.8979 31.4882 44.8857C33.0104 44.6187 34.5177 44.2734 36.0043 43.8511C36.1612 43.7992 36.2989 43.7015 36.3997 43.5706C36.5005 43.4397 36.5598 43.2815 36.5698 43.1166L36.5756 42.1867C36.5885 42.114 36.5819 42.0392 36.5567 41.9698C36.5315 41.9004 36.4884 41.8389 36.4319 41.7914C36.3753 41.7439 36.3073 41.7122 36.2346 41.6993C36.1619 41.6865 36.087 41.693 36.0176 41.7182Z" fill="#0E6B87"/>
<path d="M37.1526 39.644C38.6848 40.1112 40.2169 40.6079 41.6533 41.0598C41.8085 41.1095 41.9429 41.2091 42.0355 41.3432C42.1282 41.4773 42.1738 41.6383 42.1653 41.8011L42.1604 42.5834C42.1662 42.6493 42.1558 42.7156 42.1301 42.7765C42.1044 42.8374 42.0643 42.8912 42.0131 42.9331C41.9619 42.9749 41.9012 43.0037 41.8364 43.0168C41.7716 43.0299 41.7045 43.0269 41.6411 43.0082C40.1672 42.6521 38.6939 42.2074 37.1394 41.7548C36.9831 41.701 36.8466 41.6015 36.7475 41.4694C36.6483 41.3372 36.5911 41.1783 36.5831 41.0133L36.5889 40.0834C36.5813 40.0122 36.592 39.9403 36.62 39.8745C36.6479 39.8086 36.6922 39.751 36.7486 39.707C36.805 39.663 36.8718 39.6342 36.9424 39.6231C37.0131 39.6121 37.0854 39.6193 37.1526 39.644Z" fill="#0E6B87"/>
<path d="M36.0433 37.6146C34.4684 38.0624 32.989 38.5919 31.5095 39.1214C31.3619 39.1819 31.2346 39.2831 31.1423 39.4132C31.05 39.5433 30.9966 39.6969 30.9883 39.8562L30.983 40.6976C30.9773 40.762 30.9879 40.8267 31.0139 40.8859C31.0399 40.9451 31.0804 40.9968 31.1317 41.0361C31.183 41.0754 31.2434 41.1012 31.3073 41.1109C31.3712 41.1207 31.4365 41.1142 31.4972 41.092C32.976 40.6584 34.4551 40.1879 36.0152 39.7401C36.1721 39.6882 36.3099 39.5905 36.4107 39.4595C36.5115 39.3286 36.5707 39.1705 36.5808 39.0055L36.5866 38.0756C36.5967 38.0051 36.5888 37.9333 36.5636 37.8667C36.5384 37.8001 36.4967 37.741 36.4424 37.6949C36.3881 37.6489 36.323 37.6173 36.2532 37.6033C36.1834 37.5892 36.1112 37.5931 36.0433 37.6146Z" fill="#0E6B87"/>
<path d="M37.1782 35.5406C38.7086 36.0294 40.2105 36.603 41.6771 37.2589C41.8187 37.3284 41.9401 37.433 42.0297 37.5628C42.1193 37.6926 42.1742 37.8432 42.1891 38.0002L42.1835 38.8932C42.1905 38.9573 42.1799 39.022 42.1528 39.0805C42.1257 39.1389 42.0832 39.1889 42.0298 39.225C41.9765 39.2611 41.9142 39.282 41.8499 39.2854C41.7856 39.2888 41.7215 39.2745 41.6646 39.2442C40.1919 38.7036 38.7192 38.1556 37.1648 37.6809C37.0097 37.6253 36.8742 37.5254 36.7754 37.3936C36.6765 37.2618 36.6185 37.1038 36.6085 36.9393L36.6144 36.0094C36.5983 35.9355 36.6028 35.8586 36.6275 35.7871C36.6521 35.7156 36.6959 35.6522 36.754 35.6039C36.8122 35.5555 36.8825 35.524 36.9573 35.5129C37.0321 35.5017 37.1085 35.5113 37.1782 35.5406Z" fill="#0E6B87"/>
<path d="M36.0691 33.5037C34.5162 33.9882 33.0044 34.5958 31.5481 35.3206C31.4008 35.4014 31.276 35.5177 31.1849 35.6589C31.0938 35.8 31.0393 35.9617 31.0264 36.1292L31.0211 36.9706C31.0193 37.2658 31.2472 37.4074 31.5358 37.2912C33.0122 36.6581 34.5209 36.1034 36.0558 35.6293C36.2116 35.5757 36.3483 35.4775 36.4488 35.3469C36.5494 35.2163 36.6093 35.0591 36.6213 34.8947L36.6271 33.9648C36.6408 33.8922 36.6348 33.8172 36.6097 33.7476C36.5846 33.6781 36.5413 33.6166 36.4843 33.5695C36.4273 33.5224 36.3587 33.4914 36.2857 33.4799C36.2126 33.4683 36.1378 33.4765 36.0691 33.5037Z" fill="#0E6B87"/>
<path d="M37.2039 31.4295C38.7667 31.954 40.2732 32.6334 41.7008 33.4578C41.8473 33.5493 41.97 33.6742 42.0589 33.8223C42.1478 33.9704 42.2003 34.1375 42.2121 34.3098L42.2068 35.1512C42.205 35.4464 41.9754 35.5704 41.6884 35.4284C40.239 34.6903 38.7354 34.0641 37.1906 33.555C37.0359 33.4987 36.901 33.3986 36.8023 33.2669C36.7035 33.1353 36.6451 32.9777 36.6343 32.8135L36.6401 31.8836C36.6273 31.8108 36.6343 31.7358 36.6602 31.6666C36.6862 31.5974 36.7303 31.5364 36.7879 31.4901C36.8455 31.4437 36.9145 31.4136 36.9876 31.4029C37.0608 31.3923 37.1355 31.4015 37.2039 31.4295Z" fill="#0E6B87"/>
<path d="M36.0948 29.3929C34.5016 29.9151 32.9778 30.6293 31.5571 31.5196C31.411 31.618 31.2884 31.7475 31.1982 31.8988C31.1079 32.05 31.0522 32.2194 31.035 32.3947L31.0297 33.236C31.0278 33.5386 31.2559 33.6508 31.5448 33.4902C32.9819 32.6844 34.4969 32.0262 36.0667 31.5257C36.221 31.4697 36.3562 31.3709 36.4564 31.2408C36.5565 31.1107 36.6175 30.9547 36.6322 30.7912L36.638 29.8613C36.6519 29.7898 36.6466 29.716 36.6227 29.6472C36.5989 29.5784 36.5573 29.5172 36.5021 29.4696C36.447 29.4221 36.3803 29.39 36.3088 29.3765C36.2373 29.363 36.1634 29.3687 36.0948 29.3929Z" fill="#0E6B87"/>
<path d="M41.7246 29.657C40.8391 29.0352 39.9045 28.4863 38.9302 28.0158C38.1838 27.8725 37.4257 27.7986 36.6657 27.795L36.6602 28.6732C36.6728 28.8369 36.7319 28.9936 36.8304 29.125C36.9289 29.2563 37.0629 29.3568 37.2165 29.4148C38.7971 29.9569 40.3066 30.6875 41.7125 31.5907C41.9992 31.7696 42.2285 31.6825 42.2304 31.3873L42.2357 30.5385C42.2139 30.3649 42.1574 30.1973 42.0696 30.0459C41.9818 29.8945 41.8645 29.7622 41.7246 29.657Z" fill="#0E6B87"/>
<path d="M31.0707 29.0589L31.0678 29.5091C31.0659 29.8117 31.2943 29.8869 31.5833 29.6895C32.5821 29.0045 33.6435 28.4155 34.7533 27.9306C33.4754 28.1167 32.2335 28.4972 31.0707 29.0589Z" fill="#0E6B87"/>
<path d="M36.3519 55.5296C36.4429 55.4056 36.4928 55.2563 36.4948 55.1024L36.5006 54.1725C36.5065 54.1019 36.4951 54.0309 36.4674 53.9657C36.4396 53.9005 36.3964 53.843 36.3414 53.7983C36.2864 53.7536 36.2213 53.723 36.1518 53.7091C36.0823 53.6953 36.0104 53.6986 35.9425 53.7188C34.4713 54.1038 32.9401 54.2045 31.4311 54.0153C31.3424 53.9996 31.251 54.0123 31.1699 54.0515C31.0888 54.0908 31.0222 54.1546 30.9795 54.2339C32.6537 55.0542 34.4878 55.4965 36.3519 55.5296Z" fill="#0E6B87"/>
<g style="mix-blend-mode:multiply" opacity="0.5">
<path d="M41.663 52.4702L41.6677 51.7322C38.1705 52.9054 34.374 52.8242 30.9302 51.5026L30.9279 51.8716C30.9287 52.0025 30.9719 52.1297 31.0511 52.234C31.1303 52.3383 31.2412 52.4141 31.3671 52.45L31.3574 53.9999C31.2807 53.9999 31.2054 54.0202 31.1391 54.0587C31.0728 54.0971 31.0178 54.1524 30.9796 54.219C32.6539 55.0393 34.4879 55.4816 36.352 55.5147C36.4384 55.3911 36.488 55.2455 36.4949 55.0949C37.8443 55.1024 39.187 54.9042 40.4768 54.5072C40.8427 54.4974 41.2077 54.4652 41.5697 54.4107C41.7158 54.3812 41.8472 54.3023 41.942 54.1873C42.0368 54.0723 42.0891 53.9282 42.0903 53.7792L42.0957 52.9157C42.0912 52.8012 42.0445 52.6924 41.9647 52.6101C41.8848 52.5279 41.7774 52.4781 41.663 52.4702Z" fill="#003242"/>
</g>
<g style="mix-blend-mode:multiply" opacity="0.5">
<path d="M31.4855 33.5194L31.4837 33.8146C34.9843 32.9143 38.6628 32.9731 42.1329 33.9846C42.058 33.8012 41.9369 33.6403 41.7816 33.5174L41.7932 31.6576C42.036 31.7772 42.2287 31.6603 42.2301 31.4241L42.2355 30.5754C42.2042 30.2497 42.0504 29.948 41.8053 29.7313L41.8093 29.0892C41.085 28.7705 40.3331 28.5187 39.5629 28.3371C39.3495 28.2324 39.1436 28.1204 38.9301 28.0231C38.1837 27.8798 37.4257 27.8059 36.6656 27.8023L36.6644 27.9942C35.807 27.9875 34.9511 28.0662 34.1093 28.2291L34.7532 27.9379C33.4703 28.1226 32.2233 28.5031 31.0558 29.0662L31.053 29.5164C31.0513 29.7894 31.2427 29.8644 31.4945 29.7332L31.4829 31.5856C31.3573 31.6831 31.2529 31.8051 31.1759 31.9442C31.0989 32.0833 31.0509 32.2365 31.035 32.3947L31.0297 33.2361C31.0428 33.5092 31.234 33.6138 31.4855 33.5194Z" fill="#003242"/>
</g>
<path d="M3.16423 53.8455C4.78648 54.5531 6.53561 54.9237 8.30544 54.9348C10.0753 54.9459 11.8289 54.5972 13.4599 53.91L13.6163 28.9126C11.9969 28.1944 10.2468 27.8179 8.47525 27.8068C6.70374 27.7957 4.94898 28.1502 3.32071 28.8482L3.16423 53.8455Z" fill="#004358"/>
<path d="M7.76787 51.7931C6.29709 52.1801 4.77268 52.3226 3.25564 52.2151C3.1878 52.2083 3.11929 52.2161 3.0547 52.2379C2.9901 52.2597 2.93088 52.295 2.88101 52.3415C2.83113 52.388 2.79174 52.4445 2.76544 52.5074C2.73915 52.5703 2.72657 52.6381 2.72853 52.7063L2.72327 53.5476C2.72291 53.6977 2.77452 53.8432 2.86932 53.9595C2.96412 54.0758 3.09627 54.1557 3.24331 54.1856C4.75007 54.392 6.28267 54.3013 7.75457 53.9186C7.91286 53.8702 8.05191 53.7731 8.15206 53.6413C8.25222 53.5095 8.30842 53.3496 8.31272 53.1841L8.31854 52.2541C8.32719 52.1833 8.31798 52.1114 8.29176 52.045C8.26554 51.9786 8.22314 51.9199 8.16842 51.8741C8.1137 51.8282 8.04839 51.7968 7.97844 51.7827C7.90848 51.7685 7.8361 51.7721 7.76787 51.7931Z" fill="#0E6B87"/>
<path d="M8.89505 49.7556C10.3607 50.1728 11.8768 50.3859 13.4007 50.3891C13.4698 50.3885 13.5383 50.4018 13.6021 50.4282C13.666 50.4546 13.7239 50.4935 13.7725 50.5427C13.821 50.5918 13.8592 50.6502 13.8848 50.7144C13.9104 50.7786 13.9228 50.8473 13.9214 50.9163L13.916 51.7798C13.9162 51.9264 13.8626 52.0679 13.7653 52.1775C13.668 52.2872 13.5338 52.3572 13.3882 52.3744C11.8703 52.4693 10.3471 52.3101 8.8816 51.9033C8.72484 51.8504 8.58778 51.7512 8.48848 51.6188C8.38918 51.4864 8.3323 51.3271 8.32532 51.1618L8.33109 50.2392C8.31695 50.1652 8.32262 50.0887 8.34753 50.0175C8.37243 49.9464 8.41569 49.8831 8.47292 49.834C8.53015 49.7849 8.59933 49.7518 8.67345 49.7381C8.74758 49.7243 8.82402 49.7304 8.89505 49.7556Z" fill="#0E6B87"/>
<path d="M7.79361 47.6822C6.31761 48.0747 4.80479 48.3125 3.27957 48.392C3.13661 48.3987 3.00181 48.4605 2.90346 48.5645C2.8051 48.6685 2.75083 48.8065 2.75205 48.9496L2.7466 49.8205C2.7417 49.9641 2.79359 50.1038 2.89102 50.2095C2.98845 50.3151 3.12357 50.378 3.2671 50.3847C4.79031 50.3996 6.30852 50.208 7.78026 49.8151C7.93685 49.7638 8.07411 49.666 8.1738 49.5348C8.2735 49.4036 8.33091 49.2451 8.3384 49.0805L8.34436 48.1285C8.35227 48.0583 8.34237 47.9872 8.3156 47.9219C8.28883 47.8565 8.24603 47.799 8.19117 47.7545C8.1363 47.7101 8.07112 47.6801 8.00164 47.6675C7.93216 47.6548 7.86062 47.6599 7.79361 47.6822Z" fill="#0E6B87"/>
<path d="M8.92067 45.6597C10.3941 46.0946 11.9002 46.4101 13.4244 46.6031C13.5684 46.625 13.6999 46.6976 13.7952 46.8078C13.8906 46.9179 13.9436 47.0585 13.9446 47.2042L13.9394 48.0455C13.942 48.1155 13.9302 48.1853 13.9046 48.2505C13.879 48.3157 13.8403 48.375 13.7908 48.4246C13.7413 48.4741 13.6822 48.5129 13.617 48.5386C13.5518 48.5642 13.482 48.5762 13.412 48.5736C11.887 48.4828 10.3765 48.2259 8.90723 47.8074C8.75046 47.7544 8.6134 47.6552 8.5141 47.5228C8.41481 47.3905 8.35793 47.2311 8.35094 47.0658L8.35722 46.0621C8.3578 45.9946 8.37435 45.9281 8.4055 45.8682C8.43666 45.8083 8.48154 45.7567 8.53649 45.7174C8.59143 45.6782 8.65488 45.6525 8.72165 45.6425C8.78842 45.6324 8.85662 45.6383 8.92067 45.6597Z" fill="#0E6B87"/>
<path d="M7.81922 43.5713C6.27399 43.9971 4.74385 44.3713 3.30306 44.6206C3.15749 44.6497 3.02606 44.7272 2.93019 44.8405C2.83432 44.9539 2.77966 45.0963 2.77512 45.2447L2.76981 46.0934C2.76699 46.1615 2.77872 46.2295 2.80422 46.2927C2.82973 46.3559 2.86841 46.413 2.9177 46.4601C2.96699 46.5072 3.02576 46.5433 3.09008 46.5659C3.1544 46.5885 3.2228 46.5971 3.29072 46.5912C4.81604 46.4102 6.32542 46.1137 7.80587 45.7043C7.96191 45.652 8.09862 45.554 8.19817 45.423C8.29773 45.292 8.35552 45.134 8.36401 44.9697L8.36984 44.0398C8.38201 43.9679 8.3753 43.8941 8.35038 43.8256C8.32545 43.7571 8.28317 43.6963 8.22765 43.6491C8.17214 43.6018 8.10531 43.5698 8.03371 43.5562C7.96211 43.5426 7.8882 43.5478 7.81922 43.5713Z" fill="#0E6B87"/>
<path d="M8.94643 41.5488C10.4862 42.0013 12.0112 42.4463 13.4481 42.8096C13.5928 42.8541 13.7202 42.9421 13.8132 43.0615C13.9062 43.1809 13.9602 43.326 13.968 43.4771L13.9627 44.3185C13.9672 44.3858 13.9559 44.4532 13.9299 44.5154C13.9038 44.5776 13.8637 44.633 13.8126 44.677C13.7615 44.7211 13.7009 44.7526 13.6355 44.7693C13.5701 44.7859 13.5018 44.7871 13.4358 44.7728C11.9175 44.4851 10.4147 44.121 8.93308 43.6818C8.77686 43.6279 8.64036 43.5285 8.5412 43.3963C8.44205 43.2641 8.38478 43.1053 8.3768 42.9402L8.38262 42.0103C8.3707 41.9374 8.37817 41.8627 8.40428 41.7936C8.43039 41.7246 8.4742 41.6636 8.53134 41.6168C8.58848 41.5701 8.65692 41.5392 8.72979 41.5272C8.80265 41.5153 8.87736 41.5227 8.94643 41.5488Z" fill="#0E6B87"/>
<path d="M7.84498 39.4606C6.29961 39.9085 4.76882 40.3861 3.32688 40.8199C3.16969 40.8663 3.03242 40.9637 2.93671 41.0967C2.84099 41.2298 2.79227 41.3909 2.79824 41.5546L2.79335 42.337C2.78809 42.4031 2.79884 42.4696 2.82469 42.5307C2.85055 42.5918 2.89074 42.6459 2.94188 42.6882C2.99302 42.7305 3.05359 42.7598 3.11848 42.7738C3.18337 42.7877 3.25067 42.7859 3.31468 42.7683C4.75603 42.4304 6.27173 42.0045 7.83176 41.5714C7.98781 41.5192 8.12451 41.4212 8.22407 41.2901C8.32362 41.1591 8.38141 41.0012 8.38991 40.8368L8.39573 39.9069C8.40364 39.8367 8.39374 39.7657 8.36697 39.7003C8.3402 39.635 8.2974 39.5774 8.24253 39.533C8.18767 39.4885 8.12249 39.4586 8.05301 39.4459C7.98353 39.4333 7.91199 39.4383 7.84498 39.4606Z" fill="#0E6B87"/>
<path d="M8.97212 37.4452C10.5118 37.9124 12.0361 38.4607 13.4719 39.0085C13.6207 39.069 13.7488 39.1711 13.8409 39.3026C13.9331 39.4341 13.9853 39.5894 13.9913 39.7498L13.986 40.5912C13.9915 40.6565 13.9802 40.7222 13.9531 40.7819C13.926 40.8416 13.8841 40.8934 13.8313 40.9323C13.7785 40.9712 13.7166 40.9959 13.6515 41.0041C13.5865 41.0123 13.5204 41.0037 13.4596 40.9791C12.0232 40.5272 10.5132 40.0381 8.95881 39.5707C8.80259 39.5169 8.66609 39.4174 8.56693 39.2853C8.46778 39.1531 8.41051 38.9942 8.40253 38.8292L8.40835 37.8992C8.39792 37.8269 8.4065 37.7532 8.43324 37.6852C8.45997 37.6172 8.50395 37.5574 8.56084 37.5116C8.61773 37.4657 8.68557 37.4355 8.75769 37.4239C8.8298 37.4122 8.9037 37.4196 8.97212 37.4452Z" fill="#0E6B87"/>
<path d="M7.87074 35.357C6.33398 35.8254 4.82491 36.3803 3.35074 37.0189C3.20649 37.085 3.08191 37.1875 2.98923 37.3164C2.89655 37.4452 2.83896 37.5959 2.82211 37.7537L2.81652 38.6467C2.81044 38.711 2.82167 38.7757 2.84903 38.8341C2.8764 38.8926 2.9189 38.9426 2.97214 38.9791C3.02538 39.0156 3.08742 39.0372 3.15181 39.0416C3.2162 39.046 3.28059 39.0331 3.33832 39.0042C4.78082 38.4819 6.29717 37.9526 7.85734 37.4973C8.01233 37.4434 8.14795 37.3449 8.24724 37.2143C8.34652 37.0836 8.40505 36.9265 8.41549 36.7628L8.42131 35.8328C8.43748 35.76 8.43362 35.6842 8.41016 35.6133C8.3867 35.5425 8.34451 35.4794 8.28806 35.4306C8.23162 35.3818 8.16302 35.3492 8.08954 35.3363C8.01607 35.3233 7.94046 35.3305 7.87074 35.357Z" fill="#0E6B87"/>
<path d="M8.9978 33.3344C10.5455 33.8357 12.0497 34.4622 13.4957 35.2077C13.6442 35.2884 13.7698 35.4056 13.8606 35.5482C13.9513 35.6908 14.0043 35.8541 14.0146 36.0229L14.0093 36.8642C14.0075 37.1594 13.7778 37.2982 13.4833 37.1783C12.016 36.5244 10.5141 35.9508 8.98449 35.46C8.82934 35.4044 8.69391 35.3045 8.59502 35.1727C8.49612 35.0409 8.43812 34.8829 8.42821 34.7184L8.43403 33.7885C8.42122 33.7157 8.42816 33.6407 8.45416 33.5715C8.48016 33.5023 8.52425 33.4413 8.58183 33.395C8.63941 33.3486 8.70838 33.3185 8.78154 33.3079C8.85471 33.2972 8.92939 33.3064 8.9978 33.3344Z" fill="#0E6B87"/>
<path d="M7.89648 31.246C6.32666 31.7495 4.81166 32.4101 3.37455 33.2179C3.22471 33.3057 3.09833 33.4285 3.00617 33.5757C2.914 33.7229 2.85878 33.8902 2.84522 34.0633L2.83995 34.9047C2.83811 35.1999 3.06612 35.3268 3.36221 35.1884C4.82017 34.4673 6.33166 33.8599 7.88318 33.3716C8.03764 33.3168 8.17275 33.2181 8.2719 33.0876C8.37106 32.9571 8.42994 32.8005 8.44132 32.637L8.44714 31.7071C8.46269 31.6348 8.45821 31.5597 8.4342 31.4898C8.41019 31.4199 8.36756 31.3579 8.31089 31.3104C8.25422 31.263 8.18567 31.2319 8.11265 31.2206C8.03962 31.2092 7.96488 31.218 7.89648 31.246Z" fill="#0E6B87"/>
<path d="M9.0235 29.2235C10.6062 29.7637 12.1162 30.497 13.5194 31.4068C13.6664 31.5055 13.7893 31.6359 13.8791 31.7885C13.9688 31.9411 14.0231 32.1119 14.0379 32.2883L14.0327 33.1297C14.0308 33.4323 13.8013 33.5416 13.5071 33.3773C12.0815 32.551 10.5746 31.8738 9.01015 31.3564C8.85652 31.2985 8.7226 31.198 8.62407 31.0666C8.52554 30.9353 8.4665 30.7786 8.45387 30.6149L8.45969 29.6849C8.44528 29.6116 8.45105 29.5357 8.47637 29.4653C8.50169 29.395 8.54562 29.3328 8.60348 29.2855C8.66134 29.2381 8.73096 29.2073 8.80493 29.1964C8.8789 29.1855 8.95444 29.1949 9.0235 29.2235Z" fill="#0E6B87"/>
<path d="M3.39834 29.4172C4.29055 28.8049 5.23201 28.2676 6.21305 27.811C6.9587 27.6771 7.71517 27.6126 8.47274 27.6185L8.46724 28.4968C8.45405 28.6597 8.39448 28.8155 8.29557 28.9457C8.19666 29.0758 8.06255 29.175 7.90909 29.2313C6.32132 29.7524 4.80261 30.4641 3.38623 31.3508C3.08991 31.5261 2.86167 31.4361 2.86351 31.1409L2.86883 30.2921C2.89287 30.1179 2.95224 29.9505 3.04329 29.8C3.13434 29.6495 3.25516 29.5193 3.39834 29.4172Z" fill="#0E6B87"/>
<path d="M14.0588 28.9525L14.056 29.4027C14.0541 29.7053 13.8249 29.7777 13.5309 29.5766C12.5442 28.8779 11.4926 28.2756 10.3906 27.7782C11.6661 27.9803 12.9031 28.3763 14.0588 28.9525Z" fill="#0E6B87"/>
<path d="M8.43935 55.3547C8.35433 55.2274 8.30667 55.0788 8.3018 54.9258L8.30763 53.9958C8.3026 53.9251 8.31489 53.8543 8.34346 53.7894C8.37202 53.7246 8.41599 53.6677 8.47154 53.6236C8.52709 53.5796 8.59254 53.5498 8.66221 53.5368C8.73189 53.5239 8.80368 53.5281 8.87135 53.5491C10.3378 53.952 11.8675 54.0718 13.3787 53.9021C13.4687 53.887 13.5611 53.9005 13.643 53.9408C13.7248 53.981 13.792 54.0459 13.8349 54.1264C12.1477 54.9249 10.306 55.3441 8.43935 55.3547Z" fill="#0E6B87"/>
<g style="mix-blend-mode:multiply" opacity="0.5">
<path d="M3.17424 52.2294L3.17886 51.4914C6.66102 52.7083 10.4583 52.6747 13.9183 51.3962L13.916 51.7653C13.9136 51.8962 13.8688 52.0228 13.7883 52.1261C13.7078 52.2294 13.596 52.3038 13.4696 52.3382L13.4599 53.888C13.5364 53.8898 13.6112 53.9113 13.6769 53.9505C13.7426 53.9897 13.7971 54.0453 13.8349 54.1118C12.1476 54.9103 10.306 55.3295 8.43933 55.3401C8.35676 55.2148 8.31159 55.0686 8.30911 54.9186C6.95969 54.9092 5.61958 54.6942 4.33492 54.2811C3.96911 54.267 3.60453 54.2302 3.24327 54.171C3.09623 54.1411 2.96409 54.0612 2.86929 53.9449C2.77449 53.8286 2.72288 53.683 2.72323 53.533L2.72864 52.6695C2.73475 52.5538 2.78382 52.4446 2.86624 52.3632C2.94866 52.2818 3.05849 52.2341 3.17424 52.2294Z" fill="#003242"/>
</g>
<g style="mix-blend-mode:multiply" opacity="0.5">
<path d="M13.5882 33.4074L13.5863 33.7026C10.0947 32.7587 6.41347 32.7713 2.92842 33.7392C3.011 33.5579 3.13605 33.3992 3.29297 33.2765L3.30461 31.4166C3.05294 31.5332 2.86178 31.4139 2.86326 31.1777L2.86857 30.329C2.90366 30.0019 3.06431 29.7013 3.31667 29.4904L3.32069 28.8483C4.03728 28.5414 4.77979 28.2991 5.53942 28.1241L6.18345 27.8181C6.92911 27.6842 7.68558 27.6197 8.44314 27.6256L8.44194 27.8175C9.30182 27.8216 10.1592 27.911 11.0014 28.0845L10.3611 27.7852C11.6416 27.986 12.8838 28.382 14.0441 28.9597L14.0413 29.4099C14.0396 29.683 13.8472 29.7556 13.5971 29.6211L13.5855 31.4736C13.7099 31.5727 13.8128 31.696 13.888 31.836C13.9633 31.976 14.0093 32.1299 14.0233 32.2882L14.018 33.1296C14.0311 33.4028 13.8311 33.5048 13.5882 33.4074Z" fill="#003242"/>
</g>
<path d="M12.025 70.9064C18.6667 71.0439 25.9142 71.0892 32.5793 71.035C34.7934 71.0489 36.3961 70.8744 36.3973 70.6899L36.4135 68.0994C36.4147 67.9149 34.8067 67.7498 32.6002 67.7065C25.9585 67.5616 18.7109 67.5162 12.0458 67.5778C9.83167 67.5639 8.2216 67.7384 8.22044 67.9229L8.20423 70.5134C8.20307 70.6979 9.81102 70.863 12.025 70.9064Z" fill="#00212B"/>
<path d="M31.2899 74.2077C32.8866 74.5056 34.5237 74.5158 36.1241 74.238C36.3752 74.1916 36.6023 74.0592 36.7665 73.8636C36.9307 73.668 37.0216 73.4214 37.0238 73.1661L37.071 65.6307C37.0734 65.3749 36.9861 65.1265 36.8241 64.9285C36.6622 64.7306 36.4359 64.5958 36.1847 64.5476C34.588 64.2497 32.9509 64.2395 31.3506 64.5173C31.0988 64.5624 30.8709 64.6944 30.7065 64.8902C30.542 65.0861 30.4516 65.3335 30.4508 65.5892L30.4036 73.1246C30.4026 73.38 30.4905 73.6277 30.6522 73.8254C30.8139 74.023 31.0394 74.1582 31.2899 74.2077Z" fill="#D6D6D6"/>
<path d="M13.3187 74.0954C11.7184 74.3732 10.0813 74.363 8.48457 74.0651C8.23407 74.0156 8.00861 73.8804 7.84689 73.6827C7.68518 73.4851 7.59728 73.2373 7.59829 72.982L7.64546 65.4466C7.64654 65.1898 7.73806 64.9416 7.90396 64.7456C8.06986 64.5496 8.29952 64.4182 8.55261 64.3747C10.1505 64.0968 11.7851 64.107 13.3794 64.4049C13.6313 64.453 13.8584 64.5875 14.0216 64.7853C14.1848 64.9831 14.2737 65.2317 14.273 65.4881L14.2259 73.0235C14.2219 73.2795 14.1294 73.5262 13.964 73.7217C13.7986 73.9171 13.5706 74.0492 13.3187 74.0954Z" fill="#D6D6D6"/>
<path d="M31.0272 76.081C31.8591 76.48 32.7689 76.6899 33.6915 76.6957C34.614 76.7015 35.5265 76.503 36.3632 76.1144L36.4474 62.6748C35.6165 62.2723 34.7063 62.0604 33.7831 62.0546C32.86 62.0488 31.9472 62.2493 31.1114 62.6414L31.0272 76.081Z" fill="#004358"/>
<path d="M32.756 75.8113C33.3896 75.9038 34.0329 75.9078 34.6676 75.8232C34.7397 76.082 34.8194 76.3334 34.8917 76.5627C35.4028 76.462 35.8995 76.299 36.3709 76.0774L36.3697 76.2767C35.8504 76.5286 35.2974 76.7041 34.7279 76.7978L34.5111 76.0584C33.974 76.1215 33.4311 76.1181 32.8948 76.0483L32.6688 76.785C32.1005 76.6841 31.5498 76.5017 31.0336 76.2433L31.0349 76.044C31.5035 76.2715 31.9981 76.4406 32.5079 76.5478C32.5831 76.3194 32.6659 76.069 32.756 75.8113Z" fill="#003242"/>
<path d="M32.764 74.5491C33.399 74.6194 34.0396 74.6234 34.6755 74.561C34.7477 74.8198 34.8273 75.0712 34.8997 75.3005C35.4047 75.2223 35.9002 75.0918 36.3782 74.9112L36.377 75.1105C35.8481 75.3148 35.2974 75.4574 34.7358 75.5356L34.519 74.7962C33.9812 74.8445 33.4399 74.8411 32.9027 74.7861L32.6767 75.5228C32.1161 75.4375 31.5673 75.288 31.041 75.0771L31.0422 74.8778C31.518 75.0644 32.0118 75.201 32.5158 75.2856C32.591 75.0572 32.6738 74.8068 32.764 74.5491Z" fill="#003242"/>
<path d="M32.7719 73.2874C33.4077 73.343 34.0469 73.347 34.6834 73.2994C34.7556 73.5581 34.8352 73.8096 34.9076 74.0388C35.408 73.9778 35.9025 73.8747 36.3856 73.7307L36.3844 73.93C35.8506 74.0984 35.3008 74.2113 34.7438 74.2666C34.6715 74.0152 34.5993 73.7564 34.5272 73.4903C33.9891 73.5312 33.4485 73.5278 32.9109 73.4802C32.8354 73.7454 32.76 74.0032 32.6846 74.2537C32.1283 74.1914 31.58 74.0717 31.0484 73.8966L31.0496 73.6973C31.5309 73.8473 32.024 73.9566 32.5237 74.0239C32.5989 73.7956 32.6818 73.523 32.7719 73.2874Z" fill="#003242"/>
<path d="M32.7796 72.0474C33.416 72.0883 34.0543 72.0923 34.6911 72.0594C34.7633 72.3255 34.8428 72.5844 34.915 72.8431C35.4118 72.7984 35.9053 72.7226 36.3926 72.6162L36.3914 72.8081C35.852 72.9331 35.3036 73.0161 34.7513 73.0561L34.5345 72.3167C33.9933 72.3133 33.4545 72.31 32.9182 72.3066L32.6922 73.0433C32.1405 72.9963 31.5932 72.9065 31.0554 72.7747L31.0566 72.5754C31.5425 72.6879 32.035 72.7699 32.5312 72.8208C32.6068 72.5408 32.6896 72.283 32.7796 72.0474Z" fill="#003242"/>
<path d="M32.7877 70.7559C33.4224 70.7598 34.0645 70.7638 34.6992 70.7678C34.7714 71.034 34.8509 71.2928 34.9231 71.5516C35.4324 71.5548 35.9273 71.4841 36.4001 71.4132L36.3989 71.6125C35.8554 71.6931 35.3082 71.7463 34.7594 71.772L34.5429 70.9883C34.0016 70.9849 33.4629 70.9815 32.9266 70.9781L32.7003 71.7591C32.1518 71.7266 31.6053 71.6665 31.0629 71.5791L31.0641 71.3798C31.5434 71.4566 32.0376 71.504 32.5393 71.5367C32.6145 71.3083 32.6975 71.021 32.7877 70.7559Z" fill="#003242"/>
<path d="M32.7955 69.4936L34.7071 69.5056C34.7792 69.7718 34.8587 70.038 34.9309 70.2967L36.4073 70.2469L36.4061 70.4388C35.8819 70.4798 35.3282 70.4985 34.7672 70.5098L34.5507 69.7187C34.0095 69.7153 33.4707 69.7119 32.9344 69.7086L32.7081 70.4969C32.1472 70.4934 31.5936 70.4899 31.0701 70.4054L31.0713 70.2135L32.547 70.2818C32.6225 70.024 32.7053 69.7588 32.7955 69.4936Z" fill="#003242"/>
<path d="M32.8035 68.2315C33.4383 68.2355 34.0803 68.2395 34.7151 68.2435C34.7872 68.5096 34.8667 68.7758 34.9389 69.042C35.4309 69.0451 35.9229 69.0481 36.4149 69.0512L36.4137 69.2505L34.7752 69.2402C34.703 68.9839 34.6309 68.7178 34.5588 68.4418L32.9425 68.4316C32.867 68.7018 32.7916 68.967 32.7161 69.2273L31.0777 69.2171L31.0789 69.0178C31.5709 69.0209 32.063 69.024 32.555 69.0271C32.6305 68.7618 32.7133 68.4966 32.8035 68.2315Z" fill="#003242"/>
<path d="M32.8115 66.962C33.4462 66.966 34.0883 66.97 34.723 66.974C34.7951 67.2475 34.8746 67.5138 34.9468 67.7799C35.4388 67.783 35.9306 67.823 36.4221 67.8999L36.4209 68.0991C35.8972 68.0442 35.3439 68.0112 34.783 67.9929L34.5667 67.1871C34.0255 67.1837 33.4867 67.1803 32.9504 67.177L32.7239 67.98C32.163 67.9765 31.6092 68.0173 31.0849 68.0657L31.0861 67.8664C31.5785 67.8203 32.0707 67.7865 32.5629 67.765C32.6384 67.4998 32.7212 67.2346 32.8115 66.962Z" fill="#003242"/>
<path d="M32.8193 65.7001C33.456 65.6598 34.0947 65.6638 34.7309 65.712C34.803 65.9856 34.8824 66.2591 34.9546 66.5253C35.4495 66.5653 35.9419 66.6324 36.4295 66.7264L36.4283 66.9036C35.8867 66.8075 35.3401 66.7425 34.791 66.7088L34.5747 65.8956C34.0368 65.8553 33.4968 65.8519 32.9584 65.8855L32.7319 66.6959C32.1825 66.7227 31.6351 66.7809 31.0923 66.8702L31.0936 66.6709C31.5823 66.583 32.0755 66.522 32.5708 66.4882C32.6462 66.2452 32.7291 65.9726 32.8193 65.7001Z" fill="#003242"/>
<path d="M32.8272 64.438C33.4631 64.3756 34.1037 64.3796 34.7388 64.45C34.8109 64.7235 34.8903 64.9971 34.9624 65.2706C35.4604 65.3267 35.9533 65.4211 36.4368 65.5529L36.4355 65.7522C35.8981 65.6155 35.3509 65.5207 34.7988 65.4689L34.5825 64.6483C34.0449 64.6006 33.5044 64.5972 32.9662 64.6381L32.7397 65.456C32.187 65.5009 31.6386 65.5888 31.0995 65.7188L31.1008 65.5195C31.5859 65.3937 32.0799 65.3055 32.5786 65.2557C32.6541 64.9831 32.737 64.7105 32.8272 64.438Z" fill="#003242"/>
<path d="M32.835 63.1907C33.4697 63.1061 34.113 63.1101 34.7466 63.2026C34.8187 63.4762 34.8981 63.7498 34.9702 64.0233C35.4727 64.101 35.9663 64.2277 36.444 64.4016L36.4427 64.6008C35.913 64.4147 35.3643 64.2875 34.8066 64.2216L34.5904 63.3936C34.0532 63.3386 33.5119 63.3352 32.9741 63.3834L32.7475 64.2087C32.1891 64.2676 31.6388 64.388 31.1067 64.5674L31.108 64.3682C31.5878 64.2003 32.083 64.0798 32.5864 64.0084C32.662 63.721 32.7449 63.4484 32.835 63.1907Z" fill="#003242"/>
<path d="M32.843 61.9139C33.4766 61.814 34.1223 61.8181 34.7546 61.9258L34.9782 62.7539C35.4854 62.8493 35.9799 63.0035 36.4514 63.2133L36.4502 63.4126C35.9272 63.1876 35.3775 63.0304 34.8146 62.9448L34.5984 62.1168C34.0626 62.0393 33.5188 62.0359 32.9821 62.1066L32.7555 62.9319C32.1916 63.0104 31.64 63.1607 31.1142 63.3792L31.1154 63.1799C31.5896 62.976 32.0859 62.828 32.5943 62.739L32.843 61.9139Z" fill="#003242"/>
<g style="mix-blend-mode:multiply" opacity="0.5">
<path d="M31.0343 74.9516L31.0261 76.2653C31.5422 76.5236 32.0929 76.7061 32.6612 76.8069C32.6779 76.7421 32.698 76.6781 32.7214 76.6154C33.3637 76.7227 34.0189 76.7268 34.6625 76.6276L34.7203 76.8198C35.2898 76.7261 35.8428 76.5505 36.3621 76.2987L36.3703 74.985C34.6508 75.6455 32.7454 75.6336 31.0343 74.9516Z" fill="#003242"/>
</g>
<g style="mix-blend-mode:multiply" opacity="0.5">
<path d="M36.4292 65.5825L36.4474 62.6746C35.9246 62.4231 35.3693 62.2457 34.7974 62.1477L34.7398 61.9259C34.1075 61.8181 33.4618 61.8141 32.8283 61.9139L32.7678 62.135C32.1948 62.2259 31.6373 62.3963 31.1114 62.6412L31.0932 65.5491C32.8453 65.1023 34.6828 65.1138 36.4292 65.5825Z" fill="#003242"/>
</g>
<path d="M8.17024 75.9378C9.00336 76.3369 9.91442 76.5468 10.8382 76.5526C11.762 76.5584 12.6756 76.3599 13.5136 75.9712L13.5978 62.5315C12.7657 62.1289 11.8542 61.9169 10.9298 61.9112C10.0055 61.9054 9.09144 62.1059 8.25437 62.4981L8.17024 75.9378Z" fill="#004358"/>
<path d="M9.8769 75.6682C10.5129 75.7608 11.1587 75.7648 11.7958 75.6802L12.0126 76.4196C12.5235 76.3184 13.0202 76.1555 13.4918 75.9344L13.4905 76.1337C12.9712 76.3855 12.4182 76.561 11.8487 76.6548C11.7765 76.4034 11.6969 76.1519 11.6246 75.9153C11.0899 75.9784 10.5495 75.975 10.0156 75.9052C9.94023 76.1631 9.86485 76.4136 9.78224 76.6418C9.21396 76.541 8.66323 76.3585 8.14712 76.1002L8.14837 75.9009C8.61714 76.1279 9.11176 76.297 9.62135 76.4047L9.8769 75.6682Z" fill="#003242"/>
<path d="M9.88471 74.406C10.5222 74.4764 11.1653 74.4804 11.8036 74.418L12.0204 75.1574C12.5254 75.0792 13.0209 74.9487 13.499 74.7681L13.4977 74.9674C12.9688 75.1717 12.4181 75.3144 11.8565 75.3926C11.7843 75.1412 11.7048 74.8824 11.6324 74.6531C11.097 74.7014 10.5582 74.6981 10.0235 74.643C9.94804 74.9009 9.87262 75.1587 9.79005 75.3796C9.2295 75.2944 8.68064 75.1448 8.15433 74.9339L8.15558 74.7347C8.63133 74.9212 9.12517 75.0579 9.62916 75.1425L9.88471 74.406Z" fill="#003242"/>
<path d="M9.8926 73.1438C10.5309 73.1995 11.1726 73.2035 11.8115 73.1558L12.0283 73.8953C12.5287 73.8338 13.0231 73.7308 13.5063 73.5872L13.5051 73.7864C12.9713 73.9549 12.4215 74.0677 11.8645 74.123C11.7923 73.8716 11.7127 73.6128 11.6405 73.3467C11.1049 73.3876 10.5667 73.3842 10.0316 73.3366C9.95616 73.6018 9.88074 73.8597 9.79798 74.1101C9.24171 74.0478 8.69336 73.9281 8.16171 73.753L8.16296 73.5537C8.64439 73.7033 9.13746 73.8126 9.63705 73.8803L9.8926 73.1438Z" fill="#003242"/>
<path d="M9.90035 71.9039C10.5392 71.9448 11.1799 71.9488 11.8193 71.9159L12.0358 72.6996C12.5325 72.6545 13.026 72.5787 13.5133 72.4727L13.5121 72.6645C12.9727 72.7896 12.4243 72.8725 11.8721 72.9126C11.7999 72.6538 11.7203 72.395 11.6479 72.1731C11.1165 72.1698 10.5704 72.1664 10.039 72.1631C9.96354 72.4209 9.88812 72.6788 9.80555 72.8997C9.25381 72.8527 8.70655 72.7629 8.16872 72.6311L8.16997 72.4318C8.65596 72.544 9.14844 72.626 9.64457 72.6772L9.90035 71.9039Z" fill="#003242"/>
<path d="M9.90845 70.6123C10.5432 70.6163 11.1926 70.6203 11.8274 70.6243L12.0439 71.408C12.5531 71.4112 13.0554 71.3405 13.5209 71.2697L13.5196 71.4689C12.9761 71.5495 12.4289 71.6028 11.8801 71.6284C11.8079 71.3696 11.7284 71.1108 11.6562 70.8447C11.1248 70.8413 10.5787 70.8379 10.0473 70.8346C9.97183 71.0998 9.89641 71.3577 9.81361 71.6155C9.26514 71.583 8.71866 71.5229 8.17623 71.4355L8.17747 71.2362C8.65674 71.313 9.15833 71.3604 9.65263 71.3931L9.90845 70.6123Z" fill="#003242"/>
<path d="M9.91639 69.3506L11.8353 69.3626L12.0518 70.1537L13.5282 70.1039L13.527 70.2958C13.0027 70.3368 12.449 70.3554 11.888 70.3667C11.8159 70.1079 11.7363 69.8417 11.6642 69.5756C11.1328 69.5722 10.5867 69.5688 10.0553 69.5655C9.97981 69.8307 9.90435 70.096 9.82154 70.3538C9.26064 70.3502 8.70711 70.3468 8.18361 70.2623L8.18481 70.0704L9.66051 70.1387L9.91639 69.3506Z" fill="#003242"/>
<path d="M9.92428 68.0884C10.559 68.0924 11.2085 68.0965 11.8432 68.1004L12.0596 68.8989C12.5688 68.9021 13.0707 68.9052 13.5357 68.9082L13.5344 69.1074L11.896 69.0972C11.8238 68.8384 11.7443 68.5722 11.6722 68.2987L10.0633 68.2886C9.98775 68.5612 9.91228 68.8264 9.82948 69.0842L8.19103 69.074L8.19228 68.8747C8.67201 68.8777 9.17387 68.8808 9.66836 68.8839L9.92428 68.0884Z" fill="#003242"/>
<path d="M9.93222 66.819C10.5669 66.823 11.2164 66.827 11.8511 66.831L12.0675 67.6368C12.5767 67.64 13.0782 67.7022 13.5429 67.7568L13.5416 67.9561C13.0179 67.9011 12.4646 67.8681 11.9038 67.8499C11.8317 67.5763 11.7522 67.3101 11.68 67.044C11.1486 67.0406 10.6025 67.0372 10.0711 67.0339C9.99564 67.2991 9.92018 67.5644 9.83728 67.8369C9.27637 67.8334 8.72257 67.8742 8.19823 67.9226L8.19948 67.7233C8.67953 67.6747 9.18163 67.6409 9.67625 67.6219L9.93222 66.819Z" fill="#003242"/>
<path d="M9.94008 65.557C10.5792 65.5167 11.2204 65.5207 11.859 65.569L12.0753 66.3822C12.5702 66.4225 13.0626 66.4896 13.5502 66.5834L13.5491 66.7605C13.0075 66.6644 12.4608 66.5994 11.9118 66.5657C11.8397 66.2922 11.7602 66.026 11.6881 65.7525C11.1526 65.7122 10.6151 65.7088 10.0792 65.7424C10.0036 66.015 9.92818 66.2802 9.84528 66.5528C9.29588 66.5796 8.74845 66.6378 8.20568 66.727L8.20693 66.5278C8.69568 66.4402 9.18883 66.3792 9.68421 66.3451L9.94008 65.557Z" fill="#003242"/>
<path d="M9.94798 64.2949C10.5863 64.2325 11.2294 64.2365 11.8669 64.3069L12.0832 65.1275C12.5811 65.184 13.074 65.2783 13.5575 65.4099L13.5563 65.6091C13.0189 65.4724 12.4716 65.3777 11.9195 65.3258C11.8474 65.0523 11.768 64.7787 11.6959 64.5051C11.1608 64.4575 10.6226 64.4541 10.087 64.4951C10.0114 64.7677 9.93593 65.0403 9.85304 65.3129C9.30033 65.3578 8.75196 65.4457 8.21288 65.5757L8.21413 65.3764C8.69929 65.251 9.19332 65.1628 9.69192 65.1126L9.94798 64.2949Z" fill="#003242"/>
<path d="M9.9559 63.0476C10.593 62.963 11.2388 62.967 11.8748 63.0596L12.0911 63.8802C12.5934 63.9584 13.087 64.085 13.5648 64.2585L13.5636 64.4578C13.0338 64.2716 12.4851 64.1445 11.9275 64.0785L11.7038 63.2505C11.1691 63.1954 10.6303 63.1921 10.0949 63.2404C10.0194 63.513 9.94386 63.793 9.86096 64.0656C9.30253 64.1245 8.75229 64.2448 8.22021 64.4243L8.22145 64.225C8.70146 64.0576 9.19657 63.9371 9.69984 63.8653L9.9559 63.0476Z" fill="#003242"/>
<path d="M9.96378 61.7708C10.5999 61.6715 11.2479 61.6755 11.8827 61.7828L12.0989 62.6108C12.6062 62.7062 13.1006 62.8604 13.5722 63.0703L13.5709 63.2695C13.0479 63.0445 12.4982 62.8873 11.9353 62.8017C11.8633 62.5208 11.7838 62.2472 11.7117 61.9737C11.1784 61.8969 10.6371 61.8935 10.1028 61.9636C10.0273 62.2362 9.95178 62.5088 9.86884 62.7888C9.30491 62.8673 8.75333 63.0176 8.22753 63.2361L8.22878 63.0368C8.70294 62.8329 9.19925 62.6849 9.70767 62.5958L9.96378 61.7708Z" fill="#003242"/>
<g style="mix-blend-mode:multiply" opacity="0.5">
<path d="M8.17731 74.8085L8.16909 76.1222C8.6852 76.3805 9.23593 76.5629 9.80421 76.6638C9.82765 76.6011 9.84776 76.5372 9.86446 76.4723C10.5092 76.5797 11.1669 76.5838 11.8129 76.4845C11.8288 76.5496 11.8481 76.6137 11.8707 76.6768C12.4402 76.583 12.9932 76.4075 13.5125 76.1556L13.5207 74.8419C11.7987 75.5029 9.89091 75.4909 8.17731 74.8085Z" fill="#003242"/>
</g>
<g style="mix-blend-mode:multiply" opacity="0.5">
<path d="M13.5796 65.4395L13.5978 62.5316C13.0746 62.2811 12.5194 62.1038 11.9478 62.0046L11.8902 61.7828C11.2554 61.6755 10.6074 61.6715 9.97126 61.7708L9.91083 61.9919C9.33808 62.0839 8.78072 62.2542 8.2544 62.4981L8.2362 65.406C9.99079 64.9593 11.8307 64.9708 13.5796 65.4395Z" fill="#003242"/>
</g>
<path d="M17.2054 34.4633L27.907 34.5303L27.939 29.4083L17.2375 29.3413L17.2054 34.4633Z" fill="#BF1010"/>
<path d="M17.973 34.4681L27.1321 34.5254L27.1641 29.4034L18.0051 29.3461L17.973 34.4681Z" fill="#C25900"/>
<path d="M13.7306 31.8805L31.4435 31.9914L35.2205 35.8308L35.1272 50.7466L31.2627 58.5164L13.5498 58.4055L9.78292 50.588L9.87629 35.6722L13.7306 31.8805Z" fill="#BF1010"/>
<path d="M14.6052 58.4121L30.2073 58.5098L28.6926 76.4649L15.8876 76.3847L14.6052 58.4121Z" fill="#BF1010"/>
<path d="M16.4208 58.4235L28.3844 58.4984L27.2731 74.4928C27.2544 74.7687 27.1311 75.0271 26.9282 75.2152C26.7254 75.4032 26.4584 75.5067 26.1818 75.5045L18.4176 75.4559C18.1403 75.4548 17.8737 75.3482 17.6721 75.1578C17.4704 74.9674 17.3487 74.7074 17.3317 74.4305L16.4208 58.4235Z" fill="#830B0B"/>
<path d="M26.0575 58.8011L25.2867 69.9337C25.2578 70.348 25.072 70.7356 24.7671 71.0176C24.4623 71.2996 24.0613 71.4547 23.6461 71.4512L20.9744 71.4345C20.5596 71.431 20.1616 71.2703 19.8607 70.9849C19.5598 70.6995 19.3783 70.3105 19.3529 69.8965L18.7214 58.7552L26.0575 58.8011Z" fill="#F52924"/>
<path d="M27.2257 58.4839L27.1718 60.0113C27.1289 60.9779 27.0833 62.3652 26.9991 64.0327C26.9148 65.7002 26.8215 67.6334 26.6904 69.7065C26.6742 70.2476 26.624 70.7872 26.5401 71.322C26.3884 71.891 26.0719 72.4026 25.6305 72.7924C25.1757 73.1971 24.607 73.4513 24.0021 73.5203C23.7145 73.5363 23.4261 73.5345 23.1386 73.5149L22.312 73.5097C21.7438 73.5061 21.2197 73.5029 20.6222 73.4622C20.0173 73.389 19.4508 73.1273 19.0031 72.714C18.5648 72.3201 18.2544 71.8041 18.1119 71.2323C18.0292 70.6945 17.9832 70.1517 17.9745 69.6077C17.8694 67.5331 17.8077 65.5916 17.7369 63.9305C17.6662 62.2694 17.6454 60.8743 17.6145 59.9072C17.5837 58.9402 17.6241 58.3795 17.6241 58.3795C17.6241 58.3795 17.6723 58.9333 17.7622 59.9008C17.8521 60.8682 17.9763 62.2492 18.0987 63.9106C18.2212 65.572 18.3788 67.5067 18.5061 69.5815C18.5199 70.0934 18.566 70.604 18.6441 71.1102C18.7621 71.59 19.0233 72.0227 19.393 72.3506C19.7627 72.6785 20.2234 72.8862 20.714 72.9461C21.2156 72.9936 21.8063 72.953 22.3524 72.9564L23.179 72.9616C23.4595 72.9633 23.7399 72.9651 23.9761 72.9666C24.4689 72.9117 24.9335 72.7086 25.3085 72.3842C25.6834 72.0597 25.9511 71.6291 26.0762 71.1493C26.1624 70.6442 26.2174 70.1344 26.2407 69.6225C26.394 67.5495 26.5758 65.6169 26.7191 63.9572C26.8623 62.2974 27.0112 60.9182 27.0984 59.9518C27.1856 58.9855 27.2257 58.4839 27.2257 58.4839Z" fill="#004358"/>
<path d="M14.966 51.4765L29.9261 51.5701C31.1285 51.5776 32.1094 50.609 32.1169 49.4065L32.186 38.3655C32.1935 37.163 31.2249 36.1822 30.0224 36.1746L15.0624 36.081C13.8599 36.0735 12.8791 37.0421 12.8716 38.2446L12.8024 49.2856C12.7949 50.4881 13.7636 51.4689 14.966 51.4765Z" fill="#F52924"/>
<path d="M15.4835 41.9069L19.2106 41.9302C19.5069 41.9321 19.7904 42.0511 19.9992 42.2612C20.2081 42.4713 20.3254 42.7555 20.3255 43.0517L20.2854 49.4579C20.2796 49.7528 20.158 50.0336 19.9467 50.2395C19.7355 50.4454 19.4516 50.5598 19.1566 50.5579L15.4295 50.5346C15.1333 50.5327 14.8498 50.4138 14.6409 50.2037C14.4321 49.9936 14.3148 49.7094 14.3147 49.4131L14.3548 43.007C14.3605 42.712 14.4822 42.4312 14.6934 42.2253C14.9047 42.0194 15.1885 41.905 15.4835 41.9069ZM19.1601 49.997C19.3057 49.9979 19.4457 49.9415 19.5499 49.8399C19.6542 49.7384 19.7142 49.5998 19.7171 49.4543L19.7572 43.0482C19.7562 42.9026 19.6978 42.7633 19.5949 42.6605C19.4919 42.5576 19.3526 42.4994 19.2071 42.4985L15.48 42.4752C15.3344 42.4743 15.1944 42.5307 15.0902 42.6323C14.9859 42.7338 14.9259 42.8724 14.923 43.0179L14.8829 49.4241C14.884 49.5696 14.9423 49.7089 15.0452 49.8117C15.1482 49.9146 15.2875 49.9728 15.433 49.9737L19.1601 49.997Z" fill="#BF1010"/>
<path d="M16.131 9.20743C16.2591 7.5426 17.0136 5.98825 18.2424 4.85775C19.4713 3.72725 21.083 3.10467 22.7527 3.11554C24.4217 3.1257 26.0246 3.76864 27.238 4.91459C28.4514 6.06054 29.1848 7.62416 29.2903 9.2898L29.8077 17.4118L29.8055 17.766C29.8022 17.982 29.7137 18.1879 29.5594 18.339C29.405 18.4901 29.1972 18.5741 28.9812 18.5728C28.7652 18.5714 28.5585 18.4848 28.406 18.3318C28.2535 18.1788 28.1676 17.9718 28.1671 17.7558L28.1693 17.4015L27.2762 17.3959L27.274 17.7502C27.2707 17.9662 27.1823 18.1721 27.0279 18.3232C26.8735 18.4743 26.6657 18.5583 26.4497 18.5569C26.2337 18.5556 26.027 18.469 25.8745 18.316C25.7221 18.163 25.6362 17.9559 25.6356 17.7399L25.6378 17.3857L24.7448 17.3801L24.7426 17.7343C24.7393 17.9503 24.6508 18.1563 24.4964 18.3073C24.3421 18.4584 24.1342 18.5424 23.9182 18.5411C23.7022 18.5397 23.4955 18.4531 23.3431 18.3001C23.1906 18.1471 23.1047 17.9401 23.1041 17.7241L23.1063 17.3698L22.2133 17.3642L22.2111 17.7185C22.2078 17.9345 22.1193 18.1404 21.965 18.2915C21.8106 18.4426 21.6028 18.5266 21.3868 18.5252C21.1715 18.5239 20.9655 18.437 20.8142 18.2838C20.6629 18.1306 20.5787 17.9236 20.58 17.7083L20.5822 17.354L19.6818 17.3484L19.6796 17.7027C19.6763 17.9186 19.5879 18.1246 19.4335 18.2756C19.2791 18.4267 19.0713 18.5107 18.8553 18.5094C18.64 18.508 18.434 18.4212 18.2827 18.268C18.1314 18.1148 18.0472 17.9078 18.0486 17.6924L18.0508 17.3382L17.1504 17.3325L17.1481 17.6868C17.1448 17.9028 17.0564 18.1087 16.902 18.2598C16.7476 18.4109 16.5398 18.4949 16.3238 18.4935C16.1085 18.4922 15.9026 18.4053 15.7513 18.2521C15.6 18.0989 15.5157 17.8919 15.5171 17.6766L15.5193 17.3223L16.131 9.20743Z" fill="#2A6380"/>
<path d="M28.5367 17.6546L28.5382 17.4036C28.5385 17.3555 28.5292 17.3078 28.5109 17.2633C28.4925 17.2189 28.4655 17.1785 28.4313 17.1446C28.3972 17.1107 28.3566 17.084 28.312 17.0659C28.2674 17.0479 28.2196 17.039 28.1715 17.0397L27.2785 17.0341C27.2303 17.0328 27.1825 17.0411 27.1376 17.0586C27.0928 17.076 27.0519 17.1023 27.0173 17.1357C26.9827 17.1692 26.9552 17.2092 26.9363 17.2535C26.9173 17.2977 26.9075 17.3453 26.9072 17.3934L26.9058 17.6075L26.0054 17.6018L26.0068 17.3878C26.0074 17.2919 25.9698 17.1997 25.9024 17.1314C25.835 17.0632 25.7433 17.0245 25.6474 17.0239L24.747 17.0183C24.6989 17.017 24.651 17.0253 24.6062 17.0427C24.5613 17.0602 24.5204 17.0864 24.4858 17.1199C24.4512 17.1534 24.4237 17.1934 24.4048 17.2376C24.3859 17.2819 24.376 17.3295 24.3757 17.3776L24.3744 17.5916L23.4739 17.586L23.4753 17.3719C23.4756 17.3238 23.4663 17.2761 23.4479 17.2316C23.4296 17.1872 23.4025 17.1468 23.3684 17.1129C23.3342 17.079 23.2937 17.0523 23.249 17.0343C23.2044 17.0162 23.1566 17.0073 23.1085 17.008L22.2155 17.0024C22.1674 17.0011 22.1195 17.0094 22.0747 17.0269C22.0298 17.0444 21.9889 17.0706 21.9544 17.104C21.9198 17.1375 21.8922 17.1775 21.8733 17.2218C21.8544 17.266 21.8445 17.3136 21.8442 17.3617L21.8429 17.5758L20.9425 17.5701L20.9438 17.3561C20.9444 17.2602 20.9069 17.168 20.8395 17.0997C20.7721 17.0315 20.6803 16.9928 20.5844 16.9922L19.684 16.9866C19.6359 16.9853 19.5881 16.9936 19.5432 17.0111C19.4984 17.0285 19.4575 17.0547 19.4229 17.0882C19.3883 17.1217 19.3608 17.1617 19.3418 17.2059C19.3229 17.2502 19.313 17.2978 19.3127 17.3459L19.3114 17.5599L18.4184 17.5543L18.4197 17.3403C18.4184 17.2437 18.3792 17.1515 18.3107 17.0834C18.2421 17.0154 18.1496 16.9769 18.053 16.9763L17.1526 16.9707C17.056 16.9701 16.963 17.0074 16.8935 17.0746C16.8241 17.1417 16.7838 17.2335 16.7813 17.33L16.7799 17.5441L15.8795 17.5384L15.8807 17.3539L15.8825 17.0661L16.5 9.20954C16.5692 8.30897 16.8342 7.43436 17.2764 6.64677C17.7185 5.85917 18.3273 5.17758 19.0601 4.64955L19.1491 4.58368L26.3376 4.62868L26.4257 4.69566C27.1509 5.2332 27.7499 5.9226 28.1809 6.71569C28.6119 7.50878 28.8646 8.38642 28.9212 9.28729L29.4326 17.1952L29.431 17.4461L29.4297 17.6602L28.5367 17.6546Z" fill="#00212B"/>
<path d="M20.7005 5.53826L24.7671 5.56372L24.7785 3.74814L20.7119 3.72269L20.7005 5.53826Z" fill="#004358"/>
<path d="M25.6784 8.52907C25.6637 10.876 27.9857 14.8909 29.4254 17.1658L28.9211 9.29482C28.8645 8.39395 28.6119 7.5163 28.1809 6.72321C27.7498 5.93012 27.1508 5.24072 26.4257 4.70318C25.9202 5.91475 25.666 7.21634 25.6784 8.52907Z" fill="#002E3D"/>
<path d="M15.9044 17.1032C17.3947 14.854 19.7446 10.861 19.7592 8.52143C19.776 7.20854 19.5334 5.90525 19.0452 4.68639C18.3124 5.21442 17.7036 5.89602 17.2614 6.68361C16.8192 7.4712 16.5543 8.34581 16.485 9.24638L15.9044 17.1032Z" fill="#002E3D"/>
<path d="M19.496 31.7026L25.6512 31.7411C25.9664 31.7431 26.2694 31.6198 26.4936 31.3983C26.7179 31.1769 26.8449 30.8754 26.8469 30.5603C26.8469 30.2464 26.7228 29.9453 26.5015 29.7227C26.2803 29.5 25.9799 29.374 25.6661 29.372L19.5182 29.3335C19.205 29.3315 18.9039 29.4541 18.6811 29.6741C18.4582 29.8942 18.3319 30.1938 18.33 30.507C18.328 30.8196 18.4493 31.1204 18.6675 31.3442C18.8858 31.568 19.1834 31.6967 19.496 31.7026Z" fill="#004358"/>
<path d="M19.6725 3.50213L25.8278 3.54066C26.1417 3.54263 26.4435 3.42034 26.6676 3.20048C26.8916 2.98063 27.0195 2.68108 27.0234 2.36723C27.0274 2.20935 26.9998 2.05228 26.9423 1.90518C26.8848 1.75809 26.7986 1.62392 26.6887 1.51054C26.5787 1.39715 26.4473 1.30682 26.3021 1.24481C26.1568 1.18281 26.0007 1.15037 25.8428 1.14941L19.6949 1.11092C19.381 1.11091 19.0799 1.23508 18.8572 1.45632C18.6346 1.67757 18.5086 1.97791 18.5066 2.29177C18.5027 2.44806 18.5298 2.60358 18.5865 2.74929C18.6432 2.895 18.7282 3.028 18.8366 3.1406C18.9451 3.25319 19.0748 3.34313 19.2183 3.40519C19.3618 3.46725 19.5162 3.5002 19.6725 3.50213Z" fill="#004358"/>
<path d="M26.3358 7.27832L19.1178 7.23314L19.9014 1.13422L25.6212 1.17003L26.3358 7.27832Z" fill="#E36800"/>
<path d="M19.814 15.0833L25.5338 15.1191L25.6211 1.17021L19.9013 1.13441L19.814 15.0833Z" fill="#BF1010"/>
<path d="M22.6764 14.1268L22.6838 14.1269C23.7232 14.1334 24.5711 13.2961 24.5776 12.2567L24.6292 4.01278C24.6357 2.97338 23.7984 2.12551 22.759 2.119L22.7516 2.11896C21.7122 2.11245 20.8643 2.94978 20.8578 3.98918L20.8062 12.2331C20.7997 13.2725 21.637 14.1203 22.6764 14.1268Z" fill="#E36800"/>
<path d="M19.7175 30.5157L25.4373 30.5515L25.5339 15.1191L19.8141 15.0833L19.7175 30.5157Z" fill="#FFE11A"/>
<path d="M22.5797 29.5668L22.5871 29.5668C23.6265 29.5733 24.4744 28.736 24.4809 27.6966L24.5417 17.9766C24.5482 16.9372 23.7109 16.0894 22.6715 16.0829L22.6641 16.0828C21.6247 16.0763 20.7769 16.9136 20.7704 17.953L20.7095 27.673C20.703 28.7124 21.5403 29.5603 22.5797 29.5668Z" fill="#FFC000"/>
<g style="mix-blend-mode:multiply" opacity="0.3">
<path d="M23.5387 2.52241L23.2361 2.52051L23.2016 8.03365L23.5042 8.03555L23.46 15.106L22.2643 15.0985L22.3086 8.02806L22.6112 8.02996L22.6457 2.51682L22.3431 2.51492L22.3517 1.14955L23.5473 1.15703L23.5387 2.52241Z" fill="#583200"/>
<path d="M20.8559 3.11078L20.8682 1.14022L22.0712 1.14775L22.0589 3.11831L21.7489 3.11637L21.7182 8.02433L22.0281 8.02627L21.9839 15.0967L20.7809 15.0891L20.8251 8.01874L21.1351 8.02068L21.1658 3.11272L20.8559 3.11078Z" fill="#583200"/>
</g>
<path d="M22.8793 2.939L24.0823 2.94653L24.0902 1.67711L22.8872 1.66958L22.8793 2.939Z" fill="#004358"/>
<path d="M23.1483 9.47262L23.7388 9.47632L23.7797 2.94467L23.1892 2.94098L23.1483 9.47262Z" fill="#F2F2F2"/>
<g style="mix-blend-mode:multiply" opacity="0.3">
<path d="M20.7927 22.6473L20.84 15.0898L22.3309 15.0991L22.2835 22.6566L21.8998 22.6542L21.8629 28.5438L22.2467 28.5462L22.2343 30.5315L20.7434 30.5222L20.7558 28.5368L21.1396 28.5392L21.1765 22.6497L20.7927 22.6473Z" fill="#583200"/>
</g>
<path d="M22.8063 14.6075L24.0093 14.615L24.0503 8.06121L22.8473 8.05368L22.8063 14.6075Z" fill="#004358"/>
<path d="M21.4032 2.92973L22.6062 2.93726L22.6141 1.66783L21.4111 1.6603L21.4032 2.92973Z" fill="#004358"/>
<path d="M21.6649 9.46335L22.2554 9.46704L22.2963 2.9354L21.7058 2.9317L21.6649 9.46335Z" fill="#F2F2F2"/>
<path d="M21.3302 14.5982L22.5332 14.6057L22.5742 8.05193L21.3712 8.0444L21.3302 14.5982Z" fill="#004358"/>
<path d="M21.8281 31.7172L23.319 31.7266L23.3387 28.5825L21.8478 28.5732L21.8281 31.7172Z" fill="#004358"/>
<path d="M22.2243 28.5755L22.955 28.5801L23.0014 21.1554L22.2708 21.1508L22.2243 28.5755Z" fill="#F2F2F2"/>
<path d="M21.8843 22.7573L23.3751 22.7666L23.4218 15.3124L21.931 15.3031L21.8843 22.7573Z" fill="#004358"/>
<path d="M20.785 15.6134L24.5564 15.637L24.5629 14.5963L20.7915 14.5727L20.785 15.6134Z" fill="#004358"/>
<path d="M20.865 1.65696L24.6511 1.68066L24.6544 1.16404L20.8682 1.14034L20.865 1.65696Z" fill="#004358"/>
<g style="mix-blend-mode:multiply" opacity="0.3">
<path d="M15.6265 59.1419C15.7713 59.1428 15.9099 59.2012 16.0117 59.3043C16.1134 59.4074 16.1701 59.5466 16.1692 59.6915L16.1581 61.4628L19.8766 65.2207C19.9427 65.3278 19.9698 65.4544 19.9533 65.5792C19.9368 65.7039 19.8777 65.8192 19.786 65.9054C19.6944 65.9916 19.5757 66.0435 19.4502 66.0524C19.3246 66.0612 19.1999 66.0264 19.097 65.9539L15.0632 61.8766L15.077 59.6625C15.0837 59.5216 15.1445 59.3886 15.247 59.2916C15.3494 59.1945 15.4854 59.1409 15.6265 59.1419Z" fill="#583200"/>
</g>
<path d="M18.9151 62.0188L20.1033 62.0262L20.0812 65.5541C20.0807 65.6322 20.0647 65.7095 20.0341 65.7814C20.0036 65.8534 19.959 65.9185 19.903 65.9731C19.8471 66.0277 19.7808 66.0706 19.7082 66.0994C19.6355 66.1281 19.5578 66.1422 19.4797 66.1407C19.3231 66.1398 19.1733 66.0766 19.0633 65.9652C18.9533 65.8538 18.892 65.7032 18.893 65.5466L18.9151 62.0188Z" fill="#004358"/>
<path d="M20.09 64.1369L20.1033 62.0261L18.915 62.0187L18.9018 64.1295C18.9013 64.2156 18.935 64.2984 18.9955 64.3597C19.056 64.421 19.1384 64.4557 19.2245 64.4563L19.7633 64.4596C19.8494 64.4602 19.9322 64.4265 19.9935 64.366C20.0548 64.3054 20.0895 64.2231 20.09 64.1369Z" fill="#668E9B"/>
<path d="M16.856 38.4172L14.9814 38.4055C14.94 38.4052 14.8992 38.3967 14.8612 38.3804C14.8232 38.3642 14.7888 38.3404 14.7601 38.3107C14.7314 38.2809 14.709 38.2458 14.6941 38.2072C14.6792 38.1686 14.6721 38.1275 14.6734 38.0862C14.6739 38.004 14.707 37.9253 14.7655 37.8676C14.824 37.8098 14.9031 37.7776 14.9853 37.7781L16.8599 37.7899C16.9012 37.7891 16.9423 37.7967 16.9807 37.8121C17.019 37.8274 17.0539 37.8503 17.0833 37.8794C17.1127 37.9085 17.136 37.9431 17.1518 37.9813C17.1676 38.0195 17.1756 38.0605 17.1753 38.1018C17.1748 38.186 17.1409 38.2665 17.081 38.3257C17.0211 38.3848 16.9401 38.4177 16.856 38.4172Z" fill="#004358"/>
<path d="M19.7565 38.4353L17.8818 38.4236C17.8402 38.4233 17.799 38.4149 17.7605 38.3987C17.7221 38.3825 17.6873 38.3589 17.658 38.3292C17.6287 38.2996 17.6056 38.2644 17.5899 38.2258C17.5742 38.1872 17.5662 38.1459 17.5665 38.1042C17.5667 38.0629 17.5752 38.022 17.5915 37.984C17.6078 37.946 17.6315 37.9117 17.6612 37.883C17.691 37.8543 17.7262 37.8318 17.7647 37.8169C17.8033 37.802 17.8445 37.795 17.8858 37.7962L19.7604 37.808C19.8426 37.8085 19.9212 37.8417 19.979 37.9001C20.0368 37.9586 20.0689 38.0377 20.0684 38.1199C20.0692 38.1612 20.0616 38.2023 20.0462 38.2407C20.0309 38.279 20.0079 38.3139 19.9789 38.3433C19.9498 38.3727 19.9152 38.396 19.877 38.4118C19.8388 38.4276 19.7978 38.4356 19.7565 38.4353Z" fill="#004358"/>
<path d="M16.8488 39.5612L14.9742 39.5494C14.892 39.5489 14.8133 39.5158 14.7555 39.4573C14.6978 39.3988 14.6656 39.3197 14.6661 39.2375C14.6654 39.1962 14.673 39.1551 14.6883 39.1167C14.7037 39.0784 14.7266 39.0435 14.7557 39.0141C14.7847 38.9847 14.8194 38.9614 14.8576 38.9456C14.8958 38.9298 14.9368 38.9218 14.9781 38.9221L16.8527 38.9338C16.8944 38.9341 16.9356 38.9426 16.974 38.9587C17.0124 38.9749 17.0472 38.9985 17.0765 39.0282C17.1058 39.0578 17.129 39.093 17.1447 39.1316C17.1604 39.1702 17.1683 39.2115 17.1681 39.2532C17.1678 39.2945 17.1593 39.3354 17.143 39.3734C17.1268 39.4114 17.103 39.4457 17.0733 39.4744C17.0435 39.5031 17.0084 39.5256 16.9698 39.5405C16.9312 39.5554 16.8901 39.5624 16.8488 39.5612Z" fill="#004358"/>
<path d="M19.7493 39.5793L17.8746 39.5675C17.8333 39.5683 17.7923 39.5607 17.7539 39.5453C17.7155 39.53 17.6806 39.5071 17.6512 39.478C17.6218 39.4489 17.5986 39.4143 17.5828 39.3761C17.567 39.3379 17.559 39.2969 17.5592 39.2556C17.5595 39.2139 17.568 39.1727 17.5841 39.1343C17.6003 39.0959 17.6239 39.061 17.6536 39.0317C17.6832 39.0025 17.7184 38.9793 17.757 38.9636C17.7956 38.9479 17.8369 38.9399 17.8786 38.9402L19.7532 38.9519C19.7945 38.9522 19.8354 38.9607 19.8734 38.977C19.9114 38.9932 19.9457 39.017 19.9744 39.0467C20.0031 39.0765 20.0256 39.1116 20.0405 39.1502C20.0554 39.1888 20.0624 39.2299 20.0612 39.2712C20.0607 39.3534 20.0275 39.4321 19.969 39.4899C19.9105 39.5476 19.8315 39.5798 19.7493 39.5793Z" fill="#004358"/>
<path d="M16.8416 40.7125L14.967 40.7008C14.8848 40.7003 14.8061 40.6671 14.7483 40.6086C14.6906 40.5501 14.6584 40.4711 14.6589 40.3889C14.6582 40.3475 14.6657 40.3065 14.6811 40.2681C14.6965 40.2297 14.7194 40.1948 14.7485 40.1655C14.7775 40.1361 14.8122 40.1128 14.8504 40.097C14.8886 40.0812 14.9296 40.0732 14.9709 40.0735L16.8455 40.0852C16.9297 40.0857 17.0102 40.1197 17.0693 40.1796C17.1285 40.2394 17.1614 40.3204 17.1609 40.4045C17.1606 40.4459 17.1521 40.4867 17.1358 40.5247C17.1196 40.5627 17.0958 40.5971 17.0661 40.6258C17.0363 40.6545 17.0012 40.6769 16.9626 40.6918C16.924 40.7067 16.8829 40.7138 16.8416 40.7125Z" fill="#004358"/>
<path d="M19.7421 40.7306L17.8674 40.7189C17.8261 40.7196 17.785 40.7121 17.7467 40.6967C17.7083 40.6813 17.6734 40.6584 17.644 40.6294C17.6146 40.6003 17.5914 40.5656 17.5756 40.5274C17.5598 40.4892 17.5518 40.4483 17.552 40.4069C17.5523 40.3653 17.5608 40.324 17.5769 40.2856C17.5931 40.2472 17.6167 40.2124 17.6464 40.1831C17.676 40.1538 17.7112 40.1307 17.7498 40.115C17.7884 40.0993 17.8297 40.0913 17.8714 40.0916L19.746 40.1033C19.7873 40.1036 19.8282 40.1121 19.8662 40.1283C19.9042 40.1446 19.9385 40.1683 19.9672 40.1981C19.9959 40.2278 20.0184 40.263 20.0333 40.3016C20.0482 40.3401 20.0552 40.3813 20.054 40.4226C20.0535 40.5048 20.0203 40.5835 19.9618 40.6412C19.9033 40.699 19.8243 40.7312 19.7421 40.7306Z" fill="#004358"/>
<path d="M28.1997 38.4882L30.0374 38.4997C30.1216 38.5002 30.2025 38.4673 30.2624 38.4081C30.3223 38.349 30.3562 38.2685 30.3567 38.1843C30.357 38.143 30.349 38.102 30.3332 38.0638C30.3174 38.0256 30.2941 37.991 30.2647 37.9619C30.2354 37.9328 30.2005 37.9099 30.1621 37.8946C30.1237 37.8792 30.0827 37.8716 30.0413 37.8724L28.1667 37.8606C28.0845 37.8601 28.0054 37.8923 27.947 37.95C27.8885 38.0078 27.8553 38.0865 27.8548 38.1687C27.8531 38.2133 27.8611 38.2577 27.8782 38.299C27.8953 38.3402 27.9211 38.3773 27.9539 38.4076C27.9866 38.4379 28.0256 38.4609 28.068 38.4748C28.1104 38.4887 28.1553 38.4933 28.1997 38.4882Z" fill="#004358"/>
<path d="M25.2991 38.4699L27.1811 38.4817C27.2225 38.482 27.2635 38.474 27.3017 38.4582C27.3399 38.4424 27.3745 38.4191 27.4036 38.3897C27.4326 38.3603 27.4555 38.3254 27.4709 38.287C27.4863 38.2487 27.4938 38.2076 27.4931 38.1663C27.4936 38.0841 27.4615 38.005 27.4037 37.9465C27.3459 37.888 27.2673 37.8549 27.1851 37.8544L25.3031 37.8426C25.2209 37.8421 25.1418 37.8742 25.0833 37.932C25.0248 37.9898 24.9917 38.0684 24.9912 38.1506C24.9899 38.1919 24.9969 38.2331 25.0118 38.2717C25.0267 38.3102 25.0492 38.3454 25.0779 38.3752C25.1066 38.4049 25.141 38.4286 25.1789 38.4449C25.2169 38.4612 25.2578 38.4697 25.2991 38.4699Z" fill="#004358"/>
<path d="M28.1925 39.6323L30.0302 39.6438C30.0715 39.645 30.1127 39.638 30.1512 39.6231C30.1898 39.6082 30.225 39.5857 30.2547 39.557C30.2845 39.5283 30.3082 39.494 30.3245 39.456C30.3407 39.418 30.3492 39.3771 30.3495 39.3358C30.3497 39.2941 30.3418 39.2528 30.3261 39.2142C30.3104 39.1756 30.2872 39.1404 30.258 39.1108C30.2287 39.0811 30.1938 39.0575 30.1554 39.0413C30.117 39.0252 30.0758 39.0167 30.0341 39.0164L28.1595 39.0047C28.1182 39.0044 28.0772 39.0124 28.039 39.0282C28.0008 39.044 27.9662 39.0673 27.9371 39.0967C27.908 39.1261 27.8851 39.161 27.8697 39.1993C27.8544 39.2377 27.8468 39.2788 27.8475 39.3201C27.847 39.3641 27.8557 39.4077 27.8733 39.4481C27.8909 39.4884 27.9169 39.5246 27.9495 39.5541C27.9821 39.5836 28.0207 39.6059 28.0626 39.6193C28.1045 39.6328 28.1487 39.6372 28.1925 39.6323Z" fill="#004358"/>
<path d="M25.2919 39.614L27.1739 39.6257C27.2562 39.6263 27.3352 39.5941 27.3937 39.5363C27.4522 39.4786 27.4853 39.3999 27.4859 39.3177C27.4871 39.2764 27.4801 39.2352 27.4652 39.1967C27.4503 39.1581 27.4278 39.1229 27.3991 39.0932C27.3704 39.0634 27.3361 39.0397 27.2981 39.0234C27.2601 39.0072 27.2192 38.9987 27.1779 38.9984L25.2959 38.9866C25.2545 38.9864 25.2136 38.9944 25.1754 39.0102C25.1372 39.026 25.1025 39.0492 25.0734 39.0786C25.0444 39.108 25.0215 39.1429 25.0061 39.1813C24.9907 39.2197 24.9832 39.2607 24.9839 39.302C24.9834 39.3843 25.0156 39.4633 25.0733 39.5218C25.1311 39.5803 25.2097 39.6134 25.2919 39.614Z" fill="#004358"/>
<path d="M28.1853 40.7834L30.023 40.7949C30.0643 40.7961 30.1055 40.7891 30.144 40.7742C30.1826 40.7593 30.2178 40.7368 30.2475 40.7081C30.2773 40.6794 30.301 40.6451 30.3173 40.6071C30.3335 40.5691 30.342 40.5282 30.3423 40.4869C30.3428 40.4027 30.3099 40.3218 30.2507 40.2619C30.1916 40.202 30.1111 40.1681 30.0269 40.1675L28.1523 40.1558C28.111 40.1555 28.07 40.1635 28.0318 40.1793C27.9936 40.1951 27.959 40.2184 27.9299 40.2478C27.9008 40.2772 27.8779 40.3121 27.8625 40.3505C27.8472 40.3888 27.8396 40.4299 27.8403 40.4712C27.8397 40.5152 27.8485 40.5589 27.8661 40.5992C27.8837 40.6395 27.9097 40.6757 27.9423 40.7052C27.9749 40.7347 28.0135 40.757 28.0554 40.7705C28.0973 40.7839 28.1415 40.7883 28.1853 40.7834Z" fill="#004358"/>
<path d="M25.2847 40.7653L27.1667 40.7771C27.249 40.7776 27.328 40.7455 27.3865 40.6877C27.445 40.6299 27.4781 40.5513 27.4787 40.4691C27.4799 40.4278 27.4729 40.3866 27.458 40.3481C27.4431 40.3095 27.4206 40.2743 27.3919 40.2445C27.3632 40.2148 27.3289 40.1911 27.2909 40.1748C27.2529 40.1585 27.212 40.15 27.1707 40.1498L25.2887 40.138C25.2473 40.1377 25.2064 40.1457 25.1682 40.1615C25.13 40.1773 25.0953 40.2006 25.0662 40.23C25.0372 40.2594 25.0143 40.2943 24.9989 40.3327C24.9835 40.371 24.976 40.4121 24.9767 40.4534C24.9762 40.5356 25.0084 40.6147 25.0661 40.6732C25.1239 40.7317 25.2025 40.7648 25.2847 40.7653Z" fill="#004358"/>
<g style="mix-blend-mode:multiply" opacity="0.3">
<path d="M23.8198 46.0556C24.0458 46.2849 24.324 46.4561 24.6306 46.5544C24.9372 46.6527 25.263 46.6753 25.5802 46.6202L28.0078 49.0784L29.6194 47.4868L27.1918 45.0286C27.2566 44.6914 27.2332 44.3432 27.1238 44.0177C27.0144 43.6923 26.8228 43.4006 26.5675 43.1709C26.3122 42.9413 26.0019 42.7816 25.6667 42.7071C25.3315 42.6327 24.9828 42.6462 24.6543 42.7462C24.3258 42.8463 24.0288 43.0295 23.792 43.2781C23.5551 43.5267 23.3866 43.8323 23.3026 44.1653C23.2186 44.4982 23.2221 44.8472 23.3128 45.1784C23.4034 45.5096 23.578 45.8118 23.8198 46.0556Z" fill="#583200"/>
</g>
<path d="M28.8228 46.227C27.6856 46.2199 26.758 47.136 26.7508 48.2732C26.7437 49.4105 27.6598 50.3381 28.7971 50.3453C29.9343 50.3524 30.862 49.4363 30.8691 48.299C30.8762 47.1618 29.9601 46.2341 28.8228 46.227Z" fill="#004358"/>
<path d="M28.8169 47.1569C28.1933 47.153 27.6846 47.6554 27.6807 48.279C27.6768 48.9027 28.1792 49.4114 28.8028 49.4153C29.4264 49.4192 29.9352 48.9168 29.9391 48.2932C29.943 47.6695 29.4406 47.1608 28.8169 47.1569Z" fill="#668E9B"/>
<path d="M27.9234 33.0913L31.0453 33.1108L31.0498 32.3949L27.9279 32.3754L27.9234 33.0913Z" fill="#D60F0F"/>
<path d="M14.063 33.0044L17.1849 33.0239L17.1894 32.308L14.0675 32.2885L14.063 33.0044Z" fill="#D60F0F"/>
<path d="M32.308 51.8803L32.9736 52.8587C33.0112 52.9181 33.0671 52.9636 33.1328 52.9884C33.1985 53.0133 33.2705 53.0162 33.338 52.9966C33.4055 52.9771 33.4649 52.9362 33.5071 52.8801C33.5494 52.8239 33.5723 52.7556 33.5725 52.6853L33.6439 41.2753L32.3745 41.2673L32.308 51.8803Z" fill="#2CA3E8"/>
<path d="M12.4917 51.7562L11.8138 52.7631C11.7737 52.8203 11.7167 52.8634 11.6507 52.8863C11.5848 52.9092 11.5133 52.9108 11.4464 52.8908C11.3795 52.8707 11.3206 52.8301 11.2782 52.7747C11.2357 52.7193 11.2117 52.6519 11.2097 52.5821L11.2814 41.1352L12.5582 41.1432L12.4917 51.7562Z" fill="#2CA3E8"/>
<path d="M13.2519 51.761L12.2777 54.1167C12.2566 54.1661 12.2481 54.2201 12.253 54.2736C12.2579 54.3272 12.276 54.3787 12.3057 54.4235C12.3354 54.4683 12.3758 54.505 12.4233 54.5304C12.4707 54.5558 12.5237 54.5689 12.5774 54.5688L32.1502 54.6913C32.204 54.6921 32.2571 54.6796 32.3049 54.6549C32.3526 54.6301 32.3934 54.5939 32.4237 54.5494C32.454 54.505 32.4727 54.4537 32.4783 54.4002C32.4839 54.3467 32.4761 54.2927 32.4556 54.243L31.5036 51.8752L13.2519 51.761Z" fill="#2CA3E8"/>
<path d="M12.3401 40.6031L12.5615 40.6045L12.5772 38.1025L12.3558 38.1012L12.3401 40.6031Z" fill="#004358"/>
<path d="M11.698 40.5992L11.9194 40.6006L11.9351 38.0986L11.7137 38.0973L11.698 40.5992Z" fill="#004358"/>
<path d="M11.0633 40.595L11.2847 40.5964L11.3003 38.0945L11.0789 38.0931L11.0633 40.595Z" fill="#004358"/>
<path d="M32.3778 40.7286L32.5992 40.73L32.6149 38.228L32.3935 38.2266L32.3778 40.7286Z" fill="#004358"/>
<path d="M33.0125 40.7325L33.2339 40.7339L33.2495 38.2319L33.0281 38.2306L33.0125 40.7325Z" fill="#004358"/>
<path d="M33.6472 40.7364L33.8687 40.7378L33.8843 38.2358L33.6629 38.2345L33.6472 40.7364Z" fill="#004358"/>
<path d="M15.0117 33.5566L30.0087 33.6504C30.1424 33.6588 30.2732 33.6935 30.3936 33.7525C30.5139 33.8116 30.6214 33.8938 30.7099 33.9944C30.7985 34.0951 30.8662 34.2122 30.9094 34.3391C30.9525 34.4661 30.9702 34.6002 30.9614 34.734C30.9738 35.0038 30.8793 35.2677 30.6985 35.4683C30.5176 35.6689 30.2648 35.7901 29.9952 35.8055L14.9982 35.7116C14.7301 35.691 14.4808 35.5659 14.304 35.3632C14.1272 35.1606 14.037 34.8966 14.0529 34.6281C14.0384 34.359 14.1312 34.0951 14.3109 33.8942C14.4906 33.6934 14.7426 33.572 15.0117 33.5566Z" fill="#2CA3E8"/>
<g style="mix-blend-mode:overlay">
<path d="M32.3439 46.1458L32.308 51.8803L32.9736 52.8587C33.0112 52.9181 33.0671 52.9636 33.1328 52.9884C33.1985 53.0133 33.2705 53.0162 33.338 52.9966C33.4055 52.9771 33.4649 52.9362 33.5071 52.8801C33.5494 52.8239 33.5723 52.7556 33.5725 52.6853L33.6213 44.8843L32.3439 46.1458Z" fill="#2CA3E8"/>
</g>
<g style="mix-blend-mode:overlay">
<path d="M11.2484 46.3974L11.2097 52.5821C11.2117 52.6519 11.2357 52.7193 11.2782 52.7747C11.3206 52.8301 11.3795 52.8707 11.4464 52.8908C11.5133 52.9108 11.5848 52.9092 11.6507 52.8863C11.7167 52.8634 11.7737 52.8203 11.8138 52.7631L12.4917 51.7562L12.5333 45.1138L11.2484 46.3974Z" fill="#2CA3E8"/>
</g>
<g style="mix-blend-mode:overlay">
<path d="M31.5405 51.8754L26.5735 51.8443L23.744 54.6387L32.1502 54.6913C32.204 54.6921 32.2571 54.6796 32.3049 54.6549C32.3526 54.6301 32.3934 54.5939 32.4237 54.5494C32.454 54.505 32.4727 54.4537 32.4783 54.4002C32.4839 54.3467 32.4761 54.2927 32.4556 54.243L31.5405 51.8754Z" fill="#2CA3E8"/>
</g>
<g style="mix-blend-mode:overlay">
<path d="M12.5774 54.5689L15.5665 54.5876L18.396 51.7933L13.2298 51.7609L12.2555 54.1166C12.2335 54.1679 12.225 54.2239 12.2309 54.2794C12.2368 54.3349 12.2569 54.3879 12.2893 54.4333C12.3216 54.4788 12.3651 54.5151 12.4156 54.5388C12.4661 54.5626 12.5218 54.5729 12.5774 54.5689Z" fill="#2CA3E8"/>
</g>
<g style="mix-blend-mode:overlay">
<path d="M22.0464 35.7704L29.995 35.8202C30.2593 35.7909 30.5036 35.6656 30.6815 35.468C30.8595 35.2705 30.9587 35.0145 30.9604 34.7486C30.962 34.4828 30.866 34.2256 30.6905 34.0258C30.5151 33.8261 30.2724 33.6977 30.0085 33.6651L24.2149 33.6288C23.4871 34.3476 22.7666 35.0811 22.0464 35.7704Z" fill="#2CA3E8"/>
</g>
<g style="mix-blend-mode:overlay">
<path d="M16.0449 33.5631L15.0264 33.5567C14.7574 33.5721 14.5054 33.6935 14.3256 33.8944C14.1459 34.0952 14.0531 34.3591 14.0676 34.6283C14.0644 34.8714 14.1378 35.1094 14.2774 35.3086C14.8566 34.7439 15.4434 34.1571 16.0449 33.5631Z" fill="#2CA3E8"/>
</g>
<path d="M29.3677 61.9254L29.4589 60.9258L28.4593 60.8347L28.3681 61.8343L29.3677 61.9254Z" fill="#004358"/>
<path d="M29.5406 60.0001L29.6317 59.0005L28.6321 58.9094L28.541 59.909L29.5406 60.0001Z" fill="#004358"/>
<path d="M15.3952 61.8379L16.3959 61.7593L16.3173 60.7586L15.3166 60.8372L15.3952 61.8379Z" fill="#004358"/>
<path d="M15.2449 59.9162L16.2456 59.8376L16.167 58.837L15.1663 58.9156L15.2449 59.9162Z" fill="#004358"/>
<path d="M27.2504 76.9428C27.253 76.5278 27.4203 76.1309 27.7156 75.8393C28.0108 75.5477 28.4098 75.3854 28.8248 75.388C29.2398 75.3906 29.6367 75.5579 29.9283 75.8532C30.2199 76.1484 30.3822 76.5474 30.3796 76.9624L27.2504 76.9428Z" fill="#FFE11A"/>
<path d="M27.9957 76.9476C27.9976 76.7939 28.0302 76.6421 28.0917 76.5012C28.1532 76.3603 28.2422 76.2331 28.3537 76.1272C28.4651 76.0213 28.5966 75.9387 28.7404 75.8844C28.8842 75.8301 29.0375 75.8052 29.1911 75.8111C29.4728 75.8009 29.7482 75.8956 29.9639 76.077C30.1796 76.2584 30.3202 76.5134 30.3585 76.7927C30.3223 76.3926 30.1328 76.022 29.8298 75.7583C29.5268 75.4946 29.1336 75.3582 28.7323 75.3776C28.3311 75.397 27.9529 75.5707 27.6767 75.8624C27.4005 76.1541 27.2477 76.5413 27.2503 76.943L27.9957 76.9476Z" fill="#003242"/>
<path d="M27.5825 76.9452C27.5804 77.2774 28.1175 77.5464 28.7817 77.5506C29.446 77.5547 29.9864 77.2924 29.9885 76.9603L27.5825 76.9452Z" fill="#FFF4B3"/>
<path d="M14.2018 76.8613C14.1884 76.6472 14.2192 76.4326 14.2922 76.2309C14.3653 76.0292 14.479 75.8447 14.6264 75.6888C14.7738 75.5329 14.9516 75.409 15.1489 75.3247C15.3462 75.2405 15.5587 75.1977 15.7732 75.199C15.9877 75.2004 16.1997 75.2458 16.3959 75.3325C16.5921 75.4192 16.7684 75.5454 16.9138 75.7031C17.0592 75.8608 17.1706 76.0468 17.2412 76.2494C17.3117 76.452 17.3398 76.6669 17.3237 76.8808L14.2018 76.8613Z" fill="#FFE11A"/>
<path d="M14.9399 76.866C14.9547 76.5733 15.0766 76.2962 15.2824 76.0874C15.4882 75.8786 15.7635 75.7527 16.056 75.7335C16.3485 75.7144 16.6379 75.8034 16.8691 75.9837C17.1002 76.1639 17.2572 76.4228 17.31 76.7111C17.2738 76.3111 17.0844 75.9405 16.7813 75.6768C16.4783 75.4131 16.0851 75.2767 15.6839 75.2961C15.2826 75.3155 14.9044 75.4892 14.6282 75.7809C14.3521 76.0726 14.1993 76.4597 14.2018 76.8614L14.9399 76.866Z" fill="#003242"/>
<path d="M14.5635 76.8637C14.5614 77.1959 15.0911 77.4649 15.7554 77.469C16.4196 77.4732 16.96 77.2109 16.9621 76.8788L14.5635 76.8637Z" fill="#FFF4B3"/>
<path d="M17.8625 47.4279C17.516 47.4258 17.2334 47.7049 17.2312 48.0513C17.229 48.3978 17.5081 48.6804 17.8546 48.6826C18.2011 48.6848 18.4837 48.4057 18.4859 48.0592C18.488 47.7127 18.2089 47.4301 17.8625 47.4279Z" fill="#004358"/>
<path d="M17.8851 43.8042C18.0095 43.8049 18.1308 43.8427 18.2337 43.9126C18.3366 43.9825 18.4164 44.0814 18.4629 44.1968C18.5094 44.3121 18.5206 44.4387 18.4951 44.5605C18.4695 44.6822 18.4083 44.7936 18.3193 44.8804C18.2303 44.9673 18.1174 45.0258 17.9951 45.0484C17.8728 45.071 17.7465 45.0567 17.6323 45.0074C17.5181 44.9581 17.4212 44.8759 17.3538 44.7713C17.2864 44.6668 17.2516 44.5445 17.2539 44.4202C17.2568 44.2551 17.3248 44.0978 17.4429 43.9825C17.5611 43.8672 17.72 43.8031 17.8851 43.8042Z" fill="#004358"/>
</g>
<defs>
<filter id="filter0_d_30_5337" x="0.748291" y="0.11084" width="49.5242" height="84.4399" filterUnits="userSpaceOnUse" color-interpolation-filters="sRGB">
<feFlood flood-opacity="0" result="BackgroundImageFix"/>
<feColorMatrix in="SourceAlpha" type="matrix" values="0 0 0 0 0 0 0 0 0 0 0 0 0 0 0 0 0 0 127 0" result="hardAlpha"/>
<feOffset dx="3" dy="3"/>
<feGaussianBlur stdDeviation="2"/>
<feComposite in2="hardAlpha" operator="out"/>
<feColorMatrix type="matrix" values="0 0 0 0 0 0 0 0 0 0 0 0 0 0 0 0 0 0 0.25 0"/>
<feBlend mode="normal" in2="BackgroundImageFix" result="effect1_dropShadow_30_5337"/>
<feBlend mode="normal" in="SourceGraphic" in2="effect1_dropShadow_30_5337" result="shape"/>
</filter>
</defs>
</svg>
                    