<svg width="47" height="111" viewBox="0 0 47 111" fill="none" xmlns="http://www.w3.org/2000/svg">
<g filter="url(#filter0_d_30_7345)">
<path d="M10.6954 62.1586C9.26718 61.9009 7.80434 61.9009 6.37607 62.1586C6.15098 62.2013 5.94766 62.3208 5.80074 62.4966C5.65383 62.6724 5.5724 62.8937 5.57031 63.1228V69.8661C5.57113 70.0955 5.65211 70.3175 5.79924 70.4936C5.94637 70.6696 6.15041 70.7888 6.37607 70.8304C7.80434 71.088 9.26718 71.088 10.6954 70.8304C10.9217 70.79 11.1265 70.6712 11.2738 70.4949C11.4212 70.3185 11.5017 70.0959 11.5012 69.8661V63.1228C11.5004 62.8934 11.4194 62.6714 11.2723 62.4953C11.1251 62.3193 10.9211 62.2001 10.6954 62.1586Z" fill="#D6D6D6"/>
<path d="M10.9002 60.4814C10.1536 60.129 9.33826 59.9463 8.51267 59.9463C7.68709 59.9463 6.87174 60.129 6.12512 60.4814V72.5083C6.87084 72.8638 7.68654 73.0483 8.51267 73.0483C9.3388 73.0483 10.1545 72.8638 10.9002 72.5083V60.4814Z" fill="#004358"/>
<path d="M9.37453 60.7321C8.80489 60.6529 8.22699 60.6529 7.65735 60.7321L7.45922 60.0717C7.00221 60.1636 6.55848 60.3123 6.13831 60.5142V60.3359C6.60117 60.1066 7.09516 59.9463 7.60452 59.8604L7.80265 60.5208C8.28074 60.4613 8.76436 60.4613 9.24245 60.5208C9.3151 60.2896 9.38114 60.0651 9.44718 59.8604C9.95627 59.9474 10.4501 60.1076 10.9134 60.3359V60.5142C10.4926 60.3137 10.0491 60.1651 9.59249 60.0717L9.37453 60.7321Z" fill="#003242"/>
<path d="M9.37453 61.8616C8.80405 61.7955 8.22783 61.7955 7.65735 61.8616L7.45922 61.2011C7.00752 61.2728 6.56473 61.3924 6.13831 61.5577V61.3794C6.60911 61.1896 7.10158 61.0587 7.60452 60.9897L7.80265 61.6502C8.28146 61.604 8.76363 61.604 9.24245 61.6502C9.3151 61.419 9.38114 61.1879 9.44718 60.9897C9.94995 61.0595 10.4423 61.1904 10.9134 61.3794V61.5577C10.4866 61.3934 10.0439 61.2739 9.59249 61.2011L9.37453 61.8616Z" fill="#003242"/>
<path d="M9.37453 63.0044C8.80307 62.9581 8.22881 62.9581 7.65735 63.0044L7.45922 62.3439C7.01163 62.4008 6.56972 62.4958 6.13831 62.6279V62.4496C6.6148 62.295 7.10624 62.1909 7.60452 62.1392C7.67056 62.3637 7.7366 62.5949 7.80265 62.8326C8.28176 62.793 8.76333 62.793 9.24245 62.8326C9.3151 62.5949 9.38114 62.3637 9.44718 62.1392C9.94532 62.1918 10.4367 62.2958 10.9134 62.4496V62.6279C10.4818 62.4967 10.0399 62.4017 9.59249 62.3439L9.37453 63.0044Z" fill="#003242"/>
<path d="M9.37453 64.1201C8.80654 64.1201 8.22534 64.1201 7.65735 64.1201L7.45922 63.4267C7.01487 63.469 6.57367 63.5396 6.13831 63.638V63.4597C6.62022 63.3443 7.11047 63.267 7.60452 63.2285L7.80265 63.889C8.27817 63.889 8.76692 63.889 9.24245 63.889C9.3151 63.6578 9.38114 63.4267 9.44718 63.2285C9.94117 63.2675 10.4314 63.3448 10.9134 63.4597V63.6644C10.4779 63.5668 10.0367 63.4962 9.59249 63.4531L9.37453 64.1201Z" fill="#003242"/>
<path d="M9.37453 65.2561C8.80654 65.2561 8.22534 65.2561 7.65735 65.2561L7.45922 64.556C7.0035 64.556 6.55439 64.6221 6.13831 64.6881V64.5098C6.62372 64.431 7.11327 64.3803 7.60452 64.3579L7.80265 65.058C8.27817 65.058 8.76692 65.058 9.24245 65.058C9.3151 64.8202 9.38114 64.5891 9.44718 64.3579C9.93841 64.3807 10.4279 64.4314 10.9134 64.5098V64.6881C10.4841 64.6221 10.035 64.5825 9.59249 64.556L9.37453 65.2561Z" fill="#003242"/>
<path d="M9.37453 66.3855H7.65735L7.45922 65.6788C7.0035 65.6788 6.55439 65.6788 6.13831 65.7317V65.5534C6.60723 65.5203 7.09597 65.5005 7.60452 65.4873L7.80265 66.194C8.27817 66.194 8.76692 66.194 9.24245 66.194C9.3151 65.9562 9.38114 65.7185 9.44718 65.4873C9.94913 65.4873 10.4445 65.5203 10.9134 65.5534V65.7317C10.4841 65.7317 10.035 65.6921 9.59249 65.6788L9.37453 66.3855Z" fill="#003242"/>
<path d="M9.37453 67.5152C8.80654 67.5152 8.22534 67.5152 7.65735 67.5152L7.45922 66.8019C7.0035 66.8019 6.55439 66.8019 6.13831 66.8019V66.6235H7.60452L7.80265 67.3434H9.24245C9.3151 67.0991 9.38114 66.8613 9.44718 66.6235H10.9134V66.8019C10.4841 66.8019 10.035 66.8019 9.59249 66.8019L9.37453 67.5152Z" fill="#003242"/>
<path d="M9.37453 68.6445C8.80262 68.6776 8.22926 68.6776 7.65735 68.6445L7.45922 67.9313C7.0035 67.9313 6.55439 67.8784 6.13831 67.8322V67.6274C6.60723 67.6671 7.09597 67.7001 7.60452 67.7133L7.80265 68.4332C8.27817 68.4332 8.76692 68.4332 9.24245 68.4332C9.3151 68.1954 9.38114 67.9577 9.44718 67.7133C9.94913 67.7133 10.4445 67.6671 10.9134 67.6274V67.8058C10.4841 67.852 10.035 67.885 9.59249 67.9048L9.37453 68.6445Z" fill="#003242"/>
<path d="M9.37453 69.7806C8.80283 69.8203 8.22905 69.8203 7.65735 69.7806L7.45922 69.0541C7.01606 69.0215 6.57507 68.9642 6.13831 68.8824V68.7041C6.62345 68.7874 7.113 68.8425 7.60452 68.8692L7.80265 69.5957C8.28201 69.6287 8.76308 69.6287 9.24245 69.5957C9.3151 69.3513 9.38114 69.1136 9.44718 68.8692C9.93867 68.8422 10.4282 68.787 10.9134 68.7041V68.8824C10.4765 68.9636 10.0356 69.0209 9.59249 69.0541L9.37453 69.7806Z" fill="#003242"/>
<path d="M9.37453 70.9297C8.80368 70.9892 8.2282 70.9892 7.65735 70.9297L7.45922 70.1966C7.01255 70.1508 6.57063 70.0669 6.13831 69.9456V69.7739C6.61985 69.8938 7.11011 69.9755 7.60452 70.0183L7.80265 70.7514C8.28176 70.791 8.76333 70.791 9.24245 70.7514C9.3151 70.507 9.38114 70.2627 9.44718 70.0183C9.94152 69.975 10.4317 69.8933 10.9134 69.7739V69.9456C10.4808 70.0659 10.039 70.1499 9.59249 70.1966L9.37453 70.9297Z" fill="#003242"/>
<path d="M9.37453 72.039C8.80489 72.1183 8.22699 72.1183 7.65735 72.039L7.45922 71.3059C7.00904 71.24 6.56655 71.1294 6.13831 70.9757V70.7974C6.61324 70.9616 7.10502 71.0724 7.60452 71.1276L7.80265 71.8673C8.28146 71.9135 8.76363 71.9135 9.24245 71.8673C9.3151 71.6163 9.38114 71.372 9.44718 71.1276C9.94657 71.0717 10.4383 70.9609 10.9134 70.7974V70.9757C10.4848 71.1282 10.0424 71.2388 9.59249 71.3059L9.37453 72.039Z" fill="#003242"/>
<path d="M9.37453 73.1686C8.80587 73.261 8.22601 73.261 7.65735 73.1686L7.45922 72.4289C7.00448 72.3475 6.56106 72.2122 6.13831 72.026V71.8477C6.6073 72.0469 7.10014 72.1846 7.60452 72.2571L7.80265 72.9969C8.28033 73.0625 8.76476 73.0625 9.24245 72.9969C9.3151 72.7525 9.38114 72.5081 9.44718 72.2571C9.95138 72.1837 10.4441 72.0461 10.9134 71.8477V72.026C10.4902 72.2111 10.0469 72.3463 9.59249 72.4289L9.37453 73.1686Z" fill="#003242"/>
<g style="mix-blend-mode:multiply" opacity="0.5">
<path d="M10.9002 61.4915V60.3159C10.4369 60.0876 9.94309 59.9274 9.434 59.8403C9.434 59.8932 9.40098 59.9526 9.38116 60.012C8.80364 59.9196 8.21508 59.9196 7.63756 60.012C7.63756 59.9526 7.60454 59.8932 7.59133 59.8403C7.08198 59.9263 6.58799 60.0865 6.12512 60.3159V61.4915C7.66015 60.8908 9.36519 60.8908 10.9002 61.4915Z" fill="#003242"/>
</g>
<g style="mix-blend-mode:multiply" opacity="0.5">
<path d="M6.12512 69.9058V72.508C6.59205 72.7301 7.08781 72.8857 7.59794 72.9703L7.65077 73.1684C8.21943 73.2609 8.7993 73.2609 9.36796 73.1684C9.36796 73.1024 9.36796 73.0363 9.4208 72.9703C9.93281 72.8847 10.4306 72.7292 10.9002 72.508V69.9058C9.33487 70.3154 7.69047 70.3154 6.12512 69.9058Z" fill="#003242"/>
</g>
<path d="M10.6954 91.6547C9.26718 91.397 7.80434 91.397 6.37607 91.6547C6.15041 91.6962 5.94637 91.8154 5.79924 91.9914C5.65211 92.1675 5.57113 92.3895 5.57031 92.6189V99.3622C5.5724 99.5913 5.65383 99.8126 5.80074 99.9884C5.94766 100.164 6.15098 100.284 6.37607 100.326C7.80492 100.577 9.26659 100.577 10.6954 100.326C10.9211 100.285 11.1251 100.166 11.2723 99.9897C11.4194 99.8136 11.5004 99.5916 11.5012 99.3622V92.6189C11.5017 92.3891 11.4212 92.1665 11.2738 91.9902C11.1265 91.8138 10.9217 91.695 10.6954 91.6547Z" fill="#D6D6D6"/>
<path d="M10.9002 89.977C10.1545 89.6215 9.3388 89.437 8.51267 89.437C7.68654 89.437 6.87084 89.6215 6.12512 89.977V102.004C6.87174 102.356 7.68709 102.539 8.51267 102.539C9.33826 102.539 10.1536 102.356 10.9002 102.004V89.977Z" fill="#004358"/>
<path d="M9.37453 90.2217C8.80445 90.149 8.22743 90.149 7.65735 90.2217L7.45922 89.5612C7.00163 89.6477 6.55748 89.7942 6.13831 89.9971V89.8188C6.60117 89.5895 7.09516 89.4292 7.60452 89.3433L7.80265 90.0037C8.28074 89.9442 8.76436 89.9442 9.24245 90.0037C9.3151 89.7726 9.38114 89.5414 9.44718 89.3433C9.95627 89.4303 10.4501 89.5905 10.9134 89.8188V89.9971C10.4936 89.7959 10.0496 89.6494 9.59249 89.5612L9.37453 90.2217Z" fill="#003242"/>
<path d="M9.37453 91.3576C8.80405 91.2916 8.22783 91.2916 7.65735 91.3576L7.45922 90.6972C7.00729 90.7711 6.5645 90.8929 6.13831 91.0604V90.8821C6.60885 90.6901 7.10132 90.557 7.60452 90.4858L7.80265 91.1463C8.28146 91.1001 8.76363 91.1001 9.24245 91.1463C9.3151 90.9151 9.38114 90.6906 9.44718 90.4858C9.95021 90.5579 10.4426 90.691 10.9134 90.8821V91.0604C10.4868 90.8942 10.0441 90.7724 9.59249 90.6972L9.37453 91.3576Z" fill="#003242"/>
<path d="M9.37453 92.487C8.80307 92.4408 8.22881 92.4408 7.65735 92.487L7.45922 91.8266C7.01105 91.88 6.56883 91.9751 6.13831 92.1106V91.9323C6.61542 91.7786 7.10654 91.6724 7.60452 91.6152L7.80265 92.3087C8.28201 92.2757 8.76308 92.2757 9.24245 92.3087C9.3151 92.0775 9.38114 91.8464 9.44718 91.6152C9.94505 91.6731 10.4361 91.7792 10.9134 91.9323V92.0643C10.4826 91.93 10.0405 91.835 9.59249 91.7803L9.37453 92.487Z" fill="#003242"/>
<path d="M9.37453 93.6165C8.80262 93.5835 8.22926 93.5835 7.65735 93.6165L7.45922 92.923C7.01502 92.9632 6.57382 93.0315 6.13831 93.1277V92.956C6.62004 92.8384 7.11029 92.7589 7.60452 92.7183L7.80265 93.4183C8.28221 93.3919 8.76288 93.3919 9.24245 93.4183C9.3151 93.1806 9.38114 92.9494 9.44718 92.7183C9.94135 92.7594 10.4316 92.8389 10.9134 92.956V93.1277C10.4777 93.0323 10.0366 92.9639 9.59249 92.923L9.37453 93.6165Z" fill="#003242"/>
<path d="M9.37453 94.7459C8.80654 94.7459 8.22534 94.7459 7.65735 94.7459L7.45922 94.0458C7.0035 94.0458 6.55439 94.1184 6.13831 94.1779V93.9995C6.62414 93.924 7.11352 93.8733 7.60452 93.8477L7.80265 94.5543C8.27817 94.5543 8.76692 94.5543 9.24245 94.5543C9.3151 94.3166 9.38114 94.0788 9.44718 93.8477C9.93816 93.8737 10.4275 93.9244 10.9134 93.9995V94.1779C10.4841 94.1184 10.035 94.0722 9.59249 94.0458L9.37453 94.7459Z" fill="#003242"/>
<path d="M9.37453 95.8819H7.65735L7.45922 95.1752C7.0035 95.1752 6.55439 95.1752 6.13831 95.228V95.0497C6.60723 95.0497 7.09597 94.9903 7.60452 94.9771L7.80265 95.6837H9.24245C9.3151 95.446 9.38114 95.2148 9.44718 94.9771C9.94913 94.9771 10.4445 95.0167 10.9134 95.0497V95.228C10.4841 95.228 10.035 95.1818 9.59249 95.1752L9.37453 95.8819Z" fill="#003242"/>
<path d="M9.37453 97.0112C8.80654 97.0112 8.22534 97.0112 7.65735 97.0112L7.45922 96.2979H6.13831V96.1196H7.60452L7.80265 96.8329H9.24245C9.3151 96.5951 9.38114 96.3574 9.44718 96.1196H10.9134V96.2979H9.59249L9.37453 97.0112Z" fill="#003242"/>
<path d="M9.37453 98.1406C8.80654 98.1406 8.22534 98.1406 7.65735 98.1406L7.45922 97.4207C7.0035 97.4207 6.55439 97.3678 6.13831 97.3282V97.1499C6.60723 97.1895 7.09597 97.2225 7.60452 97.2357L7.80265 97.9557C8.27817 97.9557 8.76692 97.9557 9.24245 97.9557C9.3151 97.7179 9.38114 97.4735 9.44718 97.2357C9.94913 97.2357 10.4445 97.1895 10.9134 97.1499V97.348C10.4841 97.3877 10.035 97.4207 9.59249 97.4405L9.37453 98.1406Z" fill="#003242"/>
<path d="M9.37453 99.2699C8.80307 99.3161 8.22881 99.3161 7.65735 99.2699L7.45922 98.55C7.01592 98.5153 6.57493 98.4558 6.13831 98.3717V98.1934C6.62331 98.2789 7.11287 98.3362 7.60452 98.3651L7.80265 99.0916C8.28221 99.118 8.76288 99.118 9.24245 99.0916C9.3151 98.8472 9.38114 98.6028 9.44718 98.3651C9.9388 98.3359 10.4283 98.2785 10.9134 98.1934V98.3717C10.4767 98.455 10.0357 98.5146 9.59249 98.55L9.37453 99.2699Z" fill="#003242"/>
<path d="M9.37453 100.406C8.80368 100.465 8.2282 100.465 7.65735 100.406L7.45922 99.6725C7.01303 99.6235 6.57137 99.5396 6.13831 99.4215V99.2432C6.61967 99.3653 7.10994 99.4492 7.60452 99.4941L7.80265 100.221C8.28146 100.267 8.76363 100.267 9.24245 100.221C9.3151 99.9829 9.38114 99.7385 9.44718 99.4941C9.94169 99.4487 10.4319 99.3647 10.9134 99.2432V99.4215C10.4801 99.5387 10.0385 99.6225 9.59249 99.6725L9.37453 100.406Z" fill="#003242"/>
<path d="M9.37453 101.535C8.80445 101.608 8.22743 101.608 7.65735 101.535L7.45922 100.795C7.00925 100.732 6.56676 100.623 6.13831 100.472V100.293C6.61412 100.455 7.10556 100.565 7.60452 100.624L7.80265 101.357C8.28112 101.41 8.76397 101.41 9.24245 101.357C9.3151 101.112 9.38114 100.868 9.44718 100.624C9.94602 100.565 10.4374 100.454 10.9134 100.293V100.472C10.4846 100.622 10.0422 100.731 9.59249 100.795L9.37453 101.535Z" fill="#003242"/>
<path d="M9.37453 102.665C8.80587 102.757 8.22601 102.757 7.65735 102.665L7.45922 101.918C7.00472 101.839 6.56128 101.706 6.13831 101.522V101.344C6.6073 101.543 7.10014 101.681 7.60452 101.753L7.80265 102.493C8.28074 102.552 8.76436 102.552 9.24245 102.493C9.3151 102.249 9.38114 101.998 9.44718 101.753C9.95138 101.68 10.4441 101.542 10.9134 101.344V101.522C10.49 101.705 10.0467 101.838 9.59249 101.918L9.37453 102.665Z" fill="#003242"/>
<g style="mix-blend-mode:multiply" opacity="0.5">
<path d="M10.9002 90.9812V89.8056C10.4369 89.5773 9.94309 89.4172 9.434 89.3301C9.434 89.3895 9.40098 89.449 9.38116 89.5084C8.80364 89.4159 8.21508 89.4159 7.63756 89.5084C7.63756 89.449 7.60454 89.3895 7.59133 89.3301C7.08198 89.4161 6.58799 89.5763 6.12512 89.8056V90.9812C7.66111 90.3857 9.36422 90.3857 10.9002 90.9812Z" fill="#003242"/>
</g>
<g style="mix-blend-mode:multiply" opacity="0.5">
<path d="M6.12512 99.4019V102.004C6.59205 102.226 7.08781 102.382 7.59794 102.466L7.65077 102.665C8.21943 102.757 8.7993 102.757 9.36796 102.665C9.36796 102.598 9.36796 102.532 9.4208 102.466C9.93281 102.381 10.4306 102.225 10.9002 102.004V99.4019C9.33487 99.8115 7.69047 99.8115 6.12512 99.4019Z" fill="#003242"/>
</g>
<path d="M30.3308 62.1586C31.7591 61.9009 33.2219 61.9009 34.6502 62.1586C34.8758 62.2001 35.0799 62.3193 35.227 62.4953C35.3741 62.6714 35.4551 62.8934 35.4559 63.1228V69.8661C35.4564 70.0959 35.3759 70.3185 35.2285 70.4949C35.0812 70.6712 34.8764 70.79 34.6502 70.8304C33.2219 71.088 31.7591 71.088 30.3308 70.8304C30.1046 70.79 29.8998 70.6712 29.7524 70.4949C29.6051 70.3185 29.5246 70.0959 29.525 69.8661V63.1228C29.5258 62.8934 29.6068 62.6714 29.754 62.4953C29.9011 62.3193 30.1051 62.2001 30.3308 62.1586Z" fill="#D6D6D6"/>
<path d="M30.0996 60.4811C30.8474 60.1286 31.6638 59.9458 32.4905 59.9458C33.3171 59.9458 34.1336 60.1286 34.8813 60.4811V72.508C34.1344 72.8636 33.3177 73.0481 32.4905 73.0481C31.6632 73.0481 30.8465 72.8636 30.0996 72.508V60.4811Z" fill="#004358"/>
<path d="M31.6319 60.7321C32.2015 60.6529 32.7794 60.6529 33.3491 60.7321L33.5472 60.0717C34.0038 60.1651 34.4474 60.3137 34.8681 60.5142V60.3359C34.4048 60.1076 33.911 59.9474 33.4019 59.8604C33.3359 60.0849 33.2632 60.3095 33.1972 60.5208C32.7191 60.4613 32.2355 60.4613 31.7574 60.5208C31.6913 60.2896 31.6253 60.0651 31.5526 59.8604C31.0436 59.9474 30.5497 60.1076 30.0864 60.3359V60.5142C30.5072 60.3137 30.9507 60.1651 31.4073 60.0717L31.6319 60.7321Z" fill="#003242"/>
<path d="M31.6319 61.8616C32.2024 61.7955 32.7786 61.7955 33.3491 61.8616L33.5472 61.2011C33.9987 61.2739 34.4414 61.3934 34.8681 61.5577V61.3794C34.3971 61.1904 33.9047 61.0595 33.4019 60.9897C33.3359 61.2143 33.2632 61.4455 33.1972 61.6502C32.7184 61.604 32.2362 61.604 31.7574 61.6502C31.6913 61.419 31.6253 61.1879 31.5526 60.9897C31.0499 61.0595 30.5575 61.1904 30.0864 61.3794V61.5577C30.5132 61.3934 30.9559 61.2739 31.4073 61.2011L31.6319 61.8616Z" fill="#003242"/>
<path d="M31.6319 63.0044C32.2034 62.9581 32.7776 62.9581 33.3491 63.0044L33.5472 62.3439C33.9946 62.4017 34.4365 62.4967 34.8681 62.6279V62.4496C34.3914 62.2958 33.9 62.1918 33.4019 62.1392C33.3359 62.3637 33.2632 62.5949 33.1972 62.8326C32.7181 62.793 32.2365 62.793 31.7574 62.8326C31.6913 62.5949 31.6253 62.3637 31.5526 62.1392C31.0545 62.1918 30.5632 62.2958 30.0864 62.4496V62.6279C30.5181 62.4967 30.9599 62.4017 31.4073 62.3439L31.6319 63.0044Z" fill="#003242"/>
<path d="M31.6319 64.1201C32.1999 64.1201 32.7811 64.1201 33.3491 64.1201L33.5472 63.4267C33.9915 63.4698 34.4326 63.5403 34.8681 63.638V63.4597C34.3861 63.3448 33.8959 63.2675 33.4019 63.2285C33.3359 63.4597 33.2632 63.6908 33.1972 63.889C32.7216 63.889 32.2329 63.889 31.7574 63.889C31.6913 63.6578 31.6253 63.4267 31.5526 63.2285C31.0587 63.2675 30.5684 63.3448 30.0864 63.4597V63.6644C30.5219 63.5668 30.9631 63.4962 31.4073 63.4531L31.6319 64.1201Z" fill="#003242"/>
<path d="M31.6319 65.2561C32.1999 65.2561 32.7811 65.2561 33.3491 65.2561L33.5472 64.556C34.0029 64.556 34.452 64.6221 34.8681 64.6881V64.5098C34.3827 64.4314 33.8931 64.3807 33.4019 64.3579C33.3359 64.5891 33.2632 64.8202 33.1972 65.058C32.7216 65.058 32.2329 65.058 31.7574 65.058C31.6913 64.8202 31.6253 64.5891 31.5526 64.3579C31.0614 64.3807 30.5719 64.4314 30.0864 64.5098V64.6881C30.5157 64.6221 30.9648 64.5825 31.4073 64.556L31.6319 65.2561Z" fill="#003242"/>
<path d="M31.6319 66.3855H33.3491L33.5472 65.6788C34.0029 65.6788 34.452 65.6788 34.8681 65.7317V65.5534C34.3992 65.5203 33.9039 65.5005 33.4019 65.4873C33.3359 65.7185 33.2632 65.9562 33.1972 66.194C32.7216 66.194 32.2329 66.194 31.7574 66.194C31.6913 65.9562 31.6253 65.7185 31.5526 65.4873C31.0507 65.4873 30.5553 65.5203 30.0864 65.5534V65.7317C30.5157 65.7317 30.9648 65.6921 31.4073 65.6788L31.6319 66.3855Z" fill="#003242"/>
<path d="M31.6319 67.5152C32.1999 67.5152 32.7811 67.5152 33.3491 67.5152L33.5472 66.8019C34.0029 66.8019 34.452 66.8019 34.8681 66.8019V66.6235H33.4151C33.349 66.8613 33.2764 67.0991 33.2104 67.3434H31.7706C31.7045 67.0991 31.6385 66.8613 31.5658 66.6235H30.0996V66.8019C30.5289 66.8019 30.978 66.8019 31.4205 66.8019L31.6319 67.5152Z" fill="#003242"/>
<path d="M31.6319 68.6445C32.2038 68.6776 32.7772 68.6776 33.3491 68.6445L33.5472 67.9313C34.0029 67.9313 34.452 67.8784 34.8681 67.8322V67.6274C34.3992 67.6671 33.9039 67.7001 33.4019 67.7133C33.3359 67.9577 33.2632 68.1954 33.1972 68.4332C32.7216 68.4332 32.2329 68.4332 31.7574 68.4332C31.6913 68.1954 31.6253 67.9577 31.5526 67.7133C31.0507 67.7133 30.5553 67.6671 30.0864 67.6274V67.8058C30.5157 67.852 30.9648 67.885 31.4073 67.9048L31.6319 68.6445Z" fill="#003242"/>
<path d="M31.6319 69.7806C32.2036 69.8203 32.7774 69.8203 33.3491 69.7806L33.5472 69.0541C33.9903 69.0209 34.4313 68.9636 34.8681 68.8824V68.7041C34.3829 68.787 33.8934 68.8422 33.4019 68.8692C33.3359 69.1136 33.2632 69.3513 33.1972 69.5957C32.7178 69.6287 32.2367 69.6287 31.7574 69.5957C31.6913 69.3513 31.6253 69.1136 31.5526 68.8692C31.0612 68.8422 30.5716 68.787 30.0864 68.7041V68.8824C30.5233 68.9636 30.9642 69.0209 31.4073 69.0541L31.6319 69.7806Z" fill="#003242"/>
<path d="M31.6319 70.9297C32.2027 70.9892 32.7782 70.9892 33.3491 70.9297L33.5472 70.1966C33.9937 70.1499 34.4356 70.0659 34.8681 69.9456V69.7739C34.3865 69.8933 33.8962 69.975 33.4019 70.0183C33.3359 70.2627 33.2632 70.507 33.1972 70.7514C32.7181 70.791 32.2365 70.791 31.7574 70.7514C31.6913 70.507 31.6253 70.2627 31.5526 70.0183C31.0583 69.975 30.5681 69.8933 30.0864 69.7739V69.9456C30.519 70.0659 30.9608 70.1499 31.4073 70.1966L31.6319 70.9297Z" fill="#003242"/>
<path d="M31.6319 72.039C32.2015 72.1183 32.7794 72.1183 33.3491 72.039L33.5472 71.3059C33.9972 71.2388 34.4395 71.1282 34.8681 70.9757V70.7974C34.393 70.9609 33.9013 71.0717 33.4019 71.1276C33.3359 71.372 33.2632 71.6163 33.1972 71.8673C32.7184 71.9135 32.2362 71.9135 31.7574 71.8673C31.6913 71.6163 31.6253 71.372 31.5526 71.1276C31.0533 71.0717 30.5616 70.9609 30.0864 70.7974V70.9757C30.515 71.1282 30.9574 71.2388 31.4073 71.3059L31.6319 72.039Z" fill="#003242"/>
<path d="M31.6319 73.1686C32.2006 73.261 32.7804 73.261 33.3491 73.1686L33.5472 72.4289C34.0017 72.3463 34.445 72.2111 34.8681 72.026V71.8477C34.3988 72.0461 33.9061 72.1837 33.4019 72.2571C33.3359 72.5081 33.2632 72.7525 33.1972 72.9969C32.7195 73.0625 32.2351 73.0625 31.7574 72.9969C31.6913 72.7525 31.6253 72.5081 31.5526 72.2571C31.0484 72.1837 30.5557 72.0461 30.0864 71.8477V72.026C30.5096 72.2111 30.9529 72.3463 31.4073 72.4289L31.6319 73.1686Z" fill="#003242"/>
<g style="mix-blend-mode:multiply" opacity="0.5">
<path d="M30.0996 61.4915V60.3159C30.5629 60.0876 31.0567 59.9274 31.5658 59.8403C31.5873 59.8963 31.605 59.9537 31.6186 60.012C32.1962 59.9196 32.7847 59.9196 33.3623 60.012C33.376 59.9537 33.3936 59.8963 33.4151 59.8403C33.9242 59.9274 34.418 60.0876 34.8813 60.3159V61.4915C33.3441 60.8904 31.6368 60.8904 30.0996 61.4915Z" fill="#003242"/>
</g>
<g style="mix-blend-mode:multiply" opacity="0.5">
<path d="M34.8813 69.9058V72.508C34.4117 72.7292 33.9139 72.8847 33.4019 72.9703L33.3491 73.1684C32.7804 73.2609 32.2005 73.2609 31.6319 73.1684L31.579 72.9703C31.067 72.8847 30.5692 72.7292 30.0996 72.508V69.9058C31.6672 70.3153 33.3137 70.3153 34.8813 69.9058Z" fill="#003242"/>
</g>
<path d="M30.3308 91.6547C31.7591 91.397 33.2219 91.397 34.6502 91.6547C34.8764 91.695 35.0812 91.8138 35.2285 91.9902C35.3759 92.1665 35.4564 92.3891 35.4559 92.6189V99.3622C35.4551 99.5916 35.3741 99.8136 35.227 99.9897C35.0799 100.166 34.8758 100.285 34.6502 100.326C33.2213 100.577 31.7596 100.577 30.3308 100.326C30.1051 100.285 29.9011 100.166 29.754 99.9897C29.6068 99.8136 29.5258 99.5916 29.525 99.3622V92.6189C29.5246 92.3891 29.6051 92.1665 29.7524 91.9902C29.8998 91.8138 30.1046 91.695 30.3308 91.6547Z" fill="#D6D6D6"/>
<path d="M30.0996 89.9772C30.8465 89.6215 31.6632 89.437 32.4905 89.437C33.3177 89.437 34.1344 89.6215 34.8813 89.9772V102.004C34.1336 102.357 33.3171 102.539 32.4905 102.539C31.6638 102.539 30.8474 102.357 30.0996 102.004V89.9772Z" fill="#004358"/>
<path d="M31.6319 90.2217C32.202 90.149 32.779 90.149 33.3491 90.2217L33.5472 89.5612C34.0044 89.6494 34.4483 89.7959 34.8681 89.9971V89.8188C34.4048 89.5905 33.911 89.4303 33.4019 89.3433C33.3359 89.5678 33.2632 89.799 33.1972 90.0037C32.7191 89.9442 32.2355 89.9442 31.7574 90.0037C31.6913 89.7726 31.6253 89.5414 31.5526 89.3433C31.0436 89.4303 30.5497 89.5905 30.0864 89.8188V89.9971C30.5063 89.7959 30.9502 89.6494 31.4073 89.5612L31.6319 90.2217Z" fill="#003242"/>
<path d="M31.6319 91.3576C32.2024 91.2916 32.7786 91.2916 33.3491 91.3576L33.5472 90.6972C33.9989 90.7724 34.4415 90.8942 34.8681 91.0604V90.8821C34.3973 90.691 33.9049 90.5579 33.4019 90.4858C33.3359 90.717 33.2632 90.9416 33.1972 91.1463C32.7184 91.1001 32.2362 91.1001 31.7574 91.1463C31.6913 90.9151 31.6253 90.6906 31.5526 90.4858C31.0496 90.5579 30.5573 90.691 30.0864 90.8821V91.0604C30.513 90.8942 30.9557 90.7724 31.4073 90.6972L31.6319 91.3576Z" fill="#003242"/>
<path d="M31.6319 92.487C32.2034 92.4408 32.7776 92.4408 33.3491 92.487L33.5472 91.8266C33.9952 91.8812 34.4373 91.9763 34.8681 92.1106V91.9323C34.3908 91.7792 33.8998 91.6731 33.4019 91.6152C33.3359 91.8464 33.2632 92.0775 33.1972 92.3087C32.7178 92.2757 32.2367 92.2757 31.7574 92.3087C31.6913 92.0775 31.6253 91.8464 31.5526 91.6152C31.0548 91.6731 30.5637 91.7792 30.0864 91.9323V92.0643C30.5173 91.93 30.9594 91.835 31.4073 91.7803L31.6319 92.487Z" fill="#003242"/>
<path d="M31.6319 93.6165C32.2038 93.5835 32.7772 93.5835 33.3491 93.6165L33.5472 92.923C33.9913 92.9639 34.4325 93.0323 34.8681 93.1277V92.956C34.3863 92.8389 33.8961 92.7594 33.4019 92.7183C33.3359 92.9494 33.2632 93.1806 33.1972 93.4183C32.7176 93.3919 32.2369 93.3919 31.7574 93.4183C31.6913 93.1806 31.6253 92.9494 31.5526 92.7183C31.0585 92.7594 30.5683 92.8389 30.0864 92.956V93.1277C30.5221 93.0323 30.9632 92.9639 31.4073 92.923L31.6319 93.6165Z" fill="#003242"/>
<path d="M31.6319 94.7459C32.1999 94.7459 32.7811 94.7459 33.3491 94.7459L33.5472 94.0458C34.0029 94.0458 34.452 94.1184 34.8681 94.1779V93.9995C34.3822 93.9244 33.8929 93.8737 33.4019 93.8477C33.3359 94.0788 33.2632 94.3166 33.1972 94.5543C32.7216 94.5543 32.2329 94.5543 31.7574 94.5543C31.6913 94.3166 31.6253 94.0788 31.5526 93.8477C31.0617 93.8737 30.5723 93.9244 30.0864 93.9995V94.1779C30.5157 94.1184 30.9648 94.0722 31.4073 94.0458L31.6319 94.7459Z" fill="#003242"/>
<path d="M31.6319 95.8819H33.3491L33.5472 95.1752C34.0029 95.1752 34.452 95.1752 34.8681 95.228V95.0497C34.3992 95.0497 33.9039 94.9903 33.4019 94.9771C33.3359 95.2148 33.2632 95.446 33.1972 95.6837H31.7574C31.6913 95.446 31.6253 95.2148 31.5526 94.9771C31.0507 94.9771 30.5553 95.0167 30.0864 95.0497V95.228C30.5157 95.228 30.9648 95.1818 31.4073 95.1752L31.6319 95.8819Z" fill="#003242"/>
<path d="M31.6319 97.0112C32.1999 97.0112 32.7811 97.0112 33.3491 97.0112L33.5472 96.2979H34.8681V96.1196H33.4151C33.349 96.3574 33.2764 96.5951 33.2104 96.8329H31.7706C31.7045 96.5951 31.6385 96.3574 31.5658 96.1196H30.0996V96.2979H31.4205L31.6319 97.0112Z" fill="#003242"/>
<path d="M31.6319 98.1406C32.1999 98.1406 32.7811 98.1406 33.3491 98.1406L33.5472 97.4207C34.0029 97.4207 34.452 97.3678 34.8681 97.3282V97.1499C34.3992 97.1895 33.9039 97.2225 33.4019 97.2357L33.1972 97.9557C32.7216 97.9557 32.2329 97.9557 31.7574 97.9557C31.6913 97.7179 31.6253 97.4735 31.5526 97.2357C31.0507 97.2357 30.5553 97.1895 30.0864 97.1499V97.348C30.5157 97.3877 30.9648 97.4207 31.4073 97.4405L31.6319 98.1406Z" fill="#003242"/>
<path d="M31.6319 99.2699C32.2034 99.3161 32.7776 99.3161 33.3491 99.2699L33.5472 98.55C33.9904 98.5146 34.4314 98.455 34.8681 98.3717V98.1934C34.3831 98.2785 33.8935 98.3359 33.4019 98.3651C33.3359 98.6028 33.2632 98.8472 33.1972 99.0916C32.7176 99.118 32.2369 99.118 31.7574 99.0916C31.6913 98.8472 31.6253 98.6028 31.5526 98.3651C31.061 98.3359 30.5715 98.2785 30.0864 98.1934V98.3717C30.5232 98.455 30.9641 98.5146 31.4073 98.55L31.6319 99.2699Z" fill="#003242"/>
<path d="M31.6319 100.406C32.2027 100.465 32.7782 100.465 33.3491 100.406L33.5472 99.6725C33.9933 99.6225 34.4349 99.5387 34.8681 99.4215V99.2432C34.3866 99.3647 33.8964 99.4487 33.4019 99.4941C33.3359 99.7385 33.2632 99.9829 33.1972 100.221C32.7184 100.267 32.2362 100.267 31.7574 100.221C31.6913 99.9829 31.6253 99.7385 31.5526 99.4941C31.0581 99.4487 30.5679 99.3647 30.0864 99.2432V99.4215C30.5197 99.5387 30.9613 99.6225 31.4073 99.6725L31.6319 100.406Z" fill="#003242"/>
<path d="M31.6319 101.535C32.202 101.608 32.779 101.608 33.3491 101.535L33.5472 100.795C33.997 100.731 34.4393 100.622 34.8681 100.472V100.293C34.3921 100.454 33.9008 100.565 33.4019 100.624C33.3359 100.868 33.2632 101.112 33.1972 101.357C32.7187 101.41 32.2359 101.41 31.7574 101.357C31.6913 101.112 31.6253 100.868 31.5526 100.624C31.0538 100.565 30.5624 100.454 30.0864 100.293V100.472C30.5152 100.622 30.9576 100.731 31.4073 100.795L31.6319 101.535Z" fill="#003242"/>
<path d="M31.6319 102.665C32.2006 102.757 32.7804 102.757 33.3491 102.665L33.5472 101.918C34.0014 101.838 34.4447 101.705 34.8681 101.522V101.344C34.3988 101.542 33.9061 101.68 33.4019 101.753L33.1972 102.493C32.7191 102.552 32.2355 102.552 31.7574 102.493C31.6913 102.249 31.6253 101.998 31.5526 101.753C31.0484 101.68 30.5557 101.542 30.0864 101.344V101.522C30.5099 101.705 30.9531 101.838 31.4073 101.918L31.6319 102.665Z" fill="#003242"/>
<g style="mix-blend-mode:multiply" opacity="0.5">
<path d="M30.0996 90.9812V89.8056C30.5629 89.5773 31.0567 89.4172 31.5658 89.3301C31.5865 89.3886 31.6041 89.4481 31.6186 89.5084C32.1962 89.4159 32.7847 89.4159 33.3623 89.5084C33.3768 89.4481 33.3945 89.3886 33.4151 89.3301C33.9242 89.4172 34.418 89.5773 34.8813 89.8056V90.9812C33.3433 90.384 31.6376 90.384 30.0996 90.9812Z" fill="#003242"/>
</g>
<g style="mix-blend-mode:multiply" opacity="0.5">
<path d="M34.8813 99.4019V102.004C34.4117 102.225 33.9139 102.381 33.4019 102.466L33.3491 102.665C32.7804 102.757 32.2005 102.757 31.6319 102.665L31.579 102.466C31.067 102.381 30.5692 102.225 30.0996 102.004V99.4019C31.6672 99.8114 33.3137 99.8114 34.8813 99.4019Z" fill="#003242"/>
</g>
<path d="M31.3479 101.971C24.1247 102.473 16.8752 102.473 9.65197 101.971C8.88584 101.918 8.26501 101.555 8.26501 101.172V49.3924C8.26501 49.0093 8.92547 48.7319 9.66518 48.7319H31.3413C32.1141 48.7319 32.7349 49.0423 32.7349 49.3924V101.199C32.7349 101.582 32.1141 101.971 31.3479 101.971Z" fill="#102030"/>
<path d="M36.0636 34.4065C36.0636 34.5372 36.0249 34.6649 35.9523 34.7735C35.8797 34.8821 35.7766 34.9667 35.6559 35.0167C35.5352 35.0667 35.4024 35.0798 35.2743 35.0543C35.1462 35.0288 35.0285 34.9659 34.9361 34.8736C34.8438 34.7812 34.7809 34.6635 34.7554 34.5354C34.7299 34.4073 34.743 34.2745 34.7929 34.1538C34.8429 34.0331 34.9276 33.93 35.0362 33.8574C35.1448 33.7848 35.2725 33.7461 35.4031 33.7461C35.5783 33.7461 35.7463 33.8157 35.8701 33.9395C35.994 34.0634 36.0636 34.2314 36.0636 34.4065Z" fill="#102030"/>
<path d="M33.9898 36.3944L33.6727 36.1236L35.4362 34.0762L36.3938 35.3112L36.0636 35.5688L35.4229 34.7366L33.9898 36.3944Z" fill="#102030"/>
<path d="M39.181 35.4365H36.2287C36.0168 35.4365 35.8135 35.5207 35.6636 35.6706C35.5138 35.8205 35.4296 36.0237 35.4296 36.2357V37.3122H39.9801V36.2357C39.9801 36.0237 39.8959 35.8205 39.746 35.6706C39.5962 35.5207 39.3929 35.4365 39.181 35.4365Z" fill="#FFBA1A"/>
<path d="M4.93628 34.4065C4.93628 34.5372 4.97502 34.6649 5.04759 34.7735C5.12016 34.8821 5.22331 34.9667 5.34399 35.0167C5.46468 35.0667 5.59747 35.0798 5.72559 35.0543C5.8537 35.0288 5.97138 34.9659 6.06375 34.8736C6.15611 34.7812 6.21902 34.6635 6.2445 34.5354C6.26999 34.4073 6.2569 34.2745 6.20691 34.1538C6.15692 34.0331 6.07228 33.93 5.96367 33.8574C5.85505 33.7848 5.72736 33.7461 5.59673 33.7461C5.42157 33.7461 5.25358 33.8157 5.12972 33.9395C5.00586 34.0634 4.93628 34.2314 4.93628 34.4065Z" fill="#102030"/>
<path d="M7.01674 36.3944L5.58355 34.7366L4.93631 35.5688L4.60608 35.3112L5.56374 34.0762L7.32715 36.1236L7.01674 36.3944Z" fill="#102030"/>
<path d="M1.81896 35.4368H4.75138C4.96333 35.4368 5.1666 35.521 5.31647 35.6708C5.46634 35.8207 5.55054 36.024 5.55054 36.2359V37.3125H1V36.2359C0.999967 36.1293 1.02127 36.0237 1.06266 35.9255C1.10406 35.8272 1.1647 35.7382 1.24102 35.6637C1.31734 35.5892 1.4078 35.5308 1.50705 35.4918C1.60631 35.4528 1.71236 35.4341 1.81896 35.4368Z" fill="#FFBA1A"/>
<path d="M34.4719 35.7405V54.4645C34.4719 54.5694 34.4512 54.6733 34.411 54.7703C34.3709 54.8672 34.312 54.9553 34.2378 55.0296C34.1636 55.1038 34.0755 55.1626 33.9785 55.2028C33.8816 55.2429 33.7777 55.2636 33.6727 55.2636H7.31394C7.20843 55.2645 7.1038 55.2445 7.00608 55.2047C6.90836 55.1649 6.81948 55.1062 6.74457 55.0319C6.66966 54.9576 6.61021 54.8692 6.56963 54.7718C6.52906 54.6744 6.50818 54.57 6.50818 54.4645V35.7405C6.51148 35.5212 6.59435 35.3106 6.74135 35.1478C6.88835 34.985 7.08948 34.8811 7.30732 34.8555C13.6249 34.1942 19.9833 34.0109 26.3285 34.3074C27.689 34.3668 29.0561 34.4527 30.4101 34.5583C31.5064 34.6376 32.6028 34.7367 33.7124 34.8555C33.923 34.8898 34.1147 34.9974 34.2537 35.1594C34.3927 35.3213 34.47 35.5272 34.4719 35.7405Z" fill="#FD7400"/>
<path d="M31.7111 38.686H9.28865C8.84729 38.686 8.4895 39.0438 8.4895 39.4852V54.4577C8.4895 54.8991 8.84729 55.2569 9.28865 55.2569H31.7111C32.1525 55.2569 32.5103 54.8991 32.5103 54.4577V39.4852C32.5103 39.0438 32.1525 38.686 31.7111 38.686Z" fill="#FFE11A"/>
<path d="M33.1113 35.9253L32.6688 38.0718C32.6302 38.2611 32.5265 38.4308 32.3756 38.5515C32.2248 38.6722 32.0364 38.7361 31.8433 38.7323H8.95845C8.76532 38.7361 8.57693 38.6722 8.42609 38.5515C8.27524 38.4308 8.17148 38.2611 8.13289 38.0718L7.69038 35.9253C7.6696 35.8059 7.67579 35.6834 7.70848 35.5668C7.74118 35.4501 7.79956 35.3422 7.87935 35.2511C7.95913 35.1599 8.0583 35.0877 8.1696 35.0398C8.28089 34.9919 8.40149 34.9695 8.52256 34.9743H32.299C32.4184 34.9725 32.5367 34.9971 32.6456 35.0463C32.7544 35.0955 32.851 35.1681 32.9286 35.2589C33.0062 35.3497 33.0628 35.4565 33.0944 35.5717C33.1259 35.6869 33.1317 35.8076 33.1113 35.9253Z" fill="#2CA3E8"/>
<g style="mix-blend-mode:overlay">
<path d="M22.1081 34.9415H8.52256C8.40149 34.9368 8.28089 34.9592 8.1696 35.0071C8.0583 35.055 7.95913 35.1272 7.87935 35.2183C7.79956 35.3095 7.74118 35.4174 7.70848 35.5341C7.67579 35.6507 7.6696 35.7732 7.69038 35.8926L8.13289 38.0391C8.17148 38.2284 8.27524 38.3981 8.42609 38.5188C8.57693 38.6395 8.76532 38.7034 8.95845 38.6995H18.3567L22.1081 34.9415Z" fill="#2CA3E8"/>
</g>
<g style="mix-blend-mode:overlay">
<path d="M31.196 34.9414H26.5662L22.8148 38.6862H27.4446L31.196 34.9414Z" fill="#2CA3E8"/>
</g>
<path d="M7.82913 53.4937H7.12244V54.2928H7.82913V53.4937Z" fill="#004358"/>
<path d="M6.50818 37.9067L7.61114 38.904C7.68076 38.9652 7.73673 39.0403 7.77542 39.1245C7.8141 39.2087 7.83464 39.3001 7.83569 39.3928V47.7607C7.83569 47.9359 7.76611 48.1039 7.64225 48.2277C7.51839 48.3516 7.3504 48.4212 7.17524 48.4212C7.00007 48.4212 6.83208 48.3516 6.70822 48.2277C6.58436 48.1039 6.51478 47.9359 6.51478 47.7607L6.50818 37.9067Z" fill="#2CA3E8"/>
<path d="M33.8775 53.4937H33.1708V54.2928H33.8775V53.4937Z" fill="#004358"/>
<path d="M7.82913 52.0737H7.12244V52.8729H7.82913V52.0737Z" fill="#004358"/>
<path d="M33.8775 52.0737H33.1708V52.8729H33.8775V52.0737Z" fill="#004358"/>
<path d="M7.82913 50.647H7.12244V51.4461H7.82913V50.647Z" fill="#004358"/>
<path d="M33.8775 50.647H33.1708V51.4461H33.8775V50.647Z" fill="#004358"/>
<path d="M34.4718 37.9067L33.3688 38.904C33.3004 38.9658 33.2457 39.0412 33.2081 39.1253C33.1706 39.2095 33.1511 39.3006 33.1509 39.3928V47.7607C33.1509 47.9359 33.2205 48.1039 33.3443 48.2277C33.4682 48.3516 33.6362 48.4212 33.8113 48.4212C33.9865 48.4212 34.1545 48.3516 34.2783 48.2277C34.4022 48.1039 34.4718 47.9359 34.4718 47.7607V37.9067Z" fill="#2CA3E8"/>
<path d="M30.595 53.6651H10.4049C10.2035 53.6651 10.0103 53.585 9.86784 53.4426C9.7254 53.3002 9.64539 53.107 9.64539 52.9055V41.0173C9.64539 40.8159 9.7254 40.6227 9.86784 40.4803C10.0103 40.3378 10.2035 40.2578 10.4049 40.2578H30.595C30.6948 40.2578 30.7935 40.2775 30.8857 40.3156C30.9778 40.3538 31.0616 40.4097 31.1321 40.4803C31.2026 40.5508 31.2586 40.6345 31.2967 40.7267C31.3349 40.8188 31.3546 40.9176 31.3546 41.0173V52.9055C31.3546 53.0053 31.3349 53.104 31.2967 53.1962C31.2586 53.2883 31.2026 53.3721 31.1321 53.4426C31.0616 53.5131 30.9778 53.5691 30.8857 53.6072C30.7935 53.6454 30.6948 53.6651 30.595 53.6651ZM10.4049 40.7862C10.3377 40.7879 10.2739 40.8158 10.227 40.8639C10.1801 40.912 10.1539 40.9766 10.1539 41.0438V52.932C10.1539 52.9991 10.1801 53.0637 10.227 53.1118C10.2739 53.1599 10.3377 53.1878 10.4049 53.1895H30.595C30.6622 53.1878 30.726 53.1599 30.7729 53.1118C30.8198 53.0637 30.846 52.9991 30.846 52.932V41.0438C30.846 40.9766 30.8198 40.912 30.7729 40.8639C30.726 40.8158 30.6622 40.7879 30.595 40.7862H10.4049Z" fill="#FD7400"/>
<path d="M29.7826 42.0742H28.8447V43.0121H29.7826V42.0742Z" fill="#004358"/>
<path d="M29.7826 43.8706H28.8447V44.8085H29.7826V43.8706Z" fill="#004358"/>
<path d="M12.056 42.0742H11.1182V43.0121H12.056V42.0742Z" fill="#004358"/>
<path d="M12.056 43.8706H11.1182V44.8085H12.056V43.8706Z" fill="#004358"/>
<path d="M35.5484 88.762C35.5502 91.6836 34.7016 94.5426 33.1063 96.9901C31.5109 99.4377 29.2377 101.368 26.564 102.546C23.8903 103.724 20.9316 104.098 18.0488 103.623C15.1661 103.147 12.484 101.844 10.3296 99.8701C8.17523 97.8967 6.64178 95.3389 5.91628 92.5088C5.19078 89.6787 5.30461 86.6986 6.24389 83.9321C7.18316 81.1655 8.90728 78.7322 11.2059 76.9288C13.5045 75.1255 16.2783 74.0301 19.1889 73.7762C19.6278 73.7327 20.0688 73.7129 20.5098 73.7168C24.3582 73.7075 28.0622 75.1811 30.8526 77.8314C31.0969 78.0626 31.3281 78.2937 31.5526 78.5381C31.7772 78.7825 31.9951 79.0401 32.2131 79.2976C34.3814 81.9743 35.5595 85.3173 35.5484 88.762Z" fill="#FD7400"/>
<path d="M33.3388 91.74C34.9976 84.6509 30.5955 77.5593 23.5064 75.9005C16.4173 74.2417 9.32571 78.6438 7.66689 85.7329C6.00807 92.822 10.4102 99.9136 17.4993 101.572C24.5884 103.231 31.68 98.8291 33.3388 91.74Z" fill="#FFBA1A"/>
<path d="M20.5033 102.182C17.8407 102.184 15.2377 101.395 13.0237 99.9159C10.8097 98.437 9.08433 96.3343 8.06603 93.8742C7.04773 91.4141 6.7823 88.7072 7.30334 86.0961C7.82438 83.4851 9.10846 81.0873 10.993 79.2065C12.8776 77.3256 15.2778 76.0463 17.8899 75.5304C20.502 75.0145 23.2084 75.2852 25.6665 76.3084C28.1246 77.3315 30.2238 79.061 31.6984 81.2779C33.173 83.4948 33.9567 86.0994 33.9501 88.7619C33.9362 92.3215 32.5142 95.731 29.9946 98.2455C27.4751 100.76 24.0629 102.175 20.5033 102.182ZM20.5033 75.7641C17.945 75.7629 15.4437 76.5196 13.3152 77.9389C11.1867 79.3582 9.52645 81.3764 8.54414 83.7386C7.56182 86.1007 7.30146 88.701 7.79593 91.2111C8.2904 93.7211 9.51753 96.0284 11.3224 97.8415C13.1272 99.6546 15.4288 100.892 17.9366 101.398C20.4443 101.904 23.0458 101.656 25.4124 100.684C27.7791 99.7129 29.8048 98.0619 31.2339 95.9399C32.6629 93.818 33.4311 91.3202 33.4416 88.7619C33.4451 85.3263 32.0841 82.03 29.6579 79.5976C27.2317 77.1652 23.9388 75.7958 20.5033 75.7906V75.7641Z" fill="#004358"/>
<g style="mix-blend-mode:multiply" opacity="0.3">
<path d="M34.0426 88.4712V95.3003C33.1117 97.2154 31.7859 98.9118 30.1524 100.278C28.5189 101.644 26.6147 102.648 24.5651 103.226H19.1889V98.2459H15.9791V88.4712H19.1757V73.743C19.6146 73.6995 20.0556 73.6797 20.4966 73.6836C24.345 73.6743 28.0491 75.1479 30.8394 77.7982V86.721H31.1696V80.0636H31.513V78.5049C31.7376 78.7493 31.9556 79.0069 32.1735 79.2644V80.0636H32.5169V86.721H33.2831V88.4712H34.0426Z" fill="#583200"/>
</g>
<path d="M29.5251 83.9536H11.4814V93.7218H29.5251V83.9536Z" fill="#FFE11A"/>
<path d="M14.678 82.2036H12.2145V95.4788H14.678V82.2036Z" fill="#004358"/>
<path d="M28.792 82.2036H26.3285V95.4788H28.792V82.2036Z" fill="#004358"/>
<path d="M14.6781 64.1069H12.7231V67.7328H14.6781V64.1069Z" fill="#FFE11A"/>
<path d="M28.2834 64.1069H26.3285V67.7328H28.2834V64.1069Z" fill="#FFE11A"/>
<path d="M21.4741 20.3783L20.074 19.1829L21.6525 17.3336C21.7312 17.2382 21.8285 17.1597 21.9383 17.1028C22.0482 17.0459 22.1684 17.0118 22.2918 17.0026C22.4152 16.9933 22.5392 17.0091 22.6563 17.049C22.7734 17.0888 22.8813 17.152 22.9734 17.2346C23.0685 17.3134 23.1468 17.4105 23.2038 17.5201C23.2607 17.6297 23.2952 17.7496 23.305 17.8727C23.3149 17.9958 23.2999 18.1197 23.2611 18.237C23.2223 18.3542 23.1604 18.4625 23.0791 18.5555L21.4741 20.3783Z" fill="#102030"/>
<path d="M22.9073 20.0745C22.9086 20.5518 22.7681 21.0188 22.5037 21.4162C22.2394 21.8137 21.8629 22.1237 21.4222 22.307C20.9814 22.4902 20.4962 22.5385 20.0279 22.4457C19.5597 22.3529 19.1295 22.1232 18.792 21.7857C18.4545 21.4481 18.2247 21.018 18.1319 20.5498C18.0391 20.0815 18.0874 19.5963 18.2707 19.1555C18.454 18.7147 18.764 18.3383 19.1614 18.0739C19.5589 17.8095 20.0259 17.6691 20.5032 17.6704C21.1408 17.6704 21.7523 17.9237 22.2031 18.3746C22.654 18.8254 22.9073 19.4369 22.9073 20.0745Z" fill="#004358"/>
<path d="M24.7632 19.5464H16.2367V23.1921H24.7632V19.5464Z" fill="#FFED78"/>
<path d="M26.3284 31.5928H14.678V98.6951H26.3284V31.5928Z" fill="#FFED78"/>
<path d="M27.3059 21.6792H13.7006V31.5926H27.3059V21.6792Z" fill="#102030"/>
<path d="M24.7632 21.6792H16.2367V31.5926H24.7632V21.6792Z" fill="#004358"/>
<path d="M20.5032 76.002C19.5066 76.002 18.5507 76.3979 17.8459 77.1026C17.1412 77.8074 16.7452 78.7633 16.7452 79.7599V91.5491C16.7452 92.5458 17.1412 93.5016 17.8459 94.2064C18.5507 94.9111 19.5066 95.3071 20.5032 95.3071C21.4999 95.3071 22.4558 94.9111 23.1605 94.2064C23.8653 93.5016 24.2612 92.5458 24.2612 91.5491V79.7599C24.2612 78.7633 23.8653 77.8074 23.1605 77.1026C22.4558 76.3979 21.4999 76.002 20.5032 76.002Z" fill="#FFBA1A"/>
<path d="M20.5032 54.7021C19.5066 54.7021 18.5507 55.0981 17.8459 55.8028C17.1412 56.5076 16.7452 57.4635 16.7452 58.4601V70.2691C16.7452 71.2658 17.1412 72.2216 17.8459 72.9264C18.5507 73.6312 19.5066 74.0271 20.5032 74.0271C21.4999 74.0271 22.4558 73.6312 23.1605 72.9264C23.8653 72.2216 24.2612 71.2658 24.2612 70.2691V58.4601C24.2612 57.4635 23.8653 56.5076 23.1605 55.8028C22.4558 55.0981 21.4999 54.7021 20.5032 54.7021Z" fill="#FFBA1A"/>
<path d="M20.5032 33.4023C19.5066 33.4023 18.5507 33.7983 17.8459 34.503C17.1412 35.2078 16.7452 36.1637 16.7452 37.1603V48.9495C16.7452 49.9462 17.1412 50.902 17.8459 51.6068C18.5507 52.3115 19.5066 52.7075 20.5032 52.7075C21.4999 52.7075 22.4558 52.3115 23.1605 51.6068C23.8653 50.902 24.2612 49.9462 24.2612 48.9495V37.1603C24.2612 36.1637 23.8653 35.2078 23.1605 34.503C22.4558 33.7983 21.4999 33.4023 20.5032 33.4023Z" fill="#FFBA1A"/>
<path d="M25.9923 8.08646C25.8918 6.63049 25.2425 5.2669 24.1755 4.27119C23.1085 3.27547 21.7034 2.72185 20.2439 2.72217C18.7838 2.72174 17.378 3.27516 16.3099 4.27074C15.2419 5.26632 14.5913 6.62995 14.4894 8.08646L14 15.2099V15.5197C13.9992 15.6134 14.0171 15.7064 14.0526 15.7932C14.0881 15.88 14.1405 15.9589 14.2068 16.0252C14.2731 16.0915 14.352 16.144 14.4388 16.1795C14.5256 16.215 14.6186 16.2328 14.7124 16.232C14.9013 16.232 15.0825 16.157 15.2161 16.0234C15.3497 15.8898 15.4247 15.7086 15.4247 15.5197V15.2099H16.2052V15.5197C16.2044 15.6134 16.2222 15.7064 16.2578 15.7932C16.2933 15.88 16.3457 15.9589 16.412 16.0252C16.4783 16.0915 16.5572 16.144 16.644 16.1795C16.7308 16.215 16.8238 16.2328 16.9176 16.232C17.0113 16.2328 17.1043 16.215 17.1911 16.1795C17.2779 16.144 17.3568 16.0915 17.4231 16.0252C17.4894 15.9589 17.5419 15.88 17.5774 15.7932C17.6129 15.7064 17.6307 15.6134 17.6299 15.5197V15.2099H18.4166V15.5197C18.4158 15.6134 18.4336 15.7064 18.4691 15.7932C18.5046 15.88 18.5571 15.9589 18.6234 16.0252C18.6897 16.0915 18.7686 16.144 18.8554 16.1795C18.9422 16.215 19.0352 16.2328 19.1289 16.232C19.2227 16.2328 19.3157 16.215 19.4025 16.1795C19.4893 16.144 19.5682 16.0915 19.6345 16.0252C19.7008 15.9589 19.7532 15.88 19.7887 15.7932C19.8242 15.7064 19.8421 15.6134 19.8413 15.5197V15.2099H20.628V15.5197C20.6271 15.6134 20.645 15.7064 20.6805 15.7932C20.716 15.88 20.7685 15.9589 20.8348 16.0252C20.9011 16.0915 20.9799 16.144 21.0667 16.1795C21.1535 16.215 21.2465 16.2328 21.3403 16.232C21.4341 16.2328 21.5271 16.215 21.6139 16.1795C21.7007 16.144 21.7795 16.0915 21.8459 16.0252C21.9122 15.9589 21.9646 15.88 22.0001 15.7932C22.0356 15.7064 22.0535 15.6134 22.0527 15.5197V15.2099H22.8393V15.5197C22.8393 15.7086 22.9144 15.8898 23.048 16.0234C23.1816 16.157 23.3628 16.232 23.5517 16.232C23.7406 16.232 23.9218 16.157 24.0554 16.0234C24.189 15.8898 24.264 15.7086 24.264 15.5197V15.2099H25.0445V15.5197C25.0445 15.7086 25.1196 15.8898 25.2532 16.0234C25.3868 16.157 25.568 16.232 25.7569 16.232C25.9458 16.232 26.127 16.157 26.2606 16.0234C26.3942 15.8898 26.4692 15.7086 26.4692 15.5197V15.2099L25.9923 8.08646Z" fill="#2A6380"/>
<path d="M15.0965 15.3955V15.2097C15.0965 15.1674 15.1048 15.1255 15.121 15.0864C15.1372 15.0474 15.1609 15.0119 15.1908 14.9819C15.2207 14.952 15.2562 14.9283 15.2953 14.9121C15.3344 14.8959 15.3763 14.8876 15.4186 14.8876H16.2053C16.2476 14.8876 16.2894 14.8959 16.3285 14.9121C16.3676 14.9283 16.4031 14.952 16.433 14.9819C16.4629 15.0119 16.4867 15.0474 16.5028 15.0864C16.519 15.1255 16.5274 15.1674 16.5274 15.2097V15.3955H17.3202V15.2097C17.3202 15.1674 17.3286 15.1255 17.3448 15.0864C17.3609 15.0474 17.3847 15.0119 17.4146 14.9819C17.4445 14.952 17.48 14.9283 17.5191 14.9121C17.5582 14.8959 17.6 14.8876 17.6423 14.8876H18.429C18.4713 14.8876 18.5132 14.8959 18.5523 14.9121C18.5914 14.9283 18.6269 14.952 18.6568 14.9819C18.6867 15.0119 18.7104 15.0474 18.7266 15.0864C18.7428 15.1255 18.7511 15.1674 18.7511 15.2097V15.3955H19.5378V15.2097C19.537 15.1677 19.5445 15.126 19.5601 15.0869C19.5756 15.0479 19.5987 15.0123 19.6281 14.9823C19.6575 14.9523 19.6926 14.9285 19.7314 14.9122C19.7701 14.896 19.8117 14.8876 19.8537 14.8876H20.6404C20.6827 14.8876 20.7246 14.8959 20.7637 14.9121C20.8027 14.9283 20.8383 14.952 20.8682 14.9819C20.8981 15.0119 20.9218 15.0474 20.938 15.0864C20.9542 15.1255 20.9625 15.1674 20.9625 15.2097V15.3955H21.7492V15.2097C21.7484 15.1677 21.7559 15.126 21.7714 15.0869C21.7869 15.0479 21.8101 15.0123 21.8395 14.9823C21.8689 14.9523 21.904 14.9285 21.9428 14.9122C21.9815 14.896 22.0231 14.8876 22.0651 14.8876H22.8518C22.8941 14.8876 22.936 14.8959 22.975 14.9121C23.0141 14.9283 23.0496 14.952 23.0795 14.9819C23.1095 15.0119 23.1332 15.0474 23.1494 15.0864C23.1655 15.1255 23.1739 15.1674 23.1739 15.2097V15.3955H23.9482V15.2097C23.9473 15.1677 23.9549 15.126 23.9704 15.0869C23.9859 15.0479 24.0091 15.0123 24.0385 14.9823C24.0679 14.9523 24.103 14.9285 24.1417 14.9122C24.1805 14.896 24.2221 14.8876 24.2641 14.8876H25.0508C25.0931 14.8876 25.1349 14.8959 25.174 14.9121C25.2131 14.9283 25.2486 14.952 25.2785 14.9819C25.3084 15.0119 25.3322 15.0474 25.3484 15.0864C25.3645 15.1255 25.3729 15.1674 25.3729 15.2097V15.3955H26.1595V15.2593V15.0053L25.6764 8.13578C25.6224 7.34295 25.3953 6.57158 25.0111 5.87596C24.6269 5.18034 24.0949 4.57736 23.4526 4.10946L23.3783 4.05371H17.091L17.0167 4.10946C16.3798 4.57596 15.852 5.17555 15.4701 5.86657C15.0882 6.55759 14.8614 7.32347 14.8053 8.111L14.3284 14.9867V15.2097V15.3955H15.0965Z" fill="#00212B"/>
<path d="M22.0093 3.26074H18.46V4.84649H22.0093V3.26074Z" fill="#004358"/>
<path d="M17.6485 7.46051C17.6485 9.51084 15.5982 13.0354 14.3284 14.9866L14.8053 8.11092C14.8614 7.32339 15.0882 6.55751 15.4701 5.86649C15.852 5.17547 16.3798 4.57588 17.0167 4.10938C17.448 5.17331 17.6628 6.31257 17.6485 7.46051Z" fill="#002E3D"/>
<path d="M26.1471 14.9804C24.8711 13.0044 22.8208 9.50464 22.8208 7.46051C22.8026 6.31341 23.0132 5.17418 23.4402 4.10938C24.0772 4.57588 24.6049 5.17547 24.9868 5.86649C25.3687 6.55751 25.5955 7.32339 25.6516 8.11092L26.1471 14.9804Z" fill="#002E3D"/>
<path d="M23.9605 35.4531H16.5149V41.6722H23.9605V35.4531Z" fill="#BA5500"/>
<path d="M22.8951 39.1821H17.5493C17.2803 39.1822 17.0217 39.0775 16.8286 38.8902C16.6355 38.7028 16.5229 38.4476 16.5149 38.1786C16.5149 37.9037 16.6237 37.64 16.8175 37.445C17.0113 37.25 17.2744 37.1396 17.5493 37.138H22.8951C23.0335 37.1347 23.1712 37.1592 23.3 37.2101C23.4288 37.261 23.546 37.3372 23.6448 37.4342C23.7436 37.5313 23.8219 37.6472 23.8751 37.7751C23.9282 37.9029 23.9552 38.0402 23.9543 38.1786C23.9462 38.4519 23.8302 38.7109 23.6317 38.8989C23.4332 39.087 23.1684 39.1888 22.8951 39.1821Z" fill="#004358"/>
<path d="M22.8951 27.7226H17.5493C17.4135 27.7226 17.279 27.6958 17.1535 27.6438C17.028 27.5918 16.9139 27.5156 16.8179 27.4196C16.7218 27.3235 16.6456 27.2095 16.5936 27.084C16.5416 26.9585 16.5149 26.824 16.5149 26.6881C16.5149 26.4132 16.6237 26.1494 16.8175 25.9544C17.0113 25.7595 17.2744 25.6491 17.5493 25.6475H22.8951C23.0314 25.6475 23.1665 25.6744 23.2924 25.7268C23.4183 25.7792 23.5326 25.8559 23.6287 25.9526C23.7249 26.0494 23.8009 26.1641 23.8526 26.2903C23.9042 26.4166 23.9303 26.5517 23.9295 26.6881C23.9295 26.824 23.9028 26.9585 23.8508 27.084C23.7988 27.2095 23.7226 27.3235 23.6265 27.4196C23.5305 27.5156 23.4164 27.5918 23.2909 27.6438C23.1654 27.6958 23.0309 27.7226 22.8951 27.7226Z" fill="#004358"/>
<path d="M22.7341 26.688H17.7352V40.4518H22.7341V26.688Z" fill="#FD7400"/>
<path d="M21.8792 29.1843C21.8792 28.2743 21.1415 27.5366 20.2316 27.5366C19.3216 27.5366 18.5839 28.2743 18.5839 29.1843V37.9555C18.5839 38.8655 19.3216 39.6032 20.2316 39.6032C21.1415 39.6032 21.8792 38.8655 21.8792 37.9555V29.1843Z" fill="#E36800"/>
<g style="mix-blend-mode:multiply" opacity="0.3">
<path d="M22.0341 28.3976V27.1401H20.343V28.3976H20.7766V33.4831H20.343V40.4518H22.0341V33.4831H21.6005V28.3976H22.0341Z" fill="#583200"/>
</g>
<path d="M21.0802 27.1401H19.3892V28.3976H21.0802V27.1401Z" fill="#004358"/>
<path d="M20.6466 28.3975H19.8228V34.8891H20.6466V28.3975Z" fill="#F2F2F2"/>
<path d="M21.0802 33.4829H19.3892V39.9994H21.0802V33.4829Z" fill="#004358"/>
<path d="M21.8421 39.9995H18.6334V40.9101H21.8421V39.9995Z" fill="#004358"/>
<path d="M22.8951 3.07492H17.5493C17.2744 3.07329 17.0113 2.96292 16.8175 2.76794C16.6237 2.57296 16.5149 2.3092 16.5149 2.03427C16.5182 1.76207 16.6286 1.50213 16.8222 1.3108C17.0159 1.11947 17.2771 1.01219 17.5493 1.01221H22.8951C23.0309 1.01221 23.1654 1.03896 23.2909 1.09095C23.4164 1.14294 23.5305 1.21913 23.6265 1.31519C23.7226 1.41125 23.7988 1.52529 23.8508 1.65079C23.9028 1.7763 23.9295 1.91081 23.9295 2.04666C23.9279 2.31994 23.8182 2.58147 23.6243 2.77413C23.4305 2.96679 23.1683 3.07493 22.8951 3.07492Z" fill="#004358"/>
<path d="M17.0786 6.33332H23.3906L22.734 1H17.7352L17.0786 6.33332Z" fill="#E36800"/>
<path d="M22.7341 1H17.7352V13.1966H22.7341V1Z" fill="#FD7400"/>
<path d="M21.8792 3.49633C21.8792 2.58633 21.1415 1.84863 20.2316 1.84863C19.3216 1.84863 18.5839 2.58633 18.5839 3.49633V10.6941C18.5839 11.6041 19.3216 12.3418 20.2316 12.3418C21.1415 12.3418 21.8792 11.6041 21.8792 10.6941V3.49633Z" fill="#E36800"/>
<path d="M22.7341 13.1968H17.7352V26.688H22.7341V13.1968Z" fill="#FFE11A"/>
<path d="M21.8792 15.6931C21.8792 14.7831 21.1415 14.0454 20.2316 14.0454C19.3216 14.0454 18.5839 14.7831 18.5839 15.6931V24.1855C18.5839 25.0955 19.3216 25.8332 20.2316 25.8332C21.1415 25.8332 21.8792 25.0955 21.8792 24.1855V15.6931Z" fill="#FFC000"/>
<path d="M21.8421 26.2295H18.6334V27.1401H21.8421V26.2295Z" fill="#004358"/>
<g style="mix-blend-mode:multiply" opacity="0.3">
<path d="M19.5439 2.19551H19.8165V7.0147H19.5439V13.1966H20.597V7.0147H20.3306V2.19551H20.597V1H19.5439V2.19551Z" fill="#583200"/>
<path d="M21.8915 2.72202V1H20.8385V2.72202H21.1049V7.0147H20.8385V13.1966H21.8915V7.0147H21.619V2.72202H21.8915Z" fill="#583200"/>
</g>
<path d="M20.1263 1.45215H19.0732V2.56094H20.1263V1.45215Z" fill="#004358"/>
<path d="M19.8537 2.56104H19.3396V8.27221H19.8537V2.56104Z" fill="#F2F2F2"/>
<g style="mix-blend-mode:multiply" opacity="0.3">
<path d="M21.842 19.6079V13.1968H20.535V19.6079H20.8695V24.6191H20.535V26.304H21.842V24.6191H21.5075V19.6079H21.842Z" fill="#583200"/>
</g>
<path d="M20.1263 7.0332H19.0732V12.763H20.1263V7.0332Z" fill="#004358"/>
<path d="M21.4146 1.45215H20.3616V2.56094H21.4146V1.45215Z" fill="#004358"/>
<path d="M21.1483 2.56104H20.6342V8.27221H21.1483V2.56104Z" fill="#F2F2F2"/>
<path d="M21.4146 7.0332H20.3616V12.763H21.4146V7.0332Z" fill="#004358"/>
<path d="M20.8882 24.9722H19.5812V26.2296H20.8882V24.9722Z" fill="#004358"/>
<path d="M20.5537 18.4805H19.9156V24.9721H20.5537V18.4805Z" fill="#F2F2F2"/>
<path d="M20.8882 13.3765H19.5812V19.8929H20.8882V13.3765Z" fill="#004358"/>
<path d="M21.8792 12.7383H18.5839V13.6488H21.8792V12.7383Z" fill="#004358"/>
<path d="M21.8916 1H18.5839V1.45219H21.8916V1Z" fill="#004358"/>
<path d="M14.3147 67.5283H12.9806V70.3419H14.3147V67.5283Z" fill="#00659C"/>
<path d="M13.978 70.3418H13.3241V76.986H13.978V70.3418Z" fill="#F2F2F2"/>
<path d="M14.3147 75.5464H12.9806V82.217H14.3147V75.5464Z" fill="#00659C"/>
<path d="M28.0192 67.5283H26.6851V70.3419H28.0192V67.5283Z" fill="#00659C"/>
<path d="M27.6758 70.3418H27.022V76.986H27.6758V70.3418Z" fill="#F2F2F2"/>
<path d="M28.0192 75.5464H26.6851V82.217H28.0192V75.5464Z" fill="#00659C"/>
<path d="M16.2367 27.6699L13.7006 29.9287V31.2826L16.2367 29.0172V27.6699Z" fill="#FFBA1A"/>
<path d="M16.2367 24.8296L13.7006 27.095V28.4423L16.2367 26.1835V24.8296Z" fill="#FFBA1A"/>
<path d="M16.2367 21.9966L13.7006 24.2553V25.6093L16.2367 23.3439V21.9966Z" fill="#FFBA1A"/>
<path d="M24.7632 27.6699L27.3059 29.9287V31.2826L24.7632 29.0172V27.6699Z" fill="#FFBA1A"/>
<path d="M24.7632 24.8296L27.3059 27.095V28.4423L24.7632 26.1835V24.8296Z" fill="#FFBA1A"/>
<path d="M24.7632 21.9966L27.3059 24.2553V25.6093L24.7632 23.3439V21.9966Z" fill="#FFBA1A"/>
<path d="M10.1539 58.6519L8.83301 60.0851V59.1671L10.1539 57.7339V58.6519Z" fill="#FFBA1A"/>
<path d="M10.1539 60.8446L8.83301 62.2777V61.3531L10.1539 59.9199V60.8446Z" fill="#FFBA1A"/>
<path d="M10.1539 63.0369L8.83301 64.4701V63.5455L10.1539 62.1123V63.0369Z" fill="#FFBA1A"/>
<path d="M10.1539 65.2232L8.83301 66.6564V65.7384L10.1539 64.3052V65.2232Z" fill="#FFBA1A"/>
<path d="M10.1539 67.4161L8.83301 68.8493V67.9312L10.1539 66.498V67.4161Z" fill="#FFBA1A"/>
<path d="M10.1539 69.6087L8.83301 71.0419V70.1173L10.1539 68.6841V69.6087Z" fill="#FFBA1A"/>
<path d="M10.1539 71.8016L8.83301 73.2348V72.3101L10.1539 70.877V71.8016Z" fill="#FFBA1A"/>
<path d="M10.1539 73.9874L8.83301 75.4206V74.5025L10.1539 73.0693V73.9874Z" fill="#FFBA1A"/>
<path d="M30.8459 58.6519L32.1735 60.0851V59.1671L30.8459 57.7339V58.6519Z" fill="#FFBA1A"/>
<path d="M30.8459 60.8446L32.1735 62.2777V61.3531L30.8459 59.9199V60.8446Z" fill="#FFBA1A"/>
<path d="M30.8459 63.0369L32.1735 64.4701V63.5455L30.8459 62.1123V63.0369Z" fill="#FFBA1A"/>
<path d="M30.8459 65.2232L32.1735 66.6564V65.7384L30.8459 64.3052V65.2232Z" fill="#FFBA1A"/>
<path d="M30.8459 67.4161L32.1735 68.8493V67.9312L30.8459 66.498V67.4161Z" fill="#FFBA1A"/>
<path d="M30.8459 69.6087L32.1735 71.0419V70.1173L30.8459 68.6841V69.6087Z" fill="#FFBA1A"/>
<path d="M30.8459 71.8016L32.1735 73.2348V72.3101L30.8459 70.877V71.8016Z" fill="#FFBA1A"/>
<path d="M30.8459 73.9874L32.1735 75.4206V74.5025L30.8459 73.0693V73.9874Z" fill="#FFBA1A"/>
<path d="M24.7632 27.6699L27.3059 29.9287V31.2826L24.7632 29.0172V27.6699Z" fill="#FFE11A"/>
<path d="M24.7632 24.8296L27.3059 27.095V28.4423L24.7632 26.1835V24.8296Z" fill="#FFE11A"/>
<path d="M24.7632 21.9966L27.3059 24.2553V25.6093L24.7632 23.3439V21.9966Z" fill="#FFE11A"/>
<path d="M16.2367 27.6699L13.7006 29.9287V31.2826L16.2367 29.0172V27.6699Z" fill="#FFE11A"/>
<path d="M16.2367 24.8296L13.7006 27.095V28.4423L16.2367 26.1835V24.8296Z" fill="#FFE11A"/>
<path d="M16.2367 21.9966L13.7006 24.2553V25.6093L16.2367 23.3439V21.9966Z" fill="#FFE11A"/>
<g style="mix-blend-mode:multiply" opacity="0.3">
<path d="M30.4101 34.5581V55.2634H26.3285V34.3071C27.689 34.3666 29.0562 34.4524 30.4101 34.5581Z" fill="#583200"/>
</g>
</g>
<defs>
<filter id="filter0_d_30_7345" x="0" y="0" width="46.9801" height="110.823" filterUnits="userSpaceOnUse" color-interpolation-filters="sRGB">
<feFlood flood-opacity="0" result="BackgroundImageFix"/>
<feColorMatrix in="SourceAlpha" type="matrix" values="0 0 0 0 0 0 0 0 0 0 0 0 0 0 0 0 0 0 127 0" result="hardAlpha"/>
<feOffset dx="3" dy="3"/>
<feGaussianBlur stdDeviation="2"/>
<feComposite in2="hardAlpha" operator="out"/>
<feColorMatrix type="matrix" values="0 0 0 0 0 0 0 0 0 0 0 0 0 0 0 0 0 0 0.25 0"/>
<feBlend mode="normal" in2="BackgroundImageFix" result="effect1_dropShadow_30_7345"/>
<feBlend mode="normal" in="SourceGraphic" in2="effect1_dropShadow_30_7345" result="shape"/>
</filter>
</defs>
</svg>
