<svg width="47" height="108" viewBox="0 0 47 108" fill="none" xmlns="http://www.w3.org/2000/svg">
<g filter="url(#filter0_d_30_7161)">
<path d="M10.6954 59.1586C9.26718 58.9009 7.80434 58.9009 6.37607 59.1586C6.15098 59.2013 5.94766 59.3208 5.80074 59.4966C5.65383 59.6724 5.5724 59.8937 5.57031 60.1228V66.8661C5.57113 67.0955 5.65211 67.3175 5.79924 67.4936C5.94637 67.6696 6.15041 67.7888 6.37607 67.8304C7.80434 68.088 9.26718 68.088 10.6954 67.8304C10.9217 67.79 11.1265 67.6712 11.2738 67.4949C11.4212 67.3185 11.5017 67.0959 11.5012 66.8661V60.1228C11.5004 59.8934 11.4194 59.6714 11.2723 59.4953C11.1251 59.3193 10.9211 59.2001 10.6954 59.1586Z" fill="#D6D6D6"/>
<path d="M10.9002 57.4814C10.1536 57.129 9.33826 56.9463 8.51267 56.9463C7.68709 56.9463 6.87174 57.129 6.12512 57.4814V69.5083C6.87084 69.8638 7.68654 70.0483 8.51267 70.0483C9.3388 70.0483 10.1545 69.8638 10.9002 69.5083V57.4814Z" fill="#004358"/>
<path d="M9.37453 57.7321C8.80489 57.6529 8.22699 57.6529 7.65735 57.7321L7.45922 57.0717C7.00221 57.1636 6.55848 57.3123 6.13831 57.5142V57.3359C6.60117 57.1066 7.09516 56.9463 7.60452 56.8604L7.80265 57.5208C8.28074 57.4613 8.76436 57.4613 9.24245 57.5208C9.3151 57.2896 9.38114 57.0651 9.44718 56.8604C9.95627 56.9474 10.4501 57.1076 10.9134 57.3359V57.5142C10.4926 57.3137 10.0491 57.1651 9.59249 57.0717L9.37453 57.7321Z" fill="black"/>
<path d="M9.37453 58.8616C8.80405 58.7955 8.22783 58.7955 7.65735 58.8616L7.45922 58.2011C7.00752 58.2728 6.56473 58.3924 6.13831 58.5577V58.3794C6.60911 58.1896 7.10158 58.0587 7.60452 57.9897L7.80265 58.6502C8.28146 58.604 8.76363 58.604 9.24245 58.6502C9.3151 58.419 9.38114 58.1879 9.44718 57.9897C9.94995 58.0595 10.4423 58.1904 10.9134 58.3794V58.5577C10.4866 58.3934 10.0439 58.2739 9.59249 58.2011L9.37453 58.8616Z" fill="black"/>
<path d="M9.37453 60.0044C8.80307 59.9581 8.22881 59.9581 7.65735 60.0044L7.45922 59.3439C7.01163 59.4008 6.56972 59.4958 6.13831 59.6279V59.4496C6.6148 59.295 7.10624 59.1909 7.60452 59.1392C7.67056 59.3637 7.7366 59.5949 7.80265 59.8326C8.28176 59.793 8.76333 59.793 9.24245 59.8326C9.3151 59.5949 9.38114 59.3637 9.44718 59.1392C9.94532 59.1918 10.4367 59.2958 10.9134 59.4496V59.6279C10.4818 59.4967 10.0399 59.4017 9.59249 59.3439L9.37453 60.0044Z" fill="black"/>
<path d="M9.37453 61.1201C8.80654 61.1201 8.22534 61.1201 7.65735 61.1201L7.45922 60.4267C7.01487 60.469 6.57367 60.5396 6.13831 60.638V60.4597C6.62022 60.3443 7.11047 60.267 7.60452 60.2285L7.80265 60.889C8.27817 60.889 8.76692 60.889 9.24245 60.889C9.3151 60.6578 9.38114 60.4267 9.44718 60.2285C9.94117 60.2675 10.4314 60.3448 10.9134 60.4597V60.6644C10.4779 60.5668 10.0367 60.4962 9.59249 60.4531L9.37453 61.1201Z" fill="black"/>
<path d="M9.37453 62.2561C8.80654 62.2561 8.22534 62.2561 7.65735 62.2561L7.45922 61.556C7.0035 61.556 6.55439 61.6221 6.13831 61.6881V61.5098C6.62372 61.431 7.11327 61.3803 7.60452 61.3579L7.80265 62.058C8.27817 62.058 8.76692 62.058 9.24245 62.058C9.3151 61.8202 9.38114 61.5891 9.44718 61.3579C9.93841 61.3807 10.4279 61.4314 10.9134 61.5098V61.6881C10.4841 61.6221 10.035 61.5825 9.59249 61.556L9.37453 62.2561Z" fill="black"/>
<path d="M9.37453 63.3855H7.65735L7.45922 62.6788C7.0035 62.6788 6.55439 62.6788 6.13831 62.7317V62.5534C6.60723 62.5203 7.09597 62.5005 7.60452 62.4873L7.80265 63.194C8.27817 63.194 8.76692 63.194 9.24245 63.194C9.3151 62.9562 9.38114 62.7185 9.44718 62.4873C9.94913 62.4873 10.4445 62.5203 10.9134 62.5534V62.7317C10.4841 62.7317 10.035 62.6921 9.59249 62.6788L9.37453 63.3855Z" fill="black"/>
<path d="M9.37453 64.5152C8.80654 64.5152 8.22534 64.5152 7.65735 64.5152L7.45922 63.8019C7.0035 63.8019 6.55439 63.8019 6.13831 63.8019V63.6235H7.60452L7.80265 64.3434H9.24245C9.3151 64.0991 9.38114 63.8613 9.44718 63.6235H10.9134V63.8019C10.4841 63.8019 10.035 63.8019 9.59249 63.8019L9.37453 64.5152Z" fill="black"/>
<path d="M9.37453 65.6445C8.80262 65.6776 8.22926 65.6776 7.65735 65.6445L7.45922 64.9313C7.0035 64.9313 6.55439 64.8784 6.13831 64.8322V64.6274C6.60723 64.6671 7.09597 64.7001 7.60452 64.7133L7.80265 65.4332C8.27817 65.4332 8.76692 65.4332 9.24245 65.4332C9.3151 65.1954 9.38114 64.9577 9.44718 64.7133C9.94913 64.7133 10.4445 64.6671 10.9134 64.6274V64.8058C10.4841 64.852 10.035 64.885 9.59249 64.9048L9.37453 65.6445Z" fill="black"/>
<path d="M9.37453 66.7806C8.80283 66.8203 8.22905 66.8203 7.65735 66.7806L7.45922 66.0541C7.01606 66.0215 6.57507 65.9642 6.13831 65.8824V65.7041C6.62345 65.7874 7.113 65.8425 7.60452 65.8692L7.80265 66.5957C8.28201 66.6287 8.76308 66.6287 9.24245 66.5957C9.3151 66.3513 9.38114 66.1136 9.44718 65.8692C9.93867 65.8422 10.4282 65.787 10.9134 65.7041V65.8824C10.4765 65.9636 10.0356 66.0209 9.59249 66.0541L9.37453 66.7806Z" fill="black"/>
<path d="M9.37453 67.9297C8.80368 67.9892 8.2282 67.9892 7.65735 67.9297L7.45922 67.1966C7.01255 67.1508 6.57063 67.0669 6.13831 66.9456V66.7739C6.61985 66.8938 7.11011 66.9755 7.60452 67.0183L7.80265 67.7514C8.28176 67.791 8.76333 67.791 9.24245 67.7514C9.3151 67.507 9.38114 67.2627 9.44718 67.0183C9.94152 66.975 10.4317 66.8933 10.9134 66.7739V66.9456C10.4808 67.0659 10.039 67.1499 9.59249 67.1966L9.37453 67.9297Z" fill="black"/>
<path d="M9.37453 69.039C8.80489 69.1183 8.22699 69.1183 7.65735 69.039L7.45922 68.3059C7.00904 68.24 6.56655 68.1294 6.13831 67.9757V67.7974C6.61324 67.9616 7.10502 68.0724 7.60452 68.1276L7.80265 68.8673C8.28146 68.9135 8.76363 68.9135 9.24245 68.8673C9.3151 68.6163 9.38114 68.372 9.44718 68.1276C9.94657 68.0717 10.4383 67.9609 10.9134 67.7974V67.9757C10.4848 68.1282 10.0424 68.2388 9.59249 68.3059L9.37453 69.039Z" fill="black"/>
<path d="M9.37453 70.1686C8.80587 70.261 8.22601 70.261 7.65735 70.1686L7.45922 69.4289C7.00448 69.3475 6.56106 69.2122 6.13831 69.026V68.8477C6.6073 69.0469 7.10014 69.1846 7.60452 69.2571L7.80265 69.9969C8.28033 70.0625 8.76476 70.0625 9.24245 69.9969C9.3151 69.7525 9.38114 69.5081 9.44718 69.2571C9.95138 69.1837 10.4441 69.0461 10.9134 68.8477V69.026C10.4902 69.2111 10.0469 69.3463 9.59249 69.4289L9.37453 70.1686Z" fill="black"/>
<g style="mix-blend-mode:multiply" opacity="0.5">
<path d="M10.9002 58.4915V57.3159C10.4369 57.0876 9.94309 56.9274 9.434 56.8403C9.434 56.8932 9.40098 56.9526 9.38116 57.012C8.80364 56.9196 8.21508 56.9196 7.63756 57.012C7.63756 56.9526 7.60454 56.8932 7.59133 56.8403C7.08198 56.9263 6.58799 57.0865 6.12512 57.3159V58.4915C7.66015 57.8908 9.36519 57.8908 10.9002 58.4915Z" fill="black"/>
</g>
<g style="mix-blend-mode:multiply" opacity="0.5">
<path d="M6.12512 66.9058V69.508C6.59205 69.7301 7.08781 69.8857 7.59794 69.9703L7.65077 70.1684C8.21943 70.2609 8.7993 70.2609 9.36796 70.1684C9.36796 70.1024 9.36796 70.0363 9.4208 69.9703C9.93281 69.8847 10.4306 69.7292 10.9002 69.508V66.9058C9.33487 67.3154 7.69047 67.3154 6.12512 66.9058Z" fill="black"/>
</g>
<path d="M10.6954 88.6547C9.26718 88.397 7.80434 88.397 6.37607 88.6547C6.15041 88.6962 5.94637 88.8154 5.79924 88.9914C5.65211 89.1675 5.57113 89.3895 5.57031 89.6189V96.3622C5.5724 96.5913 5.65383 96.8126 5.80074 96.9884C5.94766 97.1642 6.15098 97.2837 6.37607 97.3264C7.80492 97.5774 9.26659 97.5774 10.6954 97.3264C10.9211 97.2849 11.1251 97.1657 11.2723 96.9897C11.4194 96.8136 11.5004 96.5916 11.5012 96.3622V89.6189C11.5017 89.3891 11.4212 89.1665 11.2738 88.9902C11.1265 88.8138 10.9217 88.695 10.6954 88.6547Z" fill="#D6D6D6"/>
<path d="M10.9002 86.977C10.1545 86.6215 9.3388 86.437 8.51267 86.437C7.68654 86.437 6.87084 86.6215 6.12512 86.977V99.0039C6.87174 99.3563 7.68709 99.539 8.51267 99.539C9.33826 99.539 10.1536 99.3563 10.9002 99.0039V86.977Z" fill="#004358"/>
<path d="M9.37453 87.2217C8.80445 87.149 8.22743 87.149 7.65735 87.2217L7.45922 86.5612C7.00163 86.6477 6.55748 86.7942 6.13831 86.9971V86.8188C6.60117 86.5895 7.09516 86.4292 7.60452 86.3433L7.80265 87.0037C8.28074 86.9442 8.76436 86.9442 9.24245 87.0037C9.3151 86.7726 9.38114 86.5414 9.44718 86.3433C9.95627 86.4303 10.4501 86.5905 10.9134 86.8188V86.9971C10.4936 86.7959 10.0496 86.6494 9.59249 86.5612L9.37453 87.2217Z" fill="black"/>
<path d="M9.37453 88.3576C8.80405 88.2916 8.22783 88.2916 7.65735 88.3576L7.45922 87.6972C7.00729 87.7711 6.5645 87.8929 6.13831 88.0604V87.8821C6.60885 87.6901 7.10132 87.557 7.60452 87.4858L7.80265 88.1463C8.28146 88.1001 8.76363 88.1001 9.24245 88.1463C9.3151 87.9151 9.38114 87.6906 9.44718 87.4858C9.95021 87.5579 10.4426 87.691 10.9134 87.8821V88.0604C10.4868 87.8942 10.0441 87.7724 9.59249 87.6972L9.37453 88.3576Z" fill="black"/>
<path d="M9.37453 89.487C8.80307 89.4408 8.22881 89.4408 7.65735 89.487L7.45922 88.8266C7.01105 88.88 6.56883 88.9751 6.13831 89.1106V88.9323C6.61542 88.7786 7.10654 88.6724 7.60452 88.6152L7.80265 89.3087C8.28201 89.2757 8.76308 89.2757 9.24245 89.3087C9.3151 89.0775 9.38114 88.8464 9.44718 88.6152C9.94505 88.6731 10.4361 88.7792 10.9134 88.9323V89.0643C10.4826 88.93 10.0405 88.835 9.59249 88.7803L9.37453 89.487Z" fill="black"/>
<path d="M9.37453 90.6165C8.80262 90.5835 8.22926 90.5835 7.65735 90.6165L7.45922 89.923C7.01502 89.9632 6.57382 90.0315 6.13831 90.1277V89.956C6.62004 89.8384 7.11029 89.7589 7.60452 89.7183L7.80265 90.4183C8.28221 90.3919 8.76288 90.3919 9.24245 90.4183C9.3151 90.1806 9.38114 89.9494 9.44718 89.7183C9.94135 89.7594 10.4316 89.8389 10.9134 89.956V90.1277C10.4777 90.0323 10.0366 89.9639 9.59249 89.923L9.37453 90.6165Z" fill="black"/>
<path d="M9.37453 91.7459C8.80654 91.7459 8.22534 91.7459 7.65735 91.7459L7.45922 91.0458C7.0035 91.0458 6.55439 91.1184 6.13831 91.1779V90.9995C6.62414 90.924 7.11352 90.8733 7.60452 90.8477L7.80265 91.5543C8.27817 91.5543 8.76692 91.5543 9.24245 91.5543C9.3151 91.3166 9.38114 91.0788 9.44718 90.8477C9.93816 90.8737 10.4275 90.9244 10.9134 90.9995V91.1779C10.4841 91.1184 10.035 91.0722 9.59249 91.0458L9.37453 91.7459Z" fill="black"/>
<path d="M9.37453 92.8819H7.65735L7.45922 92.1752C7.0035 92.1752 6.55439 92.1752 6.13831 92.228V92.0497C6.60723 92.0497 7.09597 91.9903 7.60452 91.9771L7.80265 92.6837H9.24245C9.3151 92.446 9.38114 92.2148 9.44718 91.9771C9.94913 91.9771 10.4445 92.0167 10.9134 92.0497V92.228C10.4841 92.228 10.035 92.1818 9.59249 92.1752L9.37453 92.8819Z" fill="black"/>
<path d="M9.37453 94.0112C8.80654 94.0112 8.22534 94.0112 7.65735 94.0112L7.45922 93.2979H6.13831V93.1196H7.60452L7.80265 93.8329H9.24245C9.3151 93.5951 9.38114 93.3574 9.44718 93.1196H10.9134V93.2979H9.59249L9.37453 94.0112Z" fill="black"/>
<path d="M9.37453 95.1406C8.80654 95.1406 8.22534 95.1406 7.65735 95.1406L7.45922 94.4207C7.0035 94.4207 6.55439 94.3678 6.13831 94.3282V94.1499C6.60723 94.1895 7.09597 94.2225 7.60452 94.2357L7.80265 94.9557C8.27817 94.9557 8.76692 94.9557 9.24245 94.9557C9.3151 94.7179 9.38114 94.4735 9.44718 94.2357C9.94913 94.2357 10.4445 94.1895 10.9134 94.1499V94.348C10.4841 94.3877 10.035 94.4207 9.59249 94.4405L9.37453 95.1406Z" fill="black"/>
<path d="M9.37453 96.2699C8.80307 96.3161 8.22881 96.3161 7.65735 96.2699L7.45922 95.55C7.01592 95.5153 6.57493 95.4558 6.13831 95.3717V95.1934C6.62331 95.2789 7.11287 95.3362 7.60452 95.3651L7.80265 96.0916C8.28221 96.118 8.76288 96.118 9.24245 96.0916C9.3151 95.8472 9.38114 95.6028 9.44718 95.3651C9.9388 95.3359 10.4283 95.2785 10.9134 95.1934V95.3717C10.4767 95.455 10.0357 95.5146 9.59249 95.55L9.37453 96.2699Z" fill="black"/>
<path d="M9.37453 97.4056C8.80368 97.465 8.2282 97.465 7.65735 97.4056L7.45922 96.6725C7.01303 96.6235 6.57137 96.5396 6.13831 96.4215V96.2432C6.61967 96.3653 7.10994 96.4492 7.60452 96.4941L7.80265 97.2206C8.28146 97.2669 8.76363 97.2669 9.24245 97.2206C9.3151 96.9829 9.38114 96.7385 9.44718 96.4941C9.94169 96.4487 10.4319 96.3647 10.9134 96.2432V96.4215C10.4801 96.5387 10.0385 96.6225 9.59249 96.6725L9.37453 97.4056Z" fill="black"/>
<path d="M9.37453 98.5351C8.80445 98.6078 8.22743 98.6078 7.65735 98.5351L7.45922 97.7954C7.00925 97.7317 6.56676 97.6233 6.13831 97.4718V97.2935C6.61412 97.4546 7.10556 97.5653 7.60452 97.6237L7.80265 98.3568C8.28112 98.4096 8.76397 98.4096 9.24245 98.3568C9.3151 98.1124 9.38114 97.8681 9.44718 97.6237C9.94602 97.5646 10.4374 97.4539 10.9134 97.2935V97.4718C10.4846 97.6222 10.0422 97.7305 9.59249 97.7954L9.37453 98.5351Z" fill="black"/>
<path d="M9.37453 99.6647C8.80587 99.7571 8.22601 99.7571 7.65735 99.6647L7.45922 98.9184C7.00472 98.8393 6.56128 98.7062 6.13831 98.5221V98.3438C6.6073 98.543 7.10014 98.6807 7.60452 98.7532L7.80265 99.493C8.28074 99.5524 8.76436 99.5524 9.24245 99.493C9.3151 99.2486 9.38114 98.9976 9.44718 98.7532C9.95138 98.6798 10.4441 98.5422 10.9134 98.3438V98.5221C10.49 98.705 10.0467 98.838 9.59249 98.9184L9.37453 99.6647Z" fill="black"/>
<g style="mix-blend-mode:multiply" opacity="0.5">
<path d="M10.9002 87.9812V86.8056C10.4369 86.5773 9.94309 86.4172 9.434 86.3301C9.434 86.3895 9.40098 86.449 9.38116 86.5084C8.80364 86.4159 8.21508 86.4159 7.63756 86.5084C7.63756 86.449 7.60454 86.3895 7.59133 86.3301C7.08198 86.4161 6.58799 86.5763 6.12512 86.8056V87.9812C7.66111 87.3857 9.36422 87.3857 10.9002 87.9812Z" fill="black"/>
</g>
<g style="mix-blend-mode:multiply" opacity="0.5">
<path d="M6.12512 96.4019V99.0041C6.59205 99.2262 7.08781 99.3818 7.59794 99.4664L7.65077 99.6645C8.21943 99.757 8.7993 99.757 9.36796 99.6645C9.36796 99.5985 9.36796 99.5324 9.4208 99.4664C9.93281 99.3808 10.4306 99.2253 10.9002 99.0041V96.4019C9.33487 96.8115 7.69047 96.8115 6.12512 96.4019Z" fill="black"/>
</g>
<path d="M30.3308 59.1586C31.7591 58.9009 33.2219 58.9009 34.6502 59.1586C34.8758 59.2001 35.0799 59.3193 35.227 59.4953C35.3741 59.6714 35.4551 59.8934 35.4559 60.1228V66.8661C35.4564 67.0959 35.3759 67.3185 35.2285 67.4949C35.0812 67.6712 34.8764 67.79 34.6502 67.8304C33.2219 68.088 31.7591 68.088 30.3308 67.8304C30.1046 67.79 29.8998 67.6712 29.7524 67.4949C29.6051 67.3185 29.5246 67.0959 29.525 66.8661V60.1228C29.5258 59.8934 29.6068 59.6714 29.754 59.4953C29.9011 59.3193 30.1051 59.2001 30.3308 59.1586Z" fill="#D6D6D6"/>
<path d="M30.0996 57.4811C30.8474 57.1286 31.6638 56.9458 32.4905 56.9458C33.3171 56.9458 34.1336 57.1286 34.8813 57.4811V69.508C34.1344 69.8636 33.3177 70.0481 32.4905 70.0481C31.6632 70.0481 30.8465 69.8636 30.0996 69.508V57.4811Z" fill="#004358"/>
<path d="M31.6319 57.7321C32.2015 57.6529 32.7794 57.6529 33.3491 57.7321L33.5472 57.0717C34.0038 57.1651 34.4474 57.3137 34.8681 57.5142V57.3359C34.4048 57.1076 33.911 56.9474 33.4019 56.8604C33.3359 57.0849 33.2632 57.3095 33.1972 57.5208C32.7191 57.4613 32.2355 57.4613 31.7574 57.5208C31.6913 57.2896 31.6253 57.0651 31.5526 56.8604C31.0436 56.9474 30.5497 57.1076 30.0864 57.3359V57.5142C30.5072 57.3137 30.9507 57.1651 31.4073 57.0717L31.6319 57.7321Z" fill="black"/>
<path d="M31.6319 58.8616C32.2024 58.7955 32.7786 58.7955 33.3491 58.8616L33.5472 58.2011C33.9987 58.2739 34.4414 58.3934 34.8681 58.5577V58.3794C34.3971 58.1904 33.9047 58.0595 33.4019 57.9897C33.3359 58.2143 33.2632 58.4455 33.1972 58.6502C32.7184 58.604 32.2362 58.604 31.7574 58.6502C31.6913 58.419 31.6253 58.1879 31.5526 57.9897C31.0499 58.0595 30.5575 58.1904 30.0864 58.3794V58.5577C30.5132 58.3934 30.9559 58.2739 31.4073 58.2011L31.6319 58.8616Z" fill="black"/>
<path d="M31.6319 60.0044C32.2034 59.9581 32.7776 59.9581 33.3491 60.0044L33.5472 59.3439C33.9946 59.4017 34.4365 59.4967 34.8681 59.6279V59.4496C34.3914 59.2958 33.9 59.1918 33.4019 59.1392C33.3359 59.3637 33.2632 59.5949 33.1972 59.8326C32.7181 59.793 32.2365 59.793 31.7574 59.8326C31.6913 59.5949 31.6253 59.3637 31.5526 59.1392C31.0545 59.1918 30.5632 59.2958 30.0864 59.4496V59.6279C30.5181 59.4967 30.9599 59.4017 31.4073 59.3439L31.6319 60.0044Z" fill="black"/>
<path d="M31.6319 61.1201C32.1999 61.1201 32.7811 61.1201 33.3491 61.1201L33.5472 60.4267C33.9915 60.4698 34.4326 60.5403 34.8681 60.638V60.4597C34.3861 60.3448 33.8959 60.2675 33.4019 60.2285C33.3359 60.4597 33.2632 60.6908 33.1972 60.889C32.7216 60.889 32.2329 60.889 31.7574 60.889C31.6913 60.6578 31.6253 60.4267 31.5526 60.2285C31.0587 60.2675 30.5684 60.3448 30.0864 60.4597V60.6644C30.5219 60.5668 30.9631 60.4962 31.4073 60.4531L31.6319 61.1201Z" fill="black"/>
<path d="M31.6319 62.2561C32.1999 62.2561 32.7811 62.2561 33.3491 62.2561L33.5472 61.556C34.0029 61.556 34.452 61.6221 34.8681 61.6881V61.5098C34.3827 61.4314 33.8931 61.3807 33.4019 61.3579C33.3359 61.5891 33.2632 61.8202 33.1972 62.058C32.7216 62.058 32.2329 62.058 31.7574 62.058C31.6913 61.8202 31.6253 61.5891 31.5526 61.3579C31.0614 61.3807 30.5719 61.4314 30.0864 61.5098V61.6881C30.5157 61.6221 30.9648 61.5825 31.4073 61.556L31.6319 62.2561Z" fill="black"/>
<path d="M31.6319 63.3855H33.3491L33.5472 62.6788C34.0029 62.6788 34.452 62.6788 34.8681 62.7317V62.5534C34.3992 62.5203 33.9039 62.5005 33.4019 62.4873C33.3359 62.7185 33.2632 62.9562 33.1972 63.194C32.7216 63.194 32.2329 63.194 31.7574 63.194C31.6913 62.9562 31.6253 62.7185 31.5526 62.4873C31.0507 62.4873 30.5553 62.5203 30.0864 62.5534V62.7317C30.5157 62.7317 30.9648 62.6921 31.4073 62.6788L31.6319 63.3855Z" fill="black"/>
<path d="M31.6319 64.5152C32.1999 64.5152 32.7811 64.5152 33.3491 64.5152L33.5472 63.8019C34.0029 63.8019 34.452 63.8019 34.8681 63.8019V63.6235H33.4151C33.349 63.8613 33.2764 64.0991 33.2104 64.3434H31.7706C31.7045 64.0991 31.6385 63.8613 31.5658 63.6235H30.0996V63.8019C30.5289 63.8019 30.978 63.8019 31.4205 63.8019L31.6319 64.5152Z" fill="black"/>
<path d="M31.6319 65.6445C32.2038 65.6776 32.7772 65.6776 33.3491 65.6445L33.5472 64.9313C34.0029 64.9313 34.452 64.8784 34.8681 64.8322V64.6274C34.3992 64.6671 33.9039 64.7001 33.4019 64.7133C33.3359 64.9577 33.2632 65.1954 33.1972 65.4332C32.7216 65.4332 32.2329 65.4332 31.7574 65.4332C31.6913 65.1954 31.6253 64.9577 31.5526 64.7133C31.0507 64.7133 30.5553 64.6671 30.0864 64.6274V64.8058C30.5157 64.852 30.9648 64.885 31.4073 64.9048L31.6319 65.6445Z" fill="black"/>
<path d="M31.6319 66.7806C32.2036 66.8203 32.7774 66.8203 33.3491 66.7806L33.5472 66.0541C33.9903 66.0209 34.4313 65.9636 34.8681 65.8824V65.7041C34.3829 65.787 33.8934 65.8422 33.4019 65.8692C33.3359 66.1136 33.2632 66.3513 33.1972 66.5957C32.7178 66.6287 32.2367 66.6287 31.7574 66.5957C31.6913 66.3513 31.6253 66.1136 31.5526 65.8692C31.0612 65.8422 30.5716 65.787 30.0864 65.7041V65.8824C30.5233 65.9636 30.9642 66.0209 31.4073 66.0541L31.6319 66.7806Z" fill="black"/>
<path d="M31.6319 67.9297C32.2027 67.9892 32.7782 67.9892 33.3491 67.9297L33.5472 67.1966C33.9937 67.1499 34.4356 67.0659 34.8681 66.9456V66.7739C34.3865 66.8933 33.8962 66.975 33.4019 67.0183C33.3359 67.2627 33.2632 67.507 33.1972 67.7514C32.7181 67.791 32.2365 67.791 31.7574 67.7514C31.6913 67.507 31.6253 67.2627 31.5526 67.0183C31.0583 66.975 30.5681 66.8933 30.0864 66.7739V66.9456C30.519 67.0659 30.9608 67.1499 31.4073 67.1966L31.6319 67.9297Z" fill="black"/>
<path d="M31.6319 69.039C32.2015 69.1183 32.7794 69.1183 33.3491 69.039L33.5472 68.3059C33.9972 68.2388 34.4395 68.1282 34.8681 67.9757V67.7974C34.393 67.9609 33.9013 68.0717 33.4019 68.1276C33.3359 68.372 33.2632 68.6163 33.1972 68.8673C32.7184 68.9135 32.2362 68.9135 31.7574 68.8673C31.6913 68.6163 31.6253 68.372 31.5526 68.1276C31.0533 68.0717 30.5616 67.9609 30.0864 67.7974V67.9757C30.515 68.1282 30.9574 68.2388 31.4073 68.3059L31.6319 69.039Z" fill="black"/>
<path d="M31.6319 70.1686C32.2006 70.261 32.7804 70.261 33.3491 70.1686L33.5472 69.4289C34.0017 69.3463 34.445 69.2111 34.8681 69.026V68.8477C34.3988 69.0461 33.9061 69.1837 33.4019 69.2571C33.3359 69.5081 33.2632 69.7525 33.1972 69.9969C32.7195 70.0625 32.2351 70.0625 31.7574 69.9969C31.6913 69.7525 31.6253 69.5081 31.5526 69.2571C31.0484 69.1837 30.5557 69.0461 30.0864 68.8477V69.026C30.5096 69.2111 30.9529 69.3463 31.4073 69.4289L31.6319 70.1686Z" fill="black"/>
<g style="mix-blend-mode:multiply" opacity="0.5">
<path d="M30.0996 58.4915V57.3159C30.5629 57.0876 31.0567 56.9274 31.5658 56.8403C31.5873 56.8963 31.605 56.9537 31.6186 57.012C32.1962 56.9196 32.7847 56.9196 33.3623 57.012C33.376 56.9537 33.3936 56.8963 33.4151 56.8403C33.9242 56.9274 34.418 57.0876 34.8813 57.3159V58.4915C33.3441 57.8904 31.6368 57.8904 30.0996 58.4915Z" fill="black"/>
</g>
<g style="mix-blend-mode:multiply" opacity="0.5">
<path d="M34.8813 66.9058V69.508C34.4117 69.7292 33.9139 69.8847 33.4019 69.9703L33.3491 70.1684C32.7804 70.2609 32.2005 70.2609 31.6319 70.1684L31.579 69.9703C31.067 69.8847 30.5692 69.7292 30.0996 69.508V66.9058C31.6672 67.3153 33.3137 67.3153 34.8813 66.9058Z" fill="black"/>
</g>
<path d="M30.3308 88.6547C31.7591 88.397 33.2219 88.397 34.6502 88.6547C34.8764 88.695 35.0812 88.8138 35.2285 88.9902C35.3759 89.1665 35.4564 89.3891 35.4559 89.6189V96.3622C35.4551 96.5916 35.3741 96.8136 35.227 96.9897C35.0799 97.1657 34.8758 97.2849 34.6502 97.3264C33.2213 97.5774 31.7596 97.5774 30.3308 97.3264C30.1051 97.2849 29.9011 97.1657 29.754 96.9897C29.6068 96.8136 29.5258 96.5916 29.525 96.3622V89.6189C29.5246 89.3891 29.6051 89.1665 29.7524 88.9902C29.8998 88.8138 30.1046 88.695 30.3308 88.6547Z" fill="#D6D6D6"/>
<path d="M30.0996 86.9772C30.8465 86.6215 31.6632 86.437 32.4905 86.437C33.3177 86.437 34.1344 86.6215 34.8813 86.9772V99.0041C34.1336 99.3566 33.3171 99.5394 32.4905 99.5394C31.6638 99.5394 30.8474 99.3566 30.0996 99.0041V86.9772Z" fill="#004358"/>
<path d="M31.6319 87.2217C32.202 87.149 32.779 87.149 33.3491 87.2217L33.5472 86.5612C34.0044 86.6494 34.4483 86.7959 34.8681 86.9971V86.8188C34.4048 86.5905 33.911 86.4303 33.4019 86.3433C33.3359 86.5678 33.2632 86.799 33.1972 87.0037C32.7191 86.9442 32.2355 86.9442 31.7574 87.0037C31.6913 86.7726 31.6253 86.5414 31.5526 86.3433C31.0436 86.4303 30.5497 86.5905 30.0864 86.8188V86.9971C30.5063 86.7959 30.9502 86.6494 31.4073 86.5612L31.6319 87.2217Z" fill="black"/>
<path d="M31.6319 88.3576C32.2024 88.2916 32.7786 88.2916 33.3491 88.3576L33.5472 87.6972C33.9989 87.7724 34.4415 87.8942 34.8681 88.0604V87.8821C34.3973 87.691 33.9049 87.5579 33.4019 87.4858C33.3359 87.717 33.2632 87.9416 33.1972 88.1463C32.7184 88.1001 32.2362 88.1001 31.7574 88.1463C31.6913 87.9151 31.6253 87.6906 31.5526 87.4858C31.0496 87.5579 30.5573 87.691 30.0864 87.8821V88.0604C30.513 87.8942 30.9557 87.7724 31.4073 87.6972L31.6319 88.3576Z" fill="black"/>
<path d="M31.6319 89.487C32.2034 89.4408 32.7776 89.4408 33.3491 89.487L33.5472 88.8266C33.9952 88.8812 34.4373 88.9763 34.8681 89.1106V88.9323C34.3908 88.7792 33.8998 88.6731 33.4019 88.6152C33.3359 88.8464 33.2632 89.0775 33.1972 89.3087C32.7178 89.2757 32.2367 89.2757 31.7574 89.3087C31.6913 89.0775 31.6253 88.8464 31.5526 88.6152C31.0548 88.6731 30.5637 88.7792 30.0864 88.9323V89.0643C30.5173 88.93 30.9594 88.835 31.4073 88.7803L31.6319 89.487Z" fill="black"/>
<path d="M31.6319 90.6165C32.2038 90.5835 32.7772 90.5835 33.3491 90.6165L33.5472 89.923C33.9913 89.9639 34.4325 90.0323 34.8681 90.1277V89.956C34.3863 89.8389 33.8961 89.7594 33.4019 89.7183C33.3359 89.9494 33.2632 90.1806 33.1972 90.4183C32.7176 90.3919 32.2369 90.3919 31.7574 90.4183C31.6913 90.1806 31.6253 89.9494 31.5526 89.7183C31.0585 89.7594 30.5683 89.8389 30.0864 89.956V90.1277C30.5221 90.0323 30.9632 89.9639 31.4073 89.923L31.6319 90.6165Z" fill="black"/>
<path d="M31.6319 91.7459C32.1999 91.7459 32.7811 91.7459 33.3491 91.7459L33.5472 91.0458C34.0029 91.0458 34.452 91.1184 34.8681 91.1779V90.9995C34.3822 90.9244 33.8929 90.8737 33.4019 90.8477C33.3359 91.0788 33.2632 91.3166 33.1972 91.5543C32.7216 91.5543 32.2329 91.5543 31.7574 91.5543C31.6913 91.3166 31.6253 91.0788 31.5526 90.8477C31.0617 90.8737 30.5723 90.9244 30.0864 90.9995V91.1779C30.5157 91.1184 30.9648 91.0722 31.4073 91.0458L31.6319 91.7459Z" fill="black"/>
<path d="M31.6319 92.8819H33.3491L33.5472 92.1752C34.0029 92.1752 34.452 92.1752 34.8681 92.228V92.0497C34.3992 92.0497 33.9039 91.9903 33.4019 91.9771C33.3359 92.2148 33.2632 92.446 33.1972 92.6837H31.7574C31.6913 92.446 31.6253 92.2148 31.5526 91.9771C31.0507 91.9771 30.5553 92.0167 30.0864 92.0497V92.228C30.5157 92.228 30.9648 92.1818 31.4073 92.1752L31.6319 92.8819Z" fill="black"/>
<path d="M31.6319 94.0112C32.1999 94.0112 32.7811 94.0112 33.3491 94.0112L33.5472 93.2979H34.8681V93.1196H33.4151C33.349 93.3574 33.2764 93.5951 33.2104 93.8329H31.7706C31.7045 93.5951 31.6385 93.3574 31.5658 93.1196H30.0996V93.2979H31.4205L31.6319 94.0112Z" fill="black"/>
<path d="M31.6319 95.1406C32.1999 95.1406 32.7811 95.1406 33.3491 95.1406L33.5472 94.4207C34.0029 94.4207 34.452 94.3678 34.8681 94.3282V94.1499C34.3992 94.1895 33.9039 94.2225 33.4019 94.2357L33.1972 94.9557C32.7216 94.9557 32.2329 94.9557 31.7574 94.9557C31.6913 94.7179 31.6253 94.4735 31.5526 94.2357C31.0507 94.2357 30.5553 94.1895 30.0864 94.1499V94.348C30.5157 94.3877 30.9648 94.4207 31.4073 94.4405L31.6319 95.1406Z" fill="black"/>
<path d="M31.6319 96.2699C32.2034 96.3161 32.7776 96.3161 33.3491 96.2699L33.5472 95.55C33.9904 95.5146 34.4314 95.455 34.8681 95.3717V95.1934C34.3831 95.2785 33.8935 95.3359 33.4019 95.3651C33.3359 95.6028 33.2632 95.8472 33.1972 96.0916C32.7176 96.118 32.2369 96.118 31.7574 96.0916C31.6913 95.8472 31.6253 95.6028 31.5526 95.3651C31.061 95.3359 30.5715 95.2785 30.0864 95.1934V95.3717C30.5232 95.455 30.9641 95.5146 31.4073 95.55L31.6319 96.2699Z" fill="black"/>
<path d="M31.6319 97.4056C32.2027 97.465 32.7782 97.465 33.3491 97.4056L33.5472 96.6725C33.9933 96.6225 34.4349 96.5387 34.8681 96.4215V96.2432C34.3866 96.3647 33.8964 96.4487 33.4019 96.4941C33.3359 96.7385 33.2632 96.9829 33.1972 97.2206C32.7184 97.2669 32.2362 97.2669 31.7574 97.2206C31.6913 96.9829 31.6253 96.7385 31.5526 96.4941C31.0581 96.4487 30.5679 96.3647 30.0864 96.2432V96.4215C30.5197 96.5387 30.9613 96.6225 31.4073 96.6725L31.6319 97.4056Z" fill="black"/>
<path d="M31.6319 98.5351C32.202 98.6078 32.779 98.6078 33.3491 98.5351L33.5472 97.7954C33.997 97.7305 34.4393 97.6222 34.8681 97.4718V97.2935C34.3921 97.4539 33.9008 97.5646 33.4019 97.6237C33.3359 97.8681 33.2632 98.1124 33.1972 98.3568C32.7187 98.4096 32.2359 98.4096 31.7574 98.3568C31.6913 98.1124 31.6253 97.8681 31.5526 97.6237C31.0538 97.5646 30.5624 97.4539 30.0864 97.2935V97.4718C30.5152 97.6222 30.9576 97.7305 31.4073 97.7954L31.6319 98.5351Z" fill="black"/>
<path d="M31.6319 99.6647C32.2006 99.7571 32.7804 99.7571 33.3491 99.6647L33.5472 98.9184C34.0014 98.838 34.4447 98.705 34.8681 98.5221V98.3438C34.3988 98.5422 33.9061 98.6798 33.4019 98.7532L33.1972 99.493C32.7191 99.5524 32.2355 99.5524 31.7574 99.493C31.6913 99.2486 31.6253 98.9976 31.5526 98.7532C31.0484 98.6798 30.5557 98.5422 30.0864 98.3438V98.5221C30.5099 98.705 30.9531 98.838 31.4073 98.9184L31.6319 99.6647Z" fill="black"/>
<g style="mix-blend-mode:multiply" opacity="0.5">
<path d="M30.0996 87.9812V86.8056C30.5629 86.5773 31.0567 86.4172 31.5658 86.3301C31.5865 86.3886 31.6041 86.4481 31.6186 86.5084C32.1962 86.4159 32.7847 86.4159 33.3623 86.5084C33.3768 86.4481 33.3945 86.3886 33.4151 86.3301C33.9242 86.4172 34.418 86.5773 34.8813 86.8056V87.9812C33.3433 87.384 31.6376 87.384 30.0996 87.9812Z" fill="black"/>
</g>
<g style="mix-blend-mode:multiply" opacity="0.5">
<path d="M34.8813 96.4019V99.0041C34.4117 99.2253 33.9139 99.3808 33.4019 99.4664L33.3491 99.6645C32.7804 99.757 32.2005 99.757 31.6319 99.6645L31.579 99.4664C31.067 99.3808 30.5692 99.2253 30.0996 99.0041V96.4019C31.6672 96.8114 33.3137 96.8114 34.8813 96.4019Z" fill="black"/>
</g>
<path d="M31.3479 98.9713C24.1247 99.4732 16.8752 99.4732 9.65197 98.9713C8.88584 98.9184 8.26501 98.5552 8.26501 98.1721V46.3924C8.26501 46.0093 8.92547 45.7319 9.66518 45.7319H31.3413C32.1141 45.7319 32.7349 46.0423 32.7349 46.3924V98.1985C32.7349 98.5816 32.1141 98.9713 31.3479 98.9713Z" fill="#0595B5"/>
<path d="M36.0636 31.4065C36.0636 31.5372 36.0249 31.6649 35.9523 31.7735C35.8797 31.8821 35.7766 31.9667 35.6559 32.0167C35.5352 32.0667 35.4024 32.0798 35.2743 32.0543C35.1462 32.0288 35.0285 31.9659 34.9361 31.8736C34.8438 31.7812 34.7809 31.6635 34.7554 31.5354C34.7299 31.4073 34.743 31.2745 34.7929 31.1538C34.8429 31.0331 34.9276 30.93 35.0362 30.8574C35.1448 30.7848 35.2725 30.7461 35.4031 30.7461C35.5783 30.7461 35.7463 30.8157 35.8701 30.9395C35.994 31.0634 36.0636 31.2314 36.0636 31.4065Z" fill="#102030"/>
<path d="M33.9898 33.3944L33.6727 33.1236L35.4362 31.0762L36.3938 32.3112L36.0636 32.5688L35.4229 31.7366L33.9898 33.3944Z" fill="#102030"/>
<path d="M39.1809 32.4365H36.2287C36.0167 32.4365 35.8134 32.5207 35.6636 32.6706C35.5137 32.8205 35.4295 33.0237 35.4295 33.2357V34.3122H39.98V33.2357C39.98 33.0237 39.8958 32.8205 39.746 32.6706C39.5961 32.5207 39.3928 32.4365 39.1809 32.4365Z" fill="#102030"/>
<path d="M4.93628 31.4065C4.93628 31.5372 4.97502 31.6649 5.04759 31.7735C5.12016 31.8821 5.22331 31.9667 5.34399 32.0167C5.46468 32.0667 5.59747 32.0798 5.72559 32.0543C5.8537 32.0288 5.97138 31.9659 6.06375 31.8736C6.15611 31.7812 6.21902 31.6635 6.2445 31.5354C6.26999 31.4073 6.2569 31.2745 6.20691 31.1538C6.15692 31.0331 6.07228 30.93 5.96367 30.8574C5.85505 30.7848 5.72736 30.7461 5.59673 30.7461C5.42157 30.7461 5.25358 30.8157 5.12972 30.9395C5.00586 31.0634 4.93628 31.2314 4.93628 31.4065Z" fill="#102030"/>
<path d="M7.01674 33.3944L5.58355 31.7366L4.93631 32.5688L4.60608 32.3112L5.56374 31.0762L7.32715 33.1236L7.01674 33.3944Z" fill="#102030"/>
<path d="M1.81896 32.4368H4.75138C4.96333 32.4368 5.1666 32.521 5.31647 32.6708C5.46634 32.8207 5.55054 33.024 5.55054 33.2359V34.3125H1V33.2359C0.999967 33.1293 1.02127 33.0237 1.06266 32.9255C1.10406 32.8272 1.1647 32.7382 1.24102 32.6637C1.31734 32.5892 1.4078 32.5308 1.50705 32.4918C1.60631 32.4528 1.71236 32.4341 1.81896 32.4368Z" fill="#102030"/>
<path d="M34.4719 32.7405V51.4645C34.4719 51.5694 34.4512 51.6733 34.411 51.7703C34.3709 51.8672 34.312 51.9553 34.2378 52.0296C34.1636 52.1038 34.0755 52.1626 33.9785 52.2028C33.8816 52.2429 33.7777 52.2636 33.6727 52.2636H7.31394C7.20843 52.2645 7.1038 52.2445 7.00608 52.2047C6.90836 52.1649 6.81948 52.1062 6.74457 52.0319C6.66966 51.9576 6.61021 51.8692 6.56963 51.7718C6.52906 51.6744 6.50818 51.57 6.50818 51.4645V32.7405C6.51148 32.5212 6.59435 32.3106 6.74135 32.1478C6.88835 31.985 7.08948 31.8811 7.30732 31.8555C13.6249 31.1942 19.9833 31.0109 26.3285 31.3074C27.689 31.3668 29.0561 31.4527 30.4101 31.5583C31.5064 31.6376 32.6028 31.7367 33.7124 31.8555C33.923 31.8898 34.1147 31.9974 34.2537 32.1594C34.3927 32.3213 34.47 32.5272 34.4719 32.7405Z" fill="#0595B5"/>
<path d="M31.7112 35.686H9.28871C8.84735 35.686 8.48956 36.0438 8.48956 36.4852V51.4577C8.48956 51.8991 8.84735 52.2569 9.28871 52.2569H31.7112C32.1525 52.2569 32.5103 51.8991 32.5103 51.4577V36.4852C32.5103 36.0438 32.1525 35.686 31.7112 35.686Z" fill="#BFBFBF"/>
<path d="M33.1113 32.9253L32.6688 35.0718C32.6302 35.2611 32.5265 35.4308 32.3756 35.5515C32.2248 35.6722 32.0364 35.7361 31.8433 35.7323H8.95845C8.76532 35.7361 8.57693 35.6722 8.42609 35.5515C8.27524 35.4308 8.17148 35.2611 8.13289 35.0718L7.69038 32.9253C7.6696 32.8059 7.67579 32.6834 7.70848 32.5668C7.74118 32.4501 7.79956 32.3422 7.87935 32.2511C7.95913 32.1599 8.0583 32.0877 8.1696 32.0398C8.28089 31.9919 8.40149 31.9695 8.52256 31.9743H32.299C32.4184 31.9725 32.5367 31.9971 32.6456 32.0463C32.7544 32.0955 32.851 32.1681 32.9286 32.2589C33.0062 32.3497 33.0628 32.4565 33.0944 32.5717C33.1259 32.6869 33.1317 32.8076 33.1113 32.9253Z" fill="#2CA3E8"/>
<g style="mix-blend-mode:overlay">
<path d="M22.1081 31.9415H8.52256C8.40149 31.9368 8.28089 31.9592 8.1696 32.0071C8.0583 32.055 7.95913 32.1272 7.87935 32.2183C7.79956 32.3095 7.74118 32.4174 7.70848 32.5341C7.67579 32.6507 7.6696 32.7732 7.69038 32.8926L8.13289 35.0391C8.17148 35.2284 8.27524 35.3981 8.42609 35.5188C8.57693 35.6395 8.76532 35.7034 8.95845 35.6995H18.3567L22.1081 31.9415Z" fill="#2CA3E8"/>
</g>
<g style="mix-blend-mode:overlay">
<path d="M31.196 31.9414H26.5662L22.8148 35.6862H27.4446L31.196 31.9414Z" fill="#2CA3E8"/>
</g>
<path d="M7.82907 50.4937H7.12238V51.2928H7.82907V50.4937Z" fill="#004358"/>
<path d="M6.50818 34.9067L7.61114 35.904C7.68076 35.9652 7.73673 36.0403 7.77542 36.1245C7.8141 36.2087 7.83464 36.3001 7.83569 36.3928V44.7607C7.83569 44.9359 7.76611 45.1039 7.64225 45.2277C7.51839 45.3516 7.3504 45.4212 7.17524 45.4212C7.00007 45.4212 6.83208 45.3516 6.70822 45.2277C6.58436 45.1039 6.51478 44.9359 6.51478 44.7607L6.50818 34.9067Z" fill="#2CA3E8"/>
<path d="M33.8775 50.4937H33.1708V51.2928H33.8775V50.4937Z" fill="#004358"/>
<path d="M7.82907 49.0737H7.12238V49.8729H7.82907V49.0737Z" fill="#004358"/>
<path d="M33.8775 49.0737H33.1708V49.8729H33.8775V49.0737Z" fill="#004358"/>
<path d="M7.82907 47.647H7.12238V48.4461H7.82907V47.647Z" fill="#004358"/>
<path d="M33.8775 47.647H33.1708V48.4461H33.8775V47.647Z" fill="#004358"/>
<path d="M34.4719 34.9067L33.3689 35.904C33.3005 35.9658 33.2457 36.0412 33.2082 36.1253C33.1707 36.2095 33.1512 36.3006 33.1509 36.3928V44.7607C33.1509 44.9359 33.2205 45.1039 33.3444 45.2277C33.4682 45.3516 33.6362 45.4212 33.8114 45.4212C33.9866 45.4212 34.1545 45.3516 34.2784 45.2277C34.4023 45.1039 34.4719 44.9359 34.4719 44.7607V34.9067Z" fill="#2CA3E8"/>
<path d="M30.595 50.6651H10.4048C10.2034 50.6651 10.0102 50.585 9.86778 50.4426C9.72534 50.3002 9.64532 50.107 9.64532 49.9055V38.0173C9.64532 37.8159 9.72534 37.6227 9.86778 37.4803C10.0102 37.3378 10.2034 37.2578 10.4048 37.2578H30.595C30.6947 37.2578 30.7935 37.2775 30.8856 37.3156C30.9778 37.3538 31.0615 37.4097 31.132 37.4803C31.2026 37.5508 31.2585 37.6345 31.2967 37.7267C31.3349 37.8188 31.3545 37.9176 31.3545 38.0173V49.9055C31.3545 50.0053 31.3349 50.104 31.2967 50.1962C31.2585 50.2883 31.2026 50.3721 31.132 50.4426C31.0615 50.5131 30.9778 50.5691 30.8856 50.6072C30.7935 50.6454 30.6947 50.6651 30.595 50.6651ZM10.4048 37.7862C10.3377 37.7879 10.2738 37.8158 10.227 37.8639C10.1801 37.912 10.1538 37.9766 10.1539 38.0438V49.932C10.1538 49.9991 10.1801 50.0637 10.227 50.1118C10.2738 50.1599 10.3377 50.1878 10.4048 50.1895H30.595C30.6621 50.1878 30.726 50.1599 30.7729 50.1118C30.8197 50.0637 30.846 49.9991 30.8459 49.932V38.0438C30.846 37.9766 30.8197 37.912 30.7729 37.8639C30.726 37.8158 30.6621 37.7879 30.595 37.7862H10.4048Z" fill="black"/>
<path d="M29.7826 39.0742H28.8447V40.0121H29.7826V39.0742Z" fill="#004358"/>
<path d="M29.7826 40.8706H28.8447V41.8085H29.7826V40.8706Z" fill="#004358"/>
<path d="M12.056 39.0742H11.1182V40.0121H12.056V39.0742Z" fill="#004358"/>
<path d="M12.056 40.8706H11.1182V41.8085H12.056V40.8706Z" fill="#004358"/>
<path d="M35.5484 85.762C35.5502 88.6836 34.7016 91.5426 33.1063 93.9901C31.5109 96.4377 29.2377 98.3681 26.564 99.5458C23.8903 100.724 20.9316 101.098 18.0488 100.623C15.1661 100.147 12.484 98.8436 10.3296 96.8701C8.17523 94.8967 6.64178 92.3389 5.91628 89.5088C5.19078 86.6787 5.30461 83.6986 6.24389 80.9321C7.18316 78.1655 8.90728 75.7322 11.2059 73.9288C13.5045 72.1255 16.2783 71.0301 19.1889 70.7762C19.6278 70.7327 20.0688 70.7129 20.5098 70.7168C24.3582 70.7075 28.0622 72.1811 30.8526 74.8314C31.0969 75.0626 31.3281 75.2937 31.5526 75.5381C31.7772 75.7825 31.9951 76.0401 32.2131 76.2976C34.3814 78.9743 35.5595 82.3173 35.5484 85.762Z" fill="#FD7400"/>
<path d="M33.3389 88.74C34.9977 81.6509 30.5956 74.5593 23.5065 72.9005C16.4174 71.2417 9.32577 75.6438 7.66695 82.7329C6.00813 89.822 10.4102 96.9136 17.4994 98.5724C24.5885 100.231 31.6801 95.8291 33.3389 88.74Z" fill="#FFBA1A"/>
<path d="M20.5033 99.1824C17.8407 99.1837 15.2377 98.3949 13.0237 96.9159C10.8097 95.437 9.08433 93.3343 8.06603 90.8742C7.04773 88.4141 6.7823 85.7072 7.30334 83.0961C7.82438 80.4851 9.10846 78.0873 10.993 76.2065C12.8776 74.3256 15.2778 73.0463 17.8899 72.5304C20.502 72.0145 23.2084 72.2852 25.6665 73.3084C28.1246 74.3315 30.2238 76.061 31.6984 78.2779C33.173 80.4948 33.9567 83.0994 33.9501 85.7619C33.9362 89.3215 32.5142 92.731 29.9946 95.2455C27.4751 97.7601 24.0629 99.1754 20.5033 99.1824ZM20.5033 72.7641C17.945 72.7629 15.4437 73.5196 13.3152 74.9389C11.1867 76.3582 9.52645 78.3764 8.54414 80.7386C7.56182 83.1007 7.30146 85.701 7.79593 88.2111C8.2904 90.7211 9.51753 93.0284 11.3224 94.8415C13.1272 96.6546 15.4288 97.8923 17.9366 98.3983C20.4443 98.9043 23.0458 98.6558 25.4124 97.6844C27.7791 96.7129 29.8048 95.0619 31.2339 92.9399C32.6629 90.818 33.4311 88.3202 33.4416 85.7619C33.4451 82.3263 32.0841 79.03 29.6579 76.5976C27.2317 74.1652 23.9388 72.7958 20.5033 72.7906V72.7641Z" fill="#004358"/>
<g style="mix-blend-mode:multiply" opacity="0.3">
<path d="M34.0425 85.4712V92.3003C33.1117 94.2154 31.7859 95.9118 30.1523 97.2778C28.5188 98.6438 26.6146 99.6485 24.565 100.226H19.1889V95.2459H15.9791V85.4712H19.1757V70.743C19.6146 70.6995 20.0555 70.6797 20.4966 70.6836C24.345 70.6743 28.049 72.1479 30.8393 74.7982V83.721H31.1695V77.0636H31.513V75.5049C31.7375 75.7493 31.9555 76.0069 32.1734 76.2644V77.0636H32.5169V83.721H33.283V85.4712H34.0425Z" fill="#583200"/>
</g>
<path d="M29.5251 80.9536H11.4814V90.7218H29.5251V80.9536Z" fill="#FFE11A"/>
<path d="M14.678 79.2036H12.2145V92.4788H14.678V79.2036Z" fill="#0595B5"/>
<path d="M28.792 79.2036H26.3285V92.4788H28.792V79.2036Z" fill="#0595B5"/>
<path d="M14.678 61.1069H12.7231V64.7328H14.678V61.1069Z" fill="#FFE11A"/>
<path d="M28.2834 61.1069H26.3284V64.7328H28.2834V61.1069Z" fill="#FFE11A"/>
<path d="M21.4741 17.3783L20.0739 16.1829L21.6524 14.3336C21.7312 14.2382 21.8284 14.1597 21.9383 14.1028C22.0481 14.0459 22.1684 14.0118 22.2917 14.0026C22.4151 13.9933 22.5391 14.0091 22.6562 14.049C22.7734 14.0888 22.8812 14.152 22.9733 14.2346C23.0684 14.3134 23.1468 14.4105 23.2037 14.5201C23.2607 14.6297 23.2951 14.7496 23.305 14.8727C23.3148 14.9958 23.2999 15.1197 23.2611 15.237C23.2223 15.3542 23.1603 15.4625 23.079 15.5555L21.4741 17.3783Z" fill="#102030"/>
<path d="M22.9073 17.0745C22.9086 17.5518 22.7682 18.0188 22.5038 18.4162C22.2394 18.8137 21.863 19.1237 21.4222 19.307C20.9815 19.4902 20.4962 19.5385 20.028 19.4457C19.5597 19.3529 19.1296 19.1232 18.7921 18.7857C18.4545 18.4481 18.2248 18.018 18.132 17.5498C18.0392 17.0815 18.0875 16.5963 18.2708 16.1555C18.454 15.7147 18.764 15.3383 19.1615 15.0739C19.5589 14.8095 20.0259 14.6691 20.5033 14.6704C21.1409 14.6704 21.7523 14.9237 22.2032 15.3746C22.654 15.8254 22.9073 16.4369 22.9073 17.0745Z" fill="#00CAF6"/>
<path d="M24.7632 16.5464H16.2367V20.1921H24.7632V16.5464Z" fill="#FFED78"/>
<path d="M26.3285 28.5928H14.678V95.6951H26.3285V28.5928Z" fill="#00CAF6"/>
<path d="M27.3059 18.6792H13.7006V28.5926H27.3059V18.6792Z" fill="#102030"/>
<path d="M24.7632 18.6792H16.2367V28.5926H24.7632V18.6792Z" fill="#00CAF6"/>
<path d="M20.5032 73.002C19.5066 73.002 18.5507 73.3979 17.8459 74.1026C17.1412 74.8074 16.7452 75.7633 16.7452 76.7599V88.5491C16.7452 89.5458 17.1412 90.5016 17.8459 91.2064C18.5507 91.9111 19.5066 92.3071 20.5032 92.3071C21.4999 92.3071 22.4558 91.9111 23.1605 91.2064C23.8653 90.5016 24.2612 89.5458 24.2612 88.5491V76.7599C24.2612 75.7633 23.8653 74.8074 23.1605 74.1026C22.4558 73.3979 21.4999 73.002 20.5032 73.002Z" fill="#0595B5"/>
<path d="M20.5032 51.7021C19.5066 51.7021 18.5507 52.0981 17.8459 52.8028C17.1412 53.5076 16.7452 54.4635 16.7452 55.4601V67.2691C16.7452 68.2658 17.1412 69.2216 17.8459 69.9264C18.5507 70.6312 19.5066 71.0271 20.5032 71.0271C21.4999 71.0271 22.4558 70.6312 23.1605 69.9264C23.8653 69.2216 24.2612 68.2658 24.2612 67.2691V55.4601C24.2612 54.4635 23.8653 53.5076 23.1605 52.8028C22.4558 52.0981 21.4999 51.7021 20.5032 51.7021Z" fill="#0595B5"/>
<path d="M20.5032 30.4023C19.5066 30.4023 18.5507 30.7983 17.8459 31.503C17.1412 32.2078 16.7452 33.1637 16.7452 34.1603V45.9495C16.7452 46.9462 17.1412 47.902 17.8459 48.6068C18.5507 49.3115 19.5066 49.7075 20.5032 49.7075C21.4999 49.7075 22.4558 49.3115 23.1605 48.6068C23.8653 47.902 24.2612 46.9462 24.2612 45.9495V34.1603C24.2612 33.1637 23.8653 32.2078 23.1605 31.503C22.4558 30.7983 21.4999 30.4023 20.5032 30.4023Z" fill="#0595B5"/>
<path d="M14.3148 64.5283H12.9807V67.3419H14.3148V64.5283Z" fill="#00659C"/>
<path d="M13.9779 67.3418H13.324V73.986H13.9779V67.3418Z" fill="#F2F2F2"/>
<path d="M14.3148 72.5464H12.9807V79.217H14.3148V72.5464Z" fill="#00659C"/>
<path d="M28.0192 64.5283H26.6851V67.3419H28.0192V64.5283Z" fill="#00659C"/>
<path d="M27.6758 67.3418H27.0219V73.986H27.6758V67.3418Z" fill="#F2F2F2"/>
<path d="M28.0192 72.5464H26.6851V79.217H28.0192V72.5464Z" fill="#00659C"/>
<path d="M16.2367 24.6699L13.7006 26.9287V28.2826L16.2367 26.0172V24.6699Z" fill="#FFBA1A"/>
<path d="M16.2367 21.8296L13.7006 24.095V25.4423L16.2367 23.1835V21.8296Z" fill="#FFBA1A"/>
<path d="M16.2367 18.9966L13.7006 21.2553V22.6093L16.2367 20.3439V18.9966Z" fill="#FFBA1A"/>
<path d="M24.7632 24.6699L27.3059 26.9287V28.2826L24.7632 26.0172V24.6699Z" fill="#FFBA1A"/>
<path d="M24.7632 21.8296L27.3059 24.095V25.4423L24.7632 23.1835V21.8296Z" fill="#FFBA1A"/>
<path d="M24.7632 18.9966L27.3059 21.2553V22.6093L24.7632 20.3439V18.9966Z" fill="#FFBA1A"/>
<path d="M10.1539 55.6519L8.83301 57.0851V56.1671L10.1539 54.7339V55.6519Z" fill="#FFBA1A"/>
<path d="M10.1539 57.8446L8.83301 59.2777V58.3531L10.1539 56.9199V57.8446Z" fill="#FFBA1A"/>
<path d="M10.1539 60.0369L8.83301 61.4701V60.5455L10.1539 59.1123V60.0369Z" fill="#FFBA1A"/>
<path d="M10.1539 62.2232L8.83301 63.6564V62.7384L10.1539 61.3052V62.2232Z" fill="#FFBA1A"/>
<path d="M10.1539 64.4161L8.83301 65.8493V64.9312L10.1539 63.498V64.4161Z" fill="#FFBA1A"/>
<path d="M10.1539 66.6087L8.83301 68.0419V67.1173L10.1539 65.6841V66.6087Z" fill="#FFBA1A"/>
<path d="M10.1539 68.8016L8.83301 70.2348V69.3101L10.1539 67.877V68.8016Z" fill="#FFBA1A"/>
<path d="M10.1539 70.9874L8.83301 72.4206V71.5025L10.1539 70.0693V70.9874Z" fill="#FFBA1A"/>
<path d="M30.8459 55.6519L32.1735 57.0851V56.1671L30.8459 54.7339V55.6519Z" fill="#FFBA1A"/>
<path d="M30.8459 57.8446L32.1735 59.2777V58.3531L30.8459 56.9199V57.8446Z" fill="#FFBA1A"/>
<path d="M30.8459 60.0369L32.1735 61.4701V60.5455L30.8459 59.1123V60.0369Z" fill="#FFBA1A"/>
<path d="M30.8459 62.2232L32.1735 63.6564V62.7384L30.8459 61.3052V62.2232Z" fill="#FFBA1A"/>
<path d="M30.8459 64.4161L32.1735 65.8493V64.9312L30.8459 63.498V64.4161Z" fill="#FFBA1A"/>
<path d="M30.8459 66.6087L32.1735 68.0419V67.1173L30.8459 65.6841V66.6087Z" fill="#FFBA1A"/>
<path d="M30.8459 68.8016L32.1735 70.2348V69.3101L30.8459 67.877V68.8016Z" fill="#FFBA1A"/>
<path d="M30.8459 70.9874L32.1735 72.4206V71.5025L30.8459 70.0693V70.9874Z" fill="#FFBA1A"/>
<path d="M24.7632 24.6699L27.3059 26.9287V28.2826L24.7632 26.0172V24.6699Z" fill="#FFE11A"/>
<path d="M24.7632 21.8296L27.3059 24.095V25.4423L24.7632 23.1835V21.8296Z" fill="#FFE11A"/>
<path d="M24.7632 18.9966L27.3059 21.2553V22.6093L24.7632 20.3439V18.9966Z" fill="#FFE11A"/>
<path d="M16.2367 24.6699L13.7006 26.9287V28.2826L16.2367 26.0172V24.6699Z" fill="#FFE11A"/>
<path d="M16.2367 21.8296L13.7006 24.095V25.4423L16.2367 23.1835V21.8296Z" fill="#FFE11A"/>
<path d="M16.2367 18.9966L13.7006 21.2553V22.6093L16.2367 20.3439V18.9966Z" fill="#FFE11A"/>
<g style="mix-blend-mode:multiply" opacity="0.3">
<path d="M30.4101 31.5581V52.2634H26.3284V31.3071C27.689 31.3666 29.0561 31.4524 30.4101 31.5581Z" fill="#583200"/>
</g>
<path d="M25.9923 8.08646C25.8918 6.63049 25.2425 5.2669 24.1755 4.27119C23.1085 3.27547 21.7034 2.72185 20.2439 2.72217C18.7838 2.72174 17.378 3.27516 16.3099 4.27074C15.2419 5.26632 14.5913 6.62995 14.4894 8.08646L14 15.2099V15.5197C13.9992 15.6134 14.0171 15.7064 14.0526 15.7932C14.0881 15.88 14.1405 15.9589 14.2068 16.0252C14.2731 16.0915 14.352 16.144 14.4388 16.1795C14.5256 16.215 14.6186 16.2328 14.7124 16.232C14.9013 16.232 15.0825 16.157 15.2161 16.0234C15.3497 15.8898 15.4247 15.7086 15.4247 15.5197V15.2099H16.2052V15.5197C16.2044 15.6134 16.2222 15.7064 16.2578 15.7932C16.2933 15.88 16.3457 15.9589 16.412 16.0252C16.4783 16.0915 16.5572 16.144 16.644 16.1795C16.7308 16.215 16.8238 16.2328 16.9176 16.232C17.0113 16.2328 17.1043 16.215 17.1911 16.1795C17.2779 16.144 17.3568 16.0915 17.4231 16.0252C17.4894 15.9589 17.5419 15.88 17.5774 15.7932C17.6129 15.7064 17.6307 15.6134 17.6299 15.5197V15.2099H18.4166V15.5197C18.4158 15.6134 18.4336 15.7064 18.4691 15.7932C18.5046 15.88 18.5571 15.9589 18.6234 16.0252C18.6897 16.0915 18.7686 16.144 18.8554 16.1795C18.9422 16.215 19.0352 16.2328 19.1289 16.232C19.2227 16.2328 19.3157 16.215 19.4025 16.1795C19.4893 16.144 19.5682 16.0915 19.6345 16.0252C19.7008 15.9589 19.7532 15.88 19.7887 15.7932C19.8242 15.7064 19.8421 15.6134 19.8413 15.5197V15.2099H20.628V15.5197C20.6271 15.6134 20.645 15.7064 20.6805 15.7932C20.716 15.88 20.7685 15.9589 20.8348 16.0252C20.9011 16.0915 20.9799 16.144 21.0667 16.1795C21.1535 16.215 21.2465 16.2328 21.3403 16.232C21.4341 16.2328 21.5271 16.215 21.6139 16.1795C21.7007 16.144 21.7795 16.0915 21.8459 16.0252C21.9122 15.9589 21.9646 15.88 22.0001 15.7932C22.0356 15.7064 22.0535 15.6134 22.0527 15.5197V15.2099H22.8393V15.5197C22.8393 15.7086 22.9144 15.8898 23.048 16.0234C23.1816 16.157 23.3628 16.232 23.5517 16.232C23.7406 16.232 23.9218 16.157 24.0554 16.0234C24.189 15.8898 24.264 15.7086 24.264 15.5197V15.2099H25.0445V15.5197C25.0445 15.7086 25.1196 15.8898 25.2532 16.0234C25.3868 16.157 25.568 16.232 25.7569 16.232C25.9458 16.232 26.127 16.157 26.2606 16.0234C26.3942 15.8898 26.4692 15.7086 26.4692 15.5197V15.2099L25.9923 8.08646Z" fill="#2A6380"/>
<path d="M15.0965 15.3955V15.2097C15.0965 15.1674 15.1048 15.1255 15.121 15.0864C15.1372 15.0474 15.1609 15.0119 15.1908 14.9819C15.2207 14.952 15.2562 14.9283 15.2953 14.9121C15.3344 14.8959 15.3763 14.8876 15.4186 14.8876H16.2053C16.2476 14.8876 16.2894 14.8959 16.3285 14.9121C16.3676 14.9283 16.4031 14.952 16.433 14.9819C16.4629 15.0119 16.4867 15.0474 16.5028 15.0864C16.519 15.1255 16.5274 15.1674 16.5274 15.2097V15.3955H17.3202V15.2097C17.3202 15.1674 17.3286 15.1255 17.3448 15.0864C17.3609 15.0474 17.3847 15.0119 17.4146 14.9819C17.4445 14.952 17.48 14.9283 17.5191 14.9121C17.5582 14.8959 17.6 14.8876 17.6423 14.8876H18.429C18.4713 14.8876 18.5132 14.8959 18.5523 14.9121C18.5914 14.9283 18.6269 14.952 18.6568 14.9819C18.6867 15.0119 18.7104 15.0474 18.7266 15.0864C18.7428 15.1255 18.7511 15.1674 18.7511 15.2097V15.3955H19.5378V15.2097C19.537 15.1677 19.5445 15.126 19.5601 15.0869C19.5756 15.0479 19.5987 15.0123 19.6281 14.9823C19.6575 14.9523 19.6926 14.9285 19.7314 14.9122C19.7701 14.896 19.8117 14.8876 19.8537 14.8876H20.6404C20.6827 14.8876 20.7246 14.8959 20.7637 14.9121C20.8027 14.9283 20.8383 14.952 20.8682 14.9819C20.8981 15.0119 20.9218 15.0474 20.938 15.0864C20.9542 15.1255 20.9625 15.1674 20.9625 15.2097V15.3955H21.7492V15.2097C21.7484 15.1677 21.7559 15.126 21.7714 15.0869C21.7869 15.0479 21.8101 15.0123 21.8395 14.9823C21.8689 14.9523 21.904 14.9285 21.9428 14.9122C21.9815 14.896 22.0231 14.8876 22.0651 14.8876H22.8518C22.8941 14.8876 22.936 14.8959 22.975 14.9121C23.0141 14.9283 23.0496 14.952 23.0795 14.9819C23.1095 15.0119 23.1332 15.0474 23.1494 15.0864C23.1655 15.1255 23.1739 15.1674 23.1739 15.2097V15.3955H23.9482V15.2097C23.9473 15.1677 23.9549 15.126 23.9704 15.0869C23.9859 15.0479 24.0091 15.0123 24.0385 14.9823C24.0679 14.9523 24.103 14.9285 24.1417 14.9122C24.1805 14.896 24.2221 14.8876 24.2641 14.8876H25.0508C25.0931 14.8876 25.1349 14.8959 25.174 14.9121C25.2131 14.9283 25.2486 14.952 25.2785 14.9819C25.3084 15.0119 25.3322 15.0474 25.3484 15.0864C25.3645 15.1255 25.3729 15.1674 25.3729 15.2097V15.3955H26.1595V15.2593V15.0053L25.6764 8.13578C25.6224 7.34295 25.3953 6.57158 25.0111 5.87596C24.6269 5.18034 24.0949 4.57736 23.4526 4.10946L23.3783 4.05371H17.091L17.0167 4.10946C16.3798 4.57596 15.852 5.17555 15.4701 5.86657C15.0882 6.55759 14.8614 7.32347 14.8053 8.111L14.3284 14.9867V15.2097V15.3955H15.0965Z" fill="#00212B"/>
<path d="M22.0093 3.26074H18.46V4.84649H22.0093V3.26074Z" fill="#004358"/>
<path d="M17.6485 7.46051C17.6485 9.51084 15.5982 13.0354 14.3284 14.9866L14.8053 8.11092C14.8614 7.32339 15.0882 6.55751 15.4701 5.86649C15.852 5.17547 16.3798 4.57588 17.0167 4.10938C17.448 5.17331 17.6628 6.31257 17.6485 7.46051Z" fill="#002E3D"/>
<path d="M26.1471 14.9804C24.8711 13.0044 22.8208 9.50464 22.8208 7.46051C22.8026 6.31341 23.0132 5.17418 23.4402 4.10938C24.0772 4.57588 24.6049 5.17547 24.9868 5.86649C25.3687 6.55751 25.5955 7.32339 25.6516 8.11092L26.1471 14.9804Z" fill="#002E3D"/>
<path d="M23.9605 35.4531H16.515V41.6722H23.9605V35.4531Z" fill="#BA5500"/>
<path d="M22.8951 39.1821H17.5494C17.2803 39.1822 17.0218 39.0775 16.8287 38.8902C16.6355 38.7028 16.523 38.4476 16.515 38.1786C16.5149 37.9037 16.6237 37.64 16.8176 37.445C17.0114 37.25 17.2745 37.1396 17.5494 37.138H22.8951C23.0336 37.1347 23.1713 37.1592 23.3 37.2101C23.4288 37.261 23.5461 37.3372 23.6449 37.4342C23.7437 37.5313 23.822 37.6472 23.8751 37.7751C23.9283 37.9029 23.9552 38.0402 23.9543 38.1786C23.9462 38.4519 23.8303 38.7109 23.6318 38.8989C23.4333 39.087 23.1684 39.1888 22.8951 39.1821Z" fill="#004358"/>
<path d="M22.8951 27.7226H17.5494C17.4136 27.7226 17.279 27.6958 17.1535 27.6438C17.028 27.5918 16.914 27.5156 16.8179 27.4196C16.7219 27.3235 16.6457 27.2095 16.5937 27.084C16.5417 26.9585 16.515 26.824 16.515 26.6881C16.5149 26.4132 16.6237 26.1494 16.8176 25.9544C17.0114 25.7595 17.2745 25.6491 17.5494 25.6475H22.8951C23.0315 25.6475 23.1665 25.6744 23.2924 25.7268C23.4183 25.7792 23.5326 25.8559 23.6288 25.9526C23.7249 26.0494 23.801 26.1641 23.8526 26.2903C23.9042 26.4166 23.9304 26.5517 23.9296 26.6881C23.9296 26.824 23.9028 26.9585 23.8508 27.084C23.7988 27.2095 23.7226 27.3235 23.6266 27.4196C23.5305 27.5156 23.4165 27.5918 23.291 27.6438C23.1655 27.6958 23.031 27.7226 22.8951 27.7226Z" fill="#004358"/>
<path d="M22.7341 26.688H17.7352V40.4518H22.7341V26.688Z" fill="#FD7400"/>
<path d="M21.8792 29.1843C21.8792 28.2743 21.1415 27.5366 20.2316 27.5366C19.3216 27.5366 18.5839 28.2743 18.5839 29.1843V37.9555C18.5839 38.8655 19.3216 39.6032 20.2316 39.6032C21.1415 39.6032 21.8792 38.8655 21.8792 37.9555V29.1843Z" fill="#E36800"/>
<g style="mix-blend-mode:multiply" opacity="0.3">
<path d="M22.0341 28.3976V27.1401H20.343V28.3976H20.7766V33.4831H20.343V40.4518H22.0341V33.4831H21.6005V28.3976H22.0341Z" fill="#583200"/>
</g>
<path d="M21.0802 27.1401H19.3892V28.3976H21.0802V27.1401Z" fill="#004358"/>
<path d="M20.6466 28.3975H19.8228V34.8891H20.6466V28.3975Z" fill="#F2F2F2"/>
<path d="M21.0802 33.4829H19.3892V39.9994H21.0802V33.4829Z" fill="#004358"/>
<path d="M21.8421 39.9995H18.6334V40.9101H21.8421V39.9995Z" fill="#004358"/>
<path d="M22.8951 3.07492H17.5494C17.2745 3.07329 17.0114 2.96292 16.8176 2.76794C16.6237 2.57296 16.5149 2.3092 16.515 2.03427C16.5182 1.76207 16.6286 1.50213 16.8223 1.3108C17.0159 1.11947 17.2772 1.01219 17.5494 1.01221H22.8951C23.031 1.01221 23.1655 1.03896 23.291 1.09095C23.4165 1.14294 23.5305 1.21913 23.6266 1.31519C23.7226 1.41125 23.7988 1.52529 23.8508 1.65079C23.9028 1.7763 23.9296 1.91081 23.9296 2.04666C23.9279 2.31994 23.8182 2.58147 23.6244 2.77413C23.4306 2.96679 23.1684 3.07493 22.8951 3.07492Z" fill="#004358"/>
<path d="M17.0786 6.33332H23.3906L22.734 1H17.7352L17.0786 6.33332Z" fill="#E36800"/>
<path d="M22.7341 1H17.7352V13.1966H22.7341V1Z" fill="#FD7400"/>
<path d="M21.8792 3.49633C21.8792 2.58633 21.1415 1.84863 20.2316 1.84863C19.3216 1.84863 18.5839 2.58633 18.5839 3.49633V10.6941C18.5839 11.6041 19.3216 12.3418 20.2316 12.3418C21.1415 12.3418 21.8792 11.6041 21.8792 10.6941V3.49633Z" fill="#E36800"/>
<path d="M22.7341 13.1968H17.7352V26.688H22.7341V13.1968Z" fill="#FFE11A"/>
<path d="M21.8792 15.6931C21.8792 14.7831 21.1415 14.0454 20.2316 14.0454C19.3216 14.0454 18.5839 14.7831 18.5839 15.6931V24.1855C18.5839 25.0955 19.3216 25.8332 20.2316 25.8332C21.1415 25.8332 21.8792 25.0955 21.8792 24.1855V15.6931Z" fill="#FFC000"/>
<path d="M21.8421 26.2295H18.6334V27.1401H21.8421V26.2295Z" fill="#004358"/>
<g style="mix-blend-mode:multiply" opacity="0.3">
<path d="M19.5439 2.19551H19.8165V7.0147H19.5439V13.1966H20.597V7.0147H20.3306V2.19551H20.597V1H19.5439V2.19551Z" fill="#583200"/>
<path d="M21.8916 2.72202V1H20.8386V2.72202H21.1049V7.0147H20.8386V13.1966H21.8916V7.0147H21.619V2.72202H21.8916Z" fill="#583200"/>
</g>
<path d="M20.1263 1.45215H19.0732V2.56094H20.1263V1.45215Z" fill="#004358"/>
<path d="M19.8537 2.56104H19.3396V8.27221H19.8537V2.56104Z" fill="#F2F2F2"/>
<g style="mix-blend-mode:multiply" opacity="0.3">
<path d="M21.842 19.6079V13.1968H20.535V19.6079H20.8695V24.6191H20.535V26.304H21.842V24.6191H21.5075V19.6079H21.842Z" fill="#583200"/>
</g>
<path d="M20.1263 7.0332H19.0732V12.763H20.1263V7.0332Z" fill="#004358"/>
<path d="M21.4147 1.45215H20.3616V2.56094H21.4147V1.45215Z" fill="#004358"/>
<path d="M21.1483 2.56104H20.6342V8.27221H21.1483V2.56104Z" fill="#F2F2F2"/>
<path d="M21.4147 7.0332H20.3616V12.763H21.4147V7.0332Z" fill="#004358"/>
<path d="M20.8882 24.9722H19.5812V26.2296H20.8882V24.9722Z" fill="#004358"/>
<path d="M20.5537 18.4805H19.9156V24.9721H20.5537V18.4805Z" fill="#F2F2F2"/>
<path d="M20.8882 13.3765H19.5812V19.8929H20.8882V13.3765Z" fill="#004358"/>
<path d="M21.8792 12.7383H18.5839V13.6488H21.8792V12.7383Z" fill="#004358"/>
<path d="M21.8916 1H18.5839V1.45219H21.8916V1Z" fill="#004358"/>
</g>
<defs>
<filter id="filter0_d_30_7161" x="0" y="0" width="46.98" height="107.823" filterUnits="userSpaceOnUse" color-interpolation-filters="sRGB">
<feFlood flood-opacity="0" result="BackgroundImageFix"/>
<feColorMatrix in="SourceAlpha" type="matrix" values="0 0 0 0 0 0 0 0 0 0 0 0 0 0 0 0 0 0 127 0" result="hardAlpha"/>
<feOffset dx="3" dy="3"/>
<feGaussianBlur stdDeviation="2"/>
<feComposite in2="hardAlpha" operator="out"/>
<feColorMatrix type="matrix" values="0 0 0 0 0 0 0 0 0 0 0 0 0 0 0 0 0 0 0.25 0"/>
<feBlend mode="normal" in2="BackgroundImageFix" result="effect1_dropShadow_30_7161"/>
<feBlend mode="normal" in="SourceGraphic" in2="effect1_dropShadow_30_7161" result="shape"/>
</filter>
</defs>
</svg>
