<svg width="47" height="111" viewBox="0 0 47 111" fill="none" xmlns="http://www.w3.org/2000/svg">
<g filter="url(#filter0_d_30_6793)">
<path d="M10.6954 62.1586C9.26718 61.9009 7.80434 61.9009 6.37607 62.1586C6.15098 62.2013 5.94766 62.3208 5.80074 62.4966C5.65383 62.6724 5.5724 62.8937 5.57031 63.1228V69.8661C5.57113 70.0955 5.65211 70.3175 5.79924 70.4936C5.94637 70.6696 6.15041 70.7888 6.37607 70.8304C7.80434 71.088 9.26718 71.088 10.6954 70.8304C10.9217 70.79 11.1265 70.6712 11.2738 70.4949C11.4212 70.3185 11.5017 70.0959 11.5012 69.8661V63.1228C11.5004 62.8934 11.4194 62.6714 11.2723 62.4953C11.1251 62.3193 10.9211 62.2001 10.6954 62.1586Z" fill="#D6D6D6"/>
<path d="M10.9002 60.4809C10.1536 60.1285 9.33826 59.9458 8.51267 59.9458C7.68709 59.9458 6.87174 60.1285 6.12512 60.4809V72.5078C6.87084 72.8633 7.68654 73.0478 8.51267 73.0478C9.3388 73.0478 10.1545 72.8633 10.9002 72.5078V60.4809Z" fill="#004358"/>
<path d="M9.37453 60.7321C8.80489 60.6529 8.22699 60.6529 7.65735 60.7321L7.45922 60.0717C7.00221 60.1636 6.55848 60.3123 6.13831 60.5142V60.3359C6.60117 60.1066 7.09516 59.9463 7.60452 59.8604L7.80265 60.5208C8.28074 60.4613 8.76436 60.4613 9.24245 60.5208C9.3151 60.2896 9.38114 60.0651 9.44718 59.8604C9.95627 59.9474 10.4501 60.1076 10.9134 60.3359V60.5142C10.4926 60.3137 10.0491 60.1651 9.59249 60.0717L9.37453 60.7321Z" fill="black"/>
<path d="M9.37453 61.8616C8.80405 61.7955 8.22783 61.7955 7.65735 61.8616L7.45922 61.2011C7.00752 61.2728 6.56473 61.3924 6.13831 61.5577V61.3794C6.60911 61.1896 7.10158 61.0587 7.60452 60.9897L7.80265 61.6502C8.28146 61.604 8.76363 61.604 9.24245 61.6502C9.3151 61.419 9.38114 61.1879 9.44718 60.9897C9.94995 61.0595 10.4423 61.1904 10.9134 61.3794V61.5577C10.4866 61.3934 10.0439 61.2739 9.59249 61.2011L9.37453 61.8616Z" fill="black"/>
<path d="M9.37453 63.0039C8.80307 62.9576 8.22881 62.9576 7.65735 63.0039L7.45922 62.3434C7.01163 62.4003 6.56972 62.4953 6.13831 62.6274V62.4491C6.6148 62.2945 7.10624 62.1904 7.60452 62.1387C7.67056 62.3632 7.7366 62.5944 7.80265 62.8322C8.28176 62.7925 8.76333 62.7925 9.24245 62.8322C9.3151 62.5944 9.38114 62.3632 9.44718 62.1387C9.94532 62.1913 10.4367 62.2953 10.9134 62.4491V62.6274C10.4818 62.4962 10.0399 62.4012 9.59249 62.3434L9.37453 63.0039Z" fill="black"/>
<path d="M9.37453 64.1201C8.80654 64.1201 8.22534 64.1201 7.65735 64.1201L7.45922 63.4267C7.01487 63.469 6.57367 63.5396 6.13831 63.638V63.4597C6.62022 63.3443 7.11047 63.267 7.60452 63.2285L7.80265 63.889C8.27817 63.889 8.76692 63.889 9.24245 63.889C9.3151 63.6578 9.38114 63.4267 9.44718 63.2285C9.94117 63.2675 10.4314 63.3448 10.9134 63.4597V63.6644C10.4779 63.5668 10.0367 63.4962 9.59249 63.4531L9.37453 64.1201Z" fill="black"/>
<path d="M9.37453 65.2561C8.80654 65.2561 8.22534 65.2561 7.65735 65.2561L7.45922 64.556C7.0035 64.556 6.55439 64.6221 6.13831 64.6881V64.5098C6.62372 64.431 7.11327 64.3803 7.60452 64.3579L7.80265 65.058C8.27817 65.058 8.76692 65.058 9.24245 65.058C9.3151 64.8202 9.38114 64.5891 9.44718 64.3579C9.93841 64.3807 10.4279 64.4314 10.9134 64.5098V64.6881C10.4841 64.6221 10.035 64.5825 9.59249 64.556L9.37453 65.2561Z" fill="black"/>
<path d="M9.37453 66.3855H7.65735L7.45922 65.6788C7.0035 65.6788 6.55439 65.6788 6.13831 65.7317V65.5534C6.60723 65.5203 7.09597 65.5005 7.60452 65.4873L7.80265 66.194C8.27817 66.194 8.76692 66.194 9.24245 66.194C9.3151 65.9562 9.38114 65.7185 9.44718 65.4873C9.94913 65.4873 10.4445 65.5203 10.9134 65.5534V65.7317C10.4841 65.7317 10.035 65.6921 9.59249 65.6788L9.37453 66.3855Z" fill="black"/>
<path d="M9.37453 67.5147C8.80654 67.5147 8.22534 67.5147 7.65735 67.5147L7.45922 66.8014C7.0035 66.8014 6.55439 66.8014 6.13831 66.8014V66.623H7.60452L7.80265 67.343H9.24245C9.3151 67.0986 9.38114 66.8608 9.44718 66.623H10.9134V66.8014C10.4841 66.8014 10.035 66.8014 9.59249 66.8014L9.37453 67.5147Z" fill="black"/>
<path d="M9.37453 68.6441C8.80262 68.6771 8.22926 68.6771 7.65735 68.6441L7.45922 67.9308C7.0035 67.9308 6.55439 67.8779 6.13831 67.8317V67.627C6.60723 67.6666 7.09597 67.6996 7.60452 67.7128L7.80265 68.4327C8.27817 68.4327 8.76692 68.4327 9.24245 68.4327C9.3151 68.1949 9.38114 67.9572 9.44718 67.7128C9.94913 67.7128 10.4445 67.6666 10.9134 67.627V67.8053C10.4841 67.8515 10.035 67.8845 9.59249 67.9043L9.37453 68.6441Z" fill="black"/>
<path d="M9.37453 69.7801C8.80283 69.8198 8.22905 69.8198 7.65735 69.7801L7.45922 69.0537C7.01606 69.021 6.57507 68.9637 6.13831 68.8819V68.7036C6.62345 68.7869 7.113 68.842 7.60452 68.8687L7.80265 69.5952C8.28201 69.6282 8.76308 69.6282 9.24245 69.5952C9.3151 69.3509 9.38114 69.1131 9.44718 68.8687C9.93867 68.8417 10.4282 68.7865 10.9134 68.7036V68.8819C10.4765 68.9631 10.0356 69.0204 9.59249 69.0537L9.37453 69.7801Z" fill="black"/>
<path d="M9.37453 70.9292C8.80368 70.9887 8.2282 70.9887 7.65735 70.9292L7.45922 70.1961C7.01255 70.1504 6.57063 70.0664 6.13831 69.9452V69.7734C6.61985 69.8933 7.11011 69.975 7.60452 70.0178L7.80265 70.7509C8.28176 70.7905 8.76333 70.7905 9.24245 70.7509C9.3151 70.5065 9.38114 70.2622 9.44718 70.0178C9.94152 69.9745 10.4317 69.8928 10.9134 69.7734V69.9452C10.4808 70.0654 10.039 70.1494 9.59249 70.1961L9.37453 70.9292Z" fill="black"/>
<path d="M9.37453 72.039C8.80489 72.1183 8.22699 72.1183 7.65735 72.039L7.45922 71.3059C7.00904 71.24 6.56655 71.1294 6.13831 70.9757V70.7974C6.61324 70.9616 7.10502 71.0724 7.60452 71.1276L7.80265 71.8673C8.28146 71.9135 8.76363 71.9135 9.24245 71.8673C9.3151 71.6163 9.38114 71.372 9.44718 71.1276C9.94657 71.0717 10.4383 70.9609 10.9134 70.7974V70.9757C10.4848 71.1282 10.0424 71.2388 9.59249 71.3059L9.37453 72.039Z" fill="black"/>
<path d="M9.37453 73.1686C8.80587 73.261 8.22601 73.261 7.65735 73.1686L7.45922 72.4289C7.00448 72.3475 6.56106 72.2122 6.13831 72.026V71.8477C6.6073 72.0469 7.10014 72.1846 7.60452 72.2571L7.80265 72.9969C8.28033 73.0625 8.76476 73.0625 9.24245 72.9969C9.3151 72.7525 9.38114 72.5081 9.44718 72.2571C9.95138 72.1837 10.4441 72.0461 10.9134 71.8477V72.026C10.4902 72.2111 10.0469 72.3463 9.59249 72.4289L9.37453 73.1686Z" fill="black"/>
<g style="mix-blend-mode:multiply" opacity="0.5">
<path d="M10.9002 61.4915V60.3159C10.4369 60.0876 9.94309 59.9274 9.434 59.8403C9.434 59.8932 9.40098 59.9526 9.38116 60.012C8.80364 59.9196 8.21508 59.9196 7.63756 60.012C7.63756 59.9526 7.60454 59.8932 7.59133 59.8403C7.08198 59.9263 6.58799 60.0865 6.12512 60.3159V61.4915C7.66015 60.8908 9.36519 60.8908 10.9002 61.4915Z" fill="black"/>
</g>
<g style="mix-blend-mode:multiply" opacity="0.5">
<path d="M6.12512 69.9058V72.508C6.59205 72.7301 7.08781 72.8857 7.59794 72.9703L7.65077 73.1684C8.21943 73.2609 8.7993 73.2609 9.36796 73.1684C9.36796 73.1024 9.36796 73.0363 9.4208 72.9703C9.93281 72.8847 10.4306 72.7292 10.9002 72.508V69.9058C9.33487 70.3154 7.69047 70.3154 6.12512 69.9058Z" fill="black"/>
</g>
<path d="M10.6954 91.6547C9.26718 91.397 7.80434 91.397 6.37607 91.6547C6.15041 91.6962 5.94637 91.8154 5.79924 91.9914C5.65211 92.1675 5.57113 92.3895 5.57031 92.6189V99.3622C5.5724 99.5913 5.65383 99.8126 5.80074 99.9884C5.94766 100.164 6.15098 100.284 6.37607 100.326C7.80492 100.577 9.26659 100.577 10.6954 100.326C10.9211 100.285 11.1251 100.166 11.2723 99.9897C11.4194 99.8136 11.5004 99.5916 11.5012 99.3622V92.6189C11.5017 92.3891 11.4212 92.1665 11.2738 91.9902C11.1265 91.8138 10.9217 91.695 10.6954 91.6547Z" fill="#D6D6D6"/>
<path d="M10.9002 89.977C10.1545 89.6215 9.3388 89.437 8.51267 89.437C7.68654 89.437 6.87084 89.6215 6.12512 89.977V102.004C6.87174 102.356 7.68709 102.539 8.51267 102.539C9.33826 102.539 10.1536 102.356 10.9002 102.004V89.977Z" fill="#004358"/>
<path d="M9.37453 90.2212C8.80445 90.1485 8.22743 90.1485 7.65735 90.2212L7.45922 89.5607C7.00163 89.6472 6.55748 89.7937 6.13831 89.9966V89.8183C6.60117 89.589 7.09516 89.4288 7.60452 89.3428L7.80265 90.0032C8.28074 89.9438 8.76436 89.9438 9.24245 90.0032C9.3151 89.7721 9.38114 89.5409 9.44718 89.3428C9.95627 89.4299 10.4501 89.59 10.9134 89.8183V89.9966C10.4936 89.7954 10.0496 89.6489 9.59249 89.5607L9.37453 90.2212Z" fill="black"/>
<path d="M9.37453 91.3571C8.80405 91.2911 8.22783 91.2911 7.65735 91.3571L7.45922 90.6967C7.00729 90.7707 6.5645 90.8924 6.13831 91.0599V90.8816C6.60885 90.6896 7.10132 90.5565 7.60452 90.4854L7.80265 91.1458C8.28146 91.0996 8.76363 91.0996 9.24245 91.1458C9.3151 90.9146 9.38114 90.6901 9.44718 90.4854C9.95021 90.5574 10.4426 90.6905 10.9134 90.8816V91.0599C10.4868 90.8937 10.0441 90.7719 9.59249 90.6967L9.37453 91.3571Z" fill="black"/>
<path d="M9.37453 92.4865C8.80307 92.4403 8.22881 92.4403 7.65735 92.4865L7.45922 91.8261C7.01105 91.8795 6.56883 91.9746 6.13831 92.1101V91.9318C6.61542 91.7781 7.10654 91.6719 7.60452 91.6147L7.80265 92.3082C8.28201 92.2752 8.76308 92.2752 9.24245 92.3082C9.3151 92.0771 9.38114 91.8459 9.44718 91.6147C9.94505 91.6726 10.4361 91.7787 10.9134 91.9318V92.0639C10.4826 91.9295 10.0405 91.8345 9.59249 91.7799L9.37453 92.4865Z" fill="black"/>
<path d="M9.37453 93.616C8.80262 93.583 8.22926 93.583 7.65735 93.616L7.45922 92.9225C7.01502 92.9627 6.57382 93.031 6.13831 93.1272V92.9555C6.62004 92.8379 7.11029 92.7584 7.60452 92.7178L7.80265 93.4178C8.28221 93.3914 8.76288 93.3914 9.24245 93.4178C9.3151 93.1801 9.38114 92.9489 9.44718 92.7178C9.94135 92.7589 10.4316 92.8384 10.9134 92.9555V93.1272C10.4777 93.0318 10.0366 92.9634 9.59249 92.9225L9.37453 93.616Z" fill="black"/>
<path d="M9.37453 94.7454C8.80654 94.7454 8.22534 94.7454 7.65735 94.7454L7.45922 94.0453C7.0035 94.0453 6.55439 94.118 6.13831 94.1774V93.9991C6.62414 93.9235 7.11352 93.8729 7.60452 93.8472L7.80265 94.5538C8.27817 94.5538 8.76692 94.5538 9.24245 94.5538C9.3151 94.3161 9.38114 94.0783 9.44718 93.8472C9.93816 93.8732 10.4275 93.9239 10.9134 93.9991V94.1774C10.4841 94.118 10.035 94.0717 9.59249 94.0453L9.37453 94.7454Z" fill="black"/>
<path d="M9.37453 95.8814H7.65735L7.45922 95.1747C7.0035 95.1747 6.55439 95.1747 6.13831 95.2275V95.0492C6.60723 95.0492 7.09597 94.9898 7.60452 94.9766L7.80265 95.6833H9.24245C9.3151 95.4455 9.38114 95.2143 9.44718 94.9766C9.94913 94.9766 10.4445 95.0162 10.9134 95.0492V95.2275C10.4841 95.2275 10.035 95.1813 9.59249 95.1747L9.37453 95.8814Z" fill="black"/>
<path d="M9.37453 97.0107C8.80654 97.0107 8.22534 97.0107 7.65735 97.0107L7.45922 96.2975H6.13831V96.1191H7.60452L7.80265 96.8324H9.24245C9.3151 96.5947 9.38114 96.3569 9.44718 96.1191H10.9134V96.2975H9.59249L9.37453 97.0107Z" fill="black"/>
<path d="M9.37453 98.1401C8.80654 98.1401 8.22534 98.1401 7.65735 98.1401L7.45922 97.4202C7.0035 97.4202 6.55439 97.3674 6.13831 97.3277V97.1494C6.60723 97.189 7.09597 97.222 7.60452 97.2353L7.80265 97.9552C8.27817 97.9552 8.76692 97.9552 9.24245 97.9552C9.3151 97.7174 9.38114 97.473 9.44718 97.2353C9.94913 97.2353 10.4445 97.189 10.9134 97.1494V97.3475C10.4841 97.3872 10.035 97.4202 9.59249 97.44L9.37453 98.1401Z" fill="black"/>
<path d="M9.37453 99.2694C8.80307 99.3157 8.22881 99.3157 7.65735 99.2694L7.45922 98.5495C7.01592 98.5148 6.57493 98.4553 6.13831 98.3712V98.1929C6.62331 98.2784 7.11287 98.3358 7.60452 98.3646L7.80265 99.0911C8.28221 99.1175 8.76288 99.1175 9.24245 99.0911C9.3151 98.8467 9.38114 98.6024 9.44718 98.3646C9.9388 98.3354 10.4283 98.278 10.9134 98.1929V98.3712C10.4767 98.4546 10.0357 98.5141 9.59249 98.5495L9.37453 99.2694Z" fill="black"/>
<path d="M9.37453 100.406C8.80368 100.465 8.2282 100.465 7.65735 100.406L7.45922 99.6725C7.01303 99.6235 6.57137 99.5396 6.13831 99.4215V99.2432C6.61967 99.3653 7.10994 99.4492 7.60452 99.4941L7.80265 100.221C8.28146 100.267 8.76363 100.267 9.24245 100.221C9.3151 99.9829 9.38114 99.7385 9.44718 99.4941C9.94169 99.4487 10.4319 99.3647 10.9134 99.2432V99.4215C10.4801 99.5387 10.0385 99.6225 9.59249 99.6725L9.37453 100.406Z" fill="black"/>
<path d="M9.37453 101.535C8.80445 101.607 8.22743 101.607 7.65735 101.535L7.45922 100.795C7.00925 100.731 6.56676 100.623 6.13831 100.471V100.293C6.61412 100.454 7.10556 100.565 7.60452 100.623L7.80265 101.356C8.28112 101.409 8.76397 101.409 9.24245 101.356C9.3151 101.112 9.38114 100.868 9.44718 100.623C9.94602 100.564 10.4374 100.453 10.9134 100.293V100.471C10.4846 100.622 10.0422 100.73 9.59249 100.795L9.37453 101.535Z" fill="black"/>
<path d="M9.37453 102.664C8.80587 102.757 8.22601 102.757 7.65735 102.664L7.45922 101.918C7.00472 101.839 6.56128 101.706 6.13831 101.522V101.343C6.6073 101.543 7.10014 101.68 7.60452 101.753L7.80265 102.492C8.28074 102.552 8.76436 102.552 9.24245 102.492C9.3151 102.248 9.38114 101.997 9.44718 101.753C9.95138 101.679 10.4441 101.542 10.9134 101.343V101.522C10.49 101.704 10.0467 101.837 9.59249 101.918L9.37453 102.664Z" fill="black"/>
<g style="mix-blend-mode:multiply" opacity="0.5">
<path d="M10.9002 90.9807V89.8051C10.4369 89.5768 9.94309 89.4167 9.434 89.3296C9.434 89.389 9.40098 89.4485 9.38116 89.5079C8.80364 89.4155 8.21508 89.4155 7.63756 89.5079C7.63756 89.4485 7.60454 89.389 7.59133 89.3296C7.08198 89.4156 6.58799 89.5758 6.12512 89.8051V90.9807C7.66111 90.3852 9.36422 90.3852 10.9002 90.9807Z" fill="black"/>
</g>
<g style="mix-blend-mode:multiply" opacity="0.5">
<path d="M6.12512 99.4014V102.004C6.59205 102.226 7.08781 102.381 7.59794 102.466L7.65077 102.664C8.21943 102.756 8.7993 102.756 9.36796 102.664C9.36796 102.598 9.36796 102.532 9.4208 102.466C9.93281 102.38 10.4306 102.225 10.9002 102.004V99.4014C9.33487 99.811 7.69047 99.811 6.12512 99.4014Z" fill="black"/>
</g>
<path d="M30.3308 62.1586C31.7591 61.9009 33.2219 61.9009 34.6502 62.1586C34.8758 62.2001 35.0799 62.3193 35.227 62.4953C35.3741 62.6714 35.4551 62.8934 35.4559 63.1228V69.8661C35.4564 70.0959 35.3759 70.3185 35.2285 70.4949C35.0812 70.6712 34.8764 70.79 34.6502 70.8304C33.2219 71.088 31.7591 71.088 30.3308 70.8304C30.1046 70.79 29.8998 70.6712 29.7524 70.4949C29.6051 70.3185 29.5246 70.0959 29.525 69.8661V63.1228C29.5258 62.8934 29.6068 62.6714 29.754 62.4953C29.9011 62.3193 30.1051 62.2001 30.3308 62.1586Z" fill="#D6D6D6"/>
<path d="M30.0996 60.4811C30.8474 60.1286 31.6638 59.9458 32.4905 59.9458C33.3171 59.9458 34.1336 60.1286 34.8813 60.4811V72.508C34.1344 72.8636 33.3177 73.0481 32.4905 73.0481C31.6632 73.0481 30.8465 72.8636 30.0996 72.508V60.4811Z" fill="#004358"/>
<path d="M31.6319 60.7321C32.2015 60.6529 32.7794 60.6529 33.3491 60.7321L33.5472 60.0717C34.0038 60.1651 34.4474 60.3137 34.8681 60.5142V60.3359C34.4048 60.1076 33.911 59.9474 33.4019 59.8604C33.3359 60.0849 33.2632 60.3095 33.1972 60.5208C32.7191 60.4613 32.2355 60.4613 31.7574 60.5208C31.6913 60.2896 31.6253 60.0651 31.5526 59.8604C31.0436 59.9474 30.5497 60.1076 30.0864 60.3359V60.5142C30.5072 60.3137 30.9507 60.1651 31.4073 60.0717L31.6319 60.7321Z" fill="black"/>
<path d="M31.6319 61.8616C32.2024 61.7955 32.7786 61.7955 33.3491 61.8616L33.5472 61.2011C33.9987 61.2739 34.4414 61.3934 34.8681 61.5577V61.3794C34.3971 61.1904 33.9047 61.0595 33.4019 60.9897C33.3359 61.2143 33.2632 61.4455 33.1972 61.6502C32.7184 61.604 32.2362 61.604 31.7574 61.6502C31.6913 61.419 31.6253 61.1879 31.5526 60.9897C31.0499 61.0595 30.5575 61.1904 30.0864 61.3794V61.5577C30.5132 61.3934 30.9559 61.2739 31.4073 61.2011L31.6319 61.8616Z" fill="black"/>
<path d="M31.6319 63.0039C32.2034 62.9576 32.7776 62.9576 33.3491 63.0039L33.5472 62.3434C33.9946 62.4012 34.4365 62.4962 34.8681 62.6274V62.4491C34.3914 62.2953 33.9 62.1913 33.4019 62.1387C33.3359 62.3632 33.2632 62.5944 33.1972 62.8322C32.7181 62.7925 32.2365 62.7925 31.7574 62.8322C31.6913 62.5944 31.6253 62.3632 31.5526 62.1387C31.0545 62.1913 30.5632 62.2953 30.0864 62.4491V62.6274C30.5181 62.4962 30.9599 62.4012 31.4073 62.3434L31.6319 63.0039Z" fill="black"/>
<path d="M31.6319 64.1201C32.1999 64.1201 32.7811 64.1201 33.3491 64.1201L33.5472 63.4267C33.9915 63.4698 34.4326 63.5403 34.8681 63.638V63.4597C34.3861 63.3448 33.8959 63.2675 33.4019 63.2285C33.3359 63.4597 33.2632 63.6908 33.1972 63.889C32.7216 63.889 32.2329 63.889 31.7574 63.889C31.6913 63.6578 31.6253 63.4267 31.5526 63.2285C31.0587 63.2675 30.5684 63.3448 30.0864 63.4597V63.6644C30.5219 63.5668 30.9631 63.4962 31.4073 63.4531L31.6319 64.1201Z" fill="black"/>
<path d="M31.6319 65.2561C32.1999 65.2561 32.7811 65.2561 33.3491 65.2561L33.5472 64.556C34.0029 64.556 34.452 64.6221 34.8681 64.6881V64.5098C34.3827 64.4314 33.8931 64.3807 33.4019 64.3579C33.3359 64.5891 33.2632 64.8202 33.1972 65.058C32.7216 65.058 32.2329 65.058 31.7574 65.058C31.6913 64.8202 31.6253 64.5891 31.5526 64.3579C31.0614 64.3807 30.5719 64.4314 30.0864 64.5098V64.6881C30.5157 64.6221 30.9648 64.5825 31.4073 64.556L31.6319 65.2561Z" fill="black"/>
<path d="M31.6319 66.3855H33.3491L33.5472 65.6788C34.0029 65.6788 34.452 65.6788 34.8681 65.7317V65.5534C34.3992 65.5203 33.9039 65.5005 33.4019 65.4873C33.3359 65.7185 33.2632 65.9562 33.1972 66.194C32.7216 66.194 32.2329 66.194 31.7574 66.194C31.6913 65.9562 31.6253 65.7185 31.5526 65.4873C31.0507 65.4873 30.5553 65.5203 30.0864 65.5534V65.7317C30.5157 65.7317 30.9648 65.6921 31.4073 65.6788L31.6319 66.3855Z" fill="black"/>
<path d="M31.6319 67.5147C32.1999 67.5147 32.7811 67.5147 33.3491 67.5147L33.5472 66.8014C34.0029 66.8014 34.452 66.8014 34.8681 66.8014V66.623H33.4151C33.349 66.8608 33.2764 67.0986 33.2104 67.343H31.7706C31.7045 67.0986 31.6385 66.8608 31.5658 66.623H30.0996V66.8014C30.5289 66.8014 30.978 66.8014 31.4205 66.8014L31.6319 67.5147Z" fill="black"/>
<path d="M31.6319 68.6441C32.2038 68.6771 32.7772 68.6771 33.3491 68.6441L33.5472 67.9308C34.0029 67.9308 34.452 67.8779 34.8681 67.8317V67.627C34.3992 67.6666 33.9039 67.6996 33.4019 67.7128C33.3359 67.9572 33.2632 68.1949 33.1972 68.4327C32.7216 68.4327 32.2329 68.4327 31.7574 68.4327C31.6913 68.1949 31.6253 67.9572 31.5526 67.7128C31.0507 67.7128 30.5553 67.6666 30.0864 67.627V67.8053C30.5157 67.8515 30.9648 67.8845 31.4073 67.9043L31.6319 68.6441Z" fill="black"/>
<path d="M31.6319 69.7801C32.2036 69.8198 32.7774 69.8198 33.3491 69.7801L33.5472 69.0537C33.9903 69.0204 34.4313 68.9631 34.8681 68.8819V68.7036C34.3829 68.7865 33.8934 68.8417 33.4019 68.8687C33.3359 69.1131 33.2632 69.3509 33.1972 69.5952C32.7178 69.6282 32.2367 69.6282 31.7574 69.5952C31.6913 69.3509 31.6253 69.1131 31.5526 68.8687C31.0612 68.8417 30.5716 68.7865 30.0864 68.7036V68.8819C30.5233 68.9631 30.9642 69.0204 31.4073 69.0537L31.6319 69.7801Z" fill="black"/>
<path d="M31.6319 70.9292C32.2027 70.9887 32.7782 70.9887 33.3491 70.9292L33.5472 70.1961C33.9937 70.1494 34.4356 70.0654 34.8681 69.9452V69.7734C34.3865 69.8928 33.8962 69.9745 33.4019 70.0178C33.3359 70.2622 33.2632 70.5065 33.1972 70.7509C32.7181 70.7905 32.2365 70.7905 31.7574 70.7509C31.6913 70.5065 31.6253 70.2622 31.5526 70.0178C31.0583 69.9745 30.5681 69.8928 30.0864 69.7734V69.9452C30.519 70.0654 30.9608 70.1494 31.4073 70.1961L31.6319 70.9292Z" fill="black"/>
<path d="M31.6319 72.039C32.2015 72.1183 32.7794 72.1183 33.3491 72.039L33.5472 71.3059C33.9972 71.2388 34.4395 71.1282 34.8681 70.9757V70.7974C34.393 70.9609 33.9013 71.0717 33.4019 71.1276C33.3359 71.372 33.2632 71.6163 33.1972 71.8673C32.7184 71.9135 32.2362 71.9135 31.7574 71.8673C31.6913 71.6163 31.6253 71.372 31.5526 71.1276C31.0533 71.0717 30.5616 70.9609 30.0864 70.7974V70.9757C30.515 71.1282 30.9574 71.2388 31.4073 71.3059L31.6319 72.039Z" fill="black"/>
<path d="M31.6319 73.1686C32.2006 73.261 32.7804 73.261 33.3491 73.1686L33.5472 72.4289C34.0017 72.3463 34.445 72.2111 34.8681 72.026V71.8477C34.3988 72.0461 33.9061 72.1837 33.4019 72.2571C33.3359 72.5081 33.2632 72.7525 33.1972 72.9969C32.7195 73.0625 32.2351 73.0625 31.7574 72.9969C31.6913 72.7525 31.6253 72.5081 31.5526 72.2571C31.0484 72.1837 30.5557 72.0461 30.0864 71.8477V72.026C30.5096 72.2111 30.9529 72.3463 31.4073 72.4289L31.6319 73.1686Z" fill="black"/>
<g style="mix-blend-mode:multiply" opacity="0.5">
<path d="M30.0996 61.4915V60.3159C30.5629 60.0876 31.0567 59.9274 31.5658 59.8403C31.5873 59.8963 31.605 59.9537 31.6186 60.012C32.1962 59.9196 32.7847 59.9196 33.3623 60.012C33.376 59.9537 33.3936 59.8963 33.4151 59.8403C33.9242 59.9274 34.418 60.0876 34.8813 60.3159V61.4915C33.3441 60.8904 31.6368 60.8904 30.0996 61.4915Z" fill="black"/>
</g>
<g style="mix-blend-mode:multiply" opacity="0.5">
<path d="M34.8813 69.9058V72.508C34.4117 72.7292 33.9139 72.8847 33.4019 72.9703L33.3491 73.1684C32.7804 73.2609 32.2005 73.2609 31.6319 73.1684L31.579 72.9703C31.067 72.8847 30.5692 72.7292 30.0996 72.508V69.9058C31.6672 70.3153 33.3137 70.3153 34.8813 69.9058Z" fill="black"/>
</g>
<path d="M30.3308 91.6547C31.7591 91.397 33.2219 91.397 34.6502 91.6547C34.8764 91.695 35.0812 91.8138 35.2285 91.9902C35.3759 92.1665 35.4564 92.3891 35.4559 92.6189V99.3622C35.4551 99.5916 35.3741 99.8136 35.227 99.9897C35.0799 100.166 34.8758 100.285 34.6502 100.326C33.2213 100.577 31.7596 100.577 30.3308 100.326C30.1051 100.285 29.9011 100.166 29.754 99.9897C29.6068 99.8136 29.5258 99.5916 29.525 99.3622V92.6189C29.5246 92.3891 29.6051 92.1665 29.7524 91.9902C29.8998 91.8138 30.1046 91.695 30.3308 91.6547Z" fill="#D6D6D6"/>
<path d="M30.0996 89.9767C30.8465 89.6211 31.6632 89.4365 32.4905 89.4365C33.3177 89.4365 34.1344 89.6211 34.8813 89.9767V102.004C34.1336 102.356 33.3171 102.539 32.4905 102.539C31.6638 102.539 30.8474 102.356 30.0996 102.004V89.9767Z" fill="#004358"/>
<path d="M31.6319 90.2212C32.202 90.1485 32.779 90.1485 33.3491 90.2212L33.5472 89.5607C34.0044 89.6489 34.4483 89.7954 34.8681 89.9966V89.8183C34.4048 89.59 33.911 89.4299 33.4019 89.3428C33.3359 89.5673 33.2632 89.7985 33.1972 90.0032C32.7191 89.9438 32.2355 89.9438 31.7574 90.0032C31.6913 89.7721 31.6253 89.5409 31.5526 89.3428C31.0436 89.4299 30.5497 89.59 30.0864 89.8183V89.9966C30.5063 89.7954 30.9502 89.6489 31.4073 89.5607L31.6319 90.2212Z" fill="black"/>
<path d="M31.6319 91.3571C32.2024 91.2911 32.7786 91.2911 33.3491 91.3571L33.5472 90.6967C33.9989 90.7719 34.4415 90.8937 34.8681 91.0599V90.8816C34.3973 90.6905 33.9049 90.5574 33.4019 90.4854C33.3359 90.7165 33.2632 90.9411 33.1972 91.1458C32.7184 91.0996 32.2362 91.0996 31.7574 91.1458C31.6913 90.9146 31.6253 90.6901 31.5526 90.4854C31.0496 90.5574 30.5573 90.6905 30.0864 90.8816V91.0599C30.513 90.8937 30.9557 90.7719 31.4073 90.6967L31.6319 91.3571Z" fill="black"/>
<path d="M31.6319 92.4865C32.2034 92.4403 32.7776 92.4403 33.3491 92.4865L33.5472 91.8261C33.9952 91.8807 34.4373 91.9758 34.8681 92.1101V91.9318C34.3908 91.7787 33.8998 91.6726 33.4019 91.6147C33.3359 91.8459 33.2632 92.0771 33.1972 92.3082C32.7178 92.2752 32.2367 92.2752 31.7574 92.3082C31.6913 92.0771 31.6253 91.8459 31.5526 91.6147C31.0548 91.6726 30.5637 91.7787 30.0864 91.9318V92.0639C30.5173 91.9295 30.9594 91.8345 31.4073 91.7799L31.6319 92.4865Z" fill="black"/>
<path d="M31.6319 93.616C32.2038 93.583 32.7772 93.583 33.3491 93.616L33.5472 92.9225C33.9913 92.9634 34.4325 93.0318 34.8681 93.1272V92.9555C34.3863 92.8384 33.8961 92.7589 33.4019 92.7178C33.3359 92.9489 33.2632 93.1801 33.1972 93.4178C32.7176 93.3914 32.2369 93.3914 31.7574 93.4178C31.6913 93.1801 31.6253 92.9489 31.5526 92.7178C31.0585 92.7589 30.5683 92.8384 30.0864 92.9555V93.1272C30.5221 93.0318 30.9632 92.9634 31.4073 92.9225L31.6319 93.616Z" fill="black"/>
<path d="M31.6319 94.7454C32.1999 94.7454 32.7811 94.7454 33.3491 94.7454L33.5472 94.0453C34.0029 94.0453 34.452 94.118 34.8681 94.1774V93.9991C34.3822 93.9239 33.8929 93.8732 33.4019 93.8472C33.3359 94.0783 33.2632 94.3161 33.1972 94.5538C32.7216 94.5538 32.2329 94.5538 31.7574 94.5538C31.6913 94.3161 31.6253 94.0783 31.5526 93.8472C31.0617 93.8732 30.5723 93.9239 30.0864 93.9991V94.1774C30.5157 94.118 30.9648 94.0717 31.4073 94.0453L31.6319 94.7454Z" fill="black"/>
<path d="M31.6319 95.8814H33.3491L33.5472 95.1747C34.0029 95.1747 34.452 95.1747 34.8681 95.2275V95.0492C34.3992 95.0492 33.9039 94.9898 33.4019 94.9766C33.3359 95.2143 33.2632 95.4455 33.1972 95.6833H31.7574C31.6913 95.4455 31.6253 95.2143 31.5526 94.9766C31.0507 94.9766 30.5553 95.0162 30.0864 95.0492V95.2275C30.5157 95.2275 30.9648 95.1813 31.4073 95.1747L31.6319 95.8814Z" fill="black"/>
<path d="M31.6319 97.0107C32.1999 97.0107 32.7811 97.0107 33.3491 97.0107L33.5472 96.2975H34.8681V96.1191H33.4151C33.349 96.3569 33.2764 96.5947 33.2104 96.8324H31.7706C31.7045 96.5947 31.6385 96.3569 31.5658 96.1191H30.0996V96.2975H31.4205L31.6319 97.0107Z" fill="black"/>
<path d="M31.6319 98.1401C32.1999 98.1401 32.7811 98.1401 33.3491 98.1401L33.5472 97.4202C34.0029 97.4202 34.452 97.3674 34.8681 97.3277V97.1494C34.3992 97.189 33.9039 97.222 33.4019 97.2353L33.1972 97.9552C32.7216 97.9552 32.2329 97.9552 31.7574 97.9552C31.6913 97.7174 31.6253 97.473 31.5526 97.2353C31.0507 97.2353 30.5553 97.189 30.0864 97.1494V97.3475C30.5157 97.3872 30.9648 97.4202 31.4073 97.44L31.6319 98.1401Z" fill="black"/>
<path d="M31.6319 99.2694C32.2034 99.3157 32.7776 99.3157 33.3491 99.2694L33.5472 98.5495C33.9904 98.5141 34.4314 98.4546 34.8681 98.3712V98.1929C34.3831 98.278 33.8935 98.3354 33.4019 98.3646C33.3359 98.6024 33.2632 98.8467 33.1972 99.0911C32.7176 99.1175 32.2369 99.1175 31.7574 99.0911C31.6913 98.8467 31.6253 98.6024 31.5526 98.3646C31.061 98.3354 30.5715 98.278 30.0864 98.1929V98.3712C30.5232 98.4546 30.9641 98.5141 31.4073 98.5495L31.6319 99.2694Z" fill="black"/>
<path d="M31.6319 100.406C32.2027 100.465 32.7782 100.465 33.3491 100.406L33.5472 99.6725C33.9933 99.6225 34.4349 99.5387 34.8681 99.4215V99.2432C34.3866 99.3647 33.8964 99.4487 33.4019 99.4941C33.3359 99.7385 33.2632 99.9829 33.1972 100.221C32.7184 100.267 32.2362 100.267 31.7574 100.221C31.6913 99.9829 31.6253 99.7385 31.5526 99.4941C31.0581 99.4487 30.5679 99.3647 30.0864 99.2432V99.4215C30.5197 99.5387 30.9613 99.6225 31.4073 99.6725L31.6319 100.406Z" fill="black"/>
<path d="M31.6319 101.535C32.202 101.607 32.779 101.607 33.3491 101.535L33.5472 100.795C33.997 100.73 34.4393 100.622 34.8681 100.471V100.293C34.3921 100.453 33.9008 100.564 33.4019 100.623C33.3359 100.868 33.2632 101.112 33.1972 101.356C32.7187 101.409 32.2359 101.409 31.7574 101.356C31.6913 101.112 31.6253 100.868 31.5526 100.623C31.0538 100.564 30.5624 100.453 30.0864 100.293V100.471C30.5152 100.622 30.9576 100.73 31.4073 100.795L31.6319 101.535Z" fill="black"/>
<path d="M31.6319 102.664C32.2006 102.757 32.7804 102.757 33.3491 102.664L33.5472 101.918C34.0014 101.837 34.4447 101.704 34.8681 101.522V101.343C34.3988 101.542 33.9061 101.679 33.4019 101.753L33.1972 102.492C32.7191 102.552 32.2355 102.552 31.7574 102.492C31.6913 102.248 31.6253 101.997 31.5526 101.753C31.0484 101.679 30.5557 101.542 30.0864 101.343V101.522C30.5099 101.704 30.9531 101.837 31.4073 101.918L31.6319 102.664Z" fill="black"/>
<g style="mix-blend-mode:multiply" opacity="0.5">
<path d="M30.0996 90.9807V89.8051C30.5629 89.5768 31.0567 89.4167 31.5658 89.3296C31.5865 89.3881 31.6041 89.4476 31.6186 89.5079C32.1962 89.4155 32.7847 89.4155 33.3623 89.5079C33.3768 89.4476 33.3945 89.3881 33.4151 89.3296C33.9242 89.4167 34.418 89.5768 34.8813 89.8051V90.9807C33.3433 90.3835 31.6376 90.3835 30.0996 90.9807Z" fill="black"/>
</g>
<g style="mix-blend-mode:multiply" opacity="0.5">
<path d="M34.8813 99.4014V102.004C34.4117 102.225 33.9139 102.38 33.4019 102.466L33.3491 102.664C32.7804 102.756 32.2005 102.756 31.6319 102.664L31.579 102.466C31.067 102.38 30.5692 102.225 30.0996 102.004V99.4014C31.6672 99.8109 33.3137 99.8109 34.8813 99.4014Z" fill="black"/>
</g>
<path d="M31.3479 101.971C24.1247 102.473 16.8752 102.473 9.65197 101.971C8.88584 101.918 8.26501 101.555 8.26501 101.172V49.3919C8.26501 49.0088 8.92547 48.7314 9.66518 48.7314H31.3413C32.1141 48.7314 32.7349 49.0419 32.7349 49.3919V101.198C32.7349 101.581 32.1141 101.971 31.3479 101.971Z" fill="#BF1010"/>
<path d="M36.0636 34.4061C36.0636 34.5367 36.0249 34.6644 35.9523 34.773C35.8797 34.8816 35.7766 34.9663 35.6559 35.0162C35.5352 35.0662 35.4024 35.0793 35.2743 35.0538C35.1462 35.0283 35.0285 34.9654 34.9361 34.8731C34.8438 34.7807 34.7809 34.663 34.7554 34.5349C34.7299 34.4068 34.743 34.274 34.7929 34.1533C34.8429 34.0326 34.9276 33.9295 35.0362 33.8569C35.1448 33.7843 35.2725 33.7456 35.4031 33.7456C35.5783 33.7456 35.7463 33.8152 35.8701 33.939C35.994 34.0629 36.0636 34.2309 36.0636 34.4061Z" fill="#102030"/>
<path d="M33.9898 36.3944L33.6727 36.1236L35.4362 34.0762L36.3938 35.3112L36.0636 35.5688L35.4229 34.7366L33.9898 36.3944Z" fill="#102030"/>
<path d="M39.181 35.4365H36.2287C36.0168 35.4365 35.8135 35.5207 35.6636 35.6706C35.5138 35.8205 35.4296 36.0237 35.4296 36.2357V37.3122H39.9801V36.2357C39.9801 36.0237 39.8959 35.8205 39.746 35.6706C39.5962 35.5207 39.3929 35.4365 39.181 35.4365Z" fill="#102030"/>
<path d="M4.93628 34.4061C4.93628 34.5367 4.97502 34.6644 5.04759 34.773C5.12016 34.8816 5.22331 34.9663 5.34399 35.0162C5.46468 35.0662 5.59747 35.0793 5.72559 35.0538C5.8537 35.0283 5.97138 34.9654 6.06375 34.8731C6.15611 34.7807 6.21902 34.663 6.2445 34.5349C6.26999 34.4068 6.2569 34.274 6.20691 34.1533C6.15692 34.0326 6.07228 33.9295 5.96367 33.8569C5.85505 33.7843 5.72736 33.7456 5.59673 33.7456C5.42157 33.7456 5.25358 33.8152 5.12972 33.939C5.00586 34.0629 4.93628 34.2309 4.93628 34.4061Z" fill="#102030"/>
<path d="M7.01674 36.3944L5.58355 34.7366L4.93631 35.5688L4.60608 35.3112L5.56374 34.0762L7.32715 36.1236L7.01674 36.3944Z" fill="#102030"/>
<path d="M1.81896 35.4363H4.75138C4.96333 35.4363 5.1666 35.5205 5.31647 35.6703C5.46634 35.8202 5.55054 36.0235 5.55054 36.2354V37.312H1V36.2354C0.999967 36.1288 1.02127 36.0232 1.06266 35.925C1.10406 35.8267 1.1647 35.7377 1.24102 35.6632C1.31734 35.5888 1.4078 35.5303 1.50705 35.4913C1.60631 35.4524 1.71236 35.4336 1.81896 35.4363Z" fill="#102030"/>
<path d="M34.4719 35.7401V54.464C34.4719 54.5689 34.4512 54.6728 34.411 54.7698C34.3709 54.8668 34.312 54.9549 34.2378 55.0291C34.1636 55.1033 34.0755 55.1621 33.9785 55.2023C33.8816 55.2425 33.7777 55.2631 33.6727 55.2631H7.31394C7.20843 55.264 7.1038 55.244 7.00608 55.2042C6.90836 55.1644 6.81948 55.1057 6.74457 55.0314C6.66966 54.9571 6.61021 54.8687 6.56963 54.7713C6.52906 54.6739 6.50818 54.5695 6.50818 54.464V35.7401C6.51148 35.5207 6.59435 35.3101 6.74135 35.1473C6.88835 34.9845 7.08948 34.8806 7.30732 34.8551C13.6249 34.1937 19.9833 34.0104 26.3285 34.3069C27.689 34.3663 29.0561 34.4522 30.4101 34.5578C31.5064 34.6371 32.6028 34.7362 33.7124 34.8551C33.923 34.8893 34.1147 34.9969 34.2537 35.1589C34.3927 35.3208 34.47 35.5267 34.4719 35.7401Z" fill="#BF1010"/>
<path d="M31.7111 38.686H9.28865C8.84729 38.686 8.4895 39.0438 8.4895 39.4852V54.4577C8.4895 54.8991 8.84729 55.2569 9.28865 55.2569H31.7111C32.1525 55.2569 32.5103 54.8991 32.5103 54.4577V39.4852C32.5103 39.0438 32.1525 38.686 31.7111 38.686Z" fill="#BFBFBF"/>
<path d="M33.1113 35.9253L32.6688 38.0718C32.6302 38.2611 32.5265 38.4308 32.3756 38.5515C32.2248 38.6722 32.0364 38.7361 31.8433 38.7323H8.95845C8.76532 38.7361 8.57693 38.6722 8.42609 38.5515C8.27524 38.4308 8.17148 38.2611 8.13289 38.0718L7.69038 35.9253C7.6696 35.8059 7.67579 35.6834 7.70848 35.5668C7.74118 35.4501 7.79956 35.3422 7.87935 35.2511C7.95913 35.1599 8.0583 35.0877 8.1696 35.0398C8.28089 34.9919 8.40149 34.9695 8.52256 34.9743H32.299C32.4184 34.9725 32.5367 34.9971 32.6456 35.0463C32.7544 35.0955 32.851 35.1681 32.9286 35.2589C33.0062 35.3497 33.0628 35.4565 33.0944 35.5717C33.1259 35.6869 33.1317 35.8076 33.1113 35.9253Z" fill="#2CA3E8"/>
<g style="mix-blend-mode:overlay">
<path d="M22.1081 34.9411H8.52256C8.40149 34.9363 8.28089 34.9587 8.1696 35.0066C8.0583 35.0545 7.95913 35.1267 7.87935 35.2178C7.79956 35.309 7.74118 35.4169 7.70848 35.5336C7.67579 35.6502 7.6696 35.7727 7.69038 35.8921L8.13289 38.0386C8.17148 38.2279 8.27524 38.3976 8.42609 38.5183C8.57693 38.639 8.76532 38.7029 8.95845 38.699H18.3567L22.1081 34.9411Z" fill="#2CA3E8"/>
</g>
<g style="mix-blend-mode:overlay">
<path d="M31.196 34.9409H26.5662L22.8148 38.6857H27.4446L31.196 34.9409Z" fill="#2CA3E8"/>
</g>
<path d="M7.82913 53.4932H7.12244V54.2923H7.82913V53.4932Z" fill="#004358"/>
<path d="M6.50818 37.9067L7.61114 38.904C7.68076 38.9652 7.73673 39.0403 7.77542 39.1245C7.8141 39.2087 7.83464 39.3001 7.83569 39.3928V47.7607C7.83569 47.9359 7.76611 48.1039 7.64225 48.2277C7.51839 48.3516 7.3504 48.4212 7.17524 48.4212C7.00007 48.4212 6.83208 48.3516 6.70822 48.2277C6.58436 48.1039 6.51478 47.9359 6.51478 47.7607L6.50818 37.9067Z" fill="#2CA3E8"/>
<path d="M33.8775 53.4932H33.1708V54.2923H33.8775V53.4932Z" fill="#004358"/>
<path d="M7.82913 52.0732H7.12244V52.8724H7.82913V52.0732Z" fill="#004358"/>
<path d="M33.8775 52.0732H33.1708V52.8724H33.8775V52.0732Z" fill="#004358"/>
<path d="M7.82913 50.647H7.12244V51.4461H7.82913V50.647Z" fill="#004358"/>
<path d="M33.8775 50.647H33.1708V51.4461H33.8775V50.647Z" fill="#004358"/>
<path d="M34.4718 37.9067L33.3688 38.904C33.3004 38.9658 33.2457 39.0412 33.2081 39.1253C33.1706 39.2095 33.1511 39.3006 33.1509 39.3928V47.7607C33.1509 47.9359 33.2205 48.1039 33.3443 48.2277C33.4682 48.3516 33.6362 48.4212 33.8113 48.4212C33.9865 48.4212 34.1545 48.3516 34.2783 48.2277C34.4022 48.1039 34.4718 47.9359 34.4718 47.7607V37.9067Z" fill="#2CA3E8"/>
<path d="M30.595 53.6651H10.4049C10.2035 53.6651 10.0103 53.585 9.86784 53.4426C9.7254 53.3002 9.64539 53.107 9.64539 52.9055V41.0173C9.64539 40.8159 9.7254 40.6227 9.86784 40.4803C10.0103 40.3378 10.2035 40.2578 10.4049 40.2578H30.595C30.6948 40.2578 30.7935 40.2775 30.8857 40.3156C30.9778 40.3538 31.0616 40.4097 31.1321 40.4803C31.2026 40.5508 31.2586 40.6345 31.2967 40.7267C31.3349 40.8188 31.3546 40.9176 31.3546 41.0173V52.9055C31.3546 53.0053 31.3349 53.104 31.2967 53.1962C31.2586 53.2883 31.2026 53.3721 31.1321 53.4426C31.0616 53.5131 30.9778 53.5691 30.8857 53.6072C30.7935 53.6454 30.6948 53.6651 30.595 53.6651ZM10.4049 40.7862C10.3377 40.7879 10.2739 40.8158 10.227 40.8639C10.1801 40.912 10.1539 40.9766 10.1539 41.0438V52.932C10.1539 52.9991 10.1801 53.0637 10.227 53.1118C10.2739 53.1599 10.3377 53.1878 10.4049 53.1895H30.595C30.6622 53.1878 30.726 53.1599 30.7729 53.1118C30.8198 53.0637 30.846 52.9991 30.846 52.932V41.0438C30.846 40.9766 30.8198 40.912 30.7729 40.8639C30.726 40.8158 30.6622 40.7879 30.595 40.7862H10.4049Z" fill="black"/>
<path d="M29.7826 42.0742H28.8447V43.0121H29.7826V42.0742Z" fill="#004358"/>
<path d="M29.7826 43.8706H28.8447V44.8085H29.7826V43.8706Z" fill="#004358"/>
<path d="M12.056 42.0742H11.1182V43.0121H12.056V42.0742Z" fill="#004358"/>
<path d="M12.056 43.8706H11.1182V44.8085H12.056V43.8706Z" fill="#004358"/>
<path d="M35.5484 88.7615C35.5502 91.6831 34.7016 94.5421 33.1063 96.9897C31.5109 99.4372 29.2377 101.368 26.564 102.545C23.8903 103.723 20.9316 104.097 18.0488 103.622C15.1661 103.147 12.484 101.843 10.3296 99.8696C8.17523 97.8962 6.64178 95.3384 5.91628 92.5083C5.19078 89.6782 5.30461 86.6981 6.24389 83.9316C7.18316 81.1651 8.90728 78.7317 11.2059 76.9283C13.5045 75.125 16.2783 74.0296 19.1889 73.7757C19.6278 73.7322 20.0688 73.7124 20.5098 73.7163C24.3582 73.707 28.0622 75.1806 30.8526 77.8309C31.0969 78.0621 31.3281 78.2933 31.5526 78.5376C31.7772 78.782 31.9951 79.0396 32.2131 79.2971C34.3814 81.9738 35.5595 85.3168 35.5484 88.7615Z" fill="#FD7400"/>
<path d="M33.3388 91.74C34.9976 84.6509 30.5955 77.5593 23.5064 75.9005C16.4173 74.2417 9.32571 78.6438 7.66689 85.7329C6.00807 92.822 10.4102 99.9136 17.4993 101.572C24.5884 103.231 31.68 98.8291 33.3388 91.74Z" fill="#FFBA1A"/>
<path d="M20.5033 102.182C17.8407 102.184 15.2377 101.395 13.0237 99.9159C10.8097 98.437 9.08433 96.3343 8.06603 93.8742C7.04773 91.4141 6.7823 88.7072 7.30334 86.0961C7.82438 83.4851 9.10846 81.0873 10.993 79.2065C12.8776 77.3256 15.2778 76.0463 17.8899 75.5304C20.502 75.0145 23.2084 75.2852 25.6665 76.3084C28.1246 77.3315 30.2238 79.061 31.6984 81.2779C33.173 83.4948 33.9567 86.0994 33.9501 88.7619C33.9362 92.3215 32.5142 95.731 29.9946 98.2455C27.4751 100.76 24.0629 102.175 20.5033 102.182ZM20.5033 75.7641C17.945 75.7629 15.4437 76.5196 13.3152 77.9389C11.1867 79.3582 9.52645 81.3764 8.54414 83.7386C7.56182 86.1007 7.30146 88.701 7.79593 91.2111C8.2904 93.7211 9.51753 96.0284 11.3224 97.8415C13.1272 99.6546 15.4288 100.892 17.9366 101.398C20.4443 101.904 23.0458 101.656 25.4124 100.684C27.7791 99.7129 29.8048 98.0619 31.2339 95.9399C32.6629 93.818 33.4311 91.3202 33.4416 88.7619C33.4451 85.3263 32.0841 82.03 29.6579 79.5976C27.2317 77.1652 23.9388 75.7958 20.5033 75.7906V75.7641Z" fill="#004358"/>
<g style="mix-blend-mode:multiply" opacity="0.3">
<path d="M34.0426 88.4712V95.3003C33.1117 97.2154 31.7859 98.9118 30.1524 100.278C28.5189 101.644 26.6147 102.648 24.5651 103.226H19.1889V98.2459H15.9791V88.4712H19.1757V73.743C19.6146 73.6995 20.0556 73.6797 20.4966 73.6836C24.345 73.6743 28.0491 75.1479 30.8394 77.7982V86.721H31.1696V80.0636H31.513V78.5049C31.7376 78.7493 31.9556 79.0069 32.1735 79.2644V80.0636H32.5169V86.721H33.2831V88.4712H34.0426Z" fill="#583200"/>
</g>
<path d="M29.5251 83.9536H11.4814V93.7218H29.5251V83.9536Z" fill="#FFE11A"/>
<path d="M14.678 82.2031H12.2145V95.4783H14.678V82.2031Z" fill="#BF1010"/>
<path d="M28.792 82.2031H26.3285V95.4783H28.792V82.2031Z" fill="#BF1010"/>
<path d="M14.6781 64.1069H12.7231V67.7328H14.6781V64.1069Z" fill="#FFE11A"/>
<path d="M28.2834 64.1069H26.3285V67.7328H28.2834V64.1069Z" fill="#FFE11A"/>
<path d="M21.4741 20.3783L20.074 19.1829L21.6525 17.3336C21.7312 17.2382 21.8285 17.1597 21.9383 17.1028C22.0482 17.0459 22.1684 17.0118 22.2918 17.0026C22.4152 16.9933 22.5392 17.0091 22.6563 17.049C22.7734 17.0888 22.8813 17.152 22.9734 17.2346C23.0685 17.3134 23.1468 17.4105 23.2038 17.5201C23.2607 17.6297 23.2952 17.7496 23.305 17.8727C23.3149 17.9958 23.2999 18.1197 23.2611 18.237C23.2223 18.3542 23.1604 18.4625 23.0791 18.5555L21.4741 20.3783Z" fill="#102030"/>
<path d="M22.9073 20.0745C22.9086 20.5518 22.7681 21.0188 22.5037 21.4162C22.2394 21.8137 21.8629 22.1237 21.4222 22.307C20.9814 22.4902 20.4962 22.5385 20.0279 22.4457C19.5597 22.3529 19.1295 22.1232 18.792 21.7857C18.4545 21.4481 18.2247 21.018 18.1319 20.5498C18.0391 20.0815 18.0874 19.5963 18.2707 19.1555C18.454 18.7147 18.764 18.3383 19.1614 18.0739C19.5589 17.8095 20.0259 17.6691 20.5032 17.6704C21.1408 17.6704 21.7523 17.9237 22.2031 18.3746C22.654 18.8254 22.9073 19.4369 22.9073 20.0745Z" fill="#F52924"/>
<path d="M24.7632 19.5459H16.2367V23.1916H24.7632V19.5459Z" fill="#FFED78"/>
<path d="M26.3284 31.5928H14.678V98.6951H26.3284V31.5928Z" fill="#F52924"/>
<path d="M27.3059 21.6792H13.7006V31.5926H27.3059V21.6792Z" fill="#102030"/>
<path d="M24.7632 21.6792H16.2367V31.5926H24.7632V21.6792Z" fill="#F52924"/>
<path d="M20.5032 76.002C19.5066 76.002 18.5507 76.3979 17.8459 77.1026C17.1412 77.8074 16.7452 78.7633 16.7452 79.7599V91.5491C16.7452 92.5458 17.1412 93.5016 17.8459 94.2064C18.5507 94.9111 19.5066 95.3071 20.5032 95.3071C21.4999 95.3071 22.4558 94.9111 23.1605 94.2064C23.8653 93.5016 24.2612 92.5458 24.2612 91.5491V79.7599C24.2612 78.7633 23.8653 77.8074 23.1605 77.1026C22.4558 76.3979 21.4999 76.002 20.5032 76.002Z" fill="#BF1010"/>
<path d="M20.5032 54.7021C19.5066 54.7021 18.5507 55.0981 17.8459 55.8028C17.1412 56.5076 16.7452 57.4635 16.7452 58.4601V70.2691C16.7452 71.2658 17.1412 72.2216 17.8459 72.9264C18.5507 73.6312 19.5066 74.0271 20.5032 74.0271C21.4999 74.0271 22.4558 73.6312 23.1605 72.9264C23.8653 72.2216 24.2612 71.2658 24.2612 70.2691V58.4601C24.2612 57.4635 23.8653 56.5076 23.1605 55.8028C22.4558 55.0981 21.4999 54.7021 20.5032 54.7021Z" fill="#BF1010"/>
<path d="M20.5032 33.4023C19.5066 33.4023 18.5507 33.7983 17.8459 34.503C17.1412 35.2078 16.7452 36.1637 16.7452 37.1603V48.9495C16.7452 49.9462 17.1412 50.902 17.8459 51.6068C18.5507 52.3115 19.5066 52.7075 20.5032 52.7075C21.4999 52.7075 22.4558 52.3115 23.1605 51.6068C23.8653 50.902 24.2612 49.9462 24.2612 48.9495V37.1603C24.2612 36.1637 23.8653 35.2078 23.1605 34.503C22.4558 33.7983 21.4999 33.4023 20.5032 33.4023Z" fill="#BF1010"/>
<path d="M25.9924 8.08646C25.8919 6.63049 25.2426 5.2669 24.1756 4.27119C23.1086 3.27547 21.7035 2.72185 20.244 2.72217C18.784 2.72174 17.3781 3.27516 16.3101 4.27074C15.2421 5.26632 14.5914 6.62995 14.4895 8.08646L14.0001 15.2099V15.5197C13.9993 15.6134 14.0172 15.7064 14.0527 15.7932C14.0882 15.88 14.1406 15.9589 14.207 16.0252C14.2733 16.0915 14.3521 16.144 14.4389 16.1795C14.5257 16.215 14.6187 16.2328 14.7125 16.232C14.9014 16.232 15.0826 16.157 15.2162 16.0234C15.3498 15.8898 15.4248 15.7086 15.4248 15.5197V15.2099H16.2053V15.5197C16.2045 15.6134 16.2224 15.7064 16.2579 15.7932C16.2934 15.88 16.3458 15.9589 16.4121 16.0252C16.4784 16.0915 16.5573 16.144 16.6441 16.1795C16.7309 16.215 16.8239 16.2328 16.9177 16.232C17.0115 16.2328 17.1045 16.215 17.1913 16.1795C17.2781 16.144 17.3569 16.0915 17.4232 16.0252C17.4895 15.9589 17.542 15.88 17.5775 15.7932C17.613 15.7064 17.6309 15.6134 17.63 15.5197V15.2099H18.4167V15.5197C18.4159 15.6134 18.4337 15.7064 18.4693 15.7932C18.5048 15.88 18.5572 15.9589 18.6235 16.0252C18.6898 16.0915 18.7687 16.144 18.8555 16.1795C18.9423 16.215 19.0353 16.2328 19.1291 16.232C19.2228 16.2328 19.3158 16.215 19.4026 16.1795C19.4894 16.144 19.5683 16.0915 19.6346 16.0252C19.7009 15.9589 19.7534 15.88 19.7889 15.7932C19.8244 15.7064 19.8422 15.6134 19.8414 15.5197V15.2099H20.6281V15.5197C20.6273 15.6134 20.6451 15.7064 20.6806 15.7932C20.7161 15.88 20.7686 15.9589 20.8349 16.0252C20.9012 16.0915 20.9801 16.144 21.0669 16.1795C21.1537 16.215 21.2467 16.2328 21.3404 16.232C21.4342 16.2328 21.5272 16.215 21.614 16.1795C21.7008 16.144 21.7797 16.0915 21.846 16.0252C21.9123 15.9589 21.9647 15.88 22.0002 15.7932C22.0357 15.7064 22.0536 15.6134 22.0528 15.5197V15.2099H22.8395V15.5197C22.8395 15.7086 22.9145 15.8898 23.0481 16.0234C23.1817 16.157 23.3629 16.232 23.5518 16.232C23.7407 16.232 23.9219 16.157 24.0555 16.0234C24.1891 15.8898 24.2642 15.7086 24.2642 15.5197V15.2099H25.0447V15.5197C25.0447 15.7086 25.1197 15.8898 25.2533 16.0234C25.3869 16.157 25.5681 16.232 25.757 16.232C25.9459 16.232 26.1271 16.157 26.2607 16.0234C26.3943 15.8898 26.4693 15.7086 26.4693 15.5197V15.2099L25.9924 8.08646Z" fill="#2A6380"/>
<path d="M15.0966 15.3955V15.2097C15.0966 15.1674 15.1049 15.1255 15.1211 15.0864C15.1373 15.0474 15.161 15.0119 15.1909 14.9819C15.2208 14.952 15.2564 14.9283 15.2954 14.9121C15.3345 14.8959 15.3764 14.8876 15.4187 14.8876H16.2054C16.2477 14.8876 16.2896 14.8959 16.3286 14.9121C16.3677 14.9283 16.4032 14.952 16.4331 14.9819C16.463 15.0119 16.4868 15.0474 16.503 15.0864C16.5191 15.1255 16.5275 15.1674 16.5275 15.2097V15.3955H17.3204V15.2097C17.3204 15.1674 17.3287 15.1255 17.3449 15.0864C17.3611 15.0474 17.3848 15.0119 17.4147 14.9819C17.4446 14.952 17.4801 14.9283 17.5192 14.9121C17.5583 14.8959 17.6002 14.8876 17.6425 14.8876H18.4291C18.4714 14.8876 18.5133 14.8959 18.5524 14.9121C18.5915 14.9283 18.627 14.952 18.6569 14.9819C18.6868 15.0119 18.7105 15.0474 18.7267 15.0864C18.7429 15.1255 18.7512 15.1674 18.7512 15.2097V15.3955H19.5379V15.2097C19.5371 15.1677 19.5447 15.126 19.5602 15.0869C19.5757 15.0479 19.5988 15.0123 19.6282 14.9823C19.6577 14.9523 19.6928 14.9285 19.7315 14.9122C19.7702 14.896 19.8118 14.8876 19.8538 14.8876H20.6405C20.6828 14.8876 20.7247 14.8959 20.7638 14.9121C20.8029 14.9283 20.8384 14.952 20.8683 14.9819C20.8982 15.0119 20.9219 15.0474 20.9381 15.0864C20.9543 15.1255 20.9626 15.1674 20.9626 15.2097V15.3955H21.7493V15.2097C21.7485 15.1677 21.756 15.126 21.7716 15.0869C21.7871 15.0479 21.8102 15.0123 21.8396 14.9823C21.869 14.9523 21.9041 14.9285 21.9429 14.9122C21.9816 14.896 22.0232 14.8876 22.0652 14.8876H22.8519C22.8942 14.8876 22.9361 14.8959 22.9752 14.9121C23.0142 14.9283 23.0498 14.952 23.0797 14.9819C23.1096 15.0119 23.1333 15.0474 23.1495 15.0864C23.1657 15.1255 23.174 15.1674 23.174 15.2097V15.3955H23.9483V15.2097C23.9475 15.1677 23.955 15.126 23.9705 15.0869C23.986 15.0479 24.0092 15.0123 24.0386 14.9823C24.068 14.9523 24.1031 14.9285 24.1419 14.9122C24.1806 14.896 24.2222 14.8876 24.2642 14.8876H25.0509C25.0932 14.8876 25.1351 14.8959 25.1741 14.9121C25.2132 14.9283 25.2487 14.952 25.2786 14.9819C25.3086 15.0119 25.3323 15.0474 25.3485 15.0864C25.3647 15.1255 25.373 15.1674 25.373 15.2097V15.3955H26.1597V15.2593V15.0053L25.6765 8.13578C25.6225 7.34295 25.3954 6.57158 25.0112 5.87596C24.627 5.18034 24.0951 4.57736 23.4527 4.10946L23.3784 4.05371H17.0912L17.0168 4.10946C16.3799 4.57596 15.8521 5.17555 15.4702 5.86657C15.0884 6.55759 14.8615 7.32347 14.8055 8.111L14.3285 14.9867V15.2097V15.3955H15.0966Z" fill="#00212B"/>
<path d="M22.0094 3.26074H18.4601V4.84649H22.0094V3.26074Z" fill="#004358"/>
<path d="M17.6487 7.46051C17.6487 9.51084 15.5983 13.0354 14.3285 14.9866L14.8055 8.11092C14.8615 7.32339 15.0884 6.55751 15.4702 5.86649C15.8521 5.17547 16.3799 4.57588 17.0168 4.10938C17.4481 5.17331 17.6629 6.31257 17.6487 7.46051Z" fill="#002E3D"/>
<path d="M26.1473 14.9804C24.8712 13.0044 22.8209 9.50464 22.8209 7.46051C22.8027 6.31341 23.0133 5.17418 23.4403 4.10938C24.0773 4.57588 24.6051 5.17547 24.9869 5.86649C25.3688 6.55751 25.5957 7.32339 25.6517 8.11092L26.1473 14.9804Z" fill="#002E3D"/>
<path d="M23.9607 35.4531H16.5151V41.6722H23.9607V35.4531Z" fill="#BA5500"/>
<path d="M22.8953 39.1821H17.5496C17.2805 39.1822 17.022 39.0775 16.8289 38.8902C16.6357 38.7028 16.5232 38.4476 16.5151 38.1786C16.5151 37.9037 16.6239 37.64 16.8177 37.445C17.0116 37.25 17.2747 37.1396 17.5496 37.138H22.8953C23.0337 37.1347 23.1714 37.1592 23.3002 37.2101C23.429 37.261 23.5463 37.3372 23.6451 37.4342C23.7438 37.5313 23.8221 37.6472 23.8753 37.7751C23.9285 37.9029 23.9554 38.0402 23.9545 38.1786C23.9464 38.4519 23.8305 38.7109 23.632 38.8989C23.4335 39.087 23.1686 39.1888 22.8953 39.1821Z" fill="#004358"/>
<path d="M22.8953 27.7226H17.5496C17.4137 27.7226 17.2792 27.6958 17.1537 27.6438C17.0282 27.5918 16.9142 27.5156 16.8181 27.4196C16.7221 27.3235 16.6459 27.2095 16.5939 27.084C16.5419 26.9585 16.5151 26.824 16.5151 26.6881C16.5151 26.4132 16.6239 26.1494 16.8177 25.9544C17.0116 25.7595 17.2747 25.6491 17.5496 25.6475H22.8953C23.0317 25.6475 23.1667 25.6744 23.2926 25.7268C23.4185 25.7792 23.5328 25.8559 23.629 25.9526C23.7251 26.0494 23.8012 26.1641 23.8528 26.2903C23.9044 26.4166 23.9306 26.5517 23.9298 26.6881C23.9298 26.824 23.903 26.9585 23.851 27.084C23.799 27.2095 23.7228 27.3235 23.6268 27.4196C23.5307 27.5156 23.4167 27.5918 23.2912 27.6438C23.1657 27.6958 23.0311 27.7226 22.8953 27.7226Z" fill="#004358"/>
<path d="M22.7342 26.688H17.7354V40.4518H22.7342V26.688Z" fill="#FD7400"/>
<path d="M21.8794 29.1843C21.8794 28.2743 21.1417 27.5366 20.2317 27.5366C19.3217 27.5366 18.584 28.2743 18.584 29.1843V37.9555C18.584 38.8655 19.3217 39.6032 20.2317 39.6032C21.1417 39.6032 21.8794 38.8655 21.8794 37.9555V29.1843Z" fill="#E36800"/>
<g style="mix-blend-mode:multiply" opacity="0.3">
<path d="M22.0342 28.3976V27.1401H20.3431V28.3976H20.7767V33.4831H20.3431V40.4518H22.0342V33.4831H21.6006V28.3976H22.0342Z" fill="#583200"/>
</g>
<path d="M21.0803 27.1401H19.3893V28.3976H21.0803V27.1401Z" fill="#004358"/>
<path d="M20.6467 28.3975H19.8229V34.8891H20.6467V28.3975Z" fill="#F2F2F2"/>
<path d="M21.0803 33.4829H19.3893V39.9994H21.0803V33.4829Z" fill="#004358"/>
<path d="M21.8422 39.9995H18.6335V40.9101H21.8422V39.9995Z" fill="#004358"/>
<path d="M22.8953 3.07492H17.5496C17.2747 3.07329 17.0116 2.96292 16.8177 2.76794C16.6239 2.57296 16.5151 2.3092 16.5151 2.03427C16.5184 1.76207 16.6288 1.50213 16.8225 1.3108C17.0161 1.11947 17.2774 1.01219 17.5496 1.01221H22.8953C23.0311 1.01221 23.1657 1.03896 23.2912 1.09095C23.4167 1.14294 23.5307 1.21913 23.6268 1.31519C23.7228 1.41125 23.799 1.52529 23.851 1.65079C23.903 1.7763 23.9298 1.91081 23.9298 2.04666C23.9281 2.31994 23.8184 2.58147 23.6246 2.77413C23.4308 2.96679 23.1686 3.07493 22.8953 3.07492Z" fill="#004358"/>
<path d="M17.0787 6.33332H23.3908L22.7342 1H17.7353L17.0787 6.33332Z" fill="#E36800"/>
<path d="M22.7342 1H17.7354V13.1966H22.7342V1Z" fill="#FD7400"/>
<path d="M21.8794 3.49633C21.8794 2.58633 21.1417 1.84863 20.2317 1.84863C19.3217 1.84863 18.584 2.58633 18.584 3.49633V10.6941C18.584 11.6041 19.3217 12.3418 20.2317 12.3418C21.1417 12.3418 21.8794 11.6041 21.8794 10.6941V3.49633Z" fill="#E36800"/>
<path d="M22.7342 13.1968H17.7354V26.688H22.7342V13.1968Z" fill="#FFE11A"/>
<path d="M21.8794 15.6931C21.8794 14.7831 21.1417 14.0454 20.2317 14.0454C19.3217 14.0454 18.584 14.7831 18.584 15.6931V24.1855C18.584 25.0955 19.3217 25.8332 20.2317 25.8332C21.1417 25.8332 21.8794 25.0955 21.8794 24.1855V15.6931Z" fill="#FFC000"/>
<path d="M21.8422 26.2295H18.6335V27.1401H21.8422V26.2295Z" fill="#004358"/>
<g style="mix-blend-mode:multiply" opacity="0.3">
<path d="M19.5441 2.19551H19.8166V7.0147H19.5441V13.1966H20.5971V7.0147H20.3308V2.19551H20.5971V1H19.5441V2.19551Z" fill="#583200"/>
<path d="M21.8917 2.72202V1H20.8386V2.72202H21.105V7.0147H20.8386V13.1966H21.8917V7.0147H21.6191V2.72202H21.8917Z" fill="#583200"/>
</g>
<path d="M20.1264 1.45215H19.0734V2.56094H20.1264V1.45215Z" fill="#004358"/>
<path d="M19.8538 2.56104H19.3397V8.27221H19.8538V2.56104Z" fill="#F2F2F2"/>
<g style="mix-blend-mode:multiply" opacity="0.3">
<path d="M21.8422 19.6079V13.1968H20.5352V19.6079H20.8697V24.6191H20.5352V26.304H21.8422V24.6191H21.5077V19.6079H21.8422Z" fill="#583200"/>
</g>
<path d="M20.1264 7.0332H19.0734V12.763H20.1264V7.0332Z" fill="#004358"/>
<path d="M21.4149 1.45215H20.3618V2.56094H21.4149V1.45215Z" fill="#004358"/>
<path d="M21.1484 2.56104H20.6343V8.27221H21.1484V2.56104Z" fill="#F2F2F2"/>
<path d="M21.4149 7.0332H20.3618V12.763H21.4149V7.0332Z" fill="#004358"/>
<path d="M20.8883 24.9722H19.5813V26.2296H20.8883V24.9722Z" fill="#004358"/>
<path d="M20.5538 18.4805H19.9158V24.9721H20.5538V18.4805Z" fill="#F2F2F2"/>
<path d="M20.8883 13.3765H19.5813V19.8929H20.8883V13.3765Z" fill="#004358"/>
<path d="M21.8794 12.7383H18.584V13.6488H21.8794V12.7383Z" fill="#004358"/>
<path d="M21.8918 1H18.584V1.45219H21.8918V1Z" fill="#004358"/>
<path d="M14.3147 67.5278H12.9806V70.3414H14.3147V67.5278Z" fill="#00659C"/>
<path d="M13.978 70.3418H13.3241V76.986H13.978V70.3418Z" fill="#F2F2F2"/>
<path d="M14.3147 75.5459H12.9806V82.2165H14.3147V75.5459Z" fill="#00659C"/>
<path d="M28.0192 67.5278H26.6851V70.3414H28.0192V67.5278Z" fill="#00659C"/>
<path d="M27.6758 70.3418H27.022V76.986H27.6758V70.3418Z" fill="#F2F2F2"/>
<path d="M28.0192 75.5459H26.6851V82.2165H28.0192V75.5459Z" fill="#00659C"/>
<path d="M16.2367 27.6694L13.7006 29.9282V31.2821L16.2367 29.0168V27.6694Z" fill="#FFBA1A"/>
<path d="M16.2367 24.8296L13.7006 27.095V28.4423L16.2367 26.1835V24.8296Z" fill="#FFBA1A"/>
<path d="M16.2367 21.9961L13.7006 24.2549V25.6088L16.2367 23.3434V21.9961Z" fill="#FFBA1A"/>
<path d="M24.7632 27.6694L27.3059 29.9282V31.2821L24.7632 29.0168V27.6694Z" fill="#FFBA1A"/>
<path d="M24.7632 24.8296L27.3059 27.095V28.4423L24.7632 26.1835V24.8296Z" fill="#FFBA1A"/>
<path d="M24.7632 21.9961L27.3059 24.2549V25.6088L24.7632 23.3434V21.9961Z" fill="#FFBA1A"/>
<path d="M10.1539 58.6514L8.83301 60.0846V59.1666L10.1539 57.7334V58.6514Z" fill="#FFBA1A"/>
<path d="M10.1539 60.8441L8.83301 62.2773V61.3526L10.1539 59.9194V60.8441Z" fill="#FFBA1A"/>
<path d="M10.1539 63.0369L8.83301 64.4701V63.5455L10.1539 62.1123V63.0369Z" fill="#FFBA1A"/>
<path d="M10.1539 65.2232L8.83301 66.6564V65.7384L10.1539 64.3052V65.2232Z" fill="#FFBA1A"/>
<path d="M10.1539 67.4156L8.83301 68.8488V67.9308L10.1539 66.4976V67.4156Z" fill="#FFBA1A"/>
<path d="M10.1539 69.6082L8.83301 71.0414V70.1168L10.1539 68.6836V69.6082Z" fill="#FFBA1A"/>
<path d="M10.1539 71.8011L8.83301 73.2343V72.3097L10.1539 70.8765V71.8011Z" fill="#FFBA1A"/>
<path d="M10.1539 73.9874L8.83301 75.4206V74.5025L10.1539 73.0693V73.9874Z" fill="#FFBA1A"/>
<path d="M30.8459 58.6514L32.1735 60.0846V59.1666L30.8459 57.7334V58.6514Z" fill="#FFBA1A"/>
<path d="M30.8459 60.8441L32.1735 62.2773V61.3526L30.8459 59.9194V60.8441Z" fill="#FFBA1A"/>
<path d="M30.8459 63.0369L32.1735 64.4701V63.5455L30.8459 62.1123V63.0369Z" fill="#FFBA1A"/>
<path d="M30.8459 65.2232L32.1735 66.6564V65.7384L30.8459 64.3052V65.2232Z" fill="#FFBA1A"/>
<path d="M30.8459 67.4156L32.1735 68.8488V67.9308L30.8459 66.4976V67.4156Z" fill="#FFBA1A"/>
<path d="M30.8459 69.6082L32.1735 71.0414V70.1168L30.8459 68.6836V69.6082Z" fill="#FFBA1A"/>
<path d="M30.8459 71.8011L32.1735 73.2343V72.3097L30.8459 70.8765V71.8011Z" fill="#FFBA1A"/>
<path d="M30.8459 73.9874L32.1735 75.4206V74.5025L30.8459 73.0693V73.9874Z" fill="#FFBA1A"/>
<path d="M24.7632 27.6694L27.3059 29.9282V31.2821L24.7632 29.0168V27.6694Z" fill="#FFE11A"/>
<path d="M24.7632 24.8296L27.3059 27.095V28.4423L24.7632 26.1835V24.8296Z" fill="#FFE11A"/>
<path d="M24.7632 21.9961L27.3059 24.2549V25.6088L24.7632 23.3434V21.9961Z" fill="#FFE11A"/>
<path d="M16.2367 27.6694L13.7006 29.9282V31.2821L16.2367 29.0168V27.6694Z" fill="#FFE11A"/>
<path d="M16.2367 24.8296L13.7006 27.095V28.4423L16.2367 26.1835V24.8296Z" fill="#FFE11A"/>
<path d="M16.2367 21.9961L13.7006 24.2549V25.6088L16.2367 23.3434V21.9961Z" fill="#FFE11A"/>
<g style="mix-blend-mode:multiply" opacity="0.3">
<path d="M30.4101 34.5581V55.2634H26.3285V34.3071C27.689 34.3666 29.0562 34.4524 30.4101 34.5581Z" fill="#583200"/>
</g>
</g>
<defs>
<filter id="filter0_d_30_6793" x="0" y="0" width="46.9801" height="110.822" filterUnits="userSpaceOnUse" color-interpolation-filters="sRGB">
<feFlood flood-opacity="0" result="BackgroundImageFix"/>
<feColorMatrix in="SourceAlpha" type="matrix" values="0 0 0 0 0 0 0 0 0 0 0 0 0 0 0 0 0 0 127 0" result="hardAlpha"/>
<feOffset dx="3" dy="3"/>
<feGaussianBlur stdDeviation="2"/>
<feComposite in2="hardAlpha" operator="out"/>
<feColorMatrix type="matrix" values="0 0 0 0 0 0 0 0 0 0 0 0 0 0 0 0 0 0 0.25 0"/>
<feBlend mode="normal" in2="BackgroundImageFix" result="effect1_dropShadow_30_6793"/>
<feBlend mode="normal" in="SourceGraphic" in2="effect1_dropShadow_30_6793" result="shape"/>
</filter>
</defs>
</svg>
