<svg width="22" height="21" viewBox="0 0 22 21" fill="none" xmlns="http://www.w3.org/2000/svg">
<path d="M4.39369 14.1542C4.11077 14.3487 3.82078 14.3626 3.52372 14.1959C3.22666 14.0292 3.07812 13.7792 3.07812 13.4459V6.57091C3.07812 6.23757 3.22666 5.99091 3.52372 5.83091C3.82078 5.67146 4.11077 5.68202 4.39369 5.86257L9.65594 9.32091C9.91057 9.48757 10.0379 9.71674 10.0379 10.0084C10.0379 10.3001 9.91057 10.5292 9.65594 10.6959L4.39369 14.1542ZM12.8812 14.1542C12.5983 14.3487 12.3083 14.3626 12.0112 14.1959C11.7142 14.0292 11.5656 13.7792 11.5656 13.4459V6.57091C11.5656 6.23757 11.7142 5.99091 12.0112 5.83091C12.3083 5.67146 12.5983 5.68202 12.8812 5.86257L18.1434 9.32091C18.3981 9.48757 18.5254 9.71674 18.5254 10.0084C18.5254 10.3001 18.3981 10.5292 18.1434 10.6959L12.8812 14.1542Z" fill="#8F4300" fill-opacity="1"/>
</svg>
