<svg width="22" height="21" viewBox="0 0 22 21" fill="none" xmlns="http://www.w3.org/2000/svg">
<path d="M17.6219 14.1542C17.9049 14.3487 18.1948 14.3626 18.4919 14.1959C18.789 14.0292 18.9375 13.7792 18.9375 13.4459L18.9375 6.57091C18.9375 6.23757 18.789 5.99091 18.4919 5.83091C18.1948 5.67146 17.9049 5.68202 17.6219 5.86257L12.3597 9.32091C12.1051 9.48757 11.9777 9.71674 11.9777 10.0084C11.9777 10.3001 12.1051 10.5292 12.3597 10.6959L17.6219 14.1542ZM9.13443 14.1542C9.41735 14.3487 9.70734 14.3626 10.0044 14.1959C10.3015 14.0292 10.45 13.7792 10.45 13.4459L10.45 6.57091C10.45 6.23757 10.3015 5.99091 10.0044 5.83091C9.70734 5.67146 9.41735 5.68202 9.13443 5.86257L3.87218 9.32091C3.61755 9.48757 3.49024 9.71674 3.49024 10.0084C3.49024 10.3001 3.61755 10.5292 3.87218 10.6959L9.13443 14.1542Z" fill="#8F4300" fill-opacity="1"/>
</svg>
