<svg width="21" height="21" viewBox="0 0 21 21" fill="none" xmlns="http://www.w3.org/2000/svg">
<path d="M16.2449 6.01797C16.4282 6.01797 16.5953 6.08097 16.7266 6.18597C17.5104 6.83468 18.0765 7.70052 18.3509 8.67024C18.6253 9.63996 18.5953 10.6684 18.2647 11.6211C17.9342 12.5738 17.3185 13.4064 16.4982 14.0099C15.6779 14.6135 14.6912 14.9599 13.6671 15.004L13.4471 15.008H8.92187L10.1644 16.228C10.2937 16.3551 10.3721 16.5235 10.3856 16.7026C10.399 16.8817 10.3466 17.0596 10.2378 17.204L10.1644 17.288C10.035 17.4152 9.86338 17.4926 9.68073 17.506C9.49807 17.5194 9.31659 17.468 9.16937 17.361L9.08382 17.288L6.53756 14.788C6.40835 14.6609 6.32988 14.4924 6.31642 14.3133C6.30297 14.1342 6.35541 13.9563 6.46423 13.812L6.53756 13.728L9.08382 11.228C9.22029 11.095 9.40282 11.0175 9.59496 11.0108C9.7871 11.0042 9.97473 11.0689 10.1204 11.1921C10.2661 11.3153 10.3591 11.4879 10.3808 11.6755C10.4026 11.863 10.3515 12.0518 10.2378 12.204L10.1644 12.288L8.92187 13.508H13.4461C14.3577 13.508 15.2347 13.1652 15.8968 12.5499C16.5589 11.9346 16.9557 11.0937 17.0057 10.2L17.0108 10.008C17.0108 8.92697 16.5117 7.95997 15.7275 7.31797C15.615 7.21559 15.5365 7.08233 15.5023 6.93555C15.468 6.78877 15.4795 6.63525 15.5353 6.49499C15.5912 6.35473 15.6887 6.23422 15.8153 6.14914C15.9418 6.06406 16.0915 6.01835 16.2449 6.01797ZM10.6126 2.72797C10.742 2.60069 10.9137 2.5233 11.0963 2.5099C11.279 2.4965 11.4604 2.54798 11.6077 2.65497L11.6932 2.72797L14.2395 5.22797L14.3128 5.31197C14.4089 5.43929 14.4614 5.59322 14.4629 5.75167C14.4643 5.91012 14.4147 6.06496 14.3209 6.19397L14.2395 6.28797L11.6932 8.78797L11.6077 8.86097C11.4778 8.95539 11.3208 9.00694 11.1592 9.00819C10.9976 9.00945 10.8397 8.96036 10.7083 8.86797L10.6126 8.78797L10.5393 8.70397C10.4432 8.57665 10.3906 8.42272 10.3892 8.26427C10.3877 8.10582 10.4374 7.95098 10.5311 7.82197L10.6126 7.72797L11.8552 6.50797H7.33301C6.42121 6.50764 5.54394 6.85038 4.88164 7.46568C4.21934 8.08099 3.82235 8.92208 3.77233 9.81597L3.76622 10.008C3.76622 11.091 4.26733 12.059 5.05463 12.701C5.1939 12.8374 5.27422 13.0212 5.27885 13.2143C5.28348 13.4074 5.21207 13.5948 5.07948 13.7375C4.9469 13.8802 4.76337 13.9671 4.56711 13.9803C4.37086 13.9934 4.17701 13.9317 4.02594 13.808C3.24901 13.156 2.68987 12.2895 2.42124 11.3213C2.15261 10.3531 2.18691 9.32797 2.51968 8.37916C2.85246 7.43036 3.46831 6.60182 4.28715 6.00129C5.10599 5.40077 6.08992 5.05605 7.11098 5.01197L7.32996 5.00797H11.8531L10.6126 3.78797L10.5393 3.70397C10.4304 3.55962 10.378 3.38171 10.3914 3.20261C10.4049 3.0235 10.4834 2.85508 10.6126 2.72797Z" fill="#8F4300" fill-opacity="1"/>
</svg>
