<svg width="49" height="89" viewBox="0 0 49 89" fill="none" xmlns="http://www.w3.org/2000/svg">
<g filter="url(#filter0_d_16_25877)">
<path d="M11.1388 38.5218C9.63363 38.2507 8.09221 38.2507 6.58708 38.5218C6.35093 38.5669 6.13784 38.6929 5.98442 38.878C5.83099 39.0631 5.74678 39.2959 5.74622 39.5363V46.6314C5.74543 46.8722 5.82917 47.1056 5.98283 47.291C6.13648 47.4764 6.35033 47.602 6.58708 47.646C8.09221 47.917 9.63363 47.917 11.1388 47.646C11.3755 47.602 11.5894 47.4764 11.743 47.291C11.8967 47.1056 11.9804 46.8722 11.9796 46.6314V39.5363C11.979 39.2959 11.8948 39.0631 11.7414 38.878C11.588 38.6929 11.3749 38.5669 11.1388 38.5218Z" fill="#D6D6D6"/>
<path d="M11.375 36.7566C10.5895 36.3859 9.73159 36.1936 8.86294 36.1936C7.99428 36.1936 7.1364 36.3859 6.35083 36.7566V49.411C7.13545 49.7851 7.9937 49.9792 8.86294 49.9792C9.73217 49.9792 10.5904 49.7851 11.375 49.411V36.7566Z" fill="#004358"/>
<path d="M9.76286 37.0207C9.16582 36.9373 8.56008 36.9373 7.96304 37.0207C7.89355 36.7775 7.82406 36.5412 7.74762 36.3258C7.26706 36.4236 6.80031 36.58 6.35779 36.7914V36.6037C6.84525 36.3635 7.36485 36.195 7.9005 36.1034L8.10898 36.7983C8.61434 36.7358 9.12548 36.7358 9.63085 36.7983L9.83931 36.1034C10.375 36.195 10.8946 36.3635 11.382 36.6037V36.7914C10.9399 36.5789 10.473 36.4225 9.99219 36.3258C9.9088 36.5412 9.83235 36.7775 9.76286 37.0207Z" fill="#003242"/>
<path d="M9.76286 38.209C9.16493 38.1395 8.56097 38.1395 7.96304 38.209C7.89355 37.9658 7.82406 37.7295 7.74762 37.5141C7.2726 37.5907 6.80682 37.7165 6.35779 37.8893V37.66C6.85344 37.4611 7.3715 37.3234 7.9005 37.25L8.10898 37.9449C8.61511 37.8963 9.12472 37.8963 9.63085 37.9449L9.83931 37.25C10.3683 37.3234 10.8864 37.4611 11.382 37.66V37.8476C10.9334 37.6736 10.4675 37.5478 9.99219 37.4724C9.9088 37.7295 9.83235 37.9658 9.76286 38.209Z" fill="#003242"/>
<path d="M9.76286 39.3973C9.1639 39.3486 8.56199 39.3486 7.96304 39.3973C7.89355 39.1541 7.82406 38.9108 7.74762 38.7024C7.27677 38.7628 6.81186 38.8627 6.35779 39.0012V38.8135C6.85939 38.6518 7.37638 38.5423 7.9005 38.4869L8.10898 39.1819C8.61541 39.1402 9.12442 39.1402 9.63085 39.1819C9.70034 38.9317 9.76982 38.7 9.83931 38.4869C10.3634 38.5423 10.8804 38.6518 11.382 38.8135V39.0012C10.9281 38.8622 10.4631 38.7622 9.99219 38.7024C9.9088 38.9108 9.83235 39.1541 9.76286 39.3973Z" fill="#003242"/>
<path d="M9.76286 40.5925C9.16342 40.5578 8.56248 40.5578 7.96304 40.5925C7.89355 40.3424 7.82406 40.0992 7.74762 39.8559C7.28015 39.901 6.81597 39.9753 6.35779 40.0783V39.8907C6.86495 39.7698 7.38074 39.6884 7.9005 39.6475L8.10898 40.3424C8.61395 40.3424 9.12124 40.3424 9.63085 40.3424L9.83931 39.6475C10.3591 39.6884 10.8749 39.7698 11.382 39.8907V40.0783C10.9239 39.9747 10.4597 39.9005 9.99219 39.8559C9.9088 40.0992 9.83235 40.3424 9.76286 40.5925Z" fill="#003242"/>
<path d="M9.76286 41.7809C9.16523 41.7809 8.56066 41.7809 7.96304 41.7809C7.89355 41.5307 7.82406 41.2875 7.74762 41.0443C7.26812 41.0443 6.80253 41.1138 6.35779 41.1833V40.9956C6.86902 40.9165 7.38391 40.8632 7.9005 40.8358L8.10898 41.5724C8.61395 41.5724 9.12124 41.5724 9.63085 41.5724L9.83931 40.8358C10.3559 40.8632 10.8708 40.9165 11.382 40.9956V41.1833C10.9373 41.1138 10.4647 41.0721 9.99219 41.0443C9.9088 41.2875 9.83235 41.5307 9.76286 41.7809Z" fill="#003242"/>
<path d="M9.76283 42.9691H7.94912C7.87963 42.719 7.81014 42.4688 7.7337 42.2256C7.25421 42.2256 6.78862 42.2256 6.34387 42.2812V42.0935C6.83726 42.0935 7.35845 42.0379 7.88658 42.024L8.09505 42.7676H9.61691L9.8254 42.024C10.3535 42.024 10.8747 42.0588 11.3681 42.0935V42.2812C10.9234 42.2812 10.4508 42.2395 9.97828 42.2256C9.90879 42.4688 9.83233 42.719 9.76283 42.9691Z" fill="#003242"/>
<path d="M9.76286 44.1575C9.16523 44.1575 8.56066 44.1575 7.96304 44.1575C7.89355 43.9073 7.82406 43.6572 7.74762 43.407C7.28434 43.407 6.82106 43.407 6.35779 43.407V43.2194H7.9005L8.10898 43.9768C8.61395 43.9768 9.12124 43.9768 9.63085 43.9768L9.83931 43.2194H11.382V43.407C10.9373 43.407 10.4647 43.407 9.99219 43.407C9.9088 43.6572 9.83235 43.9143 9.76286 44.1575Z" fill="#003242"/>
<path d="M9.76286 45.3458C9.16342 45.3806 8.56248 45.3806 7.96304 45.3458C7.89355 45.0957 7.82406 44.8455 7.74762 44.5953C7.28434 44.5953 6.82106 44.5606 6.35779 44.4911V44.3035C6.85118 44.3521 7.37236 44.3799 7.9005 44.3938L8.10898 45.1513C8.61395 45.1513 9.12124 45.1513 9.63085 45.1513L9.83931 44.3938C10.3674 44.3938 10.8886 44.3521 11.382 44.3035V44.4911C10.9373 44.5397 10.4647 44.5745 9.99219 44.5953C9.9088 44.8455 9.83235 45.0957 9.76286 45.3458Z" fill="#003242"/>
<path d="M9.76286 46.541C9.16364 46.5827 8.56225 46.5827 7.96304 46.541C7.89355 46.2839 7.82406 46.0268 7.74762 45.7766C7.28138 45.7419 6.81741 45.6816 6.35779 45.596V45.4083C6.86829 45.4956 7.38337 45.5536 7.9005 45.5821L8.10898 46.3465C8.61568 46.3812 9.12415 46.3812 9.63085 46.3465L9.83931 45.5821C10.3564 45.5536 10.8715 45.4956 11.382 45.4083V45.596C10.9225 45.682 10.4585 45.7423 9.99219 45.7766C9.9088 45.999 9.83235 46.2839 9.76286 46.541Z" fill="#003242"/>
<path d="M9.76286 47.7293C9.16455 47.7918 8.56135 47.7918 7.96304 47.7293C7.89355 47.4722 7.82406 47.215 7.74762 46.9579C7.27774 46.9091 6.81282 46.8208 6.35779 46.6939V46.5132C6.86458 46.6388 7.38037 46.7247 7.9005 46.7703L8.10898 47.5417C8.61541 47.5834 9.12442 47.5834 9.63085 47.5417L9.83931 46.7703C10.3594 46.7247 10.8752 46.6388 11.382 46.5132V46.6939C10.9271 46.8214 10.4622 46.9098 9.99219 46.9579C9.9088 47.215 9.83235 47.4722 9.76286 47.7293Z" fill="#003242"/>
<path d="M9.76286 48.9176C9.16582 49.001 8.56008 49.001 7.96304 48.9176C7.89355 48.6605 7.82406 48.4034 7.74762 48.1463C7.27411 48.0761 6.80861 47.9597 6.35779 47.7988V47.6112C6.85771 47.7833 7.37506 47.8998 7.9005 47.9587L8.10898 48.737C8.61511 48.7856 9.12472 48.7856 9.63085 48.737L9.83931 47.9587C10.3647 47.8998 10.8821 47.7833 11.382 47.6112V47.7988C10.9314 47.9605 10.4659 48.0769 9.99219 48.1463C9.9088 48.4034 9.83235 48.6605 9.76286 48.9176Z" fill="#003242"/>
<path d="M9.76286 50.1059C9.1669 50.2037 8.559 50.2037 7.96304 50.1059C7.89355 49.8488 7.82406 49.5847 7.74762 49.3276C7.26944 49.2408 6.80302 49.0985 6.35779 48.9037V48.7161C6.85156 48.9248 7.37 49.0696 7.9005 49.1469L8.10898 49.9252C8.61387 49.995 9.12596 49.995 9.63085 49.9252L9.83931 49.1469C10.3698 49.0696 10.8882 48.9248 11.382 48.7161V48.9037C10.9372 49.0997 10.4707 49.242 9.99219 49.3276L9.76286 50.1059Z" fill="#003242"/>
<g style="mix-blend-mode:multiply" opacity="0.5">
<path d="M11.375 37.8198V36.5829C10.8876 36.3427 10.368 36.1741 9.83233 36.0825L9.77675 36.2632C9.17142 36.166 8.55445 36.166 7.94912 36.2632L7.89354 36.0825C7.35789 36.1741 6.83829 36.3427 6.35083 36.5829V37.8198C7.96594 37.1878 9.75993 37.1878 11.375 37.8198Z" fill="#003242"/>
</g>
<g style="mix-blend-mode:multiply" opacity="0.5">
<path d="M6.35083 46.694V49.4319C6.84455 49.6657 7.36846 49.8294 7.90743 49.9184L7.96301 50.1268C8.55897 50.2246 9.16688 50.2246 9.76284 50.1268L9.8254 49.9184C10.3619 49.8284 10.8834 49.6647 11.375 49.4319V46.694C9.72803 47.125 7.99784 47.125 6.35083 46.694Z" fill="#003242"/>
</g>
<path d="M11.1388 69.5565C9.63363 69.2855 8.09221 69.2855 6.58708 69.5565C6.35033 69.6005 6.13648 69.7261 5.98283 69.9115C5.82917 70.0969 5.74543 70.3303 5.74622 70.5711V77.6662C5.75017 77.8991 5.8326 78.124 5.98014 78.3043C6.12767 78.4846 6.33172 78.6099 6.55928 78.6599C8.06507 78.9234 9.60517 78.9234 11.111 78.6599C11.3471 78.6147 11.5602 78.4888 11.7136 78.3037C11.867 78.1185 11.9513 77.8858 11.9518 77.6453V70.5711C11.9539 70.3342 11.8741 70.1039 11.7259 69.9191C11.5778 69.7342 11.3704 69.6062 11.1388 69.5565Z" fill="#D6D6D6"/>
<path d="M11.375 67.7915C10.5904 67.4174 9.73217 67.2233 8.86294 67.2233C7.9937 67.2233 7.13545 67.4174 6.35083 67.7915V80.4459C7.1364 80.8166 7.99428 81.0089 8.86294 81.0089C9.73159 81.0089 10.5895 80.8166 11.375 80.4459V67.7915Z" fill="#004358"/>
<path d="M9.76286 68.0486C9.16535 67.9722 8.56055 67.9722 7.96304 68.0486C7.89355 67.8124 7.82406 67.5761 7.74762 67.3537C7.26647 67.4459 6.79931 67.6001 6.35779 67.8124V67.6247C6.84525 67.3845 7.36485 67.216 7.9005 67.1244L8.10898 67.8193C8.61434 67.7568 9.12548 67.7568 9.63085 67.8193L9.83931 67.1244C10.375 67.216 10.8946 67.3845 11.382 67.6247V67.8124C10.941 67.5989 10.4737 67.4447 9.99219 67.3537C9.9088 67.5761 9.83235 67.8124 9.76286 68.0486Z" fill="#003242"/>
<path d="M9.76286 69.2438C9.16493 69.1743 8.56097 69.1743 7.96304 69.2438C7.89355 69.0006 7.82406 68.7574 7.74762 68.5489C7.27234 68.6278 6.80656 68.7559 6.35779 68.9311V68.7435C6.85318 68.5423 7.37123 68.4023 7.9005 68.3265L8.10898 69.0215C8.61511 68.9728 9.12472 68.9728 9.63085 69.0215L9.83931 68.3265C10.3686 68.4023 10.8866 68.5423 11.382 68.7435V68.9311C10.9336 68.7549 10.4677 68.6267 9.99219 68.5489C9.9088 68.7574 9.83235 69.0006 9.76286 69.2438Z" fill="#003242"/>
<path d="M9.76286 70.4322C9.1639 70.3835 8.56199 70.3835 7.96304 70.4322C7.89355 70.189 7.82406 69.9457 7.74762 69.7373C7.27621 69.7944 6.81101 69.8944 6.35779 70.0361V69.8485C6.85998 69.6875 7.37665 69.5757 7.9005 69.5149L8.10898 70.2098C8.61568 70.175 9.12415 70.175 9.63085 70.2098L9.83931 69.5149C10.3632 69.5757 10.8798 69.6875 11.382 69.8485V70.0361C10.929 69.8935 10.4637 69.7935 9.99219 69.7373C9.9088 69.9457 9.83235 70.189 9.76286 70.4322Z" fill="#003242"/>
<path d="M9.76286 71.6205C9.16342 71.5858 8.56248 71.5858 7.96304 71.6205C7.89355 71.3773 7.82406 71.1341 7.74762 70.8908C7.2803 70.9336 6.81612 71.0056 6.35779 71.1063V70.9256C6.86476 70.8023 7.38055 70.7187 7.9005 70.6754L8.10898 71.412C8.61589 71.3842 9.12394 71.3842 9.63085 71.412L9.83931 70.6754C10.3593 70.7187 10.875 70.8023 11.382 70.9256V71.1063C10.9238 71.0051 10.4596 70.9331 9.99219 70.8908C9.9088 71.1341 9.83235 71.3773 9.76286 71.6205Z" fill="#003242"/>
<path d="M9.76286 72.8087C9.16523 72.8087 8.56066 72.8087 7.96304 72.8087C7.89355 72.5655 7.82406 72.3153 7.74762 72.0721C7.26812 72.0721 6.80253 72.1486 6.35779 72.2111V72.0235C6.86902 71.9444 7.38391 71.891 7.9005 71.8636L8.10898 72.6072C8.61395 72.6072 9.12124 72.6072 9.63085 72.6072L9.83931 71.8636C10.3559 71.891 10.8708 71.9444 11.382 72.0235V72.2111C10.9373 72.1486 10.4647 72.0999 9.99219 72.0721L9.76286 72.8087Z" fill="#003242"/>
<path d="M9.76286 74.004C9.16523 74.004 8.56066 74.004 7.96304 74.004C7.89355 73.7538 7.82406 73.5037 7.74762 73.2604C7.26812 73.2604 6.80253 73.2604 6.35779 73.316V73.1006C6.85118 73.1006 7.37236 73.0381 7.9005 73.0242L8.10898 73.7677H9.63085L9.83931 73.0242C10.3674 73.0242 10.8886 73.0659 11.382 73.1006V73.2882C10.9373 73.2882 10.4647 73.2396 9.99219 73.2326C9.9088 73.5037 9.83235 73.7538 9.76286 74.004Z" fill="#003242"/>
<path d="M9.76286 75.1853C9.16523 75.1853 8.56066 75.1853 7.96304 75.1853C7.89355 74.9352 7.82406 74.685 7.74762 74.4348H6.35779V74.2472H7.9005L8.10898 74.9977H9.63085L9.83931 74.2472H11.382V74.4348H9.99219C9.9088 74.6919 9.83235 74.9421 9.76286 75.1853Z" fill="#003242"/>
<path d="M9.76286 76.3806C9.16342 76.4154 8.56248 76.4154 7.96304 76.3806C7.89355 76.1305 7.82406 75.8733 7.74762 75.6232C7.26812 75.6232 6.80253 75.5676 6.35779 75.5259V75.3383C6.85118 75.38 7.37236 75.4147 7.9005 75.4286L8.10898 76.1861C8.61395 76.1861 9.12124 76.1861 9.63085 76.1861L9.83931 75.4286C10.3674 75.4286 10.8886 75.38 11.382 75.3383V75.5259C10.9373 75.5676 10.4647 75.6023 9.99219 75.6232L9.76286 76.3806Z" fill="#003242"/>
<path d="M9.76286 77.5689C9.1639 77.6175 8.56199 77.6175 7.96304 77.5689C7.89355 77.3187 7.82406 77.0616 7.74762 76.8114C7.28125 76.7744 6.81727 76.7118 6.35779 76.6238V76.4362C6.86816 76.5258 7.38323 76.5861 7.9005 76.6168L8.10898 77.3812C8.61589 77.409 9.12394 77.409 9.63085 77.3812L9.83931 76.6168C10.3566 76.5861 10.8717 76.5258 11.382 76.4362V76.6238C10.9226 76.7123 10.4586 76.7749 9.99219 76.8114L9.76286 77.5689Z" fill="#003242"/>
<path d="M9.76286 78.7642C9.16455 78.8267 8.56135 78.8267 7.96304 78.7642C7.89355 78.5071 7.82406 78.25 7.74762 77.9928C7.27824 77.9407 6.81359 77.8524 6.35779 77.7288V77.5411C6.86439 77.6691 7.38019 77.7573 7.9005 77.8052L8.10898 78.5696C8.61511 78.6182 9.12472 78.6182 9.63085 78.5696L9.83931 77.8052C10.3601 77.7607 10.8761 77.6724 11.382 77.5411V77.7288C10.9264 77.853 10.4617 77.9413 9.99219 77.9928C9.9088 78.25 9.83235 78.5071 9.76286 78.7642Z" fill="#003242"/>
<path d="M9.76286 79.9524C9.16535 80.0288 8.56055 80.0288 7.96304 79.9524C7.89355 79.6953 7.82406 79.4313 7.74762 79.1741C7.27433 79.1063 6.80883 78.9923 6.35779 78.8336V78.6599C6.85863 78.8288 7.37563 78.9452 7.9005 79.0074L8.10898 79.7787C8.61474 79.8344 9.12509 79.8344 9.63085 79.7787L9.83931 79.0074C10.3642 78.9452 10.8812 78.8288 11.382 78.6599V78.8475C10.9312 79.007 10.4656 79.121 9.99219 79.1881L9.76286 79.9524Z" fill="#003242"/>
<path d="M9.76286 81.1408C9.1669 81.2386 8.559 81.2386 7.96304 81.1408C7.89355 80.8837 7.82406 80.6196 7.74762 80.3555C7.26963 80.2714 6.80316 80.1314 6.35779 79.9386V79.751C6.85156 79.9598 7.37 80.1045 7.9005 80.1818L8.10898 80.9601C8.61434 81.0226 9.12548 81.0226 9.63085 80.9601L9.83931 80.1818C10.3698 80.1045 10.8882 79.9598 11.382 79.751V79.9386C10.937 80.1324 10.4704 80.2723 9.99219 80.3555C9.9088 80.6196 9.83235 80.8837 9.76286 81.1408Z" fill="#003242"/>
<g style="mix-blend-mode:multiply" opacity="0.5">
<path d="M11.375 68.8547V67.6108C10.8876 67.3706 10.368 67.2021 9.83233 67.1105L9.77675 67.2981C9.17142 67.2008 8.55445 67.2008 7.94912 67.2981L7.89354 67.1105C7.35789 67.2021 6.83829 67.3706 6.35083 67.6108V68.8547C7.96594 68.2227 9.75993 68.2227 11.375 68.8547Z" fill="#003242"/>
</g>
<g style="mix-blend-mode:multiply" opacity="0.5">
<path d="M6.35083 77.7079V80.4458C6.84455 80.6796 7.36846 80.8433 7.90743 80.9323L7.96301 81.1408C8.55897 81.2385 9.16688 81.2385 9.76284 81.1408L9.8254 80.9323C10.3619 80.8423 10.8834 80.6786 11.375 80.4458V77.7079C9.72803 78.1389 7.99784 78.1389 6.35083 77.7079Z" fill="#003242"/>
</g>
<path d="M31.8195 38.5218C33.3246 38.2507 34.866 38.2507 36.3712 38.5218C36.6073 38.5669 36.8204 38.6929 36.9738 38.878C37.1272 39.0631 37.2114 39.2959 37.212 39.5363V46.6314C37.2128 46.8722 37.1291 47.1056 36.9754 47.291C36.8218 47.4764 36.6079 47.602 36.3712 47.646C34.866 47.917 33.3246 47.917 31.8195 47.646C31.5827 47.602 31.3689 47.4764 31.2152 47.291C31.0616 47.1056 30.9779 46.8722 30.9786 46.6314V39.5363C30.9792 39.2959 31.0634 39.0631 31.2168 38.878C31.3703 38.6929 31.5833 38.5669 31.8195 38.5218Z" fill="#D6D6D6"/>
<path d="M31.5762 36.7566C32.3617 36.3859 33.2196 36.1936 34.0883 36.1936C34.9569 36.1936 35.8148 36.3859 36.6004 36.7566V49.411C35.8158 49.7851 34.9575 49.9792 34.0883 49.9792C33.219 49.9792 32.3608 49.7851 31.5762 49.411V36.7566Z" fill="#004358"/>
<path d="M33.1953 37.0207C33.7924 36.9373 34.3981 36.9373 34.9952 37.0207C35.0646 36.7775 35.1341 36.5412 35.2106 36.3258C35.6911 36.4236 36.1579 36.58 36.6004 36.7914V36.6037C36.1129 36.3635 35.5933 36.195 35.0577 36.1034L34.8492 36.7983C34.3438 36.7358 33.8327 36.7358 33.3273 36.7983L33.1189 36.1034C32.5832 36.195 32.0636 36.3635 31.5762 36.6037V36.7914C32.0183 36.5789 32.4852 36.4225 32.966 36.3258C33.0494 36.5412 33.1189 36.7775 33.1953 37.0207Z" fill="#003242"/>
<path d="M33.1953 38.209C33.7932 38.1395 34.3972 38.1395 34.9952 38.209C35.0646 37.9658 35.1341 37.7295 35.2106 37.5141C35.6856 37.5907 36.1514 37.7165 36.6004 37.8893V37.66C36.1048 37.4611 35.5867 37.3234 35.0577 37.25L34.8492 37.9449C34.3431 37.8963 33.8335 37.8963 33.3273 37.9449L33.1189 37.25C32.5899 37.3234 32.0718 37.4611 31.5762 37.66V37.8476C32.0248 37.6736 32.4907 37.5478 32.966 37.4724C33.0494 37.7295 33.1189 37.9658 33.1953 38.209Z" fill="#003242"/>
<path d="M33.1953 39.3973C33.7943 39.3486 34.3962 39.3486 34.9952 39.3973C35.0646 39.1541 35.1341 38.9108 35.2106 38.7024C35.6814 38.7628 36.1463 38.8627 36.6004 39.0012V38.8135C36.0988 38.6518 35.5818 38.5423 35.0577 38.4869C34.9882 38.7232 34.9187 38.9548 34.8492 39.1819C34.3428 39.1402 33.8338 39.1402 33.3273 39.1819C33.2579 38.9317 33.1884 38.7 33.1189 38.4869C32.5948 38.5423 32.0778 38.6518 31.5762 38.8135V39.0012C32.0301 38.8622 32.4951 38.7622 32.966 38.7024C33.0494 38.9108 33.1189 39.1541 33.1953 39.3973Z" fill="#003242"/>
<path d="M33.1953 40.5925C33.7947 40.5578 34.3957 40.5578 34.9952 40.5925C35.0646 40.3424 35.1341 40.0992 35.2106 39.8559C35.678 39.901 36.1422 39.9753 36.6004 40.0783V39.8907C36.0932 39.7698 35.5775 39.6884 35.0577 39.6475L34.8492 40.3424C34.3396 40.3424 33.8323 40.3424 33.3273 40.3424L33.1189 39.6475C32.5991 39.6884 32.0833 39.7698 31.5762 39.8907V40.0783C32.0343 39.9747 32.4985 39.9005 32.966 39.8559C33.0494 40.0992 33.1189 40.3424 33.1953 40.5925Z" fill="#003242"/>
<path d="M33.1953 41.7809C33.7929 41.7809 34.3975 41.7809 34.9952 41.7809C35.0646 41.5307 35.1341 41.2875 35.2106 41.0443C35.6901 41.0443 36.1557 41.1138 36.6004 41.1833V40.9956C36.0892 40.9165 35.5743 40.8632 35.0577 40.8358L34.8492 41.5724C34.3396 41.5724 33.8323 41.5724 33.3273 41.5724L33.1189 40.8358C32.6023 40.8632 32.0874 40.9165 31.5762 40.9956V41.1833C32.0209 41.1138 32.4935 41.0721 32.966 41.0443C33.0494 41.2875 33.1189 41.5307 33.1953 41.7809Z" fill="#003242"/>
<path d="M33.1953 42.9691H34.9952C35.0646 42.719 35.1341 42.4688 35.2106 42.2256C35.6901 42.2256 36.1557 42.2256 36.6004 42.2812V42.0935C36.107 42.0935 35.5858 42.0379 35.0577 42.024L34.8492 42.7676H33.3273L33.1189 42.024C32.5907 42.024 32.0696 42.0588 31.5762 42.0935V42.2812C32.0209 42.2812 32.4935 42.2395 32.966 42.2256C33.0494 42.4688 33.1189 42.719 33.1953 42.9691Z" fill="#003242"/>
<path d="M33.1953 44.1575C33.7929 44.1575 34.3975 44.1575 34.9952 44.1575C35.0646 43.9073 35.1341 43.6572 35.2106 43.407C35.6739 43.407 36.1371 43.407 36.6004 43.407V43.2194H35.0507L34.8423 43.9768C34.3327 43.9768 33.8254 43.9768 33.3204 43.9768L33.1119 43.2194H31.5762V43.407C32.0209 43.407 32.4935 43.407 32.966 43.407C33.0494 43.6572 33.1189 43.9143 33.1953 44.1575Z" fill="#003242"/>
<path d="M33.1953 45.3458C33.7947 45.3806 34.3957 45.3806 34.9952 45.3458C35.0646 45.0957 35.1341 44.8455 35.2106 44.5953C35.6739 44.5953 36.1371 44.5606 36.6004 44.4911V44.3035C36.107 44.3521 35.5858 44.3799 35.0577 44.3938L34.8492 45.1513C34.3396 45.1513 33.8323 45.1513 33.3273 45.1513L33.1189 44.3938C32.5907 44.3938 32.0696 44.3521 31.5762 44.3035V44.4911C32.0209 44.5397 32.4935 44.5745 32.966 44.5953C33.0494 44.8455 33.1189 45.0957 33.1953 45.3458Z" fill="#003242"/>
<path d="M33.1953 46.541C33.7945 46.5827 34.3959 46.5827 34.9952 46.541C35.0646 46.2839 35.1341 46.0268 35.2106 45.7766C35.6768 45.7419 36.1408 45.6816 36.6004 45.596V45.4083C36.0899 45.4956 35.5748 45.5536 35.0577 45.5821L34.8492 46.3465C34.3425 46.3812 33.834 46.3812 33.3273 46.3465L33.1189 45.5821C32.6018 45.5536 32.0867 45.4956 31.5762 45.4083V45.596C32.0357 45.682 32.4997 45.7423 32.966 45.7766C33.0494 45.999 33.1189 46.2839 33.1953 46.541Z" fill="#003242"/>
<path d="M33.1953 47.7293C33.7936 47.7918 34.3968 47.7918 34.9952 47.7293C35.0646 47.4722 35.1341 47.215 35.2106 46.9579C35.6804 46.9091 36.1454 46.8208 36.6004 46.6939V46.5132C36.0936 46.6388 35.5778 46.7247 35.0577 46.7703L34.8492 47.5417C34.3428 47.5834 33.8338 47.5834 33.3273 47.5417L33.1189 46.7703C32.5988 46.7247 32.083 46.6388 31.5762 46.5132V46.6939C32.0311 46.8214 32.496 46.9098 32.966 46.9579C33.0494 47.215 33.1189 47.4722 33.1953 47.7293Z" fill="#003242"/>
<path d="M33.1953 48.9176C33.7924 49.001 34.3981 49.001 34.9952 48.9176C35.0646 48.6605 35.1341 48.4034 35.2106 48.1463C35.6841 48.0761 36.1496 47.9597 36.6004 47.7988V47.6112C36.1005 47.7833 35.5831 47.8998 35.0577 47.9587L34.8492 48.737C34.3431 48.7856 33.8335 48.7856 33.3273 48.737L33.1189 47.9587C32.5934 47.8998 32.0761 47.7833 31.5762 47.6112V47.7988C32.0268 47.9605 32.4923 48.0769 32.966 48.1463C33.0494 48.4034 33.1189 48.6605 33.1953 48.9176Z" fill="#003242"/>
<path d="M33.1953 50.1059C33.7913 50.2037 34.3992 50.2037 34.9952 50.1059C35.0646 49.8488 35.1341 49.5847 35.2106 49.3276C35.6887 49.2408 36.1552 49.0985 36.6004 48.9037V48.7161C36.1066 48.9248 35.5882 49.0696 35.0577 49.1469L34.8492 49.9252C34.3443 49.995 33.8322 49.995 33.3273 49.9252L33.1189 49.1469C32.5884 49.0696 32.0699 48.9248 31.5762 48.7161V48.9037C32.021 49.0997 32.4875 49.242 32.966 49.3276C33.0494 49.5847 33.1189 49.8488 33.1953 50.1059Z" fill="#003242"/>
<g style="mix-blend-mode:multiply" opacity="0.5">
<path d="M31.5762 37.8198V36.5829C32.0636 36.3427 32.5832 36.1741 33.1189 36.0825L33.1745 36.2632C33.7798 36.166 34.3968 36.166 35.0021 36.2632L35.0577 36.0825C35.5933 36.1741 36.1129 36.3427 36.6004 36.5829V37.8198C34.9853 37.1878 33.1913 37.1878 31.5762 37.8198Z" fill="#003242"/>
</g>
<g style="mix-blend-mode:multiply" opacity="0.5">
<path d="M36.6073 46.694V49.4319C36.1132 49.6647 35.5895 49.8284 35.0507 49.9184C35.0507 49.9879 35.016 50.0574 34.9952 50.1268C34.3992 50.2246 33.7913 50.2246 33.1953 50.1268L33.1328 49.9184C32.5963 49.8284 32.0748 49.6647 31.5831 49.4319V46.694C33.2301 47.125 34.9603 47.125 36.6073 46.694Z" fill="#003242"/>
</g>
<path d="M31.8195 69.5565C33.3246 69.2855 34.866 69.2855 36.3712 69.5565C36.6079 69.6005 36.8218 69.7261 36.9754 69.9115C37.1291 70.0969 37.2128 70.3303 37.212 70.5711V77.6662C37.2067 77.903 37.1203 78.1309 36.9673 78.3117C36.8142 78.4926 36.6038 78.6155 36.3712 78.6599C34.8654 78.9234 33.3253 78.9234 31.8195 78.6599C31.5833 78.6147 31.3703 78.4888 31.2168 78.3037C31.0634 78.1185 30.9792 77.8858 30.9786 77.6453V70.5711C30.9779 70.3303 31.0616 70.0969 31.2152 69.9115C31.3689 69.7261 31.5827 69.6005 31.8195 69.5565Z" fill="#D6D6D6"/>
<path d="M31.5762 67.7915C32.3608 67.4174 33.219 67.2233 34.0883 67.2233C34.9575 67.2233 35.8158 67.4174 36.6004 67.7915V80.4459C35.8148 80.8166 34.9569 81.0089 34.0883 81.0089C33.2196 81.0089 32.3617 80.8166 31.5762 80.4459V67.7915Z" fill="#004358"/>
<path d="M33.1953 68.0486C33.7928 67.9722 34.3976 67.9722 34.9952 68.0486C35.0646 67.8124 35.1341 67.5761 35.2106 67.3537C35.6917 67.4459 36.1589 67.6001 36.6004 67.8124V67.6247C36.1129 67.3845 35.5933 67.216 35.0577 67.1244L34.8492 67.8193C34.3438 67.7568 33.8327 67.7568 33.3273 67.8193L33.1189 67.1244C32.5832 67.216 32.0636 67.3845 31.5762 67.6247V67.8124C32.0172 67.5989 32.4845 67.4447 32.966 67.3537C33.0494 67.5761 33.1189 67.8124 33.1953 68.0486Z" fill="#003242"/>
<path d="M33.1953 69.2438C33.7932 69.1743 34.3972 69.1743 34.9952 69.2438C35.0646 69.0006 35.1341 68.7574 35.2106 68.5489C35.6858 68.6278 36.1516 68.7559 36.6004 68.9311V68.7435C36.105 68.5423 35.587 68.4023 35.0577 68.3265L34.8492 69.0215C34.3431 68.9728 33.8335 68.9728 33.3273 69.0215L33.1189 68.3265C32.5896 68.4023 32.0716 68.5423 31.5762 68.7435V68.9311C32.0246 68.7549 32.4905 68.6267 32.966 68.5489C33.0494 68.7574 33.1189 69.0006 33.1953 69.2438Z" fill="#003242"/>
<path d="M33.1953 70.4322C33.7943 70.3835 34.3962 70.3835 34.9952 70.4322C35.0646 70.189 35.1341 69.9457 35.2106 69.7373C35.682 69.7944 36.1472 69.8944 36.6004 70.0361V69.8485C36.0982 69.6875 35.5815 69.5757 35.0577 69.5149L34.8492 70.2098C34.3425 70.175 33.834 70.175 33.3273 70.2098L33.1189 69.5149C32.595 69.5757 32.0784 69.6875 31.5762 69.8485V70.0361C32.0292 69.8935 32.4944 69.7935 32.966 69.7373C33.0494 69.9457 33.1189 70.189 33.1953 70.4322Z" fill="#003242"/>
<path d="M33.1953 71.6205C33.7947 71.5858 34.3957 71.5858 34.9952 71.6205C35.0646 71.3773 35.1341 71.1341 35.2106 70.8908C35.6779 70.9336 36.1421 71.0056 36.6004 71.1063V70.9256C36.0934 70.8023 35.5776 70.7187 35.0577 70.6754L34.8492 71.412C34.3423 71.3842 33.8343 71.3842 33.3273 71.412L33.1189 70.6754C32.5989 70.7187 32.0831 70.8023 31.5762 70.9256V71.1063C32.0344 71.0051 32.4986 70.9331 32.966 70.8908C33.0494 71.1341 33.1189 71.3773 33.1953 71.6205Z" fill="#003242"/>
<path d="M33.1953 72.8087C33.7929 72.8087 34.3975 72.8087 34.9952 72.8087C35.0646 72.5655 35.1341 72.3153 35.2106 72.0721C35.6901 72.0721 36.1557 72.1486 36.6004 72.2111V72.0235C36.0892 71.9444 35.5743 71.891 35.0577 71.8636L34.8492 72.6072C34.3396 72.6072 33.8323 72.6072 33.3273 72.6072L33.1189 71.8636C32.6023 71.891 32.0874 71.9444 31.5762 72.0235V72.2111C32.0209 72.1486 32.4935 72.0999 32.966 72.0721C33.0494 72.3153 33.1189 72.5655 33.1953 72.8087Z" fill="#003242"/>
<path d="M33.1953 74.004C33.7929 74.004 34.3975 74.004 34.9952 74.004C35.0646 73.7538 35.1341 73.5037 35.2106 73.2604C35.6901 73.2604 36.1557 73.2604 36.6004 73.316V73.1006C36.107 73.1006 35.5858 73.0381 35.0577 73.0242L34.8492 73.7677H33.3273L33.1189 73.0242C32.5907 73.0242 32.0696 73.0659 31.5762 73.1006V73.2882C32.0209 73.2882 32.4935 73.2396 32.966 73.2326C33.0494 73.5037 33.1189 73.7538 33.1953 74.004Z" fill="#003242"/>
<path d="M33.1953 75.1853C33.7929 75.1853 34.3975 75.1853 34.9952 75.1853C35.0646 74.9352 35.1341 74.685 35.2106 74.4348H36.6004V74.2472H35.0507L34.8423 74.9977H33.3204L33.1119 74.2472H31.5762V74.4348H32.966C33.0494 74.6919 33.1189 74.9421 33.1953 75.1853Z" fill="#003242"/>
<path d="M33.1953 76.3806C33.7947 76.4154 34.3957 76.4154 34.9952 76.3806C35.0646 76.1305 35.1341 75.8733 35.2106 75.6232C35.6901 75.6232 36.1557 75.5676 36.6004 75.5259V75.3383C36.107 75.38 35.5858 75.4147 35.0577 75.4286L34.8492 76.1861C34.3396 76.1861 33.8323 76.1861 33.3273 76.1861L33.1189 75.4286C32.5907 75.4286 32.0696 75.38 31.5762 75.3383V75.5259C32.0209 75.5676 32.4935 75.6023 32.966 75.6232C33.0494 75.8803 33.1189 76.1305 33.1953 76.3806Z" fill="#003242"/>
<path d="M33.1953 77.5689C33.7943 77.6175 34.3962 77.6175 34.9952 77.5689C35.0646 77.3187 35.1341 77.0616 35.2106 76.8114C35.6769 76.7744 36.1409 76.7118 36.6004 76.6238V76.4362C36.09 76.5258 35.575 76.5861 35.0577 76.6168L34.8492 77.3812C34.3423 77.409 33.8343 77.409 33.3273 77.3812L33.1189 76.6168C32.6016 76.5861 32.0865 76.5258 31.5762 76.4362V76.6238C32.0356 76.7123 32.4996 76.7749 32.966 76.8114C33.0494 77.0616 33.1189 77.3187 33.1953 77.5689Z" fill="#003242"/>
<path d="M33.1953 78.7642C33.7936 78.8267 34.3968 78.8267 34.9952 78.7642C35.0646 78.5071 35.1341 78.25 35.2106 77.9928C35.68 77.9407 36.1446 77.8524 36.6004 77.7288V77.5411C36.0938 77.6691 35.578 77.7573 35.0577 77.8052L34.8492 78.5696C34.3431 78.6182 33.8335 78.6182 33.3273 78.5696L33.1189 77.8052C32.5981 77.7607 32.0821 77.6724 31.5762 77.5411V77.7288C32.0318 77.853 32.4965 77.9413 32.966 77.9928C33.0494 78.25 33.1189 78.5071 33.1953 78.7642Z" fill="#003242"/>
<path d="M33.1953 79.9524C33.7928 80.0288 34.3976 80.0288 34.9952 79.9524C35.0646 79.6953 35.1341 79.4313 35.2106 79.1741C35.6839 79.1063 36.1494 78.9923 36.6004 78.8336V78.6599C36.0996 78.8288 35.5826 78.9452 35.0577 79.0074L34.8492 79.7787C34.3435 79.8344 33.8331 79.8344 33.3273 79.7787L33.1189 79.0074C32.594 78.9452 32.077 78.8288 31.5762 78.6599V78.8475C32.027 79.007 32.4926 79.121 32.966 79.1881C33.0494 79.4313 33.1189 79.6953 33.1953 79.9524Z" fill="#003242"/>
<path d="M33.1953 81.1408C33.7913 81.2386 34.3992 81.2386 34.9952 81.1408C35.0646 80.8837 35.1341 80.6196 35.2106 80.3555C35.6886 80.2714 36.155 80.1314 36.6004 79.9386V79.751C36.1066 79.9598 35.5882 80.1045 35.0577 80.1818L34.8492 80.9601C34.3438 81.0226 33.8327 81.0226 33.3273 80.9601L33.1189 80.1818C32.5884 80.1045 32.0699 79.9598 31.5762 79.751V79.9386C32.0212 80.1324 32.4878 80.2723 32.966 80.3555C33.0494 80.6196 33.1189 80.8837 33.1953 81.1408Z" fill="#003242"/>
<g style="mix-blend-mode:multiply" opacity="0.5">
<path d="M31.5762 68.8547V67.6108C32.0636 67.3706 32.5832 67.2021 33.1189 67.1105L33.1745 67.2981C33.7798 67.2008 34.3968 67.2008 35.0021 67.2981L35.0577 67.1105C35.5933 67.2021 36.1129 67.3706 36.6004 67.6108V68.8547C34.9853 68.2227 33.1913 68.2227 31.5762 68.8547Z" fill="#003242"/>
</g>
<g style="mix-blend-mode:multiply" opacity="0.5">
<path d="M36.6073 77.7079V80.4458C36.1132 80.6786 35.5895 80.8423 35.0507 80.9323C35.0507 81.0018 35.016 81.0713 34.9952 81.1408C34.3992 81.2385 33.7913 81.2385 33.1953 81.1408L33.1328 80.9323C32.5963 80.8423 32.0748 80.6786 31.5831 80.4458V77.7079C33.2301 78.1389 34.9603 78.1389 36.6073 77.7079Z" fill="#003242"/>
</g>
<path d="M32.8897 40.6898C25.2918 41.218 17.6665 41.218 10.0687 40.6898C9.25563 40.6342 8.60242 40.252 8.60242 39.849V20.2872C8.60242 19.8841 9.26258 19.5575 10.0756 19.5575H32.8827C33.6957 19.5575 34.3559 19.8841 34.3559 20.2872V39.8559C34.3559 40.252 33.7027 40.6342 32.8897 40.6898Z" fill="#102030"/>
<path d="M25.864 33.3794C25.7806 33.2473 25.864 33.0875 26.0099 32.9207C26.0572 32.862 26.099 32.7993 26.135 32.7331C26.0698 32.7112 26.0021 32.6972 25.9335 32.6914C25.725 32.6914 25.5305 32.6219 25.4818 32.4621C25.4332 32.3022 25.5791 32.1841 25.732 32.0521L25.8918 31.8922C25.8267 31.8616 25.7593 31.836 25.6903 31.8158C25.4957 31.7533 25.315 31.6907 25.2872 31.5309C25.2594 31.3711 25.4193 31.2668 25.586 31.1487C25.6466 31.1058 25.7046 31.0594 25.7598 31.0097L25.5721 30.9194C25.3845 30.829 25.2108 30.7526 25.1969 30.5928C25.183 30.4329 25.3567 30.3426 25.5304 30.2384C25.5927 30.2022 25.653 30.1627 25.7111 30.1202C25.6543 30.0799 25.5938 30.045 25.5304 30.016C25.3498 29.9117 25.183 29.8214 25.183 29.6616C25.183 29.5017 25.3567 29.4253 25.5374 29.335L25.732 29.2307C25.6746 29.1851 25.6142 29.1433 25.5513 29.1056C25.3845 29.0014 25.2177 28.8972 25.2316 28.7373C25.2455 28.5775 25.4193 28.508 25.6069 28.4246L25.7945 28.3343C25.7528 28.2926 25.6764 28.2439 25.6277 28.2023C25.461 28.0911 25.3081 27.9799 25.322 27.82C25.3359 27.6602 25.5235 27.5977 25.7181 27.5282L25.9127 27.4517L25.7459 27.3128C25.586 27.1877 25.4401 27.0695 25.4679 26.9167C25.4957 26.7638 25.6764 26.7012 25.871 26.6456L26.0725 26.5762C26.0227 26.5217 25.9693 26.4706 25.9127 26.4233C25.7598 26.2912 25.6208 26.1662 25.6555 26.0133C25.6903 25.8604 25.8849 25.8187 26.0794 25.7701L26.281 25.7075L26.135 25.5477C25.9891 25.4087 25.8571 25.2697 25.9057 25.1238C25.9543 24.9779 26.142 24.9431 26.3505 24.9084L26.552 24.8667C26.5101 24.8032 26.4636 24.7428 26.413 24.686C26.281 24.5262 26.1628 24.3872 26.2254 24.2482C26.2879 24.1092 26.4894 24.0884 26.6979 24.0745C26.7765 24.0808 26.8556 24.0808 26.9342 24.0745L27.1566 24.2134C27.0871 24.3455 26.9133 24.3594 26.7118 24.3663H26.4964L26.6215 24.5262C26.7535 24.679 26.8716 24.825 26.823 24.9709C26.7743 25.1168 26.5937 25.1446 26.3921 25.1794C26.3214 25.1859 26.2515 25.1999 26.1837 25.2211L26.3227 25.367C26.4686 25.5129 26.6006 25.645 26.5589 25.7978C26.5172 25.9507 26.3435 25.9855 26.1489 26.0341L25.9405 26.0897L26.0933 26.2356C26.2462 26.3677 26.3852 26.4928 26.3574 26.6456C26.3296 26.7985 26.1489 26.8472 25.9543 26.9028L25.7528 26.9723C25.8029 27.02 25.8563 27.0641 25.9127 27.1043C26.0725 27.2294 26.2184 27.3475 26.1976 27.5004C26.1767 27.6533 25.996 27.7158 25.8084 27.7853L25.6138 27.8687L25.7806 27.9938C25.9474 28.1119 26.1003 28.2162 26.0864 28.369C26.0725 28.5219 25.8918 28.5984 25.7111 28.6817C25.6454 28.7047 25.5825 28.7351 25.5235 28.7721L25.6972 28.8902C25.864 28.9945 26.0238 29.0987 26.0169 29.2446C26.0099 29.3906 25.8432 29.4878 25.6625 29.5782L25.4818 29.6755C25.5385 29.7181 25.5989 29.7553 25.6625 29.7867C25.8362 29.8839 26.003 29.9743 26.003 30.1202C26.003 30.2661 25.8432 30.3704 25.6694 30.4746C25.6081 30.506 25.5499 30.5432 25.4957 30.5858L25.6833 30.6831C25.8709 30.7665 26.0308 30.8429 26.0447 30.9889C26.0586 31.1348 25.9057 31.2529 25.7389 31.3711C25.6827 31.4088 25.6292 31.4506 25.5791 31.4961L25.7806 31.5726C25.9752 31.6351 26.142 31.6907 26.1698 31.8366C26.1976 31.9826 26.0586 32.1146 25.9127 32.2536C25.8606 32.2987 25.8118 32.3475 25.7667 32.3995L25.9752 32.4343C26.1767 32.4343 26.3435 32.4899 26.3991 32.6288C26.4547 32.7678 26.3435 32.9207 26.2323 33.0875C26.1801 33.1489 26.1357 33.2166 26.1003 33.289L25.864 33.3794Z" fill="#0092ED"/>
<path d="M17.1081 33.3793L16.8788 33.2473C16.849 33.1734 16.8067 33.1053 16.7537 33.0458C16.6356 32.879 16.5313 32.7261 16.5869 32.5871C16.6425 32.4481 16.8093 32.4203 17.0039 32.3925L17.2123 32.3508L17.0734 32.2119C16.9274 32.0729 16.7815 31.9478 16.8163 31.7949C16.851 31.642 17.0108 31.5934 17.2054 31.5308L17.4069 31.4544C17.3652 31.4127 17.2888 31.3641 17.2471 31.3293C17.0803 31.2112 16.9205 31.1 16.9413 30.9471C16.9622 30.7942 17.1151 30.7247 17.3027 30.6414L17.4903 30.5441C17.4362 30.5015 17.378 30.4642 17.3166 30.4329C17.1429 30.3287 16.983 30.2383 16.983 30.0785C16.983 29.9186 17.1498 29.8422 17.3235 29.7449C17.3871 29.7136 17.4476 29.6763 17.5042 29.6337L17.3235 29.5364C17.1429 29.4461 16.9761 29.3558 16.9691 29.2029C16.9622 29.05 17.122 28.9527 17.2888 28.8485L17.4625 28.7303C17.4036 28.6933 17.3406 28.663 17.2749 28.64C17.0873 28.5566 16.9135 28.4802 16.8996 28.3273C16.8857 28.1744 17.0386 28.0702 17.2054 27.952L17.3722 27.827L17.1776 27.7436C16.99 27.6741 16.8093 27.6115 16.7885 27.4587C16.7676 27.3058 16.9135 27.1876 17.0734 27.0626C17.1289 27.0241 17.1801 26.9798 17.2263 26.9305L17.0317 26.861C16.8371 26.8054 16.6634 26.7498 16.6286 26.6039C16.5939 26.458 16.7398 26.3259 16.8927 26.1939L17.0456 26.048L16.8371 25.9924C16.6356 25.9437 16.4619 25.902 16.4271 25.7561C16.3924 25.6102 16.5174 25.4712 16.6634 25.3253L16.8023 25.1793C16.7344 25.1588 16.6645 25.1448 16.5939 25.1376C16.3924 25.1029 16.2117 25.0681 16.163 24.9292C16.1144 24.7902 16.2325 24.6373 16.3645 24.4844C16.4106 24.4322 16.4525 24.3765 16.4896 24.3176H16.2742C16.0727 24.3176 15.899 24.3176 15.8295 24.1648L16.0657 24.0466C16.1444 24.053 16.2234 24.053 16.302 24.0466C16.5105 24.0466 16.712 24.0466 16.7746 24.2204C16.8371 24.3941 16.719 24.4983 16.58 24.6581C16.5315 24.715 16.4874 24.7754 16.448 24.8388L16.6495 24.8805C16.851 24.8805 17.0456 24.9431 17.0942 25.0959C17.1429 25.2488 17.0039 25.3809 16.8649 25.5198L16.719 25.6797L16.9205 25.7422C17.1151 25.7909 17.3027 25.8326 17.3444 25.9854C17.3861 26.1383 17.2332 26.2634 17.0873 26.3954C17.0291 26.441 16.9755 26.4922 16.9274 26.5483L17.129 26.6178C17.3235 26.6734 17.5042 26.7359 17.532 26.8888C17.5598 27.0417 17.4139 27.1598 17.2541 27.2849C17.194 27.3257 17.1382 27.3722 17.0873 27.4239L17.2818 27.5004C17.4764 27.5698 17.6571 27.6393 17.6779 27.7922C17.6988 27.9451 17.539 28.0632 17.3722 28.1744C17.3139 28.215 17.2583 28.2591 17.2054 28.3064L17.393 28.3968C17.5806 28.4802 17.7544 28.5566 17.7683 28.7095C17.7822 28.8624 17.6154 28.9736 17.4417 29.0778C17.381 29.1155 17.323 29.1573 17.2679 29.2029L17.4556 29.3071C17.6362 29.3975 17.81 29.4808 17.81 29.6337C17.81 29.7866 17.6432 29.8839 17.4695 29.9881C17.4061 30.0172 17.3456 30.0521 17.2888 30.0924C17.3469 30.1349 17.4072 30.1743 17.4695 30.2105C17.6432 30.3147 17.81 30.412 17.7961 30.5649C17.7822 30.7178 17.6154 30.8012 17.4278 30.8915L17.2401 30.9819C17.2953 31.0316 17.3533 31.078 17.4139 31.1208C17.5806 31.239 17.7335 31.3502 17.7127 31.503C17.6918 31.6559 17.5042 31.7254 17.3027 31.788C17.2362 31.8092 17.1713 31.8348 17.1081 31.8644L17.2679 32.0242C17.4139 32.1563 17.5598 32.2883 17.5181 32.4342C17.4764 32.5802 17.2749 32.6288 17.0664 32.6636C16.9978 32.6694 16.9302 32.6833 16.8649 32.7052C16.9009 32.7714 16.9428 32.8342 16.99 32.8929C17.0734 33.0875 17.1845 33.2473 17.1081 33.3793Z" fill="#E84646"/>
<path d="M37.8305 4.51267C37.8585 4.61573 37.8623 4.72386 37.8418 4.82867C37.8212 4.93347 37.7768 5.03212 37.7119 5.11697C37.6471 5.20181 37.5635 5.27056 37.4678 5.31788C37.372 5.3652 37.2667 5.38983 37.1599 5.38983C37.0531 5.38983 36.9477 5.3652 36.852 5.31788C36.7562 5.27056 36.6727 5.20181 36.6078 5.11697C36.5429 5.03212 36.4985 4.93347 36.478 4.82867C36.4574 4.72386 36.4613 4.61573 36.4893 4.51267C36.5293 4.36546 36.6166 4.2355 36.7378 4.14285C36.859 4.0502 37.0073 4 37.1599 4C37.3124 4 37.4607 4.0502 37.5819 4.14285C37.7031 4.2355 37.7905 4.36546 37.8305 4.51267Z" fill="#102030"/>
<path d="M35.6693 6.6043L35.3357 6.31939L37.1981 4.16516L38.1987 5.46465L37.8513 5.73566L37.1772 4.86007L35.6693 6.6043Z" fill="#102030"/>
<path d="M41.1383 5.59669H38.025C37.802 5.59669 37.5882 5.68528 37.4305 5.84297C37.2728 6.00066 37.1842 6.21454 37.1842 6.43754V7.57025H41.9999V6.43754C42 6.32535 41.9776 6.21427 41.934 6.11087C41.8905 6.00747 41.8267 5.91383 41.7464 5.83548C41.6661 5.75712 41.5709 5.69562 41.4664 5.65461C41.362 5.6136 41.2504 5.59391 41.1383 5.59669Z" fill="#278F51"/>
<path d="M5.1 4.51267C5.072 4.61573 5.06812 4.72386 5.08868 4.82867C5.10924 4.93347 5.15366 5.03212 5.21853 5.11697C5.28339 5.20181 5.36694 5.27056 5.46269 5.31788C5.55843 5.3652 5.66379 5.38983 5.77059 5.38983C5.87739 5.38983 5.98275 5.3652 6.0785 5.31788C6.17424 5.27056 6.25779 5.20181 6.32265 5.11697C6.38752 5.03212 6.43197 4.93347 6.45253 4.82867C6.47308 4.72386 6.46919 4.61573 6.44118 4.51267C6.40117 4.36546 6.31385 4.2355 6.19266 4.14285C6.07146 4.0502 5.92314 4 5.77059 4C5.61804 4 5.46974 4.0502 5.34855 4.14285C5.22736 4.2355 5.14001 4.36546 5.1 4.51267Z" fill="#102030"/>
<path d="M7.289 6.6043L5.78105 4.86007L5.10698 5.73566L4.75952 5.46465L5.7602 4.16516L7.62256 6.31939L7.289 6.6043Z" fill="#102030"/>
<path d="M1.81999 5.59668H4.93321C5.15622 5.59668 5.37009 5.68527 5.52777 5.84296C5.68546 6.00065 5.77405 6.21452 5.77405 6.43753V7.57023H1V6.43753C0.999933 6.21809 1.08565 6.00731 1.23886 5.85021C1.39206 5.69311 1.60062 5.60212 1.81999 5.59668Z" fill="#278F51"/>
<path d="M35.3566 26.458H7.6017C7.3787 26.458 7.16483 26.3694 7.00714 26.2118C6.84945 26.0541 6.76086 25.8402 6.76086 25.6172V5.91639C6.76556 5.68711 6.85227 5.4671 7.00525 5.29626C7.15824 5.12543 7.36737 5.01506 7.59475 4.9852C16.8353 4.0243 26.1507 4.0243 35.3913 4.9852C35.6187 5.01506 35.8278 5.12543 35.9808 5.29626C36.1338 5.4671 36.2205 5.68711 36.2252 5.91639V25.6172C36.2253 25.73 36.2026 25.8416 36.1586 25.9455C36.1146 26.0494 36.0502 26.1433 35.9692 26.2218C35.8881 26.3003 35.7921 26.3616 35.6869 26.4022C35.5816 26.4428 35.4693 26.4618 35.3566 26.458Z" fill="#278F51"/>
<path d="M33.2787 9.01575H9.68642C9.22203 9.01575 8.84558 9.39221 8.84558 9.8566V25.6103C8.84558 26.0747 9.22203 26.4511 9.68642 26.4511H33.2787C33.7431 26.4511 34.1196 26.0747 34.1196 25.6103V9.8566C34.1196 9.39221 33.7431 9.01575 33.2787 9.01575Z" fill="#04B54C"/>
<path d="M34.0918 20.19H25.0927C25.0284 20.1882 24.9668 20.1635 24.919 20.1205L23.3763 18.814H19.582L18.0393 20.1205C17.9915 20.1635 17.9299 20.1882 17.8656 20.19H8.86646V19.6549H17.7683L19.311 18.3415C19.3595 18.3004 19.4212 18.2782 19.4847 18.2789H23.4735C23.5371 18.2782 23.5988 18.3004 23.6473 18.3415L25.19 19.6549H34.0918V20.19Z" fill="#FD9400"/>
<path d="M34.745 6.07624L34.2864 8.33471C34.2431 8.53381 34.1322 8.7118 33.9726 8.83846C33.813 8.96513 33.6145 9.03267 33.4108 9.02962H9.33897C9.13491 9.03401 8.93574 8.96696 8.77586 8.84008C8.61599 8.71319 8.50545 8.53444 8.46338 8.33471L7.9978 6.07624C7.97724 5.95084 7.98468 5.82244 8.01958 5.70025C8.05447 5.57806 8.11596 5.4651 8.19964 5.36946C8.28333 5.27383 8.38713 5.19789 8.50361 5.14708C8.62008 5.09627 8.74635 5.07184 8.87337 5.07557H33.8903C34.0159 5.07372 34.1404 5.0996 34.2549 5.15137C34.3694 5.20314 34.4711 5.27952 34.5528 5.37507C34.6344 5.47063 34.6939 5.583 34.7272 5.7042C34.7604 5.82539 34.7665 5.95242 34.745 6.07624Z" fill="#2CA3E8"/>
<g style="mix-blend-mode:overlay">
<path d="M23.1677 5.07557H8.87337C8.74635 5.07184 8.62008 5.09627 8.50361 5.14708C8.38713 5.19789 8.28333 5.27383 8.19964 5.36946C8.11596 5.4651 8.05447 5.57806 8.01958 5.70025C7.98468 5.82244 7.97724 5.95084 7.9978 6.07624L8.46338 8.33471C8.50545 8.53444 8.61599 8.71319 8.77586 8.84008C8.93574 8.96696 9.13491 9.03401 9.33897 9.02962H19.2276L23.1677 5.07557Z" fill="#2CA3E8"/>
</g>
<g style="mix-blend-mode:overlay">
<path d="M32.7298 5.07556H27.8585L23.9183 9.01572H28.7897L32.7298 5.07556Z" fill="#2CA3E8"/>
</g>
<path d="M8.15067 24.5957H7.4071V25.4366H8.15067V24.5957Z" fill="#004358"/>
<path d="M6.76086 8.16797L7.92136 9.21729C7.99335 9.28227 8.05095 9.36157 8.09044 9.45014C8.12994 9.5387 8.15046 9.63455 8.15069 9.73152V18.5361C8.15069 18.7204 8.07747 18.8971 7.94715 19.0275C7.81682 19.1578 7.64008 19.231 7.45578 19.231C7.27148 19.231 7.09471 19.1578 6.96439 19.0275C6.83407 18.8971 6.76086 18.7204 6.76086 18.5361V8.16797Z" fill="#2CA3E8"/>
<path d="M35.5512 24.5957H34.8076V25.4366H35.5512V24.5957Z" fill="#004358"/>
<path d="M8.15067 23.1016H7.4071V23.9424H8.15067V23.1016Z" fill="#004358"/>
<path d="M35.5512 23.1016H34.8076V23.9424H35.5512V23.1016Z" fill="#004358"/>
<path d="M8.15067 21.6006H7.4071V22.4414H8.15067V21.6006Z" fill="#004358"/>
<path d="M35.5512 21.6006H34.8076V22.4414H35.5512V21.6006Z" fill="#004358"/>
<path d="M36.1974 8.16797L35.0508 9.21729C34.9789 9.28227 34.9213 9.36157 34.8818 9.45014C34.8423 9.5387 34.8218 9.63455 34.8215 9.73152V18.5361C34.8215 18.7204 34.8947 18.8971 35.0251 19.0275C35.1554 19.1578 35.3321 19.231 35.5164 19.231C35.7007 19.231 35.8775 19.1578 36.0078 19.0275C36.1381 18.8971 36.2114 18.7204 36.2114 18.5361L36.1974 8.16797Z" fill="#2CA3E8"/>
<path d="M30.0335 24.4775H27.8793C27.6797 24.4775 27.5179 24.6393 27.5179 24.8389C27.5179 25.0385 27.6797 25.2003 27.8793 25.2003H30.0335C30.2331 25.2003 30.3949 25.0385 30.3949 24.8389C30.3949 24.6393 30.2331 24.4775 30.0335 24.4775Z" fill="#004358"/>
<path d="M15.0789 24.4775H12.9247C12.7251 24.4775 12.5634 24.6393 12.5634 24.8389C12.5634 25.0385 12.7251 25.2003 12.9247 25.2003H15.0789C15.2785 25.2003 15.4403 25.0385 15.4403 24.8389C15.4403 24.6393 15.2785 24.4775 15.0789 24.4775Z" fill="#004358"/>
<path d="M27.8793 23.1572H30.0335C30.1294 23.1572 30.2213 23.1953 30.2891 23.2631C30.3568 23.3308 30.3949 23.4227 30.3949 23.5186C30.3949 23.6144 30.3568 23.7063 30.2891 23.7741C30.2213 23.8419 30.1294 23.8799 30.0335 23.8799H27.8793C27.7835 23.8799 27.6916 23.8419 27.6238 23.7741C27.556 23.7063 27.5179 23.6144 27.5179 23.5186C27.5179 23.4227 27.556 23.3308 27.6238 23.2631C27.6916 23.1953 27.7835 23.1572 27.8793 23.1572Z" fill="#004358"/>
<path d="M12.9247 23.1572H15.0789C15.1748 23.1572 15.2667 23.1953 15.3344 23.2631C15.4022 23.3308 15.4403 23.4227 15.4403 23.5186C15.4403 23.6144 15.4022 23.7063 15.3344 23.7741C15.2667 23.8419 15.1748 23.8799 15.0789 23.8799H12.9247C12.8289 23.8799 12.7369 23.8419 12.6692 23.7741C12.6014 23.7063 12.5634 23.6144 12.5634 23.5186C12.5634 23.4227 12.6014 23.3308 12.6692 23.2631C12.7369 23.1953 12.8289 23.1572 12.9247 23.1572Z" fill="#004358"/>
<path d="M27.8793 21.8368H30.0335C30.081 21.8368 30.128 21.8461 30.1718 21.8643C30.2157 21.8825 30.2555 21.9091 30.2891 21.9426C30.3226 21.9762 30.3492 22.016 30.3674 22.0599C30.3855 22.1037 30.3949 22.1507 30.3949 22.1981C30.3949 22.294 30.3568 22.3859 30.2891 22.4537C30.2213 22.5214 30.1294 22.5595 30.0335 22.5595H27.8793C27.7835 22.5595 27.6916 22.5214 27.6238 22.4537C27.556 22.3859 27.5179 22.294 27.5179 22.1981C27.5179 22.1507 27.5273 22.1037 27.5454 22.0599C27.5636 22.016 27.5902 21.9762 27.6238 21.9426C27.6573 21.9091 27.6972 21.8825 27.741 21.8643C27.7849 21.8461 27.8318 21.8368 27.8793 21.8368Z" fill="#004358"/>
<path d="M12.9247 21.8368H15.0789C15.1264 21.8368 15.1734 21.8461 15.2172 21.8643C15.261 21.8825 15.3009 21.9091 15.3344 21.9426C15.368 21.9762 15.3946 22.016 15.4128 22.0599C15.4309 22.1037 15.4403 22.1507 15.4403 22.1981C15.4403 22.294 15.4022 22.3859 15.3344 22.4537C15.2667 22.5214 15.1748 22.5595 15.0789 22.5595H12.9247C12.8289 22.5595 12.7369 22.5214 12.6692 22.4537C12.6014 22.3859 12.5634 22.294 12.5634 22.1981C12.5634 22.1507 12.5727 22.1037 12.5909 22.0599C12.609 22.016 12.6356 21.9762 12.6692 21.9426C12.7027 21.9091 12.7426 21.8825 12.7864 21.8643C12.8303 21.8461 12.8772 21.8368 12.9247 21.8368Z" fill="#004358"/>
<g style="mix-blend-mode:multiply" opacity="0.3">
<path d="M19.5194 16.3609C19.278 16.1158 18.9798 15.9342 18.6512 15.8323C18.3226 15.7305 17.9739 15.7115 17.6362 15.7772L15.0233 13.1643L13.3138 14.8738L15.9267 17.4867C15.8612 17.8468 15.8897 18.2178 16.0095 18.5637C16.1294 18.9096 16.3365 19.2187 16.6109 19.4611C16.8852 19.7035 17.2175 19.8709 17.5756 19.9472C17.9336 20.0235 18.3053 20.0061 18.6546 19.8966C19.0039 19.7872 19.3191 19.5894 19.5696 19.3224C19.82 19.0554 19.9974 18.7283 20.0843 18.3727C20.1713 18.0171 20.165 17.6451 20.066 17.2926C19.9671 16.9402 19.7788 16.6193 19.5194 16.3609Z" fill="#583200"/>
</g>
<path d="M16.3714 14.033C16.3714 14.4686 16.2423 14.8945 16.0002 15.2568C15.7581 15.6191 15.4141 15.9014 15.0116 16.0681C14.6091 16.2349 14.1661 16.2785 13.7388 16.1935C13.3115 16.1085 12.919 15.8987 12.6109 15.5906C12.3028 15.2825 12.093 14.89 12.008 14.4627C11.923 14.0354 11.9667 13.5925 12.1334 13.19C12.3001 12.7874 12.5825 12.4434 12.9447 12.2013C13.307 11.9593 13.7329 11.8301 14.1686 11.8301C14.7528 11.8301 15.3131 12.0622 15.7262 12.4753C16.1394 12.8884 16.3714 13.4487 16.3714 14.033Z" fill="#004358"/>
<path d="M15.3778 14.033C15.3778 14.2722 15.3069 14.5059 15.174 14.7048C15.0411 14.9036 14.8523 15.0586 14.6313 15.1501C14.4104 15.2416 14.1673 15.2656 13.9327 15.2189C13.6982 15.1723 13.4827 15.0571 13.3136 14.888C13.1445 14.7189 13.0294 14.5035 12.9827 14.2689C12.9361 14.0344 12.96 13.7912 13.0515 13.5703C13.143 13.3493 13.298 13.1605 13.4969 13.0276C13.6957 12.8948 13.9295 12.8239 14.1686 12.8239C14.4893 12.8239 14.7969 12.9513 15.0236 13.178C15.2504 13.4048 15.3778 13.7123 15.3778 14.033Z" fill="#668E9B"/>
<path d="M21.4791 40.6482C30.5749 40.6482 37.9486 37.4841 37.9486 33.5809C37.9486 29.6778 30.5749 26.5137 21.4791 26.5137C12.3833 26.5137 5.00964 29.6778 5.00964 33.5809C5.00964 37.4841 12.3833 40.6482 21.4791 40.6482Z" fill="#278F51"/>
<path d="M21.4792 36.8261C30.0147 36.8261 36.934 34.8878 36.934 32.4968C36.934 30.1058 30.0147 28.1675 21.4792 28.1675C12.9437 28.1675 6.02429 30.1058 6.02429 32.4968C6.02429 34.8878 12.9437 36.8261 21.4792 36.8261Z" fill="#FFEA2C"/>
<path d="M24.3214 33.5809C24.3214 34.143 24.1547 34.6925 23.8423 35.1599C23.53 35.6273 23.0862 35.9916 22.5668 36.2067C22.0475 36.4218 21.476 36.4781 20.9247 36.3684C20.3733 36.2588 19.8669 35.9881 19.4694 35.5906C19.0719 35.1931 18.8012 34.6867 18.6916 34.1353C18.5819 33.584 18.6382 33.0125 18.8533 32.4932C19.0684 31.9738 19.4327 31.53 19.9001 31.2177C20.3675 30.9054 20.917 30.7387 21.4792 30.7387C21.8527 30.7377 22.2227 30.8106 22.5679 30.9531C22.9132 31.0957 23.2268 31.305 23.4909 31.5691C23.7551 31.8332 23.9644 32.1469 24.1069 32.4921C24.2494 32.8374 24.3223 33.2074 24.3214 33.5809Z" fill="#004358"/>
<path d="M23.418 78.1874H15.767C14.2971 78.1874 13.1055 79.379 13.1055 80.8489V81.3909C13.1055 82.8608 14.2971 84.0524 15.767 84.0524H23.418C24.8879 84.0524 26.0795 82.8608 26.0795 81.3909V80.8489C26.0795 79.379 24.8879 78.1874 23.418 78.1874Z" fill="#004358"/>
<path d="M23.1191 78.1874H16.0588C14.704 78.1874 13.6057 79.2856 13.6057 80.6404V81.1477C13.6057 82.5025 14.704 83.6007 16.0588 83.6007H23.1191C24.4738 83.6007 25.5721 82.5025 25.5721 81.1477V80.6404C25.5721 79.2856 24.4738 78.1874 23.1191 78.1874Z" fill="#04B54C"/>
<path d="M28.5811 78.1874H27.1704C26.4335 78.1874 25.8362 78.7847 25.8362 79.5216V81.5716C25.8362 82.3085 26.4335 82.9058 27.1704 82.9058H28.5811C29.318 82.9058 29.9153 82.3085 29.9153 81.5716V79.5216C29.9153 78.7847 29.318 78.1874 28.5811 78.1874Z" fill="#004358"/>
<path d="M12.8483 39.036H11.9935V39.8908H12.8483V39.036Z" fill="#FFE11A"/>
<path d="M14.4953 39.036H13.6405V39.8908H14.4953V39.036Z" fill="#FFE11A"/>
<path d="M16.1422 39.036H15.2875V39.8908H16.1422V39.036Z" fill="#FFE11A"/>
<path d="M17.7892 39.036H16.9344V39.8908H17.7892V39.036Z" fill="#FFE11A"/>
<path d="M19.4361 39.036H18.5813V39.8908H19.4361V39.036Z" fill="#FFE11A"/>
<path d="M21.083 39.036H20.2283V39.8908H21.083V39.036Z" fill="#FFE11A"/>
<path d="M22.73 39.036H21.8752V39.8908H22.73V39.036Z" fill="#FFE11A"/>
<path d="M24.377 39.036H23.5222V39.8908H24.377V39.036Z" fill="#FFE11A"/>
<path d="M26.0238 39.036H25.1691V39.8908H26.0238V39.036Z" fill="#FFE11A"/>
<path d="M27.6708 39.036H26.816V39.8908H27.6708V39.036Z" fill="#FFE11A"/>
<path d="M29.3178 39.036H28.463V39.8908H29.3178V39.036Z" fill="#FFE11A"/>
<path d="M30.9647 39.036H30.11V39.8908H30.9647V39.036Z" fill="#FFE11A"/>
<path d="M21.4791 81.9885H30.4921L38.8311 57.4373V52.7883L32.9312 39.6475H21.4791H10.0269L4.12708 52.7883V57.4373L12.466 81.9885H21.4791Z" fill="#04B54C"/>
<path d="M30.4921 81.9885L38.8311 57.4373V52.7883L32.9313 39.6475H28.324L31.5831 52.7883V57.4373L25.8362 81.9885H30.4921Z" fill="#278F51"/>
<path d="M21.4791 81.9885H23.272L27.2955 57.4373V52.7883L24.9675 39.6475H21.4791H13.5084L9.40149 52.7883V57.4373L15.204 81.9885H21.4791Z" fill="#1BD065"/>
<path d="M23.689 78.1874H19.2624C18.0803 78.1874 17.1221 79.1456 17.1221 80.3277V81.6967C17.1221 82.8788 18.0803 83.837 19.2624 83.837H23.689C24.8711 83.837 25.8293 82.8788 25.8293 81.6967V80.3277C25.8293 79.1456 24.8711 78.1874 23.689 78.1874Z" fill="#FFBA1A"/>
<path d="M23.4388 78.514H19.5194C18.4755 78.514 17.6293 79.3603 17.6293 80.4042V81.6203C17.6293 82.6642 18.4755 83.5105 19.5194 83.5105H23.4388C24.4827 83.5105 25.3289 82.6642 25.3289 81.6203V80.4042C25.3289 79.3603 24.4827 78.514 23.4388 78.514Z" fill="#FD7400"/>
<path d="M22.3617 79.1116H19.3874C18.593 79.1116 17.949 79.7556 17.949 80.55V81.4673C17.949 82.2618 18.593 82.9058 19.3874 82.9058H22.3617C23.1561 82.9058 23.8001 82.2618 23.8001 81.4673V80.55C23.8001 79.7556 23.1561 79.1116 22.3617 79.1116Z" fill="#004358"/>
<path d="M27.0315 82.1345C26.9962 82.1354 26.9611 82.1293 26.9283 82.1164C26.8955 82.1036 26.8655 82.0843 26.8403 82.0597C26.815 82.035 26.7949 82.0056 26.7812 81.9731C26.7675 81.9406 26.7605 81.9057 26.7605 81.8704V79.9803C26.7888 79.2991 26.547 78.6343 26.0875 78.1307C25.6281 77.627 24.9883 77.3252 24.3074 77.2909H18.6508C17.97 77.3252 17.3302 77.627 16.8707 78.1307C16.4113 78.6343 16.1694 79.2991 16.1978 79.9803V81.8843C16.1875 81.9479 16.1549 82.0057 16.1059 82.0474C16.0569 82.0892 15.9946 82.1121 15.9302 82.1121C15.8659 82.1121 15.8036 82.0892 15.7546 82.0474C15.7056 82.0057 15.673 81.9479 15.6627 81.8843V79.9803C15.6326 79.1568 15.9303 78.3549 16.4904 77.7505C17.0505 77.1461 17.8274 76.7884 18.6508 76.7559H24.3074C25.1308 76.7884 25.9078 77.1461 26.4679 77.7505C27.028 78.3549 27.3256 79.1568 27.2956 79.9803V81.8843C27.292 81.9519 27.2626 82.0156 27.2135 82.0621C27.1643 82.1087 27.0992 82.1346 27.0315 82.1345Z" fill="#004358"/>
<path d="M39.4288 52.7883H3.52954V53.4624H39.4288V52.7883Z" fill="#004358"/>
<path d="M39.4288 56.7355H3.52954V57.4095H39.4288V56.7355Z" fill="#004358"/>
</g>
<defs>
<filter id="filter0_d_16_25877" x="0" y="0" width="49" height="88.0525" filterUnits="userSpaceOnUse" color-interpolation-filters="sRGB">
<feFlood flood-opacity="0" result="BackgroundImageFix"/>
<feColorMatrix in="SourceAlpha" type="matrix" values="0 0 0 0 0 0 0 0 0 0 0 0 0 0 0 0 0 0 127 0" result="hardAlpha"/>
<feOffset dx="3"/>
<feGaussianBlur stdDeviation="2"/>
<feComposite in2="hardAlpha" operator="out"/>
<feColorMatrix type="matrix" values="0 0 0 0 0 0 0 0 0 0 0 0 0 0 0 0 0 0 0.25 0"/>
<feBlend mode="normal" in2="BackgroundImageFix" result="effect1_dropShadow_16_25877"/>
<feBlend mode="normal" in="SourceGraphic" in2="effect1_dropShadow_16_25877" result="shape"/>
</filter>
</defs>
</svg>
