<svg width="50" height="150" viewBox="0 0 50 150" fill="none" xmlns="http://www.w3.org/2000/svg">
<g filter="url(#filter0_d_2_943)">
<path d="M34.4941 29.2549L38.4477 29.2549C38.6348 29.2549 38.8143 29.1805 38.9467 29.0482C39.079 28.9159 39.1533 28.7364 39.1533 28.5492L39.1533 19.7012C39.1533 19.5141 39.079 19.3346 38.9467 19.2023C38.8143 19.0699 38.6348 18.9956 38.4477 18.9956L34.4941 18.9956L34.4941 29.2549Z" fill="#3B464E"/>
<path d="M38.09 29.2549L34.4941 29.2549L34.4941 18.9988L38.09 18.9988L38.09 29.2549Z" fill="#222B32"/>
<path d="M8.89758 18.9988L4.94402 18.9988C4.75687 18.9988 4.57738 19.0731 4.44505 19.2055C4.31271 19.3378 4.23838 19.5173 4.23838 19.7044L4.23838 28.5524C4.23838 28.7396 4.31271 28.919 4.44505 29.0514C4.57738 29.1837 4.75688 29.2581 4.94402 29.2581L8.89758 29.2581L8.89758 18.9988Z" fill="#3B464E"/>
<path d="M5.29826 18.9988L8.89417 18.9988L8.89417 29.2548L5.29826 29.2548L5.29826 18.9988Z" fill="#222B32"/>
<path d="M38.2607 30.2343L38.2607 8.66533C38.2616 7.76789 38.0855 6.8791 37.7425 6.04977C37.3996 5.22044 36.8965 4.46685 36.2621 3.83211C35.6277 3.19737 34.8743 2.69394 34.0451 2.3506C33.216 2.00727 32.3272 1.83076 31.4298 1.83118L11.981 1.83119C11.0835 1.83076 10.1948 2.00727 9.36565 2.3506C8.53649 2.69394 7.78314 3.19737 7.14871 3.83211C6.51427 4.46685 6.01119 5.22044 5.66824 6.04977C5.32529 6.8791 5.1492 7.7679 5.15005 8.66534L5.15005 30.2343C5.14963 30.491 5.19983 30.7453 5.29777 30.9826C5.39571 31.2198 5.53946 31.4355 5.72082 31.6171C5.90218 31.7988 6.11758 31.9429 6.3547 32.0412C6.59181 32.1395 6.84597 32.1902 7.10267 32.1902L36.2952 32.1902C36.5529 32.1914 36.8083 32.1418 37.0467 32.0441C37.2851 31.9464 37.5018 31.8025 37.6845 31.6207C37.8671 31.439 38.012 31.223 38.1109 30.985C38.2098 30.7471 38.2607 30.492 38.2607 30.2343Z" fill="#2C2A2A"/>
<path d="M9.52904 29.6577L33.8626 29.6577C34.295 29.6577 34.7097 29.4859 35.0155 29.1801C35.3212 28.8744 35.493 28.4597 35.493 28.0273L35.493 10.0542C35.493 8.54417 34.8932 7.096 33.8254 6.02826C32.7577 4.96052 31.3095 4.36066 29.7995 4.36066L13.5857 4.36066C12.0774 4.36323 10.6317 4.96421 9.56603 6.03168C8.50038 7.09914 7.90185 8.54584 7.90185 10.0542L7.90186 28.0305C7.90186 28.2446 7.94403 28.4566 8.02597 28.6544C8.10791 28.8522 8.228 29.032 8.37939 29.1834C8.53079 29.3347 8.71052 29.4548 8.90833 29.5368C9.10614 29.6187 9.31816 29.6609 9.53227 29.6609L9.52904 29.6577Z" fill="#574D4D"/>
<path d="M35.6025 119.909L39.9299 119.909C40.1247 119.909 40.3116 119.832 40.4493 119.694C40.5871 119.556 40.6645 119.37 40.6645 119.175L40.6645 110.398C40.6645 110.203 40.5871 110.016 40.4493 109.878C40.3116 109.74 40.1247 109.663 39.9299 109.663L35.6025 109.663L35.6025 119.909Z" fill="#3B464E"/>
<path d="M39.511 119.909L35.6025 119.909L35.6025 109.653L39.511 109.653L39.511 119.909Z" fill="#222B32"/>
<path d="M7.78577 109.657L3.45844 109.657C3.2636 109.657 3.07674 109.734 2.93896 109.872C2.80119 110.01 2.72379 110.197 2.72379 110.391L2.72379 119.178C2.72379 119.373 2.80119 119.56 2.93896 119.698C3.07674 119.835 3.2636 119.913 3.45844 119.913L7.78577 119.913L7.78577 109.657Z" fill="#3B464E"/>
<path d="M3.88061 109.657L7.78906 109.657L7.78906 119.913L3.88061 119.913L3.88061 109.657Z" fill="#222B32"/>
<path d="M35.6025 108.02L39.9299 108.02C40.1247 108.02 40.3116 107.942 40.4493 107.805C40.5871 107.667 40.6645 107.48 40.6645 107.285L40.6645 98.508C40.6645 98.3132 40.5871 98.1263 40.4493 97.9886C40.3116 97.8508 40.1247 97.7734 39.9299 97.7734L35.6025 97.7734L35.6025 108.02Z" fill="#3B464E"/>
<path d="M39.511 108.02L35.6025 108.02L35.6025 97.7637L39.511 97.7637L39.511 108.02Z" fill="#222B32"/>
<path d="M7.78577 97.7639L3.45843 97.7639C3.26359 97.7639 3.07674 97.8413 2.93896 97.9791C2.80119 98.1169 2.72379 98.3037 2.72379 98.4986L2.72379 107.285C2.72379 107.48 2.80119 107.667 2.93896 107.805C3.07674 107.943 3.26359 108.02 3.45843 108.02L7.78577 108.02L7.78577 97.7639Z" fill="#3B464E"/>
<path d="M3.87732 97.7639L7.78577 97.7639L7.78577 108.02L3.87732 108.02L3.87732 97.7639Z" fill="#222B32"/>
<path d="M39.511 133.848L3.87738 133.848C3.87738 134.332 3.97266 134.811 4.15778 135.257C4.3429 135.704 4.61423 136.11 4.95626 136.451C5.29829 136.793 5.70432 137.064 6.15113 137.249C6.59794 137.434 7.07678 137.528 7.56028 137.528L35.8313 137.528C36.8072 137.528 37.7432 137.14 38.4332 136.45C39.1233 135.76 39.511 134.824 39.511 133.848Z" fill="#222B32"/>
<path d="M5.46912 133.848L37.9128 133.848L37.9128 133.726C37.9128 133.057 37.647 132.415 37.1739 131.942C36.7007 131.469 36.059 131.203 35.3899 131.203L8.00172 131.203C7.33259 131.203 6.69087 131.469 6.21773 131.942C5.74459 132.415 5.47878 133.057 5.47878 133.726L5.47878 133.848L5.46912 133.848Z" fill="#3B464E"/>
<path d="M35.6155 63.1743L39.9428 63.1743C40.1376 63.1743 40.3245 63.0969 40.4623 62.9591C40.6001 62.8214 40.6775 62.6345 40.6775 62.4397L40.6775 53.6626C40.6775 53.4677 40.6001 53.2809 40.4623 53.1431C40.3245 53.0053 40.1376 52.9279 39.9428 52.9279L35.6155 52.9279L35.6155 63.1743Z" fill="#3B464E"/>
<path d="M39.511 63.1743L35.6025 63.1743L35.6025 52.9182L39.511 52.9182L39.511 63.1743Z" fill="#222B32"/>
<path d="M7.77283 52.918L3.4455 52.918C3.25066 52.918 3.0638 52.9954 2.92602 53.1331C2.78825 53.2709 2.71085 53.4578 2.71085 53.6526L2.71085 62.4394C2.71085 62.6342 2.78825 62.8211 2.92602 62.9589C3.0638 63.0966 3.25066 63.174 3.4455 63.174L7.77283 63.174L7.77283 52.918Z" fill="#3B464E"/>
<path d="M3.87731 52.918L7.78577 52.918L7.78577 63.174L3.87731 63.174L3.87731 52.918Z" fill="#222B32"/>
<path d="M35.6057 51.2812L39.933 51.2812C40.1279 51.2812 40.3147 51.2039 40.4525 51.0661C40.5903 50.9283 40.6677 50.7414 40.6677 50.5466L40.6677 41.7695C40.6677 41.5747 40.5903 41.3878 40.4525 41.25C40.3147 41.1123 40.1279 41.0349 39.933 41.0349L35.6057 41.0349L35.6057 51.2812Z" fill="#3B464E"/>
<path d="M39.511 51.2812L35.6025 51.2812L35.6025 41.0252L39.511 41.0252L39.511 51.2812Z" fill="#222B32"/>
<path d="M7.78577 41.0251L3.45844 41.0251C3.2636 41.0251 3.07674 41.1026 2.93896 41.2403C2.80119 41.3781 2.72379 41.565 2.72379 41.7598L2.72379 50.5466C2.72379 50.7414 2.80119 50.9283 2.93896 51.066C3.07674 51.2038 3.2636 51.2812 3.45844 51.2812L7.78577 51.2812L7.78577 41.0251Z" fill="#3B464E"/>
<path d="M3.87731 41.0251L7.78577 41.0251L7.78577 51.2812L3.87731 51.2812L3.87731 41.0251Z" fill="#222B32"/>
<path d="M10.4795 28.6716L32.9185 28.6716C33.3167 28.6716 33.6986 28.5134 33.9802 28.2319C34.2618 27.9503 34.42 27.5683 34.42 27.1701L34.42 10.5987C34.42 9.20658 33.867 7.87151 32.8826 6.88716C31.8983 5.90281 30.5632 5.3498 29.1711 5.3498L14.2301 5.3498C13.5408 5.3498 12.8582 5.48557 12.2214 5.74935C11.5846 6.01313 11.006 6.39976 10.5186 6.88716C10.0312 7.37456 9.64453 7.95319 9.38075 8.59001C9.11697 9.22683 8.9812 9.90937 8.9812 10.5987L8.9812 27.1701C8.9812 27.5678 9.13896 27.9492 9.41985 28.2307C9.70074 28.5122 10.0818 28.6708 10.4795 28.6716Z" fill="#636363"/>
<path d="M15 19.9864C15 20.7494 15.7355 21.3653 16.6391 21.3653H25.9239C26.8294 21.3653 27.5638 20.7466 27.5638 19.9864V15.3789C27.5638 14.6159 26.8284 14 25.9239 14H16.6391C15.7345 14 15 14.6196 15 15.3789V19.9864Z" fill="black"/>
<path d="M31.0707 12.9001H31.0642C30.8749 10.3197 25.9365 8.25224 19.8711 8.25224C16.2592 8.25224 13.0472 8.98767 11 10.1239C11.7685 7.79352 16.4366 6 22.0856 6C28.1529 6 33.0885 8.06746 33.2779 10.6479H33.2843V26.5193H31.0707V12.9001Z" fill="black"/>
<path d="M32.8509 33.4823L10.5505 33.4823C10.1354 33.4832 9.73763 33.6484 9.44414 33.9419C9.15065 34.2354 8.9854 34.6332 8.98454 35.0483C8.9854 35.4634 9.15065 35.8612 9.44414 36.1547C9.73763 36.4481 10.1354 36.6134 10.5505 36.6143L32.8509 36.6143C33.266 36.6134 33.6638 36.4481 33.9573 36.1547C34.2508 35.8612 34.416 35.4634 34.4169 35.0483C34.416 34.6332 34.2508 34.2354 33.9573 33.9419C33.6638 33.6484 33.266 33.4832 32.8509 33.4823Z" fill="#222B32"/>
<path d="M38.2607 125.651L38.2607 40.4936C38.2607 39.4681 37.8534 38.4847 37.1282 37.7595C36.4031 37.0344 35.4196 36.627 34.3942 36.627L9.03916 36.627C8.01369 36.627 7.03021 37.0344 6.30509 37.7595C5.57996 38.4847 5.1726 39.4681 5.1726 40.4936L5.1726 125.455C5.1726 134.412 12.2098 141.91 21.1641 142.21C23.3837 142.283 25.5952 141.909 27.6672 141.109C29.7391 140.31 31.6289 139.102 33.2241 137.557C34.8194 136.012 36.0874 134.161 36.9527 132.116C37.8179 130.071 38.2628 127.872 38.2607 125.651Z" fill="#636363"/>
<path d="M33.1957 36.6143L10.1929 36.6143L10.1929 32.187L33.1957 32.187L33.1957 36.6143Z" fill="#3B464E"/>
<path d="M30.8627 36.6143L12.5255 36.6143L12.5255 32.187L30.8627 32.187L30.8627 36.6143Z" fill="#222B32"/>
<path d="M29.661 35.6025L13.7307 35.6025L13.7307 33.1988L29.661 33.1988L29.661 35.6025Z" fill="#637079"/>
<path d="M27.2958 35.3223L24.8986 35.3223L24.8986 33.4824L27.2958 33.4824L27.2958 35.3223Z" fill="#7C8B96"/>
<path d="M24.3605 35.3191L21.9633 35.3191L21.9633 33.4793L24.3605 33.4793L24.3605 35.3191Z" fill="#7C8B96"/>
<path d="M21.4284 35.3223L19.0311 35.3223L19.0311 33.4824L21.4284 33.4824L21.4284 35.3223Z" fill="#7C8B96"/>
<path d="M18.493 35.3223L16.0957 35.3223L16.0957 33.4824L18.493 33.4824L18.493 35.3223Z" fill="#7C8B96"/>
<path d="M6.4519 20.4068L6.4519 10.8821C6.4519 10.5805 6.33207 10.2912 6.11877 10.0779C5.90546 9.86456 5.61615 9.74472 5.31449 9.74472L5.14049 9.74472L5.14049 21.5442L5.31449 21.5442C5.61615 21.5442 5.90546 21.4244 6.11877 21.2111C6.33207 20.9977 6.4519 20.7084 6.4519 20.4068Z" fill="#222B32"/>
<path d="M6.4519 23.587C6.4519 23.2853 6.33207 22.996 6.11877 22.7827C5.90546 22.5694 5.61615 22.4495 5.31449 22.4495L5.14049 22.4495L5.14049 24.7244L5.31449 24.7244C5.61563 24.7227 5.90396 24.6023 6.1169 24.3894C6.32984 24.1764 6.45021 23.8881 6.4519 23.587Z" fill="#222B32"/>
<path d="M38.2607 21.5442L38.2607 9.74472L38.177 9.74472C37.8753 9.74472 37.586 9.86456 37.3727 10.0779C37.1594 10.2912 37.0395 10.5805 37.0395 10.8821L37.0395 20.4068C37.0395 20.7084 37.1594 20.9977 37.3727 21.2111C37.586 21.4244 37.8753 21.5442 38.177 21.5442L38.2607 21.5442Z" fill="#222B32"/>
<path d="M29.4708 0.999984L14.4589 0.999984C14.3496 0.999558 14.2413 1.02077 14.1402 1.0624C14.0392 1.10402 13.9474 1.16524 13.8701 1.24252C13.7928 1.3198 13.7316 1.41161 13.69 1.51266C13.6484 1.61371 13.6271 1.722 13.6276 1.83129C13.6276 2.05177 13.7152 2.26322 13.8711 2.41912C14.027 2.57502 14.2384 2.6626 14.4589 2.6626L29.4708 2.6626C29.691 2.66175 29.902 2.57389 30.0577 2.41817C30.2134 2.26246 30.3013 2.05151 30.3021 1.83129C30.3021 1.61081 30.2145 1.39936 30.0586 1.24346C29.9027 1.08756 29.6913 0.999984 29.4708 0.999984Z" fill="#3B464E"/>
<path d="M38.2607 24.7244L38.2607 22.4495L38.177 22.4495C37.8753 22.4495 37.586 22.5694 37.3727 22.7827C37.1594 22.996 37.0395 23.2853 37.0395 23.587C37.0395 23.8886 37.1594 24.1779 37.3727 24.3912C37.586 24.6045 37.8753 24.7244 38.177 24.7244L38.2607 24.7244Z" fill="#222B32"/>
<path d="M34.0108 2.34014C33.1929 2.00452 32.3173 1.8316 31.4331 1.83105L11.9843 1.83105C11.1002 1.83185 10.2247 2.00476 9.4066 2.34014C17.5738 3.52594 25.8694 3.52594 34.0366 2.34014L34.0108 2.34014Z" fill="#222B32"/>
<path d="M4.39613 7.86304L1.41888 7.86304C1.18754 7.86304 1 7.67549 1 7.44415L1 7.13161C1 6.90027 1.18754 6.71273 1.41888 6.71273L4.39613 6.71273C4.62747 6.71273 4.81501 6.90027 4.81501 7.13161L4.81501 7.44415C4.81501 7.67549 4.62747 7.86304 4.39613 7.86304Z" fill="#2C2A2A"/>
<path d="M6.12314 6.18105L3.33598 6.18105C3.22232 6.18105 3.11333 6.2262 3.03296 6.30657C2.95259 6.38694 2.90744 6.49593 2.90744 6.60959C2.90829 6.72269 2.95381 6.83087 3.03409 6.91054C3.11437 6.99021 3.22288 7.03492 3.33598 7.03491L6.12314 7.03491C6.23594 7.03491 6.34412 6.9901 6.42388 6.91034C6.50365 6.83057 6.54845 6.72239 6.54845 6.60959C6.54887 6.55346 6.53819 6.49781 6.517 6.44584C6.49582 6.39386 6.46456 6.34659 6.42502 6.30676C6.38549 6.26692 6.33845 6.23531 6.28664 6.21373C6.23483 6.19216 6.17926 6.18105 6.12314 6.18105Z" fill="#636363"/>
<path d="M38.9955 6.71265L41.9727 6.71265C42.2041 6.71265 42.3916 6.90018 42.3916 7.13152L42.3916 7.44407C42.3916 7.67541 42.2041 7.86295 41.9727 7.86295L38.9955 7.86295C38.7641 7.86295 38.5766 7.67541 38.5766 7.44407L38.5766 7.13152C38.5766 6.90018 38.7641 6.71265 38.9955 6.71265Z" fill="#2C2A2A"/>
<path d="M37.2683 6.18105L40.0555 6.18105C40.1691 6.18105 40.2781 6.2262 40.3585 6.30657C40.4389 6.38694 40.484 6.49593 40.484 6.60959C40.4832 6.72269 40.4376 6.83087 40.3574 6.91054C40.2771 6.99021 40.1686 7.03492 40.0555 7.03491L37.2683 7.03491C37.1552 7.03492 37.0467 6.99021 36.9664 6.91054C36.8861 6.83087 36.8406 6.72269 36.8398 6.60959C36.8398 6.49593 36.8849 6.38694 36.9653 6.30657C37.0457 6.2262 37.1547 6.18105 37.2683 6.18105Z" fill="#636363"/>
<path d="M7.78905 30.3569C7.78905 30.2337 7.7525 30.1134 7.68403 30.0111C7.61555 29.9087 7.51823 29.829 7.40441 29.782C7.29059 29.7351 7.16539 29.7229 7.04467 29.7472C6.92395 29.7715 6.81315 29.831 6.72631 29.9183C6.63947 30.0056 6.5805 30.1167 6.55687 30.2375C6.53324 30.3584 6.54601 30.4835 6.59358 30.5971C6.64114 30.7107 6.72135 30.8076 6.82404 30.8755C6.92672 30.9435 7.04728 30.9794 7.17041 30.9788C7.25192 30.9788 7.33263 30.9626 7.4079 30.9314C7.48317 30.9001 7.55151 30.8542 7.609 30.7964C7.66649 30.7386 7.712 30.67 7.7429 30.5946C7.7738 30.5192 7.78948 30.4384 7.78905 30.3569Z" fill="#D32F2F"/>
<path d="M36.6851 30.9755C36.8079 30.9854 36.9309 30.9586 37.0385 30.8985C37.1461 30.8383 37.2334 30.7476 37.2893 30.6377C37.3452 30.5279 37.3672 30.4039 37.3525 30.2815C37.3378 30.1591 37.2871 30.0439 37.2067 29.9504C37.1264 29.8569 37.0201 29.7894 36.9014 29.7564C36.7826 29.7235 36.6567 29.7266 36.5397 29.7653C36.4227 29.804 36.3198 29.8766 36.2441 29.9739C36.1685 30.0712 36.1234 30.1888 36.1147 30.3118C36.1032 30.4752 36.1566 30.6366 36.2634 30.7609C36.3702 30.8852 36.5217 30.9623 36.6851 30.9755Z" fill="#D32F2F"/>
<path d="M20.4256 100.699C23.4648 100.209 26.3264 102.275 26.817 105.314C27.3076 108.353 25.2415 111.215 22.2023 111.705C19.163 112.196 16.3015 110.13 15.8109 107.091C15.3203 104.051 17.3863 101.19 20.4256 100.699Z" fill="#3B464E"/>
<path d="M20.568 101.611C23.103 101.202 25.4901 102.925 25.8998 105.46C26.3094 107.995 24.5865 110.382 22.0515 110.791C19.5166 111.201 17.1294 109.478 16.7198 106.943C16.3101 104.408 18.033 102.021 20.568 101.611Z" fill="#222B32"/>
<path d="M17.6813 104.679C18.5212 102.669 20.8312 101.72 22.841 102.56C24.8507 103.4 25.799 105.71 24.9592 107.72C24.1193 109.73 21.8093 110.678 19.7996 109.838C17.7898 108.998 16.8415 106.688 17.6813 104.679Z" fill="#637079"/>
<path d="M26.8963 105.452L25.05 105.452C24.8509 105.452 24.6599 105.531 24.5191 105.672C24.3783 105.813 24.2992 106.004 24.2992 106.203C24.2979 106.302 24.3164 106.401 24.3536 106.493C24.3907 106.585 24.4458 106.669 24.5157 106.74C24.5855 106.811 24.6687 106.867 24.7604 106.905C24.8521 106.943 24.9506 106.963 25.05 106.963L26.9059 106.963C27.105 106.963 27.296 106.884 27.4368 106.743C27.5776 106.602 27.6567 106.411 27.6567 106.212C27.658 106.112 27.6392 106.013 27.6014 105.92C27.5637 105.827 27.5077 105.743 27.4368 105.672C27.366 105.601 27.2816 105.545 27.1888 105.507C27.0959 105.469 26.9965 105.451 26.8963 105.452Z" fill="#929FA9"/>
<path d="M15.7445 64.9753C15.7445 61.8967 18.2402 59.401 21.3188 59.401C24.3974 59.401 26.8931 61.8967 26.8931 64.9753C26.8931 68.0539 24.3974 70.5496 21.3188 70.5496C18.2402 70.5496 15.7445 68.0539 15.7445 64.9753Z" fill="#3B464E"/>
<path d="M20.5684 60.38C23.1033 59.9703 25.4905 61.6932 25.9001 64.2282C26.3098 66.7632 24.5869 69.1503 22.0519 69.56C19.5169 69.9697 17.1298 68.2468 16.7201 65.7118C16.3105 63.1768 18.0334 60.7897 20.5684 60.38Z" fill="#222B32"/>
<path d="M17.6832 63.4527C18.523 61.443 20.8331 60.4946 22.8428 61.3345C24.8525 62.1744 25.8009 64.4844 24.961 66.4941C24.1211 68.5039 21.8111 69.4522 19.8014 68.6124C17.7917 67.7725 16.8433 65.4624 17.6832 63.4527Z" fill="#637079"/>
<path d="M26.8963 64.2247L25.05 64.2247C24.8509 64.2247 24.66 64.3038 24.5192 64.4445C24.3784 64.5853 24.2993 64.7763 24.2993 64.9754C24.301 65.1734 24.3808 65.3627 24.5214 65.5021C24.662 65.6415 24.852 65.7197 25.05 65.7197L26.906 65.7197C27.1051 65.7197 27.2961 65.6406 27.4368 65.4998C27.5776 65.359 27.6567 65.1681 27.6567 64.969C27.6542 64.7696 27.5727 64.5793 27.4302 64.4398C27.2877 64.3003 27.0957 64.2229 26.8963 64.2247Z" fill="#929FA9"/>
<path d="M38.2511 54.2683L38.2511 56.0244L5.14042 56.0244L5.14042 54.2683L38.2511 54.2683Z" fill="#1B1C1C"/>
<path d="M38.2511 74.6871L38.2511 76.4431L5.14042 76.4431L5.14042 74.6871L38.2511 74.6871Z" fill="#1B1C1C"/>
<path d="M38.2511 95.1055L38.2511 96.8616L5.14042 96.8616L5.14042 95.1055L38.2511 95.1055Z" fill="#1B1C1C"/>
<path d="M38.2511 115.524L38.2511 117.281L5.14042 117.281L5.14042 115.524L38.2511 115.524Z" fill="#1B1C1C"/>
<path d="M10.7502 44.7209C10.2793 44.7209 9.82774 44.908 9.49479 45.2409C9.16183 45.5739 8.97478 46.0255 8.97478 46.4963L8.97478 126.251C8.97478 126.722 9.16173 127.174 9.49459 127.507C9.82745 127.841 10.279 128.028 10.7502 128.029C11.2219 128.029 11.6743 127.842 12.0079 127.508C12.3414 127.175 12.5288 126.722 12.5288 126.251L12.5288 46.4963C12.528 46.0252 12.3402 45.5736 12.0067 45.2407C11.6732 44.9079 11.2213 44.7209 10.7502 44.7209Z" fill="#1B1C1C"/>
<path d="M32.5672 106.963C32.0964 106.963 31.6448 107.15 31.3119 107.483C30.9789 107.816 30.7919 108.267 30.7919 108.738L30.7919 126.251C30.7914 126.484 30.837 126.715 30.9261 126.931C31.0151 127.147 31.1458 127.343 31.3107 127.508C31.4756 127.673 31.6715 127.804 31.8871 127.894C32.1027 127.983 32.3338 128.029 32.5673 128.029C33.0384 128.028 33.49 127.841 33.8228 127.507C34.1557 127.174 34.3427 126.722 34.3427 126.251L34.3427 108.729C34.3401 108.26 34.1519 107.81 33.8192 107.48C33.4866 107.149 33.0364 106.963 32.5672 106.963Z" fill="black"/>
<path d="M32.5672 66.5993C32.3338 66.5993 32.1027 66.6453 31.8871 66.7348C31.6715 66.8242 31.4756 66.9552 31.3107 67.1204C31.1458 67.2856 31.0151 67.4817 30.9261 67.6975C30.837 67.9133 30.7914 68.1445 30.7919 68.3779L30.7919 85.8999C30.7919 86.3708 30.9789 86.8223 31.3119 87.1553C31.6448 87.4882 32.0964 87.6753 32.5673 87.6753C33.0381 87.6753 33.4897 87.4882 33.8227 87.1553C34.1556 86.8223 34.3427 86.3708 34.3427 85.8999L34.3427 68.3779C34.3427 67.9068 34.1557 67.4548 33.8228 67.1214C33.49 66.7879 33.0384 66.6002 32.5672 66.5993Z" fill="black"/>
<path d="M32.5673 55.1447C32.0964 55.1447 31.6448 55.3318 31.3119 55.6648C30.9789 55.9977 30.7919 56.4493 30.7919 56.9201L30.7919 61.3989C30.7919 61.8698 30.9789 62.3214 31.3119 62.6543C31.6448 62.9873 32.0964 63.1743 32.5673 63.1743C33.0381 63.1743 33.4897 62.9873 33.8227 62.6543C34.1556 62.3214 34.3427 61.8698 34.3427 61.3989L34.3427 56.9201C34.3427 56.4493 34.1556 55.9977 33.8227 55.6648C33.4897 55.3318 33.0381 55.1447 32.5673 55.1447Z" fill="black"/>
</g>
<defs>
<filter id="filter0_d_2_943" x="0" y="0" width="49.3916" height="149.219" filterUnits="userSpaceOnUse" color-interpolation-filters="sRGB">
<feFlood flood-opacity="0" result="BackgroundImageFix"/>
<feColorMatrix in="SourceAlpha" type="matrix" values="0 0 0 0 0 0 0 0 0 0 0 0 0 0 0 0 0 0 127 0" result="hardAlpha"/>
<feOffset dx="3" dy="3"/>
<feGaussianBlur stdDeviation="2"/>
<feComposite in2="hardAlpha" operator="out"/>
<feColorMatrix type="matrix" values="0 0 0 0 0 0 0 0 0 0 0 0 0 0 0 0 0 0 0.25 0"/>
<feBlend mode="normal" in2="BackgroundImageFix" result="effect1_dropShadow_2_943"/>
<feBlend mode="normal" in="SourceGraphic" in2="effect1_dropShadow_2_943" result="shape"/>
</filter>
</defs>
</svg>
