<svg width="47" height="108" viewBox="0 0 47 108" fill="none" xmlns="http://www.w3.org/2000/svg">
<g filter="url(#filter0_d_16_28412)">
<path d="M2.35254 70.05L4.63254 72.5601L4.80254 70.05H2.35254Z" fill="#010101"/>
<path d="M37.7227 70.05L35.4427 72.5601L35.2727 70.05H37.7227Z" fill="#010101"/>
<path d="M29.3325 59.4099H32.6725L32.7725 56.4299H29.4325L29.3325 59.4099Z" fill="black"/>
<path d="M35.3525 52.77H35.0825V63.19H35.3525V52.77Z" fill="black"/>
<path d="M38.2326 51.71H36.1526C35.9071 51.7516 35.686 51.8833 35.5325 52.0794C35.379 52.2754 35.3041 52.5217 35.3226 52.77V62.92C35.3041 63.1683 35.379 63.4145 35.5325 63.6105C35.686 63.8066 35.9071 63.9383 36.1526 63.98H38.2326C38.478 63.9383 38.6992 63.8066 38.8527 63.6105C39.0062 63.4145 39.081 63.1683 39.0626 62.92V52.77C39.081 52.5217 39.0062 52.2754 38.8527 52.0794C38.6992 51.8833 38.478 51.7516 38.2326 51.71Z" fill="url(#paint0_linear_16_28412)"/>
<g style="mix-blend-mode:multiply">
<path d="M35.3226 52.7701H36.2726V52.0601H35.5826C35.4204 52.2618 35.3291 52.5113 35.3226 52.7701Z" fill="#636363"/>
</g>
<g style="mix-blend-mode:multiply">
<path d="M36.2726 53.77H35.2126V54.48H36.2726V53.77Z" fill="#636363"/>
</g>
<g style="mix-blend-mode:multiply">
<path d="M36.2726 55.48H35.2126V56.19H36.2726V55.48Z" fill="#636363"/>
</g>
<g style="mix-blend-mode:multiply">
<path d="M36.2726 57.1899H35.2126V57.8999H36.2726V57.1899Z" fill="#636363"/>
</g>
<g style="mix-blend-mode:multiply">
<path d="M36.2726 58.8999H35.2126V59.6099H36.2726V58.8999Z" fill="#636363"/>
</g>
<g style="mix-blend-mode:multiply">
<path d="M36.2726 60.6101H35.2126V61.3201H36.2726V60.6101Z" fill="#636363"/>
</g>
<g style="mix-blend-mode:multiply">
<path d="M36.2726 62.3101H35.2126V63.0201H36.2726V62.3101Z" fill="#636363"/>
</g>
<g style="mix-blend-mode:multiply">
<path d="M38.0027 52.0601V52.7701H39.0627C39.063 52.5166 38.9863 52.2689 38.8427 52.0601H38.0027Z" fill="#636363"/>
</g>
<g style="mix-blend-mode:multiply">
<path d="M39.0627 53.77H38.0027V54.48H39.0627V53.77Z" fill="#636363"/>
</g>
<g style="mix-blend-mode:multiply">
<path d="M39.0627 55.48H38.0027V56.19H39.0627V55.48Z" fill="#636363"/>
</g>
<g style="mix-blend-mode:multiply">
<path d="M39.0627 57.1899H38.0027V57.8999H39.0627V57.1899Z" fill="#636363"/>
</g>
<g style="mix-blend-mode:multiply">
<path d="M39.0627 58.8999H38.0027V59.6099H39.0627V58.8999Z" fill="#636363"/>
</g>
<g style="mix-blend-mode:multiply">
<path d="M39.0627 60.6101H38.0027V61.3201H39.0627V60.6101Z" fill="#636363"/>
</g>
<g style="mix-blend-mode:multiply">
<path d="M39.0627 62.3101H38.0027V63.0201H39.0627V62.3101Z" fill="#636363"/>
</g>
<g style="mix-blend-mode:multiply">
<path d="M37.7226 53.01H36.6626V53.72H37.7226V53.01Z" fill="#636363"/>
</g>
<g style="mix-blend-mode:multiply">
<path d="M37.7226 54.72H36.6626V55.43H37.7226V54.72Z" fill="#636363"/>
</g>
<g style="mix-blend-mode:multiply">
<path d="M37.7226 56.4299H36.6626V57.1399H37.7226V56.4299Z" fill="#636363"/>
</g>
<g style="mix-blend-mode:multiply">
<path d="M37.7226 58.1399H36.6626V58.8499H37.7226V58.1399Z" fill="#636363"/>
</g>
<g style="mix-blend-mode:multiply">
<path d="M37.7226 59.8501H36.6626V60.5601H37.7226V59.8501Z" fill="#636363"/>
</g>
<g style="mix-blend-mode:multiply">
<path d="M37.7226 61.55H36.6626V62.2601H37.7226V61.55Z" fill="#636363"/>
</g>
<g style="mix-blend-mode:screen">
<g style="mix-blend-mode:multiply">
<path d="M37.7226 52.0601H36.6626V52.7701H37.7226V52.0601Z" fill="#636363"/>
</g>
<g style="mix-blend-mode:multiply">
<path d="M37.7226 53.77H36.6626V54.48H37.7226V53.77Z" fill="#636363"/>
</g>
<g style="mix-blend-mode:multiply">
<path d="M37.7226 55.48H36.6626V56.19H37.7226V55.48Z" fill="#636363"/>
</g>
<g style="mix-blend-mode:multiply">
<path d="M37.7226 57.1899H36.6626V57.8999H37.7226V57.1899Z" fill="#636363"/>
</g>
<g style="mix-blend-mode:multiply">
<path d="M37.7226 58.9001H36.6626V59.6101H37.7226V58.9001Z" fill="#636363"/>
</g>
<g style="mix-blend-mode:multiply">
<path d="M37.7226 60.6101H36.6626V61.3201H37.7226V60.6101Z" fill="#636363"/>
</g>
<g style="mix-blend-mode:multiply">
<path d="M37.7226 62.3101H36.6626V63.0201H37.7226V62.3101Z" fill="#636363"/>
</g>
</g>
<g style="mix-blend-mode:screen">
<g style="mix-blend-mode:multiply">
<path d="M39.0627 53.01H38.0027V53.72H39.0627V53.01Z" fill="#636363"/>
</g>
<g style="mix-blend-mode:multiply">
<path d="M39.0627 54.72H38.0027V55.43H39.0627V54.72Z" fill="#636363"/>
</g>
<g style="mix-blend-mode:multiply">
<path d="M39.0627 56.4299H38.0027V57.1399H39.0627V56.4299Z" fill="#636363"/>
</g>
<g style="mix-blend-mode:multiply">
<path d="M39.0627 58.1401H38.0027V58.8501H39.0627V58.1401Z" fill="#636363"/>
</g>
<g style="mix-blend-mode:multiply">
<path d="M39.0627 59.8501H38.0027V60.5601H39.0627V59.8501Z" fill="#636363"/>
</g>
<g style="mix-blend-mode:multiply">
<path d="M39.0627 61.55H38.0027V62.2601H39.0627V61.55Z" fill="#636363"/>
</g>
</g>
<g style="mix-blend-mode:screen">
<g style="mix-blend-mode:multiply">
<path d="M36.2726 53.01H35.2126V53.72H36.2726V53.01Z" fill="#636363"/>
</g>
<g style="mix-blend-mode:multiply">
<path d="M36.2726 54.72H35.2126V55.43H36.2726V54.72Z" fill="#636363"/>
</g>
<g style="mix-blend-mode:multiply">
<path d="M36.2726 56.4299H35.2126V57.1399H36.2726V56.4299Z" fill="#636363"/>
</g>
<g style="mix-blend-mode:multiply">
<path d="M36.2726 58.1401H35.2126V58.8501H36.2726V58.1401Z" fill="#636363"/>
</g>
<g style="mix-blend-mode:multiply">
<path d="M36.2726 59.8501H35.2126V60.5601H36.2726V59.8501Z" fill="#636363"/>
</g>
<g style="mix-blend-mode:multiply">
<path d="M36.2726 61.55H35.2126V62.2601H36.2726V61.55Z" fill="#636363"/>
</g>
</g>
<path d="M34.2427 51.71H32.1727C31.9254 51.7494 31.7019 51.8801 31.5463 52.0764C31.3908 52.2727 31.3146 52.5202 31.3327 52.77V62.92C31.3146 63.1697 31.3908 63.4172 31.5463 63.6135C31.7019 63.8098 31.9254 63.9406 32.1727 63.98H34.2427C34.49 63.9406 34.7135 63.8098 34.8691 63.6135C35.0246 63.4172 35.1009 63.1697 35.0827 62.92V52.77C35.1009 52.5202 35.0246 52.2727 34.8691 52.0764C34.7135 51.8801 34.49 51.7494 34.2427 51.71Z" fill="url(#paint1_linear_16_28412)"/>
<g style="mix-blend-mode:multiply">
<path d="M31.3325 52.7701H32.3325V52.0601H31.5825C31.4282 52.2654 31.3409 52.5133 31.3325 52.7701Z" fill="#636363"/>
</g>
<g style="mix-blend-mode:multiply">
<path d="M32.2826 53.77H31.3226V54.48H32.2826V53.77Z" fill="#636363"/>
</g>
<g style="mix-blend-mode:multiply">
<path d="M32.2826 55.48H31.3226V56.19H32.2826V55.48Z" fill="#636363"/>
</g>
<g style="mix-blend-mode:multiply">
<path d="M32.2927 57.1899H31.2327V57.8999H32.2927V57.1899Z" fill="#636363"/>
</g>
<g style="mix-blend-mode:multiply">
<path d="M32.2825 58.8999H31.3325V59.6099H32.2825V58.8999Z" fill="#636363"/>
</g>
<g style="mix-blend-mode:multiply">
<path d="M32.2825 60.6101H31.3325V61.3201H32.2825V60.6101Z" fill="#636363"/>
</g>
<g style="mix-blend-mode:multiply">
<path d="M32.2825 62.3101H31.3325V63.0201H32.2825V62.3101Z" fill="#636363"/>
</g>
<g style="mix-blend-mode:multiply">
<path d="M34.0227 52.0601V52.7701H35.0827C35.0831 52.5166 35.0063 52.2689 34.8627 52.0601H34.0227Z" fill="#636363"/>
</g>
<g style="mix-blend-mode:multiply">
<path d="M35.0827 53.77H34.0227V54.48H35.0827V53.77Z" fill="#636363"/>
</g>
<g style="mix-blend-mode:multiply">
<path d="M35.0827 55.48H34.0227V56.19H35.0827V55.48Z" fill="#636363"/>
</g>
<g style="mix-blend-mode:multiply">
<path d="M35.0827 57.1899H34.0227V57.8999H35.0827V57.1899Z" fill="#636363"/>
</g>
<g style="mix-blend-mode:multiply">
<path d="M35.0827 58.8999H34.0227V59.6099H35.0827V58.8999Z" fill="#636363"/>
</g>
<g style="mix-blend-mode:multiply">
<path d="M35.0827 60.6101H34.0227V61.3201H35.0827V60.6101Z" fill="#636363"/>
</g>
<g style="mix-blend-mode:multiply">
<path d="M35.0827 62.3101H34.0227V63.0201H35.0827V62.3101Z" fill="#636363"/>
</g>
<g style="mix-blend-mode:multiply">
<path d="M33.7326 53.01H32.6726V53.72H33.7326V53.01Z" fill="#636363"/>
</g>
<g style="mix-blend-mode:multiply">
<path d="M33.7326 54.72H32.6726V55.43H33.7326V54.72Z" fill="#636363"/>
</g>
<g style="mix-blend-mode:multiply">
<path d="M33.7326 56.4299H32.6726V57.1399H33.7326V56.4299Z" fill="#636363"/>
</g>
<g style="mix-blend-mode:multiply">
<path d="M33.7326 58.1399H32.6726V58.8499H33.7326V58.1399Z" fill="#636363"/>
</g>
<g style="mix-blend-mode:multiply">
<path d="M33.7326 59.8501H32.6726V60.5601H33.7326V59.8501Z" fill="#636363"/>
</g>
<g style="mix-blend-mode:multiply">
<path d="M33.7326 61.55H32.6726V62.2601H33.7326V61.55Z" fill="#636363"/>
</g>
<g style="mix-blend-mode:screen">
<g style="mix-blend-mode:multiply">
<path d="M33.7326 52.0601H32.6726V52.7701H33.7326V52.0601Z" fill="#636363"/>
</g>
<g style="mix-blend-mode:multiply">
<path d="M33.7326 53.77H32.6726V54.48H33.7326V53.77Z" fill="#636363"/>
</g>
<g style="mix-blend-mode:multiply">
<path d="M33.7326 55.48H32.6726V56.19H33.7326V55.48Z" fill="#636363"/>
</g>
<g style="mix-blend-mode:multiply">
<path d="M33.7326 57.1899H32.6726V57.8999H33.7326V57.1899Z" fill="#636363"/>
</g>
<g style="mix-blend-mode:multiply">
<path d="M33.7326 58.9001H32.6726V59.6101H33.7326V58.9001Z" fill="#636363"/>
</g>
<g style="mix-blend-mode:multiply">
<path d="M33.7326 60.6101H32.6726V61.3201H33.7326V60.6101Z" fill="#636363"/>
</g>
<g style="mix-blend-mode:multiply">
<path d="M33.7326 62.3101H32.6726V63.0201H33.7326V62.3101Z" fill="#636363"/>
</g>
</g>
<g style="mix-blend-mode:screen">
<g style="mix-blend-mode:multiply">
<path d="M35.0827 53.01H34.0227V53.72H35.0827V53.01Z" fill="#636363"/>
</g>
<g style="mix-blend-mode:multiply">
<path d="M35.0827 54.72H34.0227V55.43H35.0827V54.72Z" fill="#636363"/>
</g>
<g style="mix-blend-mode:multiply">
<path d="M35.0827 56.4299H34.0227V57.1399H35.0827V56.4299Z" fill="#636363"/>
</g>
<g style="mix-blend-mode:multiply">
<path d="M35.0827 58.1401H34.0227V58.8501H35.0827V58.1401Z" fill="#636363"/>
</g>
<g style="mix-blend-mode:multiply">
<path d="M35.0827 59.8501H34.0227V60.5601H35.0827V59.8501Z" fill="#636363"/>
</g>
<g style="mix-blend-mode:multiply">
<path d="M35.0827 61.55H34.0227V62.2601H35.0827V61.55Z" fill="#636363"/>
</g>
</g>
<g style="mix-blend-mode:screen">
<g style="mix-blend-mode:multiply">
<path d="M32.2826 53.01H31.3226V53.72H32.2826V53.01Z" fill="#636363"/>
</g>
<g style="mix-blend-mode:multiply">
<path d="M32.2826 54.72H31.3226V55.43H32.2826V54.72Z" fill="#636363"/>
</g>
<g style="mix-blend-mode:multiply">
<path d="M32.2826 56.4299H31.3226V57.1399H32.2826V56.4299Z" fill="#636363"/>
</g>
<g style="mix-blend-mode:multiply">
<path d="M32.2927 58.1401H31.2327V58.8501H32.2927V58.1401Z" fill="#636363"/>
</g>
<g style="mix-blend-mode:multiply">
<path d="M32.2826 59.8501H31.3326V60.5601H32.2826V59.8501Z" fill="#636363"/>
</g>
<g style="mix-blend-mode:multiply">
<path d="M32.2826 61.55H31.3326V62.2601H32.2826V61.55Z" fill="#636363"/>
</g>
</g>
<path d="M26.4626 92.53H29.8026L29.9026 89.55H26.5626L26.4626 92.53Z" fill="black"/>
<path d="M32.4726 85.8899H32.2026V96.3099H32.4726V85.8899Z" fill="black"/>
<path d="M35.3526 84.8301H33.2826C33.0353 84.8695 32.8117 85.0003 32.6562 85.1965C32.5007 85.3928 32.4244 85.6403 32.4426 85.8901V96.0401C32.4244 96.2899 32.5007 96.5374 32.6562 96.7336C32.8117 96.9299 33.0353 97.0607 33.2826 97.1001H35.3526C35.5999 97.0607 35.8234 96.9299 35.9789 96.7336C36.1345 96.5374 36.2107 96.2899 36.1926 96.0401V85.8901C36.2107 85.6403 36.1345 85.3928 35.9789 85.1965C35.8234 85.0003 35.5999 84.8695 35.3526 84.8301Z" fill="url(#paint2_linear_16_28412)"/>
<g style="mix-blend-mode:multiply">
<path d="M32.4426 85.8899H33.4426V85.1799H32.7126C32.5468 85.3804 32.4519 85.63 32.4426 85.8899Z" fill="#636363"/>
</g>
<g style="mix-blend-mode:multiply">
<path d="M33.4025 86.8899H32.3425V87.5999H33.4025V86.8899Z" fill="#636363"/>
</g>
<g style="mix-blend-mode:multiply">
<path d="M33.4025 88.6001H32.3425V89.3101H33.4025V88.6001Z" fill="#636363"/>
</g>
<g style="mix-blend-mode:multiply">
<path d="M33.4025 90.3101H32.3425V91.0201H33.4025V90.3101Z" fill="#636363"/>
</g>
<g style="mix-blend-mode:multiply">
<path d="M33.4025 92.02H32.3425V92.73H33.4025V92.02Z" fill="#636363"/>
</g>
<g style="mix-blend-mode:multiply">
<path d="M33.4025 93.73H32.3425V94.44H33.4025V93.73Z" fill="#636363"/>
</g>
<g style="mix-blend-mode:multiply">
<path d="M33.4025 95.4399H32.3425V96.1499H33.4025V95.4399Z" fill="#636363"/>
</g>
<g style="mix-blend-mode:multiply">
<path d="M35.1326 85.1799V85.8899H36.1926C36.1929 85.6364 36.1162 85.3888 35.9726 85.1799H35.1326Z" fill="#636363"/>
</g>
<g style="mix-blend-mode:multiply">
<path d="M36.1926 86.8899H35.1326V87.5999H36.1926V86.8899Z" fill="#636363"/>
</g>
<g style="mix-blend-mode:multiply">
<path d="M36.1926 88.6001H35.1326V89.3101H36.1926V88.6001Z" fill="#636363"/>
</g>
<g style="mix-blend-mode:multiply">
<path d="M36.1926 90.3101H35.1326V91.0201H36.1926V90.3101Z" fill="#636363"/>
</g>
<g style="mix-blend-mode:multiply">
<path d="M36.1926 92.02H35.1326V92.73H36.1926V92.02Z" fill="#636363"/>
</g>
<g style="mix-blend-mode:multiply">
<path d="M36.1926 93.73H35.1326V94.44H36.1926V93.73Z" fill="#636363"/>
</g>
<g style="mix-blend-mode:multiply">
<path d="M36.1926 95.4399H35.1326V96.1499H36.1926V95.4399Z" fill="#636363"/>
</g>
<g style="mix-blend-mode:multiply">
<path d="M34.8526 86.1299H33.7926V86.8399H34.8526V86.1299Z" fill="#636363"/>
</g>
<g style="mix-blend-mode:multiply">
<path d="M34.8526 87.8401H33.7926V88.5501H34.8526V87.8401Z" fill="#636363"/>
</g>
<g style="mix-blend-mode:multiply">
<path d="M34.8526 89.55H33.7926V90.26H34.8526V89.55Z" fill="#636363"/>
</g>
<g style="mix-blend-mode:multiply">
<path d="M34.8526 91.26H33.7926V91.97H34.8526V91.26Z" fill="#636363"/>
</g>
<g style="mix-blend-mode:multiply">
<path d="M34.8526 92.97H33.7926V93.68H34.8526V92.97Z" fill="#636363"/>
</g>
<g style="mix-blend-mode:multiply">
<path d="M34.8526 94.6799H33.7926V95.39H34.8526V94.6799Z" fill="#636363"/>
</g>
<g style="mix-blend-mode:screen">
<g style="mix-blend-mode:multiply">
<path d="M34.8526 85.1799H33.7926V85.8899H34.8526V85.1799Z" fill="#636363"/>
</g>
<g style="mix-blend-mode:multiply">
<path d="M34.8526 86.8899H33.7926V87.5999H34.8526V86.8899Z" fill="#636363"/>
</g>
<g style="mix-blend-mode:multiply">
<path d="M34.8526 88.5999H33.7926V89.3098H34.8526V88.5999Z" fill="#636363"/>
</g>
<g style="mix-blend-mode:multiply">
<path d="M34.8526 90.3098H33.7926V91.0198H34.8526V90.3098Z" fill="#636363"/>
</g>
<g style="mix-blend-mode:multiply">
<path d="M34.8526 92.02H33.7926V92.73H34.8526V92.02Z" fill="#636363"/>
</g>
<g style="mix-blend-mode:multiply">
<path d="M34.8526 93.73H33.7926V94.44H34.8526V93.73Z" fill="#636363"/>
</g>
<g style="mix-blend-mode:multiply">
<path d="M34.8526 95.4399H33.7926V96.1499H34.8526V95.4399Z" fill="#636363"/>
</g>
</g>
<g style="mix-blend-mode:screen">
<g style="mix-blend-mode:multiply">
<path d="M36.1926 86.1299H35.1326V86.8399H36.1926V86.1299Z" fill="#636363"/>
</g>
<g style="mix-blend-mode:multiply">
<path d="M36.1926 87.8398H35.1326V88.5499H36.1926V87.8398Z" fill="#636363"/>
</g>
<g style="mix-blend-mode:multiply">
<path d="M36.1926 89.5498H35.1326V90.2598H36.1926V89.5498Z" fill="#636363"/>
</g>
<g style="mix-blend-mode:multiply">
<path d="M36.1926 91.2598H35.1326V91.9698H36.1926V91.2598Z" fill="#636363"/>
</g>
<g style="mix-blend-mode:multiply">
<path d="M36.1926 92.97H35.1326V93.68H36.1926V92.97Z" fill="#636363"/>
</g>
<g style="mix-blend-mode:multiply">
<path d="M36.1926 94.6799H35.1326V95.39H36.1926V94.6799Z" fill="#636363"/>
</g>
</g>
<g style="mix-blend-mode:screen">
<g style="mix-blend-mode:multiply">
<path d="M33.4025 86.1299H32.3425V86.8399H33.4025V86.1299Z" fill="#636363"/>
</g>
<g style="mix-blend-mode:multiply">
<path d="M33.4025 87.8398H32.3425V88.5499H33.4025V87.8398Z" fill="#636363"/>
</g>
<g style="mix-blend-mode:multiply">
<path d="M33.4025 89.5498H32.3425V90.2598H33.4025V89.5498Z" fill="#636363"/>
</g>
<g style="mix-blend-mode:multiply">
<path d="M33.4025 91.2598H32.3425V91.9698H33.4025V91.2598Z" fill="#636363"/>
</g>
<g style="mix-blend-mode:multiply">
<path d="M33.4025 92.97H32.3425V93.68H33.4025V92.97Z" fill="#636363"/>
</g>
<g style="mix-blend-mode:multiply">
<path d="M33.4025 94.6799H32.3425V95.39H33.4025V94.6799Z" fill="#636363"/>
</g>
</g>
<path d="M31.3727 84.8301H29.2927C29.0472 84.8717 28.8261 85.0035 28.6726 85.1995C28.5191 85.3955 28.4443 85.6418 28.4627 85.8901V96.0401C28.4443 96.2884 28.5191 96.5346 28.6726 96.7307C28.8261 96.9267 29.0472 97.0584 29.2927 97.1001H31.3727C31.6182 97.0584 31.8393 96.9267 31.9928 96.7307C32.1463 96.5346 32.2211 96.2884 32.2027 96.0401V85.8901C32.2211 85.6418 32.1463 85.3955 31.9928 85.1995C31.8393 85.0035 31.6182 84.8717 31.3727 84.8301Z" fill="url(#paint3_linear_16_28412)"/>
<g style="mix-blend-mode:multiply">
<path d="M28.4626 85.8899H29.4626V85.1799H28.7326C28.5668 85.3804 28.4719 85.63 28.4626 85.8899Z" fill="#636363"/>
</g>
<g style="mix-blend-mode:multiply">
<path d="M29.4126 86.8899H28.4526V87.5999H29.4126V86.8899Z" fill="#636363"/>
</g>
<g style="mix-blend-mode:multiply">
<path d="M29.4126 88.6001H28.4526V89.3101H29.4126V88.6001Z" fill="#636363"/>
</g>
<g style="mix-blend-mode:multiply">
<path d="M29.4125 90.3101H28.3525V91.0201H29.4125V90.3101Z" fill="#636363"/>
</g>
<g style="mix-blend-mode:multiply">
<path d="M29.4226 92.02H28.4626V92.73H29.4226V92.02Z" fill="#636363"/>
</g>
<g style="mix-blend-mode:multiply">
<path d="M29.4226 93.73H28.4626V94.44H29.4226V93.73Z" fill="#636363"/>
</g>
<g style="mix-blend-mode:multiply">
<path d="M29.4226 95.4399H28.4626V96.1499H29.4226V95.4399Z" fill="#636363"/>
</g>
<g style="mix-blend-mode:multiply">
<path d="M31.1426 85.1799V85.8899H32.2026C32.2076 85.6358 32.1305 85.3867 31.9826 85.1799H31.1426Z" fill="#636363"/>
</g>
<g style="mix-blend-mode:multiply">
<path d="M32.2026 86.8899H31.1426V87.5999H32.2026V86.8899Z" fill="#636363"/>
</g>
<g style="mix-blend-mode:multiply">
<path d="M32.2026 88.6001H31.1426V89.3101H32.2026V88.6001Z" fill="#636363"/>
</g>
<g style="mix-blend-mode:multiply">
<path d="M32.2026 90.3101H31.1426V91.0201H32.2026V90.3101Z" fill="#636363"/>
</g>
<g style="mix-blend-mode:multiply">
<path d="M32.2026 92.02H31.1426V92.73H32.2026V92.02Z" fill="#636363"/>
</g>
<g style="mix-blend-mode:multiply">
<path d="M32.2026 93.73H31.1426V94.44H32.2026V93.73Z" fill="#636363"/>
</g>
<g style="mix-blend-mode:multiply">
<path d="M32.2026 95.4399H31.1426V96.1499H32.2026V95.4399Z" fill="#636363"/>
</g>
<g style="mix-blend-mode:multiply">
<path d="M30.8626 86.1299H29.8026V86.8399H30.8626V86.1299Z" fill="#636363"/>
</g>
<g style="mix-blend-mode:multiply">
<path d="M30.8626 87.8401H29.8026V88.5501H30.8626V87.8401Z" fill="#636363"/>
</g>
<g style="mix-blend-mode:multiply">
<path d="M30.8626 89.55H29.8026V90.26H30.8626V89.55Z" fill="#636363"/>
</g>
<g style="mix-blend-mode:multiply">
<path d="M30.8626 91.26H29.8026V91.97H30.8626V91.26Z" fill="#636363"/>
</g>
<g style="mix-blend-mode:multiply">
<path d="M30.8626 92.97H29.8026V93.68H30.8626V92.97Z" fill="#636363"/>
</g>
<g style="mix-blend-mode:multiply">
<path d="M30.8626 94.6799H29.8026V95.39H30.8626V94.6799Z" fill="#636363"/>
</g>
<g style="mix-blend-mode:screen">
<g style="mix-blend-mode:multiply">
<path d="M30.8626 85.1799H29.8026V85.8899H30.8626V85.1799Z" fill="#636363"/>
</g>
<g style="mix-blend-mode:multiply">
<path d="M30.8626 86.8899H29.8026V87.5999H30.8626V86.8899Z" fill="#636363"/>
</g>
<g style="mix-blend-mode:multiply">
<path d="M30.8626 88.5999H29.8026V89.3098H30.8626V88.5999Z" fill="#636363"/>
</g>
<g style="mix-blend-mode:multiply">
<path d="M30.8626 90.3098H29.8026V91.0198H30.8626V90.3098Z" fill="#636363"/>
</g>
<g style="mix-blend-mode:multiply">
<path d="M30.8626 92.02H29.8026V92.73H30.8626V92.02Z" fill="#636363"/>
</g>
<g style="mix-blend-mode:multiply">
<path d="M30.8626 93.73H29.8026V94.44H30.8626V93.73Z" fill="#636363"/>
</g>
<g style="mix-blend-mode:multiply">
<path d="M30.8626 95.4399H29.8026V96.1499H30.8626V95.4399Z" fill="#636363"/>
</g>
</g>
<g style="mix-blend-mode:screen">
<g style="mix-blend-mode:multiply">
<path d="M32.2026 86.1299H31.1426V86.8399H32.2026V86.1299Z" fill="#636363"/>
</g>
<g style="mix-blend-mode:multiply">
<path d="M32.2026 87.8398H31.1426V88.5499H32.2026V87.8398Z" fill="#636363"/>
</g>
<g style="mix-blend-mode:multiply">
<path d="M32.2026 89.5498H31.1426V90.2598H32.2026V89.5498Z" fill="#636363"/>
</g>
<g style="mix-blend-mode:multiply">
<path d="M32.2026 91.2598H31.1426V91.9698H32.2026V91.2598Z" fill="#636363"/>
</g>
<g style="mix-blend-mode:multiply">
<path d="M32.2026 92.97H31.1426V93.68H32.2026V92.97Z" fill="#636363"/>
</g>
<g style="mix-blend-mode:multiply">
<path d="M32.2026 94.6799H31.1426V95.39H32.2026V94.6799Z" fill="#636363"/>
</g>
</g>
<g style="mix-blend-mode:screen">
<g style="mix-blend-mode:multiply">
<path d="M29.4125 86.1299H28.4525V86.8399H29.4125V86.1299Z" fill="#636363"/>
</g>
<g style="mix-blend-mode:multiply">
<path d="M29.4125 87.8398H28.4525V88.5499H29.4125V87.8398Z" fill="#636363"/>
</g>
<g style="mix-blend-mode:multiply">
<path d="M29.4125 89.5498H28.4525V90.2598H29.4125V89.5498Z" fill="#636363"/>
</g>
<g style="mix-blend-mode:multiply">
<path d="M29.4125 91.2598H28.3525V91.9698H29.4125V91.2598Z" fill="#636363"/>
</g>
<g style="mix-blend-mode:multiply">
<path d="M29.4225 92.97H28.4625V93.68H29.4225V92.97Z" fill="#636363"/>
</g>
<g style="mix-blend-mode:multiply">
<path d="M29.4225 94.6799H28.4625V95.39H29.4225V94.6799Z" fill="#636363"/>
</g>
</g>
<path d="M13.6226 92.53H10.2926L10.1926 89.55H13.5326L13.6226 92.53Z" fill="black"/>
<path d="M7.88255 85.8899H7.61255V96.3099H7.88255V85.8899Z" fill="black"/>
<path d="M4.73264 84.8301H6.81264C7.05812 84.8717 7.27924 85.0035 7.43274 85.1995C7.58624 85.3955 7.66109 85.6418 7.64264 85.8901V96.0401C7.66109 96.2884 7.58624 96.5346 7.43274 96.7307C7.27924 96.9267 7.05812 97.0584 6.81264 97.1001H4.73264C4.48716 97.0584 4.26605 96.9267 4.11255 96.7307C3.95905 96.5346 3.88421 96.2884 3.90265 96.0401V85.8901C3.88421 85.6418 3.95905 85.3955 4.11255 85.1995C4.26605 85.0035 4.48716 84.8717 4.73264 84.8301Z" fill="url(#paint4_linear_16_28412)"/>
<g style="mix-blend-mode:multiply">
<path d="M7.64262 85.8899H6.69263V85.1799H7.42262C7.57053 85.3867 7.64769 85.6358 7.64262 85.8899Z" fill="#636363"/>
</g>
<g style="mix-blend-mode:multiply">
<path d="M7.75262 86.8899H6.69263V87.5999H7.75262V86.8899Z" fill="#636363"/>
</g>
<g style="mix-blend-mode:multiply">
<path d="M7.75262 88.6001H6.69263V89.3101H7.75262V88.6001Z" fill="#636363"/>
</g>
<g style="mix-blend-mode:multiply">
<path d="M7.75262 90.3101H6.69263V91.0201H7.75262V90.3101Z" fill="#636363"/>
</g>
<g style="mix-blend-mode:multiply">
<path d="M7.75262 92.02H6.69263V92.73H7.75262V92.02Z" fill="#636363"/>
</g>
<g style="mix-blend-mode:multiply">
<path d="M7.75262 93.73H6.69263V94.44H7.75262V93.73Z" fill="#636363"/>
</g>
<g style="mix-blend-mode:multiply">
<path d="M7.75262 95.4399H6.69263V96.1499H7.75262V95.4399Z" fill="#636363"/>
</g>
<g style="mix-blend-mode:multiply">
<path d="M4.96258 85.1799V85.8899H3.90258C3.89751 85.6358 3.97466 85.3867 4.12256 85.1799H4.96258Z" fill="#636363"/>
</g>
<g style="mix-blend-mode:multiply">
<path d="M4.96259 86.8899H3.90259V87.5999H4.96259V86.8899Z" fill="#636363"/>
</g>
<g style="mix-blend-mode:multiply">
<path d="M4.96259 88.6001H3.90259V89.3101H4.96259V88.6001Z" fill="#636363"/>
</g>
<g style="mix-blend-mode:multiply">
<path d="M4.96259 90.3101H3.90259V91.0201H4.96259V90.3101Z" fill="#636363"/>
</g>
<g style="mix-blend-mode:multiply">
<path d="M4.96259 92.02H3.90259V92.73H4.96259V92.02Z" fill="#636363"/>
</g>
<g style="mix-blend-mode:multiply">
<path d="M4.96259 93.73H3.90259V94.44H4.96259V93.73Z" fill="#636363"/>
</g>
<g style="mix-blend-mode:multiply">
<path d="M4.96259 95.4399H3.90259V96.1499H4.96259V95.4399Z" fill="#636363"/>
</g>
<g style="mix-blend-mode:multiply">
<path d="M6.30267 86.1299H5.24268V86.8399H6.30267V86.1299Z" fill="#636363"/>
</g>
<g style="mix-blend-mode:multiply">
<path d="M6.30267 87.8401H5.24268V88.5501H6.30267V87.8401Z" fill="#636363"/>
</g>
<g style="mix-blend-mode:multiply">
<path d="M6.30267 89.55H5.24268V90.26H6.30267V89.55Z" fill="#636363"/>
</g>
<g style="mix-blend-mode:multiply">
<path d="M6.30267 91.26H5.24268V91.97H6.30267V91.26Z" fill="#636363"/>
</g>
<g style="mix-blend-mode:multiply">
<path d="M6.30267 92.97H5.24268V93.68H6.30267V92.97Z" fill="#636363"/>
</g>
<g style="mix-blend-mode:multiply">
<path d="M6.30267 94.6799H5.24268V95.39H6.30267V94.6799Z" fill="#636363"/>
</g>
<g style="mix-blend-mode:screen">
<g style="mix-blend-mode:multiply">
<path d="M6.30267 85.1799H5.24268V85.8899H6.30267V85.1799Z" fill="#636363"/>
</g>
<g style="mix-blend-mode:multiply">
<path d="M6.30267 86.8899H5.24268V87.5999H6.30267V86.8899Z" fill="#636363"/>
</g>
<g style="mix-blend-mode:multiply">
<path d="M6.30267 88.5999H5.24268V89.3098H6.30267V88.5999Z" fill="#636363"/>
</g>
<g style="mix-blend-mode:multiply">
<path d="M6.30267 90.3098H5.24268V91.0198H6.30267V90.3098Z" fill="#636363"/>
</g>
<g style="mix-blend-mode:multiply">
<path d="M6.30267 92.02H5.24268V92.73H6.30267V92.02Z" fill="#636363"/>
</g>
<g style="mix-blend-mode:multiply">
<path d="M6.30267 93.73H5.24268V94.44H6.30267V93.73Z" fill="#636363"/>
</g>
<g style="mix-blend-mode:multiply">
<path d="M6.30267 95.4399H5.24268V96.1499H6.30267V95.4399Z" fill="#636363"/>
</g>
</g>
<g style="mix-blend-mode:screen">
<g style="mix-blend-mode:multiply">
<path d="M4.96259 86.1299H3.90259V86.8399H4.96259V86.1299Z" fill="#636363"/>
</g>
<g style="mix-blend-mode:multiply">
<path d="M4.96259 87.8398H3.90259V88.5499H4.96259V87.8398Z" fill="#636363"/>
</g>
<g style="mix-blend-mode:multiply">
<path d="M4.96259 89.5498H3.90259V90.2598H4.96259V89.5498Z" fill="#636363"/>
</g>
<g style="mix-blend-mode:multiply">
<path d="M4.96259 91.2598H3.90259V91.9698H4.96259V91.2598Z" fill="#636363"/>
</g>
<g style="mix-blend-mode:multiply">
<path d="M4.96259 92.97H3.90259V93.68H4.96259V92.97Z" fill="#636363"/>
</g>
<g style="mix-blend-mode:multiply">
<path d="M4.96259 94.6799H3.90259V95.39H4.96259V94.6799Z" fill="#636363"/>
</g>
</g>
<g style="mix-blend-mode:screen">
<g style="mix-blend-mode:multiply">
<path d="M7.75262 86.1299H6.69263V86.8399H7.75262V86.1299Z" fill="#636363"/>
</g>
<g style="mix-blend-mode:multiply">
<path d="M7.75262 87.8398H6.69263V88.5499H7.75262V87.8398Z" fill="#636363"/>
</g>
<g style="mix-blend-mode:multiply">
<path d="M7.75262 89.5498H6.69263V90.2598H7.75262V89.5498Z" fill="#636363"/>
</g>
<g style="mix-blend-mode:multiply">
<path d="M7.75262 91.2598H6.69263V91.9698H7.75262V91.2598Z" fill="#636363"/>
</g>
<g style="mix-blend-mode:multiply">
<path d="M7.75262 92.97H6.69263V93.68H7.75262V92.97Z" fill="#636363"/>
</g>
<g style="mix-blend-mode:multiply">
<path d="M7.75262 94.6799H6.69263V95.39H7.75262V94.6799Z" fill="#636363"/>
</g>
</g>
<path d="M8.72263 84.8301H10.7926C11.04 84.8695 11.2635 85.0003 11.419 85.1965C11.5746 85.3928 11.6508 85.6403 11.6326 85.8901V96.0401C11.6508 96.2899 11.5746 96.5374 11.419 96.7336C11.2635 96.9299 11.04 97.0607 10.7926 97.1001H8.72263C8.47532 97.0607 8.2518 96.9299 8.09626 96.7336C7.94072 96.5374 7.86449 96.2899 7.88264 96.0401V85.8901C7.86449 85.6403 7.94072 85.3928 8.09626 85.1965C8.2518 85.0003 8.47532 84.8695 8.72263 84.8301Z" fill="url(#paint5_linear_16_28412)"/>
<g style="mix-blend-mode:multiply">
<path d="M11.6326 85.8899H10.6326V85.1799H11.3626C11.5284 85.3804 11.6233 85.63 11.6326 85.8899Z" fill="#636363"/>
</g>
<g style="mix-blend-mode:multiply">
<path d="M11.6326 86.8899H10.6726V87.5999H11.6326V86.8899Z" fill="#636363"/>
</g>
<g style="mix-blend-mode:multiply">
<path d="M11.6326 88.6001H10.6726V89.3101H11.6326V88.6001Z" fill="#636363"/>
</g>
<g style="mix-blend-mode:multiply">
<path d="M11.7326 90.3101H10.6726V91.0201H11.7326V90.3101Z" fill="#636363"/>
</g>
<g style="mix-blend-mode:multiply">
<path d="M11.6226 92.02H10.6726V92.73H11.6226V92.02Z" fill="#636363"/>
</g>
<g style="mix-blend-mode:multiply">
<path d="M11.6226 93.73H10.6726V94.44H11.6226V93.73Z" fill="#636363"/>
</g>
<g style="mix-blend-mode:multiply">
<path d="M11.6226 95.4399H10.6726V96.1499H11.6226V95.4399Z" fill="#636363"/>
</g>
<g style="mix-blend-mode:multiply">
<path d="M8.94257 85.1799V85.8899H7.88257C7.88221 85.6364 7.95894 85.3888 8.10257 85.1799H8.94257Z" fill="#636363"/>
</g>
<g style="mix-blend-mode:multiply">
<path d="M8.94257 86.8899H7.88257V87.5999H8.94257V86.8899Z" fill="#636363"/>
</g>
<g style="mix-blend-mode:multiply">
<path d="M8.94257 88.6001H7.88257V89.3101H8.94257V88.6001Z" fill="#636363"/>
</g>
<g style="mix-blend-mode:multiply">
<path d="M8.94257 90.3101H7.88257V91.0201H8.94257V90.3101Z" fill="#636363"/>
</g>
<g style="mix-blend-mode:multiply">
<path d="M8.94257 92.02H7.88257V92.73H8.94257V92.02Z" fill="#636363"/>
</g>
<g style="mix-blend-mode:multiply">
<path d="M8.94257 93.73H7.88257V94.44H8.94257V93.73Z" fill="#636363"/>
</g>
<g style="mix-blend-mode:multiply">
<path d="M8.94257 95.4399H7.88257V96.1499H8.94257V95.4399Z" fill="#636363"/>
</g>
<g style="mix-blend-mode:multiply">
<path d="M10.2827 86.1299H9.22266V86.8399H10.2827V86.1299Z" fill="#636363"/>
</g>
<g style="mix-blend-mode:multiply">
<path d="M10.2827 87.8401H9.22266V88.5501H10.2827V87.8401Z" fill="#636363"/>
</g>
<g style="mix-blend-mode:multiply">
<path d="M10.2827 89.55H9.22266V90.26H10.2827V89.55Z" fill="#636363"/>
</g>
<g style="mix-blend-mode:multiply">
<path d="M10.2827 91.26H9.22266V91.97H10.2827V91.26Z" fill="#636363"/>
</g>
<g style="mix-blend-mode:multiply">
<path d="M10.2827 92.97H9.22266V93.68H10.2827V92.97Z" fill="#636363"/>
</g>
<g style="mix-blend-mode:multiply">
<path d="M10.2827 94.6799H9.22266V95.39H10.2827V94.6799Z" fill="#636363"/>
</g>
<g style="mix-blend-mode:screen">
<g style="mix-blend-mode:multiply">
<path d="M10.2827 85.1799H9.22266V85.8899H10.2827V85.1799Z" fill="#636363"/>
</g>
<g style="mix-blend-mode:multiply">
<path d="M10.2827 86.8899H9.22266V87.5999H10.2827V86.8899Z" fill="#636363"/>
</g>
<g style="mix-blend-mode:multiply">
<path d="M10.2827 88.5999H9.22266V89.3098H10.2827V88.5999Z" fill="#636363"/>
</g>
<g style="mix-blend-mode:multiply">
<path d="M10.2827 90.3098H9.22266V91.0198H10.2827V90.3098Z" fill="#636363"/>
</g>
<g style="mix-blend-mode:multiply">
<path d="M10.2827 92.02H9.22266V92.73H10.2827V92.02Z" fill="#636363"/>
</g>
<g style="mix-blend-mode:multiply">
<path d="M10.2827 93.73H9.22266V94.44H10.2827V93.73Z" fill="#636363"/>
</g>
<g style="mix-blend-mode:multiply">
<path d="M10.2827 95.4399H9.22266V96.1499H10.2827V95.4399Z" fill="#636363"/>
</g>
</g>
<g style="mix-blend-mode:screen">
<g style="mix-blend-mode:multiply">
<path d="M8.94257 86.1299H7.88257V86.8399H8.94257V86.1299Z" fill="#636363"/>
</g>
<g style="mix-blend-mode:multiply">
<path d="M8.94257 87.8398H7.88257V88.5499H8.94257V87.8398Z" fill="#636363"/>
</g>
<g style="mix-blend-mode:multiply">
<path d="M8.94257 89.5498H7.88257V90.2598H8.94257V89.5498Z" fill="#636363"/>
</g>
<g style="mix-blend-mode:multiply">
<path d="M8.94257 91.2598H7.88257V91.9698H8.94257V91.2598Z" fill="#636363"/>
</g>
<g style="mix-blend-mode:multiply">
<path d="M8.94257 92.97H7.88257V93.68H8.94257V92.97Z" fill="#636363"/>
</g>
<g style="mix-blend-mode:multiply">
<path d="M8.94257 94.6799H7.88257V95.39H8.94257V94.6799Z" fill="#636363"/>
</g>
</g>
<g style="mix-blend-mode:screen">
<g style="mix-blend-mode:multiply">
<path d="M11.6326 86.1299H10.6726V86.8399H11.6326V86.1299Z" fill="#636363"/>
</g>
<g style="mix-blend-mode:multiply">
<path d="M11.6326 87.8398H10.6726V88.5499H11.6326V87.8398Z" fill="#636363"/>
</g>
<g style="mix-blend-mode:multiply">
<path d="M11.6326 89.5498H10.6726V90.2598H11.6326V89.5498Z" fill="#636363"/>
</g>
<g style="mix-blend-mode:multiply">
<path d="M11.7326 91.2598H10.6726V91.9698H11.7326V91.2598Z" fill="#636363"/>
</g>
<g style="mix-blend-mode:multiply">
<path d="M11.6226 92.97H10.6726V93.68H11.6226V92.97Z" fill="#636363"/>
</g>
<g style="mix-blend-mode:multiply">
<path d="M11.6226 94.6799H10.6726V95.39H11.6226V94.6799Z" fill="#636363"/>
</g>
</g>
<path d="M10.7326 59.4099H7.39259L7.2926 56.4299H10.6426L10.7326 59.4099Z" fill="black"/>
<path d="M4.99266 52.77H4.72266V63.19H4.99266V52.77Z" fill="black"/>
<path d="M1.84263 51.71H3.92263C4.16811 51.7516 4.38923 51.8833 4.54273 52.0794C4.69623 52.2754 4.77108 52.5217 4.75263 52.77V62.92C4.77108 63.1683 4.69623 63.4145 4.54273 63.6105C4.38923 63.8066 4.16811 63.9383 3.92263 63.98H1.84263C1.59531 63.9406 1.37179 63.8098 1.21625 63.6135C1.06071 63.4172 0.984484 63.1697 1.00263 62.92V52.77C0.984484 52.5202 1.06071 52.2727 1.21625 52.0764C1.37179 51.8801 1.59531 51.7494 1.84263 51.71Z" fill="url(#paint6_linear_16_28412)"/>
<g style="mix-blend-mode:multiply">
<path d="M4.75269 52.7701H3.75269V52.0601H4.58269C4.70874 52.2745 4.76793 52.5217 4.75269 52.7701Z" fill="#636363"/>
</g>
<g style="mix-blend-mode:multiply">
<path d="M4.8526 53.77H3.7926V54.48H4.8526V53.77Z" fill="#636363"/>
</g>
<g style="mix-blend-mode:multiply">
<path d="M4.8526 55.48H3.7926V56.19H4.8526V55.48Z" fill="#636363"/>
</g>
<g style="mix-blend-mode:multiply">
<path d="M4.8526 57.1899H3.7926V57.8999H4.8526V57.1899Z" fill="#636363"/>
</g>
<g style="mix-blend-mode:multiply">
<path d="M4.8526 58.8999H3.7926V59.6099H4.8526V58.8999Z" fill="#636363"/>
</g>
<g style="mix-blend-mode:multiply">
<path d="M4.8526 60.6101H3.7926V61.3201H4.8526V60.6101Z" fill="#636363"/>
</g>
<g style="mix-blend-mode:multiply">
<path d="M4.8526 62.3101H3.7926V63.0201H4.8526V62.3101Z" fill="#636363"/>
</g>
<g style="mix-blend-mode:multiply">
<path d="M2.0626 52.0601V52.7701H1.00261C1.00044 52.5147 1.08114 52.2656 1.2326 52.0601H2.0626Z" fill="#636363"/>
</g>
<g style="mix-blend-mode:multiply">
<path d="M2.06268 53.77H1.00269V54.48H2.06268V53.77Z" fill="#636363"/>
</g>
<g style="mix-blend-mode:multiply">
<path d="M2.06268 55.48H1.00269V56.19H2.06268V55.48Z" fill="#636363"/>
</g>
<g style="mix-blend-mode:multiply">
<path d="M2.06268 57.1899H1.00269V57.8999H2.06268V57.1899Z" fill="#636363"/>
</g>
<g style="mix-blend-mode:multiply">
<path d="M2.06268 58.8999H1.00269V59.6099H2.06268V58.8999Z" fill="#636363"/>
</g>
<g style="mix-blend-mode:multiply">
<path d="M2.06268 60.6101H1.00269V61.3201H2.06268V60.6101Z" fill="#636363"/>
</g>
<g style="mix-blend-mode:multiply">
<path d="M2.06268 62.3101H1.00269V63.0201H2.06268V62.3101Z" fill="#636363"/>
</g>
<g style="mix-blend-mode:multiply">
<path d="M3.41254 53.01H2.35254V53.72H3.41254V53.01Z" fill="#636363"/>
</g>
<g style="mix-blend-mode:multiply">
<path d="M3.41254 54.72H2.35254V55.43H3.41254V54.72Z" fill="#636363"/>
</g>
<g style="mix-blend-mode:multiply">
<path d="M3.41254 56.4299H2.35254V57.1399H3.41254V56.4299Z" fill="#636363"/>
</g>
<g style="mix-blend-mode:multiply">
<path d="M3.41254 58.1399H2.35254V58.8499H3.41254V58.1399Z" fill="#636363"/>
</g>
<g style="mix-blend-mode:multiply">
<path d="M3.41254 59.8501H2.35254V60.5601H3.41254V59.8501Z" fill="#636363"/>
</g>
<g style="mix-blend-mode:multiply">
<path d="M3.41254 61.55H2.35254V62.2601H3.41254V61.55Z" fill="#636363"/>
</g>
<g style="mix-blend-mode:screen">
<g style="mix-blend-mode:multiply">
<path d="M3.41254 52.0601H2.35254V52.7701H3.41254V52.0601Z" fill="#636363"/>
</g>
<g style="mix-blend-mode:multiply">
<path d="M3.41254 53.77H2.35254V54.48H3.41254V53.77Z" fill="#636363"/>
</g>
<g style="mix-blend-mode:multiply">
<path d="M3.41254 55.48H2.35254V56.19H3.41254V55.48Z" fill="#636363"/>
</g>
<g style="mix-blend-mode:multiply">
<path d="M3.41254 57.1899H2.35254V57.8999H3.41254V57.1899Z" fill="#636363"/>
</g>
<g style="mix-blend-mode:multiply">
<path d="M3.41254 58.9001H2.35254V59.6101H3.41254V58.9001Z" fill="#636363"/>
</g>
<g style="mix-blend-mode:multiply">
<path d="M3.41254 60.6101H2.35254V61.3201H3.41254V60.6101Z" fill="#636363"/>
</g>
<g style="mix-blend-mode:multiply">
<path d="M3.41254 62.3101H2.35254V63.0201H3.41254V62.3101Z" fill="#636363"/>
</g>
</g>
<g style="mix-blend-mode:screen">
<g style="mix-blend-mode:multiply">
<path d="M2.06268 53.01H1.00269V53.72H2.06268V53.01Z" fill="#636363"/>
</g>
<g style="mix-blend-mode:multiply">
<path d="M2.06268 54.72H1.00269V55.43H2.06268V54.72Z" fill="#636363"/>
</g>
<g style="mix-blend-mode:multiply">
<path d="M2.06268 56.4299H1.00269V57.1399H2.06268V56.4299Z" fill="#636363"/>
</g>
<g style="mix-blend-mode:multiply">
<path d="M2.06268 58.1401H1.00269V58.8501H2.06268V58.1401Z" fill="#636363"/>
</g>
<g style="mix-blend-mode:multiply">
<path d="M2.06268 59.8501H1.00269V60.5601H2.06268V59.8501Z" fill="#636363"/>
</g>
<g style="mix-blend-mode:multiply">
<path d="M2.06268 61.55H1.00269V62.2601H2.06268V61.55Z" fill="#636363"/>
</g>
</g>
<g style="mix-blend-mode:screen">
<g style="mix-blend-mode:multiply">
<path d="M4.8526 53.01H3.7926V53.72H4.8526V53.01Z" fill="#636363"/>
</g>
<g style="mix-blend-mode:multiply">
<path d="M4.8526 54.72H3.7926V55.43H4.8526V54.72Z" fill="#636363"/>
</g>
<g style="mix-blend-mode:multiply">
<path d="M4.8526 56.4299H3.7926V57.1399H4.8526V56.4299Z" fill="#636363"/>
</g>
<g style="mix-blend-mode:multiply">
<path d="M4.8526 58.1401H3.7926V58.8501H4.8526V58.1401Z" fill="#636363"/>
</g>
<g style="mix-blend-mode:multiply">
<path d="M4.8526 59.8501H3.7926V60.5601H4.8526V59.8501Z" fill="#636363"/>
</g>
<g style="mix-blend-mode:multiply">
<path d="M4.8526 61.55H3.7926V62.2601H4.8526V61.55Z" fill="#636363"/>
</g>
</g>
<path d="M5.82262 51.71H7.90262C8.1481 51.7516 8.36921 51.8833 8.52271 52.0794C8.67621 52.2754 8.75105 52.5217 8.73261 52.77V62.92C8.75105 63.1683 8.67621 63.4145 8.52271 63.6105C8.36921 63.8066 8.1481 63.9383 7.90262 63.98H5.82262C5.57714 63.9383 5.35602 63.8066 5.20252 63.6105C5.04902 63.4145 4.97417 63.1683 4.99262 62.92V52.77C4.97417 52.5217 5.04902 52.2754 5.20252 52.0794C5.35602 51.8833 5.57714 51.7516 5.82262 51.71Z" fill="url(#paint7_linear_16_28412)"/>
<g style="mix-blend-mode:multiply">
<path d="M8.73267 52.7701H7.73267V52.0601H8.46268C8.62847 52.2605 8.72338 52.5101 8.73267 52.7701Z" fill="#636363"/>
</g>
<g style="mix-blend-mode:multiply">
<path d="M8.7426 53.77H7.78259V54.48H8.7426V53.77Z" fill="#636363"/>
</g>
<g style="mix-blend-mode:multiply">
<path d="M8.7426 55.48H7.78259V56.19H8.7426V55.48Z" fill="#636363"/>
</g>
<g style="mix-blend-mode:multiply">
<path d="M8.84259 57.1899H7.78259V57.8999H8.84259V57.1899Z" fill="#636363"/>
</g>
<g style="mix-blend-mode:multiply">
<path d="M8.73259 58.8999H7.78259V59.6099H8.73259V58.8999Z" fill="#636363"/>
</g>
<g style="mix-blend-mode:multiply">
<path d="M8.73259 60.6101H7.78259V61.3201H8.73259V60.6101Z" fill="#636363"/>
</g>
<g style="mix-blend-mode:multiply">
<path d="M8.73259 62.3101H7.78259V63.0201H8.73259V62.3101Z" fill="#636363"/>
</g>
<g style="mix-blend-mode:multiply">
<path d="M6.05266 52.0601V52.7701H4.99267C4.9876 52.5159 5.06476 52.2668 5.21267 52.0601H6.05266Z" fill="#636363"/>
</g>
<g style="mix-blend-mode:multiply">
<path d="M6.05267 53.77H4.99268V54.48H6.05267V53.77Z" fill="#636363"/>
</g>
<g style="mix-blend-mode:multiply">
<path d="M6.05267 55.48H4.99268V56.19H6.05267V55.48Z" fill="#636363"/>
</g>
<g style="mix-blend-mode:multiply">
<path d="M6.05267 57.1899H4.99268V57.8999H6.05267V57.1899Z" fill="#636363"/>
</g>
<g style="mix-blend-mode:multiply">
<path d="M6.05267 58.8999H4.99268V59.6099H6.05267V58.8999Z" fill="#636363"/>
</g>
<g style="mix-blend-mode:multiply">
<path d="M6.05267 60.6101H4.99268V61.3201H6.05267V60.6101Z" fill="#636363"/>
</g>
<g style="mix-blend-mode:multiply">
<path d="M6.05267 62.3101H4.99268V63.0201H6.05267V62.3101Z" fill="#636363"/>
</g>
<g style="mix-blend-mode:multiply">
<path d="M7.39252 53.01H6.33252V53.72H7.39252V53.01Z" fill="#636363"/>
</g>
<g style="mix-blend-mode:multiply">
<path d="M7.39252 54.72H6.33252V55.43H7.39252V54.72Z" fill="#636363"/>
</g>
<g style="mix-blend-mode:multiply">
<path d="M7.39252 56.4299H6.33252V57.1399H7.39252V56.4299Z" fill="#636363"/>
</g>
<g style="mix-blend-mode:multiply">
<path d="M7.39252 58.1399H6.33252V58.8499H7.39252V58.1399Z" fill="#636363"/>
</g>
<g style="mix-blend-mode:multiply">
<path d="M7.39252 59.8501H6.33252V60.5601H7.39252V59.8501Z" fill="#636363"/>
</g>
<g style="mix-blend-mode:multiply">
<path d="M7.39252 61.55H6.33252V62.2601H7.39252V61.55Z" fill="#636363"/>
</g>
<g style="mix-blend-mode:screen">
<g style="mix-blend-mode:multiply">
<path d="M7.39252 52.0601H6.33252V52.7701H7.39252V52.0601Z" fill="#636363"/>
</g>
<g style="mix-blend-mode:multiply">
<path d="M7.39252 53.77H6.33252V54.48H7.39252V53.77Z" fill="#636363"/>
</g>
<g style="mix-blend-mode:multiply">
<path d="M7.39252 55.48H6.33252V56.19H7.39252V55.48Z" fill="#636363"/>
</g>
<g style="mix-blend-mode:multiply">
<path d="M7.39252 57.1899H6.33252V57.8999H7.39252V57.1899Z" fill="#636363"/>
</g>
<g style="mix-blend-mode:multiply">
<path d="M7.39252 58.9001H6.33252V59.6101H7.39252V58.9001Z" fill="#636363"/>
</g>
<g style="mix-blend-mode:multiply">
<path d="M7.39252 60.6101H6.33252V61.3201H7.39252V60.6101Z" fill="#636363"/>
</g>
<g style="mix-blend-mode:multiply">
<path d="M7.39252 62.3101H6.33252V63.0201H7.39252V62.3101Z" fill="#636363"/>
</g>
</g>
<g style="mix-blend-mode:screen">
<g style="mix-blend-mode:multiply">
<path d="M6.05267 53.01H4.99268V53.72H6.05267V53.01Z" fill="#636363"/>
</g>
<g style="mix-blend-mode:multiply">
<path d="M6.05267 54.72H4.99268V55.43H6.05267V54.72Z" fill="#636363"/>
</g>
<g style="mix-blend-mode:multiply">
<path d="M6.05267 56.4299H4.99268V57.1399H6.05267V56.4299Z" fill="#636363"/>
</g>
<g style="mix-blend-mode:multiply">
<path d="M6.05267 58.1401H4.99268V58.8501H6.05267V58.1401Z" fill="#636363"/>
</g>
<g style="mix-blend-mode:multiply">
<path d="M6.05267 59.8501H4.99268V60.5601H6.05267V59.8501Z" fill="#636363"/>
</g>
<g style="mix-blend-mode:multiply">
<path d="M6.05267 61.55H4.99268V62.2601H6.05267V61.55Z" fill="#636363"/>
</g>
</g>
<g style="mix-blend-mode:screen">
<g style="mix-blend-mode:multiply">
<path d="M8.7426 53.01H7.78259V53.72H8.7426V53.01Z" fill="#636363"/>
</g>
<g style="mix-blend-mode:multiply">
<path d="M8.7426 54.72H7.78259V55.43H8.7426V54.72Z" fill="#636363"/>
</g>
<g style="mix-blend-mode:multiply">
<path d="M8.7426 56.4299H7.78259V57.1399H8.7426V56.4299Z" fill="#636363"/>
</g>
<g style="mix-blend-mode:multiply">
<path d="M8.84259 58.1401H7.78259V58.8501H8.84259V58.1401Z" fill="#636363"/>
</g>
<g style="mix-blend-mode:multiply">
<path d="M8.73259 59.8501H7.78259V60.5601H8.73259V59.8501Z" fill="#636363"/>
</g>
<g style="mix-blend-mode:multiply">
<path d="M8.73259 61.55H7.78259V62.2601H8.73259V61.55Z" fill="#636363"/>
</g>
</g>
<path d="M34.4426 100.02H5.63259C5.49465 100.014 5.35934 99.98 5.23439 99.9212C5.10943 99.8624 4.9973 99.7796 4.90441 99.6774C4.81153 99.5752 4.73969 99.4557 4.69305 99.3257C4.64641 99.1958 4.62587 99.0579 4.63259 98.9199V53.6799H35.4426V98.9199C35.4535 99.1978 35.3548 99.4688 35.1677 99.6746C34.9807 99.8804 34.7202 100.004 34.4426 100.02Z" fill="#278F51"/>
<path d="M37.2325 70.2899H2.84254C2.75059 70.2861 2.6603 70.2641 2.57684 70.2253C2.49338 70.1865 2.4184 70.1317 2.35617 70.0639C2.29394 69.9961 2.24568 69.9167 2.21417 69.8302C2.18266 69.7437 2.16852 69.6519 2.17254 69.5599V54.4099C2.16852 54.318 2.18266 54.2262 2.21417 54.1397C2.24568 54.0532 2.29394 53.9738 2.35617 53.906C2.4184 53.8382 2.49338 53.7833 2.57684 53.7445C2.6603 53.7057 2.75059 53.6838 2.84254 53.6799H37.2325C37.3241 53.6838 37.4139 53.7058 37.4969 53.7447C37.5798 53.7836 37.6541 53.8386 37.7156 53.9066C37.777 53.9745 37.8243 54.054 37.8547 54.1405C37.8851 54.2269 37.8979 54.3185 37.8925 54.4099V69.5699C37.8981 69.7523 37.8322 69.9296 37.7089 70.0641C37.5856 70.1985 37.4147 70.2796 37.2325 70.2899Z" fill="#278F51"/>
<path d="M33.9726 57.0301C33.9726 57.4101 33.4326 57.7201 32.7726 57.7201C32.1126 57.7201 31.5726 57.4101 31.5726 57.0301C31.5726 56.6501 32.1126 56.3401 32.7726 56.3401C33.4326 56.3401 33.9726 56.6501 33.9726 57.0301Z" fill="url(#paint8_linear_16_28412)"/>
<path d="M8.75253 57.0301C8.75253 57.4101 8.21254 57.7201 7.55254 57.7201C6.89254 57.7201 6.35254 57.4101 6.35254 57.0301C6.35254 56.6501 6.89254 56.3401 7.55254 56.3401C8.21254 56.3401 8.75253 56.6501 8.75253 57.0301Z" fill="url(#paint9_linear_16_28412)"/>
<path d="M36.2926 55.3999C36.2926 55.2799 36.0926 55.1799 35.8526 55.1799H33.8526C33.6126 55.1799 33.4126 55.2799 33.4126 55.3999V56.1299C33.4126 56.2499 33.6126 56.3499 33.8526 56.3499H35.8526C36.0926 56.3499 36.2926 56.2499 36.2926 56.1299V55.3999Z" fill="#BE1E2D"/>
<path d="M6.58264 55.3999C6.58264 55.2799 6.38264 55.1799 6.14264 55.1799H4.14264C3.90264 55.1799 3.70264 55.2799 3.70264 55.3999V56.1299C3.70264 56.2499 3.90264 56.3499 4.14264 56.3499H6.14264C6.38264 56.3499 6.58264 56.2499 6.58264 56.1299V55.3999Z" fill="#BE1E2D"/>
<path d="M32.5126 56.23H7.55261V73.55H32.5126V56.23Z" fill="#04B54C"/>
<path style="mix-blend-mode:screen" d="M31.5126 57.3301H8.55261V72.4601H31.5126V57.3301Z" fill="url(#paint10_linear_16_28412)"/>
<path d="M32.5226 56.23H7.55261L10.1026 53.53H29.9626L32.5226 56.23Z" fill="#010101"/>
<path d="M9.20264 55.5L10.3726 54.26H29.6926L30.8726 55.5H9.20264Z" fill="url(#paint11_linear_16_28412)"/>
<path d="M30.1326 50.9099H9.94263V53.5299H30.1326V50.9099Z" fill="url(#paint12_linear_16_28412)"/>
<path d="M26.2927 49.6001H13.7727V53.5201H26.2927V49.6001Z" fill="url(#paint13_linear_16_28412)"/>
<path d="M13.7827 50.9099H11.2627V27.4199L13.7827 29.2399V50.9099Z" fill="url(#paint14_linear_16_28412)"/>
<path d="M28.8126 50.9099H26.2926V29.2399L28.8126 27.4199V50.9099Z" fill="url(#paint15_linear_16_28412)"/>
<path d="M32.5126 73.55H7.55261V95.8201H32.5126V73.55Z" fill="#04B54C"/>
<path style="mix-blend-mode:screen" d="M30.8527 73.55H9.22266V94H30.8527V73.55Z" fill="url(#paint16_linear_16_28412)"/>
<path d="M20.0325 65.8799C19.5404 65.9263 19.0457 65.8227 18.6135 65.5828C18.1813 65.3429 17.8317 64.9778 17.6108 64.5356C17.3899 64.0934 17.3079 63.5947 17.3757 63.105C17.4434 62.6153 17.6577 62.1576 17.9904 61.7919C18.323 61.4263 18.7585 61.1698 19.2397 61.0563C19.7208 60.9427 20.225 60.9773 20.6861 61.1556C21.1472 61.3339 21.5435 61.6474 21.8231 62.0551C22.1027 62.4628 22.2524 62.9456 22.2525 63.4399C22.2797 64.0573 22.0616 64.6605 21.6456 65.1176C21.2297 65.5748 20.6498 65.8488 20.0325 65.8799Z" fill="url(#paint17_linear_16_28412)"/>
<path d="M22.0927 63.4399C22.0559 63.8372 21.9045 64.2152 21.657 64.5281C21.4094 64.841 21.0764 65.0752 20.6982 65.2024C20.3201 65.3296 19.9131 65.3443 19.5268 65.2446C19.1405 65.145 18.7915 64.9353 18.5221 64.641C18.2527 64.3468 18.0745 63.9806 18.0092 63.587C17.9439 63.1934 17.9943 62.7894 18.1543 62.4239C18.3143 62.0584 18.577 61.7473 18.9104 61.5282C19.2438 61.3092 19.6337 61.1916 20.0327 61.1899C20.6039 61.2159 21.1416 61.4673 21.5278 61.8891C21.9139 62.3109 22.1171 62.8686 22.0927 63.4399Z" fill="#B6B8B9"/>
<path d="M21.4626 83.6301C21.4355 83.9053 21.3292 84.1668 21.1566 84.3828C20.9839 84.5989 20.7523 84.7602 20.4898 84.8473C20.2273 84.9344 19.9452 84.9435 19.6776 84.8735C19.4101 84.8035 19.1685 84.6574 18.9823 84.453C18.7961 84.2485 18.6731 83.9944 18.6284 83.7215C18.5836 83.4486 18.6189 83.1685 18.7301 82.9153C18.8412 82.662 19.0234 82.4465 19.2546 82.2947C19.4858 82.1429 19.7561 82.0614 20.0326 82.0601C20.2297 82.069 20.423 82.1168 20.6016 82.2006C20.7802 82.2844 20.9405 82.4026 21.0733 82.5484C21.2061 82.6943 21.3089 82.8649 21.3757 83.0505C21.4425 83.2361 21.472 83.433 21.4626 83.6301Z" fill="url(#paint18_linear_16_28412)"/>
<path d="M31.1126 98.1901H9.08261L7.55261 95.8201H32.6326L31.1126 98.1901Z" fill="#053518"/>
<path d="M27.5527 51.5701H12.5227V54.8801H27.5527V51.5701Z" fill="url(#paint19_linear_16_28412)"/>
<path d="M26.4825 52.6599H13.6025V55.9699H26.4825V52.6599Z" fill="url(#paint20_linear_16_28412)"/>
<g style="mix-blend-mode:multiply">
<path d="M28.8127 75.5801H12.5227V76.3801H28.8127V75.5801Z" fill="url(#paint21_linear_16_28412)"/>
<path d="M28.8127 77.6401H12.5227V78.4401H28.8127V77.6401Z" fill="url(#paint22_linear_16_28412)"/>
<path d="M28.8127 79.6902H12.5227V80.4902H28.8127V79.6902Z" fill="url(#paint23_linear_16_28412)"/>
<path d="M28.8127 81.75H12.5227V82.55H28.8127V81.75Z" fill="url(#paint24_linear_16_28412)"/>
<path d="M28.8127 83.8101H12.5227V84.61H28.8127V83.8101Z" fill="url(#paint25_linear_16_28412)"/>
<path d="M28.8127 85.8601H12.5227V86.6601H28.8127V85.8601Z" fill="url(#paint26_linear_16_28412)"/>
<path d="M28.8127 87.9202H12.5227V88.7202H28.8127V87.9202Z" fill="url(#paint27_linear_16_28412)"/>
<path d="M28.8127 89.97H12.5227V90.77H28.8127V89.97Z" fill="url(#paint28_linear_16_28412)"/>
<path d="M28.8127 92.03H12.5227V92.83H28.8127V92.03Z" fill="url(#paint29_linear_16_28412)"/>
</g>
<path style="mix-blend-mode:screen" d="M2.17254 57.8V69.5701C2.16852 69.662 2.18266 69.7538 2.21417 69.8403C2.24568 69.9268 2.29394 70.0062 2.35617 70.074C2.4184 70.1418 2.49338 70.1967 2.57684 70.2355C2.6603 70.2742 2.75059 70.2962 2.84254 70.3H4.63255V82.1001L6.05255 79.33C6.05255 79.33 6.25255 68.2501 6.05255 62.2801C5.97255 59.9201 4.24254 58.57 2.17254 57.8Z" fill="url(#paint30_linear_16_28412)"/>
<path style="mix-blend-mode:screen" d="M37.9126 57.8V69.5701C37.9166 69.662 37.9025 69.7538 37.871 69.8403C37.8395 69.9268 37.7912 70.0062 37.729 70.074C37.6668 70.1418 37.5918 70.1967 37.5083 70.2355C37.4249 70.2742 37.3346 70.2962 37.2426 70.3H35.4526V82.1001L34.0326 79.33C34.0326 79.33 33.8326 68.2501 34.0326 62.2801C34.1126 59.9201 35.8426 58.57 37.9126 57.8Z" fill="url(#paint31_linear_16_28412)"/>
<path style="mix-blend-mode:screen" d="M6.14259 88.32C6.21841 86.7357 5.67717 85.1836 4.63259 83.99V98.92C4.62587 99.0579 4.64641 99.1958 4.69305 99.3258C4.73969 99.4558 4.81153 99.5753 4.90441 99.6774C4.9973 99.7796 5.10943 99.8625 5.23439 99.9212C5.35934 99.98 5.49465 100.014 5.63259 100.02H10.5826C9.85282 99.3451 8.88602 98.9857 7.89259 99.02C5.47259 99.01 6.14259 95.46 6.14259 88.32Z" fill="url(#paint32_linear_16_28412)"/>
<path style="mix-blend-mode:screen" d="M33.9426 88.32C33.8626 86.735 34.4044 85.1815 35.4526 83.99V98.92C35.4636 99.1979 35.3649 99.4689 35.1778 99.6747C34.9907 99.8804 34.7303 100.004 34.4526 100.02H29.4526C30.1824 99.3451 31.1492 98.9857 32.1426 99.02C34.5826 99.01 33.9426 95.46 33.9426 88.32Z" fill="url(#paint33_linear_16_28412)"/>
<path d="M19.9827 21.8899L4.73267 42.6299H35.2727L19.9827 21.8899Z" fill="url(#paint34_linear_16_28412)"/>
<path d="M35.2727 42.63H35.4927V1H35.3427L19.9827 21.89L35.2727 42.63Z" fill="url(#paint35_linear_16_28412)"/>
<path d="M35.3425 1H4.58252L19.9825 21.89L35.3425 1Z" fill="url(#paint36_linear_16_28412)"/>
<path d="M4.58252 1V42.63H4.73251L19.9825 21.89L4.58252 1Z" fill="url(#paint37_linear_16_28412)"/>
<path d="M33.7125 2.78003H6.35254V40.86H33.7125V2.78003Z" fill="url(#paint38_linear_16_28412)"/>
<path style="mix-blend-mode:multiply" d="M33.7125 4.41992H6.35254V5.58992H33.7125V4.41992Z" fill="#F7F7F7"/>
<path style="mix-blend-mode:multiply" d="M33.7125 7.16992H6.35254V8.33992H33.7125V7.16992Z" fill="url(#paint39_linear_16_28412)"/>
<path style="mix-blend-mode:multiply" d="M33.7125 9.90991H6.35254V11.0799H33.7125V9.90991Z" fill="#F7F7F7"/>
<path style="mix-blend-mode:multiply" d="M33.7125 12.6599H6.35254V13.8299H33.7125V12.6599Z" fill="#F7F7F7"/>
<path style="mix-blend-mode:multiply" d="M33.7125 15.3999H6.35254V16.5699H33.7125V15.3999Z" fill="#F7F7F7"/>
<path style="mix-blend-mode:multiply" d="M33.7125 18.1499H6.35254V19.3299H33.7125V18.1499Z" fill="url(#paint40_linear_16_28412)"/>
<path style="mix-blend-mode:multiply" d="M33.7125 20.8999H6.35254V22.0699H33.7125V20.8999Z" fill="#F7F7F7"/>
<path style="mix-blend-mode:multiply" d="M33.7125 23.6399H6.35254V24.8099H33.7125V23.6399Z" fill="#F7F7F7"/>
<path style="mix-blend-mode:multiply" d="M33.7125 26.3899H6.35254V27.5599H33.7125V26.3899Z" fill="#F7F7F7"/>
<path style="mix-blend-mode:multiply" d="M33.7125 29.1399H6.35254V30.3099H33.7125V29.1399Z" fill="#F7F7F7"/>
<path style="mix-blend-mode:multiply" d="M33.7125 31.8799H6.35254V33.0499H33.7125V31.8799Z" fill="#F7F7F7"/>
<path style="mix-blend-mode:multiply" d="M33.7125 34.6299H6.35254V35.7999H33.7125V34.6299Z" fill="#F7F7F7"/>
<path style="mix-blend-mode:multiply" d="M33.7125 37.3799H6.35254V38.5499H33.7125V37.3799Z" fill="url(#paint41_linear_16_28412)"/>
</g>
<defs>
<filter id="filter0_d_16_28412" x="0" y="0" width="46.0653" height="107.02" filterUnits="userSpaceOnUse" color-interpolation-filters="sRGB">
<feFlood flood-opacity="0" result="BackgroundImageFix"/>
<feColorMatrix in="SourceAlpha" type="matrix" values="0 0 0 0 0 0 0 0 0 0 0 0 0 0 0 0 0 0 127 0" result="hardAlpha"/>
<feOffset dx="3" dy="3"/>
<feGaussianBlur stdDeviation="2"/>
<feComposite in2="hardAlpha" operator="out"/>
<feColorMatrix type="matrix" values="0 0 0 0 0 0 0 0 0 0 0 0 0 0 0 0 0 0 0.25 0"/>
<feBlend mode="normal" in2="BackgroundImageFix" result="effect1_dropShadow_16_28412"/>
<feBlend mode="normal" in="SourceGraphic" in2="effect1_dropShadow_16_28412" result="shape"/>
</filter>
<linearGradient id="paint0_linear_16_28412" x1="37.1926" y1="51.74" x2="37.1926" y2="64.07" gradientUnits="userSpaceOnUse">
<stop stop-color="#3B3B3B"/>
<stop offset="0.35" stop-color="#9C9C9C"/>
<stop offset="0.67" stop-color="#262626"/>
<stop offset="1" stop-color="#1B1C1C"/>
</linearGradient>
<linearGradient id="paint1_linear_16_28412" x1="33.2127" y1="51.74" x2="33.2127" y2="64.07" gradientUnits="userSpaceOnUse">
<stop stop-color="#3B3B3B"/>
<stop offset="0.35" stop-color="#9C9C9C"/>
<stop offset="0.67" stop-color="#262626"/>
<stop offset="1" stop-color="#1B1C1C"/>
</linearGradient>
<linearGradient id="paint2_linear_16_28412" x1="34.3226" y1="84.8601" x2="34.3226" y2="97.1901" gradientUnits="userSpaceOnUse">
<stop stop-color="#3B3B3B"/>
<stop offset="0.35" stop-color="#9C9C9C"/>
<stop offset="0.67" stop-color="#262626"/>
<stop offset="1" stop-color="#1B1C1C"/>
</linearGradient>
<linearGradient id="paint3_linear_16_28412" x1="30.3327" y1="84.8601" x2="30.3327" y2="97.1901" gradientUnits="userSpaceOnUse">
<stop stop-color="#3B3B3B"/>
<stop offset="0.35" stop-color="#9C9C9C"/>
<stop offset="0.67" stop-color="#262626"/>
<stop offset="1" stop-color="#1B1C1C"/>
</linearGradient>
<linearGradient id="paint4_linear_16_28412" x1="5.77265" y1="84.8601" x2="5.77265" y2="97.1901" gradientUnits="userSpaceOnUse">
<stop stop-color="#3B3B3B"/>
<stop offset="0.35" stop-color="#9C9C9C"/>
<stop offset="0.67" stop-color="#262626"/>
<stop offset="1" stop-color="#1B1C1C"/>
</linearGradient>
<linearGradient id="paint5_linear_16_28412" x1="9.75264" y1="84.8601" x2="9.75264" y2="97.1901" gradientUnits="userSpaceOnUse">
<stop stop-color="#3B3B3B"/>
<stop offset="0.35" stop-color="#9C9C9C"/>
<stop offset="0.67" stop-color="#262626"/>
<stop offset="1" stop-color="#1B1C1C"/>
</linearGradient>
<linearGradient id="paint6_linear_16_28412" x1="2.88263" y1="51.74" x2="2.88263" y2="64.07" gradientUnits="userSpaceOnUse">
<stop stop-color="#3B3B3B"/>
<stop offset="0.35" stop-color="#9C9C9C"/>
<stop offset="0.67" stop-color="#262626"/>
<stop offset="1" stop-color="#1B1C1C"/>
</linearGradient>
<linearGradient id="paint7_linear_16_28412" x1="6.86261" y1="51.74" x2="6.86261" y2="64.07" gradientUnits="userSpaceOnUse">
<stop stop-color="#3B3B3B"/>
<stop offset="0.35" stop-color="#9C9C9C"/>
<stop offset="0.67" stop-color="#262626"/>
<stop offset="1" stop-color="#1B1C1C"/>
</linearGradient>
<linearGradient id="paint8_linear_16_28412" x1="31.5726" y1="57.0301" x2="33.9726" y2="57.0301" gradientUnits="userSpaceOnUse">
<stop stop-color="#949494"/>
<stop offset="1" stop-color="#0C0D0D"/>
</linearGradient>
<linearGradient id="paint9_linear_16_28412" x1="6.35254" y1="57.0301" x2="8.75253" y2="57.0301" gradientUnits="userSpaceOnUse">
<stop stop-color="#949494"/>
<stop offset="1" stop-color="#0C0D0D"/>
</linearGradient>
<linearGradient id="paint10_linear_16_28412" x1="8.55261" y1="64.8901" x2="31.5226" y2="64.8901" gradientUnits="userSpaceOnUse">
<stop stop-color="#949494"/>
<stop offset="1"/>
</linearGradient>
<linearGradient id="paint11_linear_16_28412" x1="9.20264" y1="54.88" x2="30.8726" y2="54.88" gradientUnits="userSpaceOnUse">
<stop stop-color="#363B39"/>
<stop offset="1" stop-color="#0C0D0D"/>
</linearGradient>
<linearGradient id="paint12_linear_16_28412" x1="9.94263" y1="52.2199" x2="30.1326" y2="52.2199" gradientUnits="userSpaceOnUse">
<stop stop-color="#363B39"/>
<stop offset="1" stop-color="#0C0D0D"/>
</linearGradient>
<linearGradient id="paint13_linear_16_28412" x1="13.7727" y1="51.5601" x2="26.3027" y2="51.5601" gradientUnits="userSpaceOnUse">
<stop stop-color="#363B39"/>
<stop offset="1" stop-color="#0C0D0D"/>
</linearGradient>
<linearGradient id="paint14_linear_16_28412" x1="11.2627" y1="39.1599" x2="13.7827" y2="39.1599" gradientUnits="userSpaceOnUse">
<stop stop-color="#363B39"/>
<stop offset="1" stop-color="#0C0D0D"/>
</linearGradient>
<linearGradient id="paint15_linear_16_28412" x1="26.3026" y1="39.1599" x2="28.8126" y2="39.1599" gradientUnits="userSpaceOnUse">
<stop stop-color="#363B39"/>
<stop offset="1" stop-color="#0C0D0D"/>
</linearGradient>
<linearGradient id="paint16_linear_16_28412" x1="9.22266" y1="83.77" x2="30.8527" y2="83.77" gradientUnits="userSpaceOnUse">
<stop stop-color="#616161"/>
<stop offset="1"/>
</linearGradient>
<linearGradient id="paint17_linear_16_28412" x1="17.8225" y1="63.4399" x2="22.2625" y2="63.4399" gradientUnits="userSpaceOnUse">
<stop stop-color="#363B39"/>
<stop offset="1" stop-color="#0C0D0D"/>
</linearGradient>
<linearGradient id="paint18_linear_16_28412" x1="18.6126" y1="83.6201" x2="21.4626" y2="83.6201" gradientUnits="userSpaceOnUse">
<stop stop-color="#363B39"/>
<stop offset="1" stop-color="#0C0D0D"/>
</linearGradient>
<linearGradient id="paint19_linear_16_28412" x1="12.5227" y1="53.2201" x2="27.5527" y2="53.2201" gradientUnits="userSpaceOnUse">
<stop/>
<stop offset="1" stop-color="#0C0D0D"/>
</linearGradient>
<linearGradient id="paint20_linear_16_28412" x1="13.6025" y1="54.3199" x2="26.4825" y2="54.3199" gradientUnits="userSpaceOnUse">
<stop stop-color="#363B39"/>
<stop offset="1" stop-color="#0C0D0D"/>
</linearGradient>
<linearGradient id="paint21_linear_16_28412" x1="12.5227" y1="75.9801" x2="28.8127" y2="75.9801" gradientUnits="userSpaceOnUse">
<stop stop-color="#E0E0E0"/>
<stop offset="1" stop-color="#F2F2F2"/>
</linearGradient>
<linearGradient id="paint22_linear_16_28412" x1="12.5227" y1="78.0401" x2="28.8127" y2="78.0401" gradientUnits="userSpaceOnUse">
<stop stop-color="#E0E0E0"/>
<stop offset="1" stop-color="#F2F2F2"/>
</linearGradient>
<linearGradient id="paint23_linear_16_28412" x1="12.5227" y1="80.0902" x2="28.8127" y2="80.0902" gradientUnits="userSpaceOnUse">
<stop stop-color="#E0E0E0"/>
<stop offset="1" stop-color="#F2F2F2"/>
</linearGradient>
<linearGradient id="paint24_linear_16_28412" x1="12.5227" y1="82.15" x2="28.8127" y2="82.15" gradientUnits="userSpaceOnUse">
<stop stop-color="#E0E0E0"/>
<stop offset="1" stop-color="#F2F2F2"/>
</linearGradient>
<linearGradient id="paint25_linear_16_28412" x1="12.5227" y1="84.2001" x2="28.8127" y2="84.2001" gradientUnits="userSpaceOnUse">
<stop stop-color="#E0E0E0"/>
<stop offset="1" stop-color="#F2F2F2"/>
</linearGradient>
<linearGradient id="paint26_linear_16_28412" x1="12.5227" y1="86.2601" x2="28.8127" y2="86.2601" gradientUnits="userSpaceOnUse">
<stop stop-color="#E0E0E0"/>
<stop offset="1" stop-color="#F2F2F2"/>
</linearGradient>
<linearGradient id="paint27_linear_16_28412" x1="12.5227" y1="88.3102" x2="28.8127" y2="88.3102" gradientUnits="userSpaceOnUse">
<stop stop-color="#E0E0E0"/>
<stop offset="1" stop-color="#F2F2F2"/>
</linearGradient>
<linearGradient id="paint28_linear_16_28412" x1="12.5227" y1="90.37" x2="28.8127" y2="90.37" gradientUnits="userSpaceOnUse">
<stop stop-color="#E0E0E0"/>
<stop offset="1" stop-color="#F2F2F2"/>
</linearGradient>
<linearGradient id="paint29_linear_16_28412" x1="12.5227" y1="92.42" x2="28.8127" y2="92.42" gradientUnits="userSpaceOnUse">
<stop stop-color="#E0E0E0"/>
<stop offset="1" stop-color="#F2F2F2"/>
</linearGradient>
<linearGradient id="paint30_linear_16_28412" x1="2.17254" y1="69.9501" x2="6.14255" y2="69.9501" gradientUnits="userSpaceOnUse">
<stop stop-color="#949494"/>
<stop offset="1"/>
</linearGradient>
<linearGradient id="paint31_linear_16_28412" x1="37.9126" y1="69.9501" x2="33.9426" y2="69.9501" gradientUnits="userSpaceOnUse">
<stop stop-color="#949494"/>
<stop offset="1"/>
</linearGradient>
<linearGradient id="paint32_linear_16_28412" x1="4.63259" y1="92" x2="10.5726" y2="92" gradientUnits="userSpaceOnUse">
<stop stop-color="#949494"/>
<stop offset="1"/>
</linearGradient>
<linearGradient id="paint33_linear_16_28412" x1="35.4426" y1="92" x2="29.5026" y2="92" gradientUnits="userSpaceOnUse">
<stop stop-color="#949494"/>
<stop offset="1"/>
</linearGradient>
<linearGradient id="paint34_linear_16_28412" x1="33.0027" y1="32.2599" x2="3.41267" y2="32.2599" gradientUnits="userSpaceOnUse">
<stop stop-color="#DEDEDE"/>
<stop offset="0.08" stop-color="#CECECE"/>
<stop offset="0.9" stop-color="#ACAFAE"/>
<stop offset="1" stop-color="#7B7D7C"/>
</linearGradient>
<linearGradient id="paint35_linear_16_28412" x1="27.7327" y1="43.11" x2="27.7327" y2="1.31" gradientUnits="userSpaceOnUse">
<stop stop-color="#DEDEDE"/>
<stop offset="0.08" stop-color="#CECECE"/>
<stop offset="0.9" stop-color="#ACAFAE"/>
<stop offset="1" stop-color="#7B7D7C"/>
</linearGradient>
<linearGradient id="paint36_linear_16_28412" x1="32.7025" y1="11.45" x2="6.08252" y2="11.45" gradientUnits="userSpaceOnUse">
<stop stop-color="#DEDEDE"/>
<stop offset="0.08" stop-color="#CECECE"/>
<stop offset="0.9" stop-color="#ACAFAE"/>
<stop offset="1" stop-color="#7B7D7C"/>
</linearGradient>
<linearGradient id="paint37_linear_16_28412" x1="12.2825" y1="3.9" x2="12.2825" y2="42.96" gradientUnits="userSpaceOnUse">
<stop stop-color="#DEDEDE"/>
<stop offset="0.08" stop-color="#CECECE"/>
<stop offset="0.9" stop-color="#ACAFAE"/>
<stop offset="1" stop-color="#7B7D7C"/>
</linearGradient>
<linearGradient id="paint38_linear_16_28412" x1="20.0325" y1="2.78003" x2="20.0325" y2="40.85" gradientUnits="userSpaceOnUse">
<stop stop-color="#F7F7F7"/>
<stop offset="1" stop-color="#DBDBDB"/>
</linearGradient>
<linearGradient id="paint39_linear_16_28412" x1="31.6925" y1="7.74992" x2="5.17254" y2="7.74992" gradientUnits="userSpaceOnUse">
<stop stop-color="#F7F7F7"/>
<stop offset="0.48" stop-color="#F5F5F5"/>
<stop offset="0.65" stop-color="#EEEFEF"/>
<stop offset="0.77" stop-color="#E3E3E3"/>
<stop offset="0.87" stop-color="#D2D3D3"/>
<stop offset="0.96" stop-color="#BCBEBE"/>
<stop offset="1" stop-color="#ADB0AF"/>
</linearGradient>
<linearGradient id="paint40_linear_16_28412" x1="31.6925" y1="18.7399" x2="5.17254" y2="18.7399" gradientUnits="userSpaceOnUse">
<stop stop-color="#F7F7F7"/>
<stop offset="0.48" stop-color="#F5F5F5"/>
<stop offset="0.65" stop-color="#EEEFEF"/>
<stop offset="0.77" stop-color="#E3E3E3"/>
<stop offset="0.87" stop-color="#D2D3D3"/>
<stop offset="0.96" stop-color="#BCBEBE"/>
<stop offset="1" stop-color="#ADB0AF"/>
</linearGradient>
<linearGradient id="paint41_linear_16_28412" x1="31.6925" y1="37.9599" x2="5.17254" y2="37.9599" gradientUnits="userSpaceOnUse">
<stop stop-color="#F7F7F7"/>
<stop offset="0.48" stop-color="#F5F5F5"/>
<stop offset="0.65" stop-color="#EEEFEF"/>
<stop offset="0.77" stop-color="#E3E3E3"/>
<stop offset="0.87" stop-color="#D2D3D3"/>
<stop offset="0.96" stop-color="#BCBEBE"/>
<stop offset="1" stop-color="#ADB0AF"/>
</linearGradient>
</defs>
</svg>
