<svg width="49" height="89" viewBox="0 0 49 89" fill="none" xmlns="http://www.w3.org/2000/svg">
<g filter="url(#filter0_d_13_22661)">
<path d="M11.1414 50.3579L31.1683 50.3579C32.2346 50.3579 33.099 49.4935 33.099 48.4272L33.099 47.4341C33.099 46.3678 32.2346 45.5034 31.1683 45.5034L11.1414 45.5034C10.0751 45.5034 9.21067 46.3678 9.21067 47.4341L9.21066 48.4272C9.21066 49.4935 10.0751 50.3579 11.1414 50.3579Z" fill="#191F23"/>
<path d="M32.7288 64.2016L36.6664 64.2016C36.6664 64.4524 36.567 64.6931 36.3899 64.8708C36.2129 65.0485 35.9726 65.1487 35.7218 65.1497L33.6734 65.1497C33.4226 65.1487 33.1823 65.0485 33.0053 64.8708C32.8282 64.6931 32.7288 64.4524 32.7288 64.2016Z" fill="#191F23"/>
<path d="M32.7288 64.219L36.6664 64.219L36.6664 63.2744L32.7288 63.2744L32.7288 64.219Z" fill="#222B32"/>
<path d="M32.7288 63.2744L36.6664 63.2744L36.6664 62.3298L32.7288 62.3298L32.7288 63.2744Z" fill="#191F23"/>
<path d="M32.7288 62.3263L36.6664 62.3263L36.6664 61.3817L32.7288 61.3817L32.7288 62.3263Z" fill="#222B32"/>
<path d="M32.7288 61.3817L36.6664 61.3817L36.6664 60.4371L32.7288 60.4371L32.7288 61.3817Z" fill="#191F23"/>
<path d="M32.7288 60.4336L36.6664 60.4336L36.6664 59.489L32.7288 59.489L32.7288 60.4336Z" fill="#222B32"/>
<path d="M32.7288 59.489L36.6664 59.489L36.6664 58.5444L32.7288 58.5444L32.7288 59.489Z" fill="#191F23"/>
<path d="M32.7288 58.5444L36.6664 58.5444L36.6664 57.5998L32.7288 57.5998L32.7288 58.5444Z" fill="#222B32"/>
<path d="M32.7288 57.5964L36.6664 57.5964L36.6664 56.6518L32.7288 56.6518L32.7288 57.5964Z" fill="#191F23"/>
<path d="M32.7288 56.6518L36.6664 56.6518L36.6664 55.7072L32.7288 55.7072L32.7288 56.6518Z" fill="#222B32"/>
<path d="M33.6734 54.7591L35.7218 54.7591C35.9723 54.7591 36.2126 54.8586 36.3897 55.0357C36.5669 55.2129 36.6664 55.4532 36.6664 55.7037L32.7288 55.7037C32.7288 55.4532 32.8283 55.2129 33.0055 55.0357C33.1826 54.8586 33.4229 54.7591 33.6734 54.7591Z" fill="#191F23"/>
<path d="M28.2065 64.2016L32.144 64.2016C32.144 64.453 32.0442 64.6942 31.8664 64.872C31.6886 65.0498 31.4474 65.1497 31.196 65.1497L29.1511 65.1497C28.9002 65.1487 28.66 65.0485 28.4829 64.8708C28.3059 64.6931 28.2065 64.4524 28.2065 64.2016Z" fill="#191F23"/>
<path d="M28.2065 64.219L32.144 64.219L32.144 63.2744L28.2065 63.2744L28.2065 64.219Z" fill="#222B32"/>
<path d="M28.2065 63.2744L32.144 63.2744L32.144 62.3298L28.2065 62.3298L28.2065 63.2744Z" fill="#191F23"/>
<path d="M28.2065 62.3263L32.144 62.3263L32.144 61.3817L28.2065 61.3817L28.2065 62.3263Z" fill="#222B32"/>
<path d="M28.2065 61.3817L32.144 61.3817L32.144 60.4371L28.2065 60.4371L28.2065 61.3817Z" fill="#191F23"/>
<path d="M28.2065 60.4336L32.144 60.4336L32.144 59.489L28.2065 59.489L28.2065 60.4336Z" fill="#222B32"/>
<path d="M28.2065 59.489L32.144 59.489L32.144 58.5444L28.2065 58.5444L28.2065 59.489Z" fill="#191F23"/>
<path d="M28.2065 58.5444L32.144 58.5444L32.144 57.5998L28.2065 57.5998L28.2065 58.5444Z" fill="#222B32"/>
<path d="M28.2065 57.5964L32.144 57.5964L32.144 56.6518L28.2065 56.6518L28.2065 57.5964Z" fill="#191F23"/>
<path d="M28.2065 56.6518L32.144 56.6518L32.144 55.7072L28.2065 55.7072L28.2065 56.6518Z" fill="#222B32"/>
<path d="M29.1511 54.7591L31.196 54.7591C31.4468 54.7591 31.6874 54.8585 31.8651 55.0355C32.0428 55.2126 32.1431 55.4528 32.144 55.7037L28.2065 55.7037C28.2065 55.4532 28.306 55.2129 28.4831 55.0357C28.6603 54.8586 28.9006 54.7591 29.1511 54.7591Z" fill="#191F23"/>
<path d="M32.1441 62.7173L32.7634 62.7173L32.7634 57.2054L32.1441 57.2054L32.1441 62.7173Z" fill="#525D65"/>
<path d="M10.1658 64.2016L14.0861 64.2016C14.0861 64.453 13.9862 64.6942 13.8084 64.872C13.6306 65.0498 13.3894 65.1497 13.138 65.1497L11.0931 65.1497C10.8453 65.1442 10.6094 65.042 10.4361 64.8647C10.2628 64.6875 10.1657 64.4495 10.1658 64.2016Z" fill="#191F23"/>
<path d="M10.1658 64.219L14.1034 64.219L14.1034 63.2744L10.1658 63.2744L10.1658 64.219Z" fill="#222B32"/>
<path d="M10.1658 63.2744L14.1034 63.2744L14.1034 62.3298L10.1658 62.3298L10.1658 63.2744Z" fill="#191F23"/>
<path d="M10.1658 62.3263L14.1034 62.3263L14.1034 61.3817L10.1658 61.3817L10.1658 62.3263Z" fill="#222B32"/>
<path d="M10.1658 61.3817L14.1034 61.3817L14.1034 60.4371L10.1658 60.4371L10.1658 61.3817Z" fill="#191F23"/>
<path d="M10.1658 60.4336L14.1034 60.4336L14.1034 59.489L10.1658 59.489L10.1658 60.4336Z" fill="#222B32"/>
<path d="M10.1658 59.489L14.1034 59.489L14.1034 58.5444L10.1658 58.5444L10.1658 59.489Z" fill="#191F23"/>
<path d="M10.1658 58.5444L14.1034 58.5444L14.1034 57.5998L10.1658 57.5998L10.1658 58.5444Z" fill="#222B32"/>
<path d="M10.1658 57.5964L14.1034 57.5964L14.1034 56.6518L10.1658 56.6518L10.1658 57.5964Z" fill="#191F23"/>
<path d="M10.1658 56.6518L14.1034 56.6518L14.1034 55.7072L10.1658 55.7072L10.1658 56.6518Z" fill="#222B32"/>
<path d="M11.1104 54.7591L13.1553 54.7591C13.4062 54.7591 13.6468 54.8585 13.8245 55.0355C14.0022 55.2126 14.1025 55.4528 14.1034 55.7037L10.1658 55.7037C10.1658 55.4532 10.2653 55.2129 10.4425 55.0357C10.6196 54.8586 10.8599 54.7591 11.1104 54.7591Z" fill="#191F23"/>
<path d="M5.64341 64.2016L9.58789 64.2016C9.58789 64.4525 9.48848 64.6931 9.31143 64.8708C9.13439 65.0485 8.89413 65.1488 8.64329 65.1497L6.59839 65.1497C6.47331 65.1506 6.34928 65.1268 6.23346 65.0795C6.11763 65.0323 6.0123 64.9626 5.92353 64.8745C5.83476 64.7863 5.76431 64.6815 5.71623 64.566C5.66815 64.4506 5.6434 64.3267 5.64341 64.2016Z" fill="#191F23"/>
<path d="M5.63995 64.219L9.57751 64.219L9.57751 63.2744L5.63995 63.2744L5.63995 64.219Z" fill="#222B32"/>
<path d="M5.63995 63.2744L9.57751 63.2744L9.57751 62.3298L5.63995 62.3298L5.63995 63.2744Z" fill="#191F23"/>
<path d="M5.63995 62.3263L9.57751 62.3263L9.57751 61.3817L5.63995 61.3817L5.63995 62.3263Z" fill="#222B32"/>
<path d="M5.63995 61.3817L9.57751 61.3817L9.57751 60.4371L5.63995 60.4371L5.63995 61.3817Z" fill="#191F23"/>
<path d="M5.63995 60.4336L9.57751 60.4336L9.57751 59.489L5.63995 59.489L5.63995 60.4336Z" fill="#222B32"/>
<path d="M5.63995 59.489L9.57751 59.489L9.57751 58.5444L5.63995 58.5444L5.63995 59.489Z" fill="#191F23"/>
<path d="M5.63995 58.5444L9.57751 58.5444L9.57751 57.5998L5.63995 57.5998L5.63995 58.5444Z" fill="#222B32"/>
<path d="M5.63995 57.5964L9.57751 57.5964L9.57751 56.6518L5.63995 56.6518L5.63995 57.5964Z" fill="#191F23"/>
<path d="M5.63995 56.6518L9.57751 56.6518L9.57751 55.7072L5.63995 55.7072L5.63995 56.6518Z" fill="#222B32"/>
<path d="M6.58801 54.7591L8.63291 54.7591C8.88344 54.7591 9.1237 54.8586 9.30085 55.0357C9.47799 55.2129 9.57751 55.4532 9.57751 55.7037L5.64341 55.7037C5.64341 55.4532 5.74293 55.2129 5.92008 55.0357C6.09723 54.8586 6.33749 54.7591 6.58801 54.7591Z" fill="#191F23"/>
<path d="M9.58097 62.7173L10.2003 62.7173L10.2003 57.2054L9.58097 57.2054L9.58097 62.7173Z" fill="#525D65"/>
<path d="M32.7288 78.0419L36.6664 78.0419C36.6664 78.2924 36.5669 78.5327 36.3897 78.7098C36.2126 78.887 35.9723 78.9865 35.7218 78.9865L33.6734 78.9865C33.4229 78.9865 33.1826 78.887 33.0055 78.7098C32.8283 78.5327 32.7288 78.2924 32.7288 78.0419Z" fill="#191F23"/>
<path d="M32.7288 78.0419L36.6664 78.0419L36.6664 77.0973L32.7288 77.0973L32.7288 78.0419Z" fill="#222B32"/>
<path d="M32.7288 77.0974L36.6664 77.0974L36.6664 76.1528L32.7288 76.1528L32.7288 77.0974Z" fill="#191F23"/>
<path d="M32.7288 76.1493L36.6664 76.1493L36.6664 75.2047L32.7288 75.2047L32.7288 76.1493Z" fill="#222B32"/>
<path d="M32.7288 75.2047L36.6664 75.2047L36.6664 74.2601L32.7288 74.2601L32.7288 75.2047Z" fill="#191F23"/>
<path d="M32.7288 74.2566L36.6664 74.2566L36.6664 73.312L32.7288 73.312L32.7288 74.2566Z" fill="#222B32"/>
<path d="M32.7288 73.312L36.6664 73.312L36.6664 72.3673L32.7288 72.3673L32.7288 73.312Z" fill="#191F23"/>
<path d="M32.7288 72.364L36.6664 72.364L36.6664 71.4194L32.7288 71.4194L32.7288 72.364Z" fill="#222B32"/>
<path d="M32.7288 71.4194L36.6664 71.4194L36.6664 70.4748L32.7288 70.4748L32.7288 71.4194Z" fill="#191F23"/>
<path d="M32.7288 70.4713L36.6664 70.4713L36.6664 69.5267L32.7288 69.5267L32.7288 70.4713Z" fill="#222B32"/>
<path d="M33.6734 68.5821L35.7218 68.5821C35.9723 68.5821 36.2126 68.6816 36.3897 68.8587C36.5669 69.0359 36.6664 69.2761 36.6664 69.5267L32.7288 69.5267C32.7288 69.2761 32.8283 69.0359 33.0055 68.8587C33.1826 68.6816 33.4229 68.5821 33.6734 68.5821Z" fill="#191F23"/>
<path d="M28.2065 78.0419L32.144 78.0419C32.1431 78.2928 32.0428 78.533 31.8651 78.7101C31.6874 78.8871 31.4468 78.9865 31.196 78.9865L29.1511 78.9865C28.9006 78.9865 28.6603 78.887 28.4831 78.7098C28.306 78.5327 28.2065 78.2924 28.2065 78.0419Z" fill="#191F23"/>
<path d="M28.2065 78.0419L32.144 78.0419L32.144 77.0973L28.2065 77.0973L28.2065 78.0419Z" fill="#222B32"/>
<path d="M28.2065 77.0974L32.144 77.0974L32.144 76.1528L28.2065 76.1528L28.2065 77.0974Z" fill="#191F23"/>
<path d="M28.2065 76.1493L32.144 76.1493L32.144 75.2047L28.2065 75.2047L28.2065 76.1493Z" fill="#222B32"/>
<path d="M28.2065 75.2047L32.144 75.2047L32.144 74.2601L28.2065 74.2601L28.2065 75.2047Z" fill="#191F23"/>
<path d="M28.2065 74.2566L32.144 74.2566L32.144 73.312L28.2065 73.312L28.2065 74.2566Z" fill="#222B32"/>
<path d="M28.2065 73.312L32.144 73.312L32.144 72.3673L28.2065 72.3673L28.2065 73.312Z" fill="#191F23"/>
<path d="M28.2065 72.364L32.144 72.364L32.144 71.4194L28.2065 71.4194L28.2065 72.364Z" fill="#222B32"/>
<path d="M28.2065 71.4194L32.144 71.4194L32.144 70.4748L28.2065 70.4748L28.2065 71.4194Z" fill="#191F23"/>
<path d="M28.2065 70.4713L32.144 70.4713L32.144 69.5267L28.2065 69.5267L28.2065 70.4713Z" fill="#222B32"/>
<path d="M29.1511 68.5821L31.196 68.5821C31.4468 68.5821 31.6874 68.6815 31.8651 68.8585C32.0428 69.0356 32.1431 69.2758 32.144 69.5267L28.2065 69.5267C28.2065 69.2761 28.306 69.0359 28.4831 68.8587C28.6603 68.6816 28.9006 68.5821 29.1511 68.5821Z" fill="#191F23"/>
<path d="M32.1441 76.5403L32.7634 76.5403L32.7634 71.0284L32.1441 71.0284L32.1441 76.5403Z" fill="#525D65"/>
<path d="M10.1658 78.0419L14.0861 78.0419C14.0851 78.2928 13.9849 78.533 13.8072 78.7101C13.6295 78.8871 13.3888 78.9865 13.138 78.9865L11.0931 78.9865C10.8456 78.982 10.6097 78.8805 10.4363 78.7038C10.2629 78.5271 10.1658 78.2895 10.1658 78.0419Z" fill="#191F23"/>
<path d="M10.1658 78.0419L14.1034 78.0419L14.1034 77.0973L10.1658 77.0973L10.1658 78.0419Z" fill="#222B32"/>
<path d="M10.1658 77.0974L14.1034 77.0974L14.1034 76.1528L10.1658 76.1528L10.1658 77.0974Z" fill="#191F23"/>
<path d="M10.1658 76.1493L14.1034 76.1493L14.1034 75.2047L10.1658 75.2047L10.1658 76.1493Z" fill="#222B32"/>
<path d="M10.1658 75.2047L14.1034 75.2047L14.1034 74.2601L10.1658 74.2601L10.1658 75.2047Z" fill="#191F23"/>
<path d="M10.1658 74.2566L14.1034 74.2566L14.1034 73.312L10.1658 73.312L10.1658 74.2566Z" fill="#222B32"/>
<path d="M10.1658 73.312L14.1034 73.312L14.1034 72.3673L10.1658 72.3673L10.1658 73.312Z" fill="#191F23"/>
<path d="M10.1658 72.364L14.1034 72.364L14.1034 71.4194L10.1658 71.4194L10.1658 72.364Z" fill="#222B32"/>
<path d="M10.1658 71.4194L14.1034 71.4194L14.1034 70.4748L10.1658 70.4748L10.1658 71.4194Z" fill="#191F23"/>
<path d="M10.1658 70.4713L14.1034 70.4713L14.1034 69.5267L10.1658 69.5267L10.1658 70.4713Z" fill="#222B32"/>
<path d="M11.1104 68.5821L13.1553 68.5821C13.4031 68.5866 13.6393 68.688 13.8133 68.8646C13.9873 69.0411 14.0852 69.2788 14.0861 69.5267L10.1485 69.5267C10.1485 69.4012 10.1735 69.2769 10.222 69.1611C10.2706 69.0454 10.3417 68.9405 10.4313 68.8525C10.5208 68.7646 10.627 68.6954 10.7436 68.6489C10.8602 68.6025 10.9849 68.5798 11.1104 68.5821Z" fill="#191F23"/>
<path d="M5.64341 78.042L9.58789 78.042C9.58789 78.166 9.56346 78.2889 9.51599 78.4035C9.46852 78.5181 9.39894 78.6222 9.31122 78.7099C9.22351 78.7976 9.11938 78.8672 9.00477 78.9147C8.89017 78.9621 8.76734 78.9866 8.64329 78.9866L6.59839 78.9866C6.47347 78.9879 6.34952 78.9645 6.23372 78.9177C6.11791 78.8708 6.01255 78.8015 5.92374 78.7136C5.83492 78.6258 5.76441 78.5212 5.71629 78.4059C5.66817 78.2906 5.6434 78.1669 5.64341 78.042Z" fill="#191F23"/>
<path d="M5.63995 78.0419L9.57751 78.0419L9.57751 77.0973L5.63995 77.0973L5.63995 78.0419Z" fill="#222B32"/>
<path d="M5.63995 77.0974L9.57751 77.0974L9.57751 76.1528L5.63995 76.1528L5.63995 77.0974Z" fill="#191F23"/>
<path d="M5.63995 76.1493L9.57751 76.1493L9.57751 75.2047L5.63995 75.2047L5.63995 76.1493Z" fill="#222B32"/>
<path d="M5.63995 75.2047L9.57751 75.2047L9.57751 74.2601L5.63995 74.2601L5.63995 75.2047Z" fill="#191F23"/>
<path d="M5.63995 74.2566L9.57751 74.2566L9.57751 73.312L5.63995 73.312L5.63995 74.2566Z" fill="#222B32"/>
<path d="M5.63995 73.312L9.57751 73.312L9.57751 72.3673L5.63995 72.3673L5.63995 73.312Z" fill="#191F23"/>
<path d="M5.63995 72.364L9.57751 72.364L9.57751 71.4194L5.63995 71.4194L5.63995 72.364Z" fill="#222B32"/>
<path d="M5.63995 71.4194L9.57751 71.4194L9.57751 70.4748L5.63995 70.4748L5.63995 71.4194Z" fill="#191F23"/>
<path d="M5.63995 70.4713L9.57751 70.4713L9.57751 69.5267L5.63995 69.5267L5.63995 70.4713Z" fill="#222B32"/>
<path d="M6.58801 68.5821L8.63291 68.5821C8.75783 68.5807 8.88178 68.6041 8.99758 68.651C9.11339 68.6978 9.21875 68.7672 9.30756 68.855C9.39638 68.9429 9.46689 69.0475 9.51501 69.1628C9.56313 69.2781 9.5879 69.4017 9.58789 69.5267L5.64341 69.5267C5.64341 69.2761 5.74293 69.0359 5.92007 68.8587C6.09722 68.6816 6.33749 68.5821 6.58801 68.5821Z" fill="#191F23"/>
<path d="M9.58097 76.5403L10.2003 76.5403L10.2003 71.0284L9.58097 71.0284L9.58097 76.5403Z" fill="#525D65"/>
<path d="M24.4662 81.8895L17.8505 81.8895C17.6965 81.8895 17.544 81.8592 17.4017 81.8002C17.2594 81.7413 17.1301 81.6549 17.0211 81.546C16.9122 81.4371 16.8258 81.3077 16.7669 81.1654C16.7079 81.0231 16.6776 80.8706 16.6776 80.7166L16.6776 80.1422L25.6288 80.1422L25.6288 80.7166C25.6288 81.0259 25.5066 81.3226 25.2889 81.5423C25.0712 81.762 24.7755 81.8868 24.4662 81.8895Z" fill="#191F23"/>
<path d="M27.9262 80.6508L14.3766 80.6508C14.0692 80.6508 13.7744 80.5287 13.557 80.3113C13.3396 80.0939 13.2175 79.7991 13.2175 79.4917L13.2175 47.3822L29.0923 47.3822L29.0923 79.4917C29.0923 79.6445 29.0621 79.7958 29.0034 79.9369C28.9447 80.0779 28.8587 80.206 28.7503 80.3138C28.642 80.4215 28.5134 80.5067 28.3719 80.5646C28.2305 80.6224 28.079 80.6517 27.9262 80.6508Z" fill="#3B464E"/>
<path d="M15.0824 80.6508L27.2273 80.6508L27.2273 47.3822L15.0824 47.3822L15.0824 80.6508Z" fill="#222B32"/>
<path d="M19.8422 69.6984C18.0803 70.4232 17.2395 72.4391 17.9642 74.2011C18.689 75.9631 20.7049 76.8039 22.4669 76.0791C24.2289 75.3543 25.0697 73.3384 24.3449 71.5764C23.6201 69.8144 21.6042 68.9736 19.8422 69.6984Z" fill="#637079"/>
<path d="M18.5943 72.4667C18.3642 73.8813 19.3244 75.2147 20.739 75.4448C22.1536 75.6749 23.487 74.7147 23.7171 73.3001C23.9472 71.8855 22.987 70.5522 21.5724 70.322C20.1578 70.0919 18.8245 71.0521 18.5943 72.4667Z" fill="#7C8B96"/>
<path d="M27.2343 81.4709L27.3069 81.4709C27.5244 81.4709 27.733 81.3845 27.8868 81.2307C28.0406 81.0769 28.127 80.8683 28.127 80.6508L26.4177 80.6508C26.4172 80.7584 26.438 80.8649 26.4788 80.9644C26.5197 81.0639 26.5797 81.1543 26.6556 81.2305C26.7315 81.3067 26.8217 81.3671 26.921 81.4084C27.0203 81.4497 27.1267 81.4709 27.2343 81.4709Z" fill="#278F51"/>
<path d="M14.9995 81.4709L15.0722 81.4709C15.2897 81.4709 15.4982 81.3845 15.652 81.2307C15.8058 81.0769 15.8922 80.8683 15.8922 80.6508L14.1829 80.6508C14.1829 80.8677 14.2689 81.0758 14.4219 81.2295C14.5749 81.3832 14.7826 81.47 14.9995 81.4709Z" fill="#278F51"/>
<path d="M25.2239 50.0154C25.3064 50.0144 25.3883 50.03 25.4647 50.0611C25.5411 50.0923 25.6105 50.1384 25.6688 50.1967C25.7272 50.2551 25.7733 50.3245 25.8044 50.4009C25.8355 50.4773 25.8511 50.5591 25.8502 50.6416L25.8502 58.8766C25.8493 59.0403 25.7836 59.1969 25.6676 59.3123C25.5515 59.4277 25.3945 59.4925 25.2308 59.4925C25.0672 59.4925 24.9101 59.4277 24.7941 59.3123C24.678 59.1969 24.6124 59.0403 24.6115 58.8766L24.6115 50.6416C24.6106 50.5603 24.6257 50.4796 24.656 50.4041C24.6862 50.3286 24.7311 50.2598 24.788 50.2016C24.8448 50.1435 24.9126 50.0971 24.9874 50.0651C25.0622 50.0332 25.1426 50.0163 25.2239 50.0154Z" fill="#191F23"/>
<path d="M17.0859 50.0153C17.2496 50.0162 17.4062 50.0819 17.5216 50.1979C17.637 50.314 17.7018 50.471 17.7018 50.6347L17.7018 58.8696C17.7018 59.033 17.6369 59.1896 17.5214 59.3051C17.4059 59.4206 17.2492 59.4855 17.0859 59.4855C16.9222 59.4855 16.7652 59.4208 16.6492 59.3054C16.5331 59.1899 16.4675 59.0333 16.4665 58.8696L16.4665 50.6347C16.4665 50.4704 16.5318 50.3129 16.6479 50.1967C16.7641 50.0806 16.9216 50.0153 17.0859 50.0153Z" fill="#191F23"/>
<path d="M34.3793 7.67102L7.93047 7.67102C7.6053 7.67 7.28635 7.58188 7.00678 7.41583C6.72721 7.24978 6.49723 7.01187 6.34076 6.72683C6.18428 6.44178 6.10703 6.12003 6.11704 5.79502C6.12705 5.47001 6.22394 5.15361 6.39766 4.87874C7.03589 3.86558 7.92081 3.03097 8.96955 2.45304C10.0183 1.87512 11.1965 1.57279 12.394 1.57437L12.4874 1.57437L12.4874 5.63996L29.8189 5.63996L29.8189 1.57437L29.9123 1.57437C31.1108 1.57391 32.2898 1.87743 33.3391 2.45653C34.3884 3.03563 35.2736 3.8714 35.9121 4.88567C36.084 5.16042 36.1794 5.47609 36.1885 5.80007C36.1976 6.12405 36.12 6.44457 35.9637 6.72852C35.8075 7.01247 35.5782 7.24954 35.2997 7.41523C35.0211 7.58092 34.7034 7.66923 34.3793 7.67102Z" fill="#278F51"/>
<path d="M12.7296 2.31128L29.5801 2.31128C31.3879 2.31128 33.1217 3.02943 34.4 4.30774C35.6783 5.58605 36.3964 7.31982 36.3964 9.12762L36.3964 44.1782C36.3964 45.1784 35.9991 46.1377 35.2918 46.845C34.5845 47.5523 33.6252 47.9496 32.625 47.9496L9.68469 47.9496C8.68443 47.9496 7.72514 47.5523 7.01785 46.845C6.31056 46.1377 5.91321 45.1784 5.91321 44.1782L5.91321 9.13454C5.9123 8.23882 6.08794 7.35171 6.43009 6.52391C6.77223 5.69612 7.27418 4.94388 7.90722 4.31019C8.54027 3.6765 9.292 3.17379 10.1195 2.8308C10.9469 2.48782 11.8338 2.31128 12.7296 2.31128Z" fill="#278F51"/>
<path d="M21.1548 3.89604C15.7278 3.89604 11.3282 8.29557 11.3282 13.7227C11.3282 19.1497 15.7278 23.5493 21.1548 23.5493C26.5819 23.5493 30.9814 19.1497 30.9814 13.7227C30.9814 8.29557 26.5819 3.89605 21.1548 3.89604Z" fill="#04B54C"/>
<path d="M13.7537 14.3143L28.5698 14.3143C30.1959 14.3143 31.7554 14.9603 32.9052 16.1101C34.055 17.26 34.701 18.8195 34.701 20.4456L34.701 25.6357L7.61902 25.6357L7.61902 20.4456C7.61902 19.6401 7.77772 18.8426 8.08606 18.0985C8.3944 17.3544 8.84634 16.6783 9.41604 16.1089C9.98575 15.5395 10.6621 15.088 11.4063 14.7801C12.1506 14.4721 12.9483 14.3139 13.7537 14.3143Z" fill="#222B32"/>
<path style="mix-blend-mode:screen" d="M9.72811 16.3214C11.2427 15.8587 12.7903 15.5116 14.3575 15.2832C15.1665 15.1573 16.0384 15.0629 16.9463 15C19.27 16.7619 22.0252 19.944 23.1488 21.2924C20.3412 21.1766 17.5293 21.2156 14.726 21.4092C13.2623 21.5431 11.8146 21.8155 10.4023 22.2227L9 16.609C9.22595 16.4752 9.47171 16.3781 9.72811 16.3214Z" fill="url(#paint0_linear_13_22661)"/>
<path d="M12.8784 20.7465L29.4349 20.7465C30.8334 20.7465 32.1746 21.3021 33.1635 22.291C34.1524 23.2799 34.708 24.6211 34.708 26.0197L34.708 42.064C34.708 43.0643 34.3107 44.0236 33.6034 44.7309C32.8961 45.4382 31.9368 45.8355 30.9365 45.8355L11.3733 45.8355C10.373 45.8355 9.41373 45.4382 8.70644 44.7309C7.99916 44.0236 7.6018 43.0643 7.6018 42.064L7.60181 26.0197C7.60181 25.3269 7.73831 24.6409 8.00353 24.0009C8.26875 23.3609 8.65748 22.7795 9.1475 22.2898C9.63752 21.8001 10.2192 21.4117 10.8594 21.1469C11.4996 20.8821 12.1856 20.7461 12.8784 20.7465Z" fill="#04B54C"/>
<path d="M13.2348 1L29.0785 1C29.3253 1 29.5621 1.09806 29.7366 1.27261C29.9112 1.44716 30.0092 1.68391 30.0092 1.93076L30.0092 2.31829L12.3075 2.31829L12.3075 1.93076C12.3075 1.68391 12.4056 1.44716 12.5801 1.27261C12.7547 1.09806 12.9914 1 13.2383 1L13.2348 1Z" fill="#222B32"/>
<path d="M4.77148 19.9196L1.46711 19.9196C1.20913 19.9196 1 20.1288 1 20.3867L1 20.7293C1 20.9872 1.20913 21.1964 1.46711 21.1964L4.77148 21.1964C5.02945 21.1964 5.23859 20.9873 5.23859 20.7293L5.23859 20.3867C5.23859 20.1288 5.02945 19.9196 4.77148 19.9196Z" fill="#E4EDF1"/>
<path d="M6.69186 19.3315L3.5778 19.3315C3.45208 19.3315 3.33151 19.3814 3.24261 19.4703C3.15371 19.5592 3.10377 19.6798 3.10377 19.8055C3.10377 19.9312 3.15371 20.0518 3.24261 20.1407C3.33151 20.2296 3.45208 20.2795 3.5778 20.2795L6.69186 20.2795C6.81758 20.2795 6.93816 20.2296 7.02705 20.1407C7.11595 20.0518 7.16589 19.9312 7.16589 19.8055C7.16499 19.6801 7.11475 19.56 7.02605 19.4713C6.93735 19.3826 6.8173 19.3324 6.69186 19.3315Z" fill="#BEC9D2"/>
<path d="M37.5383 21.1999L40.8427 21.1999C41.1007 21.1999 41.3098 20.9908 41.3098 20.7328L41.3098 20.3902C41.3098 20.1323 41.1007 19.9231 40.8427 19.9231L37.5383 19.9231C37.2804 19.9231 37.0712 20.1323 37.0712 20.3902L37.0712 20.7328C37.0712 20.9908 37.2804 21.1999 37.5383 21.1999Z" fill="#E4EDF1"/>
<path d="M35.618 19.3315L38.732 19.3315C38.8575 19.3324 38.9775 19.3826 39.0662 19.4713C39.1549 19.56 39.2051 19.6801 39.2061 19.8055C39.2061 19.8678 39.1938 19.9294 39.17 19.9869C39.1461 20.0444 39.1112 20.0967 39.0672 20.1407C39.0232 20.1847 38.9709 20.2196 38.9134 20.2435C38.8559 20.2673 38.7943 20.2795 38.732 20.2795L35.618 20.2795C35.4922 20.2795 35.3717 20.2296 35.2828 20.1407C35.1939 20.0518 35.1439 19.9312 35.1439 19.8055C35.1439 19.6798 35.1939 19.5592 35.2828 19.4703C35.3717 19.3814 35.4922 19.3315 35.618 19.3315Z" fill="#BEC9D2"/>
<path d="M11.7366 44.3339C11.4888 44.3339 11.2512 44.2355 11.076 44.0603C10.9008 43.8851 10.8023 43.6475 10.8023 43.3997L10.8023 25.7949C10.8023 25.5471 10.9008 25.3095 11.076 25.1343C11.2512 24.9591 11.4888 24.8606 11.7366 24.8606C11.9843 24.8606 12.2219 24.9591 12.3971 25.1343C12.5723 25.3095 12.6708 25.5471 12.6708 25.7949L12.6708 43.3997C12.6708 43.5224 12.6466 43.6439 12.5997 43.7572C12.5527 43.8706 12.4839 43.9735 12.3971 44.0603C12.3104 44.147 12.2074 44.2159 12.0941 44.2628C11.9807 44.3098 11.8592 44.3339 11.7366 44.3339Z" fill="#278F51"/>
<path d="M14.8749 44.3339C14.7524 44.3339 14.6311 44.3097 14.5179 44.2627C14.4048 44.2157 14.302 44.1469 14.2155 44.0601C14.1291 43.9733 14.0606 43.8703 14.014 43.7569C13.9674 43.6436 13.9437 43.5222 13.9441 43.3997L13.9441 25.7948C13.9437 25.6723 13.9674 25.5509 14.014 25.4376C14.0606 25.3243 14.1291 25.2212 14.2155 25.1344C14.302 25.0477 14.4048 24.9788 14.5179 24.9318C14.6311 24.8848 14.7524 24.8606 14.8749 24.8606C14.9982 24.8597 15.1204 24.8832 15.2345 24.9297C15.3487 24.9763 15.4525 25.0449 15.54 25.1318C15.6275 25.2186 15.6969 25.3219 15.7443 25.4357C15.7917 25.5495 15.816 25.6716 15.816 25.7948L15.816 43.3997C15.816 43.5229 15.7917 43.645 15.7443 43.7588C15.6969 43.8726 15.6275 43.9759 15.54 44.0627C15.4525 44.1496 15.3487 44.2182 15.2345 44.2648C15.1204 44.3113 14.9982 44.3348 14.8749 44.3339Z" fill="#278F51"/>
<path d="M18.0167 44.3339C17.7689 44.3339 17.5313 44.2355 17.3561 44.0603C17.1809 43.8851 17.0825 43.6475 17.0825 43.3997L17.0825 25.7949C17.0825 25.5471 17.1809 25.3095 17.3561 25.1343C17.5313 24.9591 17.7689 24.8606 18.0167 24.8606C18.2612 24.8652 18.494 24.9657 18.6649 25.1405C18.8358 25.3153 18.9311 25.5504 18.9302 25.7949L18.9302 43.3997C18.9311 43.6442 18.8358 43.8792 18.6649 44.054C18.494 44.2288 18.2612 44.3294 18.0167 44.3339Z" fill="#278F51"/>
<path d="M21.1549 44.3339C21.0322 44.3339 20.9107 44.3098 20.7974 44.2628C20.684 44.2159 20.5811 44.147 20.4943 44.0603C20.4076 43.9735 20.3387 43.8706 20.2918 43.7572C20.2448 43.6439 20.2207 43.5224 20.2207 43.3997L20.2207 25.7949C20.2207 25.6722 20.2448 25.5507 20.2918 25.4373C20.3387 25.324 20.4076 25.221 20.4943 25.1343C20.5811 25.0475 20.684 24.9787 20.7974 24.9317C20.9107 24.8848 21.0322 24.8606 21.1549 24.8606C21.4027 24.8606 21.6403 24.9591 21.8155 25.1343C21.9907 25.3095 22.0891 25.5471 22.0891 25.7949L22.0891 43.3997C22.0891 43.5224 22.0649 43.6439 22.018 43.7572C21.9711 43.8706 21.9022 43.9735 21.8155 44.0603C21.7287 44.147 21.6257 44.2159 21.5124 44.2628C21.3991 44.3098 21.2776 44.3339 21.1549 44.3339Z" fill="#278F51"/>
<path d="M24.2932 44.3339C24.0454 44.3339 23.8078 44.2355 23.6326 44.0603C23.4574 43.8851 23.359 43.6475 23.359 43.3997L23.359 25.7949C23.359 25.5471 23.4574 25.3095 23.6326 25.1343C23.8078 24.9591 24.0454 24.8606 24.2932 24.8606C24.4159 24.8606 24.5374 24.8848 24.6507 24.9317C24.7641 24.9787 24.867 25.0475 24.9538 25.1343C25.0405 25.221 25.1094 25.324 25.1563 25.4373C25.2033 25.5507 25.2274 25.6722 25.2274 25.7949L25.2274 43.3997C25.2274 43.5224 25.2033 43.6439 25.1563 43.7572C25.1094 43.8706 25.0405 43.9735 24.9538 44.0603C24.867 44.147 24.7641 44.2159 24.6507 44.2628C24.5374 44.3098 24.4159 44.3339 24.2932 44.3339Z" fill="#278F51"/>
<path d="M27.4315 44.3339C27.309 44.3339 27.1877 44.3097 27.0745 44.2627C26.9614 44.2158 26.8586 44.1469 26.7721 44.0601C26.6857 43.9733 26.6172 43.8703 26.5706 43.757C26.524 43.6436 26.5003 43.5222 26.5007 43.3997L26.5007 25.7949C26.5003 25.6723 26.524 25.5509 26.5706 25.4376C26.6172 25.3243 26.6857 25.2213 26.7721 25.1345C26.8586 25.0477 26.9614 24.9788 27.0745 24.9318C27.1877 24.8848 27.309 24.8606 27.4315 24.8606C27.6793 24.8606 27.9169 24.9591 28.0921 25.1343C28.2673 25.3095 28.3657 25.5471 28.3657 25.7949L28.3657 43.3997C28.3657 43.5224 28.3416 43.6439 28.2946 43.7572C28.2477 43.8706 28.1788 43.9735 28.0921 44.0603C28.0053 44.147 27.9024 44.2159 27.789 44.2628C27.6757 44.3098 27.5542 44.3339 27.4315 44.3339Z" fill="#278F51"/>
<path d="M30.5731 44.3339C30.3254 44.3339 30.0877 44.2355 29.9125 44.0603C29.7373 43.8851 29.6389 43.6475 29.6389 43.3997L29.6389 25.7949C29.6389 25.5471 29.7373 25.3095 29.9125 25.1343C30.0877 24.9591 30.3254 24.8606 30.5731 24.8606C30.6957 24.8606 30.817 24.8848 30.9301 24.9318C31.0433 24.9788 31.146 25.0477 31.2325 25.1345C31.319 25.2213 31.3875 25.3243 31.434 25.4376C31.4806 25.5509 31.5044 25.6723 31.5039 25.7949L31.5039 43.3997C31.5044 43.5222 31.4806 43.6436 31.434 43.757C31.3875 43.8703 31.319 43.9733 31.2325 44.0601C31.146 44.1469 31.0433 44.2158 30.9301 44.2627C30.817 44.3097 30.6957 44.3339 30.5731 44.3339Z" fill="#278F51"/>
</g>
<defs>
<filter id="filter0_d_13_22661" x="0" y="0" width="48.3098" height="88.8895" filterUnits="userSpaceOnUse" color-interpolation-filters="sRGB">
<feFlood flood-opacity="0" result="BackgroundImageFix"/>
<feColorMatrix in="SourceAlpha" type="matrix" values="0 0 0 0 0 0 0 0 0 0 0 0 0 0 0 0 0 0 127 0" result="hardAlpha"/>
<feOffset dx="3" dy="3"/>
<feGaussianBlur stdDeviation="2"/>
<feComposite in2="hardAlpha" operator="out"/>
<feColorMatrix type="matrix" values="0 0 0 0 0 0 0 0 0 0 0 0 0 0 0 0 0 0 0.25 0"/>
<feBlend mode="normal" in2="BackgroundImageFix" result="effect1_dropShadow_13_22661"/>
<feBlend mode="normal" in="SourceGraphic" in2="effect1_dropShadow_13_22661" result="shape"/>
</filter>
<linearGradient id="paint0_linear_13_22661" x1="20.079" y1="16.1191" x2="14.2991" y2="20.2271" gradientUnits="userSpaceOnUse">
<stop stop-color="#363B39"/>
<stop offset="1"/>
</linearGradient>
</defs>
</svg>
