<svg width="51" height="51" viewBox="0 0 51 51" fill="none" xmlns="http://www.w3.org/2000/svg">
<circle cx="25.2891" cy="25.5" r="25" fill="#9C4900"/>
<path d="M25.6094 15.75C26.9355 15.75 28.2072 16.2768 29.1449 17.2145C30.0826 18.1521 30.6094 19.4239 30.6094 20.75C30.6094 22.0761 30.0826 23.3479 29.1449 24.2855C28.2072 25.2232 26.9355 25.75 25.6094 25.75C24.2833 25.75 23.0115 25.2232 22.0738 24.2855C21.1362 23.3479 20.6094 22.0761 20.6094 20.75C20.6094 19.4239 21.1362 18.1521 22.0738 17.2145C23.0115 16.2768 24.2833 15.75 25.6094 15.75ZM25.6094 18.25C24.9463 18.25 24.3104 18.5134 23.8416 18.9822C23.3728 19.4511 23.1094 20.087 23.1094 20.75C23.1094 21.413 23.3728 22.0489 23.8416 22.5178C24.3104 22.9866 24.9463 23.25 25.6094 23.25C26.2724 23.25 26.9083 22.9866 27.3771 22.5178C27.846 22.0489 28.1094 21.413 28.1094 20.75C28.1094 20.087 27.846 19.4511 27.3771 18.9822C26.9083 18.5134 26.2724 18.25 25.6094 18.25ZM25.6094 27C28.9469 27 35.6094 28.6625 35.6094 32V35.75H15.6094V32C15.6094 28.6625 22.2719 27 25.6094 27ZM25.6094 29.375C21.8969 29.375 17.9844 31.2 17.9844 32V33.375H33.2344V32C33.2344 31.2 29.3219 29.375 25.6094 29.375Z" fill="#F6EFE9"/>
</svg>
