<svg width="51" height="51" viewBox="0 0 51 51" fill="none" xmlns="http://www.w3.org/2000/svg">
<circle cx="25.2891" cy="25.5" r="25" fill="#9C4900"/>
<path d="M36.9578 31.1172C36.9703 30.9297 37.0078 30.7422 37.0078 30.5547V31.1797L36.9578 31.1172ZM24.5078 30.5547C24.5078 31.4422 24.6953 32.2922 25.0328 33.0547H18.2578V34.3047C18.2578 34.9922 17.6953 35.5547 17.0078 35.5547H15.7578C15.0703 35.5547 14.5078 34.9922 14.5078 34.3047V24.3047L17.1078 16.8047C17.3578 16.0797 18.0578 15.5547 18.8828 15.5547H32.6328C33.4578 15.5547 34.1578 16.0797 34.4078 16.8047L37.0078 24.3047V30.5547C37.0078 27.1047 34.2078 24.3047 30.7578 24.3047C27.3078 24.3047 24.5078 27.1047 24.5078 30.5547ZM20.7578 27.4297C20.7578 26.3922 19.9203 25.5547 18.8828 25.5547C17.8453 25.5547 17.0078 26.3922 17.0078 27.4297C17.0078 28.4672 17.8453 29.3047 18.8828 29.3047C19.9203 29.3047 20.7578 28.4672 20.7578 27.4297ZM34.5078 23.0547L32.6328 17.4297H18.8828L17.0078 23.0547H34.5078ZM39.3453 37.0422L34.2078 31.9047C34.7203 30.6047 34.4328 29.0797 33.3578 28.0172C32.2328 26.8797 30.5453 26.6547 29.1828 27.2797L31.6078 29.7047L29.9203 31.4047L27.4328 28.9672C26.7578 30.3297 27.0703 32.0172 28.1703 33.1547C28.6668 33.6611 29.3004 34.0114 29.9933 34.1624C30.6862 34.3134 31.4082 34.2586 32.0703 34.0047L37.2078 39.1297C37.4328 39.3672 37.7703 39.3672 37.9953 39.1297L39.2953 37.8422C39.5703 37.6172 39.5703 37.2172 39.3453 37.0422Z" fill="#F6EFE9"/>
</svg>
