<svg width="25" height="25" viewBox="0 0 25 25" fill="none" xmlns="http://www.w3.org/2000/svg">
<path d="M13.2891 7.5H11.2891V11.5H7.28906V13.5H11.2891V17.5H13.2891V13.5H17.2891V11.5H13.2891V7.5ZM12.2891 2.5C6.76906 2.5 2.28906 6.98 2.28906 12.5C2.28906 18.02 6.76906 22.5 12.2891 22.5C17.8091 22.5 22.2891 18.02 22.2891 12.5C22.2891 6.98 17.8091 2.5 12.2891 2.5ZM12.2891 20.5C7.87906 20.5 4.28906 16.91 4.28906 12.5C4.28906 8.09 7.87906 4.5 12.2891 4.5C16.6991 4.5 20.2891 8.09 20.2891 12.5C20.2891 16.91 16.6991 20.5 12.2891 20.5Z" fill="#9C4900"/>
</svg>
