<svg width="25" height="25" viewBox="0 0 25 25" fill="none" xmlns="http://www.w3.org/2000/svg">
<path d="M23.8141 12.495C22.9319 10.2132 21.4005 8.23996 19.4092 6.81906C17.4178 5.39817 15.0537 4.59193 12.6091 4.5C10.1644 4.59193 7.80035 5.39817 5.80896 6.81906C3.81757 8.23996 2.28618 10.2132 1.40406 12.495C1.34448 12.6598 1.34448 12.8402 1.40406 13.005C2.28618 15.2868 3.81757 17.26 5.80896 18.6809C7.80035 20.1018 10.1644 20.9081 12.6091 21C15.0537 20.9081 17.4178 20.1018 19.4092 18.6809C21.4005 17.26 22.9319 15.2868 23.8141 13.005C23.8736 12.8402 23.8736 12.6598 23.8141 12.495ZM12.6091 19.5C8.63406 19.5 4.43406 16.5525 2.91156 12.75C4.43406 8.9475 8.63406 6 12.6091 6C16.5841 6 20.7841 8.9475 22.3066 12.75C20.7841 16.5525 16.5841 19.5 12.6091 19.5Z" fill="#9C4900"/>
<path d="M12.6094 8.25C11.7194 8.25 10.8493 8.51392 10.1093 9.00839C9.36929 9.50285 8.79251 10.2057 8.45192 11.0279C8.11132 11.8502 8.02221 12.755 8.19584 13.6279C8.36948 14.5008 8.79806 15.3026 9.4274 15.932C10.0567 16.5613 10.8586 16.9899 11.7315 17.1635C12.6044 17.3372 13.5092 17.2481 14.3315 16.9075C15.1537 16.5669 15.8565 15.9901 16.351 15.2501C16.8455 14.51 17.1094 13.64 17.1094 12.75C17.1094 11.5565 16.6353 10.4119 15.7914 9.56802C14.9474 8.72411 13.8029 8.25 12.6094 8.25ZM12.6094 15.75C12.016 15.75 11.436 15.5741 10.9427 15.2444C10.4493 14.9148 10.0648 14.4462 9.83774 13.898C9.61067 13.3499 9.55126 12.7467 9.66702 12.1647C9.78278 11.5828 10.0685 11.0482 10.4881 10.6287C10.9076 10.2091 11.4422 9.9234 12.0241 9.80764C12.606 9.69189 13.2092 9.7513 13.7574 9.97836C14.3056 10.2054 14.7741 10.5899 15.1038 11.0833C15.4334 11.5766 15.6094 12.1567 15.6094 12.75C15.6094 13.5456 15.2933 14.3087 14.7307 14.8713C14.1681 15.4339 13.405 15.75 12.6094 15.75Z" fill="#9C4900"/>
</svg>
