<svg width="25" height="25" viewBox="0 0 25 25" fill="none" xmlns="http://www.w3.org/2000/svg">
<path d="M12.6406 20.75C8.23063 20.75 4.64062 17.16 4.64062 12.75C4.64062 8.34 8.23063 4.75 12.6406 4.75C17.0506 4.75 20.6406 8.34 20.6406 12.75C20.6406 17.16 17.0506 20.75 12.6406 20.75ZM12.6406 2.75C11.3274 2.75 10.027 3.00866 8.81379 3.5112C7.60053 4.01375 6.49814 4.75035 5.56956 5.67893C3.69419 7.5543 2.64063 10.0978 2.64062 12.75C2.64063 15.4022 3.69419 17.9457 5.56956 19.8211C6.49814 20.7497 7.60053 21.4862 8.81379 21.9888C10.027 22.4913 11.3274 22.75 12.6406 22.75C15.2928 22.75 17.8363 21.6964 19.7117 19.8211C21.5871 17.9457 22.6406 15.4022 22.6406 12.75C22.6406 11.4368 22.382 10.1364 21.8794 8.92317C21.3769 7.70991 20.6403 6.60752 19.7117 5.67893C18.7831 4.75035 17.6807 4.01375 16.4675 3.5112C15.2542 3.00866 13.9538 2.75 12.6406 2.75ZM7.64062 13.75H17.6406V11.75H7.64062" fill="#9C4900"/>
</svg>
