<svg width="51" height="51" viewBox="0 0 51 51" fill="none" xmlns="http://www.w3.org/2000/svg">
<circle cx="25.2891" cy="25.5" r="25" fill="#9C4900"/>
<path d="M16.8594 22C17.5224 22 18.1583 21.7366 18.6271 21.2678C19.096 20.7989 19.3594 20.163 19.3594 19.5C19.3594 18.837 19.096 18.2011 18.6271 17.7322C18.1583 17.2634 17.5224 17 16.8594 17C16.1963 17 15.5604 17.2634 15.0916 17.7322C14.6228 18.2011 14.3594 18.837 14.3594 19.5C14.3594 20.163 14.6228 20.7989 15.0916 21.2678C15.5604 21.7366 16.1963 22 16.8594 22ZM16.8594 22V23.25M16.8594 32V30.75M16.8594 32C17.5224 32 18.1583 32.2634 18.6271 32.7322C19.096 33.2011 19.3594 33.837 19.3594 34.5M16.8594 32C16.1963 32 15.5604 32.2634 15.0916 32.7322C14.6228 33.2011 14.3594 33.837 14.3594 34.5C14.3594 35.163 14.6228 35.7989 15.0916 36.2678C15.5604 36.7366 16.1963 37 16.8594 37C17.5224 37 18.1583 36.7366 18.6271 36.2678C19.096 35.7989 19.3594 35.163 19.3594 34.5M19.3594 34.5H20.6094M31.8594 32C32.3538 32 32.8372 32.1466 33.2483 32.4213C33.6594 32.696 33.9799 33.0865 34.1691 33.5433C34.3583 34.0001 34.4078 34.5028 34.3113 34.9877C34.2149 35.4727 33.9768 35.9181 33.6271 36.2678C33.2775 36.6174 32.8321 36.8555 32.3471 36.952C31.8621 37.0484 31.3595 36.9989 30.9027 36.8097C30.4459 36.6205 30.0554 36.3 29.7807 35.8889C29.506 35.4778 29.3594 34.9945 29.3594 34.5M31.8594 32C31.1963 32 30.5604 32.2634 30.0916 32.7322C29.6228 33.2011 29.3594 33.837 29.3594 34.5M31.8594 32V30.75M29.3594 34.5H28.1094" stroke="#F6EFE9" stroke-width="1.66667" stroke-linecap="round" stroke-linejoin="round"/>
<path d="M16.8594 28.25C17.5497 28.25 18.1094 27.6904 18.1094 27C18.1094 26.3096 17.5497 25.75 16.8594 25.75C16.169 25.75 15.6094 26.3096 15.6094 27C15.6094 27.6904 16.169 28.25 16.8594 28.25Z" fill="#F6EFE9"/>
<path d="M24.3594 35.75C25.0497 35.75 25.6094 35.1904 25.6094 34.5C25.6094 33.8096 25.0497 33.25 24.3594 33.25C23.669 33.25 23.1094 33.8096 23.1094 34.5C23.1094 35.1904 23.669 35.75 24.3594 35.75Z" fill="#F6EFE9"/>
<path d="M36.8594 19.5C36.8594 22.7638 31.8594 27 31.8594 27C31.8594 27 26.8594 22.7638 26.8594 19.5C26.8594 16.2362 29.0969 14.5 31.8594 14.5C34.6219 14.5 36.8594 16.2362 36.8594 19.5Z" stroke="#F6EFE9" stroke-width="1.66667" stroke-linecap="round" stroke-linejoin="round"/>
<path d="M31.8594 20.75C32.5497 20.75 33.1094 20.1904 33.1094 19.5C33.1094 18.8096 32.5497 18.25 31.8594 18.25C31.169 18.25 30.6094 18.8096 30.6094 19.5C30.6094 20.1904 31.169 20.75 31.8594 20.75Z" fill="#F6EFE9"/>
</svg>
