<svg width="51" height="51" viewBox="0 0 51 51" fill="none" xmlns="http://www.w3.org/2000/svg">
<circle cx="25.2891" cy="25.5" r="25" fill="#9C4900"/>
<path d="M31.8595 23.4777C31.6017 23.4779 31.3515 23.3902 31.1501 23.2292C30.2343 22.4958 29.4738 21.5874 28.9128 20.557C28.3518 19.5265 28.0017 18.3947 27.8828 17.2275C27.8828 16.1726 28.3019 15.1609 29.0478 14.415C29.7937 13.6691 30.8054 13.25 31.8603 13.25C32.9152 13.25 33.9269 13.6691 34.6728 14.415C35.4187 15.1609 35.8377 16.1726 35.8377 17.2275C35.7189 18.3947 35.3687 19.5265 34.8078 20.557C34.2468 21.5874 33.4862 22.4958 32.5705 23.2292C32.3691 23.3902 32.1189 23.4779 31.8611 23.4777H31.8595ZM31.8595 15.5227C31.4075 15.5231 30.9741 15.7029 30.6545 16.0225C30.3349 16.3421 30.1552 16.7755 30.1548 17.2275C30.2814 18.574 30.8861 19.8307 31.8595 20.7698C32.8332 19.8303 33.438 18.573 33.5642 17.2259C33.5638 16.7739 33.3841 16.3405 33.0645 16.0209C32.7449 15.7013 32.3115 15.5216 31.8595 15.5212V15.5227Z" fill="#F6EFE9"/>
<path d="M19.3595 38.2472C19.1017 38.2474 18.8515 38.1598 18.6501 37.9987C17.7343 37.2654 16.9738 36.3569 16.4128 35.3265C15.8518 34.2961 15.5017 33.1642 15.3828 31.997C15.3828 30.9421 15.8019 29.9304 16.5478 29.1845C17.2937 28.4386 18.3054 28.0195 19.3603 28.0195C20.4152 28.0195 21.4269 28.4386 22.1728 29.1845C22.9187 29.9304 23.3377 30.9421 23.3377 31.997C23.2189 33.1642 22.8687 34.2961 22.3078 35.3265C21.7468 36.3569 20.9862 37.2654 20.0705 37.9987C19.8691 38.1598 19.6189 38.2474 19.3611 38.2472H19.3595ZM19.3595 30.2923C18.9075 30.2927 18.4741 30.4724 18.1545 30.792C17.8349 31.1116 17.6552 31.545 17.6548 31.997C17.7792 33.3469 18.3841 34.6072 19.3595 35.5487C20.3332 34.6092 20.938 33.3519 21.0642 32.0048C21.0638 31.5528 20.8841 31.1194 20.5645 30.7998C20.2449 30.4802 19.8115 30.3005 19.3595 30.3001V30.2923Z" fill="#F6EFE9"/>
<path d="M30.7205 34.8381H25.6062C25.3048 34.8381 25.0156 34.7183 24.8024 34.5051C24.5893 34.2919 24.4695 34.0028 24.4695 33.7013C24.4695 33.3998 24.5893 33.1107 24.8024 32.8975C25.0156 32.6843 25.3048 32.5646 25.6062 32.5646H30.7205C31.4739 32.5646 32.1964 32.2653 32.7292 31.7325C33.2619 31.1998 33.5612 30.4773 33.5612 29.7238C33.5612 28.9704 33.2619 28.2479 32.7292 27.7152C32.1964 27.1824 31.4739 26.8831 30.7205 26.8831H20.4936C19.1529 26.8597 17.875 26.3107 16.9352 25.3542C15.9954 24.3978 15.4688 23.1106 15.4688 21.7697C15.4688 20.4288 15.9954 19.1415 16.9352 18.1851C17.875 17.2287 19.1529 16.6797 20.4936 16.6562H25.039C25.3405 16.6562 25.6297 16.776 25.8428 16.9892C26.056 17.2024 26.1758 17.4915 26.1758 17.793C26.1758 18.0945 26.056 18.3836 25.8428 18.5968C25.6297 18.81 25.3405 18.9298 25.039 18.9298H20.4936C19.7402 18.9298 19.0176 19.229 18.4849 19.7618C17.9522 20.2945 17.6529 21.0171 17.6529 21.7705C17.6529 22.5239 17.9522 23.2464 18.4849 23.7792C19.0176 24.3119 19.7402 24.6112 20.4936 24.6112H30.7205C32.0612 24.6346 33.339 25.1837 34.2788 26.1401C35.2187 27.0965 35.7453 28.3837 35.7453 29.7246C35.7453 31.0655 35.2187 32.3528 34.2788 33.3092C33.339 34.2656 32.0612 34.8146 30.7205 34.8381Z" fill="#F6EFE9"/>
</svg>
