<svg width="51" height="51" viewBox="0 0 51 51" fill="none" xmlns="http://www.w3.org/2000/svg">
<circle cx="25.2891" cy="25.5" r="25" fill="#9C4900"/>
<mask id="mask0_428_67170" style="mask-type:alpha" maskUnits="userSpaceOnUse" x="10" y="10" width="31" height="31">
<rect x="10.2891" y="10.5" width="30" height="30" fill="#D9D9D9"/>
</mask>
<g mask="url(#mask0_428_67170)">
<path fill-rule="evenodd" clip-rule="evenodd" d="M27.1178 24.2962C28.3361 25.5154 29.8099 26.125 31.5391 26.125C33.2682 26.125 34.7424 25.5154 35.9616 24.2962C37.1799 23.0779 37.7891 21.6042 37.7891 19.875C37.7891 18.1458 37.1799 16.6717 35.9616 15.4525C34.7424 14.2342 33.2682 13.625 31.5391 13.625C29.7891 13.625 28.3099 14.2396 27.1016 15.4688C25.8932 16.6979 25.2891 18.1667 25.2891 19.875C25.2891 21.6042 25.8986 23.0779 27.1178 24.2962ZM13.1491 37.015C13.3882 37.255 13.6849 37.375 14.0391 37.375H15.2891C15.6432 37.375 15.9403 37.255 16.1803 37.015C16.4195 36.7758 16.5391 36.4792 16.5391 36.125V34.875H31.5391V36.125C31.5391 36.4792 31.6591 36.7758 31.8991 37.015C32.1382 37.255 32.4349 37.375 32.7891 37.375H34.0391C34.3932 37.375 34.6899 37.255 34.9291 37.015C35.1691 36.7758 35.2891 36.4792 35.2891 36.125V27.7812C34.8932 27.9688 34.487 28.125 34.0703 28.25C33.6536 28.375 33.2266 28.4688 32.7891 28.5312V32.375H15.2891V26.125H25.4453C25.0703 25.7708 24.7316 25.3854 24.4291 24.9688C24.1274 24.5521 23.862 24.1042 23.6328 23.625H16.2891L17.6016 19.875H22.7891C22.7891 19.4375 22.8203 19.0104 22.8828 18.5938C22.9453 18.1771 23.0391 17.7708 23.1641 17.375H17.1641C16.7682 17.375 16.4091 17.4896 16.0866 17.7188C15.7632 17.9479 15.5391 18.25 15.4141 18.625L12.7891 26.125V36.125C12.7891 36.4792 12.9091 36.7758 13.1491 37.015ZM19.7416 30.5775C19.3774 30.9425 18.9349 31.125 18.4141 31.125C17.8932 31.125 17.4507 30.9425 17.0866 30.5775C16.7216 30.2133 16.5391 29.7708 16.5391 29.25C16.5391 28.7292 16.7216 28.2867 17.0866 27.9225C17.4507 27.5575 17.8932 27.375 18.4141 27.375C18.9349 27.375 19.3774 27.5575 19.7416 27.9225C20.1066 28.2867 20.2891 28.7292 20.2891 29.25C20.2891 29.7708 20.1066 30.2133 19.7416 30.5775ZM30.9916 30.5775C30.6274 30.9425 30.1849 31.125 29.6641 31.125C29.1432 31.125 28.7007 30.9425 28.3366 30.5775C27.9716 30.2133 27.7891 29.7708 27.7891 29.25C27.7891 29.0208 27.8307 28.7967 27.9141 28.5775C27.9974 28.3592 28.1224 28.1667 28.2891 28C28.7682 28.2083 29.2736 28.3646 29.8053 28.4688C30.3361 28.5729 30.8828 28.625 31.4453 28.625C31.487 28.7292 31.5132 28.8333 31.5241 28.9375C31.5341 29.0417 31.5391 29.1458 31.5391 29.25C31.5391 29.7708 31.3566 30.2133 30.9916 30.5775Z" fill="#F6EFE9"/>
<path d="M29.9766 20.2021H32.1749V20.7517H29.9766V20.2021ZM29.9766 18.8281H33.2741V19.3777H29.9766V18.8281ZM29.9766 21.576H31.3505V22.1256H29.9766V21.576Z" fill="#8F4300"/>
<path d="M34.0974 16.6252H33.273V16.3504C33.273 16.2046 33.2151 16.0648 33.112 15.9618C33.009 15.8587 32.8692 15.8008 32.7234 15.8008H30.5251C30.3793 15.8008 30.2396 15.8587 30.1365 15.9618C30.0334 16.0648 29.9755 16.2046 29.9755 16.3504V16.6252H29.1511C29.0054 16.6252 28.8656 16.6831 28.7625 16.7861C28.6595 16.8892 28.6016 17.029 28.6016 17.1747V22.9454C28.6016 23.0911 28.6595 23.2309 28.7625 23.334C28.8656 23.437 29.0054 23.4949 29.1511 23.4949H34.0974C34.2431 23.4949 34.3829 23.437 34.486 23.334C34.5891 23.2309 34.647 23.0911 34.647 22.9454V17.1747C34.647 17.029 34.5891 16.8892 34.486 16.7861C34.3829 16.6831 34.2431 16.6252 34.0974 16.6252ZM30.5251 16.3504H32.7234V17.4495H30.5251V16.3504ZM34.0974 22.9454H29.1511V17.1747H29.9755V17.9991H33.273V17.1747H34.0974V22.9454Z" fill="#8F4300"/>
</g>
</svg>
