<svg xmlns="http://www.w3.org/2000/svg" width="43" height="73" viewBox="0 0 43 73" fill="none">
  <g filter="url(#filter0_d_13_19048)">
    <path d="M31.1569 1.65887C31.1531 1.83492 31.0805 2.00249 30.9546 2.12566C30.8288 2.24882 30.6597 2.31777 30.4836 2.31773H5.96321C5.78711 2.31777 5.61801 2.24882 5.49215 2.12566C5.36629 2.00249 5.29369 1.83492 5.28992 1.65887C5.29369 1.48281 5.36629 1.31524 5.49215 1.19208C5.61801 1.06891 5.78711 0.99996 5.96321 1H30.4797C30.6558 0.99996 30.8249 1.06891 30.9508 1.19208C31.0767 1.31524 31.1493 1.48281 31.153 1.65887H31.1569Z" fill="#40413C"/>
    <path d="M9.57972 3.73933C9.57872 3.80855 9.5641 3.8769 9.53668 3.94047C9.50926 4.00403 9.46958 4.06157 9.41992 4.10981C9.37026 4.15804 9.31158 4.19602 9.24724 4.22157C9.1829 4.24712 9.11416 4.25975 9.04494 4.25873C8.90531 4.26053 8.77067 4.20684 8.67058 4.10946C8.57049 4.01208 8.51314 3.87896 8.51111 3.73933V2.17922C8.51199 2.11 8.5265 2.04163 8.5538 1.97801C8.5811 1.9144 8.62067 1.85679 8.67024 1.80846C8.71981 1.76014 8.77842 1.72206 8.84271 1.69639C8.907 1.67072 8.97572 1.65797 9.04494 1.65886C9.18483 1.65706 9.31971 1.71084 9.41998 1.80841C9.52025 1.90597 9.57769 2.03933 9.57972 2.17922V3.73933Z" fill="#40413C"/>
    <path d="M28.6445 3.99232C28.6435 4.06154 28.6289 4.12989 28.6015 4.19346C28.5741 4.25702 28.5344 4.31457 28.4847 4.3628C28.4351 4.41103 28.3764 4.44901 28.312 4.47456C28.2477 4.50011 28.179 4.51274 28.1097 4.51172C28.0406 4.51274 27.9719 4.5001 27.9076 4.47454C27.8433 4.44898 27.7847 4.41098 27.7351 4.36274C27.6855 4.31449 27.6459 4.25695 27.6186 4.19338C27.5913 4.12982 27.5768 4.0615 27.5759 3.99232V2.43221C27.5768 2.36299 27.5913 2.29462 27.6186 2.231C27.6459 2.16739 27.6855 2.10978 27.7351 2.06146C27.7846 2.01314 27.8432 1.97505 27.9075 1.94938C27.9718 1.92371 28.0405 1.91096 28.1097 1.91185C28.2496 1.91005 28.3845 1.96384 28.4848 2.0614C28.5851 2.15896 28.6425 2.29232 28.6445 2.43221V3.99232Z" fill="#40413C"/>
    <path d="M16.53 4.05099C16.53 4.05099 6.91156 3.21899 5.51881 4.05099C4.12605 4.88298 3.26424 5.71498 3.16228 7.48286C3.06033 9.25073 2.72945 56.5775 3.16228 57.4604C3.59511 58.3434 3.91541 60.6182 6.91349 61.0433C9.91157 61.4685 29.4707 61.7666 31.2877 61.0433C33.1046 60.32 33.8394 59.2764 33.9125 56.464C33.9895 53.4678 33.7471 53.4611 33.1171 6.40847C33.1056 4.98686 31.8176 4.07407 30.7231 3.68067C29.6285 3.28728 16.53 4.05099 16.53 4.05099Z" fill="#0A813A"/>
    <path d="M5.28601 22.43L18.4354 22.0135L31.5848 22.43L31.2963 18.0613C31.2963 18.0613 29.8718 4.47132 29.6611 3.91633C29.4505 3.36135 29.6073 3.18052 28.8772 3.22284C25.6935 3.40655 9.4383 3.17379 8.20905 3.22284C7.70601 3.24304 7.14045 3.15359 6.92595 4.19335C6.71146 5.2331 5.29081 18.0613 5.29081 18.0613L5.28601 22.43Z" fill="#04B54C"/>
    <path d="M30.3556 58.0529C30.3556 58.7262 29.7785 59.2764 29.0725 59.2764H7.79837C7.08949 59.2764 6.51526 58.7291 6.51526 58.0529V28.2616C6.51526 27.5884 7.09238 27.0372 7.79837 27.0372H29.0744C29.7833 27.0372 30.3575 27.5855 30.3575 28.2616L30.3556 58.0529Z" fill="#04B54C"/>
    <path d="M26.5621 18.0574H10.3127V6.61141C10.3127 5.84867 10.1886 5.57166 11.2486 5.57166C12.3085 5.57166 24.9943 5.5024 25.5647 5.57166C26.1351 5.64091 26.5621 5.64091 26.5621 6.47291V18.0574Z" fill="#4EDF89"/>
    <path d="M13.0905 16.1856C13.0899 16.2318 13.0802 16.2774 13.0619 16.3199C13.0436 16.3623 13.0171 16.4007 12.984 16.4328C12.9508 16.465 12.9116 16.4903 12.8687 16.5073C12.8258 16.5243 12.7799 16.5327 12.7337 16.5319C12.6876 16.5325 12.6418 16.5241 12.599 16.507C12.5561 16.49 12.5171 16.4646 12.484 16.4325C12.451 16.4003 12.4246 16.362 12.4064 16.3196C12.3881 16.2773 12.3784 16.2318 12.3778 16.1856V6.75185C12.3783 6.70566 12.3879 6.66003 12.4061 6.61756C12.4242 6.5751 12.4506 6.53663 12.4837 6.50438C12.5168 6.47212 12.5558 6.44671 12.5987 6.42959C12.6416 6.41247 12.6875 6.40398 12.7337 6.40462C12.7799 6.40398 12.8258 6.41246 12.8688 6.42957C12.9117 6.44667 12.9509 6.47207 12.984 6.50432C13.0172 6.53656 13.0436 6.57502 13.0619 6.61749C13.0802 6.65996 13.0899 6.70562 13.0905 6.75185V16.1856Z" fill="#0A813A"/>
    <path d="M15.9414 16.1856C15.9407 16.2318 15.931 16.2774 15.9127 16.3199C15.8944 16.3623 15.868 16.4007 15.8348 16.4328C15.8017 16.465 15.7625 16.4903 15.7195 16.5073C15.6766 16.5243 15.6307 16.5327 15.5845 16.5319C15.5384 16.5325 15.4926 16.5241 15.4498 16.507C15.407 16.49 15.3679 16.4646 15.3348 16.4325C15.3018 16.4003 15.2754 16.362 15.2572 16.3196C15.239 16.2773 15.2293 16.2318 15.2286 16.1856V6.75185C15.2291 6.70566 15.2387 6.66003 15.2569 6.61756C15.2751 6.5751 15.3014 6.53663 15.3345 6.50438C15.3676 6.47212 15.4067 6.44671 15.4496 6.42959C15.4925 6.41247 15.5383 6.40398 15.5845 6.40462C15.6307 6.40398 15.6766 6.41246 15.7196 6.42957C15.7626 6.44667 15.8017 6.47207 15.8349 6.50432C15.868 6.53656 15.8945 6.57502 15.9127 6.61749C15.931 6.65996 15.9407 6.70562 15.9414 6.75185V16.1856Z" fill="#0A813A"/>
    <path d="M18.7914 16.1856C18.7907 16.2318 18.781 16.2773 18.7628 16.3196C18.7446 16.362 18.7182 16.4003 18.6851 16.4325C18.6521 16.4646 18.613 16.49 18.5702 16.507C18.5274 16.5241 18.4816 16.5325 18.4355 16.5319C18.3894 16.5325 18.3436 16.5241 18.3008 16.507C18.2579 16.49 18.2189 16.4646 18.1858 16.4325C18.1528 16.4003 18.1264 16.362 18.1082 16.3196C18.0899 16.2773 18.0802 16.2318 18.0796 16.1856V6.75185C18.0801 6.70566 18.0897 6.66003 18.1079 6.61756C18.126 6.5751 18.1524 6.53663 18.1855 6.50438C18.2185 6.47212 18.2576 6.44671 18.3005 6.42959C18.3434 6.41247 18.3893 6.40398 18.4355 6.40462C18.4817 6.40398 18.5275 6.41247 18.5704 6.42959C18.6133 6.44671 18.6524 6.47212 18.6855 6.50438C18.7185 6.53663 18.7449 6.5751 18.7631 6.61756C18.7813 6.66003 18.7909 6.70566 18.7914 6.75185V16.1856Z" fill="#0A813A"/>
    <path d="M21.6423 16.1856C21.6417 16.2318 21.632 16.2773 21.6137 16.3196C21.5955 16.362 21.5691 16.4003 21.5361 16.4325C21.503 16.4646 21.464 16.49 21.4211 16.507C21.3783 16.5241 21.3325 16.5325 21.2864 16.5319C21.2402 16.5327 21.1944 16.5243 21.1514 16.5073C21.1085 16.4903 21.0693 16.465 21.0361 16.4328C21.003 16.4007 20.9765 16.3623 20.9582 16.3199C20.9399 16.2774 20.9302 16.2318 20.9296 16.1856V6.75185C20.9302 6.70562 20.9399 6.65996 20.9582 6.61749C20.9765 6.57502 21.0029 6.53656 21.0361 6.50432C21.0692 6.47207 21.1084 6.44667 21.1513 6.42957C21.1943 6.41246 21.2402 6.40398 21.2864 6.40462C21.3326 6.40398 21.3785 6.41247 21.4214 6.42959C21.4643 6.44671 21.5034 6.47212 21.5364 6.50438C21.5695 6.53663 21.5958 6.5751 21.614 6.61756C21.6322 6.66003 21.6418 6.70566 21.6423 6.75185V16.1856Z" fill="#0A813A"/>
    <path d="M24.4931 16.1856C24.4925 16.2318 24.4828 16.2773 24.4646 16.3196C24.4463 16.362 24.42 16.4003 24.3869 16.4325C24.3539 16.4646 24.3148 16.49 24.272 16.507C24.2291 16.5241 24.1834 16.5325 24.1372 16.5319C24.0911 16.5327 24.0452 16.5243 24.0022 16.5073C23.9593 16.4903 23.9201 16.465 23.887 16.4328C23.8538 16.4007 23.8273 16.3623 23.809 16.3199C23.7908 16.2774 23.781 16.2318 23.7804 16.1856V6.75185C23.781 6.70562 23.7908 6.65996 23.809 6.61749C23.8273 6.57502 23.8538 6.53656 23.8869 6.50432C23.92 6.47207 23.9592 6.44667 24.0022 6.42957C24.0451 6.41246 24.091 6.40398 24.1372 6.40462C24.1834 6.40398 24.2293 6.41247 24.2722 6.42959C24.3151 6.44671 24.3542 6.47212 24.3872 6.50438C24.4203 6.53663 24.4467 6.5751 24.4648 6.61756C24.483 6.66003 24.4926 6.70566 24.4931 6.75185V16.1856Z" fill="#0A813A"/>
    <path d="M6.58162 23.1369C5.94584 23.362 6.63548 25.529 6.90192 25.8926C7.16835 26.2562 29.9939 26.2572 30.0469 25.8926C30.0998 25.5281 30.9019 23.5005 30.3681 23.1369C29.8343 22.7734 7.16931 22.9292 6.58162 23.1369Z" fill="#40413C"/>
    <path d="M31.7445 23.2956V25.1674L32.3332 24.8557L35.8603 25.1674C35.8603 25.1674 36.1815 24.2834 35.3793 23.8679C34.5772 23.4524 32.6534 23.6602 32.6534 23.6602L31.7445 23.2956Z" fill="#40413C"/>
    <path d="M5.17928 23.2956V25.1674L4.59063 24.8557L1.06354 25.1674C1.06354 25.1674 0.742286 24.2834 1.54447 23.8679C2.34665 23.4524 4.27034 23.6602 4.27034 23.6602L5.17928 23.2956Z" fill="#40413C"/>
    <path d="M28.3243 60.219C28.3235 60.2765 28.3114 60.3333 28.2888 60.3861C28.2661 60.4389 28.2332 60.4867 28.192 60.5268C28.1508 60.5669 28.1022 60.5985 28.0488 60.6198C27.9954 60.6411 27.9383 60.6517 27.8808 60.6509H8.99016C8.93269 60.6517 8.87564 60.6411 8.82225 60.6198C8.76886 60.5985 8.72018 60.5669 8.67901 60.5268C8.63783 60.4867 8.60496 60.4389 8.58227 60.3861C8.55958 60.3333 8.54751 60.2765 8.54675 60.219C8.54853 60.1031 8.59622 59.9927 8.67935 59.9119C8.76248 59.8311 8.87426 59.7866 8.99016 59.7881H27.8808C27.9968 59.7866 28.1085 59.8311 28.1917 59.9119C28.2748 59.9927 28.3225 60.1031 28.3243 60.219Z" fill="#40413C"/>
    <path d="M5.76695 39.0468C5.76695 39.4797 5.45627 39.8307 5.07249 39.8307C4.68775 39.8307 4.37708 39.4797 4.37708 39.0468V26.9506C4.37708 26.5178 4.68871 26.1667 5.07249 26.1667C5.45723 26.1667 5.76695 26.5178 5.76695 26.9506V39.0468Z" fill="#40413C"/>
    <path d="M5.76695 55.5704C5.76695 56.0638 5.45627 56.464 5.07249 56.464C4.68775 56.464 4.37708 56.0638 4.37708 55.5704V41.7631C4.37708 41.2697 4.68871 40.8695 5.07249 40.8695C5.45723 40.8695 5.76695 41.2697 5.76695 41.7631V55.5704Z" fill="#40413C"/>
    <path d="M32.5467 39.0468C32.5467 39.4797 32.2351 39.8307 31.8513 39.8307C31.4666 39.8307 31.1569 39.4797 31.1569 39.0468V26.9506C31.1569 26.5178 31.4675 26.1667 31.8513 26.1667C32.2361 26.1667 32.5467 26.5178 32.5467 26.9506V39.0468Z" fill="#40413C"/>
    <path d="M32.5467 55.5704C32.5467 56.0638 32.2351 56.464 31.8513 56.464C31.4666 56.464 31.1569 56.0638 31.1569 55.5704V41.7631C31.1569 41.2697 31.4675 40.8695 31.8513 40.8695C32.2361 40.8695 32.5467 41.2697 32.5467 41.7631V55.5704Z" fill="#40413C"/>
    <path d="M30.6586 64.4521C30.6586 65.1408 30.0016 65.7025 29.1918 65.7025H18.0343C17.2245 65.7025 16.5685 65.1437 16.5685 64.4521V62.5207C16.5685 61.832 17.2245 61.2703 18.0343 61.2703H29.1918C30.0016 61.2703 30.6586 61.8292 30.6586 62.5207V64.4521Z" fill="#40413C"/>
    <path d="M23.6111 62.2274H18.1324V64.7926H23.6111V62.2274Z" fill="#585953"/>
    <path d="M7.20972 60.9962L8.33315 63.4403L14.212 63.597L15.4951 61.1001H14.7468L13.7849 63.0767L8.70635 63.0247L7.79837 60.8404L7.05005 60.6846L7.20972 60.9962Z" fill="#0A813A"/>
  </g>
  <defs>
    <filter id="filter0_d_13_19048" x="0" y="0" width="42.9238" height="72.7025" filterUnits="userSpaceOnUse" color-interpolation-filters="sRGB">
      <feFlood flood-opacity="0" result="BackgroundImageFix"/>
      <feColorMatrix in="SourceAlpha" type="matrix" values="0 0 0 0 0 0 0 0 0 0 0 0 0 0 0 0 0 0 127 0" result="hardAlpha"/>
      <feOffset dx="3" dy="3"/>
      <feGaussianBlur stdDeviation="2"/>
      <feComposite in2="hardAlpha" operator="out"/>
      <feColorMatrix type="matrix" values="0 0 0 0 0 0 0 0 0 0 0 0 0 0 0 0 0 0 0.25 0"/>
      <feBlend mode="normal" in2="BackgroundImageFix" result="effect1_dropShadow_13_19048"/>
      <feBlend mode="normal" in="SourceGraphic" in2="effect1_dropShadow_13_19048" result="shape"/>
    </filter>
  </defs>
</svg>