<svg width="32" height="61" viewBox="0 0 32 61" fill="none" xmlns="http://www.w3.org/2000/svg">
<path d="M2.47879 12.732C2.47879 6.90152 2.80555 4.50253 4.28272 2.98815C5.75989 1.47377 11.6473 0.410924 14.1388 0.410924C16.6307 0.410923 22.5178 1.47377 23.995 2.98815C25.4721 4.50252 25.7989 6.60665 25.7989 12.732C25.7989 21.1219 26.7923 52.533 24.2476 54.6415C21.7032 56.7503 16.6992 56.8347 14.1388 56.8347C11.5788 56.8347 6.57477 56.7503 4.03006 54.6415C1.48536 52.533 2.47879 21.1219 2.47879 12.732Z" fill="#505050"/>
<path d="M3.48088 14.054C3.48088 8.40986 3.77951 6.32356 5.12972 4.93926C6.47993 3.55497 11.8611 2.98806 14.1388 2.98806C16.4164 2.98806 21.7976 3.55497 23.1478 4.93926C24.498 6.32356 24.7966 7.78603 24.7966 14.054C24.7966 15.3585 24.649 17.3223 24.2638 19.2591C23.5437 20.9023 23.1565 23.6193 22.8873 26.2653C23.195 26.6965 23.3761 27.5477 23.3761 28.4482C23.7832 29.6784 23.4792 32.2775 23.3761 33.8816C23.3704 33.9695 23.3817 34.2484 23.3761 34.336C23.3761 34.336 23.6193 39.875 23.3761 42.3203C23.3173 42.9119 23.1828 43.7305 23.0799 43.9144C22.9952 44.6655 24.009 47.8 23.9036 48.3769C23.6916 49.5351 23.7047 52.1792 23.3789 52.4491C21.0531 54.3765 16.479 54.4535 14.1388 54.4535C11.7986 54.4535 7.22478 54.3765 4.89865 52.4491C4.57282 52.1792 4.58595 49.5351 4.37426 48.3769C4.26857 47.8 5.28232 44.6655 5.19758 43.9144C5.03905 43.4804 4.96025 42.9119 4.90146 42.3203C4.65819 39.875 4.90146 34.336 4.90146 34.336C4.89583 34.2484 4.90709 33.9695 4.90146 33.8816C4.79827 32.2775 4.49433 29.6784 4.90146 28.4482C4.90146 27.5477 5.08251 26.6965 5.3902 26.2653C5.12128 23.6193 4.73417 20.9023 4.01372 19.2591C3.62848 17.3223 3.48088 15.3585 3.48088 14.054Z" fill="#282523"/>
<path d="M23.3761 33.8818L23.3761 28.1779L24.9274 19.8174C25.2373 22.8171 25.2604 28.6395 25.2007 33.8818L23.3761 33.8818Z" fill="#6F7176"/>
<path d="M25.1954 34.3362C25.1279 39.8193 24.975 44.5494 24.975 44.5494L23.3762 42.3205L23.3762 34.3362L25.1954 34.3362Z" fill="#6F7176"/>
<path d="M14.1388 16.1723C14.1388 16.1723 19.9617 16.0979 24.2638 19.2596L22.8873 26.2658C22.8873 26.2658 20.5199 24.2433 14.1388 24.2433C7.7576 24.2433 5.3902 26.2658 5.3902 26.2658L4.01371 19.2596C8.31576 16.0979 14.1388 16.1723 14.1388 16.1723Z" fill="#6F7176"/>
<path d="M4.90149 33.8818L4.90149 28.1779L3.3502 19.8174C3.04063 22.8171 3.0175 28.6395 3.07692 33.8818L4.90149 33.8818Z" fill="#636467"/>
<path d="M3.08223 34.3362C3.15008 39.8193 3.30269 44.5494 3.30269 44.5494L4.90149 42.3205L4.90149 34.3362L3.08223 34.3362Z" fill="#636467"/>
<path d="M5.19757 43.9149C7.36766 44.5096 20.9101 44.5096 23.0799 43.9149C23.0799 43.9149 24.1018 46.6153 23.9036 48.3774C22.4345 49.2729 19.3232 50.4105 14.1387 50.4105C8.95427 50.4105 5.84328 49.2729 4.37424 48.3774C4.17568 46.6153 5.19757 43.9149 5.19757 43.9149Z" fill="#6F7176"/>
<path d="M25.4678 21.3898L27.8846 21.9862C28.1032 22.0403 28.3096 21.8511 28.2736 21.6234C28.2033 21.1807 27.9484 20.5453 27.0888 20.2998C25.7117 19.9067 25.4678 21.3898 25.4678 21.3898Z" fill="#282523"/>
<path d="M2.80994 21.3898L0.393122 21.9862C0.174549 22.0403 -0.0318275 21.8511 0.00413217 21.6234C0.0744883 21.1807 0.329331 20.5453 1.18924 20.2998C2.56603 19.9067 2.80994 21.3898 2.80994 21.3898Z" fill="#282523"/>
<path d="M5.39024 26.2658L4.01375 19.2596C8.3158 16.0979 14.1388 16.1723 14.1388 16.1723L14.1388 24.2433C7.75764 24.2433 5.39024 26.2658 5.39024 26.2658Z" fill="#636467"/>
<path d="M5.19762 43.9149C5.2711 43.9349 5.35021 43.9524 5.43338 43.9687C5.45558 43.9731 5.48436 43.9771 5.50781 43.9812C5.55659 43.9899 5.60443 43.999 5.65634 44.0065C7.1457 44.2426 10.6394 44.3608 14.1388 44.3608L14.1388 50.4105C8.95432 50.4105 5.84333 49.2729 4.37429 48.3774C4.17573 46.6153 5.19762 43.9149 5.19762 43.9149Z" fill="#636467"/>
<path d="M11.7136 56.154C13.3292 56.2831 14.9484 56.2831 16.5644 56.154C16.7898 56.1358 17.0065 56.3991 17.0547 56.7537C15.9468 56.8263 14.9268 56.8347 14.1388 56.8347C13.3511 56.8347 12.3308 56.8263 11.2229 56.7537C11.2714 56.3991 11.4878 56.1358 11.7136 56.154Z" fill="#262A35"/>
<path d="M20.0419 56.1363C20.0412 56.1331 20.0406 56.1303 20.04 56.1272C19.9874 55.883 20.1366 55.6441 20.3742 55.5862C21.0806 55.4146 21.782 55.2132 22.4768 54.9821C22.7088 54.9052 22.9577 55.0296 23.0368 55.2663C23.0378 55.2692 23.0387 55.272 23.0396 55.2751C23.054 55.3179 23.0543 55.3611 23.0559 55.4042C22.1929 55.8408 21.1969 56.1441 20.1663 56.3548C20.1085 56.2948 20.0606 56.2241 20.0419 56.1363Z" fill="#DF2C3A"/>
<path d="M5.24113 55.2663C5.31993 55.0296 5.56883 54.9052 5.80116 54.9821C6.49566 55.2132 7.19703 55.4146 7.90372 55.5862C8.14105 55.6441 8.29022 55.883 8.238 56.1272C8.23737 56.1303 8.23643 56.1331 8.2358 56.1363C8.21704 56.2241 8.1692 56.2948 8.11167 56.3548C7.08071 56.1441 6.08478 55.8408 5.22175 55.4042C5.22362 55.3611 5.22393 55.3179 5.238 55.2751C5.23894 55.272 5.24019 55.2692 5.24113 55.2663Z" fill="#DF2C3A"/>
<path d="M8.55686 1.72853C8.25511 1.79388 7.94929 1.60221 7.87706 1.30233C7.87644 1.29983 7.87581 1.29702 7.87518 1.29452C7.84704 1.17663 7.91646 1.05625 8.03372 1.02529C10.2104 0.450871 12.7226 0.107209 14.1388 0.107209C15.555 0.107209 18.0671 0.45087 20.2438 1.02529C20.3611 1.05625 20.4308 1.17662 20.4023 1.29482C20.4017 1.29732 20.4011 1.30014 20.4002 1.30296C20.3282 1.60252 20.0221 1.79388 19.721 1.72853C17.8898 1.32985 16.0021 0.926159 14.1388 0.924596C12.2592 0.92272 10.4039 1.32641 8.55686 1.72853Z" fill="#262A35"/>
<path d="M10.0235 12.3642C10.0707 12.599 10.2905 12.7719 10.5407 12.7719L17.737 12.7719C17.9872 12.7719 18.207 12.599 18.2542 12.3642L19.1926 7.70253L18.414 12.9261C18.3756 13.1841 18.1542 13.3751 17.8934 13.3751L10.3847 13.3751C10.1239 13.3751 9.90217 13.1841 9.86371 12.9261L9.08541 7.70253L10.0235 12.3642Z" fill="#505050"/>
<path d="M23.5402 3.06284C23.6575 3.10974 23.7744 3.15664 23.8914 3.20386C22.9764 2.8355 22.0599 2.46934 21.1422 2.10537C20.9405 2.02532 20.8417 1.79706 20.922 1.59568C20.923 1.59318 20.9239 1.59099 20.9248 1.58849C20.9336 1.56629 20.9502 1.55064 20.9624 1.53094C22.0887 1.86865 23.0699 2.27015 23.679 2.71793C23.6328 2.833 23.5865 2.94777 23.5402 3.06284Z" fill="white"/>
<path d="M23.8915 3.20384C23.7745 3.15662 23.6576 3.10972 23.5403 3.06282C23.5866 2.94775 23.6329 2.83298 23.6792 2.71791C23.7992 2.8064 23.9056 2.89646 23.995 2.98808C24.0625 3.05719 24.1254 3.12942 24.1882 3.20165C24.0966 3.23949 23.9906 3.24386 23.8915 3.20384Z" fill="#282523"/>
<path d="M7.09535 2.03056C6.19698 2.43988 5.29986 2.85139 4.40461 3.26477C4.51906 3.21193 4.63351 3.15908 4.74795 3.10655C4.69104 2.98272 4.63382 2.85921 4.57691 2.73569C5.18072 2.28354 6.16383 1.87828 7.2961 1.53744C7.36739 1.7285 7.28422 1.94426 7.09535 2.03056Z" fill="white"/>
<path d="M4.577 2.73539C4.63391 2.85891 4.69114 2.98242 4.74805 3.10624C4.6336 3.15878 4.51916 3.21162 4.40471 3.26447C4.28651 3.31888 4.15862 3.30387 4.05293 3.2454C4.12672 3.15722 4.2024 3.07091 4.28276 2.98836C4.36656 2.90237 4.46631 2.81826 4.577 2.73539Z" fill="#282523"/>
<path d="M25.9877 32.8716L25.9921 32.8716C26.1056 32.8716 26.1979 32.7794 26.1979 32.6659L26.1979 31.4401C26.1979 31.3263 26.1056 31.2344 25.9921 31.2344L25.9877 31.2344C25.8742 31.2344 25.782 31.3263 25.782 31.4401L25.782 32.6659C25.782 32.7794 25.8742 32.8716 25.9877 32.8716Z" fill="#262A35"/>
<path d="M25.9877 37.4285L25.9921 37.4285C26.1056 37.4285 26.1979 37.3365 26.1979 37.2227L26.1979 35.997C26.1979 35.8835 26.1056 35.7912 25.9921 35.7912L25.9877 35.7912C25.8742 35.7912 25.782 35.8835 25.782 35.997L25.782 37.2227C25.782 37.3365 25.8742 37.4285 25.9877 37.4285Z" fill="#262A35"/>
<path d="M2.28591 32.8716L2.28997 32.8716C2.40379 32.8716 2.49573 32.7794 2.49573 32.6659L2.49573 31.4401C2.49573 31.3263 2.40379 31.2344 2.28997 31.2344L2.28591 31.2344C2.17209 31.2344 2.08016 31.3263 2.08016 31.4401L2.08016 32.6659C2.08016 32.7794 2.17209 32.8716 2.28591 32.8716Z" fill="#262A35"/>
<path d="M2.28591 37.4285L2.28997 37.4285C2.40379 37.4285 2.49573 37.3365 2.49573 37.2227L2.49573 35.997C2.49573 35.8835 2.40379 35.7912 2.28997 35.7912L2.28591 35.7912C2.17209 35.7912 2.08016 35.8835 2.08016 35.997L2.08016 37.2227C2.08016 37.3365 2.17209 37.4285 2.28591 37.4285Z" fill="#262A35"/>
</svg>
