<svg width="32" height="60" viewBox="0 0 32 60" fill="none" xmlns="http://www.w3.org/2000/svg">
<path d="M29.4793 12.6248C29.4793 6.79434 29.1526 4.39534 27.6754 2.88097C26.1982 1.36659 20.3108 0.303741 17.8193 0.303741C15.3274 0.303741 9.44034 1.36659 7.96317 2.88097C6.486 4.39534 6.15924 6.49947 6.15924 12.6248C6.15924 21.0147 5.1658 52.4258 7.71051 54.5343C10.2549 56.6431 15.2589 56.7275 17.8193 56.7275C20.3793 56.7275 25.3834 56.6431 27.9281 54.5343C30.4728 52.4258 29.4793 21.0147 29.4793 12.6248Z" fill="#D99C00"/>
<path d="M28.4771 13.9468C28.4771 8.30267 28.1785 6.21638 26.8283 4.83208C25.4781 3.44778 20.0969 2.88087 17.8192 2.88087C15.5416 2.88087 10.1604 3.44778 8.81022 4.83208C7.46001 6.21638 7.16138 7.67885 7.16138 13.9468C7.16138 15.2514 7.30897 17.2151 7.69421 19.1519C8.41434 20.7951 8.80146 23.5121 9.07069 26.1581C8.763 26.5893 8.58195 27.4405 8.58195 28.3411C8.17482 29.5712 8.47876 32.1703 8.58195 33.7744C8.58758 33.8623 8.57632 34.1412 8.58195 34.2288C8.58195 34.2288 8.33868 39.7679 8.58195 42.2131C8.64074 42.8047 8.7752 43.6234 8.87807 43.8072C8.96281 44.5583 7.94906 47.6928 8.05443 48.2697C8.26644 49.4279 8.25331 52.0721 8.57914 52.3419C10.905 54.2694 15.479 54.3463 17.8192 54.3463C20.1595 54.3463 24.7332 54.2694 27.0594 52.3419C27.3852 52.0721 27.3721 49.4279 27.5838 48.2697C27.6894 47.6928 26.6757 44.5583 26.7604 43.8072C26.919 43.3732 26.9978 42.8047 27.0565 42.2131C27.2998 39.7679 27.0565 34.2288 27.0565 34.2288C27.0622 34.1412 27.0509 33.8623 27.0565 33.7744C27.1597 32.1703 27.4637 29.5712 27.0565 28.3411C27.0565 27.4405 26.8755 26.5893 26.5678 26.1581C26.8367 23.5121 27.2238 20.7951 27.9443 19.1519C28.3295 17.2151 28.4771 15.2514 28.4771 13.9468Z" fill="#F6A300"/>
<path d="M8.58189 33.7746V28.0707L7.03062 19.7102C6.72074 22.7099 6.6976 28.5323 6.75732 33.7746H8.58189Z" fill="#262A35"/>
<path d="M6.76257 34.229C6.83012 39.7121 6.98302 44.4422 6.98302 44.4422L8.58183 42.2133V34.229H6.76257Z" fill="#262A35"/>
<path d="M17.8191 16.0651C17.8191 16.0651 11.9961 15.9907 7.69409 19.1524L9.07057 26.1586C9.07057 26.1586 11.438 24.1361 17.8191 24.1361C24.2003 24.1361 26.5677 26.1586 26.5677 26.1586L27.9442 19.1524C23.6421 15.9907 17.8191 16.0651 17.8191 16.0651Z" fill="#262A35"/>
<path d="M27.0564 33.7746V28.0707L28.6077 19.7102C28.9173 22.7099 28.9404 28.5323 28.881 33.7746H27.0564Z" fill="#353F4B"/>
<path d="M28.8757 34.229C28.8078 39.7121 28.6552 44.4422 28.6552 44.4422L27.0564 42.2133V34.229H28.8757Z" fill="#353F4B"/>
<path d="M26.7603 43.8077C24.5902 44.4025 11.0478 44.4025 8.87797 43.8077C8.87797 43.8077 7.85608 46.5081 8.05433 48.2702C9.52337 49.1657 12.6347 50.3033 17.8191 50.3033C23.0036 50.3033 26.1146 49.1657 27.5836 48.2702C27.7822 46.5081 26.7603 43.8077 26.7603 43.8077Z" fill="#262A35"/>
<path d="M6.49033 21.2827L4.07351 21.879C3.85494 21.9331 3.64856 21.7439 3.68452 21.5163C3.75488 21.0735 4.00973 20.4381 4.86932 20.1926C6.24643 19.7996 6.49033 21.2827 6.49033 21.2827Z" fill="#F6A300"/>
<path d="M29.1481 21.2827L31.5649 21.879C31.7835 21.9331 31.9898 21.7439 31.9539 21.5163C31.8835 21.0735 31.6287 20.4381 30.7688 20.1926C29.392 19.7996 29.1481 21.2827 29.1481 21.2827Z" fill="#F6A300"/>
<path d="M26.5678 26.1586L27.9443 19.1524C23.6422 15.9907 17.8192 16.0651 17.8192 16.0651V24.1361C24.2004 24.1361 26.5678 26.1586 26.5678 26.1586Z" fill="#353F4B"/>
<path d="M26.7604 43.8077C26.6869 43.8277 26.6078 43.8452 26.5246 43.8615C26.5024 43.8659 26.4737 43.8699 26.4502 43.874C26.4014 43.8828 26.3536 43.8918 26.3017 43.8993C24.8123 44.1354 21.3186 44.2536 17.8192 44.2536V50.3033C23.0037 50.3033 26.1147 49.1657 27.5837 48.2702C27.7823 46.5081 26.7604 43.8077 26.7604 43.8077Z" fill="#353F4B"/>
<path d="M20.2445 56.0468C18.6288 56.1759 17.0096 56.1759 15.3936 56.0468C15.1682 56.0287 14.9515 56.292 14.9033 56.6465C16.0112 56.7191 17.0312 56.7275 17.8192 56.7275C18.6069 56.7275 19.6272 56.7191 20.7351 56.6465C20.6866 56.292 20.4702 56.0287 20.2445 56.0468Z" fill="#262A35"/>
<path d="M11.916 56.0291C11.9167 56.026 11.9173 56.0231 11.9179 56.02C11.9704 55.7758 11.8213 55.5369 11.5836 55.4791C10.8773 55.3074 10.1759 55.106 9.48109 54.8749C9.24907 54.798 9.00016 54.9225 8.92105 55.1592C8.92011 55.162 8.91918 55.1648 8.91824 55.1679C8.90385 55.2108 8.90354 55.2539 8.90198 55.2971C9.76501 55.7336 10.7609 56.0369 11.7916 56.2477C11.8494 56.1876 11.8973 56.1169 11.916 56.0291Z" fill="#DF2C3A"/>
<path d="M26.717 55.1592C26.6382 54.9225 26.3893 54.798 26.157 54.8749C25.4625 55.106 24.7611 55.3074 24.0544 55.4791C23.8171 55.5369 23.6679 55.7758 23.7201 56.02C23.7208 56.0231 23.7217 56.026 23.7223 56.0291C23.7411 56.1169 23.7889 56.1876 23.8465 56.2477C24.8774 56.0369 25.8733 55.7336 26.7364 55.2971C26.7345 55.2539 26.7342 55.2108 26.7201 55.1679C26.7192 55.1648 26.7179 55.162 26.717 55.1592Z" fill="#DF2C3A"/>
<path d="M23.4012 1.62135C23.7029 1.68671 24.0087 1.49503 24.0809 1.19515C24.0816 1.19265 24.0822 1.18984 24.0828 1.18734C24.111 1.06945 24.0415 0.949068 23.9243 0.918112C21.7476 0.343692 19.2354 3.05176e-05 17.8192 3.05176e-05C16.4031 3.05176e-05 13.8909 0.343692 11.7142 0.918112C11.5969 0.949068 11.5272 1.06944 11.5557 1.18764C11.5563 1.19014 11.5569 1.19297 11.5579 1.19578C11.6298 1.49534 11.9359 1.68671 12.237 1.62135C14.0682 1.22267 15.9559 0.818981 17.8192 0.817417C19.6988 0.815541 21.5541 1.21923 23.4012 1.62135Z" fill="#262A35"/>
<path d="M21.9345 12.257C21.8873 12.4918 21.6675 12.6648 21.4173 12.6648H14.221C13.9708 12.6648 13.751 12.4918 13.7038 12.257L12.7654 7.59535L13.544 12.8189C13.5824 13.0769 13.8038 13.2679 14.0646 13.2679H21.5733C21.8341 13.2679 22.0558 13.0769 22.0943 12.8189L22.8726 7.59535L21.9345 12.257Z" fill="#D99C00"/>
<path d="M8.41781 2.95566C8.30055 3.00257 8.1836 3.04946 8.06665 3.09668C8.98159 2.72833 9.8981 2.36216 10.8159 1.99819C11.0175 1.91814 11.1164 1.68988 11.036 1.4885C11.0351 1.486 11.0341 1.48381 11.0332 1.48131C11.0244 1.45911 11.0078 1.44347 10.9957 1.42377C9.86933 1.76148 8.8881 2.16297 8.27897 2.61075C8.32525 2.72582 8.37153 2.84059 8.41781 2.95566Z" fill="white"/>
<path d="M8.06652 3.09666C8.18347 3.04944 8.30042 3.00255 8.41768 2.95564C8.3714 2.84057 8.32512 2.7258 8.27884 2.61073C8.15877 2.69922 8.05245 2.78928 7.96302 2.8809C7.89548 2.95001 7.83263 3.02224 7.76978 3.09448C7.86139 3.13231 7.9674 3.13668 8.06652 3.09666Z" fill="#DA7400"/>
<path d="M24.8627 1.92338C25.761 2.3327 26.6581 2.74421 27.5534 3.15759C27.4389 3.10475 27.3245 3.0519 27.2101 2.99937C27.267 2.87554 27.3242 2.75203 27.3811 2.62852C26.7773 2.17636 25.7942 1.7711 24.6619 1.43026C24.5906 1.62132 24.6738 1.83708 24.8627 1.92338Z" fill="white"/>
<path d="M27.3811 2.62821C27.3242 2.75173 27.267 2.87524 27.2101 2.99907C27.3245 3.0516 27.439 3.10445 27.5534 3.15729C27.6716 3.2117 27.7995 3.19669 27.9052 3.13822C27.8314 3.05004 27.7557 2.96373 27.6754 2.88118C27.5916 2.79519 27.4918 2.71108 27.3811 2.62821Z" fill="#DA7400"/>
<path d="M5.97038 32.7645H5.966C5.85249 32.7645 5.76025 32.6722 5.76025 32.5587V31.333C5.76025 31.2191 5.85249 31.1272 5.966 31.1272H5.97038C6.08389 31.1272 6.17614 31.2191 6.17614 31.333V32.5587C6.17614 32.6722 6.08389 32.7645 5.97038 32.7645Z" fill="#262A35"/>
<path d="M5.97038 37.3213H5.966C5.85249 37.3213 5.76025 37.2294 5.76025 37.1155V35.8898C5.76025 35.7763 5.85249 35.684 5.966 35.684H5.97038C6.08389 35.684 6.17614 35.7763 6.17614 35.8898V37.1155C6.17614 37.2294 6.08389 37.3213 5.97038 37.3213Z" fill="#262A35"/>
<path d="M29.6722 32.7645H29.6682C29.5543 32.7645 29.4624 32.6722 29.4624 32.5587V31.333C29.4624 31.2191 29.5543 31.1272 29.6682 31.1272H29.6722C29.786 31.1272 29.878 31.2191 29.878 31.333V32.5587C29.878 32.6722 29.786 32.7645 29.6722 32.7645Z" fill="#262A35"/>
<path d="M29.6722 37.3213H29.6682C29.5543 37.3213 29.4624 37.2294 29.4624 37.1155V35.8898C29.4624 35.7763 29.5543 35.684 29.6682 35.684H29.6722C29.786 35.684 29.878 35.7763 29.878 35.8898V37.1155C29.878 37.2294 29.786 37.3213 29.6722 37.3213Z" fill="#262A35"/>
</svg>
