<svg width="33" height="61" viewBox="0 0 33 61" fill="none" xmlns="http://www.w3.org/2000/svg">
<path d="M30.0436 13.3138C30.0373 7.48334 29.7079 5.0847 28.2291 3.57191C26.7503 2.05913 20.8618 1.00263 18.3703 1.00532C15.8784 1.008 9.99245 2.0772 8.51692 3.59317C7.04139 5.10914 6.71689 7.21361 6.7235 13.339C6.73254 21.7289 5.77298 53.141 8.31996 55.2467C10.8666 57.3528 15.8708 57.4318 18.4311 57.4291C20.9911 57.4263 25.9951 57.3365 28.5375 55.2249C31.0799 53.1137 30.0526 21.7037 30.0436 13.3138Z" fill="#00A3C6"/>
<path d="M29.0429 14.6369C29.0368 8.99276 28.736 6.90679 27.3843 5.52394C26.0326 4.1411 20.6508 3.58 18.3731 3.58245C16.0955 3.58491 10.7149 4.15762 9.3662 5.54337C8.01748 6.92913 7.72043 8.39192 7.72719 14.6599C7.7286 15.9644 7.87831 17.928 8.26563 19.8644C8.98754 21.5068 9.37759 24.2234 9.64967 26.8691C9.34244 27.3007 9.16231 28.152 9.16328 29.0526C8.75748 30.2832 9.06422 32.882 9.16914 34.486C9.17487 34.5738 9.16391 34.8528 9.16963 34.9403C9.16963 34.9403 8.93233 40.4796 9.17824 42.9246C9.23767 43.5162 9.37301 44.3347 9.47608 44.5184C9.56163 45.2694 8.55126 48.405 8.65726 48.9818C8.87051 50.1398 8.86023 52.7839 9.18635 53.0534C11.5142 54.9784 16.0884 55.0504 18.4286 55.0478C20.7688 55.0453 25.3425 54.9635 27.6666 53.0335C27.9921 52.7633 27.9761 50.1192 28.1866 48.9607C28.2916 48.3837 27.2745 45.2503 27.3584 44.4991C27.5165 44.065 27.5947 43.4964 27.6528 42.9047C27.8935 40.4592 27.6442 34.9204 27.6442 34.9204C27.6498 34.8328 27.6382 34.5539 27.6437 34.466C27.7452 32.8618 28.0463 30.2624 27.6379 29.0327C27.6369 28.1321 27.4549 27.2811 27.1468 26.8503C27.4128 24.204 27.797 21.4866 28.5157 19.8426C28.8989 17.9053 29.0443 15.9414 29.0429 14.6369Z" fill="#00CAF6"/>
<path d="M9.16917 34.4861L9.16302 28.7823L7.60273 20.4234C7.29608 23.4234 7.27922 29.2458 7.3446 34.4881L9.16917 34.4861Z" fill="#262A35"/>
<path d="M7.35032 34.9424C7.42377 40.4254 7.58178 45.1554 7.58178 45.1554L9.17818 42.9248L9.16957 34.9405L7.35032 34.9424Z" fill="#262A35"/>
<path d="M18.3873 16.7667C18.3873 16.7667 12.5643 16.6986 8.26564 19.8648L9.64967 26.8696C9.64967 26.8696 12.0149 24.8445 18.396 24.8376C24.7772 24.8308 27.1468 26.8507 27.1468 26.8507L28.5157 19.843C24.2103 16.686 18.3873 16.7667 18.3873 16.7667Z" fill="#262A35"/>
<path d="M27.6437 34.4662L27.6375 28.7623L29.1798 20.4002C29.4926 23.3995 29.522 29.2218 29.4682 34.4642L27.6437 34.4662Z" fill="#353F4B"/>
<path d="M29.4634 34.9186C29.4015 40.4018 29.254 45.132 29.254 45.132L27.6527 42.9049L27.6441 34.9205L29.4634 34.9186Z" fill="#353F4B"/>
<path d="M27.3584 44.4996C25.189 45.0967 11.6465 45.1113 9.47607 44.5189C9.47607 44.5189 8.45709 47.2204 8.65724 48.9822C10.1272 49.8762 13.2398 51.0104 18.4242 51.0049C23.6087 50.9993 26.7185 49.8583 28.1865 48.9612C28.3832 47.1989 27.3584 44.4996 27.3584 44.4996Z" fill="#262A35"/>
<path d="M7.06401 21.9964L4.64784 22.5954C4.42933 22.6497 4.22275 22.4607 4.25846 22.233C4.32834 21.7902 4.5825 21.1545 5.44184 20.9081C6.81852 20.5136 7.06401 21.9964 7.06401 21.9964Z" fill="#00CAF6"/>
<path d="M29.7218 21.972L32.1392 22.5657C32.3578 22.6196 32.564 22.4302 32.5278 22.2026C32.457 21.7599 32.2015 21.1247 31.3413 20.8802C29.9641 20.4886 29.7218 21.972 29.7218 21.972Z" fill="#00CAF6"/>
<path d="M27.1467 26.8507L28.5157 19.843C24.2102 16.686 18.3873 16.7667 18.3873 16.7667L18.396 24.8376C24.7772 24.8308 27.1467 26.8507 27.1467 26.8507Z" fill="#353F4B"/>
<path d="M27.3584 44.4996C27.2849 44.5197 27.2058 44.5373 27.1227 44.5537C27.1005 44.5581 27.0717 44.5621 27.0482 44.5662C26.9995 44.575 26.9516 44.5842 26.8997 44.5917C25.4106 44.8294 21.917 44.9514 18.4177 44.9552L18.4242 51.0049C23.6087 50.9993 26.7184 49.8583 28.1865 48.9612C28.3832 47.1989 27.3584 44.4996 27.3584 44.4996Z" fill="#353F4B"/>
<path d="M20.8557 56.7457C19.2401 56.8766 17.621 56.8784 16.0048 56.751C15.7794 56.7331 15.5629 56.9966 15.5152 57.3512C16.6231 57.4226 17.6431 57.4299 18.4311 57.4291C19.2188 57.4282 20.2391 57.4187 21.3469 57.3449C21.2981 56.9904 21.0814 56.7273 20.8557 56.7457Z" fill="#262A35"/>
<path d="M12.5274 56.737C12.528 56.7339 12.5286 56.731 12.5292 56.7279C12.5815 56.4836 12.4321 56.2449 12.1944 56.1873C11.4878 56.0164 10.7862 55.8158 10.0912 55.5855C9.85908 55.5088 9.6103 55.6335 9.53145 55.8703C9.53051 55.8731 9.52958 55.8759 9.52865 55.8791C9.51431 55.9219 9.51404 55.9651 9.51252 56.0082C10.376 56.4438 11.3723 56.746 12.4032 56.9557C12.4609 56.8956 12.5087 56.8249 12.5274 56.737Z" fill="#DF2C3A"/>
<path d="M27.3272 55.8511C27.2481 55.6145 26.9991 55.4903 26.7668 55.5675C26.0726 55.7993 25.3714 56.0014 24.6649 56.1739C24.4276 56.232 24.2787 56.471 24.3312 56.7152C24.3318 56.7183 24.3328 56.7211 24.3334 56.7243C24.3523 56.8121 24.4002 56.8827 24.4578 56.9427C25.4885 56.7308 26.4841 56.4264 27.3467 55.989C27.3448 55.9458 27.3444 55.9027 27.3303 55.8599C27.3293 55.8567 27.3281 55.8539 27.3272 55.8511Z" fill="#DF2C3A"/>
<path d="M23.9536 2.31695C24.2554 2.38197 24.561 2.18997 24.633 1.89002C24.6336 1.88751 24.6342 1.8847 24.6348 1.8822C24.6628 1.76428 24.5933 1.64397 24.476 1.61314C22.2987 1.04107 19.7862 0.700117 18.37 0.701644C16.9538 0.703172 14.442 1.04954 12.2659 1.62631C12.1487 1.65739 12.0791 1.77784 12.1077 1.89601C12.1083 1.89851 12.1089 1.90133 12.1099 1.90415C12.1821 2.20363 12.4884 2.39466 12.7895 2.32899C14.6202 1.92833 16.5075 1.5226 18.3709 1.51903C20.2505 1.51513 22.1061 1.91681 23.9536 2.31695Z" fill="#262A35"/>
<path d="M22.4985 12.9541C22.4515 13.189 22.2319 13.3622 21.9817 13.3625L14.7854 13.3702C14.5352 13.3705 14.3152 13.1978 14.2677 12.963L13.3243 8.30239L14.1086 13.5251C14.1473 13.783 14.3689 13.9739 14.6297 13.9736L22.1384 13.9655C22.3992 13.9652 22.6207 13.7739 22.6589 13.5159L23.4315 8.29149L22.4985 12.9541Z" fill="#00A3C6"/>
<path d="M8.97173 3.66738C8.85452 3.71441 8.73762 3.76143 8.62073 3.80878C9.53527 3.43944 10.4514 3.07229 11.3687 2.70732C11.5703 2.62705 11.6689 2.39869 11.5883 2.1974C11.5874 2.1949 11.5865 2.19271 11.5855 2.19021C11.5767 2.16802 11.5601 2.15239 11.5479 2.13271C10.422 2.47163 9.44117 2.87419 8.83252 3.32262C8.87893 3.43764 8.92533 3.55236 8.97173 3.66738Z" fill="white"/>
<path d="M8.62069 3.80874C8.73759 3.7614 8.85448 3.71438 8.97169 3.66735C8.92529 3.55232 8.87889 3.43761 8.83249 3.32258C8.71251 3.41121 8.60629 3.50138 8.51695 3.5931C8.44949 3.66228 8.38672 3.73458 8.32394 3.80688C8.4156 3.84462 8.52161 3.84887 8.62069 3.80874Z" fill="#00CAF6"/>
<path d="M25.4155 2.61735C26.3143 3.0257 27.2119 3.43625 28.1076 3.84866C27.9931 3.79594 27.8786 3.74322 27.7641 3.69081C27.8209 3.56692 27.8779 3.44335 27.9347 3.31977C27.3304 2.86827 26.3469 2.46407 25.2142 2.12445C25.1432 2.31558 25.2266 2.53125 25.4155 2.61735Z" fill="white"/>
<path d="M27.9346 3.31944C27.8778 3.44301 27.8207 3.56658 27.764 3.69047C27.8785 3.74288 27.993 3.7956 28.1075 3.84833C28.2257 3.90261 28.3536 3.88747 28.4592 3.82888C28.3853 3.74078 28.3096 3.65455 28.2291 3.57208C28.1452 3.48618 28.0454 3.40218 27.9346 3.31944Z" fill="#00CAF6"/>
<path d="M6.55632 33.4788L6.55194 33.4788C6.43843 33.4789 6.34609 33.3868 6.34597 33.2733L6.34465 32.0475C6.34453 31.9337 6.43667 31.8416 6.55017 31.8415L6.55456 31.8415C6.66806 31.8414 6.76041 31.9332 6.76053 32.047L6.76185 33.2728C6.76198 33.3863 6.66983 33.4787 6.55632 33.4788Z" fill="#262A35"/>
<path d="M6.56133 38.0356L6.55694 38.0356C6.44344 38.0357 6.3511 37.9439 6.35097 37.8301L6.34965 36.6043C6.34953 36.4908 6.44167 36.3985 6.55518 36.3983L6.55956 36.3983C6.67307 36.3982 6.76541 36.4904 6.76554 36.6039L6.76686 37.8296C6.76698 37.9435 6.67483 38.0355 6.56133 38.0356Z" fill="#262A35"/>
<path d="M30.2583 33.4532L30.2542 33.4532C30.1404 33.4533 30.0484 33.3612 30.0482 33.2477L30.0469 32.0219C30.0468 31.9081 30.1386 31.8161 30.2525 31.8159L30.2565 31.8159C30.3703 31.8158 30.4624 31.9076 30.4625 32.0215L30.4638 33.2472C30.4639 33.3607 30.3721 33.4531 30.2583 33.4532Z" fill="#262A35"/>
<path d="M30.2632 38.0101L30.2591 38.0101C30.1453 38.0102 30.0532 37.9184 30.0531 37.8045L30.0518 36.5788C30.0517 36.4653 30.1435 36.3729 30.2573 36.3728L30.2614 36.3728C30.3752 36.3727 30.4673 36.4648 30.4674 36.5783L30.4687 37.8041C30.4688 37.9179 30.377 38.0099 30.2632 38.0101Z" fill="#262A35"/>
</svg>
