<svg width="45" height="105" viewBox="0 0 45 105" fill="none" xmlns="http://www.w3.org/2000/svg">
<g filter="url(#filter0_d_13_23342)">
<path d="M32.7602 6.63693H33.724C33.724 6.63693 34.045 4.70928 33.5631 4.1469C33.0812 3.58451 29.0462 1.47719 19.0084 1.39672C8.97058 1.31625 5.00487 3.60884 4.81491 4.22737C4.57349 5.01059 4.73443 6.3955 4.73443 6.3955L32.7602 6.63693Z" fill="#40413C"/>
<path d="M2.56633 46.3877H34.6074V96.2567H2.56633V46.3877Z" fill="#FFD62C"/>
<path d="M27.0587 5.35217L33.3226 5.75361V24.2235L29.9502 24.143L27.0587 5.35217Z" fill="#FFD62C"/>
<path d="M11.3643 5.09857L5.10221 5.52247L5.16865 23.9923L8.5411 23.9006L11.3643 5.09857Z" fill="#FFD62C"/>
<path d="M30.1905 21.0111C30.1905 21.0111 30.4319 19.2444 29.4681 13.8638C28.5043 8.48321 27.7838 3.34406 25.538 2.30069C23.2922 1.25733 14.4961 0.734248 12.2671 2.17998C9.81732 3.77076 9.39626 9.70811 8.59338 13.8039C7.79893 17.8557 6.98762 24.304 6.98762 24.304L30.1905 21.0111Z" fill="#FFBA1A"/>
<path d="M29.005 19.526C29.005 19.526 28.3425 16.1573 27.8606 15.9702C27.3787 15.783 23.7049 14.3962 18.2223 14.4645C13.4042 14.5244 10.9347 15.7297 10.333 16.3922C9.73133 17.0547 8.40538 21.0897 8.40538 21.0897L29.005 19.526Z" fill="#40413C"/>
<path d="M32.3588 47.0296C32.3588 47.0296 32.078 36.5623 31.8974 33.0766C31.6766 28.8564 31.5606 19.5475 29.9099 18.3208C27.1026 16.2331 21.1765 16.3463 18.5265 16.2733C14.1284 16.1526 9.87358 16.6748 8.50831 18.9234C7.14305 21.172 6.26252 27.4387 5.7778 33.1375C5.29308 38.8362 4.89445 47.1101 4.89445 47.1101L32.3588 47.0296Z" fill="#FFBA1A"/>
<path d="M27.8016 14.647C27.7417 14.4664 25.845 4.68034 25.1516 3.98695C23.5861 2.4205 13.3471 3.02313 13.3471 3.02313L12.5049 4.10673C12.5049 4.10673 20.9903 3.57897 23.4663 4.88995C24.9139 5.65727 26.297 13.8039 26.297 13.8039L27.8016 14.647Z" fill="#FFD62C"/>
<path d="M10.8168 17.8389C13.7942 17.2829 16.8268 17.0809 19.8515 17.2372C23.3307 17.4356 28.132 18.2048 28.5849 18.682C29.6685 19.8264 30.9935 45.4239 30.9935 45.4239L28.467 45.1825C28.467 45.1825 28.045 20.5498 27.2627 19.5261C26.9258 19.0844 22.8749 18.4967 19.1918 18.2609C14.3259 17.954 9.13342 18.9234 9.13342 18.9234L10.8168 17.8389Z" fill="#FFD62C"/>
<path d="M4.97495 45.3836H32.2783V46.3072H4.97495V45.3836Z" fill="#FFD62C"/>
<path d="M17.1004 18.6819H19.51V45.9048H17.1004V18.6819Z" fill="#FFD62C"/>
<path d="M17.8042 9.76892H18.7072V18.3217H17.8042V9.76892Z" fill="#FFD62C"/>
<path d="M17.3222 9.6033C17.3202 9.67483 17.3463 9.74431 17.3949 9.79681C17.4436 9.8493 17.5109 9.88062 17.5823 9.88402H18.9289C19.0004 9.88062 19.0677 9.8493 19.1163 9.79681C19.165 9.74431 19.1911 9.67483 19.189 9.6033C19.1924 9.53087 19.1668 9.46008 19.1181 9.40642C19.0693 9.35276 19.0013 9.32059 18.9289 9.31696H17.5823C17.5099 9.32059 17.4419 9.35276 17.3932 9.40642C17.3444 9.46008 17.3189 9.53087 17.3222 9.6033Z" fill="#40413C"/>
<path d="M17.6225 18.6221H17.9238V45.7252H17.6225V18.6221Z" fill="#FFBA1A"/>
<path d="M18.1055 9.82886H18.2861V18.1402H18.1055V9.82886Z" fill="#FFBA1A"/>
<path d="M16.4791 18.4714C16.4791 18.6071 16.533 18.7373 16.629 18.8333C16.725 18.9293 16.8552 18.9832 16.9909 18.9832H19.641C19.7767 18.9832 19.9069 18.9293 20.0029 18.8333C20.0989 18.7373 20.1528 18.6071 20.1528 18.4714C20.1528 18.3356 20.0989 18.2054 20.0029 18.1094C19.9069 18.0135 19.7767 17.9595 19.641 17.9595H16.9909C16.8552 17.9595 16.725 18.0135 16.629 18.1094C16.533 18.2054 16.4791 18.3356 16.4791 18.4714Z" fill="#40413C"/>
<path d="M8.46814 17.5984L5.75821 16.3333L0.9999 16.5138L1.12062 17.1764L5.51678 16.876L7.92634 18.5622L8.46814 17.5984Z" fill="#FFBA1A"/>
<path d="M29.6105 17.692L32.2755 16.3333L37.0366 16.3473L36.9393 17.0135L32.5347 16.8666L30.186 18.6361L29.6105 17.692Z" fill="#FFBA1A"/>
<path d="M30.0906 3.68564C30.0906 3.84546 30.1541 3.99874 30.2671 4.11176C30.3801 4.22477 30.5334 4.28826 30.6932 4.28826C30.8529 4.28801 31.0059 4.22441 31.1188 4.11143C31.2316 3.99844 31.2949 3.8453 31.2949 3.68564V1.81881C31.295 1.73972 31.2796 1.66137 31.2494 1.58827C31.2192 1.51516 31.1749 1.44872 31.119 1.39275C31.0631 1.33678 30.9968 1.29237 30.9237 1.26208C30.8506 1.23178 30.7723 1.21619 30.6932 1.21619C30.5334 1.21619 30.3801 1.27968 30.2671 1.39269C30.1541 1.5057 30.0906 1.65899 30.0906 1.81881V3.68564Z" fill="#40413C"/>
<path d="M8.16777 3.47319C8.16777 3.63277 8.23116 3.78581 8.344 3.89865C8.45684 4.01149 8.60987 4.07488 8.76945 4.07488C8.84855 4.075 8.92688 4.05953 8.99999 4.02935C9.07309 3.99917 9.13955 3.95486 9.19552 3.89898C9.25149 3.8431 9.2959 3.77672 9.3262 3.70366C9.35649 3.6306 9.37207 3.55229 9.37207 3.47319V1.60169C9.37207 1.52259 9.35649 1.44428 9.3262 1.37122C9.2959 1.29816 9.25149 1.23178 9.19552 1.1759C9.13955 1.12002 9.07309 1.07571 8.99999 1.04553C8.92688 1.01535 8.84855 0.999878 8.76945 1C8.60987 1 8.45684 1.06339 8.344 1.17623C8.23116 1.28907 8.16777 1.44211 8.16777 1.60169V3.47319Z" fill="#40413C"/>
<path d="M20.4738 14.5468L21.8999 14.6872L21.9196 1.49685L20.4738 1.39673V14.5468Z" fill="#62635F"/>
<path d="M15.2738 14.6872L16.7195 14.5469L16.7598 1.29663L15.3543 1.41735L15.2738 14.6872Z" fill="#62635F"/>
<path d="M24.088 23.0578C23.4178 22.3875 23.4178 21.3009 24.088 20.6307C24.7582 19.9605 25.8448 19.9605 26.515 20.6307C27.1852 21.3009 27.1852 22.3875 26.515 23.0578C25.8448 23.728 24.7582 23.728 24.088 23.0578Z" fill="#40413C"/>
<path d="M25.3024 23.0706C24.6253 23.0706 24.0765 22.5218 24.0765 21.8448C24.0765 21.1678 24.6253 20.619 25.3024 20.619C25.9794 20.619 26.5282 21.1678 26.5282 21.8448C26.5282 22.5218 25.9794 23.0706 25.3024 23.0706Z" fill="#4848CC"/>
<path d="M25.5371 21.6998C25.422 21.4499 25.1076 21.2385 24.9682 21.0195L25.146 20.9746C26.3503 20.8155 26.7367 22.6009 25.4201 22.5289C25.4491 22.177 25.713 22.0778 25.5371 21.6998Z" fill="#2974E2"/>
<path d="M10.4168 23.0589C9.74663 22.3887 9.74663 21.302 10.4168 20.6318C11.087 19.9616 12.1737 19.9616 12.8439 20.6318C13.5141 21.302 13.5141 22.3886 12.8439 23.0588C12.1737 23.7291 11.087 23.7291 10.4168 23.0589Z" fill="#40413C"/>
<path d="M11.6309 23.0706C10.9539 23.0706 10.405 22.5218 10.405 21.8448C10.405 21.1678 10.9539 20.619 11.6309 20.619C12.3079 20.619 12.8567 21.1678 12.8567 21.8448C12.8567 22.5218 12.3079 23.0706 11.6309 23.0706Z" fill="#4848CC"/>
<path d="M11.8658 21.6998C11.7498 21.4499 11.4363 21.2385 11.296 21.0195L11.4747 20.9746C12.679 20.8155 13.0655 22.6009 11.7489 22.5289C11.7779 22.177 12.0418 22.0778 11.8658 21.6998Z" fill="#2974E2"/>
<path d="M24.8504 96.7386C24.8507 96.8663 24.9015 96.9888 24.9918 97.0791C25.0821 97.1694 25.2046 97.2203 25.3323 97.2205C25.4601 97.2205 25.5827 97.1698 25.6731 97.0794C25.7634 96.989 25.8142 96.8664 25.8142 96.7386V46.9856C25.8142 46.9224 25.8018 46.8597 25.7775 46.8012C25.7533 46.7427 25.7178 46.6896 25.6731 46.6449C25.6283 46.6001 25.5752 46.5646 25.5167 46.5404C25.4582 46.5162 25.3956 46.5037 25.3323 46.5037C25.2046 46.504 25.0821 46.5548 24.9918 46.6451C24.9015 46.7355 24.8507 46.8579 24.8504 46.9856V96.7386Z" fill="#CDC4BD"/>
<path d="M15.4554 96.7386C15.4554 96.8663 15.5061 96.9887 15.5963 97.0791C15.6864 97.1694 15.8088 97.2203 15.9364 97.2205C16.0642 97.2205 16.1868 97.1698 16.2772 97.0794C16.3676 96.989 16.4183 96.8664 16.4183 96.7386V46.9856C16.4183 46.9224 16.4059 46.8597 16.3816 46.8012C16.3574 46.7427 16.3219 46.6896 16.2772 46.6449C16.2324 46.6001 16.1793 46.5646 16.1208 46.5404C16.0624 46.5162 15.9997 46.5037 15.9364 46.5037C15.8088 46.504 15.6864 46.5549 15.5963 46.6452C15.5061 46.7356 15.4554 46.858 15.4554 46.9856V96.7386Z" fill="#CDC4BD"/>
<path d="M15.7362 47.8325H25.1321V48.3949H15.7362V47.8325Z" fill="#CDC4BD"/>
<path d="M15.8157 51.4099H25.2115V51.9722H15.8157V51.4099Z" fill="#CDC4BD"/>
<path d="M15.8157 54.9863H25.2115V55.5487H15.8157V54.9863Z" fill="#CDC4BD"/>
<path d="M15.9766 58.5627H25.3724V59.1251H15.9766V58.5627Z" fill="#CDC4BD"/>
<path d="M16.0571 62.1392H25.453V62.7015H16.0571V62.1392Z" fill="#CDC4BD"/>
<path d="M15.7362 65.7157H25.1321V66.2781H15.7362V65.7157Z" fill="#CDC4BD"/>
<path d="M15.4946 69.293H24.8905V69.8554H15.4946V69.293Z" fill="#CDC4BD"/>
<path d="M15.6556 72.8695H25.0515V73.4319H15.6556V72.8695Z" fill="#CDC4BD"/>
<path d="M15.7362 76.4459H25.1321V77.0082H15.7362V76.4459Z" fill="#CDC4BD"/>
<path d="M15.5751 80.0223H24.9709V80.5847H15.5751V80.0223Z" fill="#CDC4BD"/>
<path d="M15.7362 83.5997H25.1321V84.1621H15.7362V83.5997Z" fill="#CDC4BD"/>
<path d="M15.8157 87.1762H25.2115V87.7386H15.8157V87.1762Z" fill="#CDC4BD"/>
<path d="M15.8157 90.7526H25.2115V91.315H15.8157V90.7526Z" fill="#CDC4BD"/>
<path d="M15.8961 94.3291H25.292V94.8915H15.8961V94.3291Z" fill="#CDC4BD"/>
<path d="M11.1649 96.8986C11.1649 97.1653 11.28 97.3805 11.4223 97.3805C11.5645 97.3805 11.6805 97.1653 11.6805 96.8986V47.1503C11.6805 46.8846 11.5645 46.6684 11.4223 46.6684C11.28 46.6684 11.1649 46.8846 11.1649 47.1503V96.8986Z" fill="#CDC4BD"/>
<path d="M6.13906 96.8986C6.13906 97.1653 6.2551 97.3805 6.39733 97.3805C6.53957 97.3805 6.65466 97.1653 6.65466 96.8986V47.1503C6.65466 46.8846 6.53957 46.6684 6.39733 46.6684C6.2551 46.6684 6.13906 46.8846 6.13906 47.1503V96.8986Z" fill="#CDC4BD"/>
<path d="M6.28963 47.9935H11.3156V48.5559H6.28963V47.9935Z" fill="#CDC4BD"/>
<path d="M6.33272 51.5699H11.3586V52.1323H6.33272V51.5699Z" fill="#CDC4BD"/>
<path d="M6.33272 55.1463H11.3586V55.7087H6.33272V55.1463Z" fill="#CDC4BD"/>
<path d="M6.41781 58.7237H11.4437V59.2861H6.41781V58.7237Z" fill="#CDC4BD"/>
<path d="M6.4609 62.3002H11.4868V62.8626H6.4609V62.3002Z" fill="#CDC4BD"/>
<path d="M6.28963 65.8766H11.3156V66.439H6.28963V65.8766Z" fill="#CDC4BD"/>
<path d="M6.1606 69.4531H11.1865V70.0155H6.1606V69.4531Z" fill="#CDC4BD"/>
<path d="M6.24666 73.0305H11.2726V73.5928H6.24666V73.0305Z" fill="#CDC4BD"/>
<path d="M6.28963 76.6068H11.3156V77.1692H6.28963V76.6068Z" fill="#CDC4BD"/>
<path d="M6.20357 80.1833H11.2295V80.7457H6.20357V80.1833Z" fill="#CDC4BD"/>
<path d="M6.28963 83.7598H11.3156V84.3222H6.28963V83.7598Z" fill="#CDC4BD"/>
<path d="M6.33272 87.3362H11.3586V87.8986H6.33272V87.3362Z" fill="#CDC4BD"/>
<path d="M6.33272 90.9136H11.3586V91.476H6.33272V90.9136Z" fill="#CDC4BD"/>
<path d="M6.37482 94.49H11.4008V95.0524H6.37482V94.49Z" fill="#CDC4BD"/>
</g>
<defs>
<filter id="filter0_d_13_23342" x="-0.00012207" y="0" width="44.0367" height="104.381" filterUnits="userSpaceOnUse" color-interpolation-filters="sRGB">
<feFlood flood-opacity="0" result="BackgroundImageFix"/>
<feColorMatrix in="SourceAlpha" type="matrix" values="0 0 0 0 0 0 0 0 0 0 0 0 0 0 0 0 0 0 127 0" result="hardAlpha"/>
<feOffset dx="3" dy="3"/>
<feGaussianBlur stdDeviation="2"/>
<feComposite in2="hardAlpha" operator="out"/>
<feColorMatrix type="matrix" values="0 0 0 0 0 0 0 0 0 0 0 0 0 0 0 0 0 0 0.25 0"/>
<feBlend mode="normal" in2="BackgroundImageFix" result="effect1_dropShadow_13_23342"/>
<feBlend mode="normal" in="SourceGraphic" in2="effect1_dropShadow_13_23342" result="shape"/>
</filter>
</defs>
</svg>
