<svg width="47" height="72" viewBox="0 0 47 72" fill="none" xmlns="http://www.w3.org/2000/svg">
<g filter="url(#filter0_d_35_7700)">
<path d="M3.60299 52.918L2.63473 52.825C1.96678 52.7608 1.37325 53.2502 1.30905 53.9182L1.11621 55.9246C1.05201 56.5925 1.54145 57.1861 2.20941 57.2503L3.17766 57.3433C3.84561 57.4075 4.43914 56.9181 4.50334 56.2501L4.69618 54.2437C4.76038 53.5758 4.27094 52.9822 3.60299 52.918Z" fill="#2B2929"/>
<path d="M38.1856 52.0538L37.2138 52.0968C36.5435 52.1264 36.024 52.6938 36.0536 53.3642L36.1426 55.3779C36.1722 56.0483 36.7397 56.5677 37.4101 56.5381L38.3818 56.4952C39.0522 56.4656 39.5717 55.8981 39.542 55.2277L39.4531 53.214C39.4234 52.5436 38.856 52.0242 38.1856 52.0538Z" fill="#2B2929"/>
<path d="M3.9987 48.409L2.74997 48.3499C2.48167 48.3372 2.25386 48.5444 2.24116 48.8127L1.68288 60.6073C1.67018 60.8756 1.8774 61.1034 2.1457 61.1161L3.39443 61.1752C3.66274 61.1879 3.89054 60.9807 3.90324 60.7124L4.46152 48.9178C4.47422 48.6495 4.26701 48.4217 3.9987 48.409Z" fill="#04B54C"/>
<path d="M3.99801 48.4089L3.30173 48.3759C3.03342 48.3632 2.80562 48.5704 2.79292 48.8387L2.23464 60.6333C2.22194 60.9016 2.42915 61.1294 2.69746 61.1421L3.39373 61.175C3.66204 61.1877 3.88984 60.9805 3.90254 60.7122L4.46082 48.9177C4.47352 48.6494 4.26631 48.4216 3.99801 48.4089Z" fill="#2B2929"/>
<path d="M37.3385 61.179L38.5872 61.1199C38.8555 61.1072 39.0627 60.8794 39.05 60.6111L38.4917 48.8166C38.479 48.5482 38.2512 48.341 37.9829 48.3537L36.7342 48.4128C36.4659 48.4255 36.2587 48.6533 36.2714 48.9217L36.8296 60.7162C36.8423 60.9845 37.0701 61.1917 37.3385 61.179Z" fill="#04B54C"/>
<path d="M37.3389 61.1792L38.0352 61.1463C38.3035 61.1336 38.5107 60.9058 38.498 60.6375L37.9397 48.8429C37.927 48.5746 37.6992 48.3674 37.4309 48.3801L36.7346 48.4131C36.4663 48.4258 36.2591 48.6536 36.2718 48.9219L36.8301 60.7164C36.8428 60.9847 37.0706 61.1919 37.3389 61.1792Z" fill="#2B2929"/>
<path d="M20.8939 1H19.9212C19.2502 1 18.7062 1.54398 18.7062 2.21501V4.23067C18.7062 4.90171 19.2502 5.44569 19.9212 5.44569H20.8939C21.5649 5.44569 22.1089 4.90171 22.1089 4.23067V2.21501C22.1089 1.54398 21.5649 1 20.8939 1Z" fill="#2B2929"/>
<path d="M31.8396 62.0789H8.76664C6.62807 62.0789 4.90388 60.0369 4.97762 57.5683L6.06797 16.1314C6.13118 13.754 7.82378 11.8683 9.88509 11.8876L31.1408 12.0632C33.1933 12.0807 34.8596 13.9823 34.9017 16.3526L35.6304 57.6139C35.6725 60.0633 33.9641 62.0789 31.8396 62.0789Z" fill="#04B54C"/>
<path d="M33.541 64.0227H7.33565C4.90737 64.0227 2.95843 63.0851 3.03218 61.9509L3.49395 48.2785C3.56418 47.1864 4.02069 44.658 6.36469 44.6668L34.8894 44.5737C37.2211 44.5825 37.1579 47.5586 37.2053 48.6489L37.8532 61.972C37.9024 63.0974 35.9605 64.0227 33.541 64.0227Z" fill="#04B54C"/>
<path d="M30.9687 60.1827H9.63743C7.6604 60.1827 6.07491 58.2952 6.12583 56.0126L7.13366 17.7011C7.1916 15.5028 8.75953 13.761 10.6628 13.7768L30.3137 13.9524C32.21 13.9682 33.7516 15.7258 33.7902 17.917L34.4627 56.0583C34.5119 58.3215 32.9316 60.1827 30.9687 60.1827Z" fill="#278F51"/>
<path d="M28.1384 51.3579H12.4082C10.9509 51.3579 9.77447 49.8198 9.82714 47.9604L10.5698 16.7458C10.612 14.9531 11.7691 13.5344 13.1737 13.5484L27.6626 13.6872C29.0672 13.6994 30.1997 15.1322 30.2278 16.9161L30.7229 47.9937C30.751 49.8408 29.5852 51.3579 28.1384 51.3579Z" stroke="#04B54C" stroke-miterlimit="10"/>
<path d="M6.08716 14.1965L8.31 17.8082L32.3891 18.1787L34.4188 14.3826C34.4188 14.3826 29.2409 5.30515 20.3495 3.36499C20.3495 3.36499 14.3289 3.54057 6.08716 14.1965Z" fill="#FFDA00"/>
<path d="M32.9107 12.1634C30.7669 9.35412 26.4142 4.68896 20.3497 3.36157C20.3497 3.36157 15.7003 3.50555 8.97913 10.7675C11.3986 8.92571 16.9663 5.01905 20.1636 5.44571C24.3318 6.00054 29.8205 8.22338 32.8053 12.2529L32.9107 12.1634Z" fill="#04B54C"/>
<path d="M11.1686 7.25085H10.1958C9.52481 7.25085 8.98083 7.79484 8.98083 8.46587V10.4815C8.98083 11.1526 9.52481 11.6965 10.1958 11.6965H11.1686C11.8396 11.6965 12.3836 11.1526 12.3836 10.4815V8.46587C12.3836 7.79484 11.8396 7.25085 11.1686 7.25085Z" fill="#FFDA00"/>
<path d="M30.6175 7.25085H29.6448C28.9738 7.25085 28.4298 7.79484 28.4298 8.46587V10.4815C28.4298 11.1526 28.9738 11.6965 29.6448 11.6965H30.6175C31.2886 11.6965 31.8325 11.1526 31.8325 10.4815V8.46587C31.8325 7.79484 31.2886 7.25085 30.6175 7.25085Z" fill="#FFDA00"/>
<path d="M20.8728 13.5489C24.0227 14.1037 28.8389 16.2353 28.8389 16.2353L30.7826 11.8826C27.3535 7.90049 20.5989 6.88037 20.5989 6.88037H20.0722C20.0722 6.88037 13.3124 7.90049 9.88855 11.8826L11.8322 16.2353C11.8322 16.2353 16.6484 14.1037 19.7965 13.5489H20.8728Z" fill="#A4EEF4"/>
<path d="M32.8861 18.1944C32.8861 17.8889 32.3909 16.0488 31.7676 15.4799C31.6345 15.3465 31.49 15.2248 31.3357 15.1165C28.0594 12.5758 20.8009 10.9974 20.4146 10.9131C20.0547 10.9903 13.8427 12.3423 10.3118 14.5493C9.5343 14.8223 8.88438 15.3716 8.48572 16.0927C8.18548 16.4825 7.95898 17.7642 7.95898 18.0013L7.01436 53.1576C6.95818 55.2523 8.44183 56.9835 10.2907 56.9835H30.2383C32.0749 56.9835 33.5533 55.2751 33.5147 53.1945L32.8861 18.1944Z" fill="#04B54C"/>
<path d="M17.0153 53.3263C19.4242 53.1331 21.8332 53.0173 24.2421 52.8979C25.4466 52.8428 26.6511 52.7943 27.8556 52.7521L28.3086 52.7346H28.5333H28.6474L28.7335 52.724C28.9595 52.709 29.1803 52.6493 29.3831 52.5485C29.7994 52.3386 30.1404 52.0049 30.3593 51.5933C30.4687 51.3822 30.5524 51.1588 30.6087 50.9279C30.6598 50.6938 30.6822 50.4544 30.6754 50.215L30.6087 48.4223L30.484 44.8019L30.3804 41.1849L30.3032 37.5715C30.2154 32.7547 30.1914 27.9362 30.2312 23.116L30.2522 21.3092V20.8563C30.2522 20.7878 30.2522 20.6807 30.2522 20.7053C30.2522 20.6631 30.2382 20.5981 30.2259 20.5297C30.1711 20.2595 30.1008 19.9928 30.0152 19.7308C29.9389 19.4796 29.8377 19.2367 29.7132 19.0056C29.6877 18.958 29.659 18.9123 29.6272 18.8687C29.6138 18.8495 29.5992 18.8313 29.5833 18.8143L29.5622 18.7879L29.5236 18.7475C29.4797 18.7019 29.4358 18.6597 29.3901 18.6194C29.3408 18.5741 29.2893 18.5313 29.2356 18.4912C28.7864 18.1269 28.3078 17.8003 27.8047 17.515C27.3007 17.2147 26.767 16.9531 26.2244 16.6968C25.6819 16.4404 25.1323 16.2174 24.5792 15.9944C23.4678 15.5467 22.3318 15.1429 21.187 14.7654C21.784 14.8584 22.3757 14.9778 22.9692 15.1025C23.5626 15.2272 24.1473 15.3799 24.7355 15.5362C25.9189 15.8546 27.0755 16.2655 28.1944 16.7652C28.7656 17.0246 29.3131 17.333 29.8308 17.687C29.8853 17.7204 29.9696 17.7783 30.038 17.8293C30.1065 17.8802 30.1767 17.9416 30.2435 18.0048L30.2856 18.0435L30.3418 18.0979C30.3798 18.1337 30.4155 18.1718 30.4489 18.212C30.512 18.2857 30.5706 18.3631 30.6245 18.4438C30.8101 18.7291 30.966 19.0327 31.0898 19.3498C31.2152 19.652 31.3202 19.9623 31.404 20.2786C31.4269 20.3611 31.4462 20.4454 31.4655 20.5507C31.4883 20.7263 31.4813 20.7702 31.4883 20.851L31.5111 21.3022L31.5954 23.1072C31.812 27.9239 31.9612 32.7401 32.0432 37.5557L32.0958 41.1691L32.1257 44.7826V48.3977V49.978C32.1257 50.0587 32.1257 50.1202 32.1257 50.2185C32.1171 50.5819 32.0634 50.9429 31.9659 51.2931C31.8633 51.6433 31.7164 51.9791 31.5287 52.2921C31.1411 52.9322 30.5591 53.4317 29.8677 53.7178C29.519 53.8621 29.1459 53.9383 28.7686 53.9426H28.6299H28.5158H28.291L27.838 53.925C26.6335 53.8829 25.4291 53.8343 24.2246 53.7793C21.8332 53.6353 19.4242 53.5194 17.0153 53.3263Z" fill="#278F51"/>
</g>
<defs>
<filter id="filter0_d_35_7700" x="0.110596" y="0" width="46.4326" height="71.0227" filterUnits="userSpaceOnUse" color-interpolation-filters="sRGB">
<feFlood flood-opacity="0" result="BackgroundImageFix"/>
<feColorMatrix in="SourceAlpha" type="matrix" values="0 0 0 0 0 0 0 0 0 0 0 0 0 0 0 0 0 0 127 0" result="hardAlpha"/>
<feOffset dx="3" dy="3"/>
<feGaussianBlur stdDeviation="2"/>
<feComposite in2="hardAlpha" operator="out"/>
<feColorMatrix type="matrix" values="0 0 0 0 0 0 0 0 0 0 0 0 0 0 0 0 0 0 0.25 0"/>
<feBlend mode="normal" in2="BackgroundImageFix" result="effect1_dropShadow_35_7700"/>
<feBlend mode="normal" in="SourceGraphic" in2="effect1_dropShadow_35_7700" result="shape"/>
</filter>
</defs>
</svg>
