<svg width="35" height="70" viewBox="0 0 35 70" fill="none" xmlns="http://www.w3.org/2000/svg">
<g filter="url(#filter0_d_19_32500)">
<path d="M9.25199 42.5366C8.54718 42.5366 7.97862 41.8868 7.97862 41.085L7.97863 17.035C7.97863 16.2333 8.54718 15.5835 9.252 15.5835L20.5421 15.5835C21.2442 15.5835 21.8128 16.2333 21.8128 17.035L21.8128 41.085C21.8128 41.8868 21.2442 42.5366 20.542 42.5366L9.25199 42.5366Z" fill="#363B39"/>
<path d="M18.6372 42.5366L18.6372 15.5835L11.1018 15.5835L11.1018 42.5366L18.6372 42.5366Z" fill="black"/>
<path d="M10.8581 42.5366L10.8581 15.5835L10.0275 15.5835L10.0275 42.5366L10.8581 42.5366Z" fill="black"/>
<path d="M9.05279 42.5156C9.11831 42.5292 9.18501 42.5362 9.25192 42.5366L9.77594 42.5366L9.77594 15.5835L9.25192 15.5835C9.18516 15.5843 9.11857 15.5904 9.05279 15.6018L9.05279 42.5156Z" fill="black"/>
<path d="M8.81177 15.6753C8.55509 15.7956 8.33935 15.9886 8.19125 16.2303C8.04315 16.472 7.96921 16.7518 7.97857 17.0351L7.97857 41.0851C7.96954 41.3684 8.04363 41.6481 8.19169 41.8897C8.33975 42.1314 8.5553 42.3244 8.81177 42.445L8.81177 15.6753Z" fill="black"/>
<path d="M19.5568 42.5366L19.5568 15.5835L18.8782 15.5835L18.8782 42.5366L19.5568 42.5366Z" fill="black"/>
<path d="M20.377 42.5366L20.377 15.5835L19.8006 15.5835L19.8006 42.5366L20.377 42.5366Z" fill="black"/>
<path d="M20.6207 42.5365C21.2862 42.4893 21.8128 41.8605 21.8128 41.0902L21.8128 17.0349C21.8128 16.262 21.2888 15.6358 20.6207 15.5886L20.6207 42.5365Z" fill="black"/>
<path d="M12.1131 42.5366C11.7647 42.5366 11.4843 41.8868 11.4843 41.085L11.4843 17.035C11.4843 16.2333 11.7647 15.5835 12.1131 15.5835L17.6782 15.5835C18.0267 15.5835 18.3071 16.2333 18.3071 17.035L18.3071 41.085C18.3071 41.8868 18.0267 42.5366 17.6782 42.5366L12.1131 42.5366Z" fill="#363B39"/>
<path d="M16.4337 9.32933L16.4337 2.45154C16.4337 1.64988 15.7838 1 14.9822 1L14.8093 1C14.0076 1 13.3577 1.64988 13.3577 2.45154L13.3577 9.32933C13.3577 10.131 14.0076 10.7809 14.8093 10.7809L14.9822 10.7809C15.7838 10.7809 16.4337 10.131 16.4337 9.32933Z" fill="black"/>
<path d="M18.6896 14.5591L18.6896 9.49176C18.632 4.13625 16.777 2.36768 16.135 2.36768L13.6721 2.36768C13.0302 2.36768 11.052 4.27249 11.1568 8.72406L11.1568 14.5591L18.6896 14.5591Z" fill="#00CAF6"/>
<path d="M23.867 19.1837C23.867 19.1837 21.8993 9.34259 16.6198 7.60808C16.6198 7.60808 6.56642 4.81766 5.92449 19.1837L23.867 19.1837Z" fill="#0595B5"/>
<path d="M23.8669 19.1836C23.8669 19.1836 21.8992 13.705 16.6197 12.7408C16.6197 12.7408 6.56636 11.1844 5.92443 19.1836L23.8669 19.1836Z" fill="#00CAF6"/>
<path d="M19.9394 17.4098C19.9394 17.4098 19.0564 14.8998 16.7376 14.3967C14.4188 13.8937 10.7114 14.5434 9.58472 17.5618L19.9394 17.4098Z" fill="black"/>
<path d="M19.1612 15.345C19.0222 15.345 18.889 15.4002 18.7907 15.4985C18.6924 15.5967 18.6372 15.73 18.6372 15.869L18.6372 17.3232C18.6372 17.4621 18.6924 17.5954 18.7907 17.6937C18.889 17.792 19.0222 17.8472 19.1612 17.8472C19.3002 17.8472 19.4335 17.792 19.5318 17.6937C19.63 17.5954 19.6852 17.4621 19.6852 17.3232L19.6852 15.869C19.6852 15.73 19.63 15.5967 19.5318 15.4985C19.4335 15.4002 19.3002 15.345 19.1612 15.345Z" fill="#363B39"/>
<path d="M20.4215 15.3529C20.4215 15.3529 20.0206 13.5005 18.7996 13.8411C18.1603 14.0193 17.5734 16.0001 17.9376 16.6577C18.0922 16.9355 19.6774 16.9826 20.2407 16.7259C20.5315 16.5975 20.5499 15.877 20.4215 15.3529Z" fill="#E95433"/>
<path d="M20.2406 16.7259C20.4476 16.6316 20.5158 16.2386 20.5027 15.8298L17.8485 15.8298C17.8044 16.1097 17.8388 16.3963 17.948 16.6578C18.0922 16.9355 19.6773 16.9827 20.2406 16.7259Z" fill="#A8A7A1"/>
<g style="mix-blend-mode:screen">
<path d="M19.3813 13.8464C20.1516 14.1084 20.4293 15.353 20.4293 15.353C20.5577 15.877 20.5394 16.5923 20.2486 16.7259C19.973 16.8266 19.6825 16.8806 19.3892 16.8858L19.3813 13.8464Z" fill="#E95433"/>
</g>
<path d="M10.6302 15.345C10.4912 15.345 10.3579 15.4002 10.2596 15.4985C10.1613 15.5967 10.1061 15.73 10.1061 15.869L10.1061 17.3232C10.1061 17.4621 10.1613 17.5954 10.2596 17.6937C10.3579 17.792 10.4912 17.8472 10.6302 17.8472C10.7691 17.8472 10.9024 17.792 11.0007 17.6937C11.099 17.5954 11.1542 17.4621 11.1542 17.3232L11.1542 15.869C11.1542 15.73 11.099 15.5967 11.0007 15.4985C10.9024 15.4002 10.7691 15.345 10.6302 15.345Z" fill="#363B39"/>
<path d="M11.8905 15.3529C11.8905 15.3529 11.4896 13.5005 10.2686 13.8411C9.62931 14.0193 9.0424 16.0001 9.4066 16.6577C9.56119 16.9355 11.1464 16.9826 11.7071 16.7259C12.0005 16.5975 12.0136 15.877 11.8905 15.3529Z" fill="#E95433"/>
<path d="M11.707 16.7259C11.9166 16.6316 11.9847 16.2386 11.969 15.8298L9.31486 15.8298C9.26948 16.1097 9.30399 16.3967 9.41442 16.6578C9.56114 16.9355 11.1463 16.9827 11.707 16.7259Z" fill="#A8A7A1"/>
<g style="mix-blend-mode:screen">
<path d="M10.8476 13.8464C11.6206 14.1084 11.8957 15.353 11.8957 15.353C12.0241 15.877 12.0057 16.5923 11.7123 16.7259C11.4368 16.827 11.1463 16.881 10.8529 16.8858L10.8476 13.8464Z" fill="#E95433"/>
</g>
<path d="M15.0372 20.7739L15.2363 16.1101C14.0498 16.109 12.8701 16.2902 11.7385 16.6472C10.2424 17.111 8.61007 18.0935 6.84411 19.0053L7.45722 19.6866C7.45722 19.6866 10.4101 18.8796 11.0232 19.4377C11.6363 19.9957 13.8477 20.9704 15.0372 20.7739Z" fill="#00CAF6"/>
<path d="M4.00915 16.6315C5.19606 16.4795 6.12358 16.0682 6.0869 15.7118C6.05022 15.3555 5.05719 15.1878 3.8729 15.345C2.68861 15.5022 1.75848 15.9084 1.79516 16.2647C1.83184 16.621 2.82486 16.7861 4.00915 16.6315Z" fill="#00CAF6"/>
<path d="M4.00919 16.6314C2.8249 16.786 1.8345 16.6314 1.7952 16.2646C1.79019 16.2395 1.79019 16.2137 1.7952 16.1886C2.02315 16.4506 2.91399 16.5685 3.95155 16.4349C5.05462 16.2934 5.93498 15.9266 6.02406 15.5886C6.0544 15.6232 6.07358 15.6661 6.07908 15.7118C6.12362 16.0733 5.20134 16.4795 4.00919 16.6314Z" fill="#626362"/>
<path d="M3.89127 15.3348C3.89028 15.2975 3.89725 15.2605 3.9117 15.2261C3.92616 15.1918 3.94778 15.161 3.97511 15.1356C4.09275 15.0638 4.23395 15.0412 4.36813 15.0727C4.37773 15.0733 4.38735 15.0733 4.39695 15.0727C4.41267 15.0727 4.56987 15.0885 5.18298 15.1618C6.28605 15.2902 8.32711 15.5313 8.5734 15.5339C8.94284 15.5339 8.99 15.7802 8.99262 15.7959L9.87036 19.3042L9.7708 19.3278L8.88782 15.8116C8.88782 15.8116 8.84852 15.6361 8.56817 15.6361C8.28781 15.6361 6.34893 15.4029 5.16202 15.264C4.7428 15.2142 4.41267 15.1749 4.38909 15.1749C4.36551 15.1749 4.36813 15.1749 4.34979 15.1749C4.24362 15.1507 4.13231 15.1646 4.03537 15.2142C4.01876 15.2299 4.00591 15.2491 3.99774 15.2704C3.98958 15.2917 3.98632 15.3146 3.98821 15.3374L3.89127 15.3348Z" fill="#797A79"/>
<path d="M3.66848 20.8709C3.63769 20.8811 3.60518 20.8852 3.57281 20.8828C3.54045 20.8805 3.50888 20.8717 3.47991 20.8571C3.45094 20.8425 3.42513 20.8223 3.40399 20.7977C3.38284 20.7731 3.36676 20.7445 3.35668 20.7137L3.18638 20.1189C3.17537 20.0557 3.18796 19.9906 3.22177 19.936C3.25558 19.8814 3.30825 19.8412 3.36979 19.8229L7.22397 18.7277C7.25476 18.7174 7.28727 18.7134 7.31963 18.7157C7.35199 18.7181 7.38356 18.7269 7.41254 18.7415C7.44151 18.7561 7.46731 18.7763 7.48846 18.8009C7.50961 18.8255 7.52568 18.854 7.53576 18.8849L7.70345 19.477C7.71123 19.5087 7.71266 19.5416 7.70763 19.5738C7.7026 19.606 7.69123 19.6369 7.67416 19.6647C7.6571 19.6925 7.63469 19.7166 7.60824 19.7357C7.58178 19.7547 7.5518 19.7683 7.52004 19.7757L3.66848 20.8709Z" fill="#313030"/>
<path d="M7.75588 19.9278C7.68775 19.9488 7.62225 19.9278 7.60915 19.8833L7.22137 18.5549C7.22137 18.5103 7.25281 18.4579 7.32094 18.4396C7.38906 18.4186 7.45456 18.4396 7.46766 18.4841L7.85544 19.8125C7.86854 19.857 7.824 19.9068 7.75588 19.9278Z" fill="#0C2518"/>
<path d="M14.8957 20.7739L15.2363 16.1101C16.1697 16.0853 17.0996 16.2327 17.9796 16.545C19.3682 17.0088 21.0582 18.028 22.9578 19.0106L22.3447 19.6918C22.3447 19.6918 19.3918 18.8848 18.7787 19.4429C18.1656 20.001 16.0721 20.9704 14.8957 20.7739Z" fill="#00CAF6"/>
<path d="M25.7823 16.6264C24.5954 16.4744 23.6652 16.0631 23.7045 15.7067C23.7438 15.3504 24.7342 15.1827 25.9185 15.3399C27.1028 15.4971 28.0329 15.9032 27.9963 16.2596C27.9596 16.6159 26.9666 16.781 25.7823 16.6264Z" fill="#00CAF6"/>
<path d="M25.7822 16.6263C26.9665 16.7809 27.9569 16.6263 27.9962 16.2595C28.0013 16.2344 28.0013 16.2086 27.9962 16.1835C27.7683 16.4455 26.8775 16.5634 25.8399 16.4298C24.7368 16.2883 23.8565 15.9215 23.7674 15.5835C23.7376 15.6184 23.7185 15.6612 23.7124 15.7066C23.6652 16.0735 24.5901 16.4743 25.7822 16.6263Z" fill="#626362"/>
<path d="M19.6407 19.299L20.8067 15.7828C20.8067 15.7828 20.8539 15.5339 21.2233 15.5339C21.4591 15.5339 23.5106 15.2902 24.6137 15.1618C25.2242 15.0911 25.3788 15.0727 25.3997 15.0727C25.4093 15.0733 25.419 15.0733 25.4286 15.0727C25.5627 15.0412 25.704 15.0638 25.8216 15.1356C25.8489 15.161 25.8705 15.1918 25.885 15.2261C25.8994 15.2605 25.9064 15.2975 25.9054 15.3348L25.8032 15.3348C25.8051 15.312 25.8019 15.2891 25.7937 15.2678C25.7855 15.2465 25.7727 15.2273 25.7561 15.2116C25.6591 15.162 25.5478 15.1481 25.4417 15.1723C25.4233 15.1723 25.4076 15.1723 25.3997 15.1723C25.3919 15.1723 25.0487 15.2116 24.6294 15.2614C23.4478 15.4003 21.4722 15.6335 21.2233 15.6335C20.9744 15.6335 20.9063 15.7985 20.9063 15.8064L19.7377 19.3278L19.6407 19.299Z" fill="#797A79"/>
<path d="M26.1228 20.8709C26.1536 20.8811 26.1861 20.8852 26.2185 20.8828C26.2509 20.8805 26.2824 20.8717 26.3114 20.8571C26.3404 20.8425 26.3662 20.8223 26.3873 20.7977C26.4085 20.7731 26.4246 20.7445 26.4346 20.7137L26.6049 20.1189C26.616 20.0557 26.6034 19.9906 26.5696 19.936C26.5357 19.8814 26.4831 19.8412 26.4215 19.8229L22.5674 18.7277C22.5366 18.7174 22.504 18.7134 22.4717 18.7157C22.4393 18.7181 22.4078 18.7269 22.3788 18.7415C22.3498 18.7561 22.324 18.7763 22.3029 18.8009C22.2817 18.8255 22.2656 18.854 22.2556 18.8849L22.0879 19.477C22.0762 19.5407 22.0884 19.6064 22.1223 19.6615C22.1561 19.7167 22.2092 19.7574 22.2713 19.7757L26.1228 20.8709Z" fill="#313030"/>
<path d="M22.0355 19.9278C22.1036 19.9488 22.1691 19.9278 22.1822 19.8833L22.57 18.5549C22.57 18.5103 22.5386 18.4579 22.4704 18.4396C22.4023 18.4186 22.3368 18.4396 22.3237 18.4841L21.9359 19.8125C21.9228 19.857 21.9674 19.9068 22.0355 19.9278Z" fill="#0C2518"/>
<path d="M15.2363 20.6457C14.0153 20.6457 13.0249 19.9906 13.0249 19.1836C13.0249 18.3766 14.0153 17.719 15.2363 17.719C16.4573 17.719 17.4477 18.374 17.4477 19.1836C17.4477 19.9932 16.4678 20.6457 15.2363 20.6457Z" fill="#AEAEAE"/>
<path d="M15.2363 20.6457C14.0153 20.6457 13.0249 19.9906 13.0249 19.1836C13.0249 18.3766 14.0153 17.719 15.2363 17.719C16.4573 17.719 17.4477 18.374 17.4477 19.1836C17.4477 19.9932 16.4678 20.6457 15.2363 20.6457Z" fill="#00CAF6"/>
<path d="M15.2363 20.6456C14.3141 20.6456 13.5621 20.1504 13.5621 19.54C13.5621 18.9295 14.3141 18.4316 15.2363 18.4316C16.1586 18.4316 16.9106 18.9268 16.9106 19.54C16.9106 20.1531 16.1612 20.6456 15.2363 20.6456Z" fill="#0A813A"/>
<path d="M14.4109 7.68896C14.4109 7.68896 19.5464 8.27063 22.08 14.5641C22.08 14.5589 20.1778 7.85403 14.4109 7.68896Z" fill="white"/>
<path d="M15.2363 2.66898C15.2363 2.66898 17.6101 3.31615 18.2468 7.99042C18.2468 7.99042 18.0634 5.0559 17.073 3.48646C17.073 3.49694 16.3 2.60086 15.2363 2.66898Z" fill="white"/>
<path d="M19.0276 36.0544C18.349 36.0544 17.7988 35.6535 17.7988 35.1557C17.7988 34.6579 18.349 34.2544 19.0276 34.2544L21.839 34.2544C22.5176 34.2544 23.0652 34.6579 23.0652 35.1557C23.0652 35.6535 22.5176 36.0544 21.839 36.0544L19.0276 36.0544Z" fill="#6A6B6A"/>
<path d="M7.4939 36.0544C6.81529 36.0544 6.26769 35.6535 6.26769 35.1557C6.26769 34.6579 6.81529 34.2544 7.4939 34.2544L10.3053 34.2544C10.9839 34.2544 11.5315 34.6579 11.5315 35.1557C11.5315 35.6535 10.9839 36.0544 10.3053 36.0544L7.4939 36.0544Z" fill="#6A6B6A"/>
<path d="M11.4765 62.0407C10.6747 62.0407 10.0249 60.9298 10.0249 59.5594L10.0249 31.5819C10.0249 30.2142 10.6747 29.1033 11.4765 29.1033L18.0399 29.1033C18.8416 29.1033 19.4914 30.2142 19.4914 31.5819L19.4914 59.5673C19.4914 60.9376 18.8416 62.0485 18.0398 62.0485L11.4765 62.0407Z" fill="#00CAF6"/>
<path d="M10.5411 60.804C10.5411 60.804 6.6109 57.5708 6.34889 51.2982C6.08688 45.0257 6.43797 39.3479 6.43797 39.3479C6.43797 39.3479 7.77947 31.1679 13.5123 29.1033L10.5411 60.804Z" fill="#0595B5"/>
<path d="M19.2503 60.804C19.2503 60.804 23.1805 57.5708 23.4425 51.2982C23.7045 45.0257 23.3534 39.3479 23.3534 39.3479C23.3534 39.3479 22.0119 31.1679 16.2791 29.1033L19.2503 60.804Z" fill="#0595B5"/>
<path d="M11.1332 57.6468C11.1332 57.6468 7.98908 55.0581 7.78209 50.0353C7.5751 45.0126 7.85283 40.4641 7.85283 40.4641C7.85283 40.4641 8.92708 33.9138 13.5149 32.2605L11.1332 57.6468Z" fill="#00CAF6"/>
<path d="M18.5455 57.0389C18.5455 57.0389 21.5455 54.5734 21.7342 49.7917C21.9228 45.01 21.6661 40.679 21.6661 40.679C21.6661 40.679 20.6442 34.4431 16.2765 32.8684L18.5455 57.0389Z" fill="#00CAF6"/>
<path d="M10.8162 48.9507C10.6223 48.9507 10.4625 48.6546 10.4625 48.2904C10.4625 47.9262 10.6223 47.6301 10.8162 47.6301L18.4302 47.6301C18.6267 47.6301 18.7839 47.9262 18.7839 48.2904C18.7839 48.6546 18.6267 48.9507 18.4302 48.9507L10.8162 48.9507Z" fill="#363B39"/>
<path d="M16.0747 51.644C15.9621 51.644 15.873 51.4867 15.873 51.2902C15.873 51.0964 15.9621 50.9365 16.0747 50.9365L18.8992 50.9365C19.0093 50.9365 19.101 51.0964 19.101 51.2902C19.101 51.4867 19.0093 51.644 18.8992 51.644L16.0747 51.644Z" fill="#7C140A"/>
<path d="M18.784 53.4205C18.645 53.4205 18.5117 53.3653 18.4134 53.267C18.3151 53.1687 18.2599 53.0354 18.2599 52.8965L18.2599 51.4449C18.2599 51.3059 18.3151 51.1727 18.4134 51.0744C18.5117 50.9761 18.645 50.9209 18.784 50.9209C18.9229 50.9209 19.0562 50.9761 19.1545 51.0744C19.2528 51.1727 19.308 51.3059 19.308 51.4449L19.308 52.8991C19.308 53.0381 19.2528 53.1713 19.1545 53.2696C19.0562 53.3679 18.9229 53.4231 18.784 53.4231L18.784 53.4205Z" fill="#7C140A"/>
<path d="M20.0442 53.4126C20.0442 53.4126 19.6433 55.2677 18.4223 54.9271C17.783 54.7489 17.1961 52.7655 17.5603 52.1104C17.7149 51.8301 19.3 51.7855 19.8634 52.0397C20.1542 52.1733 20.1725 52.8886 20.0442 53.4126Z" fill="#E95433"/>
<path d="M19.8739 52.0397C20.0809 52.1366 20.1491 52.5297 20.136 52.9358L17.4818 52.9358C17.4375 52.6568 17.472 52.3709 17.5813 52.1104C17.715 51.8301 19.3001 51.7855 19.8739 52.0397Z" fill="#A8A7A1"/>
<g style="mix-blend-mode:screen">
<path d="M19.004 54.9192C19.7743 54.6572 20.052 53.4126 20.052 53.4126C20.1804 52.8886 20.1621 52.1733 19.8712 52.0397C19.5956 51.9391 19.3052 51.8851 19.0118 51.8799L19.004 54.9192Z" fill="#E95433"/>
</g>
<path d="M13.5358 51.644C13.6485 51.644 13.7402 51.4867 13.7402 51.2902C13.7402 51.0964 13.6485 50.9365 13.5358 50.9365L10.7035 50.9365C10.5908 50.9365 10.4991 51.0964 10.4991 51.2902C10.4991 51.4867 10.5908 51.644 10.7035 51.644L13.5358 51.644Z" fill="#7C140A"/>
<path d="M10.8266 53.4205C10.9656 53.4205 11.0989 53.3653 11.1972 53.267C11.2954 53.1687 11.3506 53.0354 11.3506 52.8965L11.3506 51.4449C11.3506 51.3059 11.2954 51.1727 11.1972 51.0744C11.0989 50.9761 10.9656 50.9209 10.8266 50.9209C10.6876 50.9209 10.5544 50.9761 10.4561 51.0744C10.3578 51.1727 10.3026 51.3059 10.3026 51.4449L10.3026 52.8991C10.3026 53.0381 10.3578 53.1713 10.4561 53.2696C10.5544 53.3679 10.6876 53.4231 10.8266 53.4231L10.8266 53.4205Z" fill="#7C140A"/>
<path d="M9.56639 53.4126C9.56639 53.4126 9.96989 55.2677 11.1909 54.9271C11.8275 54.7489 12.4171 52.7655 12.0529 52.1104C11.8957 51.8301 10.3105 51.7855 9.7498 52.0397C9.45896 52.1733 9.44063 52.8886 9.56639 53.4126Z" fill="#E95433"/>
<path d="M9.74975 52.0397C9.54014 52.1366 9.47202 52.5297 9.48774 52.9358L12.1498 52.9358C12.1948 52.657 12.1612 52.3712 12.0528 52.1104C11.8956 51.8301 10.3105 51.7855 9.74975 52.0397Z" fill="#A8A7A1"/>
<g style="mix-blend-mode:screen">
<path d="M10.6093 54.9192C9.83894 54.6572 9.56121 53.4126 9.56121 53.4126C9.43544 52.8886 9.45378 52.1733 9.74461 52.0397C10.0201 51.9387 10.3106 51.8847 10.604 51.8799L10.6093 54.9192Z" fill="#E95433"/>
</g>
<path d="M18.5272 49.6423C18.2903 49.6423 18.0588 49.5721 17.8619 49.4405C17.665 49.309 17.5115 49.122 17.4209 48.9032C17.3303 48.6844 17.3066 48.4436 17.3528 48.2114C17.399 47.9791 17.513 47.7657 17.6805 47.5983C17.8479 47.4308 18.0613 47.3168 18.2936 47.2706C18.5258 47.2244 18.7666 47.2481 18.9854 47.3387C19.2042 47.4293 19.3912 47.5828 19.5228 47.7797C19.6543 47.9766 19.7245 48.2081 19.7245 48.4449C19.7245 48.7625 19.5984 49.0671 19.3738 49.2916C19.1493 49.5162 18.8447 49.6423 18.5272 49.6423Z" fill="#363B39"/>
<path d="M11.2695 49.6423C11.0326 49.6423 10.8011 49.5721 10.6042 49.4405C10.4073 49.309 10.2538 49.122 10.1632 48.9032C10.0726 48.6844 10.0489 48.4436 10.0951 48.2114C10.1413 47.9791 10.2553 47.7657 10.4228 47.5983C10.5902 47.4308 10.8036 47.3168 11.0359 47.2706C11.2681 47.2244 11.5089 47.2481 11.7277 47.3387C11.9465 47.4293 12.1335 47.5828 12.2651 47.7797C12.3966 47.9766 12.4669 48.2081 12.4669 48.4449C12.4669 48.7625 12.3407 49.0671 12.1161 49.2916C11.8916 49.5162 11.587 49.6423 11.2695 49.6423Z" fill="#363B39"/>
<path d="M16.8634 59.2503L16.8634 55.438L12.9725 55.438L12.9725 59.2503L16.8634 59.2503Z" fill="#E95433"/>
<path d="M16.8634 56.9577L16.8634 55.438L12.9725 55.438L12.9725 56.9577L16.8634 56.9577Z" fill="#A8A7A1"/>
<g style="mix-blend-mode:screen">
<path d="M16.8634 59.2503L16.8634 55.438L15.873 55.438L15.873 59.2503L16.8634 59.2503Z" fill="#E95433"/>
</g>
<path d="M18.3018 57.0937L18.3018 50.0378C18.3018 49.464 17.652 48.9897 16.8503 48.9897L12.9594 48.9897C12.1734 48.9897 11.5105 49.4561 11.5105 50.0378L11.5105 57.0937C11.5105 57.6675 12.1603 58.1418 12.9594 58.1418L16.8608 58.1418C17.6625 58.1339 18.3018 57.6676 18.3018 57.0937ZM13.2581 57.3427C12.5716 57.3427 12.0136 56.9785 12.0136 56.5252L12.0136 50.9836C12.0136 50.5304 12.5716 50.1662 13.2581 50.1662L16.6092 50.1662C17.2983 50.1662 17.8538 50.5304 17.8538 50.9836L17.8538 56.5252C17.8538 56.9785 17.2983 57.3427 16.6092 57.3427L13.2581 57.3427Z" fill="#C4C4C3"/>
<path d="M11.8276 52.8834C11.7463 52.8834 11.6683 52.8511 11.6108 52.7936C11.5533 52.7361 11.521 52.6581 11.521 52.5768C11.521 52.4955 11.5533 52.4176 11.6108 52.3601C11.6683 52.3026 11.7463 52.2703 11.8276 52.2703L17.8695 52.2703C17.91 52.2699 17.9502 52.2776 17.9877 52.2929C18.0252 52.3081 18.0593 52.3306 18.088 52.3591C18.1167 52.3876 18.1396 52.4215 18.1551 52.4589C18.1707 52.4963 18.1787 52.5364 18.1787 52.5768C18.178 52.6584 18.1451 52.7363 18.0872 52.7938C18.0293 52.8512 17.9511 52.8834 17.8695 52.8834L11.8276 52.8834Z" fill="#C4C4C3"/>
<path d="M11.8276 55.8468C11.7463 55.8468 11.6683 55.8145 11.6108 55.757C11.5533 55.6995 11.521 55.6215 11.521 55.5402C11.521 55.4589 11.5533 55.3809 11.6108 55.3234C11.6683 55.266 11.7463 55.2337 11.8276 55.2337L17.8695 55.2337C17.91 55.2333 17.9502 55.241 17.9877 55.2562C18.0252 55.2715 18.0593 55.294 18.088 55.3225C18.1167 55.351 18.1396 55.3849 18.1551 55.4223C18.1707 55.4597 18.1787 55.4997 18.1787 55.5402C18.1787 55.5807 18.1707 55.6208 18.1551 55.6581C18.1396 55.6955 18.1167 55.7294 18.088 55.7579C18.0593 55.7864 18.0252 55.8089 17.9877 55.8242C17.9502 55.8394 17.91 55.8471 17.8695 55.8468L11.8276 55.8468Z" fill="#C4C4C3"/>
<path d="M20.3088 41.0823C18.4014 37.6919 18.3542 36.9111 17.6363 33.3058C16.9184 29.7006 14.8171 30.484 14.8171 30.484L14.8171 30.6202L14.804 30.484C14.804 30.484 12.7079 29.6979 11.9847 33.3163C11.2616 36.9347 11.2196 37.7024 9.3122 41.0928C7.75324 43.8701 7.34188 48.9689 12.962 49.5217L16.659 49.5217C22.2791 48.9584 21.8678 43.8596 20.3088 41.0823Z" fill="#0595B5"/>
<path d="M19.5018 40.1236C17.8905 37.2572 17.8512 36.5969 17.2433 33.5471C16.6354 30.4973 14.859 31.1549 14.859 31.1549C14.859 31.1549 13.08 30.4999 12.4747 33.5471C11.8695 36.5943 11.8275 37.2572 10.2136 40.1236C8.9035 42.4817 8.54717 46.7839 13.3 47.2503L16.4442 47.2503C21.1682 46.7839 20.8224 42.4712 19.5018 40.1236Z" fill="#00CAF6"/>
<path d="M19.7245 32.2605C21.5975 34.9447 22.748 38.0658 23.0652 41.3235C23.0652 41.3235 23.094 35.685 19.7245 32.2605Z" fill="white"/>
<path d="M7.71136 36.01C7.71136 36.01 6.47468 39.8825 6.37249 48.9245C6.37249 48.9245 6.24934 38.7585 7.71136 36.01Z" fill="white"/>
<path d="M14.6939 17.0822C14.0415 17.0822 13.0537 16.6027 12.8599 15.8298L12.4878 12.7223C12.4836 12.563 12.5109 12.4044 12.568 12.2556C12.6251 12.1069 12.711 11.9708 12.8208 11.8552C12.9305 11.7396 13.0619 11.6468 13.2076 11.5821C13.3532 11.5173 13.5101 11.4819 13.6695 11.4778L16.1376 11.4778C16.2969 11.4819 16.4539 11.5173 16.5995 11.5821C16.7451 11.6468 16.8766 11.7396 16.9863 11.8552C17.0961 11.9708 17.182 12.1069 17.2391 12.2556C17.2962 12.4044 17.3235 12.563 17.3193 12.7223L16.9525 15.8298C16.9525 16.5163 15.8258 17.0822 15.1734 17.0822L14.6939 17.0822Z" fill="#0595B5"/>
<path d="M17.2538 13.1154L17.3009 12.7223C17.3051 12.563 17.2778 12.4044 17.2207 12.2556C17.1636 12.1069 17.0777 11.9708 16.968 11.8552C16.8582 11.7396 16.7268 11.6468 16.5812 11.5821C16.4355 11.5173 16.2786 11.4819 16.1192 11.4778L13.6511 11.4778C13.4918 11.4819 13.3348 11.5173 13.1892 11.5821C13.0436 11.6468 12.9121 11.7396 12.8024 11.8552C12.6926 11.9708 12.6068 12.1069 12.5496 12.2556C12.4925 12.4044 12.4652 12.563 12.4694 12.7223L12.5166 13.1154L17.2538 13.1154Z" fill="#FFFCE6"/>
<path d="M17.2537 13.1154L17.3009 12.7224L17.3009 12.6228L12.4799 12.6228L12.4799 12.7224L12.5271 13.1154L17.2537 13.1154Z" fill="#878888"/>
</g>
<defs>
<filter id="filter0_d_19_32500" x="0.791443" y="0" width="34.2086" height="69.0486" filterUnits="userSpaceOnUse" color-interpolation-filters="sRGB">
<feFlood flood-opacity="0" result="BackgroundImageFix"/>
<feColorMatrix in="SourceAlpha" type="matrix" values="0 0 0 0 0 0 0 0 0 0 0 0 0 0 0 0 0 0 127 0" result="hardAlpha"/>
<feOffset dx="3" dy="3"/>
<feGaussianBlur stdDeviation="2"/>
<feComposite in2="hardAlpha" operator="out"/>
<feColorMatrix type="matrix" values="0 0 0 0 0 0 0 0 0 0 0 0 0 0 0 0 0 0 0.25 0"/>
<feBlend mode="normal" in2="BackgroundImageFix" result="effect1_dropShadow_19_32500"/>
<feBlend mode="normal" in="SourceGraphic" in2="effect1_dropShadow_19_32500" result="shape"/>
</filter>
</defs>
</svg>
