<svg width="51" height="68" viewBox="0 0 51 68" fill="none" xmlns="http://www.w3.org/2000/svg">
<g filter="url(#filter0_d_30_4092)">
<path d="M15.171 18.3367H7.23395V61.2984H15.171V18.3367Z" fill="#004358"/>
<path d="M12.5904 19.5914H9.80814L9.48311 18.4863H7.23395V18.1873H9.70415L10.0292 19.2923H12.3693L12.7009 18.1873H15.171V18.4863H12.9219L12.5904 19.5914Z" fill="#003242"/>
<path d="M12.5904 20.9825H9.80814L9.48311 19.8774H7.23395V19.5784H9.70415L10.0292 20.69H12.3693L12.7009 19.5784H15.171V19.8774H12.9219L12.5904 20.9825Z" fill="#003242"/>
<path d="M12.5904 22.3799H9.80814L9.48311 21.2749H7.23395V20.9758H9.70415L10.0292 22.0809H12.3693L12.7009 20.9758H15.171V21.2749H12.9219L12.5904 22.3799Z" fill="#003242"/>
<path d="M12.5904 23.7776H9.80814L9.48311 22.6726H7.23395V22.3735H9.70415L10.0292 23.4786H12.3693L12.7009 22.3735H15.171V22.6726H12.9219L12.5904 23.7776Z" fill="#003242"/>
<path d="M12.5904 25.1688H9.80814L9.48311 24.0637H7.23395V23.7646H9.70415L10.0292 24.8697H12.3693L12.7009 23.7646H15.171V24.0637H12.9219L12.5904 25.1688Z" fill="#003242"/>
<path d="M12.5904 26.5665H9.80814L9.48311 25.4614H7.23395V25.1624H9.70415L10.0292 26.2674H12.3693L12.7009 25.1624H15.171V25.4614H12.9219L12.5904 26.5665Z" fill="#003242"/>
<path d="M12.5904 27.9574H9.80814L9.48311 26.8523H7.23395V26.5598H9.70415L10.0292 27.6649H12.3693L12.7009 26.5598H15.171V26.8523H12.9219L12.5904 27.9574Z" fill="#003242"/>
<path d="M12.5904 29.355H9.80814L9.48311 28.2499H7.23395V27.9509H9.70415L10.0292 29.056H12.3693L12.7009 27.9509H15.171V28.2499H12.9219L12.5904 29.355Z" fill="#003242"/>
<path d="M12.5904 30.7527H9.80814L9.48311 29.6477H7.23395V29.3486H9.70415L10.0292 30.4537H12.3693L12.7009 29.3486H15.171V29.6477H12.9219L12.5904 30.7527Z" fill="#003242"/>
<path d="M12.5904 32.1439H9.80814L9.48311 31.0388H7.23395V30.7397H9.70415L10.0292 31.8448H12.3693L12.7009 30.7397H15.171V31.0388H12.9219L12.5904 32.1439Z" fill="#003242"/>
<path d="M12.5904 33.5413H9.80814L9.48311 32.4362H7.23395V32.1372H9.70415L10.0292 33.2423H12.3693L12.7009 32.1372H15.171V32.4362H12.9219L12.5904 33.5413Z" fill="#003242"/>
<path d="M12.5904 34.939H9.80814L9.48311 33.8339H7.23395V33.5349H9.70415L10.0292 34.64H12.3693L12.7009 33.5349H15.171V33.8339H12.9219L12.5904 34.939Z" fill="#003242"/>
<path d="M12.5904 36.3301H9.80814L9.48311 35.225H7.23395V34.926H9.70415L10.0292 36.0311H12.3693L12.7009 34.926H15.171V35.225H12.9219L12.5904 36.3301Z" fill="#003242"/>
<path d="M12.5904 37.7276H9.80814L9.48311 36.6225H7.23395V36.3235H9.70415L10.0292 37.4286H12.3693L12.7009 36.3235H15.171V36.6225H12.9219L12.5904 37.7276Z" fill="#003242"/>
<path d="M12.5904 39.1188H9.80814L9.48311 38.0137H7.23395V37.7212H9.70415L10.0292 38.8263H12.3693L12.7009 37.7212H15.171V38.0137H12.9219L12.5904 39.1188Z" fill="#003242"/>
<path d="M12.5904 40.5164H9.80814L9.48311 39.4113H7.23395V39.1123H9.70415L10.0292 40.2174H12.3693L12.7009 39.1123H15.171V39.4113H12.9219L12.5904 40.5164Z" fill="#003242"/>
<path d="M12.5904 41.9141H9.80814L9.48311 40.809H7.23395V40.51H9.70415L10.0292 41.6151H12.3693L12.7009 40.51H15.171V40.809H12.9219L12.5904 41.9141Z" fill="#003242"/>
<path d="M12.5904 43.3051H9.80814L9.48311 42.2H7.23395V41.9075H9.70415L10.0292 43.0126H12.3693L12.7009 41.9075H15.171V42.2H12.9219L12.5904 43.3051Z" fill="#003242"/>
<path d="M12.5904 44.7027H9.80814L9.48311 43.5976H7.23395V43.2986H9.70415L10.0292 44.4037H12.3693L12.7009 43.2986H15.171V43.5976H12.9219L12.5904 44.7027Z" fill="#003242"/>
<path d="M12.5904 46.1004H9.80814L9.48311 44.9953H7.23395V44.6963H9.70415L10.0292 45.8014H12.3693L12.7009 44.6963H15.171V44.9953H12.9219L12.5904 46.1004Z" fill="#003242"/>
<path d="M12.5904 47.4915H9.80814L9.48311 46.3864H7.23395V46.0874H9.70415L10.0292 47.1925H12.3693L12.7009 46.0874H15.171V46.3864H12.9219L12.5904 47.4915Z" fill="#003242"/>
<path d="M12.5904 48.889H9.80814L9.48311 47.7839H7.23395V47.4849H9.70415L10.0292 48.59H12.3693L12.7009 47.4849H15.171V47.7839H12.9219L12.5904 48.889Z" fill="#003242"/>
<path d="M12.5904 50.2802H9.80814L9.48311 49.1751H7.23395V48.8826H9.70415L10.0292 49.9877H12.3693L12.7009 48.8826H15.171V49.1751H12.9219L12.5904 50.2802Z" fill="#003242"/>
<path d="M12.5904 51.6778H9.80814L9.48311 50.5727H7.23395V50.2737H9.70415L10.0292 51.3788H12.3693L12.7009 50.2737H15.171V50.5727H12.9219L12.5904 51.6778Z" fill="#003242"/>
<path d="M12.5904 53.0752H9.80814L9.48311 51.9702H7.23395V51.6711H9.70415L10.0292 52.7762H12.3693L12.7009 51.6711H15.171V51.9702H12.9219L12.5904 53.0752Z" fill="#003242"/>
<path d="M12.5904 54.4665H9.80814L9.48311 53.3614H7.23395V53.0688H9.70415L10.0292 54.1674H12.3693L12.7009 53.0688H15.171V53.3614H12.9219L12.5904 54.4665Z" fill="#003242"/>
<path d="M12.5904 55.8641H9.80814L9.48311 54.759H7.23395V54.46H9.70415L10.0292 55.565H12.3693L12.7009 54.46H15.171V54.759H12.9219L12.5904 55.8641Z" fill="#003242"/>
<path d="M12.5904 57.2618H9.80814L9.48311 56.1567H7.23395V55.8577H9.70415L10.0292 56.9627H12.3693L12.7009 55.8577H15.171V56.1567H12.9219L12.5904 57.2618Z" fill="#003242"/>
<path d="M12.5904 58.6529H9.80814L9.48311 57.5478H7.23395V57.2488H9.70415L10.0292 58.3539H12.3693L12.7009 57.2488H15.171V57.5478H12.9219L12.5904 58.6529Z" fill="#003242"/>
<path d="M12.5904 60.0503H9.80814L9.48311 58.9453H7.23395V58.6462H9.70415L10.0292 59.7513H12.3693L12.7009 58.6462H15.171V58.9453H12.9219L12.5904 60.0503Z" fill="#003242"/>
<path d="M12.5904 61.4416H9.80814L9.48311 60.343H7.23395V60.0439H9.70415L10.0292 61.149H12.3693L12.7009 60.0439H15.171V60.343H12.9219L12.5904 61.4416Z" fill="#003242"/>
<path d="M37.5523 18.3367H29.6152V61.2984H37.5523V18.3367Z" fill="#004358"/>
<path d="M34.9781 19.5914H32.1959L31.8644 18.4863H29.6152V18.1873H32.0919L32.4169 19.2923H34.7571L35.0821 18.1873H37.5588V18.4863H35.3031L34.9781 19.5914Z" fill="#003242"/>
<path d="M34.9781 20.9825H32.1959L31.8644 19.8774H29.6152V19.5784H32.0919L32.4169 20.69H34.7571L35.0821 19.5784H37.5588V19.8774H35.3031L34.9781 20.9825Z" fill="#003242"/>
<path d="M34.9781 22.3799H32.1959L31.8644 21.2749H29.6152V20.9758H32.0919L32.4169 22.0809H34.7571L35.0821 20.9758H37.5588V21.2749H35.3031L34.9781 22.3799Z" fill="#003242"/>
<path d="M34.9781 23.7776H32.1959L31.8644 22.6726H29.6152V22.3735H32.0919L32.4169 23.4786H34.7571L35.0821 22.3735H37.5588V22.6726H35.3031L34.9781 23.7776Z" fill="#003242"/>
<path d="M34.9781 25.1688H32.1959L31.8644 24.0637H29.6152V23.7646H32.0919L32.4169 24.8697H34.7571L35.0821 23.7646H37.5588V24.0637H35.3031L34.9781 25.1688Z" fill="#003242"/>
<path d="M34.9781 26.5665H32.1959L31.8644 25.4614H29.6152V25.1624H32.0919L32.4169 26.2674H34.7571L35.0821 25.1624H37.5588V25.4614H35.3031L34.9781 26.5665Z" fill="#003242"/>
<path d="M34.9781 27.9574H32.1959L31.8644 26.8523H29.6152V26.5598H32.0919L32.4169 27.6649H34.7571L35.0821 26.5598H37.5588V26.8523H35.3031L34.9781 27.9574Z" fill="#003242"/>
<path d="M34.9781 29.355H32.1959L31.8644 28.2499H29.6152V27.9509H32.0919L32.4169 29.056H34.7571L35.0821 27.9509H37.5588V28.2499H35.3031L34.9781 29.355Z" fill="#003242"/>
<path d="M34.9781 30.7527H32.1959L31.8644 29.6477H29.6152V29.3486H32.0919L32.4169 30.4537H34.7571L35.0821 29.3486H37.5588V29.6477H35.3031L34.9781 30.7527Z" fill="#003242"/>
<path d="M34.9781 32.1439H32.1959L31.8644 31.0388H29.6152V30.7397H32.0919L32.4169 31.8448H34.7571L35.0821 30.7397H37.5588V31.0388H35.3031L34.9781 32.1439Z" fill="#003242"/>
<path d="M34.9781 33.5413H32.1959L31.8644 32.4362H29.6152V32.1372H32.0919L32.4169 33.2423H34.7571L35.0821 32.1372H37.5588V32.4362H35.3031L34.9781 33.5413Z" fill="#003242"/>
<path d="M34.9781 34.939H32.1959L31.8644 33.8339H29.6152V33.5349H32.0919L32.4169 34.64H34.7571L35.0821 33.5349H37.5588V33.8339H35.3031L34.9781 34.939Z" fill="#003242"/>
<path d="M34.9781 36.3301H32.1959L31.8644 35.225H29.6152V34.926H32.0919L32.4169 36.0311H34.7571L35.0821 34.926H37.5588V35.225H35.3031L34.9781 36.3301Z" fill="#003242"/>
<path d="M34.9781 37.7276H32.1959L31.8644 36.6225H29.6152V36.3235H32.0919L32.4169 37.4286H34.7571L35.0821 36.3235H37.5588V36.6225H35.3031L34.9781 37.7276Z" fill="#003242"/>
<path d="M34.9781 39.1188H32.1959L31.8644 38.0137H29.6152V37.7212H32.0919L32.4169 38.8263H34.7571L35.0821 37.7212H37.5588V38.0137H35.3031L34.9781 39.1188Z" fill="#003242"/>
<path d="M34.9781 40.5164H32.1959L31.8644 39.4113H29.6152V39.1123H32.0919L32.4169 40.2174H34.7571L35.0821 39.1123H37.5588V39.4113H35.3031L34.9781 40.5164Z" fill="#003242"/>
<path d="M34.9781 41.9141H32.1959L31.8644 40.809H29.6152V40.51H32.0919L32.4169 41.6151H34.7571L35.0821 40.51H37.5588V40.809H35.3031L34.9781 41.9141Z" fill="#003242"/>
<path d="M34.9781 43.3051H32.1959L31.8644 42.2H29.6152V41.9075H32.0919L32.4169 43.0126H34.7571L35.0821 41.9075H37.5588V42.2H35.3031L34.9781 43.3051Z" fill="#003242"/>
<path d="M34.9781 44.7027H32.1959L31.8644 43.5976H29.6152V43.2986H32.0919L32.4169 44.4037H34.7571L35.0821 43.2986H37.5588V43.5976H35.3031L34.9781 44.7027Z" fill="#003242"/>
<path d="M34.9781 46.1004H32.1959L31.8644 44.9953H29.6152V44.6963H32.0919L32.4169 45.8014H34.7571L35.0821 44.6963H37.5588V44.9953H35.3031L34.9781 46.1004Z" fill="#003242"/>
<path d="M34.9781 47.4915H32.1959L31.8644 46.3864H29.6152V46.0874H32.0919L32.4169 47.1925H34.7571L35.0821 46.0874H37.5588V46.3864H35.3031L34.9781 47.4915Z" fill="#003242"/>
<path d="M34.9781 48.889H32.1959L31.8644 47.7839H29.6152V47.4849H32.0919L32.4169 48.59H34.7571L35.0821 47.4849H37.5588V47.7839H35.3031L34.9781 48.889Z" fill="#003242"/>
<path d="M34.9781 50.2802H32.1959L31.8644 49.1751H29.6152V48.8826H32.0919L32.4169 49.9877H34.7571L35.0821 48.8826H37.5588V49.1751H35.3031L34.9781 50.2802Z" fill="#003242"/>
<path d="M34.9781 51.6778H32.1959L31.8644 50.5727H29.6152V50.2737H32.0919L32.4169 51.3788H34.7571L35.0821 50.2737H37.5588V50.5727H35.3031L34.9781 51.6778Z" fill="#003242"/>
<path d="M34.9781 53.0752H32.1959L31.8644 51.9702H29.6152V51.6711H32.0919L32.4169 52.7762H34.7571L35.0821 51.6711H37.5588V51.9702H35.3031L34.9781 53.0752Z" fill="#003242"/>
<path d="M34.9781 54.4665H32.1959L31.8644 53.3614H29.6152V53.0688H32.0919L32.4169 54.1674H34.7571L35.0821 53.0688H37.5588V53.3614H35.3031L34.9781 54.4665Z" fill="#003242"/>
<path d="M34.9781 55.8641H32.1959L31.8644 54.759H29.6152V54.46H32.0919L32.4169 55.565H34.7571L35.0821 54.46H37.5588V54.759H35.3031L34.9781 55.8641Z" fill="#003242"/>
<path d="M34.9781 57.2618H32.1959L31.8644 56.1567H29.6152V55.8577H32.0919L32.4169 56.9627H34.7571L35.0821 55.8577H37.5588V56.1567H35.3031L34.9781 57.2618Z" fill="#003242"/>
<path d="M34.9781 58.6529H32.1959L31.8644 57.5478H29.6152V57.2488H32.0919L32.4169 58.3539H34.7571L35.0821 57.2488H37.5588V57.5478H35.3031L34.9781 58.6529Z" fill="#003242"/>
<path d="M34.9781 60.0503H32.1959L31.8644 58.9453H29.6152V58.6462H32.0919L32.4169 59.7513H34.7571L35.0821 58.6462H37.5588V58.9453H35.3031L34.9781 60.0503Z" fill="#003242"/>
<path d="M34.9781 61.4416H32.1959L31.8644 60.343H29.6152V60.0439H32.0919L32.4169 61.149H34.7571L35.0821 60.0439H37.5588V60.343H35.3031L34.9781 61.4416Z" fill="#003242"/>
<g style="mix-blend-mode:multiply" opacity="0.5">
<path d="M37.5523 20.5339V19.8774H37.5588V19.5784H37.5523V18.4863H37.5588V18.1873H35.0821L35.0431 18.3368H32.1309L32.0919 18.1873H29.6152V18.3368V20.5339H37.5523Z" fill="#003242"/>
</g>
<g style="mix-blend-mode:multiply" opacity="0.5">
<path d="M37.5523 59.1143H29.6152V61.2919H32.1504L32.1959 61.4414H34.9781L35.0236 61.2919H37.5523V60.3429H37.5588V60.0438H37.5523V59.1143Z" fill="#003242"/>
</g>
<g style="mix-blend-mode:multiply" opacity="0.5">
<path d="M7.2339 20.5339V19.8774H7.22742V19.5784H7.2339V18.4863H7.22742V18.1873H9.7041L9.74311 18.3368H12.6553L12.6943 18.1873H15.171V18.3368V20.5339H7.2339Z" fill="#003242"/>
</g>
<g style="mix-blend-mode:multiply" opacity="0.5">
<path d="M7.2339 59.1143H15.171V61.2919H12.6358L12.5903 61.4414H9.80809L9.76261 61.2919H7.2339V60.3429H7.22742V60.0438H7.2339V59.1143Z" fill="#003242"/>
</g>
<path d="M32.3193 25.4028H12.4668C11.7667 25.4028 11.1992 25.9689 11.1992 26.6672C11.1992 27.3655 11.7667 27.9315 12.4668 27.9315H32.3193C33.0194 27.9315 33.5869 27.3655 33.5869 26.6672C33.5869 25.9689 33.0194 25.4028 32.3193 25.4028Z" fill="#FFE11A"/>
<path d="M31.0193 16.6335H13.767V37.2986H31.0193V16.6335Z" fill="#00CAF6"/>
<path d="M29.8232 35.8491L29.3942 19.7344L26.846 18.1873H22.3931H17.9403L15.3921 19.7344L14.9631 35.8491H29.8232Z" fill="#0A7992"/>
<path d="M26.3974 35.8491L26.1699 26.3194L24.7918 25.4028H22.3931H19.9944L18.6163 26.3194L18.3888 35.8491H26.3974Z" fill="#00CAF6"/>
<path d="M15.2165 35.8555L14.716 35.8425L15.145 19.5977L17.8752 17.9336H26.9109L29.6411 19.5977L29.6476 19.7277L30.0702 35.8425L29.5696 35.8555L29.1471 19.8772L26.7744 18.4341H18.0118L15.6391 19.8772L15.2165 35.8555Z" fill="#15512D"/>
<path d="M33.392 56.5595H11.3943V36.2455C18.5232 33.8013 26.2631 33.8013 33.392 36.2455V56.5595Z" fill="#00CAF6"/>
<path d="M18.2587 15.314C18.2717 15.5025 18.2458 15.6916 18.1826 15.8697C18.1193 16.0477 18.0202 16.2109 17.8912 16.349C17.7623 16.4871 17.6064 16.5972 17.4331 16.6725C17.2598 16.7478 17.0728 16.7867 16.8839 16.7867C16.695 16.7867 16.508 16.7478 16.3347 16.6725C16.1614 16.5972 16.0055 16.4871 15.8765 16.349C15.7476 16.2109 15.6484 16.0477 15.5852 15.8697C15.522 15.6916 15.4961 15.5025 15.509 15.314H18.2587Z" fill="#FFE11A"/>
<path d="M17.6087 15.314C17.5973 15.5719 17.4914 15.8166 17.3114 16.0017C17.1313 16.1867 16.8895 16.2991 16.632 16.3175C16.3745 16.336 16.1191 16.2592 15.9145 16.1017C15.7099 15.9443 15.5702 15.7171 15.5221 15.4635C15.5562 15.8156 15.7251 16.141 15.9934 16.3715C16.2618 16.6021 16.6089 16.7201 16.9621 16.7008C17.3154 16.6815 17.6476 16.5264 17.8892 16.268C18.1308 16.0095 18.2632 15.6677 18.2588 15.314H17.6087Z" fill="#FFBA1A"/>
<path d="M17.9402 15.3139C17.9402 15.0279 17.4722 14.7874 16.8872 14.7874C16.3021 14.7874 15.8276 15.0279 15.8276 15.3139H17.9402Z" fill="#FFF4B3"/>
<path d="M29.7582 15.314C29.7712 15.5025 29.7452 15.6916 29.682 15.8697C29.6188 16.0477 29.5196 16.2109 29.3907 16.349C29.2618 16.4871 29.1058 16.5972 28.9325 16.6725C28.7592 16.7478 28.5723 16.7867 28.3833 16.7867C28.1944 16.7867 28.0075 16.7478 27.8342 16.6725C27.6609 16.5972 27.5049 16.4871 27.376 16.349C27.2471 16.2109 27.1479 16.0477 27.0847 15.8697C27.0215 15.6916 26.9955 15.5025 27.0085 15.314H29.7582Z" fill="#FFE11A"/>
<path d="M29.1081 15.314C29.1065 15.4497 29.0778 15.5837 29.0237 15.7082C28.9696 15.8326 28.8913 15.9451 28.7932 16.0389C28.6951 16.1327 28.5793 16.206 28.4526 16.2546C28.3259 16.3031 28.1907 16.3259 28.0551 16.3215C27.8074 16.3307 27.5651 16.2482 27.3744 16.0899C27.1837 15.9316 27.0581 15.7086 27.0215 15.4635C27.0556 15.8156 27.2245 16.141 27.4928 16.3715C27.7612 16.6021 28.1082 16.7201 28.4615 16.7008C28.8148 16.6815 29.147 16.5264 29.3886 16.268C29.6302 16.0095 29.7626 15.6677 29.7582 15.314H29.1081Z" fill="#FFBA1A"/>
<path d="M29.4397 15.3139C29.4397 15.0279 28.9651 14.7874 28.3801 14.7874C27.7951 14.7874 27.327 15.0279 27.327 15.3139H29.4397Z" fill="#FFF4B3"/>
<path d="M23.1277 23.5632H25.8449C25.9043 23.5632 25.9632 23.575 26.018 23.598C26.0729 23.6209 26.1226 23.6546 26.1644 23.6969C26.2061 23.7392 26.239 23.7895 26.2611 23.8446C26.2833 23.8998 26.2943 23.9588 26.2934 24.0183C26.2934 24.1372 26.2461 24.2513 26.162 24.3354C26.0779 24.4195 25.9638 24.4668 25.8449 24.4668H23.1277C23.0087 24.4668 22.8946 24.4195 22.8105 24.3354C22.7264 24.2513 22.6791 24.1372 22.6791 24.0183C22.6783 23.9588 22.6892 23.8998 22.7114 23.8446C22.7335 23.7895 22.7664 23.7392 22.8082 23.6969C22.8499 23.6546 22.8996 23.6209 22.9545 23.598C23.0093 23.575 23.0682 23.5632 23.1277 23.5632Z" fill="#004358"/>
<path d="M18.9414 23.5632H21.6586C21.718 23.5632 21.7769 23.575 21.8317 23.598C21.8866 23.6209 21.9363 23.6546 21.9781 23.6969C22.0198 23.7392 22.0527 23.7895 22.0749 23.8446C22.097 23.8998 22.108 23.9588 22.1071 24.0183C22.1071 24.1372 22.0599 24.2513 21.9758 24.3354C21.8916 24.4195 21.7775 24.4668 21.6586 24.4668H18.9414C18.8224 24.4668 18.7083 24.4195 18.6242 24.3354C18.5401 24.2513 18.4928 24.1372 18.4928 24.0183C18.492 23.9588 18.5029 23.8998 18.5251 23.8446C18.5473 23.7895 18.5802 23.7392 18.6219 23.6969C18.6636 23.6546 18.7134 23.6209 18.7682 23.598C18.8231 23.575 18.8819 23.5632 18.9414 23.5632Z" fill="#004358"/>
<path d="M23.1277 21.9055H25.8449C25.9638 21.9055 26.0779 21.9528 26.162 22.0369C26.2461 22.121 26.2934 22.2351 26.2934 22.3541C26.2943 22.4135 26.2833 22.4725 26.2611 22.5277C26.239 22.5829 26.2061 22.6331 26.1644 22.6754C26.1226 22.7178 26.0729 22.7514 26.018 22.7743C25.9632 22.7973 25.9043 22.8091 25.8449 22.8091H23.1277C23.0682 22.8091 23.0093 22.7973 22.9545 22.7743C22.8996 22.7514 22.8499 22.7178 22.8082 22.6754C22.7664 22.6331 22.7335 22.5829 22.7114 22.5277C22.6892 22.4725 22.6783 22.4135 22.6791 22.3541C22.6791 22.2351 22.7264 22.121 22.8105 22.0369C22.8946 21.9528 23.0087 21.9055 23.1277 21.9055Z" fill="#004358"/>
<path d="M18.9414 21.9055H21.6586C21.7775 21.9055 21.8916 21.9528 21.9758 22.0369C22.0599 22.121 22.1071 22.2351 22.1071 22.3541C22.108 22.4135 22.097 22.4725 22.0749 22.5277C22.0527 22.5829 22.0198 22.6331 21.9781 22.6754C21.9363 22.7178 21.8866 22.7514 21.8317 22.7743C21.7769 22.7973 21.718 22.8091 21.6586 22.8091H18.9414C18.8819 22.8091 18.8231 22.7973 18.7682 22.7743C18.7134 22.7514 18.6636 22.7178 18.6219 22.6754C18.5802 22.6331 18.5473 22.5829 18.5251 22.5277C18.5029 22.4725 18.492 22.4135 18.4928 22.3541C18.4928 22.2351 18.5401 22.121 18.6242 22.0369C18.7083 21.9528 18.8224 21.9055 18.9414 21.9055Z" fill="#004358"/>
<path d="M23.1277 20.2415H25.8449C25.9043 20.2414 25.9632 20.2533 26.018 20.2762C26.0729 20.2992 26.1226 20.3328 26.1644 20.3751C26.2061 20.4175 26.239 20.4677 26.2611 20.5228C26.2833 20.578 26.2943 20.637 26.2934 20.6965C26.2934 20.8154 26.2461 20.9295 26.162 21.0137C26.0779 21.0978 25.9638 21.145 25.8449 21.145H23.1277C23.0087 21.145 22.8946 21.0978 22.8105 21.0137C22.7264 20.9295 22.6791 20.8154 22.6791 20.6965C22.6783 20.637 22.6892 20.578 22.7114 20.5228C22.7335 20.4677 22.7664 20.4175 22.8082 20.3751C22.8499 20.3328 22.8996 20.2992 22.9545 20.2762C23.0093 20.2533 23.0682 20.2414 23.1277 20.2415Z" fill="#004358"/>
<path d="M18.9414 20.2415H21.6586C21.718 20.2414 21.7769 20.2533 21.8317 20.2762C21.8866 20.2992 21.9363 20.3328 21.9781 20.3751C22.0198 20.4175 22.0527 20.4677 22.0749 20.5228C22.097 20.578 22.108 20.637 22.1071 20.6965C22.1071 20.8154 22.0599 20.9295 21.9758 21.0137C21.8916 21.0978 21.7775 21.145 21.6586 21.145H18.9414C18.8224 21.145 18.7083 21.0978 18.6242 21.0137C18.5401 20.9295 18.4928 20.8154 18.4928 20.6965C18.492 20.637 18.5029 20.578 18.5251 20.5228C18.5473 20.4677 18.5802 20.4175 18.6219 20.3751C18.6636 20.3328 18.7134 20.2992 18.7682 20.2762C18.8231 20.2533 18.8819 20.2414 18.9414 20.2415Z" fill="#004358"/>
<g style="mix-blend-mode:multiply" opacity="0.3">
<path d="M20.7875 52.7503C20.5871 52.5496 20.3412 52.4004 20.0706 52.3154C19.8 52.2305 19.5129 52.2125 19.2338 52.2627L17.0822 50.1111L15.6716 51.5217L17.8232 53.6734C17.768 53.9707 17.7906 54.2773 17.8887 54.5633C17.9868 54.8494 18.1572 55.1052 18.3833 55.3061C18.6094 55.5069 18.8836 55.6459 19.1792 55.7096C19.4749 55.7733 19.7819 55.7595 20.0707 55.6696C20.3594 55.5797 20.6201 55.4167 20.8273 55.1964C21.0345 54.9761 21.1813 54.706 21.2534 54.4123C21.3255 54.1186 21.3205 53.8113 21.2388 53.5201C21.1572 53.2289 21.0017 52.9637 20.7875 52.7503Z" fill="#583200"/>
</g>
<path d="M16.3867 52.6334C17.3883 52.6334 18.2003 51.8214 18.2003 50.8197C18.2003 49.8181 17.3883 49.0061 16.3867 49.0061C15.3851 49.0061 14.5731 49.8181 14.5731 50.8197C14.5731 51.8214 15.3851 52.6334 16.3867 52.6334Z" fill="#004358"/>
<path d="M16.3867 51.8144C16.936 51.8144 17.3812 51.3691 17.3812 50.8198C17.3812 50.2705 16.936 49.8252 16.3867 49.8252C15.8374 49.8252 15.3921 50.2705 15.3921 50.8198C15.3921 51.3691 15.8374 51.8144 16.3867 51.8144Z" fill="#668E9B"/>
<path d="M29.4332 50.8197C29.4319 51.0161 29.3725 51.2078 29.2624 51.3705C29.1523 51.5332 28.9965 51.6596 28.8147 51.7339C28.6329 51.8082 28.4331 51.827 28.2406 51.7878C28.0481 51.7487 27.8715 51.6535 27.733 51.5142C27.5946 51.3748 27.5005 51.1976 27.4627 51.0048C27.4248 50.8121 27.4449 50.6124 27.5204 50.4311C27.5958 50.2497 27.7233 50.0948 27.8867 49.9858C28.0501 49.8768 28.2421 49.8186 28.4386 49.8186C28.5697 49.8186 28.6996 49.8445 28.8207 49.8949C28.9418 49.9453 29.0517 50.0192 29.1442 50.1122C29.2366 50.2052 29.3097 50.3157 29.3593 50.4371C29.4089 50.5585 29.434 50.6885 29.4332 50.8197Z" fill="#668E9B"/>
<g style="mix-blend-mode:multiply" opacity="0.3">
<path d="M30.3562 34.3994C30.2286 34.3994 30.1063 34.3487 30.0161 34.2585C29.9259 34.1682 29.8752 34.0459 29.8752 33.9183V32.3582L26.5794 29.0689C26.5008 28.9789 26.4575 28.8635 26.4575 28.7439C26.4575 28.6244 26.5008 28.5089 26.5794 28.4189C26.6682 28.3376 26.7841 28.2925 26.9045 28.2925C27.0248 28.2925 27.1408 28.3376 27.2295 28.4189L30.8048 31.9942V33.9443C30.7987 34.0619 30.7496 34.1732 30.6669 34.2571C30.5843 34.3409 30.4737 34.3916 30.3562 34.3994Z" fill="#583200"/>
</g>
<path d="M27.444 31.8839H26.3974V28.7766C26.3974 28.6387 26.4522 28.5064 26.5497 28.4089C26.6472 28.3114 26.7795 28.2566 26.9174 28.2566C27.0554 28.2566 27.1876 28.3114 27.2852 28.4089C27.3827 28.5064 27.4375 28.6387 27.4375 28.7766L27.444 31.8839Z" fill="#004358"/>
<path d="M26.3974 30.0245V31.8837H27.444V30.0245C27.444 29.9487 27.4138 29.8759 27.3602 29.8223C27.3066 29.7687 27.2338 29.7385 27.1579 29.7385H26.6834C26.6076 29.7385 26.5348 29.7687 26.4812 29.8223C26.4275 29.8759 26.3974 29.9487 26.3974 30.0245Z" fill="#668E9B"/>
<path d="M16.8482 31.4937H15.9251V32.4167H16.8482V31.4937Z" fill="#004358"/>
<path d="M16.8482 33.2683H15.9251V34.1914H16.8482V33.2683Z" fill="#004358"/>
<path d="M28.8611 31.4937H27.938V32.4167H28.8611V31.4937Z" fill="#004358"/>
<path d="M28.8611 33.2683H27.938V34.1914H28.8611V33.2683Z" fill="#004358"/>
<path d="M16.4062 41.108C16.7113 41.108 16.9587 40.8606 16.9587 40.5555C16.9587 40.2503 16.7113 40.0029 16.4062 40.0029C16.101 40.0029 15.8536 40.2503 15.8536 40.5555C15.8536 40.8606 16.101 41.108 16.4062 41.108Z" fill="#004358"/>
<path d="M16.4062 44.2997C16.7113 44.2997 16.9587 44.0523 16.9587 43.7471C16.9587 43.442 16.7113 43.1946 16.4062 43.1946C16.101 43.1946 15.8536 43.442 15.8536 43.7471C15.8536 44.0523 16.101 44.2997 16.4062 44.2997Z" fill="#004358"/>
<path d="M32.6444 55.8054H12.1418V36.7654L12.3174 36.7069C18.8745 34.6335 25.9117 34.6335 32.4689 36.7069L32.6444 36.7654V55.8054ZM12.6424 55.3049H32.1439V37.149C25.7936 35.1727 18.9927 35.1727 12.6424 37.149V55.3049Z" fill="#0A7992"/>
<path d="M18.5384 45.9508H15.2492C14.9894 45.9491 14.7407 45.8451 14.557 45.6614C14.3732 45.4777 14.2693 45.229 14.2676 44.9692V39.3268C14.2693 39.067 14.3732 38.8183 14.557 38.6346C14.7407 38.4509 14.9894 38.3469 15.2492 38.3452H18.5384C18.7982 38.3469 19.0469 38.4509 19.2306 38.6346C19.4143 38.8183 19.5183 39.067 19.52 39.3268V44.9692C19.5183 45.229 19.4143 45.4777 19.2306 45.6614C19.0469 45.8451 18.7982 45.9491 18.5384 45.9508ZM15.2492 38.8458C15.1216 38.8458 14.9992 38.8964 14.909 38.9866C14.8188 39.0769 14.7681 39.1992 14.7681 39.3268V44.9692C14.7681 45.0974 14.8186 45.2204 14.9086 45.3117C14.9986 45.4029 15.121 45.455 15.2492 45.4568H18.5384C18.6666 45.455 18.7889 45.4029 18.8789 45.3117C18.969 45.2204 19.0194 45.0974 19.0194 44.9692V39.3268C19.0194 39.1992 18.9688 39.0769 18.8785 38.9866C18.7883 38.8964 18.666 38.8458 18.5384 38.8458H15.2492Z" fill="#0A7992"/>
<path d="M32.4169 47.4458H25.2664C25.2333 47.446 25.2005 47.4391 25.1702 47.4257C25.14 47.4122 25.1129 47.3925 25.0909 47.3678L23.8753 46.1587H20.911L19.6955 47.3678C19.6734 47.3925 19.6463 47.4122 19.6161 47.4257C19.5858 47.4391 19.553 47.446 19.5199 47.4458H12.3694V46.9453H19.4159L20.6315 45.7297C20.6786 45.6841 20.7415 45.6585 20.807 45.6582H23.9793C24.0448 45.6585 24.1077 45.6841 24.1548 45.7297L25.3704 46.9453H32.4169V47.4458Z" fill="#0A7992"/>
<path d="M21.5871 51.5347H23.1992C23.2699 51.5347 23.3377 51.5627 23.3877 51.6127C23.4377 51.6627 23.4657 51.7305 23.4657 51.8012C23.4666 51.8367 23.4603 51.8721 23.4473 51.9052C23.4343 51.9383 23.4148 51.9684 23.39 51.9939C23.3652 52.0193 23.3355 52.0395 23.3027 52.0533C23.27 52.0671 23.2348 52.0742 23.1992 52.0742H21.5871C21.5515 52.0742 21.5164 52.0671 21.4836 52.0533C21.4508 52.0395 21.4211 52.0193 21.3963 51.9939C21.3715 51.9684 21.352 51.9383 21.339 51.9052C21.326 51.8721 21.3197 51.8367 21.3206 51.8012C21.3206 51.7662 21.3275 51.7315 21.3408 51.6992C21.3542 51.6669 21.3739 51.6375 21.3986 51.6127C21.4234 51.588 21.4528 51.5684 21.4851 51.555C21.5174 51.5416 21.5521 51.5347 21.5871 51.5347Z" fill="#004358"/>
<path d="M21.5871 50.5466H23.1992C23.2348 50.5466 23.27 50.5537 23.3027 50.5675C23.3355 50.5813 23.3652 50.6015 23.39 50.627C23.4148 50.6524 23.4343 50.6826 23.4473 50.7157C23.4603 50.7488 23.4666 50.7841 23.4657 50.8197C23.4657 50.8903 23.4377 50.9581 23.3877 51.0081C23.3377 51.0581 23.2699 51.0862 23.1992 51.0862H21.5871C21.5521 51.0862 21.5174 51.0793 21.4851 51.0659C21.4528 51.0525 21.4234 51.0329 21.3986 51.0081C21.3739 50.9834 21.3542 50.954 21.3408 50.9216C21.3275 50.8893 21.3206 50.8547 21.3206 50.8197C21.3197 50.7841 21.326 50.7488 21.339 50.7157C21.352 50.6826 21.3715 50.6524 21.3963 50.627C21.4211 50.6015 21.4508 50.5813 21.4836 50.5675C21.5164 50.5537 21.5515 50.5466 21.5871 50.5466Z" fill="#004358"/>
<path d="M21.5871 49.5652H23.1992C23.2699 49.5652 23.3377 49.5933 23.3876 49.6432C23.4376 49.6932 23.4657 49.761 23.4657 49.8317C23.4657 49.9024 23.4376 49.9702 23.3876 50.0202C23.3377 50.0701 23.2699 50.0982 23.1992 50.0982H21.5871C21.5521 50.0982 21.5174 50.0913 21.4851 50.0779C21.4527 50.0645 21.4234 50.0449 21.3986 50.0202C21.3739 49.9954 21.3542 49.966 21.3408 49.9337C21.3274 49.9014 21.3206 49.8667 21.3206 49.8317C21.3206 49.7967 21.3274 49.762 21.3408 49.7297C21.3542 49.6974 21.3739 49.668 21.3986 49.6432C21.4234 49.6185 21.4527 49.5989 21.4851 49.5855C21.5174 49.5721 21.5521 49.5652 21.5871 49.5652Z" fill="#004358"/>
<path d="M28.9001 42.512H27.9771V43.435H28.9001V42.512Z" fill="#004358"/>
<path d="M28.9001 44.2866H27.9771V45.2097H28.9001V44.2866Z" fill="#004358"/>
<path d="M43.5197 4.00317H1.27301V10.3152H43.5197V4.00317Z" fill="#19334D"/>
<path d="M43.5132 4.00324H1.27303L1 2.93066H43.7863L43.5132 4.00324Z" fill="#19334D"/>
<path d="M43.0517 3.46362H1.73456L2.43012 6.31084C2.47194 6.54002 2.58948 6.74853 2.76393 6.90294C2.93838 7.05735 3.15961 7.14872 3.39218 7.1624H41.3941C41.6267 7.14872 41.8479 7.05735 42.0223 6.90294C42.1968 6.74853 42.3143 6.54002 42.3561 6.31084L43.0517 3.46362Z" fill="#0E1B29"/>
<path d="M12.9219 28.9975C12.8232 28.9984 12.7253 28.9797 12.6338 28.9425C12.5424 28.9053 12.4592 28.8504 12.3891 28.7809C12.319 28.7114 12.2633 28.6287 12.2254 28.5375C12.1874 28.4464 12.1678 28.3487 12.1678 28.25V24.0831L4.86129 16.7701C4.79056 16.702 4.73448 16.6201 4.69648 16.5296C4.65847 16.4391 4.63935 16.3417 4.64027 16.2435V10.2371C4.63054 10.1326 4.64272 10.0273 4.67602 9.92777C4.70933 9.82828 4.76303 9.73683 4.83369 9.65927C4.90436 9.58172 4.99043 9.51976 5.08641 9.47737C5.18239 9.43498 5.28616 9.41309 5.39108 9.41309C5.496 9.41309 5.59976 9.43498 5.69573 9.47737C5.79171 9.51976 5.87778 9.58172 5.94845 9.65927C6.01911 9.73683 6.07283 9.82828 6.10614 9.92777C6.13945 10.0273 6.15162 10.1326 6.14189 10.2371V15.964L13.4484 23.2446C13.5183 23.3134 13.5738 23.3953 13.6117 23.4857C13.6496 23.5761 13.6693 23.6731 13.6695 23.7711V28.25C13.6695 28.4482 13.5907 28.6384 13.4505 28.7786C13.3103 28.9187 13.1202 28.9975 12.9219 28.9975Z" fill="#0A7992"/>
<path d="M31.8383 28.9975C31.64 28.9975 31.4499 28.9187 31.3097 28.7786C31.1695 28.6384 31.0908 28.4482 31.0908 28.25V23.7646C31.0909 23.6666 31.1106 23.5696 31.1485 23.4792C31.1864 23.3888 31.2419 23.3069 31.3118 23.2381L38.6443 15.964V10.2371C38.6346 10.1326 38.6468 10.0273 38.6801 9.92777C38.7134 9.82828 38.7671 9.73683 38.8378 9.65927C38.9084 9.58172 38.9945 9.51976 39.0905 9.47737C39.1864 9.43498 39.2902 9.41309 39.3951 9.41309C39.5001 9.41309 39.6038 9.43498 39.6998 9.47737C39.7958 9.51976 39.8819 9.58172 39.9525 9.65927C40.0232 9.73683 40.0769 9.82828 40.1102 9.92777C40.1435 10.0273 40.1557 10.1326 40.1459 10.2371V16.2435C40.1469 16.3417 40.1277 16.4391 40.0897 16.5296C40.0517 16.6201 39.9957 16.702 39.9249 16.7701L32.6184 24.0831V28.25C32.6185 28.3509 32.5981 28.4509 32.5585 28.5437C32.5189 28.6366 32.461 28.7205 32.3881 28.7904C32.3152 28.8602 32.2289 28.9146 32.1344 28.9502C32.0399 28.9858 31.9392 29.0019 31.8383 28.9975Z" fill="#0A7992"/>
<path d="M4.65327 8.96948H3.61969V11.6542H4.65327V8.96948Z" fill="#004358"/>
<path d="M7.18195 8.96948H6.14838V11.6542H7.18195V8.96948Z" fill="#004358"/>
<path d="M41.1665 8.96948H40.1329V11.6542H41.1665V8.96948Z" fill="#004358"/>
<path d="M38.6378 8.96948H37.6042V11.6542H38.6378V8.96948Z" fill="#004358"/>
<path d="M43.5197 8.00732H1.27301V8.9694H43.5197V8.00732Z" fill="#3691AD"/>
<path d="M1.72805 2.00087H1.54604C1.40234 2.00085 1.26443 2.05749 1.16221 2.15849C1.06 2.25949 1.00171 2.39672 1 2.54041V2.92393H2.3001V2.54041C2.29931 2.46701 2.28373 2.39452 2.25429 2.32728C2.22485 2.26004 2.18216 2.19942 2.12876 2.14906C2.07536 2.09869 2.01234 2.05961 1.94349 2.03415C1.87465 2.00868 1.80137 1.99737 1.72805 2.00087Z" fill="#19334D"/>
<path d="M3.88619 2.00087H3.70418C3.56048 2.00085 3.42257 2.05749 3.32036 2.15849C3.21814 2.25949 3.15985 2.39672 3.15814 2.54041V2.92393H4.45824V2.54041C4.45745 2.46701 4.44186 2.39452 4.41242 2.32728C4.38297 2.26004 4.34028 2.19942 4.28688 2.14906C4.23348 2.09869 4.17048 2.05961 4.10163 2.03415C4.03279 2.00868 3.95952 1.99737 3.88619 2.00087Z" fill="#19334D"/>
<path d="M6.09636 2.00102H5.91435C5.77125 2.00102 5.63403 2.05786 5.53285 2.15904C5.43166 2.26023 5.37482 2.39746 5.37482 2.54056V2.92408H6.6424V2.54056C6.64241 2.46915 6.62824 2.39846 6.60072 2.33257C6.5732 2.26668 6.53288 2.20691 6.48209 2.15673C6.4313 2.10654 6.37105 2.06693 6.30484 2.04021C6.23863 2.01348 6.16776 2.00016 6.09636 2.00102Z" fill="#19334D"/>
<path d="M8.28701 2.00098H8.09851C7.95542 2.00098 7.81817 2.05782 7.71699 2.15901C7.61581 2.26019 7.55896 2.39742 7.55896 2.54052V2.92405H8.85906V2.54052C8.85919 2.46685 8.84424 2.39393 8.81512 2.32626C8.78599 2.25858 8.74332 2.19759 8.68972 2.14704C8.63613 2.09649 8.57274 2.05745 8.50348 2.03233C8.43423 2.00721 8.36055 1.99654 8.28701 2.00098Z" fill="#19334D"/>
<path d="M10.4712 2.00087H10.2827C10.1396 2.00087 10.0024 2.05771 9.90119 2.1589C9.80001 2.26008 9.74316 2.39732 9.74316 2.54041V2.92394H11.0368V2.54041C11.0368 2.46732 11.0221 2.39497 10.9934 2.32775C10.9646 2.26054 10.9225 2.19986 10.8696 2.1494C10.8168 2.09895 10.7542 2.05976 10.6857 2.03423C10.6172 2.0087 10.5442 1.99735 10.4712 2.00087Z" fill="#19334D"/>
<path d="M12.6554 2.00098H12.4669C12.3238 2.00098 12.1865 2.05782 12.0853 2.159C11.9842 2.26019 11.9273 2.39742 11.9273 2.54052V2.92405H13.1949V2.54052C13.1949 2.39742 13.1381 2.26019 13.0369 2.159C12.9357 2.05782 12.7985 2.00098 12.6554 2.00098Z" fill="#19334D"/>
<path d="M14.8396 2.00098H14.651C14.5079 2.00098 14.3707 2.05782 14.2695 2.159C14.1684 2.26019 14.1115 2.39742 14.1115 2.54052V2.92405H15.3791V2.54052C15.3791 2.39742 15.3223 2.26019 15.2211 2.159C15.1199 2.05782 14.9827 2.00098 14.8396 2.00098Z" fill="#19334D"/>
<path d="M17.0237 2.00098H16.8352C16.6921 2.00098 16.5549 2.05782 16.4537 2.15901C16.3525 2.26019 16.2957 2.39742 16.2957 2.54052V2.92405H17.5958V2.54052C17.5959 2.46685 17.5809 2.39393 17.5518 2.32626C17.5227 2.25858 17.48 2.19759 17.4264 2.14704C17.3728 2.09649 17.3094 2.05745 17.2402 2.03233C17.1709 2.00721 17.0972 1.99654 17.0237 2.00098Z" fill="#19334D"/>
<path d="M19.2079 2.00087H19.0259C18.8822 2.00085 18.7443 2.05749 18.6421 2.15849C18.5398 2.25949 18.4816 2.39672 18.4799 2.54041V2.92393H19.78V2.54041C19.7792 2.46701 19.7636 2.39452 19.7341 2.32728C19.7047 2.26004 19.662 2.19942 19.6086 2.14906C19.5552 2.09869 19.4922 2.05961 19.4234 2.03415C19.3545 2.00868 19.2812 1.99737 19.2079 2.00087Z" fill="#19334D"/>
<path d="M21.3921 2.00087H21.21C21.0663 2.00085 20.9284 2.05749 20.8262 2.15849C20.724 2.25949 20.6657 2.39672 20.664 2.54041V2.92393H21.9641V2.54041C21.9633 2.46701 21.9477 2.39452 21.9183 2.32728C21.8889 2.26004 21.8462 2.19942 21.7928 2.14906C21.7394 2.09869 21.6763 2.05961 21.6075 2.03415C21.5386 2.00868 21.4654 1.99737 21.3921 2.00087Z" fill="#19334D"/>
<path d="M23.5762 2.00108H23.3877C23.244 2.00107 23.1061 2.05771 23.0039 2.15871C22.9017 2.25971 22.8434 2.39693 22.8417 2.54062V2.92415H24.1418V2.54062C24.141 2.46779 24.1256 2.39586 24.0965 2.32907C24.0675 2.26228 24.0254 2.20196 23.9727 2.15169C23.92 2.10141 23.8578 2.06219 23.7897 2.03632C23.7216 2.01046 23.649 1.99848 23.5762 2.00108Z" fill="#19334D"/>
<path d="M25.7603 2.00087H25.5783C25.4346 2.00085 25.2967 2.05749 25.1945 2.15849C25.0923 2.25949 25.034 2.39672 25.0323 2.54041V2.92393H26.3324V2.54041C26.3316 2.46701 26.316 2.39452 26.2866 2.32728C26.2571 2.26004 26.2144 2.19942 26.161 2.14906C26.1076 2.09869 26.0446 2.05961 25.9758 2.03415C25.9069 2.00868 25.8337 1.99737 25.7603 2.00087Z" fill="#19334D"/>
<path d="M27.938 2.00098H27.7495C27.6064 2.00098 27.4692 2.05782 27.368 2.15901C27.2668 2.26019 27.21 2.39742 27.21 2.54052V2.92405H28.5101V2.54052C28.5102 2.46685 28.4952 2.39393 28.4661 2.32626C28.437 2.25858 28.3943 2.19759 28.3407 2.14704C28.2871 2.09649 28.2237 2.05745 28.1545 2.03233C28.0852 2.00721 28.0116 1.99654 27.938 2.00098Z" fill="#19334D"/>
<path d="M30.1352 2.00098H29.9466C29.8035 2.00098 29.6663 2.05782 29.5651 2.159C29.4639 2.26019 29.4071 2.39742 29.4071 2.54052V2.92405H30.6747V2.54052C30.6747 2.39742 30.6178 2.26019 30.5167 2.159C30.4155 2.05782 30.2783 2.00098 30.1352 2.00098Z" fill="#19334D"/>
<path d="M32.3194 2.00098H32.1309C31.9878 2.00098 31.8505 2.05782 31.7493 2.159C31.6482 2.26019 31.5913 2.39742 31.5913 2.54052V2.92405H32.8589V2.54052C32.8589 2.39742 32.8021 2.26019 32.7009 2.159C32.5997 2.05782 32.4625 2.00098 32.3194 2.00098Z" fill="#19334D"/>
<path d="M34.5036 2.00098H34.315C34.1719 2.00098 34.0347 2.05782 33.9335 2.159C33.8324 2.26019 33.7755 2.39742 33.7755 2.54052V2.92405H35.0431V2.54052C35.0431 2.39742 34.9863 2.26019 34.8851 2.159C34.7839 2.05782 34.6467 2.00098 34.5036 2.00098Z" fill="#19334D"/>
<path d="M36.6877 2.00098H36.4992C36.3561 2.00098 36.2189 2.05782 36.1177 2.15901C36.0165 2.26019 35.9597 2.39742 35.9597 2.54052V2.92405H37.2598V2.54052C37.2599 2.46685 37.2449 2.39393 37.2158 2.32626C37.1867 2.25858 37.144 2.19759 37.0904 2.14704C37.0368 2.09649 36.9734 2.05745 36.9042 2.03233C36.8349 2.00721 36.7612 1.99654 36.6877 2.00098Z" fill="#19334D"/>
<path d="M38.8719 2.00102H38.6899C38.6185 2.00016 38.5476 2.01348 38.4814 2.04021C38.4152 2.06693 38.355 2.10654 38.3042 2.15673C38.2534 2.20691 38.2131 2.26668 38.1855 2.33257C38.158 2.39846 38.1439 2.46915 38.1439 2.54056V2.92408H39.4114V2.54056C39.4114 2.4697 39.3975 2.39954 39.3704 2.33408C39.3433 2.26862 39.3035 2.20914 39.2534 2.15904C39.2033 2.10894 39.1438 2.0692 39.0784 2.04209C39.0129 2.01497 38.9428 2.00102 38.8719 2.00102Z" fill="#19334D"/>
<path d="M41.0561 2.00087H40.874C40.7303 2.00085 40.5924 2.05749 40.4902 2.15849C40.388 2.25949 40.3297 2.39672 40.328 2.54041V2.92393H41.6281V2.54041C41.6273 2.46701 41.6117 2.39452 41.5823 2.32728C41.5529 2.26004 41.5102 2.19942 41.4568 2.14906C41.4034 2.09869 41.3403 2.05961 41.2715 2.03415C41.2026 2.00868 41.1294 1.99737 41.0561 2.00087Z" fill="#19334D"/>
<path d="M43.2402 2.00087H43.0582C42.9145 2.00085 42.7766 2.05749 42.6743 2.15849C42.5721 2.25949 42.5139 2.39672 42.5121 2.54041V2.92393H43.8122V2.54041C43.8115 2.46701 43.7959 2.39452 43.7664 2.32728C43.737 2.26004 43.6943 2.19942 43.6409 2.14906C43.5875 2.09869 43.5245 2.05961 43.4556 2.03415C43.3868 2.00868 43.3135 1.99737 43.2402 2.00087Z" fill="#19334D"/>
<path d="M5.38779 14.2089C5.2151 14.2048 5.04903 14.1416 4.91737 14.0298C4.78571 13.918 4.69643 13.7643 4.66446 13.5946C4.63248 13.4248 4.65978 13.2492 4.74174 13.0972C4.82371 12.9451 4.9554 12.8258 5.11478 12.7592C8.78756 11.3096 16.7832 10.4451 22.3931 10.4451C22.5802 10.4625 22.754 10.5491 22.8805 10.688C23.0071 10.8269 23.0772 11.008 23.0772 11.1959C23.0772 11.3838 23.0071 11.5649 22.8805 11.7037C22.754 11.8426 22.5802 11.9293 22.3931 11.9467C17.0432 11.9467 9.12557 12.7917 5.6673 14.1569C5.5777 14.1897 5.48322 14.2073 5.38779 14.2089Z" fill="#0A7992"/>
<path d="M39.3984 14.2089C39.303 14.2073 39.2085 14.1897 39.1189 14.1569C35.6606 12.7917 27.743 11.9467 22.3931 11.9467C22.206 11.9293 22.0322 11.8426 21.9057 11.7037C21.7791 11.5649 21.709 11.3838 21.709 11.1959C21.709 11.008 21.7791 10.8269 21.9057 10.688C22.0322 10.5491 22.206 10.4625 22.3931 10.4451C28.003 10.4451 35.9986 11.3096 39.6714 12.7592C39.8308 12.8258 39.9625 12.9451 40.0445 13.0972C40.1264 13.2492 40.1537 13.4248 40.1217 13.5946C40.0898 13.7643 40.0005 13.918 39.8688 14.0298C39.7372 14.1416 39.5711 14.2048 39.3984 14.2089Z" fill="#0A7992"/>
</g>
<defs>
<filter id="filter0_d_30_4092" x="0" y="0" width="50.8123" height="67.4417" filterUnits="userSpaceOnUse" color-interpolation-filters="sRGB">
<feFlood flood-opacity="0" result="BackgroundImageFix"/>
<feColorMatrix in="SourceAlpha" type="matrix" values="0 0 0 0 0 0 0 0 0 0 0 0 0 0 0 0 0 0 127 0" result="hardAlpha"/>
<feOffset dx="3" dy="2"/>
<feGaussianBlur stdDeviation="2"/>
<feComposite in2="hardAlpha" operator="out"/>
<feColorMatrix type="matrix" values="0 0 0 0 0 0 0 0 0 0 0 0 0 0 0 0 0 0 0.25 0"/>
<feBlend mode="normal" in2="BackgroundImageFix" result="effect1_dropShadow_30_4092"/>
<feBlend mode="normal" in="SourceGraphic" in2="effect1_dropShadow_30_4092" result="shape"/>
</filter>
</defs>
</svg>
