<svg width="51" height="68" viewBox="0 0 51 68" fill="none" xmlns="http://www.w3.org/2000/svg">
<g filter="url(#filter0_d_30_3950)">
<path d="M15.1711 18.3367H7.23401V61.2984H15.1711V18.3367Z" fill="#004358"/>
<path d="M12.5904 19.5914H9.8082L9.48317 18.4863H7.23401V18.1873H9.70421L10.0292 19.2923H12.3694L12.7009 18.1873H15.1711V18.4863H12.9219L12.5904 19.5914Z" fill="#003242"/>
<path d="M12.5904 20.9825H9.8082L9.48317 19.8774H7.23401V19.5784H9.70421L10.0292 20.69H12.3694L12.7009 19.5784H15.1711V19.8774H12.9219L12.5904 20.9825Z" fill="#003242"/>
<path d="M12.5904 22.3799H9.8082L9.48317 21.2749H7.23401V20.9758H9.70421L10.0292 22.0809H12.3694L12.7009 20.9758H15.1711V21.2749H12.9219L12.5904 22.3799Z" fill="#003242"/>
<path d="M12.5904 23.7776H9.8082L9.48317 22.6726H7.23401V22.3735H9.70421L10.0292 23.4786H12.3694L12.7009 22.3735H15.1711V22.6726H12.9219L12.5904 23.7776Z" fill="#003242"/>
<path d="M12.5904 25.1688H9.8082L9.48317 24.0637H7.23401V23.7646H9.70421L10.0292 24.8697H12.3694L12.7009 23.7646H15.1711V24.0637H12.9219L12.5904 25.1688Z" fill="#003242"/>
<path d="M12.5904 26.5665H9.8082L9.48317 25.4614H7.23401V25.1624H9.70421L10.0292 26.2674H12.3694L12.7009 25.1624H15.1711V25.4614H12.9219L12.5904 26.5665Z" fill="#003242"/>
<path d="M12.5904 27.9574H9.8082L9.48317 26.8523H7.23401V26.5598H9.70421L10.0292 27.6649H12.3694L12.7009 26.5598H15.1711V26.8523H12.9219L12.5904 27.9574Z" fill="#003242"/>
<path d="M12.5904 29.355H9.8082L9.48317 28.2499H7.23401V27.9509H9.70421L10.0292 29.056H12.3694L12.7009 27.9509H15.1711V28.2499H12.9219L12.5904 29.355Z" fill="#003242"/>
<path d="M12.5904 30.7527H9.8082L9.48317 29.6477H7.23401V29.3486H9.70421L10.0292 30.4537H12.3694L12.7009 29.3486H15.1711V29.6477H12.9219L12.5904 30.7527Z" fill="#003242"/>
<path d="M12.5904 32.1439H9.8082L9.48317 31.0388H7.23401V30.7397H9.70421L10.0292 31.8448H12.3694L12.7009 30.7397H15.1711V31.0388H12.9219L12.5904 32.1439Z" fill="#003242"/>
<path d="M12.5904 33.5413H9.8082L9.48317 32.4362H7.23401V32.1372H9.70421L10.0292 33.2423H12.3694L12.7009 32.1372H15.1711V32.4362H12.9219L12.5904 33.5413Z" fill="#003242"/>
<path d="M12.5904 34.939H9.8082L9.48317 33.8339H7.23401V33.5349H9.70421L10.0292 34.64H12.3694L12.7009 33.5349H15.1711V33.8339H12.9219L12.5904 34.939Z" fill="#003242"/>
<path d="M12.5904 36.3301H9.8082L9.48317 35.225H7.23401V34.926H9.70421L10.0292 36.0311H12.3694L12.7009 34.926H15.1711V35.225H12.9219L12.5904 36.3301Z" fill="#003242"/>
<path d="M12.5904 37.7276H9.8082L9.48317 36.6225H7.23401V36.3235H9.70421L10.0292 37.4286H12.3694L12.7009 36.3235H15.1711V36.6225H12.9219L12.5904 37.7276Z" fill="#003242"/>
<path d="M12.5904 39.1188H9.8082L9.48317 38.0137H7.23401V37.7212H9.70421L10.0292 38.8263H12.3694L12.7009 37.7212H15.1711V38.0137H12.9219L12.5904 39.1188Z" fill="#003242"/>
<path d="M12.5904 40.5164H9.8082L9.48317 39.4113H7.23401V39.1123H9.70421L10.0292 40.2174H12.3694L12.7009 39.1123H15.1711V39.4113H12.9219L12.5904 40.5164Z" fill="#003242"/>
<path d="M12.5904 41.9141H9.8082L9.48317 40.809H7.23401V40.51H9.70421L10.0292 41.6151H12.3694L12.7009 40.51H15.1711V40.809H12.9219L12.5904 41.9141Z" fill="#003242"/>
<path d="M12.5904 43.3051H9.8082L9.48317 42.2H7.23401V41.9075H9.70421L10.0292 43.0126H12.3694L12.7009 41.9075H15.1711V42.2H12.9219L12.5904 43.3051Z" fill="#003242"/>
<path d="M12.5904 44.7027H9.8082L9.48317 43.5976H7.23401V43.2986H9.70421L10.0292 44.4037H12.3694L12.7009 43.2986H15.1711V43.5976H12.9219L12.5904 44.7027Z" fill="#003242"/>
<path d="M12.5904 46.1004H9.8082L9.48317 44.9953H7.23401V44.6963H9.70421L10.0292 45.8014H12.3694L12.7009 44.6963H15.1711V44.9953H12.9219L12.5904 46.1004Z" fill="#003242"/>
<path d="M12.5904 47.4915H9.8082L9.48317 46.3864H7.23401V46.0874H9.70421L10.0292 47.1925H12.3694L12.7009 46.0874H15.1711V46.3864H12.9219L12.5904 47.4915Z" fill="#003242"/>
<path d="M12.5904 48.889H9.8082L9.48317 47.7839H7.23401V47.4849H9.70421L10.0292 48.59H12.3694L12.7009 47.4849H15.1711V47.7839H12.9219L12.5904 48.889Z" fill="#003242"/>
<path d="M12.5904 50.2802H9.8082L9.48317 49.1751H7.23401V48.8826H9.70421L10.0292 49.9877H12.3694L12.7009 48.8826H15.1711V49.1751H12.9219L12.5904 50.2802Z" fill="#003242"/>
<path d="M12.5904 51.6778H9.8082L9.48317 50.5727H7.23401V50.2737H9.70421L10.0292 51.3788H12.3694L12.7009 50.2737H15.1711V50.5727H12.9219L12.5904 51.6778Z" fill="#003242"/>
<path d="M12.5904 53.0752H9.8082L9.48317 51.9702H7.23401V51.6711H9.70421L10.0292 52.7762H12.3694L12.7009 51.6711H15.1711V51.9702H12.9219L12.5904 53.0752Z" fill="#003242"/>
<path d="M12.5904 54.4665H9.8082L9.48317 53.3614H7.23401V53.0688H9.70421L10.0292 54.1674H12.3694L12.7009 53.0688H15.1711V53.3614H12.9219L12.5904 54.4665Z" fill="#003242"/>
<path d="M12.5904 55.8641H9.8082L9.48317 54.759H7.23401V54.46H9.70421L10.0292 55.565H12.3694L12.7009 54.46H15.1711V54.759H12.9219L12.5904 55.8641Z" fill="#003242"/>
<path d="M12.5904 57.2618H9.8082L9.48317 56.1567H7.23401V55.8577H9.70421L10.0292 56.9627H12.3694L12.7009 55.8577H15.1711V56.1567H12.9219L12.5904 57.2618Z" fill="#003242"/>
<path d="M12.5904 58.6529H9.8082L9.48317 57.5478H7.23401V57.2488H9.70421L10.0292 58.3539H12.3694L12.7009 57.2488H15.1711V57.5478H12.9219L12.5904 58.6529Z" fill="#003242"/>
<path d="M12.5904 60.0503H9.8082L9.48317 58.9453H7.23401V58.6462H9.70421L10.0292 59.7513H12.3694L12.7009 58.6462H15.1711V58.9453H12.9219L12.5904 60.0503Z" fill="#003242"/>
<path d="M12.5904 61.4416H9.8082L9.48317 60.343H7.23401V60.0439H9.70421L10.0292 61.149H12.3694L12.7009 60.0439H15.1711V60.343H12.9219L12.5904 61.4416Z" fill="#003242"/>
<path d="M37.5522 18.3367H29.6151V61.2984H37.5522V18.3367Z" fill="#004358"/>
<path d="M34.978 19.5914H32.1958L31.8643 18.4863H29.6151V18.1873H32.0918L32.4168 19.2923H34.757L35.082 18.1873H37.5587V18.4863H35.303L34.978 19.5914Z" fill="#003242"/>
<path d="M34.978 20.9825H32.1958L31.8643 19.8774H29.6151V19.5784H32.0918L32.4168 20.69H34.757L35.082 19.5784H37.5587V19.8774H35.303L34.978 20.9825Z" fill="#003242"/>
<path d="M34.978 22.3799H32.1958L31.8643 21.2749H29.6151V20.9758H32.0918L32.4168 22.0809H34.757L35.082 20.9758H37.5587V21.2749H35.303L34.978 22.3799Z" fill="#003242"/>
<path d="M34.978 23.7776H32.1958L31.8643 22.6726H29.6151V22.3735H32.0918L32.4168 23.4786H34.757L35.082 22.3735H37.5587V22.6726H35.303L34.978 23.7776Z" fill="#003242"/>
<path d="M34.978 25.1688H32.1958L31.8643 24.0637H29.6151V23.7646H32.0918L32.4168 24.8697H34.757L35.082 23.7646H37.5587V24.0637H35.303L34.978 25.1688Z" fill="#003242"/>
<path d="M34.978 26.5665H32.1958L31.8643 25.4614H29.6151V25.1624H32.0918L32.4168 26.2674H34.757L35.082 25.1624H37.5587V25.4614H35.303L34.978 26.5665Z" fill="#003242"/>
<path d="M34.978 27.9574H32.1958L31.8643 26.8523H29.6151V26.5598H32.0918L32.4168 27.6649H34.757L35.082 26.5598H37.5587V26.8523H35.303L34.978 27.9574Z" fill="#003242"/>
<path d="M34.978 29.355H32.1958L31.8643 28.2499H29.6151V27.9509H32.0918L32.4168 29.056H34.757L35.082 27.9509H37.5587V28.2499H35.303L34.978 29.355Z" fill="#003242"/>
<path d="M34.978 30.7527H32.1958L31.8643 29.6477H29.6151V29.3486H32.0918L32.4168 30.4537H34.757L35.082 29.3486H37.5587V29.6477H35.303L34.978 30.7527Z" fill="#003242"/>
<path d="M34.978 32.1439H32.1958L31.8643 31.0388H29.6151V30.7397H32.0918L32.4168 31.8448H34.757L35.082 30.7397H37.5587V31.0388H35.303L34.978 32.1439Z" fill="#003242"/>
<path d="M34.978 33.5413H32.1958L31.8643 32.4362H29.6151V32.1372H32.0918L32.4168 33.2423H34.757L35.082 32.1372H37.5587V32.4362H35.303L34.978 33.5413Z" fill="#003242"/>
<path d="M34.978 34.939H32.1958L31.8643 33.8339H29.6151V33.5349H32.0918L32.4168 34.64H34.757L35.082 33.5349H37.5587V33.8339H35.303L34.978 34.939Z" fill="#003242"/>
<path d="M34.978 36.3301H32.1958L31.8643 35.225H29.6151V34.926H32.0918L32.4168 36.0311H34.757L35.082 34.926H37.5587V35.225H35.303L34.978 36.3301Z" fill="#003242"/>
<path d="M34.978 37.7276H32.1958L31.8643 36.6225H29.6151V36.3235H32.0918L32.4168 37.4286H34.757L35.082 36.3235H37.5587V36.6225H35.303L34.978 37.7276Z" fill="#003242"/>
<path d="M34.978 39.1188H32.1958L31.8643 38.0137H29.6151V37.7212H32.0918L32.4168 38.8263H34.757L35.082 37.7212H37.5587V38.0137H35.303L34.978 39.1188Z" fill="#003242"/>
<path d="M34.978 40.5164H32.1958L31.8643 39.4113H29.6151V39.1123H32.0918L32.4168 40.2174H34.757L35.082 39.1123H37.5587V39.4113H35.303L34.978 40.5164Z" fill="#003242"/>
<path d="M34.978 41.9141H32.1958L31.8643 40.809H29.6151V40.51H32.0918L32.4168 41.6151H34.757L35.082 40.51H37.5587V40.809H35.303L34.978 41.9141Z" fill="#003242"/>
<path d="M34.978 43.3051H32.1958L31.8643 42.2H29.6151V41.9075H32.0918L32.4168 43.0126H34.757L35.082 41.9075H37.5587V42.2H35.303L34.978 43.3051Z" fill="#003242"/>
<path d="M34.978 44.7027H32.1958L31.8643 43.5976H29.6151V43.2986H32.0918L32.4168 44.4037H34.757L35.082 43.2986H37.5587V43.5976H35.303L34.978 44.7027Z" fill="#003242"/>
<path d="M34.978 46.1004H32.1958L31.8643 44.9953H29.6151V44.6963H32.0918L32.4168 45.8014H34.757L35.082 44.6963H37.5587V44.9953H35.303L34.978 46.1004Z" fill="#003242"/>
<path d="M34.978 47.4915H32.1958L31.8643 46.3864H29.6151V46.0874H32.0918L32.4168 47.1925H34.757L35.082 46.0874H37.5587V46.3864H35.303L34.978 47.4915Z" fill="#003242"/>
<path d="M34.978 48.889H32.1958L31.8643 47.7839H29.6151V47.4849H32.0918L32.4168 48.59H34.757L35.082 47.4849H37.5587V47.7839H35.303L34.978 48.889Z" fill="#003242"/>
<path d="M34.978 50.2802H32.1958L31.8643 49.1751H29.6151V48.8826H32.0918L32.4168 49.9877H34.757L35.082 48.8826H37.5587V49.1751H35.303L34.978 50.2802Z" fill="#003242"/>
<path d="M34.978 51.6778H32.1958L31.8643 50.5727H29.6151V50.2737H32.0918L32.4168 51.3788H34.757L35.082 50.2737H37.5587V50.5727H35.303L34.978 51.6778Z" fill="#003242"/>
<path d="M34.978 53.0752H32.1958L31.8643 51.9702H29.6151V51.6711H32.0918L32.4168 52.7762H34.757L35.082 51.6711H37.5587V51.9702H35.303L34.978 53.0752Z" fill="#003242"/>
<path d="M34.978 54.4665H32.1958L31.8643 53.3614H29.6151V53.0688H32.0918L32.4168 54.1674H34.757L35.082 53.0688H37.5587V53.3614H35.303L34.978 54.4665Z" fill="#003242"/>
<path d="M34.978 55.8641H32.1958L31.8643 54.759H29.6151V54.46H32.0918L32.4168 55.565H34.757L35.082 54.46H37.5587V54.759H35.303L34.978 55.8641Z" fill="#003242"/>
<path d="M34.978 57.2618H32.1958L31.8643 56.1567H29.6151V55.8577H32.0918L32.4168 56.9627H34.757L35.082 55.8577H37.5587V56.1567H35.303L34.978 57.2618Z" fill="#003242"/>
<path d="M34.978 58.6529H32.1958L31.8643 57.5478H29.6151V57.2488H32.0918L32.4168 58.3539H34.757L35.082 57.2488H37.5587V57.5478H35.303L34.978 58.6529Z" fill="#003242"/>
<path d="M34.978 60.0503H32.1958L31.8643 58.9453H29.6151V58.6462H32.0918L32.4168 59.7513H34.757L35.082 58.6462H37.5587V58.9453H35.303L34.978 60.0503Z" fill="#003242"/>
<path d="M34.978 61.4416H32.1958L31.8643 60.343H29.6151V60.0439H32.0918L32.4168 61.149H34.757L35.082 60.0439H37.5587V60.343H35.303L34.978 61.4416Z" fill="#003242"/>
<g style="mix-blend-mode:multiply" opacity="0.5">
<path d="M37.5522 20.5339V19.8774H37.5587V19.5784H37.5522V18.4863H37.5587V18.1873H35.082L35.043 18.3368H32.1308L32.0918 18.1873H29.6151V18.3368V20.5339H37.5522Z" fill="#003242"/>
</g>
<g style="mix-blend-mode:multiply" opacity="0.5">
<path d="M37.5522 59.1143H29.6151V61.2919H32.1503L32.1958 61.4414H34.978L35.0235 61.2919H37.5522V60.3429H37.5587V60.0438H37.5522V59.1143Z" fill="#003242"/>
</g>
<g style="mix-blend-mode:multiply" opacity="0.5">
<path d="M7.2339 20.5339V19.8774H7.22742V19.5784H7.2339V18.4863H7.22742V18.1873H9.7041L9.74311 18.3368H12.6553L12.6943 18.1873H15.171V18.3368V20.5339H7.2339Z" fill="#003242"/>
</g>
<g style="mix-blend-mode:multiply" opacity="0.5">
<path d="M7.2339 59.1143H15.171V61.2919H12.6358L12.5903 61.4414H9.80809L9.76261 61.2919H7.2339V60.3429H7.22742V60.0438H7.2339V59.1143Z" fill="#003242"/>
</g>
<path d="M32.3193 25.4028H12.4668C11.7667 25.4028 11.1992 25.9689 11.1992 26.6672C11.1992 27.3655 11.7667 27.9315 12.4668 27.9315H32.3193C33.0194 27.9315 33.5869 27.3655 33.5869 26.6672C33.5869 25.9689 33.0194 25.4028 32.3193 25.4028Z" fill="#FFE11A"/>
<path d="M31.0193 16.6335H13.767V37.2986H31.0193V16.6335Z" fill="#04B54C"/>
<path d="M29.8231 35.8491L29.3941 19.7344L26.8459 18.1873H22.3931H17.9402L15.392 19.7344L14.963 35.8491H29.8231Z" fill="#278F51"/>
<path d="M26.3974 35.8491L26.1699 26.3194L24.7918 25.4028H22.3931H19.9944L18.6163 26.3194L18.3888 35.8491H26.3974Z" fill="#04B54C"/>
<path d="M15.2166 35.8555L14.7161 35.8425L15.1451 19.5977L17.8753 17.9336H26.911L29.6412 19.5977L29.6477 19.7277L30.0702 35.8425L29.5697 35.8555L29.1472 19.8772L26.7745 18.4341H18.0118L15.6391 19.8772L15.2166 35.8555Z" fill="#15512D"/>
<path d="M33.392 56.5595H11.3943V36.2455C18.5232 33.8013 26.2631 33.8013 33.392 36.2455V56.5595Z" fill="#04B54C"/>
<path d="M18.2588 15.314C18.2718 15.5025 18.2458 15.6916 18.1826 15.8697C18.1194 16.0477 18.0202 16.2109 17.8913 16.349C17.7624 16.4871 17.6064 16.5972 17.4331 16.6725C17.2598 16.7478 17.0729 16.7867 16.884 16.7867C16.695 16.7867 16.5081 16.7478 16.3348 16.6725C16.1615 16.5972 16.0055 16.4871 15.8766 16.349C15.7477 16.2109 15.6485 16.0477 15.5853 15.8697C15.5221 15.6916 15.4961 15.5025 15.5091 15.314H18.2588Z" fill="#FFE11A"/>
<path d="M17.6087 15.314C17.5973 15.5719 17.4914 15.8166 17.3114 16.0017C17.1313 16.1867 16.8895 16.2991 16.632 16.3175C16.3745 16.336 16.1191 16.2592 15.9145 16.1017C15.7099 15.9443 15.5702 15.7171 15.5221 15.4635C15.5562 15.8156 15.7251 16.141 15.9934 16.3715C16.2618 16.6021 16.6089 16.7201 16.9621 16.7008C17.3154 16.6815 17.6476 16.5264 17.8892 16.268C18.1308 16.0095 18.2632 15.6677 18.2588 15.314H17.6087Z" fill="#FFBA1A"/>
<path d="M17.9403 15.3139C17.9403 15.0279 17.4723 14.7874 16.8872 14.7874C16.3022 14.7874 15.8276 15.0279 15.8276 15.3139H17.9403Z" fill="#FFF4B3"/>
<path d="M29.7582 15.314C29.7712 15.5025 29.7452 15.6916 29.682 15.8697C29.6188 16.0477 29.5196 16.2109 29.3907 16.349C29.2618 16.4871 29.1058 16.5972 28.9325 16.6725C28.7592 16.7478 28.5723 16.7867 28.3833 16.7867C28.1944 16.7867 28.0075 16.7478 27.8342 16.6725C27.6609 16.5972 27.5049 16.4871 27.376 16.349C27.2471 16.2109 27.1479 16.0477 27.0847 15.8697C27.0215 15.6916 26.9955 15.5025 27.0085 15.314H29.7582Z" fill="#FFE11A"/>
<path d="M29.1081 15.314C29.1065 15.4497 29.0778 15.5837 29.0237 15.7082C28.9696 15.8326 28.8913 15.9451 28.7932 16.0389C28.6951 16.1327 28.5793 16.206 28.4526 16.2546C28.3259 16.3031 28.1907 16.3259 28.0551 16.3215C27.8074 16.3307 27.5651 16.2482 27.3744 16.0899C27.1837 15.9316 27.0581 15.7086 27.0215 15.4635C27.0556 15.8156 27.2245 16.141 27.4928 16.3715C27.7612 16.6021 28.1082 16.7201 28.4615 16.7008C28.8148 16.6815 29.147 16.5264 29.3886 16.268C29.6302 16.0095 29.7626 15.6677 29.7582 15.314H29.1081Z" fill="#FFBA1A"/>
<path d="M29.4397 15.3139C29.4397 15.0279 28.9651 14.7874 28.3801 14.7874C27.7951 14.7874 27.327 15.0279 27.327 15.3139H29.4397Z" fill="#FFF4B3"/>
<path d="M23.1277 23.5632H25.8449C25.9043 23.5632 25.9632 23.575 26.018 23.598C26.0729 23.6209 26.1226 23.6546 26.1644 23.6969C26.2061 23.7392 26.239 23.7895 26.2611 23.8446C26.2833 23.8998 26.2943 23.9588 26.2934 24.0183C26.2934 24.1372 26.2461 24.2513 26.162 24.3354C26.0779 24.4195 25.9638 24.4668 25.8449 24.4668H23.1277C23.0087 24.4668 22.8946 24.4195 22.8105 24.3354C22.7264 24.2513 22.6791 24.1372 22.6791 24.0183C22.6783 23.9588 22.6892 23.8998 22.7114 23.8446C22.7335 23.7895 22.7664 23.7392 22.8082 23.6969C22.8499 23.6546 22.8996 23.6209 22.9545 23.598C23.0093 23.575 23.0682 23.5632 23.1277 23.5632Z" fill="#004358"/>
<path d="M18.9414 23.5632H21.6586C21.718 23.5632 21.7769 23.575 21.8317 23.598C21.8866 23.6209 21.9363 23.6546 21.9781 23.6969C22.0198 23.7392 22.0527 23.7895 22.0749 23.8446C22.097 23.8998 22.108 23.9588 22.1071 24.0183C22.1071 24.1372 22.0599 24.2513 21.9758 24.3354C21.8916 24.4195 21.7775 24.4668 21.6586 24.4668H18.9414C18.8224 24.4668 18.7083 24.4195 18.6242 24.3354C18.5401 24.2513 18.4928 24.1372 18.4928 24.0183C18.492 23.9588 18.5029 23.8998 18.5251 23.8446C18.5473 23.7895 18.5802 23.7392 18.6219 23.6969C18.6636 23.6546 18.7134 23.6209 18.7682 23.598C18.8231 23.575 18.8819 23.5632 18.9414 23.5632Z" fill="#004358"/>
<path d="M23.1277 21.9055H25.8449C25.9638 21.9055 26.0779 21.9528 26.162 22.0369C26.2461 22.121 26.2934 22.2351 26.2934 22.3541C26.2943 22.4135 26.2833 22.4725 26.2611 22.5277C26.239 22.5829 26.2061 22.6331 26.1644 22.6754C26.1226 22.7178 26.0729 22.7514 26.018 22.7743C25.9632 22.7973 25.9043 22.8091 25.8449 22.8091H23.1277C23.0682 22.8091 23.0093 22.7973 22.9545 22.7743C22.8996 22.7514 22.8499 22.7178 22.8082 22.6754C22.7664 22.6331 22.7335 22.5829 22.7114 22.5277C22.6892 22.4725 22.6783 22.4135 22.6791 22.3541C22.6791 22.2351 22.7264 22.121 22.8105 22.0369C22.8946 21.9528 23.0087 21.9055 23.1277 21.9055Z" fill="#004358"/>
<path d="M18.9414 21.9055H21.6586C21.7775 21.9055 21.8916 21.9528 21.9758 22.0369C22.0599 22.121 22.1071 22.2351 22.1071 22.3541C22.108 22.4135 22.097 22.4725 22.0749 22.5277C22.0527 22.5829 22.0198 22.6331 21.9781 22.6754C21.9363 22.7178 21.8866 22.7514 21.8317 22.7743C21.7769 22.7973 21.718 22.8091 21.6586 22.8091H18.9414C18.8819 22.8091 18.8231 22.7973 18.7682 22.7743C18.7134 22.7514 18.6636 22.7178 18.6219 22.6754C18.5802 22.6331 18.5473 22.5829 18.5251 22.5277C18.5029 22.4725 18.492 22.4135 18.4928 22.3541C18.4928 22.2351 18.5401 22.121 18.6242 22.0369C18.7083 21.9528 18.8224 21.9055 18.9414 21.9055Z" fill="#004358"/>
<path d="M23.1277 20.2415H25.8449C25.9043 20.2414 25.9632 20.2533 26.018 20.2762C26.0729 20.2992 26.1226 20.3328 26.1644 20.3751C26.2061 20.4175 26.239 20.4677 26.2611 20.5228C26.2833 20.578 26.2943 20.637 26.2934 20.6965C26.2934 20.8154 26.2461 20.9295 26.162 21.0137C26.0779 21.0978 25.9638 21.145 25.8449 21.145H23.1277C23.0087 21.145 22.8946 21.0978 22.8105 21.0137C22.7264 20.9295 22.6791 20.8154 22.6791 20.6965C22.6783 20.637 22.6892 20.578 22.7114 20.5228C22.7335 20.4677 22.7664 20.4175 22.8082 20.3751C22.8499 20.3328 22.8996 20.2992 22.9545 20.2762C23.0093 20.2533 23.0682 20.2414 23.1277 20.2415Z" fill="#004358"/>
<path d="M18.9414 20.2415H21.6586C21.718 20.2414 21.7769 20.2533 21.8317 20.2762C21.8866 20.2992 21.9363 20.3328 21.9781 20.3751C22.0198 20.4175 22.0527 20.4677 22.0749 20.5228C22.097 20.578 22.108 20.637 22.1071 20.6965C22.1071 20.8154 22.0599 20.9295 21.9758 21.0137C21.8916 21.0978 21.7775 21.145 21.6586 21.145H18.9414C18.8224 21.145 18.7083 21.0978 18.6242 21.0137C18.5401 20.9295 18.4928 20.8154 18.4928 20.6965C18.492 20.637 18.5029 20.578 18.5251 20.5228C18.5473 20.4677 18.5802 20.4175 18.6219 20.3751C18.6636 20.3328 18.7134 20.2992 18.7682 20.2762C18.8231 20.2533 18.8819 20.2414 18.9414 20.2415Z" fill="#004358"/>
<g style="mix-blend-mode:multiply" opacity="0.3">
<path d="M20.7875 52.7503C20.5872 52.5496 20.3412 52.4004 20.0707 52.3154C19.8001 52.2305 19.513 52.2125 19.2339 52.2627L17.0822 50.1111L15.6716 51.5217L17.8233 53.6734C17.7681 53.9707 17.7906 54.2773 17.8888 54.5633C17.9869 54.8494 18.1573 55.1052 18.3834 55.3061C18.6095 55.5069 18.8837 55.6459 19.1793 55.7096C19.4749 55.7733 19.782 55.7595 20.0708 55.6696C20.3595 55.5797 20.6201 55.4167 20.8273 55.1964C21.0345 54.9761 21.1813 54.706 21.2534 54.4123C21.3255 54.1186 21.3205 53.8113 21.2389 53.5201C21.1573 53.2289 21.0018 52.9637 20.7875 52.7503Z" fill="#583200"/>
</g>
<path d="M16.3866 52.6334C17.3883 52.6334 18.2003 51.8214 18.2003 50.8197C18.2003 49.8181 17.3883 49.0061 16.3866 49.0061C15.385 49.0061 14.573 49.8181 14.573 50.8197C14.573 51.8214 15.385 52.6334 16.3866 52.6334Z" fill="#004358"/>
<path d="M16.3867 51.8144C16.936 51.8144 17.3812 51.3691 17.3812 50.8198C17.3812 50.2705 16.936 49.8252 16.3867 49.8252C15.8374 49.8252 15.3921 50.2705 15.3921 50.8198C15.3921 51.3691 15.8374 51.8144 16.3867 51.8144Z" fill="#668E9B"/>
<path d="M29.4331 50.8197C29.4318 51.0161 29.3724 51.2078 29.2623 51.3705C29.1523 51.5332 28.9965 51.6596 28.8146 51.7339C28.6328 51.8082 28.433 51.827 28.2405 51.7878C28.048 51.7487 27.8714 51.6535 27.733 51.5142C27.5945 51.3748 27.5005 51.1976 27.4626 51.0048C27.4248 50.8121 27.4448 50.6124 27.5203 50.4311C27.5958 50.2497 27.7232 50.0948 27.8866 49.9858C28.0501 49.8768 28.2421 49.8186 28.4385 49.8186C28.5697 49.8186 28.6995 49.8445 28.8206 49.8949C28.9417 49.9453 29.0517 50.0192 29.1441 50.1122C29.2366 50.2052 29.3097 50.3157 29.3593 50.4371C29.4089 50.5585 29.4339 50.6885 29.4331 50.8197Z" fill="#668E9B"/>
<g style="mix-blend-mode:multiply" opacity="0.3">
<path d="M30.3563 34.3994C30.2287 34.3994 30.1064 34.3487 30.0161 34.2585C29.9259 34.1682 29.8753 34.0459 29.8753 33.9183V32.3582L26.5795 29.0689C26.5009 28.9789 26.4575 28.8635 26.4575 28.7439C26.4575 28.6244 26.5009 28.5089 26.5795 28.4189C26.6682 28.3376 26.7842 28.2925 26.9045 28.2925C27.0249 28.2925 27.1408 28.3376 27.2296 28.4189L30.8048 31.9942V33.9443C30.7987 34.0619 30.7497 34.1732 30.667 34.2571C30.5843 34.3409 30.4738 34.3916 30.3563 34.3994Z" fill="#583200"/>
</g>
<path d="M27.444 31.8839H26.3975V28.7766C26.3975 28.6387 26.4523 28.5064 26.5498 28.4089C26.6473 28.3114 26.7796 28.2566 26.9175 28.2566C27.0554 28.2566 27.1877 28.3114 27.2852 28.4089C27.3828 28.5064 27.4375 28.6387 27.4375 28.7766L27.444 31.8839Z" fill="#004358"/>
<path d="M26.3975 30.0245V31.8837H27.444V30.0245C27.444 29.9487 27.4139 29.8759 27.3603 29.8223C27.3066 29.7687 27.2339 29.7385 27.158 29.7385H26.6835C26.6076 29.7385 26.5349 29.7687 26.4812 29.8223C26.4276 29.8759 26.3975 29.9487 26.3975 30.0245Z" fill="#668E9B"/>
<path d="M16.8483 31.4937H15.9252V32.4167H16.8483V31.4937Z" fill="#004358"/>
<path d="M16.8483 33.2683H15.9252V34.1914H16.8483V33.2683Z" fill="#004358"/>
<path d="M28.8611 31.4937H27.938V32.4167H28.8611V31.4937Z" fill="#004358"/>
<path d="M28.8611 33.2683H27.938V34.1914H28.8611V33.2683Z" fill="#004358"/>
<path d="M16.4062 41.108C16.7113 41.108 16.9587 40.8606 16.9587 40.5555C16.9587 40.2503 16.7113 40.0029 16.4062 40.0029C16.101 40.0029 15.8536 40.2503 15.8536 40.5555C15.8536 40.8606 16.101 41.108 16.4062 41.108Z" fill="#004358"/>
<path d="M16.4062 44.2997C16.7113 44.2997 16.9587 44.0523 16.9587 43.7471C16.9587 43.442 16.7113 43.1946 16.4062 43.1946C16.101 43.1946 15.8536 43.442 15.8536 43.7471C15.8536 44.0523 16.101 44.2997 16.4062 44.2997Z" fill="#004358"/>
<path d="M32.6444 55.8054H12.1418V36.7654L12.3174 36.7069C18.8745 34.6335 25.9117 34.6335 32.4689 36.7069L32.6444 36.7654V55.8054ZM12.6424 55.3049H32.1439V37.149C25.7936 35.1727 18.9927 35.1727 12.6424 37.149V55.3049Z" fill="#278F51"/>
<path d="M18.5384 45.9508H15.2492C14.9894 45.9491 14.7407 45.8451 14.557 45.6614C14.3732 45.4777 14.2693 45.229 14.2676 44.9692V39.3268C14.2693 39.067 14.3732 38.8183 14.557 38.6346C14.7407 38.4509 14.9894 38.3469 15.2492 38.3452H18.5384C18.7982 38.3469 19.0469 38.4509 19.2306 38.6346C19.4143 38.8183 19.5183 39.067 19.52 39.3268V44.9692C19.5183 45.229 19.4143 45.4777 19.2306 45.6614C19.0469 45.8451 18.7982 45.9491 18.5384 45.9508ZM15.2492 38.8458C15.1216 38.8458 14.9992 38.8964 14.909 38.9866C14.8188 39.0769 14.7681 39.1992 14.7681 39.3268V44.9692C14.7681 45.0974 14.8186 45.2204 14.9086 45.3117C14.9986 45.4029 15.121 45.455 15.2492 45.4568H18.5384C18.6666 45.455 18.7889 45.4029 18.8789 45.3117C18.969 45.2204 19.0194 45.0974 19.0194 44.9692V39.3268C19.0194 39.1992 18.9688 39.0769 18.8785 38.9866C18.7883 38.8964 18.666 38.8458 18.5384 38.8458H15.2492Z" fill="#278F51"/>
<path d="M32.4169 47.4458H25.2664C25.2333 47.446 25.2005 47.4391 25.1702 47.4257C25.14 47.4122 25.1129 47.3925 25.0909 47.3678L23.8753 46.1587H20.911L19.6955 47.3678C19.6734 47.3925 19.6463 47.4122 19.6161 47.4257C19.5858 47.4391 19.553 47.446 19.5199 47.4458H12.3694V46.9453H19.4159L20.6315 45.7297C20.6786 45.6841 20.7415 45.6585 20.807 45.6582H23.9793C24.0448 45.6585 24.1077 45.6841 24.1548 45.7297L25.3704 46.9453H32.4169V47.4458Z" fill="#278F51"/>
<path d="M21.587 51.5347H23.1991C23.2698 51.5347 23.3376 51.5627 23.3876 51.6127C23.4376 51.6627 23.4657 51.7305 23.4657 51.8012C23.4665 51.8367 23.4603 51.8721 23.4473 51.9052C23.4343 51.9383 23.4148 51.9684 23.3899 51.9939C23.3651 52.0193 23.3354 52.0395 23.3027 52.0533C23.2699 52.0671 23.2347 52.0742 23.1991 52.0742H21.587C21.5515 52.0742 21.5163 52.0671 21.4835 52.0533C21.4508 52.0395 21.4211 52.0193 21.3962 51.9939C21.3714 51.9684 21.3519 51.9383 21.3389 51.9052C21.3259 51.8721 21.3196 51.8367 21.3205 51.8012C21.3205 51.7662 21.3274 51.7315 21.3408 51.6992C21.3542 51.6669 21.3738 51.6375 21.3986 51.6127C21.4233 51.588 21.4527 51.5684 21.485 51.555C21.5174 51.5416 21.552 51.5347 21.587 51.5347Z" fill="#004358"/>
<path d="M21.587 50.5466H23.1991C23.2347 50.5466 23.2699 50.5537 23.3027 50.5675C23.3354 50.5813 23.3651 50.6015 23.3899 50.627C23.4148 50.6524 23.4343 50.6826 23.4473 50.7157C23.4603 50.7488 23.4665 50.7841 23.4657 50.8197C23.4657 50.8903 23.4376 50.9581 23.3876 51.0081C23.3376 51.0581 23.2698 51.0862 23.1991 51.0862H21.587C21.552 51.0862 21.5174 51.0793 21.485 51.0659C21.4527 51.0525 21.4233 51.0329 21.3986 51.0081C21.3738 50.9834 21.3542 50.954 21.3408 50.9216C21.3274 50.8893 21.3205 50.8547 21.3205 50.8197C21.3196 50.7841 21.3259 50.7488 21.3389 50.7157C21.3519 50.6826 21.3714 50.6524 21.3962 50.627C21.4211 50.6015 21.4508 50.5813 21.4835 50.5675C21.5163 50.5537 21.5515 50.5466 21.587 50.5466Z" fill="#004358"/>
<path d="M21.5871 49.5652H23.1992C23.2699 49.5652 23.3377 49.5933 23.3876 49.6432C23.4376 49.6932 23.4657 49.761 23.4657 49.8317C23.4657 49.9024 23.4376 49.9702 23.3876 50.0202C23.3377 50.0701 23.2699 50.0982 23.1992 50.0982H21.5871C21.5521 50.0982 21.5174 50.0913 21.4851 50.0779C21.4527 50.0645 21.4234 50.0449 21.3986 50.0202C21.3739 49.9954 21.3542 49.966 21.3408 49.9337C21.3274 49.9014 21.3206 49.8667 21.3206 49.8317C21.3206 49.7967 21.3274 49.762 21.3408 49.7297C21.3542 49.6974 21.3739 49.668 21.3986 49.6432C21.4234 49.6185 21.4527 49.5989 21.4851 49.5855C21.5174 49.5721 21.5521 49.5652 21.5871 49.5652Z" fill="#004358"/>
<path d="M28.9001 42.512H27.9771V43.435H28.9001V42.512Z" fill="#004358"/>
<path d="M28.9001 44.2866H27.9771V45.2097H28.9001V44.2866Z" fill="#004358"/>
<path d="M43.5197 4.00317H1.27295V10.3152H43.5197V4.00317Z" fill="#19334D"/>
<path d="M43.5132 4.00324H1.27303L1 2.93066H43.7863L43.5132 4.00324Z" fill="#19334D"/>
<path d="M43.0518 3.46362H1.73462L2.43018 6.31084C2.472 6.54002 2.58954 6.74853 2.76399 6.90294C2.93844 7.05735 3.15967 7.14872 3.39224 7.1624H41.3941C41.6267 7.14872 41.8479 7.05735 42.0224 6.90294C42.1968 6.74853 42.3144 6.54002 42.3562 6.31084L43.0518 3.46362Z" fill="#0E1B29"/>
<path d="M12.9218 28.9975C12.8231 28.9984 12.7252 28.9797 12.6338 28.9425C12.5423 28.9053 12.4591 28.8504 12.389 28.7809C12.3189 28.7114 12.2633 28.6287 12.2253 28.5375C12.1873 28.4464 12.1678 28.3487 12.1678 28.25V24.0831L4.86123 16.7701C4.7905 16.702 4.73442 16.6201 4.69641 16.5296C4.65841 16.4391 4.63929 16.3417 4.64021 16.2435V10.2371C4.63048 10.1326 4.64265 10.0273 4.67596 9.92777C4.70927 9.82828 4.76297 9.73683 4.83363 9.65927C4.9043 9.58172 4.99037 9.51976 5.08635 9.47737C5.18233 9.43498 5.2861 9.41309 5.39102 9.41309C5.49594 9.41309 5.5997 9.43498 5.69567 9.47737C5.79165 9.51976 5.87772 9.58172 5.94839 9.65927C6.01905 9.73683 6.07277 9.82828 6.10608 9.92777C6.13939 10.0273 6.15156 10.1326 6.14183 10.2371V15.964L13.4484 23.2446C13.5182 23.3134 13.5737 23.3953 13.6116 23.4857C13.6496 23.5761 13.6692 23.6731 13.6694 23.7711V28.25C13.6694 28.4482 13.5906 28.6384 13.4504 28.7786C13.3102 28.9187 13.1201 28.9975 12.9218 28.9975Z" fill="#278F51"/>
<path d="M31.8384 28.9975C31.6401 28.9975 31.45 28.9187 31.3098 28.7786C31.1696 28.6384 31.0908 28.4482 31.0908 28.25V23.7646C31.091 23.6666 31.1106 23.5696 31.1486 23.4792C31.1865 23.3888 31.242 23.3069 31.3118 23.2381L38.6444 15.964V10.2371C38.6347 10.1326 38.6468 10.0273 38.6801 9.92777C38.7134 9.82828 38.7671 9.73683 38.8378 9.65927C38.9085 9.58172 38.9946 9.51976 39.0905 9.47737C39.1865 9.43498 39.2903 9.41309 39.3952 9.41309C39.5001 9.41309 39.6039 9.43498 39.6999 9.47737C39.7958 9.51976 39.8819 9.58172 39.9526 9.65927C40.0233 9.73683 40.077 9.82828 40.1103 9.92777C40.1436 10.0273 40.1557 10.1326 40.146 10.2371V16.2435C40.1469 16.3417 40.1278 16.4391 40.0898 16.5296C40.0518 16.6201 39.9957 16.702 39.925 16.7701L32.6184 24.0831V28.25C32.6185 28.3509 32.5982 28.4509 32.5586 28.5437C32.519 28.6366 32.461 28.7205 32.3881 28.7904C32.3152 28.8602 32.2289 28.9146 32.1344 28.9502C32.04 28.9858 31.9392 29.0019 31.8384 28.9975Z" fill="#278F51"/>
<path d="M4.65321 8.96948H3.61963V11.6542H4.65321V8.96948Z" fill="#004358"/>
<path d="M7.18201 8.96948H6.14844V11.6542H7.18201V8.96948Z" fill="#004358"/>
<path d="M41.1665 8.96948H40.1329V11.6542H41.1665V8.96948Z" fill="#004358"/>
<path d="M38.6378 8.96948H37.6042V11.6542H38.6378V8.96948Z" fill="#004358"/>
<path d="M43.5197 8.00732H1.27295V8.9694H43.5197V8.00732Z" fill="#3691AD"/>
<path d="M1.72805 2.00087H1.54604C1.40234 2.00085 1.26443 2.05749 1.16221 2.15849C1.06 2.25949 1.00171 2.39672 1 2.54041V2.92393H2.3001V2.54041C2.29931 2.46701 2.28373 2.39452 2.25429 2.32728C2.22485 2.26004 2.18216 2.19942 2.12876 2.14906C2.07536 2.09869 2.01234 2.05961 1.94349 2.03415C1.87465 2.00868 1.80137 1.99737 1.72805 2.00087Z" fill="#19334D"/>
<path d="M3.88613 2.00087H3.70412C3.56042 2.00085 3.42251 2.05749 3.3203 2.15849C3.21808 2.25949 3.15979 2.39672 3.15808 2.54041V2.92393H4.45818V2.54041C4.45739 2.46701 4.4418 2.39452 4.41235 2.32728C4.38291 2.26004 4.34022 2.19942 4.28682 2.14906C4.23342 2.09869 4.17042 2.05961 4.10157 2.03415C4.03273 2.00868 3.95945 1.99737 3.88613 2.00087Z" fill="#19334D"/>
<path d="M6.09642 2.00102H5.91441C5.77132 2.00102 5.63409 2.05786 5.53291 2.15904C5.43172 2.26023 5.37488 2.39746 5.37488 2.54056V2.92408H6.64246V2.54056C6.64247 2.46915 6.6283 2.39846 6.60078 2.33257C6.57326 2.26668 6.53294 2.20691 6.48215 2.15673C6.43136 2.10654 6.37111 2.06693 6.3049 2.04021C6.23869 2.01348 6.16782 2.00016 6.09642 2.00102Z" fill="#19334D"/>
<path d="M8.28701 2.00098H8.09851C7.95542 2.00098 7.81817 2.05782 7.71699 2.15901C7.61581 2.26019 7.55896 2.39742 7.55896 2.54052V2.92405H8.85906V2.54052C8.85919 2.46685 8.84424 2.39393 8.81512 2.32626C8.78599 2.25858 8.74332 2.19759 8.68972 2.14704C8.63613 2.09649 8.57274 2.05745 8.50348 2.03233C8.43423 2.00721 8.36055 1.99654 8.28701 2.00098Z" fill="#19334D"/>
<path d="M10.4712 2.00087H10.2827C10.1396 2.00087 10.0024 2.05771 9.90119 2.1589C9.80001 2.26008 9.74316 2.39732 9.74316 2.54041V2.92394H11.0368V2.54041C11.0368 2.46732 11.0221 2.39497 10.9934 2.32775C10.9646 2.26054 10.9225 2.19986 10.8696 2.1494C10.8168 2.09895 10.7542 2.05976 10.6857 2.03423C10.6172 2.0087 10.5442 1.99735 10.4712 2.00087Z" fill="#19334D"/>
<path d="M12.6553 2.00098H12.4668C12.3237 2.00098 12.1865 2.05782 12.0853 2.159C11.9841 2.26019 11.9272 2.39742 11.9272 2.54052V2.92405H13.1949V2.54052C13.1949 2.39742 13.138 2.26019 13.0368 2.159C12.9356 2.05782 12.7984 2.00098 12.6553 2.00098Z" fill="#19334D"/>
<path d="M14.8395 2.00098H14.651C14.5079 2.00098 14.3707 2.05782 14.2695 2.159C14.1683 2.26019 14.1115 2.39742 14.1115 2.54052V2.92405H15.379V2.54052C15.379 2.39742 15.3222 2.26019 15.221 2.159C15.1198 2.05782 14.9826 2.00098 14.8395 2.00098Z" fill="#19334D"/>
<path d="M17.0237 2.00098H16.8352C16.6921 2.00098 16.5549 2.05782 16.4537 2.15901C16.3525 2.26019 16.2957 2.39742 16.2957 2.54052V2.92405H17.5958V2.54052C17.5959 2.46685 17.5809 2.39393 17.5518 2.32626C17.5227 2.25858 17.48 2.19759 17.4264 2.14704C17.3728 2.09649 17.3094 2.05745 17.2402 2.03233C17.1709 2.00721 17.0972 1.99654 17.0237 2.00098Z" fill="#19334D"/>
<path d="M19.2079 2.00087H19.0259C18.8822 2.00085 18.7443 2.05749 18.6421 2.15849C18.5398 2.25949 18.4816 2.39672 18.4799 2.54041V2.92393H19.78V2.54041C19.7792 2.46701 19.7636 2.39452 19.7341 2.32728C19.7047 2.26004 19.662 2.19942 19.6086 2.14906C19.5552 2.09869 19.4922 2.05961 19.4234 2.03415C19.3545 2.00868 19.2812 1.99737 19.2079 2.00087Z" fill="#19334D"/>
<path d="M21.392 2.00087H21.21C21.0663 2.00085 20.9284 2.05749 20.8262 2.15849C20.7239 2.25949 20.6657 2.39672 20.6639 2.54041V2.92393H21.964V2.54041C21.9632 2.46701 21.9477 2.39452 21.9182 2.32728C21.8888 2.26004 21.8461 2.19942 21.7927 2.14906C21.7393 2.09869 21.6763 2.05961 21.6074 2.03415C21.5386 2.00868 21.4653 1.99737 21.392 2.00087Z" fill="#19334D"/>
<path d="M23.5762 2.00108H23.3877C23.244 2.00107 23.1061 2.05771 23.0039 2.15871C22.9017 2.25971 22.8434 2.39693 22.8417 2.54062V2.92415H24.1418V2.54062C24.141 2.46779 24.1256 2.39586 24.0965 2.32907C24.0675 2.26228 24.0254 2.20196 23.9727 2.15169C23.92 2.10141 23.8578 2.06219 23.7897 2.03632C23.7216 2.01046 23.649 1.99848 23.5762 2.00108Z" fill="#19334D"/>
<path d="M25.7604 2.00087H25.5784C25.4347 2.00085 25.2968 2.05749 25.1946 2.15849C25.0923 2.25949 25.0341 2.39672 25.0323 2.54041V2.92393H26.3324V2.54041C26.3317 2.46701 26.3161 2.39452 26.2866 2.32728C26.2572 2.26004 26.2145 2.19942 26.1611 2.14906C26.1077 2.09869 26.0447 2.05961 25.9758 2.03415C25.907 2.00868 25.8337 1.99737 25.7604 2.00087Z" fill="#19334D"/>
<path d="M27.938 2.00098H27.7495C27.6064 2.00098 27.4692 2.05782 27.368 2.15901C27.2668 2.26019 27.21 2.39742 27.21 2.54052V2.92405H28.5101V2.54052C28.5102 2.46685 28.4952 2.39393 28.4661 2.32626C28.437 2.25858 28.3943 2.19759 28.3407 2.14704C28.2871 2.09649 28.2237 2.05745 28.1545 2.03233C28.0852 2.00721 28.0116 1.99654 27.938 2.00098Z" fill="#19334D"/>
<path d="M30.1352 2.00098H29.9466C29.8035 2.00098 29.6663 2.05782 29.5651 2.159C29.4639 2.26019 29.4071 2.39742 29.4071 2.54052V2.92405H30.6747V2.54052C30.6747 2.39742 30.6178 2.26019 30.5167 2.159C30.4155 2.05782 30.2783 2.00098 30.1352 2.00098Z" fill="#19334D"/>
<path d="M32.3194 2.00098H32.1309C31.9878 2.00098 31.8505 2.05782 31.7493 2.159C31.6482 2.26019 31.5913 2.39742 31.5913 2.54052V2.92405H32.8589V2.54052C32.8589 2.39742 32.8021 2.26019 32.7009 2.159C32.5997 2.05782 32.4625 2.00098 32.3194 2.00098Z" fill="#19334D"/>
<path d="M34.5036 2.00098H34.315C34.1719 2.00098 34.0347 2.05782 33.9335 2.159C33.8324 2.26019 33.7755 2.39742 33.7755 2.54052V2.92405H35.0431V2.54052C35.0431 2.39742 34.9863 2.26019 34.8851 2.159C34.7839 2.05782 34.6467 2.00098 34.5036 2.00098Z" fill="#19334D"/>
<path d="M36.6876 2.00098H36.4991C36.3561 2.00098 36.2188 2.05782 36.1176 2.15901C36.0164 2.26019 35.9596 2.39742 35.9596 2.54052V2.92405H37.2597V2.54052C37.2598 2.46685 37.2449 2.39393 37.2158 2.32626C37.1866 2.25858 37.144 2.19759 37.0904 2.14704C37.0368 2.09649 36.9734 2.05745 36.9041 2.03233C36.8349 2.00721 36.7612 1.99654 36.6876 2.00098Z" fill="#19334D"/>
<path d="M38.8719 2.00102H38.6898C38.6184 2.00016 38.5476 2.01348 38.4814 2.04021C38.4151 2.06693 38.3549 2.10654 38.3041 2.15673C38.2533 2.20691 38.213 2.26668 38.1855 2.33257C38.158 2.39846 38.1438 2.46915 38.1438 2.54056V2.92408H39.4114V2.54056C39.4114 2.4697 39.3974 2.39954 39.3703 2.33408C39.3432 2.26862 39.3035 2.20914 39.2534 2.15904C39.2033 2.10894 39.1438 2.0692 39.0783 2.04209C39.0129 2.01497 38.9427 2.00102 38.8719 2.00102Z" fill="#19334D"/>
<path d="M41.0561 2.00087H40.874C40.7303 2.00085 40.5924 2.05749 40.4902 2.15849C40.388 2.25949 40.3297 2.39672 40.328 2.54041V2.92393H41.6281V2.54041C41.6273 2.46701 41.6117 2.39452 41.5823 2.32728C41.5529 2.26004 41.5102 2.19942 41.4568 2.14906C41.4034 2.09869 41.3403 2.05961 41.2715 2.03415C41.2026 2.00868 41.1294 1.99737 41.0561 2.00087Z" fill="#19334D"/>
<path d="M43.2403 2.00087H43.0582C42.9145 2.00085 42.7766 2.05749 42.6744 2.15849C42.5722 2.25949 42.5139 2.39672 42.5122 2.54041V2.92393H43.8123V2.54041C43.8115 2.46701 43.7959 2.39452 43.7665 2.32728C43.737 2.26004 43.6943 2.19942 43.6409 2.14906C43.5875 2.09869 43.5245 2.05961 43.4557 2.03415C43.3869 2.00868 43.3136 1.99737 43.2403 2.00087Z" fill="#19334D"/>
<path d="M5.38785 14.2089C5.21516 14.2048 5.04909 14.1416 4.91743 14.0298C4.78577 13.918 4.69649 13.7643 4.66452 13.5946C4.63255 13.4248 4.65984 13.2492 4.7418 13.0972C4.82377 12.9451 4.95546 12.8258 5.11484 12.7592C8.78762 11.3096 16.7832 10.4451 22.3931 10.4451C22.5802 10.4625 22.754 10.5491 22.8806 10.688C23.0071 10.8269 23.0773 11.008 23.0773 11.1959C23.0773 11.3838 23.0071 11.5649 22.8806 11.7037C22.754 11.8426 22.5802 11.9293 22.3931 11.9467C17.0432 11.9467 9.12563 12.7917 5.66736 14.1569C5.57776 14.1897 5.48328 14.2073 5.38785 14.2089Z" fill="#278F51"/>
<path d="M39.3984 14.2089C39.303 14.2073 39.2085 14.1897 39.1189 14.1569C35.6606 12.7917 27.743 11.9467 22.3931 11.9467C22.206 11.9293 22.0322 11.8426 21.9057 11.7037C21.7791 11.5649 21.709 11.3838 21.709 11.1959C21.709 11.008 21.7791 10.8269 21.9057 10.688C22.0322 10.5491 22.206 10.4625 22.3931 10.4451C28.003 10.4451 35.9986 11.3096 39.6714 12.7592C39.8308 12.8258 39.9625 12.9451 40.0445 13.0972C40.1264 13.2492 40.1537 13.4248 40.1217 13.5946C40.0898 13.7643 40.0005 13.918 39.8688 14.0298C39.7372 14.1416 39.5711 14.2048 39.3984 14.2089Z" fill="#278F51"/>
</g>
<defs>
<filter id="filter0_d_30_3950" x="0" y="0" width="50.8123" height="67.4417" filterUnits="userSpaceOnUse" color-interpolation-filters="sRGB">
<feFlood flood-opacity="0" result="BackgroundImageFix"/>
<feColorMatrix in="SourceAlpha" type="matrix" values="0 0 0 0 0 0 0 0 0 0 0 0 0 0 0 0 0 0 127 0" result="hardAlpha"/>
<feOffset dx="3" dy="2"/>
<feGaussianBlur stdDeviation="2"/>
<feComposite in2="hardAlpha" operator="out"/>
<feColorMatrix type="matrix" values="0 0 0 0 0 0 0 0 0 0 0 0 0 0 0 0 0 0 0.25 0"/>
<feBlend mode="normal" in2="BackgroundImageFix" result="effect1_dropShadow_30_3950"/>
<feBlend mode="normal" in="SourceGraphic" in2="effect1_dropShadow_30_3950" result="shape"/>
</filter>
</defs>
</svg>
