<svg width="21" height="21" viewBox="0 0 21 21" fill="none" xmlns="http://www.w3.org/2000/svg">
<path d="M11.9934 13.23L11.4684 12.8217C11.4799 12.7422 11.4863 12.662 11.4876 12.5817C11.4885 12.501 11.4818 12.4203 11.4676 12.3408L11.9884 11.9325C12.0105 11.9137 12.0255 11.8879 12.031 11.8594C12.0364 11.831 12.032 11.8015 12.0184 11.7758L11.5268 10.9258C11.5119 10.9002 11.4884 10.8807 11.4605 10.8708C11.4325 10.8608 11.402 10.8612 11.3743 10.8717L10.7659 11.1175C10.6388 11.0175 10.4979 10.9364 10.3476 10.8767L10.2543 10.2283C10.251 10.1996 10.2371 10.1732 10.2154 10.1541C10.1937 10.135 10.1657 10.1246 10.1368 10.125H9.15343C9.12418 10.1253 9.09596 10.1358 9.0736 10.1547C9.05125 10.1735 9.03616 10.1996 9.03093 10.2283L8.9376 10.8767C8.78931 10.9398 8.64937 11.021 8.52093 11.1183L7.91093 10.8717C7.88315 10.8618 7.85283 10.8618 7.82506 10.8717C7.79729 10.8816 7.77376 10.9007 7.75843 10.9258L7.26676 11.7758C7.25182 11.8013 7.24663 11.8313 7.25215 11.8602C7.25767 11.8892 7.27352 11.9152 7.29676 11.9333L7.8176 12.3417C7.79798 12.5014 7.79798 12.6628 7.8176 12.8225L7.29676 13.2308C7.27483 13.2498 7.25999 13.2756 7.25469 13.3041C7.24939 13.3325 7.25394 13.362 7.2676 13.3875L7.75926 14.2375C7.7741 14.263 7.79746 14.2824 7.82521 14.2923C7.85296 14.3022 7.88332 14.302 7.91093 14.2917L8.52009 14.0458C8.64696 14.1458 8.78758 14.2269 8.9376 14.2867L9.03093 14.935C9.03555 14.9642 9.05058 14.9908 9.07325 15.0098C9.09592 15.0288 9.12469 15.0389 9.15426 15.0383H10.1368C10.166 15.038 10.1942 15.0276 10.2166 15.0087C10.2389 14.9898 10.254 14.9638 10.2593 14.935L10.3526 14.2867C10.5001 14.2247 10.6389 14.1434 10.7651 14.045L11.3793 14.2917C11.407 14.3015 11.4374 14.3015 11.4651 14.2917C11.4929 14.2818 11.5164 14.2627 11.5318 14.2375L12.0234 13.3875C12.0372 13.3618 12.0417 13.3321 12.0363 13.3035C12.0308 13.2748 12.0157 13.2489 11.9934 13.23ZM9.6451 13.3183C9.49943 13.3182 9.35709 13.2748 9.23605 13.1938C9.11502 13.1127 9.02073 12.9976 8.9651 12.863C8.90947 12.7284 8.895 12.5803 8.92352 12.4375C8.95204 12.2946 9.02226 12.1634 9.12532 12.0605C9.22838 11.9575 9.35964 11.8875 9.50252 11.8591C9.64539 11.8307 9.79347 11.8454 9.92803 11.9012C10.0626 11.9569 10.1776 12.0514 10.2585 12.1725C10.3394 12.2936 10.3826 12.436 10.3826 12.5817C10.3827 12.6785 10.3637 12.7744 10.3267 12.8639C10.2896 12.9534 10.2353 13.0347 10.1668 13.1031C10.0983 13.1716 10.0169 13.2258 9.92739 13.2627C9.83787 13.2997 9.74194 13.3186 9.6451 13.3183Z" fill="#9C4900" fill-opacity="0.3"/>
<path d="M12.2552 1.74219H5.58854C5.14692 1.74351 4.72376 1.91952 4.41149 2.2318C4.09921 2.54408 3.92319 2.96723 3.92188 3.40885V16.7422C3.92319 17.1838 4.09921 17.607 4.41149 17.9192C4.72376 18.2315 5.14692 18.4075 5.58854 18.4089H15.5885C16.0302 18.4075 16.4533 18.2315 16.7656 17.9192C17.0779 17.607 17.2539 17.1838 17.2552 16.7422V6.74219L12.2552 1.74219ZM15.5885 16.7422H5.58854V3.40885H11.4219V7.57552H15.5885V16.7422Z" fill="#9C4900" fill-opacity="0.3"/>
</svg>
