<svg width="21" height="21" viewBox="0 0 21 21" fill="none" xmlns="http://www.w3.org/2000/svg">
<path d="M12.3528 13.23L11.8278 12.8217C11.8392 12.7422 11.8456 12.662 11.847 12.5817C11.8479 12.501 11.8412 12.4203 11.827 12.3408L12.3478 11.9325C12.3699 11.9137 12.3849 11.8879 12.3903 11.8594C12.3958 11.831 12.3914 11.8015 12.3778 11.7758L11.8861 10.9258C11.8713 10.9002 11.8478 10.8807 11.8198 10.8708C11.7919 10.8608 11.7614 10.8612 11.7336 10.8717L11.1253 11.1175C10.9982 11.0175 10.8573 10.9364 10.707 10.8767L10.6136 10.2283C10.6103 10.1996 10.5965 10.1732 10.5748 10.1541C10.5531 10.135 10.525 10.1246 10.4961 10.125H9.5128C9.48356 10.1253 9.45533 10.1358 9.43298 10.1547C9.41062 10.1735 9.39553 10.1996 9.3903 10.2283L9.29697 10.8767C9.14868 10.9398 9.00874 11.021 8.8803 11.1183L8.2703 10.8717C8.24253 10.8618 8.21221 10.8618 8.18444 10.8717C8.15667 10.8816 8.13314 10.9007 8.1178 10.9258L7.62614 11.7758C7.6112 11.8013 7.60601 11.8313 7.61152 11.8602C7.61704 11.8892 7.6329 11.9152 7.65614 11.9333L8.17697 12.3417C8.15735 12.5014 8.15735 12.6628 8.17697 12.8225L7.65614 13.2308C7.6342 13.2498 7.61936 13.2756 7.61406 13.3041C7.60876 13.3325 7.61331 13.362 7.62697 13.3875L8.11864 14.2375C8.13348 14.263 8.15683 14.2824 8.18458 14.2923C8.21233 14.3022 8.24269 14.302 8.2703 14.2917L8.87947 14.0458C9.00634 14.1458 9.14695 14.2269 9.29697 14.2867L9.3903 14.935C9.39492 14.9642 9.40996 14.9908 9.43263 15.0098C9.45529 15.0288 9.48407 15.0389 9.51364 15.0383H10.4961C10.5254 15.038 10.5536 15.0276 10.576 15.0087C10.5983 14.9898 10.6134 14.9638 10.6186 14.935L10.712 14.2867C10.8595 14.2247 10.9982 14.1434 11.1245 14.045L11.7386 14.2917C11.7664 14.3015 11.7967 14.3015 11.8245 14.2917C11.8523 14.2818 11.8758 14.2627 11.8911 14.2375L12.3828 13.3875C12.3966 13.3618 12.4011 13.3321 12.3957 13.3035C12.3902 13.2748 12.3751 13.2489 12.3528 13.23ZM10.0045 13.3183C9.85881 13.3182 9.71646 13.2748 9.59543 13.1938C9.47439 13.1127 9.3801 12.9976 9.32447 12.863C9.26884 12.7284 9.25437 12.5803 9.28289 12.4375C9.31141 12.2946 9.38164 12.1634 9.4847 12.0605C9.58775 11.9575 9.71902 11.8875 9.86189 11.8591C10.0048 11.8307 10.1528 11.8454 10.2874 11.9012C10.422 11.9569 10.537 12.0514 10.6179 12.1725C10.6988 12.2936 10.742 12.436 10.742 12.5817C10.7421 12.6785 10.7231 12.7744 10.686 12.8639C10.649 12.9534 10.5947 13.0347 10.5262 13.1031C10.4576 13.1716 10.3763 13.2258 10.2868 13.2627C10.1972 13.2997 10.1013 13.3186 10.0045 13.3183Z" fill="#9C4900"/>
<path d="M12.6146 1.74219H5.94792C5.50629 1.74351 5.08314 1.91952 4.77086 2.2318C4.45859 2.54408 4.28257 2.96723 4.28125 3.40885V16.7422C4.28257 17.1838 4.45859 17.607 4.77086 17.9192C5.08314 18.2315 5.50629 18.4075 5.94792 18.4089H15.9479C16.3895 18.4075 16.8127 18.2315 17.125 17.9192C17.4372 17.607 17.6133 17.1838 17.6146 16.7422V6.74219L12.6146 1.74219ZM15.9479 16.7422H5.94792V3.40885H11.7812V7.57552H15.9479V16.7422Z" fill="#9C4900"/>
</svg>
