<svg width="17" height="16" viewBox="0 0 17 16" fill="none" xmlns="http://www.w3.org/2000/svg">
<path fill-rule="evenodd" clip-rule="evenodd" d="M15.0363 13.503C15.0221 13.7127 14.927 13.9087 14.771 14.0496C14.615 14.1905 14.4104 14.2652 14.2003 14.258H11.7983C11.698 14.2604 11.5984 14.2426 11.5052 14.2056C11.412 14.1687 11.3272 14.1133 11.2559 14.0428C11.1845 13.9723 11.1282 13.8882 11.0901 13.7955C11.052 13.7027 11.033 13.6032 11.0343 13.503V11.218C11.0327 11.117 11.0513 11.0167 11.0891 10.923C11.1268 10.8293 11.183 10.7441 11.2542 10.6724C11.3254 10.6008 11.4102 10.5441 11.5036 10.5057C11.5971 10.4673 11.6973 10.448 11.7983 10.449H14.1983C14.4099 10.4447 14.615 10.5223 14.7707 10.6656C14.9265 10.8089 15.0209 11.0068 15.0343 11.218L15.0363 13.503ZM14.1983 8.92498H11.7983C11.4922 8.91902 11.1879 8.97375 10.903 9.08599C10.6181 9.19824 10.3583 9.36578 10.1385 9.57896C9.91876 9.79214 9.74337 10.0467 9.6225 10.328C9.50162 10.6094 9.43766 10.9118 9.43428 11.218V13.504C9.43816 13.8093 9.50258 14.1108 9.62383 14.3911C9.74507 14.6713 9.92072 14.9247 10.1406 15.1366C10.3605 15.3485 10.6202 15.5146 10.9048 15.6254C11.1893 15.7362 11.493 15.7894 11.7983 15.782H14.1983C14.8226 15.7996 15.4287 15.5701 15.8848 15.1433C16.341 14.7166 16.6103 14.1271 16.6343 13.503V11.218C16.6111 10.5923 16.3424 10.001 15.8866 9.57187C15.4307 9.14275 14.8242 8.91036 14.1983 8.92498ZM6.23428 13.503C6.22013 13.7127 6.12501 13.9087 5.96901 14.0496C5.81301 14.1905 5.60835 14.2652 5.39828 14.258H2.99828C2.89804 14.2604 2.79835 14.2426 2.70515 14.2056C2.61196 14.1687 2.52717 14.1133 2.45586 14.0428C2.38454 13.9723 2.32816 13.8882 2.29009 13.7955C2.25202 13.7027 2.23304 13.6032 2.23428 13.503V11.218C2.23267 11.117 2.2513 11.0167 2.28906 10.923C2.32683 10.8293 2.38296 10.7441 2.45416 10.6724C2.52536 10.6008 2.61018 10.5441 2.70363 10.5057C2.79708 10.4673 2.89726 10.448 2.99828 10.449H5.39828C5.60988 10.4447 5.81497 10.5223 5.97073 10.6656C6.1265 10.8089 6.22091 11.0068 6.23428 11.218V13.503ZM5.39828 8.92498H2.99828C2.69215 8.91902 2.38788 8.97375 2.10301 9.08599C1.81814 9.19824 1.55832 9.36578 1.33854 9.57896C1.11876 9.79214 0.943375 10.0467 0.822498 10.328C0.701622 10.6094 0.637652 10.9118 0.634277 11.218V13.504C0.638156 13.8093 0.702582 14.1108 0.823826 14.3911C0.945069 14.6713 1.12072 14.9247 1.3406 15.1366C1.56048 15.3485 1.82022 15.5146 2.10477 15.6254C2.38932 15.7362 2.69301 15.7894 2.99828 15.782H5.39828C6.02264 15.7996 6.62873 15.5701 7.08485 15.1433C7.54098 14.7166 7.81029 14.1271 7.83427 13.503V11.218C7.8108 10.5924 7.54211 10.0012 7.08629 9.57216C6.63046 9.1431 6.02411 8.91062 5.39828 8.92498ZM15.0343 5.12499C15.0201 5.33471 14.925 5.53072 14.769 5.6716C14.613 5.81248 14.4084 5.88721 14.1983 5.87999H11.7983C11.698 5.88241 11.5984 5.86461 11.5052 5.82764C11.412 5.79067 11.3272 5.7353 11.2559 5.66482C11.1845 5.59435 11.1282 5.51022 11.0901 5.41747C11.052 5.32472 11.033 5.22524 11.0343 5.12499V2.83699C11.0327 2.73598 11.0513 2.63567 11.0891 2.54197C11.1268 2.44828 11.183 2.36309 11.2542 2.29142C11.3254 2.21976 11.4102 2.16307 11.5036 2.1247C11.5971 2.08632 11.6973 2.06704 11.7983 2.06799H14.1983C14.4099 2.0637 14.615 2.14129 14.7707 2.28457C14.9265 2.42786 15.0209 2.62576 15.0343 2.83699V5.12499ZM14.1983 0.543986H11.7983C11.4922 0.538026 11.1879 0.592746 10.903 0.704991C10.6181 0.817235 10.3583 0.984781 10.1385 1.19796C9.91876 1.41114 9.74337 1.66573 9.6225 1.94704C9.50162 2.22836 9.43766 2.53082 9.43428 2.83699V5.12299C9.43816 5.42831 9.50258 5.72984 9.62383 6.01009C9.74507 6.29034 9.92072 6.54374 10.1406 6.75562C10.3605 6.9675 10.6202 7.13364 10.9048 7.24442C11.1893 7.3552 11.493 7.40842 11.7983 7.40099H14.1983C14.8226 7.41857 15.4287 7.18907 15.8848 6.76234C16.341 6.33561 16.6103 5.74614 16.6343 5.12199V2.83699C16.6111 2.21134 16.3424 1.61999 15.8866 1.19087C15.4307 0.761748 14.8242 0.529362 14.1983 0.543986ZM6.23428 5.12199C6.22038 5.33189 6.12536 5.52815 5.96934 5.66924C5.81331 5.81034 5.60851 5.8852 5.39828 5.87799H2.99828C2.89804 5.88041 2.79835 5.86261 2.70515 5.82564C2.61196 5.78867 2.52717 5.7333 2.45586 5.66282C2.38454 5.59235 2.32816 5.50822 2.29009 5.41547C2.25202 5.32271 2.23304 5.22324 2.23428 5.12299V2.83699C2.23267 2.73598 2.2513 2.63567 2.28906 2.54197C2.32683 2.44828 2.38296 2.36309 2.45416 2.29142C2.52536 2.21976 2.61018 2.16307 2.70363 2.1247C2.79708 2.08632 2.89726 2.06704 2.99828 2.06799H5.39828C5.60988 2.0637 5.81497 2.14129 5.97073 2.28457C6.1265 2.42786 6.22091 2.62576 6.23428 2.83699V5.12199ZM5.39828 0.543986H2.99828C2.69215 0.538026 2.38788 0.592746 2.10301 0.704991C1.81814 0.817235 1.55832 0.984781 1.33854 1.19796C1.11876 1.41114 0.943375 1.66573 0.822498 1.94704C0.701622 2.22836 0.637652 2.53082 0.634277 2.83699V5.12299C0.638156 5.42831 0.702582 5.72984 0.823826 6.01009C0.945069 6.29034 1.12072 6.54374 1.3406 6.75562C1.56048 6.9675 1.82022 7.13364 2.10477 7.24442C2.38932 7.3552 2.69301 7.40842 2.99828 7.40099H5.39828C6.02264 7.41857 6.62873 7.18907 7.08485 6.76234C7.54098 6.33561 7.81029 5.74614 7.83427 5.12199V2.83699C7.8108 2.21143 7.54211 1.62023 7.08629 1.19116C6.63046 0.762096 6.02411 0.529622 5.39828 0.543986Z" fill="#8F4300" fill-opacity="0.3"/>
</svg>
