<svg width="17" height="17" viewBox="0 0 17 17" fill="none" xmlns="http://www.w3.org/2000/svg">
<path d="M14.3099 8.98646V3.91146C14.3099 2.06979 11.3266 0.578125 7.64323 0.578125C3.9599 0.578125 0.976562 2.06979 0.976562 3.91146V12.2448C0.976562 14.0865 3.96823 15.5781 7.64323 15.5781C8.02656 15.5781 8.39323 15.5781 8.75156 15.5281C8.57065 15.0083 8.47771 14.4619 8.47656 13.9115V13.8698C8.2099 13.9115 7.9349 13.9115 7.64323 13.9115C4.41823 13.9115 2.64323 12.6615 2.64323 12.2448V10.3865C3.9849 11.0365 5.74323 11.4115 7.64323 11.4115C8.1849 11.4115 8.70156 11.3781 9.2099 11.3198C9.65381 10.5852 10.2797 9.97761 11.0272 9.55571C11.7746 9.13382 12.6183 8.91191 13.4766 8.91146C13.7599 8.91146 14.0349 8.94479 14.3099 8.98646ZM12.6432 8.45312C11.5599 9.24479 9.6599 9.74479 7.64323 9.74479C5.62656 9.74479 3.72656 9.24479 2.64323 8.45312V6.11146C3.86823 6.80312 5.65156 7.24479 7.64323 7.24479C9.6349 7.24479 11.4182 6.80312 12.6432 6.11146V8.45312ZM7.64323 5.57812C4.41823 5.57812 2.64323 4.32812 2.64323 3.91146C2.64323 3.49479 4.41823 2.24479 7.64323 2.24479C10.8682 2.24479 12.6432 3.49479 12.6432 3.91146C12.6432 4.32812 10.8682 5.57812 7.64323 5.57812ZM16.3932 12.4531L12.4349 16.4115L10.1432 13.9115L11.1099 12.9448L12.4349 14.2698L15.4266 11.2781L16.3932 12.4531Z" fill="#9C4900"/>
</svg>
