<svg width="16" height="17" viewBox="0 0 16 17" fill="none" xmlns="http://www.w3.org/2000/svg">
<path d="M13.4193 8.98646V3.91146C13.4193 2.06979 10.4359 0.578125 6.7526 0.578125C3.06927 0.578125 0.0859375 2.06979 0.0859375 3.91146V12.2448C0.0859375 14.0865 3.0776 15.5781 6.7526 15.5781C7.13594 15.5781 7.5026 15.5781 7.86094 15.5281C7.68002 15.0083 7.58708 14.4619 7.58594 13.9115V13.8698C7.31927 13.9115 7.04427 13.9115 6.7526 13.9115C3.5276 13.9115 1.7526 12.6615 1.7526 12.2448V10.3865C3.09427 11.0365 4.8526 11.4115 6.7526 11.4115C7.29427 11.4115 7.81094 11.3781 8.31927 11.3198C8.76318 10.5852 9.38912 9.97761 10.1366 9.55571C10.884 9.13382 11.7276 8.91191 12.5859 8.91146C12.8693 8.91146 13.1443 8.94479 13.4193 8.98646ZM11.7526 8.45312C10.6693 9.24479 8.76927 9.74479 6.7526 9.74479C4.73594 9.74479 2.83594 9.24479 1.7526 8.45312V6.11146C2.9776 6.80312 4.76094 7.24479 6.7526 7.24479C8.74427 7.24479 10.5276 6.80312 11.7526 6.11146V8.45312ZM6.7526 5.57812C3.5276 5.57812 1.7526 4.32812 1.7526 3.91146C1.7526 3.49479 3.5276 2.24479 6.7526 2.24479C9.9776 2.24479 11.7526 3.49479 11.7526 3.91146C11.7526 4.32812 9.9776 5.57812 6.7526 5.57812ZM15.5026 12.4531L11.5443 16.4115L9.2526 13.9115L10.2193 12.9448L11.5443 14.2698L14.5359 11.2781L15.5026 12.4531Z" fill="#9C4900" fill-opacity="0.3"/>
</svg>
