<svg width="21" height="21" viewBox="0 0 21 21" fill="none" xmlns="http://www.w3.org/2000/svg">
<path d="M18.7542 5.46802L12.5042 2.03052C12.4119 1.97975 12.3083 1.95312 12.2029 1.95312C12.0976 1.95312 11.994 1.97975 11.9017 2.03052L5.65168 5.46802C5.55369 5.52197 5.47197 5.60124 5.41506 5.69754C5.35815 5.79384 5.32812 5.90365 5.32812 6.01552C5.32812 6.12738 5.35815 6.23719 5.41506 6.3335C5.47197 6.4298 5.55369 6.50907 5.65168 6.56302L11.5779 9.82239V16.5218L9.68043 15.478L9.07793 16.5724L11.9017 18.1255C11.9939 18.1764 12.0976 18.2031 12.2029 18.2031C12.3083 18.2031 12.4119 18.1764 12.5042 18.1255L18.7542 14.688C18.8522 14.6341 18.934 14.5548 18.9909 14.4585C19.0479 14.3622 19.0779 14.2524 19.0779 14.1405V6.01552C19.0779 5.90364 19.0479 5.79381 18.9909 5.6975C18.934 5.6012 18.8522 5.52195 18.7542 5.46802ZM12.2029 3.29177L17.1561 6.01552L12.2029 8.73927L7.24981 6.01552L12.2029 3.29177ZM17.8279 13.7711L12.8279 16.5211V9.82177L17.8279 7.07177V13.7711Z" fill="#9C4900"/>
<path d="M6.57812 10.0781H1.57812V8.82812H6.57812V10.0781ZM7.82812 15.0781H2.82812V13.8281H7.82812V15.0781ZM9.07812 12.5781H4.07812V11.3281H9.07812V12.5781Z" fill="#9C4900"/>
</svg>
