<svg width="21" height="21" viewBox="0 0 21 21" fill="none" xmlns="http://www.w3.org/2000/svg">
<path d="M15.5078 3.375H5.50781C4.47228 3.375 3.63281 4.21447 3.63281 5.25V15.25C3.63281 16.2855 4.47228 17.125 5.50781 17.125H15.5078C16.5433 17.125 17.3828 16.2855 17.3828 15.25V5.25C17.3828 4.21447 16.5433 3.375 15.5078 3.375Z" stroke="#9C4900" stroke-opacity="0.3" stroke-width="1.5" stroke-linejoin="round"/>
<path d="M14.2578 5.875H6.75781C6.41263 5.875 6.13281 6.15482 6.13281 6.5V14C6.13281 14.3452 6.41263 14.625 6.75781 14.625H14.2578C14.603 14.625 14.8828 14.3452 14.8828 14V6.5C14.8828 6.15482 14.603 5.875 14.2578 5.875Z" stroke="#9C4900" stroke-opacity="0.3" stroke-width="1.5" stroke-linejoin="round"/>
<path d="M10.5078 3.375V2.125M13.6328 3.375V2.125M7.38281 3.375V2.125M10.5078 18.375V17.125M13.6328 18.375V17.125M7.38281 18.375V17.125M17.3828 10.25H18.6328M17.3828 13.375H18.6328M17.3828 7.125H18.6328M2.38281 10.25H3.63281M2.38281 13.375H3.63281M2.38281 7.125H3.63281" stroke="#9C4900" stroke-opacity="0.3" stroke-width="1.5" stroke-linecap="round" stroke-linejoin="round"/>
</svg>
