<svg width="21" height="20" viewBox="0 0 21 20" fill="none" xmlns="http://www.w3.org/2000/svg">
<path d="M14.0052 18.3385V6.67187C14.0052 4.31521 14.0052 3.13604 13.2727 2.40437C12.541 1.67187 11.3619 1.67188 9.00521 1.67188H8.17187C5.81521 1.67188 4.63604 1.67187 3.90437 2.40437C3.17187 3.13604 3.17188 4.31521 3.17188 6.67187V18.3385" stroke="#9C4900" stroke-opacity="0.3" stroke-width="1.25"/>
<path d="M9.83854 5.00781H7.33854C6.55271 5.00781 6.16021 5.00781 5.91604 5.25198C5.67188 5.49615 5.67188 5.88865 5.67188 6.67448C5.67188 7.46031 5.67188 7.85281 5.91604 8.09698C6.16021 8.34115 6.55271 8.34115 7.33854 8.34115H9.83854C10.6244 8.34115 11.0169 8.34115 11.261 8.09698C11.5052 7.85281 11.5052 7.46031 11.5052 6.67448C11.5052 5.88865 11.5052 5.49615 11.261 5.25198C11.0169 5.00781 10.6244 5.00781 9.83854 5.00781Z" stroke="#9C4900" stroke-opacity="0.3" stroke-width="1.25"/>
<path d="M6.5026 14.1693H10.6693M14.8359 18.3359H2.33594M16.9193 3.33594L17.9468 4.1576C18.0618 4.24927 18.1193 4.29594 18.1718 4.3426C18.6643 4.78448 18.9616 5.4036 18.9984 6.06427C19.0026 6.13427 19.0026 6.2076 19.0026 6.35427V15.4193C19.0026 15.7508 18.8709 16.0687 18.6365 16.3032C18.4021 16.5376 18.0841 16.6693 17.7526 16.6693C17.4211 16.6693 17.1031 16.5376 16.8687 16.3032C16.6343 16.0687 16.5026 15.7508 16.5026 15.4193V15.3601C16.5026 14.7018 15.9693 14.1693 15.3118 14.1693H14.0026" stroke="#9C4900" stroke-opacity="0.3" stroke-width="1.25" stroke-linecap="round"/>
<path d="M19 6.67188H17.75C17.4185 6.67188 17.1005 6.80357 16.8661 7.03799C16.6317 7.27241 16.5 7.59035 16.5 7.92187V9.93771C16.5 10.2001 16.5826 10.4558 16.7361 10.6686C16.8895 10.8815 17.1061 11.0406 17.355 11.1235L19 11.6719" stroke="#9C4900" stroke-opacity="0.3" stroke-width="1.25" stroke-linecap="round"/>
</svg>
