<svg width="21" height="21" viewBox="0 0 21 21" fill="none" xmlns="http://www.w3.org/2000/svg">
<g clip-path="url(#clip0_464_2913)">
<path d="M4.73438 1.95312V18.2031H14.7344V16.9531H5.98438V3.20312H12.2344V6.95312H15.9844V8.20312H17.2344V6.07812L17.0469 5.89062L13.2969 2.14062L13.1094 1.95312H4.73438ZM13.4844 4.07812L15.1094 5.70312H13.4844V4.07812ZM7.23438 8.20312V9.45312H14.7344V8.20312H7.23438ZM17.8594 9.45312V10.7031C16.7969 10.8906 15.9844 11.7656 15.9844 12.8906C15.9844 14.1406 16.9219 15.0781 18.1719 15.0781H18.7969C19.2969 15.0781 19.7344 15.5156 19.7344 16.0156C19.7344 16.5156 19.2969 16.9531 18.7969 16.9531H16.6094V18.2031H17.8594V19.4531H19.1094V18.2031C20.1719 18.0156 20.9844 17.1406 20.9844 16.0156C20.9844 14.7656 20.0469 13.8281 18.7969 13.8281H18.1719C17.6719 13.8281 17.2344 13.3906 17.2344 12.8906C17.2344 12.3906 17.6719 11.9531 18.1719 11.9531H20.3594V10.7031H19.1094V9.45312H17.8594ZM7.23438 11.3281V12.5781H11.6094V11.3281H7.23438ZM12.8594 11.3281V12.5781H14.7344V11.3281H12.8594ZM7.23438 13.8281V15.0781H11.6094V13.8281H7.23438ZM12.8594 13.8281V15.0781H14.7344V13.8281H12.8594Z" fill="#9C4900"/>
</g>
<defs>
<clipPath id="clip0_464_2913">
<rect width="20" height="20" fill="white" transform="translate(0.984375 0.078125)"/>
</clipPath>
</defs>
</svg>
