<svg width="20" height="20" viewBox="0 0 20 20" fill="none" xmlns="http://www.w3.org/2000/svg">
<path d="M7.4974 8.33594C7.4974 8.66746 7.3657 8.9854 7.13128 9.21982C6.89686 9.45424 6.57892 9.58594 6.2474 9.58594C5.91587 9.58594 5.59793 9.45424 5.36351 9.21982C5.12909 8.9854 4.9974 8.66746 4.9974 8.33594C4.9974 8.00442 5.12909 7.68647 5.36351 7.45205C5.59793 7.21763 5.91587 7.08594 6.2474 7.08594C6.57892 7.08594 6.89686 7.21763 7.13128 7.45205C7.3657 7.68647 7.4974 8.00442 7.4974 8.33594ZM9.3724 9.58594C9.64866 9.58594 9.91362 9.47619 10.109 9.28084C10.3043 9.08549 10.4141 8.82054 10.4141 8.54427C10.4141 8.268 10.3043 8.00305 10.109 7.8077C9.91362 7.61235 9.64866 7.5026 9.3724 7.5026C9.09613 7.5026 8.83118 7.61235 8.63583 7.8077C8.44048 8.00305 8.33073 8.268 8.33073 8.54427C8.33073 8.82054 8.44048 9.08549 8.63583 9.28084C8.83118 9.47619 9.09613 9.58594 9.3724 9.58594ZM12.0807 8.85677C12.0807 8.56927 12.3141 8.33594 12.6016 8.33594H15.3099C15.448 8.33594 15.5805 8.39081 15.6782 8.48849C15.7759 8.58616 15.8307 8.71864 15.8307 8.85677C15.8307 8.9949 15.7759 9.12738 15.6782 9.22506C15.5805 9.32273 15.448 9.3776 15.3099 9.3776H12.6016C12.3141 9.3776 12.0807 9.14427 12.0807 8.85677ZM12.6016 10.6276C12.4634 10.6276 12.331 10.6825 12.2333 10.7802C12.1356 10.8778 12.0807 11.0103 12.0807 11.1484C12.0807 11.2866 12.1356 11.419 12.2333 11.5167C12.331 11.6144 12.4634 11.6693 12.6016 11.6693H15.3099C15.448 11.6693 15.5805 11.6144 15.6782 11.5167C15.7759 11.419 15.8307 11.2866 15.8307 11.1484C15.8307 11.0103 15.7759 10.8778 15.6782 10.7802C15.5805 10.6825 15.448 10.6276 15.3099 10.6276H12.6016ZM4.16406 11.0443C4.16406 10.8785 4.22991 10.7195 4.34712 10.6023C4.46433 10.4851 4.6233 10.4193 4.78906 10.4193H7.70573C7.87149 10.4193 8.03046 10.4851 8.14767 10.6023C8.26488 10.7195 8.33073 10.8785 8.33073 11.0443V11.6693C8.33073 11.6693 8.33073 13.1276 6.2474 13.1276C4.16406 13.1276 4.16406 11.6693 4.16406 11.6693V11.0443ZM9.10865 12.0901C9.07485 12.2318 9.02755 12.3699 8.9674 12.5026H9.58073C9.91225 12.5026 10.2302 12.3709 10.4646 12.1365C10.699 11.9021 10.8307 11.5841 10.8307 11.2526V11.0443C10.8307 10.8785 10.7649 10.7195 10.6477 10.6023C10.5305 10.4851 10.3715 10.4193 10.2057 10.4193H9.02365C9.11365 10.6089 9.16406 10.8205 9.16406 11.0443V11.6926C9.16323 11.734 9.16045 11.7753 9.15573 11.8164C9.14613 11.9085 9.1304 12 9.10865 12.0901ZM1.66406 5.9401C1.66406 5.24944 1.93843 4.58706 2.42681 4.09868C2.91518 3.6103 3.57756 3.33594 4.26823 3.33594H15.7266C16.4172 3.33594 17.0796 3.6103 17.568 4.09868C18.0564 4.58706 18.3307 5.24944 18.3307 5.9401V14.0651C18.3307 14.7558 18.0564 15.4182 17.568 15.9065C17.0796 16.3949 16.4172 16.6693 15.7266 16.6693H4.26823C3.57756 16.6693 2.91518 16.3949 2.42681 15.9065C1.93843 15.4182 1.66406 14.7558 1.66406 14.0651V5.9401ZM4.26823 4.3776C3.85383 4.3776 3.4564 4.54222 3.16337 4.83525C2.87035 5.12828 2.70573 5.5257 2.70573 5.9401V14.0651C2.70573 14.4795 2.87035 14.8769 3.16337 15.17C3.4564 15.463 3.85383 15.6276 4.26823 15.6276H15.7266C16.141 15.6276 16.5384 15.463 16.8314 15.17C17.1244 14.8769 17.2891 14.4795 17.2891 14.0651V5.9401C17.2891 5.5257 17.1244 5.12828 16.8314 4.83525C16.5384 4.54222 16.141 4.3776 15.7266 4.3776H4.26823Z" fill="#8F4300" fill-opacity="1"/>
</svg>
