<svg width="17" height="18" viewBox="0 0 17 18" fill="none" xmlns="http://www.w3.org/2000/svg">
<path d="M5.8724 0.570312V4.66198H4.20573V0.570312C1.83906 0.970312 0.0390625 3.02031 0.0390625 5.49531C0.0390625 7.34531 1.0474 8.95364 2.53906 9.82031V17.162C2.53906 17.6203 2.91406 17.9953 3.3724 17.9953H6.70573C7.16406 17.9953 7.53906 17.6203 7.53906 17.162V9.82031C9.03073 8.95364 10.0391 7.34531 10.0391 5.49531C10.0391 3.02031 8.23906 0.970312 5.8724 0.570312ZM6.70573 8.37865L5.8724 8.86198V16.3286H4.20573V8.86198L3.3724 8.37865C2.3474 7.77865 1.70573 6.67865 1.70573 5.49531C1.70573 4.66198 2.01406 3.87865 2.53906 3.28698V6.32865H7.53906V3.28698C8.06406 3.87865 8.3724 4.66198 8.3724 5.49531C8.3724 6.67865 7.73073 7.77865 6.70573 8.37865ZM15.8224 14.612C15.8564 14.3659 15.8564 14.1164 15.8224 13.8703L16.6307 13.262C16.6676 13.2351 16.6932 13.1955 16.7025 13.1508C16.7117 13.1061 16.704 13.0596 16.6807 13.0203L15.9141 11.7203C15.8724 11.637 15.7641 11.6036 15.6724 11.637L14.7141 12.012C14.5141 11.8703 14.3057 11.7453 14.0641 11.6453L13.9224 10.6536C13.9137 10.6091 13.8899 10.569 13.8549 10.5402C13.82 10.5113 13.7761 10.4954 13.7307 10.4953H12.1891C12.0891 10.4953 12.0057 10.562 11.9891 10.6536L11.8474 11.6453C11.6057 11.7453 11.3974 11.8703 11.1974 12.012L10.2391 11.637C10.1557 11.6036 10.0391 11.637 10.0057 11.7203L9.23073 13.0203C9.18073 13.1036 9.20573 13.2036 9.28073 13.262L10.0891 13.8703C10.0807 13.9953 10.0641 14.1203 10.0641 14.2453C10.0641 14.3703 10.0807 14.487 10.0891 14.612L9.28073 15.2286C9.24381 15.2555 9.21823 15.2951 9.20898 15.3398C9.19973 15.3845 9.20749 15.431 9.23073 15.4703L10.0057 16.7703C10.0391 16.8536 10.1557 16.8786 10.2391 16.8536L11.1974 16.4703C11.3974 16.6203 11.6057 16.7453 11.8474 16.8453L11.9891 17.837C12.0057 17.9286 12.0891 17.9953 12.1891 17.9953H13.7307C13.8224 17.9953 13.9057 17.9286 13.9224 17.837L14.0641 16.8453C14.3057 16.7453 14.5141 16.6203 14.7141 16.4703L15.6724 16.8536C15.7641 16.8786 15.8724 16.8536 15.9141 16.7703L16.6807 15.4703C16.704 15.431 16.7117 15.3845 16.7025 15.3398C16.6932 15.2951 16.6676 15.2555 16.6307 15.2286L15.8224 14.612ZM12.9557 15.4953C12.2641 15.4953 11.7057 14.937 11.7057 14.2453C11.7057 13.5536 12.2641 12.9953 12.9557 12.9953C13.6474 12.9953 14.2057 13.5536 14.2057 14.2453C14.2057 14.937 13.6474 15.4953 12.9557 15.4953Z" fill="#9C4900" fill-opacity="0.3"/>
</svg>
