<svg width="18" height="19" viewBox="0 0 18 19" fill="none" xmlns="http://www.w3.org/2000/svg">
<path d="M6.2474 0.984375V5.07604H4.58073V0.984375C2.21406 1.38437 0.414062 3.43437 0.414062 5.90937C0.414062 7.75937 1.4224 9.36771 2.91406 10.2344V17.576C2.91406 18.0344 3.28906 18.4094 3.7474 18.4094H7.08073C7.53906 18.4094 7.91406 18.0344 7.91406 17.576V10.2344C9.40573 9.36771 10.4141 7.75937 10.4141 5.90937C10.4141 3.43437 8.61406 1.38437 6.2474 0.984375ZM7.08073 8.79271L6.2474 9.27604V16.7427H4.58073V9.27604L3.7474 8.79271C2.7224 8.19271 2.08073 7.09271 2.08073 5.90937C2.08073 5.07604 2.38906 4.29271 2.91406 3.70104V6.74271H7.91406V3.70104C8.43906 4.29271 8.7474 5.07604 8.7474 5.90937C8.7474 7.09271 8.10573 8.19271 7.08073 8.79271ZM16.1974 15.026C16.2314 14.78 16.2314 14.5304 16.1974 14.2844L17.0057 13.676C17.0426 13.6492 17.0682 13.6096 17.0775 13.5649C17.0867 13.5202 17.079 13.4737 17.0557 13.4344L16.2891 12.1344C16.2474 12.051 16.1391 12.0177 16.0474 12.051L15.0891 12.426C14.8891 12.2844 14.6807 12.1594 14.4391 12.0594L14.2974 11.0677C14.2887 11.0232 14.2649 10.9831 14.2299 10.9542C14.195 10.9254 14.1511 10.9095 14.1057 10.9094H12.5641C12.4641 10.9094 12.3807 10.976 12.3641 11.0677L12.2224 12.0594C11.9807 12.1594 11.7724 12.2844 11.5724 12.426L10.6141 12.051C10.5307 12.0177 10.4141 12.051 10.3807 12.1344L9.60573 13.4344C9.55573 13.5177 9.58073 13.6177 9.65573 13.676L10.4641 14.2844C10.4557 14.4094 10.4391 14.5344 10.4391 14.6594C10.4391 14.7844 10.4557 14.901 10.4641 15.026L9.65573 15.6427C9.61881 15.6695 9.59323 15.7092 9.58398 15.7539C9.57473 15.7986 9.58249 15.8451 9.60573 15.8844L10.3807 17.1844C10.4141 17.2677 10.5307 17.2927 10.6141 17.2677L11.5724 16.8844C11.7724 17.0344 11.9807 17.1594 12.2224 17.2594L12.3641 18.251C12.3807 18.3427 12.4641 18.4094 12.5641 18.4094H14.1057C14.1974 18.4094 14.2807 18.3427 14.2974 18.251L14.4391 17.2594C14.6807 17.1594 14.8891 17.0344 15.0891 16.8844L16.0474 17.2677C16.1391 17.2927 16.2474 17.2677 16.2891 17.1844L17.0557 15.8844C17.079 15.8451 17.0867 15.7986 17.0775 15.7539C17.0682 15.7092 17.0426 15.6695 17.0057 15.6427L16.1974 15.026ZM13.3307 15.9094C12.6391 15.9094 12.0807 15.351 12.0807 14.6594C12.0807 13.9677 12.6391 13.4094 13.3307 13.4094C14.0224 13.4094 14.5807 13.9677 14.5807 14.6594C14.5807 15.351 14.0224 15.9094 13.3307 15.9094Z" fill="#9C4900"/>
</svg>
