<svg width="21" height="21" viewBox="0 0 21 21" fill="none" xmlns="http://www.w3.org/2000/svg">
<path d="M14.0138 8.62362C13.8487 8.62376 13.6886 8.56768 13.5597 8.46462C12.9737 7.99527 12.4869 7.4139 12.1279 6.75444C11.7689 6.09497 11.5448 5.37061 11.4688 4.62362C11.4688 3.94852 11.7369 3.30106 12.2143 2.82368C12.6917 2.34631 13.3391 2.07813 14.0142 2.07812C14.6894 2.07813 15.3368 2.34631 15.8142 2.82368C16.2916 3.30106 16.5597 3.94852 16.5597 4.62362C16.4837 5.37061 16.2596 6.09497 15.9006 6.75444C15.5416 7.4139 15.0548 7.99527 14.4688 8.46462C14.3399 8.56768 14.1798 8.62376 14.0147 8.62362H14.0138ZM14.0138 3.53262C13.7245 3.53289 13.4471 3.64792 13.2426 3.85246C13.038 4.05701 12.923 4.33435 12.9227 4.62362C13.0038 5.4854 13.3908 6.28965 14.0138 6.89062C14.6369 6.28939 15.024 5.48475 15.1047 4.62262C15.1045 4.33335 14.9895 4.05601 14.7849 3.85146C14.5804 3.64692 14.303 3.53189 14.0138 3.53162V3.53262Z" fill="#9C4900"/>
<path d="M6.01375 18.0767C5.84875 18.0769 5.68862 18.0208 5.55975 17.9178C4.97367 17.4484 4.48693 16.867 4.12792 16.2076C3.76892 15.5481 3.54483 14.8237 3.46875 14.0767C3.46875 13.4016 3.73694 12.7542 4.21431 12.2768C4.69168 11.7994 5.33914 11.5312 6.01425 11.5312C6.68936 11.5312 7.33682 11.7994 7.81419 12.2768C8.29156 12.7542 8.55975 13.4016 8.55975 14.0767C8.48367 14.8237 8.25958 15.5481 7.90058 16.2076C7.54157 16.867 7.05483 17.4484 6.46875 17.9178C6.33988 18.0208 6.17975 18.0769 6.01475 18.0767H6.01375ZM6.01375 12.9857C5.72448 12.986 5.44713 13.101 5.24259 13.3056C5.03804 13.5101 4.92301 13.7875 4.92275 14.0767C5.00238 14.9406 5.38953 15.7472 6.01375 16.3497C6.6369 15.7485 7.02396 14.9439 7.10475 14.0817C7.10449 13.7925 6.98946 13.5151 6.78491 13.3106C6.58037 13.106 6.30302 12.991 6.01375 12.9907V12.9857Z" fill="#9C4900"/>
<path d="M13.2842 15.8938H10.0112C9.81828 15.8938 9.63324 15.8172 9.49681 15.6807C9.36038 15.5443 9.28373 15.3593 9.28373 15.1663C9.28373 14.9734 9.36038 14.7883 9.49681 14.6519C9.63324 14.5155 9.81828 14.4388 10.0112 14.4388H13.2842C13.7664 14.4388 14.2288 14.2473 14.5697 13.9063C14.9107 13.5654 15.1022 13.103 15.1022 12.6208C15.1022 12.1386 14.9107 11.6762 14.5697 11.3353C14.2288 10.9944 13.7664 10.8028 13.2842 10.8028H6.73923C5.88122 10.7878 5.06341 10.4364 4.46194 9.82436C3.86046 9.21228 3.52344 8.38846 3.52344 7.53031C3.52344 6.67217 3.86046 5.84835 4.46194 5.23627C5.06341 4.62419 5.88122 4.27281 6.73923 4.25781H9.64823C9.84117 4.25781 10.0262 4.33446 10.1626 4.47089C10.2991 4.60733 10.3757 4.79237 10.3757 4.98531C10.3757 5.17826 10.2991 5.3633 10.1626 5.49973C10.0262 5.63617 9.84117 5.71281 9.64823 5.71281H6.73923C6.25707 5.71281 5.79465 5.90435 5.45371 6.24529C5.11277 6.58623 4.92123 7.04865 4.92123 7.53081C4.92123 8.01298 5.11277 8.47539 5.45371 8.81633C5.79465 9.15727 6.25707 9.34881 6.73923 9.34881H13.2842C14.1422 9.36381 14.96 9.71519 15.5615 10.3273C16.163 10.9393 16.5 11.7632 16.5 12.6213C16.5 13.4795 16.163 14.3033 15.5615 14.9154C14.96 15.5274 14.1422 15.8788 13.2842 15.8938Z" fill="#9C4900"/>
</svg>
