<svg width="21" height="21" viewBox="0 0 21 21" fill="none" xmlns="http://www.w3.org/2000/svg">
<path d="M14.67 8.62362C14.505 8.62376 14.3449 8.56768 14.216 8.46462C13.6299 7.99527 13.1432 7.4139 12.7842 6.75444C12.4252 6.09497 12.2011 5.37061 12.125 4.62362C12.125 3.94852 12.3932 3.30106 12.8706 2.82368C13.3479 2.34631 13.9954 2.07813 14.6705 2.07812C15.3456 2.07813 15.9931 2.34631 16.4704 2.82368C16.9478 3.30106 17.216 3.94852 17.216 4.62362C17.1399 5.37061 16.9158 6.09497 16.5568 6.75444C16.1978 7.4139 15.7111 7.99527 15.125 8.46462C14.9961 8.56768 14.836 8.62376 14.671 8.62362H14.67ZM14.67 3.53262C14.3807 3.53289 14.1034 3.64792 13.8988 3.85246C13.6943 4.05701 13.5793 4.33435 13.579 4.62362C13.66 5.4854 14.0471 6.28965 14.67 6.89062C15.2931 6.28939 15.6802 5.48475 15.761 4.62262C15.7607 4.33335 15.6457 4.05601 15.4412 3.85146C15.2366 3.64692 14.9593 3.53189 14.67 3.53162V3.53262Z" fill="#9C4900" fill-opacity="0.3"/>
<path d="M6.67 18.0767C6.505 18.0769 6.34487 18.0208 6.216 17.9178C5.62992 17.4484 5.14318 16.867 4.78417 16.2076C4.42517 15.5481 4.20108 14.8237 4.125 14.0767C4.125 13.4016 4.39319 12.7542 4.87056 12.2768C5.34793 11.7994 5.99539 11.5312 6.6705 11.5312C7.34561 11.5312 7.99307 11.7994 8.47044 12.2768C8.94781 12.7542 9.216 13.4016 9.216 14.0767C9.13992 14.8237 8.91583 15.5481 8.55683 16.2076C8.19782 16.867 7.71108 17.4484 7.125 17.9178C6.99613 18.0208 6.836 18.0769 6.671 18.0767H6.67ZM6.67 12.9857C6.38073 12.986 6.10338 13.101 5.89884 13.3056C5.69429 13.5101 5.57926 13.7875 5.579 14.0767C5.65863 14.9406 6.04578 15.7472 6.67 16.3497C7.29315 15.7485 7.68021 14.9439 7.761 14.0817C7.76074 13.7925 7.64571 13.5151 7.44116 13.3106C7.23662 13.106 6.95927 12.991 6.67 12.9907V12.9857Z" fill="#9C4900" fill-opacity="0.3"/>
<path d="M13.9405 15.8938H10.6675C10.4745 15.8938 10.2895 15.8172 10.1531 15.6807C10.0166 15.5443 9.93998 15.3593 9.93998 15.1663C9.93998 14.9734 10.0166 14.7883 10.1531 14.6519C10.2895 14.5155 10.4745 14.4388 10.6675 14.4388H13.9405C14.4226 14.4388 14.8851 14.2473 15.226 13.9063C15.5669 13.5654 15.7585 13.103 15.7585 12.6208C15.7585 12.1386 15.5669 11.6762 15.226 11.3353C14.8851 10.9944 14.4226 10.8028 13.9405 10.8028H7.39548C6.53747 10.7878 5.71966 10.4364 5.11819 9.82436C4.51671 9.21228 4.17969 8.38846 4.17969 7.53031C4.17969 6.67217 4.51671 5.84835 5.11819 5.23627C5.71966 4.62419 6.53747 4.27281 7.39548 4.25781H10.3045C10.4974 4.25781 10.6825 4.33446 10.8189 4.47089C10.9553 4.60733 11.032 4.79237 11.032 4.98531C11.032 5.17826 10.9553 5.3633 10.8189 5.49973C10.6825 5.63617 10.4974 5.71281 10.3045 5.71281H7.39548C6.91332 5.71281 6.4509 5.90435 6.10996 6.24529C5.76902 6.58623 5.57748 7.04865 5.57748 7.53081C5.57748 8.01298 5.76902 8.47539 6.10996 8.81633C6.4509 9.15727 6.91332 9.34881 7.39548 9.34881H13.9405C14.7985 9.36381 15.6163 9.71519 16.2178 10.3273C16.8192 10.9393 17.1563 11.7632 17.1563 12.6213C17.1563 13.4795 16.8192 14.3033 16.2178 14.9154C15.6163 15.5274 14.7985 15.8788 13.9405 15.8938Z" fill="#9C4900" fill-opacity="0.3"/>
</svg>
