<svg width="21" height="21" viewBox="0 0 21 21" fill="none" xmlns="http://www.w3.org/2000/svg">
<g clip-path="url(#clip0_2372_5114)">
<path d="M14.4141 1.83594V0.585938H6.91406V1.83594H4.41406V3.08594H3.16406V20.5859H18.1641V19.3359H19.4141V1.83594H14.4141ZM8.16406 1.83594H13.1641V4.33594H8.16406V1.83594ZM16.9141 19.3359H4.41406V4.33594H6.91406V5.58594H14.4141V4.33594H16.9141V19.3359Z" fill="#9C4900" fill-opacity="0.3"/>
<path d="M10.6641 8.08594C7.53906 8.08594 9.03906 12.0859 9.03906 12.0859C9.41406 12.5859 9.91406 12.5859 9.91406 12.8359C9.91406 13.2109 9.53906 13.2109 9.16406 13.3359C8.53906 13.4609 8.03906 13.2109 7.41406 14.3359C7.03906 14.8359 6.91406 16.8359 6.91406 16.8359H14.4141C14.4141 16.8359 14.2891 14.8359 13.9141 14.3359C13.4141 13.3359 12.7891 13.4609 12.1641 13.3359C11.7891 13.3359 11.4141 13.2109 11.4141 12.8359C11.4141 12.4609 11.7891 12.5859 12.1641 12.0859C12.2891 12.0859 13.7891 8.08594 10.6641 8.08594Z" fill="#9C4900" fill-opacity="0.3"/>
</g>
<defs>
<clipPath id="clip0_2372_5114">
<rect width="20" height="20" fill="white" transform="translate(0.664062 0.585938)"/>
</clipPath>
</defs>
</svg>
