<svg width="21" height="21" viewBox="0 0 21 21" fill="none" xmlns="http://www.w3.org/2000/svg">
<g clip-path="url(#clip0_464_2292)">
<path d="M13.4766 13.9195C14.055 13.3555 14.4522 12.6319 14.6173 11.8411C14.7825 11.0502 14.7081 10.2281 14.4037 9.47982C14.0993 8.73149 13.5786 8.09092 12.9083 7.63995C12.238 7.18899 11.4485 6.94812 10.6406 6.94812C9.83275 6.94812 9.04322 7.18899 8.37292 7.63995C7.70262 8.09092 7.182 8.73149 6.87758 9.47982C6.57316 10.2281 6.49877 11.0502 6.66391 11.8411C6.82905 12.6319 7.22623 13.3555 7.80469 13.9195C6.71477 14.507 5.8374 15.4227 5.29688 16.5366C5.18706 16.7604 5.17064 17.0187 5.25122 17.2545C5.3318 17.4904 5.50279 17.6846 5.72657 17.7945C5.95034 17.9043 6.20858 17.9207 6.44446 17.8401C6.68035 17.7595 6.87456 17.5886 6.98438 17.3648C7.31704 16.6779 7.83644 16.0987 8.48308 15.6934C9.12973 15.288 9.87746 15.0731 10.6406 15.0731C11.4038 15.0731 12.1515 15.288 12.7982 15.6934C13.4448 16.0987 13.9642 16.6779 14.2969 17.3648C14.3744 17.5223 14.4946 17.6548 14.6438 17.7474C14.7929 17.8399 14.9651 17.8887 15.1406 17.8882C15.2813 17.8871 15.42 17.8551 15.5469 17.7945C15.6586 17.741 15.7586 17.666 15.8411 17.5737C15.9237 17.4814 15.9871 17.3737 16.0278 17.2567C16.0685 17.1398 16.0856 17.0159 16.0781 16.8924C16.0707 16.7688 16.0388 16.6479 15.9844 16.5366C15.4439 15.4227 14.5665 14.507 13.4766 13.9195ZM8.45313 11.0132C8.45313 10.5806 8.58142 10.1576 8.82179 9.7979C9.06215 9.43817 9.4038 9.15779 9.80351 8.99223C10.2032 8.82666 10.6431 8.78334 11.0674 8.86775C11.4917 8.95215 11.8815 9.16049 12.1874 9.46642C12.4934 9.77235 12.7017 10.1621 12.7861 10.5865C12.8705 11.0108 12.8272 11.4506 12.6616 11.8503C12.496 12.25 12.2157 12.5917 11.8559 12.8321C11.4962 13.0724 11.0733 13.2007 10.6406 13.2007C10.0611 13.1987 9.5059 12.9675 9.09611 12.5577C8.68632 12.1479 8.45519 11.5927 8.45313 11.0132ZM20.2656 11.7632C20.0667 11.9124 19.8167 11.9765 19.5705 11.9413C19.3244 11.9061 19.1023 11.7746 18.9531 11.5757C18.6595 11.1802 18.2899 10.8473 17.866 10.5965C17.4421 10.3456 16.9724 10.1819 16.4844 10.1148C16.2992 10.0871 16.1266 10.0045 15.9887 9.87782C15.8509 9.75111 15.7541 9.58603 15.7109 9.40384C15.6945 9.36871 15.6814 9.33208 15.6719 9.29446C15.6402 9.17544 15.6325 9.05131 15.6492 8.92928C15.666 8.80725 15.7068 8.68977 15.7693 8.58364C15.8318 8.47752 15.9148 8.38488 16.0134 8.31109C16.112 8.23731 16.2243 8.18386 16.3438 8.15384C16.5975 8.08735 16.8305 7.95802 17.0212 7.77779C17.2118 7.59755 17.354 7.37221 17.4346 7.12255C17.5153 6.87289 17.5317 6.60694 17.4825 6.34924C17.4333 6.09154 17.32 5.85038 17.153 5.648C16.9861 5.44563 16.7708 5.28855 16.5272 5.19126C16.2835 5.09397 16.0193 5.0596 15.7589 5.09131C15.4984 5.12303 15.2502 5.21981 15.037 5.37274C14.8238 5.52566 14.6526 5.72981 14.5391 5.96634C14.4925 6.0868 14.4216 6.19635 14.3308 6.28812C14.2399 6.37989 14.1311 6.4519 14.0111 6.49964C13.8911 6.54737 13.7625 6.5698 13.6334 6.56551C13.5044 6.56123 13.3776 6.53033 13.261 6.47474C13.1445 6.41916 13.0406 6.34009 12.9561 6.2425C12.8715 6.14491 12.808 6.0309 12.7695 5.90761C12.7311 5.78433 12.7185 5.65443 12.7327 5.52607C12.7468 5.3977 12.7873 5.27364 12.8516 5.16165C13.0608 4.71985 13.3618 4.32776 13.7346 4.01153C14.1073 3.69529 14.5432 3.4622 15.0132 3.3278C15.4832 3.1934 15.9764 3.16078 16.46 3.23212C16.9436 3.30346 17.4064 3.47712 17.8176 3.74152C18.2288 4.00591 18.5788 4.35495 18.8443 4.76535C19.1099 5.17576 19.2849 5.63808 19.3576 6.12146C19.4303 6.60485 19.3991 7.09819 19.266 7.56855C19.133 8.03892 18.9011 8.4755 18.5859 8.84915C19.3202 9.23675 19.9583 9.78402 20.4531 10.4507C20.527 10.5492 20.5807 10.6613 20.6113 10.7805C20.6419 10.8998 20.6486 11.0239 20.6312 11.1458C20.6138 11.2677 20.5725 11.3849 20.5098 11.4909C20.4471 11.5968 20.3641 11.6893 20.2656 11.7632ZM4.79688 10.1148C4.3089 10.1819 3.8392 10.3456 3.41529 10.5965C2.99139 10.8473 2.62178 11.1802 2.32813 11.5757C2.23998 11.6913 2.12657 11.7851 1.99658 11.8501C1.86659 11.9151 1.72346 11.9495 1.57813 11.9507C1.37546 11.9496 1.17843 11.8839 1.01563 11.7632C0.816716 11.614 0.685214 11.3919 0.650051 11.1458C0.614888 10.8997 0.678945 10.6496 0.828129 10.4507C1.32301 9.78402 1.96105 9.23675 2.69532 8.84915C2.38014 8.4755 2.14829 8.03892 2.01522 7.56855C1.88216 7.09819 1.85094 6.60485 1.92366 6.12146C1.99637 5.63808 2.17135 5.17576 2.43691 4.76535C2.70247 4.35495 3.0525 4.00591 3.46366 3.74152C3.87481 3.47712 4.33763 3.30346 4.82122 3.23212C5.30481 3.16078 5.79806 3.1934 6.26804 3.3278C6.73803 3.4622 7.17395 3.69529 7.5467 4.01153C7.91946 4.32776 8.22049 4.71985 8.42969 5.16165C8.494 5.27364 8.53448 5.3977 8.5486 5.52607C8.56271 5.65443 8.55015 5.78433 8.51171 5.90761C8.47327 6.0309 8.40977 6.14491 8.32519 6.2425C8.24062 6.34009 8.1368 6.41916 8.02023 6.47474C7.90367 6.53033 7.77688 6.56123 7.64781 6.56551C7.51874 6.5698 7.39018 6.54737 7.27019 6.49964C7.1502 6.4519 7.04136 6.37989 6.9505 6.28812C6.85964 6.19635 6.78872 6.0868 6.74219 5.96634C6.62868 5.72981 6.45744 5.52566 6.24426 5.37274C6.03108 5.21981 5.78282 5.12303 5.52239 5.09131C5.26195 5.0596 4.99773 5.09397 4.75407 5.19126C4.51042 5.28855 4.29519 5.44563 4.12823 5.648C3.96127 5.85038 3.84795 6.09154 3.79874 6.34924C3.74952 6.60694 3.76599 6.87289 3.84662 7.12255C3.92725 7.37221 4.06945 7.59755 4.2601 7.77779C4.45075 7.95802 4.68371 8.08735 4.9375 8.15384C5.05696 8.18386 5.16925 8.23731 5.26787 8.31109C5.36649 8.38488 5.44947 8.47752 5.51198 8.58364C5.57449 8.68977 5.61529 8.80725 5.63201 8.92928C5.64873 9.05131 5.64104 9.17544 5.60938 9.29446C5.59987 9.33208 5.58679 9.36871 5.57032 9.40384C5.52713 9.58603 5.43038 9.75111 5.29253 9.87782C5.15468 10.0045 4.98205 10.0871 4.79688 10.1148Z" fill="#9C4900" fill-opacity="0.3"/>
</g>
<defs>
<clipPath id="clip0_464_2292">
<rect width="20" height="20" fill="white" transform="translate(0.640625 0.078125)"/>
</clipPath>
</defs>
</svg>
