<svg width="21" height="21" viewBox="0 0 21 21" fill="none" xmlns="http://www.w3.org/2000/svg">
<g clip-path="url(#clip0_464_2407)">
<path d="M13.1953 13.9195C13.7738 13.3555 14.171 12.6319 14.3361 11.8411C14.5012 11.0502 14.4268 10.2281 14.1224 9.47982C13.818 8.73149 13.2974 8.09092 12.6271 7.63995C11.9568 7.18899 11.1673 6.94812 10.3594 6.94812C9.5515 6.94812 8.76197 7.18899 8.09167 7.63995C7.42137 8.09092 6.90075 8.73149 6.59633 9.47982C6.29191 10.2281 6.21752 11.0502 6.38266 11.8411C6.5478 12.6319 6.94498 13.3555 7.52344 13.9195C6.43352 14.507 5.55615 15.4227 5.01563 16.5366C4.90581 16.7604 4.88939 17.0187 4.96997 17.2545C5.05055 17.4904 5.22154 17.6846 5.44532 17.7945C5.66909 17.9043 5.92733 17.9207 6.16321 17.8401C6.3991 17.7595 6.59331 17.5886 6.70313 17.3648C7.03579 16.6779 7.55519 16.0987 8.20183 15.6934C8.84848 15.288 9.59621 15.0731 10.3594 15.0731C11.1225 15.0731 11.8703 15.288 12.5169 15.6934C13.1636 16.0987 13.683 16.6779 14.0156 17.3648C14.0932 17.5223 14.2133 17.6548 14.3625 17.7474C14.5117 17.8399 14.6838 17.8887 14.8594 17.8882C15 17.8871 15.1387 17.8551 15.2656 17.7945C15.3773 17.741 15.4773 17.666 15.5599 17.5737C15.6424 17.4814 15.7058 17.3737 15.7465 17.2567C15.7872 17.1398 15.8043 17.0159 15.7969 16.8924C15.7894 16.7688 15.7576 16.6479 15.7031 16.5366C15.1626 15.4227 14.2852 14.507 13.1953 13.9195ZM8.17188 11.0132C8.17188 10.5806 8.30017 10.1576 8.54054 9.7979C8.7809 9.43817 9.12255 9.15779 9.52226 8.99223C9.92197 8.82666 10.3618 8.78334 10.7861 8.86775C11.2105 8.95215 11.6002 9.16049 11.9062 9.46642C12.2121 9.77235 12.4204 10.1621 12.5048 10.5865C12.5893 11.0108 12.5459 11.4506 12.3804 11.8503C12.2148 12.25 11.9344 12.5917 11.5747 12.8321C11.215 13.0724 10.792 13.2007 10.3594 13.2007C9.77985 13.1987 9.22465 12.9675 8.81486 12.5577C8.40507 12.1479 8.17394 11.5927 8.17188 11.0132ZM19.9844 11.7632C19.7855 11.9124 19.5354 11.9765 19.2893 11.9413C19.0432 11.9061 18.8211 11.7746 18.6719 11.5757C18.3782 11.1802 18.0086 10.8473 17.5847 10.5965C17.1608 10.3456 16.6911 10.1819 16.2031 10.1148C16.018 10.0871 15.8453 10.0045 15.7075 9.87782C15.5696 9.75111 15.4729 9.58603 15.4297 9.40384C15.4132 9.36871 15.4001 9.33208 15.3906 9.29446C15.359 9.17544 15.3513 9.05131 15.368 8.92928C15.3847 8.80725 15.4255 8.68977 15.488 8.58364C15.5505 8.47752 15.6335 8.38488 15.7321 8.31109C15.8308 8.23731 15.9431 8.18386 16.0625 8.15384C16.3163 8.08735 16.5493 7.95802 16.7399 7.77779C16.9306 7.59755 17.0728 7.37221 17.1534 7.12255C17.234 6.87289 17.2505 6.60694 17.2013 6.34924C17.1521 6.09154 17.0387 5.85038 16.8718 5.648C16.7048 5.44563 16.4896 5.28855 16.2459 5.19126C16.0023 5.09397 15.7381 5.0596 15.4776 5.09131C15.2172 5.12303 14.9689 5.21981 14.7557 5.37274C14.5426 5.52566 14.3713 5.72981 14.2578 5.96634C14.2113 6.0868 14.1404 6.19635 14.0495 6.28812C13.9586 6.37989 13.8498 6.4519 13.7298 6.49964C13.6098 6.54737 13.4813 6.5698 13.3522 6.56551C13.2231 6.56123 13.0963 6.53033 12.9798 6.47474C12.8632 6.41916 12.7594 6.34009 12.6748 6.2425C12.5902 6.14491 12.5267 6.0309 12.4883 5.90761C12.4499 5.78433 12.4373 5.65443 12.4514 5.52607C12.4655 5.3977 12.506 5.27364 12.5703 5.16165C12.7795 4.71985 13.0805 4.32776 13.4533 4.01153C13.8261 3.69529 14.262 3.4622 14.732 3.3278C15.202 3.1934 15.6952 3.16078 16.1788 3.23212C16.6624 3.30346 17.1252 3.47712 17.5364 3.74152C17.9475 4.00591 18.2975 4.35495 18.5631 4.76535C18.8287 5.17576 19.0036 5.63808 19.0764 6.12146C19.1491 6.60485 19.1179 7.09819 18.9848 7.56855C18.8517 8.03892 18.6199 8.4755 18.3047 8.84915C19.039 9.23675 19.677 9.78402 20.1719 10.4507C20.2457 10.5492 20.2995 10.6613 20.33 10.7805C20.3606 10.8998 20.3674 11.0239 20.35 11.1458C20.3325 11.2677 20.2913 11.3849 20.2286 11.4909C20.1658 11.5968 20.0829 11.6893 19.9844 11.7632ZM4.51563 10.1148C4.02765 10.1819 3.55795 10.3456 3.13404 10.5965C2.71014 10.8473 2.34053 11.1802 2.04688 11.5757C1.95873 11.6913 1.84532 11.7851 1.71533 11.8501C1.58534 11.9151 1.44221 11.9495 1.29688 11.9507C1.09421 11.9496 0.897175 11.8839 0.734379 11.7632C0.535466 11.614 0.403964 11.3919 0.368801 11.1458C0.333638 10.8997 0.397695 10.6496 0.546879 10.4507C1.04176 9.78402 1.6798 9.23675 2.41407 8.84915C2.09889 8.4755 1.86704 8.03892 1.73397 7.56855C1.60091 7.09819 1.56969 6.60485 1.64241 6.12146C1.71512 5.63808 1.8901 5.17576 2.15566 4.76535C2.42122 4.35495 2.77125 4.00591 3.18241 3.74152C3.59356 3.47712 4.05638 3.30346 4.53997 3.23212C5.02356 3.16078 5.51681 3.1934 5.98679 3.3278C6.45678 3.4622 6.8927 3.69529 7.26545 4.01153C7.63821 4.32776 7.93924 4.71985 8.14844 5.16165C8.21275 5.27364 8.25323 5.3977 8.26735 5.52607C8.28146 5.65443 8.2689 5.78433 8.23046 5.90761C8.19202 6.0309 8.12852 6.14491 8.04394 6.2425C7.95937 6.34009 7.85555 6.41916 7.73898 6.47474C7.62242 6.53033 7.49563 6.56123 7.36656 6.56551C7.23749 6.5698 7.10893 6.54737 6.98894 6.49964C6.86895 6.4519 6.76011 6.37989 6.66925 6.28812C6.57839 6.19635 6.50747 6.0868 6.46094 5.96634C6.34743 5.72981 6.17619 5.52566 5.96301 5.37274C5.74983 5.21981 5.50157 5.12303 5.24114 5.09131C4.9807 5.0596 4.71648 5.09397 4.47282 5.19126C4.22917 5.28855 4.01394 5.44563 3.84698 5.648C3.68002 5.85038 3.5667 6.09154 3.51749 6.34924C3.46827 6.60694 3.48474 6.87289 3.56537 7.12255C3.646 7.37221 3.7882 7.59755 3.97885 7.77779C4.1695 7.95802 4.40246 8.08735 4.65625 8.15384C4.77571 8.18386 4.888 8.23731 4.98662 8.31109C5.08524 8.38488 5.16822 8.47752 5.23073 8.58364C5.29324 8.68977 5.33404 8.80725 5.35076 8.92928C5.36748 9.05131 5.35979 9.17544 5.32813 9.29446C5.31862 9.33208 5.30554 9.36871 5.28907 9.40384C5.24588 9.58603 5.14913 9.75111 5.01128 9.87782C4.87343 10.0045 4.7008 10.0871 4.51563 10.1148Z" fill="#9C4900"/>
</g>
<defs>
<clipPath id="clip0_464_2407">
<rect width="20" height="20" fill="white" transform="translate(0.359375 0.078125)"/>
</clipPath>
</defs>
</svg>
