<svg width="21" height="21" viewBox="0 0 21 21" fill="none" xmlns="http://www.w3.org/2000/svg">
<g clip-path="url(#clip0_464_2651)">
<path d="M4.00521 16.7474C3.7691 16.7474 3.57132 16.6674 3.41188 16.5074C3.25188 16.348 3.17188 16.1502 3.17188 15.9141V9.2474L4.92187 4.2474C5.00521 3.9974 5.15465 3.79601 5.37021 3.64323C5.58521 3.49045 5.82465 3.41406 6.08854 3.41406H10.0885C10.0052 3.67795 9.94271 3.94878 9.90104 4.22656C9.85937 4.50434 9.83854 4.78906 9.83854 5.08073H6.38021L5.50521 7.58073H10.401C10.5538 7.90017 10.7308 8.19878 10.9319 8.47656C11.1335 8.75434 11.3594 9.01128 11.6094 9.2474H4.83854V13.4141H16.5052V10.8516C16.7969 10.8099 17.0816 10.7474 17.3594 10.6641C17.6372 10.5807 17.908 10.4766 18.1719 10.3516V15.9141C18.1719 16.1502 18.0919 16.348 17.9319 16.5074C17.7724 16.6674 17.5747 16.7474 17.3385 16.7474H16.5052C16.2691 16.7474 16.0713 16.6674 15.9119 16.5074C15.7519 16.348 15.6719 16.1502 15.6719 15.9141V15.0807H5.67188V15.9141C5.67188 16.1502 5.59215 16.348 5.43271 16.5074C5.27271 16.6674 5.07465 16.7474 4.83854 16.7474H4.00521ZM6.92188 12.5807C7.2691 12.5807 7.5641 12.4591 7.80688 12.2157C8.05021 11.973 8.17188 11.678 8.17188 11.3307C8.17188 10.9835 8.05021 10.6885 7.80688 10.4457C7.5641 10.2024 7.2691 10.0807 6.92188 10.0807C6.57465 10.0807 6.27965 10.2024 6.03688 10.4457C5.79354 10.6885 5.67188 10.9835 5.67188 11.3307C5.67188 11.678 5.79354 11.973 6.03688 12.2157C6.27965 12.4591 6.57465 12.5807 6.92188 12.5807ZM14.4219 12.5807C14.7691 12.5807 15.0641 12.4591 15.3069 12.2157C15.5502 11.973 15.6719 11.678 15.6719 11.3307C15.6719 11.2613 15.6685 11.1918 15.6619 11.1224C15.6547 11.053 15.6372 10.9835 15.6094 10.9141C15.2344 10.9141 14.8699 10.8793 14.516 10.8099C14.1616 10.7405 13.8247 10.6363 13.5052 10.4974C13.3941 10.6085 13.3108 10.7368 13.2552 10.8824C13.1997 11.0285 13.1719 11.178 13.1719 11.3307C13.1719 11.678 13.2935 11.973 13.5369 12.2157C13.7797 12.4591 14.0747 12.5807 14.4219 12.5807Z" fill="#9C4900"/>
<path d="M15.4792 1.03125C14.6551 1.03125 13.8495 1.27562 13.1643 1.73346C12.4791 2.1913 11.945 2.84204 11.6297 3.6034C11.3143 4.36476 11.2318 5.20254 11.3926 6.01079C11.5533 6.81905 11.9502 7.56147 12.5329 8.14419C13.1156 8.72691 13.858 9.12375 14.6663 9.28452C15.4745 9.44529 16.3123 9.36278 17.0737 9.04741C17.835 8.73205 18.4858 8.198 18.9436 7.51279C19.4015 6.82759 19.6458 6.022 19.6458 5.19792C19.6448 4.09316 19.2055 3.03395 18.4243 2.25277C17.6431 1.47159 16.5839 1.03227 15.4792 1.03125ZM15.4792 8.43866C14.8382 8.43866 14.2116 8.24859 13.6787 7.89249C13.1458 7.5364 12.7304 7.03026 12.4851 6.43809C12.2398 5.84593 12.1757 5.19432 12.3007 4.56568C12.4257 3.93704 12.7344 3.35959 13.1876 2.90637C13.6408 2.45314 14.2183 2.14449 14.8469 2.01945C15.4756 1.8944 16.1272 1.95858 16.7193 2.20386C17.3115 2.44915 17.8176 2.86452 18.1737 3.39746C18.5298 3.93039 18.7199 4.55696 18.7199 5.19792C18.7189 6.0571 18.3771 6.8808 17.7696 7.48834C17.1621 8.09587 16.3384 8.43763 15.4792 8.43866ZM17.1767 5.96952C17.1757 6.29664 17.0453 6.61006 16.814 6.84137C16.5827 7.07267 16.2692 7.20307 15.9421 7.20409V7.35841C15.9421 7.48119 15.8934 7.59895 15.8065 7.68577C15.7197 7.7726 15.602 7.82137 15.4792 7.82137C15.3564 7.82137 15.2386 7.7726 15.1518 7.68577C15.065 7.59895 15.0162 7.48119 15.0162 7.35841V7.20409H14.5532C14.4305 7.20409 14.3127 7.15531 14.2259 7.06849C14.1391 6.98167 14.0903 6.86391 14.0903 6.74113C14.0903 6.61834 14.1391 6.50058 14.2259 6.41376C14.3127 6.32694 14.4305 6.27816 14.5532 6.27816H15.9421C16.024 6.27816 16.1025 6.24565 16.1604 6.18776C16.2183 6.12988 16.2508 6.05138 16.2508 5.96952C16.2508 5.88766 16.2183 5.80916 16.1604 5.75128C16.1025 5.6934 16.024 5.66088 15.9421 5.66088H15.0162C14.6888 5.66088 14.3748 5.53081 14.1432 5.29928C13.9117 5.06776 13.7816 4.75374 13.7816 4.42631C13.7816 4.09888 13.9117 3.78487 14.1432 3.55334C14.3748 3.32181 14.6888 3.19174 15.0162 3.19174V3.03742C15.0162 2.91464 15.065 2.79688 15.1518 2.71006C15.2386 2.62324 15.3564 2.57446 15.4792 2.57446C15.602 2.57446 15.7197 2.62324 15.8065 2.71006C15.8934 2.79688 15.9421 2.91464 15.9421 3.03742V3.19174H16.4051C16.5279 3.19174 16.6456 3.24052 16.7325 3.32734C16.8193 3.41416 16.8681 3.53192 16.8681 3.65471C16.8681 3.77749 16.8193 3.89525 16.7325 3.98207C16.6456 4.06889 16.5279 4.11767 16.4051 4.11767H15.0162C14.9343 4.11767 14.8558 4.15019 14.798 4.20807C14.7401 4.26595 14.7076 4.34445 14.7076 4.42631C14.7076 4.50817 14.7401 4.58667 14.798 4.64455C14.8558 4.70244 14.9343 4.73495 15.0162 4.73495H15.9421C16.2692 4.73597 16.5827 4.86637 16.814 5.09767C17.0453 5.32898 17.1757 5.64241 17.1767 5.96952Z" fill="#9C4900"/>
</g>
<defs>
<clipPath id="clip0_464_2651">
<rect width="20" height="20" fill="white" transform="translate(0.671875 0.078125)"/>
</clipPath>
</defs>
</svg>
