<svg width="21" height="21" viewBox="0 0 21 21" fill="none" xmlns="http://www.w3.org/2000/svg">
<g clip-path="url(#clip0_464_2530)">
<path d="M3.34896 16.7474C3.11285 16.7474 2.91507 16.6674 2.75563 16.5074C2.59563 16.348 2.51562 16.1502 2.51562 15.9141V9.2474L4.26562 4.2474C4.34896 3.9974 4.4984 3.79601 4.71396 3.64323C4.92896 3.49045 5.1684 3.41406 5.43229 3.41406H9.43229C9.34896 3.67795 9.28646 3.94878 9.24479 4.22656C9.20312 4.50434 9.18229 4.78906 9.18229 5.08073H5.72396L4.84896 7.58073H9.74479C9.89757 7.90017 10.0745 8.19878 10.2756 8.47656C10.4773 8.75434 10.7031 9.01128 10.9531 9.2474H4.18229V13.4141H15.849V10.8516C16.1406 10.8099 16.4253 10.7474 16.7031 10.6641C16.9809 10.5807 17.2517 10.4766 17.5156 10.3516V15.9141C17.5156 16.1502 17.4356 16.348 17.2756 16.5074C17.1162 16.6674 16.9184 16.7474 16.6823 16.7474H15.849C15.6128 16.7474 15.4151 16.6674 15.2556 16.5074C15.0956 16.348 15.0156 16.1502 15.0156 15.9141V15.0807H5.01562V15.9141C5.01562 16.1502 4.9359 16.348 4.77646 16.5074C4.61646 16.6674 4.4184 16.7474 4.18229 16.7474H3.34896ZM6.26562 12.5807C6.61285 12.5807 6.90785 12.4591 7.15063 12.2157C7.39396 11.973 7.51562 11.678 7.51562 11.3307C7.51562 10.9835 7.39396 10.6885 7.15063 10.4457C6.90785 10.2024 6.61285 10.0807 6.26562 10.0807C5.9184 10.0807 5.6234 10.2024 5.38063 10.4457C5.13729 10.6885 5.01562 10.9835 5.01562 11.3307C5.01562 11.678 5.13729 11.973 5.38063 12.2157C5.6234 12.4591 5.9184 12.5807 6.26562 12.5807ZM13.7656 12.5807C14.1128 12.5807 14.4078 12.4591 14.6506 12.2157C14.894 11.973 15.0156 11.678 15.0156 11.3307C15.0156 11.2613 15.0123 11.1918 15.0056 11.1224C14.9984 11.053 14.9809 10.9835 14.9531 10.9141C14.5781 10.9141 14.2137 10.8793 13.8598 10.8099C13.5053 10.7405 13.1684 10.6363 12.849 10.4974C12.7378 10.6085 12.6545 10.7368 12.599 10.8824C12.5434 11.0285 12.5156 11.178 12.5156 11.3307C12.5156 11.678 12.6373 11.973 12.8806 12.2157C13.1234 12.4591 13.4184 12.5807 13.7656 12.5807Z" fill="#9C4900" fill-opacity="0.3"/>
<path d="M14.8229 1.03125C13.9988 1.03125 13.1932 1.27562 12.508 1.73346C11.8228 2.1913 11.2888 2.84204 10.9734 3.6034C10.6581 4.36476 10.5755 5.20254 10.7363 6.01079C10.8971 6.81905 11.2939 7.56147 11.8766 8.14419C12.4594 8.72691 13.2018 9.12375 14.01 9.28452C14.8183 9.44529 15.6561 9.36278 16.4174 9.04741C17.1788 8.73205 17.8295 8.198 18.2874 7.51279C18.7452 6.82759 18.9896 6.022 18.9896 5.19792C18.9886 4.09316 18.5492 3.03395 17.7681 2.25277C16.9869 1.47159 15.9277 1.03227 14.8229 1.03125ZM14.8229 8.43866C14.182 8.43866 13.5554 8.24859 13.0225 7.89249C12.4895 7.5364 12.0741 7.03026 11.8289 6.43809C11.5836 5.84593 11.5194 5.19432 11.6444 4.56568C11.7695 3.93704 12.0781 3.35959 12.5314 2.90637C12.9846 2.45314 13.562 2.14449 14.1907 2.01945C14.8193 1.8944 15.4709 1.95858 16.0631 2.20386C16.6553 2.44915 17.1614 2.86452 17.5175 3.39746C17.8736 3.93039 18.0637 4.55696 18.0637 5.19792C18.0626 6.0571 17.7209 6.8808 17.1133 7.48834C16.5058 8.09587 15.6821 8.43763 14.8229 8.43866ZM16.5204 5.96952C16.5194 6.29664 16.389 6.61006 16.1577 6.84137C15.9264 7.07267 15.613 7.20307 15.2859 7.20409V7.35841C15.2859 7.48119 15.2371 7.59895 15.1503 7.68577C15.0635 7.7726 14.9457 7.82137 14.8229 7.82137C14.7001 7.82137 14.5824 7.7726 14.4956 7.68577C14.4087 7.59895 14.36 7.48119 14.36 7.35841V7.20409H13.897C13.7742 7.20409 13.6565 7.15531 13.5696 7.06849C13.4828 6.98167 13.434 6.86391 13.434 6.74113C13.434 6.61834 13.4828 6.50058 13.5696 6.41376C13.6565 6.32694 13.7742 6.27816 13.897 6.27816H15.2859C15.3677 6.27816 15.4462 6.24565 15.5041 6.18776C15.562 6.12988 15.5945 6.05138 15.5945 5.96952C15.5945 5.88766 15.562 5.80916 15.5041 5.75128C15.4462 5.6934 15.3677 5.66088 15.2859 5.66088H14.36C14.0325 5.66088 13.7185 5.53081 13.487 5.29928C13.2555 5.06776 13.1254 4.75374 13.1254 4.42631C13.1254 4.09888 13.2555 3.78487 13.487 3.55334C13.7185 3.32181 14.0325 3.19174 14.36 3.19174V3.03742C14.36 2.91464 14.4087 2.79688 14.4956 2.71006C14.5824 2.62324 14.7001 2.57446 14.8229 2.57446C14.9457 2.57446 15.0635 2.62324 15.1503 2.71006C15.2371 2.79688 15.2859 2.91464 15.2859 3.03742V3.19174H15.7488C15.8716 3.19174 15.9894 3.24052 16.0762 3.32734C16.163 3.41416 16.2118 3.53192 16.2118 3.65471C16.2118 3.77749 16.163 3.89525 16.0762 3.98207C15.9894 4.06889 15.8716 4.11767 15.7488 4.11767H14.36C14.2781 4.11767 14.1996 4.15019 14.1417 4.20807C14.0838 4.26595 14.0513 4.34445 14.0513 4.42631C14.0513 4.50817 14.0838 4.58667 14.1417 4.64455C14.1996 4.70244 14.2781 4.73495 14.36 4.73495H15.2859C15.613 4.73597 15.9264 4.86637 16.1577 5.09767C16.389 5.32898 16.5194 5.64241 16.5204 5.96952Z" fill="#9C4900" fill-opacity="0.3"/>
</g>
<defs>
<clipPath id="clip0_464_2530">
<rect width="20" height="20" fill="white" transform="translate(0.015625 0.078125)"/>
</clipPath>
</defs>
</svg>
