<svg width="49" height="80" viewBox="0 0 49 80" fill="none" xmlns="http://www.w3.org/2000/svg">
<g filter="url(#filter0_d_30_6498)">
<path d="M32.9036 37.8512C25.3057 38.3794 17.6804 38.3794 10.0826 37.8512C9.27645 37.7957 8.62323 37.4135 8.62323 37.0104V17.4416C8.62323 17.0385 9.27645 16.7119 10.0895 16.7119H32.8966C33.7097 16.7119 34.3699 17.0385 34.3699 17.4416V37.0104C34.3699 37.4135 33.7166 37.7957 32.9036 37.8512Z" fill="#0595B5"/>
<path d="M25.8779 30.5408C25.8015 30.4087 25.9127 30.2489 26.0308 30.0821C26.0656 30.0335 26.1281 29.9431 26.1559 29.8945C26.0881 29.8733 26.0182 29.8593 25.9474 29.8528C25.739 29.8528 25.5444 29.7833 25.5027 29.6235C25.461 29.4636 25.6 29.3455 25.7459 29.2135L25.9057 29.0536C25.8426 29.024 25.7776 28.9985 25.7112 28.9772C25.5166 28.9147 25.329 28.8521 25.3081 28.6923C25.2873 28.5325 25.4402 28.4282 25.6 28.3101C25.6627 28.2671 25.7231 28.2207 25.7807 28.1711L25.5861 28.0808C25.3985 27.9904 25.2247 27.914 25.2178 27.7541C25.2108 27.5943 25.3707 27.504 25.5444 27.3997L25.732 27.2816L25.5513 27.1774C25.3707 27.0731 25.1969 26.9828 25.2039 26.823C25.2108 26.6631 25.3776 26.5867 25.5583 26.4963L25.7459 26.3921C25.6909 26.3465 25.6329 26.3047 25.5722 26.267C25.3985 26.1628 25.2386 26.0585 25.2456 25.8987C25.2525 25.7389 25.4332 25.6694 25.6208 25.586L25.8154 25.4957C25.7601 25.4483 25.7021 25.4043 25.6417 25.3636C25.4749 25.2525 25.322 25.1413 25.3429 24.9814C25.3637 24.8216 25.5444 24.7591 25.732 24.6896L25.9266 24.6131C25.8766 24.5632 25.8232 24.5167 25.7668 24.4741C25.6069 24.3491 25.4541 24.2309 25.4818 24.078C25.5096 23.9252 25.6973 23.8626 25.8918 23.807L26.0864 23.7375C26.039 23.6831 25.9879 23.6321 25.9335 23.5846C25.7807 23.4526 25.6347 23.3275 25.6764 23.1816C25.7181 23.0357 25.8988 22.9801 26.1003 22.9314L26.2949 22.8689C26.2503 22.8121 26.2015 22.7586 26.149 22.7091C26.01 22.5701 25.871 22.4311 25.9196 22.2852C25.9683 22.1392 26.1629 22.1045 26.3644 22.0697L26.5659 22.028C26.5659 21.9794 26.4756 21.903 26.4339 21.8474C26.2949 21.6875 26.1837 21.5555 26.2393 21.4096C26.2949 21.2636 26.5034 21.2497 26.7118 21.2358C26.7928 21.2417 26.8741 21.2417 26.9551 21.2358L27.1705 21.3748C27.1079 21.5069 26.9273 21.5208 26.7257 21.5277H26.5173C26.5173 21.5763 26.6007 21.6389 26.6354 21.6875C26.7674 21.8404 26.8925 21.9863 26.8369 22.1323C26.7813 22.2782 26.6146 22.306 26.413 22.3408C26.3423 22.3473 26.2724 22.3612 26.2046 22.3824L26.3366 22.5284C26.4825 22.6743 26.6146 22.8063 26.5798 22.9592C26.5451 23.1121 26.3644 23.1469 26.1629 23.1955C26.0944 23.2089 26.027 23.2275 25.9613 23.2511C26.0064 23.3032 26.0552 23.3519 26.1073 23.397C26.2601 23.5291 26.3991 23.6541 26.3713 23.807C26.3435 23.9599 26.1698 24.0085 25.9683 24.0641L25.7737 24.1336L25.9266 24.2657C26.0864 24.3908 26.2393 24.5089 26.2115 24.6618C26.1837 24.8147 26.01 24.8772 25.8224 24.9467L25.6347 25.0301L25.8015 25.1552C25.9613 25.2733 26.1142 25.3775 26.1003 25.5304C26.0864 25.6833 25.9127 25.7597 25.7251 25.8431C25.6593 25.8661 25.5964 25.8964 25.5374 25.9335L25.7112 26.0516C25.8849 26.1558 26.0447 26.2601 26.0378 26.406C26.0308 26.5519 25.8571 26.6492 25.6764 26.7396L25.4957 26.8369L25.6764 26.948C25.8502 27.0453 26.0169 27.1357 26.0169 27.2816C26.0169 27.4275 25.8571 27.5318 25.6834 27.636L25.5096 27.7472L25.6973 27.8445C25.8849 27.9279 26.0517 28.0043 26.0656 28.1502C26.0795 28.2962 25.9196 28.4143 25.7598 28.5325C25.7023 28.5685 25.6488 28.6104 25.6 28.6575C25.6631 28.6872 25.7281 28.7127 25.7946 28.734C25.9891 28.7965 26.1559 28.8521 26.1837 28.998C26.2115 29.144 26.0795 29.276 25.9266 29.415C25.8849 29.4567 25.8154 29.5192 25.7807 29.5609H25.9961C26.1907 29.5609 26.3644 29.6165 26.42 29.7555C26.4756 29.8945 26.3644 30.0474 26.2462 30.2141C26.1982 30.2772 26.1564 30.3447 26.1212 30.4157C26.1249 30.4044 26.1249 30.3922 26.1212 30.3809L25.8779 30.5408Z" fill="#0092ED"/>
<path d="M17.122 30.5407L16.8927 30.4086C16.8905 30.4201 16.8905 30.4319 16.8927 30.4434C16.8575 30.3724 16.8156 30.3049 16.7676 30.2418C16.6495 30.0751 16.5383 29.9222 16.5939 29.7832C16.6495 29.6442 16.8163 29.6164 17.0178 29.5886L17.2263 29.5469L17.0873 29.4079C16.9344 29.269 16.7954 29.1439 16.8232 28.991C16.851 28.8381 17.0247 28.7895 17.2124 28.7269C17.2814 28.7067 17.3488 28.6811 17.4139 28.6505C17.3637 28.6049 17.3103 28.5631 17.2541 28.5254C17.0873 28.4073 16.9344 28.2961 16.9483 28.1432C16.9622 27.9903 17.122 27.9208 17.3097 27.8374L17.4973 27.7401L17.3305 27.629C17.1568 27.5247 16.99 27.4344 16.99 27.2745C16.99 27.1147 17.1568 27.0383 17.3305 26.941L17.5181 26.8298L17.3305 26.7325C17.1568 26.6422 16.983 26.5518 16.9761 26.3989C16.9692 26.2461 17.129 26.1488 17.2958 26.0445L17.4695 25.9264C17.4105 25.8894 17.3476 25.8591 17.2819 25.8361C17.1012 25.7527 16.9275 25.6762 16.9066 25.5234C16.8858 25.3705 17.0525 25.2662 17.2124 25.1481L17.3792 25.023L17.1846 24.9396C16.9969 24.8701 16.8232 24.8076 16.7954 24.6547C16.7676 24.5018 16.9205 24.3837 17.0803 24.2586C17.1367 24.2184 17.1901 24.1743 17.2402 24.1266L17.0456 24.0571C16.8441 24.0015 16.6703 23.9459 16.6425 23.8C16.6147 23.654 16.7537 23.522 16.9066 23.39C16.9587 23.3449 17.0074 23.2961 17.0525 23.244L16.851 23.1884C16.6495 23.1398 16.4758 23.0981 16.4341 22.9522C16.3924 22.8062 16.5314 22.6673 16.6703 22.5213L16.8093 22.3754C16.7415 22.3542 16.6716 22.3402 16.6008 22.3337C16.3993 22.3337 16.2256 22.2642 16.17 22.1252C16.1144 21.9862 16.2464 21.8334 16.3715 21.6805C16.4197 21.6283 16.4639 21.5726 16.5036 21.5137H16.2812C16.0797 21.5137 15.9059 21.5137 15.8434 21.3608L16.0797 21.2427C16.1606 21.2489 16.2419 21.2489 16.3229 21.2427C16.5314 21.2427 16.7259 21.2427 16.7885 21.4164C16.851 21.5901 16.7329 21.6944 16.6008 21.8542L16.4619 22.0349L16.6703 22.0766C16.8719 22.1113 17.0595 22.1391 17.1081 22.292C17.1568 22.4449 17.0247 22.5769 16.8788 22.7159L16.7329 22.8757L16.9344 22.9383C17.1359 22.9869 17.3236 23.0356 17.3583 23.1884C17.3931 23.3413 17.2541 23.4595 17.1012 23.5915C17.0446 23.6388 16.9912 23.6899 16.9414 23.7444L17.1429 23.8139C17.3375 23.8695 17.5181 23.932 17.5529 24.0849C17.5876 24.2378 17.4278 24.3559 17.268 24.481C17.2101 24.5218 17.1566 24.5683 17.1081 24.62L17.3027 24.6964C17.4903 24.7659 17.671 24.8354 17.6919 24.9883C17.7127 25.1412 17.5529 25.2593 17.3861 25.3705C17.3375 25.4122 17.261 25.4608 17.2193 25.5025C17.2815 25.5381 17.3466 25.5683 17.4139 25.5928C17.5946 25.6762 17.7753 25.7527 17.7822 25.9056C17.7892 26.0584 17.6363 26.1696 17.4625 26.2739C17.4007 26.3099 17.3426 26.3518 17.2888 26.3989L17.4764 26.5032C17.6571 26.5935 17.8239 26.6769 17.8308 26.8298C17.8378 26.9827 17.6641 27.08 17.4834 27.1842C17.42 27.2133 17.3596 27.2481 17.3027 27.2884C17.3608 27.331 17.4211 27.3704 17.4834 27.4066C17.6571 27.5108 17.8239 27.6081 17.817 27.761C17.81 27.9139 17.6293 27.9973 17.4417 28.0876L17.2541 28.1779C17.2958 28.2196 17.3792 28.2752 17.4278 28.3169C17.5946 28.4351 17.7475 28.5462 17.7266 28.6991C17.7058 28.852 17.5181 28.9215 17.3236 28.984C17.2567 29.0041 17.1916 29.0297 17.129 29.0605C17.1787 29.1172 17.2321 29.1706 17.2888 29.2203C17.4347 29.3523 17.5737 29.4844 17.532 29.6303C17.4903 29.7762 17.2888 29.8249 17.0803 29.8596C17.0119 29.8661 16.9443 29.8801 16.8788 29.9013C16.9131 29.9685 16.9551 30.0314 17.0039 30.089C17.0942 30.2488 17.2054 30.4086 17.122 30.5407Z" fill="#E84646"/>
<path d="M37.2051 2.34814C37.5774 2.34814 37.8792 2.04635 37.8792 1.67407C37.8792 1.30179 37.5774 1 37.2051 1C36.8329 1 36.5311 1.30179 36.5311 1.67407C36.5311 2.04635 36.8329 2.34814 37.2051 2.34814Z" fill="#102030"/>
<path d="M35.6832 3.76582L35.3566 3.4809L37.212 1.32666L38.2196 2.62616L37.8722 2.89718L37.1911 2.02158L35.6832 3.76582Z" fill="#102030"/>
<path d="M41.1522 2.75833H38.0529C37.9425 2.75833 37.8331 2.78009 37.7311 2.82234C37.6291 2.8646 37.5364 2.92653 37.4583 3.00461C37.3802 3.08269 37.3183 3.17539 37.276 3.27741C37.2338 3.37942 37.212 3.48876 37.212 3.59918V4.7319H42V3.59918C42 3.48817 41.978 3.37827 41.9353 3.27579C41.8927 3.17332 41.8301 3.08032 41.7513 3.00215C41.6725 2.92398 41.5789 2.86218 41.4761 2.82034C41.3733 2.77849 41.2632 2.75741 41.1522 2.75833Z" fill="#0B7087"/>
<path d="M5.78796 2.34814C6.16024 2.34814 6.46203 2.04635 6.46203 1.67407C6.46203 1.30179 6.16024 1 5.78796 1C5.41568 1 5.11389 1.30179 5.11389 1.67407C5.11389 2.04635 5.41568 2.34814 5.78796 2.34814Z" fill="#102030"/>
<path d="M7.30287 3.76582L5.7949 2.02158L5.12083 2.89718L4.77338 2.62616L5.781 1.32666L7.63643 3.4809L7.30287 3.76582Z" fill="#102030"/>
<path d="M1.84085 2.7583H4.94712C5.05754 2.7583 5.16688 2.78006 5.2689 2.82231C5.37091 2.86457 5.46361 2.9265 5.54169 3.00458C5.61977 3.08266 5.68171 3.17536 5.72397 3.27738C5.76622 3.37939 5.78797 3.48873 5.78797 3.59915V4.73187H1V3.59915C1 3.48873 1.02175 3.37939 1.064 3.27738C1.10626 3.17536 1.1682 3.08266 1.24628 3.00458C1.32436 2.9265 1.41705 2.86457 1.51907 2.82231C1.62109 2.78006 1.73043 2.7583 1.84085 2.7583Z" fill="#0B7087"/>
<path d="M35.3774 23.6545H7.61557C7.39256 23.6545 7.17869 23.5659 7.021 23.4082C6.86331 23.2505 6.77472 23.0366 6.77472 22.8136V3.07802C6.77965 2.84768 6.86733 2.62683 7.02173 2.45584C7.17614 2.28485 7.38693 2.17516 7.61557 2.14683C16.8562 1.18543 26.1716 1.18543 35.4122 2.14683C35.6408 2.17516 35.8516 2.28485 36.006 2.45584C36.1604 2.62683 36.2481 2.84768 36.253 3.07802V22.7789C36.258 22.8952 36.2387 23.0112 36.1964 23.1197C36.1542 23.2281 36.0898 23.3266 36.0075 23.4089C35.9252 23.4913 35.8267 23.5556 35.7183 23.5978C35.6098 23.6401 35.4937 23.6594 35.3774 23.6545Z" fill="#0B7087"/>
<path d="M33.2927 6.17725H9.70028C9.2359 6.17725 8.85944 6.5537 8.85944 7.01809V22.7718C8.85944 23.2362 9.2359 23.6127 9.70028 23.6127H33.2927C33.7571 23.6127 34.1335 23.2362 34.1335 22.7718V7.01809C34.1335 6.5537 33.7571 6.17725 33.2927 6.17725Z" fill="#00CAF6"/>
<path d="M34.7659 3.23767L34.3003 5.49614C34.2582 5.69587 34.1477 5.87462 33.9878 6.00151C33.8279 6.12839 33.6288 6.19544 33.4247 6.19106H9.35282C9.14909 6.19411 8.95058 6.12657 8.79098 5.99991C8.63138 5.87324 8.52053 5.69524 8.47723 5.49614L8.01858 3.23767C7.99672 3.11207 8.00323 2.98318 8.03763 2.86042C8.07203 2.73767 8.13346 2.62416 8.21741 2.52822C8.30136 2.43228 8.4057 2.35633 8.5228 2.30594C8.6399 2.25555 8.76679 2.23199 8.89418 2.23699H33.9111C34.0364 2.23636 34.1603 2.26306 34.2742 2.31522C34.3882 2.36738 34.4893 2.44376 34.5707 2.53902C34.6521 2.63428 34.7117 2.74614 34.7454 2.86681C34.7791 2.98747 34.7861 3.11402 34.7659 3.23767Z" fill="#2CA3E8"/>
<g style="mix-blend-mode:overlay">
<path d="M23.1817 2.23699H8.86641C8.73902 2.23199 8.61213 2.25555 8.49503 2.30594C8.37793 2.35633 8.27358 2.43228 8.18963 2.52822C8.10569 2.62416 8.04426 2.73767 8.00986 2.86042C7.97546 2.98318 7.96895 3.11207 7.99081 3.23767L8.44946 5.49614C8.49275 5.69524 8.60361 5.87324 8.76321 5.99991C8.92281 6.12657 9.12132 6.19411 9.32505 6.19106H19.2137L23.1817 2.23699Z" fill="#2CA3E8"/>
</g>
<g style="mix-blend-mode:overlay">
<path d="M32.7507 2.23682H27.8793L23.9322 6.177H28.8036L32.7507 2.23682Z" fill="#2CA3E8"/>
</g>
<path d="M8.16458 21.7573H7.42102V22.5982H8.16458V21.7573Z" fill="#004358"/>
<path d="M6.78168 5.3291L7.94219 6.37842C8.01417 6.44339 8.07177 6.52271 8.11126 6.61127C8.15076 6.69984 8.17128 6.79569 8.17151 6.89266V15.6972C8.17151 15.8815 8.0983 16.0583 7.96797 16.1886C7.83765 16.3189 7.6609 16.3922 7.47659 16.3922C7.29229 16.3922 7.11553 16.3189 6.98521 16.1886C6.85489 16.0583 6.78168 15.8815 6.78168 15.6972V5.3291Z" fill="#2CA3E8"/>
<path d="M35.5651 21.7573H34.8215V22.5982H35.5651V21.7573Z" fill="#004358"/>
<path d="M8.16458 20.2632H7.42102V21.104H8.16458V20.2632Z" fill="#004358"/>
<path d="M35.5651 20.2632H34.8215V21.104H35.5651V20.2632Z" fill="#004358"/>
<path d="M8.16458 18.7622H7.42102V19.603H8.16458V18.7622Z" fill="#004358"/>
<path d="M35.5651 18.7622H34.8215V19.603H35.5651V18.7622Z" fill="#004358"/>
<path d="M36.2183 5.3291L35.0508 6.37842C34.9789 6.44339 34.9213 6.52271 34.8818 6.61127C34.8423 6.69984 34.8218 6.79569 34.8215 6.89266V15.6972C34.8215 15.8815 34.8947 16.0583 35.0251 16.1886C35.1554 16.3189 35.3321 16.3922 35.5164 16.3922C35.7008 16.3922 35.8775 16.3189 36.0078 16.1886C36.1382 16.0583 36.2114 15.8815 36.2114 15.6972L36.2183 5.3291Z" fill="#2CA3E8"/>
<path d="M37.9626 33.6821V69.6023C37.9487 70.1197 37.7553 70.6162 37.4155 71.0067C37.0757 71.3972 36.6108 71.6574 36.1002 71.7427C34.4324 71.965 32.7577 72.1526 31.0899 72.3125C29.9294 72.4237 28.7758 72.521 27.6153 72.5835C24.8356 72.7642 22.056 72.8198 19.2763 72.7503C18.1158 72.7503 16.9692 72.6877 15.8017 72.6113C12.8136 72.4445 9.82545 72.1318 6.85816 71.7427C6.34691 71.6576 5.88104 71.3977 5.54012 71.0073C5.19919 70.617 5.00433 70.1204 4.98883 69.6023V33.6821C5.0375 33.0768 5.22446 32.4908 5.53529 31.9691C5.84612 31.4474 6.27255 31.0041 6.78171 30.6731C11.2366 27.9981 16.335 26.585 21.5313 26.585C26.7276 26.585 31.826 27.9981 36.2809 30.6731C36.7705 31.0148 37.1763 31.4631 37.4676 31.9843C37.7589 32.5055 37.9281 33.086 37.9626 33.6821Z" fill="#00CAF6"/>
<path d="M36.8924 34.8078V69.6022C36.8809 69.8633 36.7811 70.1126 36.6095 70.3096C36.4378 70.5065 36.2043 70.6393 35.9473 70.6863C34.3907 70.8948 32.7576 71.0824 30.9856 71.2492C29.6931 71.3743 28.602 71.4577 27.5597 71.5202C25.5652 71.6453 23.5361 71.7078 21.5417 71.7078C20.7981 71.7078 20.0615 71.7078 19.3319 71.7078C18.1088 71.7078 16.99 71.6453 15.9059 71.5758C13.1958 71.4229 10.298 71.138 7.0388 70.7141C6.86686 70.6826 6.70432 70.6124 6.56347 70.5089C6.42262 70.4054 6.30713 70.2712 6.22575 70.1165C6.14261 69.9676 6.09727 69.8006 6.09372 69.63V34.8078C6.09197 34.6726 6.11554 34.5383 6.16321 34.4117C6.23912 34.209 6.37473 34.034 6.55215 33.9099C6.72957 33.7859 6.94045 33.7185 7.15694 33.7168H35.8292C35.9706 33.7186 36.1103 33.7483 36.2403 33.8041C36.3703 33.8599 36.488 33.9408 36.5868 34.0421C36.6855 34.1434 36.7633 34.2632 36.8157 34.3945C36.8682 34.5259 36.8942 34.6664 36.8924 34.8078Z" fill="#0595B5"/>
<path d="M27.518 21.6392H29.6722C29.768 21.6392 29.86 21.6772 29.9277 21.745C29.9955 21.8128 30.0336 21.9047 30.0336 22.0005C30.0336 22.0963 29.9955 22.1883 29.9277 22.256C29.86 22.3238 29.768 22.3619 29.6722 22.3619H27.518C27.4221 22.3619 27.3302 22.3238 27.2625 22.256C27.1947 22.1883 27.1566 22.0963 27.1566 22.0005C27.1566 21.9047 27.1947 21.8128 27.2625 21.745C27.3302 21.6772 27.4221 21.6392 27.518 21.6392Z" fill="#004358"/>
<path d="M24.1546 21.6392H26.3158C26.4116 21.6392 26.5035 21.6772 26.5713 21.745C26.6391 21.8128 26.6771 21.9047 26.6771 22.0005C26.6771 22.0963 26.6391 22.1883 26.5713 22.256C26.5035 22.3238 26.4116 22.3619 26.3158 22.3619H24.1546C24.1074 22.3619 24.0608 22.3525 24.0173 22.3342C23.9739 22.316 23.9345 22.2893 23.9015 22.2556C23.8685 22.222 23.8425 22.1821 23.8251 22.1383C23.8077 22.0945 23.7993 22.0476 23.8002 22.0005C23.8002 21.9059 23.8373 21.815 23.9035 21.7474C23.9698 21.6799 24.06 21.641 24.1546 21.6392Z" fill="#004358"/>
<path d="M27.518 20.3188H29.6722C29.768 20.3188 29.86 20.3569 29.9277 20.4247C29.9955 20.4925 30.0336 20.5844 30.0336 20.6802C30.0336 20.776 29.9955 20.868 29.9277 20.9357C29.86 21.0035 29.768 21.0416 29.6722 21.0416H27.518C27.4221 21.0416 27.3302 21.0035 27.2625 20.9357C27.1947 20.868 27.1566 20.776 27.1566 20.6802C27.1566 20.5844 27.1947 20.4925 27.2625 20.4247C27.3302 20.3569 27.4221 20.3188 27.518 20.3188Z" fill="#004358"/>
<path d="M24.1546 20.3188H26.3158C26.4116 20.3188 26.5035 20.3569 26.5713 20.4247C26.6391 20.4925 26.6771 20.5844 26.6771 20.6802C26.6771 20.776 26.6391 20.868 26.5713 20.9357C26.5035 21.0035 26.4116 21.0416 26.3158 21.0416H24.1546C24.1074 21.0416 24.0608 21.0322 24.0173 21.0139C23.9739 20.9957 23.9345 20.969 23.9015 20.9353C23.8685 20.9017 23.8425 20.8618 23.8251 20.818C23.8077 20.7742 23.7993 20.7273 23.8002 20.6802C23.7993 20.6331 23.8077 20.5862 23.8251 20.5424C23.8425 20.4986 23.8685 20.4587 23.9015 20.4251C23.9345 20.3914 23.9739 20.3647 24.0173 20.3465C24.0608 20.3282 24.1074 20.3188 24.1546 20.3188Z" fill="#004358"/>
<path d="M27.518 18.9985H29.6722C29.768 18.9985 29.86 19.0366 29.9277 19.1044C29.9955 19.1721 30.0336 19.2641 30.0336 19.3599C30.0336 19.4557 29.9955 19.5476 29.9277 19.6154C29.86 19.6832 29.768 19.7212 29.6722 19.7212H27.518C27.4221 19.7212 27.3302 19.6832 27.2625 19.6154C27.1947 19.5476 27.1566 19.4557 27.1566 19.3599C27.1566 19.2641 27.1947 19.1721 27.2625 19.1044C27.3302 19.0366 27.4221 18.9985 27.518 18.9985Z" fill="#004358"/>
<path d="M24.1546 18.9985H26.3158C26.4116 18.9985 26.5035 19.0366 26.5713 19.1044C26.6391 19.1721 26.6771 19.2641 26.6771 19.3599C26.6771 19.4557 26.6391 19.5476 26.5713 19.6154C26.5035 19.6832 26.4116 19.7212 26.3158 19.7212H24.1546C24.06 19.7194 23.9698 19.6806 23.9035 19.613C23.8373 19.5454 23.8002 19.4545 23.8002 19.3599C23.7993 19.3128 23.8077 19.2659 23.8251 19.2221C23.8425 19.1783 23.8685 19.1384 23.9015 19.1048C23.9345 19.0711 23.9739 19.0444 24.0173 19.0262C24.0608 19.0079 24.1074 18.9985 24.1546 18.9985Z" fill="#004358"/>
<path d="M15.2666 21.6392H13.1054C13.058 21.6392 13.011 21.6485 12.9671 21.6667C12.9233 21.6848 12.8835 21.7114 12.8499 21.745C12.8164 21.7785 12.7897 21.8184 12.7716 21.8622C12.7534 21.9061 12.7441 21.9531 12.7441 22.0005C12.7441 22.048 12.7534 22.095 12.7716 22.1388C12.7897 22.1826 12.8164 22.2225 12.8499 22.256C12.8835 22.2896 12.9233 22.3162 12.9671 22.3344C13.011 22.3525 13.058 22.3619 13.1054 22.3619H15.2666C15.3138 22.3619 15.3604 22.3525 15.4039 22.3342C15.4473 22.316 15.4867 22.2893 15.5197 22.2556C15.5527 22.222 15.5787 22.1821 15.5961 22.1383C15.6135 22.0945 15.622 22.0476 15.621 22.0005C15.621 21.9059 15.5839 21.815 15.5177 21.7474C15.4514 21.6799 15.3613 21.641 15.2666 21.6392Z" fill="#004358"/>
<path d="M18.5952 21.6392H16.441C16.3452 21.6392 16.2533 21.6772 16.1855 21.745C16.1177 21.8128 16.0797 21.9047 16.0797 22.0005C16.0797 22.0963 16.1177 22.1883 16.1855 22.256C16.2533 22.3238 16.3452 22.3619 16.441 22.3619H18.5952C18.6911 22.3619 18.783 22.3238 18.8508 22.256C18.9185 22.1883 18.9566 22.0963 18.9566 22.0005C18.9566 21.9047 18.9185 21.8128 18.8508 21.745C18.783 21.6772 18.6911 21.6392 18.5952 21.6392Z" fill="#004358"/>
<path d="M15.2666 20.3188H13.1054C13.058 20.3188 13.011 20.3282 12.9671 20.3464C12.9233 20.3645 12.8835 20.3911 12.8499 20.4247C12.8164 20.4582 12.7897 20.4981 12.7716 20.5419C12.7534 20.5858 12.7441 20.6328 12.7441 20.6802C12.7441 20.7277 12.7534 20.7746 12.7716 20.8185C12.7897 20.8623 12.8164 20.9022 12.8499 20.9357C12.8835 20.9693 12.9233 20.9959 12.9671 21.0141C13.011 21.0322 13.058 21.0416 13.1054 21.0416H15.2666C15.3138 21.0416 15.3604 21.0322 15.4039 21.0139C15.4473 20.9957 15.4867 20.969 15.5197 20.9353C15.5527 20.9017 15.5787 20.8618 15.5961 20.818C15.6135 20.7742 15.622 20.7273 15.621 20.6802C15.622 20.6331 15.6135 20.5862 15.5961 20.5424C15.5787 20.4986 15.5527 20.4587 15.5197 20.4251C15.4867 20.3914 15.4473 20.3647 15.4039 20.3465C15.3604 20.3282 15.3138 20.3188 15.2666 20.3188Z" fill="#004358"/>
<path d="M18.5952 20.3188H16.441C16.3452 20.3188 16.2533 20.3569 16.1855 20.4247C16.1177 20.4925 16.0797 20.5844 16.0797 20.6802C16.0797 20.776 16.1177 20.868 16.1855 20.9357C16.2533 21.0035 16.3452 21.0416 16.441 21.0416H18.5952C18.6911 21.0416 18.783 21.0035 18.8508 20.9357C18.9185 20.868 18.9566 20.776 18.9566 20.6802C18.9566 20.5844 18.9185 20.4925 18.8508 20.4247C18.783 20.3569 18.6911 20.3188 18.5952 20.3188Z" fill="#004358"/>
<path d="M15.2666 18.9985H13.1054C13.058 18.9985 13.011 19.0079 12.9671 19.026C12.9233 19.0442 12.8835 19.0708 12.8499 19.1044C12.8164 19.1379 12.7897 19.1778 12.7716 19.2216C12.7534 19.2654 12.7441 19.3124 12.7441 19.3599C12.7441 19.4073 12.7534 19.4543 12.7716 19.4982C12.7897 19.542 12.8164 19.5819 12.8499 19.6154C12.8835 19.649 12.9233 19.6756 12.9671 19.6937C13.011 19.7119 13.058 19.7212 13.1054 19.7212H15.2666C15.3613 19.7194 15.4514 19.6806 15.5177 19.613C15.5839 19.5454 15.621 19.4545 15.621 19.3599C15.622 19.3128 15.6135 19.2659 15.5961 19.2221C15.5787 19.1783 15.5527 19.1384 15.5197 19.1048C15.4867 19.0711 15.4473 19.0444 15.4039 19.0262C15.3604 19.0079 15.3138 18.9985 15.2666 18.9985Z" fill="#004358"/>
<path d="M18.5952 18.9985H16.441C16.3452 18.9985 16.2533 19.0366 16.1855 19.1044C16.1177 19.1721 16.0797 19.2641 16.0797 19.3599C16.0797 19.4557 16.1177 19.5476 16.1855 19.6154C16.2533 19.6832 16.3452 19.7212 16.441 19.7212H18.5952C18.6911 19.7212 18.783 19.6832 18.8508 19.6154C18.9185 19.5476 18.9566 19.4557 18.9566 19.3599C18.9566 19.2641 18.9185 19.1721 18.8508 19.1044C18.783 19.0366 18.6911 18.9985 18.5952 18.9985Z" fill="#004358"/>
<g style="mix-blend-mode:multiply" opacity="0.3">
<path d="M17.2888 18.4978C17.1481 18.496 17.0138 18.4388 16.9149 18.3386C16.8161 18.2385 16.7607 18.1034 16.7607 17.9627V16.2254L13.0915 12.5354C12.9911 12.435 12.9346 12.2988 12.9346 12.1567C12.9346 12.0147 12.9911 11.8784 13.0915 11.778C13.192 11.6775 13.3282 11.6211 13.4702 11.6211C13.6123 11.6211 13.7485 11.6775 13.849 11.778L17.8239 15.7598V17.9349C17.8277 18.0075 17.8166 18.0801 17.7914 18.1482C17.7662 18.2164 17.7274 18.2787 17.6773 18.3314C17.6273 18.3841 17.567 18.426 17.5002 18.4546C17.4334 18.4832 17.3615 18.4979 17.2888 18.4978Z" fill="#583200"/>
</g>
<path d="M14.0505 15.6975H12.89V12.2229C12.89 12.0693 12.9506 11.9218 13.0585 11.8126C13.1665 11.7033 13.3132 11.641 13.4668 11.6392C13.6204 11.641 13.7671 11.7033 13.8751 11.8126C13.983 11.9218 14.0436 12.0693 14.0436 12.2229L14.0505 15.6975Z" fill="#004358"/>
<path d="M12.89 13.6269V15.7116H14.0505V13.6269C14.0505 13.5421 14.0168 13.4608 13.9569 13.4008C13.8969 13.3409 13.8156 13.3072 13.7308 13.3072H13.2096C13.1674 13.3063 13.1254 13.3139 13.0862 13.3296C13.047 13.3453 13.0114 13.3688 12.9815 13.3987C12.9516 13.4286 12.9281 13.4642 12.9124 13.5034C12.8966 13.5426 12.889 13.5846 12.89 13.6269Z" fill="#668E9B"/>
<g style="mix-blend-mode:multiply" opacity="0.3">
<path d="M33.0008 18.4978C32.8589 18.4978 32.7228 18.4414 32.6225 18.3411C32.5221 18.2407 32.4657 18.1046 32.4657 17.9627V16.2254L28.7966 12.5354C28.6961 12.435 28.6397 12.2988 28.6397 12.1567C28.6397 12.0147 28.6961 11.8784 28.7966 11.778C28.897 11.6775 29.0333 11.6211 29.1753 11.6211C29.3174 11.6211 29.4536 11.6775 29.554 11.778L33.5359 15.7598V17.9349C33.5387 18.0073 33.527 18.0794 33.5014 18.1471C33.4759 18.2149 33.437 18.2768 33.3871 18.3293C33.3373 18.3817 33.2774 18.4237 33.211 18.4526C33.1447 18.4816 33.0732 18.4969 33.0008 18.4978Z" fill="#583200"/>
</g>
<path d="M29.7556 15.6975H28.5951V12.2229C28.5969 12.0686 28.659 11.9212 28.7681 11.8121C28.8771 11.703 29.0246 11.641 29.1788 11.6392C29.3324 11.641 29.4791 11.7033 29.5871 11.8126C29.6951 11.9218 29.7556 12.0693 29.7556 12.2229V15.6975Z" fill="#004358"/>
<path d="M28.5951 13.6269V15.7116H29.7556V13.6269C29.7566 13.5846 29.7489 13.5426 29.7332 13.5034C29.7175 13.4642 29.694 13.4286 29.6641 13.3987C29.6342 13.3688 29.5986 13.3453 29.5594 13.3296C29.5202 13.3139 29.4782 13.3063 29.4359 13.3072H28.9148C28.83 13.3072 28.7487 13.3409 28.6887 13.4008C28.6288 13.4608 28.5951 13.5421 28.5951 13.6269Z" fill="#668E9B"/>
<g style="mix-blend-mode:multiply" opacity="0.3">
<path d="M24.4047 9.92285H19.6723C18.5709 9.92285 17.6779 10.8142 17.6779 11.9138C17.6779 13.0133 18.5709 13.9047 19.6723 13.9047H24.4047C25.5062 13.9047 26.3991 13.0133 26.3991 11.9138C26.3991 10.8142 25.5062 9.92285 24.4047 9.92285Z" fill="#583200"/>
</g>
<path d="M23.8697 9.3877H19.1373C18.0358 9.3877 17.1429 10.2806 17.1429 11.3821C17.1429 12.4836 18.0358 13.3765 19.1373 13.3765H23.8697C24.9711 13.3765 25.8641 12.4836 25.8641 11.3821C25.8641 10.2806 24.9711 9.3877 23.8697 9.3877Z" fill="#FFED78"/>
<path d="M23.8697 12.897H19.1303C18.7286 12.897 18.3432 12.7374 18.0591 12.4533C17.775 12.1692 17.6154 11.7839 17.6154 11.3821C17.6154 10.9803 17.775 10.595 18.0591 10.3109C18.3432 10.0268 18.7286 9.86719 19.1303 9.86719H23.8697C24.2714 9.86719 24.6568 10.0268 24.9409 10.3109C25.225 10.595 25.3846 10.9803 25.3846 11.3821C25.3846 11.7839 25.225 12.1692 24.9409 12.4533C24.6568 12.7374 24.2714 12.897 23.8697 12.897ZM19.1303 10.1868C18.8133 10.1868 18.5093 10.3128 18.2852 10.5369C18.061 10.7611 17.9351 11.0651 17.9351 11.3821C17.9351 11.6991 18.061 12.0031 18.2852 12.2273C18.5093 12.4514 18.8133 12.5774 19.1303 12.5774H23.8697C24.1867 12.5774 24.4907 12.4514 24.7148 12.2273C24.939 12.0031 25.0649 11.6991 25.0649 11.3821C25.0649 11.0651 24.939 10.7611 24.7148 10.5369C24.4907 10.3128 24.1867 10.1868 23.8697 10.1868H19.1303Z" fill="#FFBA1A"/>
<path d="M20.7981 11.3821C20.7981 11.4563 20.7761 11.5289 20.7349 11.5906C20.6936 11.6523 20.635 11.7004 20.5665 11.7288C20.4979 11.7572 20.4225 11.7646 20.3497 11.7501C20.2769 11.7357 20.21 11.6999 20.1575 11.6474C20.105 11.5949 20.0693 11.5281 20.0548 11.4553C20.0403 11.3825 20.0478 11.3071 20.0762 11.2385C20.1046 11.1699 20.1527 11.1113 20.2144 11.0701C20.2761 11.0288 20.3486 11.0068 20.4229 11.0068C20.5224 11.0068 20.6178 11.0464 20.6882 11.1167C20.7586 11.1871 20.7981 11.2826 20.7981 11.3821Z" fill="#004358"/>
<path d="M22.5841 11.7573C22.7913 11.7573 22.9593 11.5893 22.9593 11.3821C22.9593 11.1748 22.7913 11.0068 22.5841 11.0068C22.3768 11.0068 22.2088 11.1748 22.2088 11.3821C22.2088 11.5893 22.3768 11.7573 22.5841 11.7573Z" fill="#004358"/>
<path d="M10.2563 48.8937V61.972C10.2563 62.9727 7.78239 67.4201 6.24663 70.0886C6.16349 69.9397 6.11815 69.7727 6.11459 69.6021V34.8077C6.11285 34.6725 6.13642 34.5382 6.18408 34.4116C9.21392 38.4977 10.2563 41.875 10.2563 48.8937Z" fill="#0B7087"/>
<path d="M32.7576 48.8937V61.972C32.7576 62.9727 35.2246 67.4201 36.7673 70.0886C36.8504 69.9397 36.8958 69.7727 36.8993 69.6021V34.8077C36.8988 34.6721 36.8729 34.5377 36.8229 34.4116C33.7791 38.4977 32.7576 41.875 32.7576 48.8937Z" fill="#0B7087"/>
<path d="M21.493 71.8051C30.4469 71.8051 37.7054 64.5466 37.7054 55.5928C37.7054 46.6389 30.4469 39.3804 21.493 39.3804C12.5392 39.3804 5.28064 46.6389 5.28064 55.5928C5.28064 64.5466 12.5392 71.8051 21.493 71.8051Z" fill="#C48D5C"/>
<g style="mix-blend-mode:overlay" opacity="0.5">
<path d="M32.9592 44.1335C30.5131 50.4225 21.3194 56.0166 21.3194 56.0166C21.3194 56.0166 14.3007 51.4371 10.027 44.1335C17.586 42.5213 25.4001 42.5213 32.9592 44.1335Z" fill="#FFB778"/>
</g>
<g style="mix-blend-mode:multiply">
<path d="M32.9592 67.1353C30.5131 61.2493 21.3194 56.0166 21.3194 56.0166C21.3194 56.0166 14.3007 60.3042 10.027 67.1353C17.5967 68.6433 25.3895 68.6433 32.9592 67.1353Z" fill="#C48D5C"/>
</g>
</g>
<defs>
<filter id="filter0_d_30_6498" x="0" y="0" width="49" height="79.7793" filterUnits="userSpaceOnUse" color-interpolation-filters="sRGB">
<feFlood flood-opacity="0" result="BackgroundImageFix"/>
<feColorMatrix in="SourceAlpha" type="matrix" values="0 0 0 0 0 0 0 0 0 0 0 0 0 0 0 0 0 0 127 0" result="hardAlpha"/>
<feOffset dx="3" dy="3"/>
<feGaussianBlur stdDeviation="2"/>
<feComposite in2="hardAlpha" operator="out"/>
<feColorMatrix type="matrix" values="0 0 0 0 0 0 0 0 0 0 0 0 0 0 0 0 0 0 0.25 0"/>
<feBlend mode="normal" in2="BackgroundImageFix" result="effect1_dropShadow_30_6498"/>
<feBlend mode="normal" in="SourceGraphic" in2="effect1_dropShadow_30_6498" result="shape"/>
</filter>
</defs>
</svg>
